<?xml version="1.0" standalone="no"?>
<!DOCTYPE svg PUBLIC "-//W3C//DTD SVG 1.1//EN" "http://www.w3.org/Graphics/SVG/1.1/DTD/svg11.dtd" >
<svg xmlns="http://www.w3.org/2000/svg" xmlns:xlink="http://www.w3.org/1999/xlink" version="1.1">
<metadata>
Created by FontForge 20170731 at Fri Nov 25 18:46:00 2022
 By Aleksey,,,
Copyright 2018 The Advent Pro Project Authors (https://github.com/googlefonts/Advent)
</metadata>
<defs>
<font id="AdventPro-Italic" horiz-adv-x="267" >
  <font-face 
    font-family="Advent Pro"
    font-weight="400"
    font-style="italic"
    font-stretch="normal"
    units-per-em="1000"
    panose-1="0 0 0 0 0 0 0 0 0 0"
    ascent="800"
    descent="-200"
    x-height="499"
    cap-height="700"
    bbox="-65.6129 -235.579 2007 962"
    underline-thickness="50"
    underline-position="-175"
    slope="-12"
    unicode-range="U+000D-FB04"
  />
<missing-glyph horiz-adv-x="500" 
d="M50 -232v1194h400v-1194h-400zM100 -182h300v1094h-300v-1094z" />
    <glyph glyph-name="fi" unicode="fi" horiz-adv-x="365" 
d="M457 614l11 53q-14 12 -34 21t-45 15t-53 6q-34 1 -63.5 -8.5t-52.5 -28t-38.5 -45t-22.5 -60.5l-120 -567h57l95 447h91l34 53h-114l14 64q6 28 20 48t37.5 31t55.5 11q44 0 75 -11.5t53 -28.5zM326 0l106 500h-57l-106 -500h57z" />
    <glyph glyph-name="fl" unicode="fl" horiz-adv-x="370" 
d="M403 623l-132 -623h57l140 658q-18 18 -38.5 28.5t-42.5 15.5t-44 5q-31 0 -61 -10.5t-54.5 -29.5t-42 -45.5t-24.5 -59.5l-120 -562h57l95 447h91l35 53h-115l10 50q6 26 17.5 45t27 30.5t33.5 17t36 5.5q16 0 34.5 -5.5t40.5 -19.5z" />
    <glyph glyph-name="ffl" unicode="ffl" horiz-adv-x="598" 
d="M634 629l-134 -629h56l141 666q-17 14 -35.5 22.5t-39 12.5t-44.5 4t-46 -4.5t-41 -13.5t-36 -23q-25 21 -56 31.5t-67 10.5q-19 0 -44.5 -7.5t-52 -24t-47 -44.5t-29.5 -69l-120 -561h57l95 447h91l34 53h-114l10 50q9 40 27.5 63.5t44.5 33t56 5.5q13 -1 25.5 -5
t25 -10.5t25.5 -16.5q-10 -14 -17 -28.5t-11 -30.5l-119 -561h60l95 447h91l35 53h-115l12 57q3 14 9 25.5t14.5 21.5t19.5 18.5t25 15.5q15 8 33.5 10.5t40 -1.5t45.5 -18z" />
    <glyph glyph-name="ft" unicode="ft" horiz-adv-x="471" 
d="M353 133l67 314h98l34 53h-120l34 156q-18 18 -38.5 29t-42 16t-43.5 5q-31 0 -60.5 -10t-54 -29t-42 -45.5t-24.5 -59.5l-120 -562h57l95 447h89l35 53h-113l10 50q8 35 25 56.5t40.5 31.5t47.5 10q16 0 36 -4t39 -21l-104 -490q-8 -39 -3.5 -68t23.5 -48t54 -30l26 43
q-20 8 -32 21.5t-15 34t2 47.5z" />
    <glyph glyph-name="w_w_w" unicode="www" horiz-adv-x="2020" 
d="M492 499h-57l-206 -442l-40 442h-59l46 -499h78l188 405l14 -405h77l262 499h-59l-228 -442zM1098 499h-57l-206 -442l-40 442h-59l46 -499h78l188 405l14 -405h77l262 499h-59l-228 -442zM1704 499h-57l-206 -442l-40 442h-59l46 -499h78l188 405l14 -405h77l262 499
h-59l-228 -442z" />
    <glyph glyph-name="t_t" unicode="tt" horiz-adv-x="482" 
d="M125 132l67 316h106l13 52h-108l43 200h-57l-120 -568q-8 -39 -3 -67.5t24 -47.5t53 -30l26 43q-15 6 -25.5 15t-16 22t-6 29t3.5 36zM274 132l68 316h96l35 52h-120l42 200h-56l-121 -568q-12 -58 5.5 -93t69.5 -52l26 43q-21 8 -32.5 21.5t-14.5 34t2 46.5z" />
    <glyph glyph-name="gamma_gamma" unicode="&#x3b3;&#x3b3;" horiz-adv-x="869" 
d="M542 500h-57l-236 -457q-7 5 -13 11.5t-10.5 17t-7.5 27.5t-5 41l-29 360h-57l29 -371q3 -29 8 -55.5t18.5 -47t39.5 -32.5l-37 -73q-9 -16 -19.5 -30t-24.5 -24t-31 -16t-38 -7l1 -43q45 1 76 16.5t50.5 38.5t31.5 46.5t21 39.5zM945 479l-30 31q-31 -6 -52.5 -21
t-39 -40.5t-36.5 -61.5l-178 -344q-8 5 -13.5 11.5t-10 17t-7.5 27.5t-5 41l-29 360h-57l29 -371q2 -29 7.5 -55.5t19 -47t39.5 -32.5l-37 -73q-9 -16 -20 -30t-24.5 -24t-30.5 -16t-38 -7l1 -43q45 1 75.5 16.5t50 38.5t32 46.5t21.5 39.5l223 433q13 26 26.5 45.5t33 34.5
t50.5 24z" />
    <glyph glyph-name="gamma_kappa" unicode="&#x3b3;&#x3ba;" horiz-adv-x="884" 
d="M598 469l-1 43q-41 5 -69.5 -7t-49.5 -37t-40 -61l-189 -364q-7 5 -13 11.5t-10.5 17t-7.5 27.5t-5 41l-29 360h-57l29 -371q3 -29 8 -55.5t18.5 -47t39.5 -32.5l-37 -73q-9 -16 -19.5 -30t-24.5 -24t-31 -16t-38 -7l1 -43q45 1 76 16.5t50.5 38.5t32 46.5t20.5 39.5
l234 453q6 12 18 30.5t34.5 32.5t59.5 11zM790 118l-90 178l233 205h-75l-255 -227l47 225l-53 13l-109 -512h57l42 198l67 56l74 -143q14 -28 30 -53.5t39.5 -41.5t60.5 -16h3l10 48h-3q-13 0 -26.5 7.5t-26.5 23.5t-25 39z" />
    <glyph glyph-name="lambda_lambda" unicode="&#x3bb;&#x3bb;" horiz-adv-x="867" 
d="M435 -1l-49 558q-1 16 -3.5 39.5t-13 46t-35 38t-69.5 16.5l-19 -43q20 0 35 -6t25 -16t15.5 -24t6.5 -30l7 -72q-30 -11 -52.5 -31.5t-40 -47t-32.5 -56.5l-187 -372h57l182 361q16 32 29 50.5t25 29t24 16.5l40 -457h55zM788 124l-38 433q-2 16 -4.5 39.5t-12.5 46
t-34.5 38t-69.5 16.5l-19 -43q27 0 44 -10t26.5 -27t11.5 -39l7 -72q-31 -11 -53.5 -31.5t-39.5 -47t-32 -56.5l-187 -372h56l182 361q16 32 29 50.5t25 29t25 16.5l30 -344q3 -36 9.5 -60.5t22 -39.5t44.5 -23l44 31q-27 9 -41 29.5t-19 42t-6 32.5z" />
    <glyph glyph-name="sigma_tau" unicode="&#x3c3;&#x3c4;" horiz-adv-x="798" 
d="M725 436l-66 -303q-5 -27 -2 -47t15 -34t32 -22l-26 -43q-26 8 -43.5 21t-26.5 30.5t-10 41t5 53.5l64 301q-37 0 -72 2t-68.5 5t-66.5 7q11 -16 15 -44t-8 -84l-30 -135q-19 -87 -74.5 -141t-147.5 -54q-62 0 -99 26.5t-49 70.5t0 98l30 135q12 56 36.5 93.5t56 59
t66.5 30.5t68 9q24 0 45.5 -1.5t40.5 -3.5t33 -3q63 -6 115.5 -9.5t100.5 -4.5t99 1.5t112 8.5l-11 -53q-35 -4 -68.5 -7t-65.5 -4zM402 452q-13 2 -28 3.5t-30.5 2.5t-31.5 1q-22 0 -45.5 -6.5t-45.5 -21.5t-39 -40.5t-25 -63.5l-32 -152q-8 -40 1.5 -70.5t35 -47.5
t64.5 -17q63 0 101 37t51 98l34 159q4 19 5.5 34.5t0.5 29t-3 24t-5.5 18t-7.5 12.5z" />
    <glyph glyph-name=".notdef" horiz-adv-x="500" 
d="M50 -232v1194h400v-1194h-400zM100 -182h300v1094h-300v-1094z" />
    <glyph glyph-name=".null" horiz-adv-x="0" 
 />
    <glyph glyph-name="nonmarkingreturn" horiz-adv-x="333" 
 />
    <glyph glyph-name="NULL" horiz-adv-x="0" 
 />
    <glyph glyph-name="NULL" horiz-adv-x="0" 
 />
    <glyph glyph-name="CR" unicode="&#xd;" horiz-adv-x="377" 
 />
    <glyph glyph-name="space" unicode=" " horiz-adv-x="280" 
 />
    <glyph glyph-name="exclam" unicode="!" horiz-adv-x="148" 
d="M183 673l-107 -552h47l127 553q4 18 -2.5 27t-23.5 9q-16 0 -26 -8.5t-15 -28.5zM87 67q-14 0 -24 -8.5t-14 -20.5q-4 -14 1.5 -26t22.5 -12q16 0 26 10t14 23q3 13 -3 23.5t-23 10.5z" />
    <glyph glyph-name="quotedbl" unicode="&#x22;" 
d="M316 703l-10 -115h40l38 115q4 18 -4.5 26.5t-22 8.5t-25.5 -8.5t-16 -26.5zM181 703l-11 -115h39l40 115q4 18 -4.5 26.5t-22 8.5t-25.5 -8.5t-16 -26.5z" />
    <glyph glyph-name="numbersign" unicode="#" horiz-adv-x="611" 
d="M444 244l77 170h146l12 57h-135l104 229h-55l-103 -229h-118l102 229h-55l-102 -229h-187l-11 -57h172l-76 -170h-133l-12 -54h121l-84 -190h55l84 190h118l-84 -190h55l84 190h200l12 54h-187zM390 244h-119l75 170h120z" />
    <glyph glyph-name="dollar" unicode="$" horiz-adv-x="530" 
d="M225 -114h56l198 932h-57zM557 623l25 49q-21 12 -44.5 20.5t-49 12.5t-52.5 4q-38 0 -79.5 -8t-78.5 -26t-64 -49t-37 -77q-9 -43 0.5 -73.5t32 -53t53 -39t63.5 -31t63.5 -29.5t53.5 -33.5t34 -43t4 -58.5q-9 -40 -29.5 -68t-49.5 -45t-63 -25t-70 -8q-34 0 -70 9.5
t-65.5 28.5t-44.5 47l-43 -35q23 -35 55.5 -58.5t73 -34.5t87.5 -11q44 0 88.5 11t83.5 34.5t66.5 59.5t38.5 87q10 47 1 80t-31 57t-52.5 41t-63.5 30.5t-64 27.5t-54.5 31.5t-34.5 42t-4 59.5q7 32 28 52.5t49 32.5t57.5 16.5t54.5 4.5q24 0 47.5 -3.5t45 -10.5t39.5 -18z
" />
    <glyph glyph-name="percent" unicode="%" horiz-adv-x="713" 
d="M48 0h68l684 700h-64zM328 714q-41 0 -78.5 -19.5t-64 -52.5t-35.5 -74q-8 -40 4.5 -73t41.5 -53t69 -20q41 0 78 20t64 53t35 73q9 41 -4 74t-41.5 52.5t-68.5 19.5zM317 663q26 0 44.5 -13t27 -34.5t2.5 -47.5q-5 -25 -23 -46.5t-42 -34.5t-49 -13q-27 0 -46 13
t-27 34.5t-3 46.5q6 26 23.5 47.5t42 34.5t50.5 13zM594 277q-39 0 -76 -19.5t-63.5 -52.5t-35.5 -73q-8 -40 4.5 -73.5t41.5 -53t68 -19.5q41 0 78 19.5t63.5 53t34.5 73.5q9 40 -3.5 73t-41.5 52.5t-70 19.5zM584 227q27 0 46 -12.5t27 -34t2 -48.5q-5 -26 -22.5 -48
t-41.5 -34.5t-51 -12.5q-25 0 -44 12.5t-27 34.5t-2 48q6 27 23 48.5t41 34t49 12.5z" />
    <glyph glyph-name="ampersand" unicode="&#x26;" horiz-adv-x="529" 
d="M518 653l36 51h-166q-46 0 -83 -20t-60.5 -55t-31.5 -81q-3 -21 -2.5 -47t11.5 -52t37 -46h-19q-27 0 -52 -8.5t-45.5 -26.5t-35.5 -46t-23 -67l-20 -95q-7 -34 -4.5 -60.5t14 -46.5t30.5 -33t45 -19.5t57 -6.5q23 0 53 7t61 22t56 39q5 -27 25 -43.5t52 -27.5l22 43
q-31 12 -43 37.5t-4 65.5l46 213h76l34 54h-99l22 103h-53l-22 -104h-50q-30 0 -53.5 11t-39.5 30t-21.5 45t0.5 56q10 48 40 78t73 30h137zM420 350l-36 -173q-7 -35 -28 -62t-53 -44t-74 -21q-43 -4 -70 9t-36 40t-1 66l18 87q8 35 22 54.5t31.5 29t35 12t30.5 2.5h161z
" />
    <glyph glyph-name="quotesingle" unicode="'" 
d="M249 704l-11 -115h40l38 115q4 18 -4.5 26.5t-21.5 8.5t-25 -9t-16 -26z" />
    <glyph glyph-name="parenleft" unicode="(" horiz-adv-x="182" 
d="M331 780l-11 38q-39 -19 -68 -44.5t-47.5 -60.5t-29.5 -86l-119 -557q-10 -48 -7.5 -78.5t13.5 -50t27 -33.5l32 -28l27 39q-15 12 -24.5 27t-14 33t-4 38.5t5.5 44.5l122 575q5 23 13.5 43.5t20.5 39t28 33.5t36 27z" />
    <glyph glyph-name="parenright" unicode=")" horiz-adv-x="182" 
d="M210 818l-27 -38q15 -12 24.5 -27t13.5 -33.5t4 -39t-5 -43.5l-122 -575q-5 -24 -13.5 -44.5t-21 -38.5t-28 -33t-35.5 -27l11 -39q22 15 43.5 28.5t40.5 33t35 50t26 78.5l118 557q8 38 7.5 67t-8.5 51.5t-24 40t-39 32.5z" />
    <glyph glyph-name="asterisk" unicode="*" horiz-adv-x="353" 
d="M175 627l-29 -48l98 -38l-84 -90l39 -32l86 97l48 -97l48 32l-47 90l117 38l-11 48l-115 -40l24 113h-54l-24 -113z" />
    <glyph glyph-name="plus" unicode="+" horiz-adv-x="379" 
d="M329 530h-55l-28 -132h-133l-12 -55h133l-28 -133h55l29 133h131l12 55h-131z" />
    <glyph glyph-name="comma" unicode="," 
d="M80 -85l15 -13q9 7 20 18t22.5 26t21.5 34t15 43q2 15 -5.5 24t-21.5 9t-25.5 -9.5t-14.5 -23.5q-3 -12 3 -21.5t18 -11.5q-6 -16 -16.5 -35.5t-31.5 -39.5z" />
    <glyph glyph-name="hyphen" unicode="-" horiz-adv-x="392" 
d="M110 356h320l12 58h-320z" />
    <glyph glyph-name="period" unicode="." horiz-adv-x="137" 
d="M80 57q-13 0 -25 -9.5t-15 -23.5q-3 -13 5 -23t21 -10q14 0 26.5 10t15.5 23q3 14 -5 23.5t-23 9.5z" />
    <glyph glyph-name="slash" unicode="/" horiz-adv-x="416" 
d="M-6 -114h57l523 932h-62z" />
    <glyph glyph-name="zero" unicode="0" horiz-adv-x="492" 
d="M142 508l-66 -317q-13 -65 5.5 -110t61 -68.5t100.5 -23.5q62 0 114.5 24t88.5 68t49 105l68 321q21 98 -23.5 153.5t-144.5 55.5q-99 0 -165.5 -53t-87.5 -155zM130 187l70 330q11 49 37 81t64 48.5t84 16.5q48 0 79.5 -16.5t44 -48.5t1.5 -81l-70 -325
q-10 -49 -38 -82.5t-68 -50.5t-86 -17q-44 0 -74 16.5t-42 48.5t-2 80z" />
    <glyph glyph-name="one" unicode="1" horiz-adv-x="236" 
d="M146 622l5 -39q13 2 29.5 7.5t34.5 13t33.5 15.5t26.5 15l-135 -634h53l149 700h-54q-21 -21 -46 -36t-47.5 -24t-36 -13.5t-12.5 -4.5z" />
    <glyph glyph-name="two" unicode="2" horiz-adv-x="413" 
d="M168 590l48 -19q18 30 39.5 48.5t45 27.5t45.5 9q29 0 52 -13.5t33.5 -39t2.5 -62.5q-3 -15 -9 -30t-19 -34.5t-40 -50.5l-325 -373l-12 -53h350l12 53h-285l301 342q45 51 63.5 88.5t24.5 67.5q12 51 -5.5 86.5t-52.5 54.5t-78 18q-33 0 -68 -13t-67 -39t-56 -68z" />
    <glyph glyph-name="three" unicode="3" horiz-adv-x="443" 
d="M291 414h-2l210 237l10 49h-290l-12 -57h221l-254 -287h112q42 0 70.5 -21.5t41 -56.5t4.5 -74q-8 -43 -36.5 -79.5t-68.5 -58.5t-85 -22q-42 0 -70.5 17.5t-44.5 51.5l-53 -31q20 -43 61 -68.5t95 -25.5q50 0 92.5 16.5t76.5 45.5t56.5 67.5t32.5 82.5q13 58 -4.5 106.5
t-59.5 78t-103 29.5z" />
    <glyph glyph-name="four" unicode="4" horiz-adv-x="489" 
d="M332 0h57l76 356h52l33 58h-72l60 286h-57l-61 -286h-219l217 286h-59l-267 -344h316z" />
    <glyph glyph-name="five" unicode="5" horiz-adv-x="440" 
d="M204 412l73 231h217l12 57h-266l-110 -344h115q61 0 98 -20.5t51 -55.5t5 -79q-7 -36 -26.5 -64.5t-46.5 -49.5t-57.5 -32t-60.5 -11q-33 0 -59 7t-44 16t-27.5 16t-9.5 6l-31 -47q0 1 13 -7t35 -19t51.5 -19.5t62.5 -8.5q50 0 93 18.5t77 49t56 68t30 75.5
q16 73 -7.5 120t-74 70t-116.5 23h-53z" />
    <glyph glyph-name="six" unicode="6" horiz-adv-x="484" 
d="M410 648h39l11 52h-35q-72 0 -133.5 -30.5t-104 -84t-57.5 -123.5l-56 -259q-12 -58 6 -106.5t60.5 -77.5t102.5 -29q45 0 87 16.5t77.5 46t60 68t33.5 82.5q13 59 -5.5 107t-61.5 76.5t-104 28.5q-30 0 -59 -7.5t-57 -22.5t-54 -38l23 108q12 56 43 99.5t78 68.5t106 25
zM322 360q32 0 57.5 -12.5t43 -34t23.5 -50t-1 -60.5t-25.5 -60.5t-44.5 -50.5t-57.5 -34.5t-63.5 -12.5q-43 0 -74 21.5t-45 57.5t-5 79q7 32 25.5 60.5t45 50t57.5 34t64 12.5z" />
    <glyph glyph-name="seven" unicode="7" horiz-adv-x="435" 
d="M100 0l455 645l12 55h-392l-12 -57h329l-455 -643h63z" />
    <glyph glyph-name="eight" unicode="8" horiz-adv-x="483" 
d="M392 709q-50 0 -95 -23.5t-76 -63.5t-41 -89q-5 -26 -3 -53t13 -50.5t33 -40.5q-36 -17 -68 -46t-54 -65.5t-31 -76.5q-12 -58 5.5 -106.5t59 -77.5t102.5 -29t115.5 28.5t93 77t50.5 107.5q8 39 2.5 73t-24 63t-51.5 51q42 26 69.5 61t37.5 84t-4 89t-48.5 63.5
t-85.5 23.5zM328 412q-33 0 -57.5 17t-35 45t-3.5 60q7 34 29.5 61.5t54 44t63.5 16.5q34 0 58 -16.5t34.5 -44t3.5 -61.5q-6 -33 -28.5 -60.5t-53.5 -44.5t-65 -17zM249 44q-43 0 -74 21.5t-44.5 57t-4.5 78.5q7 32 25 60.5t44 50t57 33.5t64 12q46 0 77 -21t43.5 -56.5
t3.5 -78.5t-38 -78.5t-69 -57t-84 -21.5z" />
    <glyph glyph-name="nine" unicode="9" horiz-adv-x="482" 
d="M387 709q-46 0 -88 -16.5t-77 -45.5t-59 -67.5t-34 -82.5q-13 -60 5.5 -108t61.5 -76t104 -28q31 0 59.5 8t56 23t53.5 37l-24 -107q-11 -55 -42.5 -98.5t-78.5 -68.5t-105 -25h-38l-11 -55h35q72 0 133.5 30.5t104 85t56.5 124.5l55 258q13 59 -4.5 107t-59.5 76.5
t-103 28.5zM375 654q44 0 75.5 -21t45 -56.5t3.5 -79.5q-7 -33 -25 -61.5t-44 -50t-57.5 -33.5t-64.5 -12q-32 0 -58 12t-42.5 33.5t-23 50t0.5 61.5t25.5 61.5t44.5 50t57 33.5t63 12z" />
    <glyph glyph-name="colon" unicode=":" horiz-adv-x="144" 
d="M134 144q3 14 -5 23.5t-21 9.5q-14 0 -26 -9.5t-15 -23.5t5 -23.5t22 -9.5q13 0 25 9.5t15 23.5zM185 385q3 14 -4.5 23.5t-21.5 9.5q-13 0 -25.5 -9.5t-15.5 -23.5q-3 -13 5.5 -23t21.5 -10q14 0 25.5 10t14.5 23z" />
    <glyph glyph-name="semicolon" unicode=";" horiz-adv-x="150" 
d="M46 35l14 -12q9 6 20.5 17t23 26t21 34.5t14.5 43.5q2 15 -5.5 24t-21.5 9t-25.5 -9.5t-14.5 -23.5q-3 -12 3 -21.5t18 -11.5q-6 -16 -16.5 -36t-30.5 -40zM192 385q3 14 -4.5 23.5t-21.5 9.5q-13 0 -25.5 -9.5t-15.5 -23.5q-3 -13 5.5 -23t21.5 -10q14 0 25.5 10
t14.5 23z" />
    <glyph glyph-name="less" unicode="&#x3c;" horiz-adv-x="375" 
d="M102 359l218 -280l47 40l-190 238l293 242l-32 38z" />
    <glyph glyph-name="equal" unicode="=" horiz-adv-x="391" 
d="M110 357h320l12 55h-320zM88 253h320l12 55h-320z" />
    <glyph glyph-name="greater" unicode="&#x3e;" horiz-adv-x="375" 
d="M158 599l188 -242l-291 -238l30 -40l337 280l-218 278z" />
    <glyph glyph-name="question" unicode="?" horiz-adv-x="405" 
d="M138 532h57q7 32 22.5 56t36 39t44 22.5t45.5 6.5q29 -1 53 -14.5t36 -40t3 -66.5q-7 -33 -24 -57.5t-39 -45.5t-46 -43q-18 -16 -35.5 -33t-33 -38t-27.5 -47t-19 -59l-20 -92h51l19 87q7 31 18 53.5t26 40t32 33t35 32.5q28 26 52 51.5t41.5 54.5t25.5 66
q8 40 0.5 71.5t-27.5 53.5t-48 33.5t-61 12.5t-67.5 -9.5t-64.5 -32.5t-52.5 -55.5t-32.5 -79.5zM205 57q-14 0 -26.5 -9.5t-15.5 -23.5q-3 -13 5.5 -23t22.5 -10q13 0 25 10t15 23q3 14 -5 23.5t-21 9.5z" />
    <glyph glyph-name="at" unicode="@" horiz-adv-x="719" 
d="M786 452l-6 41q-30 -8 -50 -25t-32 -43t-20 -61l-42 -201q-10 -48 -39.5 -81.5t-71.5 -54t-89.5 -30t-95.5 -9.5q-57 0 -101 11t-72 35t-37.5 62.5t2.5 93.5l32 152q10 47 33 82.5t55.5 59t71.5 35.5t81 12q78 0 119 -23.5t34 -64.5h-167q-27 0 -54 -7.5t-51 -25.5
t-42 -47.5t-27 -73.5l-12 -55q-12 -56 -3 -90.5t33.5 -52.5t57.5 -24t69 -6q23 0 47.5 2t47.5 4t41 4t28.5 3.5l10.5 1.5l65 313h56l15 54h-63q2 26 -7.5 50.5t-33.5 43.5t-63.5 30.5t-97.5 11.5q-61 0 -112 -18t-90 -50t-65 -76t-37 -96l-31 -143q-13 -64 0 -113t48 -82.5
t88 -50t118 -16.5q61 0 120.5 13.5t110.5 42t86.5 73.5t48.5 108l44 210q4 19 10.5 33t16.5 23.5t22 14.5zM377 389h172l-57 -269l-11.5 -1t-31.5 -2.5t-45 -3t-51 -1.5q-70 0 -89.5 26t-6.5 90l13 58q11 49 30.5 70.5t40.5 27t36 5.5z" />
    <glyph glyph-name="A" unicode="A" horiz-adv-x="547" 
d="M527 0l-79 700h-53l-374 -700h60l131 245h227l29 -245h59zM238 300l164 314l34 -314h-198z" />
    <glyph glyph-name="B" unicode="B" horiz-adv-x="505" 
d="M400 700h-210l-149 -700h231q70 0 120.5 26t82 73.5t44.5 109.5q10 48 4 84t-24 60.5t-45 37.5q25 15 44.5 35.5t33 46t19.5 55.5q12 58 -2.5 96t-52.5 57t-96 19zM349 412h-164l50 235h156q43 0 68.5 -13t34 -39t-0.5 -65q-7 -35 -25.5 -62t-48 -41.5t-70.5 -14.5z
M282 53h-173l64 304h189q43 0 67.5 -20.5t31.5 -53t-1 -70.5q-11 -53 -35 -89t-59.5 -53.5t-83.5 -17.5z" />
    <glyph glyph-name="C" unicode="C" horiz-adv-x="423" 
d="M490 639l25 38q-28 17 -62 25t-73 8q-55 0 -103.5 -21t-83.5 -65t-50 -114l-70 -326q-14 -67 0.5 -109.5t55.5 -63.5t104 -21q38 0 80 8.5t88 24.5l-2 46q-30 -9 -57 -15.5t-51 -10t-44 -3.5q-50 0 -79.5 14.5t-39 47t1.5 84.5l70 328q11 53 36.5 85t64 46.5t86.5 14.5
q26 0 52 -5t51 -16z" />
    <glyph glyph-name="D" unicode="D" horiz-adv-x="497" 
d="M379 700h-189l-149 -700h209q71 0 123 22.5t84.5 67t46.5 110.5l58 275q15 68 -0.5 118.5t-61 78.5t-121.5 28zM243 50h-135l127 600h143q59 0 91 -22t41 -58.5t-1 -79.5l-64 -300q-7 -34 -23 -60.5t-41.5 -44t-59.5 -26.5t-78 -9z" />
    <glyph glyph-name="E" unicode="E" horiz-adv-x="406" 
d="M41 0h332l11 50h-276l65 307h176l27 55h-191l50 236h278l11 52h-334z" />
    <glyph glyph-name="F" unicode="F" horiz-adv-x="391" 
d="M524 700h-334l-149 -700h57l75 357h179l25 55h-192l50 235h278z" />
    <glyph glyph-name="G" unicode="G" horiz-adv-x="479" 
d="M490 638l25 38q-19 11 -40.5 18.5t-45.5 11t-50 3.5q-63 0 -111.5 -24.5t-80.5 -70.5t-46 -111l-67 -314q-14 -66 0.5 -110t53 -66.5t95.5 -22.5q32 0 64.5 7t62 20t51.5 30l-6 -47h51l64 300h-203l9 -55h129l-12 -58q-7 -34 -27.5 -60t-49.5 -44.5t-62 -28.5t-65 -10
q-43 0 -68.5 16.5t-33 48.5t2.5 78l69 324q11 53 36.5 85.5t64 47.5t88.5 15q17 0 34 -2t34 -7t34 -12z" />
    <glyph glyph-name="H" unicode="H" horiz-adv-x="515" 
d="M503 412h-318l61 288h-56l-149 -700h57l75 357h318l-76 -357h57l148 700h-56z" />
    <glyph glyph-name="I" unicode="I" horiz-adv-x="187" 
d="M159 651l67 -2l-138 -649h56l149 700h-124z" />
    <glyph glyph-name="J" unicode="J" horiz-adv-x="207" 
d="M191 119l124 581h-124l-10 -49l65 -2l-113 -535q-8 -39 -25 -64.5t-38 -37.5t-43 -12l5 -37q35 0 62 12.5t46 34.5t32 50t19 59z" />
    <glyph glyph-name="K" unicode="K" horiz-adv-x="459" 
d="M177 375l69 325h-56l-149 -700h56l57 269l69 82l152 -351h63l-172 398l269 302h-69z" />
    <glyph glyph-name="L" unicode="L" horiz-adv-x="424" 
d="M41 0h361l11 50h-305l138 650h-56z" />
    <glyph glyph-name="M" unicode="M" horiz-adv-x="621" 
d="M246 700h-56l-149 -700h57l113 535l67 -535h61l297 535l-114 -535h56l149 700h-56l-344 -614z" />
    <glyph glyph-name="N" unicode="N" horiz-adv-x="577" 
d="M683 700h-56l-127 -597l-253 597h-57l-149 -700h57l127 597l253 -597h56z" />
    <glyph glyph-name="O" unicode="O" horiz-adv-x="492" 
d="M142 508l-66 -317q-13 -65 5.5 -110t61 -68.5t100.5 -23.5q62 0 114.5 24t88.5 68t49 105l68 321q21 98 -23.5 153.5t-144.5 55.5q-99 0 -165.5 -53t-87.5 -155zM130 187l70 330q11 49 37 81t64 48.5t84 16.5q48 0 79.5 -16.5t44 -48.5t1.5 -81l-70 -325
q-10 -49 -38 -82.5t-68 -50.5t-86 -17q-44 0 -74 16.5t-42 48.5t-2 80z" />
    <glyph glyph-name="P" unicode="P" horiz-adv-x="506" 
d="M426 700h-236l-149 -700h57l52 245h179q50 0 90 12.5t70.5 39.5t52 71t34.5 106q14 64 10 107.5t-24 69.5t-54 37.5t-82 11.5zM161 300l74 347h184q30 0 53.5 -7.5t38 -26t17.5 -52.5t-8 -87q-12 -57 -30 -92t-40.5 -52.5t-48.5 -23.5t-55 -6h-185z" />
    <glyph glyph-name="Q" unicode="Q" horiz-adv-x="492" 
d="M282 50l26 124h-56l-26 -123q-9 -42 -4.5 -72.5t22.5 -49.5t49 -28t75 -9l15 47q-30 0 -52 5.5t-35 18.5t-17 34.5t3 52.5zM142 508l-66 -317q-13 -65 5.5 -110t61 -68.5t100.5 -23.5q62 0 114.5 24t88.5 68t49 105l68 321q21 98 -23.5 153.5t-144.5 55.5
q-99 0 -165.5 -53t-87.5 -155zM130 187l70 330q11 49 37 81t64 48.5t84 16.5q48 0 79.5 -16.5t44 -48.5t1.5 -81l-70 -325q-10 -49 -38 -82.5t-68 -50.5t-86 -17q-44 0 -74 16.5t-42 48.5t-2 80z" />
    <glyph glyph-name="R" unicode="R" horiz-adv-x="510" 
d="M426 700h-236l-149 -700h56l52 245h180q10 0 19.5 0.5t19 1.5t17.5 3l38 -250h56l-40 265q35 15 61.5 42.5t45 68.5t30.5 97q14 65 10 108.5t-24 69.5t-54.5 37.5t-81.5 11.5zM346 300h-185l74 347h184q30 0 53.5 -7.5t38 -26t17.5 -52.5t-8 -88q-12 -57 -30 -91.5
t-41 -52t-49 -23.5t-54 -6z" />
    <glyph glyph-name="S" unicode="S" horiz-adv-x="530" 
d="M556 623l24 49q-21 12 -44.5 20.5t-49 12.5t-51.5 4q-39 0 -80 -8t-78.5 -26t-64 -49t-36.5 -77q-9 -43 0.5 -73.5t32 -53t52.5 -39t63 -31t63.5 -29.5t54 -33.5t34 -43t3.5 -58.5q-8 -40 -29 -68t-50 -45t-63 -25t-69 -8q-34 0 -70 9.5t-66 28.5t-45 47l-42 -35
q23 -35 55.5 -58.5t73 -34.5t86.5 -11q45 0 89.5 11t83 34.5t66.5 59.5t39 87q10 47 1 80t-31.5 57t-52.5 41t-63.5 30.5t-64.5 27.5t-54.5 31.5t-34 42t-3.5 59.5q7 32 27.5 52.5t48.5 32.5t58 16.5t55 4.5q24 0 47 -3.5t44.5 -10.5t40.5 -18z" />
    <glyph glyph-name="T" unicode="T" horiz-adv-x="417" 
d="M371 650h176l11 50h-402l-11 -50h171l-139 -650h56z" />
    <glyph glyph-name="U" unicode="U" horiz-adv-x="498" 
d="M497 186l109 514h-55l-109 -513q-10 -47 -36 -79.5t-64 -49t-85 -16.5q-46 0 -77.5 16.5t-44 48.5t-2.5 80l109 513h-55l-109 -514q-14 -64 3 -108t60 -66.5t105 -22.5q64 0 115.5 23t87 67t48.5 107z" />
    <glyph glyph-name="V" unicode="V" horiz-adv-x="511" 
d="M164 700l52 -700h77l349 700h-60l-314 -631l-44 631h-60z" />
    <glyph glyph-name="W" unicode="W" horiz-adv-x="733" 
d="M536 700h-70l-235 -631v631h-56v-700h83l222 576v-576h70l312 700h-60l-266 -607v607z" />
    <glyph glyph-name="X" unicode="X" horiz-adv-x="556" 
d="M368 412l-113 288h-63l133 -340l-300 -360h76l248 300l120 -300h63l-139 353l283 347h-74z" />
    <glyph glyph-name="Y" unicode="Y" horiz-adv-x="515" 
d="M507 156l115 544h-56l-58 -277q-7 -36 -28 -60t-50.5 -37.5t-62 -19.5t-64.5 -6q-55 0 -84.5 17.5t-37 51.5t2.5 84l51 247h-56l-52 -244q-14 -65 -0.5 -112t55.5 -72.5t115 -25.5q34 0 67 6t63.5 19.5t55.5 34.5l-33 -153q-6 -25 -14 -45t-18.5 -35.5t-24.5 -26
t-31 -16.5l6 -37q51 7 87 48.5t52 114.5z" />
    <glyph glyph-name="Z" unicode="Z" horiz-adv-x="547" 
d="M189 700l-11 -49l398 -1l-22 -24l-515 -577l-11 -49h487l11 49l-417 1l21 23l516 578l11 49h-468z" />
    <glyph glyph-name="bracketleft" unicode="[" horiz-adv-x="223" 
d="M260 762l108 10l9 46h-161l-198 -932h162l9 45l-103 10z" />
    <glyph glyph-name="backslash" unicode="\" horiz-adv-x="414" 
d="M312 -114h61l-127 932h-56z" />
    <glyph glyph-name="bracketright" unicode="]" horiz-adv-x="225" 
d="M-4 -114h162l197 932h-161l-10 -46l104 -10l-175 -821l-107 -10z" />
    <glyph glyph-name="asciicircum" unicode="^" 
d="M428 772l-101 128l-160 -129l31 -39l113 92l70 -89z" />
    <glyph glyph-name="underscore" unicode="_" horiz-adv-x="384" 
d="M21 -56h320l12 56h-320z" />
    <glyph glyph-name="grave" unicode="`" 
d="M267 711q-1 10 -7 17t-14.5 10t-19.5 -1q-10 -3 -14.5 -11.5t-4.5 -18.5t3 -18l36 -79h36z" />
    <glyph glyph-name="a" unicode="a" horiz-adv-x="447" 
d="M429 350q-20 14 -46 26t-55.5 19.5t-62.5 7.5q-30 0 -59.5 -8t-54.5 -25.5t-43.5 -46.5t-27.5 -71l-18 -83q-11 -55 -1 -91t36.5 -55.5t66 -26.5t87.5 -6q15 0 35.5 1t42.5 2.5t41 3t30.5 2.5t10.5 1l62 288q12 60 11.5 102.5t-18 68.5t-55.5 38t-100 12l-11 -43
q29 0 56 -4t46 -16.5t27 -35t0 -60.5zM419 303l-54 -257l-5 -0.5t-14 -1t-22.5 -2t-30 -2.5t-36.5 -2q-51 -2 -82 5.5t-45.5 25t-16.5 44.5t6 63l16 74q7 34 21 54.5t30.5 31.5t33.5 15t30 4q32 0 61.5 -7t57 -19t50.5 -26z" />
    <glyph glyph-name="b" unicode="b" horiz-adv-x="457" 
d="M198 473l48 227h-56l-149 -700q-1 0 10.5 -1t30 -2.5t40 -3t41.5 -2.5t34 -1q48 -1 91 6t77.5 26.5t59.5 55.5t37 91l41 190q9 42 0.5 71t-29 46.5t-48.5 25.5t-58 8q-32 0 -62 -5t-56.5 -13.5t-51.5 -18.5zM108 46l79 377q30 12 58 21t56.5 14t60.5 5q14 0 31.5 -4
t32 -15t21.5 -32.5t-1 -56.5l-38 -179q-7 -36 -20.5 -63t-35.5 -44.5t-56 -25t-84 -5.5q-24 1 -43.5 2.5t-33 3t-20.5 2z" />
    <glyph glyph-name="c" unicode="c" horiz-adv-x="381" 
d="M427 433l24 45q-29 15 -62.5 23.5t-68.5 8.5q-66 0 -111.5 -25t-72.5 -68t-39 -98l-31 -145q-14 -69 4.5 -110t62 -58.5t103.5 -16.5q29 1 58.5 5t57.5 11v50l-10 -1.5t-27 -4.5t-37.5 -5.5t-41.5 -2.5q-37 0 -62.5 8t-39 25t-16 45t5.5 67l26 120q9 44 30.5 78.5
t55.5 54.5t82 19q28 -1 57.5 -7.5t51.5 -17.5z" />
    <glyph glyph-name="d" unicode="d" horiz-adv-x="458" 
d="M414 0l149 700h-55l-49 -228q-30 15 -67.5 26t-87.5 11q-30 0 -61 -7.5t-59 -25t-49 -46.5t-30 -71l-40 -191q-12 -55 -2 -90.5t37 -55t67 -26.5t89 -6q14 0 34 1t42 2.5t40.5 3t30.5 2.5t11 1zM449 423l-80 -377l-5 -0.5t-14.5 -1.5t-23 -2t-30 -2t-35.5 -2
q-50 -1 -81 6.5t-46.5 25t-17.5 43.5t6 62l38 180q8 35 24 56.5t36 32.5t38.5 14.5t31.5 3.5q48 0 85.5 -11t73.5 -28z" />
    <glyph glyph-name="e" unicode="e" horiz-adv-x="422" 
d="M116 134l13 62l308 16l28 130q12 55 -4 92t-53.5 56.5t-92.5 19.5q-54 0 -97.5 -19.5t-72.5 -57.5t-41 -94l-41 -197q-9 -42 -2.5 -71.5t25 -47.5t48 -26.5t67.5 -8.5t84.5 12.5t89.5 34.5l-13 43q-43 -19 -80.5 -30.5t-75.5 -11.5q-24 0 -43 5.5t-31.5 17t-16.5 30.5
t1 45zM410 349l-18 -87l-251 -11l18 87q10 40 30.5 67.5t52 42.5t71.5 15q35 0 59.5 -14t34.5 -39.5t3 -60.5z" />
    <glyph glyph-name="f" unicode="f" horiz-adv-x="249" 
d="M355 658l19 49q-5 2 -10.5 2.5t-11.5 0.5h-13q-24 0 -52 -7.5t-54 -25.5t-46.5 -49t-30.5 -78l-117 -550h57l95 447h91l34 53h-114l10 50q6 27 16.5 48t25 34.5t33.5 20.5t42 7h12.5t13.5 -2z" />
    <glyph glyph-name="g" unicode="g" horiz-adv-x="441" 
d="M387 -64l120 563h-57l-10 -47q-18 18 -39 30.5t-44 19t-47 7.5q-54 3 -96 -16t-70 -56.5t-39 -90.5l-37 -171q-19 -91 14.5 -139t117.5 -48q23 0 45.5 5.5t44 15.5t38.5 23.5t29 28.5l-26 -124q-5 -20 -12.5 -36.5t-19 -29t-26 -22.5t-32.5 -16l7 -44q41 12 69 31
t45 47.5t25 68.5zM428 393l-47 -220q-7 -31 -23 -56t-38.5 -42t-49.5 -26t-56 -9q-38 0 -61.5 14t-31 42t1.5 70l37 177q7 34 23 57t37 37t44.5 19.5t46.5 2.5q16 -1 33.5 -6t34 -13t29.5 -19.5t20 -27.5z" />
    <glyph glyph-name="h" unicode="h" horiz-adv-x="444" 
d="M197 467l49 233h-56l-149 -700h57l90 425q23 12 45.5 19.5t45 11.5t45.5 4q24 0 45.5 -5.5t37.5 -19t22 -36t-1 -56.5l-73 -343h56l74 346q7 32 5 58t-12.5 45.5t-29 33t-44.5 20.5t-59 7q-24 0 -50 -5.5t-51 -15t-47 -22.5z" />
    <glyph glyph-name="i" unicode="i" horiz-adv-x="133" 
d="M38 0h57l106 501h-56zM218 710q-13 0 -25.5 -10t-15.5 -24q-3 -13 5 -23t22 -10q13 0 25 10t15 23q3 14 -4.5 24t-21.5 10z" />
    <glyph glyph-name="j" unicode="j" horiz-adv-x="200" 
d="M136 -63l120 564h-120l-11 -52h64l-109 -511q-5 -25 -16.5 -46t-29.5 -35.5t-43 -23.5l7 -43q40 12 67.5 30.5t45 46.5t25.5 70zM302 676q2 14 -5.5 23.5t-21.5 9.5q-15 0 -27 -9.5t-15 -23.5q-3 -13 5 -23t22 -10t26.5 10t15.5 23z" />
    <glyph glyph-name="k" unicode="k" horiz-adv-x="427" 
d="M264 352l176 129l-32 38l-240 -184l78 365h-56l-149 -700h56l58 273l62 44l124 -317h67z" />
    <glyph glyph-name="l" unicode="l" horiz-adv-x="140" 
d="M41 0h55l149 700h-55z" />
    <glyph glyph-name="m" unicode="m" horiz-adv-x="717" 
d="M701 342l-73 -342h53l73 344q9 40 5.5 71t-19.5 52t-44.5 31.5t-70.5 10.5q-21 0 -48.5 -5.5t-58 -17.5t-62.5 -33q-10 18 -27 30.5t-41 19t-56 6.5q-24 0 -47 -5.5t-45.5 -15t-46.5 -22.5l8 34h-56l-107 -500h57l89 423q24 12 44 20t40.5 12t42.5 4q24 0 44.5 -5.5
t35 -19t19.5 -36t-2 -56.5l-73 -342h52l74 344q5 21 6 39.5t-2 34.5q28 15 52 24t46 13t41 4q24 0 44.5 -5.5t35 -19t19.5 -36t-2 -56.5z" />
    <glyph glyph-name="n" unicode="n" horiz-adv-x="443" 
d="M425 342l-73 -342h55l73 345q7 31 5 57t-12 46t-28.5 33.5t-44.5 20.5t-59 7q-25 0 -50.5 -5t-50 -14.5t-47.5 -23.5l8 34h-57l-106 -500h56l91 425q23 12 45.5 19.5t44.5 11t44 3.5q24 0 46 -5.5t38 -19t22.5 -36t-0.5 -56.5z" />
    <glyph glyph-name="o" unicode="o" horiz-adv-x="430" 
d="M438 185l29 131q19 92 -17 144t-125 52q-60 0 -106.5 -22.5t-77 -66t-44.5 -107.5l-29 -131q-11 -54 0.5 -98t48.5 -70.5t99 -26.5q92 0 148 54t74 141zM410 316l-30 -141q-8 -41 -28.5 -71.5t-52 -47t-73.5 -16.5q-40 0 -66 17t-35.5 47.5t-1.5 70.5l30 141
q10 48 31.5 80.5t54.5 49t77 16.5t68 -16.5t30.5 -49t-4.5 -80.5z" />
    <glyph glyph-name="p" unicode="p" horiz-adv-x="442" 
d="M446 176l37 170q11 53 -0.5 90.5t-45 57t-90.5 16.5q-24 -1 -50 -7.5t-52 -19t-52 -30.5l10 47h-57l-147 -688l52 -25l59 274q8 -20 26 -37t43.5 -26.5t56.5 -9.5q83 0 137 48.5t73 139.5zM425 343l-37 -176q-9 -43 -28.5 -71t-48.5 -42t-67 -14q-29 0 -52 9t-38.5 26
t-21 42t1.5 57l46 219q19 21 44.5 35t52 22t48.5 10q24 2 45 -3.5t36 -19t20.5 -37t-1.5 -57.5z" />
    <glyph glyph-name="q" unicode="q" horiz-adv-x="441" 
d="M357 62l-53 -250l52 -24l152 712h-57l-11 -46q-18 18 -39 30.5t-43.5 19t-47.5 7.5q-54 3 -96 -16.5t-69.5 -57t-39.5 -91.5l-36 -169q-13 -61 -2.5 -103t44 -63.5t89.5 -21.5q30 0 60.5 10t56 26.5t40.5 36.5zM428 394l-47 -220q-7 -32 -22.5 -57t-38.5 -42t-50 -25.5
t-56 -8.5q-38 0 -61 14.5t-30.5 43t0.5 69.5l38 176q7 34 22.5 57t36.5 37t45 19.5t47 3.5q16 -1 33 -6t33.5 -13t29.5 -20t20 -28z" />
    <glyph glyph-name="r" unicode="r" horiz-adv-x="333" 
d="M404 460l14 48l-13 2.5t-32 0.5q-54 -2 -96 -14t-83 -30l7 33h-57l-106 -500h56l87 409q16 10 38 19t47 16t50 12t46 5q17 2 29.5 0.5z" />
    <glyph glyph-name="s" unicode="s" horiz-adv-x="417" 
d="M416 439l31 37q-21 15 -44 22.5t-45.5 10t-43.5 2.5q-32 0 -65 -9t-60 -27t-44 -45t-17 -62q1 -31 13.5 -53t33 -37.5t45 -27t49 -21t45 -20.5t33.5 -26t13 -36q0 -29 -13 -50.5t-34.5 -35t-45.5 -20.5t-46 -7q-31 0 -57 7.5t-47 22t-39 36.5l-37 -32q26 -40 71.5 -63
t99.5 -23q35 0 70.5 10.5t65.5 30.5t48.5 50.5t19.5 70.5q0 31 -12.5 52.5t-33 36.5t-45.5 26.5t-50 21.5t-46 22t-33.5 27.5t-12.5 38.5q0 24 12 41.5t31.5 29t42 17.5t43.5 7q19 1 38 -1.5t36.5 -8.5t29.5 -15z" />
    <glyph glyph-name="t" unicode="t" horiz-adv-x="241" 
d="M123 132l68 316h96l35 52h-120l42 200h-56l-121 -568q-12 -58 5.5 -93t69.5 -52l26 43q-21 8 -32.5 21.5t-14.5 34t2 46.5z" />
    <glyph glyph-name="u" unicode="u" horiz-adv-x="445" 
d="M359 48l-10 -48h56l107 501h-56l-70 -328q-6 -27 -20.5 -49t-36 -39t-46.5 -27.5t-52 -13.5q-41 -3 -68 7t-37 36.5t0 72.5l72 341h-56l-74 -344q-7 -34 -4.5 -61t13.5 -47t30 -33t44.5 -19.5t56.5 -6.5q26 0 53 6.5t52.5 19.5t45.5 32z" />
    <glyph glyph-name="v" unicode="v" horiz-adv-x="428" 
d="M126 501l46 -501h77l262 501h-61l-229 -443l-37 443h-58z" />
    <glyph glyph-name="w" unicode="w" horiz-adv-x="708" 
d="M487 499h-57l-206 -442l-40 442h-59l46 -499h78l188 405l14 -405h77l262 499h-59l-228 -442z" />
    <glyph glyph-name="x" unicode="x" horiz-adv-x="437" 
d="M280 296l-88 204h-55l104 -249l-211 -251h67l167 200l82 -200h60l-105 245l214 255h-62z" />
    <glyph glyph-name="y" unicode="y" horiz-adv-x="469" 
d="M538 470l-11 42q-25 -8 -44 -23.5t-30.5 -36t-16.5 -43.5l-50 -235q-6 -26 -20.5 -49.5t-35.5 -41.5t-46.5 -28.5t-52.5 -10.5q-23 0 -45 5.5t-38 18.5t-22.5 36t0.5 58l72 339h-56l-73 -343q-9 -43 -4 -74.5t23 -52t48.5 -30.5t71.5 -10q26 0 53 6.5t52.5 19.5t46.5 33
l-24 -111q-4 -19 -11.5 -35.5t-18 -29.5t-25 -23t-32.5 -17l7 -43q40 13 67 31t43.5 46t25.5 70l100 470q7 32 19 44t27 18z" />
    <glyph glyph-name="z" unicode="z" horiz-adv-x="428" 
d="M485 501h-338l-11 -49l266 -1l-360 -401l-11 -50h368l11 50l-298 1l362 401z" />
    <glyph glyph-name="braceleft" unicode="{" horiz-adv-x="258" 
d="M273 517l24 113q6 27 15 48t20.5 37t24 27.5t24 19t21.5 12.5l-11 49q-1 -1 -13.5 -6t-31.5 -17t-39.5 -33.5t-38.5 -55t-29 -81.5l-24 -113q-4 -21 -11 -41t-17 -40q-10 -19 -28 -38t-46 -37l-12 -8l9 -8q20 -18 30.5 -36.5t11.5 -38.5q2 -19 0.5 -39t-6.5 -41l-24 -114
q-11 -48 -7.5 -81.5t15 -55t25 -34t24.5 -17.5t12 -6l34 51q-8 5 -17 12.5t-16.5 19t-12.5 27t-5.5 36.5t5.5 48l24 114q5 21 6.5 41.5t1.5 41.5q-1 40 -40 80q27 20 45.5 40t28.5 40q9 21 16 42t12 42z" />
    <glyph glyph-name="bar" unicode="|" horiz-adv-x="141" 
d="M18 -114h55l198 932h-55z" />
    <glyph glyph-name="braceright" unicode="}" horiz-adv-x="263" 
d="M218 823l-32 -49q8 -5 16.5 -12.5t16 -19t12 -27.5t5 -37t-5.5 -48l-24 -113q-6 -28 -7.5 -56t7 -55t32.5 -53q-36 -26 -55.5 -53t-29.5 -54.5t-16 -55.5l-24 -114q-6 -27 -15.5 -47.5t-21 -36.5t-24.5 -27.5t-24.5 -19t-21.5 -12.5l11 -51q2 1 14.5 6t31.5 17.5t39.5 34
t38.5 55t28 81.5l24 114q6 28 15.5 54t30 51.5t57.5 49.5l13 8l-9 8q-27 25 -37 50t-8.5 51.5t7.5 54.5l25 113q10 48 6.5 81.5t-15 55.5t-25 34t-24 16.5t-11.5 5.5z" />
    <glyph glyph-name="asciitilde" unicode="~" 
d="M354 306l-16 41q-15 -13 -31.5 -20.5t-35.5 -8.5q-23 0 -44.5 9l-43 18t-46.5 9q-19 0 -42 -9t-49 -32l14 -41q22 17 39.5 23t33.5 4q23 -1 43.5 -9.5t40.5 -17t43 -9.5q20 -1 43 8.5t51 34.5z" />
    <glyph glyph-name="uni00A0" unicode="&#xa0;" horiz-adv-x="280" 
 />
    <glyph glyph-name="exclamdown" unicode="&#xa1;" horiz-adv-x="148" 
d="M114 36l109 554h-47l-128 -553q-4 -19 2.5 -28t22.5 -9q17 0 27 9t14 27zM250 676q3 14 -4.5 23.5t-21.5 9.5t-26 -9.5t-15 -23.5q-3 -13 5 -23t22 -10t25.5 10t14.5 23z" />
    <glyph glyph-name="cent" unicode="&#xa2;" horiz-adv-x="381" 
d="M165 -114h56l156 737h-56zM427 433l24 45q-29 15 -62.5 23.5t-68.5 8.5q-66 0 -111.5 -25t-72.5 -68t-39 -98l-31 -145q-14 -69 4.5 -110t62 -58.5t103.5 -16.5q29 1 58.5 5t57.5 11v50l-10 -1.5t-27 -4.5t-37.5 -5.5t-41.5 -2.5q-37 0 -62.5 8t-39 25t-16 45t5.5 67
l26 120q9 44 30.5 78.5t55.5 54.5t82 19q28 -1 57.5 -7.5t51.5 -17.5z" />
    <glyph glyph-name="sterling" unicode="&#xa3;" horiz-adv-x="428" 
d="M125 53h-79l-12 -53h359l12 53h-122q39 22 68 66t35 88q4 31 -3 61t-24 57l-9 15h116l12 57h-167l-37 58q-8 12 -16 25.5t-13 29.5t-5 33q0 32 15.5 56t41 39t55.5 18q32 4 63.5 -5t59.5 -29l29 49q-19 12 -41.5 20.5t-46.5 13t-48 3.5q-35 0 -68 -11t-59 -32.5
t-42 -51.5t-17 -68q-1 -33 11 -64t31 -61l15 -23h-120l-12 -57h171l32 -48q9 -13 14 -27.5t7 -28.5t0 -28q-4 -37 -24 -66t-49 -48.5t-63.5 -30t-69.5 -10.5z" />
    <glyph glyph-name="currency" unicode="&#xa4;" horiz-adv-x="467" 
d="M429 366l100 84l-28 35l-101 -84q-13 14 -33 21t-43 7q-24 0 -47 -7t-44 -21l-64 84l-42 -35l63 -84q-16 -16 -26.5 -37.5t-15.5 -44.5q-5 -24 -2.5 -45.5t10.5 -38.5l-100 -82l27 -37l101 84q14 -13 34 -20t44 -7q23 0 45 7t43 20l65 -84l44 37l-65 82q15 17 27 38.5
t16 45.5q5 23 2.5 44.5t-10.5 37.5zM273 189q-26 0 -45 12.5t-27 34.5t-3 48q6 26 23 47t41.5 33.5t50.5 12.5t44.5 -12.5t26.5 -33.5t2 -47q-5 -26 -22 -48t-41 -34.5t-50 -12.5z" />
    <glyph glyph-name="yen" unicode="&#xa5;" horiz-adv-x="516" 
d="M360 342l285 358h-65l-236 -294l-109 294h-63l131 -360l-72 -340h56zM140 198h320l12 55h-320zM118 94h320l12 55h-320z" />
    <glyph glyph-name="section" unicode="&#xa7;" horiz-adv-x="435" 
d="M456 626l31 37q-21 15 -44 22.5t-45.5 10t-43.5 2.5q-32 0 -65 -9t-60.5 -27t-44 -45t-16.5 -62q0 -24 7.5 -42t20.5 -32q-33 -19 -50.5 -49.5t-17.5 -63.5q1 -31 13.5 -53t33 -37.5t45 -27t49 -21t45 -20.5t33.5 -26t13 -36q0 -29 -13 -50.5t-34.5 -35t-45.5 -20.5
t-46 -7q-31 0 -57 7.5t-47 22t-39 36.5l-37 -32q26 -40 71.5 -63t99.5 -23q35 0 70.5 10.5t65.5 30.5t48.5 50.5t19.5 70.5q0 22 -6.5 39t-17.5 30q24 21 43.5 52.5t20.5 65.5q0 31 -12.5 52.5t-33 36.5t-45.5 26.5t-50 21.5t-46 22t-34 27.5t-13 38.5q0 24 12.5 41.5t32 29
t42 17.5t43.5 7q19 1 38 -1.5t36 -8.5t30 -15zM351 246q-21 12 -44 22t-45 19t-40 20.5t-28.5 26t-10.5 35.5q0 19 7.5 34t20.5 26t30 18q20 -11 42 -20t42.5 -18t37.5 -19t27 -23.5t10 -32.5q0 -25 -15.5 -49t-33.5 -39z" />
    <glyph glyph-name="dieresis" unicode="&#xa8;" 
d="M212 742q-13 0 -25 -10t-15 -24q-3 -13 5 -23t21 -10q14 0 26 10t15 23q3 14 -5 24t-22 10zM369 742q-13 0 -25.5 -10t-15.5 -24t5 -23.5t21 -9.5q14 0 26 9.5t15 23.5t-4.5 24t-21.5 10z" />
    <glyph glyph-name="copyright" unicode="&#xa9;" horiz-adv-x="696" 
d="M704 188l30 139q13 64 0 112t-49 80.5t-90.5 48.5t-123.5 16t-130 -16.5t-110 -49t-82.5 -80.5t-47.5 -111l-30 -139q-13 -64 0 -112.5t49 -80.5t90 -48t123 -16t130.5 16t111 48t83 80.5t46.5 112.5zM669 302l-19 -90q-13 -61 -38 -104.5t-62.5 -70.5t-88.5 -39.5
t-117 -12.5t-111.5 12.5t-71.5 39.5t-32 70.5t7 104.5l19 90q13 62 37.5 105.5t62 70.5t88.5 39.5t117 12.5t111.5 -12.5t71.5 -39.5t32.5 -70.5t-6.5 -105.5zM568 384l24 37q-27 17 -62 25.5t-73 8.5q-50 0 -91 -16t-72 -46q-27 -26 -46 -62.5t-28 -80.5q-12 -56 -3.5 -95
t35.5 -62q21 -18 52.5 -26.5t73.5 -8.5q39 0 81 8.5t88 24.5l-16 43q-23 -7 -42 -12t-35 -7.5t-31 -4t-30 -1.5q-34 0 -58 6.5t-39 20.5q-19 18 -23 47.5t5 71.5q8 36 23 63.5t37 46.5q24 20 56 30t71 10q12 0 25 -1.5t26.5 -4t26.5 -6.5t25 -9z" />
    <glyph glyph-name="ordfeminine" unicode="&#xaa;" horiz-adv-x="329" 
d="M376 390q4 17 7.5 33.5l7 33t6.5 33t6.5 33t7.5 32.5q10 46 5 76.5t-22 46.5q-11 12 -27.5 18.5t-38.5 9.5t-49 3l-14 -43q29 0 50.5 -3.5t32.5 -11.5q14 -10 18.5 -25.5t0.5 -32.5q-29 19 -55.5 28t-49.5 10q-33 1 -59.5 -13.5t-44 -40t-24.5 -58.5q-9 -40 -3.5 -66.5
t22 -42.5t42 -23t57.5 -8q28 0 59 3.5t65 7.5zM354 543l-24 -114q1 0 -12.5 -1.5t-34 -2.5t-40.5 0.5t-32 7.5q-14 8 -22.5 19t-10.5 26.5t2 35.5q5 26 14.5 41t23 22t29.5 7q25 0 53 -11.5t54 -29.5z" />
    <glyph glyph-name="guillemotleft" unicode="&#xab;" horiz-adv-x="530" 
d="M382 267l115 -153l-41 -35l-148 188l228 188l28 -38zM163 267l114 -153l-42 -35l-147 188l227 188l29 -38z" />
    <glyph glyph-name="sfthyphen" unicode="&#xad;" horiz-adv-x="392" 
d="M187 356h320l12 58h-320z" />
    <glyph glyph-name="registered" unicode="&#xae;" horiz-adv-x="696" 
d="M704 188l30 139q13 64 0 112t-49 80.5t-90.5 48.5t-123.5 16t-130 -16.5t-110 -49t-82.5 -80.5t-47.5 -111l-30 -139q-13 -64 0 -112.5t49 -80.5t90 -48t123 -16t130.5 16t111 48t83 80.5t46.5 112.5zM667 302l-19 -90q-13 -61 -37.5 -104.5t-61.5 -70.5t-88 -39.5
t-117 -12.5t-111.5 12.5t-71.5 39.5t-32 70.5t7 104.5l19 90q13 62 37.5 105.5t62 70.5t88.5 39.5t117 12.5t111.5 -12.5t71 -39.5t31.5 -70.5t-7 -105.5zM480 443h-205l-82 -384h53l26 118h149l32 -118h64l-36 127q31 9 60 37t41 89q9 45 1.5 71.5t-24 39t-38 16.5t-41.5 4
zM438 233h-154l33 156h154q27 0 42 -8t19 -25t-2 -45q-9 -40 -31.5 -59t-60.5 -19z" />
    <glyph glyph-name="overscore" unicode="&#xaf;" 
d="M520 677h-221l-12 -54h221z" />
    <glyph glyph-name="degree" unicode="&#xb0;" horiz-adv-x="348" 
d="M440 565q9 40 -4 73t-41.5 52.5t-68.5 19.5t-78 -19.5t-64.5 -52.5t-35.5 -73q-8 -40 4.5 -73t42 -53t69.5 -20t77 20t64 53t35 73zM315 660q26 0 44.5 -13t27 -34.5t2.5 -47.5q-5 -25 -22.5 -46.5t-41.5 -34.5t-50 -13t-45 13t-27.5 34.5t-3.5 46.5q6 26 23.5 47.5
t42 34.5t50.5 13z" />
    <glyph glyph-name="plusminus" unicode="&#xb1;" horiz-adv-x="383" 
d="M112 378h133l-28 -131h-134l-13 -57h320l13 57h-130l27 131h131l12 54h-131l28 133h-55l-29 -133h-133z" />
    <glyph glyph-name="acute" unicode="&#xb4;" 
d="M342 684q8 9 11 17.5t1.5 16.5t-9.5 13q-7 5 -16 4t-17 -7t-14 -16l-61 -107h35z" />
    <glyph glyph-name="mu" unicode="&#xb5;" horiz-adv-x="466" 
d="M429 94l88 415l-59 -12l-66 -324q-8 -37 -26 -64.5t-44.5 -44.5t-61.5 -21q-43 -5 -75 10t-46.5 43t-7.5 62l72 342h-58l-147 -687l54 -23l56 263q0 1 6 -8.5t21 -23t41.5 -23.5t67.5 -10q25 0 48 5.5t43 17.5t37 29q5 -15 12.5 -24.5t14 -14.5t9.5 -7l34 32q-1 1 -6 9
t-8 23t1 36z" />
    <glyph glyph-name="paragraph" unicode="&#xb6;" horiz-adv-x="622" 
d="M281 247h180l-53 -246h56l138 648h59l-138 -648h56l149 701h-351q-48 0 -87 -11.5t-70 -37.5t-52.5 -69.5t-35.5 -107.5q-13 -62 -10 -106t21.5 -71t53.5 -39.5t84 -12.5zM362 649h184l-73 -348h-185q-28 1 -52 7t-39 23.5t-18.5 52t9.5 92.5q15 71 41 108t60 51t73 14z
" />
    <glyph glyph-name="periodcentered" unicode="&#xb7;" horiz-adv-x="150" 
d="M140 317q-13 0 -25 -9.5t-15 -23.5q-3 -13 5 -23t21 -10q14 0 26.5 10t15.5 23q3 14 -5 23.5t-23 9.5z" />
    <glyph glyph-name="cedilla" unicode="&#xb8;" 
d="M174 10h-51l-54 -69l7 -29q14 2 27 3.5t25.5 2.5t22.5 1q27 1 41.5 -7.5t7.5 -34.5q-4 -17 -16 -28.5t-29 -17t-37 -5.5q-13 0 -26.5 1.5t-27 4t-27.5 5.5l-22 -49q1 0 16.5 -3t38 -6t44.5 -3q44 0 85 24.5t51 74.5q8 37 -13 66t-72 27q-7 0 -14 -0.5t-13 -1.5z" />
    <glyph glyph-name="ordmasculine" unicode="&#xba;" horiz-adv-x="320" 
d="M398 503l20 83q14 59 -12 92t-91 33q-67 0 -108 -32t-55 -93l-20 -83q-8 -34 0.5 -62.5t35 -45t72.5 -16.5q68 0 106.5 34.5t51.5 89.5zM359 569l-13 -54q-9 -39 -28.5 -62.5t-67.5 -23.5q-31 0 -46.5 11t-18 30.5t3.5 44.5l13 54q11 46 36 69.5t67 23.5q27 0 41.5 -10.5
t17.5 -31t-5 -51.5z" />
    <glyph glyph-name="guillemotright" unicode="&#xbb;" horiz-adv-x="504" 
d="M237 267l-180 -153l27 -35l228 188l-148 188l-44 -38zM457 267l-180 -153l28 -35l226 188l-146 188l-45 -38z" />
    <glyph glyph-name="questiondown" unicode="&#xbf;" horiz-adv-x="409" 
d="M413 162h-56q-7 -32 -22 -56t-35.5 -39.5t-43.5 -23t-46 -6.5q-29 1 -53 14.5t-35.5 40t-3.5 66.5q8 34 24.5 58.5t39 45t45.5 41.5q17 16 34.5 33.5t33.5 38.5t28 47.5t19 59.5l20 92h-52l-19 -87q-6 -31 -17 -54t-26 -40.5t-32 -33t-35 -32.5q-27 -25 -51 -50.5
t-41.5 -54.5t-26.5 -66q-9 -40 0.5 -71.5t30.5 -53.5t48.5 -33.5t55.5 -12.5q33 -1 66.5 9t64 31.5t53 55.5t32.5 81zM362 703q-13 0 -25 -10t-15 -24q-3 -13 5 -23t21 -10q14 0 26 10t15 23q3 14 -5 24t-22 10z" />
    <glyph glyph-name="Agrave" unicode="&#xc0;" horiz-adv-x="547" 
d="M438 856q-1 10 -7 17t-14.5 10t-19.5 -1q-10 -3 -14.5 -11.5t-4.5 -18.5t3 -18l36 -79h36zM527 0l-79 700h-53l-374 -700h60l131 245h227l29 -245h59zM238 300l164 314l34 -314h-198z" />
    <glyph glyph-name="Aacute" unicode="&#xc1;" horiz-adv-x="547" 
d="M517 834q8 9 11 17.5t1.5 16.5t-9.5 13q-7 5 -16 4t-17 -7t-14 -16l-61 -107h35zM527 0l-79 700h-53l-374 -700h60l131 245h227l29 -245h59zM238 300l164 314l34 -314h-198z" />
    <glyph glyph-name="Acircumflex" unicode="&#xc2;" horiz-adv-x="547" 
d="M569 774l-102 127l-159 -128l31 -38l116 93l70 -88zM527 0l-79 700h-53l-374 -700h60l131 245h227l29 -245h59zM238 300l164 314l34 -314h-198z" />
    <glyph glyph-name="Atilde" unicode="&#xc3;" horiz-adv-x="547" 
d="M530 869l-4 -18q-2 -11 -8.5 -21.5t-17.5 -10.5q-6 0 -15.5 6.5t-15.5 11.5q-9 7 -18 14.5t-20 11.5q-16 8 -36 7t-37 -13q-12 -8 -20 -19.5t-13 -23.5t-7 -24l-3 -18h50l3 18q1 5 4 14.5t8 13.5q8 5 16.5 2t14.5 -8q7 -5 14.5 -11t15.5 -11q11 -7 23 -14t28 -7
q35 0 56 25.5t28 56.5l4 18h-50zM527 0l-79 700h-53l-374 -700h60l131 245h227l29 -245h59zM238 300l164 314l34 -314h-198z" />
    <glyph glyph-name="Adieresis" unicode="&#xc4;" horiz-adv-x="547" 
d="M375 852q-13 0 -25 -10t-15 -24q-3 -13 5 -23t21 -10q14 0 26 10t15 23q3 14 -5 24t-22 10zM532 852q-13 0 -25.5 -10t-15.5 -24t5 -23.5t21 -9.5q14 0 26 9.5t15 23.5t-4.5 24t-21.5 10zM527 0l-79 700h-53l-374 -700h60l131 245h227l29 -245h59zM238 300l164 314
l34 -314h-198z" />
    <glyph glyph-name="Aring" unicode="&#xc5;" horiz-adv-x="547" 
d="M464 895q-31 0 -60.5 -15t-50.5 -40.5t-28 -57.5t3 -58t33 -41t54 -15t60 15t50 41t28 58t-3.5 57.5t-32.5 40.5t-53 15zM454 851q32 0 48 -24q11 -19 7 -45q-3 -13 -10 -25t-17 -22q-12 -10 -26.5 -16.5t-31.5 -6.5q-16 0 -28.5 6.5t-19.5 18.5q-6 9 -8 20.5t1 24.5
q3 15 11.5 28t20.5 22q11 9 25 14t28 5zM527 0l-79 700h-53l-374 -700h60l131 245h227l29 -245h59zM238 300l164 314l34 -314h-198z" />
    <glyph glyph-name="AE" unicode="&#xc6;" horiz-adv-x="752" 
d="M384 0h334l11 50h-277l65 306h173l31 58h-191l49 233h280l11 53h-429l-421 -700h59l146 244h211zM258 300l210 347h54l-74 -347h-190z" />
    <glyph glyph-name="Ccedilla" unicode="&#xc7;" horiz-adv-x="423" 
d="M256 10h-51l-54 -69l7 -29q14 2 27 3.5t25.5 2.5t22.5 1q27 1 41.5 -7.5t7.5 -34.5q-4 -17 -16 -28.5t-29 -17t-37 -5.5q-13 0 -26.5 1.5t-27 4t-27.5 5.5l-22 -49q1 0 16.5 -3t38 -6t44.5 -3q44 0 85 24.5t51 74.5q8 37 -13 66t-72 27q-7 0 -14 -0.5t-13 -1.5zM490 639
l25 38q-28 17 -62 25t-73 8q-55 0 -103.5 -21t-83.5 -65t-50 -114l-70 -326q-14 -67 0.5 -109.5t55.5 -63.5t104 -21q38 0 80 8.5t88 24.5l-2 46q-30 -9 -57 -15.5t-51 -10t-44 -3.5q-50 0 -79.5 14.5t-39 47t1.5 84.5l70 328q11 53 36.5 85t64 46.5t86.5 14.5q26 0 52 -5
t51 -16z" />
    <glyph glyph-name="Egrave" unicode="&#xc8;" horiz-adv-x="406" 
d="M368 857q-1 10 -7 17t-14.5 10t-19.5 -1q-10 -3 -14.5 -11.5t-4.5 -18.5t3 -18l36 -79h36zM41 0h332l11 50h-276l65 307h176l27 55h-191l50 236h278l11 52h-334z" />
    <glyph glyph-name="Eacute" unicode="&#xc9;" horiz-adv-x="406" 
d="M443 834q8 9 11 17.5t1.5 16.5t-9.5 13q-7 5 -16 4t-17 -7t-14 -16l-61 -107h35zM41 0h332l11 50h-276l65 307h176l27 55h-191l50 236h278l11 52h-334z" />
    <glyph glyph-name="Ecircumflex" unicode="&#xca;" horiz-adv-x="406" 
d="M499 774l-102 127l-159 -128l31 -38l116 93l70 -88zM41 0h332l11 50h-276l65 307h176l27 55h-191l50 236h278l11 52h-334z" />
    <glyph glyph-name="Edieresis" unicode="&#xcb;" horiz-adv-x="406" 
d="M305 852q-13 0 -25 -10t-15 -24q-3 -13 5 -23t21 -10q14 0 26 10t15 23q3 14 -5 24t-22 10zM462 852q-13 0 -25.5 -10t-15.5 -24t5 -23.5t21 -9.5q14 0 26 9.5t15 23.5t-4.5 24t-21.5 10zM41 0h332l11 50h-276l65 307h176l27 55h-191l50 236h278l11 52h-334z" />
    <glyph glyph-name="Igrave" unicode="&#xcc;" horiz-adv-x="187" 
d="M265 859q-1 10 -7 17t-14.5 10t-19.5 -1q-10 -3 -14.5 -11.5t-4.5 -18.5t3 -18l36 -79h36zM159 651l67 -2l-138 -649h56l149 700h-124z" />
    <glyph glyph-name="Iacute" unicode="&#xcd;" horiz-adv-x="187" 
d="M364 834q8 9 11 17.5t1.5 16.5t-9.5 13q-7 5 -16 4t-17 -7t-14 -16l-61 -107h35zM159 651l67 -2l-138 -649h56l149 700h-124z" />
    <glyph glyph-name="Icircumflex" unicode="&#xce;" horiz-adv-x="187" 
d="M410 774l-102 127l-159 -128l31 -38l116 93l70 -88zM159 651l67 -2l-138 -649h56l149 700h-124z" />
    <glyph glyph-name="Idieresis" unicode="&#xcf;" horiz-adv-x="187" 
d="M221 852q-13 0 -25 -10t-15 -24q-3 -13 5 -23t21 -10q14 0 26 10t15 23q3 14 -5 24t-22 10zM378 852q-13 0 -25.5 -10t-15.5 -24t5 -23.5t21 -9.5q14 0 26 9.5t15 23.5t-4.5 24t-21.5 10zM159 651l67 -2l-138 -649h56l149 700h-124z" />
    <glyph glyph-name="Eth" unicode="&#xd0;" horiz-adv-x="497" 
d="M143 357h203l30 55h-221zM379 700h-189l-149 -700h209q71 0 123 22.5t84.5 67t46.5 110.5l58 275q15 68 -0.5 118.5t-61 78.5t-121.5 28zM243 50h-135l127 600h143q59 0 91 -22t41 -58.5t-1 -79.5l-64 -300q-7 -34 -23 -60.5t-41.5 -44t-59.5 -26.5t-78 -9z" />
    <glyph glyph-name="Ntilde" unicode="&#xd1;" horiz-adv-x="577" 
d="M545 869l-4 -18q-2 -11 -8.5 -21.5t-17.5 -10.5q-6 0 -15.5 6.5t-15.5 11.5q-9 7 -18 14.5t-20 11.5q-16 8 -36 7t-37 -13q-12 -8 -20 -19.5t-13 -23.5t-7 -24l-3 -18h50l3 18q1 5 4 14.5t8 13.5q8 5 16.5 2t14.5 -8q7 -5 14.5 -11t15.5 -11q11 -7 23 -14t28 -7
q35 0 56 25.5t28 56.5l4 18h-50zM683 700h-56l-127 -597l-253 597h-57l-149 -700h57l127 597l253 -597h56z" />
    <glyph glyph-name="Ograve" unicode="&#xd2;" horiz-adv-x="492" 
d="M411 858q-1 10 -7 17t-14.5 10t-19.5 -1q-10 -3 -14.5 -11.5t-4.5 -18.5t3 -18l36 -79h36zM142 508l-66 -317q-13 -65 5.5 -110t61 -68.5t100.5 -23.5q62 0 114.5 24t88.5 68t49 105l68 321q21 98 -23.5 153.5t-144.5 55.5q-99 0 -165.5 -53t-87.5 -155zM130 187l70 330
q11 49 37 81t64 48.5t84 16.5q48 0 79.5 -16.5t44 -48.5t1.5 -81l-70 -325q-10 -49 -38 -82.5t-68 -50.5t-86 -17q-44 0 -74 16.5t-42 48.5t-2 80z" />
    <glyph glyph-name="Oacute" unicode="&#xd3;" horiz-adv-x="492" 
d="M486 834q8 9 11 17.5t1.5 16.5t-9.5 13q-7 5 -16 4t-17 -7t-14 -16l-61 -107h35zM142 508l-66 -317q-13 -65 5.5 -110t61 -68.5t100.5 -23.5q62 0 114.5 24t88.5 68t49 105l68 321q21 98 -23.5 153.5t-144.5 55.5q-99 0 -165.5 -53t-87.5 -155zM130 187l70 330
q11 49 37 81t64 48.5t84 16.5q48 0 79.5 -16.5t44 -48.5t1.5 -81l-70 -325q-10 -49 -38 -82.5t-68 -50.5t-86 -17q-44 0 -74 16.5t-42 48.5t-2 80z" />
    <glyph glyph-name="Ocircumflex" unicode="&#xd4;" horiz-adv-x="492" 
d="M542 774l-102 127l-159 -128l31 -38l116 93l70 -88zM142 508l-66 -317q-13 -65 5.5 -110t61 -68.5t100.5 -23.5q62 0 114.5 24t88.5 68t49 105l68 321q21 98 -23.5 153.5t-144.5 55.5q-99 0 -165.5 -53t-87.5 -155zM130 187l70 330q11 49 37 81t64 48.5t84 16.5
q48 0 79.5 -16.5t44 -48.5t1.5 -81l-70 -325q-10 -49 -38 -82.5t-68 -50.5t-86 -17q-44 0 -74 16.5t-42 48.5t-2 80z" />
    <glyph glyph-name="Otilde" unicode="&#xd5;" horiz-adv-x="492" 
d="M503 869l-4 -18q-2 -11 -8.5 -21.5t-17.5 -10.5q-6 0 -15.5 6.5t-15.5 11.5q-9 7 -18 14.5t-20 11.5q-16 8 -36 7t-37 -13q-12 -8 -20 -19.5t-13 -23.5t-7 -24l-3 -18h50l3 18q1 5 4 14.5t8 13.5q8 5 16.5 2t14.5 -8q7 -5 14.5 -11t15.5 -11q11 -7 23 -14t28 -7
q35 0 56 25.5t28 56.5l4 18h-50zM142 508l-66 -317q-13 -65 5.5 -110t61 -68.5t100.5 -23.5q62 0 114.5 24t88.5 68t49 105l68 321q21 98 -23.5 153.5t-144.5 55.5q-99 0 -165.5 -53t-87.5 -155zM130 187l70 330q11 49 37 81t64 48.5t84 16.5q48 0 79.5 -16.5t44 -48.5
t1.5 -81l-70 -325q-10 -49 -38 -82.5t-68 -50.5t-86 -17q-44 0 -74 16.5t-42 48.5t-2 80z" />
    <glyph glyph-name="Odieresis" unicode="&#xd6;" horiz-adv-x="492" 
d="M348 852q-13 0 -25 -10t-15 -24q-3 -13 5 -23t21 -10q14 0 26 10t15 23q3 14 -5 24t-22 10zM505 852q-13 0 -25.5 -10t-15.5 -24t5 -23.5t21 -9.5q14 0 26 9.5t15 23.5t-4.5 24t-21.5 10zM142 508l-66 -317q-13 -65 5.5 -110t61 -68.5t100.5 -23.5q62 0 114.5 24t88.5 68
t49 105l68 321q21 98 -23.5 153.5t-144.5 55.5q-99 0 -165.5 -53t-87.5 -155zM130 187l70 330q11 49 37 81t64 48.5t84 16.5q48 0 79.5 -16.5t44 -48.5t1.5 -81l-70 -325q-10 -49 -38 -82.5t-68 -50.5t-86 -17q-44 0 -74 16.5t-42 48.5t-2 80z" />
    <glyph glyph-name="multiply" unicode="&#xd7;" horiz-adv-x="347" 
d="M253 375l-76 122l-47 -34l77 -130l-132 -127l34 -38l126 122l75 -122l49 38l-79 127l133 130l-34 34z" />
    <glyph glyph-name="Oslash" unicode="&#xd8;" horiz-adv-x="492" 
d="M35 -1h62l520 702h-56zM142 508l-66 -317q-13 -65 5.5 -110t61 -68.5t100.5 -23.5q62 0 114.5 24t88.5 68t49 105l68 321q21 98 -23.5 153.5t-144.5 55.5q-99 0 -165.5 -53t-87.5 -155zM130 187l70 330q11 49 37 81t64 48.5t84 16.5q48 0 79.5 -16.5t44 -48.5t1.5 -81
l-70 -325q-10 -49 -38 -82.5t-68 -50.5t-86 -17q-44 0 -74 16.5t-42 48.5t-2 80z" />
    <glyph glyph-name="Ugrave" unicode="&#xd9;" horiz-adv-x="498" 
d="M414 857q-1 10 -7 17t-14.5 10t-19.5 -1q-10 -3 -14.5 -11.5t-4.5 -18.5t3 -18l36 -79h36zM497 186l109 514h-55l-109 -513q-10 -47 -36 -79.5t-64 -49t-85 -16.5q-46 0 -77.5 16.5t-44 48.5t-2.5 80l109 513h-55l-109 -514q-14 -64 3 -108t60 -66.5t105 -22.5
q64 0 115.5 23t87 67t48.5 107z" />
    <glyph glyph-name="Uacute" unicode="&#xda;" horiz-adv-x="498" 
d="M489 834q8 9 11 17.5t1.5 16.5t-9.5 13q-7 5 -16 4t-17 -7t-14 -16l-61 -107h35zM497 186l109 514h-55l-109 -513q-10 -47 -36 -79.5t-64 -49t-85 -16.5q-46 0 -77.5 16.5t-44 48.5t-2.5 80l109 513h-55l-109 -514q-14 -64 3 -108t60 -66.5t105 -22.5q64 0 115.5 23
t87 67t48.5 107z" />
    <glyph glyph-name="Ucircumflex" unicode="&#xdb;" horiz-adv-x="498" 
d="M545 774l-102 127l-159 -128l31 -38l116 93l70 -88zM497 186l109 514h-55l-109 -513q-10 -47 -36 -79.5t-64 -49t-85 -16.5q-46 0 -77.5 16.5t-44 48.5t-2.5 80l109 513h-55l-109 -514q-14 -64 3 -108t60 -66.5t105 -22.5q64 0 115.5 23t87 67t48.5 107z" />
    <glyph glyph-name="Udieresis" unicode="&#xdc;" horiz-adv-x="498" 
d="M351 852q-13 0 -25 -10t-15 -24q-3 -13 5 -23t21 -10q14 0 26 10t15 23q3 14 -5 24t-22 10zM508 852q-13 0 -25.5 -10t-15.5 -24t5 -23.5t21 -9.5q14 0 26 9.5t15 23.5t-4.5 24t-21.5 10zM497 186l109 514h-55l-109 -513q-10 -47 -36 -79.5t-64 -49t-85 -16.5
q-46 0 -77.5 16.5t-44 48.5t-2.5 80l109 513h-55l-109 -514q-14 -64 3 -108t60 -66.5t105 -22.5q64 0 115.5 23t87 67t48.5 107z" />
    <glyph glyph-name="Yacute" unicode="&#xdd;" horiz-adv-x="515" 
d="M497 834q8 9 11 17.5t1.5 16.5t-9.5 13q-7 5 -16 4t-17 -7t-14 -16l-61 -107h35zM507 156l115 544h-56l-58 -277q-7 -36 -28 -60t-50.5 -37.5t-62 -19.5t-64.5 -6q-55 0 -84.5 17.5t-37 51.5t2.5 84l51 247h-56l-52 -244q-14 -65 -0.5 -112t55.5 -72.5t115 -25.5
q34 0 67 6t63.5 19.5t55.5 34.5l-33 -153q-6 -25 -14 -45t-18.5 -35.5t-24.5 -26t-31 -16.5l6 -37q51 7 87 48.5t52 114.5z" />
    <glyph glyph-name="Thorn" unicode="&#xde;" horiz-adv-x="506" 
d="M408 617h-179l19 83h-58l-149 -700h57l34 162h179q50 0 90 12.5t70.5 39.5t52.5 71t35 106q14 64 10 107.5t-24 69.5t-54.5 37.5t-82.5 11.5zM144 217l74 347h184q29 0 52.5 -7.5t38 -26t17.5 -52.5t-8 -87q-12 -57 -30 -92t-40.5 -52.5t-48.5 -23.5t-55 -6h-184z" />
    <glyph glyph-name="germandbls" unicode="&#xdf;" horiz-adv-x="466" 
d="M96 0l114 541q8 35 22 58.5t35.5 35.5t48.5 12q22 0 35 -10t18.5 -26t2.5 -34q-2 -17 -11 -33t-24.5 -26t-38.5 -10q-15 -19 -23 -38t-10 -36q-3 -27 7.5 -51t30 -46t40.5 -44t39.5 -45t27.5 -48.5t2 -55.5q-5 -25 -18 -44t-30.5 -31.5t-38.5 -19t-42 -6.5q-15 0 -28.5 1
t-26.5 4.5t-26.5 10t-27.5 18.5l-33 -41q17 -16 39 -27t48 -16t53 -4q31 2 61 11.5t56 28t45 47t27 66.5q8 36 0 66t-25.5 56.5t-38.5 49.5t-40.5 44t-31 41.5t-10.5 40.5q1 10 5 19t11 18h4.5h10.5h10.5h4.5q16 11 27.5 26t18.5 33t10 36q6 33 -3 62.5t-33.5 48.5t-66.5 17
q-33 -1 -60.5 -12t-49 -31.5t-36.5 -50t-23 -68.5l-115 -538h57z" />
    <glyph glyph-name="agrave" unicode="&#xe0;" horiz-adv-x="447" 
d="M350 656q-1 10 -7 17t-14.5 10t-19.5 -1q-10 -3 -14.5 -11.5t-4.5 -18.5t3 -18l36 -79h36zM429 350q-20 14 -46 26t-55.5 19.5t-62.5 7.5q-30 0 -59.5 -8t-54.5 -25.5t-43.5 -46.5t-27.5 -71l-18 -83q-11 -55 -1 -91t36.5 -55.5t66 -26.5t87.5 -6q15 0 35.5 1t42.5 2.5
t41 3t30.5 2.5t10.5 1l62 288q12 60 11.5 102.5t-18 68.5t-55.5 38t-100 12l-11 -43q29 0 56 -4t46 -16.5t27 -35t0 -60.5zM419 303l-54 -257l-5 -0.5t-14 -1t-22.5 -2t-30 -2.5t-36.5 -2q-51 -2 -82 5.5t-45.5 25t-16.5 44.5t6 63l16 74q7 34 21 54.5t30.5 31.5t33.5 15
t30 4q32 0 61.5 -7t57 -19t50.5 -26z" />
    <glyph glyph-name="aacute" unicode="&#xe1;" horiz-adv-x="447" 
d="M427 633q8 9 11 17.5t1.5 16.5t-9.5 13q-7 5 -16 4t-17 -7t-14 -16l-61 -107h35zM429 350q-20 14 -46 26t-55.5 19.5t-62.5 7.5q-30 0 -59.5 -8t-54.5 -25.5t-43.5 -46.5t-27.5 -71l-18 -83q-11 -55 -1 -91t36.5 -55.5t66 -26.5t87.5 -6q15 0 35.5 1t42.5 2.5t41 3
t30.5 2.5t10.5 1l62 288q12 60 11.5 102.5t-18 68.5t-55.5 38t-100 12l-11 -43q29 0 56 -4t46 -16.5t27 -35t0 -60.5zM419 303l-54 -257l-5 -0.5t-14 -1t-22.5 -2t-30 -2.5t-36.5 -2q-51 -2 -82 5.5t-45.5 25t-16.5 44.5t6 63l16 74q7 34 21 54.5t30.5 31.5t33.5 15t30 4
q32 0 61.5 -7t57 -19t50.5 -26z" />
    <glyph glyph-name="acircumflex" unicode="&#xe2;" horiz-adv-x="447" 
d="M481 589l-102 127l-159 -128l31 -38l116 93l70 -88zM429 350q-20 14 -46 26t-55.5 19.5t-62.5 7.5q-30 0 -59.5 -8t-54.5 -25.5t-43.5 -46.5t-27.5 -71l-18 -83q-11 -55 -1 -91t36.5 -55.5t66 -26.5t87.5 -6q15 0 35.5 1t42.5 2.5t41 3t30.5 2.5t10.5 1l62 288
q12 60 11.5 102.5t-18 68.5t-55.5 38t-100 12l-11 -43q29 0 56 -4t46 -16.5t27 -35t0 -60.5zM419 303l-54 -257l-5 -0.5t-14 -1t-22.5 -2t-30 -2.5t-36.5 -2q-51 -2 -82 5.5t-45.5 25t-16.5 44.5t6 63l16 74q7 34 21 54.5t30.5 31.5t33.5 15t30 4q32 0 61.5 -7t57 -19
t50.5 -26z" />
    <glyph glyph-name="atilde" unicode="&#xe3;" horiz-adv-x="447" 
d="M440 674l-4 -18q-2 -11 -8.5 -21.5t-17.5 -10.5q-6 0 -15.5 6.5t-15.5 11.5q-9 7 -18 14.5t-20 11.5q-16 8 -36 7t-37 -13q-12 -8 -20 -19.5t-13 -23.5t-7 -24l-3 -18h50l3 18q1 5 4 14.5t8 13.5q8 5 16.5 2t14.5 -8q7 -5 14.5 -11t15.5 -11q11 -7 23 -14t28 -7
q35 0 56 25.5t28 56.5l4 18h-50zM429 350q-20 14 -46 26t-55.5 19.5t-62.5 7.5q-30 0 -59.5 -8t-54.5 -25.5t-43.5 -46.5t-27.5 -71l-18 -83q-11 -55 -1 -91t36.5 -55.5t66 -26.5t87.5 -6q15 0 35.5 1t42.5 2.5t41 3t30.5 2.5t10.5 1l62 288q12 60 11.5 102.5t-18 68.5
t-55.5 38t-100 12l-11 -43q29 0 56 -4t46 -16.5t27 -35t0 -60.5zM419 303l-54 -257l-5 -0.5t-14 -1t-22.5 -2t-30 -2.5t-36.5 -2q-51 -2 -82 5.5t-45.5 25t-16.5 44.5t6 63l16 74q7 34 21 54.5t30.5 31.5t33.5 15t30 4q32 0 61.5 -7t57 -19t50.5 -26z" />
    <glyph glyph-name="adieresis" unicode="&#xe4;" horiz-adv-x="447" 
d="M284 657q-13 0 -25 -10t-15 -24q-3 -13 5 -23t21 -10q14 0 26 10t15 23q3 14 -5 24t-22 10zM441 657q-13 0 -25.5 -10t-15.5 -24t5 -23.5t21 -9.5q14 0 26 9.5t15 23.5t-4.5 24t-21.5 10zM429 350q-20 14 -46 26t-55.5 19.5t-62.5 7.5q-30 0 -59.5 -8t-54.5 -25.5
t-43.5 -46.5t-27.5 -71l-18 -83q-11 -55 -1 -91t36.5 -55.5t66 -26.5t87.5 -6q15 0 35.5 1t42.5 2.5t41 3t30.5 2.5t10.5 1l62 288q12 60 11.5 102.5t-18 68.5t-55.5 38t-100 12l-11 -43q29 0 56 -4t46 -16.5t27 -35t0 -60.5zM419 303l-54 -257l-5 -0.5t-14 -1t-22.5 -2
t-30 -2.5t-36.5 -2q-51 -2 -82 5.5t-45.5 25t-16.5 44.5t6 63l16 74q7 34 21 54.5t30.5 31.5t33.5 15t30 4q32 0 61.5 -7t57 -19t50.5 -26z" />
    <glyph glyph-name="aring" unicode="&#xe5;" horiz-adv-x="447" 
d="M370 690q-31 0 -60.5 -15t-50.5 -40.5t-28 -57.5t3 -58t33 -41t54 -15t60 15t50 41t28 58t-3.5 57.5t-32.5 40.5t-53 15zM360 646q32 0 48 -24q11 -19 7 -45q-3 -13 -10 -25t-17 -22q-12 -10 -26.5 -16.5t-31.5 -6.5q-16 0 -28.5 6.5t-19.5 18.5q-6 9 -8 20.5t1 24.5
q3 15 11.5 28t20.5 22q11 9 25 14t28 5zM429 350q-20 14 -46 26t-55.5 19.5t-62.5 7.5q-30 0 -59.5 -8t-54.5 -25.5t-43.5 -46.5t-27.5 -71l-18 -83q-11 -55 -1 -91t36.5 -55.5t66 -26.5t87.5 -6q15 0 35.5 1t42.5 2.5t41 3t30.5 2.5t10.5 1l62 288q12 60 11.5 102.5
t-18 68.5t-55.5 38t-100 12l-11 -43q29 0 56 -4t46 -16.5t27 -35t0 -60.5zM419 303l-54 -257l-5 -0.5t-14 -1t-22.5 -2t-30 -2.5t-36.5 -2q-51 -2 -82 5.5t-45.5 25t-16.5 44.5t6 63l16 74q7 34 21 54.5t30.5 31.5t33.5 15t30 4q32 0 61.5 -7t57 -19t50.5 -26z" />
    <glyph glyph-name="ae" unicode="&#xe6;" horiz-adv-x="749" 
d="M429 350q-20 14 -46 26t-55.5 19.5t-62.5 7.5q-30 0 -59.5 -8t-54.5 -25.5t-43.5 -46.5t-27.5 -71l-18 -83q-11 -55 -1 -91t36.5 -55.5t66 -26.5t87.5 -6q15 0 35.5 1t42.5 2.5t41 3t30.5 2.5t10.5 1l62 288q12 60 11.5 102.5t-18 68.5t-55.5 38t-100 12l-11 -43
q29 0 56 -4t46 -16.5t27 -35t0 -60.5zM419 303l-54 -257l-5 -0.5t-14 -1t-22.5 -2t-30 -2.5t-36.5 -2q-51 -2 -82 5.5t-45.5 25t-16.5 44.5t6 63l16 74q7 34 21 54.5t30.5 31.5t33.5 15t30 4q32 0 61.5 -7t57 -19t50.5 -26zM441 134l13 62l308 16l28 130q12 55 -4 92
t-53.5 56.5t-92.5 19.5q-54 0 -97.5 -19.5t-72.5 -57.5t-41 -94l-41 -197q-9 -42 -2.5 -71.5t25 -47.5t48 -26.5t67.5 -8.5t84.5 12.5t89.5 34.5l-13 43q-43 -19 -80.5 -30.5t-75.5 -11.5q-24 0 -43 5.5t-31.5 17t-16.5 30.5t1 45zM735 349l-18 -87l-251 -11l18 87
q10 40 30.5 67.5t52 42.5t71.5 15q35 0 59.5 -14t34.5 -39.5t3 -60.5z" />
    <glyph glyph-name="ccedilla" unicode="&#xe7;" horiz-adv-x="381" 
d="M232 15h-51l-54 -69l7 -29q14 2 27 3.5t25.5 2.5t22.5 1q27 1 41.5 -7.5t7.5 -34.5q-4 -17 -16 -28.5t-29 -17t-37 -5.5q-13 0 -26.5 1.5t-27 4t-27.5 5.5l-22 -49q1 0 16.5 -3t38 -6t44.5 -3q44 0 85 24.5t51 74.5q8 37 -13 66t-72 27q-7 0 -14 -0.5t-13 -1.5zM427 433
l24 45q-29 15 -62.5 23.5t-68.5 8.5q-66 0 -111.5 -25t-72.5 -68t-39 -98l-31 -145q-14 -69 4.5 -110t62 -58.5t103.5 -16.5q29 1 58.5 5t57.5 11v50l-10 -1.5t-27 -4.5t-37.5 -5.5t-41.5 -2.5q-37 0 -62.5 8t-39 25t-16 45t5.5 67l26 120q9 44 30.5 78.5t55.5 54.5t82 19
q28 -1 57.5 -7.5t51.5 -17.5z" />
    <glyph glyph-name="egrave" unicode="&#xe8;" horiz-adv-x="422" 
d="M337 656q-1 10 -7 17t-14.5 10t-19.5 -1q-10 -3 -14.5 -11.5t-4.5 -18.5t3 -18l36 -79h36zM116 134l13 62l308 16l28 130q12 55 -4 92t-53.5 56.5t-92.5 19.5q-54 0 -97.5 -19.5t-72.5 -57.5t-41 -94l-41 -197q-9 -42 -2.5 -71.5t25 -47.5t48 -26.5t67.5 -8.5t84.5 12.5
t89.5 34.5l-13 43q-43 -19 -80.5 -30.5t-75.5 -11.5q-24 0 -43 5.5t-31.5 17t-16.5 30.5t1 45zM410 349l-18 -87l-251 -11l18 87q10 40 30.5 67.5t52 42.5t71.5 15q35 0 59.5 -14t34.5 -39.5t3 -60.5z" />
    <glyph glyph-name="eacute" unicode="&#xe9;" horiz-adv-x="422" 
d="M412 645q8 9 11 17.5t1.5 16.5t-9.5 13q-7 5 -16 4t-17 -7t-14 -16l-61 -107h35zM116 134l13 62l308 16l28 130q12 55 -4 92t-53.5 56.5t-92.5 19.5q-54 0 -97.5 -19.5t-72.5 -57.5t-41 -94l-41 -197q-9 -42 -2.5 -71.5t25 -47.5t48 -26.5t67.5 -8.5t84.5 12.5t89.5 34.5
l-13 43q-43 -19 -80.5 -30.5t-75.5 -11.5q-24 0 -43 5.5t-31.5 17t-16.5 30.5t1 45zM410 349l-18 -87l-251 -11l18 87q10 40 30.5 67.5t52 42.5t71.5 15q35 0 59.5 -14t34.5 -39.5t3 -60.5z" />
    <glyph glyph-name="ecircumflex" unicode="&#xea;" horiz-adv-x="422" 
d="M468 589l-102 127l-159 -128l31 -38l116 93l70 -88zM116 134l13 62l308 16l28 130q12 55 -4 92t-53.5 56.5t-92.5 19.5q-54 0 -97.5 -19.5t-72.5 -57.5t-41 -94l-41 -197q-9 -42 -2.5 -71.5t25 -47.5t48 -26.5t67.5 -8.5t84.5 12.5t89.5 34.5l-13 43q-43 -19 -80.5 -30.5
t-75.5 -11.5q-24 0 -43 5.5t-31.5 17t-16.5 30.5t1 45zM410 349l-18 -87l-251 -11l18 87q10 40 30.5 67.5t52 42.5t71.5 15q35 0 59.5 -14t34.5 -39.5t3 -60.5z" />
    <glyph glyph-name="edieresis" unicode="&#xeb;" horiz-adv-x="422" 
d="M271 657q-13 0 -25 -10t-15 -24q-3 -13 5 -23t21 -10q14 0 26 10t15 23q3 14 -5 24t-22 10zM428 657q-13 0 -25.5 -10t-15.5 -24t5 -23.5t21 -9.5q14 0 26 9.5t15 23.5t-4.5 24t-21.5 10zM116 134l13 62l308 16l28 130q12 55 -4 92t-53.5 56.5t-92.5 19.5
q-54 0 -97.5 -19.5t-72.5 -57.5t-41 -94l-41 -197q-9 -42 -2.5 -71.5t25 -47.5t48 -26.5t67.5 -8.5t84.5 12.5t89.5 34.5l-13 43q-43 -19 -80.5 -30.5t-75.5 -11.5q-24 0 -43 5.5t-31.5 17t-16.5 30.5t1 45zM410 349l-18 -87l-251 -11l18 87q10 40 30.5 67.5t52 42.5
t71.5 15q35 0 59.5 -14t34.5 -39.5t3 -60.5z" />
    <glyph glyph-name="igrave" unicode="&#xec;" horiz-adv-x="135" 
d="M193 676q-1 10 -7 17t-14.5 10t-19.5 -1q-10 -3 -14.5 -11.5t-4.5 -18.5t3 -18l36 -79h36zM38 0h57l106 501h-56z" />
    <glyph glyph-name="iacute" unicode="&#xed;" horiz-adv-x="135" 
d="M278 649q8 9 11 17.5t1.5 16.5t-9.5 13q-7 5 -16 4t-17 -7t-14 -16l-61 -107h35zM38 0h57l106 501h-56z" />
    <glyph glyph-name="icircumflex" unicode="&#xee;" horiz-adv-x="135" 
d="M324 589l-102 127l-159 -128l31 -38l116 93l70 -88zM38 0h57l106 501h-56z" />
    <glyph glyph-name="idieresis" unicode="&#xef;" horiz-adv-x="135" 
d="M128 657q-13 0 -25 -10t-15 -24q-3 -13 5 -23t21 -10q14 0 26 10t15 23q3 14 -5 24t-22 10zM285 657q-13 0 -25.5 -10t-15.5 -24t5 -23.5t21 -9.5q14 0 26 9.5t15 23.5t-4.5 24t-21.5 10zM38 0h57l106 501h-56z" />
    <glyph glyph-name="eth" unicode="&#xf0;" horiz-adv-x="425" 
d="M446 659q-20 17 -47 27.5t-60 14.5l-15 -31q8 -2 22 -6.5t30 -13.5t31 -23l-125 -103l22 -28l126 103q12 -21 17 -50t-4 -68l-25 -121q-5 16 -17 29.5t-29 23.5t-38 15.5t-44 5.5q-82 0 -136 -48t-74 -140l-12 -58q-19 -91 17 -144t125 -53t148.5 51t79.5 146l60 283
q7 31 7 58t-8 52.5t-26 51.5l51 42l-22 28zM218 43q-42 0 -66 16t-31 48t3 81l15 66q9 42 28.5 70.5t49 42.5t67.5 14q29 0 52 -8.5t38.5 -25.5t21 -41.5t-1.5 -56.5l-13 -61q-10 -49 -32 -81t-54.5 -48t-76.5 -16z" />
    <glyph glyph-name="ntilde" unicode="&#xf1;" horiz-adv-x="443" 
d="M436 674l-4 -18q-2 -11 -8.5 -21.5t-17.5 -10.5q-6 0 -15.5 6.5t-15.5 11.5q-9 7 -18 14.5t-20 11.5q-16 8 -36 7t-37 -13q-12 -8 -20 -19.5t-13 -23.5t-7 -24l-3 -18h50l3 18q1 5 4 14.5t8 13.5q8 5 16.5 2t14.5 -8q7 -5 14.5 -11t15.5 -11q11 -7 23 -14t28 -7
q35 0 56 25.5t28 56.5l4 18h-50zM425 342l-73 -342h55l73 345q7 31 5 57t-12 46t-28.5 33.5t-44.5 20.5t-59 7q-25 0 -50.5 -5t-50 -14.5t-47.5 -23.5l8 34h-57l-106 -500h56l91 425q23 12 45.5 19.5t44.5 11t44 3.5q24 0 46 -5.5t38 -19t22.5 -36t-0.5 -56.5z" />
    <glyph glyph-name="ograve" unicode="&#xf2;" horiz-adv-x="430" 
d="M341 676q-1 10 -7 17t-14.5 10t-19.5 -1q-10 -3 -14.5 -11.5t-4.5 -18.5t3 -18l36 -79h36zM438 185l29 131q19 92 -17 144t-125 52q-60 0 -106.5 -22.5t-77 -66t-44.5 -107.5l-29 -131q-11 -54 0.5 -98t48.5 -70.5t99 -26.5q92 0 148 54t74 141zM410 316l-30 -141
q-8 -41 -28.5 -71.5t-52 -47t-73.5 -16.5q-40 0 -66 17t-35.5 47.5t-1.5 70.5l30 141q10 48 31.5 80.5t54.5 49t77 16.5t68 -16.5t30.5 -49t-4.5 -80.5z" />
    <glyph glyph-name="oacute" unicode="&#xf3;" horiz-adv-x="430" 
d="M419 651q8 9 11 17.5t1.5 16.5t-9.5 13q-7 5 -16 4t-17 -7t-14 -16l-61 -107h35zM438 185l29 131q19 92 -17 144t-125 52q-60 0 -106.5 -22.5t-77 -66t-44.5 -107.5l-29 -131q-11 -54 0.5 -98t48.5 -70.5t99 -26.5q92 0 148 54t74 141zM410 316l-30 -141
q-8 -41 -28.5 -71.5t-52 -47t-73.5 -16.5q-40 0 -66 17t-35.5 47.5t-1.5 70.5l30 141q10 48 31.5 80.5t54.5 49t77 16.5t68 -16.5t30.5 -49t-4.5 -80.5z" />
    <glyph glyph-name="ocircumflex" unicode="&#xf4;" horiz-adv-x="430" 
d="M472 589l-102 127l-159 -128l31 -38l116 93l70 -88zM438 185l29 131q19 92 -17 144t-125 52q-60 0 -106.5 -22.5t-77 -66t-44.5 -107.5l-29 -131q-11 -54 0.5 -98t48.5 -70.5t99 -26.5q92 0 148 54t74 141zM410 316l-30 -141q-8 -41 -28.5 -71.5t-52 -47t-73.5 -16.5
q-40 0 -66 17t-35.5 47.5t-1.5 70.5l30 141q10 48 31.5 80.5t54.5 49t77 16.5t68 -16.5t30.5 -49t-4.5 -80.5z" />
    <glyph glyph-name="otilde" unicode="&#xf5;" horiz-adv-x="430" 
d="M431 674l-4 -18q-2 -11 -8.5 -21.5t-17.5 -10.5q-6 0 -15.5 6.5t-15.5 11.5q-9 7 -18 14.5t-20 11.5q-16 8 -36 7t-37 -13q-12 -8 -20 -19.5t-13 -23.5t-7 -24l-3 -18h50l3 18q1 5 4 14.5t8 13.5q8 5 16.5 2t14.5 -8q7 -5 14.5 -11t15.5 -11q11 -7 23 -14t28 -7
q35 0 56 25.5t28 56.5l4 18h-50zM438 185l29 131q19 92 -17 144t-125 52q-60 0 -106.5 -22.5t-77 -66t-44.5 -107.5l-29 -131q-11 -54 0.5 -98t48.5 -70.5t99 -26.5q92 0 148 54t74 141zM410 316l-30 -141q-8 -41 -28.5 -71.5t-52 -47t-73.5 -16.5q-40 0 -66 17t-35.5 47.5
t-1.5 70.5l30 141q10 48 31.5 80.5t54.5 49t77 16.5t68 -16.5t30.5 -49t-4.5 -80.5z" />
    <glyph glyph-name="odieresis" unicode="&#xf6;" horiz-adv-x="430" 
d="M277 657q-13 0 -25 -10t-15 -24q-3 -13 5 -23t21 -10q14 0 26 10t15 23q3 14 -5 24t-22 10zM434 657q-13 0 -25.5 -10t-15.5 -24t5 -23.5t21 -9.5q14 0 26 9.5t15 23.5t-4.5 24t-21.5 10zM438 185l29 131q19 92 -17 144t-125 52q-60 0 -106.5 -22.5t-77 -66t-44.5 -107.5
l-29 -131q-11 -54 0.5 -98t48.5 -70.5t99 -26.5q92 0 148 54t74 141zM410 316l-30 -141q-8 -41 -28.5 -71.5t-52 -47t-73.5 -16.5q-40 0 -66 17t-35.5 47.5t-1.5 70.5l30 141q10 48 31.5 80.5t54.5 49t77 16.5t68 -16.5t30.5 -49t-4.5 -80.5z" />
    <glyph glyph-name="divide" unicode="&#xf7;" horiz-adv-x="379" 
d="M104 356h320l11 54h-319zM305 546q-14 0 -26 -10t-15 -24q-3 -13 5 -23t22 -10t26 10t15 23q3 14 -5 24t-22 10zM250 288q-15 1 -25 -8.5t-14 -22.5t2 -24.5t23 -10.5q14 0 26 9.5t15 23.5t-5 23.5t-22 9.5z" />
    <glyph glyph-name="oslash" unicode="&#xf8;" horiz-adv-x="430" 
d="M470 514h-58l-344 -534h57zM438 185l29 131q19 92 -17 144t-125 52q-60 0 -106.5 -22.5t-77 -66t-44.5 -107.5l-29 -131q-11 -54 0.5 -98t48.5 -70.5t99 -26.5q92 0 148 54t74 141zM410 316l-30 -141q-8 -41 -28.5 -71.5t-52 -47t-73.5 -16.5q-40 0 -66 17t-35.5 47.5
t-1.5 70.5l30 141q10 48 31.5 80.5t54.5 49t77 16.5t68 -16.5t30.5 -49t-4.5 -80.5z" />
    <glyph glyph-name="ugrave" unicode="&#xf9;" horiz-adv-x="445" 
d="M349 673q-1 10 -7 17t-14.5 10t-19.5 -1q-10 -3 -14.5 -11.5t-4.5 -18.5t3 -18l36 -79h36zM359 48l-10 -48h56l107 501h-56l-70 -328q-6 -27 -20.5 -49t-36 -39t-46.5 -27.5t-52 -13.5q-41 -3 -68 7t-37 36.5t0 72.5l72 341h-56l-74 -344q-7 -34 -4.5 -61t13.5 -47
t30 -33t44.5 -19.5t56.5 -6.5q26 0 53 6.5t52.5 19.5t45.5 32z" />
    <glyph glyph-name="uacute" unicode="&#xfa;" horiz-adv-x="445" 
d="M424 649q8 9 11 17.5t1.5 16.5t-9.5 13q-7 5 -16 4t-17 -7t-14 -16l-61 -107h35zM359 48l-10 -48h56l107 501h-56l-70 -328q-6 -27 -20.5 -49t-36 -39t-46.5 -27.5t-52 -13.5q-41 -3 -68 7t-37 36.5t0 72.5l72 341h-56l-74 -344q-7 -34 -4.5 -61t13.5 -47t30 -33
t44.5 -19.5t56.5 -6.5q26 0 53 6.5t52.5 19.5t45.5 32z" />
    <glyph glyph-name="ucircumflex" unicode="&#xfb;" horiz-adv-x="445" 
d="M480 589l-102 127l-159 -128l31 -38l116 93l70 -88zM359 48l-10 -48h56l107 501h-56l-70 -328q-6 -27 -20.5 -49t-36 -39t-46.5 -27.5t-52 -13.5q-41 -3 -68 7t-37 36.5t0 72.5l72 341h-56l-74 -344q-7 -34 -4.5 -61t13.5 -47t30 -33t44.5 -19.5t56.5 -6.5q26 0 53 6.5
t52.5 19.5t45.5 32z" />
    <glyph glyph-name="udieresis" unicode="&#xfc;" horiz-adv-x="445" 
d="M283 657q-13 0 -25 -10t-15 -24q-3 -13 5 -23t21 -10q14 0 26 10t15 23q3 14 -5 24t-22 10zM440 657q-13 0 -25.5 -10t-15.5 -24t5 -23.5t21 -9.5q14 0 26 9.5t15 23.5t-4.5 24t-21.5 10zM359 48l-10 -48h56l107 501h-56l-70 -328q-6 -27 -20.5 -49t-36 -39t-46.5 -27.5
t-52 -13.5q-41 -3 -68 7t-37 36.5t0 72.5l72 341h-56l-74 -344q-7 -34 -4.5 -61t13.5 -47t30 -33t44.5 -19.5t56.5 -6.5q26 0 53 6.5t52.5 19.5t45.5 32z" />
    <glyph glyph-name="yacute" unicode="&#xfd;" horiz-adv-x="469" 
d="M435 649q8 9 11 17.5t1.5 16.5t-9.5 13q-7 5 -16 4t-17 -7t-14 -16l-61 -107h35zM538 470l-11 42q-25 -8 -44 -23.5t-30.5 -36t-16.5 -43.5l-50 -235q-6 -26 -20.5 -49.5t-35.5 -41.5t-46.5 -28.5t-52.5 -10.5q-23 0 -45 5.5t-38 18.5t-22.5 36t0.5 58l72 339h-56
l-73 -343q-9 -43 -4 -74.5t23 -52t48.5 -30.5t71.5 -10q26 0 53 6.5t52.5 19.5t46.5 33l-24 -111q-4 -19 -11.5 -35.5t-18 -29.5t-25 -23t-32.5 -17l7 -43q40 13 67 31t43.5 46t25.5 70l100 470q7 32 19 44t27 18z" />
    <glyph glyph-name="thorn" unicode="&#xfe;" horiz-adv-x="442" 
d="M446 176l37 170q11 53 -0.5 90.5t-45 57t-90.5 16.5q-24 -1 -50 -7.5t-52 -19t-52 -30.5l52 247h-57l-189 -888l52 -25l59 274q8 -20 26 -37t43.5 -26.5t56.5 -9.5q83 0 137 48.5t73 139.5zM425 343l-37 -176q-9 -43 -28.5 -71t-48.5 -42t-67 -14q-29 0 -52 9t-38.5 26
t-21 42t1.5 57l46 219q19 21 44.5 35t52 22t48.5 10q24 2 45 -3.5t36 -19t20.5 -37t-1.5 -57.5z" />
    <glyph glyph-name="ydieresis" unicode="&#xff;" horiz-adv-x="469" 
d="M294 657q-13 0 -25 -10t-15 -24q-3 -13 5 -23t21 -10q14 0 26 10t15 23q3 14 -5 24t-22 10zM451 657q-13 0 -25.5 -10t-15.5 -24t5 -23.5t21 -9.5q14 0 26 9.5t15 23.5t-4.5 24t-21.5 10zM538 470l-11 42q-25 -8 -44 -23.5t-30.5 -36t-16.5 -43.5l-50 -235
q-6 -26 -20.5 -49.5t-35.5 -41.5t-46.5 -28.5t-52.5 -10.5q-23 0 -45 5.5t-38 18.5t-22.5 36t0.5 58l72 339h-56l-73 -343q-9 -43 -4 -74.5t23 -52t48.5 -30.5t71.5 -10q26 0 53 6.5t52.5 19.5t46.5 33l-24 -111q-4 -19 -11.5 -35.5t-18 -29.5t-25 -23t-32.5 -17l7 -43
q40 13 67 31t43.5 46t25.5 70l100 470q7 32 19 44t27 18z" />
    <glyph glyph-name="Amacron" unicode="&#x100;" horiz-adv-x="547" 
d="M559 827h-221l-12 -54h221zM527 0l-79 700h-53l-374 -700h60l131 245h227l29 -245h59zM238 300l164 314l34 -314h-198z" />
    <glyph glyph-name="amacron" unicode="&#x101;" horiz-adv-x="447" 
d="M470 642h-221l-12 -54h221zM429 350q-20 14 -46 26t-55.5 19.5t-62.5 7.5q-30 0 -59.5 -8t-54.5 -25.5t-43.5 -46.5t-27.5 -71l-18 -83q-11 -55 -1 -91t36.5 -55.5t66 -26.5t87.5 -6q15 0 35.5 1t42.5 2.5t41 3t30.5 2.5t10.5 1l62 288q12 60 11.5 102.5t-18 68.5
t-55.5 38t-100 12l-11 -43q29 0 56 -4t46 -16.5t27 -35t0 -60.5zM419 303l-54 -257l-5 -0.5t-14 -1t-22.5 -2t-30 -2.5t-36.5 -2q-51 -2 -82 5.5t-45.5 25t-16.5 44.5t6 63l16 74q7 34 21 54.5t30.5 31.5t33.5 15t30 4q32 0 61.5 -7t57 -19t50.5 -26z" />
    <glyph glyph-name="Abreve" unicode="&#x102;" horiz-adv-x="547" 
d="M566 854h-45l-1 -7q-6 -28 -31 -48t-54 -20q-35 0 -45.5 20t-5.5 48l2 7h-45l-2 -7q-6 -31 4 -57t32.5 -41t52.5 -15q32 0 60.5 15.5t49.5 41t27 56.5zM527 0l-79 700h-53l-374 -700h60l131 245h227l29 -245h59zM238 300l164 314l34 -314h-198z" />
    <glyph glyph-name="abreve" unicode="&#x103;" horiz-adv-x="447" 
d="M478 669h-45l-1 -7q-6 -28 -31 -48t-54 -20q-35 0 -45.5 20t-5.5 48l2 7h-45l-2 -7q-6 -31 4 -57t32.5 -41t52.5 -15q32 0 60.5 15.5t49.5 41t27 56.5zM429 350q-20 14 -46 26t-55.5 19.5t-62.5 7.5q-30 0 -59.5 -8t-54.5 -25.5t-43.5 -46.5t-27.5 -71l-18 -83
q-11 -55 -1 -91t36.5 -55.5t66 -26.5t87.5 -6q15 0 35.5 1t42.5 2.5t41 3t30.5 2.5t10.5 1l62 288q12 60 11.5 102.5t-18 68.5t-55.5 38t-100 12l-11 -43q29 0 56 -4t46 -16.5t27 -35t0 -60.5zM419 303l-54 -257l-5 -0.5t-14 -1t-22.5 -2t-30 -2.5t-36.5 -2q-51 -2 -82 5.5
t-45.5 25t-16.5 44.5t6 63l16 74q7 34 21 54.5t30.5 31.5t33.5 15t30 4q32 0 61.5 -7t57 -19t50.5 -26z" />
    <glyph glyph-name="Aogonek" unicode="&#x104;" horiz-adv-x="547" 
d="M518 6h-44l-2 -8l-82 -102q-21 -27 -26 -51.5t5.5 -43t34 -25.5t59.5 2q7 2 25 8t38 12.5t34.5 11.5l14.5 5l-10 39l-8 -2.5t-22 -7t-33 -10.5t-41 -14q-26 -8 -41 -1.5t-14.5 24t18.5 39.5l92 115zM527 0l-79 700h-53l-374 -700h60l131 245h227l29 -245h59zM238 300
l164 314l34 -314h-198z" />
    <glyph glyph-name="aogonek" unicode="&#x105;" horiz-adv-x="447" 
d="M405 11h-44l-2 -8l-82 -102q-21 -27 -26 -51.5t5.5 -43t34 -25.5t59.5 2q7 2 25 8t38 12.5t34.5 11.5l14.5 5l-10 39l-8 -2.5t-22 -7t-33 -10.5t-41 -14q-26 -8 -41 -1.5t-14.5 24t18.5 39.5l92 115zM429 350q-20 14 -46 26t-55.5 19.5t-62.5 7.5q-30 0 -59.5 -8
t-54.5 -25.5t-43.5 -46.5t-27.5 -71l-18 -83q-11 -55 -1 -91t36.5 -55.5t66 -26.5t87.5 -6q15 0 35.5 1t42.5 2.5t41 3t30.5 2.5t10.5 1l62 288q12 60 11.5 102.5t-18 68.5t-55.5 38t-100 12l-11 -43q29 0 56 -4t46 -16.5t27 -35t0 -60.5zM419 303l-54 -257l-5 -0.5t-14 -1
t-22.5 -2t-30 -2.5t-36.5 -2q-51 -2 -82 5.5t-45.5 25t-16.5 44.5t6 63l16 74q7 34 21 54.5t30.5 31.5t33.5 15t30 4q32 0 61.5 -7t57 -19t50.5 -26z" />
    <glyph glyph-name="Cacute" unicode="&#x106;" horiz-adv-x="423" 
d="M452 834q8 9 11 17.5t1.5 16.5t-9.5 13q-7 5 -16 4t-17 -7t-14 -16l-61 -107h35zM490 639l25 38q-28 17 -62 25t-73 8q-55 0 -103.5 -21t-83.5 -65t-50 -114l-70 -326q-14 -67 0.5 -109.5t55.5 -63.5t104 -21q38 0 80 8.5t88 24.5l-2 46q-30 -9 -57 -15.5t-51 -10
t-44 -3.5q-50 0 -79.5 14.5t-39 47t1.5 84.5l70 328q11 53 36.5 85t64 46.5t86.5 14.5q26 0 52 -5t51 -16z" />
    <glyph glyph-name="cacute" unicode="&#x107;" horiz-adv-x="381" 
d="M392 649q8 9 11 17.5t1.5 16.5t-9.5 13q-7 5 -16 4t-17 -7t-14 -16l-61 -107h35zM427 433l24 45q-29 15 -62.5 23.5t-68.5 8.5q-66 0 -111.5 -25t-72.5 -68t-39 -98l-31 -145q-14 -69 4.5 -110t62 -58.5t103.5 -16.5q29 1 58.5 5t57.5 11v50l-10 -1.5t-27 -4.5
t-37.5 -5.5t-41.5 -2.5q-37 0 -62.5 8t-39 25t-16 45t5.5 67l26 120q9 44 30.5 78.5t55.5 54.5t82 19q28 -1 57.5 -7.5t51.5 -17.5z" />
    <glyph glyph-name="Ccircumflex" unicode="&#x108;" horiz-adv-x="423" 
d="M512 774l-102 127l-159 -128l31 -38l116 93l70 -88zM490 639l25 38q-28 17 -62 25t-73 8q-55 0 -103.5 -21t-83.5 -65t-50 -114l-70 -326q-14 -67 0.5 -109.5t55.5 -63.5t104 -21q38 0 80 8.5t88 24.5l-2 46q-30 -9 -57 -15.5t-51 -10t-44 -3.5q-50 0 -79.5 14.5t-39 47
t1.5 84.5l70 328q11 53 36.5 85t64 46.5t86.5 14.5q26 0 52 -5t51 -16z" />
    <glyph glyph-name="ccircumflex" unicode="&#x109;" horiz-adv-x="381" 
d="M458 589l-102 127l-159 -128l31 -38l116 93l70 -88zM427 433l24 45q-29 15 -62.5 23.5t-68.5 8.5q-66 0 -111.5 -25t-72.5 -68t-39 -98l-31 -145q-14 -69 4.5 -110t62 -58.5t103.5 -16.5q29 1 58.5 5t57.5 11v50l-10 -1.5t-27 -4.5t-37.5 -5.5t-41.5 -2.5q-37 0 -62.5 8
t-39 25t-16 45t5.5 67l26 120q9 44 30.5 78.5t55.5 54.5t82 19q28 -1 57.5 -7.5t51.5 -17.5z" />
    <glyph glyph-name="Cdotaccent" unicode="&#x10a;" horiz-adv-x="423" 
d="M405 860q-13 0 -25.5 -10t-14.5 -24q-3 -13 4.5 -23t21.5 -10t25.5 10t14.5 23q3 14 -4.5 24t-21.5 10zM490 639l25 38q-28 17 -62 25t-73 8q-55 0 -103.5 -21t-83.5 -65t-50 -114l-70 -326q-14 -67 0.5 -109.5t55.5 -63.5t104 -21q38 0 80 8.5t88 24.5l-2 46
q-30 -9 -57 -15.5t-51 -10t-44 -3.5q-50 0 -79.5 14.5t-39 47t1.5 84.5l70 328q11 53 36.5 85t64 46.5t86.5 14.5q26 0 52 -5t51 -16z" />
    <glyph glyph-name="cdotaccent" unicode="&#x10b;" horiz-adv-x="381" 
d="M356 655q-13 0 -25.5 -10t-14.5 -24q-3 -13 4.5 -23t21.5 -10t25.5 10t14.5 23q3 14 -4.5 24t-21.5 10zM427 433l24 45q-29 15 -62.5 23.5t-68.5 8.5q-66 0 -111.5 -25t-72.5 -68t-39 -98l-31 -145q-14 -69 4.5 -110t62 -58.5t103.5 -16.5q29 1 58.5 5t57.5 11v50
l-10 -1.5t-27 -4.5t-37.5 -5.5t-41.5 -2.5q-37 0 -62.5 8t-39 25t-16 45t5.5 67l26 120q9 44 30.5 78.5t55.5 54.5t82 19q28 -1 57.5 -7.5t51.5 -17.5z" />
    <glyph glyph-name="Ccaron" unicode="&#x10c;" horiz-adv-x="423" 
d="M526 867l-32 38l-115 -92l-70 87l-44 -35l102 -126zM490 639l25 38q-28 17 -62 25t-73 8q-55 0 -103.5 -21t-83.5 -65t-50 -114l-70 -326q-14 -67 0.5 -109.5t55.5 -63.5t104 -21q38 0 80 8.5t88 24.5l-2 46q-30 -9 -57 -15.5t-51 -10t-44 -3.5q-50 0 -79.5 14.5t-39 47
t1.5 84.5l70 328q11 53 36.5 85t64 46.5t86.5 14.5q26 0 52 -5t51 -16z" />
    <glyph glyph-name="ccaron" unicode="&#x10d;" horiz-adv-x="381" 
d="M476 682l-32 38l-115 -92l-70 87l-44 -35l102 -126zM427 433l24 45q-29 15 -62.5 23.5t-68.5 8.5q-66 0 -111.5 -25t-72.5 -68t-39 -98l-31 -145q-14 -69 4.5 -110t62 -58.5t103.5 -16.5q29 1 58.5 5t57.5 11v50l-10 -1.5t-27 -4.5t-37.5 -5.5t-41.5 -2.5q-37 0 -62.5 8
t-39 25t-16 45t5.5 67l26 120q9 44 30.5 78.5t55.5 54.5t82 19q28 -1 57.5 -7.5t51.5 -17.5z" />
    <glyph glyph-name="Dcaron" unicode="&#x10e;" horiz-adv-x="497" 
d="M562 867l-32 38l-115 -92l-70 87l-44 -35l102 -126zM379 700h-189l-149 -700h209q71 0 123 22.5t84.5 67t46.5 110.5l58 275q15 68 -0.5 118.5t-61 78.5t-121.5 28zM243 50h-135l127 600h143q59 0 91 -22t41 -58.5t-1 -79.5l-64 -300q-7 -34 -23 -60.5t-41.5 -44
t-59.5 -26.5t-78 -9z" />
    <glyph glyph-name="dcaron" unicode="&#x10f;" horiz-adv-x="458" 
d="M701 862l-32 38l-115 -92l-70 87l-44 -35l102 -126zM414 0l149 700h-55l-49 -228q-30 15 -67.5 26t-87.5 11q-30 0 -61 -7.5t-59 -25t-49 -46.5t-30 -71l-40 -191q-12 -55 -2 -90.5t37 -55t67 -26.5t89 -6q14 0 34 1t42 2.5t40.5 3t30.5 2.5t11 1zM449 423l-80 -377
l-5 -0.5t-14.5 -1.5t-23 -2t-30 -2t-35.5 -2q-50 -1 -81 6.5t-46.5 25t-17.5 43.5t6 62l38 180q8 35 24 56.5t36 32.5t38.5 14.5t31.5 3.5q48 0 85.5 -11t73.5 -28z" />
    <glyph glyph-name="Dcroat" unicode="&#x110;" horiz-adv-x="497" 
d="M534 827h-221l-12 -54h221zM379 700h-189l-149 -700h209q71 0 123 22.5t84.5 67t46.5 110.5l58 275q15 68 -0.5 118.5t-61 78.5t-121.5 28zM243 50h-135l127 600h143q59 0 91 -22t41 -58.5t-1 -79.5l-64 -300q-7 -34 -23 -60.5t-41.5 -44t-59.5 -26.5t-78 -9z" />
    <glyph glyph-name="dcroat" unicode="&#x111;" horiz-adv-x="458" 
d="M581 564l11 53h-236l-11 -53h236zM414 0l149 700h-55l-49 -228q-30 15 -67.5 26t-87.5 11q-30 0 -61 -7.5t-59 -25t-49 -46.5t-30 -71l-40 -191q-12 -55 -2 -90.5t37 -55t67 -26.5t89 -6q14 0 34 1t42 2.5t40.5 3t30.5 2.5t11 1zM449 423l-80 -377l-5 -0.5t-14.5 -1.5
t-23 -2t-30 -2t-35.5 -2q-50 -1 -81 6.5t-46.5 25t-17.5 43.5t6 62l38 180q8 35 24 56.5t36 32.5t38.5 14.5t31.5 3.5q48 0 85.5 -11t73.5 -28z" />
    <glyph glyph-name="Emacron" unicode="&#x112;" horiz-adv-x="406" 
d="M489 827h-221l-12 -54h221zM41 0h332l11 50h-276l65 307h176l27 55h-191l50 236h278l11 52h-334z" />
    <glyph glyph-name="emacron" unicode="&#x113;" horiz-adv-x="422" 
d="M457 642h-221l-12 -54h221zM116 134l13 62l308 16l28 130q12 55 -4 92t-53.5 56.5t-92.5 19.5q-54 0 -97.5 -19.5t-72.5 -57.5t-41 -94l-41 -197q-9 -42 -2.5 -71.5t25 -47.5t48 -26.5t67.5 -8.5t84.5 12.5t89.5 34.5l-13 43q-43 -19 -80.5 -30.5t-75.5 -11.5
q-24 0 -43 5.5t-31.5 17t-16.5 30.5t1 45zM410 349l-18 -87l-251 -11l18 87q10 40 30.5 67.5t52 42.5t71.5 15q35 0 59.5 -14t34.5 -39.5t3 -60.5z" />
    <glyph glyph-name="Ebreve" unicode="&#x114;" horiz-adv-x="406" 
d="M41 0h332l11 50h-276l65 307h176l27 55h-191l50 236h278l11 52h-334zM513 903h-45l-1 -7q-6 -28 -31 -48t-54 -20q-35 0 -45.5 20t-5.5 48l2 7h-45l-2 -7q-6 -31 4 -57t32.5 -41t52.5 -15q32 0 60.5 15.5t49.5 41t27 56.5z" />
    <glyph glyph-name="ebreve" unicode="&#x115;" horiz-adv-x="422" 
d="M116 134l13 62l308 16l28 130q12 55 -4 92t-53.5 56.5t-92.5 19.5q-54 0 -97.5 -19.5t-72.5 -57.5t-41 -94l-41 -197q-9 -42 -2.5 -71.5t25 -47.5t48 -26.5t67.5 -8.5t84.5 12.5t89.5 34.5l-13 43q-43 -19 -80.5 -30.5t-75.5 -11.5q-24 0 -43 5.5t-31.5 17t-16.5 30.5
t1 45zM410 349l-18 -87l-251 -11l18 87q10 40 30.5 67.5t52 42.5t71.5 15q35 0 59.5 -14t34.5 -39.5t3 -60.5zM476 704h-45l-1 -7q-6 -28 -31 -48t-54 -20q-35 0 -45.5 20t-5.5 48l2 7h-45l-2 -7q-6 -31 4 -57t32.5 -41t52.5 -15q32 0 60.5 15.5t49.5 41t27 56.5z" />
    <glyph glyph-name="Edotaccent" unicode="&#x116;" horiz-adv-x="406" 
d="M386 860q-13 0 -25.5 -10t-14.5 -24q-3 -13 4.5 -23t21.5 -10t25.5 10t14.5 23q3 14 -4.5 24t-21.5 10zM41 0h332l11 50h-276l65 307h176l27 55h-191l50 236h278l11 52h-334z" />
    <glyph glyph-name="edotaccent" unicode="&#x117;" horiz-adv-x="422" 
d="M356 655q-13 0 -25.5 -10t-14.5 -24q-3 -13 4.5 -23t21.5 -10t25.5 10t14.5 23q3 14 -4.5 24t-21.5 10zM116 134l13 62l308 16l28 130q12 55 -4 92t-53.5 56.5t-92.5 19.5q-54 0 -97.5 -19.5t-72.5 -57.5t-41 -94l-41 -197q-9 -42 -2.5 -71.5t25 -47.5t48 -26.5
t67.5 -8.5t84.5 12.5t89.5 34.5l-13 43q-43 -19 -80.5 -30.5t-75.5 -11.5q-24 0 -43 5.5t-31.5 17t-16.5 30.5t1 45zM410 349l-18 -87l-251 -11l18 87q10 40 30.5 67.5t52 42.5t71.5 15q35 0 59.5 -14t34.5 -39.5t3 -60.5z" />
    <glyph glyph-name="Eogonek" unicode="&#x118;" horiz-adv-x="406" 
d="M368 6h-44l-2 -8l-82 -102q-21 -27 -26 -51.5t5.5 -43t34 -25.5t59.5 2q7 2 25 8t38 12.5t34.5 11.5l14.5 5l-10 39l-8 -2.5t-22 -7t-33 -10.5t-41 -14q-26 -8 -41 -1.5t-14.5 24t18.5 39.5l92 115zM41 0h332l11 50h-276l65 307h176l27 55h-191l50 236h278l11 52h-334z
" />
    <glyph glyph-name="eogonek" unicode="&#x119;" horiz-adv-x="422" 
d="M291 16h-44l-2 -8l-82 -102q-21 -27 -26 -51.5t5.5 -43t34 -25.5t59.5 2q7 2 25 8t38 12.5t34.5 11.5l14.5 5l-10 39l-8 -2.5t-22 -7t-33 -10.5t-41 -14q-26 -8 -41 -1.5t-14.5 24t18.5 39.5l92 115zM116 134l13 62l308 16l28 130q12 55 -4 92t-53.5 56.5t-92.5 19.5
q-54 0 -97.5 -19.5t-72.5 -57.5t-41 -94l-41 -197q-9 -42 -2.5 -71.5t25 -47.5t48 -26.5t67.5 -8.5t84.5 12.5t89.5 34.5l-13 43q-43 -19 -80.5 -30.5t-75.5 -11.5q-24 0 -43 5.5t-31.5 17t-16.5 30.5t1 45zM410 349l-18 -87l-251 -11l18 87q10 40 30.5 67.5t52 42.5
t71.5 15q35 0 59.5 -14t34.5 -39.5t3 -60.5z" />
    <glyph glyph-name="Ecaron" unicode="&#x11a;" horiz-adv-x="406" 
d="M517 867l-32 38l-115 -92l-70 87l-44 -35l102 -126zM41 0h332l11 50h-276l65 307h176l27 55h-191l50 236h278l11 52h-334z" />
    <glyph glyph-name="ecaron" unicode="&#x11b;" horiz-adv-x="422" 
d="M486 682l-32 38l-115 -92l-70 87l-44 -35l102 -126zM116 134l13 62l308 16l28 130q12 55 -4 92t-53.5 56.5t-92.5 19.5q-54 0 -97.5 -19.5t-72.5 -57.5t-41 -94l-41 -197q-9 -42 -2.5 -71.5t25 -47.5t48 -26.5t67.5 -8.5t84.5 12.5t89.5 34.5l-13 43q-43 -19 -80.5 -30.5
t-75.5 -11.5q-24 0 -43 5.5t-31.5 17t-16.5 30.5t1 45zM410 349l-18 -87l-251 -11l18 87q10 40 30.5 67.5t52 42.5t71.5 15q35 0 59.5 -14t34.5 -39.5t3 -60.5z" />
    <glyph glyph-name="Gcircumflex" unicode="&#x11c;" horiz-adv-x="479" 
d="M535 774l-102 127l-159 -128l31 -38l116 93l70 -88zM490 638l25 38q-19 11 -40.5 18.5t-45.5 11t-50 3.5q-63 0 -111.5 -24.5t-80.5 -70.5t-46 -111l-67 -314q-14 -66 0.5 -110t53 -66.5t95.5 -22.5q32 0 64.5 7t62 20t51.5 30l-6 -47h51l64 300h-203l9 -55h129l-12 -58
q-7 -34 -27.5 -60t-49.5 -44.5t-62 -28.5t-65 -10q-43 0 -68.5 16.5t-33 48.5t2.5 78l69 324q11 53 36.5 85.5t64 47.5t88.5 15q17 0 34 -2t34 -7t34 -12z" />
    <glyph glyph-name="gcircumflex" unicode="&#x11d;" horiz-adv-x="441" 
d="M478 589l-102 127l-159 -128l31 -38l116 93l70 -88zM387 -64l120 563h-57l-10 -47q-18 18 -39 30.5t-44 19t-47 7.5q-54 3 -96 -16t-70 -56.5t-39 -90.5l-37 -171q-19 -91 14.5 -139t117.5 -48q23 0 45.5 5.5t44 15.5t38.5 23.5t29 28.5l-26 -124q-5 -20 -12.5 -36.5
t-19 -29t-26 -22.5t-32.5 -16l7 -44q41 12 69 31t45 47.5t25 68.5zM428 393l-47 -220q-7 -31 -23 -56t-38.5 -42t-49.5 -26t-56 -9q-38 0 -61.5 14t-31 42t1.5 70l37 177q7 34 23 57t37 37t44.5 19.5t46.5 2.5q16 -1 33.5 -6t34 -13t29.5 -19.5t20 -27.5z" />
    <glyph glyph-name="Gbreve" unicode="&#x11e;" horiz-adv-x="479" 
d="M522 854h-45l-1 -7q-6 -28 -31 -48t-54 -20q-35 0 -45.5 20t-5.5 48l2 7h-45l-2 -7q-6 -31 4 -57t32.5 -41t52.5 -15q32 0 60.5 15.5t49.5 41t27 56.5zM490 638l25 38q-19 11 -40.5 18.5t-45.5 11t-50 3.5q-63 0 -111.5 -24.5t-80.5 -70.5t-46 -111l-67 -314
q-14 -66 0.5 -110t53 -66.5t95.5 -22.5q32 0 64.5 7t62 20t51.5 30l-6 -47h51l64 300h-203l9 -55h129l-12 -58q-7 -34 -27.5 -60t-49.5 -44.5t-62 -28.5t-65 -10q-43 0 -68.5 16.5t-33 48.5t2.5 78l69 324q11 53 36.5 85.5t64 47.5t88.5 15q17 0 34 -2t34 -7t34 -12z" />
    <glyph glyph-name="gbreve" unicode="&#x11f;" horiz-adv-x="441" 
d="M475 669h-45l-1 -7q-6 -28 -31 -48t-54 -20q-35 0 -45.5 20t-5.5 48l2 7h-45l-2 -7q-6 -31 4 -57t32.5 -41t52.5 -15q32 0 60.5 15.5t49.5 41t27 56.5zM387 -64l120 563h-57l-10 -47q-18 18 -39 30.5t-44 19t-47 7.5q-54 3 -96 -16t-70 -56.5t-39 -90.5l-37 -171
q-19 -91 14.5 -139t117.5 -48q23 0 45.5 5.5t44 15.5t38.5 23.5t29 28.5l-26 -124q-5 -20 -12.5 -36.5t-19 -29t-26 -22.5t-32.5 -16l7 -44q41 12 69 31t45 47.5t25 68.5zM428 393l-47 -220q-7 -31 -23 -56t-38.5 -42t-49.5 -26t-56 -9q-38 0 -61.5 14t-31 42t1.5 70l37 177
q7 34 23 57t37 37t44.5 19.5t46.5 2.5q16 -1 33.5 -6t34 -13t29.5 -19.5t20 -27.5z" />
    <glyph glyph-name="Gdotaccent" unicode="&#x120;" horiz-adv-x="479" 
d="M422 860q-13 0 -25.5 -10t-14.5 -24q-3 -13 4.5 -23t21.5 -10t25.5 10t14.5 23q3 14 -4.5 24t-21.5 10zM490 638l25 38q-19 11 -40.5 18.5t-45.5 11t-50 3.5q-63 0 -111.5 -24.5t-80.5 -70.5t-46 -111l-67 -314q-14 -66 0.5 -110t53 -66.5t95.5 -22.5q32 0 64.5 7t62 20
t51.5 30l-6 -47h51l64 300h-203l9 -55h129l-12 -58q-7 -34 -27.5 -60t-49.5 -44.5t-62 -28.5t-65 -10q-43 0 -68.5 16.5t-33 48.5t2.5 78l69 324q11 53 36.5 85.5t64 47.5t88.5 15q17 0 34 -2t34 -7t34 -12z" />
    <glyph glyph-name="gdotaccent" unicode="&#x121;" horiz-adv-x="441" 
d="M366 635q-13 0 -25.5 -10t-14.5 -24q-3 -13 4.5 -23t21.5 -10t25.5 10t14.5 23q3 14 -4.5 24t-21.5 10zM387 -64l120 563h-57l-10 -47q-18 18 -39 30.5t-44 19t-47 7.5q-54 3 -96 -16t-70 -56.5t-39 -90.5l-37 -171q-19 -91 14.5 -139t117.5 -48q23 0 45.5 5.5t44 15.5
t38.5 23.5t29 28.5l-26 -124q-5 -20 -12.5 -36.5t-19 -29t-26 -22.5t-32.5 -16l7 -44q41 12 69 31t45 47.5t25 68.5zM428 393l-47 -220q-7 -31 -23 -56t-38.5 -42t-49.5 -26t-56 -9q-38 0 -61.5 14t-31 42t1.5 70l37 177q7 34 23 57t37 37t44.5 19.5t46.5 2.5q16 -1 33.5 -6
t34 -13t29.5 -19.5t20 -27.5z" />
    <glyph glyph-name="Gcommaaccent" unicode="&#x122;" horiz-adv-x="479" 
d="M162 -196l14 -12q9 6 20.5 17t23 26t21 34.5t14.5 43.5q3 15 -5 24t-22 9q-13 0 -25 -9.5t-15 -23.5q-3 -12 3 -21.5t18 -11.5q-5 -16 -16 -36t-31 -40zM490 638l25 38q-19 11 -40.5 18.5t-45.5 11t-50 3.5q-63 0 -111.5 -24.5t-80.5 -70.5t-46 -111l-67 -314
q-14 -66 0.5 -110t53 -66.5t95.5 -22.5q32 0 64.5 7t62 20t51.5 30l-6 -47h51l64 300h-203l9 -55h129l-12 -58q-7 -34 -27.5 -60t-49.5 -44.5t-62 -28.5t-65 -10q-43 0 -68.5 16.5t-33 48.5t2.5 78l69 324q11 53 36.5 85.5t64 47.5t88.5 15q17 0 34 -2t34 -7t34 -12z" />
    <glyph glyph-name="gcommaaccent" unicode="&#x123;" horiz-adv-x="441" 
d="M408 714l-14 12q-9 -6 -20.5 -17t-23 -26t-21 -34.5t-14.5 -42.5q-3 -15 5.5 -24t21.5 -9q14 0 25.5 10t14.5 23q3 14 -3 23t-17 10q6 17 16.5 36.5t29.5 38.5zM387 -64l120 563h-57l-10 -47q-18 18 -39 30.5t-44 19t-47 7.5q-54 3 -96 -16t-70 -56.5t-39 -90.5l-37 -171
q-19 -91 14.5 -139t117.5 -48q23 0 45.5 5.5t44 15.5t38.5 23.5t29 28.5l-26 -124q-5 -20 -12.5 -36.5t-19 -29t-26 -22.5t-32.5 -16l7 -44q41 12 69 31t45 47.5t25 68.5zM428 393l-47 -220q-7 -31 -23 -56t-38.5 -42t-49.5 -26t-56 -9q-38 0 -61.5 14t-31 42t1.5 70l37 177
q7 34 23 57t37 37t44.5 19.5t46.5 2.5q16 -1 33.5 -6t34 -13t29.5 -19.5t20 -27.5z" />
    <glyph glyph-name="Hcircumflex" unicode="&#x124;" horiz-adv-x="515" 
d="M553 774l-102 127l-159 -128l31 -38l116 93l70 -88zM503 412h-318l61 288h-56l-149 -700h57l75 357h318l-76 -357h57l148 700h-56z" />
    <glyph glyph-name="hcircumflex" unicode="&#x125;" horiz-adv-x="444" 
d="M365 739l-102 127l-159 -128l31 -38l116 93l70 -88zM197 467l49 233h-56l-149 -700h57l90 425q23 12 45.5 19.5t45 11.5t45.5 4q24 0 45.5 -5.5t37.5 -19t22 -36t-1 -56.5l-73 -343h56l74 346q7 32 5 58t-12.5 45.5t-29 33t-44.5 20.5t-59 7q-24 0 -50 -5.5t-51 -15
t-47 -22.5z" />
    <glyph glyph-name="Hbar" unicode="&#x126;" horiz-adv-x="515" 
d="M106 498h515l12 56h-515zM503 412h-318l61 288h-56l-149 -700h57l75 357h318l-76 -357h57l148 700h-56z" />
    <glyph glyph-name="hbar" unicode="&#x127;" horiz-adv-x="444" 
d="M359 564l11 53h-236l-11 -53h236zM197 467l49 233h-56l-149 -700h57l90 425q23 12 45.5 19.5t45 11.5t45.5 4q24 0 45.5 -5.5t37.5 -19t22 -36t-1 -56.5l-73 -343h56l74 346q7 32 5 58t-12.5 45.5t-29 33t-44.5 20.5t-59 7q-24 0 -50 -5.5t-51 -15t-47 -22.5z" />
    <glyph glyph-name="Itilde" unicode="&#x128;" horiz-adv-x="187" 
d="M348 869l-4 -18q-2 -11 -8.5 -21.5t-17.5 -10.5q-6 0 -15.5 6.5t-15.5 11.5q-9 7 -18 14.5t-20 11.5q-16 8 -36 7t-37 -13q-12 -8 -20 -19.5t-13 -23.5t-7 -24l-3 -18h50l3 18q1 5 4 14.5t8 13.5q8 5 16.5 2t14.5 -8q7 -5 14.5 -11t15.5 -11q11 -7 23 -14t28 -7
q35 0 56 25.5t28 56.5l4 18h-50zM159 651l67 -2l-138 -649h56l149 700h-124z" />
    <glyph glyph-name="itilde" unicode="&#x129;" horiz-adv-x="135" 
d="M273 674l-4 -18q-2 -11 -8.5 -21.5t-17.5 -10.5q-6 0 -15.5 6.5t-15.5 11.5q-9 7 -18 14.5t-20 11.5q-16 8 -36 7t-37 -13q-12 -8 -20 -19.5t-13 -23.5t-7 -24l-3 -18h50l3 18q1 5 4 14.5t8 13.5q8 5 16.5 2t14.5 -8q7 -5 14.5 -11t15.5 -11q11 -7 23 -14t28 -7
q35 0 56 25.5t28 56.5l4 18h-50zM38 0h57l106 501h-56z" />
    <glyph glyph-name="Imacron" unicode="&#x12a;" horiz-adv-x="187" 
d="M379 827h-221l-12 -54h221zM159 651l67 -2l-138 -649h56l149 700h-124z" />
    <glyph glyph-name="imacron" unicode="&#x12b;" horiz-adv-x="135" 
d="M314 642h-221l-12 -54h221zM38 0h57l106 501h-56z" />
    <glyph glyph-name="Ibreve" unicode="&#x12c;" horiz-adv-x="187" 
d="M159 651l67 -2l-138 -649h56l149 700h-124zM397 903h-45l-1 -7q-6 -28 -31 -48t-54 -20q-35 0 -45.5 20t-5.5 48l2 7h-45l-2 -7q-6 -31 4 -57t32.5 -41t52.5 -15q32 0 60.5 15.5t49.5 41t27 56.5z" />
    <glyph glyph-name="ibreve" unicode="&#x12d;" horiz-adv-x="135" 
d="M38 0h57l106 501h-56zM328 704h-45l-1 -7q-6 -28 -31 -48t-54 -20q-35 0 -45.5 20t-5.5 48l2 7h-45l-2 -7q-6 -31 4 -57t32.5 -41t52.5 -15q32 0 60.5 15.5t49.5 41t27 56.5z" />
    <glyph glyph-name="Iogonek" unicode="&#x12e;" horiz-adv-x="187" 
d="M139 6h-44l-2 -8l-82 -102q-21 -27 -26 -51.5t5.5 -43t34 -25.5t59.5 2q7 2 25 8t38 12.5t34.5 11.5l14.5 5l-10 39l-8 -2.5t-22 -7t-33 -10.5t-41 -14q-26 -8 -41 -1.5t-14.5 24t18.5 39.5l92 115zM159 651l67 -2l-138 -649h56l149 700h-124z" />
    <glyph glyph-name="iogonek" unicode="&#x12f;" horiz-adv-x="135" 
d="M90 9h-44l-2 -8l-82 -102q-21 -27 -26 -51.5t5.5 -43t34 -25.5t59.5 2q7 2 25 8t38 12.5t34.5 11.5l14.5 5l-10 39l-8 -2.5t-22 -7t-33 -10.5t-41 -14q-26 -8 -41 -1.5t-14.5 24t18.5 39.5l92 115zM38 0h57l106 501h-56z" />
    <glyph glyph-name="Idotaccent" unicode="&#x130;" horiz-adv-x="187" 
d="M296 860q-13 0 -25.5 -10t-14.5 -24q-3 -13 4.5 -23t21.5 -10t25.5 10t14.5 23q3 14 -4.5 24t-21.5 10zM159 651l67 -2l-138 -649h56l149 700h-124z" />
    <glyph glyph-name="dotlessi" unicode="&#x131;" horiz-adv-x="135" 
d="M38 0h57l106 501h-56z" />
    <glyph glyph-name="IJ" unicode="&#x132;" horiz-adv-x="551" 
d="M656 700h-124l-10 -49l67 -2l-98 -462q-7 -35 -24.5 -62.5t-42 -46.5t-55.5 -28.5t-66 -9.5q-34 0 -60 9.5t-42.5 28.5t-21 46t2.5 63l8 36h-55l-8 -37q-13 -64 5.5 -108t61.5 -66.5t102 -22.5q63 0 114.5 23t87 67t48.5 107zM292 700h-124l-10 -49l67 -2l-79 -374h55z
" />
    <glyph glyph-name="ij" unicode="&#x133;" horiz-adv-x="467" 
d="M226 710q-13 0 -25.5 -10t-15.5 -24q-3 -13 5 -23t22 -10q13 0 25 10t15 23q3 14 -4.5 24t-21.5 10zM563 676q3 14 -5 23.5t-22 9.5q-13 0 -25 -9.5t-15 -23.5q-3 -13 5 -23t21 -10q14 0 26 10t15 23zM467 502l-70 -328q-6 -26 -20.5 -49.5t-35.5 -41.5t-46.5 -28.5
t-52.5 -10.5q-23 0 -45 5.5t-38 18.5t-22.5 36t0.5 58l72 339h-56l-73 -343q-7 -34 -5 -61t12 -47t28.5 -33t44.5 -19.5t59 -6.5q26 0 53 6.5t52.5 19.5t46.5 33l-24 -111q-4 -19 -11.5 -35.5t-18 -29.5t-25 -23t-32.5 -17l7 -43q40 13 67 31t43.5 46t25.5 70l120 564h-56z
" />
    <glyph glyph-name="Jcircumflex" unicode="&#x134;" horiz-adv-x="207" 
d="M400 774l-102 127l-159 -128l31 -38l116 93l70 -88zM191 119l124 581h-124l-10 -49l65 -2l-113 -535q-8 -39 -25 -64.5t-38 -37.5t-43 -12l5 -37q35 0 62 12.5t46 34.5t32 50t19 59z" />
    <glyph glyph-name="jcircumflex" unicode="&#x135;" horiz-adv-x="188" 
d="M385 589l-102 127l-159 -128l31 -38l116 93l70 -88zM134 -63l120 563h-120l-11 -52h64l-109 -510q-5 -24 -16 -44.5t-28.5 -35.5t-42.5 -24l7 -44q40 12 67 31t43.5 47t25.5 69z" />
    <glyph glyph-name="Kcommaaccent" unicode="&#x136;" horiz-adv-x="459" 
d="M152 -196l14 -12q9 6 20.5 17t23 26t21 34.5t14.5 43.5q3 15 -5 24t-22 9q-13 0 -25 -9.5t-15 -23.5q-3 -12 3 -21.5t18 -11.5q-5 -16 -16 -36t-31 -40zM177 375l69 325h-56l-149 -700h56l57 269l69 82l152 -351h63l-172 398l269 302h-69z" />
    <glyph glyph-name="kcommaaccent" unicode="&#x137;" horiz-adv-x="427" 
d="M137 -191l14 -12q9 6 20.5 17t23 26t21 34.5t14.5 43.5q3 15 -5 24t-22 9q-13 0 -25 -9.5t-15 -23.5q-3 -12 3 -21.5t18 -11.5q-5 -16 -16 -36t-31 -40zM264 352l176 129l-32 38l-240 -184l78 365h-56l-149 -700h56l58 273l62 44l124 -317h67z" />
    <glyph glyph-name="kgreenlandic" unicode="&#x138;" horiz-adv-x="434" 
d="M340 118l-90 178l233 205h-75l-255 -227l47 225l-53 13l-109 -512h57l42 198l67 56l74 -143q14 -28 30 -53.5t40 -41.5t60 -16h3l10 48h-3q-13 0 -26.5 7.5t-26.5 23.5t-25 39z" />
    <glyph glyph-name="Lacute" unicode="&#x139;" horiz-adv-x="424" 
d="M315 834q8 9 11 17.5t1.5 16.5t-9.5 13q-7 5 -16 4t-17 -7t-14 -16l-61 -107h35zM41 0h361l11 50h-305l138 650h-56z" />
    <glyph glyph-name="lacute" unicode="&#x13a;" horiz-adv-x="140" 
d="M319 829q8 9 11 17.5t1.5 16.5t-9.5 13q-7 5 -16 4t-17 -7t-14 -16l-61 -107h35zM41 0h55l149 700h-55z" />
    <glyph glyph-name="Lcommaaccent" unicode="&#x13b;" horiz-adv-x="424" 
d="M135 -196l14 -12q9 6 20.5 17t23 26t21 34.5t14.5 43.5q3 15 -5 24t-22 9q-13 0 -25 -9.5t-15 -23.5q-3 -12 3 -21.5t18 -11.5q-5 -16 -16 -36t-31 -40zM41 0h361l11 50h-305l138 650h-56z" />
    <glyph glyph-name="lcommaaccent" unicode="&#x13c;" horiz-adv-x="140" 
d="M-8 -191l14 -12q9 6 20.5 17t23 26t21 34.5t14.5 43.5q3 15 -5 24t-22 9q-13 0 -25 -9.5t-15 -23.5q-3 -12 3 -21.5t18 -11.5q-5 -16 -16 -36t-31 -40zM41 0h55l149 700h-55z" />
    <glyph glyph-name="Lcaron" unicode="&#x13d;" horiz-adv-x="424" 
d="M391 867l-32 38l-115 -92l-70 87l-44 -35l102 -126zM41 0h361l11 50h-305l138 650h-56z" />
    <glyph glyph-name="lcaron" unicode="&#x13e;" horiz-adv-x="140" 
d="M381 862l-32 38l-115 -92l-70 87l-44 -35l102 -126zM41 0h55l149 700h-55z" />
    <glyph glyph-name="Ldot" unicode="&#x13f;" horiz-adv-x="424" 
d="M325 389q-13 0 -25.5 -10t-14.5 -24q-3 -13 4.5 -23t21.5 -10t25.5 10t14.5 23q3 14 -4.5 24t-21.5 10zM41 0h361l11 50h-305l138 650h-56z" />
    <glyph glyph-name="ldot" unicode="&#x140;" horiz-adv-x="193" 
d="M243 394q-13 0 -25.5 -10t-14.5 -24q-3 -13 4.5 -23t21.5 -10t25.5 10t14.5 23q3 14 -4.5 24t-21.5 10zM41 0h55l149 700h-55z" />
    <glyph glyph-name="Lslash" unicode="&#x141;" horiz-adv-x="511" 
d="M106 309l321 131l-13 50l-319 -131zM126 0h361l11 50h-305l138 650h-56z" />
    <glyph glyph-name="lslash" unicode="&#x142;" horiz-adv-x="354" 
d="M412 489l-319 -132l12 -49l319 131zM147 0h55l149 700h-55z" />
    <glyph glyph-name="Nacute" unicode="&#x143;" horiz-adv-x="577" 
d="M528 834q8 9 11 17.5t1.5 16.5t-9.5 13q-7 5 -16 4t-17 -7t-14 -16l-61 -107h35zM683 700h-56l-127 -597l-253 597h-57l-149 -700h57l127 597l253 -597h56z" />
    <glyph glyph-name="nacute" unicode="&#x144;" horiz-adv-x="443" 
d="M423 649q8 9 11 17.5t1.5 16.5t-9.5 13q-7 5 -16 4t-17 -7t-14 -16l-61 -107h35zM425 342l-73 -342h55l73 345q7 31 5 57t-12 46t-28.5 33.5t-44.5 20.5t-59 7q-25 0 -50.5 -5t-50 -14.5t-47.5 -23.5l8 34h-57l-106 -500h56l91 425q23 12 45.5 19.5t44.5 11t44 3.5
q24 0 46 -5.5t38 -19t22.5 -36t-0.5 -56.5z" />
    <glyph glyph-name="Ncommaaccent" unicode="&#x145;" horiz-adv-x="577" 
d="M211 -196l14 -12q9 6 20.5 17t23 26t21 34.5t14.5 43.5q3 15 -5 24t-22 9q-13 0 -25 -9.5t-15 -23.5q-3 -12 3 -21.5t18 -11.5q-5 -16 -16 -36t-31 -40zM683 700h-56l-127 -597l-253 597h-57l-149 -700h57l127 597l253 -597h56z" />
    <glyph glyph-name="ncommaaccent" unicode="&#x146;" horiz-adv-x="443" 
d="M145 -191l14 -12q9 6 20.5 17t23 26t21 34.5t14.5 43.5q3 15 -5 24t-22 9q-13 0 -25 -9.5t-15 -23.5q-3 -12 3 -21.5t18 -11.5q-5 -16 -16 -36t-31 -40zM425 342l-73 -342h55l73 345q7 31 5 57t-12 46t-28.5 33.5t-44.5 20.5t-59 7q-25 0 -50.5 -5t-50 -14.5t-47.5 -23.5
l8 34h-57l-106 -500h56l91 425q23 12 45.5 19.5t44.5 11t44 3.5q24 0 46 -5.5t38 -19t22.5 -36t-0.5 -56.5z" />
    <glyph glyph-name="Ncaron" unicode="&#x147;" horiz-adv-x="577" 
d="M602 867l-32 38l-115 -92l-70 87l-44 -35l102 -126zM683 700h-56l-127 -597l-253 597h-57l-149 -700h57l127 597l253 -597h56z" />
    <glyph glyph-name="ncaron" unicode="&#x148;" horiz-adv-x="443" 
d="M497 682l-32 38l-115 -92l-70 87l-44 -35l102 -126zM425 342l-73 -342h55l73 345q7 31 5 57t-12 46t-28.5 33.5t-44.5 20.5t-59 7q-25 0 -50.5 -5t-50 -14.5t-47.5 -23.5l8 34h-57l-106 -500h56l91 425q23 12 45.5 19.5t44.5 11t44 3.5q24 0 46 -5.5t38 -19t22.5 -36
t-0.5 -56.5z" />
    <glyph glyph-name="Eng" unicode="&#x14a;" horiz-adv-x="578" 
d="M522 -62l162 762h-56l-127 -596l-254 596h-57l-149 -700h57l126 597l255 -596l-13 -63q-5 -25 -17 -45t-29.5 -35t-41.5 -24l6 -43q40 12 67.5 30.5t44.5 46.5t26 70z" />
    <glyph glyph-name="eng" unicode="&#x14b;" horiz-adv-x="443" 
d="M393 -66l88 412q7 31 5 57t-12.5 46t-29 33.5t-44.5 20.5t-59 7q-24 0 -50 -5.5t-50.5 -15t-46.5 -22.5l7 33h-56l-107 -500h57l90 425q22 12 44 19.5t45 11.5t46 4q24 0 45.5 -5.5t37.5 -19t22 -36t-1 -56.5l-87 -408q-5 -24 -16.5 -45t-29.5 -36t-42 -23l7 -43
q40 12 67 30t44 46.5t26 69.5z" />
    <glyph glyph-name="Omacron" unicode="&#x14c;" horiz-adv-x="492" 
d="M532 827h-221l-12 -54h221zM142 508l-66 -317q-13 -65 5.5 -110t61 -68.5t100.5 -23.5q62 0 114.5 24t88.5 68t49 105l68 321q21 98 -23.5 153.5t-144.5 55.5q-99 0 -165.5 -53t-87.5 -155zM130 187l70 330q11 49 37 81t64 48.5t84 16.5q48 0 79.5 -16.5t44 -48.5
t1.5 -81l-70 -325q-10 -49 -38 -82.5t-68 -50.5t-86 -17q-44 0 -74 16.5t-42 48.5t-2 80z" />
    <glyph glyph-name="omacron" unicode="&#x14d;" horiz-adv-x="430" 
d="M461 642h-221l-12 -54h221zM438 185l29 131q19 92 -17 144t-125 52q-60 0 -106.5 -22.5t-77 -66t-44.5 -107.5l-29 -131q-11 -54 0.5 -98t48.5 -70.5t99 -26.5q92 0 148 54t74 141zM410 316l-30 -141q-8 -41 -28.5 -71.5t-52 -47t-73.5 -16.5q-40 0 -66 17t-35.5 47.5
t-1.5 70.5l30 141q10 48 31.5 80.5t54.5 49t77 16.5t68 -16.5t30.5 -49t-4.5 -80.5z" />
    <glyph glyph-name="Obreve" unicode="&#x14e;" horiz-adv-x="492" 
d="M142 508l-66 -317q-13 -65 5.5 -110t61 -68.5t100.5 -23.5q62 0 114.5 24t88.5 68t49 105l68 321q21 98 -23.5 153.5t-144.5 55.5q-99 0 -165.5 -53t-87.5 -155zM130 187l70 330q11 49 37 81t64 48.5t84 16.5q48 0 79.5 -16.5t44 -48.5t1.5 -81l-70 -325
q-10 -49 -38 -82.5t-68 -50.5t-86 -17q-44 0 -74 16.5t-42 48.5t-2 80zM550 903h-45l-1 -7q-6 -28 -31 -48t-54 -20q-35 0 -45.5 20t-5.5 48l2 7h-45l-2 -7q-6 -31 4 -57t32.5 -41t52.5 -15q32 0 60.5 15.5t49.5 41t27 56.5z" />
    <glyph glyph-name="obreve" unicode="&#x14f;" horiz-adv-x="430" 
d="M438 185l29 131q19 92 -17 144t-125 52q-60 0 -106.5 -22.5t-77 -66t-44.5 -107.5l-29 -131q-11 -54 0.5 -98t48.5 -70.5t99 -26.5q92 0 148 54t74 141zM410 316l-30 -141q-8 -41 -28.5 -71.5t-52 -47t-73.5 -16.5q-40 0 -66 17t-35.5 47.5t-1.5 70.5l30 141
q10 48 31.5 80.5t54.5 49t77 16.5t68 -16.5t30.5 -49t-4.5 -80.5zM480 704h-45l-1 -7q-6 -28 -31 -48t-54 -20q-35 0 -45.5 20t-5.5 48l2 7h-45l-2 -7q-6 -31 4 -57t32.5 -41t52.5 -15q32 0 60.5 15.5t49.5 41t27 56.5z" />
    <glyph glyph-name="Ohungarumlaut" unicode="&#x150;" horiz-adv-x="492" 
d="M435 830q8 8 11 17t1.5 17.5t-9.5 13.5t-17 3.5t-17 -7.5t-14 -16l-61 -106h35zM546 830q8 9 11 18t1.5 17t-9.5 13t-17 3.5t-17 -7.5t-14 -16l-59 -106h35zM142 508l-66 -317q-13 -65 5.5 -110t61 -68.5t100.5 -23.5q62 0 114.5 24t88.5 68t49 105l68 321
q21 98 -23.5 153.5t-144.5 55.5q-99 0 -165.5 -53t-87.5 -155zM130 187l70 330q11 49 37 81t64 48.5t84 16.5q48 0 79.5 -16.5t44 -48.5t1.5 -81l-70 -325q-10 -49 -38 -82.5t-68 -50.5t-86 -17q-44 0 -74 16.5t-42 48.5t-2 80z" />
    <glyph glyph-name="ohungarumlaut" unicode="&#x151;" horiz-adv-x="430" 
d="M364 645q8 8 11 17t1.5 17.5t-9.5 13.5t-17 3.5t-17 -7.5t-14 -16l-61 -106h35zM475 645q8 9 11 18t1.5 17t-9.5 13t-17 3.5t-17 -7.5t-14 -16l-59 -106h35zM438 185l29 131q19 92 -17 144t-125 52q-60 0 -106.5 -22.5t-77 -66t-44.5 -107.5l-29 -131q-11 -54 0.5 -98
t48.5 -70.5t99 -26.5q92 0 148 54t74 141zM410 316l-30 -141q-8 -41 -28.5 -71.5t-52 -47t-73.5 -16.5q-40 0 -66 17t-35.5 47.5t-1.5 70.5l30 141q10 48 31.5 80.5t54.5 49t77 16.5t68 -16.5t30.5 -49t-4.5 -80.5z" />
    <glyph glyph-name="OE" unicode="&#x152;" horiz-adv-x="764" 
d="M403 0h332l11 50h-276l65 307h176l27 55h-191l50 236h278l11 52h-334zM142 508l-66 -317q-13 -65 5.5 -110t61 -68.5t100.5 -23.5q62 0 114.5 24t88.5 68t49 105l68 321q21 98 -23.5 153.5t-144.5 55.5q-99 0 -165.5 -53t-87.5 -155zM130 187l70 330q11 49 37 81t64 48.5
t84 16.5q48 0 79.5 -16.5t44 -48.5t1.5 -81l-70 -325q-10 -49 -38 -82.5t-68 -50.5t-86 -17q-44 0 -74 16.5t-42 48.5t-2 80z" />
    <glyph glyph-name="oe" unicode="&#x153;" horiz-adv-x="741" 
d="M438 185l29 131q19 92 -17 144t-125 52q-60 0 -106.5 -22.5t-77 -66t-44.5 -107.5l-29 -131q-11 -54 0.5 -98t48.5 -70.5t99 -26.5q92 0 148 54t74 141zM410 316l-30 -141q-8 -41 -28.5 -71.5t-52 -47t-73.5 -16.5q-40 0 -66 17t-35.5 47.5t-1.5 70.5l30 141
q10 48 31.5 80.5t54.5 49t77 16.5t68 -16.5t30.5 -49t-4.5 -80.5zM432 134l13 62l308 16l28 130q12 55 -4 92t-53.5 56.5t-92.5 19.5q-54 0 -97.5 -19.5t-72.5 -57.5t-41 -94l-41 -197q-9 -42 -2.5 -71.5t25 -47.5t48 -26.5t67.5 -8.5t84.5 12.5t89.5 34.5l-13 43
q-43 -19 -80.5 -30.5t-75.5 -11.5q-24 0 -43 5.5t-31.5 17t-16.5 30.5t1 45zM726 349l-18 -87l-251 -11l18 87q10 40 30.5 67.5t52 42.5t71.5 15q35 0 59.5 -14t34.5 -39.5t3 -60.5z" />
    <glyph glyph-name="Racute" unicode="&#x154;" horiz-adv-x="510" 
d="M495 834q8 9 11 17.5t1.5 16.5t-9.5 13q-7 5 -16 4t-17 -7t-14 -16l-61 -107h35zM426 700h-236l-149 -700h56l52 245h180q10 0 19.5 0.5t19 1.5t17.5 3l38 -250h56l-40 265q35 15 61.5 42.5t45 68.5t30.5 97q14 65 10 108.5t-24 69.5t-54.5 37.5t-81.5 11.5zM346 300
h-185l74 347h184q30 0 53.5 -7.5t38 -26t17.5 -52.5t-8 -88q-12 -57 -30 -91.5t-41 -52t-49 -23.5t-54 -6z" />
    <glyph glyph-name="racute" unicode="&#x155;" horiz-adv-x="333" 
d="M277 649q8 9 11 17.5t1.5 16.5t-9.5 13q-7 5 -16 4t-17 -7t-14 -16l-61 -107h35zM404 460l14 48l-13 2.5t-32 0.5q-54 -2 -96 -14t-83 -30l7 33h-57l-106 -500h56l87 409q16 10 38 19t47 16t50 12t46 5q17 2 29.5 0.5z" />
    <glyph glyph-name="Rcommaaccent" unicode="&#x156;" horiz-adv-x="510" 
d="M178 -196l14 -12q9 6 20.5 17t23 26t21 34.5t14.5 43.5q3 15 -5 24t-22 9q-13 0 -25 -9.5t-15 -23.5q-3 -12 3 -21.5t18 -11.5q-5 -16 -16 -36t-31 -40zM426 700h-236l-149 -700h56l52 245h180q10 0 19.5 0.5t19 1.5t17.5 3l38 -250h56l-40 265q35 15 61.5 42.5t45 68.5
t30.5 97q14 65 10 108.5t-24 69.5t-54.5 37.5t-81.5 11.5zM346 300h-185l74 347h184q30 0 53.5 -7.5t38 -26t17.5 -52.5t-8 -88q-12 -57 -30 -91.5t-41 -52t-49 -23.5t-54 -6z" />
    <glyph glyph-name="rcommaaccent" unicode="&#x157;" horiz-adv-x="333" 
d="M-10 -191l14 -12q9 6 20.5 17t23 26t21 34.5t14.5 43.5q3 15 -5 24t-22 9q-13 0 -25 -9.5t-15 -23.5q-3 -12 3 -21.5t18 -11.5q-5 -16 -16 -36t-31 -40zM404 460l14 48l-13 2.5t-32 0.5q-54 -2 -96 -14t-83 -30l7 33h-57l-106 -500h56l87 409q16 10 38 19t47 16t50 12
t46 5q17 2 29.5 0.5z" />
    <glyph glyph-name="Rcaron" unicode="&#x158;" horiz-adv-x="510" 
d="M569 867l-32 38l-115 -92l-70 87l-44 -35l102 -126zM426 700h-236l-149 -700h56l52 245h180q10 0 19.5 0.5t19 1.5t17.5 3l38 -250h56l-40 265q35 15 61.5 42.5t45 68.5t30.5 97q14 65 10 108.5t-24 69.5t-54.5 37.5t-81.5 11.5zM346 300h-185l74 347h184q30 0 53.5 -7.5
t38 -26t17.5 -52.5t-8 -88q-12 -57 -30 -91.5t-41 -52t-49 -23.5t-54 -6z" />
    <glyph glyph-name="rcaron" unicode="&#x159;" horiz-adv-x="333" 
d="M442 682l-32 38l-115 -92l-70 87l-44 -35l102 -126zM404 460l14 48l-13 2.5t-32 0.5q-54 -2 -96 -14t-83 -30l7 33h-57l-106 -500h56l87 409q16 10 38 19t47 16t50 12t46 5q17 2 29.5 0.5z" />
    <glyph glyph-name="Sacute" unicode="&#x15a;" horiz-adv-x="530" 
d="M505 834q8 9 11 17.5t1.5 16.5t-9.5 13q-7 5 -16 4t-17 -7t-14 -16l-61 -107h35zM556 623l24 49q-21 12 -44.5 20.5t-49 12.5t-51.5 4q-39 0 -80 -8t-78.5 -26t-64 -49t-36.5 -77q-9 -43 0.5 -73.5t32 -53t52.5 -39t63 -31t63.5 -29.5t54 -33.5t34 -43t3.5 -58.5
q-8 -40 -29 -68t-50 -45t-63 -25t-69 -8q-34 0 -70 9.5t-66 28.5t-45 47l-42 -35q23 -35 55.5 -58.5t73 -34.5t86.5 -11q45 0 89.5 11t83 34.5t66.5 59.5t39 87q10 47 1 80t-31.5 57t-52.5 41t-63.5 30.5t-64.5 27.5t-54.5 31.5t-34 42t-3.5 59.5q7 32 27.5 52.5t48.5 32.5
t58 16.5t55 4.5q24 0 47 -3.5t44.5 -10.5t40.5 -18z" />
    <glyph glyph-name="sacute" unicode="&#x15b;" horiz-adv-x="417" 
d="M410 649q8 9 11 17.5t1.5 16.5t-9.5 13q-7 5 -16 4t-17 -7t-14 -16l-61 -107h35zM416 439l31 37q-21 15 -44 22.5t-45.5 10t-43.5 2.5q-32 0 -65 -9t-60 -27t-44 -45t-17 -62q1 -31 13.5 -53t33 -37.5t45 -27t49 -21t45 -20.5t33.5 -26t13 -36q0 -29 -13 -50.5t-34.5 -35
t-45.5 -20.5t-46 -7q-31 0 -57 7.5t-47 22t-39 36.5l-37 -32q26 -40 71.5 -63t99.5 -23q35 0 70.5 10.5t65.5 30.5t48.5 50.5t19.5 70.5q0 31 -12.5 52.5t-33 36.5t-45.5 26.5t-50 21.5t-46 22t-33.5 27.5t-12.5 38.5q0 24 12 41.5t31.5 29t42 17.5t43.5 7q19 1 38 -1.5
t36.5 -8.5t29.5 -15z" />
    <glyph glyph-name="Scircumflex" unicode="&#x15c;" horiz-adv-x="530" 
d="M561 774l-102 127l-159 -128l31 -38l116 93l70 -88zM556 623l24 49q-21 12 -44.5 20.5t-49 12.5t-51.5 4q-39 0 -80 -8t-78.5 -26t-64 -49t-36.5 -77q-9 -43 0.5 -73.5t32 -53t52.5 -39t63 -31t63.5 -29.5t54 -33.5t34 -43t3.5 -58.5q-8 -40 -29 -68t-50 -45t-63 -25
t-69 -8q-34 0 -70 9.5t-66 28.5t-45 47l-42 -35q23 -35 55.5 -58.5t73 -34.5t86.5 -11q45 0 89.5 11t83 34.5t66.5 59.5t39 87q10 47 1 80t-31.5 57t-52.5 41t-63.5 30.5t-64.5 27.5t-54.5 31.5t-34 42t-3.5 59.5q7 32 27.5 52.5t48.5 32.5t58 16.5t55 4.5q24 0 47 -3.5
t44.5 -10.5t40.5 -18z" />
    <glyph glyph-name="scircumflex" unicode="&#x15d;" horiz-adv-x="417" 
d="M466 589l-102 127l-159 -128l31 -38l116 93l70 -88zM416 439l31 37q-21 15 -44 22.5t-45.5 10t-43.5 2.5q-32 0 -65 -9t-60 -27t-44 -45t-17 -62q1 -31 13.5 -53t33 -37.5t45 -27t49 -21t45 -20.5t33.5 -26t13 -36q0 -29 -13 -50.5t-34.5 -35t-45.5 -20.5t-46 -7
q-31 0 -57 7.5t-47 22t-39 36.5l-37 -32q26 -40 71.5 -63t99.5 -23q35 0 70.5 10.5t65.5 30.5t48.5 50.5t19.5 70.5q0 31 -12.5 52.5t-33 36.5t-45.5 26.5t-50 21.5t-46 22t-33.5 27.5t-12.5 38.5q0 24 12 41.5t31.5 29t42 17.5t43.5 7q19 1 38 -1.5t36.5 -8.5t29.5 -15z
" />
    <glyph glyph-name="Scedilla" unicode="&#x15e;" horiz-adv-x="530" 
d="M305 10h-51l-54 -69l7 -29q14 2 27 3.5t25.5 2.5t22.5 1q27 1 41.5 -7.5t7.5 -34.5q-4 -17 -16 -28.5t-29 -17t-37 -5.5q-13 0 -26.5 1.5t-27 4t-27.5 5.5l-22 -49q1 0 16.5 -3t38 -6t44.5 -3q44 0 85 24.5t51 74.5q8 37 -13 66t-72 27q-7 0 -14 -0.5t-13 -1.5zM556 623
l24 49q-21 12 -44.5 20.5t-49 12.5t-51.5 4q-39 0 -80 -8t-78.5 -26t-64 -49t-36.5 -77q-9 -43 0.5 -73.5t32 -53t52.5 -39t63 -31t63.5 -29.5t54 -33.5t34 -43t3.5 -58.5q-8 -40 -29 -68t-50 -45t-63 -25t-69 -8q-34 0 -70 9.5t-66 28.5t-45 47l-42 -35q23 -35 55.5 -58.5
t73 -34.5t86.5 -11q45 0 89.5 11t83 34.5t66.5 59.5t39 87q10 47 1 80t-31.5 57t-52.5 41t-63.5 30.5t-64.5 27.5t-54.5 31.5t-34 42t-3.5 59.5q7 32 27.5 52.5t48.5 32.5t58 16.5t55 4.5q24 0 47 -3.5t44.5 -10.5t40.5 -18z" />
    <glyph glyph-name="scedilla" unicode="&#x15f;" horiz-adv-x="417" 
d="M257 10h-51l-54 -69l7 -29q14 2 27 3.5t25.5 2.5t22.5 1q27 1 41.5 -7.5t7.5 -34.5q-4 -17 -16 -28.5t-29 -17t-37 -5.5q-13 0 -26.5 1.5t-27 4t-27.5 5.5l-22 -49q1 0 16.5 -3t38 -6t44.5 -3q44 0 85 24.5t51 74.5q8 37 -13 66t-72 27q-7 0 -14 -0.5t-13 -1.5zM416 439
l31 37q-21 15 -44 22.5t-45.5 10t-43.5 2.5q-32 0 -65 -9t-60 -27t-44 -45t-17 -62q1 -31 13.5 -53t33 -37.5t45 -27t49 -21t45 -20.5t33.5 -26t13 -36q0 -29 -13 -50.5t-34.5 -35t-45.5 -20.5t-46 -7q-31 0 -57 7.5t-47 22t-39 36.5l-37 -32q26 -40 71.5 -63t99.5 -23
q35 0 70.5 10.5t65.5 30.5t48.5 50.5t19.5 70.5q0 31 -12.5 52.5t-33 36.5t-45.5 26.5t-50 21.5t-46 22t-33.5 27.5t-12.5 38.5q0 24 12 41.5t31.5 29t42 17.5t43.5 7q19 1 38 -1.5t36.5 -8.5t29.5 -15z" />
    <glyph glyph-name="Scaron" unicode="&#x160;" horiz-adv-x="530" 
d="M579 867l-32 38l-115 -92l-70 87l-44 -35l102 -126zM556 623l24 49q-21 12 -44.5 20.5t-49 12.5t-51.5 4q-39 0 -80 -8t-78.5 -26t-64 -49t-36.5 -77q-9 -43 0.5 -73.5t32 -53t52.5 -39t63 -31t63.5 -29.5t54 -33.5t34 -43t3.5 -58.5q-8 -40 -29 -68t-50 -45t-63 -25
t-69 -8q-34 0 -70 9.5t-66 28.5t-45 47l-42 -35q23 -35 55.5 -58.5t73 -34.5t86.5 -11q45 0 89.5 11t83 34.5t66.5 59.5t39 87q10 47 1 80t-31.5 57t-52.5 41t-63.5 30.5t-64.5 27.5t-54.5 31.5t-34 42t-3.5 59.5q7 32 27.5 52.5t48.5 32.5t58 16.5t55 4.5q24 0 47 -3.5
t44.5 -10.5t40.5 -18z" />
    <glyph glyph-name="scaron" unicode="&#x161;" horiz-adv-x="417" 
d="M484 682l-32 38l-115 -92l-70 87l-44 -35l102 -126zM416 439l31 37q-21 15 -44 22.5t-45.5 10t-43.5 2.5q-32 0 -65 -9t-60 -27t-44 -45t-17 -62q1 -31 13.5 -53t33 -37.5t45 -27t49 -21t45 -20.5t33.5 -26t13 -36q0 -29 -13 -50.5t-34.5 -35t-45.5 -20.5t-46 -7
q-31 0 -57 7.5t-47 22t-39 36.5l-37 -32q26 -40 71.5 -63t99.5 -23q35 0 70.5 10.5t65.5 30.5t48.5 50.5t19.5 70.5q0 31 -12.5 52.5t-33 36.5t-45.5 26.5t-50 21.5t-46 22t-33.5 27.5t-12.5 38.5q0 24 12 41.5t31.5 29t42 17.5t43.5 7q19 1 38 -1.5t36.5 -8.5t29.5 -15z
" />
    <glyph glyph-name="Tcedilla" unicode="&#x162;" horiz-adv-x="417" 
d="M239 11h-51l-54 -69l7 -29q14 2 27 3.5t25.5 2.5t22.5 1q27 1 41.5 -7.5t7.5 -34.5q-4 -17 -16 -28.5t-29 -17t-37 -5.5q-13 0 -26.5 1.5t-27 4t-27.5 5.5l-22 -49q1 0 16.5 -3t38 -6t44.5 -3q44 0 85 24.5t51 74.5q8 37 -13 66t-72 27q-7 0 -14 -0.5t-13 -1.5zM371 650
h176l11 50h-402l-11 -50h171l-139 -650h56z" />
    <glyph glyph-name="tcedilla" unicode="&#x163;" horiz-adv-x="241" 
d="M158 20h-51l-54 -69l7 -29q14 2 27 3.5t25.5 2.5t22.5 1q27 1 41.5 -7.5t7.5 -34.5q-4 -17 -16 -28.5t-29 -17t-37 -5.5q-13 0 -26.5 1.5t-27 4t-27.5 5.5l-22 -49q1 0 16.5 -3t38 -6t44.5 -3q44 0 85 24.5t51 74.5q8 37 -13 66t-72 27q-7 0 -14 -0.5t-13 -1.5zM123 132
l68 316h96l35 52h-120l42 200h-56l-121 -568q-12 -58 5.5 -93t69.5 -52l26 43q-21 8 -32.5 21.5t-14.5 34t2 46.5z" />
    <glyph glyph-name="Tcaron" unicode="&#x164;" horiz-adv-x="417" 
d="M523 867l-32 38l-115 -92l-70 87l-44 -35l102 -126zM371 650h176l11 50h-402l-11 -50h171l-139 -650h56z" />
    <glyph glyph-name="tcaron" unicode="&#x165;" horiz-adv-x="241" 
d="M380 862l-32 38l-115 -92l-70 87l-44 -35l102 -126zM123 132l68 316h96l35 52h-120l42 200h-56l-121 -568q-12 -58 5.5 -93t69.5 -52l26 43q-21 8 -32.5 21.5t-14.5 34t2 46.5z" />
    <glyph glyph-name="Tbar" unicode="&#x166;" horiz-adv-x="417" 
d="M89 379l-11 -53h400l11 53h-400zM371 650h176l11 50h-402l-11 -50h171l-139 -650h56z" />
    <glyph glyph-name="tbar" unicode="&#x167;" horiz-adv-x="271" 
d="M290 303l12 53h-225l-12 -53h225zM152 132l68 316h96l35 52h-120l42 200h-56l-121 -568q-12 -58 5.5 -93t69.5 -52l26 43q-21 8 -32.5 21.5t-14.5 34t2 46.5z" />
    <glyph glyph-name="Utilde" unicode="&#x168;" horiz-adv-x="498" 
d="M506 869l-4 -18q-2 -11 -8.5 -21.5t-17.5 -10.5q-6 0 -15.5 6.5t-15.5 11.5q-9 7 -18 14.5t-20 11.5q-16 8 -36 7t-37 -13q-12 -8 -20 -19.5t-13 -23.5t-7 -24l-3 -18h50l3 18q1 5 4 14.5t8 13.5q8 5 16.5 2t14.5 -8q7 -5 14.5 -11t15.5 -11q11 -7 23 -14t28 -7
q35 0 56 25.5t28 56.5l4 18h-50zM497 186l109 514h-55l-109 -513q-10 -47 -36 -79.5t-64 -49t-85 -16.5q-46 0 -77.5 16.5t-44 48.5t-2.5 80l109 513h-55l-109 -514q-14 -64 3 -108t60 -66.5t105 -22.5q64 0 115.5 23t87 67t48.5 107z" />
    <glyph glyph-name="utilde" unicode="&#x169;" horiz-adv-x="445" 
d="M439 674l-4 -18q-2 -11 -8.5 -21.5t-17.5 -10.5q-6 0 -15.5 6.5t-15.5 11.5q-9 7 -18 14.5t-20 11.5q-16 8 -36 7t-37 -13q-12 -8 -20 -19.5t-13 -23.5t-7 -24l-3 -18h50l3 18q1 5 4 14.5t8 13.5q8 5 16.5 2t14.5 -8q7 -5 14.5 -11t15.5 -11q11 -7 23 -14t28 -7
q35 0 56 25.5t28 56.5l4 18h-50zM359 48l-10 -48h56l107 501h-56l-70 -328q-6 -27 -20.5 -49t-36 -39t-46.5 -27.5t-52 -13.5q-41 -3 -68 7t-37 36.5t0 72.5l72 341h-56l-74 -344q-7 -34 -4.5 -61t13.5 -47t30 -33t44.5 -19.5t56.5 -6.5q26 0 53 6.5t52.5 19.5t45.5 32z" />
    <glyph glyph-name="Umacron" unicode="&#x16a;" horiz-adv-x="498" 
d="M535 827h-221l-12 -54h221zM497 186l109 514h-55l-109 -513q-10 -47 -36 -79.5t-64 -49t-85 -16.5q-46 0 -77.5 16.5t-44 48.5t-2.5 80l109 513h-55l-109 -514q-14 -64 3 -108t60 -66.5t105 -22.5q64 0 115.5 23t87 67t48.5 107z" />
    <glyph glyph-name="umacron" unicode="&#x16b;" horiz-adv-x="445" 
d="M469 642h-221l-12 -54h221zM359 48l-10 -48h56l107 501h-56l-70 -328q-6 -27 -20.5 -49t-36 -39t-46.5 -27.5t-52 -13.5q-41 -3 -68 7t-37 36.5t0 72.5l72 341h-56l-74 -344q-7 -34 -4.5 -61t13.5 -47t30 -33t44.5 -19.5t56.5 -6.5q26 0 53 6.5t52.5 19.5t45.5 32z" />
    <glyph glyph-name="Ubreve" unicode="&#x16c;" horiz-adv-x="498" 
d="M542 854h-45l-1 -7q-6 -28 -31 -48t-54 -20q-35 0 -45.5 20t-5.5 48l2 7h-45l-2 -7q-6 -31 4 -57t32.5 -41t52.5 -15q32 0 60.5 15.5t49.5 41t27 56.5zM497 186l109 514h-55l-109 -513q-10 -47 -36 -79.5t-64 -49t-85 -16.5q-46 0 -77.5 16.5t-44 48.5t-2.5 80l109 513
h-55l-109 -514q-14 -64 3 -108t60 -66.5t105 -22.5q64 0 115.5 23t87 67t48.5 107z" />
    <glyph glyph-name="ubreve" unicode="&#x16d;" horiz-adv-x="445" 
d="M477 669h-45l-1 -7q-6 -28 -31 -48t-54 -20q-35 0 -45.5 20t-5.5 48l2 7h-45l-2 -7q-6 -31 4 -57t32.5 -41t52.5 -15q32 0 60.5 15.5t49.5 41t27 56.5zM359 48l-10 -48h56l107 501h-56l-70 -328q-6 -27 -20.5 -49t-36 -39t-46.5 -27.5t-52 -13.5q-41 -3 -68 7t-37 36.5
t0 72.5l72 341h-56l-74 -344q-7 -34 -4.5 -61t13.5 -47t30 -33t44.5 -19.5t56.5 -6.5q26 0 53 6.5t52.5 19.5t45.5 32z" />
    <glyph glyph-name="Uring" unicode="&#x16e;" horiz-adv-x="498" 
d="M446 927q-31 0 -60.5 -15t-50.5 -40.5t-28 -57.5t3 -58t33 -41t54 -15t60 15t50 41t28 58t-3.5 57.5t-32.5 40.5t-53 15zM436 883q32 0 48 -24q11 -19 7 -45q-3 -13 -10 -25t-17 -22q-12 -10 -26.5 -16.5t-31.5 -6.5q-16 0 -28.5 6.5t-19.5 18.5q-6 9 -8 20.5t1 24.5
q3 15 11.5 28t20.5 22q11 9 25 14t28 5zM497 186l109 514h-55l-109 -513q-10 -47 -36 -79.5t-64 -49t-85 -16.5q-46 0 -77.5 16.5t-44 48.5t-2.5 80l109 513h-55l-109 -514q-14 -64 3 -108t60 -66.5t105 -22.5q64 0 115.5 23t87 67t48.5 107z" />
    <glyph glyph-name="uring" unicode="&#x16f;" horiz-adv-x="445" 
d="M383 750q-31 0 -60.5 -15t-50.5 -40.5t-28 -57.5t3 -58t33 -41t54 -15t60 15t50 41t28 58t-3.5 57.5t-32.5 40.5t-53 15zM373 706q32 0 48 -24q11 -19 7 -45q-3 -13 -10 -25t-17 -22q-12 -10 -26.5 -16.5t-31.5 -6.5q-16 0 -28.5 6.5t-19.5 18.5q-6 9 -8 20.5t1 24.5
q3 15 11.5 28t20.5 22q11 9 25 14t28 5zM359 48l-10 -48h56l107 501h-56l-70 -328q-6 -27 -20.5 -49t-36 -39t-46.5 -27.5t-52 -13.5q-41 -3 -68 7t-37 36.5t0 72.5l72 341h-56l-74 -344q-7 -34 -4.5 -61t13.5 -47t30 -33t44.5 -19.5t56.5 -6.5q26 0 53 6.5t52.5 19.5
t45.5 32z" />
    <glyph glyph-name="Uhungarumlaut" unicode="&#x170;" horiz-adv-x="498" 
d="M438 830q8 8 11 17t1.5 17.5t-9.5 13.5t-17 3.5t-17 -7.5t-14 -16l-61 -106h35zM549 830q8 9 11 18t1.5 17t-9.5 13t-17 3.5t-17 -7.5t-14 -16l-59 -106h35zM497 186l109 514h-55l-109 -513q-10 -47 -36 -79.5t-64 -49t-85 -16.5q-46 0 -77.5 16.5t-44 48.5t-2.5 80
l109 513h-55l-109 -514q-14 -64 3 -108t60 -66.5t105 -22.5q64 0 115.5 23t87 67t48.5 107z" />
    <glyph glyph-name="uhungarumlaut" unicode="&#x171;" horiz-adv-x="445" 
d="M372 645q8 8 11 17t1.5 17.5t-9.5 13.5t-17 3.5t-17 -7.5t-14 -16l-61 -106h35zM483 645q8 9 11 18t1.5 17t-9.5 13t-17 3.5t-17 -7.5t-14 -16l-59 -106h35zM359 48l-10 -48h56l107 501h-56l-70 -328q-6 -27 -20.5 -49t-36 -39t-46.5 -27.5t-52 -13.5q-41 -3 -68 7
t-37 36.5t0 72.5l72 341h-56l-74 -344q-7 -34 -4.5 -61t13.5 -47t30 -33t44.5 -19.5t56.5 -6.5q26 0 53 6.5t52.5 19.5t45.5 32z" />
    <glyph glyph-name="Uogonek" unicode="&#x172;" horiz-adv-x="498" 
d="M298 6h-44l-2 -8l-82 -102q-21 -27 -26 -51.5t5.5 -43t34 -25.5t59.5 2q7 2 25 8t38 12.5t34.5 11.5l14.5 5l-10 39l-8 -2.5t-22 -7t-33 -10.5t-41 -14q-26 -8 -41 -1.5t-14.5 24t18.5 39.5l92 115zM497 186l109 514h-55l-109 -513q-10 -47 -36 -79.5t-64 -49t-85 -16.5
q-46 0 -77.5 16.5t-44 48.5t-2.5 80l109 513h-55l-109 -514q-14 -64 3 -108t60 -66.5t105 -22.5q64 0 115.5 23t87 67t48.5 107z" />
    <glyph glyph-name="uogonek" unicode="&#x173;" horiz-adv-x="445" 
d="M399 11h-44l-2 -8l-82 -102q-21 -27 -26 -51.5t5.5 -43t34 -25.5t59.5 2q7 2 25 8t38 12.5t34.5 11.5l14.5 5l-10 39l-8 -2.5t-22 -7t-33 -10.5t-41 -14q-26 -8 -41 -1.5t-14.5 24t18.5 39.5l92 115zM359 48l-10 -48h56l107 501h-56l-70 -328q-6 -27 -20.5 -49t-36 -39
t-46.5 -27.5t-52 -13.5q-41 -3 -68 7t-37 36.5t0 72.5l72 341h-56l-74 -344q-7 -34 -4.5 -61t13.5 -47t30 -33t44.5 -19.5t56.5 -6.5q26 0 53 6.5t52.5 19.5t45.5 32z" />
    <glyph glyph-name="Wcircumflex" unicode="&#x174;" horiz-adv-x="733" 
d="M663 774l-102 127l-159 -128l31 -38l116 93l70 -88zM536 700h-70l-235 -631v631h-56v-700h83l222 576v-576h70l312 700h-60l-266 -607v607z" />
    <glyph glyph-name="wcircumflex" unicode="&#x175;" horiz-adv-x="708" 
d="M611 589l-102 127l-159 -128l31 -38l116 93l70 -88zM487 499h-57l-206 -442l-40 442h-59l46 -499h78l188 405l14 -405h77l262 499h-59l-228 -442z" />
    <glyph glyph-name="Ycircumflex" unicode="&#x176;" horiz-adv-x="515" 
d="M553 774l-102 127l-159 -128l31 -38l116 93l70 -88zM507 156l115 544h-56l-58 -277q-7 -36 -28 -60t-50.5 -37.5t-62 -19.5t-64.5 -6q-55 0 -84.5 17.5t-37 51.5t2.5 84l51 247h-56l-52 -244q-14 -65 -0.5 -112t55.5 -72.5t115 -25.5q34 0 67 6t63.5 19.5t55.5 34.5
l-33 -153q-6 -25 -14 -45t-18.5 -35.5t-24.5 -26t-31 -16.5l6 -37q51 7 87 48.5t52 114.5z" />
    <glyph glyph-name="ycircumflex" unicode="&#x177;" horiz-adv-x="469" 
d="M491 589l-102 127l-159 -128l31 -38l116 93l70 -88zM538 470l-11 42q-25 -8 -44 -23.5t-30.5 -36t-16.5 -43.5l-50 -235q-6 -26 -20.5 -49.5t-35.5 -41.5t-46.5 -28.5t-52.5 -10.5q-23 0 -45 5.5t-38 18.5t-22.5 36t0.5 58l72 339h-56l-73 -343q-9 -43 -4 -74.5t23 -52
t48.5 -30.5t71.5 -10q26 0 53 6.5t52.5 19.5t46.5 33l-24 -111q-4 -19 -11.5 -35.5t-18 -29.5t-25 -23t-32.5 -17l7 -43q40 13 67 31t43.5 46t25.5 70l100 470q7 32 19 44t27 18z" />
    <glyph glyph-name="Ydieresis" unicode="&#x178;" horiz-adv-x="515" 
d="M359 852q-13 0 -25 -10t-15 -24q-3 -13 5 -23t21 -10q14 0 26 10t15 23q3 14 -5 24t-22 10zM516 852q-13 0 -25.5 -10t-15.5 -24t5 -23.5t21 -9.5q14 0 26 9.5t15 23.5t-4.5 24t-21.5 10zM507 156l115 544h-56l-58 -277q-7 -36 -28 -60t-50.5 -37.5t-62 -19.5t-64.5 -6
q-55 0 -84.5 17.5t-37 51.5t2.5 84l51 247h-56l-52 -244q-14 -65 -0.5 -112t55.5 -72.5t115 -25.5q34 0 67 6t63.5 19.5t55.5 34.5l-33 -153q-6 -25 -14 -45t-18.5 -35.5t-24.5 -26t-31 -16.5l6 -37q51 7 87 48.5t52 114.5z" />
    <glyph glyph-name="Zacute" unicode="&#x179;" horiz-adv-x="547" 
d="M513 834q8 9 11 17.5t1.5 16.5t-9.5 13q-7 5 -16 4t-17 -7t-14 -16l-61 -107h35zM189 700l-11 -49l398 -1l-22 -24l-515 -577l-11 -49h487l11 49l-417 1l21 23l516 578l11 49h-468z" />
    <glyph glyph-name="zacute" unicode="&#x17a;" horiz-adv-x="428" 
d="M415 649q8 9 11 17.5t1.5 16.5t-9.5 13q-7 5 -16 4t-17 -7t-14 -16l-61 -107h35zM485 501h-338l-11 -49l266 -1l-360 -401l-11 -50h368l11 50l-298 1l362 401z" />
    <glyph glyph-name="Zdotaccent" unicode="&#x17b;" horiz-adv-x="547" 
d="M456 860q-13 0 -25.5 -10t-14.5 -24q-3 -13 4.5 -23t21.5 -10t25.5 10t14.5 23q3 14 -4.5 24t-21.5 10zM189 700l-11 -49l398 -1l-22 -24l-515 -577l-11 -49h487l11 49l-417 1l21 23l516 578l11 49h-468z" />
    <glyph glyph-name="zdotaccent" unicode="&#x17c;" horiz-adv-x="428" 
d="M359 685q-13 0 -25.5 -10t-14.5 -24q-3 -13 4.5 -23t21.5 -10t25.5 10t14.5 23q3 14 -4.5 24t-21.5 10zM485 501h-338l-11 -49l266 -1l-360 -401l-11 -50h368l11 50l-298 1l362 401z" />
    <glyph glyph-name="Zcaron" unicode="&#x17d;" horiz-adv-x="547" 
d="M587 867l-32 38l-115 -92l-70 87l-44 -35l102 -126zM189 700l-11 -49l398 -1l-22 -24l-515 -577l-11 -49h487l11 49l-417 1l21 23l516 578l11 49h-468z" />
    <glyph glyph-name="zcaron" unicode="&#x17e;" horiz-adv-x="428" 
d="M489 682l-32 38l-115 -92l-70 87l-44 -35l102 -126zM485 501h-338l-11 -49l266 -1l-360 -401l-11 -50h368l11 50l-298 1l362 401z" />
    <glyph glyph-name="Scommaaccent" unicode="&#x218;" horiz-adv-x="530" 
d="M188 -196l14 -12q9 6 20.5 17t23 26t21 34.5t14.5 43.5q3 15 -5 24t-22 9q-13 0 -25 -9.5t-15 -23.5q-3 -12 3 -21.5t18 -11.5q-5 -16 -16 -36t-31 -40zM556 623l24 49q-21 12 -44.5 20.5t-49 12.5t-51.5 4q-39 0 -80 -8t-78.5 -26t-64 -49t-36.5 -77q-9 -43 0.5 -73.5
t32 -53t52.5 -39t63 -31t63.5 -29.5t54 -33.5t34 -43t3.5 -58.5q-8 -40 -29 -68t-50 -45t-63 -25t-69 -8q-34 0 -70 9.5t-66 28.5t-45 47l-42 -35q23 -35 55.5 -58.5t73 -34.5t86.5 -11q45 0 89.5 11t83 34.5t66.5 59.5t39 87q10 47 1 80t-31.5 57t-52.5 41t-63.5 30.5
t-64.5 27.5t-54.5 31.5t-34 42t-3.5 59.5q7 32 27.5 52.5t48.5 32.5t58 16.5t55 4.5q24 0 47 -3.5t44.5 -10.5t40.5 -18z" />
    <glyph glyph-name="scommaaccent" unicode="&#x219;" horiz-adv-x="417" 
d="M132 -191l14 -12q9 6 20.5 17t23 26t21 34.5t14.5 43.5q3 15 -5 24t-22 9q-13 0 -25 -9.5t-15 -23.5q-3 -12 3 -21.5t18 -11.5q-5 -16 -16 -36t-31 -40zM416 439l31 37q-21 15 -44 22.5t-45.5 10t-43.5 2.5q-32 0 -65 -9t-60 -27t-44 -45t-17 -62q1 -31 13.5 -53
t33 -37.5t45 -27t49 -21t45 -20.5t33.5 -26t13 -36q0 -29 -13 -50.5t-34.5 -35t-45.5 -20.5t-46 -7q-31 0 -57 7.5t-47 22t-39 36.5l-37 -32q26 -40 71.5 -63t99.5 -23q35 0 70.5 10.5t65.5 30.5t48.5 50.5t19.5 70.5q0 31 -12.5 52.5t-33 36.5t-45.5 26.5t-50 21.5t-46 22
t-33.5 27.5t-12.5 38.5q0 24 12 41.5t31.5 29t42 17.5t43.5 7q19 1 38 -1.5t36.5 -8.5t29.5 -15z" />
    <glyph glyph-name="uni021A" unicode="&#x21a;" horiz-adv-x="417" 
d="M132 -196l14 -12q9 6 20.5 17t23 26t21 34.5t14.5 43.5q3 15 -5 24t-22 9q-13 0 -25 -9.5t-15 -23.5q-3 -12 3 -21.5t18 -11.5q-5 -16 -16 -36t-31 -40zM371 650h176l11 50h-402l-11 -50h171l-139 -650h56z" />
    <glyph glyph-name="uni021B" unicode="&#x21b;" horiz-adv-x="241" 
d="M47 -192l14 -12q9 6 20.5 17t23 26t21 34.5t14.5 43.5q3 15 -5 24t-22 9q-13 0 -25 -9.5t-15 -23.5q-3 -12 3 -21.5t18 -11.5q-5 -16 -16 -36t-31 -40zM123 132l68 316h96l35 52h-120l42 200h-56l-121 -568q-12 -58 5.5 -93t69.5 -52l26 43q-21 8 -32.5 21.5t-14.5 34
t2 46.5z" />
    <glyph glyph-name="dotlessj" unicode="&#x237;" horiz-adv-x="188" 
d="M134 -63l120 563h-120l-11 -52h64l-109 -510q-5 -24 -16 -44.5t-28.5 -35.5t-42.5 -24l7 -44q40 12 67 31t43.5 47t25.5 69z" />
    <glyph glyph-name="circumflex" unicode="&#x2c6;" 
d="M398 624l-102 127l-159 -128l31 -38l116 93l70 -88z" />
    <glyph glyph-name="caron" unicode="&#x2c7;" 
d="M416 717l-32 38l-115 -92l-70 87l-44 -35l102 -126z" />
    <glyph glyph-name="breve" unicode="&#x2d8;" 
d="M395 704h-45l-1 -7q-6 -28 -31 -48t-54 -20q-35 0 -45.5 20t-5.5 48l2 7h-45l-2 -7q-6 -31 4 -57t32.5 -41t52.5 -15q32 0 60.5 15.5t49.5 41t27 56.5z" />
    <glyph glyph-name="dotaccent" unicode="&#x2d9;" 
d="M293 750q-13 0 -25.5 -10t-14.5 -24q-3 -13 4.5 -23t21.5 -10t25.5 10t14.5 23q3 14 -4.5 24t-21.5 10z" />
    <glyph glyph-name="ring" unicode="&#x2da;" 
d="M299 775q-31 0 -60.5 -15t-50.5 -40.5t-28 -57.5t3 -58t33 -41t54 -15t60 15t50 41t28 58t-3.5 57.5t-32.5 40.5t-53 15zM289 731q32 0 48 -24q11 -19 7 -45q-3 -13 -10 -25t-17 -22q-12 -10 -26.5 -16.5t-31.5 -6.5q-16 0 -28.5 6.5t-19.5 18.5q-6 9 -8 20.5t1 24.5
q3 15 11.5 28t20.5 22q11 9 25 14t28 5z" />
    <glyph glyph-name="ogonek" unicode="&#x2db;" 
d="M164 11h-44l-2 -8l-82 -102q-21 -27 -26 -51.5t5.5 -43t34 -25.5t59.5 2q7 2 25 8t38 12.5t34.5 11.5l14.5 5l-10 39l-8 -2.5t-22 -7t-33 -10.5t-41 -14q-26 -8 -41 -1.5t-14.5 24t18.5 39.5l92 115z" />
    <glyph glyph-name="tilde" unicode="&#x2dc;" 
d="M359 719l-4 -18q-2 -11 -8.5 -21.5t-17.5 -10.5q-6 0 -15.5 6.5t-15.5 11.5q-9 7 -18 14.5t-20 11.5q-16 8 -36 7t-37 -13q-12 -8 -20 -19.5t-13 -23.5t-7 -24l-3 -18h50l3 18q1 5 4 14.5t8 13.5q8 5 16.5 2t14.5 -8q7 -5 14.5 -11t15.5 -11q11 -7 23 -14t28 -7
q35 0 56 25.5t28 56.5l4 18h-50z" />
    <glyph glyph-name="hungarumlaut" unicode="&#x2dd;" 
d="M286 660q8 8 11 17t1.5 17.5t-9.5 13.5t-17.5 3.5t-17.5 -7.5t-13 -16l-61 -106h35zM397 660q8 9 11 18t1.5 17t-9.5 13t-17 3.5t-17 -7.5t-14 -16l-59 -106h35z" />
    <glyph glyph-name="gravecomb" unicode="&#x300;" 
d="M267 711q-1 10 -7 17t-14.5 10t-19.5 -1q-10 -3 -14.5 -11.5t-4.5 -18.5t3 -18l36 -79h36z" />
    <glyph glyph-name="acutecomb" unicode="&#x301;" 
d="M342 684q8 9 11 17.5t1.5 16.5t-9.5 13q-7 5 -16 4t-17 -7t-14 -16l-61 -107h35z" />
    <glyph glyph-name="circumflexcomb" unicode="&#x302;" 
d="M398 624l-102 127l-159 -128l31 -38l116 93l70 -88z" />
    <glyph glyph-name="tildecomb" unicode="&#x303;" 
d="M359 719l-4 -18q-2 -11 -8.5 -21.5t-17.5 -10.5q-6 0 -15.5 6.5t-15.5 11.5q-9 7 -18 14.5t-20 11.5q-16 8 -36 7t-37 -13q-12 -8 -20 -19.5t-13 -23.5t-7 -24l-3 -18h50l3 18q1 5 4 14.5t8 13.5q8 5 16.5 2t14.5 -8q7 -5 14.5 -11t15.5 -11q11 -7 23 -14t28 -7
q35 0 56 25.5t28 56.5l4 18h-50z" />
    <glyph glyph-name="macroncomb" unicode="&#x304;" 
d="M388 677h-221l-12 -54h221z" />
    <glyph glyph-name="brevecomb" unicode="&#x306;" 
d="M395 704h-45l-1 -7q-6 -28 -31 -48t-54 -20q-35 0 -45.5 20t-5.5 48l2 7h-45l-2 -7q-6 -31 4 -57t32.5 -41t52.5 -15q32 0 60.5 15.5t49.5 41t27 56.5z" />
    <glyph glyph-name="dotaccentcomb" unicode="&#x307;" 
d="M293 750q-13 0 -25.5 -10t-14.5 -24q-3 -13 4.5 -23t21.5 -10t25.5 10t14.5 23q3 14 -4.5 24t-21.5 10z" />
    <glyph glyph-name="dieresiscomb" unicode="&#x308;" 
d="M212 742q-13 0 -25 -10t-15 -24q-3 -13 5 -23t21 -10q14 0 26 10t15 23q3 14 -5 24t-22 10zM369 742q-13 0 -25.5 -10t-15.5 -24t5 -23.5t21 -9.5q14 0 26 9.5t15 23.5t-4.5 24t-21.5 10z" />
    <glyph glyph-name="ringcomb" unicode="&#x30a;" 
d="M299 775q-31 0 -60.5 -15t-50.5 -40.5t-28 -57.5t3 -58t33 -41t54 -15t60 15t50 41t28 58t-3.5 57.5t-32.5 40.5t-53 15zM289 731q32 0 48 -24q11 -19 7 -45q-3 -13 -10 -25t-17 -22q-12 -10 -26.5 -16.5t-31.5 -6.5q-16 0 -28.5 6.5t-19.5 18.5q-6 9 -8 20.5t1 24.5
q3 15 11.5 28t20.5 22q11 9 25 14t28 5z" />
    <glyph glyph-name="hungarumlautcomb" unicode="&#x30b;" 
d="M286 660q8 8 11 17t1.5 17.5t-9.5 13.5t-17 3.5t-17 -7.5t-14 -16l-61 -106h35zM397 660q8 9 11 18t1.5 17t-9.5 13t-17 3.5t-17 -7.5t-14 -16l-59 -106h35z" />
    <glyph glyph-name="caroncomb" unicode="&#x30c;" 
d="M416 717l-32 38l-115 -92l-70 87l-44 -35l102 -126z" />
    <glyph glyph-name="commaturnedabovecomb" unicode="&#x312;" 
d="M321 718l-14 12q-9 -6 -20.5 -17t-23 -26t-21 -34.5t-14.5 -42.5q-3 -15 5.5 -24t21.5 -9q14 0 25.5 10t14.5 23q3 14 -3 23t-17 10q6 17 16.5 36.5t29.5 38.5z" />
    <glyph glyph-name="commaaccent" unicode="&#x326;" 
d="M57 -196l14 -12q9 6 20.5 17t23 26t21 34.5t14.5 43.5q3 15 -5 24t-22 9q-13 0 -25 -9.5t-15 -23.5q-3 -12 3 -21.5t18 -11.5q-5 -16 -16 -36t-31 -40z" />
    <glyph glyph-name="cedillacomb" unicode="&#x327;" 
d="M174 10h-51l-54 -69l7 -29q14 2 27 3.5t25.5 2.5t22.5 1q27 1 41.5 -7.5t7.5 -34.5q-4 -17 -16 -28.5t-29 -17t-37 -5.5q-13 0 -26.5 1.5t-27 4t-27.5 5.5l-22 -49q1 0 16.5 -3t38 -6t44.5 -3q44 0 85 24.5t51 74.5q8 37 -13 66t-72 27q-7 0 -14 -0.5t-13 -1.5z" />
    <glyph glyph-name="ogonekcomb" unicode="&#x328;" 
d="M164 11h-44l-2 -8l-82 -102q-21 -27 -26 -51.5t5.5 -43t34 -25.5t59.5 2q7 2 25 8t38 12.5t34.5 11.5l14.5 5l-10 39l-8 -2.5t-22 -7t-33 -10.5t-41 -14q-26 -8 -41 -1.5t-14.5 24t18.5 39.5l92 115z" />
    <glyph glyph-name="dieresistonoscomb" unicode="&#x344;" 
d="M234 692q3 14 -4.5 23.5t-21.5 9.5q-13 0 -25.5 -9.5t-15.5 -23.5q-3 -13 5.5 -23t21.5 -10q14 0 25.5 10t14.5 23zM393 692q3 14 -5 23.5t-22 9.5q-13 0 -25 -9.5t-15 -23.5q-3 -13 5 -23t21 -10q14 0 26 10t15 23zM371 816q7 8 10.5 17t2.5 17t-10 13q-7 5 -16.5 3.5
t-18 -8t-13.5 -15.5l-61 -107h36z" />
    <glyph glyph-name="tonos" unicode="&#x384;" 
d="M348 684q8 9 11 17.5t1.5 16.5t-9.5 13t-17 4t-16.5 -7t-13.5 -16l-61 -107h35z" />
    <glyph glyph-name="dieresistonos" unicode="&#x385;" 
d="M234 692q3 14 -4.5 23.5t-21.5 9.5q-13 0 -25.5 -9.5t-15.5 -23.5q-3 -13 5.5 -23t21.5 -10q14 0 25.5 10t14.5 23zM393 692q3 14 -5 23.5t-22 9.5q-13 0 -25 -9.5t-15 -23.5q-3 -13 5 -23t21 -10q14 0 26 10t15 23zM369 816q7 8 10.5 17t2.5 17t-10 13q-7 5 -16.5 3.5
t-18 -8t-13.5 -15.5l-61 -107h36z" />
    <glyph glyph-name="Alphatonos" unicode="&#x386;" horiz-adv-x="547" 
d="M527 0l-79 700h-53l-374 -700h60l131 245h227l29 -245h59zM238 300l164 314l34 -314h-198zM384 784q8 9 11 17.5t1.5 16.5t-9.5 13t-17 4t-16.5 -7t-13.5 -16l-61 -107h35z" />
    <glyph glyph-name="Epsilontonos" unicode="&#x388;" horiz-adv-x="406" 
d="M41 0h332l11 50h-276l65 307h176l27 55h-191l50 236h278l11 52h-334zM208 784q8 9 11 17.5t1.5 16.5t-9.5 13t-17 4t-16.5 -7t-13.5 -16l-61 -107h35z" />
    <glyph glyph-name="Etatonos" unicode="&#x389;" horiz-adv-x="515" 
d="M503 412h-318l61 288h-56l-149 -700h57l75 357h318l-76 -357h57l148 700h-56zM212 784q8 9 11 17.5t1.5 16.5t-9.5 13t-17 4t-16.5 -7t-13.5 -16l-61 -107h35z" />
    <glyph glyph-name="Iotatonos" unicode="&#x38a;" horiz-adv-x="187" 
d="M159 651l67 -2l-138 -649h56l149 700h-124zM199 784q8 9 11 17.5t1.5 16.5t-9.5 13t-17 4t-16.5 -7t-13.5 -16l-61 -107h35z" />
    <glyph glyph-name="Omicrontonos" unicode="&#x38c;" horiz-adv-x="492" 
d="M142 508l-66 -317q-13 -65 5.5 -110t61 -68.5t100.5 -23.5q62 0 114.5 24t88.5 68t49 105l68 321q21 98 -23.5 153.5t-144.5 55.5q-99 0 -165.5 -53t-87.5 -155zM130 187l70 330q11 49 37 81t64 48.5t84 16.5q48 0 79.5 -16.5t44 -48.5t1.5 -81l-70 -325
q-10 -49 -38 -82.5t-68 -50.5t-86 -17q-44 0 -74 16.5t-42 48.5t-2 80zM311 784q8 9 11 17.5t1.5 16.5t-9.5 13t-17 4t-16.5 -7t-13.5 -16l-61 -107h35z" />
    <glyph glyph-name="Upsilontonos" unicode="&#x38e;" horiz-adv-x="515" 
d="M507 156l115 544h-56l-58 -277q-7 -36 -28 -60t-50.5 -37.5t-62 -19.5t-64.5 -6q-55 0 -84.5 17.5t-37 51.5t2.5 84l51 247h-56l-52 -244q-14 -65 -0.5 -112t55.5 -72.5t115 -25.5q34 0 67 6t63.5 19.5t55.5 34.5l-33 -153q-6 -25 -14 -45t-18.5 -35.5t-24.5 -26
t-31 -16.5l6 -37q51 7 87 48.5t52 114.5zM197 784q8 9 11 17.5t1.5 16.5t-9.5 13t-17 4t-16.5 -7t-13.5 -16l-61 -107h35z" />
    <glyph glyph-name="Omegatonos" unicode="&#x38f;" horiz-adv-x="582" 
d="M576 195l65 307q20 93 -20 149t-133 56h-103q-94 0 -152.5 -56t-78.5 -149l-66 -307q-7 -34 -4.5 -61t13 -48t29.5 -36h-64l-29 -51h229l10 51q-34 0 -61 9.5t-44.5 27.5t-23.5 45t2 63l67 316q14 67 58.5 105t103.5 38h112q40 0 66 -17.5t35.5 -49t0.5 -76.5l-67 -316
q-8 -35 -26 -62t-44 -45.5t-57 -28t-64 -9.5l-11 -51h228l-5 51h-70q29 15 49.5 36.5t34 48.5t20.5 60zM305 784q8 9 11 17.5t1.5 16.5t-9.5 13t-17 4t-16.5 -7t-13.5 -16l-61 -107h35z" />
    <glyph glyph-name="iotadieresistonos" unicode="&#x390;" horiz-adv-x="135" 
d="M149 608q3 14 -4.5 23.5t-21.5 9.5q-13 0 -25.5 -9.5t-15.5 -23.5q-3 -13 5.5 -23t21.5 -10q14 0 25.5 10t14.5 23zM308 608q3 14 -5 23.5t-22 9.5q-13 0 -25 -9.5t-15 -23.5q-3 -13 5 -23t21 -10q14 0 26 10t15 23zM286 732q7 8 10.5 17t2.5 17t-10 13q-7 5 -16.5 3.5
t-18 -8t-13.5 -15.5l-61 -107h36zM38 0h57l106 501h-56z" />
    <glyph glyph-name="Alpha" unicode="&#x391;" horiz-adv-x="547" 
d="M527 0l-79 700h-53l-374 -700h60l131 245h227l29 -245h59zM238 300l164 314l34 -314h-198z" />
    <glyph glyph-name="Beta" unicode="&#x392;" horiz-adv-x="505" 
d="M400 700h-210l-149 -700h231q70 0 120.5 26t82 73.5t44.5 109.5q10 48 4 84t-24 60.5t-45 37.5q25 15 44.5 35.5t33 46t19.5 55.5q12 58 -2.5 96t-52.5 57t-96 19zM349 412h-164l50 235h156q43 0 68.5 -13t34 -39t-0.5 -65q-7 -35 -25.5 -62t-48 -41.5t-70.5 -14.5z
M282 53h-173l64 304h189q43 0 67.5 -20.5t31.5 -53t-1 -70.5q-11 -53 -35 -89t-59.5 -53.5t-83.5 -17.5z" />
    <glyph glyph-name="Gamma" unicode="&#x393;" horiz-adv-x="383" 
d="M41 0h57l137 647h278l11 53h-334z" />
    <glyph glyph-name="Deltagreek" unicode="&#x394;" horiz-adv-x="547" 
d="M527 0l-228 700h-53l-225 -700h506zM96 50l176 564l179 -564h-355z" />
    <glyph glyph-name="Epsilon" unicode="&#x395;" horiz-adv-x="406" 
d="M41 0h332l11 50h-276l65 307h176l27 55h-191l50 236h278l11 52h-334z" />
    <glyph glyph-name="Zeta" unicode="&#x396;" horiz-adv-x="548" 
d="M189 700l-11 -49l398 -1l-22 -24l-515 -577l-11 -49h487l11 49l-417 1l21 23l516 578l11 49h-468z" />
    <glyph glyph-name="Eta" unicode="&#x397;" horiz-adv-x="515" 
d="M503 412h-318l61 288h-56l-149 -700h57l75 357h318l-76 -357h57l148 700h-56z" />
    <glyph glyph-name="Theta" unicode="&#x398;" horiz-adv-x="492" 
d="M164 380l-12 -57h322l11 57h-321zM142 508l-66 -317q-13 -65 5.5 -110t61 -68.5t100.5 -23.5q62 0 114.5 24t88.5 68t49 105l68 321q21 98 -23.5 153.5t-144.5 55.5q-99 0 -165.5 -53t-87.5 -155zM130 187l70 330q11 49 37 81t64 48.5t84 16.5q48 0 79.5 -16.5t44 -48.5
t1.5 -81l-70 -325q-10 -49 -38 -82.5t-68 -50.5t-86 -17q-44 0 -74 16.5t-42 48.5t-2 80z" />
    <glyph glyph-name="Iota" unicode="&#x399;" horiz-adv-x="187" 
d="M159 651l67 -2l-138 -649h56l149 700h-124z" />
    <glyph glyph-name="Kappa" unicode="&#x39a;" horiz-adv-x="459" 
d="M177 375l69 325h-56l-149 -700h56l57 269l69 82l152 -351h63l-172 398l269 302h-69z" />
    <glyph glyph-name="Lambda" unicode="&#x39b;" horiz-adv-x="547" 
d="M402 614l65 -614h60l-79 700h-53l-374 -700h60z" />
    <glyph glyph-name="Mu" unicode="&#x39c;" horiz-adv-x="621" 
d="M246 700h-56l-149 -700h57l113 535l67 -535h61l297 535l-114 -535h56l149 700h-56l-344 -614z" />
    <glyph glyph-name="Nu" unicode="&#x39d;" horiz-adv-x="577" 
d="M683 700h-56l-127 -597l-253 597h-57l-149 -700h57l127 597l253 -597h56z" />
    <glyph glyph-name="Xi" unicode="&#x39e;" horiz-adv-x="564" 
d="M150 595l39 -16q14 24 31.5 40t39 23.5t47.5 7.5h303l33 50h-325q-40 0 -71 -10.5t-54.5 -33.5t-42.5 -61zM482 307l12 56h-267l-12 -56h267zM399 53h-303l-33 -53h324q41 0 72 11t55 35t42 61l-39 16q-13 -23 -31 -38.5t-39.5 -23.5t-47.5 -8z" />
    <glyph glyph-name="Omicron" unicode="&#x39f;" horiz-adv-x="492" 
d="M142 508l-66 -317q-13 -65 5.5 -110t61 -68.5t100.5 -23.5q62 0 114.5 24t88.5 68t49 105l68 321q21 98 -23.5 153.5t-144.5 55.5q-99 0 -165.5 -53t-87.5 -155zM130 187l70 330q11 49 37 81t64 48.5t84 16.5q48 0 79.5 -16.5t44 -48.5t1.5 -81l-70 -325
q-10 -49 -38 -82.5t-68 -50.5t-86 -17q-44 0 -74 16.5t-42 48.5t-2 80z" />
    <glyph glyph-name="Pi" unicode="&#x3a0;" horiz-adv-x="515" 
d="M414 0h58l148 700h-430l-149 -700h57l136 643h317z" />
    <glyph glyph-name="Rho" unicode="&#x3a1;" horiz-adv-x="506" 
d="M426 700h-236l-149 -700h57l52 245h179q50 0 90 12.5t70.5 39.5t52 71t34.5 106q14 64 10 107.5t-24 69.5t-54 37.5t-82 11.5zM161 300l74 347h184q30 0 53.5 -7.5t38 -26t17.5 -52.5t-8 -87q-12 -57 -30 -92t-40.5 -52.5t-48.5 -23.5t-55 -6h-185z" />
    <glyph glyph-name="Sigma" unicode="&#x3a3;" horiz-adv-x="523" 
d="M355 50h-221l266 332l-121 265h309l30 53h-428l144 -315l-309 -385h323q59 0 99 25.5t68 81.5l-40 15q-12 -23 -30.5 -39t-41 -24.5t-48.5 -8.5z" />
    <glyph glyph-name="Tau" unicode="&#x3a4;" horiz-adv-x="417" 
d="M371 650h176l11 50h-402l-11 -50h171l-139 -650h56z" />
    <glyph glyph-name="Upsilon" unicode="&#x3a5;" horiz-adv-x="515" 
d="M507 156l115 544h-56l-58 -277q-7 -36 -28 -60t-50.5 -37.5t-62 -19.5t-64.5 -6q-55 0 -84.5 17.5t-37 51.5t2.5 84l51 247h-56l-52 -244q-14 -65 -0.5 -112t55.5 -72.5t115 -25.5q34 0 67 6t63.5 19.5t55.5 34.5l-33 -153q-6 -25 -14 -45t-18.5 -35.5t-24.5 -26
t-31 -16.5l6 -37q51 7 87 48.5t52 114.5z" />
    <glyph glyph-name="Phi" unicode="&#x3a6;" horiz-adv-x="595" 
d="M321 661l-20 45q-63 -19 -102 -66t-56 -122l-62 -293q-10 -45 -5.5 -81t23 -61.5t51 -39t80.5 -13.5h44l-13 -58l56 -7l14 65h49q64 0 110 24t75.5 67.5t41.5 103.5l61 286q13 61 1.5 105.5t-47 69t-94.5 24.5q-23 0 -44.5 -6.5t-39.5 -20t-30.5 -33t-18.5 -45.5
l-111 -526h-43q-40 0 -67 15.5t-37.5 46.5t-1.5 75l64 302q9 40 25 69.5t40.5 48t56.5 25.5zM390 79h-49l109 510q5 21 15.5 36.5t26.5 24t35 8.5q36 0 59 -17.5t31.5 -48t-0.5 -71.5l-65 -305q-9 -44 -31.5 -75t-56 -46.5t-74.5 -15.5z" />
    <glyph glyph-name="Chi" unicode="&#x3a7;" horiz-adv-x="556" 
d="M368 412l-113 288h-63l133 -340l-300 -360h76l248 300l120 -300h63l-139 353l283 347h-74z" />
    <glyph glyph-name="Psi" unicode="&#x3a8;" horiz-adv-x="595" 
d="M174 396l64 304h-56l-62 -294q-13 -60 -1.5 -103.5t48.5 -66.5t100 -23h44l-45 -213h57l45 213h50q64 0 110 23t75.5 66.5t42.5 103.5l31 144q10 45 10 76t-8 51t-24 32l-48 -16q-1 0 4 -6.5t10.5 -21.5t7.5 -39.5t-6 -61.5l-35 -168q-9 -44 -31.5 -73.5t-55 -44
t-72.5 -14.5h-50l93 436h-57l-93 -436h-44q-40 0 -66.5 14.5t-36.5 44t-1 73.5z" />
    <glyph glyph-name="Omegagreek" unicode="&#x3a9;" horiz-adv-x="582" 
d="M576 195l65 307q20 93 -20 149t-133 56h-103q-94 0 -152.5 -56t-78.5 -149l-66 -307q-7 -34 -4.5 -61t13 -48t29.5 -36h-64l-29 -51h229l10 51q-34 0 -61 9.5t-44.5 27.5t-23.5 45t2 63l67 316q14 67 58.5 105t103.5 38h112q40 0 66 -17.5t35.5 -49t0.5 -76.5l-67 -316
q-8 -35 -26 -62t-44 -45.5t-57 -28t-64 -9.5l-11 -51h228l-5 51h-70q29 15 49.5 36.5t34 48.5t20.5 60z" />
    <glyph glyph-name="Iotadieresis" unicode="&#x3aa;" horiz-adv-x="187" 
d="M221 852q-13 0 -25 -10t-15 -24q-3 -13 5 -23t21 -10q14 0 26 10t15 23q3 14 -5 24t-22 10zM378 852q-13 0 -25.5 -10t-15.5 -24t5 -23.5t21 -9.5q14 0 26 9.5t15 23.5t-4.5 24t-21.5 10zM159 651l67 -2l-138 -649h56l149 700h-124z" />
    <glyph glyph-name="Upsilondieresis" unicode="&#x3ab;" horiz-adv-x="515" 
d="M351 853q-13 0 -25 -10t-15 -24q-3 -13 5 -23t21 -10q14 0 26 10t15 23q3 14 -5 24t-22 10zM508 853q-13 0 -25.5 -10t-15.5 -24t5 -23.5t21 -9.5q14 0 26 9.5t15 23.5t-4.5 24t-21.5 10zM507 156l115 544h-56l-58 -277q-7 -36 -28 -60t-50.5 -37.5t-62 -19.5t-64.5 -6
q-55 0 -84.5 17.5t-37 51.5t2.5 84l51 247h-56l-52 -244q-14 -65 -0.5 -112t55.5 -72.5t115 -25.5q34 0 67 6t63.5 19.5t55.5 34.5l-33 -153q-6 -25 -14 -45t-18.5 -35.5t-24.5 -26t-31 -16.5l6 -37q51 7 87 48.5t52 114.5z" />
    <glyph glyph-name="alphatonos" unicode="&#x3ac;" horiz-adv-x="439" 
d="M507 487l-40 21q-8 -13 -15 -28l-7 -15q-24 13 -50.5 22.5t-53.5 15t-54 5.5q-28 0 -56 -7.5t-52.5 -25t-43.5 -47t-28 -74.5l-40 -185q-12 -56 -2.5 -91t33.5 -53t57.5 -24t69.5 -5q14 0 35.5 1t45 2t44.5 2.5t34.5 2t12.5 0.5l85 396q8 37 16.5 62zM121 163l40 188
q8 37 23.5 58t34.5 31t37 13t31 3q17 0 33 -2.5t32.5 -7.5t35 -12.5t40.5 -18.5l-77 -363l-11 -1t-30 -2t-43 -2t-51 -1q-39 0 -63 13.5t-32 40t0 63.5zM430 649q8 9 11 17.5t1.5 16.5t-9.5 13t-17 4t-16.5 -7t-13.5 -16l-61 -107h35z" />
    <glyph glyph-name="epsilontonos" unicode="&#x3ad;" horiz-adv-x="396" 
d="M396 446l11 51q-26 8 -50 11t-47 3q-53 0 -91.5 -19.5t-61 -50t-29.5 -62.5q-4 -21 -0.5 -40t13 -33.5t23.5 -24.5q-47 -16 -76.5 -54.5t-37.5 -81.5q-9 -50 9 -85t55.5 -53t85.5 -18q30 0 61 4t61 12t55 18l-5 51q-19 -7 -38.5 -12.5t-38.5 -10t-37.5 -7t-35.5 -2.5
q-41 0 -69 13.5t-39.5 37.5t-5.5 53q6 28 21 47.5t34.5 31t39 17t33.5 5.5h99l31 54h-119q-23 0 -38 12t-20.5 30.5t-1.5 38.5q4 18 14.5 32.5t28.5 25.5t44 17q17 4 35.5 4.5t40 -3t46.5 -12.5zM410 649q8 9 11 17.5t1.5 16.5t-9.5 13t-17 4t-16.5 -7t-13.5 -16l-61 -107
h35z" />
    <glyph glyph-name="etatonos" unicode="&#x3ae;" horiz-adv-x="444" 
d="M425 343l-112 -530l50 -23l118 556q7 32 5 58t-12.5 45.5t-29 33t-44.5 20.5t-59 7q-24 0 -50 -5.5t-50.5 -15t-46.5 -22.5l7 34h-56l-107 -501h57l90 425q23 12 45 19.5t44.5 11.5t45.5 4q24 0 46 -5.5t37.5 -19t22 -36t-0.5 -56.5zM442 649q8 9 11 17.5t1.5 16.5
t-9.5 13t-17 4t-16.5 -7t-13.5 -16l-61 -107h35z" />
    <glyph glyph-name="iotatonos" unicode="&#x3af;" horiz-adv-x="135" 
d="M276 649q8 9 11 17.5t1.5 16.5t-9.5 13t-17 4t-16.5 -7t-13.5 -16l-61 -107h35zM38 0h57l106 501h-56z" />
    <glyph glyph-name="upsilondieresistonos" unicode="&#x3b0;" horiz-adv-x="441" 
d="M303 607q3 14 -4.5 23.5t-21.5 9.5q-13 0 -25.5 -9.5t-15.5 -23.5q-3 -13 5.5 -23t21.5 -10q14 0 25.5 10t14.5 23zM462 607q3 14 -5 23.5t-22 9.5q-13 0 -25 -9.5t-15 -23.5q-3 -13 5 -23t21 -10q14 0 26 10t15 23zM440 731q7 8 10.5 17t2.5 17t-10 13q-7 5 -16.5 3.5
t-18 -8t-13.5 -15.5l-61 -107h36zM444 185l68 316h-54l-70 -326q-8 -41 -28.5 -71.5t-52 -47t-74.5 -16.5q-40 0 -66 17t-36 47.5t-2 70.5l69 326h-57l-68 -316q-12 -54 1 -98t50.5 -70.5t99.5 -26.5q92 0 147 53.5t73 141.5z" />
    <glyph glyph-name="alpha" unicode="&#x3b1;" horiz-adv-x="439" 
d="M507 487l-40 21q-8 -13 -15 -28l-7 -15q-24 13 -50.5 22.5t-53.5 15t-54 5.5q-28 0 -56 -7.5t-52.5 -25t-43.5 -47t-28 -74.5l-40 -185q-12 -56 -2.5 -91t33.5 -53t57.5 -24t69.5 -5q14 0 35.5 1t45 2t44.5 2.5t34.5 2t12.5 0.5l85 396q8 37 16.5 62zM121 163l40 188
q8 37 23.5 58t34.5 31t37 13t31 3q17 0 33 -2.5t32.5 -7.5t35 -12.5t40.5 -18.5l-77 -363l-11 -1t-30 -2t-43 -2t-51 -1q-39 0 -63 13.5t-32 40t0 63.5z" />
    <glyph glyph-name="beta" unicode="&#x3b2;" horiz-adv-x="442" 
d="M150 522l-149 -710l49 -25l47 215q12 -3 25.5 -5t27 -3.5t25 -2.5t20.5 -1q48 -1 89 6t74 26.5t55.5 55.5t34.5 91l19 85q11 52 2 85.5t-33 49.5t-60 16h-16q35 19 57 44.5t34 51t16 45.5q11 46 1 81t-39.5 55.5t-76.5 20.5q-56 0 -97.5 -25t-67.5 -66.5t-37 -89.5z
M208 526q7 30 25 58t45.5 45.5t60.5 17.5q29 0 47 -14t24 -37t-2 -51q-7 -25 -20 -48t-33.5 -43t-47.5 -34.5t-61 -22.5l-69 -15zM108 50l57 276l58 13q16 4 37 8t42 7t37 3q14 0 30 -4t28.5 -14.5t17.5 -31.5t-2 -55l-17 -76q-7 -36 -18.5 -62t-31.5 -43t-52.5 -25
t-82.5 -8q-19 0 -35.5 1.5t-29 3t-21 3.5t-13 3z" />
    <glyph glyph-name="gamma" unicode="&#x3b3;" horiz-adv-x="505" 
d="M585 479l-30 31q-30 -6 -52 -21t-39.5 -40.5t-36.5 -61.5l-178 -344q-7 5 -13 11.5t-10.5 17t-7.5 27.5t-5 41l-29 360h-57l29 -371q3 -29 8 -55.5t18.5 -47t39.5 -32.5l-37 -73q-9 -16 -19.5 -30t-24.5 -24t-31 -16t-38 -7l1 -43q45 1 76 16.5t50.5 38.5t31.5 46.5
t21 39.5l223 433q13 26 26.5 45.5t33.5 34.5t50 24z" />
    <glyph glyph-name="delta" unicode="&#x3b4;" horiz-adv-x="432" 
d="M381 653h93l32 47h-112q-36 2 -64.5 -8t-48 -30t-27.5 -49q-5 -19 -0.5 -47.5t24.5 -50.5l7 -8q-53 -11 -92.5 -40t-64 -69.5t-34.5 -88.5l-27 -125q-19 -91 16 -143t130 -52q62 0 108 21.5t76 65t43 108.5l21 96q5 22 6 43.5t-1.5 42t-10.5 37.5q-12 27 -30.5 47
t-39.5 37.5t-44 35.5q-12 9 -22 19.5t-14 24.5t0 34q4 16 15 27.5t27 18t34 6.5zM408 295l-26 -121q-9 -45 -30 -75t-52.5 -45.5t-74.5 -15.5q-40 0 -66.5 15.5t-36 46t-0.5 74.5l28 135q4 18 16 42.5t33.5 48.5t53.5 42t75 23l22 -16q22 -17 37.5 -40.5t21.5 -52t-1 -61.5z
" />
    <glyph glyph-name="epsilon" unicode="&#x3b5;" horiz-adv-x="396" 
d="M396 446l11 51q-26 8 -50 11t-47 3q-53 0 -91.5 -19.5t-61 -50t-29.5 -62.5q-4 -21 -0.5 -40t13 -33.5t23.5 -24.5q-47 -16 -76.5 -54.5t-37.5 -81.5q-9 -50 9 -85t55.5 -53t85.5 -18q30 0 61 4t61 12t55 18l-5 51q-19 -7 -38.5 -12.5t-38.5 -10t-37.5 -7t-35.5 -2.5
q-41 0 -69 13.5t-39.5 37.5t-5.5 53q6 28 21 47.5t34.5 31t39 17t33.5 5.5h99l31 54h-119q-23 0 -38 12t-20.5 30.5t-1.5 38.5q4 18 14.5 32.5t28.5 25.5t44 17q17 4 35.5 4.5t40 -3t46.5 -12.5z" />
    <glyph glyph-name="zeta" unicode="&#x3b6;" horiz-adv-x="413" 
d="M527 654l-12 46h-272l-10 -47h210q-27 -21 -53 -43t-49.5 -44t-45.5 -43q-34 -32 -70 -71.5t-68 -83.5t-56.5 -90.5t-35.5 -92.5q-10 -42 -4.5 -77t24.5 -58t49 -37.5t76.5 -19t115.5 1.5l-42 -181l50 -27l59 267q-57 -6 -99.5 -8t-72 1.5t-49.5 12t-33 22.5
q-18 20 -21 45.5t4 56.5q11 44 34.5 86.5t54 83t64 77.5t63.5 69q38 39 72.5 67.5t61 48t41.5 29t14 9.5z" />
    <glyph glyph-name="eta" unicode="&#x3b7;" horiz-adv-x="444" 
d="M425 343l-112 -530l50 -23l118 556q7 32 5 58t-12.5 45.5t-29 33t-44.5 20.5t-59 7q-24 0 -50 -5.5t-50.5 -15t-46.5 -22.5l7 34h-56l-107 -501h57l90 425q23 12 45 19.5t44.5 11.5t45.5 4q24 0 46 -5.5t37.5 -19t22 -36t-0.5 -56.5z" />
    <glyph glyph-name="theta" unicode="&#x3b8;" horiz-adv-x="442" 
d="M371 709q-56 0 -98.5 -21t-68.5 -55t-35 -74q-2 -12 -4 -29.5t0 -37t9 -39.5q-18 -17 -33 -38.5t-25.5 -47.5t-16.5 -56l-27 -122q-19 -91 16.5 -143t129.5 -52q93 0 150 49t77 146l68 316q20 95 -13.5 149.5t-128.5 54.5zM457 506l-24 -112q-36 0 -65 3.5t-50.5 10.5
t-37.5 15q-29 16 -41.5 36.5t-15 40t0 35t3.5 22.5q6 27 23 49.5t45 36t65 13.5q38 0 64 -15t35.5 -48t-2.5 -87zM229 42q-39 0 -65.5 15t-36.5 45t-1 74l29 135q6 32 17.5 56t27.5 42q18 -18 47 -33t72.5 -22t103.5 -5l-37 -173q-9 -44 -29.5 -74t-52.5 -45t-75 -15z" />
    <glyph glyph-name="iota" unicode="&#x3b9;" horiz-adv-x="135" 
d="M38 0h57l106 501h-56z" />
    <glyph glyph-name="kappa" unicode="&#x3ba;" horiz-adv-x="434" 
d="M340 118l-90 178l233 205h-75l-255 -227l47 225l-53 13l-109 -512h57l42 198l67 56l74 -143q14 -28 30 -53.5t40 -41.5t60 -16h3l10 48h-3q-13 0 -26.5 7.5t-26.5 23.5t-25 39z" />
    <glyph glyph-name="lambda" unicode="&#x3bb;" horiz-adv-x="504" 
d="M424 124l-38 433q-1 16 -3.5 39.5t-13 46t-35 38t-69.5 16.5l-19 -43q27 0 44.5 -10t26.5 -27t11 -39l7 -72q-30 -11 -52.5 -31.5t-40 -47t-32.5 -56.5l-187 -372h56l182 361q16 32 29 50.5t25.5 29t24.5 16.5l30 -344q3 -36 10 -60.5t22.5 -39.5t43.5 -23l44 31
q-27 9 -41 29.5t-19 42t-6 32.5z" />
    <glyph glyph-name="mugreek" unicode="&#x3bc;" horiz-adv-x="466" 
d="M429 94l88 415l-59 -12l-66 -324q-8 -37 -26 -64.5t-44.5 -44.5t-61.5 -21q-43 -5 -75 10t-46.5 43t-7.5 62l72 342h-58l-147 -687l54 -23l56 263q0 1 6 -8.5t21 -23t41.5 -23.5t67.5 -10q25 0 48 5.5t43 17.5t37 29q5 -15 12.5 -24.5t14 -14.5t9.5 -7l34 32q-1 1 -6 9
t-8 23t1 36z" />
    <glyph glyph-name="nu" unicode="&#x3bd;" horiz-adv-x="428" 
d="M126 501l46 -501h77l262 501h-61l-229 -443l-37 443h-58z" />
    <glyph glyph-name="xi" unicode="&#x3be;" horiz-adv-x="431" 
d="M499 651l33 51h-147q-46 0 -83 -17.5t-61 -49.5t-32 -77q-4 -21 -2 -50t14.5 -56.5t37.5 -46.5h-12q-27 0 -53 -9t-48.5 -27.5t-39 -47t-24.5 -66.5l-18 -86q-12 -55 -4 -91t33 -56t63 -27t86 -5q13 1 26.5 2t28 2t30.5 2l-41 -185l50 -23l56 263q-10 -1 -28 -2.5
t-39.5 -4t-41.5 -4t-34 -2.5q-51 -2 -80 5.5t-41.5 25t-12.5 44.5t7 63l16 76q7 34 20 54t29 30.5t32.5 14t29.5 3.5h124l24 44l-41 7q-23 4 -42 16t-32 31t-17.5 45t0.5 58q9 48 39 72t73 24h122z" />
    <glyph glyph-name="omicron" unicode="&#x3bf;" horiz-adv-x="430" 
d="M438 185l29 131q19 92 -17 144t-125 52q-60 0 -106.5 -22.5t-77 -66t-44.5 -107.5l-29 -131q-11 -54 0.5 -98t48.5 -70.5t99 -26.5q92 0 148 54t74 141zM410 316l-30 -141q-8 -41 -28.5 -71.5t-52 -47t-73.5 -16.5q-40 0 -66 17t-35.5 47.5t-1.5 70.5l30 141
q10 48 31.5 80.5t54.5 49t77 16.5t68 -16.5t30.5 -49t-4.5 -80.5z" />
    <glyph glyph-name="pi" unicode="&#x3c0;" horiz-adv-x="470" 
d="M429 69l92 431h-376l-107 -500h57l94 446h266l-79 -368q-5 -25 0 -41.5t14.5 -26t17.5 -13l8 -3.5l34 32q-10 8 -17 19t-4 24z" />
    <glyph glyph-name="rho" unicode="&#x3c1;" horiz-adv-x="437" 
d="M441 171l31 140q19 92 -17 144.5t-125 52.5q-88 0 -148 -51t-80 -146l-107 -500l53 -24l57 269q5 -15 17 -28.5t28.5 -24t37.5 -16t44 -5.5q56 0 98 21.5t70 64t41 103.5zM415 311l-31 -148q-9 -43 -28.5 -71t-49 -42.5t-68.5 -14.5q-28 0 -51.5 8.5t-39 25.5t-21 42
t1.5 57l31 143q10 49 31.5 81t54.5 48t77 16q42 0 66 -16t31 -48t-4 -81z" />
    <glyph glyph-name="sigma1" unicode="&#x3c2;" horiz-adv-x="341" 
d="M141 285l12 66q6 28 19.5 48.5t32.5 33t41.5 18.5t45.5 5q20 -1 37 -5.5t31.5 -10t25.5 -10.5l28 41q0 -1 -16 7.5t-45 17.5t-69 9q-27 0 -55.5 -6.5t-55 -23.5t-46.5 -46.5t-29 -74.5l-15 -70q-4 -22 -4.5 -40.5t4 -35t15 -32t26.5 -32.5l74 -80q16 -16 24.5 -28.5
t10.5 -26t-2 -31.5q-3 -16 -15.5 -32t-30 -30t-37.5 -25l18 -34q30 16 53.5 34.5t39 40.5t21.5 49q7 33 0 57.5t-21.5 43.5t-29.5 35l-61 66q-16 18 -23.5 33.5t-7.5 32t4 36.5z" />
    <glyph glyph-name="sigma" unicode="&#x3c3;" horiz-adv-x="446" 
d="M554 517l-27 26q-19 -16 -43 -26.5t-41 -12.5q-14 -2 -33 0t-40.5 5t-45.5 3q-33 0 -68 -9t-67 -30.5t-56 -58.5t-36 -94l-30 -135q-11 -54 0.5 -98t48.5 -70.5t99 -26.5q92 0 148 54t74 141l30 135q11 56 6.5 86.5t-15.5 46.5q16 4 32 12t32 21t32 31zM412 334l-34 -159
q-8 -41 -29.5 -71.5t-53.5 -47t-74 -16.5q-39 0 -63.5 17t-32.5 47.5t0 70.5l32 152q8 38 25 63.5t39 40.5t45.5 21.5t45.5 6.5q16 0 31.5 -2t30.5 -4.5t28 -3.5q4 -5 7.5 -12.5t5.5 -17.5t3 -22.5t-0.5 -28t-5.5 -34.5z" />
    <glyph glyph-name="tau" unicode="&#x3c4;" horiz-adv-x="351" 
d="M227 133l67 314h127l11 53h-303l-11 -53h120l-67 -314q-6 -30 -5 -53.5t10 -41t26.5 -30.5t43.5 -21l26 43q-21 8 -32.5 22t-14.5 34t2 47z" />
    <glyph glyph-name="upsilon" unicode="&#x3c5;" horiz-adv-x="441" 
d="M444 185l68 316h-54l-70 -326q-8 -41 -28.5 -71.5t-52 -47t-74.5 -16.5q-40 0 -66 17t-36 47.5t-2 70.5l69 326h-57l-68 -316q-12 -54 1 -98t50.5 -70.5t99.5 -26.5q92 0 147 53.5t73 141.5z" />
    <glyph glyph-name="phi" unicode="&#x3c6;" horiz-adv-x="587" 
d="M96 314l-27 -125q-12 -60 -0.5 -104t48.5 -68t100 -24h43l-39 -182l52 -28l45 210h50q64 0 110 24t75.5 68t42.5 104l25 118q13 61 0 106t-49 70t-94 25q-31 0 -58.5 -13t-46 -37t-26.5 -58l-76 -357h-43q-40 0 -66.5 15.5t-36.5 46t-1 74.5l28 135q9 41 25.5 70.5
t40.5 48.5t55 26l-20 45q-61 -19 -100.5 -66t-56.5 -124zM378 43h-50l74 349q5 20 14.5 34t24.5 21.5t34 7.5q23 0 43 -9t34.5 -27t19.5 -43.5t-2 -58.5l-29 -138q-9 -44 -32.5 -74.5t-56.5 -46t-74 -15.5z" />
    <glyph glyph-name="chi" unicode="&#x3c7;" horiz-adv-x="489" 
d="M357 -97l-68 250l251 347h-63l-205 -283l-78 283h-62l94 -345l-244 -336l48 -24l214 297l57 -210q9 -31 25 -52t38 -31.5t48 -10.5l37 38q-26 5 -44 13.5t-29.5 24t-18.5 39.5z" />
    <glyph glyph-name="psi" unicode="&#x3c8;" horiz-adv-x="594" 
d="M635 506l-63 -17q20 -19 20.5 -44.5t-6.5 -57.5l-44 -208q-9 -44 -32.5 -74.5t-56.5 -46t-73 -15.5h-44l97 457h-57l-97 -457h-50q-39 0 -66 15.5t-37 46t-1 74.5l68 321h-53l-67 -311q-19 -91 16 -143.5t129 -52.5h50l-39 -179l52 -31l45 210h44q64 0 110.5 24t76.5 68
t43 104l42 198q8 38 8.5 66t-15.5 53z" />
    <glyph glyph-name="omega" unicode="&#x3c9;" horiz-adv-x="596" 
d="M562 499l-41 -44q26 -8 40.5 -25t18.5 -43t-4 -62l-32 -148q-9 -46 -29 -76.5t-46 -45.5t-55 -15q-28 0 -42.5 13t-17 38.5t5.5 65.5l30 140h-57l-30 -140q-10 -40 -23.5 -65.5t-33.5 -38.5t-49 -13q-28 0 -48 15t-27 45.5t2 76.5l32 148q8 36 23 62t37 43t51 25l-22 44
q-58 -19 -95 -65.5t-52 -117.5l-28 -129q-14 -67 -5 -111t40.5 -66.5t84.5 -22.5q23 0 43.5 6t39 18t34.5 29q7 -17 20 -29t31.5 -18t41.5 -6q81 0 131 50t71 150l28 129q15 72 -1.5 118t-66.5 65z" />
    <glyph glyph-name="iotadieresis" unicode="&#x3ca;" horiz-adv-x="135" 
d="M128 657q-13 0 -25 -10t-15 -24q-3 -13 5 -23t21 -10q14 0 26 10t15 23q3 14 -5 24t-22 10zM285 657q-13 0 -25.5 -10t-15.5 -24t5 -23.5t21 -9.5q14 0 26 9.5t15 23.5t-4.5 24t-21.5 10zM38 0h57l106 501h-56z" />
    <glyph glyph-name="upsilondieresis" unicode="&#x3cb;" horiz-adv-x="441" 
d="M281 657q-13 0 -25 -10t-15 -24q-3 -13 5 -23t21 -10q14 0 26 10t15 23q3 14 -5 24t-22 10zM438 657q-13 0 -25.5 -10t-15.5 -24t5 -23.5t21 -9.5q14 0 26 9.5t15 23.5t-4.5 24t-21.5 10zM444 185l68 316h-54l-70 -326q-8 -41 -28.5 -71.5t-52 -47t-74.5 -16.5
q-40 0 -66 17t-36 47.5t-2 70.5l69 326h-57l-68 -316q-12 -54 1 -98t50.5 -70.5t99.5 -26.5q92 0 147 53.5t73 141.5z" />
    <glyph glyph-name="omicrontonos" unicode="&#x3cc;" horiz-adv-x="430" 
d="M438 185l29 131q19 92 -17 144t-125 52q-60 0 -106.5 -22.5t-77 -66t-44.5 -107.5l-29 -131q-11 -54 0.5 -98t48.5 -70.5t99 -26.5q92 0 148 54t74 141zM410 316l-30 -141q-8 -41 -28.5 -71.5t-52 -47t-73.5 -16.5q-40 0 -66 17t-35.5 47.5t-1.5 70.5l30 141
q10 48 31.5 80.5t54.5 49t77 16.5t68 -16.5t30.5 -49t-4.5 -80.5zM427 649q8 9 11 17.5t1.5 16.5t-9.5 13t-17 4t-16.5 -7t-13.5 -16l-61 -107h35z" />
    <glyph glyph-name="upsilontonos" unicode="&#x3cd;" horiz-adv-x="441" 
d="M444 185l68 316h-54l-70 -326q-8 -41 -28.5 -71.5t-52 -47t-74.5 -16.5q-40 0 -66 17t-36 47.5t-2 70.5l69 326h-57l-68 -316q-12 -54 1 -98t50.5 -70.5t99.5 -26.5q92 0 147 53.5t73 141.5zM436 649q8 9 11 17.5t1.5 16.5t-9.5 13t-17 4t-16.5 -7t-13.5 -16l-61 -107h35
z" />
    <glyph glyph-name="omegatonos" unicode="&#x3ce;" horiz-adv-x="596" 
d="M562 499l-41 -44q26 -8 40.5 -25t18.5 -43t-4 -62l-32 -148q-9 -46 -29 -76.5t-46 -45.5t-55 -15q-28 0 -42.5 13t-17 38.5t5.5 65.5l30 140h-57l-30 -140q-10 -40 -23.5 -65.5t-33.5 -38.5t-49 -13q-28 0 -48 15t-27 45.5t2 76.5l32 148q8 36 23 62t37 43t51 25l-22 44
q-58 -19 -95 -65.5t-52 -117.5l-28 -129q-14 -67 -5 -111t40.5 -66.5t84.5 -22.5q23 0 43.5 6t39 18t34.5 29q7 -17 20 -29t31.5 -18t41.5 -6q81 0 131 50t71 150l28 129q15 72 -1.5 118t-66.5 65zM510 649q8 9 11 17.5t1.5 16.5t-9.5 13t-17 4t-16.5 -7t-13.5 -16l-61 -107
h35z" />
    <glyph glyph-name="uni0400" unicode="&#x400;" horiz-adv-x="403" 
d="M368 857q-1 10 -7 17t-14.5 10t-19.5 -1q-10 -3 -14.5 -11.5t-4.5 -18.5t3 -18l36 -79h36zM41 0h332l11 50h-276l65 307h176l27 55h-191l50 236h278l11 52h-334z" />
    <glyph glyph-name="uni0401" unicode="&#x401;" horiz-adv-x="403" 
d="M305 852q-13 0 -25 -10t-15 -24q-3 -13 5 -23t21 -10q14 0 26 10t15 23q3 14 -5 24t-22 10zM462 852q-13 0 -25.5 -10t-15.5 -24t5 -23.5t21 -9.5q14 0 26 9.5t15 23.5t-4.5 24t-21.5 10zM41 0h332l11 50h-276l65 307h176l27 55h-191l50 236h278l11 52h-334z" />
    <glyph glyph-name="uni0402" unicode="&#x402;" horiz-adv-x="582" 
d="M480 509q-25 0 -51 -5.5t-51 -15t-47 -22.5l-9 -42q23 12 46 19.5t45.5 11.5t45.5 4q24 0 45.5 -5.5t37.5 -19t22 -36t-1 -56.5l-45 -211q-5 -26 -17 -46.5t-30 -34t-42 -21.5l9 -43q39 11 66 30t44.5 47.5t25.5 67.5l45 214q9 40 4 70.5t-23 51.5t-48 31.5t-72 10.5z
M371 650h176l11 50h-402l-11 -50h171l-139 -650h56z" />
    <glyph glyph-name="uni0403" unicode="&#x403;" horiz-adv-x="379" 
d="M444 834q8 9 11 17.5t1.5 16.5t-9.5 13q-7 5 -16 4t-17 -7t-14 -16l-61 -107h35zM41 0h57l137 647h278l11 53h-334z" />
    <glyph glyph-name="uni0404" unicode="&#x404;" horiz-adv-x="424" 
d="M153 357h182l30 55h-200zM490 639l25 38q-28 17 -62 25t-73 8q-55 0 -103.5 -21t-83.5 -65t-50 -114l-70 -326q-14 -67 0.5 -109.5t55.5 -63.5t104 -21q38 0 80 8.5t88 24.5l-2 46q-30 -9 -57 -15.5t-51 -10t-44 -3.5q-50 0 -79.5 14.5t-39 47t1.5 84.5l70 328
q11 53 36.5 85t64 46.5t86.5 14.5q26 0 52 -5t51 -16z" />
    <glyph glyph-name="uni0405" unicode="&#x405;" horiz-adv-x="530" 
d="M556 623l24 49q-21 12 -44.5 20.5t-49 12.5t-51.5 4q-39 0 -80 -8t-78.5 -26t-64 -49t-36.5 -77q-9 -43 0.5 -73.5t32 -53t52.5 -39t63 -31t63.5 -29.5t54 -33.5t34 -43t3.5 -58.5q-8 -40 -29 -68t-50 -45t-63 -25t-69 -8q-34 0 -70 9.5t-66 28.5t-45 47l-42 -35
q23 -35 55.5 -58.5t73 -34.5t86.5 -11q45 0 89.5 11t83 34.5t66.5 59.5t39 87q10 47 1 80t-31.5 57t-52.5 41t-63.5 30.5t-64.5 27.5t-54.5 31.5t-34 42t-3.5 59.5q7 32 27.5 52.5t48.5 32.5t58 16.5t55 4.5q24 0 47 -3.5t44.5 -10.5t40.5 -18z" />
    <glyph glyph-name="uni0406" unicode="&#x406;" horiz-adv-x="187" 
d="M159 651l67 -2l-138 -649h56l149 700h-124z" />
    <glyph glyph-name="uni0407" unicode="&#x407;" horiz-adv-x="187" 
d="M221 852q-13 0 -25 -10t-15 -24q-3 -13 5 -23t21 -10q14 0 26 10t15 23q3 14 -5 24t-22 10zM378 852q-13 0 -25.5 -10t-15.5 -24t5 -23.5t21 -9.5q14 0 26 9.5t15 23.5t-4.5 24t-21.5 10zM159 651l67 -2l-138 -649h56l149 700h-124z" />
    <glyph glyph-name="uni0408" unicode="&#x408;" horiz-adv-x="207" 
d="M191 119l124 581h-124l-10 -49l65 -2l-113 -535q-8 -39 -25 -64.5t-38 -37.5t-43 -12l5 -37q35 0 62 12.5t46 34.5t32 50t19 59z" />
    <glyph glyph-name="uni0409" unicode="&#x409;" horiz-adv-x="848" 
d="M743 411h-170l62 289h-98q-45 0 -77 -16t-53.5 -39.5t-35 -47.5t-21.5 -40l-222 -433q-5 -11 -19 -32.5t-36 -42t-53 -29.5l31 -31q24 6 42 15.5t32.5 24.5t27.5 35.5t27 47.5l241 466q11 22 27 37t37 23.5t47 8.5h35l-138 -649q-1 0 10.5 -1t30.5 -2.5t41 -3t42.5 -2.5
t35.5 -1q48 0 91 7t78 26t59.5 54t36.5 92l18 84q9 42 1.5 72t-27 49.5t-46.5 29t-57 9.5zM801 174q-7 -34 -22.5 -59.5t-40 -42.5t-58 -25.5t-77.5 -8.5q-6 0 -19 0.5t-28 1.5t-29 2t-23 1.5l-9 0.5l67 312h184q13 0 28 -4t27.5 -15.5t17.5 -32.5t-2 -55z" />
    <glyph glyph-name="uni040A" unicode="&#x40a;" horiz-adv-x="831" 
d="M734 413h-177l61 288h-55l-61 -288h-313l61 288h-60l-149 -700h60l76 357h313l-76 -357l11 -1t29.5 -2.5t39.5 -3t41.5 -2.5t36.5 -1q65 0 119 13.5t92 52t54 113.5l18 83q9 42 3 72.5t-23.5 49.5t-43.5 28.5t-57 9.5zM785 177q-10 -46 -27 -73.5t-42 -41.5t-57 -18.5
t-72 -4.5q-22 0 -40.5 1t-32.5 2t-23 2t-12 1l66 313h184q13 0 28 -4t27.5 -15.5t18 -32.5t-2.5 -55z" />
    <glyph glyph-name="uni040B" unicode="&#x40b;" horiz-adv-x="582" 
d="M463 510q-19 0 -37 -3t-35.5 -8.5t-34.5 -13.5t-34 -18l-9 -42q23 12 46 19.5t45.5 11.5t45.5 4q24 0 45.5 -5.5t37.5 -19t22 -36t-1 -56.5l-73 -343h56l74 346q8 40 1.5 70.5t-26 51.5t-50.5 31.5t-73 10.5zM362 650h176l11 50h-402l-11 -50h171l-139 -650h56z" />
    <glyph glyph-name="uni040C" unicode="&#x40c;" horiz-adv-x="458" 
d="M448 844q8 9 11 17.5t1.5 16.5t-9.5 13q-7 5 -16 4t-17 -7t-14 -16l-61 -107h35zM177 375l69 325h-56l-149 -700h56l57 269l69 82l152 -351h63l-172 398l269 302h-69z" />
    <glyph glyph-name="uni040D" unicode="&#x40d;" horiz-adv-x="577" 
d="M454 866q-1 10 -7 17t-14.5 10t-19.5 -1q-10 -3 -14.5 -11.5t-4.5 -18.5t3 -18l36 -79h36zM190 700l-149 -700h56l507 597l-127 -597h57l149 700h-57l-507 -597l127 597h-56z" />
    <glyph glyph-name="uni040E" unicode="&#x40e;" horiz-adv-x="484" 
d="M522 854h-45l-1 -7q-6 -28 -31 -48t-54 -20q-35 0 -45.5 20t-5.5 48l2 7h-45l-2 -7q-6 -31 4 -57t32.5 -41t52.5 -15q32 0 60.5 15.5t49.5 41t27 56.5zM563 700l-255 -375l-94 375h-58l111 -438l-94 -139q-7 -11 -25 -32.5t-44 -42t-59 -29.5l30 -31q25 6 45 15.5
t37.5 24.5t34.5 35.5t36 47.5l399 589h-64z" />
    <glyph glyph-name="uni040F" unicode="&#x40f;" horiz-adv-x="518" 
d="M623 700h-57l-137 -643h-316l137 643h-58l-149 -700h190l-21 -107h47l25 107h190z" />
    <glyph glyph-name="uni0410" unicode="&#x410;" horiz-adv-x="547" 
d="M527 0l-79 700h-53l-374 -700h60l131 245h227l29 -245h59zM238 300l164 314l34 -314h-198z" />
    <glyph glyph-name="uni0411" unicode="&#x411;" horiz-adv-x="458" 
d="M181 647h334l11 53h-334zM355 412h-168l62 288h-57l-149 -701q-1 0 10.5 -1t30 -2.5t40.5 -3t44 -2.5t40 -1q48 0 89.5 7t74.5 26t56.5 54t35.5 92l17 83q9 42 2 72.5t-26 50t-45.5 29t-56.5 9.5zM410 175q-10 -46 -28 -73.5t-43 -41.5t-56.5 -18t-68.5 -4
q-18 0 -33.5 0.5t-28 2t-21.5 2.5t-14.5 1.5t-7.5 0.5l67 312h179q13 0 28 -4t27.5 -15.5t17.5 -32.5t-2 -56z" />
    <glyph glyph-name="uni0412" unicode="&#x412;" horiz-adv-x="505" 
d="M400 700h-210l-149 -700h231q70 0 120.5 26t82 73.5t44.5 109.5q10 48 4 84t-24 60.5t-45 37.5q25 15 44.5 35.5t33 46t19.5 55.5q12 58 -2.5 96t-52.5 57t-96 19zM349 412h-164l50 235h156q43 0 68.5 -13t34 -39t-0.5 -65q-7 -35 -25.5 -62t-48 -41.5t-70.5 -14.5z
M282 53h-173l64 304h189q43 0 67.5 -20.5t31.5 -53t-1 -70.5q-11 -53 -35 -89t-59.5 -53.5t-83.5 -17.5z" />
    <glyph glyph-name="uni0413" unicode="&#x413;" horiz-adv-x="383" 
d="M41 0h57l137 647h278l11 53h-334z" />
    <glyph glyph-name="uni0414" unicode="&#x414;" horiz-adv-x="555" 
d="M494 56l137 644h-102q-45 0 -76.5 -16t-52.5 -39.5t-34 -47.5t-22 -40l-257 -501h-64l-35 -162h45l33 105h422l-13 -105h46l35 162h-62zM437 56h-294l270 522q11 22 27 37t37 23.5t47 8.5h39z" />
    <glyph glyph-name="uni0415" unicode="&#x415;" horiz-adv-x="406" 
d="M41 0h332l11 50h-276l65 307h176l27 55h-191l50 236h278l11 52h-334z" />
    <glyph glyph-name="uni0416" unicode="&#x416;" horiz-adv-x="680" 
d="M595 0h61l-144 351l277 349h-62l-261 -323h-18l69 323h-57l-69 -323h-21l-120 323h-60l129 -349l-296 -351h69l271 322h16l-68 -322h57l68 322h25z" />
    <glyph glyph-name="uni0417" unicode="&#x417;" horiz-adv-x="461" 
d="M190 412l5 -57h72q40 0 71.5 -7.5t53 -24.5t29 -44.5t-0.5 -66.5q-11 -51 -41.5 -89.5t-80 -60t-117.5 -21.5q-27 0 -52 4t-44.5 10t-30.5 10l-11 4l-22 -46l12.5 -5t34 -11.5t49.5 -11.5t58 -5q70 0 123 19t90 50.5t59 71t31 81.5q14 66 -8.5 109t-74.5 65
q43 20 68 45.5t37.5 53.5t17.5 53q10 44 -2.5 83.5t-49.5 64t-104 24.5q-41 0 -75 -8t-54 -16.5l-20 -8.5l9 -38l17.5 5.5t43.5 10.5t51 5q37 0 63.5 -7.5t43 -23t21.5 -39t-2 -55.5q-8 -37 -31.5 -65t-56.5 -43t-68 -15h-114z" />
    <glyph glyph-name="uni0418" unicode="&#x418;" horiz-adv-x="577" 
d="M190 700l-149 -700h56l507 597l-127 -597h57l149 700h-57l-507 -597l127 597h-56z" />
    <glyph glyph-name="uni0419" unicode="&#x419;" horiz-adv-x="577" 
d="M571 857h-45l-1 -7q-6 -28 -31 -48t-54 -20q-35 0 -45.5 20t-5.5 48l2 7h-45l-2 -7q-6 -31 4 -57t32.5 -41t52.5 -15q32 0 60.5 15.5t49.5 41t27 56.5zM190 700l-149 -700h56l507 597l-127 -597h57l149 700h-57l-507 -597l127 597h-56z" />
    <glyph glyph-name="uni041A" unicode="&#x41a;" horiz-adv-x="459" 
d="M177 375l69 325h-56l-149 -700h56l57 269l69 82l152 -351h63l-172 398l269 302h-69z" />
    <glyph glyph-name="uni041B" unicode="&#x41b;" horiz-adv-x="535" 
d="M550 700q-45 0 -76.5 -16t-52.5 -39.5t-34 -47.5t-22 -40l-222 -433q-5 -11 -19.5 -32.5t-37 -42t-53.5 -29.5l31 -31q32 8 53.5 23t39.5 39.5t36 60.5l241 466q11 22 27 37t37 23.5t47 8.5h39l-138 -647h57l149 700h-102z" />
    <glyph glyph-name="uni041C" unicode="&#x41c;" horiz-adv-x="621" 
d="M246 700h-56l-149 -700h57l113 535l67 -535h61l297 535l-114 -535h56l149 700h-56l-344 -614z" />
    <glyph glyph-name="uni041D" unicode="&#x41d;" horiz-adv-x="515" 
d="M503 412h-318l61 288h-56l-149 -700h57l75 357h318l-76 -357h57l148 700h-56z" />
    <glyph glyph-name="uni041E" unicode="&#x41e;" horiz-adv-x="492" 
d="M142 508l-66 -317q-13 -65 5.5 -110t61 -68.5t100.5 -23.5q62 0 114.5 24t88.5 68t49 105l68 321q21 98 -23.5 153.5t-144.5 55.5q-99 0 -165.5 -53t-87.5 -155zM130 187l70 330q11 49 37 81t64 48.5t84 16.5q48 0 79.5 -16.5t44 -48.5t1.5 -81l-70 -325
q-10 -49 -38 -82.5t-68 -50.5t-86 -17q-44 0 -74 16.5t-42 48.5t-2 80z" />
    <glyph glyph-name="uni041F" unicode="&#x41f;" horiz-adv-x="515" 
d="M414 0h58l148 700h-430l-149 -700h57l136 643h317z" />
    <glyph glyph-name="uni0420" unicode="&#x420;" horiz-adv-x="506" 
d="M426 700h-236l-149 -700h57l52 245h179q50 0 90 12.5t70.5 39.5t52 71t34.5 106q14 64 10 107.5t-24 69.5t-54 37.5t-82 11.5zM161 300l74 347h184q30 0 53.5 -7.5t38 -26t17.5 -52.5t-8 -87q-12 -57 -30 -92t-40.5 -52.5t-48.5 -23.5t-55 -6h-185z" />
    <glyph glyph-name="uni0421" unicode="&#x421;" horiz-adv-x="423" 
d="M490 639l25 38q-28 17 -62 25t-73 8q-55 0 -103.5 -21t-83.5 -65t-50 -114l-70 -326q-14 -67 0.5 -109.5t55.5 -63.5t104 -21q38 0 80 8.5t88 24.5l-2 46q-30 -9 -57 -15.5t-51 -10t-44 -3.5q-50 0 -79.5 14.5t-39 47t1.5 84.5l70 328q11 53 36.5 85t64 46.5t86.5 14.5
q26 0 52 -5t51 -16z" />
    <glyph glyph-name="uni0422" unicode="&#x422;" horiz-adv-x="417" 
d="M371 650h176l11 50h-402l-11 -50h171l-139 -650h56z" />
    <glyph glyph-name="uni0423" unicode="&#x423;" horiz-adv-x="487" 
d="M563 700l-255 -375l-94 375h-58l111 -438l-94 -139q-7 -11 -25 -32.5t-44 -42t-59 -29.5l30 -31q25 6 45 15.5t37.5 24.5t34.5 35.5t36 47.5l399 589h-64z" />
    <glyph glyph-name="uni0424" unicode="&#x424;" horiz-adv-x="595" 
d="M321 661l-20 45q-63 -19 -102 -66t-56 -122l-62 -293q-10 -45 -5.5 -81t23 -61.5t51 -39t80.5 -13.5h44l-13 -58l56 -7l14 65h49q64 0 110 24t75.5 67.5t41.5 103.5l61 286q13 61 1.5 105.5t-47 69t-94.5 24.5q-23 0 -44.5 -6.5t-39.5 -20t-30.5 -33t-18.5 -45.5
l-111 -526h-43q-40 0 -67 15.5t-37.5 46.5t-1.5 75l64 302q9 40 25 69.5t40.5 48t56.5 25.5zM390 79h-49l109 510q5 21 15.5 36.5t26.5 24t35 8.5q36 0 59 -17.5t31.5 -48t-0.5 -71.5l-65 -305q-9 -44 -31.5 -75t-56 -46.5t-74.5 -15.5z" />
    <glyph glyph-name="uni0425" unicode="&#x425;" horiz-adv-x="556" 
d="M368 412l-113 288h-63l133 -340l-300 -360h76l248 300l120 -300h63l-139 353l283 347h-74z" />
    <glyph glyph-name="uni0426" unicode="&#x426;" horiz-adv-x="555" 
d="M483 57l137 643h-57l-137 -643h-316l137 643h-58l-149 -700h433l-12 -105h46l34 162h-58z" />
    <glyph glyph-name="uni0427" unicode="&#x427;" horiz-adv-x="489" 
d="M616 700h-57l-59 -277q-7 -34 -27 -58t-47.5 -38t-58.5 -20.5t-60 -6.5q-51 0 -84.5 17t-45.5 51t-2 85l53 247h-56l-52 -245q-13 -64 0.5 -111t54.5 -73t108 -26q32 0 67.5 6.5t68.5 20t56 34.5l-65 -306h57z" />
    <glyph glyph-name="uni0428" unicode="&#x428;" horiz-adv-x="641" 
d="M691 700l-137 -643h-191l137 643h-58l-137 -643h-191l137 643h-58l-149 -700h556l149 700h-58z" />
    <glyph glyph-name="uni0429" unicode="&#x429;" horiz-adv-x="681" 
d="M582 57l-12 -57h30l-13 -105h46l34 162h-85zM691 700l-137 -643h-191l137 643h-58l-137 -643h-191l137 643h-58l-149 -700h556l149 700h-58z" />
    <glyph glyph-name="uni042A" unicode="&#x42a;" horiz-adv-x="520" 
d="M149 700l-11 -49l108 -2h26l11 51h-134zM419 412h-168l62 288h-57l-149 -701q-1 0 10.5 -1t30 -2.5t40.5 -3t44 -2.5t40 -1q48 0 89.5 7t74.5 26t56.5 54t35.5 92l17 83q9 42 2 72.5t-26 50t-45.5 29t-56.5 9.5zM474 175q-10 -46 -28 -73.5t-43 -41.5t-56.5 -18t-68.5 -4
q-18 0 -33.5 0.5t-28 2t-21.5 2.5t-14.5 1.5t-7.5 0.5l67 312h179q13 0 28 -4t27.5 -15.5t17.5 -32.5t-2 -56z" />
    <glyph glyph-name="uni042B" unicode="&#x42b;" horiz-adv-x="601" 
d="M574 651l67 -2l-138 -649h56l149 700h-124zM355 412h-168l62 288h-57l-149 -701q-1 0 10.5 -1t30 -2.5t40.5 -3t44 -2.5t40 -1q48 0 89.5 7t74.5 26t56.5 54t35.5 92l17 83q9 42 2 72.5t-26 50t-45.5 29t-56.5 9.5zM410 175q-10 -46 -28 -73.5t-43 -41.5t-56.5 -18
t-68.5 -4q-18 0 -33.5 0.5t-28 2t-21.5 2.5t-14.5 1.5t-7.5 0.5l67 312h179q13 0 28 -4t27.5 -15.5t17.5 -32.5t-2 -56z" />
    <glyph glyph-name="uni042C" unicode="&#x42c;" horiz-adv-x="455" 
d="M355 412h-168l62 288h-57l-149 -701q-1 0 10.5 -1t30 -2.5t40.5 -3t44 -2.5t40 -1q48 0 89.5 7t74.5 26t56.5 54t35.5 92l17 83q9 42 2 72.5t-26 50t-45.5 29t-56.5 9.5zM410 175q-10 -46 -28 -73.5t-43 -41.5t-56.5 -18t-68.5 -4q-18 0 -33.5 0.5t-28 2t-21.5 2.5
t-14.5 1.5t-7.5 0.5l67 312h179q13 0 28 -4t27.5 -15.5t17.5 -32.5t-2 -56z" />
    <glyph glyph-name="uni042D" unicode="&#x42d;" horiz-adv-x="423" 
d="M212 639q30 11 57.5 16t55.5 5q39 0 66 -9t42.5 -27.5t19 -46t-4.5 -63.5l-22 -102h-189l6 -53h172l-36 -172q-8 -35 -21 -62.5t-33 -46.5t-49 -28.5t-67 -9.5q-24 0 -48 3.5t-49 10t-51 15.5l-22 -46q38 -16 77 -24.5t79 -8.5q50 0 90 12.5t70 37.5t50 61.5t30 83.5
l69 325q10 45 5.5 81.5t-23.5 63t-53 41t-84 14.5q-37 0 -74 -8t-72 -25z" />
    <glyph glyph-name="uni042E" unicode="&#x42e;" horiz-adv-x="692" 
d="M348 380h-153l-13 -58h153zM347 508l-66 -317q-13 -65 5.5 -110t61 -68.5t100.5 -23.5q62 0 114.5 24t88.5 68t49 105l68 321q21 98 -23.5 153.5t-144.5 55.5q-99 0 -165.5 -53t-87.5 -155zM335 187l70 330q11 49 37 81t64 48.5t84 16.5q48 0 79.5 -16.5t44 -48.5
t1.5 -81l-70 -325q-10 -49 -38 -82.5t-68 -50.5t-86 -17q-44 0 -74 16.5t-42 48.5t-2 80zM159 651l67 -2l-138 -649h56l149 700h-124z" />
    <glyph glyph-name="uni042F" unicode="&#x42f;" horiz-adv-x="510" 
d="M390 700q-48 0 -87.5 -11.5t-70.5 -37.5t-53 -69.5t-36 -107.5q-12 -57 -10.5 -98t16 -68t42.5 -43l-153 -265h57l144 250q8 -2 16.5 -3t18 -1.5t19.5 -0.5h179l-52 -245h57l149 700h-236zM300 300q-28 0 -52 6t-39 23.5t-18 52.5t9 92q11 53 28.5 87t40.5 52.5t49.5 26
t55.5 7.5h184l-74 -347h-184z" />
    <glyph glyph-name="uni0430" unicode="&#x430;" horiz-adv-x="447" 
d="M507 487l-40 21q-8 -13 -15 -28l-7 -15q-24 13 -50.5 22.5t-53.5 15t-54 5.5q-28 0 -56 -7.5t-52.5 -25t-43.5 -47t-28 -74.5l-40 -185q-12 -56 -2.5 -91t33.5 -53t57.5 -24t69.5 -5q14 0 35.5 1t45 2t44.5 2.5t34.5 2t12.5 0.5l85 396q8 37 16.5 62zM121 163l40 188
q8 37 23.5 58t34.5 31t37 13t31 3q17 0 33 -2.5t32.5 -7.5t35 -12.5t40.5 -18.5l-77 -363l-11 -1t-30 -2t-43 -2t-51 -1q-39 0 -63 13.5t-32 40t0 63.5z" />
    <glyph glyph-name="uni0431" unicode="&#x431;" horiz-adv-x="430" 
d="M336 512q-31 0 -61.5 -9.5t-56 -26t-41.5 -38.5l10 45q8 39 25 68.5t38 50.5q18 17 52 39.5t83 32.5l-1 29q-49 -7 -94 -28t-76 -49q-34 -31 -55.5 -69.5t-30.5 -83.5l-61 -284q-13 -64 -1 -107.5t49 -66.5t96 -23q90 0 149 53t78 144l29 135q13 62 2.5 103.5t-44 63
t-89.5 21.5zM320 459q39 0 62.5 -14t31.5 -42.5t-1 -70.5l-31 -143q-10 -49 -31 -81t-52 -48t-74 -16q-44 0 -70 16t-33.5 48t2.5 81l30 138q7 32 22.5 56.5t38 41.5t49.5 25.5t56 8.5z" />
    <glyph glyph-name="uni0432" unicode="&#x432;" horiz-adv-x="448" 
d="M392 279q29 14 51 41.5t29 58.5q6 27 0 50.5t-23 42t-46 29t-69 10.5t-75 -1.5t-61.5 -3.5t-41.5 -3.5l-15 -1.5l-106 -501l11.5 -1t32 -2.5t46 -3.5t53.5 -3t55 -1q63 0 108.5 22.5t72.5 59.5t36 78q8 41 -6.5 77.5t-51.5 52.5zM324 461q19 0 37 -3.5t31.5 -12.5
t19.5 -24.5t1 -38.5q-4 -21 -18 -39.5t-34 -30t-42 -11.5h-163l33 154l13.5 1t35 2t44.5 2t42 1zM234 42q-24 0 -47.5 0.5t-42.5 1.5t-30.5 1.5l-11.5 0.5l43 201h162q15 0 32 -5t31.5 -17t21.5 -31t1 -48t-28 -53t-55.5 -37.5t-75.5 -13.5z" />
    <glyph glyph-name="uni0433" unicode="&#x433;" horiz-adv-x="317" 
d="M139 500l-106 -500h57l95 447h218l11 53h-275z" />
    <glyph glyph-name="uni0434" unicode="&#x434;" horiz-adv-x="507" 
d="M453 57l94 443h-129q-45 0 -77 -16t-53 -39.5t-34 -47.5t-21 -40l-154 -300h-57l-34 -162h45l32 105h376l-12 -105h46l34 162h-56zM135 57l166 321q8 16 18.5 29t23.5 22t30.5 13.5t39.5 4.5h66l-83 -390h-261z" />
    <glyph glyph-name="uni0435" unicode="&#x435;" horiz-adv-x="422" 
d="M116 134l13 62l308 16l28 130q12 55 -4 92t-53.5 56.5t-92.5 19.5q-54 0 -97.5 -19.5t-72.5 -57.5t-41 -94l-41 -197q-9 -42 -2.5 -71.5t25 -47.5t48 -26.5t67.5 -8.5t84.5 12.5t89.5 34.5l-13 43q-43 -19 -80.5 -30.5t-75.5 -11.5q-24 0 -43 5.5t-31.5 17t-16.5 30.5
t1 45zM410 349l-18 -87l-251 -11l18 87q10 40 30.5 67.5t52 42.5t71.5 15q35 0 59.5 -14t34.5 -39.5t3 -60.5z" />
    <glyph glyph-name="uni0436" unicode="&#x436;" horiz-adv-x="533" 
d="M622 500h-63l-185 -222h-20l47 222h-57l-47 -222h-20l-85 222h-62l100 -250l-213 -250h67l187 223h15l-48 -223h57l48 223h22l85 -223h64l-98 250z" />
    <glyph glyph-name="uni0437" unicode="&#x437;" horiz-adv-x="396" 
d="M184 444q30 10 52 13.5t40 3.5t34 -2q18 -3 30.5 -10t19.5 -18t8.5 -23.5t-1.5 -25.5q-4 -21 -18 -39.5t-34 -30t-42 -11.5h-119l9 -54h98q15 0 32 -5t31.5 -17t21.5 -31t1 -48t-28 -53t-55.5 -37.5t-75.5 -13.5q-23 0 -46 4.5t-45.5 11.5t-44.5 16l-27 -51
q31 -16 75 -25t87 -9q63 0 108.5 22.5t72.5 59.5t36 78q8 41 -6.5 77.5t-51.5 52.5q19 10 35.5 25t28.5 34.5t16 40.5q7 32 -3 62t-40 50t-84 20q-22 0 -47.5 -3t-55.5 -11z" />
    <glyph glyph-name="uni0438" unicode="&#x438;" horiz-adv-x="443" 
d="M201 500h-57l-106 -500h69l331 415l-88 -415h57l106 500h-69l-331 -415z" />
    <glyph glyph-name="uni0439" unicode="&#x439;" horiz-adv-x="446" 
d="M475 668h-45l-1 -7q-6 -28 -31 -48t-54 -20q-35 0 -45.5 20t-5.5 48l2 7h-45l-2 -7q-6 -31 4 -57t32.5 -41t52.5 -15q32 0 60.5 15.5t49.5 41t27 56.5zM201 500h-57l-106 -500h69l331 415l-88 -415h57l106 500h-69l-331 -415z" />
    <glyph glyph-name="uni043A" unicode="&#x43a;" horiz-adv-x="434" 
d="M340 118l-90 178l233 205h-75l-255 -227l47 225l-53 13l-109 -512h57l42 198l67 56l74 -143q14 -28 30 -53.5t40 -41.5t60 -16h3l10 48h-3q-13 0 -26.5 7.5t-26.5 23.5t-25 39z" />
    <glyph glyph-name="uni043B" unicode="&#x43b;" horiz-adv-x="480" 
d="M415 500q-45 0 -77 -16t-53.5 -39.5t-35 -47.5t-21.5 -40l-119 -233q-6 -11 -19.5 -32.5t-35 -42t-52.5 -29.5l30 -31q32 8 54.5 23t41 39.5t37.5 60.5l137 266q11 22 26 37t35.5 23.5t46.5 8.5h66l-95 -447h57l106 500h-129z" />
    <glyph glyph-name="uni043C" unicode="&#x43c;" horiz-adv-x="589" 
d="M585 500l-277 -434l-94 434h-72l-106 -500h57l86 404l87 -404h57l256 403l-86 -403h57l106 500h-71z" />
    <glyph glyph-name="uni043D" unicode="&#x43d;" horiz-adv-x="443" 
d="M413 299h-255l42 201h-57l-106 -500h57l52 245h255l-52 -245h57l106 500h-57z" />
    <glyph glyph-name="uni043E" unicode="&#x43e;" horiz-adv-x="430" 
d="M438 185l29 131q19 92 -17 144t-125 52q-60 0 -106.5 -22.5t-77 -66t-44.5 -107.5l-29 -131q-11 -54 0.5 -98t48.5 -70.5t99 -26.5q92 0 148 54t74 141zM410 316l-30 -141q-8 -41 -28.5 -71.5t-52 -47t-73.5 -16.5q-40 0 -66 17t-35.5 47.5t-1.5 70.5l30 141
q10 48 31.5 80.5t54.5 49t77 16.5t68 -16.5t30.5 -49t-4.5 -80.5z" />
    <glyph glyph-name="uni043F" unicode="&#x43f;" horiz-adv-x="474" 
d="M429 69l92 431h-376l-107 -500h57l94 446h266l-79 -368q-5 -25 0 -41.5t14.5 -26t17.5 -13l8 -3.5l34 32q-10 8 -17 19t-4 24z" />
    <glyph glyph-name="uni0440" unicode="&#x440;" horiz-adv-x="442" 
d="M441 171l31 140q19 92 -17 144.5t-125 52.5q-88 0 -148 -51t-80 -146l-107 -500l53 -24l57 269q5 -15 17 -28.5t28.5 -24t37.5 -16t44 -5.5q56 0 98 21.5t70 64t41 103.5zM415 311l-31 -148q-9 -43 -28.5 -71t-49 -42.5t-68.5 -14.5q-28 0 -51.5 8.5t-39 25.5t-21 42
t1.5 57l31 143q10 49 31.5 81t54.5 48t77 16q42 0 66 -16t31 -48t-4 -81z" />
    <glyph glyph-name="uni0441" unicode="&#x441;" horiz-adv-x="381" 
d="M427 433l24 45q-29 15 -62.5 23.5t-68.5 8.5q-66 0 -111.5 -25t-72.5 -68t-39 -98l-31 -145q-14 -69 4.5 -110t62 -58.5t103.5 -16.5q29 1 58.5 5t57.5 11v50l-10 -1.5t-27 -4.5t-37.5 -5.5t-41.5 -2.5q-37 0 -62.5 8t-39 25t-16 45t5.5 67l26 120q9 44 30.5 78.5
t55.5 54.5t82 19q28 -1 57.5 -7.5t51.5 -17.5z" />
    <glyph glyph-name="uni0442" unicode="&#x442;" horiz-adv-x="351" 
d="M227 133l67 314h127l11 53h-303l-11 -53h120l-67 -314q-6 -30 -5 -53.5t10 -41t26.5 -30.5t43.5 -21l26 43q-21 8 -32.5 22t-14.5 34t2 47z" />
    <glyph glyph-name="uni0443" unicode="&#x443;" horiz-adv-x="486" 
d="M72 -209h56l451 709h-64l-257 -412l-74 412h-60l92 -479z" />
    <glyph glyph-name="uni0444" unicode="&#x444;" horiz-adv-x="584" 
d="M96 314l-27 -125q-12 -60 -0.5 -104t48.5 -68t100 -24h43l-39 -182l52 -28l45 210h50q64 0 110 24t75.5 68t42.5 104l25 118q13 61 0 106t-49 70t-94 25q-31 0 -58.5 -13t-46 -37t-26.5 -58l-76 -357h-43q-40 0 -66.5 15.5t-36.5 46t-1 74.5l28 135q9 41 25.5 70.5
t40.5 48.5t55 26l-20 45q-61 -19 -100.5 -66t-56.5 -124zM378 43h-50l74 349q5 20 14.5 34t24.5 21.5t34 7.5q23 0 43 -9t34.5 -27t19.5 -43.5t-2 -58.5l-29 -138q-9 -44 -32.5 -74.5t-56.5 -46t-74 -15.5z" />
    <glyph glyph-name="uni0445" unicode="&#x445;" horiz-adv-x="437" 
d="M280 296l-88 204h-55l104 -249l-211 -251h67l167 200l82 -200h60l-105 245l214 255h-62z" />
    <glyph glyph-name="uni0446" unicode="&#x446;" horiz-adv-x="480" 
d="M513 500h-57l-94 -443h-256l94 443h-57l-106 -500h369l-11 -105h46l34 162h-56z" />
    <glyph glyph-name="uni0447" unicode="&#x447;" horiz-adv-x="439" 
d="M347 0h56l87 408q7 32 19 44t27 18l-11 42q-19 -6 -34.5 -16.5t-26.5 -24t-18.5 -29.5t-11.5 -33l-25 -118q-6 -26 -20.5 -49.5t-36 -41.5t-46.5 -28.5t-52 -10.5q-23 0 -45 5.5t-38 18.5t-22.5 36t0.5 58l47 221h-58l-48 -225q-9 -43 -4 -74.5t23.5 -52t49 -30.5
t72.5 -10q25 0 52 6.5t53 19.5t46 33z" />
    <glyph glyph-name="uni0448" unicode="&#x448;" horiz-adv-x="615" 
d="M619 500l-94 -443h-177l94 443h-58l-94 -443h-176l94 443h-58l-106 -500h526l106 500h-57z" />
    <glyph glyph-name="uni0449" unicode="&#x449;" horiz-adv-x="615" 
d="M554 57l-12 -57h12l-12 -105h46l34 162h-68zM619 500l-94 -443h-177l94 443h-58l-94 -443h-176l94 443h-58l-106 -500h526l106 500h-57z" />
    <glyph glyph-name="uni044A" unicode="&#x44a;" horiz-adv-x="525" 
d="M106 500l-10 -49l107 -2h29l11 51h-137zM404 303h-175l42 197h-57l-105 -497q4 0 17.5 -1.5t33.5 -3t44.5 -3t51 -2.5t51.5 -1q63 0 108.5 22.5t73 59.5t35.5 78q11 49 -3.5 82.5t-45.5 51t-71 17.5zM309 45q-24 0 -48 0.5t-43.5 1.5t-31 1.5l-11.5 0.5l43 199h180
q13 0 27.5 -4.5t26.5 -15.5t17 -30.5t-1 -48.5t-28 -53t-55.5 -37.5t-75.5 -13.5z" />
    <glyph glyph-name="uni044B" unicode="&#x44b;" horiz-adv-x="586" 
d="M485 0h57l106 501h-56zM336 303h-175l42 197h-57l-105 -497q4 0 17.5 -1.5t33.5 -3t44.5 -3t51 -2.5t51.5 -1q63 0 108.5 22.5t73 59.5t35.5 78q11 49 -3.5 82.5t-45.5 51t-71 17.5zM241 45q-24 0 -48 0.5t-43.5 1.5t-31 1.5l-11.5 0.5l43 199h180q13 0 27.5 -4.5
t26.5 -15.5t17 -30.5t-1 -48.5t-28 -53t-55.5 -37.5t-75.5 -13.5z" />
    <glyph glyph-name="uni044C" unicode="&#x44c;" horiz-adv-x="456" 
d="M336 303h-175l42 197h-57l-105 -497q4 0 17.5 -1.5t33.5 -3t44.5 -3t51 -2.5t51.5 -1q63 0 108.5 22.5t73 59.5t35.5 78q11 49 -3.5 82.5t-45.5 51t-71 17.5zM241 45q-24 0 -48 0.5t-43.5 1.5t-31 1.5l-11.5 0.5l43 199h180q13 0 27.5 -4.5t26.5 -15.5t17 -30.5t-1 -48.5
t-28 -53t-55.5 -37.5t-75.5 -13.5z" />
    <glyph glyph-name="uni044D" unicode="&#x44d;" horiz-adv-x="378" 
d="M133 433q29 12 61.5 19t62.5 7q47 0 71.5 -19t31 -52.5t-2.5 -76.5l-6 -30h-217l8 -54h198l-8 -41q-10 -51 -31.5 -83t-55 -47t-81.5 -15q-22 0 -43 2t-38 5t-26.5 5t-8.5 2l-22 -50q29 -8 62 -12.5t67 -3.5q58 1 104.5 20.5t79 60t45.5 104.5l31 145q12 57 0.5 100
t-48 67t-98.5 24q-34 0 -69.5 -9t-70.5 -23z" />
    <glyph glyph-name="uni044E" unicode="&#x44e;" horiz-adv-x="621" 
d="M127 280l-13 -58h179l13 58h-179zM628 185l29 131q19 92 -17 144t-125 52q-60 0 -106.5 -22.5t-77 -66t-44.5 -107.5l-29 -131q-11 -54 0.5 -98t48.5 -70.5t99 -26.5q92 0 148 54t74 141zM600 316l-30 -141q-8 -41 -28.5 -71.5t-52 -47t-73.5 -16.5q-40 0 -66 17
t-35.5 47.5t-1.5 70.5l30 141q10 48 31.5 80.5t54.5 49t77 16.5t68 -16.5t30.5 -49t-4.5 -80.5zM38 0h57l106 501h-56z" />
    <glyph glyph-name="uni044F" unicode="&#x44f;" horiz-adv-x="453" 
d="M319 510q-63 0 -108.5 -22.5t-73 -59t-36.5 -78.5q-7 -34 -1.5 -61.5t20.5 -46.5t37 -30l-124 -212h57l116 198q3 0 10.5 -0.5t15.5 -0.5h10h155l-42 -197h55l106 499l-11.5 1t-31.5 3t-45.5 3.5t-53.5 2.5t-55 1zM229 253q-13 0 -28 4.5t-27 16t-17 31t1 48.5
q10 44 53.5 74t106.5 30q24 0 48 -0.5t43 -1.5t30.5 -1.5l11.5 -0.5l-42 -200h-180z" />
    <glyph glyph-name="uni0450" unicode="&#x450;" horiz-adv-x="421" 
d="M337 656q-1 10 -7 17t-14.5 10t-19.5 -1q-10 -3 -14.5 -11.5t-4.5 -18.5t3 -18l36 -79h36zM116 134l13 62l308 16l28 130q12 55 -4 92t-53.5 56.5t-92.5 19.5q-54 0 -97.5 -19.5t-72.5 -57.5t-41 -94l-41 -197q-9 -42 -2.5 -71.5t25 -47.5t48 -26.5t67.5 -8.5t84.5 12.5
t89.5 34.5l-13 43q-43 -19 -80.5 -30.5t-75.5 -11.5q-24 0 -43 5.5t-31.5 17t-16.5 30.5t1 45zM410 349l-18 -87l-251 -11l18 87q10 40 30.5 67.5t52 42.5t71.5 15q35 0 59.5 -14t34.5 -39.5t3 -60.5z" />
    <glyph glyph-name="uni0451" unicode="&#x451;" horiz-adv-x="421" 
d="M271 657q-13 0 -25 -10t-15 -24q-3 -13 5 -23t21 -10q14 0 26 10t15 23q3 14 -5 24t-22 10zM428 657q-13 0 -25.5 -10t-15.5 -24t5 -23.5t21 -9.5q14 0 26 9.5t15 23.5t-4.5 24t-21.5 10zM116 134l13 62l308 16l28 130q12 55 -4 92t-53.5 56.5t-92.5 19.5
q-54 0 -97.5 -19.5t-72.5 -57.5t-41 -94l-41 -197q-9 -42 -2.5 -71.5t25 -47.5t48 -26.5t67.5 -8.5t84.5 12.5t89.5 34.5l-13 43q-43 -19 -80.5 -30.5t-75.5 -11.5q-24 0 -43 5.5t-31.5 17t-16.5 30.5t1 45zM410 349l-18 -87l-251 -11l18 87q10 40 30.5 67.5t52 42.5
t71.5 15q35 0 59.5 -14t34.5 -39.5t3 -60.5z" />
    <glyph glyph-name="uni0452" unicode="&#x452;" horiz-adv-x="468" 
d="M131 618l-11 -53h236l11 53h-236zM373 510q-25 0 -52 -5.5t-53.5 -15t-48.5 -22.5l50 233h-57l-149 -700h57l90 425q17 9 35 15.5t36 11t36 6.5t35 2q24 0 45 -5.5t36 -19t20.5 -36t-1.5 -56.5l-86 -405q-5 -24 -16.5 -44.5t-29.5 -36t-43 -24.5l6 -43q41 13 68.5 31.5
t44.5 46.5t26 69l87 409q8 40 3.5 70.5t-21.5 51.5t-46.5 31.5t-71.5 10.5z" />
    <glyph glyph-name="uni0453" unicode="&#x453;" horiz-adv-x="317" 
d="M366 634q8 9 11 17.5t1.5 16.5t-9.5 13q-7 5 -16 4t-17 -7t-14 -16l-61 -107h35zM139 500l-106 -500h57l95 447h218l11 53h-275z" />
    <glyph glyph-name="uni0454" unicode="&#x454;" horiz-adv-x="381" 
d="M330 227l32 54h-217l5 25q9 44 30.5 78.5t55.5 54.5t82 19q28 -1 57.5 -7.5t51.5 -17.5l24 45q-29 15 -62.5 23.5t-68.5 8.5q-66 0 -111.5 -25t-72.5 -68t-39 -98l-31 -145q-14 -69 4.5 -110t62 -58.5t103.5 -16.5q29 1 58.5 5t57.5 11v50l-10 -2t-27 -5t-37.5 -5
t-41.5 -2q-37 0 -62.5 8t-39 25t-16 45t5.5 67l9 41h197z" />
    <glyph glyph-name="uni0455" unicode="&#x455;" horiz-adv-x="417" 
d="M416 439l31 37q-21 15 -44 22.5t-45.5 10t-43.5 2.5q-32 0 -65 -9t-60 -27t-44 -45t-17 -62q1 -31 13.5 -53t33 -37.5t45 -27t49 -21t45 -20.5t33.5 -26t13 -36q0 -29 -13 -50.5t-34.5 -35t-45.5 -20.5t-46 -7q-31 0 -57 7.5t-47 22t-39 36.5l-37 -32q26 -40 71.5 -63
t99.5 -23q35 0 70.5 10.5t65.5 30.5t48.5 50.5t19.5 70.5q0 31 -12.5 52.5t-33 36.5t-45.5 26.5t-50 21.5t-46 22t-33.5 27.5t-12.5 38.5q0 24 12 41.5t31.5 29t42 17.5t43.5 7q19 1 38 -1.5t36.5 -8.5t29.5 -15z" />
    <glyph glyph-name="uni0456" unicode="&#x456;" horiz-adv-x="151" 
d="M38 0h57l106 501h-56zM218 710q-13 0 -25.5 -10t-15.5 -24q-3 -13 5 -23t22 -10q13 0 25 10t15 23q3 14 -4.5 24t-21.5 10z" />
    <glyph glyph-name="uni0457" unicode="&#x457;" horiz-adv-x="135" 
d="M128 657q-13 0 -25 -10t-15 -24q-3 -13 5 -23t21 -10q14 0 26 10t15 23q3 14 -5 24t-22 10zM285 657q-13 0 -25.5 -10t-15.5 -24t5 -23.5t21 -9.5q14 0 26 9.5t15 23.5t-4.5 24t-21.5 10zM38 0h57l106 501h-56z" />
    <glyph glyph-name="uni0458" unicode="&#x458;" horiz-adv-x="200" 
d="M136 -63l120 564h-120l-11 -52h64l-109 -511q-5 -25 -16.5 -46t-29.5 -35.5t-43 -23.5l7 -43q40 12 67.5 30.5t45 46.5t25.5 70zM302 676q2 14 -5.5 23.5t-21.5 9.5q-15 0 -27 -9.5t-15 -23.5q-3 -13 5 -23t22 -10t26.5 10t15.5 23z" />
    <glyph glyph-name="uni0459" unicode="&#x459;" horiz-adv-x="795" 
d="M674 303h-169l42 197h-128q-45 0 -76.5 -16t-52.5 -39.5t-34 -47.5t-21 -40l-119 -233q-5 -11 -19.5 -32.5t-37 -42t-53.5 -29.5l31 -31q32 8 53.5 23t39.5 39.5t36 60.5l137 266q8 16 19 29t25 22t30.5 13.5t36.5 4.5h65l-94 -444l11.5 -1t31.5 -2.5t45 -3.5t52 -3
t52 -1q63 0 108.5 22.5t73 59.5t35.5 78q8 36 1.5 64.5t-23.5 47.5t-42.5 29t-55.5 10zM579 45q-24 0 -47 0.5t-41.5 1.5t-29 1.5l-10.5 0.5l43 199h174q13 0 27.5 -4.5t26.5 -15.5t17 -30.5t-1 -48.5q-10 -44 -53.5 -74t-105.5 -30z" />
    <glyph glyph-name="uni045A" unicode="&#x45a;" horiz-adv-x="760" 
d="M641 303h-177l42 197h-57l-42 -197h-254l42 197h-57l-106 -500h57l53 248h254l-53 -246l13 -1t34.5 -2.5t47.5 -3.5t53.5 -3t52.5 -1q63 0 108.5 22.5t73 59.5t36.5 78q8 36 1.5 64.5t-24 48t-43 29.5t-55.5 10zM545 44q-24 0 -48 0.5t-43.5 1.5t-31.5 1.5l-12 0.5
l43 200h182q13 0 28 -4.5t26.5 -16t16.5 -31t-1 -48.5t-28 -53t-56 -37.5t-76 -13.5z" />
    <glyph glyph-name="uni045B" unicode="&#x45b;" horiz-adv-x="444" 
d="M359 564l11 53h-236l-11 -53h236zM197 467l49 233h-56l-149 -700h57l90 425q23 12 45.5 19.5t45 11.5t45.5 4q24 0 45.5 -5.5t37.5 -19t22 -36t-1 -56.5l-73 -343h56l74 346q7 32 5 58t-12.5 45.5t-29 33t-44.5 20.5t-59 7q-24 0 -50 -5.5t-51 -15t-47 -22.5z" />
    <glyph glyph-name="uni045C" unicode="&#x45c;" horiz-adv-x="430" 
d="M384 631q8 9 11 17.5t1.5 16.5t-9.5 13q-7 5 -16 4t-17 -7t-14 -16l-61 -107h35zM340 118l-90 178l233 205h-75l-255 -227l47 225l-53 13l-109 -512h57l42 198l67 56l74 -143q14 -28 30 -53.5t40 -41.5t60 -16h3l10 48h-3q-13 0 -26.5 7.5t-26.5 23.5t-25 39z" />
    <glyph glyph-name="uni045D" unicode="&#x45d;" horiz-adv-x="446" 
d="M331 652q-1 10 -7 17t-14.5 10t-19.5 -1q-10 -3 -14.5 -11.5t-4.5 -18.5t3 -18l36 -79h36zM201 500h-57l-106 -500h69l331 415l-88 -415h57l106 500h-69l-331 -415z" />
    <glyph glyph-name="uni045E" unicode="&#x45e;" horiz-adv-x="503" 
d="M490 673h-45l-1 -7q-6 -28 -31 -48t-54 -20q-35 0 -45.5 20t-5.5 48l2 7h-45l-2 -7q-6 -31 4 -57t32.5 -41t52.5 -15q32 0 60.5 15.5t49.5 41t27 56.5zM72 -209h56l451 709h-64l-257 -412l-74 412h-60l92 -479z" />
    <glyph glyph-name="uni045F" unicode="&#x45f;" horiz-adv-x="444" 
d="M510 500h-57l-94 -443h-254l94 443h-58l-106 -500h159l-21 -107h47l25 107h159z" />
    <glyph glyph-name="uni0462" unicode="&#x462;" horiz-adv-x="479" 
d="M132 617l-11 -53h236l11 53h-236zM379 412h-168l62 288h-57l-149 -701q-1 0 10.5 -1t30 -2.5t40.5 -3t44 -2.5t40 -1q48 0 89.5 7t74.5 26t56.5 54t35.5 92l17 83q9 42 2 72.5t-26 50t-45.5 29t-56.5 9.5zM434 175q-10 -46 -28 -73.5t-43 -41.5t-56.5 -18t-68.5 -4
q-18 0 -33.5 0.5t-28 2t-21.5 2.5t-14.5 1.5t-7.5 0.5l67 312h179q13 0 28 -4t27.5 -15.5t17.5 -32.5t-2 -56z" />
    <glyph glyph-name="uni0463" unicode="&#x463;" horiz-adv-x="481" 
d="M361 303h-175l85 397h-57l-148 -697q4 0 17.5 -1.5t33.5 -3t44.5 -3t51 -2.5t51.5 -1q63 0 108.5 22.5t73 59.5t35.5 78q11 49 -3.5 82.5t-45.5 51t-71 17.5zM266 45q-24 0 -48 0.5t-43.5 1.5t-31 1.5l-11.5 0.5l43 199h180q13 0 27.5 -4.5t26.5 -15.5t17 -30.5t-1 -48.5
t-28 -53t-55.5 -37.5t-75.5 -13.5zM106 500l-12 -57h236l12 57h-236z" />
    <glyph glyph-name="uni046A" unicode="&#x46a;" horiz-adv-x="602" 
d="M452 376h-27l259 324h-473l121 -324h-25q-63 0 -110.5 -23t-78 -65.5t-43.5 -103.5l-39 -184h56l41 194q10 44 33 73t56.5 43.5t73.5 14.5h42l-69 -325h57l69 325h46q60 0 90.5 -32.5t16.5 -98.5l-41 -194h56l39 184q13 61 0.5 103.5t-50 65.5t-100.5 23zM383 405
l-85 238h279z" />
    <glyph glyph-name="uni046B" unicode="&#x46b;" horiz-adv-x="578" 
d="M429 300h-20l199 200h-433l117 -200h-14q-63 0 -110.5 -24t-77.5 -67.5t-43 -104.5l-22 -104h56l24 114q10 44 33 74.5t56 46t73 15.5h44l-53 -250h57l53 250h50q40 0 66.5 -15.5t37.5 -46t1 -74.5l-24 -114h53l22 104q13 61 2 104.5t-47.5 67.5t-99.5 24zM354 316
l-72 127h197z" />
    <glyph glyph-name="uni0472" unicode="&#x472;" horiz-adv-x="492" 
d="M164 380l-12 -57h322l11 57h-321zM142 508l-66 -317q-13 -65 5.5 -110t61 -68.5t100.5 -23.5q62 0 114.5 24t88.5 68t49 105l68 321q21 98 -23.5 153.5t-144.5 55.5q-99 0 -165.5 -53t-87.5 -155zM130 187l70 330q11 49 37 81t64 48.5t84 16.5q48 0 79.5 -16.5t44 -48.5
t1.5 -81l-70 -325q-10 -49 -38 -82.5t-68 -50.5t-86 -17q-44 0 -74 16.5t-42 48.5t-2 80z" />
    <glyph glyph-name="uni0473" unicode="&#x473;" horiz-adv-x="430" 
d="M438 185l29 131q20 92 -16.5 144t-125.5 52q-60 0 -106.5 -22.5t-77 -66t-44.5 -107.5l-29 -131q-11 -54 0.5 -98t48.5 -70.5t99 -26.5q92 0 147.5 54t74.5 141zM410 316l-30 -141q-8 -41 -28.5 -71.5t-52 -47t-73.5 -16.5q-40 0 -66 17t-35.5 47.5t-1.5 70.5l30 141
q10 48 31.5 80.5t54.5 49t77 16.5t68 -16.5t30.5 -49t-4.5 -80.5zM112 280l-13 -58h319l13 58h-319z" />
    <glyph glyph-name="uni0474" unicode="&#x474;" horiz-adv-x="554" 
d="M668 712q-32 -7 -55.5 -23.5t-42.5 -44.5t-39 -68l-254 -508l-44 632h-60l52 -701h77l294 588q7 15 18 32t31 32.5t54 25.5z" />
    <glyph glyph-name="uni0475" unicode="&#x475;" horiz-adv-x="449" 
d="M522 512q-25 -5 -44 -15.5t-35.5 -27t-31 -40t-30.5 -53.5l-158 -305l-40 429h-58l47 -500h72l202 388q8 15 19.5 31.5t32 32.5t54.5 26z" />
    <glyph glyph-name="uni0490" unicode="&#x490;" horiz-adv-x="383" 
d="M494 791l-21 -92l-7 -29h51l26 121h-49zM41 0h57l137 647h278l11 53h-334z" />
    <glyph glyph-name="uni0491" unicode="&#x491;" horiz-adv-x="319" 
d="M385 593l-22 -92l-6 -29h51l26 121h-49zM139 500l-106 -500h57l95 447h218l11 53h-275z" />
    <glyph glyph-name="uni0492" unicode="&#x492;" horiz-adv-x="392" 
d="M88 414l-12 -58h303l12 58h-303zM51 0h57l137 647h278l11 53h-334z" />
    <glyph glyph-name="uni0493" unicode="&#x493;" horiz-adv-x="331" 
d="M64 303l-12 -58h291l12 58h-291zM157 500l-106 -500h57l95 447h218l11 53h-275z" />
    <glyph glyph-name="uni0494" unicode="&#x494;" horiz-adv-x="446" 
d="M345 510q-25 0 -51 -5.5t-51 -15t-47 -22.5l-9 -42q17 9 34 15.5t34.5 11t34.5 6.5t34 2q24 0 45.5 -5.5t37.5 -19t22 -36t-1 -56.5l-45 -211q-5 -26 -17 -46.5t-29.5 -34t-42.5 -21.5l9 -43q29 8 51.5 21t39 30.5t28 41t17.5 52.5l46 214q8 40 3 70.5t-23 51.5t-48 31.5
t-72 10.5zM41 0h57l137 647h278l11 53h-334z" />
    <glyph glyph-name="uni0495" unicode="&#x495;" horiz-adv-x="415" 
d="M282 304q-22 0 -46.5 -5.5t-48 -15t-44.5 -22.5l-8 -42q16 9 32 15.5t32 11t31.5 6.5t30.5 2q21 0 41 -5t35 -17.5t20.5 -34.5t-1.5 -56l-43 -202q-5 -24 -16.5 -44.5t-29.5 -36t-43 -24.5l7 -43q41 13 68 31.5t44 46.5t26 69l44 206q8 40 2.5 70t-23 50t-45.5 30t-65 10
zM139 500l-106 -500h57l95 447h218l11 53h-275z" />
    <glyph glyph-name="uni0496" unicode="&#x496;" horiz-adv-x="680" 
d="M603 57l-12 -57h12l-12 -105h46l34 162h-68zM595 0h61l-144 351l277 349h-62l-261 -323h-18l69 323h-57l-69 -323h-21l-120 323h-60l129 -349l-296 -351h69l271 322h16l-68 -322h57l68 322h25z" />
    <glyph glyph-name="uni0497" unicode="&#x497;" horiz-adv-x="533" 
d="M463 57l-12 -57h12l-12 -105h46l34 162h-68zM622 500h-63l-185 -222h-20l47 222h-57l-47 -222h-20l-85 222h-62l100 -250l-213 -250h67l187 223h15l-48 -223h57l48 223h22l85 -223h64l-98 250z" />
    <glyph glyph-name="uni0498" unicode="&#x498;" horiz-adv-x="461" 
d="M190 412l5 -57h72q40 0 71.5 -7.5t53 -24.5t29 -44.5t-0.5 -66.5q-11 -51 -41.5 -89.5t-80 -60t-117.5 -21.5q-27 0 -52 4t-44.5 10t-30.5 10l-11 4l-22 -46l12.5 -5t34 -11.5t49.5 -11.5t58 -5q70 0 123 19t90 50.5t59 71t31 81.5q14 66 -8.5 109t-74.5 65
q43 20 68 45.5t37.5 53.5t17.5 53q10 44 -2.5 83.5t-49.5 64t-104 24.5q-41 0 -75 -8t-54 -16.5l-20 -8.5l9 -38l17.5 5.5t43.5 10.5t51 5q37 0 63.5 -7.5t43 -23t21.5 -39t-2 -55.5q-8 -37 -31.5 -65t-56.5 -43t-68 -15h-114zM216 11l-2 -9l45 -125q9 -23 2 -40t-24 -23.5
t-40 1.5l-90 34l-26 -39l96 -37q30 -12 56.5 -5t45 26t25 44.5t-3.5 52.5l-41 112l1 5z" />
    <glyph glyph-name="uni0499" unicode="&#x499;" horiz-adv-x="401" 
d="M197 11l-2 -9l45 -125q9 -23 2 -40t-24 -23.5t-40 1.5l-90 34l-26 -39l96 -37q30 -12 56.5 -5t45 26t25 44.5t-3.5 52.5l-41 112l1 5zM184 444q30 10 52 13.5t40 3.5t34 -2q18 -3 30.5 -10t19.5 -18t8.5 -23.5t-1.5 -25.5q-4 -21 -18 -39.5t-34 -30t-42 -11.5h-119l9 -54
h98q15 0 32 -5t31.5 -17t21.5 -31t1 -48t-28 -53t-55.5 -37.5t-75.5 -13.5q-23 0 -46 4.5t-45.5 11.5t-44.5 16l-27 -51q31 -16 75 -25t87 -9q63 0 108.5 22.5t72.5 59.5t36 78q8 41 -6.5 77.5t-51.5 52.5q19 10 35.5 25t28.5 34.5t16 40.5q7 32 -3 62t-40 50t-84 20
q-22 0 -47.5 -3t-55.5 -11z" />
    <glyph glyph-name="uni049A" unicode="&#x49a;" horiz-adv-x="459" 
d="M386 57l-12 -57h12l-12 -105h46l34 162h-68zM177 375l69 325h-56l-149 -700h56l57 269l69 82l152 -351h63l-172 398l269 302h-69z" />
    <glyph glyph-name="uni049B" unicode="&#x49b;" horiz-adv-x="434" 
d="M400 0l-149 296l232 205h-74l-256 -227l48 225l-54 13l-109 -512h57l42 198l67 56l131 -254h65zM351 48l-10 -48h22l-12 -104h46l32 152h-78z" />
    <glyph glyph-name="uni049C" unicode="&#x49c;" horiz-adv-x="535" 
d="M512 0l-177 394l274 306h-65l-254 -288h-21l15 72h-58l-15 -72h-26l61 288h-57l-149 -700h57l76 357h26l-15 -72h58l15 72h30l158 -357h67z" />
    <glyph glyph-name="uni049D" unicode="&#x49d;" horiz-adv-x="480" 
d="M477 47q-19 0 -39.5 18t-38.5 53l-89 178l231 204h-74l-205 -182h-15l15 72h-58l-15 -72h-26l38 180l-54 13l-109 -511h57l56 263h26l-15 -72h58l15 72h24l78 -152q13 -26 29.5 -52t41 -43t59.5 -17z" />
    <glyph glyph-name="uni04A0" unicode="&#x4a0;" horiz-adv-x="527" 
d="M150 700l-11 -49l115 -3h21l11 52h-136zM244 375l69 325h-56l-149 -700h56l57 269l69 82l152 -351h63l-172 398l269 302h-69z" />
    <glyph glyph-name="uni04A1" unicode="&#x4a1;" horiz-adv-x="503" 
d="M410 118l-89 178l231 204h-74l-255 -226l48 226h-165l-10 -49l107 -2l-95 -449h57l42 198l67 56l74 -143q13 -26 29.5 -52t41 -42.5t59.5 -16.5h2l10 48h-4q-13 0 -26 7.5t-25.5 23.5t-24.5 39z" />
    <glyph glyph-name="uni04A2" unicode="&#x4a2;" horiz-adv-x="555" 
d="M456 57l-12 -57h27l-12 -105h47l34 162h-84zM503 412h-318l61 288h-56l-149 -700h57l75 357h318l-76 -357h57l148 700h-56z" />
    <glyph glyph-name="uni04A3" unicode="&#x4a3;" horiz-adv-x="481" 
d="M390 57l-12 -57h30l-12 -105h46l34 162h-86zM413 299h-255l42 201h-57l-106 -500h57l52 245h255l-52 -245h57l106 500h-57z" />
    <glyph glyph-name="uni04A4" unicode="&#x4a4;" horiz-adv-x="592" 
d="M592 700l-11 -52h21l115 3l11 49h-136zM503 412h-318l61 288h-56l-149 -700h57l75 357h318l-76 -357h57l148 700h-56z" />
    <glyph glyph-name="uni04A5" unicode="&#x4a5;" horiz-adv-x="548" 
d="M480 500l-11 -52h32l108 3l10 49h-139zM413 299h-255l42 201h-57l-106 -500h57l52 245h255l-52 -245h57l106 500h-57z" />
    <glyph glyph-name="uni04AA" unicode="&#x4aa;" horiz-adv-x="420" 
d="M210 10l-2 -9l45 -125q9 -23 2 -40t-24 -23.5t-40 1.5l-90 34l-26 -39l96 -37q30 -12 56.5 -5t45 26t25 44.5t-3.5 52.5l-41 112l1 5zM490 639l25 38q-28 17 -62 25t-73 8q-55 0 -103.5 -21t-83.5 -65t-50 -114l-70 -326q-14 -67 0.5 -109.5t55.5 -63.5t104 -21
q38 0 80 8.5t88 24.5l-2 46q-30 -9 -57 -15.5t-51 -10t-44 -3.5q-50 0 -79.5 14.5t-39 47t1.5 84.5l70 328q11 53 36.5 85t64 46.5t86.5 14.5q26 0 52 -5t51 -16z" />
    <glyph glyph-name="uni04AB" unicode="&#x4ab;" horiz-adv-x="377" 
d="M190 10l-2 -9l45 -125q9 -23 2 -40t-24 -23.5t-40 1.5l-90 34l-26 -39l96 -37q30 -12 56.5 -5t45 26t25 44.5t-3.5 52.5l-41 112l1 5zM427 433l24 45q-29 15 -62.5 23.5t-68.5 8.5q-66 0 -111.5 -25t-72.5 -68t-39 -98l-31 -145q-14 -69 4.5 -110t62 -58.5t103.5 -16.5
q29 1 58.5 5t57.5 11v50l-10 -1.5t-27 -4.5t-37.5 -5.5t-41.5 -2.5q-37 0 -62.5 8t-39 25t-16 45t5.5 67l26 120q9 44 30.5 78.5t55.5 54.5t82 19q28 -1 57.5 -7.5t51.5 -17.5z" />
    <glyph glyph-name="uni04AE" unicode="&#x4ae;" horiz-adv-x="487" 
d="M343 342l285 358h-65l-236 -294l-109 294h-63l131 -360l-72 -340h56z" />
    <glyph glyph-name="uni04AF" unicode="&#x4af;" horiz-adv-x="424" 
d="M513 500h-59l-221 -414l-47 414h-58l57 -500l-40 -190l52 -24l45 212z" />
    <glyph glyph-name="uni04B0" unicode="&#x4b0;" horiz-adv-x="487" 
d="M148 218l-12 -58h279l12 58h-279zM343 342l285 358h-65l-236 -294l-109 294h-63l131 -360l-72 -340h56z" />
    <glyph glyph-name="uni04B1" unicode="&#x4b1;" horiz-adv-x="424" 
d="M105 58v-58h214v58h-214zM510 500h-59l-221 -414l-47 414h-58l57 -500l-40 -190l52 -24l45 212z" />
    <glyph glyph-name="uni04B2" unicode="&#x4b2;" horiz-adv-x="559" 
d="M481 57l-12 -57h12l-12 -105h46l34 162h-68zM368 412l-113 288h-63l133 -340l-300 -360h76l248 300l120 -300h63l-139 353l283 347h-74z" />
    <glyph glyph-name="uni04B3" unicode="&#x4b3;" horiz-adv-x="437" 
d="M357 57l-12 -57h12l-12 -105h46l34 162h-68zM281 296l-88 204h-55l104 -249l-211 -251h67l167 200l82 -200h60l-105 245l214 255h-62z" />
    <glyph glyph-name="uni04B6" unicode="&#x4b6;" horiz-adv-x="537" 
d="M453 57l-12 -57h24l-12 -105h46l34 162h-80zM616 700h-57l-59 -277q-7 -34 -27 -58t-47.5 -38t-58.5 -20.5t-60 -6.5q-51 0 -84.5 17t-45.5 51t-2 85l53 247h-56l-52 -245q-13 -64 0.5 -111t54.5 -73t108 -26q32 0 67.5 6.5t68.5 20t56 34.5l-65 -306h57z" />
    <glyph glyph-name="uni04B7" unicode="&#x4b7;" horiz-adv-x="473" 
d="M390 57l-12 -57h27l-12 -105h46l34 162h-83zM347 0h56l87 408q7 32 19 44t27 18l-11 42q-19 -6 -34.5 -16.5t-26.5 -24t-18.5 -29.5t-11.5 -33l-25 -118q-6 -26 -20.5 -49.5t-36 -41.5t-46.5 -28.5t-52 -10.5q-23 0 -45 5.5t-38 18.5t-22.5 36t0.5 58l47 221h-58
l-48 -225q-9 -43 -4 -74.5t23.5 -52t49 -30.5t72.5 -10q25 0 52 6.5t53 19.5t46 33z" />
    <glyph glyph-name="uni04B8" unicode="&#x4b8;" horiz-adv-x="489" 
d="M294 369l-42 -199h58l42 199h-58zM616 700h-57l-59 -277q-7 -34 -27 -58t-47.5 -38t-58.5 -20.5t-60 -6.5q-51 0 -84.5 17t-45.5 51t-2 85l53 247h-56l-52 -245q-13 -64 0.5 -111t54.5 -73t108 -26q32 0 67.5 6.5t68.5 20t56 34.5l-65 -306h57z" />
    <glyph glyph-name="uni04B9" unicode="&#x4b9;" horiz-adv-x="439" 
d="M347 0h56l87 408q7 32 19 44t27 18l-11 42q-19 -6 -34.5 -16.5t-26.5 -24t-18.5 -29.5t-11.5 -33l-25 -118q-6 -26 -20.5 -49.5t-36 -41.5t-46.5 -28.5t-52 -10.5q-23 0 -45 5.5t-38 18.5t-22.5 36t0.5 58l47 221h-58l-48 -225q-9 -43 -4 -74.5t23.5 -52t49 -30.5
t72.5 -10q25 0 52 6.5t53 19.5t46 33zM233 234l-43 -199h58l43 199h-58z" />
    <glyph glyph-name="uni04BA" unicode="&#x4ba;" horiz-adv-x="520" 
d="M248 700h-57l-149 -701h57l59 277q7 35 27 58.5t47.5 37.5t58.5 20.5t61 6.5q52 0 85 -17t45 -51t1 -85l-52 -247h56l52 245q14 64 0 111t-55 73t-108 26q-31 0 -67.5 -6.5t-69.5 -20t-56 -34.5z" />
    <glyph glyph-name="uni04BB" unicode="&#x4bb;" horiz-adv-x="443" 
d="M38 0h57l45 210q6 26 20.5 49.5t35.5 41.5t46 28.5t52 10.5q23 0 45 -5.5t38 -18.5t23 -36t-1 -58l-47 -222h57l48 226q9 43 2.5 74.5t-25.5 52t-48.5 30.5t-67.5 10q-26 0 -54 -7.5t-53 -21.5t-46 -34l36 170h-57z" />
    <glyph glyph-name="uni04C0" unicode="&#x4c0;" horiz-adv-x="187" 
d="M159 651l67 -2l-138 -649h56l149 700h-124z" />
    <glyph glyph-name="uni04C1" unicode="&#x4c1;" horiz-adv-x="678" 
d="M634 852h-45l-1 -7q-6 -28 -31 -48t-54 -20q-35 0 -45.5 20t-5.5 48l2 7h-45l-2 -7q-6 -31 4 -57t32.5 -41t52.5 -15q32 0 60.5 15.5t49.5 41t27 56.5zM595 0h61l-144 351l277 349h-62l-261 -323h-18l69 323h-57l-69 -323h-21l-120 323h-60l129 -349l-296 -351h69
l271 322h16l-68 -322h57l68 322h25z" />
    <glyph glyph-name="uni04C2" unicode="&#x4c2;" horiz-adv-x="533" 
d="M524 673h-45l-1 -7q-6 -28 -31 -48t-54 -20q-35 0 -45.5 20t-5.5 48l2 7h-45l-2 -7q-6 -31 4 -57t32.5 -41t52.5 -15q32 0 60.5 15.5t49.5 41t27 56.5zM622 500h-63l-185 -222h-20l47 222h-57l-47 -222h-20l-85 222h-62l100 -250l-213 -250h67l187 223h15l-48 -223h57
l48 223h22l85 -223h64l-98 250z" />
    <glyph glyph-name="uni04CB" unicode="&#x4cb;" horiz-adv-x="489" 
d="M364 57l-34 -162h46l32 105h30l12 57h-86zM616 700h-57l-59 -277q-7 -34 -27 -58t-47.5 -38t-58.5 -20.5t-60 -6.5q-51 0 -84.5 17t-45.5 51t-2 85l53 247h-56l-52 -245q-13 -64 0.5 -111t54.5 -73t108 -26q32 0 67.5 6.5t68.5 20t56 34.5l-65 -306h57z" />
    <glyph glyph-name="uni04CC" unicode="&#x4cc;" horiz-adv-x="441" 
d="M302 57l-34 -162h46l32 105h29l12 57h-85zM347 0h56l87 408q7 32 19 44t27 18l-11 42q-25 -8 -44 -23.5t-30.5 -36t-16.5 -43.5l-25 -118q-6 -26 -20.5 -49.5t-36 -41.5t-46.5 -28.5t-52 -10.5q-23 0 -45 5.5t-38 18.5t-22.5 36t0.5 58l47 221h-58l-48 -225
q-9 -43 -4 -74.5t23.5 -52t49 -30.5t72.5 -10q25 0 52 6.5t53 19.5t46 33z" />
    <glyph glyph-name="uni04CF" unicode="&#x4cf;" horiz-adv-x="187" 
d="M159 651l67 -2l-138 -649h56l149 700h-124z" />
    <glyph glyph-name="uni04D0" unicode="&#x4d0;" horiz-adv-x="545" 
d="M566 854h-45l-1 -7q-6 -28 -31 -48t-54 -20q-35 0 -45.5 20t-5.5 48l2 7h-45l-2 -7q-6 -31 4 -57t32.5 -41t52.5 -15q32 0 60.5 15.5t49.5 41t27 56.5zM527 0l-79 700h-53l-374 -700h60l131 245h227l29 -245h59zM238 300l164 314l34 -314h-198z" />
    <glyph glyph-name="uni04D1" unicode="&#x4d1;" horiz-adv-x="436" 
d="M467 672h-45l-1 -7q-6 -28 -31 -48t-54 -20q-35 0 -45.5 20t-5.5 48l2 7h-45l-2 -7q-6 -31 4 -57t32.5 -41t52.5 -15q32 0 60.5 15.5t49.5 41t27 56.5zM507 487l-40 21q-8 -13 -15 -28l-7 -15q-24 13 -50.5 22.5t-53.5 15t-54 5.5q-28 0 -56 -7.5t-52.5 -25t-43.5 -47
t-28 -74.5l-40 -185q-12 -56 -2.5 -91t33.5 -53t57.5 -24t69.5 -5q14 0 35.5 1t45 2t44.5 2.5t34.5 2t12.5 0.5l85 396q8 37 16.5 62zM121 163l40 188q8 37 23.5 58t34.5 31t37 13t31 3q17 0 33 -2.5t32.5 -7.5t35 -12.5t40.5 -18.5l-77 -363l-11 -1t-30 -2t-43 -2t-51 -1
q-39 0 -63 13.5t-32 40t0 63.5z" />
    <glyph glyph-name="uni04D2" unicode="&#x4d2;" horiz-adv-x="545" 
d="M375 852q-13 0 -25 -10t-15 -24q-3 -13 5 -23t21 -10q14 0 26 10t15 23q3 14 -5 24t-22 10zM532 852q-13 0 -25.5 -10t-15.5 -24t5 -23.5t21 -9.5q14 0 26 9.5t15 23.5t-4.5 24t-21.5 10zM527 0l-79 700h-53l-374 -700h60l131 245h227l29 -245h59zM238 300l164 314
l34 -314h-198z" />
    <glyph glyph-name="uni04D3" unicode="&#x4d3;" horiz-adv-x="436" 
d="M293 660q-13 0 -25 -10t-15 -24q-3 -13 5 -23t21 -10q14 0 26 10t15 23q3 14 -5 24t-22 10zM450 660q-13 0 -25.5 -10t-15.5 -24t5 -23.5t21 -9.5q14 0 26 9.5t15 23.5t-4.5 24t-21.5 10zM507 487l-40 21q-8 -13 -15 -28l-7 -15q-24 13 -50.5 22.5t-53.5 15t-54 5.5
q-28 0 -56 -7.5t-52.5 -25t-43.5 -47t-28 -74.5l-40 -185q-12 -56 -2.5 -91t33.5 -53t57.5 -24t69.5 -5q14 0 35.5 1t45 2t44.5 2.5t34.5 2t12.5 0.5l85 396q8 37 16.5 62zM121 163l40 188q8 37 23.5 58t34.5 31t37 13t31 3q17 0 33 -2.5t32.5 -7.5t35 -12.5t40.5 -18.5
l-77 -363l-11 -1t-30 -2t-43 -2t-51 -1q-39 0 -63 13.5t-32 40t0 63.5z" />
    <glyph glyph-name="uni04D4" unicode="&#x4d4;" horiz-adv-x="744" 
d="M384 0h334l11 50h-277l65 306h173l31 58h-191l49 233h280l11 53h-429l-421 -700h59l146 244h211zM258 300l210 347h54l-74 -347h-190z" />
    <glyph glyph-name="uni04D5" unicode="&#x4d5;" horiz-adv-x="749" 
d="M429 350q-20 14 -46 26t-55.5 19.5t-62.5 7.5q-30 0 -59.5 -8t-54.5 -25.5t-43.5 -46.5t-27.5 -71l-18 -83q-11 -55 -1 -91t36.5 -55.5t66 -26.5t87.5 -6q15 0 35.5 1t42.5 2.5t41 3t30.5 2.5t10.5 1l62 288q12 60 11.5 102.5t-18 68.5t-55.5 38t-100 12l-11 -43
q29 0 56 -4t46 -16.5t27 -35t0 -60.5zM419 303l-54 -257l-5 -0.5t-14 -1t-22.5 -2t-30 -2.5t-36.5 -2q-51 -2 -82 5.5t-45.5 25t-16.5 44.5t6 63l16 74q7 34 21 54.5t30.5 31.5t33.5 15t30 4q32 0 61.5 -7t57 -19t50.5 -26zM441 134l13 62l308 16l28 130q12 55 -4 92
t-53.5 56.5t-92.5 19.5q-54 0 -97.5 -19.5t-72.5 -57.5t-41 -94l-41 -197q-9 -42 -2.5 -71.5t25 -47.5t48 -26.5t67.5 -8.5t84.5 12.5t89.5 34.5l-13 43q-43 -19 -80.5 -30.5t-75.5 -11.5q-24 0 -43 5.5t-31.5 17t-16.5 30.5t1 45zM735 349l-18 -87l-251 -11l18 87
q10 40 30.5 67.5t52 42.5t71.5 15q35 0 59.5 -14t34.5 -39.5t3 -60.5z" />
    <glyph glyph-name="uni04D6" unicode="&#x4d6;" horiz-adv-x="403" 
d="M503 852h-45l-1 -7q-6 -28 -31 -48t-54 -20q-35 0 -45.5 20t-5.5 48l2 7h-45l-2 -7q-6 -31 4 -57t32.5 -41t52.5 -15q32 0 60.5 15.5t49.5 41t27 56.5zM41 0h332l11 50h-276l65 307h176l27 55h-191l50 236h278l11 52h-334z" />
    <glyph glyph-name="uni04D7" unicode="&#x4d7;" horiz-adv-x="421" 
d="M483 671h-45l-1 -7q-6 -28 -31 -48t-54 -20q-35 0 -45.5 20t-5.5 48l2 7h-45l-2 -7q-6 -31 4 -57t32.5 -41t52.5 -15q32 0 60.5 15.5t49.5 41t27 56.5zM116 134l13 62l308 16l28 130q12 55 -4 92t-53.5 56.5t-92.5 19.5q-54 0 -97.5 -19.5t-72.5 -57.5t-41 -94l-41 -197
q-9 -42 -2.5 -71.5t25 -47.5t48 -26.5t67.5 -8.5t84.5 12.5t89.5 34.5l-13 43q-43 -19 -80.5 -30.5t-75.5 -11.5q-24 0 -43 5.5t-31.5 17t-16.5 30.5t1 45zM410 349l-18 -87l-251 -11l18 87q10 40 30.5 67.5t52 42.5t71.5 15q35 0 59.5 -14t34.5 -39.5t3 -60.5z" />
    <glyph glyph-name="uni04D8" unicode="&#x4d8;" horiz-adv-x="490" 
d="M413 709q-39 0 -76.5 -8t-72.5 -25l9 -38q20 8 39 12.5t37 6.5t35 2q49 0 81 -14.5t43.5 -46.5t0.5 -85l-35 -163l-368 -16l-32 -149q-10 -46 -2.5 -82.5t30 -62t58.5 -39t82 -13.5q59 0 112 22t91 66t51 109l69 324q11 53 4.5 90.5t-28 62t-54.5 36t-74 11.5zM256 41
q-34 0 -61 9t-44 26.5t-22.5 45t2.5 64.5l20 95l312 14l-23 -109q-8 -36 -25 -63t-41.5 -45.5t-54.5 -27.5t-63 -9z" />
    <glyph glyph-name="uni04D9" unicode="&#x4d9;" horiz-adv-x="422" 
d="M412 364l-13 -62l-308 -16l-28 -130q-11 -54 4.5 -91.5t53.5 -57t92 -19.5q55 0 98 19.5t72.5 58t40.5 93.5l41 197q9 42 2.5 71.5t-25 47.5t-48 26.5t-67.5 8.5t-84.5 -12t-89.5 -35l13 -43q43 20 81 31t75 11q24 0 43 -5.5t31.5 -17t16.5 -30.5t-1 -45zM118 149l18 87
l251 11l-18 -87q-9 -39 -30 -67t-52 -43t-72 -15q-35 0 -59 14t-34.5 40t-3.5 60z" />
    <glyph glyph-name="uni04DC" unicode="&#x4dc;" horiz-adv-x="681" 
d="M438 852q-13 0 -25 -10t-15 -24q-3 -13 5 -23t21 -10q14 0 26 10t15 23q3 14 -5 24t-22 10zM595 852q-13 0 -25.5 -10t-15.5 -24t5 -23.5t21 -9.5q14 0 26 9.5t15 23.5t-4.5 24t-21.5 10zM595 0h61l-144 351l277 349h-62l-261 -323h-18l69 323h-57l-69 -323h-21l-120 323
h-60l129 -349l-296 -351h69l271 322h16l-68 -322h57l68 322h25z" />
    <glyph glyph-name="uni04DD" unicode="&#x4dd;" horiz-adv-x="535" 
d="M323 659q-13 0 -25 -10t-15 -24q-3 -13 5 -23t21 -10q14 0 26 10t15 23q3 14 -5 24t-22 10zM480 659q-13 0 -25.5 -10t-15.5 -24t5 -23.5t21 -9.5q14 0 26 9.5t15 23.5t-4.5 24t-21.5 10zM622 500h-63l-185 -222h-20l47 222h-57l-47 -222h-20l-85 222h-62l100 -250
l-213 -250h67l187 223h15l-48 -223h57l48 223h22l85 -223h64l-98 250z" />
    <glyph glyph-name="uni04DE" unicode="&#x4de;" horiz-adv-x="461" 
d="M333 853q-13 0 -25 -10t-15 -24q-3 -13 5 -23t21 -10q14 0 26 10t15 23q3 14 -5 24t-22 10zM490 853q-13 0 -25.5 -10t-15.5 -24t5 -23.5t21 -9.5q14 0 26 9.5t15 23.5t-4.5 24t-21.5 10zM190 412l5 -57h72q40 0 71.5 -7.5t53 -24.5t29 -44.5t-0.5 -66.5
q-11 -51 -41.5 -89.5t-80 -60t-117.5 -21.5q-27 0 -52 4t-44.5 10t-30.5 10l-11 4l-22 -46l12.5 -5t34 -11.5t49.5 -11.5t58 -5q70 0 123 19t90 50.5t59 71t31 81.5q14 66 -8.5 109t-74.5 65q43 20 68 45.5t37.5 53.5t17.5 53q10 44 -2.5 83.5t-49.5 64t-104 24.5
q-41 0 -75 -8t-54 -16.5l-20 -8.5l9 -38l17.5 5.5t43.5 10.5t51 5q37 0 63.5 -7.5t43 -23t21.5 -39t-2 -55.5q-8 -37 -31.5 -65t-56.5 -43t-68 -15h-114z" />
    <glyph glyph-name="uni04DF" unicode="&#x4df;" horiz-adv-x="401" 
d="M276 658q-13 0 -25 -10t-15 -24q-3 -13 5 -23t21 -10q14 0 26 10t15 23q3 14 -5 24t-22 10zM433 658q-13 0 -25.5 -10t-15.5 -24t5 -23.5t21 -9.5q14 0 26 9.5t15 23.5t-4.5 24t-21.5 10zM187 444q30 10 52 13.5t40 3.5t34 -2q18 -3 30.5 -10t19.5 -18t8.5 -23.5
t-1.5 -25.5q-4 -21 -18 -39.5t-34 -30t-42 -11.5h-119l9 -54h98q15 0 32 -5t31.5 -17t21.5 -31t1 -48t-28 -53t-55.5 -37.5t-75.5 -13.5q-23 0 -46 4.5t-45.5 11.5t-44.5 16l-27 -51q31 -16 75 -25t87 -9q63 0 108.5 22.5t72.5 59.5t36 78q8 41 -6.5 77.5t-51.5 52.5
q19 10 35.5 25t28.5 34.5t16 40.5q7 32 -3 62t-40 50t-84 20q-22 0 -47.5 -3t-55.5 -11z" />
    <glyph glyph-name="uni04E2" unicode="&#x4e2;" horiz-adv-x="577" 
d="M572 865h-221l-12 -54h221zM190 700l-149 -700h56l507 597l-127 -597h57l149 700h-57l-507 -597l127 597h-56z" />
    <glyph glyph-name="uni04E3" unicode="&#x4e3;" horiz-adv-x="446" 
d="M480 683h-221l-12 -54h221zM201 500h-57l-106 -500h69l331 415l-88 -415h57l106 500h-69l-331 -415z" />
    <glyph glyph-name="uni04E4" unicode="&#x4e4;" horiz-adv-x="577" 
d="M382 850q-13 0 -25 -10t-15 -24q-3 -13 5 -23t21 -10q14 0 26 10t15 23q3 14 -5 24t-22 10zM539 850q-13 0 -25.5 -10t-15.5 -24t5 -23.5t21 -9.5q14 0 26 9.5t15 23.5t-4.5 24t-21.5 10zM190 700l-149 -700h56l507 597l-127 -597h57l149 700h-57l-507 -597l127 597h-56z
" />
    <glyph glyph-name="uni04E5" unicode="&#x4e5;" horiz-adv-x="446" 
d="M276 657q-13 0 -25 -10t-15 -24q-3 -13 5 -23t21 -10q14 0 26 10t15 23q3 14 -5 24t-22 10zM433 657q-13 0 -25.5 -10t-15.5 -24t5 -23.5t21 -9.5q14 0 26 9.5t15 23.5t-4.5 24t-21.5 10zM201 500h-57l-106 -500h69l331 415l-88 -415h57l106 500h-69l-331 -415z" />
    <glyph glyph-name="uni04E6" unicode="&#x4e6;" horiz-adv-x="488" 
d="M348 852q-13 0 -25 -10t-15 -24q-3 -13 5 -23t21 -10q14 0 26 10t15 23q3 14 -5 24t-22 10zM505 852q-13 0 -25.5 -10t-15.5 -24t5 -23.5t21 -9.5q14 0 26 9.5t15 23.5t-4.5 24t-21.5 10zM142 508l-66 -317q-13 -65 5.5 -110t61 -68.5t100.5 -23.5q62 0 114.5 24t88.5 68
t49 105l68 321q21 98 -23.5 153.5t-144.5 55.5q-99 0 -165.5 -53t-87.5 -155zM130 187l70 330q11 49 37 81t64 48.5t84 16.5q48 0 79.5 -16.5t44 -48.5t1.5 -81l-70 -325q-10 -49 -38 -82.5t-68 -50.5t-86 -17q-44 0 -74 16.5t-42 48.5t-2 80z" />
    <glyph glyph-name="uni04E7" unicode="&#x4e7;" horiz-adv-x="427" 
d="M277 657q-13 0 -25 -10t-15 -24q-3 -13 5 -23t21 -10q14 0 26 10t15 23q3 14 -5 24t-22 10zM434 657q-13 0 -25.5 -10t-15.5 -24t5 -23.5t21 -9.5q14 0 26 9.5t15 23.5t-4.5 24t-21.5 10zM438 185l29 131q19 92 -17 144t-125 52q-60 0 -106.5 -22.5t-77 -66t-44.5 -107.5
l-29 -131q-11 -54 0.5 -98t48.5 -70.5t99 -26.5q92 0 148 54t74 141zM410 316l-30 -141q-8 -41 -28.5 -71.5t-52 -47t-73.5 -16.5q-40 0 -66 17t-35.5 47.5t-1.5 70.5l30 141q10 48 31.5 80.5t54.5 49t77 16.5t68 -16.5t30.5 -49t-4.5 -80.5z" />
    <glyph glyph-name="uni04E8" unicode="&#x4e8;" horiz-adv-x="492" 
d="M164 380l-12 -57h322l11 57h-321zM142 508l-66 -317q-13 -65 5.5 -110t61 -68.5t100.5 -23.5q62 0 114.5 24t88.5 68t49 105l68 321q21 98 -23.5 153.5t-144.5 55.5q-99 0 -165.5 -53t-87.5 -155zM130 187l70 330q11 49 37 81t64 48.5t84 16.5q48 0 79.5 -16.5t44 -48.5
t1.5 -81l-70 -325q-10 -49 -38 -82.5t-68 -50.5t-86 -17q-44 0 -74 16.5t-42 48.5t-2 80z" />
    <glyph glyph-name="uni04E9" unicode="&#x4e9;" horiz-adv-x="430" 
d="M438 185l29 131q20 92 -16.5 144t-125.5 52q-60 0 -106.5 -22.5t-77 -66t-44.5 -107.5l-29 -131q-11 -54 0.5 -98t48.5 -70.5t99 -26.5q92 0 147.5 54t74.5 141zM410 316l-30 -141q-8 -41 -28.5 -71.5t-52 -47t-73.5 -16.5q-40 0 -66 17t-35.5 47.5t-1.5 70.5l30 141
q10 48 31.5 80.5t54.5 49t77 16.5t68 -16.5t30.5 -49t-4.5 -80.5zM112 280l-13 -58h319l13 58h-319z" />
    <glyph glyph-name="uni04EE" unicode="&#x4ee;" horiz-adv-x="484" 
d="M521 825h-221l-12 -54h221zM563 700l-255 -375l-94 375h-58l111 -438l-94 -139q-7 -11 -25 -32.5t-44 -42t-59 -29.5l30 -31q25 6 45 15.5t37.5 24.5t34.5 35.5t36 47.5l399 589h-64z" />
    <glyph glyph-name="uni04EF" unicode="&#x4ef;" horiz-adv-x="486" 
d="M488 677h-221l-12 -54h221zM62 -209h56l451 709h-64l-257 -412l-74 412h-60l92 -479z" />
    <glyph glyph-name="uni04F0" unicode="&#x4f0;" horiz-adv-x="484" 
d="M342 852q-13 0 -25 -10t-15 -24q-3 -13 5 -23t21 -10q14 0 26 10t15 23q3 14 -5 24t-22 10zM499 852q-13 0 -25.5 -10t-15.5 -24t5 -23.5t21 -9.5q14 0 26 9.5t15 23.5t-4.5 24t-21.5 10zM563 700l-255 -375l-94 375h-58l111 -438l-94 -139q-7 -11 -25 -32.5t-44 -42
t-59 -29.5l30 -31q25 6 45 15.5t37.5 24.5t34.5 35.5t36 47.5l399 589h-64z" />
    <glyph glyph-name="uni04F1" unicode="&#x4f1;" horiz-adv-x="486" 
d="M289 659q-13 0 -25 -10t-15 -24q-3 -13 5 -23t21 -10q14 0 26 10t15 23q3 14 -5 24t-22 10zM446 659q-13 0 -25.5 -10t-15.5 -24t5 -23.5t21 -9.5q14 0 26 9.5t15 23.5t-4.5 24t-21.5 10zM62 -209h56l451 709h-64l-257 -412l-74 412h-60l92 -479z" />
    <glyph glyph-name="uni04F2" unicode="&#x4f2;" horiz-adv-x="484" 
d="M419 833q8 8 11 17t1.5 17.5t-9.5 13.5t-17 3.5t-17 -7.5t-14 -16l-61 -106h35zM530 833q8 9 11 18t1.5 17t-9.5 13t-17 3.5t-17 -7.5t-14 -16l-59 -106h35zM563 700l-255 -375l-94 375h-58l111 -438l-94 -139q-7 -11 -25 -32.5t-44 -42t-59 -29.5l30 -31q25 6 45 15.5
t37.5 24.5t34.5 35.5t36 47.5l399 589h-64z" />
    <glyph glyph-name="uni04F3" unicode="&#x4f3;" horiz-adv-x="486" 
d="M387 649q8 8 11 17t1.5 17.5t-9.5 13.5t-17 3.5t-17 -7.5t-14 -16l-61 -106h35zM498 649q8 9 11 18t1.5 17t-9.5 13t-17 3.5t-17 -7.5t-14 -16l-59 -106h35zM72 -209h56l451 709h-64l-257 -412l-74 412h-60l92 -479z" />
    </font>
</defs>
</svg>
