<?xml version="1.0" standalone="no"?>
<!DOCTYPE svg PUBLIC "-//W3C//DTD SVG 1.1//EN" "http://www.w3.org/Graphics/SVG/1.1/DTD/svg11.dtd" >
<svg xmlns="http://www.w3.org/2000/svg" xmlns:xlink="http://www.w3.org/1999/xlink" version="1.1">
<metadata>
Created by FontForge 20170731 at Fri Nov 25 18:45:57 2022
 By Aleksey,,,
Copyright 2018 The Advent Pro Project Authors (https://github.com/googlefonts/Advent)
</metadata>
<defs>
<font id="AdventPro-Regular" horiz-adv-x="267" >
  <font-face 
    font-family="Advent Pro"
    font-weight="400"
    font-stretch="normal"
    units-per-em="1000"
    panose-1="0 0 0 0 0 0 0 0 0 0"
    ascent="800"
    descent="-200"
    x-height="499"
    cap-height="700"
    bbox="-65 -235.579 1904 962"
    underline-thickness="50"
    underline-position="-175"
    unicode-range="U+000D-FB04"
  />
<missing-glyph horiz-adv-x="500" 
d="M50 -232v1194h400v-1194h-400zM100 -182h300v1094h-300v-1094z" />
    <glyph glyph-name="fi" unicode="fi" horiz-adv-x="365" 
d="M326 614v54q-16 12 -38 21t-48 14.5t-55 5.5q-34 1 -61.5 -9.5t-46 -29.5t-28.5 -46.5t-10 -61.5v-562h57v447h91l23 53h-114v64q0 28 8 48t27.5 31t51.5 11q44 0 81 -11.5t62 -28.5zM326 0v500h-57v-500h57z" />
    <glyph glyph-name="fl" unicode="fl" horiz-adv-x="370" 
d="M271 623v-623h57v658q-21 18 -44 28.5t-46 15.5t-45 5q-31 0 -59 -10t-48.5 -29.5t-32.5 -46t-12 -59.5v-562h57v447h91l24 53h-115v50q0 26 7.5 45t20.5 30.5t29.5 17t34.5 5.5q16 0 36 -5.5t45 -19.5z" />
    <glyph glyph-name="ffl" unicode="ffl" horiz-adv-x="598" 
d="M500 629v-629h56v666q-20 14 -40 22.5t-41.5 12.5t-46.5 4q-24 0 -45 -4.5t-38 -13.5t-31 -23q-28 21 -62 31.5t-70 10.5q-19 0 -43 -7.5t-47 -24t-38 -44.5t-15 -69v-561h57v447h91l23 53h-114v50q0 40 13.5 63.5t37.5 33t55 5.5q13 -1 26 -5t27 -10.5t29 -16.5
q-6 -14 -10.5 -28.5t-4.5 -30.5v-561h60v447h90l24 53h-114v57q0 14 3 25.5t9.5 21.5t16 18.5t21.5 15.5q14 8 31.5 10.5t40 -1.5t49.5 -18z" />
    <glyph glyph-name="ft" unicode="ft" horiz-adv-x="471" 
d="M325 133v314h97l23 53h-119v156q-21 18 -43.5 29t-45.5 16t-45 5q-31 0 -58.5 -10t-48.5 -29t-32.5 -45.5t-11.5 -59.5v-562h57v447h89l24 53h-113v50q0 35 12.5 56.5t33.5 31.5t45 10q16 0 37 -4t44 -21v-490q0 -39 11 -68t34 -48t60 -30l16 43q-22 8 -36.5 21.5t-22 34
t-7.5 47.5z" />
    <glyph glyph-name="w_w_w" unicode="www" horiz-adv-x="1926" 
d="M386 499h-57l-112 -442l-135 442h-58l152 -499h78l102 405l100 -405h77l156 499h-59l-134 -442zM994 499h-57l-112 -442l-135 442h-58l152 -499h78l102 405l100 -405h77l156 499h-59l-134 -442zM1601 499h-57l-112 -442l-135 442h-58l152 -499h78l102 405l100 -405h77
l156 499h-59l-134 -442z" />
    <glyph glyph-name="t_t" unicode="tt" horiz-adv-x="380" 
d="M96 132v316h107v52h-107v200h-56v-568q0 -39 11 -67.5t34.5 -47.5t59.5 -30l17 43q-16 6 -28.5 15t-21 22t-12.5 29t-4 36zM245 132v316h97l24 52h-121v200h-56v-568q0 -58 25 -93t80 -52l17 43q-22 8 -37 21.5t-22 34t-7 46.5z" />
    <glyph glyph-name="gamma_gamma" unicode="&#x3b3;&#x3b3;" horiz-adv-x="864" 
d="M436 500h-57l-139 -457q-9 5 -16 11.5t-13.5 17t-13 27.5t-13.5 41l-107 360h-57l109 -371q9 -30 20 -56.5t29 -46.5t46 -32l-22 -73q-5 -16 -13 -30t-19.5 -24t-27.5 -16t-36 -7l10 -43q45 1 72 16.5t42 38.5t22.5 46.5t12.5 39.5zM845 479l-38 31q-29 -6 -47.5 -21
t-30.5 -40t-23 -62l-105 -344q-9 5 -16.5 11.5t-13.5 17t-12.5 27.5t-13.5 41l-107 360h-57l109 -371q8 -30 19 -56.5t29 -46.5t47 -32l-22 -73q-5 -16 -13 -30t-20 -24t-27.5 -16t-35.5 -7l10 -43q45 1 72 16.5t42 38.5t22.5 46.5t12.5 39.5l130 433q9 31 18 50.5t25.5 32
t45.5 21.5z" />
    <glyph glyph-name="gamma_kappa" unicode="&#x3b3;&#x3ba;" horiz-adv-x="884" 
d="M498 469l-10 43q-35 3 -61.5 -9t-45.5 -37t-30 -61l-111 -362q-9 5 -16 11.5t-13.5 17t-13 27.5t-13.5 41l-107 360h-57l109 -371q9 -30 20 -56.5t29 -46.5t46 -32l-22 -73q-5 -16 -13 -30t-19.5 -24t-27.5 -16t-36 -7l10 -43q45 1 72 16.5t42 38.5t22.5 46.5t12.5 39.5
l136 451q8 25 18 43.5t28.5 27.5t50.5 5zM765 118l-127 178l188 205h-74l-207 -227v225l-57 13v-512h57v198l55 56l104 -143q19 -26 41 -52t49.5 -42.5t63.5 -16.5h2v48h-4q-13 0 -28 7.5t-30.5 23.5t-32.5 39z" />
    <glyph glyph-name="lambda_lambda" unicode="&#x3bb;&#x3bb;" horiz-adv-x="859" 
d="M434 -1l-166 558q-5 16 -12.5 39.5t-22.5 46t-42.5 38t-72.5 16.5l-10 -43q20 0 35.5 -6t27.5 -16t20 -24t13 -30l22 -72q-28 -11 -46 -31.5t-28.5 -47.5t-19.5 -56l-109 -372h56l106 361q9 32 18 50.5t19 29t21 16.5l136 -457h55zM754 124l-130 433q-5 16 -12.5 39.5
t-23 46t-42.5 38t-72 16.5l-10 -43q26 0 45 -10t31.5 -27t19.5 -39l22 -72q-29 -11 -46.5 -31.5t-28.5 -47.5t-19 -56l-109 -372h56l106 361q9 32 17.5 50.5t18.5 29t22 16.5l103 -344q11 -36 23 -60.5t31 -39.5t49 -23l37 31q-29 9 -47.5 29.5t-28 42t-12.5 32.5z" />
    <glyph glyph-name="sigma_tau" unicode="&#x3c3;&#x3c4;" horiz-adv-x="796" 
d="M641 432v-299q0 -27 7.5 -47t22.5 -34t36 -22l-16 -43q-28 8 -48 21t-33 30.5t-19 41t-6 53.5v299q-43 0 -84.5 2t-76.5 5.5t-61 7.5q14 -15 24.5 -43t10.5 -84v-135q0 -88 -45 -141.5t-136 -53.5q-62 0 -104.5 26.5t-63.5 70.5t-21 98v135q0 57 17 94.5t44.5 58.5
t60.5 30t65 9q24 0 46.5 -1.5t41.5 -3.5t33 -4q56 -6 111.5 -10t111.5 -5t114.5 2t120.5 11v-54q-34 -7 -73 -10t-80 -5zM307 452q-14 1 -29.5 2.5t-31.5 3t-31 1.5q-22 0 -44.5 -6.5t-41.5 -21.5t-30.5 -40.5t-11.5 -63.5v-152q0 -40 16 -70.5t45.5 -47.5t69.5 -17
q63 0 93 37t30 98v159q0 19 -2 34.5t-5.5 29t-7.5 23.5t-9 18t-10 13z" />
    <glyph glyph-name=".notdef" horiz-adv-x="500" 
d="M50 -232v1194h400v-1194h-400zM100 -182h300v1094h-300v-1094z" />
    <glyph glyph-name=".null" horiz-adv-x="0" 
 />
    <glyph glyph-name="nonmarkingreturn" horiz-adv-x="333" 
 />
    <glyph glyph-name="NULL" horiz-adv-x="0" 
 />
    <glyph glyph-name="NULL" horiz-adv-x="0" 
 />
    <glyph glyph-name="CR" unicode="&#xd;" horiz-adv-x="377" 
 />
    <glyph glyph-name="space" unicode=" " horiz-adv-x="280" 
 />
    <glyph glyph-name="exclam" unicode="!" horiz-adv-x="148" 
d="M40 673l10 -552h48l9 553q0 18 -8.5 27t-25.5 9q-16 0 -24.5 -8.5t-8.5 -28.5zM73 67q-13 0 -23 -9.5t-10 -23.5q0 -13 10 -23.5t23 -10.5q14 0 24 10.5t10 23.5q0 14 -10 23.5t-24 9.5z" />
    <glyph glyph-name="quotedbl" unicode="&#x22;" 
d="M167 703l14 -115h40l14 115q0 18 -10.5 26.5t-23.5 8.5t-23.5 -8.5t-10.5 -26.5zM31 703l14 -115h39l16 115q0 18 -10.5 26.5t-24 8.5t-24 -8.5t-10.5 -26.5z" />
    <glyph glyph-name="numbersign" unicode="#" horiz-adv-x="611" 
d="M392 244l40 170h147v57h-135l55 229h-55l-54 -229h-118l53 229h-55l-53 -229h-187v-57h173l-39 -170h-134v-54h121l-44 -190h55l44 190h118l-44 -190h55l44 190h200v54h-187zM338 244h-119l39 170h119z" />
    <glyph glyph-name="dollar" unicode="$" horiz-adv-x="530" 
d="M249 -114h56v932h-56v-932zM422 624l16 48q-23 13 -48.5 21t-51.5 12t-53 4q-40 0 -80 -9t-72.5 -29t-52 -53t-19.5 -80q0 -39 16 -68t43.5 -50t61 -37.5t69.5 -30.5t69.5 -29t61 -33.5t43 -43t15.5 -58.5q0 -40 -14.5 -68t-40 -45t-57.5 -25t-68 -8q-34 0 -72 9.5
t-72 28.5t-55 47l-35 -35q31 -36 68.5 -59t80 -34t89.5 -11q45 0 87 11t76 34.5t53.5 60t19.5 86.5q0 46 -16 79.5t-43 57t-61 41t-70 31.5t-70 28t-61 31t-43.5 40t-16.5 55q0 33 16 55t41 34.5t54 17.5t56 5q24 0 47.5 -3t46 -10t42.5 -18z" />
    <glyph glyph-name="percent" unicode="%" horiz-adv-x="713" 
d="M48 0h68l535 700h-64zM176 714q-40 0 -73.5 -19.5t-53.5 -52.5t-20 -74q0 -40 20 -73t53.5 -53t73.5 -20t73 20t52.5 53t19.5 73q0 41 -19.5 74t-52.5 52.5t-73 19.5zM176 663q26 0 47 -13t34 -34.5t13 -47.5q0 -25 -13 -46.5t-34 -34.5t-47 -13t-48 13t-35 34.5
t-13 46.5q0 26 13 47.5t35 34.5t48 13zM536 277q-39 0 -72 -19.5t-53 -52.5t-20 -73t20 -73.5t53 -53t72 -19.5q41 0 73.5 19.5t52 53t19.5 73.5t-19.5 73t-52 52.5t-73.5 19.5zM536 227q27 0 48.5 -12.5t34 -34t12.5 -48.5q0 -26 -12.5 -48t-34 -34.5t-48.5 -12.5
q-25 0 -46.5 12.5t-34.5 34.5t-13 48q0 27 13 48.5t34.5 34t46.5 12.5z" />
    <glyph glyph-name="ampersand" unicode="&#x26;" horiz-adv-x="529" 
d="M379 653l25 51h-165q-46 0 -78.5 -20t-49 -55t-14.5 -81q1 -20 7.5 -46.5t23 -52.5t46.5 -46h-19q-27 0 -50 -8.5t-40 -26.5t-26 -46t-9 -67v-95q0 -34 8 -61t23 -46.5t37 -32.5t49.5 -19.5t60.5 -6.5q22 0 50.5 7t56.5 22t48 39q11 -27 34.5 -43.5t57.5 -27.5l13 43
q-34 12 -51.5 37.5t-17.5 65.5v213h77l23 54h-100v103h-53v-104h-50q-30 0 -56 11t-45.5 30.5t-30.5 45t-11 55.5q0 48 23 78t66 30h137zM346 350v-173q0 -35 -15 -62t-43 -44t-69 -21q-43 -4 -72.5 9t-45 40t-15.5 66v87q0 35 10 54.5t26 29t33 12t30 2.5h161z" />
    <glyph glyph-name="quotesingle" unicode="'" 
d="M100 704l13 -115h40l14 115q0 18 -10 26.5t-23.5 8.5t-23.5 -8.5t-10 -26.5z" />
    <glyph glyph-name="parenleft" unicode="(" horiz-adv-x="182" 
d="M165 780l-18 38q-35 -19 -59 -44.5t-35.5 -60.5t-11.5 -86v-557q0 -48 9 -78.5t24.5 -50t34.5 -33.5l38 -28l18 39q-17 12 -30 27t-21 33t-12 38.5t-4 44.5v575q0 23 4 43.5t12 39t21 33.5t30 27z" />
    <glyph glyph-name="parenright" unicode=")" horiz-adv-x="182" 
d="M18 780l18 38q27 -15 46.5 -32.5t33 -40t20 -51.5t6.5 -67v-557q0 -48 -9 -78.5t-24.5 -50t-34.5 -33.5l-38 -28l-18 39q17 12 30 27t21 33t12 38.5t4 44.5v575q0 23 -4 43.5t-12 39t-21 33.5t-30 27z" />
    <glyph glyph-name="asterisk" unicode="*" horiz-adv-x="353" 
d="M41 627l-18 -48l107 -38l-66 -90l46 -32l65 97l69 -97l41 32l-66 90l109 38l-21 48l-107 -40v113h-54v-113z" />
    <glyph glyph-name="plus" unicode="+" horiz-adv-x="379" 
d="M217 530h-55v-132h-134v-55h134v-133h55v133h131v55h-131v132z" />
    <glyph glyph-name="comma" unicode="," 
d="M99 -85l17 -13q7 7 16 18t17.5 26t14 34t5.5 43q-1 15 -10.5 24t-23.5 9t-23.5 -9.5t-9.5 -23.5q0 -12 8 -21.5t20 -11.5q-2 -16 -8.5 -35.5t-22.5 -39.5z" />
    <glyph glyph-name="hyphen" unicode="-" horiz-adv-x="392" 
d="M34 356h320v58h-320v-58z" />
    <glyph glyph-name="period" unicode="." horiz-adv-x="137" 
d="M68 57q-13 0 -23 -9.5t-10 -23.5q0 -13 10 -23t23 -10q14 0 24.5 10t10.5 23q0 14 -10.5 23.5t-24.5 9.5z" />
    <glyph glyph-name="slash" unicode="/" horiz-adv-x="416" 
d="M18 -114h57l325 932h-62z" />
    <glyph glyph-name="zero" unicode="0" horiz-adv-x="492" 
d="M34 508v-322q0 -65 28.5 -109t76.5 -66t107 -22q62 0 109.5 24t74 68t26.5 105v321q0 98 -55 153.5t-154 55.5t-156 -53t-57 -155zM91 187v330q0 49 19 81t53.5 48.5t80.5 16.5q48 0 83 -16.5t54 -48.5t19 -81v-330q0 -49 -20 -81.5t-55 -48t-81 -15.5q-44 0 -78.5 16.5
t-54.5 48.5t-20 80z" />
    <glyph glyph-name="one" unicode="1" horiz-adv-x="236" 
d="M13 622l14 -39q13 2 28.5 7.5t31.5 13t30 15.5t23 15v-634h53v700h-54q-16 -21 -38 -36t-42.5 -24t-33.5 -13.5t-12 -4.5z" />
    <glyph glyph-name="two" unicode="2" horiz-adv-x="413" 
d="M42 590l53 -19q11 30 28.5 48.5t39 27.5t44.5 9q29 0 54.5 -13.5t41.5 -39t16 -62.5q0 -15 -3 -29.5t-12 -34t-29 -51.5l-246 -373v-53h350v53h-284l228 342q33 53 44 89.5t11 66.5q0 51 -25 86.5t-63.5 54.5t-81.5 18q-33 0 -65.5 -13t-58.5 -39t-42 -68z" />
    <glyph glyph-name="three" unicode="3" horiz-adv-x="443" 
d="M203 414h-2l159 237v49h-290v-57h222l-193 -287h111q43 0 76.5 -22t53 -57.5t19.5 -76.5q0 -43 -21 -78.5t-56 -56.5t-79 -21q-42 0 -75 17.5t-56 51.5l-46 -31q29 -43 76 -68.5t101 -25.5q45 0 83.5 16t67.5 45t45 67.5t16 83.5q0 60 -28 108.5t-76 77t-108 28.5z" />
    <glyph glyph-name="four" unicode="4" horiz-adv-x="489" 
d="M332 0h57v356h52l21 58h-73v286h-57v-286h-219l156 286h-59l-194 -344h316v-356z" />
    <glyph glyph-name="five" unicode="5" horiz-adv-x="440" 
d="M117 412l24 231h216v57h-265l-38 -344h116q61 0 102 -20.5t62.5 -55.5t21.5 -79q0 -36 -13 -64.5t-35.5 -49.5t-50.5 -32t-58 -11q-33 0 -60 7t-47.5 16t-31.5 16t-11 6l-21 -47q0 1 13.5 -7t37 -19t55.5 -19.5t68 -8.5q50 0 89 18.5t66 49t41 68t14 75.5q0 73 -33 120
t-88 70t-121 23h-53z" />
    <glyph glyph-name="six" unicode="6" horiz-adv-x="484" 
d="M272 648h39v52h-35q-71 0 -126.5 -30t-87 -83.5t-31.5 -124.5v-259q0 -59 29 -107.5t77.5 -77t107.5 -28.5q44 0 82.5 16.5t68 46t46 68t16.5 82.5q0 60 -29 108t-78 76t-109 28q-30 0 -57.5 -7.5t-52 -22.5t-46.5 -38v108q0 57 22.5 100.5t64 68t99.5 24.5zM245 360
q32 0 60.5 -12.5t50 -34t34 -50t12.5 -60.5t-12.5 -60.5t-34 -50.5t-50 -34.5t-60.5 -12.5q-43 0 -79 21.5t-58 57.5t-22 79q0 32 12.5 60.5t34.5 50t51 34t61 12.5z" />
    <glyph glyph-name="seven" unicode="7" horiz-adv-x="435" 
d="M100 0l318 645v55h-392v-57h329l-318 -643h63z" />
    <glyph glyph-name="eight" unicode="8" horiz-adv-x="483" 
d="M241 709q-49 0 -88.5 -23.5t-63 -63.5t-23.5 -89q0 -28 8.5 -55t25.5 -50.5t41 -38.5q-34 -17 -60 -46.5t-40 -66t-14 -75.5q0 -59 28.5 -107.5t77 -77t107.5 -28.5q60 0 108.5 28.5t77 77t28.5 107.5q0 40 -14.5 75.5t-40 64t-59.5 47.5q39 27 57.5 62t18.5 83
q0 50 -23 90t-62.5 63t-89.5 23zM240 412q-33 0 -60.5 17t-44 45t-16.5 60q0 34 16.5 61.5t44 44t60.5 16.5q34 0 61 -16.5t43.5 -44t16.5 -61.5q0 -33 -16 -61t-43.5 -44.5t-61.5 -16.5zM240 44q-43 0 -78.5 21.5t-57 57t-21.5 78.5q0 32 12.5 60.5t34 50t50 33.5t60.5 12
q45 0 80.5 -20.5t56 -56t20.5 -79.5q0 -43 -21 -78.5t-56.5 -57t-79.5 -21.5z" />
    <glyph glyph-name="nine" unicode="9" horiz-adv-x="482" 
d="M236 709q-45 0 -83.5 -16t-67.5 -45t-45.5 -67.5t-16.5 -83.5q0 -61 29 -109t78 -75.5t109 -27.5q31 0 58 8t51 23t45 37v-107q0 -56 -22.5 -99.5t-63.5 -68t-99 -24.5h-38v-55h35q71 0 126 30.5t86.5 84.5t31.5 125v258q0 60 -28.5 108t-76.5 76t-108 28zM236 654
q44 0 79.5 -21t56.5 -56.5t21 -79.5q0 -33 -12 -61.5t-33.5 -50t-50 -33.5t-61.5 -12q-32 0 -60.5 12t-50 33.5t-34 50t-12.5 61.5t12.5 61.5t34 50t50 33.5t60.5 12z" />
    <glyph glyph-name="colon" unicode=":" horiz-adv-x="144" 
d="M104 144q0 14 -10 23.5t-24 9.5q-13 0 -23.5 -9.5t-10.5 -23.5t10.5 -23.5t23.5 -9.5q14 0 24 9.5t10 23.5zM104 385q0 14 -10 23.5t-24 9.5q-13 0 -23.5 -9.5t-10.5 -23.5q0 -13 10.5 -23t23.5 -10q14 0 24 10t10 23z" />
    <glyph glyph-name="semicolon" unicode=";" horiz-adv-x="150" 
d="M38 35l17 -12q8 6 17 17t17.5 26t14 34.5t5.5 43.5q-1 15 -11 24t-24 9q-13 0 -23 -9.5t-10 -23.5q0 -12 8 -21.5t20 -11.5q-1 -16 -7.5 -36t-23.5 -40zM111 385q0 14 -10 23.5t-24 9.5q-13 0 -23.5 -9.5t-10.5 -23.5q0 -13 10.5 -23t23.5 -10q14 0 24 10t10 23z" />
    <glyph glyph-name="less" unicode="&#x3c;" horiz-adv-x="375" 
d="M25 359l278 -280l39 40l-240 238l240 242l-39 38z" />
    <glyph glyph-name="equal" unicode="=" horiz-adv-x="391" 
d="M34 357h320v55h-320v-55zM34 253h320v55h-320v-55z" />
    <glyph glyph-name="greater" unicode="&#x3e;" horiz-adv-x="375" 
d="M30 599l240 -242l-240 -238l38 -40l278 280l-278 278z" />
    <glyph glyph-name="question" unicode="?" horiz-adv-x="405" 
d="M25 532h57q0 32 10.5 56t28 39t39 22.5t44.5 6.5q29 -1 56 -14.5t44 -40t17 -66.5q0 -33 -11.5 -57.5t-29.5 -45.5t-37 -43q-14 -16 -28 -33.5t-25 -38t-17.5 -46.5t-6.5 -59v-92h51v87q0 31 6.5 54t17 40.5t24.5 33t29 31.5q21 25 40 51.5t30.5 56.5t11.5 64
q0 40 -14.5 71.5t-38.5 54t-55 34t-64 11.5t-65 -10.5t-57.5 -32t-41 -55t-15.5 -79.5zM193 57q-14 0 -24.5 -9.5t-10.5 -23.5q0 -13 10.5 -23t24.5 -10q13 0 23 10t10 23q0 14 -10 23.5t-23 9.5z" />
    <glyph glyph-name="at" unicode="@" horiz-adv-x="719" 
d="M690 452l-15 41q-28 -8 -44.5 -25t-23 -43t-6.5 -61v-201q0 -48 -21 -81.5t-57 -53.5t-81 -29.5t-93 -9.5q-57 0 -104 11t-81.5 35t-53 62t-18.5 93v152q0 47 14.5 82.5t41.5 59t62.5 35.5t77.5 12q71 0 117 -23.5t59 -64.5h-167q-28 0 -53 -7.5t-45 -25.5t-31.5 -47.5
t-11.5 -73.5v-55q0 -56 16.5 -91t44.5 -53t62 -24t70 -5q14 0 35 1t44 2t43 2.5t32.5 2l12.5 0.5v320h50l13 54h-67q-6 28 -22 52.5t-43.5 43.5t-67.5 29.5t-94 10.5q-61 0 -108 -17.5t-79.5 -50t-49 -76t-16.5 -96.5v-155q0 -65 26 -112t70 -77.5t99 -45.5t114 -15
q61 0 117.5 13.5t101.5 42t71 73.5t26 108v210q0 19 3.5 33t11 23.5t18.5 14.5zM294 389h171v-269l-11 -1t-30.5 -2.5t-44 -3t-50.5 -1.5q-60 0 -90 30t-30 86v58q0 49 15 70.5t35 27t35 5.5z" />
    <glyph glyph-name="A" unicode="A" horiz-adv-x="547" 
d="M527 0l-228 700h-53l-225 -700h60l79 245h227l81 -245h59zM175 300l97 314l100 -314h-197z" />
    <glyph glyph-name="B" unicode="B" horiz-adv-x="505" 
d="M262 700h-221v-700h231q67 0 112 25t68.5 72t23.5 112q0 48 -14 84.5t-38 61.5t-53 38q22 15 37 35.5t23 46t8 55.5q0 58 -21 95.5t-60.5 56t-95.5 18.5zM261 412h-163v235h156q42 0 70 -13t42 -39t14 -65q0 -35 -13 -62t-39 -41.5t-67 -14.5zM270 53h-172v304h188
q42 0 71 -19.5t43.5 -52.5t14.5 -72q0 -53 -16.5 -89t-48.5 -53.5t-80 -17.5z" />
    <glyph glyph-name="C" unicode="C" horiz-adv-x="423" 
d="M354 639l17 38q-31 17 -67 25t-75 8q-55 0 -99 -21t-70 -65t-26 -114v-326q0 -67 24 -110t69 -63.5t108 -20.5q38 0 78.5 8.5t82.5 24.5l-12 46q-28 -9 -54 -15.5t-48.5 -10t-42.5 -3.5q-50 0 -83 14.5t-49 47t-16 84.5v328q0 53 18.5 85t53.5 46.5t84 14.5q26 0 52.5 -5
t54.5 -16z" />
    <glyph glyph-name="D" unicode="D" horiz-adv-x="497" 
d="M230 700h-189v-700h209q71 0 118 22.5t70.5 67t23.5 110.5v275q0 68 -26.5 118.5t-78 78.5t-127.5 28zM233 50h-135v600h142q59 0 95 -22t53 -58.5t17 -79.5v-300q0 -34 -10.5 -60.5t-32 -44t-53.5 -26.5t-76 -9z" />
    <glyph glyph-name="E" unicode="E" horiz-adv-x="406" 
d="M41 0h332v50h-275v307h172l18 55h-190v236h277v52h-334v-700z" />
    <glyph glyph-name="F" unicode="F" horiz-adv-x="391" 
d="M375 700h-334v-700h57v357h168l23 55h-191v235h277v53z" />
    <glyph glyph-name="G" unicode="G" horiz-adv-x="479" 
d="M354 638l17 38q-21 11 -44 18.5t-47.5 11t-50.5 3.5q-63 0 -106.5 -24.5t-66 -70.5t-22.5 -110v-315q0 -65 24 -109.5t67 -67t100 -22.5q33 0 64 7.5t57.5 21t44.5 32.5l4 -51h51v300h-202l20 -55h129v-58q0 -33 -13 -59.5t-36 -45t-54 -28.5t-67 -10q-43 0 -72.5 17
t-44.5 49t-15 77v325q0 52 18.5 84.5t54 47.5t84.5 15q17 0 34.5 -2t35.5 -6.5t36 -12.5z" />
    <glyph glyph-name="H" unicode="H" horiz-adv-x="515" 
d="M415 412h-317v288h-57v-700h57v357h317v-357h57v700h-57v-288z" />
    <glyph glyph-name="I" unicode="I" horiz-adv-x="187" 
d="M20 651l68 -2v-649h56v700h-124v-49z" />
    <glyph glyph-name="J" unicode="J" horiz-adv-x="207" 
d="M166 119v581h-124v-49l67 -2v-535q0 -39 -11.5 -64.5t-30 -37.5t-40.5 -12l13 -37q35 0 59 12.5t39 34.5t21.5 50t6.5 59z" />
    <glyph glyph-name="K" unicode="K" horiz-adv-x="459" 
d="M98 367v333h-57v-700h57v269l47 76l226 -345h67l-256 398l204 302h-65z" />
    <glyph glyph-name="L" unicode="L" horiz-adv-x="424" 
d="M41 0h361v50h-304v650h-57v-700z" />
    <glyph glyph-name="M" unicode="M" horiz-adv-x="621" 
d="M98 700h-57v-700h57v535l180 -535h61l183 535v-535h56v700h-56l-214 -614z" />
    <glyph glyph-name="N" unicode="N" horiz-adv-x="577" 
d="M534 700h-56v-597l-380 597h-57v-700h57v597l380 -597h56v700z" />
    <glyph glyph-name="O" unicode="O" horiz-adv-x="492" 
d="M34 508v-322q0 -65 28.5 -109t76.5 -66t107 -22q62 0 109.5 24t74 68t26.5 105v321q0 98 -55 153.5t-154 55.5t-156 -53t-57 -155zM91 187v330q0 49 19 81t53.5 48.5t80.5 16.5q48 0 83 -16.5t54 -48.5t19 -81v-330q0 -49 -20 -81.5t-55 -48t-81 -15.5q-44 0 -78.5 16.5
t-54.5 48.5t-20 80z" />
    <glyph glyph-name="P" unicode="P" horiz-adv-x="506" 
d="M277 700h-236v-700h57v245h179q50 0 87.5 12.5t62 39.5t37 71t12.5 106q0 64 -13 107.5t-38.5 69.5t-62.5 37.5t-85 11.5zM98 300v347h184q29 0 54 -7.5t43.5 -26t29 -52.5t10.5 -87q0 -57 -10.5 -92t-29.5 -52.5t-43.5 -23.5t-53.5 -6h-184z" />
    <glyph glyph-name="Q" unicode="Q" horiz-adv-x="492" 
d="M271 50v124h-56v-123q0 -42 11 -72.5t33 -49.5t55 -28t76 -9l6 47q-30 0 -53.5 5.5t-39 18.5t-24 34.5t-8.5 52.5zM34 508v-322q0 -65 28.5 -109t76.5 -66t107 -22q62 0 109.5 24t74 68t26.5 105v321q0 98 -55 153.5t-154 55.5t-156 -53t-57 -155zM91 187v330q0 49 19 81
t53.5 48.5t80.5 16.5q48 0 83 -16.5t54 -48.5t19 -81v-330q0 -49 -20 -81.5t-55 -48t-81 -15.5q-44 0 -78.5 16.5t-54.5 48.5t-20 80z" />
    <glyph glyph-name="R" unicode="R" horiz-adv-x="510" 
d="M277 700h-236v-700h57v245h179q10 0 19.5 0.5t18.5 1.5t17 3l91 -250h57l-97 265q32 16 52.5 43t30.5 68t10 98q0 64 -13 107.5t-38.5 69.5t-62.5 37.5t-85 11.5zM282 300h-184v347h184q29 0 54 -7.5t43.5 -26t29 -52.5t10.5 -87q0 -57 -10.5 -92t-29.5 -52.5
t-43.5 -23.5t-53.5 -6z" />
    <glyph glyph-name="S" unicode="S" horiz-adv-x="530" 
d="M421 624l16 48q-23 13 -48.5 21t-51.5 12t-53 4q-41 0 -80.5 -9t-72 -29t-52 -53t-19.5 -80q0 -39 16 -68t43 -50t61 -37.5t69.5 -30.5t69.5 -29t61 -33.5t43 -43t16 -58.5q0 -40 -14.5 -68t-40 -45t-58 -25t-67.5 -8q-34 0 -72 9.5t-72 28.5t-55 47l-35 -35
q31 -36 68 -59t80 -34t90 -11q44 0 86 11t76 34.5t54 60t20 86.5q0 46 -16 79.5t-43.5 57t-61 41t-70 31.5t-70 28t-61 31t-43.5 40t-16 55q0 33 15.5 55t41 34.5t54.5 17.5t56 5q24 0 47.5 -3t46 -10t42.5 -18z" />
    <glyph glyph-name="T" unicode="T" horiz-adv-x="417" 
d="M233 650h176v50h-402v-50h171v-650h55v650z" />
    <glyph glyph-name="U" unicode="U" horiz-adv-x="498" 
d="M458 186v514h-56v-513q0 -48 -19.5 -80.5t-54 -48.5t-80.5 -16t-80.5 16.5t-54 48.5t-19.5 80v513h-56v-514q0 -65 26.5 -109t74.5 -66t110 -22t109 22.5t73.5 66.5t26.5 108z" />
    <glyph glyph-name="V" unicode="V" horiz-adv-x="511" 
d="M15 700l201 -700h77l200 700h-60l-179 -631l-179 631h-60z" />
    <glyph glyph-name="W" unicode="W" horiz-adv-x="733" 
d="M405 700h-78l-107 -631l-142 631h-61l166 -700h85l99 599l99 -599h84l163 700h-59l-141 -631z" />
    <glyph glyph-name="X" unicode="X" horiz-adv-x="556" 
d="M279 406l-172 294h-64l203 -348l-221 -352h69l185 294l184 -294h69l-219 352l203 348h-62z" />
    <glyph glyph-name="Y" unicode="Y" horiz-adv-x="515" 
d="M474 156v544h-57v-277q0 -34 -15 -58t-39.5 -38t-54 -20.5t-58.5 -6.5q-51 0 -88 17t-56.5 51t-19.5 85v247h-56v-245q0 -64 24 -111t70.5 -73t113.5 -26q32 0 66 6.5t64 20t49 34.5v-153q0 -25 -3.5 -45t-11 -35.5t-19 -26t-27.5 -16.5l13 -37q50 7 77.5 48.5
t27.5 114.5z" />
    <glyph glyph-name="Z" unicode="Z" horiz-adv-x="547" 
d="M40 700v-49l398 -1l-17 -24l-393 -577v-49h487v49l-417 1l17 23l393 578v49h-468z" />
    <glyph glyph-name="bracketleft" unicode="[" horiz-adv-x="223" 
d="M99 762l105 10v46h-162v-932h162v45l-105 10v821z" />
    <glyph glyph-name="backslash" unicode="\" horiz-adv-x="414" 
d="M336 -114h61l-325 932h-56z" />
    <glyph glyph-name="bracketright" unicode="]" horiz-adv-x="225" 
d="M20 -114h162v932h-162v-46l106 -10v-821l-106 -10v-45z" />
    <glyph glyph-name="asciicircum" unicode="^" 
d="M264 772l-128 128l-133 -129l39 -39l94 92l89 -89z" />
    <glyph glyph-name="underscore" unicode="_" horiz-adv-x="384" 
d="M33 -56h320v56h-320v-56z" />
    <glyph glyph-name="grave" unicode="`" 
d="M114 717q-3 10 -10 16.5t-16 8t-19 -4.5q-8 -4 -11.5 -12.5t-1.5 -18t7 -17.5l54 -79h36z" />
    <glyph glyph-name="a" unicode="a" horiz-adv-x="447" 
d="M355 350q-23 14 -51.5 26t-59.5 19.5t-64 7.5q-30 0 -57.5 -8t-49.5 -25.5t-34.5 -46.5t-12.5 -71v-83q0 -55 17.5 -91t48 -55.5t72 -26.5t89.5 -6q15 0 35.5 1t42 2.5t40 3t30 2.5t10.5 1v288q0 62 -10 104.5t-33.5 68t-63.5 37t-101 11.5l-2 -43q30 0 58 -4.5
t49.5 -16.5t34 -35t12.5 -60zM355 303v-257l-4.5 -0.5t-13.5 -1t-22 -2t-29.5 -2.5t-36.5 -2q-50 -2 -83 5.5t-51.5 25t-26 44.5t-7.5 63v74q0 34 9.5 55t24.5 31.5t31 14.5t29 4q32 0 63 -7t61 -19t56 -26z" />
    <glyph glyph-name="b" unicode="b" horiz-adv-x="457" 
d="M98 473v227h-57v-700q-1 0 10.5 -1t30.5 -2.5t40.5 -3t42 -2.5t34.5 -1q48 -1 89.5 6t72.5 26.5t48 55.5t17 91v190q0 42 -14.5 71t-38.5 46.5t-53.5 25.5t-59.5 8q-33 0 -61.5 -5t-53 -13.5t-47.5 -18.5zM98 45v378q27 12 53 21t53.5 14t59.5 5q14 0 32 -4t35.5 -15
t28.5 -32.5t11 -56.5v-179q0 -36 -7.5 -62.5t-26 -44t-51 -25t-82.5 -6.5q-24 1 -44 2t-33.5 2.5t-21 2z" />
    <glyph glyph-name="c" unicode="c" horiz-adv-x="381" 
d="M335 433l14 45q-31 14 -65.5 23t-68.5 9q-62 0 -103.5 -24t-62 -67t-20.5 -100v-145q0 -64 23.5 -104.5t66.5 -60t100 -20.5q33 -1 67 3.5t65 12.5l-11 50q1 0 -9 -2t-27.5 -5t-39 -5t-43.5 -2q-36 1 -62 9.5t-43 25.5t-24.5 44.5t-7.5 65.5l1 125q1 43 14 76.5t42 52.5
t76 19q29 -1 60.5 -7.5t57.5 -18.5z" />
    <glyph glyph-name="d" unicode="d" horiz-adv-x="458" 
d="M414 0v700h-55v-227q-34 15 -74 26t-89 11q-30 0 -59.5 -8t-54 -25.5t-39 -46.5t-14.5 -71v-190q0 -55 17.5 -91t48.5 -55.5t73 -26.5t90 -6q14 0 34 1t41.5 2.5t40 3t30 2.5t10.5 1zM359 423v-377l-5 -0.5t-14 -1.5t-22 -2t-29.5 -2t-35.5 -2q-50 -1 -82.5 6.5t-51.5 25
t-27 44t-8 62.5v179q0 35 12 56.5t29.5 32.5t35.5 15t31 4q48 0 87.5 -11.5t79.5 -28.5z" />
    <glyph glyph-name="e" unicode="e" horiz-adv-x="422" 
d="M87 134v62l305 16v130q0 56 -21.5 93t-61 56t-93.5 19q-53 0 -95 -19t-66 -57t-24 -95v-205q0 -42 12.5 -70t35.5 -45t55 -24t70 -7t82 12.5t81 34.5l-22 43q-37 -19 -73 -30.5t-73 -11.5q-24 0 -44.5 5.5t-35.5 17t-23.5 30t-8.5 45.5zM336 349v-87l-249 -11v87
q0 40 15.5 68t44.5 42.5t68 14.5q35 0 62 -14t43 -39.5t16 -60.5z" />
    <glyph glyph-name="f" unicode="f" horiz-adv-x="249" 
d="M215 658l9 49q-5 2 -11 2.5t-12 0.5h-13q-24 0 -50 -7.5t-48.5 -25.5t-36.5 -49t-14 -78v-550h57v447h91l23 53h-114v50q0 27 6 48t17.5 34.5t29 20.5t40.5 7h12.5t13.5 -2z" />
    <glyph glyph-name="g" unicode="g" horiz-adv-x="441" 
d="M401 -64v564h-57v-47q-22 18 -45.5 30.5t-48 19t-48.5 7.5q-55 3 -93 -16.5t-58 -57t-20 -90.5v-170q0 -91 44 -139.5t128 -48.5q23 0 44.5 5.5t40.5 15.5t33.5 23.5t22.5 28.5v-124q0 -20 -4.5 -36.5t-12.5 -29.5t-20.5 -22.5t-29.5 -16.5l16 -43q38 12 62 31t35 47.5
t11 68.5zM344 393v-219q0 -32 -10.5 -57t-29.5 -42t-44 -26t-54 -9q-38 0 -64.5 14t-40.5 42t-14 71v176q0 34 11 57.5t29.5 37t41 19t45.5 3.5q16 -1 34 -6t36.5 -13.5t34 -20.5t25.5 -27z" />
    <glyph glyph-name="h" unicode="h" horiz-adv-x="444" 
d="M98 467v233h-57v-700h57v425q21 12 41.5 19.5t42 11.5t44.5 4q24 0 47 -5.5t41.5 -19t29.5 -36t11 -56.5v-343h56v346q0 32 -7.5 58t-22 45.5t-35.5 33t-48.5 20.5t-60.5 7q-25 0 -49.5 -5.5t-47.5 -15t-42 -22.5z" />
    <glyph glyph-name="i" unicode="i" horiz-adv-x="133" 
d="M38 0h57v501h-57v-501zM67 710q-13 0 -23.5 -10t-10.5 -24q0 -13 10.5 -23t23.5 -10q14 0 24 10t10 23q0 14 -10 24t-24 10z" />
    <glyph glyph-name="j" unicode="j" horiz-adv-x="200" 
d="M150 -63v564h-121v-52h65v-511q0 -24 -7 -44.5t-21.5 -36t-38.5 -24.5l16 -43q38 13 61.5 31.5t34.5 46.5t11 69zM158 676q0 14 -10 23.5t-24 9.5t-24.5 -9.5t-10.5 -23.5q0 -13 10.5 -23t24.5 -10t24 10t10 23z" />
    <glyph glyph-name="k" unicode="k" horiz-adv-x="427" 
d="M190 352l148 130l-40 38l-200 -185v365h-57v-700h57v273l52 44l191 -317h67z" />
    <glyph glyph-name="l" unicode="l" horiz-adv-x="140" 
d="M41 0h56v700h-56v-700z" />
    <glyph glyph-name="m" unicode="m" horiz-adv-x="717" 
d="M628 342v-342h53v344q0 40 -10 71t-30.5 52t-51 31.5t-72.5 10.5q-28 0 -56 -7t-54 -19.5t-48 -29.5q-13 18 -32.5 30.5t-45 19t-57.5 6.5q-25 0 -47 -5.5t-42 -15t-40 -22.5v34h-57v-500h57v423q21 12 39 20t37.5 12t42.5 4q24 0 46 -5.5t38.5 -19t26.5 -36t10 -56.5
v-342h52v344q0 21 -2.5 39.5t-8.5 34.5q24 15 46.5 24t44 13t40.5 4q24 0 45.5 -5.5t38.5 -19t27 -36t10 -56.5z" />
    <glyph glyph-name="n" unicode="n" horiz-adv-x="443" 
d="M352 342v-342h55v345q0 32 -7.5 57.5t-22 45.5t-35.5 34t-48.5 21t-60.5 7q-25 0 -49.5 -5.5t-47 -15t-41.5 -22.5v34h-57v-501h57v425q21 12 41 19.5t41.5 11.5t44.5 4q24 0 47 -6t42 -19.5t30 -36t11 -56.5z" />
    <glyph glyph-name="o" unicode="o" horiz-adv-x="430" 
d="M399 185v131q0 92 -47 144t-136 52q-59 0 -101 -22.5t-64 -66t-22 -107.5v-131q0 -54 21 -98t63.5 -70.5t104.5 -26.5q91 0 136 53.5t45 141.5zM343 316v-141q0 -41 -13.5 -71.5t-41.5 -47t-70 -16.5q-40 0 -70 17t-46.5 47.5t-16.5 70.5v141q0 48 15 80.5t44.5 49
t73.5 16.5t71.5 -16.5t40.5 -49t13 -80.5z" />
    <glyph glyph-name="p" unicode="p" horiz-adv-x="442" 
d="M409 176v170q0 53 -19.5 90.5t-57 57t-93.5 16.5q-24 -1 -48.5 -7.5t-48 -19t-45.5 -30.5v47h-58v-688l58 -24v273q12 -20 33.5 -37t49.5 -26.5t59 -9.5q83 0 126.5 48.5t43.5 139.5zM352 343v-176q0 -43 -13.5 -71t-39 -42t-63.5 -14q-29 0 -54 9t-44 26t-30 42t-11 57
v219q15 21 37 35t46.5 22t46.5 10q24 2 46.5 -3.5t40 -19t28 -37t10.5 -57.5z" />
    <glyph glyph-name="q" unicode="q" horiz-adv-x="441" 
d="M344 62v-251l57 -23v712h-57v-46q-22 18 -45.5 30.5t-48 19t-48.5 7.5q-55 3 -93 -16.5t-58 -57t-20 -91.5v-169q0 -61 19.5 -103t58 -63.5t94.5 -21.5q30 0 58 9.5t50 26.5t33 37zM344 394v-220q0 -32 -10.5 -57t-29.5 -42t-44 -25.5t-54 -8.5q-38 0 -64.5 14.5
t-40.5 43t-14 69.5v176q0 34 11 57t29.5 37t41 19.5t45.5 3.5q16 -1 34.5 -6t36.5 -13t33.5 -20t25.5 -28z" />
    <glyph glyph-name="r" unicode="r" horiz-adv-x="333" 
d="M306 461l4 48l-13.5 2t-31.5 1q-54 -3 -93.5 -15t-76.5 -29v33h-57v-501h57v409q14 9 34 18.5t43 17t47 12t45 5.5q17 1 29.5 0z" />
    <glyph glyph-name="s" unicode="s" horiz-adv-x="417" 
d="M323 439l23 38q-24 15 -47 22.5t-44 10t-41 2.5q-30 0 -59 -8t-52.5 -24.5t-37.5 -40t-14 -55.5q0 -33 15.5 -56.5t40.5 -40.5t55.5 -30t61 -25t55.5 -26.5t40.5 -34t15.5 -46.5q0 -24 -11.5 -41t-30 -28.5t-39.5 -16.5t-40 -5q-31 0 -58.5 7.5t-51.5 22.5t-47 37
l-31 -33q35 -40 85 -63t103 -23q32 0 62.5 9t55.5 27t40 45t15 63q0 37 -15.5 62.5t-40.5 43.5t-55.5 31.5t-60.5 25t-55 25t-40.5 30.5t-15.5 42q0 21 11 36t29 24.5t39.5 14t41.5 4.5q17 0 34.5 -3t34 -8.5t29.5 -14.5z" />
    <glyph glyph-name="t" unicode="t" horiz-adv-x="241" 
d="M95 132v316h97l24 52h-121v200h-56v-568q0 -58 25 -93t80 -52l17 43q-22 8 -36.5 21.5t-22 34t-7.5 46.5z" />
    <glyph glyph-name="u" unicode="u" horiz-adv-x="445" 
d="M349 48v-48h56v501h-56v-328q0 -27 -10 -50t-28.5 -41t-43.5 -28t-55 -10q-38 0 -65 12.5t-41 40.5t-14 74v330h-57v-344q0 -34 7.5 -61t22 -47t36 -33t49 -19.5t60.5 -6.5q25 0 51 6.5t49 19.5t39 32z" />
    <glyph glyph-name="v" unicode="v" horiz-adv-x="428" 
d="M19 501l153 -501h77l155 501h-59l-133 -443l-135 443h-58z" />
    <glyph glyph-name="w" unicode="w" horiz-adv-x="708" 
d="M381 499h-57l-112 -442l-135 442h-58l152 -499h78l102 405l100 -405h77l156 499h-59l-134 -442z" />
    <glyph glyph-name="x" unicode="x" horiz-adv-x="437" 
d="M220 300l-125 200h-65l157 -251l-157 -249h67l123 198l122 -198h66l-156 249l156 251h-62z" />
    <glyph glyph-name="y" unicode="y" horiz-adv-x="469" 
d="M438 470l-20 42q-23 -8 -38.5 -23.5t-23 -36t-7.5 -43.5v-235q0 -26 -10 -49.5t-27 -41.5t-40 -28.5t-50 -10.5q-23 0 -46 5.5t-42 18.5t-30.5 36t-11.5 58v339h-57v-343q0 -43 11.5 -74.5t34 -52t55 -30.5t74.5 -10q25 0 51 6.5t49 19.5t39 33v-111q0 -18 -3.5 -34.5
t-11.5 -30t-20.5 -23.5t-29.5 -17l16 -43q38 13 61 31t33.5 46.5t10.5 69.5v470q0 32 10 44t23 18z" />
    <glyph glyph-name="z" unicode="z" horiz-adv-x="428" 
d="M378 501h-338v-49l266 -1l-275 -401v-50h368v50l-298 1l277 401v49z" />
    <glyph glyph-name="braceleft" unicode="{" horiz-adv-x="258" 
d="M163 517v113q0 27 5 48t13 37t18 27.5t20 19t19 12.5l-22 49q-1 -1 -12.5 -6t-27.5 -16.5t-32 -33t-27 -55t-11 -82.5v-113q0 -21 -3 -41t-8 -40q-6 -19 -20.5 -38t-38.5 -37l-11 -8l11 -8q24 -18 38.5 -36.5t20.5 -38.5q5 -19 8 -39t3 -41v-114q0 -48 10.5 -81.5
t26.5 -55t32 -34t28 -17.5t13 -6l23 51q-9 5 -19.5 12.5t-20.5 19t-18 27t-13 36.5t-5 48v114q0 21 -2.5 41.5t-7.5 41.5q-10 41 -57 80q23 20 37.5 40t19.5 40q5 21 7.5 42t2.5 42z" />
    <glyph glyph-name="bar" unicode="|" horiz-adv-x="141" 
d="M42 -114h56v932h-56v-932z" />
    <glyph glyph-name="braceright" unicode="}" horiz-adv-x="263" 
d="M43 823l-22 -49q9 -5 19 -12.5t20 -19t18.5 -27.5t13.5 -37t5 -48v-113q0 -28 4 -56t18 -55t44 -53q-30 -26 -44 -53t-18 -54.5t-4 -55.5v-114q0 -27 -5 -47.5t-13.5 -36.5t-19 -27.5t-20.5 -19t-19 -12.5l22 -51q2 1 13.5 6t27.5 17.5t32 34t27 55t11 81.5v114
q0 28 4 54t19 51.5t47 49.5l11 8l-11 8q-32 25 -47 50t-19 51.5t-4 54.5v113q0 48 -10.5 81.5t-26.5 55.5t-32.5 34t-28 16.5t-12.5 5.5z" />
    <glyph glyph-name="asciitilde" unicode="~" 
d="M289 306l-25 41q-12 -13 -27 -20.5t-34 -8.5q-23 0 -46 9t-46.5 18t-49.5 9q-19 0 -39 -9t-43 -32l23 -41q18 17 34.5 23t32.5 4q23 -1 45.5 -9.5l45 -17t45.5 -9.5q19 -1 40 8.5t44 34.5z" />
    <glyph glyph-name="uni00A0" unicode="&#xa0;" horiz-adv-x="280" 
 />
    <glyph glyph-name="exclamdown" unicode="&#xa1;" horiz-adv-x="148" 
d="M107 36l-9 554h-48l-10 -553q0 -19 8.5 -28t24.5 -9q17 0 25.5 9t8.5 27zM107 676q0 14 -10 23.5t-24 9.5q-13 0 -23.5 -9.5t-10.5 -23.5q0 -13 10.5 -23t23.5 -10q14 0 24 10t10 23z" />
    <glyph glyph-name="cent" unicode="&#xa2;" horiz-adv-x="381" 
d="M189 -114h56v737h-56v-737zM335 433l14 45q-31 14 -65.5 23t-68.5 9q-62 0 -103.5 -24t-62 -67t-20.5 -100v-145q0 -64 23.5 -104.5t66.5 -60t100 -20.5q33 -1 67 3.5t65 12.5l-11 50q1 0 -9 -2t-27.5 -5t-39 -5t-43.5 -2q-36 1 -62 9.5t-43 25.5t-24.5 44.5t-7.5 65.5
l1 125q1 43 14 76.5t42 52.5t76 19q29 -1 60.5 -7.5t57.5 -18.5z" />
    <glyph glyph-name="sterling" unicode="&#xa3;" horiz-adv-x="428" 
d="M114 53h-80v-53h359v53h-122q33 20 52 60t19 78q0 35 -13.5 69t-38.5 65l-12 15h115v57h-166l-50 58q-13 15 -26 34t-21 40t-7 42q1 23 12.5 41t31.5 29.5t46 14.5q31 4 64.5 -5t64.5 -29l19 49q-22 12 -45.5 20.5t-47.5 12.5t-48 4q-31 0 -59 -9.5t-50 -27.5
t-34.5 -43.5t-12.5 -57.5q-1 -40 19.5 -77t51.5 -73l20 -23h-121v-57h172l42 -48q14 -16 23 -33t13 -34.5t3 -34.5q-1 -34 -16.5 -60t-40 -43t-54.5 -25.5t-62 -8.5z" />
    <glyph glyph-name="currency" unicode="&#xa4;" horiz-adv-x="467" 
d="M351 366l82 84l-35 35l-83 -84q-16 14 -37.5 21t-44.5 7q-24 0 -45.5 -7t-39.5 -21l-82 84l-35 -35l82 -84q-13 -16 -19.5 -37.5t-6.5 -44.5q0 -24 7.5 -45.5t19.5 -38.5l-83 -82l35 -37l83 84q17 -13 38.5 -20t45.5 -7q23 0 43.5 7t38.5 20l83 -84l35 37l-82 82
q12 17 19 38.5t7 45.5q0 23 -7 44.5t-19 37.5zM233 189q-26 0 -48 12.5t-34.5 34.5t-12.5 48t12.5 47t34.5 33.5t48 12.5t47 -12.5t33.5 -33.5t12.5 -47t-12.5 -48t-33.5 -34.5t-47 -12.5z" />
    <glyph glyph-name="yen" unicode="&#xa5;" horiz-adv-x="516" 
d="M286 342l209 358h-65l-173 -294l-172 294h-63l208 -360v-340h56v342zM98 198h320v55h-320v-55zM98 94h320v55h-320v-55z" />
    <glyph glyph-name="section" unicode="&#xa7;" horiz-adv-x="435" 
d="M323 626l23 38q-25 15 -47.5 22.5t-43.5 10t-41 2.5q-30 0 -59 -8t-52.5 -24.5t-37.5 -40t-14 -55.5q0 -31 13.5 -53t35.5 -39q-23 -16 -36 -40.5t-13 -54.5q0 -33 15.5 -56.5t40.5 -40.5t55.5 -30t61 -25t55.5 -26.5t40.5 -34t15.5 -46.5q0 -24 -11.5 -41t-30 -28.5
t-39.5 -16.5t-40 -5q-31 0 -58.5 7.5t-51.5 22.5t-47 37l-31 -33q35 -40 85 -63t103 -23q32 0 62.5 9t55.5 27t40 45t15 63q0 30 -11 52.5t-28 39.5q18 18 28.5 41.5t10.5 53.5q0 37 -15.5 62.5t-40.5 43.5t-55.5 31.5t-60.5 25t-55.5 25t-40.5 30.5t-15 42q0 21 11 36
t29 24.5t39.5 14t41.5 4.5q16 0 34 -3t34.5 -8.5t29.5 -14.5zM303 250q-25 14 -52.5 25t-53.5 21.5t-47 23t-33.5 28.5t-12.5 38q0 15 6 27t16.5 21t24.5 16q24 -12 50 -22.5t50 -21t43 -24t30 -30.5t11 -40q0 -20 -9 -35.5t-23 -26.5z" />
    <glyph glyph-name="dieresis" unicode="&#xa8;" 
d="M54 742q-13 0 -23 -10t-10 -24q0 -13 10 -23t23 -10q14 0 24 10t10 23q0 14 -10 24t-24 10zM213 742q-14 0 -23.5 -10t-9.5 -24q0 -13 9.5 -23t23.5 -10t23.5 10t9.5 23q0 14 -9.5 24t-23.5 10z" />
    <glyph glyph-name="copyright" unicode="&#xa9;" horiz-adv-x="696" 
d="M664 188v139q0 64 -23.5 112t-66 80.5t-100.5 48.5t-127 16t-126.5 -16t-100 -48.5t-66 -80.5t-23.5 -112v-139q0 -64 23.5 -112.5t66 -80.5t100 -48t126.5 -16t127 16t100.5 48t66 80.5t23.5 112.5zM605 302v-90q0 -61 -15.5 -104.5t-47.5 -70.5t-80.5 -39.5
t-114.5 -12.5t-114 12.5t-79.5 39.5t-47 70.5t-15.5 104.5v90q0 62 15.5 105.5t47 70.5t79.5 39.5t114 12.5t114.5 -12.5t80.5 -39.5t47.5 -70.5t15.5 -105.5zM487 384l16 37q-31 17 -68 25.5t-75 8.5q-49 0 -86.5 -16t-61.5 -45q-22 -26 -33.5 -62.5t-11.5 -81.5
q0 -56 16.5 -95t48.5 -62q25 -18 58.5 -26.5t74.5 -8.5q39 0 80 8.5t83 24.5l-16 44q-21 -7 -40.5 -12t-37 -8t-33.5 -4.5t-31 -1.5q-34 0 -59.5 6.5t-43.5 20.5q-22 17 -32.5 46.5t-10.5 72.5q0 37 9.5 64t27.5 46q20 20 49.5 30t67.5 10q13 0 26.5 -1.5t27.5 -4t28 -6.5
t27 -9z" />
    <glyph glyph-name="ordfeminine" unicode="&#xaa;" horiz-adv-x="329" 
d="M293 390v33.5v33v33v33v32.5q0 46 -11 76.5t-32 46.5q-13 12 -31.5 18.5t-41 9.5t-49.5 3l-4 -43q28 0 50.5 -3t35.5 -12q17 -10 24 -25.5t7 -32.5q-33 19 -61 28t-51 10q-34 1 -58 -13.5t-36 -40t-12 -58.5q0 -40 11 -67t30.5 -42.5t47 -22.5t60.5 -8q27 0 57.5 3.5
t63.5 7.5zM239 543v-114l-13 -1.5t-33 -2.5t-40 0.5t-34 7.5q-16 8 -27 19t-16.5 26.5t-5.5 35.5q0 26 7 41t19 22t28 7q24 0 54.5 -11.5t60.5 -29.5z" />
    <glyph glyph-name="guillemotleft" unicode="&#xab;" horiz-adv-x="530" 
d="M325 267l148 -153l-34 -35l-188 188l188 188l36 -38zM106 267l147 -153l-35 -35l-187 188l187 188l37 -38z" />
    <glyph glyph-name="sfthyphen" unicode="&#xad;" horiz-adv-x="392" 
d="M34 356h320v58h-320v-58z" />
    <glyph glyph-name="registered" unicode="&#xae;" horiz-adv-x="696" 
d="M664 188v139q0 64 -23.5 112t-66 80.5t-100.5 48.5t-127 16t-126.5 -16t-100 -48.5t-66 -80.5t-23.5 -112v-139q0 -64 23.5 -112.5t66 -80.5t100 -48t126.5 -16t127 16t100.5 48t66 80.5t23.5 112.5zM603 302v-90q0 -61 -15.5 -104.5t-46.5 -70.5t-79.5 -39.5
t-114.5 -12.5t-114 12.5t-79.5 39.5t-47 70.5t-15.5 104.5v90q0 62 15.5 105.5t47 70.5t79.5 39.5t114 12.5t114.5 -12.5t79.5 -39.5t46.5 -70.5t15.5 -105.5zM385 443h-204v-384h53v118h149l57 -118h65l-64 127q44 14 60 49t15 77q-1 45 -14 71t-33 39t-42 17t-42 4z
M388 233h-154v156h154q27 0 44 -8t24.5 -25t7.5 -45q0 -40 -19 -59t-57 -19z" />
    <glyph glyph-name="overscore" unicode="&#xaf;" 
d="M244 677h-221v-56h221v56z" />
    <glyph glyph-name="degree" unicode="&#xb0;" horiz-adv-x="348" 
d="M320 565q0 40 -19.5 73t-52.5 52.5t-73 19.5t-73.5 -19.5t-53.5 -52.5t-20 -73t20 -73t53.5 -53t73.5 -20t73 20t52.5 53t19.5 73zM175 660q26 0 47 -13t34 -34.5t13 -47.5q0 -25 -13 -46.5t-34 -34.5t-47 -13t-48 13t-35 34.5t-13 46.5q0 26 13 47.5t35 34.5t48 13z" />
    <glyph glyph-name="plusminus" unicode="&#xb1;" horiz-adv-x="383" 
d="M31 378h134v-131h-135v-57h320v57h-130v131h131v54h-131v133h-55v-133h-134v-54z" />
    <glyph glyph-name="acute" unicode="&#xb4;" 
d="M197 684q6 9 7.5 17.5t-2 16.5t-12.5 13t-17.5 4t-15.5 -7t-10 -16l-38 -107h35z" />
    <glyph glyph-name="mu" unicode="&#xb5;" horiz-adv-x="466" 
d="M409 95v415l-57 -12v-344q0 -37 -15 -62t-41 -37t-60 -12q-44 0 -75.5 15t-47.5 40t-16 54v349h-58v-688l58 -23v254q0 1 7 -7t23.5 -19.5t43.5 -20.5t67 -9q26 0 50 6.5t43.5 19.5t29.5 30q11 -21 21 -31t17 -13.5t10 -5.5l27 32q-2 2 -8.5 10t-12.5 23t-6 36z" />
    <glyph glyph-name="paragraph" unicode="&#xb6;" horiz-adv-x="622" 
d="M228 247h180v-246h56v648h59v-648h56v701h-351q-48 0 -84.5 -11.5t-62 -37.5t-38.5 -69.5t-13 -107.5q0 -62 12.5 -106t37.5 -71t62 -39.5t86 -12.5zM224 649h184v-348h-184q-28 0 -53 6t-44 24t-30 53t-11 92q0 71 18 108t49.5 51t70.5 14z" />
    <glyph glyph-name="periodcentered" unicode="&#xb7;" horiz-adv-x="138" 
d="M68 317q-13 0 -23 -9.5t-10 -23.5q0 -13 10 -23t23 -10q14 0 24.5 10t10.5 23q0 14 -10.5 23.5t-24.5 9.5z" />
    <glyph glyph-name="cedilla" unicode="&#xb8;" 
d="M166 10h-50l-41 -69l13 -30q14 2 27 3.5t25 2.5t23 1q26 0 42 -8t16 -34q0 -20 -9.5 -31.5t-25.5 -15.5t-36 -4q-13 0 -27 1.5t-28 4t-29 5.5l-12 -48q1 0 17 -3t39 -6t46 -3q44 0 79.5 24.5t35.5 73.5q0 42 -27.5 69.5t-77.5 24.5q-7 -1 -13.5 -1t-12.5 -1z" />
    <glyph glyph-name="ordmasculine" unicode="&#xba;" horiz-adv-x="340" 
d="M305 503v83q0 59 -34 92t-99 33t-101 -32t-36 -93v-83q0 -34 15.5 -62.5t46 -45t76.5 -16.5q67 0 99.5 34.5t32.5 89.5zM251 581v-77q0 -34 -19 -54t-59 -20q-25 0 -44 9.5t-29.5 26t-10.5 38.5v77q0 39 21 59t63 20q27 0 44.5 -9t25.5 -26.5t8 -43.5z" />
    <glyph glyph-name="guillemotright" unicode="&#xbb;" horiz-adv-x="504" 
d="M181 267l-148 -153l34 -35l188 188l-188 188l-36 -38zM400 267l-147 -153l35 -35l187 188l-187 188l-37 -38z" />
    <glyph glyph-name="questiondown" unicode="&#xbf;" horiz-adv-x="409" 
d="M379 162h-56q0 -32 -10 -56t-27.5 -39.5t-39 -23t-44.5 -6.5q-29 1 -56 15t-44.5 40.5t-17.5 65.5q0 34 11.5 58.5t30 45t37.5 41.5q14 16 27.5 34t25 39t18 47t6.5 59v92h-52v-87q0 -31 -6.5 -54t-17 -40.5t-24 -33t-28.5 -32.5q-23 -26 -42 -51.5t-30 -54t-11 -65.5
q0 -42 15 -73.5t40.5 -53.5t57.5 -33t65 -11q32 0 62.5 10.5t55 32t39.5 55t15 79.5zM213 703q-13 0 -23 -10t-10 -24q0 -13 10 -23t23 -10q14 0 24 10t10 23q0 14 -10 24t-24 10z" />
    <glyph glyph-name="Agrave" unicode="&#xc0;" horiz-adv-x="547" 
d="M253 862q-3 10 -10 16.5t-16 8t-19 -4.5q-8 -4 -11.5 -12.5t-1.5 -18t7 -17.5l54 -79h36zM527 0l-228 700h-53l-225 -700h60l79 245h227l81 -245h59zM175 300l97 314l100 -314h-197z" />
    <glyph glyph-name="Aacute" unicode="&#xc1;" horiz-adv-x="547" 
d="M347 834q6 9 7.5 17.5t-2 16.5t-12.5 13t-17.5 4t-15.5 -7t-10 -16l-38 -107h35zM527 0l-228 700h-53l-225 -700h60l79 245h227l81 -245h59zM175 300l97 314l100 -314h-197z" />
    <glyph glyph-name="Acircumflex" unicode="&#xc2;" horiz-adv-x="547" 
d="M403 774l-129 127l-132 -128l39 -38l93 90l89 -88zM527 0l-228 700h-53l-225 -700h60l79 245h227l81 -245h59zM175 300l97 314l100 -314h-197z" />
    <glyph glyph-name="Atilde" unicode="&#xc3;" horiz-adv-x="547" 
d="M345 869v-18q0 -11 -3.5 -21.5t-14.5 -10.5q-10 0 -22 8.5t-14 9.5q-10 8 -21 15t-22 11q-17 8 -37.5 7t-35.5 -13q-10 -8 -15.5 -19.5t-7.5 -23.5t-2 -24v-18h50v18q0 5 1 14.5t5 13.5q8 5 17 2t16 -8q8 -4 16.5 -10.5t17.5 -11.5q13 -7 26.5 -14t29.5 -7
q35 0 50.5 25.5t15.5 56.5v18h-50zM527 0l-228 700h-53l-225 -700h60l79 245h227l81 -245h59zM175 300l97 314l100 -314h-197z" />
    <glyph glyph-name="Adieresis" unicode="&#xc4;" horiz-adv-x="547" 
d="M194 852q-13 0 -23 -10t-10 -24q0 -13 10 -23t23 -10q14 0 24 10t10 23q0 14 -10 24t-24 10zM353 852q-14 0 -23.5 -10t-9.5 -24q0 -13 9.5 -23t23.5 -10t23.5 10t9.5 23q0 14 -9.5 24t-23.5 10zM527 0l-228 700h-53l-225 -700h60l79 245h227l81 -245h59zM175 300l97 314
l100 -314h-197z" />
    <glyph glyph-name="Aring" unicode="&#xc5;" horiz-adv-x="547" 
d="M273 895q-31 0 -57.5 -15t-42 -40.5t-15.5 -57.5t15.5 -58t42 -41t57.5 -15t56.5 15t41 41t15.5 58t-15.5 57.5t-41 40.5t-56.5 15zM273 851q29 0 50 -21q19 -19 19 -48q0 -14 -5.5 -27t-14.5 -23q-10 -9 -22.5 -14.5t-26.5 -5.5q-15 0 -27.5 5.5t-22.5 14.5
q-10 10 -15.5 23t-5.5 27t5.5 26.5t14.5 22.5q10 9 23 14.5t28 5.5zM527 0l-228 700h-53l-225 -700h60l79 245h227l81 -245h59zM175 300l97 314l100 -314h-197z" />
    <glyph glyph-name="AE" unicode="&#xc6;" horiz-adv-x="752" 
d="M384 0h337v50h-280v306h173l19 58h-192v233h280v53h-429l-272 -700h59l95 244h210v-244zM195 300l135 347h54v-347h-189z" />
    <glyph glyph-name="Ccedilla" unicode="&#xc7;" horiz-adv-x="423" 
d="M244 10h-50l-41 -69l13 -30q14 2 27 3.5t25 2.5t23 1q26 0 42 -8t16 -34q0 -20 -9.5 -31.5t-25.5 -15.5t-36 -4q-13 0 -27 1.5t-28 4t-29 5.5l-12 -48q1 0 17 -3t39 -6t46 -3q44 0 79.5 24.5t35.5 73.5q0 42 -27.5 69.5t-77.5 24.5q-7 -1 -13.5 -1t-12.5 -1zM354 639
l17 38q-31 17 -67 25t-75 8q-55 0 -99 -21t-70 -65t-26 -114v-326q0 -67 24 -110t69 -63.5t108 -20.5q38 0 78.5 8.5t82.5 24.5l-12 46q-28 -9 -54 -15.5t-48.5 -10t-42.5 -3.5q-50 0 -83 14.5t-49 47t-16 84.5v328q0 53 18.5 85t53.5 46.5t84 14.5q26 0 52.5 -5t54.5 -16z
" />
    <glyph glyph-name="Egrave" unicode="&#xc8;" horiz-adv-x="406" 
d="M183 861q-3 10 -10 16.5t-16 8t-19 -4.5q-8 -4 -11.5 -12.5t-1.5 -18t7 -17.5l54 -79h36zM41 0h332v50h-275v307h172l18 55h-190v236h277v52h-334v-700z" />
    <glyph glyph-name="Eacute" unicode="&#xc9;" horiz-adv-x="406" 
d="M266 834q6 9 7.5 17.5t-2 16.5t-12.5 13t-17.5 4t-15.5 -7t-10 -16l-38 -107h35zM41 0h332v50h-275v307h172l18 55h-190v236h277v52h-334v-700z" />
    <glyph glyph-name="Ecircumflex" unicode="&#xca;" horiz-adv-x="406" 
d="M334 774l-129 127l-132 -128l39 -38l93 90l89 -88zM41 0h332v50h-275v307h172l18 55h-190v236h277v52h-334v-700z" />
    <glyph glyph-name="Edieresis" unicode="&#xcb;" horiz-adv-x="406" 
d="M124 852q-13 0 -23 -10t-10 -24q0 -13 10 -23t23 -10q14 0 24 10t10 23q0 14 -10 24t-24 10zM283 852q-14 0 -23.5 -10t-9.5 -24q0 -13 9.5 -23t23.5 -10t23.5 10t9.5 23q0 14 -9.5 24t-23.5 10zM41 0h332v50h-275v307h172l18 55h-190v236h277v52h-334v-700z" />
    <glyph glyph-name="Igrave" unicode="&#xcc;" horiz-adv-x="187" 
d="M94 864q-3 10 -10 16.5t-16 8t-19 -4.5q-8 -4 -11.5 -12.5t-1.5 -18t7 -17.5l54 -79h36zM20 651l68 -2v-649h56v700h-124v-49z" />
    <glyph glyph-name="Iacute" unicode="&#xcd;" horiz-adv-x="187" 
d="M187 834q6 9 7.5 17.5t-2 16.5t-12.5 13t-17.5 4t-15.5 -7t-10 -16l-38 -107h35zM20 651l68 -2v-649h56v700h-124v-49z" />
    <glyph glyph-name="Icircumflex" unicode="&#xce;" horiz-adv-x="187" 
d="M245 774l-129 127l-132 -128l39 -38l93 90l89 -88zM20 651l68 -2v-649h56v700h-124v-49z" />
    <glyph glyph-name="Idieresis" unicode="&#xcf;" horiz-adv-x="187" 
d="M31 852q-13 0 -23 -10t-10 -24q0 -13 10 -23t23 -10q14 0 24 10t10 23q0 14 -10 24t-24 10zM190 852q-14 0 -23.5 -10t-9.5 -24q0 -13 9.5 -23t23.5 -10t23.5 10t9.5 23q0 14 -9.5 24t-23.5 10zM20 651l68 -2v-649h56v700h-124v-49z" />
    <glyph glyph-name="Eth" unicode="&#xd0;" horiz-adv-x="497" 
d="M67 357h203l18 55h-221v-55zM230 700h-189v-700h209q71 0 118 22.5t70.5 67t23.5 110.5v275q0 68 -26.5 118.5t-78 78.5t-127.5 28zM233 50h-135v600h142q59 0 95 -22t53 -58.5t17 -79.5v-300q0 -34 -10.5 -60.5t-32 -44t-53.5 -26.5t-76 -9z" />
    <glyph glyph-name="Ntilde" unicode="&#xd1;" horiz-adv-x="577" 
d="M360 869v-18q0 -11 -3.5 -21.5t-14.5 -10.5q-10 0 -22 8.5t-14 9.5q-10 8 -21 15t-22 11q-17 8 -37.5 7t-35.5 -13q-10 -8 -15.5 -19.5t-7.5 -23.5t-2 -24v-18h50v18q0 5 1 14.5t5 13.5q8 5 17 2t16 -8q8 -4 16.5 -10.5t17.5 -11.5q13 -7 26.5 -14t29.5 -7
q35 0 50.5 25.5t15.5 56.5v18h-50zM534 700h-56v-597l-380 597h-57v-700h57v597l380 -597h56v700z" />
    <glyph glyph-name="Ograve" unicode="&#xd2;" horiz-adv-x="492" 
d="M226 863q-3 10 -10 16.5t-16 8t-19 -4.5q-8 -4 -11.5 -12.5t-1.5 -18t7 -17.5l54 -79h36zM34 508v-322q0 -65 28.5 -109t76.5 -66t107 -22q62 0 109.5 24t74 68t26.5 105v321q0 98 -55 153.5t-154 55.5t-156 -53t-57 -155zM91 187v330q0 49 19 81t53.5 48.5t80.5 16.5
q48 0 83 -16.5t54 -48.5t19 -81v-330q0 -49 -20 -81.5t-55 -48t-81 -15.5q-44 0 -78.5 16.5t-54.5 48.5t-20 80z" />
    <glyph glyph-name="Oacute" unicode="&#xd3;" horiz-adv-x="492" 
d="M309 834q6 9 7.5 17.5t-2 16.5t-12.5 13t-17.5 4t-15.5 -7t-10 -16l-38 -107h35zM34 508v-322q0 -65 28.5 -109t76.5 -66t107 -22q62 0 109.5 24t74 68t26.5 105v321q0 98 -55 153.5t-154 55.5t-156 -53t-57 -155zM91 187v330q0 49 19 81t53.5 48.5t80.5 16.5
q48 0 83 -16.5t54 -48.5t19 -81v-330q0 -49 -20 -81.5t-55 -48t-81 -15.5q-44 0 -78.5 16.5t-54.5 48.5t-20 80z" />
    <glyph glyph-name="Ocircumflex" unicode="&#xd4;" horiz-adv-x="492" 
d="M376 774l-129 127l-132 -128l39 -38l93 90l89 -88zM34 508v-322q0 -65 28.5 -109t76.5 -66t107 -22q62 0 109.5 24t74 68t26.5 105v321q0 98 -55 153.5t-154 55.5t-156 -53t-57 -155zM91 187v330q0 49 19 81t53.5 48.5t80.5 16.5q48 0 83 -16.5t54 -48.5t19 -81v-330
q0 -49 -20 -81.5t-55 -48t-81 -15.5q-44 0 -78.5 16.5t-54.5 48.5t-20 80z" />
    <glyph glyph-name="Otilde" unicode="&#xd5;" horiz-adv-x="492" 
d="M318 869v-18q0 -11 -3.5 -21.5t-14.5 -10.5q-10 0 -22 8.5t-14 9.5q-10 8 -21 15t-22 11q-17 8 -37.5 7t-35.5 -13q-10 -8 -15.5 -19.5t-7.5 -23.5t-2 -24v-18h50v18q0 5 1 14.5t5 13.5q8 5 17 2t16 -8q8 -4 16.5 -10.5t17.5 -11.5q13 -7 26.5 -14t29.5 -7
q35 0 50.5 25.5t15.5 56.5v18h-50zM34 508v-322q0 -65 28.5 -109t76.5 -66t107 -22q62 0 109.5 24t74 68t26.5 105v321q0 98 -55 153.5t-154 55.5t-156 -53t-57 -155zM91 187v330q0 49 19 81t53.5 48.5t80.5 16.5q48 0 83 -16.5t54 -48.5t19 -81v-330q0 -49 -20 -81.5
t-55 -48t-81 -15.5q-44 0 -78.5 16.5t-54.5 48.5t-20 80z" />
    <glyph glyph-name="Odieresis" unicode="&#xd6;" horiz-adv-x="492" 
d="M166 852q-13 0 -23 -10t-10 -24q0 -13 10 -23t23 -10q14 0 24 10t10 23q0 14 -10 24t-24 10zM325 852q-14 0 -23.5 -10t-9.5 -24q0 -13 9.5 -23t23.5 -10t23.5 10t9.5 23q0 14 -9.5 24t-23.5 10zM34 508v-322q0 -65 28.5 -109t76.5 -66t107 -22q62 0 109.5 24t74 68
t26.5 105v321q0 98 -55 153.5t-154 55.5t-156 -53t-57 -155zM91 187v330q0 49 19 81t53.5 48.5t80.5 16.5q48 0 83 -16.5t54 -48.5t19 -81v-330q0 -49 -20 -81.5t-55 -48t-81 -15.5q-44 0 -78.5 16.5t-54.5 48.5t-20 80z" />
    <glyph glyph-name="multiply" unicode="&#xd7;" horiz-adv-x="347" 
d="M174 375l-103 122l-40 -34l106 -130l-106 -127l42 -38l101 122l100 -122l41 38l-106 127l106 130l-41 34z" />
    <glyph glyph-name="Oslash" unicode="&#xd8;" horiz-adv-x="492" 
d="M38 -1h62l344 701h-57zM34 508v-322q0 -65 28.5 -109t76.5 -66t107 -22q62 0 109.5 24t74 68t26.5 105v321q0 98 -55 153.5t-154 55.5t-156 -53t-57 -155zM91 187v330q0 49 19 81t53.5 48.5t80.5 16.5q48 0 83 -16.5t54 -48.5t19 -81v-330q0 -49 -20 -81.5t-55 -48
t-81 -15.5q-44 0 -78.5 16.5t-54.5 48.5t-20 80z" />
    <glyph glyph-name="Ugrave" unicode="&#xd9;" horiz-adv-x="498" 
d="M229 863q-3 10 -10 16.5t-16 8t-19 -4.5q-8 -4 -11.5 -12.5t-1.5 -18t7 -17.5l54 -79h36zM458 186v514h-56v-513q0 -48 -19.5 -80.5t-54 -48.5t-80.5 -16t-80.5 16.5t-54 48.5t-19.5 80v513h-56v-514q0 -65 26.5 -109t74.5 -66t110 -22t109 22.5t73.5 66.5t26.5 108z" />
    <glyph glyph-name="Uacute" unicode="&#xda;" horiz-adv-x="498" 
d="M312 834q6 9 7.5 17.5t-2 16.5t-12.5 13t-17.5 4t-15.5 -7t-10 -16l-38 -107h35zM458 186v514h-56v-513q0 -48 -19.5 -80.5t-54 -48.5t-80.5 -16t-80.5 16.5t-54 48.5t-19.5 80v513h-56v-514q0 -65 26.5 -109t74.5 -66t110 -22t109 22.5t73.5 66.5t26.5 108z" />
    <glyph glyph-name="Ucircumflex" unicode="&#xdb;" horiz-adv-x="498" 
d="M379 774l-129 127l-132 -128l39 -38l93 90l89 -88zM458 186v514h-56v-513q0 -48 -19.5 -80.5t-54 -48.5t-80.5 -16t-80.5 16.5t-54 48.5t-19.5 80v513h-56v-514q0 -65 26.5 -109t74.5 -66t110 -22t109 22.5t73.5 66.5t26.5 108z" />
    <glyph glyph-name="Udieresis" unicode="&#xdc;" horiz-adv-x="498" 
d="M169 852q-13 0 -23 -10t-10 -24q0 -13 10 -23t23 -10q14 0 24 10t10 23q0 14 -10 24t-24 10zM328 852q-14 0 -23.5 -10t-9.5 -24q0 -13 9.5 -23t23.5 -10t23.5 10t9.5 23q0 14 -9.5 24t-23.5 10zM458 186v514h-56v-513q0 -48 -19.5 -80.5t-54 -48.5t-80.5 -16t-80.5 16.5
t-54 48.5t-19.5 80v513h-56v-514q0 -65 26.5 -109t74.5 -66t110 -22t109 22.5t73.5 66.5t26.5 108z" />
    <glyph glyph-name="Yacute" unicode="&#xdd;" horiz-adv-x="515" 
d="M320 834q6 9 7.5 17.5t-2 16.5t-12.5 13t-17.5 4t-15.5 -7t-10 -16l-38 -107h35zM474 156v544h-57v-277q0 -34 -15 -58t-39.5 -38t-54 -20.5t-58.5 -6.5q-51 0 -88 17t-56.5 51t-19.5 85v247h-56v-245q0 -64 24 -111t70.5 -73t113.5 -26q32 0 66 6.5t64 20t49 34.5v-153
q0 -25 -3.5 -45t-11 -35.5t-19 -26t-27.5 -16.5l13 -37q50 7 77.5 48.5t27.5 114.5z" />
    <glyph glyph-name="Thorn" unicode="&#xde;" horiz-adv-x="506" 
d="M277 617h-179l1 83h-58v-700h57v162h179q50 0 87.5 12.5t62 39.5t37 71t12.5 106q0 64 -13 107.5t-38.5 69.5t-62.5 37.5t-85 11.5zM98 217v347h184q29 0 54 -7.5t43.5 -26t29 -52.5t10.5 -87q0 -57 -10.5 -92t-29.5 -52.5t-43.5 -23.5t-53.5 -6h-184z" />
    <glyph glyph-name="germandbls" unicode="&#xdf;" horiz-adv-x="466" 
d="M96 0v541q0 35 9 58.5t27.5 35.5t46.5 12q21 0 36.5 -10t24.5 -26t10 -34q1 -17 -4.5 -33t-19 -26t-36.5 -10q-11 -19 -14.5 -38t-2.5 -36q3 -27 19 -51.5t39.5 -46.5t49.5 -43.5t48.5 -44.5t37 -48.5t14.5 -55.5q0 -25 -8.5 -44t-24 -31.5t-34.5 -19t-40 -6.5
q-15 0 -30 2t-29 6t-27.5 11t-26.5 17l-27 -43q20 -16 44.5 -27t51 -16t53.5 -4q31 2 59 11.5t50 28t34.5 47t12.5 66.5q0 36 -14 66.5t-37 56.5t-48.5 49t-49.5 43.5t-40.5 41t-19.5 41.5q-1 10 1 19t8 18h4.5h11h11t3.5 0q14 11 22 26t11.5 33t2.5 36q-1 32 -16.5 62
t-44 49t-70.5 17q-33 -1 -58 -12t-42 -31.5t-26 -50t-9 -68.5v-538h57z" />
    <glyph glyph-name="agrave" unicode="&#xe0;" horiz-adv-x="447" 
d="M204 662q-3 10 -10 16.5t-16 8t-19 -4.5q-8 -4 -11.5 -12.5t-1.5 -18t7 -17.5l54 -79h36zM355 350q-23 14 -51.5 26t-59.5 19.5t-64 7.5q-30 0 -57.5 -8t-49.5 -25.5t-34.5 -46.5t-12.5 -71v-83q0 -55 17.5 -91t48 -55.5t72 -26.5t89.5 -6q15 0 35.5 1t42 2.5t40 3
t30 2.5t10.5 1v288q0 62 -10 104.5t-33.5 68t-63.5 37t-101 11.5l-2 -43q30 0 58 -4.5t49.5 -16.5t34 -35t12.5 -60zM355 303v-257l-4.5 -0.5t-13.5 -1t-22 -2t-29.5 -2.5t-36.5 -2q-50 -2 -83 5.5t-51.5 25t-26 44.5t-7.5 63v74q0 34 9.5 55t24.5 31.5t31 14.5t29 4
q32 0 63 -7t61 -19t56 -26z" />
    <glyph glyph-name="aacute" unicode="&#xe1;" horiz-adv-x="447" 
d="M291 633q6 9 7.5 17.5t-2 16.5t-12.5 13t-17.5 4t-15.5 -7t-10 -16l-38 -107h35zM355 350q-23 14 -51.5 26t-59.5 19.5t-64 7.5q-30 0 -57.5 -8t-49.5 -25.5t-34.5 -46.5t-12.5 -71v-83q0 -55 17.5 -91t48 -55.5t72 -26.5t89.5 -6q15 0 35.5 1t42 2.5t40 3t30 2.5t10.5 1
v288q0 62 -10 104.5t-33.5 68t-63.5 37t-101 11.5l-2 -43q30 0 58 -4.5t49.5 -16.5t34 -35t12.5 -60zM355 303v-257l-4.5 -0.5t-13.5 -1t-22 -2t-29.5 -2.5t-36.5 -2q-50 -2 -83 5.5t-51.5 25t-26 44.5t-7.5 63v74q0 34 9.5 55t24.5 31.5t31 14.5t29 4q32 0 63 -7t61 -19
t56 -26z" />
    <glyph glyph-name="acircumflex" unicode="&#xe2;" horiz-adv-x="447" 
d="M349 589l-129 127l-132 -128l39 -38l93 90l89 -88zM355 350q-23 14 -51.5 26t-59.5 19.5t-64 7.5q-30 0 -57.5 -8t-49.5 -25.5t-34.5 -46.5t-12.5 -71v-83q0 -55 17.5 -91t48 -55.5t72 -26.5t89.5 -6q15 0 35.5 1t42 2.5t40 3t30 2.5t10.5 1v288q0 62 -10 104.5t-33.5 68
t-63.5 37t-101 11.5l-2 -43q30 0 58 -4.5t49.5 -16.5t34 -35t12.5 -60zM355 303v-257l-4.5 -0.5t-13.5 -1t-22 -2t-29.5 -2.5t-36.5 -2q-50 -2 -83 5.5t-51.5 25t-26 44.5t-7.5 63v74q0 34 9.5 55t24.5 31.5t31 14.5t29 4q32 0 63 -7t61 -19t56 -26z" />
    <glyph glyph-name="atilde" unicode="&#xe3;" horiz-adv-x="447" 
d="M296 674v-18q0 -11 -3.5 -21.5t-14.5 -10.5q-10 0 -22 8.5t-14 9.5q-10 8 -21 15t-22 11q-17 8 -37.5 7t-35.5 -13q-10 -8 -15.5 -19.5t-7.5 -23.5t-2 -24v-18h50v18q0 5 1 14.5t5 13.5q8 5 17 2t16 -8q8 -4 16.5 -10.5t17.5 -11.5q13 -7 26.5 -14t29.5 -7
q35 0 50.5 25.5t15.5 56.5v18h-50zM355 350q-23 14 -51.5 26t-59.5 19.5t-64 7.5q-30 0 -57.5 -8t-49.5 -25.5t-34.5 -46.5t-12.5 -71v-83q0 -55 17.5 -91t48 -55.5t72 -26.5t89.5 -6q15 0 35.5 1t42 2.5t40 3t30 2.5t10.5 1v288q0 62 -10 104.5t-33.5 68t-63.5 37
t-101 11.5l-2 -43q30 0 58 -4.5t49.5 -16.5t34 -35t12.5 -60zM355 303v-257l-4.5 -0.5t-13.5 -1t-22 -2t-29.5 -2.5t-36.5 -2q-50 -2 -83 5.5t-51.5 25t-26 44.5t-7.5 63v74q0 34 9.5 55t24.5 31.5t31 14.5t29 4q32 0 63 -7t61 -19t56 -26z" />
    <glyph glyph-name="adieresis" unicode="&#xe4;" horiz-adv-x="447" 
d="M144 657q-13 0 -23 -10t-10 -24q0 -13 10 -23t23 -10q14 0 24 10t10 23q0 14 -10 24t-24 10zM303 657q-14 0 -23.5 -10t-9.5 -24q0 -13 9.5 -23t23.5 -10t23.5 10t9.5 23q0 14 -9.5 24t-23.5 10zM355 350q-23 14 -51.5 26t-59.5 19.5t-64 7.5q-30 0 -57.5 -8t-49.5 -25.5
t-34.5 -46.5t-12.5 -71v-83q0 -55 17.5 -91t48 -55.5t72 -26.5t89.5 -6q15 0 35.5 1t42 2.5t40 3t30 2.5t10.5 1v288q0 62 -10 104.5t-33.5 68t-63.5 37t-101 11.5l-2 -43q30 0 58 -4.5t49.5 -16.5t34 -35t12.5 -60zM355 303v-257l-4.5 -0.5t-13.5 -1t-22 -2t-29.5 -2.5
t-36.5 -2q-50 -2 -83 5.5t-51.5 25t-26 44.5t-7.5 63v74q0 34 9.5 55t24.5 31.5t31 14.5t29 4q32 0 63 -7t61 -19t56 -26z" />
    <glyph glyph-name="aring" unicode="&#xe5;" horiz-adv-x="447" 
d="M225 690q-31 0 -57.5 -15t-42 -40.5t-15.5 -57.5t15.5 -58t42 -41t57.5 -15t56.5 15t41 41t15.5 58t-15.5 57.5t-41 40.5t-56.5 15zM225 646q29 0 50 -21q19 -19 19 -48q0 -14 -5.5 -27t-14.5 -23q-10 -9 -22.5 -14.5t-26.5 -5.5q-15 0 -27.5 5.5t-22.5 14.5
q-10 10 -15.5 23t-5.5 27t5.5 26.5t14.5 22.5q10 9 23 14.5t28 5.5zM355 350q-23 14 -51.5 26t-59.5 19.5t-64 7.5q-30 0 -57.5 -8t-49.5 -25.5t-34.5 -46.5t-12.5 -71v-83q0 -55 17.5 -91t48 -55.5t72 -26.5t89.5 -6q15 0 35.5 1t42 2.5t40 3t30 2.5t10.5 1v288
q0 62 -10 104.5t-33.5 68t-63.5 37t-101 11.5l-2 -43q30 0 58 -4.5t49.5 -16.5t34 -35t12.5 -60zM355 303v-257l-4.5 -0.5t-13.5 -1t-22 -2t-29.5 -2.5t-36.5 -2q-50 -2 -83 5.5t-51.5 25t-26 44.5t-7.5 63v74q0 34 9.5 55t24.5 31.5t31 14.5t29 4q32 0 63 -7t61 -19t56 -26
z" />
    <glyph glyph-name="ae" unicode="&#xe6;" horiz-adv-x="749" 
d="M355 350q-23 14 -51.5 26t-59.5 19.5t-64 7.5q-30 0 -57.5 -8t-49.5 -25.5t-34.5 -46.5t-12.5 -71v-83q0 -55 17.5 -91t48 -55.5t72 -26.5t89.5 -6q15 0 35.5 1t42 2.5t40 3t30 2.5t10.5 1v288q0 62 -10 104.5t-33.5 68t-63.5 37t-101 11.5l-2 -43q30 0 58 -4.5
t49.5 -16.5t34 -35t12.5 -60zM355 303v-257l-4.5 -0.5t-13.5 -1t-22 -2t-29.5 -2.5t-36.5 -2q-50 -2 -83 5.5t-51.5 25t-26 44.5t-7.5 63v74q0 34 9.5 55t24.5 31.5t31 14.5t29 4q32 0 63 -7t61 -19t56 -26zM413 134v62l305 16v130q0 56 -21.5 93t-61 56t-93.5 19
q-53 0 -95 -19t-66 -57t-24 -95v-205q0 -42 12.5 -70t35.5 -45t55 -24t70 -7t82 12.5t81 34.5l-22 43q-37 -19 -73 -30.5t-73 -11.5q-24 0 -44.5 5.5t-35.5 17t-23.5 30t-8.5 45.5zM662 349v-87l-249 -11v87q0 40 15.5 68t44.5 42.5t68 14.5q35 0 62 -14t43 -39.5t16 -60.5z
" />
    <glyph glyph-name="ccedilla" unicode="&#xe7;" horiz-adv-x="381" 
d="M223 15h-50l-41 -69l13 -30q14 2 27 3.5t25 2.5t23 1q26 0 42 -8t16 -34q0 -20 -9.5 -31.5t-25.5 -15.5t-36 -4q-13 0 -27 1.5t-28 4t-29 5.5l-12 -48q1 0 17 -3t39 -6t46 -3q44 0 79.5 24.5t35.5 73.5q0 42 -27.5 69.5t-77.5 24.5q-7 -1 -13.5 -1t-12.5 -1zM335 433
l14 45q-31 14 -65.5 23t-68.5 9q-62 0 -103.5 -24t-62 -67t-20.5 -100v-145q0 -64 23.5 -104.5t66.5 -60t100 -20.5q33 -1 67 3.5t65 12.5l-11 50q1 0 -9 -2t-27.5 -5t-39 -5t-43.5 -2q-36 1 -62 9.5t-43 25.5t-24.5 44.5t-7.5 65.5l1 125q1 43 14 76.5t42 52.5t76 19
q29 -1 60.5 -7.5t57.5 -18.5z" />
    <glyph glyph-name="egrave" unicode="&#xe8;" horiz-adv-x="422" 
d="M191 662q-3 10 -10 16.5t-16 8t-19 -4.5q-8 -4 -11.5 -12.5t-1.5 -18t7 -17.5l54 -79h36zM87 134v62l305 16v130q0 56 -21.5 93t-61 56t-93.5 19q-53 0 -95 -19t-66 -57t-24 -95v-205q0 -42 12.5 -70t35.5 -45t55 -24t70 -7t82 12.5t81 34.5l-22 43q-37 -19 -73 -30.5
t-73 -11.5q-24 0 -44.5 5.5t-35.5 17t-23.5 30t-8.5 45.5zM336 349v-87l-249 -11v87q0 40 15.5 68t44.5 42.5t68 14.5q35 0 62 -14t43 -39.5t16 -60.5z" />
    <glyph glyph-name="eacute" unicode="&#xe9;" horiz-adv-x="422" 
d="M274 649q6 9 7.5 17.5t-2 16.5t-12.5 13t-17.5 4t-15.5 -7t-10 -16l-38 -107h35zM87 134v62l305 16v130q0 56 -21.5 93t-61 56t-93.5 19q-53 0 -95 -19t-66 -57t-24 -95v-205q0 -42 12.5 -70t35.5 -45t55 -24t70 -7t82 12.5t81 34.5l-22 43q-37 -19 -73 -30.5t-73 -11.5
q-24 0 -44.5 5.5t-35.5 17t-23.5 30t-8.5 45.5zM336 349v-87l-249 -11v87q0 40 15.5 68t44.5 42.5t68 14.5q35 0 62 -14t43 -39.5t16 -60.5z" />
    <glyph glyph-name="ecircumflex" unicode="&#xea;" horiz-adv-x="422" 
d="M341 589l-129 127l-132 -128l39 -38l93 90l89 -88zM87 134v62l305 16v130q0 56 -21.5 93t-61 56t-93.5 19q-53 0 -95 -19t-66 -57t-24 -95v-205q0 -42 12.5 -70t35.5 -45t55 -24t70 -7t82 12.5t81 34.5l-22 43q-37 -19 -73 -30.5t-73 -11.5q-24 0 -44.5 5.5t-35.5 17
t-23.5 30t-8.5 45.5zM336 349v-87l-249 -11v87q0 40 15.5 68t44.5 42.5t68 14.5q35 0 62 -14t43 -39.5t16 -60.5z" />
    <glyph glyph-name="edieresis" unicode="&#xeb;" horiz-adv-x="422" 
d="M131 657q-13 0 -23 -10t-10 -24q0 -13 10 -23t23 -10q14 0 24 10t10 23q0 14 -10 24t-24 10zM290 657q-14 0 -23.5 -10t-9.5 -24q0 -13 9.5 -23t23.5 -10t23.5 10t9.5 23q0 14 -9.5 24t-23.5 10zM87 134v62l305 16v130q0 56 -21.5 93t-61 56t-93.5 19q-53 0 -95 -19
t-66 -57t-24 -95v-205q0 -42 12.5 -70t35.5 -45t55 -24t70 -7t82 12.5t81 34.5l-22 43q-37 -19 -73 -30.5t-73 -11.5q-24 0 -44.5 5.5t-35.5 17t-23.5 30t-8.5 45.5zM336 349v-87l-249 -11v87q0 40 15.5 68t44.5 42.5t68 14.5q35 0 62 -14t43 -39.5t16 -60.5z" />
    <glyph glyph-name="igrave" unicode="&#xec;" horiz-adv-x="135" 
d="M48 682q-3 10 -10 16.5t-16 8t-19 -4.5q-8 -4 -11.5 -12.5t-1.5 -18t7 -17.5l54 -79h36zM38 0h57v500h-57v-500z" />
    <glyph glyph-name="iacute" unicode="&#xed;" horiz-adv-x="135" 
d="M141 649q6 9 7.5 17.5t-2 16.5t-12.5 13t-17.5 4t-15.5 -7t-10 -16l-38 -107h35zM38 0h57v500h-57v-500z" />
    <glyph glyph-name="icircumflex" unicode="&#xee;" horiz-adv-x="135" 
d="M198 589l-129 127l-132 -128l39 -38l93 90l89 -88zM38 0h57v500h-57v-500z" />
    <glyph glyph-name="idieresis" unicode="&#xef;" horiz-adv-x="135" 
d="M-12 657q-13 0 -23 -10t-10 -24q0 -13 10 -23t23 -10q14 0 24 10t10 23q0 14 -10 24t-24 10zM147 657q-14 0 -23.5 -10t-9.5 -24q0 -13 9.5 -23t23.5 -10t23.5 10t9.5 23q0 14 -9.5 24t-23.5 10zM38 0h57v500h-57v-500z" />
    <glyph glyph-name="eth" unicode="&#xf0;" horiz-adv-x="425" 
d="M306 659q-24 17 -52.5 27.5t-63.5 14.5l-9 -31q9 -2 24 -6.5t33 -13.5t36 -23l-103 -103l28 -28l103 103q17 -21 28 -50t11 -68v-121q-8 16 -22.5 29.5t-34 23.5t-41.5 15.5t-45 5.5q-82 0 -126 -48t-44 -140v-58q0 -91 47.5 -144t136.5 -53t137.5 51t48.5 146v283
q0 30 -7 59t-20.5 55.5t-34.5 47.5l42 42l-28 28zM209 43q-42 0 -69.5 16t-41.5 48t-14 81v66q0 42 14 70.5t40.5 42.5t64.5 14q29 0 54 -8.5t44 -25.5t29.5 -41.5t10.5 -56.5v-61q0 -49 -14.5 -81t-44 -48t-73.5 -16z" />
    <glyph glyph-name="ntilde" unicode="&#xf1;" horiz-adv-x="443" 
d="M295 674v-18q0 -11 -3.5 -21.5t-14.5 -10.5q-10 0 -22 8.5t-14 9.5q-10 8 -21 15t-22 11q-17 8 -37.5 7t-35.5 -13q-10 -8 -15.5 -19.5t-7.5 -23.5t-2 -24v-18h50v18q0 5 1 14.5t5 13.5q8 5 17 2t16 -8q8 -4 16.5 -10.5t17.5 -11.5q13 -7 26.5 -14t29.5 -7
q35 0 50.5 25.5t15.5 56.5v18h-50zM352 342v-342h55v345q0 32 -7.5 57.5t-22 45.5t-35.5 34t-48.5 21t-60.5 7q-25 0 -49.5 -5.5t-47 -15t-41.5 -22.5v34h-57v-501h57v425q21 12 41 19.5t41.5 11.5t44.5 4q24 0 47 -6t42 -19.5t30 -36t11 -56.5z" />
    <glyph glyph-name="ograve" unicode="&#xf2;" horiz-adv-x="430" 
d="M195 682q-3 10 -10 16.5t-16 8t-19 -4.5q-8 -4 -11.5 -12.5t-1.5 -18t7 -17.5l54 -79h36zM399 185v131q0 92 -47 144t-136 52q-59 0 -101 -22.5t-64 -66t-22 -107.5v-131q0 -54 21 -98t63.5 -70.5t104.5 -26.5q91 0 136 53.5t45 141.5zM343 316v-141q0 -41 -13.5 -71.5
t-41.5 -47t-70 -16.5q-40 0 -70 17t-46.5 47.5t-16.5 70.5v141q0 48 15 80.5t44.5 49t73.5 16.5t71.5 -16.5t40.5 -49t13 -80.5z" />
    <glyph glyph-name="oacute" unicode="&#xf3;" horiz-adv-x="430" 
d="M278 649q6 9 7.5 17.5t-2 16.5t-12.5 13t-17.5 4t-15.5 -7t-10 -16l-38 -107h35zM399 185v131q0 92 -47 144t-136 52q-59 0 -101 -22.5t-64 -66t-22 -107.5v-131q0 -54 21 -98t63.5 -70.5t104.5 -26.5q91 0 136 53.5t45 141.5zM343 316v-141q0 -41 -13.5 -71.5t-41.5 -47
t-70 -16.5q-40 0 -70 17t-46.5 47.5t-16.5 70.5v141q0 48 15 80.5t44.5 49t73.5 16.5t71.5 -16.5t40.5 -49t13 -80.5z" />
    <glyph glyph-name="ocircumflex" unicode="&#xf4;" horiz-adv-x="430" 
d="M345 589l-129 127l-132 -128l39 -38l93 90l89 -88zM399 185v131q0 92 -47 144t-136 52q-59 0 -101 -22.5t-64 -66t-22 -107.5v-131q0 -54 21 -98t63.5 -70.5t104.5 -26.5q91 0 136 53.5t45 141.5zM343 316v-141q0 -41 -13.5 -71.5t-41.5 -47t-70 -16.5q-40 0 -70 17
t-46.5 47.5t-16.5 70.5v141q0 48 15 80.5t44.5 49t73.5 16.5t71.5 -16.5t40.5 -49t13 -80.5z" />
    <glyph glyph-name="otilde" unicode="&#xf5;" horiz-adv-x="430" 
d="M287 674v-18q0 -11 -3.5 -21.5t-14.5 -10.5q-10 0 -22 8.5t-14 9.5q-10 8 -21 15t-22 11q-17 8 -37.5 7t-35.5 -13q-10 -8 -15.5 -19.5t-7.5 -23.5t-2 -24v-18h50v18q0 5 1 14.5t5 13.5q8 5 17 2t16 -8q8 -4 16.5 -10.5t17.5 -11.5q13 -7 26.5 -14t29.5 -7
q35 0 50.5 25.5t15.5 56.5v18h-50zM399 185v131q0 92 -47 144t-136 52q-59 0 -101 -22.5t-64 -66t-22 -107.5v-131q0 -54 21 -98t63.5 -70.5t104.5 -26.5q91 0 136 53.5t45 141.5zM343 316v-141q0 -41 -13.5 -71.5t-41.5 -47t-70 -16.5q-40 0 -70 17t-46.5 47.5t-16.5 70.5
v141q0 48 15 80.5t44.5 49t73.5 16.5t71.5 -16.5t40.5 -49t13 -80.5z" />
    <glyph glyph-name="odieresis" unicode="&#xf6;" horiz-adv-x="430" 
d="M136 657q-13 0 -23 -10t-10 -24q0 -13 10 -23t23 -10q14 0 24 10t10 23q0 14 -10 24t-24 10zM295 657q-14 0 -23.5 -10t-9.5 -24q0 -13 9.5 -23t23.5 -10t23.5 10t9.5 23q0 14 -9.5 24t-23.5 10zM399 185v131q0 92 -47 144t-136 52q-59 0 -101 -22.5t-64 -66t-22 -107.5
v-131q0 -54 21 -98t63.5 -70.5t104.5 -26.5q91 0 136 53.5t45 141.5zM343 316v-141q0 -41 -13.5 -71.5t-41.5 -47t-70 -16.5q-40 0 -70 17t-46.5 47.5t-16.5 70.5v141q0 48 15 80.5t44.5 49t73.5 16.5t71.5 -16.5t40.5 -49t13 -80.5z" />
    <glyph glyph-name="divide" unicode="&#xf7;" horiz-adv-x="379" 
d="M28 356h320v54h-320v-54zM189 546q-14 0 -23.5 -10t-9.5 -24q0 -13 9.5 -23t23.5 -10t24 10t10 23q0 14 -10 24t-24 10zM189 288q-14 0 -23.5 -9.5t-9.5 -23.5t9.5 -23.5t23.5 -9.5t24 9.5t10 23.5t-10 23.5t-24 9.5z" />
    <glyph glyph-name="oslash" unicode="&#xf8;" horiz-adv-x="430" 
d="M361 514h-58l-230 -534h57zM399 185v131q0 92 -47 144t-136 52q-59 0 -101 -22.5t-64 -66t-22 -107.5v-131q0 -54 21 -98t63.5 -70.5t104.5 -26.5q91 0 136 53.5t45 141.5zM343 316v-141q0 -41 -13.5 -71.5t-41.5 -47t-70 -16.5q-40 0 -70 17t-46.5 47.5t-16.5 70.5v141
q0 48 15 80.5t44.5 49t73.5 16.5t71.5 -16.5t40.5 -49t13 -80.5z" />
    <glyph glyph-name="ugrave" unicode="&#xf9;" horiz-adv-x="445" 
d="M203 679q-3 10 -10 16.5t-16 8t-19 -4.5q-8 -4 -11.5 -12.5t-1.5 -18t7 -17.5l54 -79h36zM349 48v-48h56v501h-56v-328q0 -27 -10 -50t-28.5 -41t-43.5 -28t-55 -10q-38 0 -65 12.5t-41 40.5t-14 74v330h-57v-344q0 -34 7.5 -61t22 -47t36 -33t49 -19.5t60.5 -6.5
q25 0 51 6.5t49 19.5t39 32z" />
    <glyph glyph-name="uacute" unicode="&#xfa;" horiz-adv-x="445" 
d="M286 649q6 9 7.5 17.5t-2 16.5t-12.5 13t-17.5 4t-15.5 -7t-10 -16l-38 -107h35zM349 48v-48h56v501h-56v-328q0 -27 -10 -50t-28.5 -41t-43.5 -28t-55 -10q-38 0 -65 12.5t-41 40.5t-14 74v330h-57v-344q0 -34 7.5 -61t22 -47t36 -33t49 -19.5t60.5 -6.5q25 0 51 6.5
t49 19.5t39 32z" />
    <glyph glyph-name="ucircumflex" unicode="&#xfb;" horiz-adv-x="445" 
d="M353 589l-129 127l-132 -128l39 -38l93 90l89 -88zM349 48v-48h56v501h-56v-328q0 -27 -10 -50t-28.5 -41t-43.5 -28t-55 -10q-38 0 -65 12.5t-41 40.5t-14 74v330h-57v-344q0 -34 7.5 -61t22 -47t36 -33t49 -19.5t60.5 -6.5q25 0 51 6.5t49 19.5t39 32z" />
    <glyph glyph-name="udieresis" unicode="&#xfc;" horiz-adv-x="445" 
d="M140 657q-13 0 -23 -10t-10 -24q0 -13 10 -23t23 -10q14 0 24 10t10 23q0 14 -10 24t-24 10zM299 657q-14 0 -23.5 -10t-9.5 -24q0 -13 9.5 -23t23.5 -10t23.5 10t9.5 23q0 14 -9.5 24t-23.5 10zM349 48v-48h56v501h-56v-328q0 -27 -10 -50t-28.5 -41t-43.5 -28t-55 -10
q-38 0 -65 12.5t-41 40.5t-14 74v330h-57v-344q0 -34 7.5 -61t22 -47t36 -33t49 -19.5t60.5 -6.5q25 0 51 6.5t49 19.5t39 32z" />
    <glyph glyph-name="yacute" unicode="&#xfd;" horiz-adv-x="469" 
d="M297 649q6 9 7.5 17.5t-2 16.5t-12.5 13t-17.5 4t-15.5 -7t-10 -16l-38 -107h35zM438 470l-20 42q-23 -8 -38.5 -23.5t-23 -36t-7.5 -43.5v-235q0 -26 -10 -49.5t-27 -41.5t-40 -28.5t-50 -10.5q-23 0 -46 5.5t-42 18.5t-30.5 36t-11.5 58v339h-57v-343q0 -43 11.5 -74.5
t34 -52t55 -30.5t74.5 -10q25 0 51 6.5t49 19.5t39 33v-111q0 -18 -3.5 -34.5t-11.5 -30t-20.5 -23.5t-29.5 -17l16 -43q38 13 61 31t33.5 46.5t10.5 69.5v470q0 32 10 44t23 18z" />
    <glyph glyph-name="thorn" unicode="&#xfe;" horiz-adv-x="442" 
d="M409 176v170q0 53 -19.5 90.5t-57 57t-93.5 16.5q-24 -1 -48.5 -7.5t-48 -19t-45.5 -30.5v247h-58v-888l58 -24v273q12 -20 33.5 -37t49.5 -26.5t59 -9.5q83 0 126.5 48.5t43.5 139.5zM352 343v-176q0 -43 -13.5 -71t-39 -42t-63.5 -14q-29 0 -54 9t-44 26t-30 42t-11 57
v219q15 21 37 35t46.5 22t46.5 10q24 2 46.5 -3.5t40 -19t28 -37t10.5 -57.5z" />
    <glyph glyph-name="ydieresis" unicode="&#xff;" horiz-adv-x="469" 
d="M154 657q-13 0 -23 -10t-10 -24q0 -13 10 -23t23 -10q14 0 24 10t10 23q0 14 -10 24t-24 10zM313 657q-14 0 -23.5 -10t-9.5 -24q0 -13 9.5 -23t23.5 -10t23.5 10t9.5 23q0 14 -9.5 24t-23.5 10zM438 470l-20 42q-23 -8 -38.5 -23.5t-23 -36t-7.5 -43.5v-235
q0 -26 -10 -49.5t-27 -41.5t-40 -28.5t-50 -10.5q-23 0 -46 5.5t-42 18.5t-30.5 36t-11.5 58v339h-57v-343q0 -43 11.5 -74.5t34 -52t55 -30.5t74.5 -10q25 0 51 6.5t49 19.5t39 33v-111q0 -18 -3.5 -34.5t-11.5 -30t-20.5 -23.5t-29.5 -17l16 -43q38 13 61 31t33.5 46.5
t10.5 69.5v470q0 32 10 44t23 18z" />
    <glyph glyph-name="Amacron" unicode="&#x100;" horiz-adv-x="547" 
d="M383 827h-221v-56h221v56zM527 0l-228 700h-53l-225 -700h60l79 245h227l81 -245h59zM175 300l97 314l100 -314h-197z" />
    <glyph glyph-name="amacron" unicode="&#x101;" horiz-adv-x="447" 
d="M334 642h-221v-56h221v56zM355 350q-23 14 -51.5 26t-59.5 19.5t-64 7.5q-30 0 -57.5 -8t-49.5 -25.5t-34.5 -46.5t-12.5 -71v-83q0 -55 17.5 -91t48 -55.5t72 -26.5t89.5 -6q15 0 35.5 1t42 2.5t40 3t30 2.5t10.5 1v288q0 62 -10 104.5t-33.5 68t-63.5 37t-101 11.5
l-2 -43q30 0 58 -4.5t49.5 -16.5t34 -35t12.5 -60zM355 303v-257l-4.5 -0.5t-13.5 -1t-22 -2t-29.5 -2.5t-36.5 -2q-50 -2 -83 5.5t-51.5 25t-26 44.5t-7.5 63v74q0 34 9.5 55t24.5 31.5t31 14.5t29 4q32 0 63 -7t61 -19t56 -26z" />
    <glyph glyph-name="Abreve" unicode="&#x102;" horiz-adv-x="547" 
d="M385 854h-45v-7q0 -28 -19 -48t-48 -20q-28 0 -48.5 20t-20.5 48v7h-45v-7q0 -31 15.5 -56.5t41.5 -41t57 -15.5t56.5 15.5t40.5 41t15 56.5v7zM527 0l-228 700h-53l-225 -700h60l79 245h227l81 -245h59zM175 300l97 314l100 -314h-197z" />
    <glyph glyph-name="abreve" unicode="&#x103;" horiz-adv-x="447" 
d="M337 669h-45v-7q0 -28 -19 -48t-48 -20q-28 0 -48.5 20t-20.5 48v7h-45v-7q0 -31 15.5 -56.5t41.5 -41t57 -15.5t56.5 15.5t40.5 41t15 56.5v7zM355 350q-23 14 -51.5 26t-59.5 19.5t-64 7.5q-30 0 -57.5 -8t-49.5 -25.5t-34.5 -46.5t-12.5 -71v-83q0 -55 17.5 -91
t48 -55.5t72 -26.5t89.5 -6q15 0 35.5 1t42 2.5t40 3t30 2.5t10.5 1v288q0 62 -10 104.5t-33.5 68t-63.5 37t-101 11.5l-2 -43q30 0 58 -4.5t49.5 -16.5t34 -35t12.5 -60zM355 303v-257l-4.5 -0.5t-13.5 -1t-22 -2t-29.5 -2.5t-36.5 -2q-50 -2 -83 5.5t-51.5 25t-26 44.5
t-7.5 63v74q0 34 9.5 55t24.5 31.5t31 14.5t29 4q32 0 63 -7t61 -19t56 -26z" />
    <glyph glyph-name="Aogonek" unicode="&#x104;" horiz-adv-x="547" 
d="M516 6h-44v-8l-65 -102q-16 -26 -16 -50.5t14.5 -43t40 -26t59.5 1.5q6 2 23 8t36 12.5t32 11.5l13 5l-18 39l-7.5 -2.5t-20.5 -7t-30.5 -10.5t-38.5 -14q-24 -8 -40.5 -1.5t-19.5 24t11 39.5l71 115v9zM527 0l-228 700h-53l-225 -700h60l79 245h227l81 -245h59zM175 300
l97 314l100 -314h-197z" />
    <glyph glyph-name="aogonek" unicode="&#x105;" horiz-adv-x="447" 
d="M403 11h-44v-8l-65 -102q-16 -26 -16 -50.5t14.5 -43t40 -26t59.5 1.5q6 2 23 8t36 12.5t32 11.5l13 5l-18 39l-7.5 -2.5t-20.5 -7t-30.5 -10.5t-38.5 -14q-24 -8 -40.5 -1.5t-19.5 24t11 39.5l71 115v9zM355 350q-23 14 -51.5 26t-59.5 19.5t-64 7.5q-30 0 -57.5 -8
t-49.5 -25.5t-34.5 -46.5t-12.5 -71v-83q0 -55 17.5 -91t48 -55.5t72 -26.5t89.5 -6q15 0 35.5 1t42 2.5t40 3t30 2.5t10.5 1v288q0 62 -10 104.5t-33.5 68t-63.5 37t-101 11.5l-2 -43q30 0 58 -4.5t49.5 -16.5t34 -35t12.5 -60zM355 303v-257l-4.5 -0.5t-13.5 -1t-22 -2
t-29.5 -2.5t-36.5 -2q-50 -2 -83 5.5t-51.5 25t-26 44.5t-7.5 63v74q0 34 9.5 55t24.5 31.5t31 14.5t29 4q32 0 63 -7t61 -19t56 -26z" />
    <glyph glyph-name="Cacute" unicode="&#x106;" horiz-adv-x="423" 
d="M275 834q6 9 7.5 17.5t-2 16.5t-12.5 13t-17.5 4t-15.5 -7t-10 -16l-38 -107h35zM354 639l17 38q-31 17 -67 25t-75 8q-55 0 -99 -21t-70 -65t-26 -114v-326q0 -67 24 -110t69 -63.5t108 -20.5q38 0 78.5 8.5t82.5 24.5l-12 46q-28 -9 -54 -15.5t-48.5 -10t-42.5 -3.5
q-50 0 -83 14.5t-49 47t-16 84.5v328q0 53 18.5 85t53.5 46.5t84 14.5q26 0 52.5 -5t54.5 -16z" />
    <glyph glyph-name="cacute" unicode="&#x107;" horiz-adv-x="381" 
d="M254 649q6 9 7.5 17.5t-2 16.5t-12.5 13t-17.5 4t-15.5 -7t-10 -16l-38 -107h35zM335 433l14 45q-31 14 -65.5 23t-68.5 9q-62 0 -103.5 -24t-62 -67t-20.5 -100v-145q0 -64 23.5 -104.5t66.5 -60t100 -20.5q33 -1 67 3.5t65 12.5l-11 50q1 0 -9 -2t-27.5 -5t-39 -5
t-43.5 -2q-36 1 -62 9.5t-43 25.5t-24.5 44.5t-7.5 65.5l1 125q1 43 14 76.5t42 52.5t76 19q29 -1 60.5 -7.5t57.5 -18.5z" />
    <glyph glyph-name="Ccircumflex" unicode="&#x108;" horiz-adv-x="423" 
d="M342 774l-129 127l-132 -128l39 -38l93 90l89 -88zM354 639l17 38q-31 17 -67 25t-75 8q-55 0 -99 -21t-70 -65t-26 -114v-326q0 -67 24 -110t69 -63.5t108 -20.5q38 0 78.5 8.5t82.5 24.5l-12 46q-28 -9 -54 -15.5t-48.5 -10t-42.5 -3.5q-50 0 -83 14.5t-49 47t-16 84.5
v328q0 53 18.5 85t53.5 46.5t84 14.5q26 0 52.5 -5t54.5 -16z" />
    <glyph glyph-name="ccircumflex" unicode="&#x109;" horiz-adv-x="381" 
d="M331 589l-129 127l-132 -128l39 -38l93 90l89 -88zM335 433l14 45q-31 14 -65.5 23t-68.5 9q-62 0 -103.5 -24t-62 -67t-20.5 -100v-145q0 -64 23.5 -104.5t66.5 -60t100 -20.5q33 -1 67 3.5t65 12.5l-11 50q1 0 -9 -2t-27.5 -5t-39 -5t-43.5 -2q-36 1 -62 9.5t-43 25.5
t-24.5 44.5t-7.5 65.5l1 125q1 43 14 76.5t42 52.5t76 19q29 -1 60.5 -7.5t57.5 -18.5z" />
    <glyph glyph-name="Cdotaccent" unicode="&#x10a;" horiz-adv-x="423" 
d="M222 860q-14 0 -23.5 -10t-9.5 -24q0 -13 9.5 -23t23.5 -10t23.5 10t9.5 23q0 14 -9.5 24t-23.5 10zM354 639l17 38q-31 17 -67 25t-75 8q-55 0 -99 -21t-70 -65t-26 -114v-326q0 -67 24 -110t69 -63.5t108 -20.5q38 0 78.5 8.5t82.5 24.5l-12 46q-28 -9 -54 -15.5
t-48.5 -10t-42.5 -3.5q-50 0 -83 14.5t-49 47t-16 84.5v328q0 53 18.5 85t53.5 46.5t84 14.5q26 0 52.5 -5t54.5 -16z" />
    <glyph glyph-name="cdotaccent" unicode="&#x10b;" horiz-adv-x="381" 
d="M211 655q-14 0 -23.5 -10t-9.5 -24q0 -13 9.5 -23t23.5 -10t23.5 10t9.5 23q0 14 -9.5 24t-23.5 10zM335 433l14 45q-31 14 -65.5 23t-68.5 9q-62 0 -103.5 -24t-62 -67t-20.5 -100v-145q0 -64 23.5 -104.5t66.5 -60t100 -20.5q33 -1 67 3.5t65 12.5l-11 50q1 0 -9 -2
t-27.5 -5t-39 -5t-43.5 -2q-36 1 -62 9.5t-43 25.5t-24.5 44.5t-7.5 65.5l1 125q1 43 14 76.5t42 52.5t76 19q29 -1 60.5 -7.5t57.5 -18.5z" />
    <glyph glyph-name="Ccaron" unicode="&#x10c;" horiz-adv-x="423" 
d="M352 867l-39 37l-93 -89l-90 88l-39 -38l129 -126zM354 639l17 38q-31 17 -67 25t-75 8q-55 0 -99 -21t-70 -65t-26 -114v-326q0 -67 24 -110t69 -63.5t108 -20.5q38 0 78.5 8.5t82.5 24.5l-12 46q-28 -9 -54 -15.5t-48.5 -10t-42.5 -3.5q-50 0 -83 14.5t-49 47t-16 84.5
v328q0 53 18.5 85t53.5 46.5t84 14.5q26 0 52.5 -5t54.5 -16z" />
    <glyph glyph-name="ccaron" unicode="&#x10d;" horiz-adv-x="381" 
d="M341 682l-39 37l-93 -89l-90 88l-39 -38l129 -126zM335 433l14 45q-31 14 -65.5 23t-68.5 9q-62 0 -103.5 -24t-62 -67t-20.5 -100v-145q0 -64 23.5 -104.5t66.5 -60t100 -20.5q33 -1 67 3.5t65 12.5l-11 50q1 0 -9 -2t-27.5 -5t-39 -5t-43.5 -2q-36 1 -62 9.5t-43 25.5
t-24.5 44.5t-7.5 65.5l1 125q1 43 14 76.5t42 52.5t76 19q29 -1 60.5 -7.5t57.5 -18.5z" />
    <glyph glyph-name="Dcaron" unicode="&#x10e;" horiz-adv-x="497" 
d="M382 867l-39 37l-93 -89l-90 88l-39 -38l129 -126zM230 700h-189v-700h209q71 0 118 22.5t70.5 67t23.5 110.5v275q0 68 -26.5 118.5t-78 78.5t-127.5 28zM233 50h-135v600h142q59 0 95 -22t53 -58.5t17 -79.5v-300q0 -34 -10.5 -60.5t-32 -44t-53.5 -26.5t-76 -9z" />
    <glyph glyph-name="dcaron" unicode="&#x10f;" horiz-adv-x="458" 
d="M518 862l-39 37l-93 -89l-90 88l-39 -38l129 -126zM414 0v700h-55v-227q-34 15 -74 26t-89 11q-30 0 -59.5 -8t-54 -25.5t-39 -46.5t-14.5 -71v-190q0 -55 17.5 -91t48.5 -55.5t73 -26.5t90 -6q14 0 34 1t41.5 2.5t40 3t30 2.5t10.5 1zM359 423v-377l-5 -0.5t-14 -1.5
t-22 -2t-29.5 -2t-35.5 -2q-50 -1 -82.5 6.5t-51.5 25t-27 44t-8 62.5v179q0 35 12 56.5t29.5 32.5t35.5 15t31 4q48 0 87.5 -11.5t79.5 -28.5z" />
    <glyph glyph-name="Dcroat" unicode="&#x110;" horiz-adv-x="497" 
d="M358 827h-221v-56h221v56zM230 700h-189v-700h209q71 0 118 22.5t70.5 67t23.5 110.5v275q0 68 -26.5 118.5t-78 78.5t-127.5 28zM233 50h-135v600h142q59 0 95 -22t53 -58.5t17 -79.5v-300q0 -34 -10.5 -60.5t-32 -44t-53.5 -26.5t-76 -9z" />
    <glyph glyph-name="dcroat" unicode="&#x111;" horiz-adv-x="458" 
d="M462 564v53h-237v-53h237zM414 0v700h-55v-227q-34 15 -74 26t-89 11q-30 0 -59.5 -8t-54 -25.5t-39 -46.5t-14.5 -71v-190q0 -55 17.5 -91t48.5 -55.5t73 -26.5t90 -6q14 0 34 1t41.5 2.5t40 3t30 2.5t10.5 1zM359 423v-377l-5 -0.5t-14 -1.5t-22 -2t-29.5 -2t-35.5 -2
q-50 -1 -82.5 6.5t-51.5 25t-27 44t-8 62.5v179q0 35 12 56.5t29.5 32.5t35.5 15t31 4q48 0 87.5 -11.5t79.5 -28.5z" />
    <glyph glyph-name="Emacron" unicode="&#x112;" horiz-adv-x="406" 
d="M313 827h-221v-56h221v56zM41 0h332v50h-275v307h172l18 55h-190v236h277v52h-334v-700z" />
    <glyph glyph-name="emacron" unicode="&#x113;" horiz-adv-x="422" 
d="M321 642h-221v-56h221v56zM87 134v62l305 16v130q0 56 -21.5 93t-61 56t-93.5 19q-53 0 -95 -19t-66 -57t-24 -95v-205q0 -42 12.5 -70t35.5 -45t55 -24t70 -7t82 12.5t81 34.5l-22 43q-37 -19 -73 -30.5t-73 -11.5q-24 0 -44.5 5.5t-35.5 17t-23.5 30t-8.5 45.5z
M336 349v-87l-249 -11v87q0 40 15.5 68t44.5 42.5t68 14.5q35 0 62 -14t43 -39.5t16 -60.5z" />
    <glyph glyph-name="Ebreve" unicode="&#x114;" horiz-adv-x="406" 
d="M41 0h332v50h-275v307h172l18 55h-190v236h277v52h-334v-700zM316 903h-45v-7q0 -28 -19 -48t-48 -20q-28 0 -48.5 20t-20.5 48v7h-45v-7q0 -31 15.5 -56.5t41.5 -41t57 -15.5t56.5 15.5t40.5 41t15 56.5v7z" />
    <glyph glyph-name="ebreve" unicode="&#x115;" horiz-adv-x="422" 
d="M87 134v62l305 16v130q0 56 -21.5 93t-61 56t-93.5 19q-53 0 -95 -19t-66 -57t-24 -95v-205q0 -42 12.5 -70t35.5 -45t55 -24t70 -7t82 12.5t81 34.5l-22 43q-37 -19 -73 -30.5t-73 -11.5q-24 0 -44.5 5.5t-35.5 17t-23.5 30t-8.5 45.5zM336 349v-87l-249 -11v87
q0 40 15.5 68t44.5 42.5t68 14.5q35 0 62 -14t43 -39.5t16 -60.5zM324 704h-45v-7q0 -28 -19 -48t-48 -20q-28 0 -48.5 20t-20.5 48v7h-45v-7q0 -31 15.5 -56.5t41.5 -41t57 -15.5t56.5 15.5t40.5 41t15 56.5v7z" />
    <glyph glyph-name="Edotaccent" unicode="&#x116;" horiz-adv-x="406" 
d="M203 860q-14 0 -23.5 -10t-9.5 -24q0 -13 9.5 -23t23.5 -10t23.5 10t9.5 23q0 14 -9.5 24t-23.5 10zM41 0h332v50h-275v307h172l18 55h-190v236h277v52h-334v-700z" />
    <glyph glyph-name="edotaccent" unicode="&#x117;" horiz-adv-x="422" 
d="M211 655q-14 0 -23.5 -10t-9.5 -24q0 -13 9.5 -23t23.5 -10t23.5 10t9.5 23q0 14 -9.5 24t-23.5 10zM87 134v62l305 16v130q0 56 -21.5 93t-61 56t-93.5 19q-53 0 -95 -19t-66 -57t-24 -95v-205q0 -42 12.5 -70t35.5 -45t55 -24t70 -7t82 12.5t81 34.5l-22 43
q-37 -19 -73 -30.5t-73 -11.5q-24 0 -44.5 5.5t-35.5 17t-23.5 30t-8.5 45.5zM336 349v-87l-249 -11v87q0 40 15.5 68t44.5 42.5t68 14.5q35 0 62 -14t43 -39.5t16 -60.5z" />
    <glyph glyph-name="Eogonek" unicode="&#x118;" horiz-adv-x="406" 
d="M367 6h-44v-8l-65 -102q-16 -26 -16 -50.5t14.5 -43t40 -26t59.5 1.5q6 2 23 8t36 12.5t32 11.5l13 5l-18 39l-7.5 -2.5t-20.5 -7t-30.5 -10.5t-38.5 -14q-24 -8 -40.5 -1.5t-19.5 24t11 39.5l71 115v9zM41 0h332v50h-275v307h172l18 55h-190v236h277v52h-334v-700z" />
    <glyph glyph-name="eogonek" unicode="&#x119;" horiz-adv-x="422" 
d="M289 11h-44v-8l-65 -102q-16 -26 -16 -50.5t14.5 -43t40 -26t59.5 1.5q6 2 23 8t36 12.5t32 11.5l13 5l-18 39l-7.5 -2.5t-20.5 -7t-30.5 -10.5t-38.5 -14q-24 -8 -40.5 -1.5t-19.5 24t11 39.5l71 115v9zM87 134v62l305 16v130q0 56 -21.5 93t-61 56t-93.5 19
q-53 0 -95 -19t-66 -57t-24 -95v-205q0 -42 12.5 -70t35.5 -45t55 -24t70 -7t82 12.5t81 34.5l-22 43q-37 -19 -73 -30.5t-73 -11.5q-24 0 -44.5 5.5t-35.5 17t-23.5 30t-8.5 45.5zM336 349v-87l-249 -11v87q0 40 15.5 68t44.5 42.5t68 14.5q35 0 62 -14t43 -39.5t16 -60.5z
" />
    <glyph glyph-name="Ecaron" unicode="&#x11a;" horiz-adv-x="406" 
d="M333 867l-39 37l-93 -89l-90 88l-39 -38l129 -126zM41 0h332v50h-275v307h172l18 55h-190v236h277v52h-334v-700z" />
    <glyph glyph-name="ecaron" unicode="&#x11b;" horiz-adv-x="422" 
d="M341 682l-39 37l-93 -89l-90 88l-39 -38l129 -126zM87 134v62l305 16v130q0 56 -21.5 93t-61 56t-93.5 19q-53 0 -95 -19t-66 -57t-24 -95v-205q0 -42 12.5 -70t35.5 -45t55 -24t70 -7t82 12.5t81 34.5l-22 43q-37 -19 -73 -30.5t-73 -11.5q-24 0 -44.5 5.5t-35.5 17
t-23.5 30t-8.5 45.5zM336 349v-87l-249 -11v87q0 40 15.5 68t44.5 42.5t68 14.5q35 0 62 -14t43 -39.5t16 -60.5z" />
    <glyph glyph-name="Gcircumflex" unicode="&#x11c;" horiz-adv-x="479" 
d="M361 774l-129 127l-132 -128l39 -38l93 90l89 -88zM354 638l17 38q-21 11 -44 18.5t-47.5 11t-50.5 3.5q-63 0 -106.5 -24.5t-66 -70.5t-22.5 -110v-315q0 -65 24 -109.5t67 -67t100 -22.5q33 0 64 7.5t57.5 21t44.5 32.5l4 -51h51v300h-202l20 -55h129v-58
q0 -33 -13 -59.5t-36 -45t-54 -28.5t-67 -10q-43 0 -72.5 17t-44.5 49t-15 77v325q0 52 18.5 84.5t54 47.5t84.5 15q17 0 34.5 -2t35.5 -6.5t36 -12.5z" />
    <glyph glyph-name="gcircumflex" unicode="&#x11d;" horiz-adv-x="441" 
d="M351 589l-129 127l-132 -128l39 -38l93 90l89 -88zM401 -64v564h-57v-47q-22 18 -45.5 30.5t-48 19t-48.5 7.5q-55 3 -93 -16.5t-58 -57t-20 -90.5v-170q0 -91 44 -139.5t128 -48.5q23 0 44.5 5.5t40.5 15.5t33.5 23.5t22.5 28.5v-124q0 -20 -4.5 -36.5t-12.5 -29.5
t-20.5 -22.5t-29.5 -16.5l16 -43q38 12 62 31t35 47.5t11 68.5zM344 393v-219q0 -32 -10.5 -57t-29.5 -42t-44 -26t-54 -9q-38 0 -64.5 14t-40.5 42t-14 71v176q0 34 11 57.5t29.5 37t41 19t45.5 3.5q16 -1 34 -6t36.5 -13.5t34 -20.5t25.5 -27z" />
    <glyph glyph-name="Gbreve" unicode="&#x11e;" horiz-adv-x="479" 
d="M343 854h-45v-7q0 -28 -19 -48t-48 -20q-28 0 -48.5 20t-20.5 48v7h-45v-7q0 -31 15.5 -56.5t41.5 -41t57 -15.5t56.5 15.5t40.5 41t15 56.5v7zM354 638l17 38q-21 11 -44 18.5t-47.5 11t-50.5 3.5q-63 0 -106.5 -24.5t-66 -70.5t-22.5 -110v-315q0 -65 24 -109.5t67 -67
t100 -22.5q33 0 64 7.5t57.5 21t44.5 32.5l4 -51h51v300h-202l20 -55h129v-58q0 -33 -13 -59.5t-36 -45t-54 -28.5t-67 -10q-43 0 -72.5 17t-44.5 49t-15 77v325q0 52 18.5 84.5t54 47.5t84.5 15q17 0 34.5 -2t35.5 -6.5t36 -12.5z" />
    <glyph glyph-name="gbreve" unicode="&#x11f;" horiz-adv-x="441" 
d="M334 669h-45v-7q0 -28 -19 -48t-48 -20q-28 0 -48.5 20t-20.5 48v7h-45v-7q0 -31 15.5 -56.5t41.5 -41t57 -15.5t56.5 15.5t40.5 41t15 56.5v7zM401 -64v564h-57v-47q-22 18 -45.5 30.5t-48 19t-48.5 7.5q-55 3 -93 -16.5t-58 -57t-20 -90.5v-170q0 -91 44 -139.5
t128 -48.5q23 0 44.5 5.5t40.5 15.5t33.5 23.5t22.5 28.5v-124q0 -20 -4.5 -36.5t-12.5 -29.5t-20.5 -22.5t-29.5 -16.5l16 -43q38 12 62 31t35 47.5t11 68.5zM344 393v-219q0 -32 -10.5 -57t-29.5 -42t-44 -26t-54 -9q-38 0 -64.5 14t-40.5 42t-14 71v176q0 34 11 57.5
t29.5 37t41 19t45.5 3.5q16 -1 34 -6t36.5 -13.5t34 -20.5t25.5 -27z" />
    <glyph glyph-name="Gdotaccent" unicode="&#x120;" horiz-adv-x="479" 
d="M239 860q-14 0 -23.5 -10t-9.5 -24q0 -13 9.5 -23t23.5 -10t23.5 10t9.5 23q0 14 -9.5 24t-23.5 10zM354 638l17 38q-21 11 -44 18.5t-47.5 11t-50.5 3.5q-63 0 -106.5 -24.5t-66 -70.5t-22.5 -110v-315q0 -65 24 -109.5t67 -67t100 -22.5q33 0 64 7.5t57.5 21t44.5 32.5
l4 -51h51v300h-202l20 -55h129v-58q0 -33 -13 -59.5t-36 -45t-54 -28.5t-67 -10q-43 0 -72.5 17t-44.5 49t-15 77v325q0 52 18.5 84.5t54 47.5t84.5 15q17 0 34.5 -2t35.5 -6.5t36 -12.5z" />
    <glyph glyph-name="gdotaccent" unicode="&#x121;" horiz-adv-x="441" 
d="M221 637q-14 0 -23.5 -10t-9.5 -24q0 -13 9.5 -23t23.5 -10t23.5 10t9.5 23q0 14 -9.5 24t-23.5 10zM401 -64v564h-57v-47q-22 18 -45.5 30.5t-48 19t-48.5 7.5q-55 3 -93 -16.5t-58 -57t-20 -90.5v-170q0 -91 44 -139.5t128 -48.5q23 0 44.5 5.5t40.5 15.5t33.5 23.5
t22.5 28.5v-124q0 -20 -4.5 -36.5t-12.5 -29.5t-20.5 -22.5t-29.5 -16.5l16 -43q38 12 62 31t35 47.5t11 68.5zM344 393v-219q0 -32 -10.5 -57t-29.5 -42t-44 -26t-54 -9q-38 0 -64.5 14t-40.5 42t-14 71v176q0 34 11 57.5t29.5 37t41 19t45.5 3.5q16 -1 34 -6t36.5 -13.5
t34 -20.5t25.5 -27z" />
    <glyph glyph-name="Gcommaaccent" unicode="&#x122;" horiz-adv-x="479" 
d="M204 -196l17 -12q7 6 16 17t17.5 26t14 34.5t5.5 43.5q0 15 -10 24t-24 9t-23.5 -9.5t-9.5 -23.5q0 -13 8 -22.5t20 -11.5q-2 -16 -8.5 -35.5t-22.5 -39.5zM354 638l17 38q-21 11 -44 18.5t-47.5 11t-50.5 3.5q-63 0 -106.5 -24.5t-66 -70.5t-22.5 -110v-315
q0 -65 24 -109.5t67 -67t100 -22.5q33 0 64 7.5t57.5 21t44.5 32.5l4 -51h51v300h-202l20 -55h129v-58q0 -33 -13 -59.5t-36 -45t-54 -28.5t-67 -10q-43 0 -72.5 17t-44.5 49t-15 77v325q0 52 18.5 84.5t54 47.5t84.5 15q17 0 34.5 -2t35.5 -6.5t36 -12.5z" />
    <glyph glyph-name="gcommaaccent" unicode="&#x123;" horiz-adv-x="441" 
d="M256 714l-17 12q-7 -6 -16 -17t-17.5 -26t-14 -34.5t-5.5 -42.5q0 -15 10 -24t24 -9t23.5 10t9.5 23q0 14 -8 23t-19 10q2 17 8 36.5t22 38.5zM401 -64v564h-57v-47q-22 18 -45.5 30.5t-48 19t-48.5 7.5q-55 3 -93 -16.5t-58 -57t-20 -90.5v-170q0 -91 44 -139.5
t128 -48.5q23 0 44.5 5.5t40.5 15.5t33.5 23.5t22.5 28.5v-124q0 -20 -4.5 -36.5t-12.5 -29.5t-20.5 -22.5t-29.5 -16.5l16 -43q38 12 62 31t35 47.5t11 68.5zM344 393v-219q0 -32 -10.5 -57t-29.5 -42t-44 -26t-54 -9q-38 0 -64.5 14t-40.5 42t-14 71v176q0 34 11 57.5
t29.5 37t41 19t45.5 3.5q16 -1 34 -6t36.5 -13.5t34 -20.5t25.5 -27z" />
    <glyph glyph-name="Hcircumflex" unicode="&#x124;" horiz-adv-x="515" 
d="M387 774l-129 127l-132 -128l39 -38l93 90l89 -88zM415 412h-317v288h-57v-700h57v357h317v-357h57v700h-57v-288z" />
    <glyph glyph-name="hcircumflex" unicode="&#x125;" horiz-adv-x="444" 
d="M207 739l-129 127l-132 -128l39 -38l93 90l89 -88zM98 467v233h-57v-700h57v425q21 12 41.5 19.5t42 11.5t44.5 4q24 0 47 -5.5t41.5 -19t29.5 -36t11 -56.5v-343h56v346q0 32 -7.5 58t-22 45.5t-35.5 33t-48.5 20.5t-60.5 7q-25 0 -49.5 -5.5t-47.5 -15t-42 -22.5z" />
    <glyph glyph-name="Hbar" unicode="&#x126;" horiz-adv-x="515" 
d="M0 500h515v56h-515v-56zM415 412h-317v288h-57v-700h57v357h317v-357h57v700h-57v-288z" />
    <glyph glyph-name="hbar" unicode="&#x127;" horiz-adv-x="444" 
d="M237 564v53h-236v-53h236zM98 467v233h-57v-700h57v425q21 12 41.5 19.5t42 11.5t44.5 4q24 0 47 -5.5t41.5 -19t29.5 -36t11 -56.5v-343h56v346q0 32 -7.5 58t-22 45.5t-35.5 33t-48.5 20.5t-60.5 7q-25 0 -49.5 -5.5t-47.5 -15t-42 -22.5z" />
    <glyph glyph-name="Itilde" unicode="&#x128;" horiz-adv-x="187" 
d="M166 869v-18q0 -11 -3.5 -21.5t-14.5 -10.5q-10 0 -22 8.5t-14 9.5q-10 8 -21 15t-22 11q-17 8 -37.5 7t-35.5 -13q-10 -8 -15.5 -19.5t-7.5 -23.5t-2 -24v-18h50v18q0 5 1 14.5t5 13.5q8 5 17 2t16 -8q8 -4 16.5 -10.5t17.5 -11.5q13 -7 26.5 -14t29.5 -7
q35 0 50.5 25.5t15.5 56.5v18h-50zM20 651l68 -2v-649h56v700h-124v-49z" />
    <glyph glyph-name="itilde" unicode="&#x129;" horiz-adv-x="135" 
d="M130 674v-18q0 -11 -3.5 -21.5t-14.5 -10.5q-10 0 -22 8.5t-14 9.5q-10 8 -21 15t-22 11q-17 8 -37.5 7t-35.5 -13q-10 -8 -15.5 -19.5t-7.5 -23.5t-2 -24v-18h50v18q0 5 1 14.5t5 13.5q8 5 17 2t16 -8q8 -4 16.5 -10.5t17.5 -11.5q13 -7 26.5 -14t29.5 -7
q35 0 50.5 25.5t15.5 56.5v18h-50zM38 0h57v500h-57v-500z" />
    <glyph glyph-name="Imacron" unicode="&#x12a;" horiz-adv-x="187" 
d="M224 827h-221v-56h221v56zM20 651l68 -2v-649h56v700h-124v-49z" />
    <glyph glyph-name="imacron" unicode="&#x12b;" horiz-adv-x="135" 
d="M178 642h-221v-56h221v56zM38 0h57v500h-57v-500z" />
    <glyph glyph-name="Ibreve" unicode="&#x12c;" horiz-adv-x="187" 
d="M20 651l68 -2v-649h56v700h-124v-49zM207 903h-45v-7q0 -28 -19 -48t-48 -20q-28 0 -48.5 20t-20.5 48v7h-45v-7q0 -31 15.5 -56.5t41.5 -41t57 -15.5t56.5 15.5t40.5 41t15 56.5v7z" />
    <glyph glyph-name="ibreve" unicode="&#x12d;" horiz-adv-x="135" 
d="M38 0h57v500h-57v-500zM181 704h-45v-7q0 -28 -19 -48t-48 -20q-28 0 -48.5 20t-20.5 48v7h-45v-7q0 -31 15.5 -56.5t41.5 -41t57 -15.5t56.5 15.5t40.5 41t15 56.5v7z" />
    <glyph glyph-name="Iogonek" unicode="&#x12e;" horiz-adv-x="187" 
d="M142 6h-44v-8l-65 -102q-16 -26 -16 -50.5t14.5 -43t40 -26t59.5 1.5q6 2 23 8t36 12.5t32 11.5l13 5l-18 39l-7.5 -2.5t-20.5 -7t-30.5 -10.5t-38.5 -14q-24 -8 -40.5 -1.5t-19.5 24t11 39.5l71 115v9zM20 651l68 -2v-649h56v700h-124v-49z" />
    <glyph glyph-name="iogonek" unicode="&#x12f;" horiz-adv-x="135" 
d="M88 9h-44v-8l-65 -102q-16 -26 -16 -50.5t14.5 -43t40 -26t59.5 1.5q6 2 23 8t36 12.5t32 11.5l13 5l-18 39l-7.5 -2.5t-20.5 -7t-30.5 -10.5t-38.5 -14q-24 -8 -40.5 -1.5t-19.5 24t11 39.5l71 115v9zM38 0h57v500h-57v-500z" />
    <glyph glyph-name="Idotaccent" unicode="&#x130;" horiz-adv-x="187" 
d="M110 860q-14 0 -23.5 -10t-9.5 -24q0 -13 9.5 -23t23.5 -10t23.5 10t9.5 23q0 14 -9.5 24t-23.5 10zM20 651l68 -2v-649h56v700h-124v-49z" />
    <glyph glyph-name="dotlessi" unicode="&#x131;" horiz-adv-x="135" 
d="M38 0h57v500h-57v-500z" />
    <glyph glyph-name="IJ" unicode="&#x132;" horiz-adv-x="551" 
d="M507 700h-124v-49l69 -2v-462q0 -36 -11 -63t-32 -45.5t-49 -27.5t-63 -9q-34 0 -62.5 9t-49 27.5t-31.5 45.5t-11 63v36h-56v-37q0 -65 26.5 -109t74 -66t110.5 -22q62 0 109 22.5t73.5 66.5t26.5 108v514zM143 700h-124v-49l68 -2v-374h56v425z" />
    <glyph glyph-name="ij" unicode="&#x133;" horiz-adv-x="467" 
d="M75 710q-13 0 -23.5 -10t-10.5 -24q0 -13 10.5 -23t23.5 -10q14 0 24 10t10 23q0 14 -10 24t-24 10zM419 676q0 14 -10 23.5t-24 9.5q-13 0 -23 -9.5t-10 -23.5q0 -13 10 -23t23 -10q14 0 24 10t10 23zM360 502v-328q0 -26 -10 -49.5t-27 -41.5t-40 -28.5t-50 -10.5
q-23 0 -46 5.5t-42 18.5t-30.5 36t-11.5 58v339h-57v-343q0 -34 7.5 -61t22 -47t36 -33t49 -19.5t60.5 -6.5q26 0 51.5 6.5t48.5 19.5t39 33v-111q0 -18 -3.5 -34.5t-11.5 -30t-20.5 -23.5t-29.5 -17l16 -43q38 13 61 31t33.5 46.5t10.5 69.5v564h-56z" />
    <glyph glyph-name="Jcircumflex" unicode="&#x134;" horiz-adv-x="207" 
d="M234 774l-129 127l-132 -128l39 -38l93 90l89 -88zM166 119v581h-124v-49l67 -2v-535q0 -39 -11.5 -64.5t-30 -37.5t-40.5 -12l13 -37q35 0 59 12.5t39 34.5t21.5 50t6.5 59z" />
    <glyph glyph-name="jcircumflex" unicode="&#x135;" horiz-adv-x="188" 
d="M251 589l-129 127l-132 -128l39 -38l93 90l89 -88zM148 -63v564h-120v-52h64v-511q0 -24 -7 -44.5t-21.5 -36t-37.5 -24.5l16 -43q39 12 62 30.5t33.5 47t10.5 69.5z" />
    <glyph glyph-name="Kcommaaccent" unicode="&#x136;" horiz-adv-x="459" 
d="M194 -196l17 -12q7 6 16 17t17.5 26t14 34.5t5.5 43.5q0 15 -10 24t-24 9t-23.5 -9.5t-9.5 -23.5q0 -13 8 -22.5t20 -11.5q-2 -16 -8.5 -35.5t-22.5 -39.5zM98 367v333h-57v-700h57v269l47 76l226 -345h67l-256 398l204 302h-65z" />
    <glyph glyph-name="kcommaaccent" unicode="&#x137;" horiz-adv-x="427" 
d="M179 -191l17 -12q7 6 16 17t17.5 26t14 34.5t5.5 43.5q0 15 -10 24t-24 9t-23.5 -9.5t-9.5 -23.5q0 -13 8 -22.5t20 -11.5q-2 -16 -8.5 -35.5t-22.5 -39.5zM190 352l148 130l-40 38l-200 -185v365h-57v-700h57v273l52 44l191 -317h67z" />
    <glyph glyph-name="kgreenlandic" unicode="&#x138;" horiz-adv-x="434" 
d="M315 118l-127 178l188 205h-74l-207 -227v225l-57 13v-512h57v198l55 56l104 -143q19 -26 41 -52t50 -42.5t63 -16.5h2v48h-4q-13 0 -27.5 7.5t-30.5 23.5t-33 39z" />
    <glyph glyph-name="Lacute" unicode="&#x139;" horiz-adv-x="424" 
d="M145 834q6 9 7.5 17.5t-2 16.5t-12.5 13t-17.5 4t-15.5 -7t-10 -16l-38 -107h35zM41 0h361v50h-304v650h-57v-700z" />
    <glyph glyph-name="lacute" unicode="&#x13a;" horiz-adv-x="140" 
d="M143 829q6 9 7.5 17.5t-2 16.5t-12.5 13t-17.5 4t-15.5 -7t-10 -16l-38 -107h35zM41 0h56v700h-56v-700z" />
    <glyph glyph-name="Lcommaaccent" unicode="&#x13b;" horiz-adv-x="424" 
d="M177 -196l17 -12q7 6 16 17t17.5 26t14 34.5t5.5 43.5q0 15 -10 24t-24 9t-23.5 -9.5t-9.5 -23.5q0 -13 8 -22.5t20 -11.5q-2 -16 -8.5 -35.5t-22.5 -39.5zM41 0h361v50h-304v650h-57v-700z" />
    <glyph glyph-name="lcommaaccent" unicode="&#x13c;" horiz-adv-x="140" 
d="M34 -191l17 -12q7 6 16 17t17.5 26t14 34.5t5.5 43.5q0 15 -10 24t-24 9t-23.5 -9.5t-9.5 -23.5q0 -13 8 -22.5t20 -11.5q-2 -16 -8.5 -35.5t-22.5 -39.5zM41 0h56v700h-56v-700z" />
    <glyph glyph-name="Lcaron" unicode="&#x13d;" horiz-adv-x="424" 
d="M207 867l-39 37l-93 -89l-90 88l-39 -38l129 -126zM41 0h361v50h-304v650h-57v-700z" />
    <glyph glyph-name="lcaron" unicode="&#x13e;" horiz-adv-x="140" 
d="M199 862l-39 37l-93 -89l-90 88l-39 -38l129 -126zM41 0h56v700h-56v-700z" />
    <glyph glyph-name="Ldot" unicode="&#x13f;" horiz-adv-x="424" 
d="M242 389q-14 0 -23.5 -10t-9.5 -24q0 -13 9.5 -23t23.5 -10t23.5 10t9.5 23q0 14 -9.5 24t-23.5 10zM41 0h361v50h-304v650h-57v-700z" />
    <glyph glyph-name="ldot" unicode="&#x140;" horiz-adv-x="192" 
d="M160 394q-14 0 -23.5 -10t-9.5 -24q0 -13 9.5 -23t23.5 -10t23.5 10t9.5 23q0 14 -9.5 24t-23.5 10zM41 0h56v700h-56v-700z" />
    <glyph glyph-name="Lslash" unicode="&#x141;" horiz-adv-x="511" 
d="M40 309l293 131l-23 50l-292 -131zM127 0h361v50h-304v650h-57v-700z" />
    <glyph glyph-name="lslash" unicode="&#x142;" horiz-adv-x="354" 
d="M308 489l-291 -132l22 -49l292 131zM145 0h56v700h-56v-700z" />
    <glyph glyph-name="Nacute" unicode="&#x143;" horiz-adv-x="577" 
d="M351 834q6 9 7.5 17.5t-2 16.5t-12.5 13t-17.5 4t-15.5 -7t-10 -16l-38 -107h35zM534 700h-56v-597l-380 597h-57v-700h57v597l380 -597h56v700z" />
    <glyph glyph-name="nacute" unicode="&#x144;" horiz-adv-x="443" 
d="M285 649q6 9 7.5 17.5t-2 16.5t-12.5 13t-17.5 4t-15.5 -7t-10 -16l-38 -107h35zM352 342v-342h55v345q0 32 -7.5 57.5t-22 45.5t-35.5 34t-48.5 21t-60.5 7q-25 0 -49.5 -5.5t-47 -15t-41.5 -22.5v34h-57v-501h57v425q21 12 41 19.5t41.5 11.5t44.5 4q24 0 47 -6
t42 -19.5t30 -36t11 -56.5z" />
    <glyph glyph-name="Ncommaaccent" unicode="&#x145;" horiz-adv-x="577" 
d="M253 -196l17 -12q7 6 16 17t17.5 26t14 34.5t5.5 43.5q0 15 -10 24t-24 9t-23.5 -9.5t-9.5 -23.5q0 -13 8 -22.5t20 -11.5q-2 -16 -8.5 -35.5t-22.5 -39.5zM534 700h-56v-597l-380 597h-57v-700h57v597l380 -597h56v700z" />
    <glyph glyph-name="ncommaaccent" unicode="&#x146;" horiz-adv-x="443" 
d="M187 -191l17 -12q7 6 16 17t17.5 26t14 34.5t5.5 43.5q0 15 -10 24t-24 9t-23.5 -9.5t-9.5 -23.5q0 -13 8 -22.5t20 -11.5q-2 -16 -8.5 -35.5t-22.5 -39.5zM352 342v-342h55v345q0 32 -7.5 57.5t-22 45.5t-35.5 34t-48.5 21t-60.5 7q-25 0 -49.5 -5.5t-47 -15
t-41.5 -22.5v34h-57v-501h57v425q21 12 41 19.5t41.5 11.5t44.5 4q24 0 47 -6t42 -19.5t30 -36t11 -56.5z" />
    <glyph glyph-name="Ncaron" unicode="&#x147;" horiz-adv-x="577" 
d="M418 867l-39 37l-93 -89l-90 88l-39 -38l129 -126zM534 700h-56v-597l-380 597h-57v-700h57v597l380 -597h56v700z" />
    <glyph glyph-name="ncaron" unicode="&#x148;" horiz-adv-x="443" 
d="M352 682l-39 37l-93 -89l-90 88l-39 -38l129 -126zM352 342v-342h55v345q0 32 -7.5 57.5t-22 45.5t-35.5 34t-48.5 21t-60.5 7q-25 0 -49.5 -5.5t-47 -15t-41.5 -22.5v34h-57v-501h57v425q21 12 41 19.5t41.5 11.5t44.5 4q24 0 47 -6t42 -19.5t30 -36t11 -56.5z" />
    <glyph glyph-name="Eng" unicode="&#x14a;" horiz-adv-x="578" 
d="M535 -62v762h-56v-596l-380 596h-58v-700h57v597l381 -596v-63q0 -24 -7 -44t-21.5 -35t-37.5 -25l15 -43q38 13 61.5 31.5t34.5 46.5t11 69z" />
    <glyph glyph-name="eng" unicode="&#x14b;" horiz-adv-x="443" 
d="M407 -65v411q0 32 -7.5 58t-22 45.5t-35.5 33t-48.5 20.5t-60.5 7q-25 0 -49.5 -5.5t-47 -15t-41.5 -22.5v33h-57v-500h57v425q19 12 39.5 19.5t42.5 11.5t45 4q24 0 47 -5.5t41.5 -19t29.5 -36t11 -56.5v-407q0 -24 -6.5 -44.5t-21 -36t-38.5 -23.5l17 -43q38 12 61 31
t33.5 47t10.5 68z" />
    <glyph glyph-name="Omacron" unicode="&#x14c;" horiz-adv-x="492" 
d="M357 827h-221v-56h221v56zM34 508v-322q0 -65 28.5 -109t76.5 -66t107 -22q62 0 109.5 24t74 68t26.5 105v321q0 98 -55 153.5t-154 55.5t-156 -53t-57 -155zM91 187v330q0 49 19 81t53.5 48.5t80.5 16.5q48 0 83 -16.5t54 -48.5t19 -81v-330q0 -49 -20 -81.5t-55 -48
t-81 -15.5q-44 0 -78.5 16.5t-54.5 48.5t-20 80z" />
    <glyph glyph-name="omacron" unicode="&#x14d;" horiz-adv-x="430" 
d="M326 642h-221v-56h221v56zM399 185v131q0 92 -47 144t-136 52q-59 0 -101 -22.5t-64 -66t-22 -107.5v-131q0 -54 21 -98t63.5 -70.5t104.5 -26.5q91 0 136 53.5t45 141.5zM343 316v-141q0 -41 -13.5 -71.5t-41.5 -47t-70 -16.5q-40 0 -70 17t-46.5 47.5t-16.5 70.5v141
q0 48 15 80.5t44.5 49t73.5 16.5t71.5 -16.5t40.5 -49t13 -80.5z" />
    <glyph glyph-name="Obreve" unicode="&#x14e;" horiz-adv-x="492" 
d="M34 508v-322q0 -65 28.5 -109t76.5 -66t107 -22q62 0 109.5 24t74 68t26.5 105v321q0 98 -55 153.5t-154 55.5t-156 -53t-57 -155zM91 187v330q0 49 19 81t53.5 48.5t80.5 16.5q48 0 83 -16.5t54 -48.5t19 -81v-330q0 -49 -20 -81.5t-55 -48t-81 -15.5q-44 0 -78.5 16.5
t-54.5 48.5t-20 80zM359 903h-45v-7q0 -28 -19 -48t-48 -20q-28 0 -48.5 20t-20.5 48v7h-45v-7q0 -31 15.5 -56.5t41.5 -41t57 -15.5t56.5 15.5t40.5 41t15 56.5v7z" />
    <glyph glyph-name="obreve" unicode="&#x14f;" horiz-adv-x="430" 
d="M399 185v131q0 92 -47 144t-136 52q-59 0 -101 -22.5t-64 -66t-22 -107.5v-131q0 -54 21 -98t63.5 -70.5t104.5 -26.5q91 0 136 53.5t45 141.5zM343 316v-141q0 -41 -13.5 -71.5t-41.5 -47t-70 -16.5q-40 0 -70 17t-46.5 47.5t-16.5 70.5v141q0 48 15 80.5t44.5 49
t73.5 16.5t71.5 -16.5t40.5 -49t13 -80.5zM328 704h-45v-7q0 -28 -19 -48t-48 -20q-28 0 -48.5 20t-20.5 48v7h-45v-7q0 -31 15.5 -56.5t41.5 -41t57 -15.5t56.5 15.5t40.5 41t15 56.5v7z" />
    <glyph glyph-name="Ohungarumlaut" unicode="&#x150;" horiz-adv-x="492" 
d="M258 830q6 8 7.5 17t-2 17.5t-12.5 13.5t-18 3.5t-15.5 -7.5t-10.5 -16l-39 -106h36zM369 830q6 9 7.5 18t-2 17t-12.5 13t-18 3.5t-16 -7.5t-10 -16l-37 -106h35zM34 508v-322q0 -65 28.5 -109t76.5 -66t107 -22q62 0 109.5 24t74 68t26.5 105v321q0 98 -55 153.5
t-154 55.5t-156 -53t-57 -155zM91 187v330q0 49 19 81t53.5 48.5t80.5 16.5q48 0 83 -16.5t54 -48.5t19 -81v-330q0 -49 -20 -81.5t-55 -48t-81 -15.5q-44 0 -78.5 16.5t-54.5 48.5t-20 80z" />
    <glyph glyph-name="ohungarumlaut" unicode="&#x151;" horiz-adv-x="430" 
d="M227 645q6 8 7.5 17t-2 17.5t-12.5 13.5t-18 3.5t-15.5 -7.5t-10.5 -16l-39 -106h36zM338 645q6 9 7.5 18t-2 17t-12.5 13t-18 3.5t-16 -7.5t-10 -16l-37 -106h35zM399 185v131q0 92 -47 144t-136 52q-59 0 -101 -22.5t-64 -66t-22 -107.5v-131q0 -54 21 -98t63.5 -70.5
t104.5 -26.5q91 0 136 53.5t45 141.5zM343 316v-141q0 -41 -13.5 -71.5t-41.5 -47t-70 -16.5q-40 0 -70 17t-46.5 47.5t-16.5 70.5v141q0 48 15 80.5t44.5 49t73.5 16.5t71.5 -16.5t40.5 -49t13 -80.5z" />
    <glyph glyph-name="OE" unicode="&#x152;" horiz-adv-x="764" 
d="M398 0h332v50h-275v307h172l18 55h-190v236h277v52h-334v-700zM34 508v-322q0 -65 28.5 -109t76.5 -66t107 -22q62 0 109.5 24t74 68t26.5 105v321q0 98 -55 153.5t-154 55.5t-156 -53t-57 -155zM91 187v330q0 49 19 81t53.5 48.5t80.5 16.5q48 0 83 -16.5t54 -48.5
t19 -81v-330q0 -49 -20 -81.5t-55 -48t-81 -15.5q-44 0 -78.5 16.5t-54.5 48.5t-20 80z" />
    <glyph glyph-name="oe" unicode="&#x153;" horiz-adv-x="741" 
d="M399 185v131q0 92 -47 144t-136 52q-59 0 -101 -22.5t-64 -66t-22 -107.5v-131q0 -54 21 -98t63.5 -70.5t104.5 -26.5q91 0 136 53.5t45 141.5zM343 316v-141q0 -41 -13.5 -71.5t-41.5 -47t-70 -16.5q-40 0 -70 17t-46.5 47.5t-16.5 70.5v141q0 48 15 80.5t44.5 49
t73.5 16.5t71.5 -16.5t40.5 -49t13 -80.5zM400 134v62l305 16v130q0 56 -21.5 93t-61 56t-93.5 19q-53 0 -95 -19t-66 -57t-24 -95v-205q0 -42 12.5 -70t35.5 -45t55 -24t70 -7t82 12.5t81 34.5l-22 43q-37 -19 -73 -30.5t-73 -11.5q-24 0 -44.5 5.5t-35.5 17t-23.5 30
t-8.5 45.5zM649 349v-87l-249 -11v87q0 40 15.5 68t44.5 42.5t68 14.5q35 0 62 -14t43 -39.5t16 -60.5z" />
    <glyph glyph-name="Racute" unicode="&#x154;" horiz-adv-x="510" 
d="M318 834q6 9 7.5 17.5t-2 16.5t-12.5 13t-17.5 4t-15.5 -7t-10 -16l-38 -107h35zM277 700h-236v-700h57v245h179q10 0 19.5 0.5t18.5 1.5t17 3l91 -250h57l-97 265q32 16 52.5 43t30.5 68t10 98q0 64 -13 107.5t-38.5 69.5t-62.5 37.5t-85 11.5zM282 300h-184v347h184
q29 0 54 -7.5t43.5 -26t29 -52.5t10.5 -87q0 -57 -10.5 -92t-29.5 -52.5t-43.5 -23.5t-53.5 -6z" />
    <glyph glyph-name="racute" unicode="&#x155;" horiz-adv-x="333" 
d="M141 649q6 9 7.5 17.5t-2 16.5t-12.5 13t-17.5 4t-15.5 -7t-10 -16l-38 -107h35zM306 461l4 48l-13.5 2t-31.5 1q-54 -3 -93.5 -15t-76.5 -29v33h-57v-501h57v409q14 9 34 18.5t43 17t47 12t45 5.5q17 1 29.5 0z" />
    <glyph glyph-name="Rcommaaccent" unicode="&#x156;" horiz-adv-x="510" 
d="M220 -196l17 -12q7 6 16 17t17.5 26t14 34.5t5.5 43.5q0 15 -10 24t-24 9t-23.5 -9.5t-9.5 -23.5q0 -13 8 -22.5t20 -11.5q-2 -16 -8.5 -35.5t-22.5 -39.5zM277 700h-236v-700h57v245h179q10 0 19.5 0.5t18.5 1.5t17 3l91 -250h57l-97 265q32 16 52.5 43t30.5 68t10 98
q0 64 -13 107.5t-38.5 69.5t-62.5 37.5t-85 11.5zM282 300h-184v347h184q29 0 54 -7.5t43.5 -26t29 -52.5t10.5 -87q0 -57 -10.5 -92t-29.5 -52.5t-43.5 -23.5t-53.5 -6z" />
    <glyph glyph-name="rcommaaccent" unicode="&#x157;" horiz-adv-x="333" 
d="M32 -191l17 -12q7 6 16 17t17.5 26t14 34.5t5.5 43.5q0 15 -10 24t-24 9t-23.5 -9.5t-9.5 -23.5q0 -13 8 -22.5t20 -11.5q-2 -16 -8.5 -35.5t-22.5 -39.5zM306 461l4 48l-13.5 2t-31.5 1q-54 -3 -93.5 -15t-76.5 -29v33h-57v-501h57v409q14 9 34 18.5t43 17t47 12t45 5.5
q17 1 29.5 0z" />
    <glyph glyph-name="Rcaron" unicode="&#x158;" horiz-adv-x="510" 
d="M385 867l-39 37l-93 -89l-90 88l-39 -38l129 -126zM277 700h-236v-700h57v245h179q10 0 19.5 0.5t18.5 1.5t17 3l91 -250h57l-97 265q32 16 52.5 43t30.5 68t10 98q0 64 -13 107.5t-38.5 69.5t-62.5 37.5t-85 11.5zM282 300h-184v347h184q29 0 54 -7.5t43.5 -26t29 -52.5
t10.5 -87q0 -57 -10.5 -92t-29.5 -52.5t-43.5 -23.5t-53.5 -6z" />
    <glyph glyph-name="rcaron" unicode="&#x159;" horiz-adv-x="333" 
d="M297 682l-39 37l-93 -89l-90 88l-39 -38l129 -126zM306 461l4 48l-13.5 2t-31.5 1q-54 -3 -93.5 -15t-76.5 -29v33h-57v-501h57v409q14 9 34 18.5t43 17t47 12t45 5.5q17 1 29.5 0z" />
    <glyph glyph-name="Sacute" unicode="&#x15a;" horiz-adv-x="530" 
d="M328 834q6 9 7.5 17.5t-2 16.5t-12.5 13t-17.5 4t-15.5 -7t-10 -16l-38 -107h35zM421 624l16 48q-23 13 -48.5 21t-51.5 12t-53 4q-41 0 -80.5 -9t-72 -29t-52 -53t-19.5 -80q0 -39 16 -68t43 -50t61 -37.5t69.5 -30.5t69.5 -29t61 -33.5t43 -43t16 -58.5
q0 -40 -14.5 -68t-40 -45t-58 -25t-67.5 -8q-34 0 -72 9.5t-72 28.5t-55 47l-35 -35q31 -36 68 -59t80 -34t90 -11q44 0 86 11t76 34.5t54 60t20 86.5q0 46 -16 79.5t-43.5 57t-61 41t-70 31.5t-70 28t-61 31t-43.5 40t-16 55q0 33 15.5 55t41 34.5t54.5 17.5t56 5
q24 0 47.5 -3t46 -10t42.5 -18z" />
    <glyph glyph-name="sacute" unicode="&#x15b;" horiz-adv-x="417" 
d="M272 649q6 9 7.5 17.5t-2 16.5t-12.5 13t-17.5 4t-15.5 -7t-10 -16l-38 -107h35zM323 439l23 38q-24 15 -47 22.5t-44 10t-41 2.5q-30 0 -59 -8t-52.5 -24.5t-37.5 -40t-14 -55.5q0 -33 15.5 -56.5t40.5 -40.5t55.5 -30t61 -25t55.5 -26.5t40.5 -34t15.5 -46.5
q0 -24 -11.5 -41t-30 -28.5t-39.5 -16.5t-40 -5q-31 0 -58.5 7.5t-51.5 22.5t-47 37l-31 -33q35 -40 85 -63t103 -23q32 0 62.5 9t55.5 27t40 45t15 63q0 37 -15.5 62.5t-40.5 43.5t-55.5 31.5t-60.5 25t-55 25t-40.5 30.5t-15.5 42q0 21 11 36t29 24.5t39.5 14t41.5 4.5
q17 0 34.5 -3t34 -8.5t29.5 -14.5z" />
    <glyph glyph-name="Scircumflex" unicode="&#x15c;" horiz-adv-x="530" 
d="M396 774l-129 127l-132 -128l39 -38l93 90l89 -88zM421 624l16 48q-23 13 -48.5 21t-51.5 12t-53 4q-41 0 -80.5 -9t-72 -29t-52 -53t-19.5 -80q0 -39 16 -68t43 -50t61 -37.5t69.5 -30.5t69.5 -29t61 -33.5t43 -43t16 -58.5q0 -40 -14.5 -68t-40 -45t-58 -25t-67.5 -8
q-34 0 -72 9.5t-72 28.5t-55 47l-35 -35q31 -36 68 -59t80 -34t90 -11q44 0 86 11t76 34.5t54 60t20 86.5q0 46 -16 79.5t-43.5 57t-61 41t-70 31.5t-70 28t-61 31t-43.5 40t-16 55q0 33 15.5 55t41 34.5t54.5 17.5t56 5q24 0 47.5 -3t46 -10t42.5 -18z" />
    <glyph glyph-name="scircumflex" unicode="&#x15d;" horiz-adv-x="417" 
d="M339 589l-129 127l-132 -128l39 -38l93 90l89 -88zM323 439l23 38q-24 15 -47 22.5t-44 10t-41 2.5q-30 0 -59 -8t-52.5 -24.5t-37.5 -40t-14 -55.5q0 -33 15.5 -56.5t40.5 -40.5t55.5 -30t61 -25t55.5 -26.5t40.5 -34t15.5 -46.5q0 -24 -11.5 -41t-30 -28.5t-39.5 -16.5
t-40 -5q-31 0 -58.5 7.5t-51.5 22.5t-47 37l-31 -33q35 -40 85 -63t103 -23q32 0 62.5 9t55.5 27t40 45t15 63q0 37 -15.5 62.5t-40.5 43.5t-55.5 31.5t-60.5 25t-55 25t-40.5 30.5t-15.5 42q0 21 11 36t29 24.5t39.5 14t41.5 4.5q17 0 34.5 -3t34 -8.5t29.5 -14.5z" />
    <glyph glyph-name="Scedilla" unicode="&#x15e;" horiz-adv-x="530" 
d="M297 10h-50l-41 -69l13 -30q14 2 27 3.5t25 2.5t23 1q26 0 42 -8t16 -34q0 -20 -9.5 -31.5t-25.5 -15.5t-36 -4q-13 0 -27 1.5t-28 4t-29 5.5l-12 -48q1 0 17 -3t39 -6t46 -3q44 0 79.5 24.5t35.5 73.5q0 42 -27.5 69.5t-77.5 24.5q-7 -1 -13.5 -1t-12.5 -1zM421 624
l16 48q-23 13 -48.5 21t-51.5 12t-53 4q-41 0 -80.5 -9t-72 -29t-52 -53t-19.5 -80q0 -39 16 -68t43 -50t61 -37.5t69.5 -30.5t69.5 -29t61 -33.5t43 -43t16 -58.5q0 -40 -14.5 -68t-40 -45t-58 -25t-67.5 -8q-34 0 -72 9.5t-72 28.5t-55 47l-35 -35q31 -36 68 -59t80 -34
t90 -11q44 0 86 11t76 34.5t54 60t20 86.5q0 46 -16 79.5t-43.5 57t-61 41t-70 31.5t-70 28t-61 31t-43.5 40t-16 55q0 33 15.5 55t41 34.5t54.5 17.5t56 5q24 0 47.5 -3t46 -10t42.5 -18z" />
    <glyph glyph-name="scedilla" unicode="&#x15f;" horiz-adv-x="417" 
d="M240 10h-50l-41 -69l13 -30q14 2 27 3.5t25 2.5t23 1q26 0 42 -8t16 -34q0 -20 -9.5 -31.5t-25.5 -15.5t-36 -4q-13 0 -27 1.5t-28 4t-29 5.5l-12 -48q1 0 17 -3t39 -6t46 -3q44 0 79.5 24.5t35.5 73.5q0 42 -27.5 69.5t-77.5 24.5q-7 -1 -13.5 -1t-12.5 -1zM323 439
l23 38q-24 15 -47 22.5t-44 10t-41 2.5q-30 0 -59 -8t-52.5 -24.5t-37.5 -40t-14 -55.5q0 -33 15.5 -56.5t40.5 -40.5t55.5 -30t61 -25t55.5 -26.5t40.5 -34t15.5 -46.5q0 -24 -11.5 -41t-30 -28.5t-39.5 -16.5t-40 -5q-31 0 -58.5 7.5t-51.5 22.5t-47 37l-31 -33
q35 -40 85 -63t103 -23q32 0 62.5 9t55.5 27t40 45t15 63q0 37 -15.5 62.5t-40.5 43.5t-55.5 31.5t-60.5 25t-55 25t-40.5 30.5t-15.5 42q0 21 11 36t29 24.5t39.5 14t41.5 4.5q17 0 34.5 -3t34 -8.5t29.5 -14.5z" />
    <glyph glyph-name="Scaron" unicode="&#x160;" horiz-adv-x="530" 
d="M393 867l-39 37l-93 -89l-90 88l-39 -38l129 -126zM421 624l16 48q-23 13 -48.5 21t-51.5 12t-53 4q-41 0 -80.5 -9t-72 -29t-52 -53t-19.5 -80q0 -39 16 -68t43 -50t61 -37.5t69.5 -30.5t69.5 -29t61 -33.5t43 -43t16 -58.5q0 -40 -14.5 -68t-40 -45t-58 -25t-67.5 -8
q-34 0 -72 9.5t-72 28.5t-55 47l-35 -35q31 -36 68 -59t80 -34t90 -11q44 0 86 11t76 34.5t54 60t20 86.5q0 46 -16 79.5t-43.5 57t-61 41t-70 31.5t-70 28t-61 31t-43.5 40t-16 55q0 33 15.5 55t41 34.5t54.5 17.5t56 5q24 0 47.5 -3t46 -10t42.5 -18z" />
    <glyph glyph-name="scaron" unicode="&#x161;" horiz-adv-x="417" 
d="M339 682l-39 37l-93 -89l-90 88l-39 -38l129 -126zM323 439l23 38q-24 15 -47 22.5t-44 10t-41 2.5q-30 0 -59 -8t-52.5 -24.5t-37.5 -40t-14 -55.5q0 -33 15.5 -56.5t40.5 -40.5t55.5 -30t61 -25t55.5 -26.5t40.5 -34t15.5 -46.5q0 -24 -11.5 -41t-30 -28.5t-39.5 -16.5
t-40 -5q-31 0 -58.5 7.5t-51.5 22.5t-47 37l-31 -33q35 -40 85 -63t103 -23q32 0 62.5 9t55.5 27t40 45t15 63q0 37 -15.5 62.5t-40.5 43.5t-55.5 31.5t-60.5 25t-55 25t-40.5 30.5t-15.5 42q0 21 11 36t29 24.5t39.5 14t41.5 4.5q17 0 34.5 -3t34 -8.5t29.5 -14.5z" />
    <glyph glyph-name="Tcedilla" unicode="&#x162;" horiz-adv-x="417" 
d="M231 11h-50l-41 -69l13 -30q14 2 27 3.5t25 2.5t23 1q26 0 42 -8t16 -34q0 -20 -9.5 -31.5t-25.5 -15.5t-36 -4q-13 0 -27 1.5t-28 4t-29 5.5l-12 -48q1 0 17 -3t39 -6t46 -3q44 0 79.5 24.5t35.5 73.5q0 42 -27.5 69.5t-77.5 24.5q-7 -1 -13.5 -1t-12.5 -1zM233 650h176
v50h-402v-50h171v-650h55v650z" />
    <glyph glyph-name="tcedilla" unicode="&#x163;" horiz-adv-x="241" 
d="M150 20h-50l-41 -69l13 -30q14 2 27 3.5t25 2.5t23 1q26 0 42 -8t16 -34q0 -20 -9.5 -31.5t-25.5 -15.5t-36 -4q-13 0 -27 1.5t-28 4t-29 5.5l-12 -48q1 0 17 -3t39 -6t46 -3q44 0 79.5 24.5t35.5 73.5q0 42 -27.5 69.5t-77.5 24.5q-7 -1 -13.5 -1t-12.5 -1zM95 132v316
h97l24 52h-121v200h-56v-568q0 -58 25 -93t80 -52l17 43q-22 8 -36.5 21.5t-22 34t-7.5 46.5z" />
    <glyph glyph-name="Tcaron" unicode="&#x164;" horiz-adv-x="417" 
d="M339 867l-39 37l-93 -89l-90 88l-39 -38l129 -126zM233 650h176v50h-402v-50h171v-650h55v650z" />
    <glyph glyph-name="tcaron" unicode="&#x165;" horiz-adv-x="241" 
d="M200 862l-39 37l-93 -89l-90 88l-39 -38l129 -126zM95 132v316h97l24 52h-121v200h-56v-568q0 -58 25 -93t80 -52l17 43q-22 8 -36.5 21.5t-22 34t-7.5 46.5z" />
    <glyph glyph-name="Tbar" unicode="&#x166;" horiz-adv-x="417" 
d="M9 379v-53h400v53h-400zM233 650h176v50h-402v-50h171v-650h55v650z" />
    <glyph glyph-name="tbar" unicode="&#x167;" horiz-adv-x="271" 
d="M226 303v53h-225v-53h225zM124 132v316h97l24 52h-121v200h-56v-568q0 -58 25 -93t80 -52l17 43q-22 8 -36.5 21.5t-22 34t-7.5 46.5z" />
    <glyph glyph-name="Utilde" unicode="&#x168;" horiz-adv-x="498" 
d="M322 869v-18q0 -11 -3.5 -21.5t-14.5 -10.5q-10 0 -22 8.5t-14 9.5q-10 8 -21 15t-22 11q-17 8 -37.5 7t-35.5 -13q-10 -8 -15.5 -19.5t-7.5 -23.5t-2 -24v-18h50v18q0 5 1 14.5t5 13.5q8 5 17 2t16 -8q8 -4 16.5 -10.5t17.5 -11.5q13 -7 26.5 -14t29.5 -7
q35 0 50.5 25.5t15.5 56.5v18h-50zM458 186v514h-56v-513q0 -48 -19.5 -80.5t-54 -48.5t-80.5 -16t-80.5 16.5t-54 48.5t-19.5 80v513h-56v-514q0 -65 26.5 -109t74.5 -66t110 -22t109 22.5t73.5 66.5t26.5 108z" />
    <glyph glyph-name="utilde" unicode="&#x169;" horiz-adv-x="445" 
d="M295 674v-18q0 -11 -3.5 -21.5t-14.5 -10.5q-10 0 -22 8.5t-14 9.5q-10 8 -21 15t-22 11q-17 8 -37.5 7t-35.5 -13q-10 -8 -15.5 -19.5t-7.5 -23.5t-2 -24v-18h50v18q0 5 1 14.5t5 13.5q8 5 17 2t16 -8q8 -4 16.5 -10.5t17.5 -11.5q13 -7 26.5 -14t29.5 -7
q35 0 50.5 25.5t15.5 56.5v18h-50zM349 48v-48h56v501h-56v-328q0 -27 -10 -50t-28.5 -41t-43.5 -28t-55 -10q-38 0 -65 12.5t-41 40.5t-14 74v330h-57v-344q0 -34 7.5 -61t22 -47t36 -33t49 -19.5t60.5 -6.5q25 0 51 6.5t49 19.5t39 32z" />
    <glyph glyph-name="Umacron" unicode="&#x16a;" horiz-adv-x="498" 
d="M359 827h-221v-56h221v56zM458 186v514h-56v-513q0 -48 -19.5 -80.5t-54 -48.5t-80.5 -16t-80.5 16.5t-54 48.5t-19.5 80v513h-56v-514q0 -65 26.5 -109t74.5 -66t110 -22t109 22.5t73.5 66.5t26.5 108z" />
    <glyph glyph-name="umacron" unicode="&#x16b;" horiz-adv-x="445" 
d="M333 642h-221v-56h221v56zM349 48v-48h56v501h-56v-328q0 -27 -10 -50t-28.5 -41t-43.5 -28t-55 -10q-38 0 -65 12.5t-41 40.5t-14 74v330h-57v-344q0 -34 7.5 -61t22 -47t36 -33t49 -19.5t60.5 -6.5q25 0 51 6.5t49 19.5t39 32z" />
    <glyph glyph-name="Ubreve" unicode="&#x16c;" horiz-adv-x="498" 
d="M361 854h-45v-7q0 -28 -19 -48t-48 -20q-28 0 -48.5 20t-20.5 48v7h-45v-7q0 -31 15.5 -56.5t41.5 -41t57 -15.5t56.5 15.5t40.5 41t15 56.5v7zM458 186v514h-56v-513q0 -48 -19.5 -80.5t-54 -48.5t-80.5 -16t-80.5 16.5t-54 48.5t-19.5 80v513h-56v-514q0 -65 26.5 -109
t74.5 -66t110 -22t109 22.5t73.5 66.5t26.5 108z" />
    <glyph glyph-name="ubreve" unicode="&#x16d;" horiz-adv-x="445" 
d="M336 669h-45v-7q0 -28 -19 -48t-48 -20q-28 0 -48.5 20t-20.5 48v7h-45v-7q0 -31 15.5 -56.5t41.5 -41t57 -15.5t56.5 15.5t40.5 41t15 56.5v7zM349 48v-48h56v501h-56v-328q0 -27 -10 -50t-28.5 -41t-43.5 -28t-55 -10q-38 0 -65 12.5t-41 40.5t-14 74v330h-57v-344
q0 -34 7.5 -61t22 -47t36 -33t49 -19.5t60.5 -6.5q25 0 51 6.5t49 19.5t39 32z" />
    <glyph glyph-name="Uring" unicode="&#x16e;" horiz-adv-x="498" 
d="M250 927q-31 0 -57.5 -15t-42 -40.5t-15.5 -57.5t15.5 -58t42 -41t57.5 -15t56.5 15t41 41t15.5 58t-15.5 57.5t-41 40.5t-56.5 15zM250 883q29 0 50 -21q19 -19 19 -48q0 -14 -5.5 -27t-14.5 -23q-10 -9 -22.5 -14.5t-26.5 -5.5q-15 0 -27.5 5.5t-22.5 14.5
q-10 10 -15.5 23t-5.5 27t5.5 26.5t14.5 22.5q10 9 23 14.5t28 5.5zM458 186v514h-56v-513q0 -48 -19.5 -80.5t-54 -48.5t-80.5 -16t-80.5 16.5t-54 48.5t-19.5 80v513h-56v-514q0 -65 26.5 -109t74.5 -66t110 -22t109 22.5t73.5 66.5t26.5 108z" />
    <glyph glyph-name="uring" unicode="&#x16f;" horiz-adv-x="445" 
d="M224 750q-31 0 -57.5 -15t-42 -40.5t-15.5 -57.5t15.5 -58t42 -41t57.5 -15t56.5 15t41 41t15.5 58t-15.5 57.5t-41 40.5t-56.5 15zM224 706q29 0 50 -21q19 -19 19 -48q0 -14 -5.5 -27t-14.5 -23q-10 -9 -22.5 -14.5t-26.5 -5.5q-15 0 -27.5 5.5t-22.5 14.5
q-10 10 -15.5 23t-5.5 27t5.5 26.5t14.5 22.5q10 9 23 14.5t28 5.5zM349 48v-48h56v501h-56v-328q0 -27 -10 -50t-28.5 -41t-43.5 -28t-55 -10q-38 0 -65 12.5t-41 40.5t-14 74v330h-57v-344q0 -34 7.5 -61t22 -47t36 -33t49 -19.5t60.5 -6.5q25 0 51 6.5t49 19.5t39 32z
" />
    <glyph glyph-name="Uhungarumlaut" unicode="&#x170;" horiz-adv-x="498" 
d="M261 830q6 8 7.5 17t-2 17.5t-12.5 13.5t-18 3.5t-15.5 -7.5t-10.5 -16l-39 -106h36zM372 830q6 9 7.5 18t-2 17t-12.5 13t-18 3.5t-16 -7.5t-10 -16l-37 -106h35zM458 186v514h-56v-513q0 -48 -19.5 -80.5t-54 -48.5t-80.5 -16t-80.5 16.5t-54 48.5t-19.5 80v513h-56
v-514q0 -65 26.5 -109t74.5 -66t110 -22t109 22.5t73.5 66.5t26.5 108z" />
    <glyph glyph-name="uhungarumlaut" unicode="&#x171;" horiz-adv-x="445" 
d="M235 645q6 8 7.5 17t-2 17.5t-12.5 13.5t-18 3.5t-15.5 -7.5t-10.5 -16l-39 -106h36zM346 645q6 9 7.5 18t-2 17t-12.5 13t-18 3.5t-16 -7.5t-10 -16l-37 -106h35zM349 48v-48h56v501h-56v-328q0 -27 -10 -50t-28.5 -41t-43.5 -28t-55 -10q-38 0 -65 12.5t-41 40.5
t-14 74v330h-57v-344q0 -34 7.5 -61t22 -47t36 -33t49 -19.5t60.5 -6.5q25 0 51 6.5t49 19.5t39 32z" />
    <glyph glyph-name="Uogonek" unicode="&#x172;" horiz-adv-x="498" 
d="M297 6h-44v-8l-65 -102q-16 -26 -16 -50.5t14.5 -43t40 -26t59.5 1.5q6 2 23 8t36 12.5t32 11.5l13 5l-18 39l-7.5 -2.5t-20.5 -7t-30.5 -10.5t-38.5 -14q-24 -8 -40.5 -1.5t-19.5 24t11 39.5l71 115v9zM458 186v514h-56v-513q0 -48 -19.5 -80.5t-54 -48.5t-80.5 -16
t-80.5 16.5t-54 48.5t-19.5 80v513h-56v-514q0 -65 26.5 -109t74.5 -66t110 -22t109 22.5t73.5 66.5t26.5 108z" />
    <glyph glyph-name="uogonek" unicode="&#x173;" horiz-adv-x="445" 
d="M397 11h-44v-8l-65 -102q-16 -26 -16 -50.5t14.5 -43t40 -26t59.5 1.5q6 2 23 8t36 12.5t32 11.5l13 5l-18 39l-7.5 -2.5t-20.5 -7t-30.5 -10.5t-38.5 -14q-24 -8 -40.5 -1.5t-19.5 24t11 39.5l71 115v9zM349 48v-48h56v501h-56v-328q0 -27 -10 -50t-28.5 -41t-43.5 -28
t-55 -10q-38 0 -65 12.5t-41 40.5t-14 74v330h-57v-344q0 -34 7.5 -61t22 -47t36 -33t49 -19.5t60.5 -6.5q25 0 51 6.5t49 19.5t39 32z" />
    <glyph glyph-name="Wcircumflex" unicode="&#x174;" horiz-adv-x="733" 
d="M496 774l-129 127l-132 -128l39 -38l93 90l89 -88zM405 700h-78l-107 -631l-142 631h-61l166 -700h85l99 599l99 -599h84l163 700h-59l-141 -631z" />
    <glyph glyph-name="wcircumflex" unicode="&#x175;" horiz-adv-x="708" 
d="M485 589l-129 127l-132 -128l39 -38l93 90l89 -88zM381 499h-57l-112 -442l-135 442h-58l152 -499h78l102 405l100 -405h77l156 499h-59l-134 -442z" />
    <glyph glyph-name="Ycircumflex" unicode="&#x176;" horiz-adv-x="515" 
d="M387 774l-129 127l-132 -128l39 -38l93 90l89 -88zM474 156v544h-57v-277q0 -34 -15 -58t-39.5 -38t-54 -20.5t-58.5 -6.5q-51 0 -88 17t-56.5 51t-19.5 85v247h-56v-245q0 -64 24 -111t70.5 -73t113.5 -26q32 0 66 6.5t64 20t49 34.5v-153q0 -25 -3.5 -45t-11 -35.5
t-19 -26t-27.5 -16.5l13 -37q50 7 77.5 48.5t27.5 114.5z" />
    <glyph glyph-name="ycircumflex" unicode="&#x177;" horiz-adv-x="469" 
d="M364 589l-129 127l-132 -128l39 -38l93 90l89 -88zM438 470l-20 42q-23 -8 -38.5 -23.5t-23 -36t-7.5 -43.5v-235q0 -26 -10 -49.5t-27 -41.5t-40 -28.5t-50 -10.5q-23 0 -46 5.5t-42 18.5t-30.5 36t-11.5 58v339h-57v-343q0 -43 11.5 -74.5t34 -52t55 -30.5t74.5 -10
q25 0 51 6.5t49 19.5t39 33v-111q0 -18 -3.5 -34.5t-11.5 -30t-20.5 -23.5t-29.5 -17l16 -43q38 13 61 31t33.5 46.5t10.5 69.5v470q0 32 10 44t23 18z" />
    <glyph glyph-name="Ydieresis" unicode="&#x178;" horiz-adv-x="515" 
d="M178 852q-13 0 -23 -10t-10 -24q0 -13 10 -23t23 -10q14 0 24 10t10 23q0 14 -10 24t-24 10zM337 852q-14 0 -23.5 -10t-9.5 -24q0 -13 9.5 -23t23.5 -10t23.5 10t9.5 23q0 14 -9.5 24t-23.5 10zM474 156v544h-57v-277q0 -34 -15 -58t-39.5 -38t-54 -20.5t-58.5 -6.5
q-51 0 -88 17t-56.5 51t-19.5 85v247h-56v-245q0 -64 24 -111t70.5 -73t113.5 -26q32 0 66 6.5t64 20t49 34.5v-153q0 -25 -3.5 -45t-11 -35.5t-19 -26t-27.5 -16.5l13 -37q50 7 77.5 48.5t27.5 114.5z" />
    <glyph glyph-name="Zacute" unicode="&#x179;" horiz-adv-x="547" 
d="M336 834q6 9 7.5 17.5t-2 16.5t-12.5 13t-17.5 4t-15.5 -7t-10 -16l-38 -107h35zM40 700v-49l398 -1l-17 -24l-393 -577v-49h487v49l-417 1l17 23l393 578v49h-468z" />
    <glyph glyph-name="zacute" unicode="&#x17a;" horiz-adv-x="428" 
d="M277 649q6 9 7.5 17.5t-2 16.5t-12.5 13t-17.5 4t-15.5 -7t-10 -16l-38 -107h35zM378 501h-338v-49l266 -1l-275 -401v-50h368v50l-298 1l277 401v49z" />
    <glyph glyph-name="Zdotaccent" unicode="&#x17b;" horiz-adv-x="547" 
d="M274 860q-14 0 -23.5 -10t-9.5 -24q0 -13 9.5 -23t23.5 -10t23.5 10t9.5 23q0 14 -9.5 24t-23.5 10zM40 700v-49l398 -1l-17 -24l-393 -577v-49h487v49l-417 1l17 23l393 578v49h-468z" />
    <glyph glyph-name="zdotaccent" unicode="&#x17c;" horiz-adv-x="428" 
d="M215 685q-14 0 -23.5 -10t-9.5 -24q0 -13 9.5 -23t23.5 -10t23.5 10t9.5 23q0 14 -9.5 24t-23.5 10zM378 501h-338v-49l266 -1l-275 -401v-50h368v50l-298 1l277 401v49z" />
    <glyph glyph-name="Zcaron" unicode="&#x17d;" horiz-adv-x="547" 
d="M404 867l-39 37l-93 -89l-90 88l-39 -38l129 -126zM40 700v-49l398 -1l-17 -24l-393 -577v-49h487v49l-417 1l17 23l393 578v49h-468z" />
    <glyph glyph-name="zcaron" unicode="&#x17e;" horiz-adv-x="428" 
d="M345 682l-39 37l-93 -89l-90 88l-39 -38l129 -126zM378 501h-338v-49l266 -1l-275 -401v-50h368v50l-298 1l277 401v49z" />
    <glyph glyph-name="Scommaaccent" unicode="&#x218;" horiz-adv-x="530" 
d="M230 -196l17 -12q7 6 16 17t17.5 26t14 34.5t5.5 43.5q0 15 -10 24t-24 9t-23.5 -9.5t-9.5 -23.5q0 -13 8 -22.5t20 -11.5q-2 -16 -8.5 -35.5t-22.5 -39.5zM421 624l16 48q-23 13 -48.5 21t-51.5 12t-53 4q-41 0 -80.5 -9t-72 -29t-52 -53t-19.5 -80q0 -39 16 -68t43 -50
t61 -37.5t69.5 -30.5t69.5 -29t61 -33.5t43 -43t16 -58.5q0 -40 -14.5 -68t-40 -45t-58 -25t-67.5 -8q-34 0 -72 9.5t-72 28.5t-55 47l-35 -35q31 -36 68 -59t80 -34t90 -11q44 0 86 11t76 34.5t54 60t20 86.5q0 46 -16 79.5t-43.5 57t-61 41t-70 31.5t-70 28t-61 31
t-43.5 40t-16 55q0 33 15.5 55t41 34.5t54.5 17.5t56 5q24 0 47.5 -3t46 -10t42.5 -18z" />
    <glyph glyph-name="scommaaccent" unicode="&#x219;" horiz-adv-x="417" 
d="M174 -191l17 -12q7 6 16 17t17.5 26t14 34.5t5.5 43.5q0 15 -10 24t-24 9t-23.5 -9.5t-9.5 -23.5q0 -13 8 -22.5t20 -11.5q-2 -16 -8.5 -35.5t-22.5 -39.5zM323 439l23 38q-24 15 -47 22.5t-44 10t-41 2.5q-30 0 -59 -8t-52.5 -24.5t-37.5 -40t-14 -55.5
q0 -33 15.5 -56.5t40.5 -40.5t55.5 -30t61 -25t55.5 -26.5t40.5 -34t15.5 -46.5q0 -24 -11.5 -41t-30 -28.5t-39.5 -16.5t-40 -5q-31 0 -58.5 7.5t-51.5 22.5t-47 37l-31 -33q35 -40 85 -63t103 -23q32 0 62.5 9t55.5 27t40 45t15 63q0 37 -15.5 62.5t-40.5 43.5t-55.5 31.5
t-60.5 25t-55 25t-40.5 30.5t-15.5 42q0 21 11 36t29 24.5t39.5 14t41.5 4.5q17 0 34.5 -3t34 -8.5t29.5 -14.5z" />
    <glyph glyph-name="uni021A" unicode="&#x21a;" horiz-adv-x="417" 
d="M170 -196l17 -12q7 6 16 17t17.5 26t14 34.5t5.5 43.5q0 15 -10 24t-24 9t-23.5 -9.5t-9.5 -23.5q0 -13 8 -22.5t20 -11.5q-2 -16 -8.5 -35.5t-22.5 -39.5zM233 650h176v50h-402v-50h171v-650h55v650z" />
    <glyph glyph-name="uni021B" unicode="&#x21b;" horiz-adv-x="241" 
d="M88 -191l17 -12q7 6 16 17t17.5 26t14 34.5t5.5 43.5q0 15 -10 24t-24 9t-23.5 -9.5t-9.5 -23.5q0 -13 8 -22.5t20 -11.5q-2 -16 -8.5 -35.5t-22.5 -39.5zM95 132v316h97l24 52h-121v200h-56v-568q0 -58 25 -93t80 -52l17 43q-22 8 -36.5 21.5t-22 34t-7.5 46.5z" />
    <glyph glyph-name="dotlessj" unicode="&#x237;" horiz-adv-x="188" 
d="M148 -63v564h-120v-52h64v-511q0 -24 -7 -44.5t-21.5 -36t-37.5 -24.5l16 -43q39 12 62 30.5t33.5 47t10.5 69.5z" />
    <glyph glyph-name="circumflex" unicode="&#x2c6;" 
d="M264 624l-129 127l-132 -128l39 -38l93 90l89 -88z" />
    <glyph glyph-name="caron" unicode="&#x2c7;" 
d="M264 717l-39 37l-93 -89l-90 88l-39 -38l129 -126z" />
    <glyph glyph-name="breve" unicode="&#x2d8;" 
d="M246 704h-45v-7q0 -28 -19 -48t-48 -20q-28 0 -48.5 20t-20.5 48v7h-45v-7q0 -31 15.5 -56.5t41.5 -41t57 -15.5t56.5 15.5t40.5 41t15 56.5v7z" />
    <glyph glyph-name="dotaccent" unicode="&#x2d9;" 
d="M134 750q-14 0 -23.5 -10t-9.5 -24q0 -13 9.5 -23t23.5 -10t23.5 10t9.5 23q0 14 -9.5 24t-23.5 10z" />
    <glyph glyph-name="ring" unicode="&#x2da;" 
d="M134 775q-31 0 -57.5 -15t-42 -40.5t-15.5 -57.5t15.5 -58t42 -41t57.5 -15t56.5 15t41 41t15.5 58t-15.5 57.5t-41 40.5t-56.5 15zM134 731q29 0 50 -21q19 -19 19 -48q0 -14 -5.5 -27t-14.5 -23q-10 -9 -22.5 -14.5t-26.5 -5.5q-15 0 -27.5 5.5t-22.5 14.5
q-10 10 -15.5 23t-5.5 27t5.5 26.5t14.5 22.5q10 9 23 14.5t28 5.5z" />
    <glyph glyph-name="ogonek" unicode="&#x2db;" 
d="M162 11h-44v-8l-65 -102q-16 -26 -16 -50.5t14.5 -43t40 -26t59.5 1.5q6 2 23 8t36 12.5t32 11.5l13 5l-18 39l-7.5 -2.5t-20.5 -7t-30.5 -10.5t-38.5 -14q-24 -8 -40.5 -1.5t-19.5 24t11 39.5l71 115v9z" />
    <glyph glyph-name="tilde" unicode="&#x2dc;" 
d="M206 719v-18q0 -11 -3.5 -21.5t-14.5 -10.5q-10 0 -22 8.5t-14 9.5q-10 8 -21 15t-22 11q-17 8 -37.5 7t-35.5 -13q-10 -8 -15.5 -19.5t-7.5 -23.5t-2 -24v-18h50v18q0 5 1 14.5t5 13.5q8 5 17 2t16 -8q8 -4 16.5 -10.5t17.5 -11.5q13 -7 26.5 -14t29.5 -7
q35 0 50.5 25.5t15.5 56.5v18h-50z" />
    <glyph glyph-name="hungarumlaut" unicode="&#x2dd;" 
d="M146 660q6 8 7.5 17t-2 17.5t-12.5 13.5t-18 3.5t-16 -7.5t-10 -16l-39 -106h36zM257 660q6 9 7.5 18t-2 17t-12.5 13t-18 3.5t-16 -7.5t-10 -16l-37 -106h35z" />
    <glyph glyph-name="gravecomb" unicode="&#x300;" 
d="M114 717q-3 10 -10 16.5t-16 8t-19 -4.5q-8 -4 -11.5 -12.5t-1.5 -18t7 -17.5l54 -79h36z" />
    <glyph glyph-name="acutecomb" unicode="&#x301;" 
d="M197 684q6 9 7.5 17.5t-2 16.5t-12.5 13t-17.5 4t-15.5 -7t-10 -16l-38 -107h35z" />
    <glyph glyph-name="circumflexcomb" unicode="&#x302;" 
d="M264 624l-129 127l-132 -128l39 -38l93 90l89 -88z" />
    <glyph glyph-name="tildecomb" unicode="&#x303;" 
d="M206 719v-18q0 -11 -3.5 -21.5t-14.5 -10.5q-10 0 -22 8.5t-14 9.5q-10 8 -21 15t-22 11q-17 8 -37.5 7t-35.5 -13q-10 -8 -15.5 -19.5t-7.5 -23.5t-2 -24v-18h50v18q0 5 1 14.5t5 13.5q8 5 17 2t16 -8q8 -4 16.5 -10.5t17.5 -11.5q13 -7 26.5 -14t29.5 -7
q35 0 50.5 25.5t15.5 56.5v18h-50z" />
    <glyph glyph-name="macroncomb" unicode="&#x304;" 
d="M244 677h-221v-56h221v56z" />
    <glyph glyph-name="brevecomb" unicode="&#x306;" 
d="M246 704h-45v-7q0 -28 -19 -48t-48 -20q-28 0 -48.5 20t-20.5 48v7h-45v-7q0 -31 15.5 -56.5t41.5 -41t57 -15.5t56.5 15.5t40.5 41t15 56.5v7z" />
    <glyph glyph-name="dotaccentcomb" unicode="&#x307;" 
d="M134 750q-14 0 -23.5 -10t-9.5 -24q0 -13 9.5 -23t23.5 -10t23.5 10t9.5 23q0 14 -9.5 24t-23.5 10z" />
    <glyph glyph-name="dieresiscomb" unicode="&#x308;" 
d="M54 742q-13 0 -23 -10t-10 -24q0 -13 10 -23t23 -10q14 0 24 10t10 23q0 14 -10 24t-24 10zM213 742q-14 0 -23.5 -10t-9.5 -24q0 -13 9.5 -23t23.5 -10t23.5 10t9.5 23q0 14 -9.5 24t-23.5 10z" />
    <glyph glyph-name="ringcomb" unicode="&#x30a;" 
d="M134 775q-31 0 -57.5 -15t-42 -40.5t-15.5 -57.5t15.5 -58t42 -41t57.5 -15t56.5 15t41 41t15.5 58t-15.5 57.5t-41 40.5t-56.5 15zM134 731q29 0 50 -21q19 -19 19 -48q0 -14 -5.5 -27t-14.5 -23q-10 -9 -22.5 -14.5t-26.5 -5.5q-15 0 -27.5 5.5t-22.5 14.5
q-10 10 -15.5 23t-5.5 27t5.5 26.5t14.5 22.5q10 9 23 14.5t28 5.5z" />
    <glyph glyph-name="hungarumlautcomb" unicode="&#x30b;" 
d="M146 660q6 8 7.5 17t-2 17.5t-12.5 13.5t-18 3.5t-15.5 -7.5t-10.5 -16l-39 -106h36zM257 660q6 9 7.5 18t-2 17t-12.5 13t-18 3.5t-16 -7.5t-10 -16l-37 -106h35z" />
    <glyph glyph-name="caroncomb" unicode="&#x30c;" 
d="M264 717l-39 37l-93 -89l-90 88l-39 -38l129 -126z" />
    <glyph glyph-name="commaturnedabovecomb" unicode="&#x312;" 
d="M169 718l-17 12q-7 -6 -16 -17t-17.5 -26t-14 -34.5t-5.5 -42.5q0 -15 10 -24t24 -9t23.5 10t9.5 23q0 14 -8 23t-19 10q2 17 8 36.5t22 38.5z" />
    <glyph glyph-name="commaaccent" unicode="&#x326;" 
d="M99 -196l17 -12q7 6 16 17t17.5 26t14 34.5t5.5 43.5q0 15 -10 24t-24 9t-23.5 -9.5t-9.5 -23.5q0 -13 8 -22.5t20 -11.5q-2 -16 -8.5 -35.5t-22.5 -39.5z" />
    <glyph glyph-name="cedillacomb" unicode="&#x327;" 
d="M166 10h-50l-41 -69l13 -30q14 2 27 3.5t25 2.5t23 1q26 0 42 -8t16 -34q0 -20 -9.5 -31.5t-25.5 -15.5t-36 -4q-13 0 -27 1.5t-28 4t-29 5.5l-12 -48q1 0 17 -3t39 -6t46 -3q44 0 79.5 24.5t35.5 73.5q0 42 -27.5 69.5t-77.5 24.5q-7 -1 -13.5 -1t-12.5 -1z" />
    <glyph glyph-name="ogonekcomb" unicode="&#x328;" 
d="M162 11h-44v-8l-65 -102q-16 -26 -16 -50.5t14.5 -43t40 -26t59.5 1.5q6 2 23 8t36 12.5t32 11.5l13 5l-18 39l-7.5 -2.5t-20.5 -7t-30.5 -10.5t-38.5 -14q-24 -8 -40.5 -1.5t-19.5 24t11 39.5l71 115v9z" />
    <glyph glyph-name="dieresistonoscomb" unicode="&#x344;" 
d="M87 692q0 14 -9.5 23.5t-23.5 9.5q-13 0 -23.5 -9.5t-10.5 -23.5q0 -13 10.5 -23t23.5 -10q14 0 23.5 10t9.5 23zM246 692q0 14 -10 23.5t-24 9.5q-13 0 -23 -9.5t-10 -23.5q0 -13 10 -23t23 -10q14 0 24 10t10 23zM205 816q5 8 6.5 17t-1.5 17t-12 13t-18 3.5t-16 -8
t-10 -15.5l-38 -107h36z" />
    <glyph glyph-name="tonos" unicode="&#x384;" 
d="M203 684q6 8 7.5 17t-2 17t-12.5 13t-17.5 4t-15.5 -7t-10 -16l-38 -107h35z" />
    <glyph glyph-name="dieresistonos" unicode="&#x385;" 
d="M87 692q0 14 -9.5 23.5t-23.5 9.5q-13 0 -23.5 -9.5t-10.5 -23.5q0 -13 10.5 -23t23.5 -10q14 0 23.5 10t9.5 23zM246 692q0 14 -10 23.5t-24 9.5q-13 0 -23 -9.5t-10 -23.5q0 -13 10 -23t23 -10q14 0 24 10t10 23zM196 816q5 8 6.5 17t-1.5 17t-12 13t-18 3.5t-16 -8
t-10 -15.5l-38 -107h36z" />
    <glyph glyph-name="Alphatonos" unicode="&#x386;" horiz-adv-x="547" 
d="M527 0l-228 700h-53l-225 -700h60l79 245h227l81 -245h59zM175 300l97 314l100 -314h-197zM219 784q6 8 7.5 17t-2 17t-12.5 13t-17.5 4t-15.5 -7t-10 -16l-38 -107h35z" />
    <glyph glyph-name="Epsilontonos" unicode="&#x388;" horiz-adv-x="406" 
d="M41 0h332v50h-275v307h172l18 55h-190v236h277v52h-334v-700zM42 784q6 8 7.5 17t-2 17t-12.5 13t-17.5 4t-15.5 -7t-10 -16l-38 -107h35z" />
    <glyph glyph-name="Etatonos" unicode="&#x389;" horiz-adv-x="515" 
d="M415 412h-317v288h-57v-700h57v357h317v-357h57v700h-57v-288zM46 784q6 8 7.5 17t-2 17t-12.5 13t-17.5 4t-15.5 -7t-10 -16l-38 -107h35z" />
    <glyph glyph-name="Iotatonos" unicode="&#x38a;" horiz-adv-x="187" 
d="M20 651l68 -2v-649h56v700h-124v-49zM33 784q6 8 7.5 17t-2 17t-12.5 13t-17.5 4t-15.5 -7t-10 -16l-38 -107h35z" />
    <glyph glyph-name="Omicrontonos" unicode="&#x38c;" horiz-adv-x="492" 
d="M34 508v-322q0 -65 28.5 -109t76.5 -66t107 -22q62 0 109.5 24t74 68t26.5 105v321q0 98 -55 153.5t-154 55.5t-156 -53t-57 -155zM91 187v330q0 49 19 81t53.5 48.5t80.5 16.5q48 0 83 -16.5t54 -48.5t19 -81v-330q0 -49 -20 -81.5t-55 -48t-81 -15.5q-44 0 -78.5 16.5
t-54.5 48.5t-20 80zM145 784q6 8 7.5 17t-2 17t-12.5 13t-17.5 4t-15.5 -7t-10 -16l-38 -107h35z" />
    <glyph glyph-name="Upsilontonos" unicode="&#x38e;" horiz-adv-x="515" 
d="M474 156v544h-57v-277q0 -34 -15 -58t-39.5 -38t-54 -20.5t-58.5 -6.5q-51 0 -88 17t-56.5 51t-19.5 85v247h-56v-245q0 -64 24 -111t70.5 -73t113.5 -26q32 0 66 6.5t64 20t49 34.5v-153q0 -25 -3.5 -45t-11 -35.5t-19 -26t-27.5 -16.5l13 -37q50 7 77.5 48.5
t27.5 114.5zM30 784q6 8 7.5 17t-2 17t-12.5 13t-17.5 4t-15.5 -7t-10 -16l-38 -107h35z" />
    <glyph glyph-name="Omegatonos" unicode="&#x38f;" horiz-adv-x="582" 
d="M535 195v308q0 92 -47 148t-141 56h-112q-94 0 -141 -56t-47 -148v-308q0 -33 8 -60.5t23.5 -48.5t37.5 -36h-65l-18 -51h229v51q-35 0 -64 9.5t-50 27.5t-32.5 45t-11.5 63v317q0 66 36 104t95 38h112q40 0 69.5 -17t46.5 -49t17 -76v-317q0 -35 -12.5 -62t-35 -45.5
t-51.5 -28t-62 -9.5v-51h229l-16 51h-70q25 15 41 36.5t24 48.5t8 60zM160 784q6 8 7.5 17t-2 17t-12.5 13t-17.5 4t-15.5 -7t-10 -16l-38 -107h35z" />
    <glyph glyph-name="iotadieresistonos" unicode="&#x390;" horiz-adv-x="135" 
d="M22 608q0 14 -9.5 23.5t-23.5 9.5q-13 0 -23.5 -9.5t-10.5 -23.5q0 -13 10.5 -23t23.5 -10q14 0 23.5 10t9.5 23zM181 608q0 14 -10 23.5t-24 9.5q-13 0 -23 -9.5t-10 -23.5q0 -13 10 -23t23 -10q14 0 24 10t10 23zM140 732q5 8 6.5 17t-1.5 17t-12 13t-18 3.5t-16 -8
t-10 -15.5l-38 -107h36zM38 0h57v500h-57v-500z" />
    <glyph glyph-name="Alpha" unicode="&#x391;" horiz-adv-x="547" 
d="M527 0l-228 700h-53l-225 -700h60l79 245h227l81 -245h59zM175 300l97 314l100 -314h-197z" />
    <glyph glyph-name="Beta" unicode="&#x392;" horiz-adv-x="505" 
d="M262 700h-221v-700h231q67 0 112 25t68.5 72t23.5 112q0 48 -14 84.5t-38 61.5t-53 38q22 15 37 35.5t23 46t8 55.5q0 58 -21 95.5t-60.5 56t-95.5 18.5zM261 412h-163v235h156q42 0 70 -13t42 -39t14 -65q0 -35 -13 -62t-39 -41.5t-67 -14.5zM270 53h-172v304h188
q42 0 71 -19.5t43.5 -52.5t14.5 -72q0 -53 -16.5 -89t-48.5 -53.5t-80 -17.5z" />
    <glyph glyph-name="Gamma" unicode="&#x393;" horiz-adv-x="383" 
d="M41 0h57v647h277v53h-334v-700z" />
    <glyph glyph-name="Deltagreek" unicode="&#x394;" horiz-adv-x="547" 
d="M527 0l-228 700h-53l-225 -700h506zM96 50l176 564l179 -564h-355z" />
    <glyph glyph-name="Epsilon" unicode="&#x395;" horiz-adv-x="406" 
d="M41 0h332v50h-275v307h172l18 55h-190v236h277v52h-334v-700z" />
    <glyph glyph-name="Zeta" unicode="&#x396;" horiz-adv-x="548" 
d="M40 700v-49l398 -1l-17 -24l-393 -577v-49h487v49l-417 1l17 23l393 578v49h-468z" />
    <glyph glyph-name="Eta" unicode="&#x397;" horiz-adv-x="515" 
d="M415 412h-317v288h-57v-700h57v357h317v-357h57v700h-57v-288z" />
    <glyph glyph-name="Theta" unicode="&#x398;" horiz-adv-x="492" 
d="M86 380v-57h319v57h-319zM34 508v-322q0 -65 28.5 -109t76.5 -66t107 -22q62 0 109.5 24t74 68t26.5 105v321q0 98 -55 153.5t-154 55.5t-156 -53t-57 -155zM91 187v330q0 49 19 81t53.5 48.5t80.5 16.5q48 0 83 -16.5t54 -48.5t19 -81v-330q0 -49 -20 -81.5t-55 -48
t-81 -15.5q-44 0 -78.5 16.5t-54.5 48.5t-20 80z" />
    <glyph glyph-name="Iota" unicode="&#x399;" horiz-adv-x="187" 
d="M20 651l68 -2v-649h56v700h-124v-49z" />
    <glyph glyph-name="Kappa" unicode="&#x39a;" horiz-adv-x="459" 
d="M98 367v333h-57v-700h57v269l47 76l226 -345h67l-256 398l204 302h-65z" />
    <glyph glyph-name="Lambda" unicode="&#x39b;" horiz-adv-x="547" 
d="M272 614l195 -614h60l-228 700h-53l-225 -700h60z" />
    <glyph glyph-name="Mu" unicode="&#x39c;" horiz-adv-x="621" 
d="M98 700h-57v-700h57v535l180 -535h61l183 535v-535h56v700h-56l-214 -614z" />
    <glyph glyph-name="Nu" unicode="&#x39d;" horiz-adv-x="577" 
d="M534 700h-56v-597l-380 597h-57v-700h57v597l380 -597h56v700z" />
    <glyph glyph-name="Xi" unicode="&#x39e;" horiz-adv-x="564" 
d="M23 595l43 -16q9 24 23 40t34 23.5t46 7.5h304l21 50h-325q-39 0 -68 -10.5t-48 -33.5t-30 -61zM416 307v56h-266v-56h266zM387 53h-303l-21 -53h324q41 0 69.5 11t47.5 35t30 61l-43 16q-9 -23 -23.5 -38.5t-34.5 -23.5t-46 -8z" />
    <glyph glyph-name="Omicron" unicode="&#x39f;" horiz-adv-x="492" 
d="M34 508v-322q0 -65 28.5 -109t76.5 -66t107 -22q62 0 109.5 24t74 68t26.5 105v321q0 98 -55 153.5t-154 55.5t-156 -53t-57 -155zM91 187v330q0 49 19 81t53.5 48.5t80.5 16.5q48 0 83 -16.5t54 -48.5t19 -81v-330q0 -49 -20 -81.5t-55 -48t-81 -15.5q-44 0 -78.5 16.5
t-54.5 48.5t-20 80z" />
    <glyph glyph-name="Pi" unicode="&#x3a0;" horiz-adv-x="515" 
d="M414 0h58v700h-431v-700h57v643h316v-643z" />
    <glyph glyph-name="Rho" unicode="&#x3a1;" horiz-adv-x="506" 
d="M277 700h-236v-700h57v245h179q50 0 87.5 12.5t62 39.5t37 71t12.5 106q0 64 -13 107.5t-38.5 69.5t-62.5 37.5t-85 11.5zM98 300v347h184q29 0 54 -7.5t43.5 -26t29 -52.5t10.5 -87q0 -57 -10.5 -92t-29.5 -52.5t-43.5 -23.5t-53.5 -6h-184z" />
    <glyph glyph-name="Sigma" unicode="&#x3a3;" horiz-adv-x="523" 
d="M344 50h-226l200 337l-176 260h309l19 53h-429l210 -315l-226 -385h323q59 0 94 25.5t51 81.5l-43 15q-7 -23 -22.5 -39t-36.5 -24.5t-47 -8.5z" />
    <glyph glyph-name="Tau" unicode="&#x3a4;" horiz-adv-x="417" 
d="M233 650h176v50h-402v-50h171v-650h55v650z" />
    <glyph glyph-name="Upsilon" unicode="&#x3a5;" horiz-adv-x="515" 
d="M474 156v544h-57v-277q0 -34 -15 -58t-39.5 -38t-54 -20.5t-58.5 -6.5q-51 0 -88 17t-56.5 51t-19.5 85v247h-56v-245q0 -64 24 -111t70.5 -73t113.5 -26q32 0 66 6.5t64 20t49 34.5v-153q0 -25 -3.5 -45t-11 -35.5t-19 -26t-27.5 -16.5l13 -37q50 7 77.5 48.5
t27.5 114.5z" />
    <glyph glyph-name="Phi" unicode="&#x3a6;" horiz-adv-x="595" 
d="M181 661l-30 45q-59 -19 -88.5 -66t-29.5 -122v-293q0 -45 12 -81t35.5 -61.5t59.5 -39t84 -13.5h43v-58l57 -7v65h49q64 0 105.5 24t61.5 67.5t20 103.5v286q0 61 -22 105.5t-63.5 69t-100.5 24.5q-23 0 -42.5 -7t-34 -20.5t-22.5 -33t-8 -44.5v-526h-43
q-40 0 -70.5 15.5t-47.5 46.5t-17 75v302q0 40 10.5 69.5t31 48t50.5 25.5zM373 79h-49v517q0 21 6.5 35t19.5 20.5t32 6.5q37 0 65 -17.5t44 -48t16 -71.5v-305q0 -44 -16.5 -75t-46.5 -46.5t-71 -15.5z" />
    <glyph glyph-name="Chi" unicode="&#x3a7;" horiz-adv-x="556" 
d="M279 406l-172 294h-64l203 -348l-221 -352h69l185 294l184 -294h69l-219 352l203 348h-62z" />
    <glyph glyph-name="Psi" unicode="&#x3a8;" horiz-adv-x="595" 
d="M90 396v304h-56v-294q0 -60 21 -103.5t63 -66.5t105 -23h44v-213h57v213h50q64 0 105 23t61.5 66.5t20.5 103.5v144q0 45 -6.5 76t-19 51t-30.5 32l-44 -16l7.5 -7.5t15 -21.5t15 -39.5t6.5 -60.5v-168q0 -44 -16.5 -73.5t-45.5 -44t-69 -14.5h-50v436h-57v-436h-44
q-40 0 -70 14.5t-46.5 44t-16.5 73.5z" />
    <glyph glyph-name="Omegagreek" unicode="&#x3a9;" horiz-adv-x="582" 
d="M535 195v308q0 92 -47 148t-141 56h-112q-94 0 -141 -56t-47 -148v-308q0 -33 8 -60.5t23.5 -48.5t37.5 -36h-65l-18 -51h229v51q-35 0 -64 9.5t-50 27.5t-32.5 45t-11.5 63v317q0 66 36 104t95 38h112q40 0 69.5 -17t46.5 -49t17 -76v-317q0 -35 -12.5 -62t-35 -45.5
t-51.5 -28t-62 -9.5v-51h229l-16 51h-70q25 15 41 36.5t24 48.5t8 60z" />
    <glyph glyph-name="Iotadieresis" unicode="&#x3aa;" horiz-adv-x="187" 
d="M31 852q-13 0 -23 -10t-10 -24q0 -13 10 -23t23 -10q14 0 24 10t10 23q0 14 -10 24t-24 10zM190 852q-14 0 -23.5 -10t-9.5 -24q0 -13 9.5 -23t23.5 -10t23.5 10t9.5 23q0 14 -9.5 24t-23.5 10zM20 651l68 -2v-649h56v700h-124v-49z" />
    <glyph glyph-name="Upsilondieresis" unicode="&#x3ab;" horiz-adv-x="515" 
d="M172 852q-13 0 -23 -10t-10 -24q0 -13 10 -23t23 -10q14 0 24 10t10 23q0 14 -10 24t-24 10zM331 852q-14 0 -23.5 -10t-9.5 -24q0 -13 9.5 -23t23.5 -10t23.5 10t9.5 23q0 14 -9.5 24t-23.5 10zM474 156v544h-57v-277q0 -34 -15 -58t-39.5 -38t-54 -20.5t-58.5 -6.5
q-51 0 -88 17t-56.5 51t-19.5 85v247h-56v-245q0 -64 24 -111t70.5 -73t113.5 -26q32 0 66 6.5t64 20t49 34.5v-153q0 -25 -3.5 -45t-11 -35.5t-19 -26t-27.5 -16.5l13 -37q50 7 77.5 48.5t27.5 114.5z" />
    <glyph glyph-name="alphatonos" unicode="&#x3ac;" horiz-adv-x="439" 
d="M403 487l-44 21q-6 -13 -9.5 -28l-3.5 -15q-26 13 -54.5 22.5t-57 15t-55.5 5.5q-28 0 -54.5 -7.5t-47.5 -25t-33.5 -47t-12.5 -74.5v-185q0 -56 16.5 -91t45 -53t63 -24t70.5 -5q13 0 34.5 1t45 2t44.5 2.5t34 2t12 0.5v396q0 37 3.5 62zM86 163v188q0 37 9.5 58t24 31
t30 13t27.5 3q15 0 33 -2.5t38.5 -7.5t43.5 -12.5t48 -18.5v-363l-11 -1t-29.5 -2t-42.5 -2t-51 -1q-39 0 -66 13.5t-40.5 40t-13.5 63.5zM290 649q6 8 7.5 17t-2 17t-12.5 13t-17.5 4t-15.5 -7t-10 -16l-38 -107h35z" />
    <glyph glyph-name="epsilontonos" unicode="&#x3ad;" horiz-adv-x="396" 
d="M302 444v53q-28 8 -53 11t-47 3q-53 0 -87.5 -20t-51 -50t-16.5 -62q0 -21 7.5 -40.5t20.5 -34.5t30 -25q-40 -16 -62.5 -52.5t-22.5 -77.5t19.5 -78t60 -59.5t103.5 -22.5q29 0 59.5 4t58.5 12t51 18l-16 51q-18 -7 -36 -12.5t-36 -10t-36 -7t-35 -2.5q-41 0 -72 13.5
t-48 37.5t-17 53t11 48t28 31t35.5 17t33.5 5h98l20 54h-119q-22 0 -39.5 11.5t-27.5 30t-10 39.5q0 18 8 34t24.5 28t41.5 15q16 2 33.5 2t39.5 -3.5t49 -13.5zM268 649q6 8 7.5 17t-2 17t-12.5 13t-17.5 4t-15.5 -7t-10 -16l-38 -107h35z" />
    <glyph glyph-name="etatonos" unicode="&#x3ae;" horiz-adv-x="444" 
d="M352 343v-530l55 -23v556q0 32 -7.5 58t-22 45.5t-35.5 33t-48.5 20.5t-60.5 7q-25 0 -49.5 -5.5t-47 -15t-41.5 -22.5v34h-57v-501h57v425q21 12 41 19.5t41.5 11.5t44.5 4q24 0 47 -5.5t42 -19t30 -36t11 -56.5zM293 649q6 8 7.5 17t-2 17t-12.5 13t-17.5 4t-15.5 -7
t-10 -16l-38 -107h35z" />
    <glyph glyph-name="iotatonos" unicode="&#x3af;" horiz-adv-x="135" 
d="M137 649q6 8 7.5 17t-2 17t-12.5 13t-18 4t-15.5 -7t-9.5 -16l-38 -107h35zM38 0h57v500h-57v-500z" />
    <glyph glyph-name="upsilondieresistonos" unicode="&#x3b0;" horiz-adv-x="441" 
d="M174 607q0 14 -9.5 23.5t-23.5 9.5q-13 0 -23.5 -9.5t-10.5 -23.5q0 -13 10.5 -23t23.5 -10q14 0 23.5 10t9.5 23zM333 607q0 14 -10 23.5t-24 9.5q-13 0 -23 -9.5t-10 -23.5q0 -13 10 -23t23 -10q14 0 24 10t10 23zM292 731q5 8 6.5 17t-1.5 17t-12 13t-18 3.5t-16 -8
t-10 -15.5l-38 -107h36zM405 185v316h-54v-326q0 -41 -14 -71.5t-42 -47t-70 -16.5q-40 0 -70 17t-46.5 47.5t-16.5 70.5v326h-58v-316q0 -54 21 -98t63.5 -70.5t104.5 -26.5q91 0 136.5 53.5t45.5 141.5z" />
    <glyph glyph-name="alpha" unicode="&#x3b1;" horiz-adv-x="439" 
d="M403 487l-44 21q-6 -13 -9.5 -28l-3.5 -15q-26 13 -54.5 22.5t-57 15t-55.5 5.5q-28 0 -54.5 -7.5t-47.5 -25t-33.5 -47t-12.5 -74.5v-185q0 -56 16.5 -91t45 -53t63 -24t70.5 -5q13 0 34.5 1t45 2t44.5 2.5t34 2t12 0.5v396q0 37 3.5 62zM86 163v188q0 37 9.5 58t24 31
t30 13t27.5 3q15 0 33 -2.5t38.5 -7.5t43.5 -12.5t48 -18.5v-363l-11 -1t-29.5 -2t-42.5 -2t-51 -1q-39 0 -66 13.5t-40.5 40t-13.5 63.5z" />
    <glyph glyph-name="beta" unicode="&#x3b2;" horiz-adv-x="442" 
d="M39 522v-711l57 -24v216q12 -3 26 -5l28 -4t26 -3t21 -1q48 0 87.5 7.5t68 26.5t44 54.5t15.5 90.5v85q0 52 -15.5 85.5t-42.5 49.5t-64 16h-16q33 23 49 48t22 49t6 44q2 46 -16 81t-51.5 55.5t-80.5 20.5q-51 0 -88 -25t-56.5 -66.5t-19.5 -89.5zM96 529q0 30 12 57
t35.5 44t56.5 17q29 0 50.5 -14t33.5 -37t10 -51q-1 -25 -9.5 -47.5t-23 -41t-37 -32.5t-52.5 -21l-76 -18v144zM96 51v278l51 13q17 4 37.5 7.5t41 5.5t37.5 2q14 0 30.5 -4t31.5 -14.5t24.5 -31.5t9.5 -55v-76q0 -33 -6 -59.5t-22 -44.5t-47 -26.5t-81 -7.5q-16 1 -32 2.5
t-29.5 3.5t-24 3.5t-16 2.5z" />
    <glyph glyph-name="gamma" unicode="&#x3b3;" horiz-adv-x="505" 
d="M484 479l-38 31q-28 -6 -46.5 -21t-31 -40t-23.5 -62l-105 -344q-9 5 -16 11.5t-13.5 17t-13 27.5t-13.5 41l-107 360h-57l109 -371q9 -30 20 -56.5t29 -46.5t46 -32l-22 -73q-5 -16 -13 -30t-19.5 -24t-27.5 -16t-36 -7l10 -43q45 1 72.5 16.5t42.5 38.5t22 46.5
t12 39.5l130 433q9 31 18.5 50.5t25.5 32t45 21.5z" />
    <glyph glyph-name="delta" unicode="&#x3b4;" horiz-adv-x="432" 
d="M242 653h93l22 47h-106q-36 0 -63.5 -13.5t-43 -36t-17.5 -51.5q-1 -19 7.5 -41.5t31.5 -45.5l9 -8q-49 -16 -82 -40.5t-49 -62t-16 -92.5v-125q0 -91 46.5 -143t141.5 -52q62 0 103 21.5t61.5 65t20.5 108.5v96q0 22 -3 43.5t-10 42t-19 37.5q-17 27 -39.5 48t-47.5 39
t-51 36q-13 11 -24.5 20.5t-18.5 21.5t-7 32q0 16 8 28t21.5 18.5t31.5 6.5zM345 295v-121q0 -45 -14.5 -75t-42.5 -45.5t-71 -15.5q-40 0 -70 15.5t-46.5 46t-16.5 74.5v135q0 18 3.5 41.5t17.5 47t43.5 42t80.5 25.5l26 -16q26 -17 46 -40.5t32 -52t12 -61.5z" />
    <glyph glyph-name="epsilon" unicode="&#x3b5;" horiz-adv-x="396" 
d="M302 444v53q-28 8 -53 11t-47 3q-53 0 -87.5 -20t-51 -50t-16.5 -62q0 -21 7.5 -40.5t20.5 -34.5t30 -25q-40 -16 -62.5 -52.5t-22.5 -77.5t19.5 -78t60 -59.5t103.5 -22.5q29 0 59.5 4t58.5 12t51 18l-16 51q-18 -7 -36 -12.5t-36 -10t-36 -7t-35 -2.5q-41 0 -72 13.5
t-48 37.5t-17 53t11 48t28 31t35.5 17t33.5 5h98l20 54h-119q-22 0 -39.5 11.5t-27.5 30t-10 39.5q0 18 8 34t24.5 28t41.5 15q16 2 33.5 2t39.5 -3.5t49 -13.5z" />
    <glyph glyph-name="zeta" unicode="&#x3b6;" horiz-adv-x="413" 
d="M388 654l-22 46h-271v-47h209q-23 -21 -44 -43t-40 -44t-36 -43q-29 -33 -56.5 -73.5t-50 -84.5t-36 -89.5t-15.5 -90.5q-1 -42 11.5 -77t36.5 -58q26 -25 61.5 -38.5t82.5 -16.5t106 3v-185l58 -23v262q-55 -6 -97 -7t-72.5 2.5t-52.5 12.5t-37 23q-21 20 -31.5 45
t-9.5 56q3 43 17 85t35.5 82t47 77.5t50.5 70.5q30 39 58 68t50.5 48.5t35.5 29t12 9.5z" />
    <glyph glyph-name="eta" unicode="&#x3b7;" horiz-adv-x="444" 
d="M352 343v-530l55 -23v556q0 32 -7.5 58t-22 45.5t-35.5 33t-48.5 20.5t-60.5 7q-25 0 -49.5 -5.5t-47 -15t-41.5 -22.5v34h-57v-501h57v425q21 12 41 19.5t41.5 11.5t44.5 4q24 0 47 -5.5t42 -19t30 -36t11 -56.5z" />
    <glyph glyph-name="theta" unicode="&#x3b8;" horiz-adv-x="442" 
d="M220 709q-56 0 -94 -21t-57 -55t-19 -74q0 -12 2 -29.5t8 -37t17 -39.5q-15 -17 -25 -38.5t-15 -47.5t-5 -56v-122q0 -91 47 -143t141 -52q92 0 138.5 49t46.5 146v316q0 95 -45 149.5t-140 54.5zM349 506v-112q-40 0 -72 4.5t-56.5 12.5t-42.5 18q-27 17 -41.5 36
t-20.5 38t-6.5 33.5t-0.5 20.5q0 27 12.5 49.5t37.5 36t62 13.5q38 0 67 -15t45 -48t16 -87zM220 42q-39 0 -68.5 15t-46.5 45t-17 74v135q0 32 6.5 56t19.5 42q21 -18 53 -33t77 -22t105 -5v-173q0 -44 -14.5 -74t-43 -45t-71.5 -15z" />
    <glyph glyph-name="iota" unicode="&#x3b9;" horiz-adv-x="135" 
d="M38 0h57v500h-57v-500z" />
    <glyph glyph-name="kappa" unicode="&#x3ba;" horiz-adv-x="434" 
d="M315 118l-127 178l188 205h-74l-207 -227v225l-57 13v-512h57v198l55 56l104 -143q19 -26 41 -52t50 -42.5t63 -16.5h2v48h-4q-13 0 -27.5 7.5t-30.5 23.5t-33 39z" />
    <glyph glyph-name="lambda" unicode="&#x3bb;" horiz-adv-x="504" 
d="M398 124l-130 433q-5 16 -12.5 39.5t-22.5 46t-42.5 38t-72.5 16.5l-10 -43q27 0 46 -10t31.5 -27t18.5 -39l22 -72q-28 -11 -46 -31.5t-28.5 -47.5t-19.5 -56l-109 -372h56l106 361q9 32 18 50.5t19 29t21 16.5l103 -344q11 -36 23.5 -60.5t31 -39.5t48.5 -23l37 31
q-29 9 -47 29.5t-27.5 42t-13.5 32.5z" />
    <glyph glyph-name="mugreek" unicode="&#x3bc;" horiz-adv-x="466" 
d="M409 95v415l-57 -12v-344q0 -37 -15 -62t-41 -37t-60 -12q-44 0 -75.5 15t-47.5 40t-16 54v349h-58v-688l58 -23v254q0 1 7 -7t23.5 -19.5t43.5 -20.5t67 -9q26 0 50 6.5t43.5 19.5t29.5 30q11 -21 21 -31t17 -13.5t10 -5.5l27 32q-2 2 -8.5 10t-12.5 23t-6 36z" />
    <glyph glyph-name="nu" unicode="&#x3bd;" horiz-adv-x="428" 
d="M19 501l153 -501h77l155 501h-59l-133 -443l-135 443h-58z" />
    <glyph glyph-name="xi" unicode="&#x3be;" horiz-adv-x="431" 
d="M360 651l22 51h-146q-50 0 -83.5 -20.5t-49.5 -56t-15 -80.5q1 -21 9.5 -47.5t26 -51t44.5 -41.5h-8q-27 0 -51 -9t-42.5 -27.5t-28.5 -47t-10 -66.5v-86q0 -55 15.5 -91t44.5 -56t68.5 -27t87.5 -5q13 1 25.5 2t26.5 2t29 2v-184l56 -24v263q-9 -1 -27 -2.5t-39 -4
t-40.5 -4t-33.5 -2.5q-50 -2 -81 5.5t-47.5 25t-22.5 44.5t-6 63v76q0 34 10 54t25 30.5t32 14t30 3.5h114l12 44l-33 6q-31 7 -54.5 20t-39.5 31t-24.5 40t-9.5 47q-1 48 24.5 78.5t68.5 30.5h121z" />
    <glyph glyph-name="omicron" unicode="&#x3bf;" horiz-adv-x="430" 
d="M399 185v131q0 92 -47 144t-136 52q-59 0 -101 -22.5t-64 -66t-22 -107.5v-131q0 -54 21 -98t63.5 -70.5t104.5 -26.5q91 0 136 53.5t45 141.5zM343 316v-141q0 -41 -13.5 -71.5t-41.5 -47t-70 -16.5q-40 0 -70 17t-46.5 47.5t-16.5 70.5v141q0 48 15 80.5t44.5 49
t73.5 16.5t71.5 -16.5t40.5 -49t13 -80.5z" />
    <glyph glyph-name="pi" unicode="&#x3c0;" horiz-adv-x="470" 
d="M414 69v431h-376v-500h57v446h265v-368q0 -25 8.5 -41.5t20 -26t20 -13l8.5 -3.5l27 32q-12 8 -21 19t-9 24z" />
    <glyph glyph-name="rho" unicode="&#x3c1;" horiz-adv-x="437" 
d="M405 171v140q0 92 -47 144.5t-136 52.5q-88 0 -137.5 -51t-49.5 -146v-499l58 -23v267q9 -15 23.5 -28.5t33 -24t40.5 -16t46 -5.5q56 0 93.5 21.5t56.5 64t19 103.5zM349 311v-148q0 -43 -13.5 -71t-40 -42.5t-64.5 -14.5q-28 0 -53 8.5t-44 25.5t-30 42t-11 57v143
q0 49 14.5 81t44 48t73.5 16q42 0 69.5 -16t41 -48t13.5 -81z" />
    <glyph glyph-name="sigma1" unicode="&#x3c2;" horiz-adv-x="341" 
d="M80 285v69q0 27 9 46.5t25 32t37 18.5t44 5q20 -1 39 -5.5t35 -11t25 -12.5l20 44q1 -1 -16 7.5t-46.5 17.5t-69.5 9q-31 0 -60 -9.5t-51 -29.5t-35 -49.5t-13 -70.5v-62q0 -22 3.5 -40.5t11.5 -34.5t22 -32t34 -33l91 -80q19 -16 30 -29t16 -26t5 -31q0 -16 -9 -32
t-23.5 -30t-32.5 -25l25 -34q27 16 47 35.5t31.5 42.5t11.5 50q0 33 -12.5 56.5t-31.5 41.5t-37 34l-75 66q-21 18 -31.5 33.5t-14.5 32t-4 36.5z" />
    <glyph glyph-name="sigma" unicode="&#x3c3;" horiz-adv-x="446" 
d="M444 517l-33 26q-16 -16 -37 -26.5t-38 -12.5q-14 -2 -33 0t-41.5 5t-46.5 3q-32 0 -65 -9t-60.5 -30t-44.5 -58.5t-17 -94.5v-135q0 -54 21 -98t63.5 -70.5t104.5 -26.5q91 0 136 53.5t45 141.5v135q0 56 -11.5 86.5t-25.5 46.5q15 4 29.5 12t28 21t25.5 31zM341 334
v-159q0 -41 -13 -71.5t-40.5 -47t-69.5 -16.5q-40 0 -69.5 17t-45.5 47.5t-16 70.5v152q0 38 11.5 63.5t30.5 40.5t41.5 21.5t44.5 6.5q15 0 31 -2t31.5 -4.5t29.5 -3.5q5 -5 10 -12.5t9 -17.5t7.5 -22.5t5.5 -28t2 -34.5z" />
    <glyph glyph-name="tau" unicode="&#x3c4;" horiz-adv-x="351" 
d="M200 133v314h127v53h-304v-53h121v-314q0 -30 6 -53.5t19 -41t33 -30.5t48 -21l16 43q-22 8 -36.5 22t-22 34t-7.5 47z" />
    <glyph glyph-name="upsilon" unicode="&#x3c5;" horiz-adv-x="441" 
d="M405 185v316h-54v-326q0 -41 -14 -71.5t-42 -47t-70 -16.5q-40 0 -70 17t-46.5 47.5t-16.5 70.5v326h-58v-316q0 -54 21 -98t63.5 -70.5t104.5 -26.5q91 0 136.5 53.5t45.5 141.5z" />
    <glyph glyph-name="phi" unicode="&#x3c6;" horiz-adv-x="587" 
d="M29 314v-125q0 -60 21 -104t63.5 -68t105.5 -24h43v-181l57 -24v205h50q64 0 105 24t61.5 68t20.5 104v118q0 61 -22.5 106t-64 70t-99.5 25q-31 0 -55.5 -13t-38.5 -37t-14 -58v-357h-43q-40 0 -70 15.5t-47 46t-17 74.5v135q0 41 10.5 70.5t31 48.5t49.5 26l-29 45
q-58 -19 -88 -66t-30 -124zM369 43h-50v349q0 20 7 34t20 21.5t32 7.5q23 0 45 -9t40 -27t29 -43.5t11 -58.5v-138q0 -44 -16.5 -74.5t-46.5 -46t-71 -15.5z" />
    <glyph glyph-name="chi" unicode="&#x3c7;" horiz-adv-x="489" 
d="M377 -97l-121 250l177 347h-63l-144 -283l-139 283h-62l169 -345l-173 -336l52 -24l152 297l101 -210q16 -32 36 -53t44.5 -31t51.5 -10l28 38q-27 5 -47 13.5t-35 24t-27 39.5z" />
    <glyph glyph-name="psi" unicode="&#x3c8;" horiz-adv-x="594" 
d="M528 506l-59 -17q23 -19 29 -44.5t6 -57.5v-208q0 -44 -16.5 -74.5t-46.5 -46t-70 -15.5h-44v457h-57v-457h-50q-39 0 -69.5 15.5t-47.5 46t-17 74.5v321h-53v-311q0 -91 46.5 -143.5t140.5 -52.5h50v-181l57 -22v203h44q64 0 105.5 24t62.5 68t21 104v198q0 38 -5.5 66
t-26.5 53z" />
    <glyph glyph-name="omega" unicode="&#x3c9;" horiz-adv-x="596" 
d="M457 499l-33 -44q28 -8 46 -25t27.5 -43t9.5 -62v-148q0 -46 -13.5 -76.5t-36.5 -45.5t-52 -15q-28 0 -45 13t-25 38.5t-8 65.5v140h-57v-140q-2 -40 -10 -65.5t-25 -38.5t-46 -13q-28 0 -51.5 15t-37.5 45.5t-14 76.5v148q0 36 10 62t29 43t46 25l-31 44
q-55 -19 -82.5 -65.5t-27.5 -117.5v-129q0 -67 18.5 -111t55 -66.5t89.5 -22.5q23 0 42.5 6t35.5 18t27 29q11 -17 26.5 -29t35.5 -18t43 -6q80 0 120 50t40 150v129q0 72 -26.5 118t-79.5 65z" />
    <glyph glyph-name="iotadieresis" unicode="&#x3ca;" horiz-adv-x="135" 
d="M-12 657q-13 0 -23 -10t-10 -24q0 -13 10 -23t23 -10q14 0 24 10t10 23q0 14 -10 24t-24 10zM147 657q-14 0 -23.5 -10t-9.5 -24q0 -13 9.5 -23t23.5 -10t23.5 10t9.5 23q0 14 -9.5 24t-23.5 10zM38 0h57v500h-57v-500z" />
    <glyph glyph-name="upsilondieresis" unicode="&#x3cb;" horiz-adv-x="441" 
d="M141 657q-13 0 -23 -10t-10 -24q0 -13 10 -23t23 -10q14 0 24 10t10 23q0 14 -10 24t-24 10zM300 657q-14 0 -23.5 -10t-9.5 -24q0 -13 9.5 -23t23.5 -10t23.5 10t9.5 23q0 14 -9.5 24t-23.5 10zM405 185v316h-54v-326q0 -41 -14 -71.5t-42 -47t-70 -16.5q-40 0 -70 17
t-46.5 47.5t-16.5 70.5v326h-58v-316q0 -54 21 -98t63.5 -70.5t104.5 -26.5q91 0 136.5 53.5t45.5 141.5z" />
    <glyph glyph-name="omicrontonos" unicode="&#x3cc;" horiz-adv-x="430" 
d="M399 185v131q0 92 -47 144t-136 52q-59 0 -101 -22.5t-64 -66t-22 -107.5v-131q0 -54 21 -98t63.5 -70.5t104.5 -26.5q91 0 136 53.5t45 141.5zM343 316v-141q0 -41 -13.5 -71.5t-41.5 -47t-70 -16.5q-40 0 -70 17t-46.5 47.5t-16.5 70.5v141q0 48 15 80.5t44.5 49
t73.5 16.5t71.5 -16.5t40.5 -49t13 -80.5zM283 649q6 8 7.5 17t-2 17t-12.5 13t-17.5 4t-15.5 -7t-10 -16l-38 -107h35z" />
    <glyph glyph-name="upsilontonos" unicode="&#x3cd;" horiz-adv-x="441" 
d="M405 185v316h-54v-326q0 -41 -14 -71.5t-42 -47t-70 -16.5q-40 0 -70 17t-46.5 47.5t-16.5 70.5v326h-58v-316q0 -54 21 -98t63.5 -70.5t104.5 -26.5q91 0 136.5 53.5t45.5 141.5zM292 649q6 8 7.5 17t-2 17t-12.5 13t-17.5 4t-15.5 -7t-10 -16l-38 -107h35z" />
    <glyph glyph-name="omegatonos" unicode="&#x3ce;" horiz-adv-x="596" 
d="M457 499l-33 -44q28 -8 46 -25t27.5 -43t9.5 -62v-148q0 -46 -13.5 -76.5t-36.5 -45.5t-52 -15q-28 0 -45 13t-25 38.5t-8 65.5v140h-57v-140q-2 -40 -10 -65.5t-25 -38.5t-46 -13q-28 0 -51.5 15t-37.5 45.5t-14 76.5v148q0 36 10 62t29 43t46 25l-31 44
q-55 -19 -82.5 -65.5t-27.5 -117.5v-129q0 -67 18.5 -111t55 -66.5t89.5 -22.5q23 0 42.5 6t35.5 18t27 29q11 -17 26.5 -29t35.5 -18t43 -6q80 0 120 50t40 150v129q0 72 -26.5 118t-79.5 65zM369 649q6 8 7.5 17t-2 17t-12.5 13t-17.5 4t-15.5 -7t-10 -16l-38 -107h35z
" />
    <glyph glyph-name="uni0400" unicode="&#x400;" horiz-adv-x="403" 
d="M183 861q-3 10 -10 16.5t-16 8t-19 -4.5q-8 -4 -11.5 -12.5t-1.5 -18t7 -17.5l54 -79h36zM41 0h332v50h-275v307h172l18 55h-190v236h277v52h-334v-700z" />
    <glyph glyph-name="uni0401" unicode="&#x401;" horiz-adv-x="403" 
d="M124 852q-13 0 -23 -10t-10 -24q0 -13 10 -23t23 -10q14 0 24 10t10 23q0 14 -10 24t-24 10zM283 852q-14 0 -23.5 -10t-9.5 -24q0 -13 9.5 -23t23.5 -10t23.5 10t9.5 23q0 14 -9.5 24t-23.5 10zM41 0h332v50h-275v307h172l18 55h-190v236h277v52h-334v-700z" />
    <glyph glyph-name="uni0402" unicode="&#x402;" horiz-adv-x="582" 
d="M372 509q-25 0 -50 -5.5t-48 -15t-42 -22.5v-42q21 12 41.5 19.5t42.5 11.5t45 4q24 0 47 -5.5t41.5 -19t29.5 -36t11 -56.5v-211q0 -26 -7.5 -46.5t-22 -34t-37.5 -21.5l18 -43q37 11 60 30t34 47.5t11 67.5v214q0 40 -11.5 70.5t-34 51.5t-54.5 31.5t-74 10.5zM233 650
h176v50h-402v-50h171v-650h55v650z" />
    <glyph glyph-name="uni0403" unicode="&#x403;" horiz-adv-x="379" 
d="M274 832q6 9 7.5 17.5t-2 16.5t-12.5 13t-17.5 4t-15.5 -7t-10 -16l-38 -107h35zM41 0h57v647h277v53h-334v-700z" />
    <glyph glyph-name="uni0404" unicode="&#x404;" horiz-adv-x="424" 
d="M81 357h182l18 55h-200v-55zM354 639l17 38q-31 17 -67 25t-75 8q-55 0 -99 -21t-70 -65t-26 -114v-326q0 -67 24 -110t69 -63.5t108 -20.5q38 0 78.5 8.5t82.5 24.5l-12 46q-28 -9 -54 -15.5t-48.5 -10t-42.5 -3.5q-50 0 -83 14.5t-49 47t-16 84.5v328q0 53 18.5 85
t53.5 46.5t84 14.5q26 0 52.5 -5t54.5 -16z" />
    <glyph glyph-name="uni0405" unicode="&#x405;" horiz-adv-x="530" 
d="M421 624l16 48q-23 13 -48.5 21t-51.5 12t-53 4q-41 0 -80.5 -9t-72 -29t-52 -53t-19.5 -80q0 -39 16 -68t43 -50t61 -37.5t69.5 -30.5t69.5 -29t61 -33.5t43 -43t16 -58.5q0 -40 -14.5 -68t-40 -45t-58 -25t-67.5 -8q-34 0 -72 9.5t-72 28.5t-55 47l-35 -35
q31 -36 68 -59t80 -34t90 -11q44 0 86 11t76 34.5t54 60t20 86.5q0 46 -16 79.5t-43.5 57t-61 41t-70 31.5t-70 28t-61 31t-43.5 40t-16 55q0 33 15.5 55t41 34.5t54.5 17.5t56 5q24 0 47.5 -3t46 -10t42.5 -18z" />
    <glyph glyph-name="uni0406" unicode="&#x406;" horiz-adv-x="187" 
d="M20 651l68 -2v-649h56v700h-124v-49z" />
    <glyph glyph-name="uni0407" unicode="&#x407;" horiz-adv-x="187" 
d="M31 852q-13 0 -23 -10t-10 -24q0 -13 10 -23t23 -10q14 0 24 10t10 23q0 14 -10 24t-24 10zM190 852q-14 0 -23.5 -10t-9.5 -24q0 -13 9.5 -23t23.5 -10t23.5 10t9.5 23q0 14 -9.5 24t-23.5 10zM20 651l68 -2v-649h56v700h-124v-49z" />
    <glyph glyph-name="uni0408" unicode="&#x408;" horiz-adv-x="207" 
d="M166 119v581h-124v-49l67 -2v-535q0 -39 -11.5 -64.5t-30 -37.5t-40.5 -12l13 -37q35 0 59 12.5t39 34.5t21.5 50t6.5 59z" />
    <glyph glyph-name="uni0409" unicode="&#x409;" horiz-adv-x="848" 
d="M665 411h-178v289h-99q-45 0 -73 -16t-44 -39.5t-24 -47.5t-13 -40l-130 -433q-3 -11 -13 -32.5t-28 -42t-47 -29.5l37 -31q23 6 38.5 15.5t27 24.5t20.5 35.5t17 47.5l142 466q7 22 19 37t31.5 23.5t45.5 8.5h36v-649q-1 0 11 -1t31 -2.5t41 -3t42.5 -2.5t35.5 -1
q48 0 89.5 7t72.5 26t48 54t17 92v84q0 42 -12.5 72t-34 49.5t-49 29t-57.5 9.5zM763 174q0 -34 -6.5 -60t-23 -43.5t-45 -26.5t-72.5 -9q-6 0 -21 1t-33.5 2.5t-35.5 2.5t-28 2l-11 1v312h182q13 0 29 -4t31 -15.5t24.5 -32.5t9.5 -55v-75z" />
    <glyph glyph-name="uni040A" unicode="&#x40a;" horiz-adv-x="831" 
d="M646 413h-177v288h-55v-288h-313v288h-60v-700h60v357h313v-357l11.5 -1t30 -2.5t40 -3t42 -2.5t36.5 -1q65 0 116.5 13.5t81 52t29.5 113.5v83q0 42 -12.5 72.5t-34 49.5t-49.5 28.5t-59 9.5zM747 177q0 -46 -11 -73.5t-32.5 -41.5t-53 -18.5t-71.5 -4.5q-22 0 -41 1
t-33 2t-23 2t-13 1v313h184q13 0 29 -4t31 -15.5t24.5 -32.5t9.5 -55v-74z" />
    <glyph glyph-name="uni040B" unicode="&#x40b;" horiz-adv-x="582" 
d="M372 510q-19 0 -37.5 -3t-37 -8.5t-35 -13.5t-30.5 -18v-42q21 12 41.5 19.5t42.5 11.5t45 4q24 0 47 -5.5t41.5 -19t29.5 -36t11 -56.5v-343h56v346q0 40 -11.5 70.5t-34 51.5t-54.5 31.5t-74 10.5zM233 650h176v50h-402v-50h171v-650h55v650z" />
    <glyph glyph-name="uni040C" unicode="&#x40c;" horiz-adv-x="458" 
d="M272 844q6 9 7.5 17.5t-2 16.5t-12.5 13t-17.5 4t-15.5 -7t-10 -16l-38 -107h35zM98 367v333h-57v-700h57v269l47 76l226 -345h67l-256 398l204 302h-65z" />
    <glyph glyph-name="uni040D" unicode="&#x40d;" horiz-adv-x="577" 
d="M271 872q-3 10 -10 16.5t-16 8t-19 -4.5q-8 -4 -11.5 -12.5t-1.5 -18t7 -17.5l54 -79h36zM41 700v-700h56l380 597v-597h57v700h-57l-380 -597v597h-56z" />
    <glyph glyph-name="uni040E" unicode="&#x40e;" horiz-adv-x="484" 
d="M354 854h-45v-7q0 -28 -19 -48t-48 -20q-28 0 -48.5 20t-20.5 48v7h-45v-7q0 -31 15.5 -56.5t41.5 -41t57 -15.5t56.5 15.5t40.5 41t15 56.5v7zM414 700l-173 -372l-172 372h-62l204 -438l-64 -139q-5 -11 -18.5 -32.5t-35 -42t-52.5 -29.5l37 -31q24 6 41.5 15.5
t31.5 24.5t26 35.5t25 47.5l274 589h-62z" />
    <glyph glyph-name="uni040F" unicode="&#x40f;" horiz-adv-x="518" 
d="M474 700h-57v-643h-316v643h-58v-700h190l2 -107h47l2 107h190v700z" />
    <glyph glyph-name="uni0410" unicode="&#x410;" horiz-adv-x="547" 
d="M527 0l-228 700h-53l-225 -700h60l79 245h227l81 -245h59zM175 300l97 314l100 -314h-197z" />
    <glyph glyph-name="uni0411" unicode="&#x411;" horiz-adv-x="458" 
d="M43 647h334v53h-334v-53zM275 412h-175v288h-57v-701q-1 0 10.5 -1t30 -2.5t40 -3t42 -2.5t35.5 -1q48 0 89.5 7t72.5 26t48 54t17 92v83q0 42 -12.5 72.5t-34.5 50t-49 29t-57 9.5zM373 175q0 -46 -11 -74t-32.5 -41.5t-52.5 -18t-72 -4.5q-18 0 -33.5 1t-28 2t-21.5 2
t-14.5 2t-7.5 1v312h179q13 0 29 -4t31 -15.5t24.5 -32.5t9.5 -56v-74z" />
    <glyph glyph-name="uni0412" unicode="&#x412;" horiz-adv-x="505" 
d="M262 700h-221v-700h231q67 0 112 25t68.5 72t23.5 112q0 48 -14 84.5t-38 61.5t-53 38q22 15 37 35.5t23 46t8 55.5q0 58 -21 95.5t-60.5 56t-95.5 18.5zM261 412h-163v235h156q42 0 70 -13t42 -39t14 -65q0 -35 -13 -62t-39 -41.5t-67 -14.5zM270 53h-172v304h188
q42 0 71 -19.5t43.5 -52.5t14.5 -72q0 -53 -16.5 -89t-48.5 -53.5t-80 -17.5z" />
    <glyph glyph-name="uni0413" unicode="&#x413;" horiz-adv-x="383" 
d="M41 0h57v647h277v53h-334v-700z" />
    <glyph glyph-name="uni0414" unicode="&#x414;" horiz-adv-x="555" 
d="M482 56v644h-102q-45 0 -73 -16t-44 -39.5t-24 -47.5t-13 -40l-151 -501h-64v-162h45l10 105h422l10 -105h46v162h-62zM425 56h-294l159 522q7 22 19 37t31.5 23.5t45.5 8.5h39v-591z" />
    <glyph glyph-name="uni0415" unicode="&#x415;" horiz-adv-x="406" 
d="M41 0h332v50h-275v307h172l18 55h-190v236h277v52h-334v-700z" />
    <glyph glyph-name="uni0416" unicode="&#x416;" horiz-adv-x="680" 
d="M587 0h69l-219 351l203 349h-62l-192 -323h-18v323h-57v-323h-17l-189 323h-64l203 -349l-221 -351h69l203 322h16v-322h57v322h17z" />
    <glyph glyph-name="uni0417" unicode="&#x417;" horiz-adv-x="461" 
d="M102 412l18 -57h72q40 0 74 -7.5t59 -24.5t39 -44.5t14 -66.5q0 -51 -22 -89.5t-67 -60.5t-113 -22q-27 0 -53.5 4.5t-48 10t-34 10l-12.5 4.5l-12 -46l13.5 -5t36.5 -11.5t52 -11.5t59 -5q70 0 119 19t79 50.5t44 71t14 81.5q0 66 -32 109t-88 65q39 20 58.5 45.5
t26 53.5t6.5 53q0 44 -20.5 83.5t-63 64t-109.5 24.5q-41 0 -73 -8t-50.5 -16.5l-18.5 -8.5l17 -38l16.5 5.5t41.5 10.5t50 5q37 0 65.5 -7.5t48.5 -23t30 -39t10 -55.5q0 -37 -16 -65t-43.5 -43t-62.5 -15h-124z" />
    <glyph glyph-name="uni0418" unicode="&#x418;" horiz-adv-x="577" 
d="M41 700v-700h56l380 597v-597h57v700h-57l-380 -597v597h-56z" />
    <glyph glyph-name="uni0419" unicode="&#x419;" horiz-adv-x="577" 
d="M401 855h-45v-7q0 -28 -19 -48t-48 -20q-28 0 -48.5 20t-20.5 48v7h-45v-7q0 -31 15.5 -56.5t41.5 -41t57 -15.5t56.5 15.5t40.5 41t15 56.5v7zM41 700v-700h56l380 597v-597h57v700h-57l-380 -597v597h-56z" />
    <glyph glyph-name="uni041A" unicode="&#x41a;" horiz-adv-x="459" 
d="M98 367v333h-57v-700h57v269l47 76l226 -345h67l-256 398l204 302h-65z" />
    <glyph glyph-name="uni041B" unicode="&#x41b;" horiz-adv-x="535" 
d="M401 700q-45 0 -73 -16t-44 -39.5t-24 -47.5t-13 -40l-130 -433q-3 -11 -13 -32.5t-28 -42t-47 -29.5l37 -31q30 8 48.5 23t31 39.5t23.5 60.5l142 466q7 22 19 37t31.5 23.5t45.5 8.5h39v-647h57v700h-102z" />
    <glyph glyph-name="uni041C" unicode="&#x41c;" horiz-adv-x="621" 
d="M98 700h-57v-700h57v535l180 -535h61l183 535v-535h56v700h-56l-214 -614z" />
    <glyph glyph-name="uni041D" unicode="&#x41d;" horiz-adv-x="515" 
d="M415 412h-317v288h-57v-700h57v357h317v-357h57v700h-57v-288z" />
    <glyph glyph-name="uni041E" unicode="&#x41e;" horiz-adv-x="492" 
d="M34 508v-322q0 -65 28.5 -109t76.5 -66t107 -22q62 0 109.5 24t74 68t26.5 105v321q0 98 -55 153.5t-154 55.5t-156 -53t-57 -155zM91 187v330q0 49 19 81t53.5 48.5t80.5 16.5q48 0 83 -16.5t54 -48.5t19 -81v-330q0 -49 -20 -81.5t-55 -48t-81 -15.5q-44 0 -78.5 16.5
t-54.5 48.5t-20 80z" />
    <glyph glyph-name="uni041F" unicode="&#x41f;" horiz-adv-x="515" 
d="M414 0h58v700h-431v-700h57v643h316v-643z" />
    <glyph glyph-name="uni0420" unicode="&#x420;" horiz-adv-x="506" 
d="M277 700h-236v-700h57v245h179q50 0 87.5 12.5t62 39.5t37 71t12.5 106q0 64 -13 107.5t-38.5 69.5t-62.5 37.5t-85 11.5zM98 300v347h184q29 0 54 -7.5t43.5 -26t29 -52.5t10.5 -87q0 -57 -10.5 -92t-29.5 -52.5t-43.5 -23.5t-53.5 -6h-184z" />
    <glyph glyph-name="uni0421" unicode="&#x421;" horiz-adv-x="423" 
d="M354 639l17 38q-31 17 -67 25t-75 8q-55 0 -99 -21t-70 -65t-26 -114v-326q0 -67 24 -110t69 -63.5t108 -20.5q38 0 78.5 8.5t82.5 24.5l-12 46q-28 -9 -54 -15.5t-48.5 -10t-42.5 -3.5q-50 0 -83 14.5t-49 47t-16 84.5v328q0 53 18.5 85t53.5 46.5t84 14.5q26 0 52.5 -5
t54.5 -16z" />
    <glyph glyph-name="uni0422" unicode="&#x422;" horiz-adv-x="417" 
d="M233 650h176v50h-402v-50h171v-650h55v650z" />
    <glyph glyph-name="uni0423" unicode="&#x423;" horiz-adv-x="484" 
d="M414 700l-173 -372l-172 372h-62l204 -438l-64 -139q-5 -11 -18.5 -32.5t-35 -42t-52.5 -29.5l37 -31q24 6 41.5 15.5t31.5 24.5t26 35.5t25 47.5l274 589h-62z" />
    <glyph glyph-name="uni0424" unicode="&#x424;" horiz-adv-x="592" 
d="M181 661l-30 45q-59 -19 -88.5 -66t-29.5 -122v-293q0 -45 12 -81t35.5 -61.5t59.5 -39t84 -13.5h43v-58l57 -7v65h49q64 0 105.5 24t61.5 67.5t20 103.5v286q0 61 -22 105.5t-63.5 69t-100.5 24.5q-23 0 -42.5 -7t-34 -20.5t-22.5 -33t-8 -44.5v-526h-43
q-40 0 -70.5 15.5t-47.5 46.5t-17 75v302q0 40 10.5 69.5t31 48t50.5 25.5zM373 79h-49v517q0 21 6.5 35t19.5 20.5t32 6.5q37 0 65 -17.5t44 -48t16 -71.5v-305q0 -44 -16.5 -75t-46.5 -46.5t-71 -15.5z" />
    <glyph glyph-name="uni0425" unicode="&#x425;" horiz-adv-x="556" 
d="M279 406l-172 294h-64l203 -348l-221 -352h69l185 294l184 -294h69l-219 352l203 348h-62z" />
    <glyph glyph-name="uni0426" unicode="&#x426;" horiz-adv-x="555" 
d="M471 57v643h-57v-643h-316v643h-58v-700h433l10 -105h46v162h-58z" />
    <glyph glyph-name="uni0427" unicode="&#x427;" horiz-adv-x="489" 
d="M467 700h-57v-277q0 -34 -15 -58t-39.5 -38t-54 -20.5t-58.5 -6.5q-51 0 -88 17t-56.5 51t-19.5 85v247h-56v-245q0 -64 24 -111t70.5 -73t113.5 -26q32 0 66 6.5t64 20t49 34.5v-306h57v700z" />
    <glyph glyph-name="uni0428" unicode="&#x428;" horiz-adv-x="641" 
d="M542 700v-643h-191v643h-58v-643h-191v643h-58v-700h556v700h-58z" />
    <glyph glyph-name="uni0429" unicode="&#x429;" horiz-adv-x="681" 
d="M570 57v-57h30l9 -105h46v162h-85zM542 700v-643h-191v643h-58v-643h-191v643h-58v-700h556v700h-58z" />
    <glyph glyph-name="uni042A" unicode="&#x42a;" horiz-adv-x="520" 
d="M0 700v-49l108 -2h29v51h-137zM339 412h-175v288h-57v-701q-1 0 10.5 -1t30 -2.5t40 -3t42 -2.5t35.5 -1q48 0 89.5 7t72.5 26t48 54t17 92v83q0 42 -12.5 72.5t-34.5 50t-49 29t-57 9.5zM437 175q0 -46 -11 -74t-32.5 -41.5t-52.5 -18t-72 -4.5q-18 0 -33.5 1t-28 2
t-21.5 2t-14.5 2t-7.5 1v312h179q13 0 29 -4t31 -15.5t24.5 -32.5t9.5 -56v-74z" />
    <glyph glyph-name="uni042B" unicode="&#x42b;" horiz-adv-x="601" 
d="M435 651l68 -2v-649h56v700h-124v-49zM275 412h-175v288h-57v-701q-1 0 10.5 -1t30 -2.5t40 -3t42 -2.5t35.5 -1q48 0 89.5 7t72.5 26t48 54t17 92v83q0 42 -12.5 72.5t-34.5 50t-49 29t-57 9.5zM373 175q0 -46 -11 -74t-32.5 -41.5t-52.5 -18t-72 -4.5q-18 0 -33.5 1
t-28 2t-21.5 2t-14.5 2t-7.5 1v312h179q13 0 29 -4t31 -15.5t24.5 -32.5t9.5 -56v-74z" />
    <glyph glyph-name="uni042C" unicode="&#x42c;" horiz-adv-x="455" 
d="M275 412h-175v288h-57v-701q-1 0 10.5 -1t30 -2.5t40 -3t42 -2.5t35.5 -1q48 0 89.5 7t72.5 26t48 54t17 92v83q0 42 -12.5 72.5t-34.5 50t-49 29t-57 9.5zM373 175q0 -46 -11 -74t-32.5 -41.5t-52.5 -18t-72 -4.5q-18 0 -33.5 1t-28 2t-21.5 2t-14.5 2t-7.5 1v312h179
q13 0 29 -4t31 -15.5t24.5 -32.5t9.5 -56v-74z" />
    <glyph glyph-name="uni042D" unicode="&#x42d;" horiz-adv-x="423" 
d="M76 639q28 11 54.5 16t54.5 5q38 0 67 -9t48 -27t29 -45.5t10 -64.5v-102h-190l18 -55h172v-171q0 -35 -7.5 -62.5t-24 -46t-43 -28t-64.5 -9.5q-24 0 -49 3.5t-51 10t-54 15.5l-12 -46q42 -16 82.5 -24.5t80.5 -8.5q49 0 86.5 12.5t62.5 37t37.5 60.5t12.5 84v326
q0 47 -12.5 84t-38 63t-62.5 39.5t-85 13.5q-37 0 -72 -8t-67 -25z" />
    <glyph glyph-name="uni042E" unicode="&#x42e;" horiz-adv-x="692" 
d="M267 380h-153v-58h153v58zM236 508v-322q0 -65 28.5 -109t76.5 -66t107 -22q62 0 109.5 24t74 68t26.5 105v321q0 98 -55 153.5t-154 55.5t-156 -53t-57 -155zM293 187v330q0 49 19 81t53.5 48.5t80.5 16.5q48 0 83 -16.5t54 -48.5t19 -81v-330q0 -49 -20 -81.5t-55 -48
t-81 -15.5q-44 0 -78.5 16.5t-54.5 48.5t-20 80zM18 651l68 -2v-649h56v700h-124v-49z" />
    <glyph glyph-name="uni042F" unicode="&#x42f;" horiz-adv-x="510" 
d="M241 700q-48 0 -85 -11.5t-62.5 -37.5t-38.5 -69.5t-13 -107.5q0 -57 10 -98t31 -68t52 -43l-97 -265h57l91 250q8 -2 17 -3t18.5 -1.5t19.5 -0.5h179v-245h57v700h-236zM236 300q-28 0 -53 6t-44 23.5t-29.5 52.5t-10.5 92q0 53 10.5 87t29 52.5t43.5 26t54 7.5h184
v-347h-184z" />
    <glyph glyph-name="uni0430" unicode="&#x430;" horiz-adv-x="447" 
d="M403 487l-44 21q-6 -13 -9.5 -28l-3.5 -15q-26 13 -54.5 22.5t-57 15t-55.5 5.5q-28 0 -54.5 -7.5t-47.5 -25t-33.5 -47t-12.5 -74.5v-185q0 -56 16.5 -91t45 -53t63 -24t70.5 -5q13 0 34.5 1t45 2t44.5 2.5t34 2t12 0.5v396q0 37 3.5 62zM86 163v188q0 37 9.5 58t24 31
t30 13t27.5 3q15 0 33 -2.5t38.5 -7.5t43.5 -12.5t48 -18.5v-363l-11 -1t-29.5 -2t-42.5 -2t-51 -1q-39 0 -66 13.5t-40.5 40t-13.5 63.5z" />
    <glyph glyph-name="uni0431" unicode="&#x431;" horiz-adv-x="427" 
d="M227 512q-31 0 -59.5 -9.5t-50.5 -26t-33 -38.5v45q0 39 11 68.5t27 50.5q14 17 44 39.5t76 32.5l-7 29q-49 -7 -89 -28t-65 -49q-27 -31 -40.5 -69.5t-13.5 -83.5v-284q0 -64 21.5 -107.5t63.5 -66.5t101 -23q90 0 137.5 53t47.5 144v135q0 62 -19.5 103.5t-57.5 63
t-94 21.5zM222 459q39 0 65.5 -14t40.5 -42.5t14 -70.5v-143q0 -49 -14 -81t-41.5 -48t-70.5 -16q-44 0 -73.5 16t-44 48t-14.5 81v138q0 32 10.5 56.5t29.5 41.5t44 25.5t54 8.5z" />
    <glyph glyph-name="uni0432" unicode="&#x432;" horiz-adv-x="448" 
d="M333 279q26 14 42 41.5t16 58.5q0 27 -10 50.5t-29.5 42t-49.5 29t-70 10.5t-75.5 -1.5t-63 -3.5t-43 -3.5l-15.5 -1.5v-501l12 -1t32.5 -2.5t46 -3.5t54 -3t55.5 -1q63 0 103.5 22.5t60 59.5t19.5 78t-22.5 77.5t-62.5 52.5zM226 461q19 0 38 -3.5t34.5 -12.5
t24.5 -24.5t9 -38.5q0 -21 -10 -39.5t-27.5 -30t-39.5 -11.5h-163v154l13.5 1t34.5 2t44 2t42 1zM225 42q-24 0 -48 0.5t-43 1.5t-30.5 1.5l-11.5 0.5v201h162q15 0 33.5 -5t35.5 -17t28 -31t11 -48t-17 -53t-47.5 -37.5t-72.5 -13.5z" />
    <glyph glyph-name="uni0433" unicode="&#x433;" horiz-adv-x="317" 
d="M33 500v-500h57v447h218v53h-275z" />
    <glyph glyph-name="uni0434" unicode="&#x434;" horiz-adv-x="507" 
d="M441 57v443h-129q-45 0 -73.5 -16t-44.5 -39.5t-24 -47.5t-13 -40l-90 -300h-57v-162h45l10 105h376l10 -105h46v162h-56zM123 57l98 321q5 16 12.5 29t19 22t27.5 13.5t38 4.5h66v-390h-261z" />
    <glyph glyph-name="uni0435" unicode="&#x435;" horiz-adv-x="422" 
d="M87 134v62l305 16v130q0 56 -21.5 93t-61 56t-93.5 19q-53 0 -95 -19t-66 -57t-24 -95v-205q0 -42 12.5 -70t35.5 -45t55 -24t70 -7t82 12.5t81 34.5l-22 43q-37 -19 -73 -30.5t-73 -11.5q-24 0 -44.5 5.5t-35.5 17t-23.5 30t-8.5 45.5zM336 349v-87l-249 -11v87
q0 40 15.5 68t44.5 42.5t68 14.5q35 0 62 -14t43 -39.5t16 -60.5z" />
    <glyph glyph-name="uni0436" unicode="&#x436;" horiz-adv-x="533" 
d="M516 500h-63l-138 -222h-20v222h-57v-222h-17l-132 222h-65l153 -250l-160 -250h67l139 223h15v-223h57v223h19l133 -223h67l-151 250z" />
    <glyph glyph-name="uni0437" unicode="&#x437;" horiz-adv-x="396" 
d="M90 444q28 10 49.5 13.5t39 3.5t33.5 -2q19 -3 33 -10t23 -18t13.5 -23.5t4.5 -25.5q0 -21 -10 -39.5t-27.5 -30t-39.5 -11.5h-119l20 -54h98q15 0 33.5 -5t35.5 -17t28 -31t11 -48t-17 -53t-47.5 -37.5t-72.5 -13.5q-23 0 -47 4.5t-48 11.5t-48 16l-16 -51
q35 -16 80.5 -25t88.5 -9q63 0 103.5 22.5t60 59.5t19.5 78t-22.5 77.5t-62.5 52.5q17 10 30 25t20.5 34.5t7.5 40.5q0 32 -16.5 62t-50.5 50t-88 20q-22 0 -46.5 -3t-53.5 -11v-53z" />
    <glyph glyph-name="uni0438" unicode="&#x438;" horiz-adv-x="443" 
d="M95 500h-57v-500h69l243 415v-415h57v500h-69l-243 -415v415z" />
    <glyph glyph-name="uni0439" unicode="&#x439;" horiz-adv-x="446" 
d="M336 668h-45v-7q0 -28 -19 -48t-48 -20q-28 0 -48.5 20t-20.5 48v7h-45v-7q0 -31 15.5 -56.5t41.5 -41t57 -15.5t56.5 15.5t40.5 41t15 56.5v7zM95 500h-57v-500h69l243 415v-415h57v500h-69l-243 -415v415z" />
    <glyph glyph-name="uni043A" unicode="&#x43a;" horiz-adv-x="434" 
d="M315 118l-127 178l188 205h-74l-207 -227v225l-57 13v-512h57v198l55 56l104 -143q19 -26 41 -52t50 -42.5t63 -16.5h2v48h-4q-13 0 -27.5 7.5t-30.5 23.5t-33 39z" />
    <glyph glyph-name="uni043B" unicode="&#x43b;" horiz-adv-x="480" 
d="M310 500q-45 0 -73 -16t-44 -39.5t-24 -47.5t-13 -40l-69 -233q-3 -11 -13 -32.5t-28 -42t-47 -29.5l37 -31q30 8 48.5 23t31 39.5t23.5 60.5l81 266q7 22 19 37t31.5 23.5t45.5 8.5h66v-447h57v500h-129z" />
    <glyph glyph-name="uni043C" unicode="&#x43c;" horiz-adv-x="589" 
d="M479 500l-185 -434l-186 434h-72v-500h57v404l173 -404h57l170 403v-403h57v500h-71z" />
    <glyph glyph-name="uni043D" unicode="&#x43d;" horiz-adv-x="443" 
d="M349 299h-255v201h-57v-500h57v245h255v-245h57v500h-57v-201z" />
    <glyph glyph-name="uni043E" unicode="&#x43e;" horiz-adv-x="430" 
d="M399 185v131q0 92 -47 144t-136 52q-59 0 -101 -22.5t-64 -66t-22 -107.5v-131q0 -54 21 -98t63.5 -70.5t104.5 -26.5q91 0 136 53.5t45 141.5zM343 316v-141q0 -41 -13.5 -71.5t-41.5 -47t-70 -16.5q-40 0 -70 17t-46.5 47.5t-16.5 70.5v141q0 48 15 80.5t44.5 49
t73.5 16.5t71.5 -16.5t40.5 -49t13 -80.5z" />
    <glyph glyph-name="uni043F" unicode="&#x43f;" horiz-adv-x="474" 
d="M414 69v431h-376v-500h57v446h265v-368q0 -25 8.5 -41.5t20 -26t20 -13l8.5 -3.5l27 32q-12 8 -21 19t-9 24z" />
    <glyph glyph-name="uni0440" unicode="&#x440;" horiz-adv-x="440" 
d="M405 171v140q0 92 -47 144.5t-136 52.5q-88 0 -137.5 -51t-49.5 -146v-499l58 -23v267q9 -15 23.5 -28.5t33 -24t40.5 -16t46 -5.5q56 0 93.5 21.5t56.5 64t19 103.5zM349 311v-148q0 -43 -13.5 -71t-40 -42.5t-64.5 -14.5q-28 0 -53 8.5t-44 25.5t-30 42t-11 57v143
q0 49 14.5 81t44 48t73.5 16q42 0 69.5 -16t41 -48t13.5 -81z" />
    <glyph glyph-name="uni0441" unicode="&#x441;" horiz-adv-x="381" 
d="M335 433l14 45q-31 14 -65.5 23t-68.5 9q-62 0 -103.5 -24t-62 -67t-20.5 -100v-145q0 -64 23.5 -104.5t66.5 -60t100 -20.5q33 -1 67 3.5t65 12.5l-11 50q1 0 -9 -2t-27.5 -5t-39 -5t-43.5 -2q-36 1 -62 9.5t-43 25.5t-24.5 44.5t-7.5 65.5l1 125q1 43 14 76.5t42 52.5
t76 19q29 -1 60.5 -7.5t57.5 -18.5z" />
    <glyph glyph-name="uni0442" unicode="&#x442;" horiz-adv-x="351" 
d="M200 133v314h127v53h-304v-53h121v-314q0 -30 6 -53.5t19 -41t33 -30.5t48 -21l16 43q-22 8 -36.5 22t-22 34t-7.5 47z" />
    <glyph glyph-name="uni0443" unicode="&#x443;" horiz-adv-x="486" 
d="M102 -209h58l305 709h-63l-165 -391l-156 391h-64l190 -460z" />
    <glyph glyph-name="uni0444" unicode="&#x444;" horiz-adv-x="584" 
d="M29 314v-125q0 -60 21 -104t63.5 -68t105.5 -24h43v-181l57 -24v205h50q64 0 105 24t61.5 68t20.5 104v118q0 61 -22.5 106t-64 70t-99.5 25q-31 0 -55.5 -13t-38.5 -37t-14 -58v-357h-43q-40 0 -70 15.5t-47 46t-17 74.5v135q0 41 10.5 70.5t31 48.5t49.5 26l-29 45
q-58 -19 -88 -66t-30 -124zM369 43h-50v349q0 20 7 34t20 21.5t32 7.5q23 0 45 -9t40 -27t29 -43.5t11 -58.5v-138q0 -44 -16.5 -74.5t-46.5 -46t-71 -15.5z" />
    <glyph glyph-name="uni0445" unicode="&#x445;" horiz-adv-x="437" 
d="M220 300l-125 200h-65l157 -251l-157 -249h67l123 198l122 -198h66l-156 249l156 251h-62z" />
    <glyph glyph-name="uni0446" unicode="&#x446;" horiz-adv-x="480" 
d="M407 500h-57v-443h-256v443h-57v-500h369l11 -105h46v162h-56v443z" />
    <glyph glyph-name="uni0447" unicode="&#x447;" horiz-adv-x="439" 
d="M347 0h56v408q0 32 10 44t23 18l-20 42q-18 -6 -31 -16.5t-21.5 -24t-12.5 -29.5t-4 -33v-118q0 -26 -10 -49.5t-27 -41.5t-40 -28.5t-50 -10.5q-23 0 -46 5.5t-42 18.5t-30.5 36t-11.5 58v221h-58v-225q0 -43 12 -74.5t34.5 -52t55 -30.5t74.5 -10q25 0 51 6.5t49 19.5
t39 33v-167z" />
    <glyph glyph-name="uni0448" unicode="&#x448;" horiz-adv-x="615" 
d="M513 500v-443h-177v443h-58v-443h-176v443h-58v-500h526v500h-57z" />
    <glyph glyph-name="uni0449" unicode="&#x449;" horiz-adv-x="639" 
d="M552 57v-57h12l10 -105h46v162h-68zM513 500v-443h-177v443h-58v-443h-176v443h-58v-500h526v500h-57z" />
    <glyph glyph-name="uni044A" unicode="&#x44a;" horiz-adv-x="525" 
d="M0 500v-49l108 -2h29v51h-137zM340 303h-175v197h-57v-497q4 0 18 -1.5t34.5 -3t45 -3t51.5 -2.5t52 -1q63 0 103.5 22.5t60 59.5t19.5 78q0 49 -21.5 82.5t-56 51t-74.5 17.5zM299 45q-24 0 -48 0.5t-43.5 1.5t-31 1.5l-11.5 0.5v199h180q13 0 28.5 -4.5t30 -15.5
t23.5 -30.5t9 -48.5t-17 -53t-47.5 -37.5t-72.5 -13.5z" />
    <glyph glyph-name="uni044B" unicode="&#x44b;" horiz-adv-x="586" 
d="M485 0h57v500h-57v-500zM272 303h-175v197h-57v-497q4 0 18 -1.5t34.5 -3t45 -3t51.5 -2.5t52 -1q63 0 103.5 22.5t60 59.5t19.5 78q0 49 -21.5 82.5t-56 51t-74.5 17.5zM231 45q-24 0 -48 0.5t-43.5 1.5t-31 1.5l-11.5 0.5v199h180q13 0 28.5 -4.5t30 -15.5t23.5 -30.5
t9 -48.5t-17 -53t-47.5 -37.5t-72.5 -13.5z" />
    <glyph glyph-name="uni044C" unicode="&#x44c;" horiz-adv-x="456" 
d="M272 303h-175v197h-57v-497q4 0 18 -1.5t34.5 -3t45 -3t51.5 -2.5t52 -1q63 0 103.5 22.5t60 59.5t19.5 78q0 49 -21.5 82.5t-56 51t-74.5 17.5zM231 45q-24 0 -48 0.5t-43.5 1.5t-31 1.5l-11.5 0.5v199h180q13 0 28.5 -4.5t30 -15.5t23.5 -30.5t9 -48.5t-17 -53
t-47.5 -37.5t-72.5 -13.5z" />
    <glyph glyph-name="uni044D" unicode="&#x44d;" horiz-adv-x="378" 
d="M41 433q26 12 57.5 19t60.5 7q47 0 76 -19t42.5 -52.5t13.5 -76.5v-30h-221l20 -54h202v-41q1 -51 -13.5 -83t-45 -47t-78.5 -15q-22 0 -43.5 2t-39 5t-27.5 5t-9 2l-11 -50q31 -8 65 -12.5t67 -3.5q58 1 100.5 20.5t66 60t23.5 104.5v145q0 57 -20.5 100t-62 67
t-103.5 24q-34 0 -68 -9t-66 -23z" />
    <glyph glyph-name="uni044E" unicode="&#x44e;" horiz-adv-x="621" 
d="M67 280v-58h179v58h-179zM588 185v131q0 92 -47 144t-136 52q-59 0 -101 -22.5t-64 -66t-22 -107.5v-131q0 -54 21 -98t63.5 -70.5t104.5 -26.5q91 0 136 53.5t45 141.5zM532 316v-141q0 -41 -13.5 -71.5t-41.5 -47t-70 -16.5q-40 0 -70 17t-46.5 47.5t-16.5 70.5v141
q0 48 15 80.5t44.5 49t73.5 16.5t71.5 -16.5t40.5 -49t13 -80.5zM38 0h57v500h-57v-500z" />
    <glyph glyph-name="uni044F" unicode="&#x44f;" horiz-adv-x="453" 
d="M211 510q-63 0 -104 -22.5t-60.5 -59t-19.5 -78.5q0 -34 11 -61.5t30.5 -46.5t43.5 -30l-79 -212h57l74 198q3 0 10.5 -0.5t15.5 -0.5h10h155v-197h55v499l-12 1t-32 3t-45.5 3.5t-54 2.5t-55.5 1zM175 253q-13 0 -29 4.5t-30.5 16t-23.5 31t-9 48.5q0 44 37.5 74
t100.5 30q24 0 48 -0.5t43.5 -1.5t31 -1.5l11.5 -0.5v-200h-180z" />
    <glyph glyph-name="uni0450" unicode="&#x450;" horiz-adv-x="421" 
d="M191 662q-3 10 -10 16.5t-16 8t-19 -4.5q-8 -4 -11.5 -12.5t-1.5 -18t7 -17.5l54 -79h36zM87 134v62l305 16v130q0 56 -21.5 93t-61 56t-93.5 19q-53 0 -95 -19t-66 -57t-24 -95v-205q0 -42 12.5 -70t35.5 -45t55 -24t70 -7t82 12.5t81 34.5l-22 43q-37 -19 -73 -30.5
t-73 -11.5q-24 0 -44.5 5.5t-35.5 17t-23.5 30t-8.5 45.5zM336 349v-87l-249 -11v87q0 40 15.5 68t44.5 42.5t68 14.5q35 0 62 -14t43 -39.5t16 -60.5z" />
    <glyph glyph-name="uni0451" unicode="&#x451;" horiz-adv-x="421" 
d="M131 657q-13 0 -23 -10t-10 -24q0 -13 10 -23t23 -10q14 0 24 10t10 23q0 14 -10 24t-24 10zM290 657q-14 0 -23.5 -10t-9.5 -24q0 -13 9.5 -23t23.5 -10t23.5 10t9.5 23q0 14 -9.5 24t-23.5 10zM87 134v62l305 16v130q0 56 -21.5 93t-61 56t-93.5 19q-53 0 -95 -19
t-66 -57t-24 -95v-205q0 -42 12.5 -70t35.5 -45t55 -24t70 -7t82 12.5t81 34.5l-22 43q-37 -19 -73 -30.5t-73 -11.5q-24 0 -44.5 5.5t-35.5 17t-23.5 30t-8.5 45.5zM336 349v-87l-249 -11v87q0 40 15.5 68t44.5 42.5t68 14.5q35 0 62 -14t43 -39.5t16 -60.5z" />
    <glyph glyph-name="uni0452" unicode="&#x452;" horiz-adv-x="468" 
d="M0 618v-53h236v53h-236zM265 510q-25 0 -51.5 -5.5t-50.5 -15t-43 -22.5v233h-57v-700h57v425q15 9 31.5 15.5t33.5 11t34.5 6.5t34.5 2q24 0 46.5 -5.5t40 -19t28 -36t10.5 -56.5v-405q0 -24 -7 -44.5t-21.5 -36t-38.5 -24.5l16 -43q38 13 61.5 31.5t34.5 46.5t11 69
v409q0 40 -11 70.5t-32.5 51.5t-53 31.5t-73.5 10.5z" />
    <glyph glyph-name="uni0453" unicode="&#x453;" horiz-adv-x="317" 
d="M232 634q6 9 7.5 17.5t-2 16.5t-12.5 13t-17.5 4t-15.5 -7t-10 -16l-38 -107h35zM33 500v-500h57v447h218v53h-275z" />
    <glyph glyph-name="uni0454" unicode="&#x454;" horiz-adv-x="381" 
d="M285 247l20 54h-220v10q1 43 14 76.5t42 52.5t76 19q29 0 60.5 -7t57.5 -19l14 45q-31 14 -65.5 23t-68.5 9q-62 0 -103.5 -24t-62 -67t-20.5 -100v-145q0 -64 23.5 -104.5t66.5 -60t100 -20.5q33 -1 67 3.5t65 12.5l-11 50q1 0 -9 -2t-27.5 -5t-39 -5t-43.5 -2
q-36 0 -62 8.5t-43 26t-24.5 45t-7.5 65.5v61h201z" />
    <glyph glyph-name="uni0455" unicode="&#x455;" horiz-adv-x="417" 
d="M323 439l23 38q-24 15 -47 22.5t-44 10t-41 2.5q-30 0 -59 -8t-52.5 -24.5t-37.5 -40t-14 -55.5q0 -33 15.5 -56.5t40.5 -40.5t55.5 -30t61 -25t55.5 -26.5t40.5 -34t15.5 -46.5q0 -24 -11.5 -41t-30 -28.5t-39.5 -16.5t-40 -5q-31 0 -58.5 7.5t-51.5 22.5t-47 37
l-31 -33q35 -40 85 -63t103 -23q32 0 62.5 9t55.5 27t40 45t15 63q0 37 -15.5 62.5t-40.5 43.5t-55.5 31.5t-60.5 25t-55 25t-40.5 30.5t-15.5 42q0 21 11 36t29 24.5t39.5 14t41.5 4.5q17 0 34.5 -3t34 -8.5t29.5 -14.5z" />
    <glyph glyph-name="uni0456" unicode="&#x456;" horiz-adv-x="133" 
d="M38 0h57v501h-57v-501zM67 710q-13 0 -23.5 -10t-10.5 -24q0 -13 10.5 -23t23.5 -10q14 0 24 10t10 23q0 14 -10 24t-24 10z" />
    <glyph glyph-name="uni0457" unicode="&#x457;" horiz-adv-x="135" 
d="M-12 657q-13 0 -23 -10t-10 -24q0 -13 10 -23t23 -10q14 0 24 10t10 23q0 14 -10 24t-24 10zM147 657q-14 0 -23.5 -10t-9.5 -24q0 -13 9.5 -23t23.5 -10t23.5 10t9.5 23q0 14 -9.5 24t-23.5 10zM38 0h57v500h-57v-500z" />
    <glyph glyph-name="uni0458" unicode="&#x458;" horiz-adv-x="200" 
d="M150 -63v564h-121v-52h65v-511q0 -24 -7 -44.5t-21.5 -36t-38.5 -24.5l16 -43q38 13 61.5 31.5t34.5 46.5t11 69zM158 676q0 14 -10 23.5t-24 9.5t-24.5 -9.5t-10.5 -23.5q0 -13 10.5 -23t24.5 -10t24 10t10 23z" />
    <glyph glyph-name="uni0459" unicode="&#x459;" horiz-adv-x="795" 
d="M610 303h-169v197h-129q-45 0 -73 -16t-44 -39.5t-24 -47.5t-13 -40l-69 -233q-3 -11 -13 -32.5t-28 -42t-47 -29.5l37 -31q30 8 48.5 23t31 39.5t23.5 60.5l81 266q5 16 13 29t20 22t27.5 13.5t35.5 4.5h66v-444l12 -1t32 -2.5t45.5 -3.5t53 -3t52.5 -1q63 0 103.5 22.5
t60 59.5t19.5 78q0 36 -12.5 64.5t-33.5 47.5t-48.5 29t-57.5 10zM569 45q-24 0 -47 0.5t-41.5 1.5t-29 1.5l-10.5 0.5v199h174q13 0 28.5 -4.5t30 -15.5t23.5 -30.5t9 -48.5q0 -44 -37.5 -74t-99.5 -30z" />
    <glyph glyph-name="uni045A" unicode="&#x45a;" horiz-adv-x="760" 
d="M578 303h-177v197h-57v-197h-255v197h-57v-500h57v248h255v-246l13 -1t35 -2.5t48.5 -3.5t54 -3t52.5 -1q63 0 104 22.5t60.5 59.5t19.5 78q0 36 -12.5 64.5t-34 48t-49 29.5t-57.5 10zM537 44q-24 0 -48.5 0.5t-44 1.5t-31.5 1.5l-12 0.5v200h182q13 0 29 -4.5t30.5 -16
t23.5 -31t9 -48.5t-17 -53t-48 -37.5t-73 -13.5z" />
    <glyph glyph-name="uni045B" unicode="&#x45b;" horiz-adv-x="444" 
d="M237 564v53h-236v-53h236zM98 467v233h-57v-700h57v425q21 12 41.5 19.5t42 11.5t44.5 4q24 0 47 -5.5t41.5 -19t29.5 -36t11 -56.5v-343h56v346q0 32 -7.5 58t-22 45.5t-35.5 33t-48.5 20.5t-60.5 7q-25 0 -49.5 -5.5t-47.5 -15t-42 -22.5z" />
    <glyph glyph-name="uni045C" unicode="&#x45c;" horiz-adv-x="430" 
d="M260 631q6 9 7.5 17.5t-2 16.5t-12.5 13t-17.5 4t-15.5 -7t-10 -16l-38 -107h35zM315 118l-127 178l188 205h-74l-207 -227v225l-57 13v-512h57v198l55 56l104 -143q19 -26 41 -52t50 -42.5t63 -16.5h2v48h-4q-13 0 -27.5 7.5t-30.5 23.5t-33 39z" />
    <glyph glyph-name="uni045D" unicode="&#x45d;" horiz-adv-x="446" 
d="M211 660q-3 10 -10 16.5t-16 8t-19 -4.5q-8 -4 -11.5 -12.5t-1.5 -18t7 -17.5l54 -79h36zM95 500h-57v-500h69l243 415v-415h57v500h-69l-243 -415v415z" />
    <glyph glyph-name="uni045E" unicode="&#x45e;" horiz-adv-x="503" 
d="M359 673h-45v-7q0 -28 -19 -48t-48 -20q-28 0 -48.5 20t-20.5 48v7h-45v-7q0 -31 15.5 -56.5t41.5 -41t57 -15.5t56.5 15.5t40.5 41t15 56.5v7zM102 -209h58l305 709h-63l-165 -391l-156 391h-64l190 -460z" />
    <glyph glyph-name="uni045F" unicode="&#x45f;" horiz-adv-x="444" 
d="M404 500h-57v-443h-254v443h-58v-500h159l2 -107h47l2 107h159v500z" />
    <glyph glyph-name="uni0462" unicode="&#x462;" horiz-adv-x="479" 
d="M1 617v-53h236v53h-236zM299 412h-175v288h-57v-701q-1 0 10.5 -1t30 -2.5t40 -3t42 -2.5t35.5 -1q48 0 89.5 7t72.5 26t48 54t17 92v83q0 42 -12.5 72.5t-34.5 50t-49 29t-57 9.5zM397 175q0 -46 -11 -74t-32.5 -41.5t-52.5 -18t-72 -4.5q-18 0 -33.5 1t-28 2t-21.5 2
t-14.5 2t-7.5 1v312h179q13 0 29 -4t31 -15.5t24.5 -32.5t9.5 -56v-74z" />
    <glyph glyph-name="uni0463" unicode="&#x463;" horiz-adv-x="481" 
d="M297 303h-175v397h-57v-697q4 0 18 -1.5t34.5 -3t45 -3t51.5 -2.5t52 -1q63 0 103.5 22.5t60 59.5t19.5 78q0 49 -21.5 82.5t-56 51t-74.5 17.5zM256 45q-24 0 -48 0.5t-43.5 1.5t-31 1.5l-11.5 0.5v199h180q13 0 28.5 -4.5t30 -15.5t23.5 -30.5t9 -48.5t-17 -53
t-47.5 -37.5t-72.5 -13.5zM0 500v-57h236v57h-236z" />
    <glyph glyph-name="uni046A" unicode="&#x46a;" horiz-adv-x="602" 
d="M372 376h-27l190 324h-473l190 -324h-25q-63 0 -105.5 -23t-64 -65.5t-21.5 -103.5v-184h56v194q0 44 17 73t47.5 43.5t70.5 14.5h42v-325h57v325h46q60 0 97.5 -32.5t37.5 -98.5v-194h56v184q0 61 -21.5 103.5t-64 65.5t-105.5 23zM297 405l-136 238h279z" />
    <glyph glyph-name="uni046B" unicode="&#x46b;" horiz-adv-x="578" 
d="M365 300h-20l157 200h-433l159 -200h-14q-63 0 -105 -24t-63 -67.5t-21 -104.5v-104h56v114q0 44 16.5 74.5t46.5 46t70 15.5h44v-250h57v250h50q40 0 70 -15.5t47 -46t17 -74.5v-114h53v104q0 61 -20.5 104.5t-62 67.5t-104.5 24zM287 316l-99 127h197z" />
    <glyph glyph-name="uni0472" unicode="&#x472;" horiz-adv-x="492" 
d="M84 380v-57h319v57h-319zM32 508v-322q0 -65 28.5 -109t76.5 -66t107 -22q62 0 109.5 24t74 68t26.5 105v321q0 98 -55 153.5t-154 55.5t-156 -53t-57 -155zM89 187v330q0 49 19 81t53.5 48.5t80.5 16.5q48 0 83 -16.5t54 -48.5t19 -81v-330q0 -49 -20 -81.5t-55 -48
t-81 -15.5q-44 0 -78.5 16.5t-54.5 48.5t-20 80z" />
    <glyph glyph-name="uni0473" unicode="&#x473;" horiz-adv-x="430" 
d="M399 185v131q0 92 -47 144t-136 52q-59 0 -101 -22.5t-64 -66t-22 -107.5v-131q0 -54 21 -98t63.5 -70.5t104.5 -26.5q91 0 136 53.5t45 141.5zM343 316v-141q0 -41 -13.5 -71.5t-41.5 -47t-70 -16.5q-40 0 -70 17t-46.5 47.5t-16.5 70.5v141q0 48 15 80.5t44.5 49
t73.5 16.5t71.5 -16.5t40.5 -49t13 -80.5zM52 280v-58h319v58h-319z" />
    <glyph glyph-name="uni0474" unicode="&#x474;" horiz-adv-x="554" 
d="M517 712q-31 -7 -50.5 -23.5t-32.5 -44.5t-25 -68l-146 -508l-179 632h-60l201 -701h77l169 588q4 15 11.5 32t24 32.5t48.5 25.5z" />
    <glyph glyph-name="uni0475" unicode="&#x475;" horiz-adv-x="449" 
d="M413 512q-24 -5 -41 -15.5t-29.5 -27t-22.5 -40t-19 -53.5l-93 -305l-131 429h-58l153 -500h72l120 388q5 15 12.5 31.5t24.5 32.5t49 26z" />
    <glyph glyph-name="uni0490" unicode="&#x490;" horiz-adv-x="383" 
d="M326 791l-2 -92v-29h51v121h-49zM41 0h57v647h277v53h-334v-700z" />
    <glyph glyph-name="uni0491" unicode="&#x491;" horiz-adv-x="319" 
d="M259 593l-2 -92v-29h51v121h-49zM33 500v-500h57v447h218v53h-275z" />
    <glyph glyph-name="uni0492" unicode="&#x492;" horiz-adv-x="392" 
d="M0 414v-58h303v58h-303zM51 0h57v647h277v53h-334v-700z" />
    <glyph glyph-name="uni0493" unicode="&#x493;" horiz-adv-x="331" 
d="M0 303v-58h291v58h-291zM51 500v-500h57v447h218v53h-275z" />
    <glyph glyph-name="uni0494" unicode="&#x494;" horiz-adv-x="446" 
d="M237 510q-25 0 -50 -5.5t-48 -15t-42 -22.5v-42q15 9 31 15.5t32 11t32.5 6.5t33.5 2q24 0 47 -5.5t41.5 -19t29.5 -36t11 -56.5v-211q0 -26 -7.5 -46.5t-22 -34t-37.5 -21.5l18 -43q27 8 47 21t33 30.5t19 41t6 52.5v214q0 40 -11.5 70.5t-34 51.5t-54.5 31.5t-74 10.5z
M41 0h57v647h277v53h-334v-700z" />
    <glyph glyph-name="uni0495" unicode="&#x495;" horiz-adv-x="415" 
d="M217 304q-22 0 -45 -5.5t-44.5 -15t-39.5 -22.5v-42q15 9 29.5 15.5t29.5 11t30 6.5t30 2q21 0 42.5 -5t38.5 -17.5t27.5 -34.5t10.5 -56v-202q0 -24 -7 -44.5t-21.5 -36t-38.5 -24.5l16 -43q38 13 61.5 31.5t34.5 46.5t11 69v206q0 40 -12 70t-33.5 50t-52 30t-67.5 10z
M33 500v-500h57v447h218v53h-275z" />
    <glyph glyph-name="uni0496" unicode="&#x496;" horiz-adv-x="680" 
d="M591 57v-57h12l10 -105h46v162h-68zM587 0h69l-219 351l203 349h-62l-192 -323h-18v323h-57v-323h-17l-189 323h-64l203 -349l-221 -351h69l203 322h16v-322h57v322h17z" />
    <glyph glyph-name="uni0497" unicode="&#x497;" horiz-adv-x="533" 
d="M451 57v-57h12l10 -105h46v162h-68zM516 500h-63l-138 -222h-20v222h-57v-222h-17l-132 222h-65l153 -250l-160 -250h67l139 223h15v-223h57v223h19l133 -223h67l-151 250z" />
    <glyph glyph-name="uni0498" unicode="&#x498;" horiz-adv-x="461" 
d="M102 412l18 -57h72q40 0 74 -7.5t59 -24.5t39 -44.5t14 -66.5q0 -51 -22 -89.5t-67 -60.5t-113 -22q-27 0 -53.5 4.5t-48 10t-34 10l-12.5 4.5l-12 -46l13.5 -5t36.5 -11.5t52 -11.5t59 -5q70 0 119 19t79 50.5t44 71t14 81.5q0 66 -32 109t-88 65q39 20 58.5 45.5
t26 53.5t6.5 53q0 44 -20.5 83.5t-63 64t-109.5 24.5q-41 0 -73 -8t-50.5 -16.5l-18.5 -8.5l17 -38l16.5 5.5t41.5 10.5t50 5q37 0 65.5 -7.5t48.5 -23t30 -39t10 -55.5q0 -37 -16 -65t-43.5 -43t-62.5 -15h-124zM214 11v-9l71 -125q14 -23 10.5 -40t-19 -23.5t-40.5 1.5
l-97 34l-18 -39l104 -37q33 -12 58 -5t39.5 26t15 44.5t-14.5 52.5l-65 112v5z" />
    <glyph glyph-name="uni0499" unicode="&#x499;" horiz-adv-x="401" 
d="M195 11v-9l71 -125q14 -23 10.5 -40t-19 -23.5t-40.5 1.5l-97 34l-18 -39l104 -37q33 -12 58 -5t39.5 26t15 44.5t-14.5 52.5l-65 112v5zM90 444q28 10 49.5 13.5t39 3.5t33.5 -2q19 -3 33 -10t23 -18t13.5 -23.5t4.5 -25.5q0 -21 -10 -39.5t-27.5 -30t-39.5 -11.5h-119
l20 -54h98q15 0 33.5 -5t35.5 -17t28 -31t11 -48t-17 -53t-47.5 -37.5t-72.5 -13.5q-23 0 -47 4.5t-48 11.5t-48 16l-16 -51q35 -16 80.5 -25t88.5 -9q63 0 103.5 22.5t60 59.5t19.5 78t-22.5 77.5t-62.5 52.5q17 10 30 25t20.5 34.5t7.5 40.5q0 32 -16.5 62t-50.5 50
t-88 20q-22 0 -46.5 -3t-53.5 -11v-53z" />
    <glyph glyph-name="uni049A" unicode="&#x49a;" horiz-adv-x="459" 
d="M374 57v-57h12l10 -105h46v162h-68zM98 367v333h-57v-700h57v269l47 76l226 -345h67l-256 398l204 302h-65z" />
    <glyph glyph-name="uni049B" unicode="&#x49b;" horiz-adv-x="449" 
d="M400 0l-212 296l188 205h-74l-207 -227v225l-57 13v-512h57v198l55 56l185 -254h65zM341 48v-48h22l10 -104h46v152h-78z" />
    <glyph glyph-name="uni049C" unicode="&#x49c;" horiz-adv-x="535" 
d="M512 0l-261 394l209 306h-65l-193 -288h-21v72h-58v-72h-26v288h-57v-700h57v357h26v-72h58v72h30l234 -357h67z" />
    <glyph glyph-name="uni049D" unicode="&#x49d;" horiz-adv-x="480" 
d="M467 47q-19 0 -43 18t-50 53l-127 178l188 204h-74l-167 -182h-15v72h-58v-72h-26v180l-57 13v-511h57v263h26v-72h58v72h24l110 -152q19 -26 41 -52t50 -43t63 -17v48z" />
    <glyph glyph-name="uni04A0" unicode="&#x4a0;" horiz-adv-x="527" 
d="M1 700v-49l115 -3h21v52h-136zM165 367v333h-57v-700h57v269l47 76l226 -345h67l-256 398l204 302h-65z" />
    <glyph glyph-name="uni04A1" unicode="&#x4a1;" horiz-adv-x="503" 
d="M385 118l-127 178l188 204h-74l-207 -226v226h-165v-49l108 -2v-449h57v198l55 56l104 -143q19 -26 41 -52t50 -42.5t63 -16.5h2v48h-4q-13 0 -27.5 7.5t-30.5 23.5t-33 39z" />
    <glyph glyph-name="uni04A2" unicode="&#x4a2;" horiz-adv-x="555" 
d="M444 57v-57h27l10 -105h47v162h-84zM415 412h-317v288h-57v-700h57v357h317v-357h57v700h-57v-288z" />
    <glyph glyph-name="uni04A3" unicode="&#x4a3;" horiz-adv-x="481" 
d="M378 57v-57h30l10 -105h46v162h-86zM349 299h-255v201h-57v-500h57v245h255v-245h57v500h-57v-201z" />
    <glyph glyph-name="uni04A4" unicode="&#x4a4;" horiz-adv-x="592" 
d="M443 700v-52h21l115 3v49h-136zM415 412h-317v288h-57v-700h57v357h317v-357h57v700h-57v-288z" />
    <glyph glyph-name="uni04A5" unicode="&#x4a5;" horiz-adv-x="548" 
d="M374 500v-52h32l107 3v49h-139zM349 299h-255v201h-57v-500h57v245h255v-245h57v500h-57v-201z" />
    <glyph glyph-name="uni04AA" unicode="&#x4aa;" horiz-adv-x="420" 
d="M208 10v-9l71 -125q14 -23 10.5 -40t-19 -23.5t-40.5 1.5l-97 34l-18 -39l104 -37q33 -12 58 -5t39.5 26t15 44.5t-14.5 52.5l-65 112v5zM354 639l17 38q-31 17 -67 25t-75 8q-55 0 -99 -21t-70 -65t-26 -114v-326q0 -67 24 -110t69 -63.5t108 -20.5q38 0 78.5 8.5
t82.5 24.5l-12 46q-28 -9 -54 -15.5t-48.5 -10t-42.5 -3.5q-50 0 -83 14.5t-49 47t-16 84.5v328q0 53 18.5 85t53.5 46.5t84 14.5q26 0 52.5 -5t54.5 -16z" />
    <glyph glyph-name="uni04AB" unicode="&#x4ab;" horiz-adv-x="377" 
d="M188 10v-9l71 -125q14 -23 10.5 -40t-19 -23.5t-40.5 1.5l-97 34l-18 -39l104 -37q33 -12 58 -5t39.5 26t15 44.5t-14.5 52.5l-65 112v5zM335 433l14 45q-31 14 -65.5 23t-68.5 9q-62 0 -103.5 -24t-62 -67t-20.5 -100v-145q0 -64 23.5 -104.5t66.5 -60t100 -20.5
q33 -1 67 3.5t65 12.5l-11 50q1 0 -9 -2t-27.5 -5t-39 -5t-43.5 -2q-36 1 -62 9.5t-43 25.5t-24.5 44.5t-7.5 65.5l1 125q1 43 14 76.5t42 52.5t76 19q29 -1 60.5 -7.5t57.5 -18.5z" />
    <glyph glyph-name="uni04AE" unicode="&#x4ae;" horiz-adv-x="487" 
d="M270 342l209 358h-65l-173 -294l-172 294h-63l208 -360v-340h56v342z" />
    <glyph glyph-name="uni04AF" unicode="&#x4af;" horiz-adv-x="424" 
d="M407 500h-59l-133 -414l-135 414h-58l163 -500v-190l57 -24v212z" />
    <glyph glyph-name="uni04B0" unicode="&#x4b0;" horiz-adv-x="487" 
d="M102 218v-58h279v58h-279zM270 342l209 358h-65l-173 -294l-172 294h-63l208 -360v-340h56v342z" />
    <glyph glyph-name="uni04B1" unicode="&#x4b1;" horiz-adv-x="424" 
d="M105 58v-58h214v58h-214zM404 500h-59l-133 -414l-135 414h-58l163 -500v-190l57 -24v212z" />
    <glyph glyph-name="uni04B2" unicode="&#x4b2;" horiz-adv-x="559" 
d="M469 57v-57h12l10 -105h46v162h-68zM279 406l-172 294h-64l203 -348l-221 -352h69l185 294l184 -294h69l-219 352l203 348h-62z" />
    <glyph glyph-name="uni04B3" unicode="&#x4b3;" horiz-adv-x="440" 
d="M345 57v-57h12l10 -105h46v162h-68zM221 300l-125 200h-65l157 -251l-157 -249h67l123 198l122 -198h66l-156 249l156 251h-62z" />
    <glyph glyph-name="uni04B6" unicode="&#x4b6;" horiz-adv-x="543" 
d="M443 57v-57h24l8 -105h48v162h-80zM467 700h-57v-277q0 -34 -15 -58t-39.5 -38t-54 -20.5t-58.5 -6.5q-51 0 -88 17t-56.5 51t-19.5 85v247h-56v-245q0 -64 24 -111t70.5 -73t113.5 -26q32 0 66 6.5t64 20t49 34.5v-306h57v700z" />
    <glyph glyph-name="uni04B7" unicode="&#x4b7;" horiz-adv-x="479" 
d="M378 57v-57h27l10 -105h46v162h-83zM347 0h56v408q0 32 10 44t23 18l-20 42q-18 -6 -31 -16.5t-21.5 -24t-12.5 -29.5t-4 -33v-118q0 -26 -10 -49.5t-27 -41.5t-40 -28.5t-50 -10.5q-23 0 -46 5.5t-42 18.5t-30.5 36t-11.5 58v221h-58v-225q0 -43 12 -74.5t34.5 -52
t55 -30.5t74.5 -10q25 0 51 6.5t49 19.5t39 33v-167z" />
    <glyph glyph-name="uni04B8" unicode="&#x4b8;" horiz-adv-x="489" 
d="M216 369v-199h58v199h-58zM467 700h-57v-277q0 -34 -15 -58t-39.5 -38t-54 -20.5t-58.5 -6.5q-51 0 -88 17t-56.5 51t-19.5 85v247h-56v-245q0 -64 24 -111t70.5 -73t113.5 -26q32 0 66 6.5t64 20t49 34.5v-306h57v700z" />
    <glyph glyph-name="uni04B9" unicode="&#x4b9;" horiz-adv-x="439" 
d="M347 0h56v408q0 32 10 44t23 18l-20 42q-18 -6 -31 -16.5t-21.5 -24t-12.5 -29.5t-4 -33v-118q0 -26 -10 -49.5t-27 -41.5t-40 -28.5t-50 -10.5q-23 0 -46 5.5t-42 18.5t-30.5 36t-11.5 58v221h-58v-225q0 -43 12 -74.5t34.5 -52t55 -30.5t74.5 -10q25 0 51 6.5t49 19.5
t39 33v-167zM183 234v-199h58v199h-58z" />
    <glyph glyph-name="uni04BA" unicode="&#x4ba;" horiz-adv-x="520" 
d="M99 700h-57v-701h57v277q0 35 15 58.5t39.5 37.5t54 20.5t59.5 6.5q52 0 88.5 -17t56 -51t19.5 -85v-247h56v245q0 64 -24 111t-70.5 73t-113.5 26q-31 0 -65.5 -6.5t-65 -20t-49.5 -34.5v307z" />
    <glyph glyph-name="uni04BB" unicode="&#x4bb;" horiz-adv-x="443" 
d="M38 0h57v210q0 26 10 49.5t27 41.5t40 28.5t50 10.5q23 0 46 -5.5t42 -18.5t30.5 -36t11.5 -58v-222h57v226q0 43 -13 74.5t-37 52t-55.5 30.5t-69.5 10q-26 0 -52 -7.5t-48 -21.5t-39 -34v170h-57v-500z" />
    <glyph glyph-name="uni04C0" unicode="&#x4c0;" horiz-adv-x="187" 
d="M20 651l68 -2v-649h56v700h-124v-49z" />
    <glyph glyph-name="uni04C1" unicode="&#x4c1;" horiz-adv-x="678" 
d="M453 854h-45v-7q0 -28 -19 -48t-48 -20q-28 0 -48.5 20t-20.5 48v7h-45v-7q0 -31 15.5 -56.5t41.5 -41t57 -15.5t56.5 15.5t40.5 41t15 56.5v7zM587 0h69l-219 351l203 349h-62l-192 -323h-18v323h-57v-323h-17l-189 323h-64l203 -349l-221 -351h69l203 322h16v-322h57
v322h17z" />
    <glyph glyph-name="uni04C2" unicode="&#x4c2;" horiz-adv-x="533" 
d="M380 673h-45v-7q0 -28 -19 -48t-48 -20q-28 0 -48.5 20t-20.5 48v7h-45v-7q0 -31 15.5 -56.5t41.5 -41t57 -15.5t56.5 15.5t40.5 41t15 56.5v7zM516 500h-63l-138 -222h-20v222h-57v-222h-17l-132 222h-65l153 -250l-160 -250h67l139 223h15v-223h57v223h19l133 -223h67
l-151 250z" />
    <glyph glyph-name="uni04CB" unicode="&#x4cb;" horiz-adv-x="489" 
d="M352 57v-162h46l10 105h30v57h-86zM467 700h-57v-277q0 -34 -15 -58t-39.5 -38t-54 -20.5t-58.5 -6.5q-51 0 -88 17t-56.5 51t-19.5 85v247h-56v-245q0 -64 24 -111t70.5 -73t113.5 -26q32 0 66 6.5t64 20t49 34.5v-306h57v700z" />
    <glyph glyph-name="uni04CC" unicode="&#x4cc;" horiz-adv-x="440" 
d="M290 57v-162h46l10 105h29v57h-85zM347 0h56v408q0 32 10 44t23 18l-20 42q-23 -8 -38.5 -23.5t-23 -36t-7.5 -43.5v-118q0 -26 -10 -49.5t-27 -41.5t-40 -28.5t-50 -10.5q-23 0 -46 5.5t-42 18.5t-30.5 36t-11.5 58v221h-58v-225q0 -43 12 -74.5t34.5 -52t55 -30.5
t74.5 -10q25 0 51 6.5t49 19.5t39 33v-167z" />
    <glyph glyph-name="uni04CF" unicode="&#x4cf;" horiz-adv-x="187" 
d="M20 651l68 -2v-649h56v700h-124v-49z" />
    <glyph glyph-name="uni04D0" unicode="&#x4d0;" horiz-adv-x="545" 
d="M385 854h-45v-7q0 -28 -19 -48t-48 -20q-28 0 -48.5 20t-20.5 48v7h-45v-7q0 -31 15.5 -56.5t41.5 -41t57 -15.5t56.5 15.5t40.5 41t15 56.5v7zM527 0l-228 700h-53l-225 -700h60l79 245h227l81 -245h59zM175 300l97 314l100 -314h-197z" />
    <glyph glyph-name="uni04D1" unicode="&#x4d1;" horiz-adv-x="436" 
d="M330 673h-45v-7q0 -28 -19 -48t-48 -20q-28 0 -48.5 20t-20.5 48v7h-45v-7q0 -31 15.5 -56.5t41.5 -41t57 -15.5t56.5 15.5t40.5 41t15 56.5v7zM403 487l-44 21q-6 -13 -9.5 -28l-3.5 -15q-26 13 -54.5 22.5t-57 15t-55.5 5.5q-28 0 -54.5 -7.5t-47.5 -25t-33.5 -47
t-12.5 -74.5v-185q0 -56 16.5 -91t45 -53t63 -24t70.5 -5q13 0 34.5 1t45 2t44.5 2.5t34 2t12 0.5v396q0 37 3.5 62zM86 163v188q0 37 9.5 58t24 31t30 13t27.5 3q15 0 33 -2.5t38.5 -7.5t43.5 -12.5t48 -18.5v-363l-11 -1t-29.5 -2t-42.5 -2t-51 -1q-39 0 -66 13.5
t-40.5 40t-13.5 63.5z" />
    <glyph glyph-name="uni04D2" unicode="&#x4d2;" horiz-adv-x="545" 
d="M194 852q-13 0 -23 -10t-10 -24q0 -13 10 -23t23 -10q14 0 24 10t10 23q0 14 -10 24t-24 10zM353 852q-14 0 -23.5 -10t-9.5 -24q0 -13 9.5 -23t23.5 -10t23.5 10t9.5 23q0 14 -9.5 24t-23.5 10zM527 0l-228 700h-53l-225 -700h60l79 245h227l81 -245h59zM175 300l97 314
l100 -314h-197z" />
    <glyph glyph-name="uni04D3" unicode="&#x4d3;" horiz-adv-x="436" 
d="M135 660q-13 0 -23 -10t-10 -24q0 -13 10 -23t23 -10q14 0 24 10t10 23q0 14 -10 24t-24 10zM294 660q-14 0 -23.5 -10t-9.5 -24q0 -13 9.5 -23t23.5 -10t23.5 10t9.5 23q0 14 -9.5 24t-23.5 10zM403 487l-44 21q-6 -13 -9.5 -28l-3.5 -15q-26 13 -54.5 22.5t-57 15
t-55.5 5.5q-28 0 -54.5 -7.5t-47.5 -25t-33.5 -47t-12.5 -74.5v-185q0 -56 16.5 -91t45 -53t63 -24t70.5 -5q13 0 34.5 1t45 2t44.5 2.5t34 2t12 0.5v396q0 37 3.5 62zM86 163v188q0 37 9.5 58t24 31t30 13t27.5 3q15 0 33 -2.5t38.5 -7.5t43.5 -12.5t48 -18.5v-363l-11 -1
t-29.5 -2t-42.5 -2t-51 -1q-39 0 -66 13.5t-40.5 40t-13.5 63.5z" />
    <glyph glyph-name="uni04D4" unicode="&#x4d4;" horiz-adv-x="744" 
d="M384 0h337v50h-280v306h173l19 58h-192v233h280v53h-429l-272 -700h59l95 244h210v-244zM195 300l135 347h54v-347h-189z" />
    <glyph glyph-name="uni04D5" unicode="&#x4d5;" horiz-adv-x="749" 
d="M355 350q-23 14 -51.5 26t-59.5 19.5t-64 7.5q-30 0 -57.5 -8t-49.5 -25.5t-34.5 -46.5t-12.5 -71v-83q0 -55 17.5 -91t48 -55.5t72 -26.5t89.5 -6q15 0 35.5 1t42 2.5t40 3t30 2.5t10.5 1v288q0 62 -10 104.5t-33.5 68t-63.5 37t-101 11.5l-2 -43q30 0 58 -4.5
t49.5 -16.5t34 -35t12.5 -60zM355 303v-257l-4.5 -0.5t-13.5 -1t-22 -2t-29.5 -2.5t-36.5 -2q-50 -2 -83 5.5t-51.5 25t-26 44.5t-7.5 63v74q0 34 9.5 55t24.5 31.5t31 14.5t29 4q32 0 63 -7t61 -19t56 -26zM413 134v62l305 16v130q0 56 -21.5 93t-61 56t-93.5 19
q-53 0 -95 -19t-66 -57t-24 -95v-205q0 -42 12.5 -70t35.5 -45t55 -24t70 -7t82 12.5t81 34.5l-22 43q-37 -19 -73 -30.5t-73 -11.5q-24 0 -44.5 5.5t-35.5 17t-23.5 30t-8.5 45.5zM662 349v-87l-249 -11v87q0 40 15.5 68t44.5 42.5t68 14.5q35 0 62 -14t43 -39.5t16 -60.5z
" />
    <glyph glyph-name="uni04D6" unicode="&#x4d6;" horiz-adv-x="403" 
d="M326 853h-45v-7q0 -28 -19 -48t-48 -20q-28 0 -48.5 20t-20.5 48v7h-45v-7q0 -31 15.5 -56.5t41.5 -41t57 -15.5t56.5 15.5t40.5 41t15 56.5v7zM41 0h332v50h-275v307h172l18 55h-190v236h277v52h-334v-700z" />
    <glyph glyph-name="uni04D7" unicode="&#x4d7;" horiz-adv-x="421" 
d="M324 671h-45v-7q0 -28 -19 -48t-48 -20q-28 0 -48.5 20t-20.5 48v7h-45v-7q0 -31 15.5 -56.5t41.5 -41t57 -15.5t56.5 15.5t40.5 41t15 56.5v7zM87 134v62l305 16v130q0 56 -21.5 93t-61 56t-93.5 19q-53 0 -95 -19t-66 -57t-24 -95v-205q0 -42 12.5 -70t35.5 -45t55 -24
t70 -7t82 12.5t81 34.5l-22 43q-37 -19 -73 -30.5t-73 -11.5q-24 0 -44.5 5.5t-35.5 17t-23.5 30t-8.5 45.5zM336 349v-87l-249 -11v87q0 40 15.5 68t44.5 42.5t68 14.5q35 0 62 -14t43 -39.5t16 -60.5z" />
    <glyph glyph-name="uni04D8" unicode="&#x4d8;" horiz-adv-x="490" 
d="M262 709q-39 0 -74.5 -8t-67.5 -25l17 -38q19 8 36.5 12.5t35.5 6.5t35 2q49 0 84 -14.5t53.5 -46.5t18.5 -85v-163l-365 -16v-149q0 -46 15.5 -82.5t43.5 -62t66.5 -39t84.5 -13.5q59 0 107 22t76.5 66t28.5 109v324q0 53 -15 90.5t-41.5 62t-62 36t-76.5 11.5zM247 41
q-34 0 -63 9t-49.5 26.5t-32 45t-11.5 64.5v95l309 14v-109q0 -36 -11.5 -63t-32 -45.5t-48.5 -27.5t-61 -9z" />
    <glyph glyph-name="uni04D9" unicode="&#x4d9;" horiz-adv-x="420" 
d="M334 364v-62l-305 -16v-130q0 -55 21.5 -92.5t61.5 -56.5t93 -19t95 19t66 57.5t24 94.5v205q0 42 -12.5 70t-35.5 45t-55 24t-70 7t-81.5 -12t-81.5 -35l22 -43q38 20 73.5 31t72.5 11q24 0 44.5 -5.5t35.5 -17t23.5 -30t8.5 -45.5zM85 149v87l249 11v-87
q0 -40 -15.5 -68t-44 -42.5t-68.5 -14.5q-34 0 -61.5 14t-43.5 39.5t-16 60.5z" />
    <glyph glyph-name="uni04DC" unicode="&#x4dc;" horiz-adv-x="681" 
d="M255 852q-13 0 -23 -10t-10 -24q0 -13 10 -23t23 -10q14 0 24 10t10 23q0 14 -10 24t-24 10zM414 852q-14 0 -23.5 -10t-9.5 -24q0 -13 9.5 -23t23.5 -10t23.5 10t9.5 23q0 14 -9.5 24t-23.5 10zM587 0h69l-219 351l203 349h-62l-192 -323h-18v323h-57v-323h-17l-189 323
h-64l203 -349l-221 -351h69l203 322h16v-322h57v322h17z" />
    <glyph glyph-name="uni04DD" unicode="&#x4dd;" horiz-adv-x="535" 
d="M185 659q-13 0 -23 -10t-10 -24q0 -13 10 -23t23 -10q14 0 24 10t10 23q0 14 -10 24t-24 10zM344 659q-14 0 -23.5 -10t-9.5 -24q0 -13 9.5 -23t23.5 -10t23.5 10t9.5 23q0 14 -9.5 24t-23.5 10zM516 500h-63l-138 -222h-20v222h-57v-222h-17l-132 222h-65l153 -250
l-160 -250h67l139 223h15v-223h57v223h19l133 -223h67l-151 250z" />
    <glyph glyph-name="uni04DE" unicode="&#x4de;" horiz-adv-x="461" 
d="M145 853q-13 0 -23 -10t-10 -24q0 -13 10 -23t23 -10q14 0 24 10t10 23q0 14 -10 24t-24 10zM304 853q-14 0 -23.5 -10t-9.5 -24q0 -13 9.5 -23t23.5 -10t23.5 10t9.5 23q0 14 -9.5 24t-23.5 10zM102 412l18 -57h72q40 0 74 -7.5t59 -24.5t39 -44.5t14 -66.5
q0 -51 -22 -89.5t-67 -60.5t-113 -22q-27 0 -53.5 4.5t-48 10t-34 10l-12.5 4.5l-12 -46l13.5 -5t36.5 -11.5t52 -11.5t59 -5q70 0 119 19t79 50.5t44 71t14 81.5q0 66 -32 109t-88 65q39 20 58.5 45.5t26 53.5t6.5 53q0 44 -20.5 83.5t-63 64t-109.5 24.5q-41 0 -73 -8
t-50.5 -16.5l-18.5 -8.5l17 -38l16.5 5.5t41.5 10.5t50 5q37 0 65.5 -7.5t48.5 -23t30 -39t10 -55.5q0 -37 -16 -65t-43.5 -43t-62.5 -15h-124z" />
    <glyph glyph-name="uni04DF" unicode="&#x4df;" horiz-adv-x="401" 
d="M118 658q-13 0 -23 -10t-10 -24q0 -13 10 -23t23 -10q14 0 24 10t10 23q0 14 -10 24t-24 10zM277 658q-14 0 -23.5 -10t-9.5 -24q0 -13 9.5 -23t23.5 -10t23.5 10t9.5 23q0 14 -9.5 24t-23.5 10zM93 444q28 10 49.5 13.5t39 3.5t33.5 -2q19 -3 33 -10t23 -18t13.5 -23.5
t4.5 -25.5q0 -21 -10 -39.5t-27.5 -30t-39.5 -11.5h-119l20 -54h98q15 0 33.5 -5t35.5 -17t28 -31t11 -48t-17 -53t-47.5 -37.5t-72.5 -13.5q-23 0 -47 4.5t-48 11.5t-48 16l-16 -51q35 -16 80.5 -25t88.5 -9q63 0 103.5 22.5t60 59.5t19.5 78t-22.5 77.5t-62.5 52.5
q17 10 30 25t20.5 34.5t7.5 40.5q0 32 -16.5 62t-50.5 50t-88 20q-22 0 -46.5 -3t-53.5 -11v-53z" />
    <glyph glyph-name="uni04E2" unicode="&#x4e2;" horiz-adv-x="577" 
d="M398 865h-221v-56h221v56zM41 700v-700h56l380 597v-597h57v700h-57l-380 -597v597h-56z" />
    <glyph glyph-name="uni04E3" unicode="&#x4e3;" horiz-adv-x="446" 
d="M336 683h-221v-56h221v56zM95 500h-57v-500h69l243 415v-415h57v500h-69l-243 -415v415z" />
    <glyph glyph-name="uni04E4" unicode="&#x4e4;" horiz-adv-x="577" 
d="M203 852q-13 0 -23 -10t-10 -24q0 -13 10 -23t23 -10q14 0 24 10t10 23q0 14 -10 24t-24 10zM362 852q-14 0 -23.5 -10t-9.5 -24q0 -13 9.5 -23t23.5 -10t23.5 10t9.5 23q0 14 -9.5 24t-23.5 10zM41 700v-700h56l380 597v-597h57v700h-57l-380 -597v597h-56z" />
    <glyph glyph-name="uni04E5" unicode="&#x4e5;" horiz-adv-x="446" 
d="M148 657q-13 0 -23 -10t-10 -24q0 -13 10 -23t23 -10q14 0 24 10t10 23q0 14 -10 24t-24 10zM307 657q-14 0 -23.5 -10t-9.5 -24q0 -13 9.5 -23t23.5 -10t23.5 10t9.5 23q0 14 -9.5 24t-23.5 10zM95 500h-57v-500h69l243 415v-415h57v500h-69l-243 -415v415z" />
    <glyph glyph-name="uni04E6" unicode="&#x4e6;" horiz-adv-x="488" 
d="M166 852q-13 0 -23 -10t-10 -24q0 -13 10 -23t23 -10q14 0 24 10t10 23q0 14 -10 24t-24 10zM325 852q-14 0 -23.5 -10t-9.5 -24q0 -13 9.5 -23t23.5 -10t23.5 10t9.5 23q0 14 -9.5 24t-23.5 10zM34 508v-322q0 -65 28.5 -109t76.5 -66t107 -22q62 0 109.5 24t74 68
t26.5 105v321q0 98 -55 153.5t-154 55.5t-156 -53t-57 -155zM91 187v330q0 49 19 81t53.5 48.5t80.5 16.5q48 0 83 -16.5t54 -48.5t19 -81v-330q0 -49 -20 -81.5t-55 -48t-81 -15.5q-44 0 -78.5 16.5t-54.5 48.5t-20 80z" />
    <glyph glyph-name="uni04E7" unicode="&#x4e7;" horiz-adv-x="427" 
d="M136 657q-13 0 -23 -10t-10 -24q0 -13 10 -23t23 -10q14 0 24 10t10 23q0 14 -10 24t-24 10zM295 657q-14 0 -23.5 -10t-9.5 -24q0 -13 9.5 -23t23.5 -10t23.5 10t9.5 23q0 14 -9.5 24t-23.5 10zM399 185v131q0 92 -47 144t-136 52q-59 0 -101 -22.5t-64 -66t-22 -107.5
v-131q0 -54 21 -98t63.5 -70.5t104.5 -26.5q91 0 136 53.5t45 141.5zM343 316v-141q0 -41 -13.5 -71.5t-41.5 -47t-70 -16.5q-40 0 -70 17t-46.5 47.5t-16.5 70.5v141q0 48 15 80.5t44.5 49t73.5 16.5t71.5 -16.5t40.5 -49t13 -80.5z" />
    <glyph glyph-name="uni04E8" unicode="&#x4e8;" horiz-adv-x="492" 
d="M86 380v-57h319v57h-319zM34 508v-322q0 -65 28.5 -109t76.5 -66t107 -22q62 0 109.5 24t74 68t26.5 105v321q0 98 -55 153.5t-154 55.5t-156 -53t-57 -155zM91 187v330q0 49 19 81t53.5 48.5t80.5 16.5q48 0 83 -16.5t54 -48.5t19 -81v-330q0 -49 -20 -81.5t-55 -48
t-81 -15.5q-44 0 -78.5 16.5t-54.5 48.5t-20 80z" />
    <glyph glyph-name="uni04E9" unicode="&#x4e9;" horiz-adv-x="430" 
d="M399 185v131q0 92 -47 144t-136 52q-59 0 -101 -22.5t-64 -66t-22 -107.5v-131q0 -54 21 -98t63.5 -70.5t104.5 -26.5q91 0 136 53.5t45 141.5zM343 316v-141q0 -41 -13.5 -71.5t-41.5 -47t-70 -16.5q-40 0 -70 17t-46.5 47.5t-16.5 70.5v141q0 48 15 80.5t44.5 49
t73.5 16.5t71.5 -16.5t40.5 -49t13 -80.5zM52 280v-58h319v58h-319z" />
    <glyph glyph-name="uni04EE" unicode="&#x4ee;" horiz-adv-x="484" 
d="M349 827h-221v-56h221v56zM414 700l-173 -372l-172 372h-62l204 -438l-64 -139q-5 -11 -18.5 -32.5t-35 -42t-52.5 -29.5l37 -31q24 6 41.5 15.5t31.5 24.5t26 35.5t25 47.5l274 589h-62z" />
    <glyph glyph-name="uni04EF" unicode="&#x4ef;" horiz-adv-x="486" 
d="M346 681h-221v-56h221v56zM92 -209h58l305 709h-63l-165 -391l-156 391h-64l190 -460z" />
    <glyph glyph-name="uni04F0" unicode="&#x4f0;" horiz-adv-x="484" 
d="M164 852q-13 0 -23 -10t-10 -24q0 -13 10 -23t23 -10q14 0 24 10t10 23q0 14 -10 24t-24 10zM323 852q-14 0 -23.5 -10t-9.5 -24q0 -13 9.5 -23t23.5 -10t23.5 10t9.5 23q0 14 -9.5 24t-23.5 10zM414 700l-173 -372l-172 372h-62l204 -438l-64 -139q-5 -11 -18.5 -32.5
t-35 -42t-52.5 -29.5l37 -31q24 6 41.5 15.5t31.5 24.5t26 35.5t25 47.5l274 589h-62z" />
    <glyph glyph-name="uni04F1" unicode="&#x4f1;" horiz-adv-x="486" 
d="M160 659q-13 0 -23 -10t-10 -24q0 -13 10 -23t23 -10q14 0 24 10t10 23q0 14 -10 24t-24 10zM319 659q-14 0 -23.5 -10t-9.5 -24q0 -13 9.5 -23t23.5 -10t23.5 10t9.5 23q0 14 -9.5 24t-23.5 10zM92 -209h58l305 709h-63l-165 -391l-156 391h-64l190 -460z" />
    <glyph glyph-name="uni04F2" unicode="&#x4f2;" horiz-adv-x="484" 
d="M259 833q6 8 7.5 17t-2 17.5t-12.5 13.5t-18 3.5t-15.5 -7.5t-10.5 -16l-39 -106h36zM370 833q6 9 7.5 18t-2 17t-12.5 13t-18 3.5t-16 -7.5t-10 -16l-37 -106h35zM414 700l-173 -372l-172 372h-62l204 -438l-64 -139q-5 -11 -18.5 -32.5t-35 -42t-52.5 -29.5l37 -31
q24 6 41.5 15.5t31.5 24.5t26 35.5t25 47.5l274 589h-62z" />
    <glyph glyph-name="uni04F3" unicode="&#x4f3;" horiz-adv-x="486" 
d="M257 649q6 8 7.5 17t-2 17.5t-12.5 13.5t-18 3.5t-15.5 -7.5t-10.5 -16l-39 -106h36zM368 649q6 9 7.5 18t-2 17t-12.5 13t-18 3.5t-16 -7.5t-10 -16l-37 -106h35zM102 -209h58l305 709h-63l-165 -391l-156 391h-64l190 -460z" />
    <glyph glyph-name="uni04F4" unicode="&#x4f4;" horiz-adv-x="489" 
d="M165 853q-13 0 -23 -10t-10 -24q0 -13 10 -23t23 -10q14 0 24 10t10 23q0 14 -10 24t-24 10zM324 853q-14 0 -23.5 -10t-9.5 -24q0 -13 9.5 -23t23.5 -10t23.5 10t9.5 23q0 14 -9.5 24t-23.5 10zM467 700h-57v-277q0 -34 -15 -58t-39.5 -38t-54 -20.5t-58.5 -6.5
q-51 0 -88 17t-56.5 51t-19.5 85v247h-56v-245q0 -64 24 -111t70.5 -73t113.5 -26q32 0 66 6.5t64 20t49 34.5v-306h57v700z" />
    <glyph glyph-name="uni04F5" unicode="&#x4f5;" horiz-adv-x="439" 
d="M142 659q-13 0 -23 -10t-10 -24q0 -13 10 -23t23 -10q14 0 24 10t10 23q0 14 -10 24t-24 10zM301 659q-14 0 -23.5 -10t-9.5 -24q0 -13 9.5 -23t23.5 -10t23.5 10t9.5 23q0 14 -9.5 24t-23.5 10zM347 0h56v408q0 32 10 44t23 18l-20 42q-18 -6 -31 -16.5t-21.5 -24
t-12.5 -29.5t-4 -33v-118q0 -26 -10 -49.5t-27 -41.5t-40 -28.5t-50 -10.5q-23 0 -46 5.5t-42 18.5t-30.5 36t-11.5 58v221h-58v-225q0 -43 12 -74.5t34.5 -52t55 -30.5t74.5 -10q25 0 51 6.5t49 19.5t39 33v-167z" />
    <glyph glyph-name="uni04F6" unicode="&#x4f6;" horiz-adv-x="383" 
d="M71 57v-57h27l10 -105h46v162h-83zM41 0h57v647h277v53h-334v-700z" />
    <glyph glyph-name="uni04F7" unicode="&#x4f7;" horiz-adv-x="317" 
d="M64 57v-57h27l10 -105h46v162h-83zM33 500v-500h57v447h218v53h-275z" />
    <glyph glyph-name="uni04F8" unicode="&#x4f8;" horiz-adv-x="600" 
d="M203 852q-13 0 -23 -10t-10 -24q0 -13 10 -23t23 -10q14 0 24 10t10 23q0 14 -10 24t-24 10zM362 852q-14 0 -23.5 -10t-9.5 -24q0 -13 9.5 -23t23.5 -10t23.5 10t9.5 23q0 14 -9.5 24t-23.5 10zM435 651l68 -2v-649h56v700h-124v-49zM275 412h-175v288h-57v-701
q-1 0 10.5 -1t30 -2.5t40 -3t42 -2.5t35.5 -1q48 0 89.5 7t72.5 26t48 54t17 92v83q0 42 -12.5 72.5t-34.5 50t-49 29t-57 9.5zM373 175q0 -46 -11 -74t-32.5 -41.5t-52.5 -18t-72 -4.5q-18 0 -33.5 1t-28 2t-21.5 2t-14.5 2t-7.5 1v312h179q13 0 29 -4t31 -15.5t24.5 -32.5
t9.5 -56v-74z" />
    <glyph glyph-name="uni04F9" unicode="&#x4f9;" horiz-adv-x="578" 
d="M214 659q-13 0 -23 -10t-10 -24q0 -13 10 -23t23 -10q14 0 24 10t10 23q0 14 -10 24t-24 10zM373 659q-14 0 -23.5 -10t-9.5 -24q0 -13 9.5 -23t23.5 -10t23.5 10t9.5 23q0 14 -9.5 24t-23.5 10zM485 0h57v500h-57v-500zM272 303h-175v197h-57v-497q4 0 18 -1.5t34.5 -3
t45 -3t51.5 -2.5t52 -1q63 0 103.5 22.5t60 59.5t19.5 78q0 49 -21.5 82.5t-56 51t-74.5 17.5zM231 45q-24 0 -48 0.5t-43.5 1.5t-31 1.5l-11.5 0.5v199h180q13 0 28.5 -4.5t30 -15.5t23.5 -30.5t9 -48.5t-17 -53t-47.5 -37.5t-72.5 -13.5z" />
    <glyph glyph-name="uni051A" unicode="&#x51a;" horiz-adv-x="492" 
d="M271 50v124h-56v-123q0 -42 11 -72.5t33 -49.5t55 -28t76 -9l6 47q-30 0 -53.5 5.5t-39 18.5t-24 34.5t-8.5 52.5zM34 508v-322q0 -65 28.5 -109t76.5 -66t107 -22q62 0 109.5 24t74 68t26.5 105v321q0 98 -55 153.5t-154 55.5t-156 -53t-57 -155zM91 187v330q0 49 19 81
t53.5 48.5t80.5 16.5q48 0 83 -16.5t54 -48.5t19 -81v-330q0 -49 -20 -81.5t-55 -48t-81 -15.5q-44 0 -78.5 16.5t-54.5 48.5t-20 80z" />
    <glyph glyph-name="uni051B" unicode="&#x51b;" horiz-adv-x="441" 
d="M344 62v-251l57 -23v712h-57v-46q-22 18 -45.5 30.5t-48 19t-48.5 7.5q-55 3 -93 -16.5t-58 -57t-20 -91.5v-169q0 -61 19.5 -103t58 -63.5t94.5 -21.5q30 0 58 9.5t50 26.5t33 37zM344 394v-220q0 -32 -10.5 -57t-29.5 -42t-44 -25.5t-54 -8.5q-38 0 -64.5 14.5
t-40.5 43t-14 69.5v176q0 34 11 57t29.5 37t41 19.5t45.5 3.5q16 -1 34.5 -6t36.5 -13t33.5 -20t25.5 -28z" />
    <glyph glyph-name="uni051C" unicode="&#x51c;" horiz-adv-x="733" 
d="M405 700h-78l-107 -631l-142 631h-61l166 -700h85l99 599l99 -599h84l163 700h-59l-141 -631z" />
    <glyph glyph-name="uni051D" unicode="&#x51d;" horiz-adv-x="708" 
d="M381 499h-57l-112 -442l-135 442h-58l152 -499h78l102 405l100 -405h77l156 499h-59l-134 -442z" />
    <glyph glyph-name="Wgrave" unicode="&#x1e80;" horiz-adv-x="733" 
d="M347 867q-3 10 -10 16.5t-16 8t-19 -4.5q-8 -4 -11.5 -12.5t-1.5 -18t7 -17.5l54 -79h36zM405 700h-78l-107 -631l-142 631h-61l166 -700h85l99 599l99 -599h84l163 700h-59l-141 -631z" />
    <glyph glyph-name="wgrave" unicode="&#x1e81;" horiz-adv-x="708" 
d="M335 672q-3 10 -10 16.5t-16 8t-19 -4.5q-8 -4 -11.5 -12.5t-1.5 -18t7 -17.5l54 -79h36zM381 499h-57l-112 -442l-135 442h-58l152 -499h78l102 405l100 -405h77l156 499h-59l-134 -442z" />
    <glyph glyph-name="Wacute" unicode="&#x1e82;" horiz-adv-x="733" 
d="M430 834q6 9 7.5 17.5t-2 16.5t-12.5 13t-17.5 4t-15.5 -7t-10 -16l-38 -107h35zM405 700h-78l-107 -631l-142 631h-61l166 -700h85l99 599l99 -599h84l163 700h-59l-141 -631z" />
    <glyph glyph-name="wacute" unicode="&#x1e83;" horiz-adv-x="708" 
d="M423 649q6 9 7.5 17.5t-2 16.5t-12.5 13t-17.5 4t-15.5 -7t-10 -16l-38 -107h35zM381 499h-57l-112 -442l-135 442h-58l152 -499h78l102 405l100 -405h77l156 499h-59l-134 -442z" />
    <glyph glyph-name="Wdieresis" unicode="&#x1e84;" horiz-adv-x="733" 
d="M287 852q-13 0 -23 -10t-10 -24q0 -13 10 -23t23 -10q14 0 24 10t10 23q0 14 -10 24t-24 10zM446 852q-14 0 -23.5 -10t-9.5 -24q0 -13 9.5 -23t23.5 -10t23.5 10t9.5 23q0 14 -9.5 24t-23.5 10zM405 700h-78l-107 -631l-142 631h-61l166 -700h85l99 599l99 -599h84
l163 700h-59l-141 -631z" />
    <glyph glyph-name="wdieresis" unicode="&#x1e85;" horiz-adv-x="708" 
d="M275 657q-13 0 -23 -10t-10 -24q0 -13 10 -23t23 -10q14 0 24 10t10 23q0 14 -10 24t-24 10zM434 657q-14 0 -23.5 -10t-9.5 -24q0 -13 9.5 -23t23.5 -10t23.5 10t9.5 23q0 14 -9.5 24t-23.5 10zM381 499h-57l-112 -442l-135 442h-58l152 -499h78l102 405l100 -405h77
l156 499h-59l-134 -442z" />
    <glyph glyph-name="Ygrave" unicode="&#x1ef2;" horiz-adv-x="515" 
d="M237 867q-3 10 -10 16.5t-16 8t-19 -4.5q-8 -4 -11.5 -12.5t-1.5 -18t7 -17.5l54 -79h36zM474 156v544h-57v-277q0 -34 -15 -58t-39.5 -38t-54 -20.5t-58.5 -6.5q-51 0 -88 17t-56.5 51t-19.5 85v247h-56v-245q0 -64 24 -111t70.5 -73t113.5 -26q32 0 66 6.5t64 20
t49 34.5v-153q0 -25 -3.5 -45t-11 -35.5t-19 -26t-27.5 -16.5l13 -37q50 7 77.5 48.5t27.5 114.5z" />
    <glyph glyph-name="ygrave" unicode="&#x1ef3;" horiz-adv-x="469" 
d="M214 682q-3 10 -10 16.5t-16 8t-19 -4.5q-8 -4 -11.5 -12.5t-1.5 -18t7 -17.5l54 -79h36zM438 470l-20 42q-23 -8 -38.5 -23.5t-23 -36t-7.5 -43.5v-235q0 -26 -10 -49.5t-27 -41.5t-40 -28.5t-50 -10.5q-23 0 -46 5.5t-42 18.5t-30.5 36t-11.5 58v339h-57v-343
q0 -43 11.5 -74.5t34 -52t55 -30.5t74.5 -10q25 0 51 6.5t49 19.5t39 33v-111q0 -18 -3.5 -34.5t-11.5 -30t-20.5 -23.5t-29.5 -17l16 -43q38 13 61 31t33.5 46.5t10.5 69.5v470q0 32 10 44t23 18z" />
    <glyph glyph-name="endash" unicode="&#x2013;" horiz-adv-x="443" 
d="M34 356h375v58h-375v-58z" />
    <glyph glyph-name="emdash" unicode="&#x2014;" horiz-adv-x="717" 
d="M34 356h649v58h-649v-58z" />
    <glyph glyph-name="quoteleft" unicode="&#x2018;" horiz-adv-x="128" 
d="M98 702l-19 12q-7 -7 -15.5 -17.5t-17 -25.5t-14 -34t-5.5 -43q0 -15 10 -24t23 -9q14 0 24.5 9.5t10.5 23.5q0 12 -8 21t-22 12q2 17 9.5 36.5t23.5 38.5z" />
    <glyph glyph-name="quoteright" unicode="&#x2019;" horiz-adv-x="129" 
d="M29 559l18 -13q8 7 17 18t17.5 26t14 34t5.5 42q0 15 -10.5 24.5t-24.5 9.5q-13 0 -23 -10t-10 -24q0 -12 8.5 -21t18.5 -12q-1 -16 -7.5 -35t-23.5 -39z" />
    <glyph glyph-name="quotesinglbase" unicode="&#x201a;" horiz-adv-x="140" 
d="M34 -65l17 -12q8 6 17 17t17.5 26t14 34t5.5 43q-1 15 -11 24t-24 9q-13 0 -23 -9.5t-10 -23.5q0 -13 8.5 -22t18.5 -11q-1 -16 -8 -35.5t-22 -39.5z" />
    <glyph glyph-name="quotedblleft" unicode="&#x201c;" horiz-adv-x="307" 
d="M277 702l-17 12q-7 -7 -16 -17.5t-17.5 -25.5t-14 -34t-5.5 -43q0 -15 10 -24t23 -9q14 0 24 9.5t10 23.5q0 12 -8 21t-21 12q3 17 9.5 36.5t22.5 38.5zM98 702l-19 12q-7 -7 -15.5 -17.5t-17 -25.5t-14 -34t-5.5 -43q0 -15 10 -24t23 -9q14 0 24.5 9.5t10.5 23.5
q0 12 -8 21t-22 12q2 17 9.5 36.5t23.5 38.5z" />
    <glyph glyph-name="quotedblright" unicode="&#x201d;" horiz-adv-x="308" 
d="M29 559l18 -13q8 6 17 17.5t17.5 26.5t14 34.5t5.5 41.5q-1 15 -11 24.5t-24 9.5q-13 0 -23 -10t-10 -24q0 -12 8.5 -21t18.5 -12q-1 -16 -7.5 -35t-23.5 -39zM210 559l17 -13q8 7 17 18t17 26t13.5 34t5.5 42q0 15 -10 24.5t-24 9.5q-13 0 -23 -10t-10 -24q0 -12 8 -21
t20 -12q-2 -16 -8.5 -35t-22.5 -39z" />
    </font>
</defs>
</svg>
