<?xml version="1.0" standalone="no"?>
<!DOCTYPE svg PUBLIC "-//W3C//DTD SVG 1.1//EN" "http://www.w3.org/Graphics/SVG/1.1/DTD/svg11.dtd" >
<svg xmlns="http://www.w3.org/2000/svg" xmlns:xlink="http://www.w3.org/1999/xlink" version="1.1">
<metadata>
Created by FontForge 20170731 at Tue Dec  6 15:27:44 2016
 By Aleksey,,,
Digitized data copyright 2012-2016, The Mozilla Foundation and Telefonica S.A.
</metadata>
<defs>
<font id="FiraSansExtraCondensed-Bold" horiz-adv-x="460" >
  <font-face 
    font-family="Fira Sans Extra Condensed"
    font-weight="700"
    font-stretch="ultra-condensed"
    units-per-em="1000"
    panose-1="2 11 8 3 5 0 0 2 0 4"
    ascent="800"
    descent="-200"
    x-height="531"
    cap-height="693"
    bbox="-657 -354 1360 1180"
    underline-thickness="50"
    underline-position="-150"
    unicode-range="U+000D-FEFF"
  />
<missing-glyph horiz-adv-x="666" 
d="M543 1050v-1400h-420v1400h420zM489 998h-311v-1296h311v1296zM409.5 419q25.5 -32 25.5 -83q0 -53 -22.5 -82t-72.5 -36v-45q0 -11 -7.5 -17.5t-17.5 -6.5t-17.5 6.5t-7.5 17.5v84q53 3 72 19.5t19 57.5q0 33 -13 51t-48 18q-29 0 -52 -11q-8 -3 -13 -3q-11 0 -17.5 6.5
t-6.5 16.5q0 19 29.5 29t63.5 10q60 0 85.5 -32zM340 110q10 -10 10 -25q0 -16 -10 -26.5t-25 -10.5t-25 10.5t-10 26.5q0 15 10 25t25 10t25 -10z" />
    <glyph glyph-name="fi" unicode="fi" horiz-adv-x="507" 
d="M349 747q40 -11 69 -28l-40 -95q-48 22 -95 22q-34 0 -48 -14.5t-14 -47.5v-53h242v-531h-151v425h-91v-425h-151v425h-66v106h66v59q0 72 47.5 120t144.5 48q47 0 87 -11z" />
    <glyph glyph-name="fl" unicode="fl" horiz-adv-x="540" 
d="M543 2q-16 -8 -38 -13.5t-46 -5.5q-63 0 -98.5 37t-35.5 101v521q-27 7 -50 7q-31 0 -42.5 -14t-11.5 -47v-57h73l-16 -106h-57v-425h-151v425h-66v106h66v60q0 72 46 119.5t133 47.5q47 0 95 -17l132 13v-626q0 -25 22 -25q6 0 18 3z" />
    <glyph glyph-name=".notdef" horiz-adv-x="666" 
d="M543 1050v-1400h-420v1400h420zM489 998h-311v-1296h311v1296zM409.5 419q25.5 -32 25.5 -83q0 -53 -22.5 -82t-72.5 -36v-45q0 -11 -7.5 -17.5t-17.5 -6.5t-17.5 6.5t-7.5 17.5v84q53 3 72 19.5t19 57.5q0 33 -13 51t-48 18q-29 0 -52 -11q-8 -3 -13 -3q-11 0 -17.5 6.5
t-6.5 16.5q0 19 29.5 29t63.5 10q60 0 85.5 -32zM340 110q10 -10 10 -25q0 -16 -10 -26.5t-25 -10.5t-25 10.5t-10 26.5q0 15 10 25t25 10t25 -10z" />
    <glyph glyph-name=".null" horiz-adv-x="0" 
 />
    <glyph glyph-name="nonmarkingreturn" unicode="&#xd;" horiz-adv-x="185" 
 />
    <glyph glyph-name="space" unicode=" " horiz-adv-x="185" 
 />
    <glyph glyph-name="exclam" unicode="!" horiz-adv-x="221" 
d="M189 693l-21 -441h-116l-21 441h158zM172 132q24 -26 24 -62t-24 -61.5t-62 -25.5q-37 0 -61 25.5t-24 61.5t24 62t61 26q38 0 62 -26z" />
    <glyph glyph-name="quotedbl" unicode="&#x22;" horiz-adv-x="413" 
d="M58 416l-16 277h128l-16 -277h-96zM259 416l-16 277h128l-16 -277h-96z" />
    <glyph glyph-name="numbersign" unicode="#" horiz-adv-x="468" 
d="M456 441h-52l-26 -195h48v-99h-61l-20 -147h-117l19 147h-77l-19 -147h-118l19 147h-40v99h53l26 195h-49v99h62l18 136h118l-18 -136h77l18 136h118l-18 -136h39v-99zM260 246l26 195h-77l-26 -195h77z" />
    <glyph glyph-name="dollar" unicode="$" horiz-adv-x="458" 
d="M400.5 71q-40.5 -54 -112.5 -73v-158h-104v150q-107 10 -183 93l72 80q33 -30 64.5 -46t67.5 -16q41 0 61.5 23t20.5 64q0 37 -21 60.5t-74 44.5q-92 39 -130.5 85t-38.5 117q0 72 45 122.5t116 64.5v147h104v-148q80 -15 139 -79l-66 -78q-57 52 -114 52
q-34 0 -52.5 -19t-18.5 -50t21.5 -51.5t82.5 -46.5q84 -36 122.5 -82t38.5 -128q0 -74 -40.5 -128z" />
    <glyph glyph-name="percent" unicode="%" horiz-adv-x="732" 
d="M513 719l90 -51l-383 -707l-89 51zM286 643.5q42 -46.5 42 -133.5q0 -86 -42 -132.5t-108 -46.5t-108 46.5t-42 132.5t42.5 133t107.5 47q66 0 108 -46.5zM141 579.5q-11 -22.5 -11 -69.5t11 -69t37 -22t36.5 21.5t10.5 69.5q0 47 -10.5 69.5t-36.5 22.5t-37 -22.5z
M662 294.5q42 -46.5 42 -132.5q0 -87 -42 -133t-108 -46t-109 46.5t-43 132.5t43 132.5t109 46.5t108 -46.5zM516 231.5q-11 -21.5 -11 -69.5t11 -69.5t38 -21.5q26 0 36.5 21.5t10.5 69.5t-10.5 69.5t-36.5 21.5q-27 0 -38 -21.5z" />
    <glyph glyph-name="ampersand" unicode="&#x26;" horiz-adv-x="638" 
d="M402.5 665q49.5 -45 49.5 -119q0 -57 -28 -100.5t-83 -86.5l107 -131q21 61 36 141l117 -29q-29 -108 -76 -188l103 -107l-126 -62l-65 79q-41 -40 -86.5 -59.5t-98.5 -19.5q-60 0 -106.5 24.5t-72.5 68.5t-26 100q0 61 27 105t87 90q-47 49 -64.5 86.5t-17.5 86.5
q0 45 21 83t63 60.5t102 22.5q88 0 137.5 -45zM221 544q0 -33 8.5 -55.5t33.5 -55.5q26 30 36.5 53.5t10.5 58.5t-11 51t-32 16q-46 0 -46 -68zM213.5 241.5q-9.5 -24.5 -9.5 -58.5q0 -45 21 -68.5t57 -23.5q25 0 45.5 10.5t39.5 32.5l-124 154q-20 -22 -29.5 -46.5z" />
    <glyph glyph-name="quotesingle" unicode="'" horiz-adv-x="212" 
d="M58 416l-16 277h128l-16 -277h-96z" />
    <glyph glyph-name="parenleft" unicode="(" horiz-adv-x="280" 
d="M269 793q-59 -101 -83.5 -199t-24.5 -244t24.5 -244t83.5 -199l-97 -64q-50 76 -84 145.5t-55.5 159.5t-21.5 202t21.5 202t55.5 159.5t84 145.5z" />
    <glyph glyph-name="parenright" unicode=")" horiz-adv-x="280" 
d="M193 705q33 -67 54.5 -155t21.5 -200t-21.5 -200t-54.5 -155t-86 -152l-96 64q58 101 82.5 201.5t24.5 241.5q0 142 -24.5 242t-82.5 201l96 64q53 -85 86 -152z" />
    <glyph glyph-name="asterisk" unicode="*" horiz-adv-x="392" 
d="M379 538l-113 -24l88 -104l-104 -66l-54 121l-53 -122l-104 66l87 105l-113 24l39 111l102 -56l-19 149h123l-20 -150l102 58z" />
    <glyph glyph-name="plus" unicode="+" horiz-adv-x="446" 
d="M284 542v-152h127v-117h-127v-152h-122v152h-127v117h127v152h122z" />
    <glyph glyph-name="comma" unicode="," horiz-adv-x="214" 
d="M166 133.5q23 -24.5 23 -61.5q0 -17 -5.5 -35t-24.5 -70l-53 -143h-79l37 174q-39 28 -39 74q0 37 23 61.5t59 24.5t59 -24.5z" />
    <glyph glyph-name="hyphen" unicode="-" horiz-adv-x="348" 
d="M38 254v118h273v-118h-273z" />
    <glyph glyph-name="period" unicode="." horiz-adv-x="220" 
d="M171 132q24 -26 24 -62t-24 -61.5t-61 -25.5q-38 0 -61.5 25.5t-23.5 61.5t23.5 62t61.5 26q37 0 61 -26z" />
    <glyph glyph-name="slash" unicode="/" horiz-adv-x="426" 
d="M249 815l128 -29l-200 -897l-127 29z" />
    <glyph glyph-name="zero" unicode="0" horiz-adv-x="514" 
d="M420.5 601q55.5 -89 55.5 -264q0 -354 -218 -354q-220 0 -220 354q0 353 220 353q107 0 162.5 -89zM219 558q-14 -20 -20.5 -71.5t-6.5 -149.5q0 -100 6.5 -151.5t20.5 -71t39 -19.5t38.5 19.5t19.5 71t6 151.5q0 99 -6 150.5t-19.5 71t-38.5 19.5t-39 -20z" />
    <glyph glyph-name="one" unicode="1" horiz-adv-x="391" 
d="M329 675v-675h-147v528l-114 -85l-67 95l193 137h135z" />
    <glyph glyph-name="two" unicode="2" horiz-adv-x="421" 
d="M300.5 665q45.5 -25 68.5 -67.5t23 -94.5q0 -55 -18 -104t-64 -114.5t-136 -167.5h230l-16 -117h-375v108q95 117 142 183t65 110.5t18 91.5q0 40 -16.5 60t-47.5 20q-28 0 -48 -14.5t-48 -49.5l-87 65q76 116 200 116q64 0 109.5 -25z" />
    <glyph glyph-name="three" unicode="3" horiz-adv-x="435" 
d="M303 666.5q44 -23.5 67.5 -63.5t23.5 -87q0 -123 -129 -159q70 -9 109 -49t39 -115q0 -57 -26 -105t-76 -76.5t-118 -28.5q-64 0 -112 25.5t-90 75.5l81 73q30 -32 54 -45.5t54 -13.5q35 0 57 26.5t22 75.5q0 53 -24 77t-70 24h-43l16 103h29q38 0 60.5 24.5t22.5 68.5
q0 39 -19 60t-52 21q-54 0 -103 -54l-75 75q85 91 199 91q59 0 103 -23.5z" />
    <glyph glyph-name="four" unicode="4" horiz-adv-x="474" 
d="M460 261v-114h-59v-147h-141l-1 147h-241v102l155 444l127 -45l-131 -387h92l17 163h123v-163h59z" />
    <glyph glyph-name="five" unicode="5" horiz-adv-x="455" 
d="M385 567h-199v-151q23 14 42.5 20t42.5 6q70 0 114.5 -57t44.5 -162q0 -71 -28 -125.5t-80 -84.5t-121 -30q-64 0 -110.5 26t-82.5 75l82 73q26 -30 49.5 -45t54.5 -15q40 0 61.5 31t21.5 94q0 64 -17.5 90t-50.5 26q-17 0 -31.5 -5.5t-32.5 -18.5h-100v362h357z" />
    <glyph glyph-name="six" unicode="6" horiz-adv-x="490" 
d="M425 394.5q44 -58.5 44 -163.5q0 -114 -55 -181t-155 -67q-112 0 -166.5 83.5t-54.5 242.5q0 116 31 202t88.5 132.5t135.5 46.5q74 0 131 -45l-53 -87q-36 23 -70 23q-45 0 -73.5 -47.5t-34.5 -142.5q45 62 118 62q70 0 114 -58.5zM305.5 327q-13.5 24 -38.5 24
q-39 0 -75 -60q1 -76 7 -119t20.5 -61.5t38.5 -18.5q33 0 47 35.5t14 114.5q0 61 -13.5 85z" />
    <glyph glyph-name="seven" unicode="7" horiz-adv-x="392" 
d="M382 676v-103l-203 -589l-135 44l186 534h-223v114h375z" />
    <glyph glyph-name="eight" unicode="8" horiz-adv-x="486" 
d="M439.5 284.5q27.5 -43.5 27.5 -102.5q0 -89 -59.5 -144t-168.5 -55q-104 0 -162 54.5t-58 142.5q0 58 27.5 98.5t82.5 68.5q-48 33 -68 72t-20 89q0 84 54.5 133t144.5 49q95 0 150.5 -46t55.5 -128q0 -95 -97 -153q63 -35 90.5 -78.5zM199 569.5q-15 -17.5 -15 -63.5
q0 -37 13 -58.5t47 -39.5l16 -8q25 25 34 49.5t9 58.5q0 42 -14.5 60.5t-44.5 18.5t-45 -17.5zM302 113.5q19 22.5 19 69.5q0 42 -17.5 66t-62.5 46l-24 12q-51 -41 -51 -120q0 -50 20 -73t59 -23q38 0 57 22.5z" />
    <glyph glyph-name="nine" unicode="9" horiz-adv-x="482" 
d="M399 620.5q56 -69.5 56 -193.5q0 -137 -39 -226.5t-118.5 -143.5t-208.5 -85l-30 107q109 31 164 79.5t73 137.5q-24 -30 -51.5 -45.5t-62.5 -15.5q-43 0 -80.5 27t-60 77.5t-22.5 117.5q0 73 28 126t77.5 80t111.5 27q107 0 163 -69.5zM301 396q1 74 -5 114t-20 57
t-39 17q-67 0 -67 -122q0 -64 16.5 -93t44.5 -29q40 0 70 56z" />
    <glyph glyph-name="colon" unicode=":" horiz-adv-x="220" 
d="M171 132q24 -26 24 -62t-24 -61.5t-61 -25.5q-38 0 -61.5 25.5t-23.5 61.5t23.5 62t61.5 26q37 0 61 -26zM171 478q24 -26 24 -62t-24 -61.5t-61 -25.5q-38 0 -61.5 25.5t-23.5 61.5t23.5 62t61.5 26q37 0 61 -26z" />
    <glyph glyph-name="semicolon" unicode=";" horiz-adv-x="220" 
d="M166 133.5q23 -24.5 23 -61.5q0 -17 -5.5 -35t-24.5 -70l-53 -143h-79l37 174q-39 28 -39 74q0 37 23 61.5t59 24.5t59 -24.5zM171 478q24 -26 24 -62t-24 -61.5t-61 -25.5q-38 0 -61.5 25.5t-23.5 61.5t23.5 62t61.5 26q37 0 61 -26z" />
    <glyph glyph-name="less" unicode="&#x3c;" horiz-adv-x="432" 
d="M359 568l51 -102l-268 -133l268 -130l-51 -105l-338 172v126z" />
    <glyph glyph-name="equal" unicode="=" horiz-adv-x="431" 
d="M35 378v114h361v-114h-361zM35 170v114h361v-114h-361z" />
    <glyph glyph-name="greater" unicode="&#x3e;" horiz-adv-x="432" 
d="M72 568l338 -172v-126l-338 -172l-51 105l268 130l-268 133z" />
    <glyph glyph-name="question" unicode="?" horiz-adv-x="412" 
d="M314.5 687q42.5 -23 64 -61t21.5 -82q0 -37 -11 -64t-27 -45t-42 -41q-34 -30 -50.5 -53.5t-16.5 -61.5v-27h-135v33q0 45 11 75.5t26.5 49t39.5 39.5q26 23 38.5 41t12.5 47q0 26 -14 40t-38 14t-46 -13.5t-47 -42.5l-89 69q75 106 200 106q60 0 102.5 -23zM248 132
q24 -26 24 -62t-24 -61.5t-61 -25.5q-38 0 -61.5 25.5t-23.5 61.5t23.5 62t61.5 26q37 0 61 -26z" />
    <glyph glyph-name="at" unicode="@" horiz-adv-x="847" 
d="M513.5 490.5q39.5 -11.5 71.5 -33.5v-247q0 -66 7 -88.5t26 -22.5q61 0 61 214q0 139 -59.5 213.5t-181.5 74.5q-129 0 -198.5 -96.5t-69.5 -262.5q0 -176 67.5 -264.5t201.5 -88.5q43 0 85.5 9t76.5 24l34 -101q-42 -19 -93.5 -30.5t-104.5 -11.5q-124 0 -214 56
t-137.5 160t-47.5 247q0 135 51.5 241.5t142.5 166t205 59.5q115 0 199 -53t128.5 -143t44.5 -198q0 -89 -24 -159.5t-66.5 -110.5t-94.5 -40q-45 0 -74.5 28t-36.5 68q-16 -43 -46 -68t-74 -25q-74 0 -112.5 59.5t-38.5 165.5q0 127 50 198t143 71q39 0 78.5 -11.5z
M460 136v267q-13 6 -31 6q-20 0 -31.5 -15t-17 -53.5t-5.5 -108.5q0 -53 4 -81t12.5 -39t23.5 -11q25 0 45 35z" />
    <glyph glyph-name="A" unicode="A" horiz-adv-x="506" 
d="M356 0l-28 152h-154l-27 -152h-156l168 693h188l168 -693h-159zM195 265h113l-57 313z" />
    <glyph glyph-name="B" unicode="B" horiz-adv-x="513" 
d="M460 313.5q38 -38.5 38 -112.5q0 -104 -70 -152.5t-191 -48.5h-191v693h169q123 0 191 -44.5t68 -132.5q0 -59 -32 -96.5t-84 -52.5q64 -15 102 -53.5zM203 582v-168h30q45 0 64 22t19 65q0 40 -20.5 60.5t-65.5 20.5h-27zM313 136.5q25 22.5 25 73.5q0 50 -23 74.5
t-73 24.5h-39v-195h36q49 0 74 22.5z" />
    <glyph glyph-name="C" unicode="C" horiz-adv-x="484" 
d="M392.5 691q44.5 -19 83.5 -57l-73 -86q-25 22 -48.5 33.5t-50.5 11.5q-55 0 -84 -56.5t-29 -188.5q0 -129 29.5 -186t84.5 -57q30 0 52 12t54 38l71 -84q-36 -39 -84 -63.5t-107 -24.5q-120 0 -191.5 92t-71.5 273q0 119 33.5 200t93.5 121.5t138 40.5q55 0 99.5 -19z
" />
    <glyph glyph-name="D" unicode="D" horiz-adv-x="549" 
d="M375.5 666.5q64.5 -26.5 105 -102t40.5 -214.5q0 -195 -78.5 -272.5t-210.5 -77.5h-186v693h175q90 0 154.5 -26.5zM203 580v-466h38q40 0 65.5 20.5t39.5 72t14 143.5q0 93 -14.5 143t-40 68.5t-64.5 18.5h-38z" />
    <glyph glyph-name="E" unicode="E" horiz-adv-x="432" 
d="M412 693l-16 -112h-193v-174h170v-110h-170v-183h206v-114h-363v693h366z" />
    <glyph glyph-name="F" unicode="F" horiz-adv-x="404" 
d="M46 0v693h354l-16 -112h-181v-190h159v-113h-159v-278h-157z" />
    <glyph glyph-name="G" unicode="G" horiz-adv-x="545" 
d="M508 626l-75 -79q-31 26 -56.5 37.5t-58.5 11.5q-64 0 -96 -55t-32 -194q0 -98 11 -152t33 -75t58 -21q37 0 69 21v166h-66l-15 111h229v-342q-45 -33 -102 -52t-112 -19q-137 0 -202 88t-65 275q0 121 36.5 202.5t100.5 121t146 39.5q113 0 197 -84z" />
    <glyph glyph-name="H" unicode="H" horiz-adv-x="551" 
d="M348 0v299h-145v-299h-157v693h157v-271h145v271h157v-693h-157z" />
    <glyph glyph-name="I" unicode="I" horiz-adv-x="250" 
d="M203 693v-693h-157v693h157z" />
    <glyph glyph-name="J" unicode="J" horiz-adv-x="267" 
d="M223 104q0 -80 -27 -133t-69 -83.5t-101 -53.5l-41 110q36 18 53 38.5t22.5 49t5.5 78.5v583h157v-589z" />
    <glyph glyph-name="K" unicode="K" horiz-adv-x="540" 
d="M203 693v-693h-157v693h157zM537 693l-172 -312l187 -381h-171l-173 370l174 323h155z" />
    <glyph glyph-name="L" unicode="L" horiz-adv-x="426" 
d="M203 693v-569h218l-16 -124h-359v693h157z" />
    <glyph glyph-name="M" unicode="M" horiz-adv-x="667" 
d="M640 0h-148l-6 275q-3 95 -3 185q0 63 1 93l-77 -479h-147l-81 480q2 -56 2 -156q0 -81 -1 -125l-6 -273h-147l42 693h194l73 -474l66 474h197z" />
    <glyph glyph-name="N" unicode="N" horiz-adv-x="547" 
d="M501 0h-194l-146 549q10 -87 15 -145.5t5 -141.5v-262h-135v693h194l146 -549q-21 138 -21 259v290h136v-693z" />
    <glyph glyph-name="O" unicode="O" horiz-adv-x="581" 
d="M485.5 619.5q67.5 -90.5 67.5 -272.5q0 -180 -68 -272t-195 -92t-194.5 90.5t-67.5 273.5q0 180 67.5 271.5t194.5 91.5q128 0 195.5 -90.5zM214.5 538.5q-23.5 -56.5 -23.5 -191.5q0 -94 10.5 -148t32 -77.5t56.5 -23.5q36 0 57.5 23t32 77.5t10.5 148.5
q0 136 -23.5 192t-76.5 56q-52 0 -75.5 -56.5z" />
    <glyph glyph-name="P" unicode="P" horiz-adv-x="499" 
d="M421 636q68 -57 68 -168q0 -116 -65 -175.5t-184 -59.5h-37v-233h-157v693h178q129 0 197 -57zM304.5 374.5q23.5 27.5 23.5 93.5q0 58 -22.5 85.5t-76.5 27.5h-26v-234h24q54 0 77.5 27.5z" />
    <glyph glyph-name="Q" unicode="Q" horiz-adv-x="581" 
d="M514.5 27q41.5 -16 79.5 -52l-94 -118q-42 61 -94 95.5t-126 34.5q-119 0 -185.5 92t-66.5 268q0 178 68 270.5t194 92.5q128 0 195.5 -91.5t67.5 -271.5q0 -122 -38 -192t-103 -111q61 -1 102.5 -17zM201.5 199.5q10.5 -54.5 32 -77.5t56.5 -23q36 0 57.5 23t32 77
t10.5 148q0 93 -10.5 147t-32.5 77.5t-57 23.5t-56.5 -23.5t-32 -77.5t-10.5 -147t10.5 -147.5z" />
    <glyph glyph-name="R" unicode="R" horiz-adv-x="517" 
d="M359 0l-113 267h-5h-38v-267h-157v693h185q258 0 258 -210q0 -61 -25.5 -110t-79.5 -76l142 -297h-167zM235 376q50 0 72 25.5t22 81.5q0 51 -23.5 75t-75.5 24h-27v-206h32z" />
    <glyph glyph-name="S" unicode="S" horiz-adv-x="477" 
d="M355.5 688q49.5 -22 90.5 -66l-69 -82q-60 55 -119 55q-34 0 -53 -20t-19 -53q0 -32 22 -52.5t85 -47.5q58 -26 94 -53.5t54.5 -67.5t18.5 -99q0 -63 -28.5 -113t-81.5 -78t-124 -28q-74 0 -128 26t-97 72l75 83q36 -32 68.5 -48.5t69.5 -16.5q41 0 62 24.5t21 66.5
q0 38 -21 62.5t-76 46.5q-96 40 -136 88.5t-40 122.5q0 59 28 104.5t77.5 70.5t111.5 25q65 0 114.5 -22z" />
    <glyph glyph-name="T" unicode="T" horiz-adv-x="450" 
d="M452 693l-16 -120h-133v-573h-157v573h-141v120h447z" />
    <glyph glyph-name="U" unicode="U" horiz-adv-x="536" 
d="M500 200q0 -62 -26 -110.5t-78 -77t-128 -28.5q-114 0 -173 59t-59 157v493h157v-486q0 -54 17.5 -80t57.5 -26t57.5 26t17.5 80v486h157v-493z" />
    <glyph glyph-name="V" unicode="V" horiz-adv-x="488" 
d="M497 693l-148 -693h-202l-156 693h157l102 -569l94 569h153z" />
    <glyph glyph-name="W" unicode="W" horiz-adv-x="712" 
d="M704 693l-87 -693h-205l-57 537l-63 -537h-200l-84 693h150l50 -573l68 573h162l64 -573l58 573h144z" />
    <glyph glyph-name="X" unicode="X" horiz-adv-x="489" 
d="M335 374l161 -374h-164l-91 270l-86 -270h-162l155 368l-144 325h164l75 -228l80 228h160z" />
    <glyph glyph-name="Y" unicode="Y" horiz-adv-x="500" 
d="M511 693l-182 -432v-261h-157v260l-182 433h164l98 -310l100 310h159z" />
    <glyph glyph-name="Z" unicode="Z" horiz-adv-x="450" 
d="M432 693v-119l-251 -448h256l-15 -126h-412v117l250 454h-226v122h398z" />
    <glyph glyph-name="bracketleft" unicode="[" horiz-adv-x="271" 
d="M257 822v-112h-94v-721h94v-111h-236v944h236z" />
    <glyph glyph-name="backslash" unicode="\" horiz-adv-x="426" 
d="M177 814l200 -896l-128 -29l-199 896z" />
    <glyph glyph-name="bracketright" unicode="]" horiz-adv-x="271" 
d="M249 822v-944h-235v111h94v722h-94v111h235z" />
    <glyph glyph-name="asciicircum" unicode="^" horiz-adv-x="470" 
d="M304 843l155 -316h-146l-80 202l-75 -202h-147l155 316h138z" />
    <glyph glyph-name="underscore" unicode="_" horiz-adv-x="432" 
d="M9 -168v119h415v-119h-415z" />
    <glyph glyph-name="grave" unicode="`" horiz-adv-x="302" 
d="M94 825l183 -128l-41 -73l-201 94z" />
    <glyph glyph-name="a" unicode="a" horiz-adv-x="457" 
d="M416 104q6 -12 21 -19l-31 -99q-43 4 -70.5 20.5t-42.5 51.5q-46 -75 -131 -75q-66 0 -105 45.5t-39 120.5q0 87 54 132.5t158 45.5h32v28q0 48 -14.5 66.5t-51.5 18.5q-46 0 -114 -27l-34 96q41 19 87.5 29t88.5 10q94 0 140 -45.5t46 -139.5v-222q0 -25 6 -37zM239 103
q14 13 23 37v103h-18q-41 0 -59.5 -19.5t-18.5 -61.5q0 -35 11 -53.5t31 -18.5q17 0 31 13z" />
    <glyph glyph-name="b" unicode="b" horiz-adv-x="499" 
d="M432.5 477q40.5 -71 40.5 -212q0 -131 -46.5 -206.5t-128.5 -75.5q-35 0 -63.5 17t-48.5 48l-7 -48h-134v742l151 16v-276q21 31 51.5 48.5t66.5 17.5q78 0 118.5 -71zM301.5 131q16.5 38 16.5 134q0 101 -14.5 136.5t-41.5 35.5q-36 0 -66 -57v-240q24 -47 58 -47
q31 0 47.5 38z" />
    <glyph glyph-name="c" unicode="c" horiz-adv-x="401" 
d="M335 532q37 -16 69 -49l-62 -83q-41 33 -78 33q-41 0 -61 -37.5t-20 -133.5q0 -91 21 -126t59 -35q20 0 37 7t39 24l65 -87q-65 -62 -150 -62q-108 0 -168 70.5t-60 207.5q0 89 27.5 153.5t78.5 99t120 34.5q46 0 83 -16z" />
    <glyph glyph-name="d" unicode="d" horiz-adv-x="500" 
d="M456 742v-742h-135l-5 56q-23 -34 -52 -53.5t-70 -19.5q-82 0 -125 73.5t-43 209.5q0 85 23 149t64 98.5t93 34.5q60 0 99 -49v259zM305 146v248q-13 22 -26 32.5t-30 10.5q-68 0 -68 -171q0 -97 16.5 -134.5t45.5 -37.5q35 0 62 52z" />
    <glyph glyph-name="e" unicode="e" horiz-adv-x="470" 
d="M446 221h-270q5 -72 26.5 -99.5t62.5 -27.5q27 0 52 10.5t54 32.5l62 -82q-74 -72 -179 -72q-112 0 -170 73.5t-58 205.5t55.5 209t158.5 77q98 0 153.5 -69.5t55.5 -202.5q0 -32 -3 -55zM302 319q0 68 -13.5 98.5t-47.5 30.5q-30 0 -45.5 -29.5t-19.5 -106.5h126v7z" />
    <glyph glyph-name="f" unicode="f" horiz-adv-x="306" 
d="M215 591v-60h97l-17 -106h-80v-425h-151v425h-60v106h60v54q0 79 46 126t132 47q68 0 127 -32l-40 -96q-34 17 -64 17q-50 0 -50 -56z" />
    <glyph glyph-name="g" unicode="g" horiz-adv-x="454" 
d="M460 501q-37 -20 -124 -20q44 -20 65 -53.5t21 -84.5q0 -79 -51.5 -128t-140.5 -49q-28 0 -48 6q-16 -11 -16 -34q0 -17 10.5 -26t38.5 -9h54q86 0 134.5 -42t48.5 -108q0 -79 -61.5 -126.5t-175.5 -47.5q-123 0 -170 43t-47 127h134q0 -38 17.5 -54.5t66.5 -16.5
q86 0 86 64q0 29 -16.5 43.5t-50.5 14.5h-40q-79 0 -115 27.5t-36 75.5q0 29 15 54.5t41 43.5q-43 27 -62.5 63t-19.5 90q0 90 55 141t150 51q63 0 106.5 16t93.5 47zM180.5 426.5q-14.5 -21.5 -14.5 -70.5q0 -93 57 -93q28 0 42 21t14 74q0 48 -13.5 69t-41.5 21
q-29 0 -43.5 -21.5z" />
    <glyph glyph-name="h" unicode="h" horiz-adv-x="480" 
d="M406.5 507q32.5 -41 32.5 -110v-397h-151v381q0 52 -29 52t-63 -64v-369h-151v742l151 16v-283q25 38 54 55.5t67 17.5q57 0 89.5 -41z" />
    <glyph glyph-name="i" unicode="i" horiz-adv-x="240" 
d="M196 531v-531h-151v531h151zM181.5 782.5q23.5 -24.5 23.5 -62.5q0 -37 -24 -61.5t-62 -24.5t-62 24.5t-24 61.5q0 38 24 62.5t62 24.5q39 0 62.5 -24.5z" />
    <glyph glyph-name="j" unicode="j" horiz-adv-x="240" 
d="M196 38q0 -104 -49.5 -161t-141.5 -97l-51 109q32 19 50.5 36t29.5 43.5t11 67.5v495h151v-493zM181.5 782.5q23.5 -24.5 23.5 -62.5q0 -37 -24 -61.5t-62 -24.5t-62 24.5t-24 61.5q0 38 24 62.5t62 24.5q39 0 62.5 -24.5z" />
    <glyph glyph-name="k" unicode="k" horiz-adv-x="474" 
d="M196 758v-758h-151v742zM473 531l-126 -234l134 -297h-159l-123 290l130 241h144z" />
    <glyph glyph-name="l" unicode="l" horiz-adv-x="254" 
d="M75 20q-35 37 -35 101v621l151 16v-630q0 -25 21 -25q6 0 18 3l27 -104q-16 -8 -38 -13.5t-46 -5.5q-63 0 -98 37z" />
    <glyph glyph-name="m" unicode="m" horiz-adv-x="698" 
d="M625.5 507q31.5 -41 31.5 -110v-397h-148v382q0 27 -7 39.5t-21 12.5q-28 0 -57 -59v-375h-146v382q0 52 -28 52q-29 0 -58 -59v-375h-147v531h131l9 -64q51 81 125 81q36 0 62.5 -22t40.5 -63q52 85 128 85q53 0 84.5 -41z" />
    <glyph glyph-name="n" unicode="n" horiz-adv-x="480" 
d="M406.5 507q32.5 -41 32.5 -110v-397h-151v381q0 52 -29 52t-63 -64v-369h-151v531h131l11 -63q26 40 57 60t73 20q57 0 89.5 -41z" />
    <glyph glyph-name="o" unicode="o" horiz-adv-x="494" 
d="M409.5 477q58.5 -71 58.5 -212q0 -135 -58.5 -208.5t-162.5 -73.5t-162.5 71.5t-58.5 211.5q0 137 58.5 209.5t162.5 72.5t162.5 -71zM196.5 397.5q-15.5 -38.5 -15.5 -131.5q0 -96 15.5 -134t50.5 -38t50.5 38.5t15.5 132.5q0 95 -15.5 133t-50.5 38t-50.5 -38.5z" />
    <glyph glyph-name="p" unicode="p" horiz-adv-x="499" 
d="M432 475.5q41 -72.5 41 -208.5q0 -86 -21.5 -150.5t-60.5 -99t-92 -34.5q-62 0 -103 53v-241l-151 -16v752h134l6 -58q26 39 57 57t71 18q78 0 119 -72.5zM301.5 134q16.5 39 16.5 131q0 99 -14 135.5t-43 36.5q-36 0 -65 -56v-245q25 -41 59 -41q30 0 46.5 39z" />
    <glyph glyph-name="q" unicode="q" horiz-adv-x="500" 
d="M456 531v-752l-151 16v251q-41 -63 -112 -63q-80 0 -123.5 73.5t-43.5 209.5q0 86 22.5 150t63.5 98t95 34q65 0 111 -62l6 45h132zM305 148v245q-14 22 -27.5 33t-29.5 11q-30 0 -48.5 -40t-18.5 -131q0 -99 16 -135.5t45 -36.5q37 0 63 54z" />
    <glyph glyph-name="r" unicode="r" horiz-adv-x="338" 
d="M344 538l-25 -145q-18 6 -37 6q-37 0 -55.5 -28.5t-30.5 -85.5v-285h-151v531h131l11 -87q38 102 115 102q21 0 42 -8z" />
    <glyph glyph-name="s" unicode="s" horiz-adv-x="402" 
d="M299 531q43 -17 75 -48l-55 -81q-55 38 -99 38q-24 0 -37.5 -12t-13.5 -33q0 -23 17 -37.5t73 -37.5q67 -28 99 -65t32 -99q0 -80 -56.5 -126.5t-146.5 -46.5q-56 0 -105 20.5t-84 57.5l71 78q60 -49 110 -49q27 0 42.5 14t15.5 39q0 28 -17.5 44.5t-71.5 38.5
q-68 28 -98 64.5t-30 93.5q0 72 50 118t137 46q49 0 92 -17z" />
    <glyph glyph-name="t" unicode="t" horiz-adv-x="325" 
d="M336 25q-25 -21 -58 -31.5t-67 -10.5q-77 0 -116 44t-39 118v280h-55v106h55v116l151 17v-133h99l-16 -106h-83v-279q0 -43 36 -43q20 0 43 14z" />
    <glyph glyph-name="u" unicode="u" horiz-adv-x="476" 
d="M431 0h-132l-6 61q-48 -78 -127 -78q-58 0 -91.5 42t-33.5 111v395h151v-389q0 -23 8 -35t23 -12q32 0 57 56v380h151v-531z" />
    <glyph glyph-name="v" unicode="v" horiz-adv-x="436" 
d="M441 531l-132 -531h-178l-136 531h154l71 -416l75 416h146z" />
    <glyph glyph-name="w" unicode="w" horiz-adv-x="639" 
d="M633 531l-88 -531h-176l-50 395l-49 -395h-175l-89 531h145l40 -417l59 417h143l56 -417l43 417h141z" />
    <glyph glyph-name="x" unicode="x" horiz-adv-x="435" 
d="M306 284l139 -284h-158l-73 202l-69 -202h-155l137 279l-125 252h156l58 -174l55 174h151z" />
    <glyph glyph-name="y" unicode="y" horiz-adv-x="442" 
d="M310 -1q-52 -205 -262 -220l-16 104q63 11 95.5 36.5t50.5 80.5h-56l-127 531h152l70 -434l82 434h149z" />
    <glyph glyph-name="z" unicode="z" horiz-adv-x="385" 
d="M371 531v-107l-198 -309h202l-12 -115h-354v107l198 310h-181v114h345z" />
    <glyph glyph-name="braceleft" unicode="{" horiz-adv-x="267" 
d="M254 734q-34 0 -46 -12t-12 -46v-194q0 -63 -21.5 -91.5t-71.5 -41.5q49 -11 71.5 -39.5t22.5 -91.5v-194q0 -34 12 -46t45 -12v-105q-78 0 -120 18t-58.5 52.5t-16.5 91.5v192q0 40 -10.5 56.5t-41.5 16.5v124q31 0 41.5 16.5t10.5 56.5v192q0 57 16 91.5t58.5 52.5
t120.5 18v-105z" />
    <glyph glyph-name="bar" unicode="|" horiz-adv-x="299" 
d="M220 810v-915h-141v915h141z" />
    <glyph glyph-name="braceright" unicode="}" horiz-adv-x="267" 
d="M133.5 821q42.5 -18 59 -52.5t16.5 -91.5v-192q0 -41 10.5 -57t40.5 -16v-124q-30 0 -40.5 -16t-10.5 -57v-192q0 -57 -16.5 -91.5t-59 -52.5t-120.5 -18v105q34 0 46 12t12 46v194q0 62 22 90t72 41q-51 14 -72.5 42t-21.5 91v194q0 34 -12 46t-45 12l-1 105
q78 0 120.5 -18z" />
    <glyph glyph-name="asciitilde" unicode="~" horiz-adv-x="441" 
d="M246.5 246.5q-19.5 8.5 -45.5 24.5q-19 12 -30.5 17.5t-24.5 5.5q-18 0 -30 -12t-29 -38l-74 40q25 54 57.5 86.5t80.5 32.5q26 0 45.5 -8.5t43.5 -24.5q17 -12 29 -17.5t25 -5.5q17 0 29.5 11.5t28.5 35.5l76 -39q-25 -53 -57.5 -85t-78.5 -32q-26 0 -45.5 8.5z" />
    <glyph glyph-name="uni00A0" unicode="&#xa0;" horiz-adv-x="185" 
 />
    <glyph glyph-name="exclamdown" unicode="&#xa1;" horiz-adv-x="221" 
d="M172 481.5q24 -25.5 24 -61.5t-24 -61.5t-61 -25.5q-38 0 -62 25.5t-24 61.5t24 61.5t62 25.5q37 0 61 -25.5zM169 238l21 -448h-158l20 448h117z" />
    <glyph glyph-name="cent" unicode="&#xa2;" horiz-adv-x="401" 
d="M404 45q-51 -49 -115 -59v-147h-105v153q-76 21 -117 89t-41 180q0 111 42 183t117 95v152h104v-146q65 -10 115 -62l-62 -83q-41 33 -78 33q-41 0 -61 -37.5t-20 -133.5q0 -91 21 -126t59 -35q20 0 37 7t39 24z" />
    <glyph glyph-name="sterling" unicode="&#xa3;" horiz-adv-x="452" 
d="M222.5 165q-12.5 -27 -50.5 -50h257l-17 -115h-393v110q31 11 45.5 25.5t18.5 35t4 58.5v83h-56v80h56v102q0 86 48 141t136 55q113 0 174 -98l-88 -64q-18 26 -33.5 37.5t-34.5 11.5q-28 0 -41 -20t-13 -61v-104h144v-80h-144v-73q0 -47 -12.5 -74z" />
    <glyph glyph-name="currency" unicode="&#xa4;" 
d="M386 79l-60 75q-44 -28 -97 -28t-97 28l-62 -75l-67 59l71 84q-27 52 -27 120q0 69 26 119l-71 86l72 58l60 -76q42 28 95 28q56 0 97 -29l63 77l67 -59l-70 -84q27 -52 27 -120q0 -69 -26 -119l71 -87zM283 252q17 27 17 90t-17 90t-53 27q-37 0 -54.5 -27.5
t-17.5 -89.5t17.5 -89.5t54.5 -27.5q36 0 53 27z" />
    <glyph glyph-name="yen" unicode="&#xa5;" horiz-adv-x="476" 
d="M486 676l-145 -325h80v-80h-108v-73h108v-80h-108v-118h-149v118h-106v80h106v73h-106v80h78l-146 325h150l100 -284l98 284h148z" />
    <glyph glyph-name="brokenbar" unicode="&#xa6;" horiz-adv-x="299" 
d="M220 810v-367h-141v367h141zM220 262v-367h-141v367h141z" />
    <glyph glyph-name="section" unicode="&#xa7;" horiz-adv-x="457" 
d="M388.5 137q11.5 -24 11.5 -57q0 -73 -52 -117.5t-137 -44.5q-97 0 -167 54l51 85q27 -18 52.5 -26t54.5 -8q28 0 43 12t15 36q0 18 -7 29t-27.5 22.5t-63.5 28.5q-65 26 -94.5 57.5t-29.5 88.5q0 40 18.5 71.5t50.5 52.5q-25 21 -36.5 47.5t-11.5 61.5q0 45 22.5 81.5
t64.5 57t98 20.5q93 0 165 -56l-50 -83q-50 34 -102 34q-29 0 -44 -13t-15 -36q0 -18 7 -29.5t27 -23t63 -28.5q61 -25 92.5 -57.5t31.5 -87.5q0 -79 -69 -128q27 -20 38.5 -44zM275 225q18 28 18 58q0 29 -17 46t-64 36l-34 14q-14 -26 -14 -55t13.5 -46t51.5 -33z" />
    <glyph glyph-name="dieresis" unicode="&#xa8;" horiz-adv-x="405" 
d="M163 773q21 -22 21 -54q0 -33 -20.5 -54.5t-53.5 -21.5q-32 0 -53.5 22t-21.5 54t21.5 54t53.5 22t53 -22zM359 773q21 -22 21 -54q0 -33 -20.5 -54.5t-53.5 -21.5q-31 0 -52.5 22t-21.5 54t21.5 54t52.5 22q32 0 53 -22z" />
    <glyph glyph-name="copyright" unicode="&#xa9;" horiz-adv-x="664" 
d="M477.5 723q64.5 -41 102 -116.5t37.5 -174.5q0 -98 -37.5 -173t-102 -116t-144.5 -41t-145 41t-103 116t-38 173q0 99 38 174.5t103 116.5t145 41t144.5 -41zM229.5 656.5q-45.5 -30.5 -71 -88t-25.5 -136.5t25.5 -136.5t71 -87.5t103.5 -30q57 0 102.5 30t71 87.5
t25.5 136.5t-25.5 136.5t-71 88t-102.5 30.5q-58 0 -103.5 -30.5zM446 580l-42 -57q-17 13 -30 18t-28 5q-25 0 -40.5 -27t-15.5 -86q0 -111 59 -111q17 0 29.5 6t28.5 20l42 -59q-50 -52 -114 -52q-69 0 -108.5 51t-39.5 145q0 92 41 144t110 52q62 0 108 -49z" />
    <glyph glyph-name="ordfeminine" unicode="&#xaa;" horiz-adv-x="418" 
d="M226 528v16q0 30 -10 41t-37 11q-34 0 -91 -20l-30 87q31 15 69.5 22.5t74.5 7.5q154 0 154 -135v-165q0 -15 4.5 -24t15.5 -13l-27 -88q-69 5 -97 51q-35 -54 -99 -54q-54 0 -87 35t-33 91q0 67 43.5 102t125.5 35h24zM226 383v74h-14q-29 0 -40 -12.5t-11 -40.5
q0 -23 6.5 -34.5t22.5 -11.5q22 0 36 25zM36 116h350v-114h-350v114z" />
    <glyph glyph-name="guillemotleft" unicode="&#xab;" horiz-adv-x="557" 
d="M191 553l94 -60l-109 -208l109 -208l-94 -61l-160 220v96zM432 553l94 -60l-109 -208l109 -208l-94 -61l-160 220v96z" />
    <glyph glyph-name="logicalnot" unicode="&#xac;" horiz-adv-x="446" 
d="M411 385v-268h-123v154h-253v114h376z" />
    <glyph glyph-name="uni00AD" unicode="&#xad;" horiz-adv-x="348" 
d="M38 254v118h273v-118h-273z" />
    <glyph glyph-name="registered" unicode="&#xae;" horiz-adv-x="521" 
d="M380.5 724q52.5 -34 82.5 -96t30 -143q0 -80 -30 -141.5t-82.5 -95t-118.5 -33.5q-67 0 -120 33.5t-83 95t-30 141.5q0 81 30 143t83 96t120 34q66 0 118.5 -34zM378 333q44 54 44 152q0 99 -44 154t-116 55t-117.5 -55.5t-45.5 -153.5q0 -97 45 -151.5t118 -54.5
q72 0 116 54zM371 353h-72l-45 103h-19v-103h-63v281h71q55 0 84 -22.5t29 -66.5q0 -25 -12.5 -43.5t-32.5 -29.5zM235 512h24q15 0 23.5 9t8.5 27q0 34 -33 34h-23v-70z" />
    <glyph glyph-name="macron" unicode="&#xaf;" horiz-adv-x="320" 
d="M295 658h-260v102h260v-102z" />
    <glyph glyph-name="degree" unicode="&#xb0;" horiz-adv-x="426" 
d="M104 390.5q-34 19.5 -55 58t-21 92.5t21 92.5t55 57.5t74 19t74.5 -19t55.5 -57.5t21 -92.5t-21 -92.5t-55.5 -58t-74.5 -19.5t-74 19.5zM216.5 479q12.5 19 12.5 62t-12.5 62t-38.5 19q-52 0 -52 -81t52 -81q26 0 38.5 19z" />
    <glyph glyph-name="plusminus" unicode="&#xb1;" horiz-adv-x="446" 
d="M42 0v114h361v-114h-361zM284 614v-152h127v-117h-127v-152h-122v152h-127v117h127v152h122z" />
    <glyph glyph-name="uni00B2" unicode="&#xb2;" horiz-adv-x="336" 
d="M261.5 715q36.5 -36 36.5 -89q0 -32 -11 -60t-41.5 -65.5t-90.5 -94.5h150l-11 -85h-253v79q63 71 92 107.5t41 61.5t12 51q0 22 -10 34t-28 12q-17 0 -31.5 -9.5t-31.5 -29.5l-60 48q52 76 138 76q62 0 98.5 -36z" />
    <glyph glyph-name="uni00B3" unicode="&#xb3;" horiz-adv-x="336" 
d="M259.5 720q34.5 -32 34.5 -80q0 -37 -20 -61.5t-66 -35.5q47 -3 73.5 -28.5t26.5 -73.5q0 -56 -39 -94t-111 -38q-88 0 -138 67l57 53q19 -18 35.5 -26.5t35.5 -8.5q22 0 35 14.5t13 41.5q0 28 -14.5 40.5t-44.5 12.5h-26l13 75h16q50 0 50 47q0 46 -43 46q-33 0 -69 -33
l-51 54q55 60 136 60q62 0 96.5 -32z" />
    <glyph glyph-name="acute" unicode="&#xb4;" horiz-adv-x="302" 
d="M218 825l59 -107l-201 -94l-41 73z" />
    <glyph glyph-name="uni00B5" unicode="&#xb5;" horiz-adv-x="482" 
d="M315 -16q-14 39 -19 82q-16 -35 -37.5 -54.5t-46.5 -19.5q-19 0 -35 9.5t-31 33.5q21 -38 30.5 -69.5t9.5 -82.5v-88l-141 -14v750h151v-378q0 -28 8 -39.5t23 -11.5q32 0 56 60v369h151v-349q0 -102 19 -182z" />
    <glyph glyph-name="paragraph" unicode="&#xb6;" horiz-adv-x="664" 
d="M578 693v-898l-131 -17v810h-70v-793l-130 -17v487q-97 3 -149 61.5t-52 153.5q0 101 58.5 157t169.5 56h304z" />
    <glyph glyph-name="periodcentered" unicode="&#xb7;" horiz-adv-x="220" 
d="M171 369q24 -26 24 -62t-24 -61.5t-61 -25.5q-38 0 -61.5 25.5t-23.5 61.5t23.5 62t61.5 26q37 0 61 -26z" />
    <glyph glyph-name="cedilla" unicode="&#xb8;" horiz-adv-x="288" 
d="M176 -53q87 -14 87 -95q0 -50 -34 -80.5t-95 -30.5q-58 0 -99 29l34 66q26 -13 54 -13q35 0 35 31q0 19 -18 27t-58 8l13 127h81v-69z" />
    <glyph glyph-name="uni00B9" unicode="&#xb9;" horiz-adv-x="336" 
d="M254 742v-421h-108v315l-74 -52l-48 69l131 89h99z" />
    <glyph glyph-name="ordmasculine" unicode="&#xba;" horiz-adv-x="421" 
d="M344 639.5q48 -53.5 48 -160.5q0 -103 -48 -158.5t-133 -55.5q-86 0 -134 54t-48 161q0 103 48 158t133 55q86 0 134 -53.5zM174 572q-11 -24 -11 -92q0 -70 10.5 -94t36.5 -24q25 0 36.5 24.5t11.5 92.5q0 48 -5 73.5t-15 34.5t-28 9q-25 0 -36 -24zM30 0v114h361v-114
h-361z" />
    <glyph glyph-name="guillemotright" unicode="&#xbb;" horiz-adv-x="557" 
d="M125 553l160 -221v-96l-160 -220l-94 61l110 208l-110 208zM366 553l160 -221v-96l-160 -220l-94 61l110 208l-110 208z" />
    <glyph glyph-name="onequarter" unicode="&#xbc;" horiz-adv-x="822" 
d="M254 693v-421h-108v315l-74 -52l-48 69l131 89h99zM535 758l88 -38l-336 -804l-88 37zM803 167v-82h-37v-85h-99l-1 85h-161v76l96 270l92 -35l-81 -229h56l22 98h76v-98h37z" />
    <glyph glyph-name="onehalf" unicode="&#xbd;" horiz-adv-x="822" 
d="M254 693v-421h-108v315l-74 -52l-48 69l131 89h99zM535 758l88 -38l-336 -804l-88 37zM747.5 394q36.5 -36 36.5 -89q0 -32 -11 -60t-41.5 -65.5t-90.5 -94.5h150l-11 -85h-253v79q63 71 92 107.5t41 61.5t12 51q0 22 -10 34t-28 12q-17 0 -31.5 -9.5t-31.5 -29.5l-60 48
q52 76 138 76q62 0 98.5 -36z" />
    <glyph glyph-name="threequarters" unicode="&#xbe;" horiz-adv-x="822" 
d="M259.5 671q34.5 -32 34.5 -80q0 -37 -20 -61.5t-66 -35.5q47 -3 73.5 -28.5t26.5 -73.5q0 -56 -39 -94t-111 -38q-88 0 -138 67l57 53q19 -18 35.5 -26.5t35.5 -8.5q22 0 35 14.5t13 41.5q0 28 -14.5 40.5t-44.5 12.5h-26l13 75h16q50 0 50 47q0 46 -43 46q-33 0 -69 -33
l-51 54q55 60 136 60q62 0 96.5 -32zM535 758l88 -38l-336 -804l-88 37zM803 167v-82h-37v-85h-99l-1 85h-161v76l96 270l92 -35l-81 -229h56l22 98h76v-98h37z" />
    <glyph glyph-name="questiondown" unicode="&#xbf;" horiz-adv-x="412" 
d="M164 358q-24 26 -24 62t24 61.5t62 25.5q37 0 61 -25.5t24 -61.5t-24 -62t-61 -26q-38 0 -62 26zM97.5 -200q-42.5 23 -64 61.5t-21.5 82.5q0 39 11 66.5t26.5 45t42.5 41.5q34 29 50.5 53t16.5 62v24h135v-30q0 -45 -11 -75.5t-26 -48.5t-39 -39q-26 -23 -39 -42
t-13 -49q0 -27 14 -41.5t38 -14.5t46 13.5t47 42.5l89 -69q-75 -106 -200 -106q-60 0 -102.5 23z" />
    <glyph glyph-name="Agrave" unicode="&#xc0;" horiz-adv-x="506" 
d="M356 0l-28 152h-154l-27 -152h-156l168 693h188l168 -693h-159zM195 265h113l-57 313zM188 944l184 -119l-38 -74l-203 84z" />
    <glyph glyph-name="Aacute" unicode="&#xc1;" horiz-adv-x="506" 
d="M356 0l-28 152h-154l-27 -152h-156l168 693h188l168 -693h-159zM195 265h113l-57 313zM316 945l57 -109l-203 -85l-38 74z" />
    <glyph glyph-name="Acircumflex" unicode="&#xc2;" horiz-adv-x="506" 
d="M356 0l-28 152h-154l-27 -152h-156l168 693h188l168 -693h-159zM195 265h113l-57 313zM142 760l-52 54l118 131h90l118 -131l-52 -54l-111 83z" />
    <glyph glyph-name="Atilde" unicode="&#xc3;" horiz-adv-x="506" 
d="M356 0l-28 152h-154l-27 -152h-156l168 693h188l168 -693h-159zM195 265h113l-57 313zM271.5 774.5q-13.5 6.5 -30.5 17.5q-21 16 -35 16q-13 0 -22 -9.5t-21 -31.5l-70 33q16 50 45 80.5t66 30.5q18 0 31 -6t32 -18q11 -9 19 -13t17 -4q13 0 21.5 9.5t19.5 30.5l71 -32
q-16 -51 -45 -80.5t-66 -29.5q-19 0 -32.5 6.5z" />
    <glyph glyph-name="Adieresis" unicode="&#xc4;" horiz-adv-x="506" 
d="M356 0l-28 152h-154l-27 -152h-156l168 693h188l168 -693h-159zM195 265h113l-57 313zM213 899q21 -22 21 -54q0 -33 -20.5 -54.5t-53.5 -21.5q-32 0 -53.5 22t-21.5 54t21.5 54t53.5 22t53 -22zM409 899q21 -22 21 -54q0 -33 -20.5 -54.5t-53.5 -21.5q-31 0 -52.5 22
t-21.5 54t21.5 54t52.5 22q32 0 53 -22z" />
    <glyph glyph-name="Aring" unicode="&#xc5;" horiz-adv-x="506" 
d="M356 0l-28 152h-154l-27 -152h-156l168 693h188l168 -693h-159zM195 265h113l-57 313zM343 954.5q33 -35.5 33 -92.5q0 -58 -33 -94t-89 -36q-57 0 -89.5 36t-32.5 94q0 57 32.5 92.5t89.5 35.5q56 0 89 -35.5zM219 862q0 -29 9 -41.5t26 -12.5q36 0 36 54q0 53 -36 53
q-35 0 -35 -53z" />
    <glyph glyph-name="AE" unicode="&#xc6;" horiz-adv-x="703" 
d="M494 114h191v-114h-323l-18 152h-159l-39 -152h-166l222 693h453l-16 -112h-209l24 -175h194v-111h-179zM214 266h117l-37 312z" />
    <glyph glyph-name="Ccedilla" unicode="&#xc7;" horiz-adv-x="484" 
d="M413 15q-40 -23 -88 -30v-38q87 -14 87 -95q0 -50 -34 -80.5t-95 -30.5q-58 0 -99 29l34 66q26 -13 54 -13q35 0 35 31q0 19 -18 27t-58 8l10 98q-99 19 -156 110t-57 251q0 119 33.5 200t93.5 121.5t138 40.5q55 0 99.5 -19t83.5 -57l-73 -86q-25 22 -48.5 33.5
t-50.5 11.5q-55 0 -84 -56.5t-29 -188.5q0 -129 29.5 -186t84.5 -57q30 0 52 12t54 38l71 -84q-29 -33 -69 -56z" />
    <glyph glyph-name="Egrave" unicode="&#xc8;" horiz-adv-x="432" 
d="M412 693l-16 -112h-193v-174h170v-110h-170v-183h206v-114h-363v693h366zM165 944l184 -119l-38 -74l-203 84z" />
    <glyph glyph-name="Eacute" unicode="&#xc9;" horiz-adv-x="432" 
d="M412 693l-16 -112h-193v-174h170v-110h-170v-183h206v-114h-363v693h366zM293 945l57 -109l-203 -85l-38 74z" />
    <glyph glyph-name="Ecircumflex" unicode="&#xca;" horiz-adv-x="432" 
d="M412 693l-16 -112h-193v-174h170v-110h-170v-183h206v-114h-363v693h366zM119 760l-52 54l118 131h90l118 -131l-52 -54l-111 83z" />
    <glyph glyph-name="Edieresis" unicode="&#xcb;" horiz-adv-x="432" 
d="M412 693l-16 -112h-193v-174h170v-110h-170v-183h206v-114h-363v693h366zM190 899q21 -22 21 -54q0 -33 -20.5 -54.5t-53.5 -21.5q-32 0 -53.5 22t-21.5 54t21.5 54t53.5 22t53 -22zM386 899q21 -22 21 -54q0 -33 -20.5 -54.5t-53.5 -21.5q-31 0 -52.5 22t-21.5 54
t21.5 54t52.5 22q32 0 53 -22z" />
    <glyph glyph-name="Igrave" unicode="&#xcc;" horiz-adv-x="250" 
d="M203 693v-693h-157v693h157zM60 944l184 -119l-38 -74l-203 84z" />
    <glyph glyph-name="Iacute" unicode="&#xcd;" horiz-adv-x="250" 
d="M203 693v-693h-157v693h157zM188 945l57 -109l-203 -85l-38 74z" />
    <glyph glyph-name="Icircumflex" unicode="&#xce;" horiz-adv-x="250" 
d="M203 693v-693h-157v693h157zM14 760l-52 54l118 131h90l118 -131l-52 -54l-111 83z" />
    <glyph glyph-name="Idieresis" unicode="&#xcf;" horiz-adv-x="250" 
d="M203 693v-693h-157v693h157zM85 899q21 -22 21 -54q0 -33 -20.5 -54.5t-53.5 -21.5q-32 0 -53.5 22t-21.5 54t21.5 54t53.5 22t53 -22zM281 899q21 -22 21 -54q0 -33 -20.5 -54.5t-53.5 -21.5q-31 0 -52.5 22t-21.5 54t21.5 54t52.5 22q32 0 53 -22z" />
    <glyph glyph-name="Eth" unicode="&#xd0;" horiz-adv-x="566" 
d="M392.5 666.5q64.5 -26.5 105 -102t40.5 -214.5q0 -195 -78.5 -272.5t-210.5 -77.5h-186v305h-49v96h49v292h175q90 0 154.5 -26.5zM323.5 134.5q25.5 20.5 39.5 72t14 143.5q0 93 -14.5 143t-40 68.5t-64.5 18.5h-38v-179h85v-96h-85v-191h38q40 0 65.5 20.5z" />
    <glyph glyph-name="Ntilde" unicode="&#xd1;" horiz-adv-x="547" 
d="M501 0h-194l-146 549q10 -87 15 -145.5t5 -141.5v-262h-135v693h194l146 -549q-21 138 -21 259v290h136v-693zM293.5 774.5q-13.5 6.5 -30.5 17.5q-21 16 -35 16q-13 0 -22 -9.5t-21 -31.5l-70 33q16 50 45 80.5t66 30.5q18 0 31 -6t32 -18q11 -9 19 -13t17 -4
q13 0 21.5 9.5t19.5 30.5l71 -32q-16 -51 -45 -80.5t-66 -29.5q-19 0 -32.5 6.5z" />
    <glyph glyph-name="Ograve" unicode="&#xd2;" horiz-adv-x="581" 
d="M485.5 619.5q67.5 -90.5 67.5 -272.5q0 -180 -68 -272t-195 -92t-194.5 90.5t-67.5 273.5q0 180 67.5 271.5t194.5 91.5q128 0 195.5 -90.5zM214.5 538.5q-23.5 -56.5 -23.5 -191.5q0 -94 10.5 -148t32 -77.5t56.5 -23.5q36 0 57.5 23t32 77.5t10.5 148.5
q0 136 -23.5 192t-76.5 56q-52 0 -75.5 -56.5zM225 944l184 -119l-38 -74l-203 84z" />
    <glyph glyph-name="Oacute" unicode="&#xd3;" horiz-adv-x="581" 
d="M485.5 619.5q67.5 -90.5 67.5 -272.5q0 -180 -68 -272t-195 -92t-194.5 90.5t-67.5 273.5q0 180 67.5 271.5t194.5 91.5q128 0 195.5 -90.5zM214.5 538.5q-23.5 -56.5 -23.5 -191.5q0 -94 10.5 -148t32 -77.5t56.5 -23.5q36 0 57.5 23t32 77.5t10.5 148.5
q0 136 -23.5 192t-76.5 56q-52 0 -75.5 -56.5zM353 945l57 -109l-203 -85l-38 74z" />
    <glyph glyph-name="Ocircumflex" unicode="&#xd4;" horiz-adv-x="581" 
d="M485.5 619.5q67.5 -90.5 67.5 -272.5q0 -180 -68 -272t-195 -92t-194.5 90.5t-67.5 273.5q0 180 67.5 271.5t194.5 91.5q128 0 195.5 -90.5zM214.5 538.5q-23.5 -56.5 -23.5 -191.5q0 -94 10.5 -148t32 -77.5t56.5 -23.5q36 0 57.5 23t32 77.5t10.5 148.5
q0 136 -23.5 192t-76.5 56q-52 0 -75.5 -56.5zM179 760l-52 54l118 131h90l118 -131l-52 -54l-111 83z" />
    <glyph glyph-name="Otilde" unicode="&#xd5;" horiz-adv-x="581" 
d="M485.5 619.5q67.5 -90.5 67.5 -272.5q0 -180 -68 -272t-195 -92t-194.5 90.5t-67.5 273.5q0 180 67.5 271.5t194.5 91.5q128 0 195.5 -90.5zM214.5 538.5q-23.5 -56.5 -23.5 -191.5q0 -94 10.5 -148t32 -77.5t56.5 -23.5q36 0 57.5 23t32 77.5t10.5 148.5
q0 136 -23.5 192t-76.5 56q-52 0 -75.5 -56.5zM308.5 774.5q-13.5 6.5 -30.5 17.5q-21 16 -35 16q-13 0 -22 -9.5t-21 -31.5l-70 33q16 50 45 80.5t66 30.5q18 0 31 -6t32 -18q11 -9 19 -13t17 -4q13 0 21.5 9.5t19.5 30.5l71 -32q-16 -51 -45 -80.5t-66 -29.5
q-19 0 -32.5 6.5z" />
    <glyph glyph-name="Odieresis" unicode="&#xd6;" horiz-adv-x="581" 
d="M485.5 619.5q67.5 -90.5 67.5 -272.5q0 -180 -68 -272t-195 -92t-194.5 90.5t-67.5 273.5q0 180 67.5 271.5t194.5 91.5q128 0 195.5 -90.5zM214.5 538.5q-23.5 -56.5 -23.5 -191.5q0 -94 10.5 -148t32 -77.5t56.5 -23.5q36 0 57.5 23t32 77.5t10.5 148.5
q0 136 -23.5 192t-76.5 56q-52 0 -75.5 -56.5zM250 899q21 -22 21 -54q0 -33 -20.5 -54.5t-53.5 -21.5q-32 0 -53.5 22t-21.5 54t21.5 54t53.5 22t53 -22zM446 899q21 -22 21 -54q0 -33 -20.5 -54.5t-53.5 -21.5q-31 0 -52.5 22t-21.5 54t21.5 54t52.5 22q32 0 53 -22z" />
    <glyph glyph-name="multiply" unicode="&#xd7;" horiz-adv-x="432" 
d="M311 507l89 -70l-105 -131l105 -131l-89 -69l-96 126l-94 -126l-90 69l105 131l-105 131l90 70l94 -126z" />
    <glyph glyph-name="Oslash" unicode="&#xd8;" horiz-adv-x="581" 
d="M553 347q0 -180 -68 -271.5t-195 -91.5q-21 0 -31 1l-29 -118l-115 30l33 126q-120 82 -120 324q0 179 67.5 270.5t194.5 91.5q21 0 31 -1l30 119l116 -32l-34 -125q120 -82 120 -323zM227.5 573q-23.5 -24 -34.5 -78.5t-11 -147.5q0 -80 7 -130t21 -77l100 456
q-6 1 -20 1q-39 0 -62.5 -24zM391.5 471.5q-6.5 48.5 -20.5 76.5l-99 -451q6 -1 18 -1q40 0 63 23t33.5 77t11.5 151q0 76 -6.5 124.5z" />
    <glyph glyph-name="Ugrave" unicode="&#xd9;" horiz-adv-x="536" 
d="M500 200q0 -62 -26 -110.5t-78 -77t-128 -28.5q-114 0 -173 59t-59 157v493h157v-486q0 -54 17.5 -80t57.5 -26t57.5 26t17.5 80v486h157v-493zM203 944l184 -119l-38 -74l-203 84z" />
    <glyph glyph-name="Uacute" unicode="&#xda;" horiz-adv-x="536" 
d="M500 200q0 -62 -26 -110.5t-78 -77t-128 -28.5q-114 0 -173 59t-59 157v493h157v-486q0 -54 17.5 -80t57.5 -26t57.5 26t17.5 80v486h157v-493zM331 945l57 -109l-203 -85l-38 74z" />
    <glyph glyph-name="Ucircumflex" unicode="&#xdb;" horiz-adv-x="536" 
d="M500 200q0 -62 -26 -110.5t-78 -77t-128 -28.5q-114 0 -173 59t-59 157v493h157v-486q0 -54 17.5 -80t57.5 -26t57.5 26t17.5 80v486h157v-493zM157 760l-52 54l118 131h90l118 -131l-52 -54l-111 83z" />
    <glyph glyph-name="Udieresis" unicode="&#xdc;" horiz-adv-x="536" 
d="M500 200q0 -62 -26 -110.5t-78 -77t-128 -28.5q-114 0 -173 59t-59 157v493h157v-486q0 -54 17.5 -80t57.5 -26t57.5 26t17.5 80v486h157v-493zM228 899q21 -22 21 -54q0 -33 -20.5 -54.5t-53.5 -21.5q-32 0 -53.5 22t-21.5 54t21.5 54t53.5 22t53 -22zM424 899
q21 -22 21 -54q0 -33 -20.5 -54.5t-53.5 -21.5q-31 0 -52.5 22t-21.5 54t21.5 54t52.5 22q32 0 53 -22z" />
    <glyph glyph-name="Yacute" unicode="&#xdd;" horiz-adv-x="500" 
d="M511 693l-182 -432v-261h-157v260l-182 433h164l98 -310l100 310h159zM313 945l57 -109l-203 -85l-38 74z" />
    <glyph glyph-name="Thorn" unicode="&#xde;" horiz-adv-x="499" 
d="M423.5 525.5q65.5 -57.5 65.5 -169.5q0 -120 -63.5 -180t-177.5 -60h-45v-116h-157v693h157v-110h34q121 0 186.5 -57.5zM307.5 257.5q23.5 29.5 23.5 98.5q0 62 -24.5 89t-74.5 27h-29v-244h30q51 0 74.5 29.5z" />
    <glyph glyph-name="germandbls" unicode="&#xdf;" horiz-adv-x="509" 
d="M380 716q47 -42 47 -105q0 -33 -10 -56t-29 -50q-15 -21 -22.5 -37.5t-7.5 -36.5t12 -37t37 -41q43 -41 67 -81.5t24 -106.5q0 -84 -47.5 -133t-122.5 -49q-61 0 -102 26l45 98q14 -7 31 -7q19 0 31.5 17t12.5 51q0 35 -14.5 60t-42.5 56q-29 33 -44 59.5t-15 63.5
q0 29 7.5 50t22.5 47q15 24 22 43t7 45q0 29 -11.5 44.5t-32.5 15.5q-49 0 -49 -84v-568h-151v558q0 90 54 145t150 55q84 0 131 -42z" />
    <glyph glyph-name="agrave" unicode="&#xe0;" horiz-adv-x="457" 
d="M416 104q6 -12 21 -19l-31 -99q-43 4 -70.5 20.5t-42.5 51.5q-46 -75 -131 -75q-66 0 -105 45.5t-39 120.5q0 87 54 132.5t158 45.5h32v28q0 48 -14.5 66.5t-51.5 18.5q-46 0 -114 -27l-34 96q41 19 87.5 29t88.5 10q94 0 140 -45.5t46 -139.5v-222q0 -25 6 -37zM239 103
q14 13 23 37v103h-18q-41 0 -59.5 -19.5t-18.5 -61.5q0 -35 11 -53.5t31 -18.5q17 0 31 13zM172 825l183 -128l-41 -73l-201 94z" />
    <glyph glyph-name="aacute" unicode="&#xe1;" horiz-adv-x="457" 
d="M416 104q6 -12 21 -19l-31 -99q-43 4 -70.5 20.5t-42.5 51.5q-46 -75 -131 -75q-66 0 -105 45.5t-39 120.5q0 87 54 132.5t158 45.5h32v28q0 48 -14.5 66.5t-51.5 18.5q-46 0 -114 -27l-34 96q41 19 87.5 29t88.5 10q94 0 140 -45.5t46 -139.5v-222q0 -25 6 -37zM239 103
q14 13 23 37v103h-18q-41 0 -59.5 -19.5t-18.5 -61.5q0 -35 11 -53.5t31 -18.5q17 0 31 13zM280 825l59 -107l-201 -94l-41 73z" />
    <glyph glyph-name="acircumflex" unicode="&#xe2;" horiz-adv-x="457" 
d="M416 104q6 -12 21 -19l-31 -99q-43 4 -70.5 20.5t-42.5 51.5q-46 -75 -131 -75q-66 0 -105 45.5t-39 120.5q0 87 54 132.5t158 45.5h32v28q0 48 -14.5 66.5t-51.5 18.5q-46 0 -114 -27l-34 96q41 19 87.5 29t88.5 10q94 0 140 -45.5t46 -139.5v-222q0 -25 6 -37zM239 103
q14 13 23 37v103h-18q-41 0 -59.5 -19.5t-18.5 -61.5q0 -35 11 -53.5t31 -18.5q17 0 31 13zM115 626l-52 54l118 139h90l118 -139l-52 -54l-111 91z" />
    <glyph glyph-name="atilde" unicode="&#xe3;" horiz-adv-x="457" 
d="M416 104q6 -12 21 -19l-31 -99q-43 4 -70.5 20.5t-42.5 51.5q-46 -75 -131 -75q-66 0 -105 45.5t-39 120.5q0 87 54 132.5t158 45.5h32v28q0 48 -14.5 66.5t-51.5 18.5q-46 0 -114 -27l-34 96q41 19 87.5 29t88.5 10q94 0 140 -45.5t46 -139.5v-222q0 -25 6 -37zM239 103
q14 13 23 37v103h-18q-41 0 -59.5 -19.5t-18.5 -61.5q0 -35 11 -53.5t31 -18.5q17 0 31 13zM243.5 648.5q-13.5 6.5 -30.5 17.5q-21 16 -35 16q-13 0 -22 -9.5t-21 -31.5l-70 33q16 50 45 80.5t66 30.5q18 0 31 -6t32 -18q11 -9 19 -13t17 -4q13 0 21.5 9.5t19.5 30.5
l71 -32q-16 -51 -45 -80.5t-66 -29.5q-19 0 -32.5 6.5z" />
    <glyph glyph-name="adieresis" unicode="&#xe4;" horiz-adv-x="457" 
d="M416 104q6 -12 21 -19l-31 -99q-43 4 -70.5 20.5t-42.5 51.5q-46 -75 -131 -75q-66 0 -105 45.5t-39 120.5q0 87 54 132.5t158 45.5h32v28q0 48 -14.5 66.5t-51.5 18.5q-46 0 -114 -27l-34 96q41 19 87.5 29t88.5 10q94 0 140 -45.5t46 -139.5v-222q0 -25 6 -37zM239 103
q14 13 23 37v103h-18q-41 0 -59.5 -19.5t-18.5 -61.5q0 -35 11 -53.5t31 -18.5q17 0 31 13zM181 773q21 -22 21 -54q0 -33 -20.5 -54.5t-53.5 -21.5q-32 0 -53.5 22t-21.5 54t21.5 54t53.5 22t53 -22zM377 773q21 -22 21 -54q0 -33 -20.5 -54.5t-53.5 -21.5q-31 0 -52.5 22
t-21.5 54t21.5 54t52.5 22q32 0 53 -22z" />
    <glyph glyph-name="aring" unicode="&#xe5;" horiz-adv-x="457" 
d="M416 104q6 -12 21 -19l-31 -99q-43 4 -70.5 20.5t-42.5 51.5q-46 -75 -131 -75q-66 0 -105 45.5t-39 120.5q0 87 54 132.5t158 45.5h32v28q0 48 -14.5 66.5t-51.5 18.5q-46 0 -114 -27l-34 96q41 19 87.5 29t88.5 10q94 0 140 -45.5t46 -139.5v-222q0 -25 6 -37zM239 103
q14 13 23 37v103h-18q-41 0 -59.5 -19.5t-18.5 -61.5q0 -35 11 -53.5t31 -18.5q17 0 31 13zM315 828.5q33 -35.5 33 -92.5q0 -58 -33 -94t-89 -36q-57 0 -89.5 36t-32.5 94q0 57 32.5 92.5t89.5 35.5q56 0 89 -35.5zM191 736q0 -29 9 -41.5t26 -12.5q36 0 36 54q0 53 -36 53
q-35 0 -35 -53z" />
    <glyph glyph-name="ae" unicode="&#xe6;" horiz-adv-x="713" 
d="M688 221h-268q5 -70 28 -98t65 -28q24 0 47.5 10t52.5 32l61 -81q-75 -73 -175 -73q-59 0 -103.5 23t-74.5 65q-58 -88 -150 -88q-70 0 -111.5 46t-41.5 120q0 83 55.5 128t162.5 45h33l-1 29q0 50 -14.5 69.5t-51.5 19.5q-21 0 -51.5 -7.5t-62.5 -20.5l-33 97
q87 39 169 39q50 0 82 -17t51 -49q55 66 140 66q89 0 142 -70t53 -202q0 -25 -4 -55zM547 319q0 65 -15 96.5t-46 31.5t-46.5 -30.5t-19.5 -104.5h127v7zM283 154q-10 41 -12 84h-20q-80 0 -80 -79q0 -68 43 -68q39 0 69 63z" />
    <glyph glyph-name="ccedilla" unicode="&#xe7;" horiz-adv-x="401" 
d="M280 -15v-38q87 -14 87 -95q0 -50 -34 -80.5t-95 -30.5q-58 0 -99 29l34 66q26 -13 54 -13q35 0 35 31q0 19 -18 27t-58 8l10 100q-82 18 -126 86.5t-44 185.5q0 89 27.5 153.5t78.5 99t120 34.5q46 0 83 -16t69 -49l-62 -83q-41 33 -78 33q-41 0 -61 -37.5t-20 -133.5
q0 -91 21 -126t59 -35q20 0 37 7t39 24l65 -87q-55 -53 -124 -60z" />
    <glyph glyph-name="egrave" unicode="&#xe8;" horiz-adv-x="470" 
d="M446 221h-270q5 -72 26.5 -99.5t62.5 -27.5q27 0 52 10.5t54 32.5l62 -82q-74 -72 -179 -72q-112 0 -170 73.5t-58 205.5t55.5 209t158.5 77q98 0 153.5 -69.5t55.5 -202.5q0 -32 -3 -55zM302 319q0 68 -13.5 98.5t-47.5 30.5q-30 0 -45.5 -29.5t-19.5 -106.5h126v7z
M187 825l183 -128l-41 -73l-201 94z" />
    <glyph glyph-name="eacute" unicode="&#xe9;" horiz-adv-x="470" 
d="M446 221h-270q5 -72 26.5 -99.5t62.5 -27.5q27 0 52 10.5t54 32.5l62 -82q-74 -72 -179 -72q-112 0 -170 73.5t-58 205.5t55.5 209t158.5 77q98 0 153.5 -69.5t55.5 -202.5q0 -32 -3 -55zM302 319q0 68 -13.5 98.5t-47.5 30.5q-30 0 -45.5 -29.5t-19.5 -106.5h126v7z
M295 825l59 -107l-201 -94l-41 73z" />
    <glyph glyph-name="ecircumflex" unicode="&#xea;" horiz-adv-x="470" 
d="M446 221h-270q5 -72 26.5 -99.5t62.5 -27.5q27 0 52 10.5t54 32.5l62 -82q-74 -72 -179 -72q-112 0 -170 73.5t-58 205.5t55.5 209t158.5 77q98 0 153.5 -69.5t55.5 -202.5q0 -32 -3 -55zM302 319q0 68 -13.5 98.5t-47.5 30.5q-30 0 -45.5 -29.5t-19.5 -106.5h126v7z
M130 626l-52 54l118 139h90l118 -139l-52 -54l-111 91z" />
    <glyph glyph-name="edieresis" unicode="&#xeb;" horiz-adv-x="470" 
d="M446 221h-270q5 -72 26.5 -99.5t62.5 -27.5q27 0 52 10.5t54 32.5l62 -82q-74 -72 -179 -72q-112 0 -170 73.5t-58 205.5t55.5 209t158.5 77q98 0 153.5 -69.5t55.5 -202.5q0 -32 -3 -55zM302 319q0 68 -13.5 98.5t-47.5 30.5q-30 0 -45.5 -29.5t-19.5 -106.5h126v7z
M196 773q21 -22 21 -54q0 -33 -20.5 -54.5t-53.5 -21.5q-32 0 -53.5 22t-21.5 54t21.5 54t53.5 22t53 -22zM392 773q21 -22 21 -54q0 -33 -20.5 -54.5t-53.5 -21.5q-31 0 -52.5 22t-21.5 54t21.5 54t52.5 22q32 0 53 -22z" />
    <glyph glyph-name="igrave" unicode="&#xec;" horiz-adv-x="240" 
d="M196 531v-531h-151v531h151zM66 825l183 -128l-41 -73l-201 94z" />
    <glyph glyph-name="iacute" unicode="&#xed;" horiz-adv-x="240" 
d="M196 531v-531h-151v531h151zM174 825l59 -107l-201 -94l-41 73z" />
    <glyph glyph-name="icircumflex" unicode="&#xee;" horiz-adv-x="240" 
d="M196 531v-531h-151v531h151zM9 626l-52 54l118 139h90l118 -139l-52 -54l-111 91z" />
    <glyph glyph-name="idieresis" unicode="&#xef;" horiz-adv-x="240" 
d="M196 531v-531h-151v531h151zM75 773q21 -22 21 -54q0 -33 -20.5 -54.5t-53.5 -21.5q-32 0 -53.5 22t-21.5 54t21.5 54t53.5 22t53 -22zM271 773q21 -22 21 -54q0 -33 -20.5 -54.5t-53.5 -21.5q-31 0 -52.5 22t-21.5 54t21.5 54t52.5 22q32 0 53 -22z" />
    <glyph glyph-name="eth" unicode="&#xf0;" horiz-adv-x="493" 
d="M426 503.5q36 -95.5 36 -226.5q0 -132 -57.5 -212.5t-163.5 -80.5q-62 0 -110.5 29t-76.5 85.5t-28 135.5q0 72 23.5 127.5t62.5 86t84 30.5q34 0 59.5 -11.5t48.5 -34.5q-12 51 -29.5 87t-50.5 67l-48 -58l-90 45l55 64q-28 12 -75 24l28 96q57 -12 122 -38l62 76
l80 -59l-53 -67q85 -70 121 -165.5zM294 129.5q16 35.5 16 116.5q0 59 -1 83q-28 43 -66 43q-33 0 -49.5 -33.5t-16.5 -102.5q0 -78 17 -110t50 -32q34 0 50 35.5z" />
    <glyph glyph-name="ntilde" unicode="&#xf1;" horiz-adv-x="480" 
d="M406.5 507q32.5 -41 32.5 -110v-397h-151v381q0 52 -29 52t-63 -64v-369h-151v531h131l11 -63q26 40 57 60t73 20q57 0 89.5 -41zM261.5 648.5q-13.5 6.5 -30.5 17.5q-21 16 -35 16q-13 0 -22 -9.5t-21 -31.5l-70 33q16 50 45 80.5t66 30.5q18 0 31 -6t32 -18
q11 -9 19 -13t17 -4q13 0 21.5 9.5t19.5 30.5l71 -32q-16 -51 -45 -80.5t-66 -29.5q-19 0 -32.5 6.5z" />
    <glyph glyph-name="ograve" unicode="&#xf2;" horiz-adv-x="494" 
d="M409.5 477q58.5 -71 58.5 -212q0 -135 -58.5 -208.5t-162.5 -73.5t-162.5 71.5t-58.5 211.5q0 137 58.5 209.5t162.5 72.5t162.5 -71zM196.5 397.5q-15.5 -38.5 -15.5 -131.5q0 -96 15.5 -134t50.5 -38t50.5 38.5t15.5 132.5q0 95 -15.5 133t-50.5 38t-50.5 -38.5z
M193 825l183 -128l-41 -73l-201 94z" />
    <glyph glyph-name="oacute" unicode="&#xf3;" horiz-adv-x="494" 
d="M409.5 477q58.5 -71 58.5 -212q0 -135 -58.5 -208.5t-162.5 -73.5t-162.5 71.5t-58.5 211.5q0 137 58.5 209.5t162.5 72.5t162.5 -71zM196.5 397.5q-15.5 -38.5 -15.5 -131.5q0 -96 15.5 -134t50.5 -38t50.5 38.5t15.5 132.5q0 95 -15.5 133t-50.5 38t-50.5 -38.5z
M301 825l59 -107l-201 -94l-41 73z" />
    <glyph glyph-name="ocircumflex" unicode="&#xf4;" horiz-adv-x="494" 
d="M409.5 477q58.5 -71 58.5 -212q0 -135 -58.5 -208.5t-162.5 -73.5t-162.5 71.5t-58.5 211.5q0 137 58.5 209.5t162.5 72.5t162.5 -71zM196.5 397.5q-15.5 -38.5 -15.5 -131.5q0 -96 15.5 -134t50.5 -38t50.5 38.5t15.5 132.5q0 95 -15.5 133t-50.5 38t-50.5 -38.5z
M136 626l-52 54l118 139h90l118 -139l-52 -54l-111 91z" />
    <glyph glyph-name="otilde" unicode="&#xf5;" horiz-adv-x="494" 
d="M409.5 477q58.5 -71 58.5 -212q0 -135 -58.5 -208.5t-162.5 -73.5t-162.5 71.5t-58.5 211.5q0 137 58.5 209.5t162.5 72.5t162.5 -71zM196.5 397.5q-15.5 -38.5 -15.5 -131.5q0 -96 15.5 -134t50.5 -38t50.5 38.5t15.5 132.5q0 95 -15.5 133t-50.5 38t-50.5 -38.5z
M264.5 648.5q-13.5 6.5 -30.5 17.5q-21 16 -35 16q-13 0 -22 -9.5t-21 -31.5l-70 33q16 50 45 80.5t66 30.5q18 0 31 -6t32 -18q11 -9 19 -13t17 -4q13 0 21.5 9.5t19.5 30.5l71 -32q-16 -51 -45 -80.5t-66 -29.5q-19 0 -32.5 6.5z" />
    <glyph glyph-name="odieresis" unicode="&#xf6;" horiz-adv-x="494" 
d="M409.5 477q58.5 -71 58.5 -212q0 -135 -58.5 -208.5t-162.5 -73.5t-162.5 71.5t-58.5 211.5q0 137 58.5 209.5t162.5 72.5t162.5 -71zM196.5 397.5q-15.5 -38.5 -15.5 -131.5q0 -96 15.5 -134t50.5 -38t50.5 38.5t15.5 132.5q0 95 -15.5 133t-50.5 38t-50.5 -38.5z
M202 773q21 -22 21 -54q0 -33 -20.5 -54.5t-53.5 -21.5q-32 0 -53.5 22t-21.5 54t21.5 54t53.5 22t53 -22zM398 773q21 -22 21 -54q0 -33 -20.5 -54.5t-53.5 -21.5q-31 0 -52.5 22t-21.5 54t21.5 54t52.5 22q32 0 53 -22z" />
    <glyph glyph-name="divide" unicode="&#xf7;" horiz-adv-x="431" 
d="M277 154q24 -26 24 -62t-24 -61.5t-61 -25.5q-38 0 -61.5 25.5t-23.5 61.5t23.5 62t61.5 26q37 0 61 -26zM277 632q24 -26 24 -62t-24 -61.5t-61 -25.5q-38 0 -61.5 25.5t-23.5 61.5t23.5 62t61.5 26q37 0 61 -26zM35 275v114h361v-114h-361z" />
    <glyph glyph-name="oslash" unicode="&#xf8;" horiz-adv-x="494" 
d="M443.5 414.5q24.5 -61.5 24.5 -149.5q0 -135 -58.5 -208.5t-162.5 -73.5q-13 0 -20 1l-30 -118l-108 30l34 124q-46 33 -71.5 95t-25.5 151q0 137 58.5 209.5t162.5 72.5q16 0 24 -1l31 119l107 -31l-36 -125q46 -34 70.5 -95.5zM181 400.5q-21 -39.5 -21 -134.5
q0 -101 21 -140l75 314h-9q-45 0 -66 -39.5zM313.5 130q20.5 39 20.5 135q0 99 -19 137l-74 -311h6q46 0 66.5 39z" />
    <glyph glyph-name="ugrave" unicode="&#xf9;" horiz-adv-x="476" 
d="M431 0h-132l-6 61q-48 -78 -127 -78q-58 0 -91.5 42t-33.5 111v395h151v-389q0 -23 8 -35t23 -12q32 0 57 56v380h151v-531zM183 825l183 -128l-41 -73l-201 94z" />
    <glyph glyph-name="uacute" unicode="&#xfa;" horiz-adv-x="476" 
d="M431 0h-132l-6 61q-48 -78 -127 -78q-58 0 -91.5 42t-33.5 111v395h151v-389q0 -23 8 -35t23 -12q32 0 57 56v380h151v-531zM291 825l59 -107l-201 -94l-41 73z" />
    <glyph glyph-name="ucircumflex" unicode="&#xfb;" horiz-adv-x="476" 
d="M431 0h-132l-6 61q-48 -78 -127 -78q-58 0 -91.5 42t-33.5 111v395h151v-389q0 -23 8 -35t23 -12q32 0 57 56v380h151v-531zM126 626l-52 54l118 139h90l118 -139l-52 -54l-111 91z" />
    <glyph glyph-name="udieresis" unicode="&#xfc;" horiz-adv-x="476" 
d="M431 0h-132l-6 61q-48 -78 -127 -78q-58 0 -91.5 42t-33.5 111v395h151v-389q0 -23 8 -35t23 -12q32 0 57 56v380h151v-531zM192 773q21 -22 21 -54q0 -33 -20.5 -54.5t-53.5 -21.5q-32 0 -53.5 22t-21.5 54t21.5 54t53.5 22t53 -22zM388 773q21 -22 21 -54
q0 -33 -20.5 -54.5t-53.5 -21.5q-31 0 -52.5 22t-21.5 54t21.5 54t52.5 22q32 0 53 -22z" />
    <glyph glyph-name="yacute" unicode="&#xfd;" horiz-adv-x="442" 
d="M310 -1q-52 -205 -262 -220l-16 104q63 11 95.5 36.5t50.5 80.5h-56l-127 531h152l70 -434l82 434h149zM275 825l59 -107l-201 -94l-41 73z" />
    <glyph glyph-name="thorn" unicode="&#xfe;" horiz-adv-x="499" 
d="M432 475.5q41 -72.5 41 -208.5q0 -86 -21.5 -150.5t-60.5 -99t-92 -34.5q-64 0 -103 59v-245l-151 -18v963l151 16v-274q45 64 117 64q78 0 119 -72.5zM301.5 134q16.5 39 16.5 131q0 99 -14 135.5t-43 36.5q-36 0 -65 -56v-245q25 -41 59 -41q30 0 46.5 39z" />
    <glyph glyph-name="ydieresis" unicode="&#xff;" horiz-adv-x="442" 
d="M310 -1q-52 -205 -262 -220l-16 104q63 11 95.5 36.5t50.5 80.5h-56l-127 531h152l70 -434l82 434h149zM176 773q21 -22 21 -54q0 -33 -20.5 -54.5t-53.5 -21.5q-32 0 -53.5 22t-21.5 54t21.5 54t53.5 22t53 -22zM372 773q21 -22 21 -54q0 -33 -20.5 -54.5t-53.5 -21.5
q-31 0 -52.5 22t-21.5 54t21.5 54t52.5 22q32 0 53 -22z" />
    <glyph glyph-name="Amacron" unicode="&#x100;" horiz-adv-x="506" 
d="M356 0l-28 152h-154l-27 -152h-156l168 693h188l168 -693h-159zM195 265h113l-57 313zM383 784h-260v102h260v-102z" />
    <glyph glyph-name="amacron" unicode="&#x101;" horiz-adv-x="457" 
d="M416 104q6 -12 21 -19l-31 -99q-43 4 -70.5 20.5t-42.5 51.5q-46 -75 -131 -75q-66 0 -105 45.5t-39 120.5q0 87 54 132.5t158 45.5h32v28q0 48 -14.5 66.5t-51.5 18.5q-46 0 -114 -27l-34 96q41 19 87.5 29t88.5 10q94 0 140 -45.5t46 -139.5v-222q0 -25 6 -37zM239 103
q14 13 23 37v103h-18q-41 0 -59.5 -19.5t-18.5 -61.5q0 -35 11 -53.5t31 -18.5q17 0 31 13zM356 658h-260v102h260v-102z" />
    <glyph glyph-name="Abreve" unicode="&#x102;" horiz-adv-x="506" 
d="M356 0l-28 152h-154l-27 -152h-156l168 693h188l168 -693h-159zM195 265h113l-57 313zM149 794.5q-37 42.5 -43 114.5l79 16q16 -68 69 -68q27 0 44 17.5t23 50.5l80 -16q-6 -72 -43 -114.5t-104 -42.5q-68 0 -105 42.5z" />
    <glyph glyph-name="abreve" unicode="&#x103;" horiz-adv-x="457" 
d="M416 104q6 -12 21 -19l-31 -99q-43 4 -70.5 20.5t-42.5 51.5q-46 -75 -131 -75q-66 0 -105 45.5t-39 120.5q0 87 54 132.5t158 45.5h32v28q0 48 -14.5 66.5t-51.5 18.5q-46 0 -114 -27l-34 96q41 19 87.5 29t88.5 10q94 0 140 -45.5t46 -139.5v-222q0 -25 6 -37zM239 103
q14 13 23 37v103h-18q-41 0 -59.5 -19.5t-18.5 -61.5q0 -35 11 -53.5t31 -18.5q17 0 31 13zM121.5 678.5q-37.5 44.5 -42.5 123.5l79 15q16 -80 69 -80t67 80l80 -15q-5 -79 -42 -123.5t-105 -44.5t-105.5 44.5z" />
    <glyph glyph-name="Aogonek" unicode="&#x104;" horiz-adv-x="506" 
d="M357 -51q-20 -25 -20 -53q0 -46 44 -46q23 0 48 7l-9 -93q-29 -8 -58 -8q-58 0 -94.5 30t-36.5 84q0 52 31.5 89t88.5 66l-23 127h-154l-27 -152h-156l168 693h188l168 -693h-83q-55 -26 -75 -51zM195 265h113l-57 313z" />
    <glyph glyph-name="aogonek" unicode="&#x105;" horiz-adv-x="457" 
d="M331 -65q-20 -25 -20 -53q0 -46 44 -46q23 0 48 7l-9 -93q-29 -8 -58 -8q-58 0 -94.5 30t-36.5 84q0 52 32 90t91 66q-21 16 -35 46q-46 -75 -131 -75q-66 0 -105 45.5t-39 120.5q0 87 54 132.5t158 45.5h32v28q0 48 -14.5 66.5t-51.5 18.5q-46 0 -114 -27l-34 96
q41 19 87.5 29t88.5 10q94 0 140 -45.5t46 -139.5v-222q0 -25 6 -37t21 -19l-31 -99q-55 -26 -75 -51zM239 103q14 13 23 37v103h-18q-41 0 -59.5 -19.5t-18.5 -61.5q0 -35 11 -53.5t31 -18.5q17 0 31 13z" />
    <glyph glyph-name="Cacute" unicode="&#x106;" horiz-adv-x="484" 
d="M392.5 691q44.5 -19 83.5 -57l-73 -86q-25 22 -48.5 33.5t-50.5 11.5q-55 0 -84 -56.5t-29 -188.5q0 -129 29.5 -186t84.5 -57q30 0 52 12t54 38l71 -84q-36 -39 -84 -63.5t-107 -24.5q-120 0 -191.5 92t-71.5 273q0 119 33.5 200t93.5 121.5t138 40.5q55 0 99.5 -19z
M363 945l57 -109l-203 -85l-38 74z" />
    <glyph glyph-name="cacute" unicode="&#x107;" horiz-adv-x="401" 
d="M335 532q37 -16 69 -49l-62 -83q-41 33 -78 33q-41 0 -61 -37.5t-20 -133.5q0 -91 21 -126t59 -35q20 0 37 7t39 24l65 -87q-65 -62 -150 -62q-108 0 -168 70.5t-60 207.5q0 89 27.5 153.5t78.5 99t120 34.5q46 0 83 -16zM303 825l59 -107l-201 -94l-41 73z" />
    <glyph glyph-name="Ccircumflex" unicode="&#x108;" horiz-adv-x="484" 
d="M392.5 691q44.5 -19 83.5 -57l-73 -86q-25 22 -48.5 33.5t-50.5 11.5q-55 0 -84 -56.5t-29 -188.5q0 -129 29.5 -186t84.5 -57q30 0 52 12t54 38l71 -84q-36 -39 -84 -63.5t-107 -24.5q-120 0 -191.5 92t-71.5 273q0 119 33.5 200t93.5 121.5t138 40.5q55 0 99.5 -19z
M189 760l-52 54l118 131h90l118 -131l-52 -54l-111 83z" />
    <glyph glyph-name="ccircumflex" unicode="&#x109;" horiz-adv-x="401" 
d="M335 532q37 -16 69 -49l-62 -83q-41 33 -78 33q-41 0 -61 -37.5t-20 -133.5q0 -91 21 -126t59 -35q20 0 37 7t39 24l65 -87q-65 -62 -150 -62q-108 0 -168 70.5t-60 207.5q0 89 27.5 153.5t78.5 99t120 34.5q46 0 83 -16zM138 626l-52 54l118 139h90l118 -139l-52 -54
l-111 91z" />
    <glyph glyph-name="Cdotaccent" unicode="&#x10a;" horiz-adv-x="484" 
d="M392.5 691q44.5 -19 83.5 -57l-73 -86q-25 22 -48.5 33.5t-50.5 11.5q-55 0 -84 -56.5t-29 -188.5q0 -129 29.5 -186t84.5 -57q30 0 52 12t54 38l71 -84q-36 -39 -84 -63.5t-107 -24.5q-120 0 -191.5 92t-71.5 273q0 119 33.5 200t93.5 121.5t138 40.5q55 0 99.5 -19z
M361.5 908.5q23.5 -24.5 23.5 -62.5q0 -37 -24 -61.5t-62 -24.5t-62 24.5t-24 61.5q0 38 24 62.5t62 24.5q39 0 62.5 -24.5z" />
    <glyph glyph-name="cdotaccent" unicode="&#x10b;" horiz-adv-x="401" 
d="M335 532q37 -16 69 -49l-62 -83q-41 33 -78 33q-41 0 -61 -37.5t-20 -133.5q0 -91 21 -126t59 -35q20 0 37 7t39 24l65 -87q-65 -62 -150 -62q-108 0 -168 70.5t-60 207.5q0 89 27.5 153.5t78.5 99t120 34.5q46 0 83 -16zM310.5 782.5q23.5 -24.5 23.5 -62.5
q0 -37 -24 -61.5t-62 -24.5t-62 24.5t-24 61.5q0 38 24 62.5t62 24.5q39 0 62.5 -24.5z" />
    <glyph glyph-name="Ccaron" unicode="&#x10c;" horiz-adv-x="484" 
d="M392.5 691q44.5 -19 83.5 -57l-73 -86q-25 22 -48.5 33.5t-50.5 11.5q-55 0 -84 -56.5t-29 -188.5q0 -129 29.5 -186t84.5 -57q30 0 52 12t54 38l71 -84q-36 -39 -84 -63.5t-107 -24.5q-120 0 -191.5 92t-71.5 273q0 119 33.5 200t93.5 121.5t138 40.5q55 0 99.5 -19z
M411 936l52 -55l-118 -131h-90l-118 131l52 55l111 -84z" />
    <glyph glyph-name="ccaron" unicode="&#x10d;" horiz-adv-x="401" 
d="M335 532q37 -16 69 -49l-62 -83q-41 33 -78 33q-41 0 -61 -37.5t-20 -133.5q0 -91 21 -126t59 -35q20 0 37 7t39 24l65 -87q-65 -62 -150 -62q-108 0 -168 70.5t-60 207.5q0 89 27.5 153.5t78.5 99t120 34.5q46 0 83 -16zM360 807l52 -55l-118 -139h-90l-118 139l52 55
l111 -93z" />
    <glyph glyph-name="Dcaron" unicode="&#x10e;" horiz-adv-x="549" 
d="M375.5 666.5q64.5 -26.5 105 -102t40.5 -214.5q0 -195 -78.5 -272.5t-210.5 -77.5h-186v693h175q90 0 154.5 -26.5zM203 580v-466h38q40 0 65.5 20.5t39.5 72t14 143.5q0 93 -14.5 143t-40 68.5t-64.5 18.5h-38zM356 936l52 -55l-118 -131h-90l-118 131l52 55l111 -84z
" />
    <glyph glyph-name="dcaron" unicode="&#x10f;" horiz-adv-x="594" 
d="M456 742v-742h-135l-5 56q-23 -34 -52 -53.5t-70 -19.5q-82 0 -125 73.5t-43 209.5q0 85 23 149t64 98.5t93 34.5q60 0 99 -49v259zM305 146v248q-13 22 -26 32.5t-30 10.5q-68 0 -68 -171q0 -97 16.5 -134.5t45.5 -37.5q35 0 62 52zM569 529l46 212l-109 17l-20 -216z
" />
    <glyph glyph-name="Dcroat" unicode="&#x110;" horiz-adv-x="566" 
d="M392.5 666.5q64.5 -26.5 105 -102t40.5 -214.5q0 -195 -78.5 -272.5t-210.5 -77.5h-186v305h-49v96h49v292h175q90 0 154.5 -26.5zM323.5 134.5q25.5 20.5 39.5 72t14 143.5q0 93 -14.5 143t-40 68.5t-64.5 18.5h-38v-179h85v-96h-85v-191h38q40 0 65.5 20.5z" />
    <glyph glyph-name="dcroat" unicode="&#x111;" horiz-adv-x="504" 
d="M500 688v-90h-44v-598h-135l-5 56q-23 -34 -52 -53.5t-70 -19.5q-82 0 -125 73.5t-43 209.5q0 85 23 149t64 98.5t93 34.5q60 0 99 -49v99h-106v90h106v70l151 -16v-54h44zM305 146v248q-13 22 -26 32.5t-30 10.5q-68 0 -68 -171q0 -97 16.5 -134.5t45.5 -37.5
q35 0 62 52z" />
    <glyph glyph-name="Emacron" unicode="&#x112;" horiz-adv-x="432" 
d="M412 693l-16 -112h-193v-174h170v-110h-170v-183h206v-114h-363v693h366zM360 784h-260v102h260v-102z" />
    <glyph glyph-name="emacron" unicode="&#x113;" horiz-adv-x="470" 
d="M446 221h-270q5 -72 26.5 -99.5t62.5 -27.5q27 0 52 10.5t54 32.5l62 -82q-74 -72 -179 -72q-112 0 -170 73.5t-58 205.5t55.5 209t158.5 77q98 0 153.5 -69.5t55.5 -202.5q0 -32 -3 -55zM302 319q0 68 -13.5 98.5t-47.5 30.5q-30 0 -45.5 -29.5t-19.5 -106.5h126v7z
M371 658h-260v102h260v-102z" />
    <glyph glyph-name="Ebreve" unicode="&#x114;" horiz-adv-x="432" 
d="M412 693l-16 -112h-193v-174h170v-110h-170v-183h206v-114h-363v693h366zM126 794.5q-37 42.5 -43 114.5l79 16q16 -68 69 -68q27 0 44 17.5t23 50.5l80 -16q-6 -72 -43 -114.5t-104 -42.5q-68 0 -105 42.5z" />
    <glyph glyph-name="ebreve" unicode="&#x115;" horiz-adv-x="470" 
d="M446 221h-270q5 -72 26.5 -99.5t62.5 -27.5q27 0 52 10.5t54 32.5l62 -82q-74 -72 -179 -72q-112 0 -170 73.5t-58 205.5t55.5 209t158.5 77q98 0 153.5 -69.5t55.5 -202.5q0 -32 -3 -55zM302 319q0 68 -13.5 98.5t-47.5 30.5q-30 0 -45.5 -29.5t-19.5 -106.5h126v7z
M136.5 678.5q-37.5 44.5 -42.5 123.5l79 15q16 -80 69 -80t67 80l80 -15q-5 -79 -42 -123.5t-105 -44.5t-105.5 44.5z" />
    <glyph glyph-name="Edotaccent" unicode="&#x116;" horiz-adv-x="432" 
d="M412 693l-16 -112h-193v-174h170v-110h-170v-183h206v-114h-363v693h366zM291.5 908.5q23.5 -24.5 23.5 -62.5q0 -37 -24 -61.5t-62 -24.5t-62 24.5t-24 61.5q0 38 24 62.5t62 24.5q39 0 62.5 -24.5z" />
    <glyph glyph-name="edotaccent" unicode="&#x117;" horiz-adv-x="470" 
d="M446 221h-270q5 -72 26.5 -99.5t62.5 -27.5q27 0 52 10.5t54 32.5l62 -82q-74 -72 -179 -72q-112 0 -170 73.5t-58 205.5t55.5 209t158.5 77q98 0 153.5 -69.5t55.5 -202.5q0 -32 -3 -55zM302 319q0 68 -13.5 98.5t-47.5 30.5q-30 0 -45.5 -29.5t-19.5 -106.5h126v7z
M302.5 782.5q23.5 -24.5 23.5 -62.5q0 -37 -24 -61.5t-62 -24.5t-62 24.5t-24 61.5q0 38 24 62.5t62 24.5q39 0 62.5 -24.5z" />
    <glyph glyph-name="Eogonek" unicode="&#x118;" horiz-adv-x="432" 
d="M203 114h206v-114h-32q-55 -26 -75 -51t-20 -53q0 -46 44 -46q23 0 48 7l-9 -93q-29 -8 -58 -8q-58 0 -94.5 30t-36.5 84q0 78 77 130h-207v693h366l-16 -112h-193v-174h170v-110h-170v-183z" />
    <glyph glyph-name="eogonek" unicode="&#x119;" horiz-adv-x="470" 
d="M446 221h-270q5 -72 26.5 -99.5t62.5 -27.5q27 0 52 10.5t54 32.5l62 -82q-35 -36 -85 -55q-77 -42 -77 -94q0 -22 11.5 -34t31.5 -12q25 0 50 7l-9 -94q-30 -8 -60 -8q-55 0 -91 31.5t-36 83.5q0 64 61 104q-100 8 -151.5 81t-51.5 197q0 132 55.5 209t158.5 77
q98 0 153.5 -69.5t55.5 -202.5q0 -32 -3 -55zM302 319q0 68 -13.5 98.5t-47.5 30.5q-30 0 -45.5 -29.5t-19.5 -106.5h126v7z" />
    <glyph glyph-name="Ecaron" unicode="&#x11a;" horiz-adv-x="432" 
d="M412 693l-16 -112h-193v-174h170v-110h-170v-183h206v-114h-363v693h366zM341 936l52 -55l-118 -131h-90l-118 131l52 55l111 -84z" />
    <glyph glyph-name="ecaron" unicode="&#x11b;" horiz-adv-x="470" 
d="M446 221h-270q5 -72 26.5 -99.5t62.5 -27.5q27 0 52 10.5t54 32.5l62 -82q-74 -72 -179 -72q-112 0 -170 73.5t-58 205.5t55.5 209t158.5 77q98 0 153.5 -69.5t55.5 -202.5q0 -32 -3 -55zM302 319q0 68 -13.5 98.5t-47.5 30.5q-30 0 -45.5 -29.5t-19.5 -106.5h126v7z
M352 807l52 -55l-118 -139h-90l-118 139l52 55l111 -93z" />
    <glyph glyph-name="Gcircumflex" unicode="&#x11c;" horiz-adv-x="545" 
d="M508 626l-75 -79q-31 26 -56.5 37.5t-58.5 11.5q-64 0 -96 -55t-32 -194q0 -98 11 -152t33 -75t58 -21q37 0 69 21v166h-66l-15 111h229v-342q-45 -33 -102 -52t-112 -19q-137 0 -202 88t-65 275q0 121 36.5 202.5t100.5 121t146 39.5q113 0 197 -84zM184 760l-52 54
l118 131h90l118 -131l-52 -54l-111 83z" />
    <glyph glyph-name="gcircumflex" unicode="&#x11d;" horiz-adv-x="454" 
d="M460 501q-37 -20 -124 -20q44 -20 65 -53.5t21 -84.5q0 -79 -51.5 -128t-140.5 -49q-28 0 -48 6q-16 -11 -16 -34q0 -17 10.5 -26t38.5 -9h54q86 0 134.5 -42t48.5 -108q0 -79 -61.5 -126.5t-175.5 -47.5q-123 0 -170 43t-47 127h134q0 -38 17.5 -54.5t66.5 -16.5
q86 0 86 64q0 29 -16.5 43.5t-50.5 14.5h-40q-79 0 -115 27.5t-36 75.5q0 29 15 54.5t41 43.5q-43 27 -62.5 63t-19.5 90q0 90 55 141t150 51q63 0 106.5 16t93.5 47zM180.5 426.5q-14.5 -21.5 -14.5 -70.5q0 -93 57 -93q28 0 42 21t14 74q0 48 -13.5 69t-41.5 21
q-29 0 -43.5 -21.5zM118 626l-52 54l118 139h90l118 -139l-52 -54l-111 91z" />
    <glyph glyph-name="Gbreve" unicode="&#x11e;" horiz-adv-x="545" 
d="M508 626l-75 -79q-31 26 -56.5 37.5t-58.5 11.5q-64 0 -96 -55t-32 -194q0 -98 11 -152t33 -75t58 -21q37 0 69 21v166h-66l-15 111h229v-342q-45 -33 -102 -52t-112 -19q-137 0 -202 88t-65 275q0 121 36.5 202.5t100.5 121t146 39.5q113 0 197 -84zM191 794.5
q-37 42.5 -43 114.5l79 16q16 -68 69 -68q27 0 44 17.5t23 50.5l80 -16q-6 -72 -43 -114.5t-104 -42.5q-68 0 -105 42.5z" />
    <glyph glyph-name="gbreve" unicode="&#x11f;" horiz-adv-x="454" 
d="M460 501q-37 -20 -124 -20q44 -20 65 -53.5t21 -84.5q0 -79 -51.5 -128t-140.5 -49q-28 0 -48 6q-16 -11 -16 -34q0 -17 10.5 -26t38.5 -9h54q86 0 134.5 -42t48.5 -108q0 -79 -61.5 -126.5t-175.5 -47.5q-123 0 -170 43t-47 127h134q0 -38 17.5 -54.5t66.5 -16.5
q86 0 86 64q0 29 -16.5 43.5t-50.5 14.5h-40q-79 0 -115 27.5t-36 75.5q0 29 15 54.5t41 43.5q-43 27 -62.5 63t-19.5 90q0 90 55 141t150 51q63 0 106.5 16t93.5 47zM180.5 426.5q-14.5 -21.5 -14.5 -70.5q0 -93 57 -93q28 0 42 21t14 74q0 48 -13.5 69t-41.5 21
q-29 0 -43.5 -21.5zM124.5 678.5q-37.5 44.5 -42.5 123.5l79 15q16 -80 69 -80t67 80l80 -15q-5 -79 -42 -123.5t-105 -44.5t-105.5 44.5z" />
    <glyph glyph-name="Gdotaccent" unicode="&#x120;" horiz-adv-x="545" 
d="M508 626l-75 -79q-31 26 -56.5 37.5t-58.5 11.5q-64 0 -96 -55t-32 -194q0 -98 11 -152t33 -75t58 -21q37 0 69 21v166h-66l-15 111h229v-342q-45 -33 -102 -52t-112 -19q-137 0 -202 88t-65 275q0 121 36.5 202.5t100.5 121t146 39.5q113 0 197 -84zM356.5 908.5
q23.5 -24.5 23.5 -62.5q0 -37 -24 -61.5t-62 -24.5t-62 24.5t-24 61.5q0 38 24 62.5t62 24.5q39 0 62.5 -24.5z" />
    <glyph glyph-name="gdotaccent" unicode="&#x121;" horiz-adv-x="454" 
d="M460 501q-37 -20 -124 -20q44 -20 65 -53.5t21 -84.5q0 -79 -51.5 -128t-140.5 -49q-28 0 -48 6q-16 -11 -16 -34q0 -17 10.5 -26t38.5 -9h54q86 0 134.5 -42t48.5 -108q0 -79 -61.5 -126.5t-175.5 -47.5q-123 0 -170 43t-47 127h134q0 -38 17.5 -54.5t66.5 -16.5
q86 0 86 64q0 29 -16.5 43.5t-50.5 14.5h-40q-79 0 -115 27.5t-36 75.5q0 29 15 54.5t41 43.5q-43 27 -62.5 63t-19.5 90q0 90 55 141t150 51q63 0 106.5 16t93.5 47zM180.5 426.5q-14.5 -21.5 -14.5 -70.5q0 -93 57 -93q28 0 42 21t14 74q0 48 -13.5 69t-41.5 21
q-29 0 -43.5 -21.5zM290.5 782.5q23.5 -24.5 23.5 -62.5q0 -37 -24 -61.5t-62 -24.5t-62 24.5t-24 61.5q0 38 24 62.5t62 24.5q39 0 62.5 -24.5z" />
    <glyph glyph-name="Gcommaaccent" unicode="&#x122;" horiz-adv-x="545" 
d="M508 626l-75 -79q-31 26 -56.5 37.5t-58.5 11.5q-64 0 -96 -55t-32 -194q0 -98 11 -152t33 -75t58 -21q37 0 69 21v166h-66l-15 111h229v-342q-45 -33 -102 -52t-112 -19q-137 0 -202 88t-65 275q0 121 36.5 202.5t100.5 121t146 39.5q113 0 197 -84zM346 -90
q20 -21 20 -54q0 -17 -4.5 -33.5t-17.5 -49.5l-40 -95h-73l26 116q-36 22 -36 62q0 32 20.5 53.5t52.5 21.5t52 -21z" />
    <glyph glyph-name="gcommaaccent" unicode="&#x123;" horiz-adv-x="454" 
d="M460 501q-37 -20 -124 -20q44 -20 65 -53.5t21 -84.5q0 -79 -51.5 -128t-140.5 -49q-28 0 -48 6q-16 -11 -16 -34q0 -17 10.5 -26t38.5 -9h54q86 0 134.5 -42t48.5 -108q0 -79 -61.5 -126.5t-175.5 -47.5q-123 0 -170 43t-47 127h134q0 -38 17.5 -54.5t66.5 -16.5
q86 0 86 64q0 29 -16.5 43.5t-50.5 14.5h-40q-79 0 -115 27.5t-36 75.5q0 29 15 54.5t41 43.5q-43 27 -62.5 63t-19.5 90q0 90 55 141t150 51q63 0 106.5 16t93.5 47zM180.5 426.5q-14.5 -21.5 -14.5 -70.5q0 -93 57 -93q28 0 42 21t14 74q0 48 -13.5 69t-41.5 21
q-29 0 -43.5 -21.5zM175 599q-20 21 -20 54q0 17 4.5 33.5t17.5 49.5l40 95h73l-26 -116q36 -22 36 -62q0 -32 -20.5 -53.5t-52.5 -21.5t-52 21z" />
    <glyph glyph-name="Hcircumflex" unicode="&#x124;" horiz-adv-x="551" 
d="M348 0v299h-145v-299h-157v693h157v-271h145v271h157v-693h-157zM165 760l-52 54l118 131h90l118 -131l-52 -54l-111 83z" />
    <glyph glyph-name="hcircumflex" unicode="&#x125;" horiz-adv-x="480" 
d="M406.5 507q32.5 -41 32.5 -110v-397h-151v381q0 52 -29 52t-63 -64v-369h-151v742l151 16v-283q25 38 54 55.5t67 17.5q57 0 89.5 -41zM129 809l-52 54l118 131h90l118 -131l-52 -54l-111 83z" />
    <glyph glyph-name="Hbar" unicode="&#x126;" horiz-adv-x="562" 
d="M552 590v-89h-41v-501h-157v299h-145v-299h-157v501h-42v89h42v103h157v-103h145v103h157v-103h41zM354 422v79h-145v-79h145z" />
    <glyph glyph-name="hbar" unicode="&#x127;" horiz-adv-x="485" 
d="M411.5 507q32.5 -41 32.5 -110v-397h-151v381q0 52 -29 52t-63 -64v-369h-151v599h-46v89h46v54l151 16v-70h103v-89h-103v-124q25 38 54 55.5t67 17.5q57 0 89.5 -41z" />
    <glyph glyph-name="Itilde" unicode="&#x128;" horiz-adv-x="250" 
d="M203 693v-693h-157v693h157zM143.5 774.5q-13.5 6.5 -30.5 17.5q-21 16 -35 16q-13 0 -22 -9.5t-21 -31.5l-70 33q16 50 45 80.5t66 30.5q18 0 31 -6t32 -18q11 -9 19 -13t17 -4q13 0 21.5 9.5t19.5 30.5l71 -32q-16 -51 -45 -80.5t-66 -29.5q-19 0 -32.5 6.5z" />
    <glyph glyph-name="itilde" unicode="&#x129;" horiz-adv-x="240" 
d="M196 531v-531h-151v531h151zM137.5 648.5q-13.5 6.5 -30.5 17.5q-21 16 -35 16q-13 0 -22 -9.5t-21 -31.5l-70 33q16 50 45 80.5t66 30.5q18 0 31 -6t32 -18q11 -9 19 -13t17 -4q13 0 21.5 9.5t19.5 30.5l71 -32q-16 -51 -45 -80.5t-66 -29.5q-19 0 -32.5 6.5z" />
    <glyph glyph-name="Imacron" unicode="&#x12a;" horiz-adv-x="250" 
d="M203 693v-693h-157v693h157zM255 784h-260v102h260v-102z" />
    <glyph glyph-name="imacron" unicode="&#x12b;" horiz-adv-x="240" 
d="M196 531v-531h-151v531h151zM250 658h-260v102h260v-102z" />
    <glyph glyph-name="Ibreve" unicode="&#x12c;" horiz-adv-x="250" 
d="M203 693v-693h-157v693h157zM21 794.5q-37 42.5 -43 114.5l79 16q16 -68 69 -68q27 0 44 17.5t23 50.5l80 -16q-6 -72 -43 -114.5t-104 -42.5q-68 0 -105 42.5z" />
    <glyph glyph-name="ibreve" unicode="&#x12d;" horiz-adv-x="240" 
d="M196 531v-531h-151v531h151zM15.5 678.5q-37.5 44.5 -42.5 123.5l79 15q16 -80 69 -80t67 80l80 -15q-5 -79 -42 -123.5t-105 -44.5t-105.5 44.5z" />
    <glyph glyph-name="Iogonek" unicode="&#x12e;" horiz-adv-x="250" 
d="M203 693v-693h-37q-55 -26 -75 -51t-20 -53q0 -46 44 -46q23 0 48 7l-9 -93q-29 -8 -58 -8q-58 0 -94.5 30t-36.5 84q0 80 81 133v690h157z" />
    <glyph glyph-name="iogonek" unicode="&#x12f;" horiz-adv-x="240" 
d="M57 658.5q-24 24.5 -24 61.5q0 38 24 62.5t62 24.5q39 0 62.5 -24.5t23.5 -62.5q0 -37 -24 -61.5t-62 -24.5t-62 24.5zM45 531h151v-531h-28q-55 -26 -75 -51t-20 -53q0 -46 44 -46q23 0 48 7l-9 -93q-29 -8 -58 -8q-58 0 -94.5 30t-36.5 84q0 78 78 131v530z" />
    <glyph glyph-name="Idotaccent" unicode="&#x130;" horiz-adv-x="250" 
d="M203 693v-693h-157v693h157zM186.5 908.5q23.5 -24.5 23.5 -62.5q0 -37 -24 -61.5t-62 -24.5t-62 24.5t-24 61.5q0 38 24 62.5t62 24.5q39 0 62.5 -24.5z" />
    <glyph glyph-name="dotlessi" unicode="&#x131;" horiz-adv-x="240" 
d="M196 531v-531h-151v531h151z" />
    <glyph glyph-name="IJ" unicode="&#x132;" horiz-adv-x="517" 
d="M203 693v-693h-157v693h157zM473 104q0 -80 -27 -133t-69 -83.5t-101 -53.5l-41 110q36 18 53 38.5t22.5 49t5.5 78.5v583h157v-589z" />
    <glyph glyph-name="ij" unicode="&#x133;" horiz-adv-x="480" 
d="M196 531v-531h-151v531h151zM181.5 782.5q23.5 -24.5 23.5 -62.5q0 -37 -24 -61.5t-62 -24.5t-62 24.5t-24 61.5q0 38 24 62.5t62 24.5q39 0 62.5 -24.5zM436 38q0 -104 -49.5 -161t-141.5 -97l-51 109q32 19 50.5 36t29.5 43.5t11 67.5v495h151v-493zM421.5 782.5
q23.5 -24.5 23.5 -62.5q0 -37 -24 -61.5t-62 -24.5t-62 24.5t-24 61.5q0 38 24 62.5t62 24.5q39 0 62.5 -24.5z" />
    <glyph glyph-name="Jcircumflex" unicode="&#x134;" horiz-adv-x="267" 
d="M223 104q0 -80 -27 -133t-69 -83.5t-101 -53.5l-41 110q36 18 53 38.5t22.5 49t5.5 78.5v583h157v-589zM34 760l-52 54l118 131h90l118 -131l-52 -54l-111 83z" />
    <glyph glyph-name="jcircumflex" unicode="&#x135;" horiz-adv-x="240" 
d="M196 38q0 -104 -49.5 -161t-141.5 -97l-51 109q32 19 50.5 36t29.5 43.5t11 67.5v495h151v-493zM9 626l-52 54l118 139h90l118 -139l-52 -54l-111 91z" />
    <glyph glyph-name="Kcommaaccent" unicode="&#x136;" horiz-adv-x="540" 
d="M203 693v-693h-157v693h157zM537 693l-172 -312l187 -381h-171l-173 370l174 323h155zM326 -90q20 -21 20 -54q0 -17 -4.5 -33.5t-17.5 -49.5l-40 -95h-73l26 116q-36 22 -36 62q0 32 20.5 53.5t52.5 21.5t52 -21z" />
    <glyph glyph-name="kcommaaccent" unicode="&#x137;" horiz-adv-x="474" 
d="M196 758v-758h-151v742zM473 531l-126 -234l134 -297h-159l-123 290l130 241h144zM290 -90q20 -21 20 -54q0 -17 -4.5 -33.5t-17.5 -49.5l-40 -95h-73l26 116q-36 22 -36 62q0 32 20.5 53.5t52.5 21.5t52 -21z" />
    <glyph glyph-name="kgreenlandic" unicode="&#x138;" horiz-adv-x="474" 
d="M196 531v-531h-151v531h151zM473 531l-126 -237l134 -294h-159l-123 287l130 244h144z" />
    <glyph glyph-name="Lacute" unicode="&#x139;" horiz-adv-x="426" 
d="M203 693v-569h218l-16 -124h-359v693h157zM188 945l57 -109l-203 -85l-38 74z" />
    <glyph glyph-name="lacute" unicode="&#x13a;" horiz-adv-x="254" 
d="M75 20q-35 37 -35 101v621l151 16v-630q0 -25 21 -25q6 0 18 3l27 -104q-16 -8 -38 -13.5t-46 -5.5q-63 0 -98 37zM178 994l57 -109l-203 -85l-38 74z" />
    <glyph glyph-name="Lcommaaccent" unicode="&#x13b;" horiz-adv-x="426" 
d="M203 693v-569h218l-16 -124h-359v693h157zM278 -90q20 -21 20 -54q0 -17 -4.5 -33.5t-17.5 -49.5l-40 -95h-73l26 116q-36 22 -36 62q0 32 20.5 53.5t52.5 21.5t52 -21z" />
    <glyph glyph-name="lcommaaccent" unicode="&#x13c;" horiz-adv-x="254" 
d="M75 20q-35 37 -35 101v621l151 16v-630q0 -25 21 -25q6 0 18 3l27 -104q-16 -8 -38 -13.5t-46 -5.5q-63 0 -98 37zM207 -90q20 -21 20 -54q0 -17 -4.5 -33.5t-17.5 -49.5l-40 -95h-73l26 116q-36 22 -36 62q0 32 20.5 53.5t52.5 21.5t52 -21z" />
    <glyph glyph-name="Lcaron" unicode="&#x13d;" horiz-adv-x="426" 
d="M203 693v-569h218l-16 -124h-359v693h157zM317 480l46 212l-109 17l-20 -216z" />
    <glyph glyph-name="lcaron" unicode="&#x13e;" horiz-adv-x="325" 
d="M75 20q-35 37 -35 101v621l151 16v-630q0 -25 21 -25q6 0 18 3l27 -104q-16 -8 -38 -13.5t-46 -5.5q-63 0 -98 37zM303 529l46 212l-109 17l-20 -216z" />
    <glyph glyph-name="Ldot" unicode="&#x13f;" horiz-adv-x="426" 
d="M203 693v-569h218l-16 -124h-359v693h157zM395.5 459.5q23.5 -24.5 23.5 -62.5q0 -37 -24 -61.5t-62 -24.5t-62 24.5t-24 61.5q0 38 24 62.5t62 24.5q39 0 62.5 -24.5z" />
    <glyph glyph-name="ldot" unicode="&#x140;" horiz-adv-x="395" 
d="M75 20q-35 37 -35 101v621l151 16v-630q0 -25 21 -25q6 0 18 3l27 -104q-16 -8 -38 -13.5t-46 -5.5q-63 0 -98 37zM375.5 438.5q23.5 -24.5 23.5 -62.5q0 -37 -24 -61.5t-62 -24.5t-62 24.5t-24 61.5q0 38 24 62.5t62 24.5q39 0 62.5 -24.5z" />
    <glyph glyph-name="Lslash" unicode="&#x141;" horiz-adv-x="466" 
d="M244 124h218l-16 -124h-359v227l-36 -26l-49 84l79 58l6 4v346h157v-234l89 63l49 -83l-138 -99v-216z" />
    <glyph glyph-name="lslash" unicode="&#x142;" horiz-adv-x="312" 
d="M264 106l27 -104q-16 -8 -38 -13.5t-46 -5.5q-63 0 -98 37t-35 101v150l-32 -22l-49 80l80 58l1 1v354l151 16v-270l46 31l49 -79l-95 -65v-247q0 -25 21 -25q6 0 18 3z" />
    <glyph glyph-name="Nacute" unicode="&#x143;" horiz-adv-x="547" 
d="M501 0h-194l-146 549q10 -87 15 -145.5t5 -141.5v-262h-135v693h194l146 -549q-21 138 -21 259v290h136v-693zM338 945l57 -109l-203 -85l-38 74z" />
    <glyph glyph-name="nacute" unicode="&#x144;" horiz-adv-x="480" 
d="M406.5 507q32.5 -41 32.5 -110v-397h-151v381q0 52 -29 52t-63 -64v-369h-151v531h131l11 -63q26 40 57 60t73 20q57 0 89.5 -41zM298 825l59 -107l-201 -94l-41 73z" />
    <glyph glyph-name="Ncommaaccent" unicode="&#x145;" horiz-adv-x="547" 
d="M501 0h-194l-146 549q10 -87 15 -145.5t5 -141.5v-262h-135v693h194l146 -549q-21 138 -21 259v290h136v-693zM326 -90q20 -21 20 -54q0 -17 -4.5 -33.5t-17.5 -49.5l-40 -95h-73l26 116q-36 22 -36 62q0 32 20.5 53.5t52.5 21.5t52 -21z" />
    <glyph glyph-name="ncommaaccent" unicode="&#x146;" horiz-adv-x="480" 
d="M406.5 507q32.5 -41 32.5 -110v-397h-151v381q0 52 -29 52t-63 -64v-369h-151v531h131l11 -63q26 40 57 60t73 20q57 0 89.5 -41zM292 -90q20 -21 20 -54q0 -17 -4.5 -33.5t-17.5 -49.5l-40 -95h-73l26 116q-36 22 -36 62q0 32 20.5 53.5t52.5 21.5t52 -21z" />
    <glyph glyph-name="Ncaron" unicode="&#x147;" horiz-adv-x="547" 
d="M501 0h-194l-146 549q10 -87 15 -145.5t5 -141.5v-262h-135v693h194l146 -549q-21 138 -21 259v290h136v-693zM386 936l52 -55l-118 -131h-90l-118 131l52 55l111 -84z" />
    <glyph glyph-name="ncaron" unicode="&#x148;" horiz-adv-x="480" 
d="M406.5 507q32.5 -41 32.5 -110v-397h-151v381q0 52 -29 52t-63 -64v-369h-151v531h131l11 -63q26 40 57 60t73 20q57 0 89.5 -41zM355 807l52 -55l-118 -139h-90l-118 139l52 55l111 -93z" />
    <glyph glyph-name="napostrophe" unicode="&#x149;" horiz-adv-x="596" 
d="M138.5 740.5q16.5 -18.5 16.5 -47.5q0 -15 -4 -30t-16 -45l-32 -83h-63l18 102q-28 21 -28 56q0 28 17.5 47t45.5 19q29 0 45.5 -18.5zM522.5 507q32.5 -41 32.5 -110v-397h-151v381q0 52 -29 52t-63 -64v-369h-151v531h131l11 -63q26 40 57 60t73 20q57 0 89.5 -41z" />
    <glyph glyph-name="Eng" unicode="&#x14a;" horiz-adv-x="547" 
d="M501 693v-741q0 -85 -48.5 -129t-129.5 -44q-74 0 -127 42l52 89q15 -9 27 -12.5t28 -3.5q41 0 41 49v57h-37l-146 549q10 -87 15 -145.5t5 -141.5v-262h-135v693h194l146 -549q-21 138 -21 259v290h136z" />
    <glyph glyph-name="eng" unicode="&#x14b;" horiz-adv-x="480" 
d="M406.5 507q32.5 -41 32.5 -110v-450q0 -81 -47.5 -124.5t-124.5 -43.5q-76 0 -128 42l52 85q16 -9 28 -12.5t27 -3.5q42 0 42 49v442q0 52 -29 52t-63 -64v-369h-151v531h131l11 -63q26 40 57 60t73 20q57 0 89.5 -41z" />
    <glyph glyph-name="Omacron" unicode="&#x14c;" horiz-adv-x="581" 
d="M485.5 619.5q67.5 -90.5 67.5 -272.5q0 -180 -68 -272t-195 -92t-194.5 90.5t-67.5 273.5q0 180 67.5 271.5t194.5 91.5q128 0 195.5 -90.5zM214.5 538.5q-23.5 -56.5 -23.5 -191.5q0 -94 10.5 -148t32 -77.5t56.5 -23.5q36 0 57.5 23t32 77.5t10.5 148.5
q0 136 -23.5 192t-76.5 56q-52 0 -75.5 -56.5zM420 784h-260v102h260v-102z" />
    <glyph glyph-name="omacron" unicode="&#x14d;" horiz-adv-x="494" 
d="M409.5 477q58.5 -71 58.5 -212q0 -135 -58.5 -208.5t-162.5 -73.5t-162.5 71.5t-58.5 211.5q0 137 58.5 209.5t162.5 72.5t162.5 -71zM196.5 397.5q-15.5 -38.5 -15.5 -131.5q0 -96 15.5 -134t50.5 -38t50.5 38.5t15.5 132.5q0 95 -15.5 133t-50.5 38t-50.5 -38.5z
M377 658h-260v102h260v-102z" />
    <glyph glyph-name="Obreve" unicode="&#x14e;" horiz-adv-x="581" 
d="M485.5 619.5q67.5 -90.5 67.5 -272.5q0 -180 -68 -272t-195 -92t-194.5 90.5t-67.5 273.5q0 180 67.5 271.5t194.5 91.5q128 0 195.5 -90.5zM214.5 538.5q-23.5 -56.5 -23.5 -191.5q0 -94 10.5 -148t32 -77.5t56.5 -23.5q36 0 57.5 23t32 77.5t10.5 148.5
q0 136 -23.5 192t-76.5 56q-52 0 -75.5 -56.5zM186 794.5q-37 42.5 -43 114.5l79 16q16 -68 69 -68q27 0 44 17.5t23 50.5l80 -16q-6 -72 -43 -114.5t-104 -42.5q-68 0 -105 42.5z" />
    <glyph glyph-name="obreve" unicode="&#x14f;" horiz-adv-x="494" 
d="M409.5 477q58.5 -71 58.5 -212q0 -135 -58.5 -208.5t-162.5 -73.5t-162.5 71.5t-58.5 211.5q0 137 58.5 209.5t162.5 72.5t162.5 -71zM196.5 397.5q-15.5 -38.5 -15.5 -131.5q0 -96 15.5 -134t50.5 -38t50.5 38.5t15.5 132.5q0 95 -15.5 133t-50.5 38t-50.5 -38.5z
M142.5 678.5q-37.5 44.5 -42.5 123.5l79 15q16 -80 69 -80t67 80l80 -15q-5 -79 -42 -123.5t-105 -44.5t-105.5 44.5z" />
    <glyph glyph-name="Ohungarumlaut" unicode="&#x150;" horiz-adv-x="581" 
d="M485.5 619.5q67.5 -90.5 67.5 -272.5q0 -180 -68 -272t-195 -92t-194.5 90.5t-67.5 273.5q0 180 67.5 271.5t194.5 91.5q128 0 195.5 -90.5zM214.5 538.5q-23.5 -56.5 -23.5 -191.5q0 -94 10.5 -148t32 -77.5t56.5 -23.5q36 0 57.5 23t32 77.5t10.5 148.5
q0 136 -23.5 192t-76.5 56q-52 0 -75.5 -56.5zM253 981l96 -47l-99 -177l-72 30zM404 981l94 -50l-105 -179l-70 35z" />
    <glyph glyph-name="ohungarumlaut" unicode="&#x151;" horiz-adv-x="494" 
d="M409.5 477q58.5 -71 58.5 -212q0 -135 -58.5 -208.5t-162.5 -73.5t-162.5 71.5t-58.5 211.5q0 137 58.5 209.5t162.5 72.5t162.5 -71zM196.5 397.5q-15.5 -38.5 -15.5 -131.5q0 -96 15.5 -134t50.5 -38t50.5 38.5t15.5 132.5q0 95 -15.5 133t-50.5 38t-50.5 -38.5z
M202 855l96 -47l-99 -177l-72 30zM353 855l94 -50l-105 -179l-70 35z" />
    <glyph glyph-name="OE" unicode="&#x152;" horiz-adv-x="751" 
d="M477 114h251v-114h-366q-39 -17 -86 -17q-116 0 -182 94t-66 270q0 175 66 269t182 94q48 0 87 -17h368l-16 -112h-239q47 -70 56 -173h160v-112h-159q-8 -109 -56 -182zM352 154q22 56 22 193q0 135 -22.5 191.5t-69.5 56.5t-69 -56.5t-22 -191.5q0 -136 22 -192.5
t69 -56.5q48 0 70 56z" />
    <glyph glyph-name="oe" unicode="&#x153;" horiz-adv-x="756" 
d="M732 221h-269q5 -70 28 -98.5t63 -28.5q27 0 52 10.5t54 32.5l62 -80q-74 -74 -179 -74q-96 0 -154 77q-59 -77 -147 -77q-101 0 -158.5 73t-57.5 210q0 132 58.5 207t159.5 75q88 0 145 -75q59 75 145 75q91 0 146 -70t55 -202q0 -32 -3 -55zM589 319q0 66 -13.5 96.5
t-46.5 30.5q-31 0 -46.5 -30.5t-19.5 -103.5h126v7zM295.5 133.5q15.5 39.5 15.5 132.5q0 92 -15 131t-49 39q-35 0 -50.5 -38.5t-15.5 -131.5q0 -95 15.5 -133.5t49.5 -38.5t49.5 39.5z" />
    <glyph glyph-name="Racute" unicode="&#x154;" horiz-adv-x="517" 
d="M359 0l-113 267h-5h-38v-267h-157v693h185q258 0 258 -210q0 -61 -25.5 -110t-79.5 -76l142 -297h-167zM235 376q50 0 72 25.5t22 81.5q0 51 -23.5 75t-75.5 24h-27v-206h32zM317 945l57 -109l-203 -85l-38 74z" />
    <glyph glyph-name="racute" unicode="&#x155;" horiz-adv-x="338" 
d="M344 538l-25 -145q-18 6 -37 6q-37 0 -55.5 -28.5t-30.5 -85.5v-285h-151v531h131l11 -87q38 102 115 102q21 0 42 -8zM249 825l59 -107l-201 -94l-41 73z" />
    <glyph glyph-name="Rcommaaccent" unicode="&#x156;" horiz-adv-x="517" 
d="M359 0l-113 267h-5h-38v-267h-157v693h185q258 0 258 -210q0 -61 -25.5 -110t-79.5 -76l142 -297h-167zM235 376q50 0 72 25.5t22 81.5q0 51 -23.5 75t-75.5 24h-27v-206h32zM313 -90q20 -21 20 -54q0 -17 -4.5 -33.5t-17.5 -49.5l-40 -95h-73l26 116q-36 22 -36 62
q0 32 20.5 53.5t52.5 21.5t52 -21z" />
    <glyph glyph-name="rcommaaccent" unicode="&#x157;" horiz-adv-x="338" 
d="M344 538l-25 -145q-18 6 -37 6q-37 0 -55.5 -28.5t-30.5 -85.5v-285h-151v531h131l11 -87q38 102 115 102q21 0 42 -8zM172 -90q20 -21 20 -54q0 -17 -4.5 -33.5t-17.5 -49.5l-40 -95h-73l26 116q-36 22 -36 62q0 32 20.5 53.5t52.5 21.5t52 -21z" />
    <glyph glyph-name="Rcaron" unicode="&#x158;" horiz-adv-x="517" 
d="M359 0l-113 267h-5h-38v-267h-157v693h185q258 0 258 -210q0 -61 -25.5 -110t-79.5 -76l142 -297h-167zM235 376q50 0 72 25.5t22 81.5q0 51 -23.5 75t-75.5 24h-27v-206h32zM365 936l52 -55l-118 -131h-90l-118 131l52 55l111 -84z" />
    <glyph glyph-name="rcaron" unicode="&#x159;" horiz-adv-x="338" 
d="M344 538l-25 -145q-18 6 -37 6q-37 0 -55.5 -28.5t-30.5 -85.5v-285h-151v531h131l11 -87q38 102 115 102q21 0 42 -8zM306 807l52 -55l-118 -139h-90l-118 139l52 55l111 -93z" />
    <glyph glyph-name="Sacute" unicode="&#x15a;" horiz-adv-x="477" 
d="M355.5 688q49.5 -22 90.5 -66l-69 -82q-60 55 -119 55q-34 0 -53 -20t-19 -53q0 -32 22 -52.5t85 -47.5q58 -26 94 -53.5t54.5 -67.5t18.5 -99q0 -63 -28.5 -113t-81.5 -78t-124 -28q-74 0 -128 26t-97 72l75 83q36 -32 68.5 -48.5t69.5 -16.5q41 0 62 24.5t21 66.5
q0 38 -21 62.5t-76 46.5q-96 40 -136 88.5t-40 122.5q0 59 28 104.5t77.5 70.5t111.5 25q65 0 114.5 -22zM309 945l57 -109l-203 -85l-38 74z" />
    <glyph glyph-name="sacute" unicode="&#x15b;" horiz-adv-x="402" 
d="M299 531q43 -17 75 -48l-55 -81q-55 38 -99 38q-24 0 -37.5 -12t-13.5 -33q0 -23 17 -37.5t73 -37.5q67 -28 99 -65t32 -99q0 -80 -56.5 -126.5t-146.5 -46.5q-56 0 -105 20.5t-84 57.5l71 78q60 -49 110 -49q27 0 42.5 14t15.5 39q0 28 -17.5 44.5t-71.5 38.5
q-68 28 -98 64.5t-30 93.5q0 72 50 118t137 46q49 0 92 -17zM258 825l59 -107l-201 -94l-41 73z" />
    <glyph glyph-name="Scircumflex" unicode="&#x15c;" horiz-adv-x="477" 
d="M355.5 688q49.5 -22 90.5 -66l-69 -82q-60 55 -119 55q-34 0 -53 -20t-19 -53q0 -32 22 -52.5t85 -47.5q58 -26 94 -53.5t54.5 -67.5t18.5 -99q0 -63 -28.5 -113t-81.5 -78t-124 -28q-74 0 -128 26t-97 72l75 83q36 -32 68.5 -48.5t69.5 -16.5q41 0 62 24.5t21 66.5
q0 38 -21 62.5t-76 46.5q-96 40 -136 88.5t-40 122.5q0 59 28 104.5t77.5 70.5t111.5 25q65 0 114.5 -22zM135 760l-52 54l118 131h90l118 -131l-52 -54l-111 83z" />
    <glyph glyph-name="scircumflex" unicode="&#x15d;" horiz-adv-x="402" 
d="M299 531q43 -17 75 -48l-55 -81q-55 38 -99 38q-24 0 -37.5 -12t-13.5 -33q0 -23 17 -37.5t73 -37.5q67 -28 99 -65t32 -99q0 -80 -56.5 -126.5t-146.5 -46.5q-56 0 -105 20.5t-84 57.5l71 78q60 -49 110 -49q27 0 42.5 14t15.5 39q0 28 -17.5 44.5t-71.5 38.5
q-68 28 -98 64.5t-30 93.5q0 72 50 118t137 46q49 0 92 -17zM93 626l-52 54l118 139h90l118 -139l-52 -54l-111 91z" />
    <glyph glyph-name="Scedilla" unicode="&#x15e;" horiz-adv-x="477" 
d="M410.5 59q-49.5 -59 -135.5 -72v-40q87 -14 87 -95q0 -50 -34 -80.5t-95 -30.5q-58 0 -99 29l34 66q26 -13 54 -13q35 0 35 31q0 19 -18 27t-58 8l10 96q-111 10 -190 96l75 83q36 -32 68.5 -48.5t69.5 -16.5q41 0 62 24.5t21 66.5q0 38 -21 62.5t-76 46.5
q-96 40 -136 88.5t-40 122.5q0 59 28 104.5t77.5 70.5t111.5 25q65 0 114.5 -22t90.5 -66l-69 -82q-60 55 -119 55q-34 0 -53 -20t-19 -53q0 -32 22 -52.5t85 -47.5q58 -26 94 -53.5t54.5 -67.5t18.5 -99q0 -84 -49.5 -143z" />
    <glyph glyph-name="scedilla" unicode="&#x15f;" horiz-adv-x="402" 
d="M350.5 46q-39.5 -44 -106.5 -57v-42q87 -14 87 -95q0 -50 -34 -80.5t-95 -30.5q-58 0 -99 29l34 66q26 -13 54 -13q35 0 35 31q0 19 -18 27t-58 8l10 95q-48 5 -90 25t-72 52l71 78q60 -49 110 -49q27 0 42.5 14t15.5 39q0 28 -17.5 44.5t-71.5 38.5q-68 28 -98 64.5
t-30 93.5q0 72 50 118t137 46q49 0 92 -17t75 -48l-55 -81q-55 38 -99 38q-24 0 -37.5 -12t-13.5 -33q0 -23 17 -37.5t73 -37.5q67 -28 99 -65t32 -99q0 -66 -39.5 -110z" />
    <glyph glyph-name="Scaron" unicode="&#x160;" horiz-adv-x="477" 
d="M355.5 688q49.5 -22 90.5 -66l-69 -82q-60 55 -119 55q-34 0 -53 -20t-19 -53q0 -32 22 -52.5t85 -47.5q58 -26 94 -53.5t54.5 -67.5t18.5 -99q0 -63 -28.5 -113t-81.5 -78t-124 -28q-74 0 -128 26t-97 72l75 83q36 -32 68.5 -48.5t69.5 -16.5q41 0 62 24.5t21 66.5
q0 38 -21 62.5t-76 46.5q-96 40 -136 88.5t-40 122.5q0 59 28 104.5t77.5 70.5t111.5 25q65 0 114.5 -22zM357 936l52 -55l-118 -131h-90l-118 131l52 55l111 -84z" />
    <glyph glyph-name="scaron" unicode="&#x161;" horiz-adv-x="402" 
d="M299 531q43 -17 75 -48l-55 -81q-55 38 -99 38q-24 0 -37.5 -12t-13.5 -33q0 -23 17 -37.5t73 -37.5q67 -28 99 -65t32 -99q0 -80 -56.5 -126.5t-146.5 -46.5q-56 0 -105 20.5t-84 57.5l71 78q60 -49 110 -49q27 0 42.5 14t15.5 39q0 28 -17.5 44.5t-71.5 38.5
q-68 28 -98 64.5t-30 93.5q0 72 50 118t137 46q49 0 92 -17zM315 807l52 -55l-118 -139h-90l-118 139l52 55l111 -93z" />
    <glyph glyph-name="uni0162" unicode="&#x162;" horiz-adv-x="450" 
d="M369 -80.5q22 -25.5 22 -66.5q0 -51 -34.5 -81.5t-95.5 -30.5q-29 0 -55 8t-43 21l34 70q27 -17 50 -17q39 0 39 32q0 18 -18 26t-58 8l11 111h-75v573h-141v120h447l-16 -120h-133v-622q44 -6 66 -31.5z" />
    <glyph glyph-name="uni0163" unicode="&#x163;" horiz-adv-x="325" 
d="M323 -148q0 -50 -34 -80.5t-95 -30.5q-58 0 -99 29l34 66q26 -13 54 -13q35 0 35 31q0 19 -18 27t-58 8l10 102q-48 15 -72 55.5t-24 98.5v280h-55v106h55v116l151 17v-133h99l-16 -106h-83v-279q0 -43 36 -43q20 0 43 14l50 -92q-40 -33 -100 -41v-37q87 -14 87 -95z
" />
    <glyph glyph-name="Tcaron" unicode="&#x164;" horiz-adv-x="450" 
d="M452 693l-16 -120h-133v-573h-157v573h-141v120h447zM336 936l52 -55l-118 -131h-90l-118 131l52 55l111 -84z" />
    <glyph glyph-name="tcaron" unicode="&#x165;" horiz-adv-x="325" 
d="M352 776l-46 -212l-83 13l20 216zM286 117l50 -92q-25 -21 -58 -31.5t-67 -10.5q-77 0 -116 44t-39 118v280h-55v106h55v116l151 17v-133h99l-16 -106h-83v-279q0 -43 36 -43q20 0 43 14z" />
    <glyph glyph-name="Tbar" unicode="&#x166;" horiz-adv-x="450" 
d="M436 572h-133v-183h91v-90h-91v-300h-157v300h-92v90h92v183h-141v120h447z" />
    <glyph glyph-name="tbar" unicode="&#x167;" horiz-adv-x="325" 
d="M336 25q-25 -21 -58 -31.5t-67 -10.5q-77 0 -116 44t-39 118v115h-51v100h51v65h-55v106h55v116l151 17v-133h99l-16 -106h-83v-65h82v-100h-82v-114q0 -43 36 -43q20 0 43 14z" />
    <glyph glyph-name="Utilde" unicode="&#x168;" horiz-adv-x="536" 
d="M500 200q0 -62 -26 -110.5t-78 -77t-128 -28.5q-114 0 -173 59t-59 157v493h157v-486q0 -54 17.5 -80t57.5 -26t57.5 26t17.5 80v486h157v-493zM286.5 774.5q-13.5 6.5 -30.5 17.5q-21 16 -35 16q-13 0 -22 -9.5t-21 -31.5l-70 33q16 50 45 80.5t66 30.5q18 0 31 -6
t32 -18q11 -9 19 -13t17 -4q13 0 21.5 9.5t19.5 30.5l71 -32q-16 -51 -45 -80.5t-66 -29.5q-19 0 -32.5 6.5z" />
    <glyph glyph-name="utilde" unicode="&#x169;" horiz-adv-x="476" 
d="M431 0h-132l-6 61q-48 -78 -127 -78q-58 0 -91.5 42t-33.5 111v395h151v-389q0 -23 8 -35t23 -12q32 0 57 56v380h151v-531zM254.5 648.5q-13.5 6.5 -30.5 17.5q-21 16 -35 16q-13 0 -22 -9.5t-21 -31.5l-70 33q16 50 45 80.5t66 30.5q18 0 31 -6t32 -18q11 -9 19 -13
t17 -4q13 0 21.5 9.5t19.5 30.5l71 -32q-16 -51 -45 -80.5t-66 -29.5q-19 0 -32.5 6.5z" />
    <glyph glyph-name="Umacron" unicode="&#x16a;" horiz-adv-x="536" 
d="M500 200q0 -62 -26 -110.5t-78 -77t-128 -28.5q-114 0 -173 59t-59 157v493h157v-486q0 -54 17.5 -80t57.5 -26t57.5 26t17.5 80v486h157v-493zM398 784h-260v102h260v-102z" />
    <glyph glyph-name="umacron" unicode="&#x16b;" horiz-adv-x="476" 
d="M431 0h-132l-6 61q-48 -78 -127 -78q-58 0 -91.5 42t-33.5 111v395h151v-389q0 -23 8 -35t23 -12q32 0 57 56v380h151v-531zM367 658h-260v102h260v-102z" />
    <glyph glyph-name="Ubreve" unicode="&#x16c;" horiz-adv-x="536" 
d="M500 200q0 -62 -26 -110.5t-78 -77t-128 -28.5q-114 0 -173 59t-59 157v493h157v-486q0 -54 17.5 -80t57.5 -26t57.5 26t17.5 80v486h157v-493zM164 794.5q-37 42.5 -43 114.5l79 16q16 -68 69 -68q27 0 44 17.5t23 50.5l80 -16q-6 -72 -43 -114.5t-104 -42.5
q-68 0 -105 42.5z" />
    <glyph glyph-name="ubreve" unicode="&#x16d;" horiz-adv-x="476" 
d="M431 0h-132l-6 61q-48 -78 -127 -78q-58 0 -91.5 42t-33.5 111v395h151v-389q0 -23 8 -35t23 -12q32 0 57 56v380h151v-531zM132.5 678.5q-37.5 44.5 -42.5 123.5l79 15q16 -80 69 -80t67 80l80 -15q-5 -79 -42 -123.5t-105 -44.5t-105.5 44.5z" />
    <glyph glyph-name="Uring" unicode="&#x16e;" horiz-adv-x="536" 
d="M500 200q0 -62 -26 -110.5t-78 -77t-128 -28.5q-114 0 -173 59t-59 157v493h157v-486q0 -54 17.5 -80t57.5 -26t57.5 26t17.5 80v486h157v-493zM358 954.5q33 -35.5 33 -92.5q0 -58 -33 -94t-89 -36q-57 0 -89.5 36t-32.5 94q0 57 32.5 92.5t89.5 35.5q56 0 89 -35.5z
M234 862q0 -29 9 -41.5t26 -12.5q36 0 36 54q0 53 -36 53q-35 0 -35 -53z" />
    <glyph glyph-name="uring" unicode="&#x16f;" horiz-adv-x="476" 
d="M431 0h-132l-6 61q-48 -78 -127 -78q-58 0 -91.5 42t-33.5 111v395h151v-389q0 -23 8 -35t23 -12q32 0 57 56v380h151v-531zM326 828.5q33 -35.5 33 -92.5q0 -58 -33 -94t-89 -36q-57 0 -89.5 36t-32.5 94q0 57 32.5 92.5t89.5 35.5q56 0 89 -35.5zM202 736
q0 -29 9 -41.5t26 -12.5q36 0 36 54q0 53 -36 53q-35 0 -35 -53z" />
    <glyph glyph-name="Uhungarumlaut" unicode="&#x170;" horiz-adv-x="536" 
d="M500 200q0 -62 -26 -110.5t-78 -77t-128 -28.5q-114 0 -173 59t-59 157v493h157v-486q0 -54 17.5 -80t57.5 -26t57.5 26t17.5 80v486h157v-493zM231 981l96 -47l-99 -177l-72 30zM382 981l94 -50l-105 -179l-70 35z" />
    <glyph glyph-name="uhungarumlaut" unicode="&#x171;" horiz-adv-x="476" 
d="M431 0h-132l-6 61q-48 -78 -127 -78q-58 0 -91.5 42t-33.5 111v395h151v-389q0 -23 8 -35t23 -12q32 0 57 56v380h151v-531zM192 855l96 -47l-99 -177l-72 30zM343 855l94 -50l-105 -179l-70 35z" />
    <glyph glyph-name="Uogonek" unicode="&#x172;" horiz-adv-x="536" 
d="M500 693v-493q0 -70 -33.5 -123.5t-98.5 -76.5q-95 -45 -95 -103q0 -22 11.5 -34t31.5 -12q25 0 50 7l-9 -94q-30 -8 -60 -8q-55 0 -91 31.5t-36 83.5q0 72 77 114q-104 5 -157.5 63.5t-53.5 151.5v493h157v-486q0 -54 17.5 -80t57.5 -26t57.5 26t17.5 80v486h157z" />
    <glyph glyph-name="uogonek" unicode="&#x173;" horiz-adv-x="476" 
d="M356 -51q-20 -25 -20 -53q0 -46 44 -46q23 0 48 7l-9 -93q-29 -8 -58 -8q-58 0 -94.5 30t-36.5 84q0 78 77 130h-8l-6 61q-48 -78 -127 -78q-58 0 -91.5 42t-33.5 111v395h151v-389q0 -23 8 -35t23 -12q32 0 57 56v380h151v-531q-55 -26 -75 -51z" />
    <glyph glyph-name="Wcircumflex" unicode="&#x174;" horiz-adv-x="712" 
d="M704 693l-87 -693h-205l-57 537l-63 -537h-200l-84 693h150l50 -573l68 573h162l64 -573l58 573h144zM247 760l-52 54l118 131h90l118 -131l-52 -54l-111 83z" />
    <glyph glyph-name="wcircumflex" unicode="&#x175;" horiz-adv-x="639" 
d="M633 531l-88 -531h-176l-50 395l-49 -395h-175l-89 531h145l40 -417l59 417h143l56 -417l43 417h141zM209 626l-52 54l118 139h90l118 -139l-52 -54l-111 91z" />
    <glyph glyph-name="Ycircumflex" unicode="&#x176;" horiz-adv-x="500" 
d="M511 693l-182 -432v-261h-157v260l-182 433h164l98 -310l100 310h159zM139 760l-52 54l118 131h90l118 -131l-52 -54l-111 83z" />
    <glyph glyph-name="ycircumflex" unicode="&#x177;" horiz-adv-x="442" 
d="M310 -1q-52 -205 -262 -220l-16 104q63 11 95.5 36.5t50.5 80.5h-56l-127 531h152l70 -434l82 434h149zM110 626l-52 54l118 139h90l118 -139l-52 -54l-111 91z" />
    <glyph glyph-name="Ydieresis" unicode="&#x178;" horiz-adv-x="500" 
d="M511 693l-182 -432v-261h-157v260l-182 433h164l98 -310l100 310h159zM210 899q21 -22 21 -54q0 -33 -20.5 -54.5t-53.5 -21.5q-32 0 -53.5 22t-21.5 54t21.5 54t53.5 22t53 -22zM406 899q21 -22 21 -54q0 -33 -20.5 -54.5t-53.5 -21.5q-31 0 -52.5 22t-21.5 54t21.5 54
t52.5 22q32 0 53 -22z" />
    <glyph glyph-name="Zacute" unicode="&#x179;" horiz-adv-x="450" 
d="M432 693v-119l-251 -448h256l-15 -126h-412v117l250 454h-226v122h398zM291 945l57 -109l-203 -85l-38 74z" />
    <glyph glyph-name="zacute" unicode="&#x17a;" horiz-adv-x="385" 
d="M371 531v-107l-198 -309h202l-12 -115h-354v107l198 310h-181v114h345zM252 825l59 -107l-201 -94l-41 73z" />
    <glyph glyph-name="Zdotaccent" unicode="&#x17b;" horiz-adv-x="450" 
d="M432 693v-119l-251 -448h256l-15 -126h-412v117l250 454h-226v122h398zM289.5 908.5q23.5 -24.5 23.5 -62.5q0 -37 -24 -61.5t-62 -24.5t-62 24.5t-24 61.5q0 38 24 62.5t62 24.5q39 0 62.5 -24.5z" />
    <glyph glyph-name="zdotaccent" unicode="&#x17c;" horiz-adv-x="385" 
d="M371 531v-107l-198 -309h202l-12 -115h-354v107l198 310h-181v114h345zM259.5 782.5q23.5 -24.5 23.5 -62.5q0 -37 -24 -61.5t-62 -24.5t-62 24.5t-24 61.5q0 38 24 62.5t62 24.5q39 0 62.5 -24.5z" />
    <glyph glyph-name="Zcaron" unicode="&#x17d;" horiz-adv-x="450" 
d="M432 693v-119l-251 -448h256l-15 -126h-412v117l250 454h-226v122h398zM339 936l52 -55l-118 -131h-90l-118 131l52 55l111 -84z" />
    <glyph glyph-name="zcaron" unicode="&#x17e;" horiz-adv-x="385" 
d="M371 531v-107l-198 -309h202l-12 -115h-354v107l198 310h-181v114h345zM309 807l52 -55l-118 -139h-90l-118 139l52 55l111 -93z" />
    <glyph glyph-name="longs" unicode="&#x17f;" horiz-adv-x="306" 
d="M369 726l-40 -96q-34 17 -64 17q-50 0 -50 -56v-591h-151v425h-60v106h60v54q0 79 46 126t132 47q68 0 127 -32z" />
    <glyph glyph-name="uni0180" unicode="&#x180;" horiz-adv-x="503" 
d="M437.5 477q40.5 -71 40.5 -212q0 -131 -46.5 -206.5t-128.5 -75.5q-35 0 -63.5 17t-48.5 48l-7 -48h-134v598h-46v90h46v54l151 16v-70h103v-90h-103v-116q21 31 51.5 48.5t66.5 17.5q78 0 118.5 -71zM306.5 131q16.5 38 16.5 134q0 101 -14.5 136.5t-41.5 35.5
q-36 0 -66 -57v-240q24 -47 58 -47q31 0 47.5 38z" />
    <glyph glyph-name="uni0181" unicode="&#x181;" horiz-adv-x="644" 
d="M591 313.5q38 -38.5 38 -112.5q0 -104 -70 -152.5t-191 -48.5h-191v581h-18q-38 0 -38 -42q0 -33 18 -69l-96 -42q-19 28 -29.5 58t-10.5 68q0 64 42 101.5t121 37.5h180q123 0 191 -44.5t68 -132.5q0 -59 -32 -96.5t-84 -52.5q64 -15 102 -53.5zM334 582v-168h30
q45 0 64 22t19 65q0 40 -20.5 60.5t-65.5 20.5h-27zM444 136.5q25 22.5 25 73.5q0 50 -23 74.5t-73 24.5h-39v-195h36q49 0 74 22.5z" />
    <glyph glyph-name="uni0182" unicode="&#x182;" horiz-adv-x="501" 
d="M429 390q60 -54 60 -162q0 -115 -63 -171.5t-179 -56.5h-201v693h374l-15 -119h-202v-130h51q115 0 175 -54zM305.5 140.5q19.5 26.5 19.5 86.5q0 55 -20 81.5t-67 26.5h-35v-221h37q46 0 65.5 26.5z" />
    <glyph glyph-name="uni0183" unicode="&#x183;" horiz-adv-x="499" 
d="M432.5 477q40.5 -71 40.5 -212q0 -131 -46.5 -206.5t-128.5 -75.5q-35 0 -63.5 17t-48.5 48l-7 -48h-134v742h328l-16 -109h-161v-151q21 31 51.5 48.5t66.5 17.5q78 0 118.5 -71zM301.5 131q16.5 38 16.5 134q0 101 -14.5 136.5t-41.5 35.5q-36 0 -66 -57v-240
q24 -47 58 -47q31 0 47.5 38z" />
    <glyph glyph-name="uni0184" unicode="&#x184;" horiz-adv-x="518" 
d="M446.5 399q60.5 -55 60.5 -165q0 -119 -62 -176.5t-178 -57.5h-202v496l-62 49q51 56 89 148h130v-239h48q116 0 176.5 -55zM324 141.5q20 27.5 20 90.5q0 58 -20.5 85t-69.5 27h-32v-230h37q45 0 65 27.5z" />
    <glyph glyph-name="uni0185" unicode="&#x185;" horiz-adv-x="452" 
d="M392 319q52 -46 52 -137q0 -94 -52.5 -138t-153.5 -44h-177v343l-63 50q52 58 90 138h124v-166h17q111 0 163 -46zM279 118.5q13 18.5 13 65.5q0 48 -12 67t-45 19h-23v-170h24q30 0 43 18.5z" />
    <glyph glyph-name="uni0186" unicode="&#x186;" horiz-adv-x="484" 
d="M387 619.5q69 -90.5 69 -271.5q0 -180 -71 -272t-194 -92q-58 0 -105.5 24.5t-83.5 62.5l72 85q32 -26 55 -38.5t54 -12.5q53 0 81.5 55.5t28.5 187.5q0 136 -26 190.5t-78 54.5q-30 0 -54.5 -11.5t-50.5 -33.5l-75 86q40 38 85.5 57t103.5 19q120 0 189 -90.5z" />
    <glyph glyph-name="uni0187" unicode="&#x187;" horiz-adv-x="484" 
d="M608 814l-42 -90q-16 8 -27 11.5t-25 3.5q-20 0 -29 -11.5t-9 -39.5v-54l-69 -81q-27 20 -51.5 30t-51.5 10q-55 0 -84 -56.5t-29 -188.5q0 -129 29.5 -186t84.5 -57q30 0 52 12t54 38l71 -84q-36 -39 -84 -63.5t-107 -24.5q-120 0 -191.5 92t-71.5 273q0 117 33.5 199
t89.5 122.5t125 40.5q37 0 70 -15v7q0 70 39 109.5t105 39.5q63 0 118 -37z" />
    <glyph glyph-name="uni0188" unicode="&#x188;" horiz-adv-x="401" 
d="M537 721l-42 -91q-29 16 -52 16q-20 0 -29.5 -12t-9.5 -40v-111l-60 -82q-23 16 -41.5 24t-38.5 8q-41 0 -61 -37.5t-20 -133.5q0 -91 21 -126t59 -35q20 0 37 7t39 24l65 -87q-65 -62 -150 -62q-108 0 -168 70.5t-60 207.5q0 88 26.5 153t73.5 99.5t107 34.5q20 0 42 -6
v67q0 70 38.5 109.5t104.5 39.5q64 0 119 -37z" />
    <glyph glyph-name="uni0189" unicode="&#x189;" horiz-adv-x="566" 
d="M392.5 666.5q64.5 -26.5 105 -102t40.5 -214.5q0 -195 -78.5 -272.5t-210.5 -77.5h-186v305h-49v96h49v292h175q90 0 154.5 -26.5zM323.5 134.5q25.5 20.5 39.5 72t14 143.5q0 93 -14.5 143t-40 68.5t-64.5 18.5h-38v-179h85v-96h-85v-191h38q40 0 65.5 20.5z" />
    <glyph glyph-name="uni018A" unicode="&#x18a;" horiz-adv-x="680" 
d="M506.5 666.5q64.5 -26.5 105 -102t40.5 -214.5q0 -195 -78.5 -272.5t-210.5 -77.5h-186v581h-18q-38 0 -38 -42q0 -33 18 -69l-96 -42q-19 28 -29.5 58t-10.5 68q0 64 42 101.5t121 37.5h186q90 0 154.5 -26.5zM437.5 134.5q25.5 20.5 39.5 72t14 143.5q0 93 -14.5 143
t-40 68.5t-64.5 18.5h-38v-466h38q40 0 65.5 20.5z" />
    <glyph glyph-name="uni018B" unicode="&#x18b;" horiz-adv-x="501" 
d="M455 0h-195q-247 0 -247 223q0 108 61.5 164.5t178.5 56.5h45v130h-211v119h368v-693zM298 114v221h-28q-51 0 -72.5 -26.5t-21.5 -85.5t21 -84t70 -25h31z" />
    <glyph glyph-name="uni018C" unicode="&#x18c;" horiz-adv-x="500" 
d="M456 0h-135l-5 56q-23 -34 -51.5 -53.5t-69.5 -19.5q-84 0 -126.5 72t-42.5 205q0 83 23 145.5t64 96.5t93 34q58 0 99 -49v146h-169v109h320v-742zM305 146v236q-14 22 -27 32.5t-29 10.5q-31 0 -49.5 -39t-18.5 -126q0 -93 16.5 -129.5t45.5 -36.5q35 0 62 52z" />
    <glyph glyph-name="uni018D" unicode="&#x18d;" horiz-adv-x="488" 
d="M334 73q49 -31 66.5 -63t17.5 -77q0 -67 -47 -111.5t-140 -44.5q-49 0 -91.5 17t-71.5 43l63 76q23 -16 44 -23t46 -7q27 0 40.5 13.5t13.5 37.5q0 18 -5 29.5t-21 24t-49 29.5q-64 33 -101.5 67.5t-55 81t-17.5 114.5q0 130 58 199t160 69q104 0 161 -63.5t57 -191.5
q0 -152 -128 -220zM186.5 207.5q5.5 -29.5 22 -51.5t51.5 -43q29 31 38.5 71t10.5 107q0 84 -15 115t-49 31q-23 0 -36.5 -12.5t-20.5 -44.5t-7 -90q0 -53 5.5 -82.5z" />
    <glyph glyph-name="uni018E" unicode="&#x18e;" horiz-adv-x="432" 
d="M27 693h359v-693h-363v114h205v183h-169v110h169v174h-201v112z" />
    <glyph glyph-name="uni018F" unicode="&#x18f;" horiz-adv-x="535" 
d="M443.5 624q63.5 -86 63.5 -272q0 -189 -64 -278.5t-183 -89.5q-126 0 -184 88t-58 266q0 32 5 65h326q-2 106 -28.5 149t-78.5 43q-37 0 -65.5 -14t-57.5 -40l-69 81q44 44 94 66t113 22q123 0 186.5 -86zM307.5 115q18.5 17 29 60t12.5 119h-181q0 -111 23 -153.5
t68 -42.5q30 0 48.5 17z" />
    <glyph glyph-name="uni0190" unicode="&#x190;" horiz-adv-x="451" 
d="M348.5 687q47.5 -23 88.5 -68l-71 -77q-56 54 -104 54q-36 0 -53 -23.5t-17 -61.5q0 -43 21 -66t62 -23h58l-18 -114h-43q-93 0 -93 -103q0 -53 22 -79t63 -26q31 0 56.5 14t54.5 43l81 -77q-39 -48 -89.5 -72t-119.5 -24q-68 0 -120.5 25.5t-82 73t-29.5 112.5
q0 77 39 120t111 53q-68 15 -100.5 56t-32.5 103q0 52 26.5 94t74.5 65.5t109 23.5q59 0 106.5 -23z" />
    <glyph glyph-name="uni0191" unicode="&#x191;" horiz-adv-x="404" 
d="M203 581v-190h159v-113h-159v-277h1v-49q0 -85 -48.5 -129t-129.5 -44q-74 0 -127 42l52 89q15 -9 27 -12.5t28 -3.5q41 0 41 49v57h-1v693h354l-16 -112h-181z" />
    <glyph glyph-name="florin" unicode="&#x192;" horiz-adv-x="320" 
d="M228.5 633.5q-12.5 -13.5 -12.5 -42.5v-60h103l-16 -106h-87v-368q0 -81 -24 -134t-65 -85t-101 -58l-51 109q32 19 50.5 36.5t29 46.5t10.5 76v377h-60v106h60v54q0 80 46.5 126.5t134.5 46.5q70 0 136 -32l-40 -96q-38 17 -73 17q-28 0 -40.5 -13.5z" />
    <glyph glyph-name="uni0193" unicode="&#x193;" horiz-adv-x="516" 
d="M641 814l-42 -90q-17 8 -28 11.5t-24 3.5q-21 0 -30 -12t-9 -39v-62l-69 -73q-33 23 -60.5 33t-60.5 10q-64 0 -96 -55t-32 -194q0 -98 11 -152t33 -75t58 -21q37 0 69 21v166h-66l-15 111h229v-342q-45 -33 -102 -52t-112 -19q-137 0 -202 88t-65 275q0 121 36 202.5
t97 121t136 39.5q44 0 82 -16v8q0 70 38.5 109.5t104.5 39.5q63 0 119 -37z" />
    <glyph glyph-name="uni0194" unicode="&#x194;" horiz-adv-x="488" 
d="M324 90q30 -57 43 -100t13 -89q0 -122 -133 -122q-134 0 -134 122q0 39 13 81.5t44 107.5l-179 603h157l98 -504l98 504h153zM265 -51q-5 20 -18 58q-23 -64 -23 -98q0 -31 23 -31t23 32q0 19 -5 39z" />
    <glyph glyph-name="uni0195" unicode="&#x195;" horiz-adv-x="719" 
d="M682.5 387q6.5 -64 6.5 -132q0 -144 -63 -207.5t-158 -63.5q-81 0 -130.5 44.5t-49.5 130.5v222q0 52 -29 52t-63 -64v-369h-151v742l151 16v-283q25 38 54 55.5t67 17.5q57 0 89.5 -41t32.5 -110v-243q0 -32 9.5 -45.5t29.5 -13.5q28 0 44 36t16 130q0 109 -21 270h147
q12 -80 18.5 -144z" />
    <glyph glyph-name="uni0196" unicode="&#x196;" horiz-adv-x="334" 
d="M341 25q-53 -42 -127 -42q-81 0 -129.5 44t-48.5 129v537h157v-546q0 -49 41 -49q16 0 28 3.5t27 12.5z" />
    <glyph glyph-name="uni0197" unicode="&#x197;" horiz-adv-x="281" 
d="M277 418v-116h-59v-302h-157v302h-57v116h57v275h157v-275h59z" />
    <glyph glyph-name="uni0198" unicode="&#x198;" horiz-adv-x="550" 
d="M208 370l90 207q29 71 63 102t95 31q57 0 107 -36l-40 -87q-11 6 -19.5 9t-19.5 3q-17 0 -27 -10.5t-22 -36.5l-74 -171l191 -381h-171zM203 693v-693h-157v693h157z" />
    <glyph glyph-name="uni0199" unicode="&#x199;" horiz-adv-x="474" 
d="M208 631.5q-12 -14.5 -12 -45.5v-586h-151v590q0 73 46.5 120.5t132.5 47.5q68 0 125 -33l-42 -95q-31 16 -61 16q-26 0 -38 -14.5zM347 297l134 -297h-159l-123 290l130 241h144z" />
    <glyph glyph-name="uni019A" unicode="&#x19a;" horiz-adv-x="287" 
d="M282 2q-16 -8 -38 -13.5t-46 -5.5q-63 0 -98 37t-35 101v198h-61v106h61v317l151 16v-333h61v-106h-61v-191q0 -25 21 -25q6 0 18 3z" />
    <glyph glyph-name="uni019B" unicode="&#x19b;" horiz-adv-x="448" 
d="M396.5 193.5q26.5 -91.5 69.5 -161.5l-144 -48q-35 76 -55.5 160.5t-40.5 237.5l-72 -398l-148 30l132 484h67q-9 48 -22 79l-49 -56l-71 51l64 67q-26 16 -75 27l17 92q89 -16 141 -50l63 62l59 -63l-60 -59q43 -57 64 -170q34 -193 60.5 -284.5z" />
    <glyph glyph-name="uni019C" unicode="&#x19c;" horiz-adv-x="752" 
d="M706 693v-693h-138l-10 60q-28 -40 -59 -58t-69 -18q-42 0 -73 23t-47 63q-32 -45 -63.5 -65.5t-71.5 -20.5q-64 0 -101.5 49.5t-37.5 124.5v535h157v-528q0 -64 38 -64q33 0 62 57v535h156v-528q0 -29 10 -46.5t27 -17.5q18 0 33 14.5t30 46.5v531h157z" />
    <glyph glyph-name="uni019D" unicode="&#x19d;" horiz-adv-x="547" 
d="M501 693v-693h-194l-146 549q10 -87 15 -145.5t5 -141.5v-310q0 -84 -45 -128.5t-118 -44.5q-70 0 -121 42l52 81q17 -9 28.5 -13t26.5 -4q42 0 42 56v752h194l146 -549q-21 138 -21 259v290h136z" />
    <glyph glyph-name="uni019E" unicode="&#x19e;" horiz-adv-x="480" 
d="M406.5 507q32.5 -41 32.5 -110v-618l-151 16v586q0 52 -29 52t-63 -64v-369h-151v531h131l11 -63q26 40 57 60t73 20q57 0 89.5 -41z" />
    <glyph glyph-name="uni019F" unicode="&#x19f;" horiz-adv-x="581" 
d="M485.5 619.5q67.5 -90.5 67.5 -272.5q0 -180 -68 -272t-195 -92t-194.5 90.5t-67.5 273.5q0 180 67.5 271.5t194.5 91.5q128 0 195.5 -90.5zM214.5 549.5q-25.5 -45.5 -29.5 -153.5h211q-4 108 -29.5 153.5t-76.5 45.5q-50 0 -75.5 -45.5zM368 144.5q25 46.5 28 161.5
h-211q3 -115 28 -161.5t77 -46.5q53 0 78 46.5z" />
    <glyph glyph-name="Ohorn" unicode="&#x1a0;" horiz-adv-x="618" 
d="M585 604q-24 -30 -68 -40q36 -82 36 -217q0 -180 -68 -272t-195 -92t-194.5 90.5t-67.5 273.5q0 180 67.5 271.5t194.5 91.5q118 0 185 -76q20 3 28 14.5t8 35.5q0 37 -11 74l93 15q16 -46 16 -89q0 -50 -24 -80zM347.5 121q21.5 23 32 77.5t10.5 148.5q0 136 -23.5 192
t-76.5 56q-52 0 -75.5 -56.5t-23.5 -191.5q0 -94 10.5 -148t32 -77.5t56.5 -23.5q36 0 57.5 23z" />
    <glyph glyph-name="ohorn" unicode="&#x1a1;" horiz-adv-x="534" 
d="M518.5 441q-24.5 -30 -69.5 -40q19 -59 19 -136q0 -135 -58.5 -208.5t-162.5 -73.5t-162.5 71.5t-58.5 211.5q0 137 58.5 209.5t162.5 72.5q109 0 166 -76q18 4 25 15.5t7 33.5q0 37 -11 74l93 15q16 -46 16 -89q0 -50 -24.5 -80zM297.5 132.5q15.5 38.5 15.5 132.5
q0 95 -15.5 133t-50.5 38t-50.5 -38.5t-15.5 -131.5q0 -96 15.5 -134t50.5 -38t50.5 38.5z" />
    <glyph glyph-name="uni01A2" unicode="&#x1a2;" horiz-adv-x="803" 
d="M708.5 663q48.5 -47 48.5 -131v-741h-157v749q0 60 -44 60q-25 0 -50 -13q47 -89 47 -240q0 -180 -68 -272t-195 -92t-194.5 90.5t-67.5 273.5q0 180 67.5 271.5t194.5 91.5q91 0 152 -46q62 46 139 46q79 0 127.5 -47zM347.5 121q21.5 23 32 77.5t10.5 148.5
q0 136 -23.5 192t-76.5 56q-52 0 -75.5 -56.5t-23.5 -191.5q0 -94 10.5 -148t32 -77.5t56.5 -23.5q36 0 57.5 23z" />
    <glyph glyph-name="uni01A3" unicode="&#x1a3;" horiz-adv-x="695" 
d="M606 503q45 -45 45 -133v-591l-151 16v589q0 28 -9.5 40.5t-29.5 12.5q-15 0 -30 -4q31 -68 31 -168q0 -134 -58 -208t-160 -74t-160 72t-58 211q0 137 58 209.5t160 72.5q70 0 119 -33q27 17 55.5 25t64.5 8q78 0 123 -45zM292 132.5q15 38.5 15 132.5q0 95 -15 133
t-48 38t-48 -38.5t-15 -131.5q0 -96 15 -134t48 -38t48 38.5z" />
    <glyph glyph-name="uni01A4" unicode="&#x1a4;" horiz-adv-x="631" 
d="M552 636q68 -57 68 -168q0 -116 -65 -175.5t-184 -59.5h-37v-233h-157v581h-18q-38 0 -38 -42q0 -33 18 -69l-96 -42q-19 28 -29.5 58t-10.5 68q0 64 42 101.5t121 37.5h189q129 0 197 -57zM435.5 374.5q23.5 27.5 23.5 93.5q0 58 -22.5 85.5t-76.5 27.5h-26v-234h24
q54 0 77.5 27.5z" />
    <glyph glyph-name="uni01A5" unicode="&#x1a5;" horiz-adv-x="499" 
d="M432 475.5q41 -72.5 41 -208.5q0 -86 -21.5 -150.5t-60.5 -99t-92 -34.5q-62 0 -103 53v-241l-151 -16v811q0 73 46.5 120.5t132.5 47.5q68 0 125 -33l-42 -95q-31 16 -61 16q-26 0 -38 -14.5t-12 -45.5v-98q23 32 52 46t65 14q78 0 119 -72.5zM301.5 134
q16.5 39 16.5 131q0 99 -14 135.5t-43 36.5q-36 0 -65 -56v-245q25 -41 59 -41q30 0 46.5 39z" />
    <glyph glyph-name="uni01A6" unicode="&#x1a6;" horiz-adv-x="523" 
d="M365 -116l-113 267h-5h-44v-151h-157v693h157v-116h33q259 0 259 -210q0 -61 -25.5 -110t-79.5 -77l142 -296h-167zM241 260q50 0 71.5 25.5t21.5 81.5q0 51 -23 74.5t-75 24.5l-33 1v-207h38z" />
    <glyph glyph-name="uni01A7" unicode="&#x1a7;" horiz-adv-x="469" 
d="M398.5 657q57.5 -53 57.5 -142q0 -75 -41 -122t-138 -85q-57 -22 -77 -48t-20 -71q0 -42 20.5 -64.5t59.5 -22.5q34 0 65.5 16t66.5 46l76 -83q-88 -97 -222 -97q-70 0 -121.5 26.5t-79.5 75t-28 112.5q0 85 39.5 132.5t128.5 82.5q63 25 86.5 48.5t23.5 63.5
q0 34 -17 52t-49 18q-63 0 -124 -53l-70 80q86 88 209 88q97 0 154.5 -53z" />
    <glyph glyph-name="uni01A8" unicode="&#x1a8;" horiz-adv-x="395" 
d="M332.5 503q48.5 -45 48.5 -115q0 -62 -32 -98t-98 -61q-37 -13 -55 -24.5t-24 -24t-6 -33.5q0 -27 14.5 -41.5t41.5 -14.5q50 0 103 46l72 -76q-34 -35 -84 -56t-106 -21q-88 0 -141 45t-53 123q0 64 33 101t100 60q53 19 70 36t17 46q0 22 -12.5 34t-35.5 12
q-48 0 -99 -37l-56 79q76 65 171 65q83 0 131.5 -45z" />
    <glyph glyph-name="uni01A9" unicode="&#x1a9;" horiz-adv-x="413" 
d="M401 693v-114h-232l142 -205v-65l-146 -192h236v-117h-390v114l166 226l-166 239v114h390z" />
    <glyph glyph-name="uni01AA" unicode="&#x1aa;" horiz-adv-x="367" 
d="M472 -179q-52 -42 -128 -42q-77 0 -124.5 43.5t-47.5 124.5v53h-1v434q-23 -10 -50 -10q-64 0 -102.5 44.5t-38.5 121.5t43.5 122.5t122.5 45.5q81 0 128.5 -46.5t47.5 -119.5v-591h1v-62q0 -49 42 -49q15 0 27 3.5t28 12.5zM171 533v66q0 30 -7 41.5t-24 11.5
t-25.5 -13.5t-8.5 -46.5q0 -35 9.5 -49t30.5 -14q14 0 25 4z" />
    <glyph glyph-name="uni01AB" unicode="&#x1ab;" horiz-adv-x="325" 
d="M336 25v-78q0 -81 -47.5 -124.5t-124.5 -43.5q-75 0 -128 42l52 84q30 -18 64 -18q55 0 55 58v38h-1q-75 0 -112.5 43.5t-37.5 117.5v281h-55v106h55v116l151 17v-133h99l-16 -106h-83v-285q0 -43 37 -43q21 0 48 9z" />
    <glyph glyph-name="uni01AC" unicode="&#x1ac;" horiz-adv-x="502" 
d="M489 573h-134v-573h-157v573h-36q-41 0 -41 -41q0 -29 14 -59l-99 -45q-33 54 -33 118q0 69 45.5 108t124.5 39h331z" />
    <glyph glyph-name="uni01AD" unicode="&#x1ad;" horiz-adv-x="325" 
d="M336 25q-25 -21 -58 -31.5t-67 -10.5q-77 0 -116 44t-39 118v280h-55v106h55v65q0 71 42.5 116.5t121.5 45.5q63 0 115 -37l-41 -85q-16 9 -26.5 12.5t-24.5 3.5q-36 0 -36 -45v-76h99l-16 -106h-83v-279q0 -43 37 -43q19 0 42 14z" />
    <glyph glyph-name="uni01AE" unicode="&#x1ae;" horiz-adv-x="456" 
d="M372 -102.5q12 3.5 27 12.5l52 -89q-53 -42 -127 -42q-81 0 -129.5 44t-48.5 129v621h-141v120h447l-16 -120h-133v-630q0 -49 41 -49q16 0 28 3.5z" />
    <glyph glyph-name="Uhorn" unicode="&#x1af;" horiz-adv-x="619" 
d="M594.5 593q-34.5 -31 -94.5 -33v-360q0 -62 -26 -110.5t-78 -77t-128 -28.5q-114 0 -173 59t-59 157v493h157v-486q0 -54 17.5 -80t57.5 -26t57.5 26t17.5 80v486h157v-58q17 4 24 15.5t7 33.5q0 37 -11 74l93 15q16 -46 16 -89q0 -60 -34.5 -91z" />
    <glyph glyph-name="uhorn" unicode="&#x1b0;" horiz-adv-x="546" 
d="M561 521q0 -60 -34.5 -91t-95.5 -33v-397h-132l-6 61q-48 -78 -127 -78q-58 0 -91.5 42t-33.5 111v395h151v-389q0 -23 8 -35t23 -12q32 0 57 56v380h151v-59q18 4 25 15.5t7 33.5q0 37 -11 74l93 15q16 -46 16 -89z" />
    <glyph glyph-name="uni01B1" unicode="&#x1b1;" horiz-adv-x="566" 
d="M88.5 66.5q-68.5 82.5 -68.5 232.5q0 103 28 170t81 111h-92v113h205v-107q-31 -52 -45 -115t-14 -172t24 -154.5t76 -45.5t75.5 45.5t23.5 155.5q0 109 -13.5 172t-43.5 114v107h204v-113h-93q53 -42 81.5 -108.5t28.5 -171.5q0 -148 -69 -232t-194 -84
q-126 0 -194.5 82.5z" />
    <glyph glyph-name="uni01B2" unicode="&#x1b2;" horiz-adv-x="536" 
d="M464.5 672.5q35.5 -37.5 35.5 -108.5v-296q0 -89 -31 -153t-87.5 -97.5t-130.5 -33.5q-66 0 -114.5 26.5t-74.5 73t-26 106.5v503h157v-509q0 -40 16 -61.5t46 -21.5q39 0 63.5 40t24.5 117v307q0 14 -6 22.5t-16 8.5q-8 0 -20 -4l-21 102q38 16 84 16q65 0 100.5 -37.5z
" />
    <glyph glyph-name="uni01B3" unicode="&#x1b3;" horiz-adv-x="530" 
d="M172 260l-182 433h164l99 -309l55 187q20 75 53 107t92 32q58 0 107 -36l-40 -87q-22 12 -42 12q-18 0 -28 -11.5t-21 -41.5l-100 -286v-260h-157v260z" />
    <glyph glyph-name="uni01B4" unicode="&#x1b4;" horiz-adv-x="443" 
d="M32 -117q63 11 95.5 36.5t50.5 80.5h-56l-127 531h152l70 -434l61 359q11 68 39 98t84 30q40 0 75 -16l-24 -95q-10 5 -22 5q-23 0 -29 -30l-91 -449q-19 -99 -87 -155.5t-175 -64.5z" />
    <glyph glyph-name="uni01B5" unicode="&#x1b5;" horiz-adv-x="450" 
d="M169 126h268l-15 -126h-412v111l105 183h-67v101h124l101 176h-239v122h398v-113l-107 -185h67v-101h-126z" />
    <glyph glyph-name="uni01B6" unicode="&#x1b6;" horiz-adv-x="385" 
d="M160 109h215l-12 -109h-354v101l79 121h-54v92h115l71 109h-194v108h345v-100l-77 -117h57v-92h-117z" />
    <glyph glyph-name="uni01B7" unicode="&#x1b7;" horiz-adv-x="454" 
d="M394.5 346q46.5 -50 46.5 -142q0 -64 -27.5 -113.5t-80.5 -78t-126 -28.5q-71 0 -121 25.5t-86 75.5l83 71q28 -30 53 -43t58 -13q41 0 63.5 28.5t22.5 82.5q0 53 -24 76t-74 23h-79v89l148 180h-215v114h373v-111l-152 -181q91 -5 137.5 -55z" />
    <glyph glyph-name="uni01B8" unicode="&#x1b8;" horiz-adv-x="454" 
d="M454 85q-76 -101 -208 -101q-73 0 -125.5 28t-80 77.5t-27.5 112.5q0 186 185 199l-153 181v111h373v-114h-215l148 -180v-89h-79q-50 0 -74 -24.5t-24 -79.5q0 -53 21.5 -79.5t62.5 -26.5q33 0 58 13t55 43z" />
    <glyph glyph-name="uni01B9" unicode="&#x1b9;" horiz-adv-x="426" 
d="M441 -120q-71 -101 -203 -101q-71 0 -122.5 29t-78.5 80.5t-27 118.5q0 94 46 145t133 59l-150 216v104h367v-113h-209l141 -207v-89h-73q-51 0 -75.5 -26.5t-24.5 -85.5q0 -115 84 -115q32 0 57 13.5t55 45.5z" />
    <glyph glyph-name="uni01BA" unicode="&#x1ba;" horiz-adv-x="429" 
d="M59.5 -159q-37.5 38 -37.5 88q0 52 34 83t104 47q58 13 79 29.5t21 50.5q0 27 -15.5 39.5t-51.5 12.5h-101v83l133 150h-208v107h366v-99l-141 -153h16q71 0 113 -38t42 -106q-1 -74 -44 -112.5t-119 -57.5q-39 -10 -58 -17t-26 -15t-7 -20q0 -27 35 -50l-32 -84
q-65 24 -102.5 62z" />
    <glyph glyph-name="uni01BB" unicode="&#x1bb;" horiz-adv-x="431" 
d="M404 117l-16 -117h-375v108q61 74 107 134h-74v101h144q27 44 37.5 78.5t10.5 71.5q0 40 -16.5 60t-47.5 20q-28 0 -48 -14.5t-48 -49.5l-87 65q76 116 200 116q64 0 109.5 -25t68.5 -67.5t23 -94.5q0 -42 -10 -79t-35 -81h54v-101h-123q-43 -55 -104 -125h230z" />
    <glyph glyph-name="uni01BC" unicode="&#x1bc;" horiz-adv-x="459" 
d="M389 584h-203v-157q23 14 43 19.5t43 5.5q72 0 117 -58t45 -166q0 -73 -28.5 -128.5t-81 -86t-122.5 -30.5q-65 0 -111.5 26t-82.5 75l82 73q25 -30 49 -45t56 -15q86 0 86 130q0 68 -18 94.5t-53 26.5q-17 0 -32 -5.5t-34 -18.5h-99v369h361z" />
    <glyph glyph-name="uni01BD" unicode="&#x1bd;" horiz-adv-x="405" 
d="M337 422h-160v-90q28 15 69 15q58 0 98 -44.5t40 -126.5q0 -90 -55 -141t-144 -51q-58 0 -98 20t-76 59l77 78q27 -25 46.5 -34.5t42.5 -9.5q30 0 44.5 18.5t14.5 59.5q0 70 -45 70q-24 0 -47 -15h-96v301h309z" />
    <glyph glyph-name="uni01BE" unicode="&#x1be;" horiz-adv-x="428" 
d="M371 357.5q31 -47.5 31 -136.5q0 -115 -58.5 -176t-156.5 -61q-57 0 -103.5 22.5t-87.5 68.5l74 72q26 -26 49 -38.5t50 -12.5q79 0 79 126q0 69 -23 103.5t-77 50.5l-39 12v143h-57v90h57v121l151 16v-137h74v-90h-74v-95l21 -9q59 -22 90 -69.5z" />
    <glyph glyph-name="uni01BF" unicode="&#x1bf;" horiz-adv-x="499" 
d="M398.5 524.5q34.5 -23.5 54.5 -68t20 -104.5q0 -85 -28 -145t-76 -102.5t-122 -86.5l-51 -31v-192l-151 -16v752h134l6 -56q62 73 135 73q44 0 78.5 -23.5zM294 219.5q24 55.5 24 130.5q0 89 -49 89q-20 0 -37 -11.5t-36 -33.5v-297l26 24q48 43 72 98.5z" />
    <glyph glyph-name="uni01C0" unicode="&#x1c0;" horiz-adv-x="222" 
d="M175 755v-755h-129v742z" />
    <glyph glyph-name="uni01C1" unicode="&#x1c1;" horiz-adv-x="404" 
d="M175 755v-755h-129v742zM358 755v-755h-129v742z" />
    <glyph glyph-name="uni01C2" unicode="&#x1c2;" horiz-adv-x="281" 
d="M277 399h-72v-65h72v-87h-72v-247h-129v247h-72v87h72v65h-72v87h72v256l129 13v-269h72v-87z" />
    <glyph glyph-name="uni01C3" unicode="&#x1c3;" horiz-adv-x="263" 
d="M196 755v-523h-128v510zM193 132q24 -26 24 -62t-24 -61.5t-62 -25.5q-37 0 -61 25.5t-24 61.5t24 62t61 26q38 0 62 -26z" />
    <glyph glyph-name="uni01C4" unicode="&#x1c4;" horiz-adv-x="974" 
d="M375.5 666.5q64.5 -26.5 105 -102t40.5 -214.5q0 -195 -78.5 -272.5t-210.5 -77.5h-186v693h175q90 0 154.5 -26.5zM203 580v-466h38q40 0 65.5 20.5t39.5 72t14 143.5q0 93 -14.5 143t-40 68.5t-64.5 18.5h-38zM956 693v-119l-251 -448h256l-15 -126h-412v117l250 454
h-226v122h398zM863 936l52 -55l-118 -131h-90l-118 131l52 55l111 -84z" />
    <glyph glyph-name="uni01C5" unicode="&#x1c5;" horiz-adv-x="924" 
d="M375.5 666.5q64.5 -26.5 105 -102t40.5 -214.5q0 -195 -78.5 -272.5t-210.5 -77.5h-186v693h175q90 0 154.5 -26.5zM203 580v-466h38q40 0 65.5 20.5t39.5 72t14 143.5q0 93 -14.5 143t-40 68.5t-64.5 18.5h-38zM910 531v-107l-198 -309h202l-12 -115h-354v107l198 310
h-181v114h345zM848 807l52 -55l-118 -139h-90l-118 139l52 55l111 -93z" />
    <glyph glyph-name="uni01C6" unicode="&#x1c6;" horiz-adv-x="885" 
d="M456 742v-742h-135l-5 56q-23 -34 -52 -53.5t-70 -19.5q-82 0 -125 73.5t-43 209.5q0 85 23 149t64 98.5t93 34.5q60 0 99 -49v259zM305 146v248q-13 22 -26 32.5t-30 10.5q-68 0 -68 -171q0 -97 16.5 -134.5t45.5 -37.5q35 0 62 52zM871 531v-107l-198 -309h202
l-12 -115h-354v107l198 310h-181v114h345zM809 807l52 -55l-118 -139h-90l-118 139l52 55l111 -93z" />
    <glyph glyph-name="uni01C7" unicode="&#x1c7;" horiz-adv-x="670" 
d="M203 693v-569h218l-16 -124h-359v693h157zM626 104q0 -80 -27 -133t-69 -83.5t-101 -53.5l-41 110q36 18 53 38.5t22.5 49t5.5 78.5v583h157v-589z" />
    <glyph glyph-name="uni01C8" unicode="&#x1c8;" horiz-adv-x="651" 
d="M203 693v-569h218l-16 -124h-359v693h157zM607 38q0 -104 -49.5 -161t-141.5 -97l-51 109q32 19 50.5 36t29.5 43.5t11 67.5v495h151v-493zM592.5 782.5q23.5 -24.5 23.5 -62.5q0 -37 -24 -61.5t-62 -24.5t-62 24.5t-24 61.5q0 38 24 62.5t62 24.5q39 0 62.5 -24.5z" />
    <glyph glyph-name="uni01C9" unicode="&#x1c9;" horiz-adv-x="494" 
d="M75 20q-35 37 -35 101v621l151 16v-630q0 -25 21 -25q6 0 18 3l27 -104q-16 -8 -38 -13.5t-46 -5.5q-63 0 -98 37zM450 38q0 -104 -49.5 -161t-141.5 -97l-51 109q32 19 50.5 36t29.5 43.5t11 67.5v495h151v-493zM435.5 782.5q23.5 -24.5 23.5 -62.5q0 -37 -24 -61.5
t-62 -24.5t-62 24.5t-24 61.5q0 38 24 62.5t62 24.5q39 0 62.5 -24.5z" />
    <glyph glyph-name="uni01CA" unicode="&#x1ca;" horiz-adv-x="814" 
d="M501 0h-194l-146 549q10 -87 15 -145.5t5 -141.5v-262h-135v693h194l146 -549q-21 138 -21 259v290h136v-693zM770 104q0 -80 -27 -133t-69 -83.5t-101 -53.5l-41 110q36 18 53 38.5t22.5 49t5.5 78.5v583h157v-589z" />
    <glyph glyph-name="uni01CB" unicode="&#x1cb;" horiz-adv-x="787" 
d="M501 0h-194l-146 549q10 -87 15 -145.5t5 -141.5v-262h-135v693h194l146 -549q-21 138 -21 259v290h136v-693zM743 38q0 -104 -49.5 -161t-141.5 -97l-51 109q32 19 50.5 36t29.5 43.5t11 67.5v495h151v-493zM728.5 782.5q23.5 -24.5 23.5 -62.5q0 -37 -24 -61.5
t-62 -24.5t-62 24.5t-24 61.5q0 38 24 62.5t62 24.5q39 0 62.5 -24.5z" />
    <glyph glyph-name="uni01CC" unicode="&#x1cc;" horiz-adv-x="720" 
d="M406.5 507q32.5 -41 32.5 -110v-397h-151v381q0 52 -29 52t-63 -64v-369h-151v531h131l11 -63q26 40 57 60t73 20q57 0 89.5 -41zM676 38q0 -104 -49.5 -161t-141.5 -97l-51 109q32 19 50.5 36t29.5 43.5t11 67.5v495h151v-493zM661.5 782.5q23.5 -24.5 23.5 -62.5
q0 -37 -24 -61.5t-62 -24.5t-62 24.5t-24 61.5q0 38 24 62.5t62 24.5q39 0 62.5 -24.5z" />
    <glyph glyph-name="uni01CD" unicode="&#x1cd;" horiz-adv-x="506" 
d="M356 0l-28 152h-154l-27 -152h-156l168 693h188l168 -693h-159zM195 265h113l-57 313zM364 936l52 -55l-118 -131h-90l-118 131l52 55l111 -84z" />
    <glyph glyph-name="uni01CE" unicode="&#x1ce;" horiz-adv-x="457" 
d="M416 104q6 -12 21 -19l-31 -99q-43 4 -70.5 20.5t-42.5 51.5q-46 -75 -131 -75q-66 0 -105 45.5t-39 120.5q0 87 54 132.5t158 45.5h32v28q0 48 -14.5 66.5t-51.5 18.5q-46 0 -114 -27l-34 96q41 19 87.5 29t88.5 10q94 0 140 -45.5t46 -139.5v-222q0 -25 6 -37zM239 103
q14 13 23 37v103h-18q-41 0 -59.5 -19.5t-18.5 -61.5q0 -35 11 -53.5t31 -18.5q17 0 31 13zM337 807l52 -55l-118 -139h-90l-118 139l52 55l111 -93z" />
    <glyph glyph-name="uni01CF" unicode="&#x1cf;" horiz-adv-x="250" 
d="M203 693v-693h-157v693h157zM236 936l52 -55l-118 -131h-90l-118 131l52 55l111 -84z" />
    <glyph glyph-name="uni01D0" unicode="&#x1d0;" horiz-adv-x="240" 
d="M196 531v-531h-151v531h151zM231 807l52 -55l-118 -139h-90l-118 139l52 55l111 -93z" />
    <glyph glyph-name="uni01D1" unicode="&#x1d1;" horiz-adv-x="581" 
d="M485.5 619.5q67.5 -90.5 67.5 -272.5q0 -180 -68 -272t-195 -92t-194.5 90.5t-67.5 273.5q0 180 67.5 271.5t194.5 91.5q128 0 195.5 -90.5zM214.5 538.5q-23.5 -56.5 -23.5 -191.5q0 -94 10.5 -148t32 -77.5t56.5 -23.5q36 0 57.5 23t32 77.5t10.5 148.5
q0 136 -23.5 192t-76.5 56q-52 0 -75.5 -56.5zM401 936l52 -55l-118 -131h-90l-118 131l52 55l111 -84z" />
    <glyph glyph-name="uni01D2" unicode="&#x1d2;" horiz-adv-x="494" 
d="M409.5 477q58.5 -71 58.5 -212q0 -135 -58.5 -208.5t-162.5 -73.5t-162.5 71.5t-58.5 211.5q0 137 58.5 209.5t162.5 72.5t162.5 -71zM196.5 397.5q-15.5 -38.5 -15.5 -131.5q0 -96 15.5 -134t50.5 -38t50.5 38.5t15.5 132.5q0 95 -15.5 133t-50.5 38t-50.5 -38.5z
M358 807l52 -55l-118 -139h-90l-118 139l52 55l111 -93z" />
    <glyph glyph-name="uni01D3" unicode="&#x1d3;" horiz-adv-x="536" 
d="M500 200q0 -62 -26 -110.5t-78 -77t-128 -28.5q-114 0 -173 59t-59 157v493h157v-486q0 -54 17.5 -80t57.5 -26t57.5 26t17.5 80v486h157v-493zM379 936l52 -55l-118 -131h-90l-118 131l52 55l111 -84z" />
    <glyph glyph-name="uni01D4" unicode="&#x1d4;" horiz-adv-x="476" 
d="M431 0h-132l-6 61q-48 -78 -127 -78q-58 0 -91.5 42t-33.5 111v395h151v-389q0 -23 8 -35t23 -12q32 0 57 56v380h151v-531zM348 807l52 -55l-118 -139h-90l-118 139l52 55l111 -93z" />
    <glyph glyph-name="uni01D5" unicode="&#x1d5;" horiz-adv-x="536" 
d="M500 200q0 -62 -26 -110.5t-78 -77t-128 -28.5q-114 0 -173 59t-59 157v493h157v-486q0 -54 17.5 -80t57.5 -26t57.5 26t17.5 80v486h157v-493zM224 876q21 -22 21 -54q0 -33 -20.5 -54.5t-53.5 -21.5q-32 0 -53.5 22t-21.5 54t21.5 54t53.5 22t53 -22zM420 876
q21 -22 21 -54q0 -33 -20.5 -54.5t-53.5 -21.5q-31 0 -52.5 22t-21.5 54t21.5 54t52.5 22q32 0 53 -22zM399 943h-260v102h260v-102z" />
    <glyph glyph-name="uni01D6" unicode="&#x1d6;" horiz-adv-x="476" 
d="M431 0h-132l-6 61q-48 -78 -127 -78q-58 0 -91.5 42t-33.5 111v395h151v-389q0 -23 8 -35t23 -12q32 0 57 56v380h151v-531zM193 734q21 -22 21 -54q0 -33 -20.5 -54.5t-53.5 -21.5q-32 0 -53.5 22t-21.5 54t21.5 54t53.5 22t53 -22zM389 734q21 -22 21 -54
q0 -33 -20.5 -54.5t-53.5 -21.5q-31 0 -52.5 22t-21.5 54t21.5 54t52.5 22q32 0 53 -22zM368 804h-260v102h260v-102z" />
    <glyph glyph-name="uni01D7" unicode="&#x1d7;" horiz-adv-x="536" 
d="M500 200q0 -62 -26 -110.5t-78 -77t-128 -28.5q-114 0 -173 59t-59 157v493h157v-486q0 -54 17.5 -80t57.5 -26t57.5 26t17.5 80v486h157v-493zM331 1088l88 -76l-144 -144l-59 48zM216.5 878.5q20.5 -21.5 20.5 -54.5t-20.5 -54.5t-53.5 -21.5q-32 0 -53.5 22t-21.5 54
t21.5 54t53.5 22q33 0 53.5 -21.5zM426.5 878.5q20.5 -21.5 20.5 -54.5t-20.5 -54.5t-53.5 -21.5q-32 0 -53.5 22t-21.5 54t21.5 54t53.5 22q33 0 53.5 -21.5z" />
    <glyph glyph-name="uni01D8" unicode="&#x1d8;" horiz-adv-x="476" 
d="M431 0h-132l-6 61q-48 -78 -127 -78q-58 0 -91.5 42t-33.5 111v395h151v-389q0 -23 8 -35t23 -12q32 0 57 56v380h151v-531zM300 943l88 -76l-144 -144l-59 48zM185 734q21 -22 21 -54q0 -33 -20.5 -55t-53.5 -22q-32 0 -53.5 22.5t-21.5 54.5t21.5 54t53.5 22t53 -22z
M395 734q21 -22 21 -54q0 -33 -20.5 -55t-53.5 -22q-32 0 -53.5 22.5t-21.5 54.5t21.5 54t53.5 22t53 -22z" />
    <glyph glyph-name="uni01D9" unicode="&#x1d9;" horiz-adv-x="536" 
d="M500 200q0 -62 -26 -110.5t-78 -77t-128 -28.5q-114 0 -173 59t-59 157v493h157v-486q0 -54 17.5 -80t57.5 -26t57.5 26t17.5 80v486h157v-493zM382 1086l52 -55l-118 -131h-90l-118 131l52 55l111 -84zM216.5 878.5q20.5 -21.5 20.5 -54.5t-20.5 -54.5t-53.5 -21.5
q-32 0 -53.5 22t-21.5 54t21.5 54t53.5 22q33 0 53.5 -21.5zM426.5 878.5q20.5 -21.5 20.5 -54.5t-20.5 -54.5t-53.5 -21.5q-31 0 -52.5 22t-21.5 54t21.5 54t52.5 22q33 0 53.5 -21.5z" />
    <glyph glyph-name="uni01DA" unicode="&#x1da;" horiz-adv-x="476" 
d="M431 0h-132l-6 61q-48 -78 -127 -78q-58 0 -91.5 42t-33.5 111v395h151v-389q0 -23 8 -35t23 -12q32 0 57 56v380h151v-531zM348 942l52 -55l-118 -131h-90l-118 131l52 55l111 -84zM184 734q21 -22 21 -54q0 -33 -20.5 -55t-53.5 -22q-31 0 -52.5 22.5t-21.5 54.5
t21.5 54t52.5 22q32 0 53 -22zM394 734q21 -22 21 -54q0 -33 -20.5 -55t-53.5 -22q-31 0 -52.5 22.5t-21.5 54.5t21.5 54t52.5 22q32 0 53 -22z" />
    <glyph glyph-name="uni01DB" unicode="&#x1db;" horiz-adv-x="536" 
d="M500 200q0 -62 -26 -110.5t-78 -77t-128 -28.5q-114 0 -173 59t-59 157v493h157v-486q0 -54 17.5 -80t57.5 -26t57.5 26t17.5 80v486h157v-493zM212 1088l116 -172l-59 -48l-145 144zM216.5 878.5q20.5 -21.5 20.5 -54.5t-20.5 -54.5t-53.5 -21.5q-32 0 -53.5 22
t-21.5 54t21.5 54t53.5 22q33 0 53.5 -21.5zM426.5 878.5q20.5 -21.5 20.5 -54.5t-20.5 -54.5t-53.5 -21.5q-32 0 -53.5 22t-21.5 54t21.5 54t53.5 22q33 0 53.5 -21.5z" />
    <glyph glyph-name="uni01DC" unicode="&#x1dc;" horiz-adv-x="476" 
d="M431 0h-132l-6 61q-48 -78 -127 -78q-58 0 -91.5 42t-33.5 111v395h151v-389q0 -23 8 -35t23 -12q32 0 57 56v380h151v-531zM176 943l116 -172l-59 -48l-145 144zM185 734q21 -22 21 -54q0 -33 -20.5 -55t-53.5 -22q-32 0 -53.5 22.5t-21.5 54.5t21.5 54t53.5 22t53 -22z
M395 734q21 -22 21 -54q0 -33 -20.5 -55t-53.5 -22q-32 0 -53.5 22.5t-21.5 54.5t21.5 54t53.5 22t53 -22z" />
    <glyph glyph-name="uni01DD" unicode="&#x1dd;" horiz-adv-x="471" 
d="M445 266q0 -134 -55 -208t-160 -74q-98 0 -153.5 67.5t-55.5 203.5q0 31 3 56h279q-3 71 -23 99.5t-59 28.5q-30 0 -56 -9t-55 -31l-60 81q74 68 178 68q217 0 217 -282zM283 117.5q17 26.5 20 100.5h-143v-7q0 -64 18 -92t53 -28t52 26.5z" />
    <glyph glyph-name="uni01DE" unicode="&#x1de;" horiz-adv-x="506" 
d="M356 0l-28 152h-154l-27 -152h-156l168 693h188l168 -693h-159zM195 265h113l-57 313zM209 876q21 -22 21 -54q0 -33 -20.5 -54.5t-53.5 -21.5q-32 0 -53.5 22t-21.5 54t21.5 54t53.5 22t53 -22zM405 876q21 -22 21 -54q0 -33 -20.5 -54.5t-53.5 -21.5q-31 0 -52.5 22
t-21.5 54t21.5 54t52.5 22q32 0 53 -22zM384 943h-260v102h260v-102z" />
    <glyph glyph-name="uni01DF" unicode="&#x1df;" horiz-adv-x="457" 
d="M416 104q6 -12 21 -19l-31 -99q-43 4 -70.5 20.5t-42.5 51.5q-46 -75 -131 -75q-66 0 -105 45.5t-39 120.5q0 87 54 132.5t158 45.5h32v28q0 48 -14.5 66.5t-51.5 18.5q-46 0 -114 -27l-34 96q41 19 87.5 29t88.5 10q94 0 140 -45.5t46 -139.5v-222q0 -25 6 -37zM239 103
q14 13 23 37v103h-18q-41 0 -59.5 -19.5t-18.5 -61.5q0 -35 11 -53.5t31 -18.5q17 0 31 13zM182 734q21 -22 21 -54q0 -33 -20.5 -54.5t-53.5 -21.5q-32 0 -53.5 22t-21.5 54t21.5 54t53.5 22t53 -22zM378 734q21 -22 21 -54q0 -33 -20.5 -54.5t-53.5 -21.5q-31 0 -52.5 22
t-21.5 54t21.5 54t52.5 22q32 0 53 -22zM357 804h-260v102h260v-102z" />
    <glyph glyph-name="uni01E0" unicode="&#x1e0;" horiz-adv-x="506" 
d="M356 0l-28 152h-154l-27 -152h-156l168 693h188l168 -693h-159zM195 265h113l-57 313zM314.5 885.5q23.5 -24.5 23.5 -62.5q0 -37 -24 -61.5t-62 -24.5t-62 24.5t-24 61.5q0 38 24 62.5t62 24.5q39 0 62.5 -24.5zM383 943h-260v102h260v-102z" />
    <glyph glyph-name="uni01E1" unicode="&#x1e1;" horiz-adv-x="457" 
d="M416 104q6 -12 21 -19l-31 -99q-43 4 -70.5 20.5t-42.5 51.5q-46 -75 -131 -75q-66 0 -105 45.5t-39 120.5q0 87 54 132.5t158 45.5h32v28q0 48 -14.5 66.5t-51.5 18.5q-46 0 -114 -27l-34 96q41 19 87.5 29t88.5 10q94 0 140 -45.5t46 -139.5v-222q0 -25 6 -37zM239 103
q14 13 23 37v103h-18q-41 0 -59.5 -19.5t-18.5 -61.5q0 -35 11 -53.5t31 -18.5q17 0 31 13zM287.5 743.5q23.5 -24.5 23.5 -62.5q0 -37 -24 -61.5t-62 -24.5t-62 24.5t-24 61.5q0 38 24 62.5t62 24.5q39 0 62.5 -24.5zM356 806h-260v102h260v-102z" />
    <glyph glyph-name="uni01E2" unicode="&#x1e2;" horiz-adv-x="703" 
d="M494 114h191v-114h-323l-18 152h-159l-39 -152h-166l222 693h453l-16 -112h-209l24 -175h194v-111h-179zM214 266h117l-37 312zM531 784h-260v102h260v-102z" />
    <glyph glyph-name="uni01E3" unicode="&#x1e3;" horiz-adv-x="713" 
d="M688 221h-268q5 -70 28 -98t65 -28q24 0 47.5 10t52.5 32l61 -81q-75 -73 -175 -73q-59 0 -103.5 23t-74.5 65q-58 -88 -150 -88q-70 0 -111.5 46t-41.5 120q0 83 55.5 128t162.5 45h33l-1 29q0 50 -14.5 69.5t-51.5 19.5q-21 0 -51.5 -7.5t-62.5 -20.5l-33 97
q87 39 169 39q50 0 82 -17t51 -49q55 66 140 66q89 0 142 -70t53 -202q0 -25 -4 -55zM547 319q0 65 -15 96.5t-46 31.5t-46.5 -30.5t-19.5 -104.5h127v7zM283 154q-10 41 -12 84h-20q-80 0 -80 -79q0 -68 43 -68q39 0 69 63zM484 658h-260v102h260v-102z" />
    <glyph glyph-name="uni01E4" unicode="&#x1e4;" horiz-adv-x="561" 
d="M567 176h-58v-121q-46 -34 -102 -52.5t-114 -18.5q-135 0 -200 89t-65 274q0 118 36.5 199.5t100 122t145.5 40.5q117 0 198 -84l-77 -81q-30 27 -55 39t-57 12q-63 0 -96 -57.5t-33 -190.5q0 -96 11 -149.5t34 -76t60 -22.5q43 0 80 24v53h-81v85h81v53h-82l-13 97h229
v-150h58v-85z" />
    <glyph glyph-name="uni01E5" unicode="&#x1e5;" horiz-adv-x="454" 
d="M500 -89h-53q-15 -62 -74.5 -97t-157.5 -35q-123 0 -170 43t-47 127h134q0 -40 18 -56.5t72 -16.5q42 0 64.5 8.5t30.5 26.5h-90v66h89q-8 17 -27.5 24.5t-53.5 7.5h-40q-151 0 -151 94q0 29 15 54.5t41 43.5q-43 27 -62.5 63t-19.5 90q0 90 55 141t150 51q63 0 106.5 16
t93.5 47l37 -108q-37 -20 -124 -20q44 -20 65 -53.5t21 -84.5q0 -79 -51.5 -128t-140.5 -49q-28 0 -48 6q-16 -11 -16 -34q0 -17 10.5 -26t38.5 -9h54q78 0 125.5 -34.5t55.5 -91.5h50v-66zM180.5 426.5q-14.5 -21.5 -14.5 -70.5q0 -93 57 -93q28 0 42 21t14 74
q0 48 -13.5 69t-41.5 21q-29 0 -43.5 -21.5z" />
    <glyph glyph-name="Gcaron" unicode="&#x1e6;" horiz-adv-x="545" 
d="M508 626l-75 -79q-31 26 -56.5 37.5t-58.5 11.5q-64 0 -96 -55t-32 -194q0 -98 11 -152t33 -75t58 -21q37 0 69 21v166h-66l-15 111h229v-342q-45 -33 -102 -52t-112 -19q-137 0 -202 88t-65 275q0 121 36.5 202.5t100.5 121t146 39.5q113 0 197 -84zM406 936l52 -55
l-118 -131h-90l-118 131l52 55l111 -84z" />
    <glyph glyph-name="gcaron" unicode="&#x1e7;" horiz-adv-x="454" 
d="M460 501q-37 -20 -124 -20q44 -20 65 -53.5t21 -84.5q0 -79 -51.5 -128t-140.5 -49q-28 0 -48 6q-16 -11 -16 -34q0 -17 10.5 -26t38.5 -9h54q86 0 134.5 -42t48.5 -108q0 -79 -61.5 -126.5t-175.5 -47.5q-123 0 -170 43t-47 127h134q0 -38 17.5 -54.5t66.5 -16.5
q86 0 86 64q0 29 -16.5 43.5t-50.5 14.5h-40q-79 0 -115 27.5t-36 75.5q0 29 15 54.5t41 43.5q-43 27 -62.5 63t-19.5 90q0 90 55 141t150 51q63 0 106.5 16t93.5 47zM180.5 426.5q-14.5 -21.5 -14.5 -70.5q0 -93 57 -93q28 0 42 21t14 74q0 48 -13.5 69t-41.5 21
q-29 0 -43.5 -21.5zM340 807l52 -55l-118 -139h-90l-118 139l52 55l111 -93z" />
    <glyph glyph-name="uni01E8" unicode="&#x1e8;" horiz-adv-x="540" 
d="M203 693v-693h-157v693h157zM537 693l-172 -312l187 -381h-171l-173 370l174 323h155zM386 936l52 -55l-118 -131h-90l-118 131l52 55l111 -84z" />
    <glyph glyph-name="uni01E9" unicode="&#x1e9;" horiz-adv-x="474" 
d="M196 758v-758h-151v742zM473 531l-126 -234l134 -297h-159l-123 290l130 241h144zM365 985l52 -55l-118 -131h-90l-118 131l52 55l111 -84z" />
    <glyph glyph-name="uni01EA" unicode="&#x1ea;" horiz-adv-x="581" 
d="M511 118.5q-42 -87.5 -122 -118.5q-55 -26 -75 -51t-20 -53q0 -46 44 -46q23 0 48 7l-9 -93q-29 -8 -58 -8q-58 0 -94.5 30t-36.5 84q0 68 58 116q-106 14 -162 104.5t-56 256.5q0 180 67.5 271.5t194.5 91.5q128 0 195.5 -90.5t67.5 -272.5q0 -141 -42 -228.5z
M347.5 121q21.5 23 32 77.5t10.5 148.5q0 136 -23.5 192t-76.5 56q-52 0 -75.5 -56.5t-23.5 -191.5q0 -94 10.5 -148t32 -77.5t56.5 -23.5q36 0 57.5 23z" />
    <glyph glyph-name="uni01EB" unicode="&#x1eb;" horiz-adv-x="494" 
d="M259.5 -51.5q-19.5 -24.5 -19.5 -52.5q0 -46 44 -46q23 0 48 7l-9 -93q-29 -8 -58 -8q-58 0 -94.5 30t-36.5 84q0 70 61 118q-80 17 -124.5 87t-44.5 191q0 137 58.5 209.5t162.5 72.5t162.5 -71t58.5 -212q0 -104 -36 -172.5t-101 -94.5q-52 -25 -71.5 -49.5z
M196.5 397.5q-15.5 -38.5 -15.5 -131.5q0 -96 15.5 -134t50.5 -38t50.5 38.5t15.5 132.5q0 95 -15.5 133t-50.5 38t-50.5 -38.5z" />
    <glyph glyph-name="uni01EC" unicode="&#x1ec;" horiz-adv-x="581" 
d="M420 886v-102h-260v102h260zM511 118.5q-42 -87.5 -122 -118.5q-55 -26 -75 -51t-20 -53q0 -46 44 -46q23 0 48 7l-9 -93q-29 -8 -58 -8q-58 0 -94.5 30t-36.5 84q0 68 58 116q-106 14 -162 104.5t-56 256.5q0 180 67.5 271.5t194.5 91.5q128 0 195.5 -90.5t67.5 -272.5
q0 -141 -42 -228.5zM347.5 121q21.5 23 32 77.5t10.5 148.5q0 136 -23.5 192t-76.5 56q-52 0 -75.5 -56.5t-23.5 -191.5q0 -94 10.5 -148t32 -77.5t56.5 -23.5q36 0 57.5 23z" />
    <glyph glyph-name="uni01ED" unicode="&#x1ed;" horiz-adv-x="494" 
d="M377 760v-102h-260v102h260zM259.5 -51.5q-19.5 -24.5 -19.5 -52.5q0 -46 44 -46q23 0 48 7l-9 -93q-29 -8 -58 -8q-58 0 -94.5 30t-36.5 84q0 70 61 118q-80 17 -124.5 87t-44.5 191q0 137 58.5 209.5t162.5 72.5t162.5 -71t58.5 -212q0 -104 -36 -172.5t-101 -94.5
q-52 -25 -71.5 -49.5zM196.5 397.5q-15.5 -38.5 -15.5 -131.5q0 -96 15.5 -134t50.5 -38t50.5 38.5t15.5 132.5q0 95 -15.5 133t-50.5 38t-50.5 -38.5z" />
    <glyph glyph-name="uni01EE" unicode="&#x1ee;" horiz-adv-x="454" 
d="M394.5 346q46.5 -50 46.5 -142q0 -64 -27.5 -113.5t-80.5 -78t-126 -28.5q-71 0 -121 25.5t-86 75.5l83 71q28 -30 53 -43t58 -13q41 0 63.5 28.5t22.5 82.5q0 53 -24 76t-74 23h-79v89l148 180h-215v114h373v-111l-152 -181q91 -5 137.5 -55zM333 936l52 -55l-118 -131
h-90l-118 131l52 55l111 -84z" />
    <glyph glyph-name="uni01EF" unicode="&#x1ef;" horiz-adv-x="426" 
d="M415 9q0 -66 -27 -118.5t-79 -82t-123 -29.5q-130 0 -202 101l80 74q31 -32 56 -45.5t56 -13.5q85 0 85 120q0 57 -24.5 82t-75.5 25h-73v89l140 207h-208v113h366v-104l-150 -216q179 -15 179 -202zM314 807l52 -55l-118 -139h-90l-118 139l52 55l111 -93z" />
    <glyph glyph-name="uni01F0" unicode="&#x1f0;" horiz-adv-x="240" 
d="M196 38q0 -104 -49.5 -161t-141.5 -97l-51 109q32 19 50.5 36t29.5 43.5t11 67.5v495h151v-493zM231 807l52 -55l-118 -139h-90l-118 139l52 55l111 -93z" />
    <glyph glyph-name="uni01F1" unicode="&#x1f1;" horiz-adv-x="974" 
d="M375.5 666.5q64.5 -26.5 105 -102t40.5 -214.5q0 -195 -78.5 -272.5t-210.5 -77.5h-186v693h175q90 0 154.5 -26.5zM203 580v-466h38q40 0 65.5 20.5t39.5 72t14 143.5q0 93 -14.5 143t-40 68.5t-64.5 18.5h-38zM956 693v-119l-251 -448h256l-15 -126h-412v117l250 454
h-226v122h398z" />
    <glyph glyph-name="uni01F2" unicode="&#x1f2;" horiz-adv-x="924" 
d="M375.5 666.5q64.5 -26.5 105 -102t40.5 -214.5q0 -195 -78.5 -272.5t-210.5 -77.5h-186v693h175q90 0 154.5 -26.5zM203 580v-466h38q40 0 65.5 20.5t39.5 72t14 143.5q0 93 -14.5 143t-40 68.5t-64.5 18.5h-38zM910 531v-107l-198 -309h202l-12 -115h-354v107l198 310
h-181v114h345z" />
    <glyph glyph-name="uni01F3" unicode="&#x1f3;" horiz-adv-x="885" 
d="M456 742v-742h-135l-5 56q-23 -34 -52 -53.5t-70 -19.5q-82 0 -125 73.5t-43 209.5q0 85 23 149t64 98.5t93 34.5q60 0 99 -49v259zM305 146v248q-13 22 -26 32.5t-30 10.5q-68 0 -68 -171q0 -97 16.5 -134.5t45.5 -37.5q35 0 62 52zM871 531v-107l-198 -309h202
l-12 -115h-354v107l198 310h-181v114h345z" />
    <glyph glyph-name="uni01F4" unicode="&#x1f4;" horiz-adv-x="545" 
d="M508 626l-75 -79q-31 26 -56.5 37.5t-58.5 11.5q-64 0 -96 -55t-32 -194q0 -98 11 -152t33 -75t58 -21q37 0 69 21v166h-66l-15 111h229v-342q-45 -33 -102 -52t-112 -19q-137 0 -202 88t-65 275q0 121 36.5 202.5t100.5 121t146 39.5q113 0 197 -84zM358 945l57 -109
l-203 -85l-38 74z" />
    <glyph glyph-name="uni01F5" unicode="&#x1f5;" horiz-adv-x="454" 
d="M460 501q-37 -20 -124 -20q44 -20 65 -53.5t21 -84.5q0 -79 -51.5 -128t-140.5 -49q-28 0 -48 6q-16 -11 -16 -34q0 -17 10.5 -26t38.5 -9h54q86 0 134.5 -42t48.5 -108q0 -79 -61.5 -126.5t-175.5 -47.5q-123 0 -170 43t-47 127h134q0 -38 17.5 -54.5t66.5 -16.5
q86 0 86 64q0 29 -16.5 43.5t-50.5 14.5h-40q-79 0 -115 27.5t-36 75.5q0 29 15 54.5t41 43.5q-43 27 -62.5 63t-19.5 90q0 90 55 141t150 51q63 0 106.5 16t93.5 47zM180.5 426.5q-14.5 -21.5 -14.5 -70.5q0 -93 57 -93q28 0 42 21t14 74q0 48 -13.5 69t-41.5 21
q-29 0 -43.5 -21.5zM283 825l59 -107l-201 -94l-41 73z" />
    <glyph glyph-name="uni01F6" unicode="&#x1f6;" horiz-adv-x="785" 
d="M754 255q0 -145 -63 -208t-158 -63q-82 0 -133.5 45t-51.5 130v140h-145v-299h-157v693h157v-271h145v271h157v-537q0 -33 9.5 -47t29.5 -14q28 0 43.5 35.5t15.5 130.5q0 117 -20 270h147q24 -162 24 -276z" />
    <glyph glyph-name="uni01F7" unicode="&#x1f7;" horiz-adv-x="499" 
d="M410.5 686.5q36.5 -23.5 57.5 -67t21 -102.5q0 -77 -29 -130t-77 -88t-121 -69l-59 -27v-203h-157v693h157v-39q53 56 126 56q45 0 81.5 -23.5zM303.5 403.5q24.5 41.5 24.5 105.5q0 87 -56 87q-37 0 -69 -35v-247l23 13q53 35 77.5 76.5z" />
    <glyph glyph-name="uni01F8" unicode="&#x1f8;" horiz-adv-x="547" 
d="M501 0h-194l-146 549q10 -87 15 -145.5t5 -141.5v-262h-135v693h194l146 -549q-21 138 -21 259v290h136v-693zM210 944l184 -119l-38 -74l-203 84z" />
    <glyph glyph-name="uni01F9" unicode="&#x1f9;" horiz-adv-x="480" 
d="M406.5 507q32.5 -41 32.5 -110v-397h-151v381q0 52 -29 52t-63 -64v-369h-151v531h131l11 -63q26 40 57 60t73 20q57 0 89.5 -41zM190 825l183 -128l-41 -73l-201 94z" />
    <glyph glyph-name="Aringacute" unicode="&#x1fa;" horiz-adv-x="506" 
d="M356 0l-28 152h-154l-27 -152h-156l168 693h188l168 -693h-159zM195 265h113l-57 313zM340 942.5q33 -35.5 33 -92.5q0 -58 -33 -94t-89 -36q-57 0 -89.5 36t-32.5 94q0 57 32.5 92.5t89.5 35.5q56 0 89 -35.5zM216 850q0 -29 9 -41.5t26 -12.5q36 0 36 54q0 53 -36 53
q-35 0 -35 -53zM315 1180l57 -109l-203 -85l-38 74z" />
    <glyph glyph-name="aringacute" unicode="&#x1fb;" horiz-adv-x="457" 
d="M347 928l-203 -85l-38 74l184 120zM137.5 613q-32.5 36 -32.5 94q0 57 32.5 92.5t89.5 35.5q56 0 89 -35.5t33 -92.5q0 -58 -33 -94t-89 -36q-57 0 -89.5 36zM192 707q0 -29 9 -41.5t26 -12.5q36 0 36 54q0 53 -36 53q-35 0 -35 -53zM416 104q6 -12 21 -19l-31 -99
q-43 4 -70.5 20.5t-42.5 51.5q-46 -75 -131 -75q-66 0 -105 45.5t-39 120.5q0 87 54 132.5t158 45.5h32v28q0 48 -14.5 66.5t-51.5 18.5q-46 0 -114 -27l-34 96q41 19 87.5 29t88.5 10q94 0 140 -45.5t46 -139.5v-222q0 -25 6 -37zM239 103q14 13 23 37v103h-18
q-41 0 -59.5 -19.5t-18.5 -61.5q0 -35 11 -53.5t31 -18.5q17 0 31 13z" />
    <glyph glyph-name="AEacute" unicode="&#x1fc;" horiz-adv-x="703" 
d="M494 114h191v-114h-323l-18 152h-159l-39 -152h-166l222 693h453l-16 -112h-209l24 -175h194v-111h-179zM214 266h117l-37 312zM464 945l57 -109l-203 -85l-38 74z" />
    <glyph glyph-name="aeacute" unicode="&#x1fd;" horiz-adv-x="713" 
d="M688 221h-268q5 -70 28 -98t65 -28q24 0 47.5 10t52.5 32l61 -81q-75 -73 -175 -73q-59 0 -103.5 23t-74.5 65q-58 -88 -150 -88q-70 0 -111.5 46t-41.5 120q0 83 55.5 128t162.5 45h33l-1 29q0 50 -14.5 69.5t-51.5 19.5q-21 0 -51.5 -7.5t-62.5 -20.5l-33 97
q87 39 169 39q50 0 82 -17t51 -49q55 66 140 66q89 0 142 -70t53 -202q0 -25 -4 -55zM547 319q0 65 -15 96.5t-46 31.5t-46.5 -30.5t-19.5 -104.5h127v7zM283 154q-10 41 -12 84h-20q-80 0 -80 -79q0 -68 43 -68q39 0 69 63zM408 825l59 -107l-201 -94l-41 73z" />
    <glyph glyph-name="Oslashacute" unicode="&#x1fe;" horiz-adv-x="581" 
d="M553 347q0 -180 -68 -271.5t-195 -91.5q-21 0 -31 1l-29 -118l-115 30l33 126q-120 82 -120 324q0 179 67.5 270.5t194.5 91.5q21 0 31 -1l30 119l116 -32l-34 -125q120 -82 120 -323zM227.5 573q-23.5 -24 -34.5 -78.5t-11 -147.5q0 -80 7 -130t21 -77l100 456
q-6 1 -20 1q-39 0 -62.5 -24zM391.5 471.5q-6.5 48.5 -20.5 76.5l-99 -451q6 -1 18 -1q40 0 63 23t33.5 77t11.5 151q0 76 -6.5 124.5zM353 977l57 -109l-203 -85l-38 74z" />
    <glyph glyph-name="oslashacute" unicode="&#x1ff;" horiz-adv-x="494" 
d="M443.5 414.5q24.5 -61.5 24.5 -149.5q0 -135 -58.5 -208.5t-162.5 -73.5q-13 0 -20 1l-30 -118l-108 30l34 124q-46 33 -71.5 95t-25.5 151q0 137 58.5 209.5t162.5 72.5q16 0 24 -1l31 119l107 -31l-36 -125q46 -34 70.5 -95.5zM181 400.5q-21 -39.5 -21 -134.5
q0 -101 21 -140l75 314h-9q-45 0 -66 -39.5zM313.5 130q20.5 39 20.5 135q0 99 -19 137l-74 -311h6q46 0 66.5 39zM301 825l59 -107l-201 -94l-41 73z" />
    <glyph glyph-name="uni0200" unicode="&#x200;" horiz-adv-x="506" 
d="M356 0l-28 152h-154l-27 -152h-156l168 693h188l168 -693h-159zM195 265h113l-57 313zM141 981l81 -194l-70 -35l-105 179zM292 981l75 -194l-72 -30l-98 177z" />
    <glyph glyph-name="uni0201" unicode="&#x201;" horiz-adv-x="457" 
d="M416 104q6 -12 21 -19l-31 -99q-43 4 -70.5 20.5t-42.5 51.5q-46 -75 -131 -75q-66 0 -105 45.5t-39 120.5q0 87 54 132.5t158 45.5h32v28q0 48 -14.5 66.5t-51.5 18.5q-46 0 -114 -27l-34 96q41 19 87.5 29t88.5 10q94 0 140 -45.5t46 -139.5v-222q0 -25 6 -37zM239 103
q14 13 23 37v103h-18q-41 0 -59.5 -19.5t-18.5 -61.5q0 -35 11 -53.5t31 -18.5q17 0 31 13zM123 855l81 -194l-70 -35l-105 179zM274 855l75 -194l-72 -30l-98 177z" />
    <glyph glyph-name="uni0202" unicode="&#x202;" horiz-adv-x="506" 
d="M356 0l-28 152h-154l-27 -152h-156l168 693h188l168 -693h-159zM195 265h113l-57 313zM359 903.5q37 -44.5 42 -123.5l-80 -15q-14 80 -67 80t-69 -80l-79 15q5 79 42.5 123.5t105.5 44.5t105 -44.5z" />
    <glyph glyph-name="uni0203" unicode="&#x203;" horiz-adv-x="457" 
d="M416 104q6 -12 21 -19l-31 -99q-43 4 -70.5 20.5t-42.5 51.5q-46 -75 -131 -75q-66 0 -105 45.5t-39 120.5q0 87 54 132.5t158 45.5h32v28q0 48 -14.5 66.5t-51.5 18.5q-46 0 -114 -27l-34 96q41 19 87.5 29t88.5 10q94 0 140 -45.5t46 -139.5v-222q0 -25 6 -37zM239 103
q14 13 23 37v103h-18q-41 0 -59.5 -19.5t-18.5 -61.5q0 -35 11 -53.5t31 -18.5q17 0 31 13zM332 741.5q37 -44.5 42 -123.5l-80 -15q-14 80 -67 80t-69 -80l-79 15q5 79 42.5 123.5t105.5 44.5t105 -44.5z" />
    <glyph glyph-name="uni0204" unicode="&#x204;" horiz-adv-x="432" 
d="M412 693l-16 -112h-193v-174h170v-110h-170v-183h206v-114h-363v693h366zM118 981l81 -194l-70 -35l-105 179zM269 981l75 -194l-72 -30l-98 177z" />
    <glyph glyph-name="uni0205" unicode="&#x205;" horiz-adv-x="470" 
d="M446 221h-270q5 -72 26.5 -99.5t62.5 -27.5q27 0 52 10.5t54 32.5l62 -82q-74 -72 -179 -72q-112 0 -170 73.5t-58 205.5t55.5 209t158.5 77q98 0 153.5 -69.5t55.5 -202.5q0 -32 -3 -55zM302 319q0 68 -13.5 98.5t-47.5 30.5q-30 0 -45.5 -29.5t-19.5 -106.5h126v7z
M138 855l81 -194l-70 -35l-105 179zM289 855l75 -194l-72 -30l-98 177z" />
    <glyph glyph-name="uni0206" unicode="&#x206;" horiz-adv-x="432" 
d="M412 693l-16 -112h-193v-174h170v-110h-170v-183h206v-114h-363v693h366zM336 903.5q37 -44.5 42 -123.5l-80 -15q-14 80 -67 80t-69 -80l-79 15q5 79 42.5 123.5t105.5 44.5t105 -44.5z" />
    <glyph glyph-name="uni0207" unicode="&#x207;" horiz-adv-x="470" 
d="M446 221h-270q5 -72 26.5 -99.5t62.5 -27.5q27 0 52 10.5t54 32.5l62 -82q-74 -72 -179 -72q-112 0 -170 73.5t-58 205.5t55.5 209t158.5 77q98 0 153.5 -69.5t55.5 -202.5q0 -32 -3 -55zM302 319q0 68 -13.5 98.5t-47.5 30.5q-30 0 -45.5 -29.5t-19.5 -106.5h126v7z
M347 741.5q37 -44.5 42 -123.5l-80 -15q-14 80 -67 80t-69 -80l-79 15q5 79 42.5 123.5t105.5 44.5t105 -44.5z" />
    <glyph glyph-name="uni0208" unicode="&#x208;" horiz-adv-x="250" 
d="M203 693v-693h-157v693h157zM13 981l81 -194l-70 -35l-105 179zM164 981l75 -194l-72 -30l-98 177z" />
    <glyph glyph-name="uni0209" unicode="&#x209;" horiz-adv-x="240" 
d="M196 531v-531h-151v531h151zM17 855l81 -194l-70 -35l-105 179zM168 855l75 -194l-72 -30l-98 177z" />
    <glyph glyph-name="uni020A" unicode="&#x20a;" horiz-adv-x="250" 
d="M203 693v-693h-157v693h157zM231 903.5q37 -44.5 42 -123.5l-80 -15q-14 80 -67 80t-69 -80l-79 15q5 79 42.5 123.5t105.5 44.5t105 -44.5z" />
    <glyph glyph-name="uni020B" unicode="&#x20b;" horiz-adv-x="240" 
d="M196 531v-531h-151v531h151zM226 741.5q37 -44.5 42 -123.5l-80 -15q-14 80 -67 80t-69 -80l-79 15q5 79 42.5 123.5t105.5 44.5t105 -44.5z" />
    <glyph glyph-name="uni020C" unicode="&#x20c;" horiz-adv-x="581" 
d="M485.5 619.5q67.5 -90.5 67.5 -272.5q0 -180 -68 -272t-195 -92t-194.5 90.5t-67.5 273.5q0 180 67.5 271.5t194.5 91.5q128 0 195.5 -90.5zM214.5 538.5q-23.5 -56.5 -23.5 -191.5q0 -94 10.5 -148t32 -77.5t56.5 -23.5q36 0 57.5 23t32 77.5t10.5 148.5
q0 136 -23.5 192t-76.5 56q-52 0 -75.5 -56.5zM178 981l81 -194l-70 -35l-105 179zM329 981l75 -194l-72 -30l-98 177z" />
    <glyph glyph-name="uni020D" unicode="&#x20d;" horiz-adv-x="494" 
d="M409.5 477q58.5 -71 58.5 -212q0 -135 -58.5 -208.5t-162.5 -73.5t-162.5 71.5t-58.5 211.5q0 137 58.5 209.5t162.5 72.5t162.5 -71zM196.5 397.5q-15.5 -38.5 -15.5 -131.5q0 -96 15.5 -134t50.5 -38t50.5 38.5t15.5 132.5q0 95 -15.5 133t-50.5 38t-50.5 -38.5z
M144 855l81 -194l-70 -35l-105 179zM295 855l75 -194l-72 -30l-98 177z" />
    <glyph glyph-name="uni020E" unicode="&#x20e;" horiz-adv-x="581" 
d="M485.5 619.5q67.5 -90.5 67.5 -272.5q0 -180 -68 -272t-195 -92t-194.5 90.5t-67.5 273.5q0 180 67.5 271.5t194.5 91.5q128 0 195.5 -90.5zM214.5 538.5q-23.5 -56.5 -23.5 -191.5q0 -94 10.5 -148t32 -77.5t56.5 -23.5q36 0 57.5 23t32 77.5t10.5 148.5
q0 136 -23.5 192t-76.5 56q-52 0 -75.5 -56.5zM396 903.5q37 -44.5 42 -123.5l-80 -15q-14 80 -67 80t-69 -80l-79 15q5 79 42.5 123.5t105.5 44.5t105 -44.5z" />
    <glyph glyph-name="uni020F" unicode="&#x20f;" horiz-adv-x="494" 
d="M409.5 477q58.5 -71 58.5 -212q0 -135 -58.5 -208.5t-162.5 -73.5t-162.5 71.5t-58.5 211.5q0 137 58.5 209.5t162.5 72.5t162.5 -71zM196.5 397.5q-15.5 -38.5 -15.5 -131.5q0 -96 15.5 -134t50.5 -38t50.5 38.5t15.5 132.5q0 95 -15.5 133t-50.5 38t-50.5 -38.5z
M353 741.5q37 -44.5 42 -123.5l-80 -15q-14 80 -67 80t-69 -80l-79 15q5 79 42.5 123.5t105.5 44.5t105 -44.5z" />
    <glyph glyph-name="uni0210" unicode="&#x210;" horiz-adv-x="517" 
d="M359 0l-113 267h-5h-38v-267h-157v693h185q258 0 258 -210q0 -61 -25.5 -110t-79.5 -76l142 -297h-167zM235 376q50 0 72 25.5t22 81.5q0 51 -23.5 75t-75.5 24h-27v-206h32zM142 981l81 -194l-70 -35l-105 179zM293 981l75 -194l-72 -30l-98 177z" />
    <glyph glyph-name="uni0211" unicode="&#x211;" horiz-adv-x="338" 
d="M344 538l-25 -145q-18 6 -37 6q-37 0 -55.5 -28.5t-30.5 -85.5v-285h-151v531h131l11 -87q38 102 115 102q21 0 42 -8zM92 855l81 -194l-70 -35l-105 179zM243 855l75 -194l-72 -30l-98 177z" />
    <glyph glyph-name="uni0212" unicode="&#x212;" horiz-adv-x="517" 
d="M359 0l-113 267h-5h-38v-267h-157v693h185q258 0 258 -210q0 -61 -25.5 -110t-79.5 -76l142 -297h-167zM235 376q50 0 72 25.5t22 81.5q0 51 -23.5 75t-75.5 24h-27v-206h32zM360 903.5q37 -44.5 42 -123.5l-80 -15q-14 80 -67 80t-69 -80l-79 15q5 79 42.5 123.5
t105.5 44.5t105 -44.5z" />
    <glyph glyph-name="uni0213" unicode="&#x213;" horiz-adv-x="338" 
d="M344 538l-25 -145q-18 6 -37 6q-37 0 -55.5 -28.5t-30.5 -85.5v-285h-151v531h131l11 -87q38 102 115 102q21 0 42 -8zM301 741.5q37 -44.5 42 -123.5l-80 -15q-14 80 -67 80t-69 -80l-79 15q5 79 42.5 123.5t105.5 44.5t105 -44.5z" />
    <glyph glyph-name="uni0214" unicode="&#x214;" horiz-adv-x="536" 
d="M500 200q0 -62 -26 -110.5t-78 -77t-128 -28.5q-114 0 -173 59t-59 157v493h157v-486q0 -54 17.5 -80t57.5 -26t57.5 26t17.5 80v486h157v-493zM156 981l81 -194l-70 -35l-105 179zM307 981l75 -194l-72 -30l-98 177z" />
    <glyph glyph-name="uni0215" unicode="&#x215;" horiz-adv-x="476" 
d="M431 0h-132l-6 61q-48 -78 -127 -78q-58 0 -91.5 42t-33.5 111v395h151v-389q0 -23 8 -35t23 -12q32 0 57 56v380h151v-531zM134 855l81 -194l-70 -35l-105 179zM285 855l75 -194l-72 -30l-98 177z" />
    <glyph glyph-name="uni0216" unicode="&#x216;" horiz-adv-x="536" 
d="M500 200q0 -62 -26 -110.5t-78 -77t-128 -28.5q-114 0 -173 59t-59 157v493h157v-486q0 -54 17.5 -80t57.5 -26t57.5 26t17.5 80v486h157v-493zM374 903.5q37 -44.5 42 -123.5l-80 -15q-14 80 -67 80t-69 -80l-79 15q5 79 42.5 123.5t105.5 44.5t105 -44.5z" />
    <glyph glyph-name="uni0217" unicode="&#x217;" horiz-adv-x="476" 
d="M431 0h-132l-6 61q-48 -78 -127 -78q-58 0 -91.5 42t-33.5 111v395h151v-389q0 -23 8 -35t23 -12q32 0 57 56v380h151v-531zM343 741.5q37 -44.5 42 -123.5l-80 -15q-14 80 -67 80t-69 -80l-79 15q5 79 42.5 123.5t105.5 44.5t105 -44.5z" />
    <glyph glyph-name="Scommaaccent" unicode="&#x218;" horiz-adv-x="477" 
d="M355.5 688q49.5 -22 90.5 -66l-69 -82q-60 55 -119 55q-34 0 -53 -20t-19 -53q0 -32 22 -52.5t85 -47.5q58 -26 94 -53.5t54.5 -67.5t18.5 -99q0 -63 -28.5 -113t-81.5 -78t-124 -28q-74 0 -128 26t-97 72l75 83q36 -32 68.5 -48.5t69.5 -16.5q41 0 62 24.5t21 66.5
q0 38 -21 62.5t-76 46.5q-96 40 -136 88.5t-40 122.5q0 59 28 104.5t77.5 70.5t111.5 25q65 0 114.5 -22zM288 -90q20 -21 20 -54q0 -17 -4.5 -33.5t-17.5 -49.5l-40 -95h-73l26 116q-36 22 -36 62q0 32 20.5 53.5t52.5 21.5t52 -21z" />
    <glyph glyph-name="scommaaccent" unicode="&#x219;" horiz-adv-x="402" 
d="M299 531q43 -17 75 -48l-55 -81q-55 38 -99 38q-24 0 -37.5 -12t-13.5 -33q0 -23 17 -37.5t73 -37.5q67 -28 99 -65t32 -99q0 -80 -56.5 -126.5t-146.5 -46.5q-56 0 -105 20.5t-84 57.5l71 78q60 -49 110 -49q27 0 42.5 14t15.5 39q0 28 -17.5 44.5t-71.5 38.5
q-68 28 -98 64.5t-30 93.5q0 72 50 118t137 46q49 0 92 -17zM252 -90q20 -21 20 -54q0 -17 -4.5 -33.5t-17.5 -49.5l-40 -95h-73l26 116q-36 22 -36 62q0 32 20.5 53.5t52.5 21.5t52 -21z" />
    <glyph glyph-name="uni021A" unicode="&#x21a;" horiz-adv-x="450" 
d="M452 693l-16 -120h-133v-573h-157v573h-141v120h447zM277 -90q20 -21 20 -54q0 -17 -4.5 -33.5t-17.5 -49.5l-40 -95h-73l26 116q-36 22 -36 62q0 32 20.5 53.5t52.5 21.5t52 -21z" />
    <glyph glyph-name="uni021B" unicode="&#x21b;" horiz-adv-x="325" 
d="M336 25q-25 -21 -58 -31.5t-67 -10.5q-77 0 -116 44t-39 118v280h-55v106h55v116l151 17v-133h99l-16 -106h-83v-279q0 -43 36 -43q20 0 43 14zM244 -90q20 -21 20 -54q0 -17 -4.5 -33.5t-17.5 -49.5l-40 -95h-73l26 116q-36 22 -36 62q0 32 20.5 53.5t52.5 21.5t52 -21z
" />
    <glyph glyph-name="uni021C" unicode="&#x21c;" horiz-adv-x="431" 
d="M302.5 686q46.5 -24 72 -66.5t25.5 -96.5q0 -66 -34 -108t-109 -57q81 -9 120 -48t39 -115q0 -106 -86.5 -186.5t-272.5 -120.5l-12 116q82 27 127.5 55.5t63.5 62t18 79.5q0 50 -24 73.5t-75 23.5h-56l17 114h42q82 0 82 94q0 42 -16 66t-51 24q-45 0 -109 -54l-70 77
q83 91 201 91q61 0 107.5 -24z" />
    <glyph glyph-name="uni021D" unicode="&#x21d;" horiz-adv-x="402" 
d="M305.5 508q50.5 -40 50.5 -111q0 -49 -27 -79.5t-83 -44.5q130 -9 130 -117q0 -88 -85 -156.5t-244 -105.5l-13 99q100 40 143.5 77.5t43.5 88.5q0 29 -13.5 42t-40.5 13h-69l8 98h37q60 0 60 69q0 32 -13 46.5t-37 14.5q-23 0 -42 -7.5t-45 -24.5l-67 76q74 62 177 62
q79 0 129.5 -40z" />
    <glyph glyph-name="uni021E" unicode="&#x21e;" horiz-adv-x="551" 
d="M348 0v299h-145v-299h-157v693h157v-271h145v271h157v-693h-157zM387 936l52 -55l-118 -131h-90l-118 131l52 55l111 -84z" />
    <glyph glyph-name="uni021F" unicode="&#x21f;" horiz-adv-x="480" 
d="M406.5 507q32.5 -41 32.5 -110v-397h-151v381q0 52 -29 52t-63 -64v-369h-151v742l151 16v-283q25 38 54 55.5t67 17.5q57 0 89.5 -41zM351 985l52 -55l-118 -131h-90l-118 131l52 55l111 -84z" />
    <glyph glyph-name="uni0220" unicode="&#x220;" horiz-adv-x="539" 
d="M460.5 663q37.5 -47 37.5 -127v-746h-157v721q0 45 -11 63.5t-36 18.5t-45.5 -15.5t-45.5 -46.5v-531h-157v693h138l10 -60q35 39 72.5 58t84.5 19q72 0 109.5 -47z" />
    <glyph glyph-name="uni0221" unicode="&#x221;" horiz-adv-x="662" 
d="M640 210q28 -30 28 -83q0 -71 -45.5 -107t-117.5 -36q-14 0 -38 2l-28 -69l-67 28l25 61q-45 23 -67 62q-54 -85 -136 -85t-125 73.5t-43 209.5q0 85 23 149t64 98.5t93 34.5q60 0 99 -49v259l151 -16v-573q0 -17 1 -24q22 52 47.5 73.5t63.5 21.5q44 0 72 -30zM306 148
q-1 8 -1 25v221q-13 22 -26 32.5t-30 10.5q-68 0 -68 -171q0 -97 16.5 -134.5t45.5 -37.5q36 0 63 54zM568 134q0 26 -18 26q-12 0 -21 -13.5t-23 -53.5q6 -1 19 -1q43 0 43 42z" />
    <glyph glyph-name="uni0222" unicode="&#x222;" horiz-adv-x="548" 
d="M520 217q0 -66 -30 -119t-85.5 -83.5t-130.5 -30.5t-130.5 30t-85.5 82.5t-30 119.5q0 66 28.5 111.5t82.5 68.5q-80 42 -80 125v172h157v-184q0 -63 58 -63q31 0 44 18t13 45v184h158v-172q0 -40 -21 -71.5t-60 -51.5q112 -45 112 -181zM336.5 127q20.5 28 20.5 92
q0 116 -83 116t-83 -117q0 -63 20.5 -91t62.5 -28t62.5 28z" />
    <glyph glyph-name="uni0223" unicode="&#x223;" horiz-adv-x="489" 
d="M463 216q0 -107 -57 -169.5t-162 -62.5t-161.5 61.5t-56.5 169.5q0 149 100 199q-72 38 -72 125v203h148v-228q0 -58 43 -58t43 58v228h147v-203q0 -41 -18.5 -72.5t-54.5 -51.5q101 -47 101 -199zM295 123q15 28 15 101t-15 103t-51 30q-35 0 -50 -30.5t-15 -103.5
q0 -71 15 -99.5t50 -28.5q36 0 51 28z" />
    <glyph glyph-name="uni0224" unicode="&#x224;" horiz-adv-x="445" 
d="M432 574l-251 -448h249v-174q0 -85 -47.5 -129t-126.5 -44q-43 0 -73.5 11t-56.5 31l52 89q15 -9 28 -12.5t30 -3.5q44 0 44 49v58l-270 -1v117l250 454h-226v122h398v-119z" />
    <glyph glyph-name="uni0225" unicode="&#x225;" horiz-adv-x="381" 
d="M371 424l-198 -309h195v-168q0 -81 -47.5 -124.5t-124.5 -43.5q-76 0 -129 42l52 86q17 -9 29.5 -13t29.5 -4q23 0 34.5 11.5t11.5 37.5v61h-215v107l198 310h-181v114h345v-107z" />
    <glyph glyph-name="uni0226" unicode="&#x226;" horiz-adv-x="506" 
d="M356 0l-28 152h-154l-27 -152h-156l168 693h188l168 -693h-159zM195 265h113l-57 313zM314.5 908.5q23.5 -24.5 23.5 -62.5q0 -37 -24 -61.5t-62 -24.5t-62 24.5t-24 61.5q0 38 24 62.5t62 24.5q39 0 62.5 -24.5z" />
    <glyph glyph-name="uni0227" unicode="&#x227;" horiz-adv-x="457" 
d="M416 104q6 -12 21 -19l-31 -99q-43 4 -70.5 20.5t-42.5 51.5q-46 -75 -131 -75q-66 0 -105 45.5t-39 120.5q0 87 54 132.5t158 45.5h32v28q0 48 -14.5 66.5t-51.5 18.5q-46 0 -114 -27l-34 96q41 19 87.5 29t88.5 10q94 0 140 -45.5t46 -139.5v-222q0 -25 6 -37zM239 103
q14 13 23 37v103h-18q-41 0 -59.5 -19.5t-18.5 -61.5q0 -35 11 -53.5t31 -18.5q17 0 31 13zM287.5 782.5q23.5 -24.5 23.5 -62.5q0 -37 -24 -61.5t-62 -24.5t-62 24.5t-24 61.5q0 38 24 62.5t62 24.5q39 0 62.5 -24.5z" />
    <glyph glyph-name="uni0228" unicode="&#x228;" horiz-adv-x="432" 
d="M203 114h206v-114h-144v-53q87 -14 87 -95q0 -50 -34 -80.5t-95 -30.5q-58 0 -99 29l34 66q26 -13 54 -13q35 0 35 31q0 19 -18 27t-58 8l11 111h-136v693h366l-16 -112h-193v-174h170v-110h-170v-183z" />
    <glyph glyph-name="uni0229" unicode="&#x229;" horiz-adv-x="470" 
d="M446 221h-270q5 -72 26.5 -99.5t62.5 -27.5q27 0 52 10.5t54 32.5l62 -82q-58 -58 -140 -69v-39q87 -14 87 -95q0 -50 -34 -80.5t-95 -30.5q-58 0 -99 29l34 66q26 -13 54 -13q35 0 35 31q0 19 -18 27t-58 8l10 97q-90 15 -136.5 87t-46.5 189q0 132 55.5 209t158.5 77
q98 0 153.5 -69.5t55.5 -202.5q0 -32 -3 -55zM302 319q0 68 -13.5 98.5t-47.5 30.5q-30 0 -45.5 -29.5t-19.5 -106.5h126v7z" />
    <glyph glyph-name="uni022A" unicode="&#x22a;" horiz-adv-x="581" 
d="M485.5 619.5q67.5 -90.5 67.5 -272.5q0 -180 -68 -272t-195 -92t-194.5 90.5t-67.5 273.5q0 180 67.5 271.5t194.5 91.5q128 0 195.5 -90.5zM214.5 538.5q-23.5 -56.5 -23.5 -191.5q0 -94 10.5 -148t32 -77.5t56.5 -23.5q36 0 57.5 23t32 77.5t10.5 148.5
q0 136 -23.5 192t-76.5 56q-52 0 -75.5 -56.5zM246 876q21 -22 21 -54q0 -33 -20.5 -54.5t-53.5 -21.5q-32 0 -53.5 22t-21.5 54t21.5 54t53.5 22t53 -22zM442 876q21 -22 21 -54q0 -33 -20.5 -54.5t-53.5 -21.5q-31 0 -52.5 22t-21.5 54t21.5 54t52.5 22q32 0 53 -22z
M421 943h-260v102h260v-102z" />
    <glyph glyph-name="uni022B" unicode="&#x22b;" horiz-adv-x="494" 
d="M409.5 477q58.5 -71 58.5 -212q0 -135 -58.5 -208.5t-162.5 -73.5t-162.5 71.5t-58.5 211.5q0 137 58.5 209.5t162.5 72.5t162.5 -71zM196.5 397.5q-15.5 -38.5 -15.5 -131.5q0 -96 15.5 -134t50.5 -38t50.5 38.5t15.5 132.5q0 95 -15.5 133t-50.5 38t-50.5 -38.5z
M203 734q21 -22 21 -54q0 -33 -20.5 -54.5t-53.5 -21.5q-32 0 -53.5 22t-21.5 54t21.5 54t53.5 22t53 -22zM399 734q21 -22 21 -54q0 -33 -20.5 -54.5t-53.5 -21.5q-31 0 -52.5 22t-21.5 54t21.5 54t52.5 22q32 0 53 -22zM378 804h-260v102h260v-102z" />
    <glyph glyph-name="uni022C" unicode="&#x22c;" horiz-adv-x="581" 
d="M485.5 619.5q67.5 -90.5 67.5 -272.5q0 -180 -68 -272t-195 -92t-194.5 90.5t-67.5 273.5q0 180 67.5 271.5t194.5 91.5q128 0 195.5 -90.5zM214.5 538.5q-23.5 -56.5 -23.5 -191.5q0 -94 10.5 -148t32 -77.5t56.5 -23.5q36 0 57.5 23t32 77.5t10.5 148.5
q0 136 -23.5 192t-76.5 56q-52 0 -75.5 -56.5zM308.5 767.5q-13.5 6.5 -30.5 17.5q-21 16 -35 16q-13 0 -22 -9.5t-21 -31.5l-70 33q16 50 45 80.5t66 30.5q18 0 31 -6t32 -18q11 -9 19 -13t17 -4q13 0 21.5 9.5t19.5 30.5l71 -32q-16 -51 -45 -80.5t-66 -29.5
q-19 0 -32.5 6.5zM421 945h-260v102h260v-102z" />
    <glyph glyph-name="uni022D" unicode="&#x22d;" horiz-adv-x="494" 
d="M409.5 477q58.5 -71 58.5 -212q0 -135 -58.5 -208.5t-162.5 -73.5t-162.5 71.5t-58.5 211.5q0 137 58.5 209.5t162.5 72.5t162.5 -71zM196.5 397.5q-15.5 -38.5 -15.5 -131.5q0 -96 15.5 -134t50.5 -38t50.5 38.5t15.5 132.5q0 95 -15.5 133t-50.5 38t-50.5 -38.5z
M265.5 605.5q-13.5 6.5 -30.5 17.5q-21 16 -35 16q-13 0 -22 -9.5t-21 -31.5l-70 33q16 50 45 80.5t66 30.5q18 0 31 -6t32 -18q11 -9 19 -13t17 -4q13 0 21.5 9.5t19.5 30.5l71 -32q-16 -51 -45 -80.5t-66 -29.5q-19 0 -32.5 6.5zM378 831h-260v102h260v-102z" />
    <glyph glyph-name="uni022E" unicode="&#x22e;" horiz-adv-x="581" 
d="M485.5 619.5q67.5 -90.5 67.5 -272.5q0 -180 -68 -272t-195 -92t-194.5 90.5t-67.5 273.5q0 180 67.5 271.5t194.5 91.5q128 0 195.5 -90.5zM214.5 538.5q-23.5 -56.5 -23.5 -191.5q0 -94 10.5 -148t32 -77.5t56.5 -23.5q36 0 57.5 23t32 77.5t10.5 148.5
q0 136 -23.5 192t-76.5 56q-52 0 -75.5 -56.5zM351.5 908.5q23.5 -24.5 23.5 -62.5q0 -37 -24 -61.5t-62 -24.5t-62 24.5t-24 61.5q0 38 24 62.5t62 24.5q39 0 62.5 -24.5z" />
    <glyph glyph-name="uni022F" unicode="&#x22f;" horiz-adv-x="494" 
d="M409.5 477q58.5 -71 58.5 -212q0 -135 -58.5 -208.5t-162.5 -73.5t-162.5 71.5t-58.5 211.5q0 137 58.5 209.5t162.5 72.5t162.5 -71zM196.5 397.5q-15.5 -38.5 -15.5 -131.5q0 -96 15.5 -134t50.5 -38t50.5 38.5t15.5 132.5q0 95 -15.5 133t-50.5 38t-50.5 -38.5z
M308.5 782.5q23.5 -24.5 23.5 -62.5q0 -37 -24 -61.5t-62 -24.5t-62 24.5t-24 61.5q0 38 24 62.5t62 24.5q39 0 62.5 -24.5z" />
    <glyph glyph-name="uni0230" unicode="&#x230;" horiz-adv-x="581" 
d="M485.5 619.5q67.5 -90.5 67.5 -272.5q0 -180 -68 -272t-195 -92t-194.5 90.5t-67.5 273.5q0 180 67.5 271.5t194.5 91.5q128 0 195.5 -90.5zM214.5 538.5q-23.5 -56.5 -23.5 -191.5q0 -94 10.5 -148t32 -77.5t56.5 -23.5q36 0 57.5 23t32 77.5t10.5 148.5
q0 136 -23.5 192t-76.5 56q-52 0 -75.5 -56.5zM351.5 885.5q23.5 -24.5 23.5 -62.5q0 -37 -24 -61.5t-62 -24.5t-62 24.5t-24 61.5q0 38 24 62.5t62 24.5q39 0 62.5 -24.5zM420 943h-260v102h260v-102z" />
    <glyph glyph-name="uni0231" unicode="&#x231;" horiz-adv-x="494" 
d="M409.5 477q58.5 -71 58.5 -212q0 -135 -58.5 -208.5t-162.5 -73.5t-162.5 71.5t-58.5 211.5q0 137 58.5 209.5t162.5 72.5t162.5 -71zM196.5 397.5q-15.5 -38.5 -15.5 -131.5q0 -96 15.5 -134t50.5 -38t50.5 38.5t15.5 132.5q0 95 -15.5 133t-50.5 38t-50.5 -38.5z
M308.5 743.5q23.5 -24.5 23.5 -62.5q0 -37 -24 -61.5t-62 -24.5t-62 24.5t-24 61.5q0 38 24 62.5t62 24.5q39 0 62.5 -24.5zM377 806h-260v102h260v-102z" />
    <glyph glyph-name="uni0232" unicode="&#x232;" horiz-adv-x="500" 
d="M511 693l-182 -432v-261h-157v260l-182 433h164l98 -310l100 310h159zM380 784h-260v102h260v-102z" />
    <glyph glyph-name="uni0233" unicode="&#x233;" horiz-adv-x="442" 
d="M310 -1q-52 -205 -262 -220l-16 104q63 11 95.5 36.5t50.5 80.5h-56l-127 531h152l70 -434l82 434h149zM351 658h-260v102h260v-102z" />
    <glyph glyph-name="uni0234" unicode="&#x234;" horiz-adv-x="397" 
d="M375 210q28 -30 28 -83q0 -71 -45.5 -107t-117.5 -36q-14 0 -38 2l-28 -69l-67 28l25 61q-43 21 -67.5 62.5t-24.5 104.5v569l151 16v-589q0 -17 1 -24q22 52 47.5 73.5t63.5 21.5q44 0 72 -30zM303 134q0 26 -18 26q-12 0 -21 -13.5t-23 -53.5q5 -1 19 -1q43 0 43 42z
" />
    <glyph glyph-name="uni0235" unicode="&#x235;" horiz-adv-x="646" 
d="M623 210q28 -30 28 -83q0 -71 -45.5 -107t-117.5 -36q-13 0 -37 2l-28 -69l-68 28l25 61q-43 21 -67.5 62.5t-24.5 104.5v208q0 52 -29 52t-63 -64v-369h-151v531h131l11 -63q26 40 57 60t73 20q57 0 89.5 -41t32.5 -110v-228q0 -17 1 -24q22 51 48 73t63 22q44 0 72 -30
zM551 134q0 26 -18 26q-12 0 -20 -13.5t-23 -53.5q5 -1 19 -1q42 0 42 42z" />
    <glyph glyph-name="uni0236" unicode="&#x236;" horiz-adv-x="413" 
d="M391 210q28 -30 28 -83q0 -71 -45.5 -107t-117.5 -36q-14 0 -38 2l-28 -69l-67 28l25 61q-43 21 -67.5 62.5t-24.5 104.5v252h-55v106h55v115l151 18v-133h99l-16 -106h-83v-260q0 -14 1 -20q22 51 47.5 73t63.5 22q44 0 72 -30zM319 134q0 26 -18 26q-12 0 -21 -13.5
t-23 -53.5q5 -1 19 -1q43 0 43 42z" />
    <glyph glyph-name="uni0237" unicode="&#x237;" horiz-adv-x="240" 
d="M196 38q0 -104 -49.5 -161t-141.5 -97l-51 109q32 19 50.5 36t29.5 43.5t11 67.5v495h151v-493z" />
    <glyph glyph-name="uni0238" unicode="&#x238;" horiz-adv-x="726" 
d="M700 265q0 -134 -45 -207.5t-121 -73.5q-31 0 -58 18t-45 50l-8 -52h-118l-8 57q-18 -33 -46 -53t-66 -20q-77 0 -118 72.5t-41 209.5q0 89 21 152.5t58 96t84 32.5q31 0 56.5 -15t43.5 -43v253l151 16v-276q20 30 49 47.5t65 17.5q146 0 146 -282zM289 140v256
q-22 41 -51 41q-26 0 -41.5 -37.5t-15.5 -133.5q0 -101 13 -136.5t38 -35.5q30 0 57 46zM530.5 130q14.5 36 14.5 135q0 71 -6 108t-17 50t-27 13q-32 0 -55 -46v-251q22 -45 51 -45q25 0 39.5 36z" />
    <glyph glyph-name="uni0239" unicode="&#x239;" horiz-adv-x="726" 
d="M661.5 476.5q38.5 -71.5 38.5 -209.5q0 -89 -20.5 -153t-57 -97t-82.5 -33q-28 0 -54 14.5t-46 43.5v-247l-151 -16v259q-44 -54 -105 -54q-74 0 -116 73.5t-42 208.5q0 86 21.5 150t60 98t87.5 34q64 0 106 -70l5 53h117l5 -58q26 40 54.5 57.5t66.5 17.5
q74 0 112.5 -71.5zM289 142v257q-23 38 -52 38q-27 0 -41.5 -38.5t-14.5 -132.5q0 -100 13.5 -136t39.5 -36q32 0 55 48zM531 132q14 37 14 133q0 70 -5.5 107.5t-16.5 51t-28 13.5q-26 0 -55 -41v-258q20 -43 50 -43q27 0 41 37z" />
    <glyph glyph-name="uni023A" unicode="&#x23a;" horiz-adv-x="506" 
d="M375 0l-31 152h-92l-49 -226l-50 11l47 215h-41l-31 -152h-137l168 693h158l13 62l51 -11l-22 -101l156 -643h-140zM181 258h41l51 235l-22 108zM275 258h47l-23 110z" />
    <glyph glyph-name="uni023B" unicode="&#x23b;" horiz-adv-x="484" 
d="M482 71q-36 -39 -84 -63.5t-107 -24.5q-31 0 -58 6l-14 -63l-53 11l15 70q-72 35 -112.5 121t-40.5 220q0 119 33.5 200t93.5 121.5t138 40.5q21 0 41 -3l10 48l52 -11l-11 -50q45 -17 91 -60l-73 -86q-25 21 -43 31l-100 -463q19 -11 45 -11q30 0 52 12t54 38zM217 170
l92 423h-5q-55 0 -84 -56.5t-29 -188.5q0 -120 26 -178z" />
    <glyph glyph-name="uni023C" unicode="&#x23c;" horiz-adv-x="401" 
d="M300 108q17 7 39 24l65 -87q-65 -62 -150 -62q-13 0 -37 2l-13 -59l-47 11l13 59q-69 24 -106.5 91t-37.5 174q0 89 27.5 153.5t78.5 99t120 34.5q20 0 38 -3l12 55l47 -10l-13 -59q36 -16 68 -48l-62 -83q-17 13 -30 20l-69 -317q12 -2 20 -2q20 0 37 7zM202 141l63 292
h-1q-41 0 -61 -37.5t-20 -133.5q0 -83 19 -121z" />
    <glyph glyph-name="uni023D" unicode="&#x23d;" horiz-adv-x="441" 
d="M218 124h218l-16 -124h-359v304h-57v118h57v271h157v-271h59v-118h-59v-180z" />
    <glyph glyph-name="uni023E" unicode="&#x23e;" horiz-adv-x="452" 
d="M436 578h-64l-80 -193v-385h-136v55l-53 -129l-44 19l97 235v398h-151v115h363l26 64l44 -18l-19 -46h33zM292 510l28 68h-28v-68z" />
    <glyph glyph-name="uni023F" unicode="&#x23f;" horiz-adv-x="402" 
d="M352 -100l33 -90q-36 -30 -87 -30q-42 0 -73 17.5t-52 44t-52 73.5q-31 48 -55.5 79.5t-58.5 59.5q-6 4 -9 7l64 78q33 -24 60 -36.5t57 -12.5q27 0 42.5 14t15.5 39q0 28 -17.5 44.5t-71.5 38.5q-68 27 -98 64t-30 94q0 72 50 118t137 46q49 0 92 -17t75 -48l-55 -81
q-55 38 -99 38q-24 0 -37.5 -12t-13.5 -33q0 -23 17 -37.5t73 -37.5q67 -28 99 -65t32 -99q0 -77 -53.5 -124t-136.5 -49q30 -21 56 -55q16 -20 27 -28.5t29 -8.5q20 0 40 9z" />
    <glyph glyph-name="uni0240" unicode="&#x240;" horiz-adv-x="385" 
d="M257.5 -206.5q-26.5 13.5 -44 33.5t-40.5 55t-42.5 57.5t-49.5 39.5t-72 21v107l198 310h-181v114h345v-107l-223 -347q42 -18 67.5 -46t53.5 -73q22 -36 37 -51.5t38 -15.5q13 0 23.5 2.5t19.5 6.5l25 -91q-35 -29 -90 -29q-38 0 -64.5 13.5z" />
    <glyph glyph-name="uni0241" unicode="&#x241;" horiz-adv-x="425" 
d="M118 329l39 14q51 19 72.5 50.5t21.5 91.5q0 51 -19.5 81t-54.5 30q-26 0 -49.5 -12.5t-54.5 -39.5l-74 74q83 92 198 92q100 0 158 -60t58 -160q0 -85 -28.5 -128t-87.5 -69l-23 -10v-283h-157z" />
    <glyph glyph-name="uni0242" unicode="&#x242;" horiz-adv-x="386" 
d="M89 202l36 14q43 17 65.5 46t22.5 80q0 47 -17.5 70t-47.5 23q-24 0 -43 -10t-42 -32l-69 72q72 83 177 83q58 0 102.5 -25t69.5 -71.5t25 -107.5q0 -73 -27.5 -114.5t-78.5 -64.5l-22 -10v-155h-151v202z" />
    <glyph glyph-name="uni0243" unicode="&#x243;" horiz-adv-x="525" 
d="M472 313.5q38 -38.5 38 -112.5q0 -104 -70 -152.5t-191 -48.5h-191v176h-44v76h44v441h169q123 0 191 -44.5t68 -132.5q0 -59 -32 -96.5t-84 -52.5q64 -15 102 -53.5zM215 582v-168h30q45 0 64 22t19 65q0 40 -20.5 60.5t-65.5 20.5h-27zM325 136.5q25 22.5 25 73.5
q0 50 -23 74.5t-73 24.5h-39v-57h76v-76h-76v-62h36q49 0 74 22.5z" />
    <glyph glyph-name="uni0244" unicode="&#x244;" horiz-adv-x="567" 
d="M557 501h-42v-301q0 -62 -26 -110.5t-78 -77t-128 -28.5q-114 0 -173 59t-59 157v301h-41v89h41v103h157v-103h150v103h157v-103h42v-89zM358 501h-150v-294q0 -54 17.5 -80t57.5 -26t57.5 26t17.5 80v294z" />
    <glyph glyph-name="uni0245" unicode="&#x245;" horiz-adv-x="506" 
d="M347 693l168 -693h-162l-102 578l-101 -578h-159l168 693h188z" />
    <glyph glyph-name="uni0246" unicode="&#x246;" horiz-adv-x="432" 
d="M296 297l-36 -183h149v-114h-172l-15 -74l-52 11l13 63h-137v693h276l13 62l51 -10l-10 -52h36l-16 -112h-43l-35 -174h55v-110h-77zM203 581v-174h62l35 174h-97zM203 114h3l37 183h-40v-183z" />
    <glyph glyph-name="uni0247" unicode="&#x247;" horiz-adv-x="470" 
d="M252 223l-28 -126q20 -5 41 -5q28 0 52.5 10.5t53.5 33.5l62 -80q-75 -73 -179 -73q-26 0 -53 5l-14 -62l-47 11l14 65q-63 29 -95.5 95.5t-32.5 164.5q0 132 55.5 209t158.5 77q11 0 33 -2l12 54l47 -10l-12 -56q61 -25 95 -90t34 -168q0 -29 -3 -53h-194zM184.5 420
q-19.5 -31 -23.5 -111h60l31 141q-3 1 -11 1q-37 0 -56.5 -31zM297 428l-26 -119h50v8q0 81 -24 111zM203 223h-42q4 -62 22 -91z" />
    <glyph glyph-name="uni0248" unicode="&#x248;" horiz-adv-x="285" 
d="M282 284h-59v-180q0 -80 -27 -133t-69 -83.5t-101 -53.5l-41 110q36 18 53 38.5t22.5 49t5.5 78.5v174h-57v118h57v291h157v-291h59v-118z" />
    <glyph glyph-name="uni0249" unicode="&#x249;" horiz-adv-x="284" 
d="M280 204h-60v-166q0 -104 -49.5 -161t-141.5 -97l-51 109q32 19 50.5 36t29.5 43.5t11 67.5v168h-62v106h62v221h151v-221h60v-106zM205.5 782.5q23.5 -24.5 23.5 -62.5q0 -37 -24 -61.5t-62 -24.5t-62 24.5t-24 61.5q0 38 24 62.5t62 24.5q39 0 62.5 -24.5z" />
    <glyph glyph-name="uni024A" unicode="&#x24a;" horiz-adv-x="565" 
d="M667 -179q-53 -42 -127 -42q-81 0 -129.5 44t-48.5 129v74q-47 -42 -114 -42q-64 0 -113.5 39t-78 117.5t-28.5 194.5q0 122 29 206.5t79 126.5t114 42q74 0 123 -52l5 35h141v-750q0 -49 41 -49q16 0 28 3.5t27 12.5zM362 131v428q-16 18 -34 27t-42 9
q-48 0 -71.5 -57.5t-23.5 -202.5q0 -94 10.5 -146.5t30.5 -72.5t52 -20q45 0 78 35z" />
    <glyph glyph-name="uni024B" unicode="&#x24b;" horiz-adv-x="497" 
d="M523 -201q-40 -20 -85 -20q-62 0 -97.5 37t-35.5 101v129q-41 -63 -112 -63q-80 0 -123.5 73.5t-43.5 209.5q0 86 22.5 150t63.5 98t95 34q65 0 111 -62l6 45h132v-607q0 -25 21 -25q6 0 18 3zM305 148v245q-14 22 -27.5 33t-29.5 11q-30 0 -48.5 -40t-18.5 -131
q0 -99 16 -135.5t45 -36.5q37 0 63 54z" />
    <glyph glyph-name="uni024C" unicode="&#x24c;" horiz-adv-x="529" 
d="M370 0l-113 267h-43v-267h-157v267h-43v109h43v317h185q258 0 258 -210q0 -61 -25.5 -110t-79.5 -76l142 -297h-167zM246 376q50 0 72 25.5t22 81.5q0 51 -23.5 75t-75.5 24h-27v-206h32z" />
    <glyph glyph-name="uni024D" unicode="&#x24d;" horiz-adv-x="358" 
d="M364 538l-25 -145q-18 6 -37 6q-37 0 -55.5 -28.5t-30.5 -85.5v-12h61v-106h-61v-167h-151v167h-61v106h61v258h131l11 -87q38 102 115 102q21 0 42 -8z" />
    <glyph glyph-name="uni024E" unicode="&#x24e;" horiz-adv-x="500" 
d="M511 693l-33 -79h32v-89h-70l-111 -264v-261h-157v260l-111 265h-70v89h32l-33 79h158l26 -79h158l26 79h153zM252 377l50 148h-99z" />
    <glyph glyph-name="uni024F" unicode="&#x24f;" horiz-adv-x="461" 
d="M455 394v-88h-56l-80 -307q-52 -205 -262 -220l-16 104q63 11 95.5 36.5t50.5 80.5h-56l-73 306h-53v88h32l-33 137h152l22 -137h104l26 137h149l-36 -137h34zM226 97l39 209h-73z" />
    <glyph glyph-name="uni0250" unicode="&#x250;" horiz-adv-x="457" 
d="M375 118l34 -96q-41 -19 -87.5 -29t-88.5 -10q-94 0 -140 45.5t-46 139.5v222q0 25 -6 37t-21 19l31 99q43 -4 70.5 -20.5t42.5 -51.5q46 75 131 75q66 0 105 -45.5t39 -120.5q0 -87 -54 -132.5t-158 -45.5h-32v-28q0 -48 14.5 -66.5t51.5 -18.5q46 0 114 27zM218 428
q-14 -13 -23 -37v-103h18q41 0 59.5 19.5t18.5 61.5q0 35 -11 53.5t-31 18.5q-17 0 -31 -13z" />
    <glyph glyph-name="uni0251" unicode="&#x251;" horiz-adv-x="502" 
d="M460 118.5q7 -14.5 27 -26.5l-43 -109q-47 9 -75.5 26.5t-45.5 47.5q-48 -74 -127 -74q-82 0 -126 72t-44 211q0 88 22.5 151.5t63 97t91.5 33.5q68 0 111 -58l7 41h132v-370q0 -28 7 -42.5zM302 146v253q-13 19 -25.5 28.5t-30.5 9.5q-31 0 -48 -37.5t-17 -133.5
q0 -101 15 -136.5t43 -35.5q35 0 63 52z" />
    <glyph glyph-name="uni0252" unicode="&#x252;" horiz-adv-x="502" 
d="M432 476q44 -72 44 -211q0 -88 -22.5 -151.5t-63 -97t-91.5 -33.5q-68 0 -111 58l-7 -41h-132v370q0 28 -7 42.5t-27 26.5l43 109q47 -9 75.5 -26.5t45.5 -47.5q48 74 127 74q82 0 126 -72zM304 131.5q17 37.5 17 133.5q0 101 -15 136.5t-43 35.5q-35 0 -63 -52v-253
q13 -19 25.5 -28.5t30.5 -9.5q31 0 48 37.5z" />
    <glyph glyph-name="uni0253" unicode="&#x253;" horiz-adv-x="499" 
d="M432.5 477q40.5 -71 40.5 -212q0 -131 -46.5 -206.5t-128.5 -75.5q-35 0 -63.5 17t-48.5 48l-7 -48h-134v590q0 73 46.5 120.5t132.5 47.5q68 0 125 -33l-42 -95q-31 16 -61 16q-26 0 -38 -14.5t-12 -45.5v-104q21 31 51.5 48.5t66.5 17.5q78 0 118.5 -71zM301.5 131
q16.5 38 16.5 134q0 101 -14.5 136.5t-41.5 35.5q-36 0 -66 -57v-240q24 -47 58 -47q31 0 47.5 38z" />
    <glyph glyph-name="uni0254" unicode="&#x254;" horiz-adv-x="395" 
d="M65 -1q-37 15 -69 44l67 84q22 -17 38.5 -24.5t36.5 -7.5q40 0 58 37t18 133q0 97 -17.5 134t-56.5 37q-21 0 -38.5 -7t-38.5 -24l-63 81q64 62 159 62q100 0 155.5 -70t55.5 -213q0 -137 -58.5 -209t-162.5 -72q-47 0 -84 15z" />
    <glyph glyph-name="uni0255" unicode="&#x255;" horiz-adv-x="423" 
d="M393.5 219.5q30.5 -30.5 30.5 -85.5q0 -73 -45.5 -111.5t-114.5 -38.5q-27 0 -59 6l-27 -73l-71 28l31 74q-54 32 -83 94.5t-29 147.5q0 89 27.5 153.5t78.5 99t120 34.5q46 0 83 -16t69 -49l-62 -83q-41 33 -78 33q-41 0 -61 -37.5t-20 -133.5q0 -66 13 -112
q19 53 48.5 76.5t70.5 23.5q48 0 78.5 -30.5zM325 137q0 33 -24 33q-15 0 -28 -17t-25 -56q16 -4 35 -4q42 0 42 44z" />
    <glyph glyph-name="uni0256" unicode="&#x256;" horiz-adv-x="500" 
d="M605 -179q-52 -42 -128 -42q-77 0 -124.5 43.5t-47.5 124.5v94q-44 -58 -110 -58q-84 0 -126.5 73t-42.5 210q0 85 23 149t64 98.5t93 34.5q60 0 99 -49v259l151 -16v-803q0 -49 42 -49q15 0 27 3.5t28 12.5zM305 146v248q-13 22 -26 32.5t-30 10.5q-68 0 -68 -171
q0 -97 16.5 -134.5t45.5 -37.5q35 0 62 52z" />
    <glyph glyph-name="uni0257" unicode="&#x257;" horiz-adv-x="500" 
d="M589 721l-42 -91q-16 8 -27.5 12t-24.5 4q-21 0 -30 -12t-9 -40v-594h-135l-5 56q-23 -34 -51.5 -53.5t-69.5 -19.5q-84 0 -126.5 73t-42.5 210q0 85 23 149t64 98.5t93 34.5q60 0 99 -49v91q0 79 42.5 123.5t122.5 44.5q63 0 119 -37zM305 146v248q-13 22 -26 32.5
t-30 10.5q-68 0 -68 -171q0 -97 16.5 -134.5t45.5 -37.5q35 0 62 52z" />
    <glyph glyph-name="uni0258" unicode="&#x258;" horiz-adv-x="470" 
d="M444 262q0 -134 -58.5 -206.5t-172.5 -72.5q-102 0 -176 71l62 83q29 -22 54 -32.5t53 -10.5q40 0 61.5 27.5t26.5 99.5h-270q-3 23 -3 55q0 132 58 202t156 70q209 0 209 -286zM168 312h126q-2 57 -9 86t-19.5 39.5t-33.5 10.5q-33 0 -48.5 -32t-15.5 -97v-7z" />
    <glyph glyph-name="uni0259" unicode="&#x259;" horiz-adv-x="471" 
d="M445 266q0 -134 -55 -208t-160 -74q-98 0 -153.5 67.5t-55.5 203.5q0 31 3 56h279q-3 71 -23 99.5t-59 28.5q-30 0 -56 -9t-55 -31l-60 81q74 68 178 68q217 0 217 -282zM283 117.5q17 26.5 20 100.5h-143v-7q0 -64 18 -92t53 -28t52 26.5z" />
    <glyph glyph-name="uni025A" unicode="&#x25a;" horiz-adv-x="712" 
d="M724 345q-49 -37 -107 -37q-56 0 -89.5 29.5t-40.5 80.5l-2 18l-56 -39q16 -55 16 -131q0 -134 -55 -208t-160 -74q-98 0 -153.5 67.5t-55.5 203.5q0 31 3 56h279q-3 71 -23 99.5t-59 28.5q-30 0 -56 -9t-55 -31l-60 81q74 68 178 68q110 0 165 -74l85 57h121v-74
q0 -22 10 -33t27 -11q13 0 22 3t24 11zM283 117.5q17 26.5 20 100.5h-143v-7q0 -64 18 -92t53 -28t52 26.5z" />
    <glyph glyph-name="uni025B" unicode="&#x25b;" horiz-adv-x="406" 
d="M396 489l-57 -77q-25 16 -46.5 23t-44.5 7q-25 0 -39.5 -15t-14.5 -44q0 -30 14.5 -46t43.5 -16h51l-14 -96h-43q-35 0 -50 -17t-15 -50q0 -66 65 -66q23 0 46.5 8.5t52.5 28.5l62 -82q-34 -30 -81 -46.5t-106 -16.5q-86 0 -140 42.5t-54 118.5q0 58 31.5 91.5t97.5 45.5
q-113 26 -113 120q0 66 51 106t131 40q98 0 172 -59z" />
    <glyph glyph-name="uni025C" unicode="&#x25c;" horiz-adv-x="415" 
d="M318 507.5q50 -40.5 50 -106.5q0 -45 -26.5 -74t-81.5 -44q66 -10 97.5 -41t31.5 -89q0 -83 -56 -126t-152 -43q-109 0 -182 64l68 80q31 -21 52.5 -28.5t49.5 -7.5q65 0 65 69q0 34 -17.5 49t-56.5 15h-57l8 96h38q35 0 51 16t16 49q0 29 -14 42.5t-39 13.5
q-22 0 -41 -7.5t-43 -24.5l-68 76q76 62 181 62q76 0 126 -40.5z" />
    <glyph glyph-name="uni025D" unicode="&#x25d;" horiz-adv-x="668" 
d="M680 345q-49 -37 -107 -37q-56 0 -89.5 29.5t-40.5 80.5l-2 18l-74 -52q-9 -75 -107 -101q66 -10 97.5 -41t31.5 -89q0 -83 -56 -126t-152 -43q-109 0 -182 64l68 80q31 -21 52.5 -28.5t49.5 -7.5q65 0 65 69q0 34 -17.5 49t-56.5 15h-57l8 96h38q35 0 51 16t16 49
q0 29 -14 42.5t-39 13.5q-22 0 -41 -7.5t-43 -24.5l-68 76q76 62 181 62q52 0 93 -19.5t63 -54.5l86 57h121v-74q0 -22 10 -33t27 -11q13 0 22 3t24 11z" />
    <glyph glyph-name="uni025E" unicode="&#x25e;" horiz-adv-x="487" 
d="M84 56q-58 72 -58 210q0 136 59.5 209t168.5 73q83 0 134.5 -41.5t51.5 -106.5q0 -89 -103 -117q64 -10 94 -41t30 -89q0 -79 -57 -124t-154 -45q-108 0 -166 72zM295.5 108.5q14.5 16.5 14.5 53.5q0 34 -15 48t-46 14h-24l8 98h11q48 0 48 62q0 28 -12 43t-34 15
q-38 0 -54.5 -39t-16.5 -137q0 -68 6.5 -105t22.5 -53t46 -16q31 0 45.5 16.5z" />
    <glyph glyph-name="uni025F" unicode="&#x25f;" horiz-adv-x="284" 
d="M280 204h-60v-166q0 -104 -49.5 -161t-141.5 -97l-51 109q32 19 50.5 36t29.5 43.5t11 67.5v168h-62v106h62v221h151v-221h60v-106z" />
    <glyph glyph-name="uni0260" unicode="&#x260;" horiz-adv-x="500" 
d="M589 721l-42 -91q-16 8 -27.5 12t-24.5 4q-21 0 -30 -12t-9 -40v-608q0 -99 -58.5 -153t-162.5 -54q-98 0 -168 49l49 90q24 -13 48.5 -20.5t57.5 -7.5q83 0 83 86v83q-40 -55 -105 -55q-83 0 -128.5 71.5t-45.5 200.5q0 81 23.5 143t65 95.5t95.5 33.5q55 0 95 -43v85
q0 79 42.5 123.5t122.5 44.5q63 0 119 -37zM305 172v226q-27 39 -57 39q-32 0 -49.5 -37.5t-17.5 -123.5q0 -92 16 -127t45 -35q38 0 63 58z" />
    <glyph glyph-name="uni0261" unicode="&#x261;" horiz-adv-x="500" 
d="M456 531v-545q0 -99 -58.5 -153t-162.5 -54q-98 0 -168 49l49 90q24 -13 48.5 -20.5t57.5 -7.5q83 0 83 86v83q-40 -55 -105 -55q-83 0 -128.5 71.5t-45.5 200.5q0 81 23.5 143t65 95.5t95.5 33.5q32 0 59.5 -15.5t47.5 -42.5l7 41h132zM305 172v226q-27 39 -57 39
q-32 0 -49.5 -37.5t-17.5 -123.5q0 -92 16 -127t45 -35q38 0 63 58z" />
    <glyph glyph-name="uni0262" unicode="&#x262;" horiz-adv-x="477" 
d="M360 529q43 -19 78 -53l-69 -77q-27 20 -50 30t-49 10q-47 0 -68 -37.5t-21 -133.5q0 -72 8.5 -110t23.5 -51.5t39 -13.5q27 0 55 13v103h-50l-15 101h202v-263q-88 -62 -195 -62q-115 0 -169 66.5t-54 216.5q0 137 64 208.5t170 71.5q57 0 100 -19z" />
    <glyph glyph-name="uni0263" unicode="&#x263;" horiz-adv-x="441" 
d="M294 80q32 -59 46 -99t14 -83q0 -56 -32 -87.5t-99 -31.5q-66 0 -98.5 31.5t-32.5 87.5q0 38 13.5 79t45.5 103l-156 451h154l74 -357l77 357h147zM240.5 -54.5q-5.5 20.5 -17.5 50.5q-23 -56 -23 -93q0 -29 23 -29t23 30q0 21 -5.5 41.5z" />
    <glyph glyph-name="uni0264" unicode="&#x264;" horiz-adv-x="475" 
d="M440.5 540.5q21.5 -7.5 43.5 -22.5l-42 -87q-9 5 -16 7.5t-18 2.5q-13 0 -22.5 -9t-17.5 -31l-61 -160l1 -1q27 -50 38 -80.5t11 -65.5q0 -51 -29.5 -80.5t-89.5 -29.5q-58 0 -89 29.5t-31 79.5q0 33 10.5 64t37.5 84l-59 160q-9 23 -18 31.5t-23 8.5q-16 0 -33 -10
l-42 87q23 15 43.5 22.5t47.5 7.5q52 0 81 -29.5t45 -94.5l29 -103l30 104q16 65 44.5 94t80.5 29q27 0 48.5 -7.5zM256 99q0 27 -18 72q-10 -22 -15 -39t-5 -33q0 -24 20 -24q18 0 18 24z" />
    <glyph glyph-name="uni0265" unicode="&#x265;" horiz-adv-x="480" 
d="M436 531v-752l-151 16v262q-25 -38 -54.5 -56t-67.5 -18q-57 0 -89.5 41t-32.5 110v397h151v-381q0 -51 29 -51t64 64v368h151z" />
    <glyph glyph-name="uni0266" unicode="&#x266;" horiz-adv-x="480" 
d="M406.5 505.5q32.5 -42.5 32.5 -118.5v-387h-151v371q0 34 -7.5 48t-21.5 14q-29 0 -63 -64v-369h-151v590q0 73 46.5 120.5t132.5 47.5q68 0 125 -33l-42 -95q-31 16 -61 16q-26 0 -38 -14.5t-12 -45.5v-111q25 38 54 55.5t67 17.5q57 0 89.5 -42.5z" />
    <glyph glyph-name="uni0267" unicode="&#x267;" horiz-adv-x="480" 
d="M406.5 505.5q32.5 -42.5 32.5 -118.5v-440q0 -81 -47.5 -124.5t-124.5 -43.5q-76 0 -128 42l52 85q16 -9 28 -12.5t27 -3.5q42 0 42 49v432q0 34 -7.5 48t-21.5 14q-29 0 -63 -64v-369h-151v590q0 73 46.5 120.5t132.5 47.5q68 0 125 -33l-42 -95q-31 16 -61 16
q-26 0 -38 -14.5t-12 -45.5v-111q25 38 54 55.5t67 17.5q57 0 89.5 -42.5z" />
    <glyph glyph-name="uni0268" unicode="&#x268;" horiz-adv-x="281" 
d="M78 658.5q-24 24.5 -24 61.5q0 38 24 62.5t62 24.5q39 0 62.5 -24.5t23.5 -62.5q0 -37 -24 -61.5t-62 -24.5t-62 24.5zM277 335v-106h-60v-229h-151v229h-62v106h62v196h151v-196h60z" />
    <glyph glyph-name="uni0269" unicode="&#x269;" horiz-adv-x="254" 
d="M75 20q-35 37 -35 101v410h151v-404q0 -24 21 -24q6 0 18 3l27 -104q-16 -8 -38 -13.5t-46 -5.5q-63 0 -98 37z" />
    <glyph glyph-name="uni026A" unicode="&#x26a;" horiz-adv-x="280" 
d="M269 425h-54v-317h54v-108h-258v108h53v317h-53v106h258v-106z" />
    <glyph glyph-name="uni026B" unicode="&#x26b;" horiz-adv-x="391" 
d="M353.5 315q-31.5 -32 -76.5 -33v-154q0 -25 21 -25q6 0 18 3l27 -104q-16 -8 -38 -13.5t-46 -5.5q-63 0 -98 37t-35 101v217q-17 -1 -28 -12t-29 -38l-74 40q24 52 55 84t76 35v295l151 16v-367q17 1 29 12t28 35l76 -39q-25 -52 -56.5 -84z" />
    <glyph glyph-name="uni026C" unicode="&#x26c;" horiz-adv-x="370" 
d="M325 106l27 -104q-16 -8 -38 -13.5t-46 -5.5q-63 0 -98 37t-35 101v122q-72 2 -106.5 34.5t-34.5 89.5q0 52 30 81t79 29q19 0 32 -3v268l151 16v-431q24 2 52 9l15 -76q-30 -11 -67 -14v-118q0 -25 21 -25q6 0 18 3zM135 326v73q-6 3 -18 3q-28 0 -28 -34q0 -42 46 -42z
" />
    <glyph glyph-name="uni026D" unicode="&#x26d;" horiz-adv-x="240" 
d="M345 -179q-52 -42 -128 -42q-77 0 -124.5 43.5t-47.5 124.5v795l151 16v-819q0 -49 42 -49q15 0 27 3.5t28 12.5z" />
    <glyph glyph-name="uni026E" unicode="&#x26e;" horiz-adv-x="596" 
d="M586 9q0 -66 -27.5 -118.5t-79.5 -82t-123 -29.5q-115 0 -182 78l75 83q24 -24 46.5 -34.5t50.5 -10.5q85 0 85 120q0 57 -24.5 82t-75.5 25h-67v89l135 207h-208v-290q0 -25 21 -25q6 0 18 3l27 -104q-16 -8 -38 -13.5t-46 -5.5q-63 0 -98 37t-35 101v621l151 16v-227
h366v-104l-145 -216q174 -17 174 -202z" />
    <glyph glyph-name="uni026F" unicode="&#x26f;" horiz-adv-x="698" 
d="M653 531v-531h-131l-9 64q-51 -81 -125 -81q-36 0 -62.5 22t-40.5 63q-52 -85 -128 -85q-53 0 -84.5 41t-31.5 110v397h148v-382q0 -27 7 -39.5t21 -12.5q28 0 57 59v375h146v-382q0 -52 28 -52q29 0 58 59v375h147z" />
    <glyph glyph-name="uni0270" unicode="&#x270;" horiz-adv-x="698" 
d="M653 531v-752l-151 16v253q-48 -65 -114 -65q-36 0 -62.5 22t-40.5 63q-52 -85 -128 -85q-53 0 -84.5 41t-31.5 110v397h148v-382q0 -27 7 -39.5t21 -12.5q28 0 57 59v375h146v-382q0 -52 28 -52q29 0 58 59v375h147z" />
    <glyph glyph-name="uni0271" unicode="&#x271;" horiz-adv-x="698" 
d="M625.5 507q31.5 -41 31.5 -110v-444q0 -85 -47 -129.5t-124 -44.5q-75 0 -126 42l52 85q28 -16 54 -16q43 0 43 49v443q0 27 -7 39.5t-21 12.5q-28 0 -57 -59v-375h-146v382q0 52 -28 52q-29 0 -58 -59v-375h-147v531h131l9 -64q51 81 125 81q36 0 62.5 -22t40.5 -63
q52 85 128 85q53 0 84.5 -41z" />
    <glyph glyph-name="uni0272" unicode="&#x272;" horiz-adv-x="480" 
d="M406.5 507q32.5 -41 32.5 -110v-397h-151v381q0 52 -29 52t-63 -64v-369h-1v-53q0 -81 -47.5 -124.5t-124.5 -43.5q-76 0 -128 42l52 85q16 -9 28 -12.5t27 -3.5q42 0 42 49v62h1v530h131l11 -63q26 40 57 60t73 20q57 0 89.5 -41z" />
    <glyph glyph-name="uni0273" unicode="&#x273;" horiz-adv-x="479" 
d="M588 -179q-52 -42 -128 -42q-77 0 -124.5 43.5t-47.5 124.5v434q0 52 -29 52t-63 -64v-369h-151v531h131l11 -63q26 40 57 60t73 20q57 0 89.5 -41t32.5 -110v-458q0 -49 42 -49q15 0 27 3.5t28 12.5z" />
    <glyph glyph-name="uni0274" unicode="&#x274;" horiz-adv-x="489" 
d="M444 0h-179l-112 399q9 -61 13.5 -115t4.5 -126v-158h-126v531h177l113 -398q-9 64 -13 110t-4 111v177h126v-531z" />
    <glyph glyph-name="uni0275" unicode="&#x275;" horiz-adv-x="494" 
d="M409.5 477q58.5 -71 58.5 -212q0 -135 -58.5 -208.5t-162.5 -73.5t-162.5 71.5t-58.5 211.5q0 137 58.5 209.5t162.5 72.5t162.5 -71zM196 410.5q-18 -28.5 -22 -97.5h146q-4 69 -22 97.5t-51 28.5t-51 -28.5zM299.5 122q17.5 31 20.5 105h-146q3 -74 20.5 -105t52.5 -31
t52.5 31z" />
    <glyph glyph-name="uni0276" unicode="&#x276;" horiz-adv-x="641" 
d="M418 104h205v-104h-293q-43 -16 -85 -16q-102 0 -160.5 71.5t-58.5 210.5q0 136 58.5 209t161.5 73q47 0 83 -17h298l-15 -104h-193q29 -44 38 -108h135v-100h-134q-9 -70 -40 -115zM297 132.5q15 37.5 15 133.5q0 94 -15.5 132t-49.5 38q-35 0 -50.5 -37.5t-15.5 -132.5
q0 -97 15.5 -134t50.5 -37t50 37.5z" />
    <glyph glyph-name="uni0277" unicode="&#x277;" horiz-adv-x="643" 
d="M538.5 471q78.5 -77 78.5 -229q0 -132 -44 -195.5t-122 -63.5q-111 0 -130 112q-12 -58 -43 -85t-84 -27q-80 0 -124 63t-44 196q0 152 79 229t218 77q137 0 215.5 -77zM450.5 106.5q9.5 11.5 15 45t5.5 97.5q0 98 -34.5 145.5t-113.5 47.5q-81 0 -115.5 -47.5
t-34.5 -145.5q0 -88 10.5 -121t34.5 -33q18 0 27 15t9 57v120l135 18v-138q0 -39 9 -55.5t27 -16.5q16 0 25.5 11.5z" />
    <glyph glyph-name="uni0278" unicode="&#x278;" horiz-adv-x="566" 
d="M495 81q-51 -64 -136 -75l-1 -211l-151 -16l1 227q-83 11 -135 74t-52 184q0 122 50.5 186t135.5 75v217l151 15v-232q84 -11 136 -74t52 -183q0 -123 -51 -187zM393 144q15 37 15 124q0 86 -15.5 121t-48.5 41v-330q34 7 49 44zM175 144.5q16 -37.5 48 -44.5v330
q-35 -6 -49.5 -41.5t-14.5 -124.5q0 -82 16 -119.5z" />
    <glyph glyph-name="uni0279" unicode="&#x279;" horiz-adv-x="338" 
d="M293 531v-531h-131l-11 87q-38 -102 -115 -102q-21 0 -42 8l25 145q18 -6 37 -6q37 0 55.5 28.5t30.5 85.5v285h151z" />
    <glyph glyph-name="uni027A" unicode="&#x27a;" horiz-adv-x="338" 
d="M293 531v-531h-131l-11 87q-38 -102 -115 -102q-21 0 -42 8l25 145q18 -6 37 -6q37 0 55.5 28.5t30.5 85.5v284h-1v228l151 -16v-211h1z" />
    <glyph glyph-name="uni027B" unicode="&#x27b;" horiz-adv-x="338" 
d="M443 -179q-52 -42 -128 -42q-77 0 -124.5 43.5t-47.5 124.5v53h-1v66q-37 -81 -106 -81q-21 0 -42 8l25 145q18 -6 37 -6q37 0 55.5 28.5t30.5 85.5v285h151v-530h1v-62q0 -49 42 -49q15 0 27 3.5t28 12.5z" />
    <glyph glyph-name="uni027C" unicode="&#x27c;" horiz-adv-x="338" 
d="M344 538l-25 -145q-18 6 -37 6q-37 0 -55.5 -28.5t-30.5 -85.5v-490l-151 -16v752h131l11 -87q38 102 115 102q21 0 42 -8z" />
    <glyph glyph-name="uni027D" unicode="&#x27d;" horiz-adv-x="338" 
d="M345 -179q-52 -42 -128 -42q-77 0 -124.5 43.5t-47.5 124.5v584h131l11 -87q38 102 115 102q21 0 42 -8l-25 -145q-18 6 -37 6q-37 0 -55.5 -28.5t-30.5 -85.5v-346q0 -49 42 -49q15 0 27 3.5t28 12.5z" />
    <glyph glyph-name="uni027E" unicode="&#x27e;" horiz-adv-x="334" 
d="M342 506l-52 -85q-16 9 -28 12.5t-27 3.5q-42 0 -42 -49v-62h-1v-326h-151v327h1v53q0 81 47.5 124.5t124.5 43.5q76 0 128 -42z" />
    <glyph glyph-name="uni027F" unicode="&#x27f;" horiz-adv-x="334" 
d="M293 327v-327h-151v326h-1v62q0 49 -42 49q-15 0 -27 -3.5t-28 -12.5l-52 85q53 42 128 42q77 0 124.5 -43.5t47.5 -124.5v-53h1z" />
    <glyph glyph-name="uni0280" unicode="&#x280;" horiz-adv-x="448" 
d="M219 185h-31v-185h-143v531h165q103 0 156 -44t53 -130q0 -105 -76 -147l104 -210h-150zM188 278h25q29 0 42.5 18t13.5 63q0 42 -14 58.5t-46 16.5h-21v-156z" />
    <glyph glyph-name="uni0281" unicode="&#x281;" horiz-adv-x="448" 
d="M419 175q0 -86 -53 -130.5t-156 -44.5h-165v531h143v-185h31l78 185h150l-104 -210q76 -41 76 -146zM255 114.5q14 16.5 14 58.5q0 45 -13.5 63t-42.5 18h-25v-156h21q32 0 46 16.5z" />
    <glyph glyph-name="uni0282" unicode="&#x282;" horiz-adv-x="402" 
d="M128 -3v-52q0 -30 13 -43t39 -13q37 0 70 20l50 -88q-54 -41 -134 -41q-78 0 -122.5 44t-44.5 128v108l-1 1l63 70q65 -41 118 -41q27 0 42.5 14t15.5 39q0 28 -17.5 44.5t-71.5 38.5q-68 27 -98 64t-30 94q0 72 50 118t137 46q49 0 92 -17t75 -48l-55 -81q-55 38 -99 38
q-24 0 -37.5 -12t-13.5 -33q0 -23 17 -37.5t73 -37.5q67 -28 99 -65t32 -99q0 -52 -25.5 -91.5t-69 -60.5t-96.5 -21q-41 0 -71 14z" />
    <glyph glyph-name="uni0283" unicode="&#x283;" horiz-adv-x="238" 
d="M329 721l-42 -91q-16 8 -27.5 12t-24.5 4q-21 0 -30 -12t-9 -40v-594h-1v-53q0 -81 -47.5 -124.5t-124.5 -43.5q-76 0 -128 42l52 85q16 -9 28 -12.5t27 -3.5q42 0 42 49v62h1v589q0 79 42.5 123.5t122.5 44.5q63 0 119 -37z" />
    <glyph glyph-name="uni0284" unicode="&#x284;" horiz-adv-x="281" 
d="M278 106v-106h-63q-9 -86 -56.5 -135t-131.5 -85l-52 109q40 23 61 46.5t27 64.5h-57v106h60v484q0 79 42.5 123.5t122.5 44.5q63 0 119 -37l-42 -91q-16 8 -27.5 12t-24.5 4q-21 0 -30 -12t-9 -40v-488h61z" />
    <glyph glyph-name="uni0285" unicode="&#x285;" horiz-adv-x="411" 
d="M422 26q-52 -42 -128 -42q-77 0 -124.5 43.5t-47.5 124.5v53h-1v179q0 28 -9 40t-30 12q-13 0 -24.5 -4t-27.5 -12l-42 91q56 37 119 37q80 0 122.5 -44.5t42.5 -123.5v-174h1v-62q0 -49 42 -49q15 0 27 3.5t28 12.5z" />
    <glyph glyph-name="uni0286" unicode="&#x286;" horiz-adv-x="292" 
d="M327 -45l-29 -60q-26 14 -55 24q-27 -140 -175 -140q-64 0 -97.5 31t-33.5 86q0 60 35 91.5t96 31.5q14 0 30 -2v573q0 79 42.5 123.5t122.5 44.5q63 0 119 -37l-42 -91q-16 8 -27.5 12t-24.5 4q-21 0 -30 -12t-9 -40v-603q42 -14 78 -36zM87.5 -124.5
q10.5 16.5 10.5 53.5v18q-9 2 -31 2q-46 0 -46 -48q0 -42 35 -42q21 0 31.5 16.5z" />
    <glyph glyph-name="uni0287" unicode="&#x287;" horiz-adv-x="325" 
d="M324 0h-55v-116l-151 -17v133h-99l16 106h83v279q0 43 -36 43q-20 0 -43 -14l-50 92q25 21 58 31.5t67 10.5q77 0 116 -44t39 -118v-280h55v-106z" />
    <glyph glyph-name="uni0288" unicode="&#x288;" horiz-adv-x="387" 
d="M356 -179q-52 -42 -128 -42q-77 0 -124.5 43.5t-47.5 124.5v478h-55v106h55v116l151 17v-133h99l-16 -106h-83v-486q0 -49 42 -49q15 0 27 3.5t28 12.5z" />
    <glyph glyph-name="uni0289" unicode="&#x289;" horiz-adv-x="511" 
d="M509 299h-59v-299h-132l-6 61q-48 -78 -127 -78q-58 0 -91.5 42t-33.5 111v163h-59v95h59v137h151v-137h88v137h151v-137h59v-95zM299 299h-88v-157q0 -23 8 -35t23 -12q32 0 57 56v148z" />
    <glyph glyph-name="uni028A" unicode="&#x28a;" horiz-adv-x="493" 
d="M84 47.5q-58 64.5 -58 177.5q0 69 24.5 118t70.5 86h-82v102h180v-97q-19 -34 -29 -79t-10 -121q0 -78 16 -110.5t51 -32.5t51 32t16 111q0 77 -9.5 122t-30.5 78v97h180v-102h-81q46 -35 70 -85t24 -119q0 -113 -57.5 -177.5t-162.5 -64.5t-163 64.5z" />
    <glyph glyph-name="uni028B" unicode="&#x28b;" horiz-adv-x="479" 
d="M93.5 28.5q-52.5 44.5 -52.5 125.5v377h151v-369q0 -36 11 -51.5t33 -15.5q29 0 44.5 28t15.5 94v187q0 16 -5 23t-16 7q-6 0 -14 -2l-20 101q32 15 76 15q63 0 96.5 -37t33.5 -107v-176q0 -123 -62 -183.5t-158 -60.5q-81 0 -133.5 44.5z" />
    <glyph glyph-name="uni028C" unicode="&#x28c;" horiz-adv-x="436" 
d="M-5 0l132 531h178l136 -531h-154l-71 416l-75 -416h-146z" />
    <glyph glyph-name="uni028D" unicode="&#x28d;" horiz-adv-x="639" 
d="M6 0l88 531h176l50 -395l49 395h175l89 -531h-145l-40 417l-59 -417h-143l-56 417l-43 -417h-141z" />
    <glyph glyph-name="uni028E" unicode="&#x28e;" horiz-adv-x="442" 
d="M132 532q51 205 262 221l16 -104q-63 -11 -95.5 -37t-50.5 -81h56l128 -531h-153l-70 435l-82 -435h-148z" />
    <glyph glyph-name="uni028F" unicode="&#x28f;" horiz-adv-x="421" 
d="M435 531l-149 -338v-193h-151v192l-149 339h154l72 -245l72 245h151z" />
    <glyph glyph-name="uni0290" unicode="&#x290;" horiz-adv-x="381" 
d="M523 -179q-55 -42 -131 -42q-74 0 -121 42t-47 119v60h-215v107l198 310h-181v114h345v-107l-198 -309h195v-176q0 -49 45 -49q18 0 30 3.5t28 12.5z" />
    <glyph glyph-name="uni0291" unicode="&#x291;" horiz-adv-x="480" 
d="M462 230.5q31 -30.5 31 -84.5q0 -147 -183 -146l1 6l-1 -2q-4 -27 -4 -90v-41h-82q0 64 5 127h-220v107l198 310h-181v114h345v-101l-198 -315h72q19 77 53 111.5t84 34.5q49 0 80 -30.5zM380 123q13 8 13 30q0 28 -23 28q-33 0 -45 -66h12q30 0 43 8z" />
    <glyph glyph-name="uni0292" unicode="&#x292;" horiz-adv-x="426" 
d="M415 9q0 -66 -27 -118.5t-79 -82t-123 -29.5q-130 0 -202 101l80 74q31 -32 56 -45.5t56 -13.5q85 0 85 120q0 57 -24.5 82t-75.5 25h-73v89l140 207h-208v113h366v-104l-150 -216q179 -15 179 -202z" />
    <glyph glyph-name="uni0293" unicode="&#x293;" horiz-adv-x="426" 
d="M379 -122.5q-36 -56.5 -106 -81.5l23 -56l-69 -29l-26 70q-26 -2 -40 -2q-82 0 -130.5 39.5t-48.5 112.5q0 56 30 88t76 32q47 0 76.5 -30t58.5 -108q38 29 38 107q0 58 -23.5 83t-70.5 25h-79v88l140 202h-208v113h366v-104l-149 -210q178 -12 178 -205
q0 -78 -36 -134.5zM97.5 -95q16.5 -10 58.5 -10h1q-17 45 -28 60.5t-25 15.5q-23 0 -23 -33q0 -23 16.5 -33z" />
    <glyph glyph-name="uni0294" unicode="&#x294;" horiz-adv-x="404" 
d="M105 354l30 12q36 16 57.5 33.5t32 46t10.5 74.5q0 126 -79 126q-27 0 -50 -12.5t-49 -38.5l-73 72q40 46 87.5 68.5t105.5 22.5q97 0 155 -61t58 -174q0 -89 -30.5 -136t-89.5 -75l-14 -6v-306h-151v354z" />
    <glyph glyph-name="uni0295" unicode="&#x295;" horiz-adv-x="404" 
d="M147 0v306l-13 6q-59 28 -89.5 75t-30.5 136q0 113 58.5 174t156.5 61q57 0 103.5 -22.5t87.5 -68.5l-73 -72q-26 26 -49 38.5t-50 12.5q-38 0 -59 -30.5t-21 -95.5q0 -46 11 -74.5t32 -46t58 -33.5l29 -12v-354h-151z" />
    <glyph glyph-name="uni0296" unicode="&#x296;" horiz-adv-x="428" 
d="M260 758v-322l21 -9q59 -22 90 -69.5t31 -136.5q0 -115 -58.5 -176t-156.5 -61q-57 0 -103.5 22.5t-87.5 68.5l74 72q26 -26 49 -38.5t50 -12.5q79 0 79 126q0 69 -23 103.5t-77 50.5l-39 12v354z" />
    <glyph glyph-name="uni0297" unicode="&#x297;" horiz-adv-x="418" 
d="M352 532q37 -16 69 -49l-62 -86q-42 34 -81 34q-30 0 -48.5 -24t-28.5 -83.5t-10 -163.5q0 -103 10 -159.5t28 -78.5t47 -22q20 0 37.5 7t38.5 23l66 -88q-65 -62 -151 -62q-233 0 -233 380q0 192 61 290t174 98q46 0 83 -16z" />
    <glyph glyph-name="uni0298" unicode="&#x298;" horiz-adv-x="671" 
d="M498.5 667.5q69.5 -42.5 107.5 -124t38 -196.5q0 -111 -38 -193t-108 -126t-162 -44q-93 0 -162.5 42.5t-107.5 124t-38 196.5q0 111 38 193t108 126t162 44q93 0 162.5 -42.5zM216.5 544q-41.5 -61 -41.5 -197t41.5 -197.5t120.5 -61.5t119.5 61t40.5 198q0 134 -43 196
t-117 62q-79 0 -120.5 -61zM392 393.5q21 -21.5 21 -54.5t-21 -54t-54 -21t-54.5 21.5t-21.5 53.5q0 33 21 54.5t55 21.5q33 0 54 -21.5z" />
    <glyph glyph-name="uni0299" unicode="&#x299;" horiz-adv-x="466" 
d="M410 250.5q30 -33.5 30 -89.5q0 -81 -54.5 -121t-151.5 -40h-189v528q109 20 184 20q89 0 140.5 -39t51.5 -106q0 -87 -101 -112q60 -7 90 -40.5zM196 450v-128h31q24 0 37 13.5t13 50.5q0 39 -11.5 52.5t-38.5 13.5q-9 0 -31 -2zM274.5 113q13.5 15 13.5 58
q0 41 -13.5 55.5t-42.5 14.5h-36v-143h37q28 0 41.5 15z" />
    <glyph glyph-name="uni029A" unicode="&#x29a;" horiz-adv-x="487" 
d="M83 29q-57 45 -57 124q0 58 30 89t94 41q-103 28 -103 117q0 65 51.5 106.5t134.5 41.5q109 0 168.5 -73t59.5 -209q0 -138 -58 -210t-166 -72q-97 0 -154 45zM283 108q16 16 22.5 53t6.5 105q0 98 -16.5 137t-54.5 39q-22 0 -34 -15t-12 -43q0 -62 48 -62h11l8 -98h-24
q-31 0 -46 -14t-15 -48q0 -37 14.5 -53.5t45.5 -16.5q30 0 46 16z" />
    <glyph glyph-name="uni029B" unicode="&#x29b;" horiz-adv-x="475" 
d="M570 721l-42 -91q-29 16 -52 16q-20 0 -29 -12t-9 -40v-118l-64 -73q-54 36 -103 36q-47 0 -68.5 -37.5t-21.5 -133.5q0 -72 8.5 -110t23.5 -51.5t39 -13.5q27 0 55 13v103h-50l-15 101h202v-263q-88 -62 -195 -62q-115 0 -169 66.5t-54 216.5q0 91 29 154t78.5 94.5
t111.5 31.5q36 0 63 -11v72q0 70 38.5 109.5t104.5 39.5q64 0 119 -37z" />
    <glyph glyph-name="uni029C" unicode="&#x29c;" horiz-adv-x="487" 
d="M292 0v214h-96v-214h-151v531h151v-206h96v206h151v-531h-151z" />
    <glyph glyph-name="uni029D" unicode="&#x29d;" horiz-adv-x="294" 
d="M298 -105q-26 14 -55 24q-27 -140 -175 -140q-64 0 -97.5 31t-33.5 86q0 60 35 91.5t96 31.5q14 0 30 -2v514h151v-539q39 -13 78 -37zM87.5 -124.5q10.5 16.5 10.5 53.5v18q-9 2 -31 2q-46 0 -46 -48q0 -42 35 -42q21 0 31.5 16.5zM235.5 782.5q23.5 -24.5 23.5 -62.5
q0 -37 -24 -61.5t-62 -24.5t-62 24.5t-24 61.5q0 38 24 62.5t62 24.5q39 0 62.5 -24.5z" />
    <glyph glyph-name="uni029E" unicode="&#x29e;" horiz-adv-x="474" 
d="M1 0l126 234l-134 297h159l122 -290l-129 -241h-144zM278 -205v736h151v-752z" />
    <glyph glyph-name="uni029F" unicode="&#x29f;" horiz-adv-x="377" 
d="M196 531v-414h177l-15 -117h-313v531h151z" />
    <glyph glyph-name="uni02A0" unicode="&#x2a0;" horiz-adv-x="500" 
d="M589 721l-42 -91q-16 8 -27.5 12t-24.5 4q-21 0 -30 -12t-9 -40v-815l-151 16v251q-41 -63 -112 -63q-80 0 -123.5 73.5t-43.5 209.5q0 86 22.5 150t63.5 98t95 34q57 0 98 -46v88q0 79 42.5 123.5t122.5 44.5q63 0 119 -37zM305 148v245q-14 22 -27.5 33t-29.5 11
q-30 0 -48.5 -40t-18.5 -131q0 -99 16 -135.5t45 -36.5q37 0 63 54z" />
    <glyph glyph-name="uni02A1" unicode="&#x2a1;" horiz-adv-x="404" 
d="M256 306v-85h77v-89h-77v-132h-151v132h-54v89h54v133l30 12q36 16 57.5 33.5t32 46t10.5 74.5q0 126 -79 126q-27 0 -50 -12.5t-49 -38.5l-73 72q40 46 87.5 68.5t105.5 22.5q97 0 155 -61t58 -174q0 -89 -30.5 -136t-89.5 -75z" />
    <glyph glyph-name="uni02A2" unicode="&#x2a2;" horiz-adv-x="404" 
d="M298 221h56v-89h-56v-132h-151v132h-74v89h74v85l-13 6q-59 28 -89.5 75t-30.5 136q0 113 58.5 174t156.5 61q57 0 103.5 -22.5t87.5 -68.5l-73 -72q-26 26 -49 38.5t-50 12.5q-38 0 -59 -30.5t-21 -95.5q0 -46 11 -74.5t32 -46t58 -33.5l29 -12v-133z" />
    <glyph glyph-name="uni02A3" unicode="&#x2a3;" horiz-adv-x="826" 
d="M816 115l-13 -115h-482l-5 56q-23 -34 -52 -53.5t-70 -19.5q-82 0 -125 73.5t-43 209.5q0 85 23 149t64 98.5t93 34.5q60 0 99 -49v259l151 -16v-211h356v-107l-198 -309h202zM305 146v248q-13 22 -26 32.5t-30 10.5q-68 0 -68 -171q0 -97 16.5 -134.5t45.5 -37.5
q35 0 62 52zM456 417v-301l191 301h-191z" />
    <glyph glyph-name="uni02A4" unicode="&#x2a4;" horiz-adv-x="860" 
d="M850 9q0 -66 -27 -118.5t-79 -82t-123 -29.5q-130 0 -202 101l80 74q31 -32 56 -45.5t56 -13.5q85 0 85 120q0 57 -24.5 82t-75.5 25h-73v89l140 207h-207v-418h-135l-5 56q-23 -34 -52 -53.5t-70 -19.5q-82 0 -125 73.5t-43 209.5q0 85 23 149t64 98.5t93 34.5
q60 0 99 -49v259l151 -16v-211h365v-104l-150 -216q179 -15 179 -202zM305 146v248q-13 22 -26 32.5t-30 10.5q-68 0 -68 -171q0 -97 16.5 -134.5t45.5 -37.5q35 0 62 52z" />
    <glyph glyph-name="uni02A5" unicode="&#x2a5;" horiz-adv-x="919" 
d="M901.5 230.5q30.5 -30.5 30.5 -84.5q0 -73 -44.5 -110t-137.5 -36l1 6v-2q-5 -36 -5 -95v-36h-82q0 79 5 127h-348l-5 56q-23 -34 -52 -53.5t-70 -19.5q-82 0 -125 73.5t-43 209.5q0 85 23 149t64 98.5t93 34.5q60 0 99 -49v259l151 -16v-211h355v-101l-198 -315h71
q20 77 54 111.5t84 34.5q49 0 79.5 -30.5zM305 146v248q-13 22 -26 32.5t-30 10.5q-68 0 -68 -171q0 -97 16.5 -134.5t45.5 -37.5q35 0 62 52zM456 417v-299l190 299h-190zM819.5 123q13.5 8 13.5 30q0 28 -23 28q-33 0 -45 -66h11q30 0 43.5 8z" />
    <glyph glyph-name="uni02A6" unicode="&#x2a6;" horiz-adv-x="631" 
d="M588.5 257.5q29.5 -37.5 29.5 -94.5q0 -88 -69 -133.5t-204 -45.5q-151 0 -220 55.5t-69 165.5v220h-55v106h55v115l151 18v-133h75l-15 -106h-60v-217q0 -58 34 -86.5t104 -28.5q66 0 96 15t30 47q0 25 -15 40t-60 35q-61 26 -88 60.5t-27 93.5q0 72 45.5 117.5
t125.5 45.5q87 0 152 -62l-52 -78q-46 33 -86 33q-22 0 -35 -12.5t-13 -33.5q0 -24 15.5 -39.5t65.5 -34.5q60 -25 89.5 -62.5z" />
    <glyph glyph-name="uni02A7" unicode="&#x2a7;" horiz-adv-x="499" 
d="M590 721l-42 -91q-16 8 -27.5 12t-24.5 4q-21 0 -30 -12t-9 -40v-594h-1v-53q0 -81 -47.5 -124.5t-124.5 -43.5q-75 0 -128 42l52 85q16 -9 28 -12.5t27 -3.5q42 0 42 49v56q-39 -12 -83 -12q-85 0 -125.5 46.5t-40.5 130.5v265h-55v106h55v116l151 17v-133h99v59
q0 79 42.5 123.5t122.5 44.5q63 0 119 -37zM218 116q11 -13 41 -13q27 0 47 4v318h-99v-264q0 -32 11 -45z" />
    <glyph glyph-name="uni02A8" unicode="&#x2a8;" horiz-adv-x="690" 
d="M660.5 220q30.5 -31 30.5 -86q0 -73 -45.5 -111.5t-115.5 -38.5q-47 0 -87.5 15.5t-71.5 45.5q-51 -34 -89 -47.5t-78 -13.5q-73 0 -110.5 43.5t-37.5 119.5v278h-55v106h55v115l151 18v-133h99l-16 -106h-83v-271q0 -50 43 -50q37 0 70 15q-28 62 -28 142
q0 89 27.5 153.5t78.5 99t120 34.5q90 0 153 -65l-62 -83q-40 33 -79 33q-41 0 -60.5 -37.5t-19.5 -133.5q0 -39 5 -76q32 35 62.5 50t65.5 15q47 0 77.5 -31zM591 137q0 33 -22 33q-16 0 -35 -12.5t-48 -43.5q21 -21 56 -21q49 0 49 44z" />
    <glyph glyph-name="uni02A9" unicode="&#x2a9;" horiz-adv-x="739" 
d="M665.5 507q32.5 -41 32.5 -110v-450q0 -81 -47.5 -124.5t-124.5 -43.5q-75 0 -128 42l52 85q16 -9 28 -12.5t27 -3.5q42 0 42 49v442q0 52 -29 52t-63 -64v-369h-151v425h-89v-425h-151v425h-60v106h60v54q0 79 46 126t132 47q68 0 127 -32l-40 -96q-34 17 -64 17
q-50 0 -50 -56v-60h220l11 -63q26 40 57 60t73 20q57 0 89.5 -41z" />
    <glyph glyph-name="uni02AA" unicode="&#x2aa;" horiz-adv-x="580" 
d="M97.5 38.5q-57.5 54.5 -57.5 152.5v551l151 16v-567q0 -51 27.5 -74.5t91.5 -23.5q60 0 88.5 14.5t28.5 45.5q0 18 -5.5 29t-22.5 22.5t-51 25.5q-60 25 -87.5 60.5t-27.5 94.5q0 71 45 116.5t123 45.5q43 0 82 -16t70 -45l-50 -81q-47 34 -89 34q-22 0 -33.5 -12
t-11.5 -34q0 -17 6 -27.5t22.5 -20t51.5 -23.5q61 -25 89.5 -62.5t28.5 -94.5q0 -89 -67.5 -135t-197.5 -46q-147 0 -204.5 54.5z" />
    <glyph glyph-name="uni02AB" unicode="&#x2ab;" horiz-adv-x="605" 
d="M582 0h-329q-36 -17 -80 -17q-63 0 -98 37t-35 101v621l151 16v-630q0 -25 21 -25q5 0 17 3l198 311h-181v114h345v-107l-198 -309h202z" />
    <glyph glyph-name="uni02AC" unicode="&#x2ac;" horiz-adv-x="384" 
d="M359 667l-48 -267h-89l-27 195l-29 -195h-88l-53 267h65l34 -207l31 207h82l30 -208l30 208h62zM359 267l-48 -267h-89l-27 195l-29 -195h-88l-53 267h65l34 -207l31 207h82l30 -208l30 208h62z" />
    <glyph glyph-name="uni02AD" unicode="&#x2ad;" horiz-adv-x="318" 
d="M30 399v163h258v-163h-87v85h-84v-85h-87zM30 -2v163h258v-163h-87v85h-84v-85h-87z" />
    <glyph glyph-name="uni02AE" unicode="&#x2ae;" horiz-adv-x="581" 
d="M537 531v-752l-151 16v262q-25 -38 -54.5 -56t-67.5 -18q-57 0 -89.5 41t-32.5 110v255q0 49 -42 49q-15 0 -27 -3.5t-28 -12.5l-52 85q52 42 128 42q77 0 124.5 -43.5t47.5 -124.5v-231q0 -51 29 -51t64 64v368h151z" />
    <glyph glyph-name="uni02AF" unicode="&#x2af;" horiz-adv-x="581" 
d="M686 -179q-52 -42 -128 -42q-77 0 -124.5 43.5t-47.5 124.5v110q-25 -38 -54.5 -56t-67.5 -18q-57 0 -89.5 41t-32.5 110v255q0 49 -42 49q-15 0 -27 -3.5t-28 -12.5l-52 85q52 42 128 42q77 0 124.5 -43.5t47.5 -124.5v-231q0 -51 29 -51t64 64v368h151v-592
q0 -49 42 -49q15 0 27 3.5t28 12.5z" />
    <glyph glyph-name="uni02B0" unicode="&#x2b0;" horiz-adv-x="257" 
d="M213 652.5q19 -20.5 19 -59.5v-193h-69v176q0 20 -6.5 28t-18.5 8q-21 0 -44 -29v-183h-69v372l69 9v-142q27 34 67 34q33 0 52 -20.5z" />
    <glyph glyph-name="uni02B1" unicode="&#x2b1;" horiz-adv-x="257" 
d="M213 652.5q19 -20.5 19 -59.5v-193h-69v176q0 20 -6.5 28t-18.5 8q-23 0 -44 -29v-183h-69v293q0 38 23 62t65 24q15 0 33.5 -4.5t32.5 -11.5l-19 -53q-21 8 -41 8q-13 0 -19 -6.5t-6 -23.5v-49q27 34 67 34q33 0 52 -20.5z" />
    <glyph glyph-name="uni02B2" unicode="&#x2b2;" horiz-adv-x="178" 
d="M140.5 793q12.5 -13 12.5 -33t-12.5 -33t-33.5 -13q-20 0 -33 13t-13 33t13 33t33 13q21 0 33.5 -13zM142 422q0 -58 -23 -85t-73 -46l-21 54q26 14 37 29t11 47v244h69v-243z" />
    <glyph glyph-name="uni02B4" unicode="&#x2b4;" horiz-adv-x="205" 
d="M180 666v-266h-52l-11 49q-19 -56 -65 -56q-17 0 -27 5l11 74q9 -3 22 -3q22 0 33.5 19t19.5 56v122h69z" />
    <glyph glyph-name="uni02B7" unicode="&#x2b7;" horiz-adv-x="384" 
d="M359 667l-48 -267h-89l-27 195l-29 -195h-88l-53 267h65l34 -207l31 207h82l30 -208l30 208h62z" />
    <glyph glyph-name="uni02B8" unicode="&#x2b8;" horiz-adv-x="297" 
d="M185 396q-17 -52 -46 -78.5t-84 -33.5l-8 52q34 9 49 22t26 42h-17l-80 267h68l54 -217l58 217h67z" />
    <glyph glyph-name="uni02B9" unicode="&#x2b9;" horiz-adv-x="280" 
d="M42 416l63 278h133l-99 -278h-97z" />
    <glyph glyph-name="uni02BA" unicode="&#x2ba;" horiz-adv-x="473" 
d="M42 416l63 278h133l-99 -278h-97zM235 416l63 278h133l-99 -278h-97z" />
    <glyph glyph-name="uni02BB" unicode="&#x2bb;" horiz-adv-x="214" 
d="M50 609q-20 22 -20 56q0 18 5.5 36.5t20.5 54.5l52 131h72l-34 -155q34 -26 34 -67q0 -34 -21 -56t-55 -22t-54 22z" />
    <glyph glyph-name="uni02BC" unicode="&#x2bc;" horiz-adv-x="219" 
d="M163 742q20 -22 20 -56q0 -18 -5.5 -36.5t-20.5 -54.5l-52 -131h-72l34 155q-34 26 -34 67q0 34 21 56t55 22t54 -22z" />
    <glyph glyph-name="uni02BF" unicode="&#x2bf;" horiz-adv-x="182" 
d="M152 685q-15 0 -24.5 13t-9.5 38q0 50 34 50v78q-56 0 -89 -36t-33 -92q0 -58 32.5 -94t89.5 -36v79z" />
    <glyph glyph-name="uni02C0" unicode="&#x2c0;" horiz-adv-x="261" 
d="M76 704q32 3 45 11t13 28q0 32 -31 32q-14 0 -24.5 -3t-25.5 -9l-23 63q40 25 94 25q51 0 79 -27.5t28 -72.5q0 -39 -18 -62t-52 -30v-53h-85v98z" />
    <glyph glyph-name="circumflex" unicode="&#x2c6;" horiz-adv-x="386" 
d="M87 626l-52 54l118 139h90l118 -139l-52 -54l-111 91z" />
    <glyph glyph-name="caron" unicode="&#x2c7;" horiz-adv-x="386" 
d="M309 807l52 -55l-118 -139h-90l-118 139l52 55l111 -93z" />
    <glyph glyph-name="uni02C8" unicode="&#x2c8;" horiz-adv-x="190" 
d="M30 620v261h130v-261h-130z" />
    <glyph glyph-name="uni02CA" unicode="&#x2ca;" horiz-adv-x="302" 
d="M213 825l59 -107l-201 -94l-41 73z" />
    <glyph glyph-name="uni02CB" unicode="&#x2cb;" horiz-adv-x="302" 
d="M89 825l183 -128l-41 -73l-201 94z" />
    <glyph glyph-name="uni02CC" unicode="&#x2cc;" horiz-adv-x="190" 
d="M30 -327v261h130v-261h-130z" />
    <glyph glyph-name="uni02CE" unicode="&#x2ce;" horiz-adv-x="301" 
d="M87 -49l184 -119l-38 -74l-203 84z" />
    <glyph glyph-name="uni02CF" unicode="&#x2cf;" horiz-adv-x="301" 
d="M214 -48l57 -109l-203 -85l-38 74z" />
    <glyph glyph-name="uni02D0" unicode="&#x2d0;" horiz-adv-x="196" 
d="M89 326l-64 171h147l-66 -171h-17zM89 171h17l66 -171h-147z" />
    <glyph glyph-name="uni02D1" unicode="&#x2d1;" horiz-adv-x="196" 
d="M89 325l-64 171h147l-66 -171h-17z" />
    <glyph glyph-name="uni02D4" unicode="&#x2d4;" horiz-adv-x="344" 
d="M309 263v-84h-274v84h89v149h95v-149h90z" />
    <glyph glyph-name="uni02D6" unicode="&#x2d6;" horiz-adv-x="408" 
d="M260 488v-137h114v-105h-114v-137h-110v137h-115v105h115v137h110z" />
    <glyph glyph-name="uni02D7" unicode="&#x2d7;" horiz-adv-x="395" 
d="M35 247v103h325v-103h-325z" />
    <glyph glyph-name="breve" unicode="&#x2d8;" horiz-adv-x="355" 
d="M77.5 678.5q-37.5 44.5 -42.5 123.5l79 15q16 -80 69 -80t67 80l80 -15q-5 -79 -42 -123.5t-105 -44.5t-105.5 44.5z" />
    <glyph glyph-name="dotaccent" unicode="&#x2d9;" horiz-adv-x="232" 
d="M184.5 782.5q23.5 -24.5 23.5 -62.5q0 -37 -24 -61.5t-62 -24.5t-62 24.5t-24 61.5q0 38 24 62.5t62 24.5q39 0 62.5 -24.5z" />
    <glyph glyph-name="ring" unicode="&#x2da;" horiz-adv-x="304" 
d="M246 828.5q33 -35.5 33 -92.5q0 -58 -33 -94t-89 -36q-57 0 -89.5 36t-32.5 94q0 57 32.5 92.5t89.5 35.5q56 0 89 -35.5zM122 736q0 -29 9 -41.5t26 -12.5q36 0 36 54q0 53 -36 53q-35 0 -35 -53z" />
    <glyph glyph-name="ogonek" unicode="&#x2db;" horiz-adv-x="261" 
d="M263 0q-55 -26 -75 -51t-20 -53q0 -46 44 -46q23 0 48 7l-9 -93q-29 -8 -58 -8q-58 0 -94.5 30t-36.5 84q0 64 46.5 106t130.5 73z" />
    <glyph glyph-name="tilde" unicode="&#x2dc;" horiz-adv-x="382" 
d="M208.5 648.5q-13.5 6.5 -30.5 17.5q-21 16 -35 16q-13 0 -22 -9.5t-21 -31.5l-70 33q16 50 45 80.5t66 30.5q18 0 31 -6t32 -18q11 -9 19 -13t17 -4q13 0 21.5 9.5t19.5 30.5l71 -32q-16 -51 -45 -80.5t-66 -29.5q-19 0 -32.5 6.5z" />
    <glyph glyph-name="hungarumlaut" unicode="&#x2dd;" horiz-adv-x="380" 
d="M107 855l96 -47l-99 -177l-72 30zM258 855l94 -50l-105 -179l-70 35z" />
    <glyph glyph-name="uni02DE" unicode="&#x2de;" horiz-adv-x="346" 
d="M161.5 337.5q-33.5 29.5 -40.5 80.5l-2 18l-94 -66v103l87 58h121v-74q0 -22 10 -33t27 -11q13 0 22 3t24 11l42 -82q-49 -37 -107 -37q-56 0 -89.5 29.5z" />
    <glyph glyph-name="uni02E0" unicode="&#x2e0;" horiz-adv-x="297" 
d="M183 437q15 -27 22.5 -47t7.5 -39q0 -28 -16.5 -44.5t-46.5 -16.5q-31 0 -47.5 16t-16.5 45q0 36 32 87l-86 227h70l48 -180l48 180h69zM150 399q-12 -27 -12 -44q0 -14 12 -14t12 14q0 19 -12 44z" />
    </font>
</defs>
</svg>
