<?xml version="1.0" standalone="no"?>
<!DOCTYPE svg PUBLIC "-//W3C//DTD SVG 1.1//EN" "http://www.w3.org/Graphics/SVG/1.1/DTD/svg11.dtd" >
<svg xmlns="http://www.w3.org/2000/svg" xmlns:xlink="http://www.w3.org/1999/xlink" version="1.1">
<metadata>
Created by FontForge 20170731 at Tue Dec  6 15:27:44 2016
 By Aleksey,,,
Digitized data copyright 2012-2016, The Mozilla Foundation and Telefonica S.A.
</metadata>
<defs>
<font id="FiraSansExtraCondensed-ExtraBoldItalic" horiz-adv-x="460" >
  <font-face 
    font-family="Fira Sans Extra Condensed ExtraBold"
    font-weight="800"
    font-style="italic"
    font-stretch="condensed"
    units-per-em="1000"
    panose-1="2 11 9 3 5 0 0 2 0 4"
    ascent="800"
    descent="-200"
    x-height="533"
    cap-height="695"
    bbox="-658 -355 1416 1205"
    underline-thickness="50"
    underline-position="-150"
    slope="-8"
    unicode-range="U+000D-FEFF"
  />
<missing-glyph horiz-adv-x="655" 
d="M644 1050l-197 -1400h-413l197 1400h413zM585 998h-306l-183 -1296h306zM416.5 426q23.5 -25 23.5 -66q0 -9 -2 -27q-7 -52 -32.5 -80t-75.5 -35l-8 -46q-1 -11 -8.5 -17t-16.5 -6q-11 0 -18 7t-6 18l11 83q53 3 74.5 20.5t26.5 59.5q2 14 2 21q0 45 -50 45
q-28 0 -53 -12q-6 -2 -12 -2q-12 0 -18.5 7.5t-4.5 18.5q2 17 31.5 26.5t61.5 9.5q51 0 74.5 -25zM313 109.5q9 -10.5 7 -27.5q-2 -14 -13 -24t-25 -10q-15 0 -24 11.5t-6 28.5q1 13 11.5 22.5t24.5 9.5q16 0 25 -10.5z" />
    <glyph glyph-name="fi" unicode="fi" horiz-adv-x="495" 
d="M424 0h-166l58 415h-70l-48 -353q-12 -90 -46.5 -145t-80.5 -84.5t-114 -55.5l-38 122q52 22 77 54.5t35 102.5l48 359h-56l17 118h55l6 43q11 81 69 132.5t149 51.5q45 0 83 -10.5t78 -32.5l-59 -105q-26 13 -46 18.5t-41 5.5q-31 0 -47 -16.5t-21 -53.5l-4 -33h237z
" />
    <glyph glyph-name="fl" unicode="fl" horiz-adv-x="532" 
d="M493 119l11 -117q-45 -20 -94 -20q-58 0 -88.5 31.5t-30.5 87.5q0 21 2 32l71 505q-17 4 -37 4q-29 0 -42 -18t-19 -58l-4 -33h61l-33 -118h-44l-48 -353q-12 -90 -46.5 -145t-80.5 -84.5t-114 -55.5l-38 122q52 22 77 54.5t35 102.5l48 359h-56l16 118h56l6 43
q11 82 64.5 133t142.5 51q59 0 105 -16l134 13l-85 -612q-1 -4 -1 -10q0 -18 16 -18q6 0 16 2z" />
    <glyph glyph-name=".notdef" horiz-adv-x="655" 
d="M644 1050l-197 -1400h-413l197 1400h413zM585 998h-306l-183 -1296h306zM416.5 426q23.5 -25 23.5 -66q0 -9 -2 -27q-7 -52 -32.5 -80t-75.5 -35l-8 -46q-1 -11 -8.5 -17t-16.5 -6q-11 0 -18 7t-6 18l11 83q53 3 74.5 20.5t26.5 59.5q2 14 2 21q0 45 -50 45
q-28 0 -53 -12q-6 -2 -12 -2q-12 0 -18.5 7.5t-4.5 18.5q2 17 31.5 26.5t61.5 9.5q51 0 74.5 -25zM313 109.5q9 -10.5 7 -27.5q-2 -14 -13 -24t-25 -10q-15 0 -24 11.5t-6 28.5q1 13 11.5 22.5t24.5 9.5q16 0 25 -10.5z" />
    <glyph glyph-name=".null" horiz-adv-x="0" 
 />
    <glyph glyph-name="nonmarkingreturn" unicode="&#xd;" horiz-adv-x="166" 
 />
    <glyph glyph-name="space" unicode=" " horiz-adv-x="166" 
 />
    <glyph glyph-name="exclam" unicode="!" horiz-adv-x="228" 
d="M44 260l37 435h174l-82 -435h-129zM18.5 5.5q-21.5 23.5 -21.5 58.5q0 44 29 74.5t73 30.5q37 0 58.5 -23.5t21.5 -59.5q0 -44 -29 -74t-73 -30q-37 0 -58.5 23.5z" />
    <glyph glyph-name="quotedbl" unicode="&#x22;" horiz-adv-x="425" 
d="M76 410l22 285h141l-58 -285h-105zM283 410l22 285h141l-58 -285h-105z" />
    <glyph glyph-name="numbersign" unicode="#" horiz-adv-x="478" 
d="M491 439h-53l-46 -189h43l-16 -108h-54l-35 -142h-130l35 142h-66l-35 -142h-129l35 142h-46l16 108h56l47 189h-46l14 109h58l32 129h131l-32 -129h65l32 129h130l-32 -129h41zM262 250l46 189h-65l-47 -189h66z" />
    <glyph glyph-name="dollar" unicode="$" horiz-adv-x="457" 
d="M405 338.5q32 -40.5 32 -104.5q0 -91 -52 -154.5t-140 -82.5l-23 -159h-112l22 155q-54 8 -93 32t-69 62l90 86q29 -30 56.5 -45t60.5 -15q40 0 63 25t23 65q0 29 -18.5 49t-67.5 44q-68 33 -98 71t-30 96q0 84 53 144.5t137 76.5l21 147h113l-22 -149q78 -17 129 -82
l-83 -84q-48 50 -102 50q-34 0 -53.5 -20t-19.5 -51q0 -24 17.5 -41t64.5 -40q69 -35 101 -75.5z" />
    <glyph glyph-name="percent" unicode="%" horiz-adv-x="727" 
d="M571 721l-478 -706l86 -56l479 706zM91.5 365q-36.5 38 -36.5 108q0 58 21.5 108.5t62 81t94.5 30.5q59 0 95.5 -37t36.5 -107q0 -58 -21 -109t-61.5 -82t-95.5 -31q-59 0 -95.5 38zM240 464q15 40 15 85q0 47 -31 47t-45 -37.5t-14 -85.5q0 -26 7.5 -37.5t23.5 -11.5
q29 0 44 40zM419 19.5q-37 37.5 -37 107.5q0 58 21.5 108.5t62.5 81t95 30.5q59 0 95 -37t36 -107q0 -58 -21 -108.5t-61.5 -81.5t-94.5 -31q-59 0 -96 37.5zM568 118q15 40 15 85q0 47 -31 47t-45 -37.5t-14 -85.5q0 -26 7.5 -37.5t23.5 -11.5q29 0 44 40z" />
    <glyph glyph-name="ampersand" unicode="&#x26;" horiz-adv-x="660" 
d="M459 672.5q46 -40.5 46 -106.5q0 -65 -35 -113.5t-101 -95.5l77 -118q22 43 50 130l123 -35q-44 -105 -101 -181l87 -107l-151 -64l-48 70q-47 -38 -91.5 -54t-96.5 -16q-55 0 -97 21.5t-65 59.5t-23 87q0 70 34.5 121.5t106.5 101.5q-32 41 -45.5 73t-13.5 65
q0 61 27 106.5t76 70.5t113 25q82 0 128 -40.5zM283.5 576q-12.5 -28 -12.5 -61q0 -19 5 -35.5t17 -38.5q29 32 42.5 61t13.5 66q0 36 -28 36q-25 0 -37.5 -28zM207 163q0 -62 53 -62q23 0 42 8t39 26l-91 141q-43 -46 -43 -113z" />
    <glyph glyph-name="quotesingle" unicode="'" horiz-adv-x="218" 
d="M76 410l22 285h141l-58 -285h-105z" />
    <glyph glyph-name="parenleft" unicode="(" horiz-adv-x="280" 
d="M348 788q-88 -122 -132.5 -279.5t-44.5 -315.5q0 -86 13 -153.5t40 -133.5l-118 -66q-32 73 -51.5 124t-32.5 115t-13 139q0 130 27 236.5t78 201.5t133 206z" />
    <glyph glyph-name="parenright" unicode=")" horiz-adv-x="283" 
d="M251 735q19 -50 32.5 -114.5t13.5 -139.5q0 -129 -27.5 -236t-79 -202.5t-133.5 -204.5l-99 74q89 125 132 279t43 314q0 87 -13 155t-40 134l119 66q33 -75 52 -125z" />
    <glyph glyph-name="asterisk" unicode="*" horiz-adv-x="400" 
d="M428 529l-121 -22l75 -107l-129 -75l-29 122l-61 -123l-111 75l100 111l-106 20l53 128l97 -57l-5 142h145l-44 -144l107 60z" />
    <glyph glyph-name="plus" unicode="+" horiz-adv-x="455" 
d="M337 554l-22 -157h122l-18 -130h-124l-24 -158h-133l23 158h-126l18 130h129l22 157h133z" />
    <glyph glyph-name="comma" unicode="," horiz-adv-x="216" 
d="M149.5 148.5q21.5 -21.5 21.5 -58.5q0 -25 -10.5 -51t-38.5 -77l-76 -141h-85l63 179q-32 23 -32 64q0 44 28.5 75t71.5 31q36 0 57.5 -21.5z" />
    <glyph glyph-name="hyphen" unicode="-" horiz-adv-x="348" 
d="M33 248l17 130h278l-17 -130h-278z" />
    <glyph glyph-name="period" unicode="." horiz-adv-x="220" 
d="M13.5 5.5q-21.5 23.5 -21.5 58.5q0 44 29 74.5t73 30.5q37 0 58.5 -23.5t21.5 -59.5q0 -44 -29 -74t-73 -30q-37 0 -58.5 23.5z" />
    <glyph glyph-name="slash" unicode="/" horiz-adv-x="429" 
d="M315 819l140 -35l-316 -898l-140 36z" />
    <glyph glyph-name="zero" unicode="0" horiz-adv-x="517" 
d="M157 625.5q-63 -67.5 -92 -175t-29 -227.5q0 -121 47 -181t139 -60q94 0 157 67.5t92.5 174.5t29.5 226t-47.5 181t-138.5 62q-95 0 -158 -67.5zM332 553q8 -15 8 -51q0 -78 -13.5 -171.5t-38.5 -159t-58 -65.5q-17 0 -25 15t-8 51q0 75 13.5 168.5t38.5 160.5t58 67
q17 0 25 -15z" />
    <glyph glyph-name="one" unicode="1" horiz-adv-x="403" 
d="M396 678l-95 -678h-161l68 503l-121 -80l-58 114l217 141h150z" />
    <glyph glyph-name="two" unicode="2" horiz-adv-x="432" 
d="M388 644.5q48 -48.5 48 -123.5q0 -59 -29.5 -116.5t-84 -118.5t-151.5 -157l223 1l-36 -130h-381l15 120q107 114 158.5 173t83 113.5t31.5 102.5q0 27 -12 40.5t-34 13.5q-24 0 -47 -15.5t-54 -48.5l-86 76q44 57 97.5 87.5t120.5 30.5q90 0 138 -48.5z" />
    <glyph glyph-name="three" unicode="3" horiz-adv-x="436" 
d="M380.5 648q48.5 -45 48.5 -114q0 -70 -41.5 -114.5t-120.5 -62.5q65 -9 99 -40.5t34 -90.5q0 -67 -32.5 -122.5t-91 -88.5t-131.5 -33q-67 0 -113.5 26.5t-81.5 78.5l98 81q24 -31 45.5 -44.5t48.5 -13.5q38 0 63 32t25 87q0 67 -71 67h-46l35 115h30q38 0 61.5 28
t23.5 73q0 56 -51 56q-52 0 -108 -56l-71 88q96 93 213 93q86 0 134.5 -45z" />
    <glyph glyph-name="four" unicode="4" horiz-adv-x="484" 
d="M473 269l-18 -127h-56l-20 -142h-159l19 142h-242l16 113l214 442l135 -51l-175 -377h71l42 156h139l-22 -156h56z" />
    <glyph glyph-name="five" unicode="5" horiz-adv-x="458" 
d="M431 557h-193l-19 -134q24 13 43.5 18.5t41.5 5.5q59 0 95 -43.5t36 -125.5q0 -83 -33 -150.5t-94.5 -106.5t-143.5 -39q-67 0 -111 28t-74 78l100 79q20 -29 40 -44t49 -15q50 0 73.5 48.5t23.5 113.5q0 33 -11.5 47t-33.5 14q-15 0 -30 -5.5t-35 -19.5l-108 1l52 371
h366z" />
    <glyph glyph-name="six" unicode="6" horiz-adv-x="490" 
d="M439 413.5q35 -44.5 35 -126.5q0 -85 -30 -154.5t-86.5 -110t-134.5 -40.5q-97 0 -144.5 57.5t-47.5 167.5q0 121 39 233t112.5 182.5t171.5 70.5q76 0 129 -46l-70 -95q-33 21 -62 21q-40 0 -73.5 -43t-53.5 -129q51 57 117 57q63 0 98 -44.5zM274.5 134.5
q18.5 32.5 27 77.5t8.5 83q0 28 -8 38.5t-23 10.5q-31 0 -72 -53q-11 -77 -11 -124q0 -35 8 -50t26 -15q26 0 44.5 32.5z" />
    <glyph glyph-name="seven" unicode="7" horiz-adv-x="393" 
d="M445 677l-17 -114l-275 -580l-140 51l243 516h-211l18 127h382z" />
    <glyph glyph-name="eight" unicode="8" horiz-adv-x="492" 
d="M444.5 295.5q21.5 -35.5 21.5 -81.5q0 -71 -33 -123.5t-91.5 -80.5t-132.5 -28q-99 0 -152 49.5t-53 124.5q0 128 132 192q-64 53 -64 130q0 64 29.5 113t82 75.5t119.5 26.5q89 0 140 -41.5t51 -112.5q0 -52 -27 -96t-91 -81q47 -31 68.5 -66.5zM244 549
q-15 -30 -15 -71q0 -23 9.5 -38.5t33.5 -28.5l8 -5q28 25 41 55t13 67q0 26 -10 38.5t-31 12.5q-34 0 -49 -30zM282 132q21 30 21 77q0 29 -12.5 46.5t-47.5 36.5l-15 8q-31 -26 -46.5 -61.5t-15.5 -72.5q0 -64 56 -64q39 0 60 30z" />
    <glyph glyph-name="nine" unicode="9" horiz-adv-x="487" 
d="M441.5 638.5q49.5 -54.5 49.5 -152.5q0 -201 -113 -335t-335 -180l-22 115q114 32 175.5 77.5t98.5 128.5q-29 -30 -56.5 -44.5t-61.5 -14.5q-62 0 -100.5 47.5t-38.5 128.5q0 79 31.5 144t90 102.5t136.5 37.5q96 0 145.5 -54.5zM323 515q0 33 -9 47t-29 14
q-38 0 -58.5 -52t-20.5 -111q0 -64 37 -64q35 0 72 54q8 58 8 112z" />
    <glyph glyph-name="colon" unicode=":" horiz-adv-x="221" 
d="M14.5 5.5q-21.5 23.5 -21.5 58.5q0 44 29 74.5t73 30.5q37 0 58.5 -23.5t21.5 -59.5q0 -44 -29 -74t-73 -30q-37 0 -58.5 23.5zM61.5 344.5q-21.5 23.5 -21.5 58.5q0 44 29 74.5t73 30.5q37 0 58.5 -23.5t21.5 -59.5q0 -44 -29 -74t-73 -30q-37 0 -58.5 23.5z" />
    <glyph glyph-name="semicolon" unicode=";" horiz-adv-x="221" 
d="M150.5 148.5q21.5 -21.5 21.5 -58.5q0 -25 -10.5 -51t-38.5 -77l-76 -141h-85l63 179q-32 23 -32 64q0 44 28.5 75t71.5 31q36 0 57.5 -21.5zM62.5 344.5q-21.5 23.5 -21.5 58.5q0 44 29 74.5t73 30.5q37 0 58.5 -23.5t21.5 -59.5q0 -44 -29 -74t-73 -30
q-37 0 -58.5 23.5z" />
    <glyph glyph-name="less" unicode="&#x3c;" horiz-adv-x="435" 
d="M405 580l37 -122l-279 -130l241 -129l-72 -114l-313 175l21 147z" />
    <glyph glyph-name="equal" unicode="=" horiz-adv-x="439" 
d="M50 373l18 130h369l-18 -130h-369zM20 159l18 130h369l-18 -130h-369z" />
    <glyph glyph-name="greater" unicode="&#x3e;" horiz-adv-x="435" 
d="M122 580l313 -174l-20 -147l-365 -174l-38 124l283 131l-245 127z" />
    <glyph glyph-name="question" unicode="?" horiz-adv-x="413" 
d="M397 667.5q47 -44.5 47 -112.5q0 -45 -15.5 -76.5t-38 -52t-57.5 -43.5q-40 -28 -58 -47.5t-18 -50.5q0 -15 2 -27l-147 -23q-9 32 -9 54q0 43 14 73.5t33.5 50t51.5 42.5q34 26 49.5 44.5t15.5 45.5q0 34 -35 34q-36 0 -90 -56l-87 82q86 107 210 107q85 0 132 -44.5z
M109.5 5.5q-21.5 23.5 -21.5 58.5q0 44 29 74.5t73 30.5q37 0 58.5 -23.5t21.5 -59.5q0 -44 -29 -74t-73 -30q-37 0 -58.5 23.5z" />
    <glyph glyph-name="at" unicode="@" horiz-adv-x="848" 
d="M672.5 667.5q73.5 -44.5 111 -120.5t37.5 -169q0 -98 -30 -184.5t-84 -138.5t-122 -52q-45 0 -71 27t-28 68q-21 -44 -51.5 -67.5t-76.5 -23.5q-61 0 -93.5 43.5t-32.5 119.5q0 87 26.5 164t79.5 124t128 47q39 0 78 -13t70 -34l-34 -249q-2 -16 -4 -25q-5 -33 -5 -49
q0 -29 18 -29q26 0 47 44t33 109t12 122q0 211 -192 211q-107 0 -178.5 -64t-105 -167t-33.5 -222q0 -242 213 -242q43 0 87 9.5t78 24.5l24 -112q-43 -19 -97.5 -30.5t-106.5 -11.5q-109 0 -186.5 44.5t-117 127t-39.5 195.5q0 146 57.5 276.5t164 211t247.5 80.5
q103 0 176.5 -44.5zM418 119q11 11 18 26l36 255q-8 3 -17 3q-27 0 -45.5 -40.5t-28 -98.5t-9.5 -109q0 -26 5.5 -36.5t17.5 -10.5t23 11z" />
    <glyph glyph-name="A" unicode="A" horiz-adv-x="501" 
d="M300 0l-3 145h-128l-41 -145h-180l258 695h208l64 -695h-178zM204 271h91l-5 307z" />
    <glyph glyph-name="B" unicode="B" horiz-adv-x="511" 
d="M493 230q0 -111 -79 -170.5t-213 -59.5h-202l98 695h184q109 0 171.5 -40.5t62.5 -116.5q0 -68 -40 -111.5t-103 -59.5q121 -26 121 -137zM318 446q20 27 20 73q0 52 -56 52h-29l-21 -152h24q42 0 62 27zM293 159q24 32 24 81q0 33 -16 48.5t-51 15.5h-34l-24 -177h27
q50 0 74 32z" />
    <glyph glyph-name="C" unicode="C" horiz-adv-x="484" 
d="M531 633l-89 -90q-42 40 -88 40q-51 0 -84 -53t-47.5 -132t-14.5 -159q0 -64 19 -93t56 -29q27 0 51 12.5t59 38.5l63 -96q-94 -90 -209 -90q-101 0 -160 68t-59 200q0 126 36.5 231t110.5 168.5t181 63.5q106 0 175 -80z" />
    <glyph glyph-name="D" unicode="D" horiz-adv-x="549" 
d="M473 641q70 -54 70 -194q0 -206 -84.5 -326.5t-263.5 -120.5h-196l98 695h186q120 0 190 -54zM253 568l-61 -441h30q53 0 85.5 50.5t46 125t13.5 150.5q0 62 -19.5 88.5t-59.5 26.5h-35z" />
    <glyph glyph-name="E" unicode="E" horiz-adv-x="423" 
d="M471 695l-38 -125h-179l-22 -156h160l-19 -123h-159l-22 -165h195l-18 -126h-370l98 695h374z" />
    <glyph glyph-name="F" unicode="F" horiz-adv-x="397" 
d="M458 695l-39 -125h-165l-24 -175h149l-20 -126h-147l-39 -269h-174l98 695h361z" />
    <glyph glyph-name="G" unicode="G" horiz-adv-x="543" 
d="M564 625l-93 -85q-25 24 -48.5 35t-52.5 11q-59 0 -97 -56t-54.5 -140.5t-16.5 -174.5q0 -56 15.5 -80.5t45.5 -24.5q35 0 66 22l21 148h-57l2 122h235l-48 -345q-52 -36 -112.5 -55.5t-115.5 -19.5q-228 0 -228 259q0 127 40.5 234.5t119 172.5t187.5 65q117 0 191 -88z
" />
    <glyph glyph-name="H" unicode="H" horiz-adv-x="539" 
d="M173 0h-174l98 695h174l-38 -266h117l37 266h174l-97 -695h-174l41 292h-116z" />
    <glyph glyph-name="I" unicode="I" horiz-adv-x="248" 
d="M271 695l-98 -695h-174l98 695h174z" />
    <glyph glyph-name="J" unicode="J" horiz-adv-x="274" 
d="M215 101q-13 -88 -48 -142t-82.5 -82.5t-115.5 -52.5l-30 122q52 25 73 61t31 107l81 581h174z" />
    <glyph glyph-name="K" unicode="K" horiz-adv-x="552" 
d="M-1 0l98 695h174l-98 -695h-174zM333 0l-103 370l200 325h174l-199 -321l116 -374h-188z" />
    <glyph glyph-name="L" unicode="L" horiz-adv-x="423" 
d="M271 695l-78 -557h212l-39 -138h-367l98 695h174z" />
    <glyph glyph-name="M" unicode="M" horiz-adv-x="661" 
d="M603 0h-168l30 263q9 74 37 239l10 60l-127 -490h-166l-3 489q-12 -185 -29 -300l-37 -261h-168l137 695h207l-5 -479l116 479h223z" />
    <glyph glyph-name="N" unicode="N" horiz-adv-x="534" 
d="M459 0h-206l-61 548q2 -68 2 -104q0 -105 -13 -210l-30 -234h-151l97 695h207l60 -549q-2 74 -2 103q0 92 12 192l33 254h149z" />
    <glyph glyph-name="O" unicode="O" horiz-adv-x="580" 
d="M518 647.5q57 -65.5 57 -196.5q0 -125 -35.5 -232t-108 -172t-179.5 -65q-111 0 -167.5 66t-56.5 196q0 125 35 232t107.5 172t179.5 65q111 0 168 -65.5zM262.5 522.5q-30.5 -62.5 -44.5 -150t-14 -164.5q0 -53 14.5 -76t44.5 -23q47 0 77.5 61t44 147.5t13.5 165.5
q0 54 -14.5 78t-44.5 24q-46 0 -76.5 -62.5z" />
    <glyph glyph-name="P" unicode="P" horiz-adv-x="497" 
d="M459.5 645.5q59.5 -49.5 59.5 -144.5q0 -80 -33 -142t-96 -97t-150 -35h-35l-32 -227h-174l98 695h189q114 0 173.5 -49.5zM318.5 393.5q23.5 40.5 23.5 105.5q0 39 -15.5 55t-51.5 16h-22l-30 -217h17q55 0 78.5 40.5z" />
    <glyph glyph-name="Q" unicode="Q" horiz-adv-x="578" 
d="M488.5 24.5q39.5 -17.5 71.5 -51.5l-124 -128q-65 140 -184 140q-224 0 -224 259q0 125 35 232t107.5 172t179.5 65q111 0 168 -65.5t57 -196.5q0 -138 -45 -247t-137 -159q56 -3 95.5 -20.5zM218.5 132q14.5 -23 44.5 -23q47 0 77.5 61t44 147.5t13.5 165.5
q0 54 -14.5 78t-44.5 24q-46 0 -76.5 -62.5t-44.5 -150t-14 -164.5q0 -53 14.5 -76z" />
    <glyph glyph-name="R" unicode="R" horiz-adv-x="514" 
d="M492 383q-31 -52 -96 -89l97 -294h-180l-72 259h-31l-37 -259h-174l98 695h188q121 0 179.5 -47.5t58.5 -137.5q0 -75 -31 -127zM227 380h24q50 0 73 36t23 89q0 35 -17 51t-51 16h-25z" />
    <glyph glyph-name="S" unicode="S" horiz-adv-x="481" 
d="M423 689.5q50 -23.5 86 -69.5l-86 -88q-25 27 -52 40t-59 13q-37 0 -58 -20t-21 -50q0 -28 19 -46.5t78 -48.5q66 -34 98 -77t32 -113q0 -71 -34.5 -127.5t-95.5 -88.5t-138 -32q-140 0 -223 101l94 90q32 -31 61.5 -46.5t68.5 -15.5q41 0 65.5 24t24.5 64q0 34 -21 56.5
t-78 50.5q-68 34 -97.5 73.5t-29.5 104.5q0 67 32 119t88.5 81t127.5 29q68 0 118 -23.5z" />
    <glyph glyph-name="T" unicode="T" horiz-adv-x="451" 
d="M515 695l-37 -135h-124l-79 -560h-174l79 560h-137l19 135h453z" />
    <glyph glyph-name="U" unicode="U" horiz-adv-x="526" 
d="M489 200q-9 -62 -41.5 -111t-88.5 -78t-130 -29q-105 0 -159 51.5t-54 133.5q0 20 3 39l68 489h174l-71 -510q-1 -6 -1 -19q0 -25 12.5 -39.5t38.5 -14.5q32 0 50 21t23 55l71 507h175z" />
    <glyph glyph-name="V" unicode="V" horiz-adv-x="482" 
d="M557 695l-233 -695h-228l-51 695h177l7 -563l151 563h177z" />
    <glyph glyph-name="W" unicode="W" horiz-adv-x="705" 
d="M761 695l-176 -695h-228l29 525l-117 -525h-227l22 695h170l-44 -563l135 563h176l-29 -563l122 563h167z" />
    <glyph glyph-name="X" unicode="X" horiz-adv-x="492" 
d="M549 695l-188 -321l102 -374h-182l-38 265l-101 -265h-189l199 369l-92 326h182l26 -229l94 229h187z" />
    <glyph glyph-name="Y" unicode="Y" horiz-adv-x="502" 
d="M577 695l-240 -436l-36 -259h-174l36 258l-117 437h183l42 -304l120 304h186z" />
    <glyph glyph-name="Z" unicode="Z" horiz-adv-x="451" 
d="M-31 0l19 131l293 428h-215l21 136h404l-21 -133l-292 -422h247l-39 -140h-417z" />
    <glyph glyph-name="bracketleft" unicode="[" horiz-adv-x="272" 
d="M338 824l-18 -126h-89l-94 -697h87l-18 -125h-248l135 948h245z" />
    <glyph glyph-name="backslash" unicode="\" horiz-adv-x="434" 
d="M270 811l66 -898l-150 -27l-66 898z" />
    <glyph glyph-name="bracketright" unicode="]" horiz-adv-x="270" 
d="M337 824l-134 -948h-245l18 125h89l93 698h-85l16 125h248z" />
    <glyph glyph-name="asciicircum" unicode="^" horiz-adv-x="471" 
d="M394 845l108 -318h-158l-46 193l-90 -193h-164l197 318h153z" />
    <glyph glyph-name="underscore" unicode="_" horiz-adv-x="428" 
d="M-54 -176l18 131h412l-19 -131h-411z" />
    <glyph glyph-name="grave" unicode="`" horiz-adv-x="309" 
d="M166 833l173 -137l-49 -74l-197 93z" />
    <glyph glyph-name="a" unicode="a" horiz-adv-x="482" 
d="M483 499l-48 -340q-3 -16 -3 -29t4.5 -21.5t15.5 -13.5l-52 -110q-42 4 -74 22.5t-44 52.5q-28 -39 -59 -58.5t-73 -19.5q-66 0 -101.5 50.5t-35.5 138.5q0 101 28.5 187t92.5 139.5t164 53.5q96 0 185 -52zM207 351.5q-26 -80.5 -26 -184.5q0 -34 7.5 -47.5t22.5 -13.5
q14 0 28 14.5t31 40.5l37 266q-13 5 -25 5q-49 0 -75 -80.5z" />
    <glyph glyph-name="b" unicode="b" horiz-adv-x="493" 
d="M446.5 505q33.5 -46 33.5 -133q0 -179 -68 -284.5t-220 -105.5q-44 0 -93.5 11.5t-98.5 31.5l100 718l169 18l-37 -269q23 27 54 43t66 16q61 0 94.5 -46zM216 380l-36 -268q18 -8 36 -8q46 0 70 81t24 176q0 38 -8 52t-24 14q-28 0 -62 -47z" />
    <glyph glyph-name="c" unicode="c" horiz-adv-x="400" 
d="M372.5 534q37.5 -17 67.5 -51l-80 -90q-18 15 -34 22t-34 7q-53 0 -77.5 -68t-24.5 -157q0 -48 13 -66t39 -18q17 0 34.5 7t40.5 22l59 -98q-73 -62 -164 -62q-92 0 -144 57.5t-52 160.5q0 98 32 178t93 126.5t144 46.5q50 0 87.5 -17z" />
    <glyph glyph-name="d" unicode="d" horiz-adv-x="494" 
d="M527 743l-104 -743h-148l2 61q-27 -40 -57.5 -59.5t-72.5 -19.5q-64 0 -99 48.5t-35 140.5q0 96 26 183.5t76 142t120 54.5q59 0 91 -47l35 256zM223 386.5q-20 -41.5 -30 -101.5t-10 -112q0 -39 8 -53.5t24 -14.5q29 0 64 62l32 232q-8 15 -17 22t-23 7q-28 0 -48 -41.5
z" />
    <glyph glyph-name="e" unicode="e" horiz-adv-x="463" 
d="M421 510q47 -41 45 -106q-6 -179 -287 -212v-14q0 -72 61 -72q26 0 51 11t58 35l56 -97q-87 -73 -195 -73q-92 0 -143.5 51t-51.5 152q0 102 31 185t94 132t154 49q80 0 127 -41zM277 331q28 32 28 73q0 35 -30 35q-32 0 -53.5 -41.5t-32.5 -104.5q60 6 88 38z" />
    <glyph glyph-name="f" unicode="f" horiz-adv-x="307" 
d="M285.5 620q-14.5 -17 -19.5 -54l-4 -33h101l-36 -118h-81l-48 -353q-12 -90 -46.5 -145t-80.5 -84.5t-114 -55.5l-38 122q52 22 77 54.5t35 102.5l48 359h-56l17 118h55l6 43q11 82 64.5 133.5t142.5 51.5q42 0 76 -12t59 -32l-59 -98q-30 18 -59 18q-25 0 -39.5 -17z
" />
    <glyph glyph-name="g" unicode="g" horiz-adv-x="484" 
d="M486 499l-66 -471q-19 -129 -79.5 -190.5t-172.5 -61.5q-96 0 -178 56l59 108q32 -19 58.5 -27.5t54.5 -8.5q37 0 60.5 20.5t31.5 75.5l9 65q-45 -66 -114 -66q-64 0 -99 51t-35 138q0 99 28.5 181t92 132t163.5 50q96 0 187 -52zM208.5 358.5q-25.5 -73.5 -25.5 -174.5
q0 -33 7.5 -47t22.5 -14q28 0 62 56l34 248q-13 5 -26 5q-49 0 -74.5 -73.5z" />
    <glyph glyph-name="h" unicode="h" horiz-adv-x="467" 
d="M431 518.5q27 -32.5 27 -88.5q0 -18 -3 -38l-56 -392h-167l50 362q1 6 1 15q0 22 -13 22q-12 0 -26 -22.5t-39 -76.5l-42 -300h-167l104 743l169 17l-42 -301q23 39 56 65.5t75 26.5q46 0 73 -32.5z" />
    <glyph glyph-name="i" unicode="i" horiz-adv-x="235" 
d="M238 533l-74 -533h-167l74 533h167zM107.5 649q-22.5 22 -22.5 59q0 47 30.5 77.5t75.5 30.5q40 0 62.5 -22t22.5 -59q0 -47 -30.5 -77.5t-75.5 -30.5q-40 0 -62.5 22z" />
    <glyph glyph-name="j" unicode="j" horiz-adv-x="235" 
d="M-106 -101q52 22 77 54.5t35 102.5l66 477h167l-66 -471q-13 -90 -47 -145.5t-80 -85t-114 -54.5zM109.5 649q-22.5 22 -22.5 59q0 47 30.5 77.5t75.5 30.5q40 0 62.5 -22t22.5 -59q0 -47 -30.5 -77.5t-75.5 -30.5q-40 0 -62.5 22z" />
    <glyph glyph-name="k" unicode="k" horiz-adv-x="491" 
d="M231 472q32 40 68 59t80 19q56 0 90 -33.5t34 -87.5q0 -60 -28.5 -103.5t-90.5 -83.5l63 -242h-173l-56 256q66 28 91.5 62t25.5 77q0 18 -8 28t-21 10q-42 0 -96 -94l-46 -339h-168l104 743l170 17z" />
    <glyph glyph-name="l" unicode="l" horiz-adv-x="249" 
d="M179 145q-1 -4 -1 -10q0 -18 16 -18q6 0 16 2l12 -117q-47 -20 -95 -20q-58 0 -88.5 31.5t-30.5 87.5q0 21 2 32l85 610l168 17z" />
    <glyph glyph-name="m" unicode="m" horiz-adv-x="682" 
d="M646.5 518.5q26.5 -32.5 26.5 -88.5q0 -17 -3 -37l-56 -393h-167l50 362l2 20q0 21 -12 21q-10 0 -22.5 -22t-31.5 -74l-44 -307h-167l50 362q1 7 1 19q0 22 -11 22t-23.5 -23t-32.5 -78l-42 -302h-167l74 533h145v-78q58 96 133 96q39 0 64 -23.5t32 -65.5q56 89 129 89
q46 0 72.5 -32.5z" />
    <glyph glyph-name="n" unicode="n" horiz-adv-x="468" 
d="M432 518.5q27 -32.5 27 -88.5q0 -18 -3 -38l-56 -392h-167l50 362q1 6 1 15q0 22 -13 22q-12 0 -26 -22.5t-39 -76.5l-42 -300h-167l74 533h145v-81q63 99 142 99q47 0 74 -32.5z" />
    <glyph glyph-name="o" unicode="o" horiz-adv-x="492" 
d="M66 35.5q-51 53.5 -51 158.5q0 95 30 176.5t91 131t148 49.5q90 0 141 -54t51 -159q0 -95 -30 -176.5t-90.5 -130.5t-147.5 -49q-91 0 -142 53.5zM270 147.5q20 42.5 29 103t9 113.5q0 33 -9 48t-27 15q-31 0 -50.5 -42.5t-28.5 -102t-9 -113.5q0 -34 9 -49t27 -15
q30 0 50 42.5z" />
    <glyph glyph-name="p" unicode="p" horiz-adv-x="493" 
d="M71 533h149l-1 -51q54 69 133 69q61 0 94.5 -46t33.5 -133q0 -172 -62.5 -281t-187.5 -109q-36 0 -68 9l-28 -198l-169 -18zM269 146.5q22 43.5 32 104.5t10 114q0 35 -8.5 48.5t-23.5 13.5q-30 0 -62 -47l-37 -268q20 -9 35 -9q32 0 54 43.5z" />
    <glyph glyph-name="q" unicode="q" horiz-adv-x="489" 
d="M259 37q-23 -27 -48.5 -41t-59.5 -14q-66 0 -102 50.5t-36 138.5q0 103 29 189t93.5 138.5t163.5 52.5q100 0 189 -52l-96 -706l-169 -18zM275 161l38 266q-13 5 -29 5q-49 0 -75.5 -77.5t-26.5 -187.5q0 -33 7.5 -47t22.5 -14q30 0 63 55z" />
    <glyph glyph-name="r" unicode="r" horiz-adv-x="336" 
d="M383 540l-51 -163q-24 6 -37 6q-34 0 -57 -38t-41 -106l-33 -239h-167l74 533h143l-1 -88q50 104 127 104q22 0 43 -9z" />
    <glyph glyph-name="s" unicode="s" horiz-adv-x="405" 
d="M333.5 533q44.5 -18 75.5 -50l-71 -89q-49 37 -91 37q-23 0 -37 -11.5t-14 -30.5q0 -17 16.5 -31t63.5 -37q52 -24 78 -57t26 -87q0 -59 -30 -103t-80.5 -68t-110.5 -24q-118 0 -193 82l87 86q25 -23 49.5 -36t51.5 -13q28 0 42.5 14t14.5 37q0 22 -16 37.5t-58 34.5
q-55 25 -79.5 56.5t-24.5 85.5q0 52 26 94.5t72.5 66.5t105.5 24q52 0 96.5 -18z" />
    <glyph glyph-name="t" unicode="t" horiz-adv-x="328" 
d="M204 163q-1 -5 -1 -14q0 -33 28 -33q18 0 38 11l38 -106q-28 -19 -63 -29t-69 -10q-69 0 -105.5 38t-36.5 106q0 19 3 38l35 251h-53l17 118h59l30 117l149 17l-18 -134h95l-37 -118h-74z" />
    <glyph glyph-name="u" unicode="u" horiz-adv-x="462" 
d="M38 14.5q-28 32.5 -28 88.5q0 17 3 35l55 395h167l-51 -369q-1 -5 -1 -14q0 -20 13 -20q24 0 56 60l47 343h167l-75 -533h-145l3 71q-28 -42 -59.5 -65.5t-76.5 -23.5q-47 0 -75 32.5z" />
    <glyph glyph-name="v" unicode="v" horiz-adv-x="433" 
d="M481 533l-196 -533h-202l-55 533h175l-1 -406l106 406h173z" />
    <glyph glyph-name="w" unicode="w" horiz-adv-x="635" 
d="M671 533l-157 -533h-187l5 380l-92 -380h-191l-10 533h167l-32 -405l107 405h156l-11 -405l85 405h160z" />
    <glyph glyph-name="x" unicode="x" horiz-adv-x="432" 
d="M459 533l-139 -253l89 -280h-173l-37 190l-82 -190h-170l168 283l-84 250h175l25 -168l63 168h165z" />
    <glyph glyph-name="y" unicode="y" horiz-adv-x="439" 
d="M284 -1q-43 -114 -117.5 -165.5t-189.5 -57.5l-2 115q65 10 99 32.5t59 76.5h-60l-45 533h172l-6 -425l117 425h176z" />
    <glyph glyph-name="z" unicode="z" horiz-adv-x="387" 
d="M409 533l-17 -119l-210 -286h179l-34 -128h-359l17 120l210 286h-156l19 127h351z" />
    <glyph glyph-name="braceleft" unicode="{" horiz-adv-x="268" 
d="M321 723q-29 0 -40.5 -12.5t-16.5 -47.5l-22 -175q-8 -65 -37 -95t-83 -45q41 -9 60.5 -31.5t19.5 -68.5q0 -18 -3 -39l-23 -174q-2 -16 -2 -21q0 -20 10.5 -28.5t36.5 -8.5l-17 -118q-96 0 -139.5 33.5t-43.5 103.5q0 19 3 40l22 172q2 22 2 29q0 24 -9.5 33.5
t-32.5 9.5l19 140q31 0 45.5 16.5t19.5 56.5l22 173q8 62 30 99.5t68 56.5t127 19z" />
    <glyph glyph-name="bar" unicode="|" horiz-adv-x="294" 
d="M302 811l-128 -917h-157l128 917h157z" />
    <glyph glyph-name="braceright" unicode="}" horiz-adv-x="268" 
d="M-30 -23q30 0 41.5 12.5t16.5 47.5l22 175q7 65 36 95t84 45q-41 9 -60.5 31.5t-19.5 68.5q0 18 3 39l23 174q1 7 1 19q0 22 -10 30.5t-36 8.5l17 118q96 0 139.5 -33.5t43.5 -104.5q0 -18 -3 -39l-22 -172q-2 -22 -2 -29q0 -24 9.5 -33.5t32.5 -9.5l-20 -140
q-30 0 -44.5 -16.5t-19.5 -56.5l-23 -173q-7 -62 -29 -99.5t-68 -56.5t-127 -19z" />
    <glyph glyph-name="asciitilde" unicode="~" horiz-adv-x="442" 
d="M244 238q-18 9 -42 26q-16 13 -27.5 19t-24.5 6q-18 0 -31.5 -12t-34.5 -39l-74 46q37 61 74 96t86 35q25 0 42.5 -8.5t41.5 -26.5q17 -13 27.5 -19t23.5 -6q20 0 33.5 11.5t31.5 37.5l77 -46q-37 -60 -74 -94.5t-86 -34.5q-25 0 -43 9z" />
    <glyph glyph-name="uni00A0" unicode="&#xa0;" horiz-adv-x="167" 
 />
    <glyph glyph-name="exclamdown" unicode="&#xa1;" horiz-adv-x="228" 
d="M67.5 347.5q-21.5 23.5 -21.5 58.5q0 44 29 74.5t73 30.5q37 0 58.5 -23.5t21.5 -59.5q0 -44 -29 -74t-73 -30q-37 0 -58.5 23.5zM169 232l-39 -438h-175l84 438h130z" />
    <glyph glyph-name="cent" unicode="&#xa2;" horiz-adv-x="400" 
d="M376 44q-58 -48 -121 -59l-23 -147h-113l24 154q-61 19 -94 72.5t-33 135.5q0 128 54 222t149 120l23 152h111l-21 -147q61 -12 108 -64l-80 -90q-18 15 -34 22t-34 7q-53 0 -77.5 -68t-24.5 -157q0 -48 13 -66t39 -18q17 0 34.5 7t40.5 22z" />
    <glyph glyph-name="sterling" unicode="&#xa3;" horiz-adv-x="453" 
d="M231.5 175q-16.5 -27 -57.5 -48h245l-37 -127h-398l18 122q33 11 50 26.5t24 36t10 55.5l9 68h-57l12 87h56l13 95q14 94 68 148.5t146 54.5q116 0 165 -104l-105 -67q-12 25 -24.5 35t-30.5 10q-25 0 -37.5 -19t-17.5 -62l-12 -91h133l-12 -87h-132l-8 -63
q-4 -43 -20.5 -70z" />
    <glyph glyph-name="currency" unicode="&#xa4;" 
d="M401 224l71 -87l-77 -62l-59 75q-43 -27 -95 -27q-54 0 -98 28l-62 -76l-72 63l71 86q-26 50 -26 118t26 117l-72 88l78 61l59 -75q44 27 96 27q54 0 96 -28l63 76l72 -63l-71 -86q25 -50 25 -117q0 -66 -25 -118zM288 257q15 25 15 85t-15 85t-48 25t-48.5 -25.5
t-15.5 -84.5t15.5 -84.5t48.5 -25.5t48 25z" />
    <glyph glyph-name="yen" unicode="&#xa5;" horiz-adv-x="475" 
d="M547 677l-185 -324h75l-13 -86h-103l-10 -68h105l-15 -86h-101l-16 -113h-165l15 113h-104l14 86h101l9 68h-102l13 86h71l-92 324h167l44 -279l118 279h174z" />
    <glyph glyph-name="brokenbar" unicode="&#xa6;" horiz-adv-x="294" 
d="M302 811l-52 -368h-157l52 368h157zM225 262l-51 -368h-157l51 368h157z" />
    <glyph glyph-name="section" unicode="&#xa7;" horiz-adv-x="466" 
d="M409 404q27 -30 27 -76q0 -48 -24 -83t-71 -61q22 -19 31.5 -40.5t9.5 -50.5q0 -49 -27 -90t-76 -65t-113 -24q-98 0 -164 56l66 93q25 -18 47.5 -25.5t49.5 -7.5q31 0 47 13.5t16 35.5t-17 36t-67 35q-53 22 -78.5 50.5t-25.5 74.5q0 92 93 143q-37 37 -37 92
q0 49 26 91t74 66.5t112 24.5q94 0 164 -57l-67 -91q-20 16 -44.5 24t-48.5 8q-62 0 -62 -48q0 -22 15.5 -35.5t66.5 -36.5q50 -22 77 -52zM269 230q13 18 19 33t6 34q0 20 -15 35t-50 30q-6 2 -12.5 5t-13.5 6q-11 -16 -16 -31t-5 -33q0 -19 10.5 -32.5t35.5 -25.5
q15 -7 41 -21z" />
    <glyph glyph-name="dieresis" unicode="&#xa8;" horiz-adv-x="427" 
d="M113 658.5q-19 19.5 -19 51.5q0 40 26.5 67t64.5 27q34 0 53.5 -19t19.5 -52q0 -40 -26.5 -67t-65.5 -27q-34 0 -53 19.5zM317.5 658.5q-19.5 19.5 -19.5 51.5q0 40 26.5 67t64.5 27q34 0 53.5 -19.5t19.5 -51.5q0 -40 -26.5 -67t-65.5 -27q-33 0 -52.5 19.5z" />
    <glyph glyph-name="copyright" unicode="&#xa9;" horiz-adv-x="669" 
d="M506.5 728q66.5 -42 105 -119t38.5 -177t-38.5 -176.5t-105 -118.5t-147.5 -42q-82 0 -149 42t-106 118.5t-39 176.5t39 177t106 119t149 42q81 0 147.5 -42zM256 655q-45 -30 -70.5 -87.5t-25.5 -135.5t25.5 -135t70.5 -87t103 -30q57 0 102 30t70.5 87t25.5 135
t-25.5 135.5t-70.5 87.5t-102 30q-58 0 -103 -30zM476 579l-46 -61q-17 12 -29.5 16.5t-26.5 4.5q-23 0 -37 -25t-14 -81q0 -59 14.5 -83t40.5 -24q15 0 27.5 6.5t28.5 20.5l45 -65q-25 -25 -55.5 -39.5t-62.5 -14.5q-72 0 -112 51.5t-40 147.5q0 92 42 144.5t113 52.5
q64 0 112 -51z" />
    <glyph glyph-name="ordfeminine" unicode="&#xaa;" horiz-adv-x="405" 
d="M69.5 294q-27.5 31 -27.5 82q0 65 44 109t139 44h30l1 11q2 14 2 18q0 19 -9 26.5t-29 7.5q-37 0 -91 -17l-22 89q34 15 73 23t72 8q72 0 108.5 -30t36.5 -94q0 -18 -3 -39l-18 -129q-1 -6 -1 -15t3.5 -15t13.5 -10l-43 -97q-35 2 -61 15.5t-36 39.5q-42 -58 -106 -58
q-49 0 -76.5 31zM235 385l9 64h-18q-40 0 -40 -55q0 -14 4 -20.5t14 -6.5q16 0 31 18zM-11 0l17 130h354l-17 -130h-354z" />
    <glyph glyph-name="guillemotleft" unicode="&#xab;" horiz-adv-x="558" 
d="M225 560l93 -69l-131 -209l73 -204l-114 -70l-130 222l18 107zM475 560l93 -69l-131 -209l73 -204l-114 -70l-130 222l18 107z" />
    <glyph glyph-name="logicalnot" unicode="&#xac;" horiz-adv-x="455" 
d="M438 395l-42 -287h-143l21 156h-239l18 131h385z" />
    <glyph glyph-name="uni00AD" unicode="&#xad;" horiz-adv-x="348" 
d="M33 248l17 130h278l-17 -130h-278z" />
    <glyph glyph-name="registered" unicode="&#xae;" horiz-adv-x="522" 
d="M414.5 726.5q53.5 -34.5 84 -97.5t30.5 -146q0 -82 -30.5 -144.5t-84 -97t-121.5 -34.5q-69 0 -123.5 34t-85.5 96.5t-31 144.5q0 83 31 146.5t85.5 98t123.5 34.5q68 0 121.5 -34.5zM408.5 330.5q43.5 53.5 43.5 152.5t-43.5 153.5t-115.5 54.5q-73 0 -118 -55t-45 -154
q0 -98 45 -151.5t118 -53.5q72 0 115.5 53.5zM405 350h-76l-43 102h-19v-102h-68v283h73q57 0 87 -23t30 -67t-45 -73zM267 513h23q12 0 20.5 8.5t8.5 25.5q0 31 -29 31h-23v-65z" />
    <glyph glyph-name="macron" unicode="&#xaf;" horiz-adv-x="327" 
d="M349 653h-264l18 117h264z" />
    <glyph glyph-name="degree" unicode="&#xb0;" horiz-adv-x="415" 
d="M100.5 404.5q-37.5 37.5 -37.5 105.5q0 57 22.5 103.5t62.5 73t90 26.5q57 0 94.5 -37.5t37.5 -106.5q0 -57 -22.5 -103t-62.5 -72.5t-90 -26.5q-57 0 -94.5 37.5zM248.5 492.5q14.5 31.5 14.5 74.5q0 27 -8.5 39t-25.5 12q-30 0 -44 -31t-14 -74q0 -52 33 -52
q30 0 44.5 31.5z" />
    <glyph glyph-name="plusminus" unicode="&#xb1;" horiz-adv-x="455" 
d="M9 0l18 130h369l-18 -130h-369zM350 642l-22 -157h122l-18 -130h-124l-24 -158h-133l23 158h-126l18 130h129l22 157h133z" />
    <glyph glyph-name="uni00B2" unicode="&#xb2;" horiz-adv-x="335" 
d="M314.5 720.5q33.5 -32.5 33.5 -79.5q0 -42 -18.5 -77.5t-52.5 -68.5t-94 -80h144l-26 -95h-257l13 88q98 90 133.5 136.5t35.5 83.5q0 15 -7.5 23.5t-20.5 8.5q-15 0 -29 -9.5t-33 -30.5l-60 55q65 78 150 78q55 0 88.5 -32.5z" />
    <glyph glyph-name="uni00B3" unicode="&#xb3;" horiz-adv-x="335" 
d="M312.5 724.5q32.5 -28.5 32.5 -72.5q0 -43 -27.5 -70.5t-76.5 -39.5q88 -6 88 -84q0 -40 -20 -74.5t-59 -55.5t-92 -21q-48 0 -79.5 18.5t-52.5 51.5l69 57q16 -18 30 -25.5t32 -7.5q23 0 38 17t15 46q0 19 -11.5 27.5t-37.5 8.5h-27l26 80h14q27 0 41 14t14 38
q0 31 -33 31t-71 -33l-49 62q65 61 148 61q56 0 88.5 -28.5z" />
    <glyph glyph-name="acute" unicode="&#xb4;" horiz-adv-x="316" 
d="M294 835l55 -120l-218 -95l-42 79z" />
    <glyph glyph-name="uni00B5" unicode="&#xb5;" horiz-adv-x="475" 
d="M411 53q0 -39 2 -54l-155 -15q-6 32 -6 68q-20 -31 -37.5 -45t-39.5 -14q-26 0 -41 20q5 -28 5 -62t-5 -68l-12 -89l-157 -16l106 755h166l-50 -370q-2 -18 -2 -23q0 -14 4 -20t13 -6q25 0 49 54l51 365h167l-49 -351q-9 -66 -9 -129z" />
    <glyph glyph-name="paragraph" unicode="&#xb6;" horiz-adv-x="668" 
d="M655 695l-126 -901l-143 -19l110 803h-68l-108 -784l-142 -19l68 485q-85 1 -130 48.5t-45 127.5q0 79 32.5 137.5t92 90t139.5 31.5h320z" />
    <glyph glyph-name="periodcentered" unicode="&#xb7;" horiz-adv-x="220" 
d="M46.5 236.5q-21.5 23.5 -21.5 58.5q0 44 29 74.5t73 30.5q37 0 58.5 -23.5t21.5 -59.5q0 -44 -29 -74t-73 -30q-37 0 -58.5 23.5z" />
    <glyph glyph-name="cedilla" unicode="&#xb8;" horiz-adv-x="299" 
d="M133 -51q38 -6 58.5 -27.5t20.5 -57.5q0 -30 -14.5 -60t-49 -50t-89.5 -20q-31 0 -56.5 9t-42.5 24l47 71q25 -14 49 -14q18 0 29 8t11 24t-16.5 23t-55.5 7l32 130h87z" />
    <glyph glyph-name="uni00B9" unicode="&#xb9;" horiz-adv-x="335" 
d="M325 743l-59 -423h-116l41 306l-75 -51l-43 77l144 91h108z" />
    <glyph glyph-name="ordmasculine" unicode="&#xba;" horiz-adv-x="417" 
d="M382 653.5q42 -41.5 42 -124.5q0 -73 -24 -133.5t-72 -96.5t-118 -36q-76 0 -118 41t-42 124q0 74 24 134.5t72.5 96.5t117.5 36q76 0 118 -41.5zM209.5 531q-14.5 -57 -14.5 -122q0 -21 6 -30t18 -9q31 0 46.5 58.5t15.5 120.5q0 39 -25 39q-32 0 -46.5 -57zM-14 0
l18 130h369l-18 -130h-369z" />
    <glyph glyph-name="guillemotright" unicode="&#xbb;" horiz-adv-x="558" 
d="M168 560l129 -223l-17 -107l-192 -222l-94 70l133 208l-74 205zM418 560l129 -223l-17 -107l-192 -222l-94 70l133 208l-74 205z" />
    <glyph glyph-name="onequarter" unicode="&#xbc;" horiz-adv-x="820" 
d="M318 695l-59 -423h-116l41 306l-75 -51l-43 77l144 91h108zM585 759l86 -47l-444 -799l-87 47zM790 173l-13 -91h-32l-11 -82h-107l11 82h-162l11 82l131 269l94 -38l-100 -222h41l37 93h81l-13 -93h32z" />
    <glyph glyph-name="onehalf" unicode="&#xbd;" horiz-adv-x="820" 
d="M318 695l-59 -423h-116l41 306l-75 -51l-43 77l144 91h108zM585 759l86 -47l-444 -799l-87 47zM754.5 400.5q33.5 -32.5 33.5 -79.5q0 -42 -18.5 -77.5t-52.5 -68.5t-94 -80h144l-26 -95h-257l13 88q98 90 133.5 136.5t35.5 83.5q0 15 -7.5 23.5t-20.5 8.5
q-15 0 -29 -9.5t-33 -30.5l-60 55q65 78 150 78q55 0 88.5 -32.5z" />
    <glyph glyph-name="threequarters" unicode="&#xbe;" horiz-adv-x="820" 
d="M305.5 676.5q32.5 -28.5 32.5 -72.5q0 -43 -27.5 -70.5t-76.5 -39.5q88 -6 88 -84q0 -40 -20 -74.5t-59 -55.5t-92 -21q-48 0 -79.5 18.5t-52.5 51.5l69 57q16 -18 30 -25.5t32 -7.5q23 0 38 17t15 46q0 19 -11.5 27.5t-37.5 8.5h-27l26 80h14q27 0 41 14t14 38
q0 31 -33 31t-71 -33l-49 62q65 61 148 61q56 0 88.5 -28.5zM585 759l86 -47l-444 -799l-87 47zM790 173l-13 -91h-32l-11 -82h-107l11 82h-162l11 82l131 269l94 -38l-100 -222h41l37 93h81l-13 -93h32z" />
    <glyph glyph-name="questiondown" unicode="&#xbf;" horiz-adv-x="412" 
d="M295.5 484.5q21.5 -23.5 21.5 -58.5q0 -44 -29 -74.5t-73 -30.5q-37 0 -58.5 23.5t-21.5 59.5q0 44 29 74t73 30q37 0 58.5 -23.5zM9.5 -180.5q-47.5 44.5 -47.5 112.5q0 44 15.5 75.5t38 52t57.5 44.5q40 28 58 47.5t18 50.5q0 16 -2 28l147 22q9 -31 9 -54
q0 -43 -14 -74t-34 -50.5t-51 -41.5q-34 -25 -49.5 -43.5t-15.5 -45.5q0 -34 34 -34q38 0 91 56l87 -82q-87 -108 -210 -108q-84 0 -131.5 44.5z" />
    <glyph glyph-name="Agrave" unicode="&#xc0;" horiz-adv-x="501" 
d="M300 0l-3 145h-128l-41 -145h-180l258 695h208l64 -695h-178zM204 271h91l-5 307zM288 947l176 -127l-49 -74l-197 84z" />
    <glyph glyph-name="Aacute" unicode="&#xc1;" horiz-adv-x="501" 
d="M300 0l-3 145h-128l-41 -145h-180l258 695h208l64 -695h-178zM204 271h91l-5 307zM413 950l56 -119l-219 -86l-39 79z" />
    <glyph glyph-name="Acircumflex" unicode="&#xc2;" horiz-adv-x="501" 
d="M300 0l-3 145h-128l-41 -145h-180l258 695h208l64 -695h-178zM204 271h91l-5 307zM209 757l-60 65l140 134h99l107 -142l-66 -57l-101 85z" />
    <glyph glyph-name="Atilde" unicode="&#xc3;" horiz-adv-x="501" 
d="M300 0l-3 145h-128l-41 -145h-180l258 695h208l64 -695h-178zM204 271h91l-5 307zM345.5 763.5q-12.5 6.5 -29.5 19.5q-2 2 -10 7.5t-14 8t-12 2.5q-13 0 -23.5 -10.5t-24.5 -33.5l-70 42q24 53 58.5 87.5t69.5 34.5q19 0 33 -7t30 -20q21 -17 34 -17q11 0 21 10t23 32
l72 -40q-24 -54 -59 -88t-71 -34q-15 0 -27.5 6.5z" />
    <glyph glyph-name="Adieresis" unicode="&#xc4;" horiz-adv-x="501" 
d="M300 0l-3 145h-128l-41 -145h-180l258 695h208l64 -695h-178zM204 271h91l-5 307zM165 784.5q-19 19.5 -19 51.5q0 40 26.5 67t64.5 27q34 0 53.5 -19t19.5 -52q0 -40 -26.5 -67t-65.5 -27q-34 0 -53 19.5zM369.5 784.5q-19.5 19.5 -19.5 51.5q0 40 26.5 67t64.5 27
q34 0 53.5 -19.5t19.5 -51.5q0 -40 -26.5 -67t-65.5 -27q-33 0 -52.5 19.5z" />
    <glyph glyph-name="Aring" unicode="&#xc5;" horiz-adv-x="501" 
d="M300 0l-3 145h-128l-41 -145h-180l258 695h208l64 -695h-178zM204 271h91l-5 307zM434 965q30 -33 30 -86q0 -64 -40 -106.5t-105 -42.5q-54 0 -83.5 32.5t-29.5 85.5q0 63 40 106.5t105 43.5q53 0 83 -33zM310.5 896.5q-11.5 -18.5 -11.5 -43.5q0 -40 28 -40
q20 0 32 18.5t12 43.5q0 20 -7.5 30t-20.5 10q-21 0 -32.5 -18.5z" />
    <glyph glyph-name="AE" unicode="&#xc6;" horiz-adv-x="706" 
d="M687 570h-195l-1 -158h187l-19 -122h-170l-1 -164h187l-20 -126h-327l4 145h-144l-53 -145h-188l306 695h471zM335 271l8 296l-109 -296h101z" />
    <glyph glyph-name="Ccedilla" unicode="&#xc7;" horiz-adv-x="484" 
d="M281 -16l-5 -35q38 -6 58.5 -27.5t20.5 -57.5q0 -30 -14.5 -60t-49 -50t-89.5 -20q-31 0 -56.5 9t-42.5 24l47 71q25 -14 49 -14q18 0 29 8t11 24t-16.5 23t-55.5 7l25 102q-77 17 -120.5 83t-43.5 179q0 126 36.5 231t110.5 168.5t181 63.5q106 0 175 -80l-89 -90
q-42 40 -88 40q-51 0 -84 -53t-47.5 -132t-14.5 -159q0 -64 19 -93t56 -29q27 0 51 12.5t59 38.5l63 -96q-78 -76 -175 -88z" />
    <glyph glyph-name="Egrave" unicode="&#xc8;" horiz-adv-x="423" 
d="M471 695l-38 -125h-179l-22 -156h160l-19 -123h-159l-22 -165h195l-18 -126h-370l98 695h374zM261 947l176 -127l-49 -74l-197 84z" />
    <glyph glyph-name="Eacute" unicode="&#xc9;" horiz-adv-x="423" 
d="M471 695l-38 -125h-179l-22 -156h160l-19 -123h-159l-22 -165h195l-18 -126h-370l98 695h374zM386 950l56 -119l-219 -86l-39 79z" />
    <glyph glyph-name="Ecircumflex" unicode="&#xca;" horiz-adv-x="423" 
d="M471 695l-38 -125h-179l-22 -156h160l-19 -123h-159l-22 -165h195l-18 -126h-370l98 695h374zM182 757l-60 65l140 134h99l107 -142l-66 -57l-101 85z" />
    <glyph glyph-name="Edieresis" unicode="&#xcb;" horiz-adv-x="423" 
d="M471 695l-38 -125h-179l-22 -156h160l-19 -123h-159l-22 -165h195l-18 -126h-370l98 695h374zM138 784.5q-19 19.5 -19 51.5q0 40 26.5 67t64.5 27q34 0 53.5 -19t19.5 -52q0 -40 -26.5 -67t-65.5 -27q-34 0 -53 19.5zM342.5 784.5q-19.5 19.5 -19.5 51.5q0 40 26.5 67
t64.5 27q34 0 53.5 -19.5t19.5 -51.5q0 -40 -26.5 -67t-65.5 -27q-33 0 -52.5 19.5z" />
    <glyph glyph-name="Igrave" unicode="&#xcc;" horiz-adv-x="248" 
d="M271 695l-98 -695h-174l98 695h174zM161 947l176 -127l-49 -74l-197 84z" />
    <glyph glyph-name="Iacute" unicode="&#xcd;" horiz-adv-x="248" 
d="M271 695l-98 -695h-174l98 695h174zM286 950l56 -119l-219 -86l-39 79z" />
    <glyph glyph-name="Icircumflex" unicode="&#xce;" horiz-adv-x="248" 
d="M271 695l-98 -695h-174l98 695h174zM82 757l-60 65l140 134h99l107 -142l-66 -57l-101 85z" />
    <glyph glyph-name="Idieresis" unicode="&#xcf;" horiz-adv-x="248" 
d="M271 695l-98 -695h-174l98 695h174zM38 784.5q-19 19.5 -19 51.5q0 40 26.5 67t64.5 27q34 0 53.5 -19t19.5 -52q0 -40 -26.5 -67t-65.5 -27q-34 0 -53 19.5zM242.5 784.5q-19.5 19.5 -19.5 51.5q0 40 26.5 67t64.5 27q34 0 53.5 -19.5t19.5 -51.5q0 -40 -26.5 -67
t-65.5 -27q-33 0 -52.5 19.5z" />
    <glyph glyph-name="Eth" unicode="&#xd0;" horiz-adv-x="557" 
d="M481 641q70 -54 70 -194q0 -206 -84.5 -326.5t-263.5 -120.5h-196l42 301h-37l16 104h36l41 290h186q120 0 190 -54zM315.5 177.5q32.5 50.5 46 125t13.5 150.5q0 62 -19.5 88.5t-59.5 26.5h-35l-23 -163h94l-17 -104h-91l-24 -174h30q53 0 85.5 50.5z" />
    <glyph glyph-name="Ntilde" unicode="&#xd1;" horiz-adv-x="534" 
d="M459 0h-206l-61 548q2 -68 2 -104q0 -105 -13 -210l-30 -234h-151l97 695h207l60 -549q-2 74 -2 103q0 92 12 192l33 254h149zM360.5 763.5q-12.5 6.5 -29.5 19.5q-2 2 -10 7.5t-14 8t-12 2.5q-13 0 -23.5 -10.5t-24.5 -33.5l-70 42q24 53 58.5 87.5t69.5 34.5
q19 0 33 -7t30 -20q21 -17 34 -17q11 0 21 10t23 32l72 -40q-24 -54 -59 -88t-71 -34q-15 0 -27.5 6.5z" />
    <glyph glyph-name="Ograve" unicode="&#xd2;" horiz-adv-x="580" 
d="M518 647.5q57 -65.5 57 -196.5q0 -125 -35.5 -232t-108 -172t-179.5 -65q-111 0 -167.5 66t-56.5 196q0 125 35 232t107.5 172t179.5 65q111 0 168 -65.5zM262.5 522.5q-30.5 -62.5 -44.5 -150t-14 -164.5q0 -53 14.5 -76t44.5 -23q47 0 77.5 61t44 147.5t13.5 165.5
q0 54 -14.5 78t-44.5 24q-46 0 -76.5 -62.5zM325 947l176 -127l-49 -74l-197 84z" />
    <glyph glyph-name="Oacute" unicode="&#xd3;" horiz-adv-x="580" 
d="M518 647.5q57 -65.5 57 -196.5q0 -125 -35.5 -232t-108 -172t-179.5 -65q-111 0 -167.5 66t-56.5 196q0 125 35 232t107.5 172t179.5 65q111 0 168 -65.5zM262.5 522.5q-30.5 -62.5 -44.5 -150t-14 -164.5q0 -53 14.5 -76t44.5 -23q47 0 77.5 61t44 147.5t13.5 165.5
q0 54 -14.5 78t-44.5 24q-46 0 -76.5 -62.5zM450 950l56 -119l-219 -86l-39 79z" />
    <glyph glyph-name="Ocircumflex" unicode="&#xd4;" horiz-adv-x="580" 
d="M518 647.5q57 -65.5 57 -196.5q0 -125 -35.5 -232t-108 -172t-179.5 -65q-111 0 -167.5 66t-56.5 196q0 125 35 232t107.5 172t179.5 65q111 0 168 -65.5zM262.5 522.5q-30.5 -62.5 -44.5 -150t-14 -164.5q0 -53 14.5 -76t44.5 -23q47 0 77.5 61t44 147.5t13.5 165.5
q0 54 -14.5 78t-44.5 24q-46 0 -76.5 -62.5zM246 757l-60 65l140 134h99l107 -142l-66 -57l-101 85z" />
    <glyph glyph-name="Otilde" unicode="&#xd5;" horiz-adv-x="580" 
d="M518 647.5q57 -65.5 57 -196.5q0 -125 -35.5 -232t-108 -172t-179.5 -65q-111 0 -167.5 66t-56.5 196q0 125 35 232t107.5 172t179.5 65q111 0 168 -65.5zM262.5 522.5q-30.5 -62.5 -44.5 -150t-14 -164.5q0 -53 14.5 -76t44.5 -23q47 0 77.5 61t44 147.5t13.5 165.5
q0 54 -14.5 78t-44.5 24q-46 0 -76.5 -62.5zM382.5 763.5q-12.5 6.5 -29.5 19.5q-2 2 -10 7.5t-14 8t-12 2.5q-13 0 -23.5 -10.5t-24.5 -33.5l-70 42q24 53 58.5 87.5t69.5 34.5q19 0 33 -7t30 -20q21 -17 34 -17q11 0 21 10t23 32l72 -40q-24 -54 -59 -88t-71 -34
q-15 0 -27.5 6.5z" />
    <glyph glyph-name="Odieresis" unicode="&#xd6;" horiz-adv-x="580" 
d="M518 647.5q57 -65.5 57 -196.5q0 -125 -35.5 -232t-108 -172t-179.5 -65q-111 0 -167.5 66t-56.5 196q0 125 35 232t107.5 172t179.5 65q111 0 168 -65.5zM262.5 522.5q-30.5 -62.5 -44.5 -150t-14 -164.5q0 -53 14.5 -76t44.5 -23q47 0 77.5 61t44 147.5t13.5 165.5
q0 54 -14.5 78t-44.5 24q-46 0 -76.5 -62.5zM202 784.5q-19 19.5 -19 51.5q0 40 26.5 67t64.5 27q34 0 53.5 -19t19.5 -52q0 -40 -26.5 -67t-65.5 -27q-34 0 -53 19.5zM406.5 784.5q-19.5 19.5 -19.5 51.5q0 40 26.5 67t64.5 27q34 0 53.5 -19.5t19.5 -51.5q0 -40 -26.5 -67
t-65.5 -27q-33 0 -52.5 19.5z" />
    <glyph glyph-name="multiply" unicode="&#xd7;" horiz-adv-x="439" 
d="M344 515l84 -84l-119 -126l92 -126l-103 -81l-85 121l-105 -121l-84 83l116 123l-91 130l104 81l82 -126z" />
    <glyph glyph-name="Oslash" unicode="&#xd8;" horiz-adv-x="580" 
d="M554 578.5q21 -54.5 21 -127.5q0 -125 -35.5 -232t-108 -172t-179.5 -65q-19 0 -29 1l-41 -119l-122 35l47 132q-39 33 -59 87t-20 126q0 125 35 232t107.5 172t179.5 65q18 0 26 -1l43 117l120 -35l-46 -128q40 -33 61 -87.5zM257 524.5q-32 -62.5 -46.5 -150.5
t-14.5 -166q0 -30 4 -46l145 425h-6q-50 0 -82 -62.5zM346 168q32 61 46 148t14 167q0 27 -3 46l-145 -422h5q51 0 83 61z" />
    <glyph glyph-name="Ugrave" unicode="&#xd9;" horiz-adv-x="526" 
d="M489 200q-9 -62 -41.5 -111t-88.5 -78t-130 -29q-105 0 -159 51.5t-54 133.5q0 20 3 39l68 489h174l-71 -510q-1 -6 -1 -19q0 -25 12.5 -39.5t38.5 -14.5q32 0 50 21t23 55l71 507h175zM299 947l176 -127l-49 -74l-197 84z" />
    <glyph glyph-name="Uacute" unicode="&#xda;" horiz-adv-x="526" 
d="M489 200q-9 -62 -41.5 -111t-88.5 -78t-130 -29q-105 0 -159 51.5t-54 133.5q0 20 3 39l68 489h174l-71 -510q-1 -6 -1 -19q0 -25 12.5 -39.5t38.5 -14.5q32 0 50 21t23 55l71 507h175zM424 950l56 -119l-219 -86l-39 79z" />
    <glyph glyph-name="Ucircumflex" unicode="&#xdb;" horiz-adv-x="526" 
d="M489 200q-9 -62 -41.5 -111t-88.5 -78t-130 -29q-105 0 -159 51.5t-54 133.5q0 20 3 39l68 489h174l-71 -510q-1 -6 -1 -19q0 -25 12.5 -39.5t38.5 -14.5q32 0 50 21t23 55l71 507h175zM220 757l-60 65l140 134h99l107 -142l-66 -57l-101 85z" />
    <glyph glyph-name="Udieresis" unicode="&#xdc;" horiz-adv-x="526" 
d="M489 200q-9 -62 -41.5 -111t-88.5 -78t-130 -29q-105 0 -159 51.5t-54 133.5q0 20 3 39l68 489h174l-71 -510q-1 -6 -1 -19q0 -25 12.5 -39.5t38.5 -14.5q32 0 50 21t23 55l71 507h175zM176 784.5q-19 19.5 -19 51.5q0 40 26.5 67t64.5 27q34 0 53.5 -19t19.5 -52
q0 -40 -26.5 -67t-65.5 -27q-34 0 -53 19.5zM380.5 784.5q-19.5 19.5 -19.5 51.5q0 40 26.5 67t64.5 27q34 0 53.5 -19.5t19.5 -51.5q0 -40 -26.5 -67t-65.5 -27q-33 0 -52.5 19.5z" />
    <glyph glyph-name="Yacute" unicode="&#xdd;" horiz-adv-x="502" 
d="M577 695l-240 -436l-36 -259h-174l36 258l-117 437h183l42 -304l120 304h186zM410 950l56 -119l-219 -86l-39 79z" />
    <glyph glyph-name="Thorn" unicode="&#xde;" horiz-adv-x="500" 
d="M447 537q60 -50 60 -148q0 -81 -33 -143.5t-95.5 -98t-150.5 -35.5h-38l-16 -112h-174l97 695h174l-15 -108h17q114 0 174 -50zM306.5 279q23.5 41 23.5 108q0 41 -16 58t-51 17h-25l-31 -224h20q56 0 79.5 41z" />
    <glyph glyph-name="germandbls" unicode="&#xdf;" horiz-adv-x="500" 
d="M-106 -101q49 21 74.5 51.5t33.5 89.5l67 493q15 108 77 168t163 60q79 0 121.5 -39.5t42.5 -100.5q0 -41 -13 -68t-36 -56q-18 -24 -26 -39.5t-8 -35.5q0 -17 8 -31t25 -35q28 -36 44 -70.5t16 -93.5q0 -55 -20.5 -102.5t-65.5 -77.5t-113 -30q-51 0 -94 24l54 116
q14 -10 30 -10q20 0 29.5 18.5t9.5 48.5q0 27 -7.5 47t-23.5 49q-17 29 -26.5 54.5t-9.5 61.5q0 34 9.5 58t27.5 53q18 32 26.5 53.5t8.5 51.5q0 35 -28 35q-22 0 -34 -26t-20 -80l-64 -474q-12 -84 -46 -139.5t-81.5 -87.5t-112.5 -58z" />
    <glyph glyph-name="agrave" unicode="&#xe0;" horiz-adv-x="482" 
d="M483 499l-48 -340q-3 -16 -3 -29t4.5 -21.5t15.5 -13.5l-52 -110q-42 4 -74 22.5t-44 52.5q-28 -39 -59 -58.5t-73 -19.5q-66 0 -101.5 50.5t-35.5 138.5q0 101 28.5 187t92.5 139.5t164 53.5q96 0 185 -52zM207 351.5q-26 -80.5 -26 -184.5q0 -34 7.5 -47.5t22.5 -13.5
q14 0 28 14.5t31 40.5l37 266q-13 5 -25 5q-49 0 -75 -80.5zM287 833l173 -137l-49 -74l-197 93z" />
    <glyph glyph-name="aacute" unicode="&#xe1;" horiz-adv-x="482" 
d="M483 499l-48 -340q-3 -16 -3 -29t4.5 -21.5t15.5 -13.5l-52 -110q-42 4 -74 22.5t-44 52.5q-28 -39 -59 -58.5t-73 -19.5q-66 0 -101.5 50.5t-35.5 138.5q0 101 28.5 187t92.5 139.5t164 53.5q96 0 185 -52zM207 351.5q-26 -80.5 -26 -184.5q0 -34 7.5 -47.5t22.5 -13.5
q14 0 28 14.5t31 40.5l37 266q-13 5 -25 5q-49 0 -75 -80.5zM399 835l55 -120l-218 -95l-42 79z" />
    <glyph glyph-name="acircumflex" unicode="&#xe2;" horiz-adv-x="482" 
d="M483 499l-48 -340q-3 -16 -3 -29t4.5 -21.5t15.5 -13.5l-52 -110q-42 4 -74 22.5t-44 52.5q-28 -39 -59 -58.5t-73 -19.5q-66 0 -101.5 50.5t-35.5 138.5q0 101 28.5 187t92.5 139.5t164 53.5q96 0 185 -52zM207 351.5q-26 -80.5 -26 -184.5q0 -34 7.5 -47.5t22.5 -13.5
q14 0 28 14.5t31 40.5l37 266q-13 5 -25 5q-49 0 -75 -80.5zM208 620l-55 66l139 141h100l105 -149l-69 -58l-96 94z" />
    <glyph glyph-name="atilde" unicode="&#xe3;" horiz-adv-x="482" 
d="M483 499l-48 -340q-3 -16 -3 -29t4.5 -21.5t15.5 -13.5l-52 -110q-42 4 -74 22.5t-44 52.5q-28 -39 -59 -58.5t-73 -19.5q-66 0 -101.5 50.5t-35.5 138.5q0 101 28.5 187t92.5 139.5t164 53.5q96 0 185 -52zM207 351.5q-26 -80.5 -26 -184.5q0 -34 7.5 -47.5t22.5 -13.5
q14 0 28 14.5t31 40.5l37 266q-13 5 -25 5q-49 0 -75 -80.5zM340.5 637.5q-12.5 6.5 -29.5 19.5q-2 2 -10 7.5t-14 8t-12 2.5q-13 0 -23.5 -10.5t-24.5 -33.5l-70 42q24 53 58.5 87.5t69.5 34.5q19 0 33 -7t30 -20q21 -17 34 -17q11 0 21 10t23 32l72 -40q-24 -54 -59 -88
t-71 -34q-15 0 -27.5 6.5z" />
    <glyph glyph-name="adieresis" unicode="&#xe4;" horiz-adv-x="482" 
d="M483 499l-48 -340q-3 -16 -3 -29t4.5 -21.5t15.5 -13.5l-52 -110q-42 4 -74 22.5t-44 52.5q-28 -39 -59 -58.5t-73 -19.5q-66 0 -101.5 50.5t-35.5 138.5q0 101 28.5 187t92.5 139.5t164 53.5q96 0 185 -52zM207 351.5q-26 -80.5 -26 -184.5q0 -34 7.5 -47.5t22.5 -13.5
q14 0 28 14.5t31 40.5l37 266q-13 5 -25 5q-49 0 -75 -80.5zM163 658.5q-19 19.5 -19 51.5q0 40 26.5 67t64.5 27q34 0 53.5 -19t19.5 -52q0 -40 -26.5 -67t-65.5 -27q-34 0 -53 19.5zM367.5 658.5q-19.5 19.5 -19.5 51.5q0 40 26.5 67t64.5 27q34 0 53.5 -19.5t19.5 -51.5
q0 -40 -26.5 -67t-65.5 -27q-33 0 -52.5 19.5z" />
    <glyph glyph-name="aring" unicode="&#xe5;" horiz-adv-x="482" 
d="M483 499l-48 -340q-3 -16 -3 -29t4.5 -21.5t15.5 -13.5l-52 -110q-42 4 -74 22.5t-44 52.5q-28 -39 -59 -58.5t-73 -19.5q-66 0 -101.5 50.5t-35.5 138.5q0 101 28.5 187t92.5 139.5t164 53.5q96 0 185 -52zM207 351.5q-26 -80.5 -26 -184.5q0 -34 7.5 -47.5t22.5 -13.5
q14 0 28 14.5t31 40.5l37 266q-13 5 -25 5q-49 0 -75 -80.5zM429 838q30 -33 30 -86q0 -64 -40 -106.5t-105 -42.5q-54 0 -83.5 32.5t-29.5 85.5q0 63 40 106.5t105 43.5q53 0 83 -33zM305.5 769.5q-11.5 -18.5 -11.5 -43.5q0 -40 28 -40q20 0 32 18.5t12 43.5q0 20 -7.5 30
t-20.5 10q-21 0 -32.5 -18.5z" />
    <glyph glyph-name="ae" unicode="&#xe6;" horiz-adv-x="708" 
d="M324.5 536q28.5 -14 50.5 -43q66 58 164 58q80 0 127 -41t45 -106q-6 -179 -287 -212q0 -46 13 -66t47 -20q27 0 52 11t58 35l56 -97q-87 -73 -196 -73q-113 0 -163 78q-35 -43 -73 -60.5t-81 -17.5q-63 0 -101 39t-38 102q0 86 54.5 143.5t189.5 57.5h34q5 20 16 51
q-4 25 -23 38t-48 13q-50 0 -115 -26l-21 112q43 18 87 28t80 10q44 0 72.5 -14zM465.5 397.5q-21.5 -41.5 -31.5 -105.5q60 6 88 38.5t28 73.5q0 35 -31 35q-32 0 -53.5 -41.5zM240 228q-31 0 -48.5 -20.5t-17.5 -60.5q0 -45 29 -45q14 0 27.5 13.5t30.5 39.5q-2 20 -2 32
q0 23 2 41h-21z" />
    <glyph glyph-name="ccedilla" unicode="&#xe7;" horiz-adv-x="400" 
d="M239 -17l-5 -34q38 -6 58.5 -27.5t20.5 -57.5q0 -30 -14.5 -60t-49 -50t-89.5 -20q-31 0 -56.5 9t-42.5 24l47 71q25 -14 49 -14q18 0 29 8t11 24t-16.5 23t-55.5 7l26 104q-64 17 -99.5 71.5t-35.5 138.5q0 98 32 178t93 126.5t144 46.5q50 0 87.5 -17t67.5 -51l-80 -90
q-18 15 -34 22t-34 7q-53 0 -77.5 -68t-24.5 -157q0 -48 13 -66t39 -18q17 0 34.5 7t40.5 22l59 -98q-62 -53 -137 -61z" />
    <glyph glyph-name="egrave" unicode="&#xe8;" horiz-adv-x="463" 
d="M421 510q47 -41 45 -106q-6 -179 -287 -212v-14q0 -72 61 -72q26 0 51 11t58 35l56 -97q-87 -73 -195 -73q-92 0 -143.5 51t-51.5 152q0 102 31 185t94 132t154 49q80 0 127 -41zM277 331q28 32 28 73q0 35 -30 35q-32 0 -53.5 -41.5t-32.5 -104.5q60 6 88 38zM271 833
l173 -137l-49 -74l-197 93z" />
    <glyph glyph-name="eacute" unicode="&#xe9;" horiz-adv-x="463" 
d="M421 510q47 -41 45 -106q-6 -179 -287 -212v-14q0 -72 61 -72q26 0 51 11t58 35l56 -97q-87 -73 -195 -73q-92 0 -143.5 51t-51.5 152q0 102 31 185t94 132t154 49q80 0 127 -41zM277 331q28 32 28 73q0 35 -30 35q-32 0 -53.5 -41.5t-32.5 -104.5q60 6 88 38zM383 835
l55 -120l-218 -95l-42 79z" />
    <glyph glyph-name="ecircumflex" unicode="&#xea;" horiz-adv-x="463" 
d="M421 510q47 -41 45 -106q-6 -179 -287 -212v-14q0 -72 61 -72q26 0 51 11t58 35l56 -97q-87 -73 -195 -73q-92 0 -143.5 51t-51.5 152q0 102 31 185t94 132t154 49q80 0 127 -41zM277 331q28 32 28 73q0 35 -30 35q-32 0 -53.5 -41.5t-32.5 -104.5q60 6 88 38zM192 620
l-55 66l139 141h100l105 -149l-69 -58l-96 94z" />
    <glyph glyph-name="edieresis" unicode="&#xeb;" horiz-adv-x="463" 
d="M421 510q47 -41 45 -106q-6 -179 -287 -212v-14q0 -72 61 -72q26 0 51 11t58 35l56 -97q-87 -73 -195 -73q-92 0 -143.5 51t-51.5 152q0 102 31 185t94 132t154 49q80 0 127 -41zM277 331q28 32 28 73q0 35 -30 35q-32 0 -53.5 -41.5t-32.5 -104.5q60 6 88 38zM147 658.5
q-19 19.5 -19 51.5q0 40 26.5 67t64.5 27q34 0 53.5 -19t19.5 -52q0 -40 -26.5 -67t-65.5 -27q-34 0 -53 19.5zM351.5 658.5q-19.5 19.5 -19.5 51.5q0 40 26.5 67t64.5 27q34 0 53.5 -19.5t19.5 -51.5q0 -40 -26.5 -67t-65.5 -27q-33 0 -52.5 19.5z" />
    <glyph glyph-name="igrave" unicode="&#xec;" horiz-adv-x="235" 
d="M238 533l-74 -533h-167l74 533h167zM139 833l173 -137l-49 -74l-197 93z" />
    <glyph glyph-name="iacute" unicode="&#xed;" horiz-adv-x="235" 
d="M238 533l-74 -533h-167l74 533h167zM251 835l55 -120l-218 -95l-42 79z" />
    <glyph glyph-name="icircumflex" unicode="&#xee;" horiz-adv-x="235" 
d="M238 533l-74 -533h-167l74 533h167zM60 620l-55 66l139 141h100l105 -149l-69 -58l-96 94z" />
    <glyph glyph-name="idieresis" unicode="&#xef;" horiz-adv-x="235" 
d="M238 533l-74 -533h-167l74 533h167zM15 658.5q-19 19.5 -19 51.5q0 40 26.5 67t64.5 27q34 0 53.5 -19t19.5 -52q0 -40 -26.5 -67t-65.5 -27q-34 0 -53 19.5zM219.5 658.5q-19.5 19.5 -19.5 51.5q0 40 26.5 67t64.5 27q34 0 53.5 -19.5t19.5 -51.5q0 -40 -26.5 -67
t-65.5 -27q-33 0 -52.5 19.5z" />
    <glyph glyph-name="eth" unicode="&#xf0;" horiz-adv-x="493" 
d="M449 545q27 -68 27 -157q0 -110 -31 -202.5t-93 -148t-149 -55.5t-139 54t-52 150q0 68 27 136.5t74.5 113t104.5 44.5q33 0 56.5 -11.5t42.5 -33.5q-3 48 -15 80t-38 62l-50 -51l-88 48l57 58q-37 15 -69 21l45 106q47 -8 116 -37l75 79l72 -66l-59 -67q59 -55 86 -123z
M276.5 160.5q17.5 55.5 30.5 168.5q-18 33 -47 33q-42 0 -62.5 -61.5t-20.5 -128.5q0 -36 10.5 -51.5t31.5 -15.5q40 0 57.5 55.5z" />
    <glyph glyph-name="ntilde" unicode="&#xf1;" horiz-adv-x="468" 
d="M432 518.5q27 -32.5 27 -88.5q0 -18 -3 -38l-56 -392h-167l50 362q1 6 1 15q0 22 -13 22q-12 0 -26 -22.5t-39 -76.5l-42 -300h-167l74 533h145v-81q63 99 142 99q47 0 74 -32.5zM313.5 637.5q-12.5 6.5 -29.5 19.5q-2 2 -10 7.5t-14 8t-12 2.5q-13 0 -23.5 -10.5
t-24.5 -33.5l-70 42q24 53 58.5 87.5t69.5 34.5q19 0 33 -7t30 -20q21 -17 34 -17q11 0 21 10t23 32l72 -40q-24 -54 -59 -88t-71 -34q-15 0 -27.5 6.5z" />
    <glyph glyph-name="ograve" unicode="&#xf2;" horiz-adv-x="492" 
d="M66 35.5q-51 53.5 -51 158.5q0 95 30 176.5t91 131t148 49.5q90 0 141 -54t51 -159q0 -95 -30 -176.5t-90.5 -130.5t-147.5 -49q-91 0 -142 53.5zM270 147.5q20 42.5 29 103t9 113.5q0 33 -9 48t-27 15q-31 0 -50.5 -42.5t-28.5 -102t-9 -113.5q0 -34 9 -49t27 -15
q30 0 50 42.5zM267 833l173 -137l-49 -74l-197 93z" />
    <glyph glyph-name="oacute" unicode="&#xf3;" horiz-adv-x="492" 
d="M66 35.5q-51 53.5 -51 158.5q0 95 30 176.5t91 131t148 49.5q90 0 141 -54t51 -159q0 -95 -30 -176.5t-90.5 -130.5t-147.5 -49q-91 0 -142 53.5zM270 147.5q20 42.5 29 103t9 113.5q0 33 -9 48t-27 15q-31 0 -50.5 -42.5t-28.5 -102t-9 -113.5q0 -34 9 -49t27 -15
q30 0 50 42.5zM379 835l55 -120l-218 -95l-42 79z" />
    <glyph glyph-name="ocircumflex" unicode="&#xf4;" horiz-adv-x="492" 
d="M66 35.5q-51 53.5 -51 158.5q0 95 30 176.5t91 131t148 49.5q90 0 141 -54t51 -159q0 -95 -30 -176.5t-90.5 -130.5t-147.5 -49q-91 0 -142 53.5zM270 147.5q20 42.5 29 103t9 113.5q0 33 -9 48t-27 15q-31 0 -50.5 -42.5t-28.5 -102t-9 -113.5q0 -34 9 -49t27 -15
q30 0 50 42.5zM188 620l-55 66l139 141h100l105 -149l-69 -58l-96 94z" />
    <glyph glyph-name="otilde" unicode="&#xf5;" horiz-adv-x="492" 
d="M66 35.5q-51 53.5 -51 158.5q0 95 30 176.5t91 131t148 49.5q90 0 141 -54t51 -159q0 -95 -30 -176.5t-90.5 -130.5t-147.5 -49q-91 0 -142 53.5zM270 147.5q20 42.5 29 103t9 113.5q0 33 -9 48t-27 15q-31 0 -50.5 -42.5t-28.5 -102t-9 -113.5q0 -34 9 -49t27 -15
q30 0 50 42.5zM320.5 637.5q-12.5 6.5 -29.5 19.5q-2 2 -10 7.5t-14 8t-12 2.5q-13 0 -23.5 -10.5t-24.5 -33.5l-70 42q24 53 58.5 87.5t69.5 34.5q19 0 33 -7t30 -20q21 -17 34 -17q11 0 21 10t23 32l72 -40q-24 -54 -59 -88t-71 -34q-15 0 -27.5 6.5z" />
    <glyph glyph-name="odieresis" unicode="&#xf6;" horiz-adv-x="492" 
d="M66 35.5q-51 53.5 -51 158.5q0 95 30 176.5t91 131t148 49.5q90 0 141 -54t51 -159q0 -95 -30 -176.5t-90.5 -130.5t-147.5 -49q-91 0 -142 53.5zM270 147.5q20 42.5 29 103t9 113.5q0 33 -9 48t-27 15q-31 0 -50.5 -42.5t-28.5 -102t-9 -113.5q0 -34 9 -49t27 -15
q30 0 50 42.5zM143 658.5q-19 19.5 -19 51.5q0 40 26.5 67t64.5 27q34 0 53.5 -19t19.5 -52q0 -40 -26.5 -67t-65.5 -27q-34 0 -53 19.5zM347.5 658.5q-19.5 19.5 -19.5 51.5q0 40 26.5 67t64.5 27q34 0 53.5 -19.5t19.5 -51.5q0 -40 -26.5 -67t-65.5 -27q-33 0 -52.5 19.5z
" />
    <glyph glyph-name="divide" unicode="&#xf7;" horiz-adv-x="439" 
d="M132.5 18.5q-21.5 23.5 -21.5 58.5q0 44 29 74.5t73 30.5q37 0 58.5 -23.5t21.5 -59.5q0 -44 -29 -74t-73 -30q-37 0 -58.5 23.5zM199.5 504.5q-21.5 23.5 -21.5 58.5q0 44 29 74.5t73 30.5q37 0 58.5 -23.5t21.5 -59.5q0 -44 -29 -74t-73 -30q-37 0 -58.5 23.5zM35 267
l18 130h369l-18 -130h-369z" />
    <glyph glyph-name="oslash" unicode="&#xf8;" horiz-adv-x="492" 
d="M458.5 439.5q17.5 -43.5 17.5 -101.5q0 -95 -30 -176.5t-90.5 -130.5t-147.5 -49h-16l-45 -117l-112 35l49 122q-33 27 -51 70.5t-18 101.5q0 95 30 176.5t91 131t148 49.5h16l44 118l112 -37l-48 -122q33 -27 50.5 -70.5zM194.5 355.5q-26.5 -82.5 -26.5 -186.5
q0 -19 1 -27l1 1l98 282l4 14q-51 -1 -77.5 -83.5zM298 178q26 83 26 186q0 16 -1 22l-2 -3l-95 -276l-4 -14q50 2 76 85z" />
    <glyph glyph-name="ugrave" unicode="&#xf9;" horiz-adv-x="462" 
d="M38 14.5q-28 32.5 -28 88.5q0 17 3 35l55 395h167l-51 -369q-1 -5 -1 -14q0 -20 13 -20q24 0 56 60l47 343h167l-75 -533h-145l3 71q-28 -42 -59.5 -65.5t-76.5 -23.5q-47 0 -75 32.5zM252 833l173 -137l-49 -74l-197 93z" />
    <glyph glyph-name="uacute" unicode="&#xfa;" horiz-adv-x="462" 
d="M38 14.5q-28 32.5 -28 88.5q0 17 3 35l55 395h167l-51 -369q-1 -5 -1 -14q0 -20 13 -20q24 0 56 60l47 343h167l-75 -533h-145l3 71q-28 -42 -59.5 -65.5t-76.5 -23.5q-47 0 -75 32.5zM364 835l55 -120l-218 -95l-42 79z" />
    <glyph glyph-name="ucircumflex" unicode="&#xfb;" horiz-adv-x="462" 
d="M38 14.5q-28 32.5 -28 88.5q0 17 3 35l55 395h167l-51 -369q-1 -5 -1 -14q0 -20 13 -20q24 0 56 60l47 343h167l-75 -533h-145l3 71q-28 -42 -59.5 -65.5t-76.5 -23.5q-47 0 -75 32.5zM173 620l-55 66l139 141h100l105 -149l-69 -58l-96 94z" />
    <glyph glyph-name="udieresis" unicode="&#xfc;" horiz-adv-x="462" 
d="M38 14.5q-28 32.5 -28 88.5q0 17 3 35l55 395h167l-51 -369q-1 -5 -1 -14q0 -20 13 -20q24 0 56 60l47 343h167l-75 -533h-145l3 71q-28 -42 -59.5 -65.5t-76.5 -23.5q-47 0 -75 32.5zM128 658.5q-19 19.5 -19 51.5q0 40 26.5 67t64.5 27q34 0 53.5 -19t19.5 -52
q0 -40 -26.5 -67t-65.5 -27q-34 0 -53 19.5zM332.5 658.5q-19.5 19.5 -19.5 51.5q0 40 26.5 67t64.5 27q34 0 53.5 -19.5t19.5 -51.5q0 -40 -26.5 -67t-65.5 -27q-33 0 -52.5 19.5z" />
    <glyph glyph-name="yacute" unicode="&#xfd;" horiz-adv-x="439" 
d="M284 -1q-43 -114 -117.5 -165.5t-189.5 -57.5l-2 115q65 10 99 32.5t59 76.5h-60l-45 533h172l-6 -425l117 425h176zM354 835l55 -120l-218 -95l-42 79z" />
    <glyph glyph-name="thorn" unicode="&#xfe;" horiz-adv-x="492" 
d="M446 505q33 -46 33 -133q0 -172 -62 -281t-187 -109q-36 0 -68 9l-28 -197l-169 -18l135 967l170 17l-38 -269q19 28 51.5 44t67.5 16q62 0 95 -46zM268.5 146.5q21.5 43.5 31.5 104.5t10 114q0 35 -8 48.5t-24 13.5q-14 0 -30.5 -12.5t-30.5 -34.5l-39 -268q21 -9 36 -9
q33 0 54.5 43.5z" />
    <glyph glyph-name="ydieresis" unicode="&#xff;" horiz-adv-x="439" 
d="M284 -1q-43 -114 -117.5 -165.5t-189.5 -57.5l-2 115q65 10 99 32.5t59 76.5h-60l-45 533h172l-6 -425l117 425h176zM118 658.5q-19 19.5 -19 51.5q0 40 26.5 67t64.5 27q34 0 53.5 -19t19.5 -52q0 -40 -26.5 -67t-65.5 -27q-34 0 -53 19.5zM322.5 658.5
q-19.5 19.5 -19.5 51.5q0 40 26.5 67t64.5 27q34 0 53.5 -19.5t19.5 -51.5q0 -40 -26.5 -67t-65.5 -27q-33 0 -52.5 19.5z" />
    <glyph glyph-name="Amacron" unicode="&#x100;" horiz-adv-x="501" 
d="M300 0l-3 145h-128l-41 -145h-180l258 695h208l64 -695h-178zM204 271h91l-5 307zM451 779h-264l18 117h264z" />
    <glyph glyph-name="amacron" unicode="&#x101;" horiz-adv-x="482" 
d="M483 499l-48 -340q-3 -16 -3 -29t4.5 -21.5t15.5 -13.5l-52 -110q-42 4 -74 22.5t-44 52.5q-28 -39 -59 -58.5t-73 -19.5q-66 0 -101.5 50.5t-35.5 138.5q0 101 28.5 187t92.5 139.5t164 53.5q96 0 185 -52zM207 351.5q-26 -80.5 -26 -184.5q0 -34 7.5 -47.5t22.5 -13.5
q14 0 28 14.5t31 40.5l37 266q-13 5 -25 5q-49 0 -75 -80.5zM449 653h-264l18 117h264z" />
    <glyph glyph-name="Abreve" unicode="&#x102;" horiz-adv-x="501" 
d="M300 0l-3 145h-128l-41 -145h-180l258 695h208l64 -695h-178zM204 271h91l-5 307zM222 791.5q-33 42.5 -33 107.5q0 14 1 21l85 14q2 -31 15 -49.5t40 -18.5q50 0 74 70l87 -19q-14 -74 -56.5 -121t-113.5 -47q-66 0 -99 42.5z" />
    <glyph glyph-name="abreve" unicode="&#x103;" horiz-adv-x="482" 
d="M483 499l-48 -340q-3 -16 -3 -29t4.5 -21.5t15.5 -13.5l-52 -110q-42 4 -74 22.5t-44 52.5q-28 -39 -59 -58.5t-73 -19.5q-66 0 -101.5 50.5t-35.5 138.5q0 101 28.5 187t92.5 139.5t164 53.5q96 0 185 -52zM207 351.5q-26 -80.5 -26 -184.5q0 -34 7.5 -47.5t22.5 -13.5
q14 0 28 14.5t31 40.5l37 266q-13 5 -25 5q-49 0 -75 -80.5zM217 674q-34 44 -34 114q0 16 1 24l86 13q2 -37 15.5 -57t39.5 -20q27 0 46.5 21t30.5 58l83 -19q-15 -79 -57 -128.5t-111 -49.5q-66 0 -100 44z" />
    <glyph glyph-name="Aogonek" unicode="&#x104;" horiz-adv-x="501" 
d="M286 -112q0 -33 38 -33q18 0 46 5l-23 -100q-29 -8 -61 -8q-52 0 -84.5 30t-32.5 82q0 51 32 90.5t99 70.5l-3 120h-128l-41 -145h-180l258 695h208l64 -695h-84q-108 -48 -108 -112zM204 271h91l-5 307z" />
    <glyph glyph-name="aogonek" unicode="&#x105;" horiz-adv-x="482" 
d="M432 130q0 -13 4.5 -21.5t15.5 -13.5l-52 -110q-108 -48 -108 -112q0 -33 38 -33q18 0 46 5l-23 -100q-29 -8 -61 -8q-52 0 -84.5 30t-32.5 82q0 53 34.5 93.5t105.5 72.5q-22 16 -33 45q-28 -39 -59 -58.5t-73 -19.5q-66 0 -101.5 50.5t-35.5 138.5q0 101 28.5 187
t92.5 139.5t164 53.5q96 0 185 -52l-48 -340q-3 -16 -3 -29zM307 427q-13 5 -25 5q-49 0 -75 -80.5t-26 -184.5q0 -34 7.5 -47.5t22.5 -13.5q14 0 28 14.5t31 40.5z" />
    <glyph glyph-name="Cacute" unicode="&#x106;" horiz-adv-x="484" 
d="M531 633l-89 -90q-42 40 -88 40q-51 0 -84 -53t-47.5 -132t-14.5 -159q0 -64 19 -93t56 -29q27 0 51 12.5t59 38.5l63 -96q-94 -90 -209 -90q-101 0 -160 68t-59 200q0 126 36.5 231t110.5 168.5t181 63.5q106 0 175 -80zM454 950l56 -119l-219 -86l-39 79z" />
    <glyph glyph-name="cacute" unicode="&#x107;" horiz-adv-x="400" 
d="M372.5 534q37.5 -17 67.5 -51l-80 -90q-18 15 -34 22t-34 7q-53 0 -77.5 -68t-24.5 -157q0 -48 13 -66t39 -18q17 0 34.5 7t40.5 22l59 -98q-73 -62 -164 -62q-92 0 -144 57.5t-52 160.5q0 98 32 178t93 126.5t144 46.5q50 0 87.5 -17zM376 835l55 -120l-218 -95l-42 79z
" />
    <glyph glyph-name="Ccircumflex" unicode="&#x108;" horiz-adv-x="484" 
d="M531 633l-89 -90q-42 40 -88 40q-51 0 -84 -53t-47.5 -132t-14.5 -159q0 -64 19 -93t56 -29q27 0 51 12.5t59 38.5l63 -96q-94 -90 -209 -90q-101 0 -160 68t-59 200q0 126 36.5 231t110.5 168.5t181 63.5q106 0 175 -80zM250 757l-60 65l140 134h99l107 -142l-66 -57
l-101 85z" />
    <glyph glyph-name="ccircumflex" unicode="&#x109;" horiz-adv-x="400" 
d="M372.5 534q37.5 -17 67.5 -51l-80 -90q-18 15 -34 22t-34 7q-53 0 -77.5 -68t-24.5 -157q0 -48 13 -66t39 -18q17 0 34.5 7t40.5 22l59 -98q-73 -62 -164 -62q-92 0 -144 57.5t-52 160.5q0 98 32 178t93 126.5t144 46.5q50 0 87.5 -17zM185 620l-55 66l139 141h100
l105 -149l-69 -58l-96 94z" />
    <glyph glyph-name="Cdotaccent" unicode="&#x10a;" horiz-adv-x="484" 
d="M531 633l-89 -90q-42 40 -88 40q-51 0 -84 -53t-47.5 -132t-14.5 -159q0 -64 19 -93t56 -29q27 0 51 12.5t59 38.5l63 -96q-94 -90 -209 -90q-101 0 -160 68t-59 200q0 126 36.5 231t110.5 168.5t181 63.5q106 0 175 -80zM303.5 775q-22.5 22 -22.5 59q0 47 30.5 77.5
t75.5 30.5q40 0 62.5 -22t22.5 -59q0 -47 -30.5 -77.5t-75.5 -30.5q-40 0 -62.5 22z" />
    <glyph glyph-name="cdotaccent" unicode="&#x10b;" horiz-adv-x="400" 
d="M372.5 534q37.5 -17 67.5 -51l-80 -90q-18 15 -34 22t-34 7q-53 0 -77.5 -68t-24.5 -157q0 -48 13 -66t39 -18q17 0 34.5 7t40.5 22l59 -98q-73 -62 -164 -62q-92 0 -144 57.5t-52 160.5q0 98 32 178t93 126.5t144 46.5q50 0 87.5 -17zM232.5 649q-22.5 22 -22.5 59
q0 47 30.5 77.5t75.5 30.5q40 0 62.5 -22t22.5 -59q0 -47 -30.5 -77.5t-75.5 -30.5q-40 0 -62.5 22z" />
    <glyph glyph-name="Ccaron" unicode="&#x10c;" horiz-adv-x="484" 
d="M531 633l-89 -90q-42 40 -88 40q-51 0 -84 -53t-47.5 -132t-14.5 -159q0 -64 19 -93t56 -29q27 0 51 12.5t59 38.5l63 -96q-94 -90 -209 -90q-101 0 -160 68t-59 200q0 126 36.5 231t110.5 168.5t181 63.5q106 0 175 -80zM489 948l60 -66l-140 -133h-99l-107 142l66 57
l101 -86z" />
    <glyph glyph-name="ccaron" unicode="&#x10d;" horiz-adv-x="400" 
d="M372.5 534q37.5 -17 67.5 -51l-80 -90q-18 15 -34 22t-34 7q-53 0 -77.5 -68t-24.5 -157q0 -48 13 -66t39 -18q17 0 34.5 7t40.5 22l59 -98q-73 -62 -164 -62q-92 0 -144 57.5t-52 160.5q0 98 32 178t93 126.5t144 46.5q50 0 87.5 -17zM423 815l55 -65l-139 -141h-100
l-98 141l61 65l97 -93z" />
    <glyph glyph-name="Dcaron" unicode="&#x10e;" horiz-adv-x="549" 
d="M473 641q70 -54 70 -194q0 -206 -84.5 -326.5t-263.5 -120.5h-196l98 695h186q120 0 190 -54zM253 568l-61 -441h30q53 0 85.5 50.5t46 125t13.5 150.5q0 62 -19.5 88.5t-59.5 26.5h-35zM441 948l60 -66l-140 -133h-99l-107 142l66 57l101 -86z" />
    <glyph glyph-name="dcaron" unicode="&#x10f;" horiz-adv-x="595" 
d="M527 743l-104 -743h-148l2 61q-27 -40 -57.5 -59.5t-72.5 -19.5q-64 0 -99 48.5t-35 140.5q0 96 26 183.5t76 142t120 54.5q59 0 91 -47l35 256zM223 386.5q-20 -41.5 -30 -101.5t-10 -112q0 -39 8 -53.5t24 -14.5q29 0 64 62l32 232q-8 15 -17 22t-23 7q-28 0 -48 -41.5
zM564 757l116 -15l-71 -222l-83 8z" />
    <glyph glyph-name="Dcroat" unicode="&#x110;" horiz-adv-x="557" 
d="M481 641q70 -54 70 -194q0 -206 -84.5 -326.5t-263.5 -120.5h-196l42 301h-37l16 104h36l41 290h186q120 0 190 -54zM315.5 177.5q32.5 50.5 46 125t13.5 150.5q0 62 -19.5 88.5t-59.5 26.5h-35l-23 -163h94l-17 -104h-91l-24 -174h30q53 0 85.5 50.5z" />
    <glyph glyph-name="dcroat" unicode="&#x111;" horiz-adv-x="503" 
d="M546 594h-40l-83 -594h-148l2 61q-27 -40 -57.5 -59.5t-72.5 -19.5q-64 0 -99 48.5t-35 140.5q0 96 26 183.5t76 142t120 54.5q59 0 91 -47l12 90h-90l4 96h99l10 70l166 -17l-7 -53h41zM311 399q-8 15 -17 22t-23 7q-28 0 -48 -41.5t-30 -101.5t-10 -112q0 -39 8 -53.5
t24 -14.5q29 0 64 62z" />
    <glyph glyph-name="Emacron" unicode="&#x112;" horiz-adv-x="423" 
d="M471 695l-38 -125h-179l-22 -156h160l-19 -123h-159l-22 -165h195l-18 -126h-370l98 695h374zM424 779h-264l18 117h264z" />
    <glyph glyph-name="emacron" unicode="&#x113;" horiz-adv-x="463" 
d="M421 510q47 -41 45 -106q-6 -179 -287 -212v-14q0 -72 61 -72q26 0 51 11t58 35l56 -97q-87 -73 -195 -73q-92 0 -143.5 51t-51.5 152q0 102 31 185t94 132t154 49q80 0 127 -41zM277 331q28 32 28 73q0 35 -30 35q-32 0 -53.5 -41.5t-32.5 -104.5q60 6 88 38zM433 653
h-264l18 117h264z" />
    <glyph glyph-name="Ebreve" unicode="&#x114;" horiz-adv-x="423" 
d="M471 695l-38 -125h-179l-22 -156h160l-19 -123h-159l-22 -165h195l-18 -126h-370l98 695h374zM195 791.5q-33 42.5 -33 107.5q0 14 1 21l85 14q2 -31 15 -49.5t40 -18.5q50 0 74 70l87 -19q-14 -74 -56.5 -121t-113.5 -47q-66 0 -99 42.5z" />
    <glyph glyph-name="ebreve" unicode="&#x115;" horiz-adv-x="463" 
d="M421 510q47 -41 45 -106q-6 -179 -287 -212v-14q0 -72 61 -72q26 0 51 11t58 35l56 -97q-87 -73 -195 -73q-92 0 -143.5 51t-51.5 152q0 102 31 185t94 132t154 49q80 0 127 -41zM277 331q28 32 28 73q0 35 -30 35q-32 0 -53.5 -41.5t-32.5 -104.5q60 6 88 38zM201 674
q-34 44 -34 114q0 16 1 24l86 13q2 -37 15.5 -57t39.5 -20q27 0 46.5 21t30.5 58l83 -19q-15 -79 -57 -128.5t-111 -49.5q-66 0 -100 44z" />
    <glyph glyph-name="Edotaccent" unicode="&#x116;" horiz-adv-x="423" 
d="M471 695l-38 -125h-179l-22 -156h160l-19 -123h-159l-22 -165h195l-18 -126h-370l98 695h374zM235.5 775q-22.5 22 -22.5 59q0 47 30.5 77.5t75.5 30.5q40 0 62.5 -22t22.5 -59q0 -47 -30.5 -77.5t-75.5 -30.5q-40 0 -62.5 22z" />
    <glyph glyph-name="edotaccent" unicode="&#x117;" horiz-adv-x="463" 
d="M421 510q47 -41 45 -106q-6 -179 -287 -212v-14q0 -72 61 -72q26 0 51 11t58 35l56 -97q-87 -73 -195 -73q-92 0 -143.5 51t-51.5 152q0 102 31 185t94 132t154 49q80 0 127 -41zM277 331q28 32 28 73q0 35 -30 35q-32 0 -53.5 -41.5t-32.5 -104.5q60 6 88 38zM239.5 649
q-22.5 22 -22.5 59q0 47 30.5 77.5t75.5 30.5q40 0 62.5 -22t22.5 -59q0 -47 -30.5 -77.5t-75.5 -30.5q-40 0 -62.5 22z" />
    <glyph glyph-name="Eogonek" unicode="&#x118;" horiz-adv-x="423" 
d="M254 570l-22 -156h160l-19 -123h-159l-22 -165h195l-18 -126h-32q-108 -48 -108 -112q0 -33 38 -33q18 0 46 5l-23 -100q-29 -8 -61 -8q-52 0 -84.5 30t-32.5 82q0 81 84 136h-197l98 695h374l-38 -125h-179z" />
    <glyph glyph-name="eogonek" unicode="&#x119;" horiz-adv-x="463" 
d="M421 510q47 -41 45 -106q-6 -179 -287 -212v-14q0 -72 61 -72q26 0 51 11t58 35l56 -97q-36 -29 -69 -45h-1q-6 -4 -14 -6q-96 -46 -96 -106q0 -16 9 -24.5t25 -8.5q23 0 53 8l-26 -103q-30 -8 -62 -8q-52 0 -85 27t-33 72q0 76 75 122q-79 8 -122.5 59t-43.5 142
q0 103 31 186t93.5 132t154.5 49q80 0 127 -41zM277 331q28 32 28 73q0 35 -30 35q-32 0 -53.5 -41.5t-32.5 -104.5q60 6 88 38z" />
    <glyph glyph-name="Ecaron" unicode="&#x11a;" horiz-adv-x="423" 
d="M471 695l-38 -125h-179l-22 -156h160l-19 -123h-159l-22 -165h195l-18 -126h-370l98 695h374zM421 948l60 -66l-140 -133h-99l-107 142l66 57l101 -86z" />
    <glyph glyph-name="ecaron" unicode="&#x11b;" horiz-adv-x="463" 
d="M421 510q47 -41 45 -106q-6 -179 -287 -212v-14q0 -72 61 -72q26 0 51 11t58 35l56 -97q-87 -73 -195 -73q-92 0 -143.5 51t-51.5 152q0 102 31 185t94 132t154 49q80 0 127 -41zM277 331q28 32 28 73q0 35 -30 35q-32 0 -53.5 -41.5t-32.5 -104.5q60 6 88 38zM430 815
l55 -65l-139 -141h-100l-98 141l61 65l97 -93z" />
    <glyph glyph-name="Gcircumflex" unicode="&#x11c;" horiz-adv-x="543" 
d="M564 625l-93 -85q-25 24 -48.5 35t-52.5 11q-59 0 -97 -56t-54.5 -140.5t-16.5 -174.5q0 -56 15.5 -80.5t45.5 -24.5q35 0 66 22l21 148h-57l2 122h235l-48 -345q-52 -36 -112.5 -55.5t-115.5 -19.5q-228 0 -228 259q0 127 40.5 234.5t119 172.5t187.5 65q117 0 191 -88z
M258 757l-60 65l140 134h99l107 -142l-66 -57l-101 85z" />
    <glyph glyph-name="gcircumflex" unicode="&#x11d;" horiz-adv-x="484" 
d="M486 499l-66 -471q-19 -129 -79.5 -190.5t-172.5 -61.5q-96 0 -178 56l59 108q32 -19 58.5 -27.5t54.5 -8.5q37 0 60.5 20.5t31.5 75.5l9 65q-45 -66 -114 -66q-64 0 -99 51t-35 138q0 99 28.5 181t92 132t163.5 50q96 0 187 -52zM208.5 358.5q-25.5 -73.5 -25.5 -174.5
q0 -33 7.5 -47t22.5 -14q28 0 62 56l34 248q-13 5 -26 5q-49 0 -74.5 -73.5zM197 620l-55 66l139 141h100l105 -149l-69 -58l-96 94z" />
    <glyph glyph-name="Gbreve" unicode="&#x11e;" horiz-adv-x="543" 
d="M564 625l-93 -85q-25 24 -48.5 35t-52.5 11q-59 0 -97 -56t-54.5 -140.5t-16.5 -174.5q0 -56 15.5 -80.5t45.5 -24.5q35 0 66 22l21 148h-57l2 122h235l-48 -345q-52 -36 -112.5 -55.5t-115.5 -19.5q-228 0 -228 259q0 127 40.5 234.5t119 172.5t187.5 65q117 0 191 -88z
M271 791.5q-33 42.5 -33 107.5q0 14 1 21l85 14q2 -31 15 -49.5t40 -18.5q50 0 74 70l87 -19q-14 -74 -56.5 -121t-113.5 -47q-66 0 -99 42.5z" />
    <glyph glyph-name="gbreve" unicode="&#x11f;" horiz-adv-x="484" 
d="M486 499l-66 -471q-19 -129 -79.5 -190.5t-172.5 -61.5q-96 0 -178 56l59 108q32 -19 58.5 -27.5t54.5 -8.5q37 0 60.5 20.5t31.5 75.5l9 65q-45 -66 -114 -66q-64 0 -99 51t-35 138q0 99 28.5 181t92 132t163.5 50q96 0 187 -52zM208.5 358.5q-25.5 -73.5 -25.5 -174.5
q0 -33 7.5 -47t22.5 -14q28 0 62 56l34 248q-13 5 -26 5q-49 0 -74.5 -73.5zM206 674q-34 44 -34 114q0 16 1 24l86 13q2 -37 15.5 -57t39.5 -20q27 0 46.5 21t30.5 58l83 -19q-15 -79 -57 -128.5t-111 -49.5q-66 0 -100 44z" />
    <glyph glyph-name="Gdotaccent" unicode="&#x120;" horiz-adv-x="543" 
d="M564 625l-93 -85q-25 24 -48.5 35t-52.5 11q-59 0 -97 -56t-54.5 -140.5t-16.5 -174.5q0 -56 15.5 -80.5t45.5 -24.5q35 0 66 22l21 148h-57l2 122h235l-48 -345q-52 -36 -112.5 -55.5t-115.5 -19.5q-228 0 -228 259q0 127 40.5 234.5t119 172.5t187.5 65q117 0 191 -88z
M311.5 775q-22.5 22 -22.5 59q0 47 30.5 77.5t75.5 30.5q40 0 62.5 -22t22.5 -59q0 -47 -30.5 -77.5t-75.5 -30.5q-40 0 -62.5 22z" />
    <glyph glyph-name="gdotaccent" unicode="&#x121;" horiz-adv-x="484" 
d="M486 499l-66 -471q-19 -129 -79.5 -190.5t-172.5 -61.5q-96 0 -178 56l59 108q32 -19 58.5 -27.5t54.5 -8.5q37 0 60.5 20.5t31.5 75.5l9 65q-45 -66 -114 -66q-64 0 -99 51t-35 138q0 99 28.5 181t92 132t163.5 50q96 0 187 -52zM208.5 358.5q-25.5 -73.5 -25.5 -174.5
q0 -33 7.5 -47t22.5 -14q28 0 62 56l34 248q-13 5 -26 5q-49 0 -74.5 -73.5zM244.5 649q-22.5 22 -22.5 59q0 47 30.5 77.5t75.5 30.5q40 0 62.5 -22t22.5 -59q0 -47 -30.5 -77.5t-75.5 -30.5q-40 0 -62.5 22z" />
    <glyph glyph-name="Gcommaaccent" unicode="&#x122;" horiz-adv-x="543" 
d="M564 625l-93 -85q-25 24 -48.5 35t-52.5 11q-59 0 -97 -56t-54.5 -140.5t-16.5 -174.5q0 -56 15.5 -80.5t45.5 -24.5q35 0 66 22l21 148h-57l2 122h235l-48 -345q-52 -36 -112.5 -55.5t-115.5 -19.5q-228 0 -228 259q0 127 40.5 234.5t119 172.5t187.5 65q117 0 191 -88z
M299 -86q20 -20 20 -51q0 -23 -8 -43.5t-28 -55.5l-54 -94h-79l39 117q-28 19 -28 54q0 41 24.5 67t61.5 26q32 0 52 -20z" />
    <glyph glyph-name="gcommaaccent" unicode="&#x123;" horiz-adv-x="484" 
d="M486 499l-66 -471q-19 -129 -79.5 -190.5t-172.5 -61.5q-96 0 -178 56l59 108q32 -19 58.5 -27.5t54.5 -8.5q37 0 60.5 20.5t31.5 75.5l9 65q-45 -66 -114 -66q-64 0 -99 51t-35 138q0 99 28.5 181t92 132t163.5 50q96 0 187 -52zM208.5 358.5q-25.5 -73.5 -25.5 -174.5
q0 -33 7.5 -47t22.5 -14q28 0 62 56l34 248q-13 5 -26 5q-49 0 -74.5 -73.5zM248 607q-20 20 -20 51q0 23 8 43.5t28 55.5l54 94h79l-39 -117q28 -19 28 -54q0 -41 -24.5 -67t-61.5 -26q-32 0 -52 20z" />
    <glyph glyph-name="Hcircumflex" unicode="&#x124;" horiz-adv-x="539" 
d="M173 0h-174l98 695h174l-38 -266h117l37 266h174l-97 -695h-174l41 292h-116zM228 757l-60 65l140 134h99l107 -142l-66 -57l-101 85z" />
    <glyph glyph-name="hcircumflex" unicode="&#x125;" horiz-adv-x="467" 
d="M431 518.5q27 -32.5 27 -88.5q0 -18 -3 -38l-56 -392h-167l50 362q1 6 1 15q0 22 -13 22q-12 0 -26 -22.5t-39 -76.5l-42 -300h-167l104 743l169 17l-42 -301q23 39 56 65.5t75 26.5q46 0 73 -32.5zM198 805l-60 65l140 134h99l107 -142l-66 -57l-101 85z" />
    <glyph glyph-name="Hbar" unicode="&#x126;" horiz-adv-x="552" 
d="M594 594l-14 -96h-38l-70 -498h-174l41 292h-116l-42 -292h-174l70 498h-39l13 96h40l14 101h174l-14 -101h116l14 101h174l-14 -101h39zM358 429l10 69h-117l-10 -69h117z" />
    <glyph glyph-name="hbar" unicode="&#x127;" horiz-adv-x="476" 
d="M440 518.5q27 -32.5 27 -88.5q0 -18 -3 -38l-56 -392h-167l50 362q1 6 1 15q0 22 -13 22q-12 0 -26 -22.5t-39 -76.5l-42 -300h-167l83 594h-39l13 96h40l7 53l169 17l-10 -70h104l-26 -96h-91l-19 -135q23 39 56 65.5t75 26.5q46 0 73 -32.5z" />
    <glyph glyph-name="Itilde" unicode="&#x128;" horiz-adv-x="248" 
d="M271 695l-98 -695h-174l98 695h174zM218.5 763.5q-12.5 6.5 -29.5 19.5q-2 2 -10 7.5t-14 8t-12 2.5q-13 0 -23.5 -10.5t-24.5 -33.5l-70 42q24 53 58.5 87.5t69.5 34.5q19 0 33 -7t30 -20q21 -17 34 -17q11 0 21 10t23 32l72 -40q-24 -54 -59 -88t-71 -34
q-15 0 -27.5 6.5z" />
    <glyph glyph-name="itilde" unicode="&#x129;" horiz-adv-x="235" 
d="M238 533l-74 -533h-167l74 533h167zM192.5 637.5q-12.5 6.5 -29.5 19.5q-2 2 -10 7.5t-14 8t-12 2.5q-13 0 -23.5 -10.5t-24.5 -33.5l-70 42q24 53 58.5 87.5t69.5 34.5q19 0 33 -7t30 -20q21 -17 34 -17q11 0 21 10t23 32l72 -40q-24 -54 -59 -88t-71 -34
q-15 0 -27.5 6.5z" />
    <glyph glyph-name="Imacron" unicode="&#x12a;" horiz-adv-x="248" 
d="M271 695l-98 -695h-174l98 695h174zM324 779h-264l18 117h264z" />
    <glyph glyph-name="imacron" unicode="&#x12b;" horiz-adv-x="235" 
d="M238 533l-74 -533h-167l74 533h167zM301 653h-264l18 117h264z" />
    <glyph glyph-name="Ibreve" unicode="&#x12c;" horiz-adv-x="248" 
d="M271 695l-98 -695h-174l98 695h174zM95 791.5q-33 42.5 -33 107.5q0 14 1 21l85 14q2 -31 15 -49.5t40 -18.5q50 0 74 70l87 -19q-14 -74 -56.5 -121t-113.5 -47q-66 0 -99 42.5z" />
    <glyph glyph-name="ibreve" unicode="&#x12d;" horiz-adv-x="235" 
d="M238 533l-74 -533h-167l74 533h167zM69 674q-34 44 -34 114q0 16 1 24l86 13q2 -37 15.5 -57t39.5 -20q27 0 46.5 21t30.5 58l83 -19q-15 -79 -57 -128.5t-111 -49.5q-66 0 -100 44z" />
    <glyph glyph-name="Iogonek" unicode="&#x12e;" horiz-adv-x="248" 
d="M271 695l-98 -695h-42q-108 -48 -108 -112q0 -33 38 -33q18 0 46 5l-23 -100q-29 -8 -61 -8q-52 0 -84.5 30t-32.5 82q0 85 94 142l97 689h174z" />
    <glyph glyph-name="iogonek" unicode="&#x12f;" horiz-adv-x="235" 
d="M253.5 794q22.5 -22 22.5 -59q0 -47 -30.5 -77.5t-75.5 -30.5q-40 0 -62.5 22t-22.5 59q0 47 30.5 77.5t75.5 30.5q40 0 62.5 -22zM71 533h167l-74 -533h-39q-108 -48 -108 -112q0 -33 38 -33q18 0 46 5l-23 -100q-29 -8 -61 -8q-52 0 -84.5 30t-32.5 82q0 88 98 144z
" />
    <glyph glyph-name="Idotaccent" unicode="&#x130;" horiz-adv-x="248" 
d="M271 695l-98 -695h-174l98 695h174zM135.5 775q-22.5 22 -22.5 59q0 47 30.5 77.5t75.5 30.5q40 0 62.5 -22t22.5 -59q0 -47 -30.5 -77.5t-75.5 -30.5q-40 0 -62.5 22z" />
    <glyph glyph-name="dotlessi" unicode="&#x131;" horiz-adv-x="235" 
d="M238 533l-74 -533h-167l74 533h167z" />
    <glyph glyph-name="IJ" unicode="&#x132;" horiz-adv-x="522" 
d="M271 695l-98 -695h-174l98 695h174zM463 101q-13 -88 -48 -142t-82.5 -82.5t-115.5 -52.5l-30 122q52 25 73 61t31 107l81 581h174z" />
    <glyph glyph-name="ij" unicode="&#x133;" horiz-adv-x="470" 
d="M238 533l-74 -533h-167l74 533h167zM107.5 649q-22.5 22 -22.5 59q0 47 30.5 77.5t75.5 30.5q40 0 62.5 -22t22.5 -59q0 -47 -30.5 -77.5t-75.5 -30.5q-40 0 -62.5 22zM129 -101q52 22 77 54.5t35 102.5l66 477h167l-66 -471q-13 -90 -47 -145.5t-80 -85t-114 -54.5z
M344.5 649q-22.5 22 -22.5 59q0 47 30.5 77.5t75.5 30.5q40 0 62.5 -22t22.5 -59q0 -47 -30.5 -77.5t-75.5 -30.5q-40 0 -62.5 22z" />
    <glyph glyph-name="Jcircumflex" unicode="&#x134;" horiz-adv-x="274" 
d="M215 101q-13 -88 -48 -142t-82.5 -82.5t-115.5 -52.5l-30 122q52 25 73 61t31 107l81 581h174zM108 757l-60 65l140 134h99l107 -142l-66 -57l-101 85z" />
    <glyph glyph-name="jcircumflex" unicode="&#x135;" horiz-adv-x="235" 
d="M-106 -101q52 22 77 54.5t35 102.5l66 477h167l-66 -471q-13 -90 -47 -145.5t-80 -85t-114 -54.5zM62 620l-55 66l139 141h100l105 -149l-69 -58l-96 94z" />
    <glyph glyph-name="Kcommaaccent" unicode="&#x136;" horiz-adv-x="552" 
d="M-1 0l98 695h174l-98 -695h-174zM333 0l-103 370l200 325h174l-199 -321l116 -374h-188zM283 -86q20 -20 20 -51q0 -23 -8 -43.5t-28 -55.5l-54 -94h-79l39 117q-28 19 -28 54q0 41 24.5 67t61.5 26q32 0 52 -20z" />
    <glyph glyph-name="kcommaaccent" unicode="&#x137;" horiz-adv-x="491" 
d="M231 472q32 40 68 59t80 19q56 0 90 -33.5t34 -87.5q0 -60 -28.5 -103.5t-90.5 -83.5l63 -242h-173l-56 256q66 28 91.5 62t25.5 77q0 18 -8 28t-21 10q-42 0 -96 -94l-46 -339h-168l104 743l170 17zM257 -86q20 -20 20 -51q0 -23 -8 -43.5t-28 -55.5l-54 -94h-79l39 117
q-28 19 -28 54q0 41 24.5 67t61.5 26q32 0 52 -20z" />
    <glyph glyph-name="kgreenlandic" unicode="&#x138;" horiz-adv-x="472" 
d="M239 533l-74 -533h-168l74 533h168zM518 533l-144 -250l75 -283h-176l-66 281l141 252h170z" />
    <glyph glyph-name="Lacute" unicode="&#x139;" horiz-adv-x="423" 
d="M271 695l-78 -557h212l-39 -138h-367l98 695h174zM286 950l56 -119l-219 -86l-39 79z" />
    <glyph glyph-name="lacute" unicode="&#x13a;" horiz-adv-x="249" 
d="M179 145q-1 -4 -1 -10q0 -18 16 -18q6 0 16 2l12 -117q-47 -20 -95 -20q-58 0 -88.5 31.5t-30.5 87.5q0 21 2 32l85 610l168 17zM280 998l56 -119l-219 -86l-39 79z" />
    <glyph glyph-name="Lcommaaccent" unicode="&#x13b;" horiz-adv-x="423" 
d="M271 695l-78 -557h212l-39 -138h-367l98 695h174zM230 -86q20 -20 20 -51q0 -23 -8 -43.5t-28 -55.5l-54 -94h-79l39 117q-28 19 -28 54q0 41 24.5 67t61.5 26q32 0 52 -20z" />
    <glyph glyph-name="lcommaaccent" unicode="&#x13c;" horiz-adv-x="249" 
d="M179 145q-1 -4 -1 -10q0 -18 16 -18q6 0 16 2l12 -117q-47 -20 -95 -20q-58 0 -88.5 31.5t-30.5 87.5q0 21 2 32l85 610l168 17zM155 -86q20 -20 20 -51q0 -23 -8 -43.5t-28 -55.5l-54 -94h-79l39 117q-28 19 -28 54q0 41 24.5 67t61.5 26q32 0 52 -20z" />
    <glyph glyph-name="Lcaron" unicode="&#x13d;" horiz-adv-x="423" 
d="M271 695l-78 -557h212l-39 -138h-367l98 695h174zM310 709l116 -15l-71 -222l-83 8z" />
    <glyph glyph-name="lcaron" unicode="&#x13e;" horiz-adv-x="330" 
d="M179 145q-1 -4 -1 -10q0 -18 16 -18q6 0 16 2l12 -117q-47 -20 -95 -20q-58 0 -88.5 31.5t-30.5 87.5q0 21 2 32l85 610l168 17zM302 757l116 -15l-71 -222l-83 8z" />
    <glyph glyph-name="Ldot" unicode="&#x13f;" horiz-adv-x="423" 
d="M271 695l-78 -557h212l-39 -138h-367l98 695h174zM279.5 327q-22.5 22 -22.5 59q0 47 30.5 77.5t75.5 30.5q40 0 62.5 -22t22.5 -59q0 -47 -30.5 -77.5t-75.5 -30.5q-40 0 -62.5 22z" />
    <glyph glyph-name="ldot" unicode="&#x140;" horiz-adv-x="420" 
d="M179 145q-1 -4 -1 -10q0 -18 16 -18q6 0 16 2l12 -117q-47 -20 -95 -20q-58 0 -88.5 31.5t-30.5 87.5q0 21 2 32l85 610l168 17zM264.5 302q-22.5 22 -22.5 59q0 47 30.5 77.5t75.5 30.5q40 0 62.5 -22t22.5 -59q0 -47 -30.5 -77.5t-75.5 -30.5q-40 0 -62.5 22z" />
    <glyph glyph-name="Lslash" unicode="&#x141;" horiz-adv-x="465" 
d="M235 138h212l-39 -138h-367l31 218l-29 -20l-43 82l89 58l50 357h174l-33 -233l91 59l43 -82l-150 -97z" />
    <glyph glyph-name="lslash" unicode="&#x142;" horiz-adv-x="305" 
d="M245 119l12 -117q-47 -20 -95 -20q-58 0 -88.5 31.5t-30.5 87.5q0 21 2 32l18 129l-36 -22l-28 93l81 51l50 359l168 17l-36 -262l48 30l26 -96l-90 -56l-32 -231q-1 -4 -1 -10q0 -18 16 -18q6 0 16 2z" />
    <glyph glyph-name="Nacute" unicode="&#x143;" horiz-adv-x="534" 
d="M459 0h-206l-61 548q2 -68 2 -104q0 -105 -13 -210l-30 -234h-151l97 695h207l60 -549q-2 74 -2 103q0 92 12 192l33 254h149zM428 950l56 -119l-219 -86l-39 79z" />
    <glyph glyph-name="nacute" unicode="&#x144;" horiz-adv-x="468" 
d="M432 518.5q27 -32.5 27 -88.5q0 -18 -3 -38l-56 -392h-167l50 362q1 6 1 15q0 22 -13 22q-12 0 -26 -22.5t-39 -76.5l-42 -300h-167l74 533h145v-81q63 99 142 99q47 0 74 -32.5zM372 835l55 -120l-218 -95l-42 79z" />
    <glyph glyph-name="Ncommaaccent" unicode="&#x145;" horiz-adv-x="534" 
d="M459 0h-206l-61 548q2 -68 2 -104q0 -105 -13 -210l-30 -234h-151l97 695h207l60 -549q-2 74 -2 103q0 92 12 192l33 254h149zM277 -86q20 -20 20 -51q0 -23 -8 -43.5t-28 -55.5l-54 -94h-79l39 117q-28 19 -28 54q0 41 24.5 67t61.5 26q32 0 52 -20z" />
    <glyph glyph-name="ncommaaccent" unicode="&#x146;" horiz-adv-x="468" 
d="M432 518.5q27 -32.5 27 -88.5q0 -18 -3 -38l-56 -392h-167l50 362q1 6 1 15q0 22 -13 22q-12 0 -26 -22.5t-39 -76.5l-42 -300h-167l74 533h145v-81q63 99 142 99q47 0 74 -32.5zM236 -86q20 -20 20 -51q0 -23 -8 -43.5t-28 -55.5l-54 -94h-79l39 117q-28 19 -28 54
q0 41 24.5 67t61.5 26q32 0 52 -20z" />
    <glyph glyph-name="Ncaron" unicode="&#x147;" horiz-adv-x="534" 
d="M459 0h-206l-61 548q2 -68 2 -104q0 -105 -13 -210l-30 -234h-151l97 695h207l60 -549q-2 74 -2 103q0 92 12 192l33 254h149zM463 948l60 -66l-140 -133h-99l-107 142l66 57l101 -86z" />
    <glyph glyph-name="ncaron" unicode="&#x148;" horiz-adv-x="468" 
d="M432 518.5q27 -32.5 27 -88.5q0 -18 -3 -38l-56 -392h-167l50 362q1 6 1 15q0 22 -13 22q-12 0 -26 -22.5t-39 -76.5l-42 -300h-167l74 533h145v-81q63 99 142 99q47 0 74 -32.5zM419 815l55 -65l-139 -141h-100l-98 141l61 65l97 -93z" />
    <glyph glyph-name="napostrophe" unicode="&#x149;" horiz-adv-x="583" 
d="M203 744q17 -17 17 -43q0 -20 -7 -38t-24 -47l-46 -81h-66l33 101q-23 16 -23 46q0 35 20.5 57t51.5 22q27 0 44 -17zM547 518.5q27 -32.5 27 -88.5q0 -18 -3 -38l-56 -392h-167l50 362q1 6 1 15q0 22 -13 22q-12 0 -26 -22.5t-39 -76.5l-42 -300h-167l74 533h145v-81
q63 99 142 99q47 0 74 -32.5z" />
    <glyph glyph-name="Eng" unicode="&#x14a;" horiz-adv-x="534" 
d="M556 695l-97 -695l-5 -39q-13 -90 -71 -137.5t-143 -47.5q-81 0 -128 45l70 100q14 -9 24.5 -13t24.5 -4q20 0 32.5 13t15.5 37l6 46h-32l-61 548q2 -68 2 -104q0 -105 -13 -210l-30 -234h-151l97 695h207l60 -549q-2 74 -2 103q0 92 12 192l33 254h149z" />
    <glyph glyph-name="eng" unicode="&#x14b;" horiz-adv-x="468" 
d="M432 518.5q27 -32.5 27 -88.5q0 -18 -3 -38l-62 -434q-13 -91 -68.5 -136t-140.5 -45q-43 0 -72.5 12t-53.5 32l68 96q17 -10 27.5 -14t25.5 -4q20 0 31.5 12t13.5 34l8 55l50 362q1 6 1 15q0 22 -13 22q-12 0 -26 -22.5t-39 -76.5l-42 -300h-167l74 533h145v-81
q63 99 142 99q47 0 74 -32.5z" />
    <glyph glyph-name="Omacron" unicode="&#x14c;" horiz-adv-x="580" 
d="M518 647.5q57 -65.5 57 -196.5q0 -125 -35.5 -232t-108 -172t-179.5 -65q-111 0 -167.5 66t-56.5 196q0 125 35 232t107.5 172t179.5 65q111 0 168 -65.5zM262.5 522.5q-30.5 -62.5 -44.5 -150t-14 -164.5q0 -53 14.5 -76t44.5 -23q47 0 77.5 61t44 147.5t13.5 165.5
q0 54 -14.5 78t-44.5 24q-46 0 -76.5 -62.5zM488 779h-264l18 117h264z" />
    <glyph glyph-name="omacron" unicode="&#x14d;" horiz-adv-x="492" 
d="M66 35.5q-51 53.5 -51 158.5q0 95 30 176.5t91 131t148 49.5q90 0 141 -54t51 -159q0 -95 -30 -176.5t-90.5 -130.5t-147.5 -49q-91 0 -142 53.5zM270 147.5q20 42.5 29 103t9 113.5q0 33 -9 48t-27 15q-31 0 -50.5 -42.5t-28.5 -102t-9 -113.5q0 -34 9 -49t27 -15
q30 0 50 42.5zM429 653h-264l18 117h264z" />
    <glyph glyph-name="Obreve" unicode="&#x14e;" horiz-adv-x="580" 
d="M518 647.5q57 -65.5 57 -196.5q0 -125 -35.5 -232t-108 -172t-179.5 -65q-111 0 -167.5 66t-56.5 196q0 125 35 232t107.5 172t179.5 65q111 0 168 -65.5zM262.5 522.5q-30.5 -62.5 -44.5 -150t-14 -164.5q0 -53 14.5 -76t44.5 -23q47 0 77.5 61t44 147.5t13.5 165.5
q0 54 -14.5 78t-44.5 24q-46 0 -76.5 -62.5zM259 791.5q-33 42.5 -33 107.5q0 14 1 21l85 14q2 -31 15 -49.5t40 -18.5q50 0 74 70l87 -19q-14 -74 -56.5 -121t-113.5 -47q-66 0 -99 42.5z" />
    <glyph glyph-name="obreve" unicode="&#x14f;" horiz-adv-x="492" 
d="M66 35.5q-51 53.5 -51 158.5q0 95 30 176.5t91 131t148 49.5q90 0 141 -54t51 -159q0 -95 -30 -176.5t-90.5 -130.5t-147.5 -49q-91 0 -142 53.5zM270 147.5q20 42.5 29 103t9 113.5q0 33 -9 48t-27 15q-31 0 -50.5 -42.5t-28.5 -102t-9 -113.5q0 -34 9 -49t27 -15
q30 0 50 42.5zM197 674q-34 44 -34 114q0 16 1 24l86 13q2 -37 15.5 -57t39.5 -20q27 0 46.5 21t30.5 58l83 -19q-15 -79 -57 -128.5t-111 -49.5q-66 0 -100 44z" />
    <glyph glyph-name="Ohungarumlaut" unicode="&#x150;" horiz-adv-x="580" 
d="M518 647.5q57 -65.5 57 -196.5q0 -125 -35.5 -232t-108 -172t-179.5 -65q-111 0 -167.5 66t-56.5 196q0 125 35 232t107.5 172t179.5 65q111 0 168 -65.5zM262.5 522.5q-30.5 -62.5 -44.5 -150t-14 -164.5q0 -53 14.5 -76t44.5 -23q47 0 77.5 61t44 147.5t13.5 165.5
q0 54 -14.5 78t-44.5 24q-46 0 -76.5 -62.5zM492 992l95 -57l-134 -185l-74 40zM338 991l96 -52l-129 -185l-76 35z" />
    <glyph glyph-name="ohungarumlaut" unicode="&#x151;" horiz-adv-x="492" 
d="M66 35.5q-51 53.5 -51 158.5q0 95 30 176.5t91 131t148 49.5q90 0 141 -54t51 -159q0 -95 -30 -176.5t-90.5 -130.5t-147.5 -49q-91 0 -142 53.5zM270 147.5q20 42.5 29 103t9 113.5q0 33 -9 48t-27 15q-31 0 -50.5 -42.5t-28.5 -102t-9 -113.5q0 -34 9 -49t27 -15
q30 0 50 42.5zM433 866l95 -57l-134 -185l-74 40zM279 865l96 -52l-129 -185l-76 35z" />
    <glyph glyph-name="OE" unicode="&#x152;" horiz-adv-x="742" 
d="M752 570h-219q22 -53 22 -119q0 -25 -1 -37h157l-18 -123h-155q-20 -95 -69 -165h239l-21 -126h-358q-40 -18 -93 -18q-100 0 -154 66.5t-54 195.5q0 125 34.5 231.5t104.5 172t172 65.5q56 0 92 -18h358zM324 170q28 61 41 148t13 165q0 54 -12 78t-37 24
q-42 0 -70 -62.5t-41.5 -150.5t-13.5 -164q0 -52 12.5 -75.5t36.5 -23.5q43 0 71 61z" />
    <glyph glyph-name="oe" unicode="&#x153;" horiz-adv-x="745" 
d="M702 511.5q45 -39.5 45 -101.5q0 -185 -286 -218v-14q0 -72 60 -72q27 0 52 11t58 35l56 -97q-87 -73 -192 -73q-91 0 -141 70q-63 -70 -156 -70q-83 0 -133 53.5t-50 158.5q0 95 30 176.5t90 131t145 49.5q95 0 138 -72q62 72 163 72q76 0 121 -39.5zM558.5 330.5
q28.5 32.5 28.5 73.5q0 35 -31 35q-33 0 -54.5 -40.5t-31.5 -106.5q60 6 88.5 38.5zM270 147.5q20 42.5 29 103t9 113.5q0 33 -9 48t-27 15q-31 0 -50.5 -42.5t-28.5 -102t-9 -113.5q0 -34 9 -49t27 -15q30 0 50 42.5z" />
    <glyph glyph-name="Racute" unicode="&#x154;" horiz-adv-x="514" 
d="M492 383q-31 -52 -96 -89l97 -294h-180l-72 259h-31l-37 -259h-174l98 695h188q121 0 179.5 -47.5t58.5 -137.5q0 -75 -31 -127zM227 380h24q50 0 73 36t23 89q0 35 -17 51t-51 16h-25zM407 950l56 -119l-219 -86l-39 79z" />
    <glyph glyph-name="racute" unicode="&#x155;" horiz-adv-x="336" 
d="M383 540l-51 -163q-24 6 -37 6q-34 0 -57 -38t-41 -106l-33 -239h-167l74 533h143l-1 -88q50 104 127 104q22 0 43 -9zM322 835l55 -120l-218 -95l-42 79z" />
    <glyph glyph-name="Rcommaaccent" unicode="&#x156;" horiz-adv-x="514" 
d="M492 383q-31 -52 -96 -89l97 -294h-180l-72 259h-31l-37 -259h-174l98 695h188q121 0 179.5 -47.5t58.5 -137.5q0 -75 -31 -127zM227 380h24q50 0 73 36t23 89q0 35 -17 51t-51 16h-25zM288 -86q20 -20 20 -51q0 -23 -8 -43.5t-28 -55.5l-54 -94h-79l39 117
q-28 19 -28 54q0 41 24.5 67t61.5 26q32 0 52 -20z" />
    <glyph glyph-name="rcommaaccent" unicode="&#x157;" horiz-adv-x="336" 
d="M383 540l-51 -163q-24 6 -37 6q-34 0 -57 -38t-41 -106l-33 -239h-167l74 533h143l-1 -88q50 104 127 104q22 0 43 -9zM118 -86q20 -20 20 -51q0 -23 -8 -43.5t-28 -55.5l-54 -94h-79l39 117q-28 19 -28 54q0 41 24.5 67t61.5 26q32 0 52 -20z" />
    <glyph glyph-name="Rcaron" unicode="&#x158;" horiz-adv-x="514" 
d="M492 383q-31 -52 -96 -89l97 -294h-180l-72 259h-31l-37 -259h-174l98 695h188q121 0 179.5 -47.5t58.5 -137.5q0 -75 -31 -127zM227 380h24q50 0 73 36t23 89q0 35 -17 51t-51 16h-25zM442 948l60 -66l-140 -133h-99l-107 142l66 57l101 -86z" />
    <glyph glyph-name="rcaron" unicode="&#x159;" horiz-adv-x="336" 
d="M383 540l-51 -163q-24 6 -37 6q-34 0 -57 -38t-41 -106l-33 -239h-167l74 533h143l-1 -88q50 104 127 104q22 0 43 -9zM369 815l55 -65l-139 -141h-100l-98 141l61 65l97 -93z" />
    <glyph glyph-name="Sacute" unicode="&#x15a;" horiz-adv-x="481" 
d="M423 689.5q50 -23.5 86 -69.5l-86 -88q-25 27 -52 40t-59 13q-37 0 -58 -20t-21 -50q0 -28 19 -46.5t78 -48.5q66 -34 98 -77t32 -113q0 -71 -34.5 -127.5t-95.5 -88.5t-138 -32q-140 0 -223 101l94 90q32 -31 61.5 -46.5t68.5 -15.5q41 0 65.5 24t24.5 64q0 34 -21 56.5
t-78 50.5q-68 34 -97.5 73.5t-29.5 104.5q0 67 32 119t88.5 81t127.5 29q68 0 118 -23.5zM406 950l56 -119l-219 -86l-39 79z" />
    <glyph glyph-name="sacute" unicode="&#x15b;" horiz-adv-x="405" 
d="M333.5 533q44.5 -18 75.5 -50l-71 -89q-49 37 -91 37q-23 0 -37 -11.5t-14 -30.5q0 -17 16.5 -31t63.5 -37q52 -24 78 -57t26 -87q0 -59 -30 -103t-80.5 -68t-110.5 -24q-118 0 -193 82l87 86q25 -23 49.5 -36t51.5 -13q28 0 42.5 14t14.5 37q0 22 -16 37.5t-58 34.5
q-55 25 -79.5 56.5t-24.5 85.5q0 52 26 94.5t72.5 66.5t105.5 24q52 0 96.5 -18zM334 835l55 -120l-218 -95l-42 79z" />
    <glyph glyph-name="Scircumflex" unicode="&#x15c;" horiz-adv-x="481" 
d="M423 689.5q50 -23.5 86 -69.5l-86 -88q-25 27 -52 40t-59 13q-37 0 -58 -20t-21 -50q0 -28 19 -46.5t78 -48.5q66 -34 98 -77t32 -113q0 -71 -34.5 -127.5t-95.5 -88.5t-138 -32q-140 0 -223 101l94 90q32 -31 61.5 -46.5t68.5 -15.5q41 0 65.5 24t24.5 64q0 34 -21 56.5
t-78 50.5q-68 34 -97.5 73.5t-29.5 104.5q0 67 32 119t88.5 81t127.5 29q68 0 118 -23.5zM202 757l-60 65l140 134h99l107 -142l-66 -57l-101 85z" />
    <glyph glyph-name="scircumflex" unicode="&#x15d;" horiz-adv-x="405" 
d="M333.5 533q44.5 -18 75.5 -50l-71 -89q-49 37 -91 37q-23 0 -37 -11.5t-14 -30.5q0 -17 16.5 -31t63.5 -37q52 -24 78 -57t26 -87q0 -59 -30 -103t-80.5 -68t-110.5 -24q-118 0 -193 82l87 86q25 -23 49.5 -36t51.5 -13q28 0 42.5 14t14.5 37q0 22 -16 37.5t-58 34.5
q-55 25 -79.5 56.5t-24.5 85.5q0 52 26 94.5t72.5 66.5t105.5 24q52 0 96.5 -18zM143 620l-55 66l139 141h100l105 -149l-69 -58l-96 94z" />
    <glyph glyph-name="Scedilla" unicode="&#x15e;" horiz-adv-x="481" 
d="M428 343q32 -43 32 -113q0 -63 -27 -115t-76 -85.5t-113 -43.5l-6 -37q38 -6 58.5 -27.5t20.5 -57.5q0 -30 -14.5 -60t-49 -50t-89.5 -20q-31 0 -56.5 9t-42.5 24l47 71q25 -14 49 -14q18 0 29 8t11 24t-16.5 23t-55.5 7l24 98q-113 12 -184 99l94 90q32 -31 61.5 -46.5
t68.5 -15.5q41 0 65.5 24t24.5 64q0 34 -21 56.5t-78 50.5q-68 34 -97.5 73.5t-29.5 104.5q0 67 32 119t88.5 81t127.5 29q68 0 118 -23.5t86 -69.5l-86 -88q-25 27 -52 40t-59 13q-37 0 -58 -20t-21 -50q0 -28 19 -46.5t78 -48.5q66 -34 98 -77z" />
    <glyph glyph-name="scedilla" unicode="&#x15f;" horiz-adv-x="405" 
d="M354 264q26 -33 26 -87q0 -76 -48 -126.5t-123 -64.5l-6 -37q38 -6 58.5 -27.5t20.5 -57.5q0 -30 -14.5 -60t-49 -50t-89.5 -20q-31 0 -56.5 9t-42.5 24l47 71q25 -14 49 -14q18 0 29 8t11 24t-16.5 23t-55.5 7l24 99q-91 11 -152 79l87 86q25 -23 49.5 -36t51.5 -13
q28 0 42.5 14t14.5 37q0 22 -16 37.5t-58 34.5q-55 25 -79.5 56.5t-24.5 85.5q0 52 26 94.5t72.5 66.5t105.5 24q52 0 96.5 -18t75.5 -50l-71 -89q-49 37 -91 37q-23 0 -37 -11.5t-14 -30.5q0 -17 16.5 -31t63.5 -37q52 -24 78 -57z" />
    <glyph glyph-name="Scaron" unicode="&#x160;" horiz-adv-x="481" 
d="M423 689.5q50 -23.5 86 -69.5l-86 -88q-25 27 -52 40t-59 13q-37 0 -58 -20t-21 -50q0 -28 19 -46.5t78 -48.5q66 -34 98 -77t32 -113q0 -71 -34.5 -127.5t-95.5 -88.5t-138 -32q-140 0 -223 101l94 90q32 -31 61.5 -46.5t68.5 -15.5q41 0 65.5 24t24.5 64q0 34 -21 56.5
t-78 50.5q-68 34 -97.5 73.5t-29.5 104.5q0 67 32 119t88.5 81t127.5 29q68 0 118 -23.5zM441 948l60 -66l-140 -133h-99l-107 142l66 57l101 -86z" />
    <glyph glyph-name="scaron" unicode="&#x161;" horiz-adv-x="405" 
d="M333.5 533q44.5 -18 75.5 -50l-71 -89q-49 37 -91 37q-23 0 -37 -11.5t-14 -30.5q0 -17 16.5 -31t63.5 -37q52 -24 78 -57t26 -87q0 -59 -30 -103t-80.5 -68t-110.5 -24q-118 0 -193 82l87 86q25 -23 49.5 -36t51.5 -13q28 0 42.5 14t14.5 37q0 22 -16 37.5t-58 34.5
q-55 25 -79.5 56.5t-24.5 85.5q0 52 26 94.5t72.5 66.5t105.5 24q52 0 96.5 -18zM381 815l55 -65l-139 -141h-100l-98 141l61 65l97 -93z" />
    <glyph glyph-name="uni0162" unicode="&#x162;" horiz-adv-x="451" 
d="M515 695l-37 -135h-124l-79 -560l-6 -46q37 -6 56.5 -29t19.5 -60q0 -30 -14.5 -60t-49 -50.5t-88.5 -20.5q-60 0 -100 33l47 74q14 -9 25 -13t24 -4q39 0 40 32q1 16 -15.5 23t-55.5 7l27 114h-84l79 560h-137l19 135h453z" />
    <glyph glyph-name="uni0163" unicode="&#x163;" horiz-adv-x="328" 
d="M204 163q-1 -5 -1 -14q0 -33 28 -33q18 0 38 11l38 -106q-43 -30 -101 -37l-5 -35q38 -6 58.5 -27.5t20.5 -57.5q0 -30 -14.5 -60t-49 -50t-89.5 -20q-31 0 -56.5 9t-42.5 24l47 71q25 -14 49 -14q18 0 29 8t11 24t-16.5 23t-55.5 7l26 104q-42 14 -63.5 49t-21.5 87
q0 19 3 38l35 251h-53l17 118h59l30 117l149 17l-18 -134h95l-37 -118h-74z" />
    <glyph glyph-name="Tcaron" unicode="&#x164;" horiz-adv-x="451" 
d="M515 695l-37 -135h-124l-79 -560h-174l79 560h-137l19 135h453zM423 948l60 -66l-140 -133h-99l-107 142l66 57l101 -86z" />
    <glyph glyph-name="tcaron" unicode="&#x165;" horiz-adv-x="328" 
d="M319 807l116 -15l-71 -222l-83 8zM255 533h95l-37 -118h-74l-35 -252q-1 -5 -1 -14q0 -33 28 -33q18 0 38 11l38 -106q-28 -19 -63 -29t-69 -10q-69 0 -105.5 38t-36.5 106q0 19 3 38l35 251h-53l17 118h59l30 117l149 17z" />
    <glyph glyph-name="Tbar" unicode="&#x166;" horiz-adv-x="451" 
d="M478 560h-124l-24 -169h88l-14 -97h-88l-41 -294h-174l41 294h-88l14 97h88l24 169h-137l19 135h453z" />
    <glyph glyph-name="tbar" unicode="&#x167;" horiz-adv-x="328" 
d="M239 415l-8 -53h79l-35 -110h-59l-12 -89q-1 -5 -1 -14q0 -33 28 -33q18 0 38 11l38 -106q-28 -19 -63 -29t-69 -10q-69 0 -105.5 38t-36.5 106q0 19 3 38l12 88h-45l17 110h43l8 53h-53l17 118h59l30 117l149 17l-18 -134h95l-37 -118h-74z" />
    <glyph glyph-name="Utilde" unicode="&#x168;" horiz-adv-x="526" 
d="M489 200q-9 -62 -41.5 -111t-88.5 -78t-130 -29q-105 0 -159 51.5t-54 133.5q0 20 3 39l68 489h174l-71 -510q-1 -6 -1 -19q0 -25 12.5 -39.5t38.5 -14.5q32 0 50 21t23 55l71 507h175zM356.5 763.5q-12.5 6.5 -29.5 19.5q-2 2 -10 7.5t-14 8t-12 2.5q-13 0 -23.5 -10.5
t-24.5 -33.5l-70 42q24 53 58.5 87.5t69.5 34.5q19 0 33 -7t30 -20q21 -17 34 -17q11 0 21 10t23 32l72 -40q-24 -54 -59 -88t-71 -34q-15 0 -27.5 6.5z" />
    <glyph glyph-name="utilde" unicode="&#x169;" horiz-adv-x="462" 
d="M38 14.5q-28 32.5 -28 88.5q0 17 3 35l55 395h167l-51 -369q-1 -5 -1 -14q0 -20 13 -20q24 0 56 60l47 343h167l-75 -533h-145l3 71q-28 -42 -59.5 -65.5t-76.5 -23.5q-47 0 -75 32.5zM305.5 637.5q-12.5 6.5 -29.5 19.5q-2 2 -10 7.5t-14 8t-12 2.5q-13 0 -23.5 -10.5
t-24.5 -33.5l-70 42q24 53 58.5 87.5t69.5 34.5q19 0 33 -7t30 -20q21 -17 34 -17q11 0 21 10t23 32l72 -40q-24 -54 -59 -88t-71 -34q-15 0 -27.5 6.5z" />
    <glyph glyph-name="Umacron" unicode="&#x16a;" horiz-adv-x="526" 
d="M489 200q-9 -62 -41.5 -111t-88.5 -78t-130 -29q-105 0 -159 51.5t-54 133.5q0 20 3 39l68 489h174l-71 -510q-1 -6 -1 -19q0 -25 12.5 -39.5t38.5 -14.5q32 0 50 21t23 55l71 507h175zM462 779h-264l18 117h264z" />
    <glyph glyph-name="umacron" unicode="&#x16b;" horiz-adv-x="462" 
d="M38 14.5q-28 32.5 -28 88.5q0 17 3 35l55 395h167l-51 -369q-1 -5 -1 -14q0 -20 13 -20q24 0 56 60l47 343h167l-75 -533h-145l3 71q-28 -42 -59.5 -65.5t-76.5 -23.5q-47 0 -75 32.5zM414 653h-264l18 117h264z" />
    <glyph glyph-name="Ubreve" unicode="&#x16c;" horiz-adv-x="526" 
d="M489 200q-9 -62 -41.5 -111t-88.5 -78t-130 -29q-105 0 -159 51.5t-54 133.5q0 20 3 39l68 489h174l-71 -510q-1 -6 -1 -19q0 -25 12.5 -39.5t38.5 -14.5q32 0 50 21t23 55l71 507h175zM233 791.5q-33 42.5 -33 107.5q0 14 1 21l85 14q2 -31 15 -49.5t40 -18.5
q50 0 74 70l87 -19q-14 -74 -56.5 -121t-113.5 -47q-66 0 -99 42.5z" />
    <glyph glyph-name="ubreve" unicode="&#x16d;" horiz-adv-x="462" 
d="M38 14.5q-28 32.5 -28 88.5q0 17 3 35l55 395h167l-51 -369q-1 -5 -1 -14q0 -20 13 -20q24 0 56 60l47 343h167l-75 -533h-145l3 71q-28 -42 -59.5 -65.5t-76.5 -23.5q-47 0 -75 32.5zM182 674q-34 44 -34 114q0 16 1 24l86 13q2 -37 15.5 -57t39.5 -20q27 0 46.5 21
t30.5 58l83 -19q-15 -79 -57 -128.5t-111 -49.5q-66 0 -100 44z" />
    <glyph glyph-name="Uring" unicode="&#x16e;" horiz-adv-x="526" 
d="M489 200q-9 -62 -41.5 -111t-88.5 -78t-130 -29q-105 0 -159 51.5t-54 133.5q0 20 3 39l68 489h174l-71 -510q-1 -6 -1 -19q0 -25 12.5 -39.5t38.5 -14.5q32 0 50 21t23 55l71 507h175zM445 965q30 -33 30 -86q0 -64 -40 -106.5t-105 -42.5q-54 0 -83.5 32.5t-29.5 85.5
q0 63 40 106.5t105 43.5q53 0 83 -33zM321.5 896.5q-11.5 -18.5 -11.5 -43.5q0 -40 28 -40q20 0 32 18.5t12 43.5q0 20 -7.5 30t-20.5 10q-21 0 -32.5 -18.5z" />
    <glyph glyph-name="uring" unicode="&#x16f;" horiz-adv-x="462" 
d="M38 14.5q-28 32.5 -28 88.5q0 17 3 35l55 395h167l-51 -369q-1 -5 -1 -14q0 -20 13 -20q24 0 56 60l47 343h167l-75 -533h-145l3 71q-28 -42 -59.5 -65.5t-76.5 -23.5q-47 0 -75 32.5zM394 838q30 -33 30 -86q0 -64 -40 -106.5t-105 -42.5q-54 0 -83.5 32.5t-29.5 85.5
q0 63 40 106.5t105 43.5q53 0 83 -33zM270.5 769.5q-11.5 -18.5 -11.5 -43.5q0 -40 28 -40q20 0 32 18.5t12 43.5q0 20 -7.5 30t-20.5 10q-21 0 -32.5 -18.5z" />
    <glyph glyph-name="Uhungarumlaut" unicode="&#x170;" horiz-adv-x="526" 
d="M489 200q-9 -62 -41.5 -111t-88.5 -78t-130 -29q-105 0 -159 51.5t-54 133.5q0 20 3 39l68 489h174l-71 -510q-1 -6 -1 -19q0 -25 12.5 -39.5t38.5 -14.5q32 0 50 21t23 55l71 507h175zM466 992l95 -57l-134 -185l-74 40zM312 991l96 -52l-129 -185l-76 35z" />
    <glyph glyph-name="uhungarumlaut" unicode="&#x171;" horiz-adv-x="462" 
d="M38 14.5q-28 32.5 -28 88.5q0 17 3 35l55 395h167l-51 -369q-1 -5 -1 -14q0 -20 13 -20q24 0 56 60l47 343h167l-75 -533h-145l3 71q-28 -42 -59.5 -65.5t-76.5 -23.5q-47 0 -75 32.5zM418 866l95 -57l-134 -185l-74 40zM264 865l96 -52l-129 -185l-76 35z" />
    <glyph glyph-name="Uogonek" unicode="&#x172;" horiz-adv-x="526" 
d="M559 695l-70 -495q-10 -72 -53 -126.5t-114 -77.5q-101 -46 -101 -108q0 -16 9 -24.5t25 -8.5q23 0 53 8l-26 -103q-30 -8 -62 -8q-52 0 -85 27t-33 72t25 78t68 55q-89 8 -134 58t-45 125q0 20 3 39l68 489h174l-71 -510q-1 -6 -1 -19q0 -25 12.5 -39.5t38.5 -14.5
q32 0 50 21t23 55l71 507h175z" />
    <glyph glyph-name="uogonek" unicode="&#x173;" horiz-adv-x="462" 
d="M283 -112q0 -33 38 -33q18 0 46 5l-23 -100q-29 -8 -61 -8q-52 0 -84.5 30t-32.5 82q0 81 84 136h-4l3 71q-28 -42 -59.5 -65.5t-76.5 -23.5q-47 0 -75 32.5t-28 88.5q0 17 3 35l55 395h167l-51 -369q-1 -5 -1 -14q0 -20 13 -20q24 0 56 60l47 343h167l-75 -533
q-108 -48 -108 -112z" />
    <glyph glyph-name="Wcircumflex" unicode="&#x174;" horiz-adv-x="705" 
d="M761 695l-176 -695h-228l29 525l-117 -525h-227l22 695h170l-44 -563l135 563h176l-29 -563l122 563h167zM313 757l-60 65l140 134h99l107 -142l-66 -57l-101 85z" />
    <glyph glyph-name="wcircumflex" unicode="&#x175;" horiz-adv-x="635" 
d="M671 533l-157 -533h-187l5 380l-92 -380h-191l-10 533h167l-32 -405l107 405h156l-11 -405l85 405h160zM261 620l-55 66l139 141h100l105 -149l-69 -58l-96 94z" />
    <glyph glyph-name="Ycircumflex" unicode="&#x176;" horiz-adv-x="502" 
d="M577 695l-240 -436l-36 -259h-174l36 258l-117 437h183l42 -304l120 304h186zM206 757l-60 65l140 134h99l107 -142l-66 -57l-101 85z" />
    <glyph glyph-name="ycircumflex" unicode="&#x177;" horiz-adv-x="439" 
d="M284 -1q-43 -114 -117.5 -165.5t-189.5 -57.5l-2 115q65 10 99 32.5t59 76.5h-60l-45 533h172l-6 -425l117 425h176zM163 620l-55 66l139 141h100l105 -149l-69 -58l-96 94z" />
    <glyph glyph-name="Ydieresis" unicode="&#x178;" horiz-adv-x="502" 
d="M577 695l-240 -436l-36 -259h-174l36 258l-117 437h183l42 -304l120 304h186zM162 784.5q-19 19.5 -19 51.5q0 40 26.5 67t64.5 27q34 0 53.5 -19t19.5 -52q0 -40 -26.5 -67t-65.5 -27q-34 0 -53 19.5zM366.5 784.5q-19.5 19.5 -19.5 51.5q0 40 26.5 67t64.5 27
q34 0 53.5 -19.5t19.5 -51.5q0 -40 -26.5 -67t-65.5 -27q-33 0 -52.5 19.5z" />
    <glyph glyph-name="Zacute" unicode="&#x179;" horiz-adv-x="451" 
d="M-31 0l19 131l293 428h-215l21 136h404l-21 -133l-292 -422h247l-39 -140h-417zM387 950l56 -119l-219 -86l-39 79z" />
    <glyph glyph-name="zacute" unicode="&#x17a;" horiz-adv-x="387" 
d="M409 533l-17 -119l-210 -286h179l-34 -128h-359l17 120l210 286h-156l19 127h351zM331 835l55 -120l-218 -95l-42 79z" />
    <glyph glyph-name="Zdotaccent" unicode="&#x17b;" horiz-adv-x="451" 
d="M-31 0l19 131l293 428h-215l21 136h404l-21 -133l-292 -422h247l-39 -140h-417zM236.5 775q-22.5 22 -22.5 59q0 47 30.5 77.5t75.5 30.5q40 0 62.5 -22t22.5 -59q0 -47 -30.5 -77.5t-75.5 -30.5q-40 0 -62.5 22z" />
    <glyph glyph-name="zdotaccent" unicode="&#x17c;" horiz-adv-x="387" 
d="M409 533l-17 -119l-210 -286h179l-34 -128h-359l17 120l210 286h-156l19 127h351zM187.5 649q-22.5 22 -22.5 59q0 47 30.5 77.5t75.5 30.5q40 0 62.5 -22t22.5 -59q0 -47 -30.5 -77.5t-75.5 -30.5q-40 0 -62.5 22z" />
    <glyph glyph-name="Zcaron" unicode="&#x17d;" horiz-adv-x="451" 
d="M-31 0l19 131l293 428h-215l21 136h404l-21 -133l-292 -422h247l-39 -140h-417zM422 948l60 -66l-140 -133h-99l-107 142l66 57l101 -86z" />
    <glyph glyph-name="zcaron" unicode="&#x17e;" horiz-adv-x="387" 
d="M409 533l-17 -119l-210 -286h179l-34 -128h-359l17 120l210 286h-156l19 127h351zM378 815l55 -65l-139 -141h-100l-98 141l61 65l97 -93z" />
    <glyph glyph-name="longs" unicode="&#x17f;" horiz-adv-x="307" 
d="M384 749q34 -12 59 -32l-59 -98q-30 18 -59 18q-25 0 -39.5 -17t-19.5 -54l-77 -566h-167l57 415h-56l17 118h55l6 43q11 82 64.5 133.5t142.5 51.5q42 0 76 -12z" />
    <glyph glyph-name="uni0180" unicode="&#x180;" horiz-adv-x="502" 
d="M455.5 505q33.5 -46 33.5 -133q0 -179 -68 -284.5t-220 -105.5q-44 0 -93.5 11.5t-98.5 31.5l80 571h-40l15 96h38l7 51l169 18l-9 -69h105l-28 -96h-91l-14 -104q23 27 54 43t66 16q61 0 94.5 -46zM295 185q24 81 24 176q0 38 -8 52t-24 14q-28 0 -62 -47l-36 -268
q18 -8 36 -8q46 0 70 81z" />
    <glyph glyph-name="uni0181" unicode="&#x181;" horiz-adv-x="663" 
d="M645 230q0 -111 -79 -170.5t-213 -59.5h-202l80 569h-23q-19 0 -29.5 -14t-10.5 -41q0 -17 3 -34t4 -21l-114 -40q-20 49 -20 100q0 80 49.5 128t129.5 48h213q109 0 171.5 -40.5t62.5 -116.5q0 -68 -40 -111.5t-103 -59.5q121 -26 121 -137zM470 446q20 27 20 73
q0 52 -56 52h-29l-21 -152h24q42 0 62 27zM445 159q24 32 24 81q0 33 -16 48.5t-51 15.5h-34l-24 -177h27q50 0 74 32z" />
    <glyph glyph-name="uni0182" unicode="&#x182;" horiz-adv-x="502" 
d="M432 401.5q58 -48.5 58 -139.5q0 -67 -27.5 -126.5t-87 -97.5t-151.5 -38h-224l97 695h383l-37 -134h-191l-15 -111h37q100 0 158 -48.5zM286.5 164.5q21.5 37.5 21.5 92.5q0 36 -13.5 53.5t-43.5 17.5h-31l-28 -201h27q46 0 67.5 37.5z" />
    <glyph glyph-name="uni0183" unicode="&#x183;" horiz-adv-x="494" 
d="M445.5 487.5q33.5 -47.5 33.5 -139.5q0 -166 -67 -266t-220 -100q-44 0 -93.5 11.5t-98.5 31.5l100 718h342l-37 -121h-156l-20 -146q23 27 55 43t68 16q60 0 93.5 -47.5zM269 143q21 39 31 94t10 104q0 40 -8.5 55t-23.5 15q-30 0 -64 -47l-34 -252q18 -8 36 -8
q32 0 53 39z" />
    <glyph glyph-name="uni0184" unicode="&#x184;" horiz-adv-x="519" 
d="M453 411q58 -50 58 -145q0 -69 -27.5 -129.5t-87.5 -98.5t-151 -38h-224l67 485l-57 53q64 60 120 157h141l-33 -234h35q101 0 159 -50zM307.5 165q21.5 38 21.5 96q0 41 -13.5 59.5t-44.5 18.5h-29l-30 -212h28q46 0 67.5 38z" />
    <glyph glyph-name="uni0185" unicode="&#x185;" horiz-adv-x="467" 
d="M400 325.5q51 -41.5 51 -124.5q0 -57 -23.5 -106.5t-77.5 -81t-140 -31.5q-49 0 -91.5 8.5t-87.5 26.5l42 316l-57 53q68 64 119 147h134l-23 -166h5q98 0 149 -41.5zM270.5 123q14.5 31 14.5 81q0 29 -9.5 43t-30.5 14h-14l-23 -167q8 -2 19 -2q29 0 43.5 31z" />
    <glyph glyph-name="uni0186" unicode="&#x186;" horiz-adv-x="485" 
d="M420 646q59 -67 59 -200q0 -131 -36.5 -236t-109 -166.5t-176.5 -61.5q-62 0 -108 26t-78 67l90 92q27 -25 47.5 -37t48.5 -12q50 0 82.5 52.5t47.5 130t15 153.5q0 72 -17 100.5t-51 28.5q-27 0 -51 -11t-53 -32l-71 96q45 38 93 57.5t105 19.5q104 0 163 -67z" />
    <glyph glyph-name="uni0187" unicode="&#x187;" horiz-adv-x="484" 
d="M684 817l-58 -102q-25 16 -48 16q-34 0 -42 -59l-5 -39l-85 -86q-24 18 -46 27t-46 9q-51 0 -84 -53t-47.5 -132t-14.5 -159q0 -64 19 -93t56 -29q27 0 51 12.5t59 38.5l63 -96q-94 -90 -209 -90q-101 0 -160 68t-59 200q0 123 37 229t105 170t158 64q37 0 71 -14l2 15
q10 63 51.5 102t114.5 39q67 0 117 -38z" />
    <glyph glyph-name="uni0188" unicode="&#x188;" horiz-adv-x="399" 
d="M600 722l-58 -101q-28 15 -48 15q-18 0 -26.5 -14t-14.5 -46l-13 -93l-75 -86q-40 25 -73 25q-53 0 -77.5 -68t-24.5 -157q0 -48 13 -66t39 -18q17 0 34.5 7t40.5 22l59 -98q-73 -62 -164 -62q-92 0 -144 57.5t-52 160.5q0 97 31 177t88 127t130 47q19 0 44 -7l11 71
q12 70 51.5 107.5t109.5 37.5t119 -38z" />
    <glyph glyph-name="uni0189" unicode="&#x189;" horiz-adv-x="557" 
d="M481 641q70 -54 70 -194q0 -206 -84.5 -326.5t-263.5 -120.5h-196l42 301h-37l16 104h36l41 290h186q120 0 190 -54zM315.5 177.5q32.5 50.5 46 125t13.5 150.5q0 62 -19.5 88.5t-59.5 26.5h-35l-23 -163h94l-17 -104h-91l-24 -174h30q53 0 85.5 50.5z" />
    <glyph glyph-name="uni018A" unicode="&#x18a;" horiz-adv-x="700" 
d="M624 641q70 -54 70 -194q0 -206 -84.5 -326.5t-263.5 -120.5h-196l80 569h-22q-19 0 -29.5 -14t-10.5 -41q0 -17 3 -34t4 -21l-114 -40q-20 49 -20 100q0 80 49.5 128t129.5 48h214q120 0 190 -54zM458.5 177.5q32.5 50.5 46 125t13.5 150.5q0 62 -19.5 88.5t-59.5 26.5
h-35l-61 -441h30q53 0 85.5 50.5z" />
    <glyph glyph-name="uni018B" unicode="&#x18b;" horiz-adv-x="500" 
d="M425 0h-203q-107 0 -164 51.5t-57 145.5q0 81 33.5 137.5t93 85.5t136.5 29h50l15 112h-205l19 134h379zM269 127l28 201h-31q-41 0 -61.5 -33t-20.5 -90q0 -40 16 -59t50 -19h19z" />
    <glyph glyph-name="uni018C" unicode="&#x18c;" horiz-adv-x="493" 
d="M422 0h-148l2 61q-27 -40 -57.5 -59.5t-72.5 -19.5q-64 0 -99 49t-35 140q0 88 25.5 172t76 138t119.5 54q59 0 91 -47l18 134h-166l16 121h334zM309 383q-16 29 -40 29q-28 0 -47.5 -40.5t-29 -97t-9.5 -101.5q0 -39 7.5 -53.5t23.5 -14.5q29 0 64 62z" />
    <glyph glyph-name="uni018D" unicode="&#x18d;" horiz-adv-x="486" 
d="M62.5 -203.5q-42.5 20.5 -66.5 55.5l86 77q36 -39 78 -39q26 0 39 15t13 40q0 18 -11.5 31.5t-46.5 33.5q-73 39 -105 86t-32 123q0 74 27 150.5t87 128.5t151 52q60 0 103 -27t65.5 -73t22.5 -103q0 -99 -37.5 -170.5t-130.5 -116.5q33 -25 48.5 -54.5t15.5 -59.5
q0 -43 -23 -82t-69 -63.5t-111 -24.5q-61 0 -103.5 20.5zM288 212.5q15 56.5 15 137.5q0 76 -38 76t-58.5 -61t-20.5 -151q0 -38 9 -61t35 -44q43 47 58 103.5z" />
    <glyph glyph-name="uni018E" unicode="&#x18e;" horiz-adv-x="418" 
d="M73 695h367l-97 -695h-369l18 126h194l24 165h-161l18 123h160l22 156h-194z" />
    <glyph glyph-name="uni018F" unicode="&#x18f;" horiz-adv-x="532" 
d="M472 650.5q56 -62.5 56 -181.5q0 -140 -35 -250t-105 -173.5t-172 -63.5q-99 0 -151 63.5t-52 174.5q0 93 28 190l312 -2q4 35 4 67q0 59 -17.5 84.5t-53.5 25.5q-34 0 -62 -14.5t-58 -38.5l-62 92q50 46 101 67.5t114 21.5q97 0 153 -62.5zM289.5 148q26.5 39 45.5 139
h-156q-7 -45 -7 -79q0 -52 13 -75.5t40 -23.5q38 0 64.5 39z" />
    <glyph glyph-name="uni0190" unicode="&#x190;" horiz-adv-x="450" 
d="M417 689q45 -23 80 -71l-91 -84q-23 26 -44 39t-46 13q-33 0 -52.5 -27t-19.5 -69q0 -62 65 -62h53l-37 -125h-35q-53 0 -82.5 -30.5t-29.5 -86.5q0 -39 15.5 -57t47.5 -18q28 0 54 13.5t59 42.5l76 -88q-89 -97 -221 -97q-97 0 -153.5 49.5t-56.5 133.5q0 92 50 143
t142 60q-122 26 -122 134q0 62 33.5 110t88 74t114.5 26q67 0 112 -23z" />
    <glyph glyph-name="uni0191" unicode="&#x191;" horiz-adv-x="397" 
d="M254 570l-24 -175h149l-20 -126h-147l-39 -269l-5 -39q-13 -90 -71 -137.5t-143 -47.5q-81 0 -128 45l70 100q14 -9 24.5 -13t24.5 -4q20 0 32.5 13t15.5 37l6 46l98 695h361l-39 -125h-165z" />
    <glyph glyph-name="florin" unicode="&#x192;" horiz-adv-x="307" 
d="M285.5 620.5q-14.5 -16.5 -19.5 -54.5l-5 -34h102l-37 -118h-81l-47 -352q-13 -90 -47 -145.5t-80 -85t-114 -54.5l-38 122q52 23 77.5 55.5t34.5 102.5l48 357h-58l19 118h55l6 44q11 82 64.5 133.5t141.5 51.5q42 0 76.5 -12t59.5 -32l-59 -98q-31 18 -59 18
q-25 0 -39.5 -16.5z" />
    <glyph glyph-name="uni0193" unicode="&#x193;" horiz-adv-x="519" 
d="M719 817l-59 -102q-23 16 -47 16q-18 0 -28 -14.5t-15 -44.5l-6 -47l-84 -80q-27 22 -53 31.5t-57 9.5q-59 0 -97 -56t-54.5 -140.5t-16.5 -174.5q0 -56 15.5 -80.5t46.5 -24.5q34 0 65 22l21 148h-56l1 122h235l-48 -345q-52 -36 -112.5 -55.5t-115.5 -19.5
q-228 0 -228 259q0 126 39.5 234t113.5 173t174 65q47 0 80 -18l3 19q11 63 52 102t114 39q67 0 117 -38z" />
    <glyph glyph-name="uni0194" unicode="&#x194;" horiz-adv-x="484" 
d="M301 90q20 -54 29 -86.5t9 -66.5q0 -78 -42 -119t-118 -41q-62 0 -93.5 31t-31.5 85q0 49 20.5 97t61.5 106l-91 599h177l17 -485l142 485h178zM209 8q-35 -64 -35 -100q0 -23 17 -23q28 0 28 48q0 34 -10 75z" />
    <glyph glyph-name="uni0195" unicode="&#x195;" horiz-adv-x="705" 
d="M295.5 27q-42.5 45 -42.5 110q0 9 2 27l27 198q1 6 1 15q0 22 -13 22q-12 0 -26 -22.5t-39 -76.5l-42 -300h-167l104 743l169 17l-42 -301q23 39 56 65.5t75 26.5q46 0 73 -32.5t27 -88.5q0 -18 -3 -38l-33 -236q-2 -14 -2 -20q0 -30 24 -30q47 0 67.5 107.5t20.5 228.5
q0 49 -3 91h158q5 -55 5 -91q0 -142 -21 -241.5t-79.5 -159t-167.5 -59.5q-86 0 -128.5 45z" />
    <glyph glyph-name="uni0196" unicode="&#x196;" horiz-adv-x="336" 
d="M313 24q-56 -41 -135 -41t-122.5 40t-43.5 115q0 11 2 33l5 35l69 489h173l-68 -489l-6 -50q-1 -4 -1 -11q0 -17 8 -26t24 -9q15 0 27 3.5t30 12.5z" />
    <glyph glyph-name="uni0197" unicode="&#x197;" horiz-adv-x="282" 
d="M302 424l-17 -128h-51l-42 -296h-174l42 296h-53l17 128h54l38 271h174l-38 -271h50z" />
    <glyph glyph-name="uni0198" unicode="&#x198;" horiz-adv-x="562" 
d="M230 370l134 233q34 60 70.5 84.5t91.5 24.5q59 0 101 -36l-55 -97q-12 8 -28 8q-14 0 -23 -7t-18 -23l-97 -182l115 -375h-188zM-1 0l98 695h174l-98 -695h-174z" />
    <glyph glyph-name="uni0199" unicode="&#x199;" horiz-adv-x="490" 
d="M474 325.5q-29 -43.5 -91 -83.5l64 -242h-173l-56 256q65 28 90.5 62t25.5 77q0 18 -7.5 28t-21.5 10q-41 0 -95 -94l-47 -339h-167l74 532l9 62q11 74 63.5 120t140.5 46q73 0 129 -35l-59 -104q-33 15 -60 15q-22 0 -33.5 -14t-15.5 -45l-6 -45h-1l-7 -61q32 41 68 60
t80 19q56 0 90.5 -33.5t34.5 -87.5q0 -60 -29 -103.5z" />
    <glyph glyph-name="uni019A" unicode="&#x19a;" horiz-adv-x="290" 
d="M209 145q-1 -4 -1 -10q0 -18 16 -18q6 0 16 2l12 -117q-47 -20 -95 -20q-58 0 -88.5 31.5t-30.5 87.5q0 21 2 32l25 180h-56l17 117h55l44 313l168 17l-45 -330h56l-17 -117h-55z" />
    <glyph glyph-name="uni019B" unicode="&#x19b;" horiz-adv-x="445" 
d="M392 187.5q13 -82.5 43 -153.5l-156 -51q-25 74 -34 160t-8 216l-97 -377l-172 41l201 465l65 -12q-2 55 -8 83l-43 -43l-75 57l65 62q-22 13 -68 21l30 105q47 -10 81 -22.5t59 -33.5l76 64l46 -80l-64 -57l-3 -2q33 -74 42 -218q7 -142 20 -224.5z" />
    <glyph glyph-name="uni019C" unicode="&#x19c;" horiz-adv-x="737" 
d="M759 695l-97 -695h-153l-4 57q-33 -40 -63.5 -57.5t-66.5 -17.5q-40 0 -67.5 21t-39.5 58q-62 -79 -141 -79q-56 0 -86.5 39.5t-30.5 100.5q0 22 2 33l76 540h174l-75 -536q-1 -5 -1 -13q0 -16 6 -25t17 -9q26 0 53 54l75 529h173l-73 -534q-1 -6 -1 -17q0 -32 21 -32
q26 0 53 55l75 528h174z" />
    <glyph glyph-name="uni019D" unicode="&#x19d;" horiz-adv-x="534" 
d="M556 695l-97 -695h-206l-61 548q2 -68 2 -104q0 -105 -13 -210l-30 -234l-7 -49q-12 -84 -62 -129t-130 -45q-42 0 -71 12t-54 32l70 94q14 -9 24.5 -13t25.5 -4q20 0 32 14.5t15 41.5l6 46l97 695h207l60 -549q-2 74 -2 103q0 92 12 192l33 254h149z" />
    <glyph glyph-name="uni019E" unicode="&#x19e;" horiz-adv-x="468" 
d="M432 518.5q27 -32.5 27 -88.5q0 -18 -3 -38l-87 -598l-170 -19l84 587q1 6 1 16q0 21 -13 21q-12 0 -26 -22.5t-39 -76.5l-42 -300h-167l74 533h145v-81q63 99 142 99q47 0 74 -32.5z" />
    <glyph glyph-name="uni019F" unicode="&#x19f;" horiz-adv-x="580" 
d="M518 647.5q57 -65.5 57 -196.5q0 -125 -35.5 -232t-108 -172t-179.5 -65q-111 0 -167.5 66t-56.5 196q0 125 35 232t107.5 172t179.5 65q111 0 168 -65.5zM263.5 536.5q-31.5 -52.5 -48.5 -136.5h188q3 45 3 83q0 57 -15 81.5t-48 24.5q-48 0 -79.5 -52.5zM341 159.5
q32 54.5 49 142.5h-190q-5 -42 -5 -94q0 -56 15 -79.5t49 -23.5q50 0 82 54.5z" />
    <glyph glyph-name="Ohorn" unicode="&#x1a0;" horiz-adv-x="617" 
d="M648 608q-30 -40 -85 -51q12 -46 12 -106q0 -125 -35.5 -232t-108 -172t-179.5 -65q-111 0 -167.5 66t-56.5 196q0 125 35 232t107.5 172t179.5 65q121 0 178 -78q42 10 42 78q0 27 -3 46l105 13q6 -24 6 -58q0 -66 -30 -106zM340.5 170q30.5 61 44 147.5t13.5 165.5
q0 54 -14.5 78t-44.5 24q-46 0 -76.5 -62.5t-44.5 -150t-14 -164.5q0 -53 14.5 -76t44.5 -23q47 0 77.5 61z" />
    <glyph glyph-name="ohorn" unicode="&#x1a1;" horiz-adv-x="541" 
d="M557 445.5q-30 -38.5 -86 -49.5q5 -30 5 -58q0 -95 -30 -176.5t-90.5 -130.5t-147.5 -49q-91 0 -142 53.5t-51 158.5q0 95 30 176.5t91 131t148 49.5q55 0 95.5 -20t64.5 -59q20 7 28.5 26t8.5 52q0 27 -3 46l103 13q6 -22 6 -58q0 -67 -30 -105.5zM270 147.5
q20 42.5 29 103t9 113.5q0 33 -9 48t-27 15q-31 0 -50.5 -42.5t-28.5 -102t-9 -113.5q0 -34 9 -49t27 -15q30 0 50 42.5z" />
    <glyph glyph-name="uni01A2" unicode="&#x1a2;" horiz-adv-x="811" 
d="M769 673.5q44 -39.5 44 -108.5q0 -22 -2 -33l-105 -745h-173l105 753q1 5 1 13q0 37 -33 37q-24 0 -50 -18q19 -55 19 -121q0 -125 -35.5 -232t-108 -172t-179.5 -65q-111 0 -167.5 66t-56.5 196q0 125 35 232t107.5 172t179.5 65q88 0 147 -51q66 51 152 51
q76 0 120 -39.5zM340.5 170q30.5 61 44 147.5t13.5 165.5q0 54 -14.5 78t-44.5 24q-46 0 -76.5 -62.5t-44.5 -150t-14 -164.5q0 -53 14.5 -76t44.5 -23q47 0 77.5 61z" />
    <glyph glyph-name="uni01A3" unicode="&#x1a3;" horiz-adv-x="697" 
d="M641.5 510.5q39.5 -40.5 39.5 -111.5q0 -18 -3 -38l-78 -568l-169 -18l83 609q1 5 1 15q0 29 -26 29q-12 0 -30 -5q11 -39 11 -85q0 -95 -30 -176.5t-89.5 -130.5t-145.5 -49q-89 0 -139.5 53.5t-50.5 158.5q0 95 30 176.5t90 131t146 49.5q68 0 115 -33q33 17 63.5 25
t69.5 8q73 0 112.5 -40.5zM265 147.5q19 42.5 28 103t9 113.5q0 63 -33 63q-29 0 -48 -42.5t-28 -102.5t-9 -113q0 -34 8.5 -49t24.5 -15q29 0 48 42.5z" />
    <glyph glyph-name="uni01A4" unicode="&#x1a4;" horiz-adv-x="648" 
d="M610.5 645.5q59.5 -49.5 59.5 -144.5q0 -80 -33 -142t-96 -97t-150 -35h-35l-32 -227h-174l80 569h-22q-19 0 -29.5 -14t-10.5 -41q0 -17 3 -34t4 -21l-114 -40q-20 49 -20 100q0 80 49.5 128t129.5 48h217q114 0 173.5 -49.5zM469.5 393.5q23.5 40.5 23.5 105.5
q0 39 -15.5 55t-51.5 16h-22l-30 -217h17q55 0 78.5 40.5z" />
    <glyph glyph-name="uni01A5" unicode="&#x1a5;" horiz-adv-x="492" 
d="M446 505q33 -46 33 -133q0 -172 -62.5 -281t-187.5 -109q-35 0 -67 9l-29 -198l-168 -18l105 757l9 62q11 74 63.5 120t140.5 46q73 0 129 -35l-59 -104q-33 15 -60 15q-22 0 -33.5 -14t-15.5 -45l-6 -45h-1l-5 -46q25 33 53.5 49t66.5 16q61 0 94 -46zM268.5 146.5
q21.5 43.5 31.5 104.5t10 114q0 35 -8 48.5t-24 13.5q-14 0 -30.5 -12.5t-31.5 -34.5l-38 -268q21 -9 36 -9q33 0 54.5 43.5z" />
    <glyph glyph-name="uni01A6" unicode="&#x1a6;" horiz-adv-x="515" 
d="M478 270q-31 -52 -96 -89l97 -294h-180l-72 259h-32l-20 -146h-174l97 695h174l-16 -114h15q121 0 179.5 -47.5t58.5 -136.5q0 -75 -31 -127zM212 267h25q50 0 73 36t23 89q0 35 -16.5 50.5t-51.5 15.5h-26z" />
    <glyph glyph-name="uni01A7" unicode="&#x1a7;" horiz-adv-x="465" 
d="M451.5 667q50.5 -45 50.5 -123q0 -65 -24.5 -109.5t-71 -75.5t-120.5 -60q-57 -22 -81 -51.5t-24 -75.5q0 -58 55 -58q60 0 136 62l71 -95q-44 -45 -104.5 -72t-136.5 -27q-93 0 -147 50t-54 132q0 100 51.5 160t151.5 96q49 17 74.5 32.5t36 34t10.5 47.5
q0 25 -13.5 37.5t-36.5 12.5q-61 0 -128 -54l-60 92q102 90 230 90q84 0 134.5 -45z" />
    <glyph glyph-name="uni01A8" unicode="&#x1a8;" horiz-adv-x="400" 
d="M360 511.5q45 -39.5 45 -102.5q0 -62 -35.5 -106.5t-116.5 -77.5q-52 -22 -69.5 -40t-17.5 -43q0 -40 40 -40q22 0 51.5 14.5t57.5 35.5l65 -91q-41 -36 -96.5 -57.5t-109.5 -21.5q-84 0 -133 41t-49 111q0 63 35.5 109t126.5 82q53 20 70 35.5t17 39.5q0 15 -9.5 23
t-24.5 8q-20 0 -46 -10.5t-50 -27.5l-47 91q37 32 83.5 49.5t93.5 17.5q74 0 119 -39.5z" />
    <glyph glyph-name="uni01A9" unicode="&#x1a9;" horiz-adv-x="417" 
d="M463 695l-18 -127h-216l100 -198l-8 -66l-142 -174h208l-19 -130h-392l19 127l176 222l-118 219l19 127h391z" />
    <glyph glyph-name="uni01AA" unicode="&#x1aa;" horiz-adv-x="394" 
d="M446 -182q-60 -41 -137 -41q-75 0 -117.5 40t-42.5 116q0 10 2 32l5 35l59 421q-30 -14 -62 -14q-51 0 -84.5 42.5t-33.5 108.5q0 91 54.5 146.5t146.5 55.5q77 0 121.5 -44t44.5 -124q0 -20 -3 -41l-76 -551l-7 -53q-1 -4 -1 -12q0 -17 9 -26.5t26 -9.5q15 0 25 3.5
t28 12.5zM229 527l10 70q1 6 1 17q0 30 -23 30q-22 0 -32 -23.5t-10 -58.5q0 -21 7.5 -30t22.5 -9q13 0 24 4z" />
    <glyph glyph-name="uni01AB" unicode="&#x1ab;" horiz-adv-x="327" 
d="M201 154q-1 -4 -1 -11q0 -17 8 -26t22 -9q19 0 40 9l37 -96l-11 -75q-12 -83 -64.5 -126t-137.5 -43q-81 0 -132 44l67 95q17 -10 31.5 -15t33.5 -5q53 0 60 62l3 25q-61 4 -93 41.5t-32 101.5q0 19 3 38l35 251h-52l18 118h57l31 117l148 17l-19 -134h96l-36 -118h-76z
" />
    <glyph glyph-name="uni01AC" unicode="&#x1ac;" horiz-adv-x="509" 
d="M537 560h-125l-79 -560h-174l79 560h-30q-40 0 -40 -46q0 -17 3 -34t4 -21l-114 -40q-20 49 -20 100q0 80 50 128t130 48h353z" />
    <glyph glyph-name="uni01AD" unicode="&#x1ad;" horiz-adv-x="327" 
d="M253 533h96l-36 -118h-76l-34 -252q-1 -5 -1 -13q0 -34 28 -34q17 0 39 11l38 -106q-29 -20 -63.5 -29.5t-69.5 -9.5q-69 0 -105.5 38t-36.5 106q0 19 3 38l34 251h-51l18 118h49l7 53q11 84 60 129t132 45q70 0 119 -38l-59 -92q-26 13 -44 13q-33 0 -38 -41z" />
    <glyph glyph-name="uni01AE" unicode="&#x1ae;" horiz-adv-x="451" 
d="M269 -50q-1 -4 -1 -11q0 -17 8 -26t24 -9q15 0 27 3.5t30 12.5l38 -102q-56 -41 -135 -41t-122.5 40t-43.5 115q0 11 2 33l5 35l79 560h-137l19 135h453l-37 -135h-124l-79 -560z" />
    <glyph glyph-name="Uhorn" unicode="&#x1af;" horiz-adv-x="622" 
d="M652.5 595.5q-40.5 -40.5 -113.5 -42.5l-50 -353q-9 -62 -41.5 -111t-88.5 -78t-130 -29q-105 0 -159 51.5t-54 133.5q0 20 3 39l68 489h174l-71 -510q-1 -6 -1 -19q0 -25 12.5 -39.5t38.5 -14.5q32 0 50 21t23 55l71 507h175l-8 -57q34 13 34 75q0 27 -3 46l105 13
q6 -24 6 -58q0 -78 -40.5 -118.5z" />
    <glyph glyph-name="uhorn" unicode="&#x1b0;" horiz-adv-x="556" 
d="M561 432.5q-41 -39.5 -115 -40.5l-55 -392h-145l3 71q-28 -42 -59.5 -65.5t-76.5 -23.5q-47 0 -75 32.5t-28 88.5q0 17 3 35l55 395h167l-51 -369q-1 -5 -1 -14q0 -20 13 -20q24 0 56 60l47 343h167l-9 -62q39 13 39 79q0 27 -3 46l103 13q6 -22 6 -58q0 -79 -41 -118.5z
" />
    <glyph glyph-name="uni01B1" unicode="&#x1b1;" horiz-adv-x="576" 
d="M82.5 53q-58.5 71 -58.5 187q0 113 38 195.5t124 135.5h-103l18 124h227l-18 -117q-56 -31 -82.5 -138.5t-26.5 -225.5q0 -55 14.5 -79.5t43.5 -24.5q48 0 79.5 56t45.5 138t14 163q0 43 -10.5 67.5t-35.5 43.5l18 117h226l-18 -125h-103q45 -33 67.5 -78.5t22.5 -110.5
q0 -109 -38.5 -200t-110.5 -145t-168 -54q-107 0 -165.5 71z" />
    <glyph glyph-name="uni01B2" unicode="&#x1b2;" horiz-adv-x="527" 
d="M539 587q0 -20 -3 -44l-39 -285q-18 -132 -93 -204t-191 -72q-93 0 -145.5 51t-52.5 132q0 18 3 36l70 494h174l-71 -506q-2 -16 -2 -23q0 -54 41 -54q33 0 57.5 35t35.5 110l41 308q1 3 1 8q0 17 -16 17q-10 0 -16 -3l-6 109q43 17 89 17q123 0 123 -126z" />
    <glyph glyph-name="uni01B3" unicode="&#x1b3;" horiz-adv-x="522" 
d="M163 258l-117 437h183l40 -304l68 191q23 68 61.5 99.5t102.5 31.5q62 0 110 -39l-58 -97q-9 6 -16 8.5t-17 2.5q-13 0 -21.5 -7t-17.5 -26l-143 -296l-37 -259h-174z" />
    <glyph glyph-name="uni01B4" unicode="&#x1b4;" horiz-adv-x="444" 
d="M-25 -109q65 10 99 32.5t59 76.5h-60l-45 533h172l-6 -425l87 340q14 71 51 103.5t101 32.5q23 0 40 -4t37 -12l-41 -112q-8 5 -20 5q-11 0 -18 -7t-12 -25l-132 -423q-37 -119 -114.5 -171.5t-195.5 -58.5z" />
    <glyph glyph-name="uni01B5" unicode="&#x1b5;" horiz-adv-x="451" 
d="M491 695l-21 -133l-119 -165h61l-15 -106h-123l-109 -151h260l-39 -140h-417l19 131l114 160h-63l15 106h124l116 162h-228l21 136h404z" />
    <glyph glyph-name="uni01B6" unicode="&#x1b6;" horiz-adv-x="386" 
d="M409 533l-16 -111l-81 -104h51l-16 -95h-110l-80 -103h202l-32 -120h-359l17 112l87 111h-53l14 95h114l75 96h-182l18 119h351z" />
    <glyph glyph-name="uni01B7" unicode="&#x1b7;" horiz-adv-x="461" 
d="M457 572l-156 -169q71 -6 108.5 -47.5t37.5 -113.5q0 -80 -36 -139t-96.5 -90t-133.5 -31q-75 0 -122.5 27t-79.5 79l100 81q25 -31 47 -44.5t53 -13.5q38 0 64 33.5t26 87.5q0 72 -71 72h-87l14 97l149 167h-194l20 127h376z" />
    <glyph glyph-name="uni01B8" unicode="&#x1b8;" horiz-adv-x="464" 
d="M460 568h-205l119 -169l-16 -94l1 -1h-79q-51 0 -76 -30.5t-25 -87.5q0 -75 59 -75q29 0 56.5 15t61.5 47l78 -87q-43 -51 -96.5 -77.5t-125.5 -26.5q-101 0 -157.5 53.5t-56.5 144.5q0 63 27 112.5t74.5 78t107.5 32.5l-122 169l20 123h375z" />
    <glyph glyph-name="uni01B9" unicode="&#x1b9;" horiz-adv-x="431" 
d="M426 407h-203l113 -197l-15 -93l-2 1l1 -1h-81q-45 0 -71 -33.5t-26 -92.5q0 -43 16.5 -64t47.5 -21q28 0 54 13.5t60 44.5l73 -86q-85 -101 -217 -101q-97 0 -152 55.5t-55 147.5q0 99 57 161.5t159 71.5l-127 204l18 116h369z" />
    <glyph glyph-name="uni01BA" unicode="&#x1ba;" horiz-adv-x="426" 
d="M5.5 -166q-33.5 35 -33.5 80q0 63 40 96.5t119 56.5q54 17 75 34t21 47q0 21 -12 29.5t-43 8.5h-97l14 89l136 139h-194l19 119h371l-17 -109l-146 -146h9q60 0 95 -32.5t35 -91.5q0 -81 -49 -125.5t-135 -68.5q-41 -11 -61 -19.5t-26.5 -16.5t-6.5 -20q0 -19 21 -37
l-45 -91q-56 23 -89.5 58z" />
    <glyph glyph-name="uni01BB" unicode="&#x1bb;" horiz-adv-x="432" 
d="M419.5 434.5q-16.5 -42.5 -49.5 -88.5h48l-14 -107h-124q-42 -45 -109 -110l223 1l-36 -130h-381l15 120q50 52 111 119h-61l15 107h136q36 49 54 88.5t18 74.5q0 27 -12 40.5t-34 13.5q-24 0 -47 -15.5t-54 -48.5l-86 76q44 57 97.5 87.5t120.5 30.5q90 0 138 -48.5
t48 -123.5q0 -44 -16.5 -86.5z" />
    <glyph glyph-name="uni01BC" unicode="&#x1bc;" horiz-adv-x="461" 
d="M-21 88l100 79q20 -30 40.5 -44.5t49.5 -14.5q53 0 76.5 50.5t23.5 119.5q0 35 -12 49.5t-35 14.5q-31 0 -66 -24h-109l53 377h368l-35 -121h-195l-21 -141q25 14 46 19.5t44 5.5q60 0 95.5 -43.5t35.5 -127.5q0 -89 -33 -158t-95.5 -108t-147.5 -39q-120 0 -183 106z
" />
    <glyph glyph-name="uni01BD" unicode="&#x1bd;" horiz-adv-x="407" 
d="M358 414h-151l-11 -83q32 15 68 15q49 0 81.5 -36.5t32.5 -103.5q0 -71 -30.5 -121.5t-82 -76.5t-111.5 -26t-100 21.5t-74 62.5l96 85q21 -22 39 -32.5t41 -10.5q27 0 42 23.5t15 62.5q0 43 -30 43q-16 0 -40 -13h-106l44 309h317z" />
    <glyph glyph-name="uni01BE" unicode="&#x1be;" horiz-adv-x="425" 
d="M379.5 366q22.5 -37 22.5 -99q0 -83 -32 -147.5t-89 -100.5t-129 -36q-117 0 -188 94l91 79q23 -26 42.5 -37.5t42.5 -11.5q43 0 66.5 42.5t23.5 112.5q0 49 -17.5 75.5t-58.5 40.5l-34 11l19 138h-50l14 96h50l17 120l168 17l-19 -137h80l-14 -96h-80l-13 -92l23 -11
q42 -21 64.5 -58z" />
    <glyph glyph-name="uni01BF" unicode="&#x1bf;" horiz-adv-x="495" 
d="M451 507q36 -44 36 -121q0 -92 -33.5 -158.5t-86 -111.5t-128.5 -88l-78 -43l-27 -191l-169 -18l106 757h149l-1 -54q30 35 63 53.5t73 18.5q60 0 96 -44zM289 236q27 58 27 137q0 57 -35 57q-31 0 -64 -42l-38 -275l27 21q56 44 83 102z" />
    <glyph glyph-name="uni01C0" unicode="&#x1c0;" horiz-adv-x="217" 
d="M249 758l-109 -758h-141l105 743z" />
    <glyph glyph-name="uni01C1" unicode="&#x1c1;" horiz-adv-x="421" 
d="M249 758l-109 -758h-141l105 743zM452 758l-109 -758h-141l105 743z" />
    <glyph glyph-name="uni01C2" unicode="&#x1c2;" horiz-adv-x="283" 
d="M300 395h-67l-8 -55h67l-13 -94h-68l-35 -246h-141l35 246h-71l14 94h70l8 55h-70l14 94h69l36 254l145 15l-39 -269h67z" />
    <glyph glyph-name="uni01C3" unicode="&#x1c3;" horiz-adv-x="255" 
d="M267 758l-74 -518h-141l71 503zM30.5 5.5q-21.5 23.5 -21.5 58.5q0 44 29 74.5t73 30.5q37 0 58.5 -23.5t21.5 -59.5q0 -44 -29 -74t-73 -30q-37 0 -58.5 23.5z" />
    <glyph glyph-name="uni01C4" unicode="&#x1c4;" horiz-adv-x="975" 
d="M473 641q70 -54 70 -194q0 -206 -84.5 -326.5t-263.5 -120.5h-196l98 695h186q120 0 190 -54zM253 568l-61 -441h30q53 0 85.5 50.5t46 125t13.5 150.5q0 62 -19.5 88.5t-59.5 26.5h-35zM493 0l19 131l293 428h-215l21 136h404l-21 -133l-292 -422h247l-39 -140h-417z
M946 948l60 -66l-140 -133h-99l-107 142l66 57l101 -86z" />
    <glyph glyph-name="uni01C5" unicode="&#x1c5;" horiz-adv-x="926" 
d="M473 641q70 -54 70 -194q0 -206 -84.5 -326.5t-263.5 -120.5h-196l98 695h186q120 0 190 -54zM253 568l-61 -441h30q53 0 85.5 50.5t46 125t13.5 150.5q0 62 -19.5 88.5t-59.5 26.5h-35zM948 533l-17 -119l-210 -286h179l-34 -128h-359l17 120l210 286h-156l19 127h351z
M917 815l55 -65l-139 -141h-100l-98 141l61 65l97 -93z" />
    <glyph glyph-name="uni01C6" unicode="&#x1c6;" horiz-adv-x="881" 
d="M527 743l-104 -743h-148l2 61q-27 -40 -57.5 -59.5t-72.5 -19.5q-64 0 -99 48.5t-35 140.5q0 96 26 183.5t76 142t120 54.5q59 0 91 -47l35 256zM223 386.5q-20 -41.5 -30 -101.5t-10 -112q0 -39 8 -53.5t24 -14.5q29 0 64 62l32 232q-8 15 -17 22t-23 7q-28 0 -48 -41.5
zM903 533l-17 -119l-210 -286h179l-34 -128h-359l17 120l210 286h-156l19 127h351zM872 815l55 -65l-139 -141h-100l-98 141l61 65l97 -93z" />
    <glyph glyph-name="uni01C7" unicode="&#x1c7;" horiz-adv-x="673" 
d="M271 695l-78 -557h212l-39 -138h-367l98 695h174zM614 101q-13 -88 -48 -142t-82.5 -82.5t-115.5 -52.5l-30 122q52 25 73 61t31 107l81 581h174z" />
    <glyph glyph-name="uni01C8" unicode="&#x1c8;" horiz-adv-x="643" 
d="M271 695l-78 -557h212l-39 -138h-367l98 695h174zM302 -101q52 22 77 54.5t35 102.5l66 477h167l-66 -471q-13 -90 -47 -145.5t-80 -85t-114 -54.5zM517.5 649q-22.5 22 -22.5 59q0 47 30.5 77.5t75.5 30.5q40 0 62.5 -22t22.5 -59q0 -47 -30.5 -77.5t-75.5 -30.5
q-40 0 -62.5 22z" />
    <glyph glyph-name="uni01C9" unicode="&#x1c9;" horiz-adv-x="484" 
d="M179 145q-1 -4 -1 -10q0 -18 16 -18q6 0 16 2l12 -117q-47 -20 -95 -20q-58 0 -88.5 31.5t-30.5 87.5q0 21 2 32l85 610l168 17zM143 -101q52 22 77 54.5t35 102.5l66 477h167l-66 -471q-13 -90 -47 -145.5t-80 -85t-114 -54.5zM358.5 649q-22.5 22 -22.5 59
q0 47 30.5 77.5t75.5 30.5q40 0 62.5 -22t22.5 -59q0 -47 -30.5 -77.5t-75.5 -30.5q-40 0 -62.5 22z" />
    <glyph glyph-name="uni01CA" unicode="&#x1ca;" horiz-adv-x="808" 
d="M459 0h-206l-61 548q2 -68 2 -104q0 -105 -13 -210l-30 -234h-151l97 695h207l60 -549q-2 74 -2 103q0 92 12 192l33 254h149zM749 101q-13 -88 -48 -142t-82.5 -82.5t-115.5 -52.5l-30 122q52 25 73 61t31 107l81 581h174z" />
    <glyph glyph-name="uni01CB" unicode="&#x1cb;" horiz-adv-x="769" 
d="M459 0h-206l-61 548q2 -68 2 -104q0 -105 -13 -210l-30 -234h-151l97 695h207l60 -549q-2 74 -2 103q0 92 12 192l33 254h149zM428 -101q52 22 77 54.5t35 102.5l66 477h167l-66 -471q-13 -90 -47 -145.5t-80 -85t-114 -54.5zM643.5 649q-22.5 22 -22.5 59
q0 47 30.5 77.5t75.5 30.5q40 0 62.5 -22t22.5 -59q0 -47 -30.5 -77.5t-75.5 -30.5q-40 0 -62.5 22z" />
    <glyph glyph-name="uni01CC" unicode="&#x1cc;" horiz-adv-x="703" 
d="M432 518.5q27 -32.5 27 -88.5q0 -18 -3 -38l-56 -392h-167l50 362q1 6 1 15q0 22 -13 22q-12 0 -26 -22.5t-39 -76.5l-42 -300h-167l74 533h145v-81q63 99 142 99q47 0 74 -32.5zM362 -101q52 22 77 54.5t35 102.5l66 477h167l-66 -471q-13 -90 -47 -145.5t-80 -85
t-114 -54.5zM577.5 649q-22.5 22 -22.5 59q0 47 30.5 77.5t75.5 30.5q40 0 62.5 -22t22.5 -59q0 -47 -30.5 -77.5t-75.5 -30.5q-40 0 -62.5 22z" />
    <glyph glyph-name="uni01CD" unicode="&#x1cd;" horiz-adv-x="501" 
d="M300 0l-3 145h-128l-41 -145h-180l258 695h208l64 -695h-178zM204 271h91l-5 307zM448 948l60 -66l-140 -133h-99l-107 142l66 57l101 -86z" />
    <glyph glyph-name="uni01CE" unicode="&#x1ce;" horiz-adv-x="482" 
d="M483 499l-48 -340q-3 -16 -3 -29t4.5 -21.5t15.5 -13.5l-52 -110q-42 4 -74 22.5t-44 52.5q-28 -39 -59 -58.5t-73 -19.5q-66 0 -101.5 50.5t-35.5 138.5q0 101 28.5 187t92.5 139.5t164 53.5q96 0 185 -52zM207 351.5q-26 -80.5 -26 -184.5q0 -34 7.5 -47.5t22.5 -13.5
q14 0 28 14.5t31 40.5l37 266q-13 5 -25 5q-49 0 -75 -80.5zM446 815l55 -65l-139 -141h-100l-98 141l61 65l97 -93z" />
    <glyph glyph-name="uni01CF" unicode="&#x1cf;" horiz-adv-x="248" 
d="M271 695l-98 -695h-174l98 695h174zM321 948l60 -66l-140 -133h-99l-107 142l66 57l101 -86z" />
    <glyph glyph-name="uni01D0" unicode="&#x1d0;" horiz-adv-x="235" 
d="M238 533l-74 -533h-167l74 533h167zM298 815l55 -65l-139 -141h-100l-98 141l61 65l97 -93z" />
    <glyph glyph-name="uni01D1" unicode="&#x1d1;" horiz-adv-x="580" 
d="M518 647.5q57 -65.5 57 -196.5q0 -125 -35.5 -232t-108 -172t-179.5 -65q-111 0 -167.5 66t-56.5 196q0 125 35 232t107.5 172t179.5 65q111 0 168 -65.5zM262.5 522.5q-30.5 -62.5 -44.5 -150t-14 -164.5q0 -53 14.5 -76t44.5 -23q47 0 77.5 61t44 147.5t13.5 165.5
q0 54 -14.5 78t-44.5 24q-46 0 -76.5 -62.5zM485 948l60 -66l-140 -133h-99l-107 142l66 57l101 -86z" />
    <glyph glyph-name="uni01D2" unicode="&#x1d2;" horiz-adv-x="492" 
d="M66 35.5q-51 53.5 -51 158.5q0 95 30 176.5t91 131t148 49.5q90 0 141 -54t51 -159q0 -95 -30 -176.5t-90.5 -130.5t-147.5 -49q-91 0 -142 53.5zM270 147.5q20 42.5 29 103t9 113.5q0 33 -9 48t-27 15q-31 0 -50.5 -42.5t-28.5 -102t-9 -113.5q0 -34 9 -49t27 -15
q30 0 50 42.5zM426 815l55 -65l-139 -141h-100l-98 141l61 65l97 -93z" />
    <glyph glyph-name="uni01D3" unicode="&#x1d3;" horiz-adv-x="526" 
d="M489 200q-9 -62 -41.5 -111t-88.5 -78t-130 -29q-105 0 -159 51.5t-54 133.5q0 20 3 39l68 489h174l-71 -510q-1 -6 -1 -19q0 -25 12.5 -39.5t38.5 -14.5q32 0 50 21t23 55l71 507h175zM459 948l60 -66l-140 -133h-99l-107 142l66 57l101 -86z" />
    <glyph glyph-name="uni01D4" unicode="&#x1d4;" horiz-adv-x="462" 
d="M38 14.5q-28 32.5 -28 88.5q0 17 3 35l55 395h167l-51 -369q-1 -5 -1 -14q0 -20 13 -20q24 0 56 60l47 343h167l-75 -533h-145l3 71q-28 -42 -59.5 -65.5t-76.5 -23.5q-47 0 -75 32.5zM411 815l55 -65l-139 -141h-100l-98 141l61 65l97 -93z" />
    <glyph glyph-name="uni01D5" unicode="&#x1d5;" horiz-adv-x="526" 
d="M489 200q-9 -62 -41.5 -111t-88.5 -78t-130 -29q-105 0 -159 51.5t-54 133.5q0 20 3 39l68 489h174l-71 -510q-1 -6 -1 -19q0 -25 12.5 -39.5t38.5 -14.5q32 0 50 21t23 55l71 507h175zM175 764.5q-19 19.5 -19 51.5q0 40 26.5 67t64.5 27q34 0 53.5 -19t19.5 -52
q0 -40 -26.5 -67t-65.5 -27q-34 0 -53 19.5zM379.5 764.5q-19.5 19.5 -19.5 51.5q0 40 26.5 67t64.5 27q34 0 53.5 -19.5t19.5 -51.5q0 -40 -26.5 -67t-65.5 -27q-33 0 -52.5 19.5zM483 953h-264l18 117h264z" />
    <glyph glyph-name="uni01D6" unicode="&#x1d6;" horiz-adv-x="462" 
d="M38 14.5q-28 32.5 -28 88.5q0 17 3 35l55 395h167l-51 -369q-1 -5 -1 -14q0 -20 13 -20q24 0 56 60l47 343h167l-75 -533h-145l3 71q-28 -42 -59.5 -65.5t-76.5 -23.5q-47 0 -75 32.5zM122 617.5q-19 19.5 -19 51.5q0 40 26.5 67t64.5 27q34 0 53.5 -19t19.5 -52
q0 -40 -26.5 -67t-65.5 -27q-34 0 -53 19.5zM326.5 617.5q-19.5 19.5 -19.5 51.5q0 40 26.5 67t64.5 27q34 0 53.5 -19.5t19.5 -51.5q0 -40 -26.5 -67t-65.5 -27q-33 0 -52.5 19.5zM432 805h-264l18 117h264z" />
    <glyph glyph-name="uni01D7" unicode="&#x1d7;" horiz-adv-x="526" 
d="M489 200q-9 -62 -41.5 -111t-88.5 -78t-130 -29q-105 0 -159 51.5t-54 133.5q0 20 3 39l68 489h174l-71 -510q-1 -6 -1 -19q0 -25 12.5 -39.5t38.5 -14.5q32 0 50 21t23 55l71 507h175zM433 1112l80 -85l-166 -148l-57 51zM169 768.5q-19 19.5 -19 51.5q0 40 27 67t65 27
q34 0 53 -19.5t19 -51.5q0 -40 -27 -67t-65 -27q-34 0 -53 19.5zM387.5 768.5q-19.5 19.5 -19.5 51.5q0 40 27 67t65 27q34 0 53 -19.5t19 -51.5q0 -40 -26.5 -67t-64.5 -27q-34 0 -53.5 19.5z" />
    <glyph glyph-name="uni01D8" unicode="&#x1d8;" horiz-adv-x="462" 
d="M38 14.5q-28 32.5 -28 88.5q0 17 3 35l55 395h167l-51 -369q-1 -5 -1 -14q0 -20 13 -20q24 0 56 60l47 343h167l-75 -533h-145l3 71q-28 -42 -59.5 -65.5t-76.5 -23.5q-47 0 -75 32.5zM372 961l80 -85l-166 -148l-57 51zM105 616.5q-19 19.5 -19 51.5q0 40 27 67t65 27
q34 0 53 -19.5t19 -51.5q0 -40 -26.5 -67t-65.5 -27q-34 0 -53 19.5zM323 616.5q-19 19.5 -19 51.5q0 40 27 67t65 27q34 0 53 -19.5t19 -51.5q0 -40 -27 -67t-65 -27q-34 0 -53 19.5z" />
    <glyph glyph-name="uni01D9" unicode="&#x1d9;" horiz-adv-x="526" 
d="M489 200q-9 -62 -41.5 -111t-88.5 -78t-130 -29q-105 0 -159 51.5t-54 133.5q0 20 3 39l68 489h174l-71 -510q-1 -6 -1 -19q0 -25 12.5 -39.5t38.5 -14.5q32 0 50 21t23 55l71 507h175zM480 1112l60 -66l-140 -133h-99l-107 142l66 57l101 -86zM168 768.5
q-19 19.5 -19 51.5q0 40 27 67t65 27q34 0 53 -19.5t19 -51.5q0 -40 -27 -67t-65 -27q-34 0 -53 19.5zM386.5 768.5q-19.5 19.5 -19.5 51.5q0 40 27 67t65 27q34 0 53 -19.5t19 -51.5q0 -40 -26.5 -67t-65.5 -27q-33 0 -52.5 19.5z" />
    <glyph glyph-name="uni01DA" unicode="&#x1da;" horiz-adv-x="462" 
d="M38 14.5q-28 32.5 -28 88.5q0 17 3 35l55 395h167l-51 -369q-1 -5 -1 -14q0 -20 13 -20q24 0 56 60l47 343h167l-75 -533h-145l3 71q-28 -42 -59.5 -65.5t-76.5 -23.5q-47 0 -75 32.5zM419 960l60 -66l-140 -133h-99l-107 142l66 57l101 -86zM105.5 616.5
q-19.5 19.5 -19.5 51.5q0 40 27 67t65 27q34 0 53 -19.5t19 -51.5q0 -40 -26.5 -67t-65.5 -27q-33 0 -52.5 19.5zM323 616.5q-19 19.5 -19 51.5q0 40 27 67t65 27q34 0 53 -19.5t19 -51.5q0 -40 -27 -67t-65 -27q-34 0 -53 19.5z" />
    <glyph glyph-name="uni01DB" unicode="&#x1db;" horiz-adv-x="526" 
d="M489 200q-9 -62 -41.5 -111t-88.5 -78t-130 -29q-105 0 -159 51.5t-54 133.5q0 20 3 39l68 489h174l-71 -510q-1 -6 -1 -19q0 -25 12.5 -39.5t38.5 -14.5q32 0 50 21t23 55l71 507h175zM319 1110l92 -183l-71 -47l-123 155zM166 769.5q-19 19.5 -19 51.5q0 40 27 67
t65 27q34 0 53 -19.5t19 -51.5q0 -40 -27 -67t-65 -27q-34 0 -53 19.5zM384.5 769.5q-19.5 19.5 -19.5 51.5q0 40 27 67t65 27q34 0 53 -19.5t19 -51.5q0 -40 -26.5 -67t-64.5 -27q-34 0 -53.5 19.5z" />
    <glyph glyph-name="uni01DC" unicode="&#x1dc;" horiz-adv-x="462" 
d="M38 14.5q-28 32.5 -28 88.5q0 17 3 35l55 395h167l-51 -369q-1 -5 -1 -14q0 -20 13 -20q24 0 56 60l47 343h167l-75 -533h-145l3 71q-28 -42 -59.5 -65.5t-76.5 -23.5q-47 0 -75 32.5zM255 958l92 -183l-71 -47l-123 155zM105.5 616.5q-19.5 19.5 -19.5 51.5
q0 40 26.5 67t64.5 27q34 0 53.5 -19.5t19.5 -51.5q0 -40 -26.5 -67t-64.5 -27q-34 0 -53.5 19.5zM323.5 616.5q-19.5 19.5 -19.5 51.5q0 40 26.5 67t64.5 27q34 0 53.5 -19.5t19.5 -51.5q0 -40 -26.5 -67t-64.5 -27q-34 0 -53.5 19.5z" />
    <glyph glyph-name="uni01DD" unicode="&#x1dd;" horiz-adv-x="463" 
d="M396.5 500q51.5 -51 51.5 -152q0 -102 -31 -185t-94 -132t-154 -49q-80 0 -127 41t-45 106q6 179 287 212v14q0 72 -61 72q-26 0 -51 -11t-58 -35l-56 97q87 73 195 73q92 0 143.5 -51zM241.5 135.5q21.5 41.5 32.5 104.5q-60 -6 -88 -38t-28 -73q0 -35 30 -35
q32 0 53.5 41.5z" />
    <glyph glyph-name="uni01DE" unicode="&#x1de;" horiz-adv-x="501" 
d="M300 0l-3 145h-128l-41 -145h-180l258 695h208l64 -695h-178zM204 271h91l-5 307zM164 764.5q-19 19.5 -19 51.5q0 40 26.5 67t64.5 27q34 0 53.5 -19t19.5 -52q0 -40 -26.5 -67t-65.5 -27q-34 0 -53 19.5zM368.5 764.5q-19.5 19.5 -19.5 51.5q0 40 26.5 67t64.5 27
q34 0 53.5 -19.5t19.5 -51.5q0 -40 -26.5 -67t-65.5 -27q-33 0 -52.5 19.5zM472 953h-264l18 117h264z" />
    <glyph glyph-name="uni01DF" unicode="&#x1df;" horiz-adv-x="482" 
d="M483 499l-48 -340q-3 -16 -3 -29t4.5 -21.5t15.5 -13.5l-52 -110q-42 4 -74 22.5t-44 52.5q-28 -39 -59 -58.5t-73 -19.5q-66 0 -101.5 50.5t-35.5 138.5q0 101 28.5 187t92.5 139.5t164 53.5q96 0 185 -52zM207 351.5q-26 -80.5 -26 -184.5q0 -34 7.5 -47.5t22.5 -13.5
q14 0 28 14.5t31 40.5l37 266q-13 5 -25 5q-49 0 -75 -80.5zM157 617.5q-19 19.5 -19 51.5q0 40 26.5 67t64.5 27q34 0 53.5 -19t19.5 -52q0 -40 -26.5 -67t-65.5 -27q-34 0 -53 19.5zM361.5 617.5q-19.5 19.5 -19.5 51.5q0 40 26.5 67t64.5 27q34 0 53.5 -19.5t19.5 -51.5
q0 -40 -26.5 -67t-65.5 -27q-33 0 -52.5 19.5zM467 805h-264l18 117h264z" />
    <glyph glyph-name="uni01E0" unicode="&#x1e0;" horiz-adv-x="501" 
d="M300 0l-3 145h-128l-41 -145h-180l258 695h208l64 -695h-178zM204 271h91l-5 307zM255.5 757q-22.5 22 -22.5 59q0 47 30.5 77.5t75.5 30.5q40 0 62.5 -22t22.5 -59q0 -47 -30.5 -77.5t-75.5 -30.5q-40 0 -62.5 22zM479 953h-264l18 117h264z" />
    <glyph glyph-name="uni01E1" unicode="&#x1e1;" horiz-adv-x="482" 
d="M483 499l-48 -340q-3 -16 -3 -29t4.5 -21.5t15.5 -13.5l-52 -110q-42 4 -74 22.5t-44 52.5q-28 -39 -59 -58.5t-73 -19.5q-66 0 -101.5 50.5t-35.5 138.5q0 101 28.5 187t92.5 139.5t164 53.5q96 0 185 -52zM207 351.5q-26 -80.5 -26 -184.5q0 -34 7.5 -47.5t22.5 -13.5
q14 0 28 14.5t31 40.5l37 266q-13 5 -25 5q-49 0 -75 -80.5zM248.5 614q-22.5 22 -22.5 59q0 47 30.5 77.5t75.5 30.5q40 0 62.5 -22t22.5 -59q0 -47 -30.5 -77.5t-75.5 -30.5q-40 0 -62.5 22zM469 815h-264l18 117h264z" />
    <glyph glyph-name="uni01E2" unicode="&#x1e2;" horiz-adv-x="706" 
d="M687 570h-195l-1 -158h187l-19 -122h-170l-1 -164h187l-20 -126h-327l4 145h-144l-53 -145h-188l306 695h471zM335 271l8 296l-109 -296h101zM602 779h-264l18 117h264z" />
    <glyph glyph-name="uni01E3" unicode="&#x1e3;" horiz-adv-x="708" 
d="M324.5 536q28.5 -14 50.5 -43q66 58 164 58q80 0 127 -41t45 -106q-6 -179 -287 -212q0 -46 13 -66t47 -20q27 0 52 11t58 35l56 -97q-87 -73 -196 -73q-113 0 -163 78q-35 -43 -73 -60.5t-81 -17.5q-63 0 -101 39t-38 102q0 86 54.5 143.5t189.5 57.5h34q5 20 16 51
q-4 25 -23 38t-48 13q-50 0 -115 -26l-21 112q43 18 87 28t80 10q44 0 72.5 -14zM465.5 397.5q-21.5 -41.5 -31.5 -105.5q60 6 88 38.5t28 73.5q0 35 -31 35q-32 0 -53.5 -41.5zM240 228q-31 0 -48.5 -20.5t-17.5 -60.5q0 -45 29 -45q14 0 27.5 13.5t30.5 39.5q-2 20 -2 32
q0 23 2 41h-21zM537 653h-264l18 117h264z" />
    <glyph glyph-name="uni01E4" unicode="&#x1e4;" horiz-adv-x="566" 
d="M553 173h-56l-15 -116q-52 -36 -112.5 -55.5t-115.5 -19.5q-228 0 -228 259q0 127 40.5 234.5t119 172.5t187.5 65q117 0 191 -88l-93 -85q-25 24 -48.5 35t-52.5 11q-59 0 -97 -56t-54.5 -140.5t-16.5 -174.5q0 -56 15.5 -80.5t45.5 -24.5q36 0 74 23l5 40h-63l12 95h64
l6 50h-64l-3 102h235l-20 -152h57z" />
    <glyph glyph-name="uni01E5" unicode="&#x1e5;" horiz-adv-x="483" 
d="M414 1h41l-8 -63h-49q-28 -83 -84 -122.5t-147 -39.5q-96 0 -178 56l56 100q59 -36 116 -36t78 42h-85l8 63h92l12 90q-22 -31 -49.5 -48.5t-64.5 -17.5q-64 0 -99 51t-35 139q0 87 27.5 163t90.5 124.5t162 48.5q96 0 187 -52l-66 -471q-1 -9 -5 -27zM277 205l31 222
q-13 5 -26 5q-47 0 -71.5 -68t-24.5 -153q0 -34 7.5 -48t22.5 -14q27 0 61 56z" />
    <glyph glyph-name="Gcaron" unicode="&#x1e6;" horiz-adv-x="543" 
d="M564 625l-93 -85q-25 24 -48.5 35t-52.5 11q-59 0 -97 -56t-54.5 -140.5t-16.5 -174.5q0 -56 15.5 -80.5t45.5 -24.5q35 0 66 22l21 148h-57l2 122h235l-48 -345q-52 -36 -112.5 -55.5t-115.5 -19.5q-228 0 -228 259q0 127 40.5 234.5t119 172.5t187.5 65q117 0 191 -88z
M497 948l60 -66l-140 -133h-99l-107 142l66 57l101 -86z" />
    <glyph glyph-name="gcaron" unicode="&#x1e7;" horiz-adv-x="484" 
d="M486 499l-66 -471q-19 -129 -79.5 -190.5t-172.5 -61.5q-96 0 -178 56l59 108q32 -19 58.5 -27.5t54.5 -8.5q37 0 60.5 20.5t31.5 75.5l9 65q-45 -66 -114 -66q-64 0 -99 51t-35 138q0 99 28.5 181t92 132t163.5 50q96 0 187 -52zM208.5 358.5q-25.5 -73.5 -25.5 -174.5
q0 -33 7.5 -47t22.5 -14q28 0 62 56l34 248q-13 5 -26 5q-49 0 -74.5 -73.5zM435 815l55 -65l-139 -141h-100l-98 141l61 65l97 -93z" />
    <glyph glyph-name="uni01E8" unicode="&#x1e8;" horiz-adv-x="552" 
d="M-1 0l98 695h174l-98 -695h-174zM333 0l-103 370l200 325h174l-199 -321l116 -374h-188zM469 948l60 -66l-140 -133h-99l-107 142l66 57l101 -86z" />
    <glyph glyph-name="uni01E9" unicode="&#x1e9;" horiz-adv-x="491" 
d="M231 472q32 40 68 59t80 19q56 0 90 -33.5t34 -87.5q0 -60 -28.5 -103.5t-90.5 -83.5l63 -242h-173l-56 256q66 28 91.5 62t25.5 77q0 18 -8 28t-21 10q-42 0 -96 -94l-46 -339h-168l104 743l170 17zM478 996l60 -66l-140 -133h-99l-107 142l66 57l101 -86z" />
    <glyph glyph-name="uni01EA" unicode="&#x1ea;" horiz-adv-x="580" 
d="M519 166.5q-56 -124.5 -165 -166.5q-108 -48 -108 -112q0 -33 38 -33q18 0 46 5l-23 -100q-29 -8 -61 -8q-52 0 -84.5 30t-32.5 82q0 72 66 123q-83 16 -125 80.5t-42 176.5q0 125 35 232t107.5 172t179.5 65q111 0 168 -65.5t57 -196.5q0 -160 -56 -284.5zM340.5 170
q30.5 61 44 147.5t13.5 165.5q0 54 -14.5 78t-44.5 24q-46 0 -76.5 -62.5t-44.5 -150t-14 -164.5q0 -53 14.5 -76t44.5 -23q47 0 77.5 61z" />
    <glyph glyph-name="uni01EB" unicode="&#x1eb;" horiz-adv-x="492" 
d="M431.5 128q-44.5 -93 -128.5 -128q-108 -48 -108 -112q0 -33 38 -33q18 0 46 5l-23 -100q-29 -8 -61 -8q-52 0 -84.5 30t-32.5 82q0 75 69 125q-63 16 -97.5 68t-34.5 137q0 95 30 176.5t91 131t148 49.5q90 0 141 -54t51 -159q0 -117 -44.5 -210zM270 147.5
q20 42.5 29 103t9 113.5q0 33 -9 48t-27 15q-31 0 -50.5 -42.5t-28.5 -102t-9 -113.5q0 -34 9 -49t27 -15q30 0 50 42.5z" />
    <glyph glyph-name="uni01EC" unicode="&#x1ec;" horiz-adv-x="580" 
d="M506 896l-18 -117h-264l18 117h264zM519 166.5q-56 -124.5 -165 -166.5q-108 -48 -108 -112q0 -33 38 -33q18 0 46 5l-23 -100q-29 -8 -61 -8q-52 0 -84.5 30t-32.5 82q0 72 66 123q-83 16 -125 80.5t-42 176.5q0 125 35 232t107.5 172t179.5 65q111 0 168 -65.5
t57 -196.5q0 -160 -56 -284.5zM340.5 170q30.5 61 44 147.5t13.5 165.5q0 54 -14.5 78t-44.5 24q-46 0 -76.5 -62.5t-44.5 -150t-14 -164.5q0 -53 14.5 -76t44.5 -23q47 0 77.5 61z" />
    <glyph glyph-name="uni01ED" unicode="&#x1ed;" horiz-adv-x="492" 
d="M447 770l-18 -117h-264l18 117h264zM431.5 128q-44.5 -93 -128.5 -128q-108 -48 -108 -112q0 -33 38 -33q18 0 46 5l-23 -100q-29 -8 -61 -8q-52 0 -84.5 30t-32.5 82q0 75 69 125q-63 16 -97.5 68t-34.5 137q0 95 30 176.5t91 131t148 49.5q90 0 141 -54t51 -159
q0 -117 -44.5 -210zM270 147.5q20 42.5 29 103t9 113.5q0 33 -9 48t-27 15q-31 0 -50.5 -42.5t-28.5 -102t-9 -113.5q0 -34 9 -49t27 -15q30 0 50 42.5z" />
    <glyph glyph-name="uni01EE" unicode="&#x1ee;" horiz-adv-x="461" 
d="M457 572l-156 -169q71 -6 108.5 -47.5t37.5 -113.5q0 -80 -36 -139t-96.5 -90t-133.5 -31q-75 0 -122.5 27t-79.5 79l100 81q25 -31 47 -44.5t53 -13.5q38 0 64 33.5t26 87.5q0 72 -71 72h-87l14 97l149 167h-194l20 127h376zM425 948l60 -66l-140 -133h-99l-107 142
l66 57l101 -86z" />
    <glyph glyph-name="uni01EF" unicode="&#x1ef;" horiz-adv-x="430" 
d="M409 417l-169 -208q149 -20 149 -163q0 -82 -35 -143.5t-96 -94t-136 -32.5q-131 0 -192 106l99 80q24 -31 45.5 -44t49.5 -13q43 0 68.5 36t25.5 101q0 41 -18 58t-53 17h-83l14 96l158 194h-198l18 126h370zM386 815l55 -65l-139 -141h-100l-98 141l61 65l97 -93z" />
    <glyph glyph-name="uni01F0" unicode="&#x1f0;" horiz-adv-x="235" 
d="M-106 -101q52 22 77 54.5t35 102.5l66 477h167l-66 -471q-13 -90 -47 -145.5t-80 -85t-114 -54.5zM300 815l55 -65l-139 -141h-100l-98 141l61 65l97 -93z" />
    <glyph glyph-name="uni01F1" unicode="&#x1f1;" horiz-adv-x="975" 
d="M473 641q70 -54 70 -194q0 -206 -84.5 -326.5t-263.5 -120.5h-196l98 695h186q120 0 190 -54zM253 568l-61 -441h30q53 0 85.5 50.5t46 125t13.5 150.5q0 62 -19.5 88.5t-59.5 26.5h-35zM493 0l19 131l293 428h-215l21 136h404l-21 -133l-292 -422h247l-39 -140h-417z
" />
    <glyph glyph-name="uni01F2" unicode="&#x1f2;" horiz-adv-x="926" 
d="M473 641q70 -54 70 -194q0 -206 -84.5 -326.5t-263.5 -120.5h-196l98 695h186q120 0 190 -54zM253 568l-61 -441h30q53 0 85.5 50.5t46 125t13.5 150.5q0 62 -19.5 88.5t-59.5 26.5h-35zM948 533l-17 -119l-210 -286h179l-34 -128h-359l17 120l210 286h-156l19 127h351z
" />
    <glyph glyph-name="uni01F3" unicode="&#x1f3;" horiz-adv-x="881" 
d="M527 743l-104 -743h-148l2 61q-27 -40 -57.5 -59.5t-72.5 -19.5q-64 0 -99 48.5t-35 140.5q0 96 26 183.5t76 142t120 54.5q59 0 91 -47l35 256zM223 386.5q-20 -41.5 -30 -101.5t-10 -112q0 -39 8 -53.5t24 -14.5q29 0 64 62l32 232q-8 15 -17 22t-23 7q-28 0 -48 -41.5
zM903 533l-17 -119l-210 -286h179l-34 -128h-359l17 120l210 286h-156l19 127h351z" />
    <glyph glyph-name="uni01F4" unicode="&#x1f4;" horiz-adv-x="543" 
d="M564 625l-93 -85q-25 24 -48.5 35t-52.5 11q-59 0 -97 -56t-54.5 -140.5t-16.5 -174.5q0 -56 15.5 -80.5t45.5 -24.5q35 0 66 22l21 148h-57l2 122h235l-48 -345q-52 -36 -112.5 -55.5t-115.5 -19.5q-228 0 -228 259q0 127 40.5 234.5t119 172.5t187.5 65q117 0 191 -88z
M462 950l56 -119l-219 -86l-39 79z" />
    <glyph glyph-name="uni01F5" unicode="&#x1f5;" horiz-adv-x="484" 
d="M486 499l-66 -471q-19 -129 -79.5 -190.5t-172.5 -61.5q-96 0 -178 56l59 108q32 -19 58.5 -27.5t54.5 -8.5q37 0 60.5 20.5t31.5 75.5l9 65q-45 -66 -114 -66q-64 0 -99 51t-35 138q0 99 28.5 181t92 132t163.5 50q96 0 187 -52zM208.5 358.5q-25.5 -73.5 -25.5 -174.5
q0 -33 7.5 -47t22.5 -14q28 0 62 56l34 248q-13 5 -26 5q-49 0 -74.5 -73.5zM388 835l55 -120l-218 -95l-42 79z" />
    <glyph glyph-name="uni01F6" unicode="&#x1f6;" horiz-adv-x="769" 
d="M356.5 28q-44.5 46 -44.5 111q0 9 2 25l17 128h-116l-42 -292h-174l98 695h174l-38 -266h117l37 266h174l-75 -539q-2 -14 -2 -20q0 -30 25 -30q47 0 67 107.5t20 228.5q0 35 -2 91h157q5 -55 5 -91q0 -142 -21 -241.5t-79.5 -159t-167.5 -59.5q-87 0 -131.5 46z" />
    <glyph glyph-name="uni01F7" unicode="&#x1f7;" horiz-adv-x="499" 
d="M490.5 669q37.5 -44 37.5 -122q0 -84 -33.5 -142t-90 -97.5t-144.5 -78.5l-58 -26l-29 -203h-174l98 695h174l-4 -32q53 50 124 50q62 0 99.5 -44zM319.5 420q27.5 46 27.5 110q0 60 -39 60q-29 0 -56 -29l-32 -230l16 9q56 34 83.5 80z" />
    <glyph glyph-name="uni01F8" unicode="&#x1f8;" horiz-adv-x="534" 
d="M459 0h-206l-61 548q2 -68 2 -104q0 -105 -13 -210l-30 -234h-151l97 695h207l60 -549q-2 74 -2 103q0 92 12 192l33 254h149zM303 947l176 -127l-49 -74l-197 84z" />
    <glyph glyph-name="uni01F9" unicode="&#x1f9;" horiz-adv-x="468" 
d="M432 518.5q27 -32.5 27 -88.5q0 -18 -3 -38l-56 -392h-167l50 362q1 6 1 15q0 22 -13 22q-12 0 -26 -22.5t-39 -76.5l-42 -300h-167l74 533h145v-81q63 99 142 99q47 0 74 -32.5zM260 833l173 -137l-49 -74l-197 93z" />
    <glyph glyph-name="Aringacute" unicode="&#x1fa;" horiz-adv-x="501" 
d="M300 0l-3 145h-128l-41 -145h-180l258 695h208l64 -695h-178zM204 271h91l-5 307zM430 962q30 -33 30 -86q0 -64 -40 -106.5t-105 -42.5q-54 0 -83.5 32.5t-29.5 85.5q0 63 40 106.5t105 43.5q53 0 83 -33zM306.5 893.5q-11.5 -18.5 -11.5 -43.5q0 -40 28 -40
q20 0 32 18.5t12 43.5q0 20 -7.5 30t-20.5 10q-21 0 -32.5 -18.5zM420 1205l56 -119l-219 -86l-39 79z" />
    <glyph glyph-name="aringacute" unicode="&#x1fb;" horiz-adv-x="482" 
d="M483 499l-48 -340q-3 -16 -3 -29t4.5 -21.5t15.5 -13.5l-52 -110q-42 4 -74 22.5t-44 52.5q-28 -39 -59 -58.5t-73 -19.5q-66 0 -101.5 50.5t-35.5 138.5q0 101 28.5 187t92.5 139.5t164 53.5q96 0 185 -52zM207 351.5q-26 -80.5 -26 -184.5q0 -34 7.5 -47.5t22.5 -13.5
q14 0 28 14.5t31 40.5l37 266q-13 5 -25 5q-49 0 -75 -80.5zM426 812q30 -33 30 -86q0 -64 -40 -106.5t-105 -42.5q-54 0 -83.5 32.5t-29.5 85.5q0 63 40 106.5t105 43.5q53 0 83 -33zM302.5 743.5q-11.5 -18.5 -11.5 -43.5q0 -40 28 -40q20 0 32 18.5t12 43.5q0 20 -7.5 30
t-20.5 10q-21 0 -32.5 -18.5zM421 1056l56 -119l-219 -86l-39 79z" />
    <glyph glyph-name="AEacute" unicode="&#x1fc;" horiz-adv-x="706" 
d="M687 570h-195l-1 -158h187l-19 -122h-170l-1 -164h187l-20 -126h-327l4 145h-144l-53 -145h-188l306 695h471zM335 271l8 296l-109 -296h101zM564 950l56 -119l-219 -86l-39 79z" />
    <glyph glyph-name="aeacute" unicode="&#x1fd;" horiz-adv-x="708" 
d="M324.5 536q28.5 -14 50.5 -43q66 58 164 58q80 0 127 -41t45 -106q-6 -179 -287 -212q0 -46 13 -66t47 -20q27 0 52 11t58 35l56 -97q-87 -73 -196 -73q-113 0 -163 78q-35 -43 -73 -60.5t-81 -17.5q-63 0 -101 39t-38 102q0 86 54.5 143.5t189.5 57.5h34q5 20 16 51
q-4 25 -23 38t-48 13q-50 0 -115 -26l-21 112q43 18 87 28t80 10q44 0 72.5 -14zM465.5 397.5q-21.5 -41.5 -31.5 -105.5q60 6 88 38.5t28 73.5q0 35 -31 35q-32 0 -53.5 -41.5zM240 228q-31 0 -48.5 -20.5t-17.5 -60.5q0 -45 29 -45q14 0 27.5 13.5t30.5 39.5q-2 20 -2 32
q0 23 2 41h-21zM487 835l55 -120l-218 -95l-42 79z" />
    <glyph glyph-name="Oslashacute" unicode="&#x1fe;" horiz-adv-x="580" 
d="M554 578.5q21 -54.5 21 -127.5q0 -125 -35.5 -232t-108 -172t-179.5 -65q-19 0 -29 1l-41 -119l-122 35l47 132q-39 33 -59 87t-20 126q0 125 35 232t107.5 172t179.5 65q18 0 26 -1l43 117l120 -35l-46 -128q40 -33 61 -87.5zM257 524.5q-32 -62.5 -46.5 -150.5
t-14.5 -166q0 -30 4 -46l145 425h-6q-50 0 -82 -62.5zM346 168q32 61 46 148t14 167q0 27 -3 46l-145 -422h5q51 0 83 61zM433 986l56 -119l-219 -86l-39 79z" />
    <glyph glyph-name="oslashacute" unicode="&#x1ff;" horiz-adv-x="492" 
d="M458.5 439.5q17.5 -43.5 17.5 -101.5q0 -95 -30 -176.5t-90.5 -130.5t-147.5 -49h-16l-45 -117l-112 35l49 122q-33 27 -51 70.5t-18 101.5q0 95 30 176.5t91 131t148 49.5h16l44 118l112 -37l-48 -122q33 -27 50.5 -70.5zM194.5 355.5q-26.5 -82.5 -26.5 -186.5
q0 -19 1 -27l1 1l98 282l4 14q-51 -1 -77.5 -83.5zM298 178q26 83 26 186q0 16 -1 22l-2 -3l-95 -276l-4 -14q50 2 76 85zM382 851l55 -120l-218 -95l-42 79z" />
    <glyph glyph-name="uni0200" unicode="&#x200;" horiz-adv-x="501" 
d="M300 0l-3 145h-128l-41 -145h-180l258 695h208l64 -695h-178zM204 271h91l-5 307zM240 992l59 -206l-91 -36l-87 193zM394 991l53 -206l-90 -31l-81 193z" />
    <glyph glyph-name="uni0201" unicode="&#x201;" horiz-adv-x="482" 
d="M483 499l-48 -340q-3 -16 -3 -29t4.5 -21.5t15.5 -13.5l-52 -110q-42 4 -74 22.5t-44 52.5q-28 -39 -59 -58.5t-73 -19.5q-66 0 -101.5 50.5t-35.5 138.5q0 101 28.5 187t92.5 139.5t164 53.5q96 0 185 -52zM207 351.5q-26 -80.5 -26 -184.5q0 -34 7.5 -47.5t22.5 -13.5
q14 0 28 14.5t31 40.5l37 266q-13 5 -25 5q-49 0 -75 -80.5zM238 866l59 -206l-91 -36l-87 193zM392 865l53 -206l-90 -31l-81 193z" />
    <glyph glyph-name="uni0202" unicode="&#x202;" horiz-adv-x="501" 
d="M300 0l-3 145h-128l-41 -145h-180l258 695h208l64 -695h-178zM204 271h91l-5 307zM169 778q17 79 61.5 128.5t114.5 49.5q67 0 100 -44t33 -114q0 -14 -1 -22l-90 -13q-3 76 -54 76q-27 0 -47 -21t-32 -58z" />
    <glyph glyph-name="uni0203" unicode="&#x203;" horiz-adv-x="482" 
d="M483 499l-48 -340q-3 -16 -3 -29t4.5 -21.5t15.5 -13.5l-52 -110q-42 4 -74 22.5t-44 52.5q-28 -39 -59 -58.5t-73 -19.5q-66 0 -101.5 50.5t-35.5 138.5q0 101 28.5 187t92.5 139.5t164 53.5q96 0 185 -52zM207 351.5q-26 -80.5 -26 -184.5q0 -34 7.5 -47.5t22.5 -13.5
q14 0 28 14.5t31 40.5l37 266q-13 5 -25 5q-49 0 -75 -80.5zM160 616q17 79 61.5 128.5t114.5 49.5q67 0 100 -44t33 -114q0 -14 -1 -22l-90 -13q-3 76 -54 76q-27 0 -47 -21t-32 -58z" />
    <glyph glyph-name="uni0204" unicode="&#x204;" horiz-adv-x="423" 
d="M471 695l-38 -125h-179l-22 -156h160l-19 -123h-159l-22 -165h195l-18 -126h-370l98 695h374zM213 992l59 -206l-91 -36l-87 193zM367 991l53 -206l-90 -31l-81 193z" />
    <glyph glyph-name="uni0205" unicode="&#x205;" horiz-adv-x="463" 
d="M421 510q47 -41 45 -106q-6 -179 -287 -212v-14q0 -72 61 -72q26 0 51 11t58 35l56 -97q-87 -73 -195 -73q-92 0 -143.5 51t-51.5 152q0 102 31 185t94 132t154 49q80 0 127 -41zM277 331q28 32 28 73q0 35 -30 35q-32 0 -53.5 -41.5t-32.5 -104.5q60 6 88 38zM222 866
l59 -206l-91 -36l-87 193zM376 865l53 -206l-90 -31l-81 193z" />
    <glyph glyph-name="uni0206" unicode="&#x206;" horiz-adv-x="423" 
d="M471 695l-38 -125h-179l-22 -156h160l-19 -123h-159l-22 -165h195l-18 -126h-370l98 695h374zM142 778q17 79 61.5 128.5t114.5 49.5q67 0 100 -44t33 -114q0 -14 -1 -22l-90 -13q-3 76 -54 76q-27 0 -47 -21t-32 -58z" />
    <glyph glyph-name="uni0207" unicode="&#x207;" horiz-adv-x="463" 
d="M421 510q47 -41 45 -106q-6 -179 -287 -212v-14q0 -72 61 -72q26 0 51 11t58 35l56 -97q-87 -73 -195 -73q-92 0 -143.5 51t-51.5 152q0 102 31 185t94 132t154 49q80 0 127 -41zM277 331q28 32 28 73q0 35 -30 35q-32 0 -53.5 -41.5t-32.5 -104.5q60 6 88 38zM144 616
q17 79 61.5 128.5t114.5 49.5q67 0 100 -44t33 -114q0 -14 -1 -22l-90 -13q-3 76 -54 76q-27 0 -47 -21t-32 -58z" />
    <glyph glyph-name="uni0208" unicode="&#x208;" horiz-adv-x="248" 
d="M271 695l-98 -695h-174l98 695h174zM113 992l59 -206l-91 -36l-87 193zM267 991l53 -206l-90 -31l-81 193z" />
    <glyph glyph-name="uni0209" unicode="&#x209;" horiz-adv-x="235" 
d="M238 533l-74 -533h-167l74 533h167zM90 866l59 -206l-91 -36l-87 193zM244 865l53 -206l-90 -31l-81 193z" />
    <glyph glyph-name="uni020A" unicode="&#x20a;" horiz-adv-x="248" 
d="M271 695l-98 -695h-174l98 695h174zM42 778q17 79 61.5 128.5t114.5 49.5q67 0 100 -44t33 -114q0 -14 -1 -22l-90 -13q-3 76 -54 76q-27 0 -47 -21t-32 -58z" />
    <glyph glyph-name="uni020B" unicode="&#x20b;" horiz-adv-x="235" 
d="M238 533l-74 -533h-167l74 533h167zM12 616q17 79 61.5 128.5t114.5 49.5q67 0 100 -44t33 -114q0 -14 -1 -22l-90 -13q-3 76 -54 76q-27 0 -47 -21t-32 -58z" />
    <glyph glyph-name="uni020C" unicode="&#x20c;" horiz-adv-x="580" 
d="M518 647.5q57 -65.5 57 -196.5q0 -125 -35.5 -232t-108 -172t-179.5 -65q-111 0 -167.5 66t-56.5 196q0 125 35 232t107.5 172t179.5 65q111 0 168 -65.5zM262.5 522.5q-30.5 -62.5 -44.5 -150t-14 -164.5q0 -53 14.5 -76t44.5 -23q47 0 77.5 61t44 147.5t13.5 165.5
q0 54 -14.5 78t-44.5 24q-46 0 -76.5 -62.5zM277 992l59 -206l-91 -36l-87 193zM431 991l53 -206l-90 -31l-81 193z" />
    <glyph glyph-name="uni020D" unicode="&#x20d;" horiz-adv-x="492" 
d="M66 35.5q-51 53.5 -51 158.5q0 95 30 176.5t91 131t148 49.5q90 0 141 -54t51 -159q0 -95 -30 -176.5t-90.5 -130.5t-147.5 -49q-91 0 -142 53.5zM270 147.5q20 42.5 29 103t9 113.5q0 33 -9 48t-27 15q-31 0 -50.5 -42.5t-28.5 -102t-9 -113.5q0 -34 9 -49t27 -15
q30 0 50 42.5zM218 866l59 -206l-91 -36l-87 193zM372 865l53 -206l-90 -31l-81 193z" />
    <glyph glyph-name="uni020E" unicode="&#x20e;" horiz-adv-x="580" 
d="M518 647.5q57 -65.5 57 -196.5q0 -125 -35.5 -232t-108 -172t-179.5 -65q-111 0 -167.5 66t-56.5 196q0 125 35 232t107.5 172t179.5 65q111 0 168 -65.5zM262.5 522.5q-30.5 -62.5 -44.5 -150t-14 -164.5q0 -53 14.5 -76t44.5 -23q47 0 77.5 61t44 147.5t13.5 165.5
q0 54 -14.5 78t-44.5 24q-46 0 -76.5 -62.5zM206 778q17 79 61.5 128.5t114.5 49.5q67 0 100 -44t33 -114q0 -14 -1 -22l-90 -13q-3 76 -54 76q-27 0 -47 -21t-32 -58z" />
    <glyph glyph-name="uni020F" unicode="&#x20f;" horiz-adv-x="492" 
d="M66 35.5q-51 53.5 -51 158.5q0 95 30 176.5t91 131t148 49.5q90 0 141 -54t51 -159q0 -95 -30 -176.5t-90.5 -130.5t-147.5 -49q-91 0 -142 53.5zM270 147.5q20 42.5 29 103t9 113.5q0 33 -9 48t-27 15q-31 0 -50.5 -42.5t-28.5 -102t-9 -113.5q0 -34 9 -49t27 -15
q30 0 50 42.5zM140 616q17 79 61.5 128.5t114.5 49.5q67 0 100 -44t33 -114q0 -14 -1 -22l-90 -13q-3 76 -54 76q-27 0 -47 -21t-32 -58z" />
    <glyph glyph-name="uni0210" unicode="&#x210;" horiz-adv-x="514" 
d="M492 383q-31 -52 -96 -89l97 -294h-180l-72 259h-31l-37 -259h-174l98 695h188q121 0 179.5 -47.5t58.5 -137.5q0 -75 -31 -127zM227 380h24q50 0 73 36t23 89q0 35 -17 51t-51 16h-25zM234 992l59 -206l-91 -36l-87 193zM388 991l53 -206l-90 -31l-81 193z" />
    <glyph glyph-name="uni0211" unicode="&#x211;" horiz-adv-x="336" 
d="M383 540l-51 -163q-24 6 -37 6q-34 0 -57 -38t-41 -106l-33 -239h-167l74 533h143l-1 -88q50 104 127 104q22 0 43 -9zM161 866l59 -206l-91 -36l-87 193zM315 865l53 -206l-90 -31l-81 193z" />
    <glyph glyph-name="uni0212" unicode="&#x212;" horiz-adv-x="514" 
d="M492 383q-31 -52 -96 -89l97 -294h-180l-72 259h-31l-37 -259h-174l98 695h188q121 0 179.5 -47.5t58.5 -137.5q0 -75 -31 -127zM227 380h24q50 0 73 36t23 89q0 35 -17 51t-51 16h-25zM163 778q17 79 61.5 128.5t114.5 49.5q67 0 100 -44t33 -114q0 -14 -1 -22l-90 -13
q-3 76 -54 76q-27 0 -47 -21t-32 -58z" />
    <glyph glyph-name="uni0213" unicode="&#x213;" horiz-adv-x="336" 
d="M383 540l-51 -163q-24 6 -37 6q-34 0 -57 -38t-41 -106l-33 -239h-167l74 533h143l-1 -88q50 104 127 104q22 0 43 -9zM83 616q17 79 61.5 128.5t114.5 49.5q67 0 100 -44t33 -114q0 -14 -1 -22l-90 -13q-3 76 -54 76q-27 0 -47 -21t-32 -58z" />
    <glyph glyph-name="uni0214" unicode="&#x214;" horiz-adv-x="526" 
d="M489 200q-9 -62 -41.5 -111t-88.5 -78t-130 -29q-105 0 -159 51.5t-54 133.5q0 20 3 39l68 489h174l-71 -510q-1 -6 -1 -19q0 -25 12.5 -39.5t38.5 -14.5q32 0 50 21t23 55l71 507h175zM251 992l59 -206l-91 -36l-87 193zM405 991l53 -206l-90 -31l-81 193z" />
    <glyph glyph-name="uni0215" unicode="&#x215;" horiz-adv-x="462" 
d="M38 14.5q-28 32.5 -28 88.5q0 17 3 35l55 395h167l-51 -369q-1 -5 -1 -14q0 -20 13 -20q24 0 56 60l47 343h167l-75 -533h-145l3 71q-28 -42 -59.5 -65.5t-76.5 -23.5q-47 0 -75 32.5zM203 866l59 -206l-91 -36l-87 193zM357 865l53 -206l-90 -31l-81 193z" />
    <glyph glyph-name="uni0216" unicode="&#x216;" horiz-adv-x="526" 
d="M489 200q-9 -62 -41.5 -111t-88.5 -78t-130 -29q-105 0 -159 51.5t-54 133.5q0 20 3 39l68 489h174l-71 -510q-1 -6 -1 -19q0 -25 12.5 -39.5t38.5 -14.5q32 0 50 21t23 55l71 507h175zM180 778q17 79 61.5 128.5t114.5 49.5q67 0 100 -44t33 -114q0 -14 -1 -22l-90 -13
q-3 76 -54 76q-27 0 -47 -21t-32 -58z" />
    <glyph glyph-name="uni0217" unicode="&#x217;" horiz-adv-x="462" 
d="M38 14.5q-28 32.5 -28 88.5q0 17 3 35l55 395h167l-51 -369q-1 -5 -1 -14q0 -20 13 -20q24 0 56 60l47 343h167l-75 -533h-145l3 71q-28 -42 -59.5 -65.5t-76.5 -23.5q-47 0 -75 32.5zM125 616q17 79 61.5 128.5t114.5 49.5q67 0 100 -44t33 -114q0 -14 -1 -22l-90 -13
q-3 76 -54 76q-27 0 -47 -21t-32 -58z" />
    <glyph glyph-name="Scommaaccent" unicode="&#x218;" horiz-adv-x="481" 
d="M423 689.5q50 -23.5 86 -69.5l-86 -88q-25 27 -52 40t-59 13q-37 0 -58 -20t-21 -50q0 -28 19 -46.5t78 -48.5q66 -34 98 -77t32 -113q0 -71 -34.5 -127.5t-95.5 -88.5t-138 -32q-140 0 -223 101l94 90q32 -31 61.5 -46.5t68.5 -15.5q41 0 65.5 24t24.5 64q0 34 -21 56.5
t-78 50.5q-68 34 -97.5 73.5t-29.5 104.5q0 67 32 119t88.5 81t127.5 29q68 0 118 -23.5zM244 -86q20 -20 20 -51q0 -23 -8 -43.5t-28 -55.5l-54 -94h-79l39 117q-28 19 -28 54q0 41 24.5 67t61.5 26q32 0 52 -20z" />
    <glyph glyph-name="scommaaccent" unicode="&#x219;" horiz-adv-x="405" 
d="M333.5 533q44.5 -18 75.5 -50l-71 -89q-49 37 -91 37q-23 0 -37 -11.5t-14 -30.5q0 -17 16.5 -31t63.5 -37q52 -24 78 -57t26 -87q0 -59 -30 -103t-80.5 -68t-110.5 -24q-118 0 -193 82l87 86q25 -23 49.5 -36t51.5 -13q28 0 42.5 14t14.5 37q0 22 -16 37.5t-58 34.5
q-55 25 -79.5 56.5t-24.5 85.5q0 52 26 94.5t72.5 66.5t105.5 24q52 0 96.5 -18zM201 -86q20 -20 20 -51q0 -23 -8 -43.5t-28 -55.5l-54 -94h-79l39 117q-28 19 -28 54q0 41 24.5 67t61.5 26q32 0 52 -20z" />
    <glyph glyph-name="uni021A" unicode="&#x21a;" horiz-adv-x="451" 
d="M515 695l-37 -135h-124l-79 -560h-174l79 560h-137l19 135h453zM235 -86q20 -20 20 -51q0 -23 -8 -43.5t-28 -55.5l-54 -94h-79l39 117q-28 19 -28 54q0 41 24.5 67t61.5 26q32 0 52 -20z" />
    <glyph glyph-name="uni021B" unicode="&#x21b;" horiz-adv-x="328" 
d="M204 163q-1 -5 -1 -14q0 -33 28 -33q18 0 38 11l38 -106q-28 -19 -63 -29t-69 -10q-69 0 -105.5 38t-36.5 106q0 19 3 38l35 251h-53l17 118h59l30 117l149 17l-18 -134h95l-37 -118h-74zM199 -86q20 -20 20 -51q0 -23 -8 -43.5t-28 -55.5l-54 -94h-79l39 117
q-28 19 -28 54q0 41 24.5 67t61.5 26q32 0 52 -20z" />
    <glyph glyph-name="uni021C" unicode="&#x21c;" horiz-adv-x="427" 
d="M392 667q50 -46 50 -120q0 -75 -42.5 -122t-130.5 -68q71 -3 105.5 -35.5t34.5 -94.5q0 -133 -118 -218.5t-299 -124.5l10 127q76 26 123.5 52t74.5 65.5t27 97.5q0 36 -18 51.5t-60 15.5h-55l36 125h42q46 0 68 29t22 78q0 61 -45 61q-24 0 -50 -13t-59 -41l-64 89
q95 92 214 92q84 0 134 -46z" />
    <glyph glyph-name="uni021D" unicode="&#x21d;" horiz-adv-x="410" 
d="M346 513.5q45 -37.5 45 -101.5q0 -106 -129 -139q57 0 86 -25t29 -71q0 -210 -371 -287l4 113q103 38 149 76.5t46 95.5q0 18 -10 26t-31 8h-66l27 107h30q30 0 47.5 19t17.5 55q0 44 -37 44q-20 0 -39 -7.5t-43 -23.5l-60 87q42 31 86.5 46t97.5 15q76 0 121 -37.5z" />
    <glyph glyph-name="uni021E" unicode="&#x21e;" horiz-adv-x="539" 
d="M173 0h-174l98 695h174l-38 -266h117l37 266h174l-97 -695h-174l41 292h-116zM467 948l60 -66l-140 -133h-99l-107 142l66 57l101 -86z" />
    <glyph glyph-name="uni021F" unicode="&#x21f;" horiz-adv-x="467" 
d="M431 518.5q27 -32.5 27 -88.5q0 -18 -3 -38l-56 -392h-167l50 362q1 6 1 15q0 22 -13 22q-12 0 -26 -22.5t-39 -76.5l-42 -300h-167l104 743l169 17l-42 -301q23 39 56 65.5t75 26.5q46 0 73 -32.5zM437 996l60 -66l-140 -133h-99l-107 142l66 57l101 -86z" />
    <glyph glyph-name="uni0220" unicode="&#x220;" horiz-adv-x="529" 
d="M501.5 674q32.5 -39 32.5 -101q0 -22 -2 -33l-104 -753h-173l101 738q1 6 1 18q0 39 -30 39q-33 0 -78 -43l-76 -539h-174l98 695h153l3 -50q69 68 154 68q62 0 94.5 -39z" />
    <glyph glyph-name="uni0221" unicode="&#x221;" horiz-adv-x="675" 
d="M633 221q26 -27 26 -74q0 -82 -51.5 -123.5t-132.5 -41.5q-23 0 -33 1l-35 -69l-66 32l28 51q-57 21 -80 76q-29 -47 -63.5 -69t-78.5 -22q-64 0 -99 48.5t-35 140.5q0 96 26 183.5t76 142t120 54.5q59 0 91 -47l35 256l166 -17l-82 -587q-1 -3 -1 -9q25 56 53.5 78.5
t69.5 22.5q40 0 66 -27zM311 399q-8 15 -17 22t-23 7q-28 0 -48 -41.5t-30 -101.5t-10 -112q0 -39 8 -53.5t24 -14.5q30 0 64 63zM542.5 113q10.5 11 10.5 30t-13 19q-11 0 -20 -13t-21 -47h15q18 0 28.5 11z" />
    <glyph glyph-name="uni0222" unicode="&#x222;" horiz-adv-x="542" 
d="M423 398q91 -42 91 -145q0 -81 -36 -142.5t-99.5 -95t-142.5 -33.5q-70 0 -120 26.5t-76 73t-26 103.5q0 77 38 130t104 81q-68 31 -68 108q0 9 2 27l20 164h174l-24 -177q-2 -16 -2 -23q0 -23 9.5 -33.5t29.5 -10.5q25 0 37.5 18t17.5 52l24 174h174l-23 -167
q-13 -92 -104 -130zM310 147q23 37 23 100q0 82 -54 82q-36 0 -59.5 -38t-23.5 -100q0 -81 55 -81q36 0 59 37z" />
    <glyph glyph-name="uni0223" unicode="&#x223;" horiz-adv-x="485" 
d="M384 415q77 -39 77 -152q0 -82 -33 -146t-90 -99.5t-129 -35.5q-96 0 -146.5 54.5t-50.5 144.5q0 84 33.5 143.5t94.5 89.5q-53 31 -53 99q0 8 2 28l29 202h163l-33 -235q-1 -6 -1 -17q0 -28 20 -28q14 0 22 11.5t11 34.5l34 234h165l-29 -205q-12 -82 -86 -123zM274 159
q18 53 18 118q0 39 -9 57.5t-28 18.5q-36 0 -55 -54t-19 -119q0 -38 9 -56t30 -18q36 0 54 53z" />
    <glyph glyph-name="uni0224" unicode="&#x224;" horiz-adv-x="438" 
d="M470 562l-292 -422h234l-20 -140l-7 -47q-13 -84 -69.5 -130.5t-134.5 -46.5q-45 0 -75 12t-53 33l69 96q14 -9 25 -13t25 -4q42 0 48 54l6 46h-257l19 131l293 428h-215l21 136h404z" />
    <glyph glyph-name="uni0225" unicode="&#x225;" horiz-adv-x="378" 
d="M392 414l-210 -286h169l-18 -128l-7 -46q-12 -86 -66.5 -131.5t-133.5 -45.5q-76 0 -126 44l68 96q17 -10 27.5 -14t25.5 -4q40 0 47 46l7 55h-207l17 120l210 286h-156l19 127h351z" />
    <glyph glyph-name="uni0226" unicode="&#x226;" horiz-adv-x="501" 
d="M300 0l-3 145h-128l-41 -145h-180l258 695h208l64 -695h-178zM204 271h91l-5 307zM262.5 775q-22.5 22 -22.5 59q0 47 30.5 77.5t75.5 30.5q40 0 62.5 -22t22.5 -59q0 -47 -30.5 -77.5t-75.5 -30.5q-40 0 -62.5 22z" />
    <glyph glyph-name="uni0227" unicode="&#x227;" horiz-adv-x="482" 
d="M483 499l-48 -340q-3 -16 -3 -29t4.5 -21.5t15.5 -13.5l-52 -110q-42 4 -74 22.5t-44 52.5q-28 -39 -59 -58.5t-73 -19.5q-66 0 -101.5 50.5t-35.5 138.5q0 101 28.5 187t92.5 139.5t164 53.5q96 0 185 -52zM207 351.5q-26 -80.5 -26 -184.5q0 -34 7.5 -47.5t22.5 -13.5
q14 0 28 14.5t31 40.5l37 266q-13 5 -25 5q-49 0 -75 -80.5zM255.5 649q-22.5 22 -22.5 59q0 47 30.5 77.5t75.5 30.5q40 0 62.5 -22t22.5 -59q0 -47 -30.5 -77.5t-75.5 -30.5q-40 0 -62.5 22z" />
    <glyph glyph-name="uni0228" unicode="&#x228;" horiz-adv-x="423" 
d="M254 570l-22 -156h160l-19 -123h-159l-22 -165h195l-18 -126h-141l-8 -51q38 -6 58.5 -27.5t20.5 -57.5q0 -30 -14.5 -60t-49 -50t-89.5 -20q-31 0 -56.5 9t-42.5 24l47 71q25 -14 49 -14q18 0 29 8t11 24t-16.5 23t-55.5 7l28 114h-140l98 695h374l-38 -125h-179z" />
    <glyph glyph-name="uni0229" unicode="&#x229;" horiz-adv-x="463" 
d="M421 510q47 -41 45 -106q-6 -179 -287 -212v-14q0 -72 61 -72q26 0 51 11t58 35l56 -97q-68 -58 -149 -70l-5 -36q38 -6 58.5 -27.5t20.5 -57.5q0 -30 -14.5 -60t-49 -50t-89.5 -20q-31 0 -56.5 9t-42.5 24l47 71q25 -14 49 -14q18 0 29 8t11 24t-16.5 23t-55.5 7l24 99
q-72 12 -111.5 62t-39.5 137q0 102 31 185t93.5 132.5t154.5 49.5q80 0 127 -41zM277 331q28 32 28 73q0 35 -30 35q-32 0 -53.5 -41.5t-32.5 -104.5q60 6 88 38z" />
    <glyph glyph-name="uni022A" unicode="&#x22a;" horiz-adv-x="580" 
d="M518 647.5q57 -65.5 57 -196.5q0 -125 -35.5 -232t-108 -172t-179.5 -65q-111 0 -167.5 66t-56.5 196q0 125 35 232t107.5 172t179.5 65q111 0 168 -65.5zM262.5 522.5q-30.5 -62.5 -44.5 -150t-14 -164.5q0 -53 14.5 -76t44.5 -23q47 0 77.5 61t44 147.5t13.5 165.5
q0 54 -14.5 78t-44.5 24q-46 0 -76.5 -62.5zM201 764.5q-19 19.5 -19 51.5q0 40 26.5 67t64.5 27q34 0 53.5 -19t19.5 -52q0 -40 -26.5 -67t-65.5 -27q-34 0 -53 19.5zM405.5 764.5q-19.5 19.5 -19.5 51.5q0 40 26.5 67t64.5 27q34 0 53.5 -19.5t19.5 -51.5q0 -40 -26.5 -67
t-65.5 -27q-33 0 -52.5 19.5zM509 953h-264l18 117h264z" />
    <glyph glyph-name="uni022B" unicode="&#x22b;" horiz-adv-x="492" 
d="M66 35.5q-51 53.5 -51 158.5q0 95 30 176.5t91 131t148 49.5q90 0 141 -54t51 -159q0 -95 -30 -176.5t-90.5 -130.5t-147.5 -49q-91 0 -142 53.5zM270 147.5q20 42.5 29 103t9 113.5q0 33 -9 48t-27 15q-31 0 -50.5 -42.5t-28.5 -102t-9 -113.5q0 -34 9 -49t27 -15
q30 0 50 42.5zM137 617.5q-19 19.5 -19 51.5q0 40 26.5 67t64.5 27q34 0 53.5 -19t19.5 -52q0 -40 -26.5 -67t-65.5 -27q-34 0 -53 19.5zM341.5 617.5q-19.5 19.5 -19.5 51.5q0 40 26.5 67t64.5 27q34 0 53.5 -19.5t19.5 -51.5q0 -40 -26.5 -67t-65.5 -27q-33 0 -52.5 19.5z
M447 805h-264l18 117h264z" />
    <glyph glyph-name="uni022C" unicode="&#x22c;" horiz-adv-x="580" 
d="M509 954h-264l18 117h264zM378.5 761.5q-12.5 6.5 -29.5 19.5q-2 2 -10 7.5t-14 8t-12 2.5q-13 0 -23.5 -10.5t-24.5 -33.5l-70 42q24 53 58.5 87.5t69.5 34.5q19 0 33 -7t30 -20q21 -17 34 -17q11 0 21 10t23 32l72 -40q-24 -54 -59 -88t-71 -34q-15 0 -27.5 6.5z
M518 647.5q57 -65.5 57 -196.5q0 -125 -35.5 -232t-108 -172t-179.5 -65q-111 0 -167.5 66t-56.5 196q0 125 35 232t107.5 172t179.5 65q111 0 168 -65.5zM262.5 522.5q-30.5 -62.5 -44.5 -150t-14 -164.5q0 -53 14.5 -76t44.5 -23q47 0 77.5 61t44 147.5t13.5 165.5
q0 54 -14.5 78t-44.5 24q-46 0 -76.5 -62.5z" />
    <glyph glyph-name="uni022D" unicode="&#x22d;" horiz-adv-x="492" 
d="M66 35.5q-51 53.5 -51 158.5q0 95 30 176.5t91 131t148 49.5q90 0 141 -54t51 -159q0 -95 -30 -176.5t-90.5 -130.5t-147.5 -49q-91 0 -142 53.5zM270 147.5q20 42.5 29 103t9 113.5q0 33 -9 48t-27 15q-31 0 -50.5 -42.5t-28.5 -102t-9 -113.5q0 -34 9 -49t27 -15
q30 0 50 42.5zM304.5 599.5q-12.5 6.5 -29.5 19.5q-2 2 -10 7.5t-14 8t-12 2.5q-13 0 -23.5 -10.5t-24.5 -33.5l-70 42q24 53 58.5 87.5t69.5 34.5q19 0 33 -7t30 -20q21 -17 34 -17q11 0 21 10t23 32l72 -40q-24 -54 -59 -88t-71 -34q-15 0 -27.5 6.5zM440 794h-264l18 117
h264z" />
    <glyph glyph-name="uni022E" unicode="&#x22e;" horiz-adv-x="580" 
d="M518 647.5q57 -65.5 57 -196.5q0 -125 -35.5 -232t-108 -172t-179.5 -65q-111 0 -167.5 66t-56.5 196q0 125 35 232t107.5 172t179.5 65q111 0 168 -65.5zM262.5 522.5q-30.5 -62.5 -44.5 -150t-14 -164.5q0 -53 14.5 -76t44.5 -23q47 0 77.5 61t44 147.5t13.5 165.5
q0 54 -14.5 78t-44.5 24q-46 0 -76.5 -62.5zM299.5 775q-22.5 22 -22.5 59q0 47 30.5 77.5t75.5 30.5q40 0 62.5 -22t22.5 -59q0 -47 -30.5 -77.5t-75.5 -30.5q-40 0 -62.5 22z" />
    <glyph glyph-name="uni022F" unicode="&#x22f;" horiz-adv-x="492" 
d="M66 35.5q-51 53.5 -51 158.5q0 95 30 176.5t91 131t148 49.5q90 0 141 -54t51 -159q0 -95 -30 -176.5t-90.5 -130.5t-147.5 -49q-91 0 -142 53.5zM270 147.5q20 42.5 29 103t9 113.5q0 33 -9 48t-27 15q-31 0 -50.5 -42.5t-28.5 -102t-9 -113.5q0 -34 9 -49t27 -15
q30 0 50 42.5zM235.5 649q-22.5 22 -22.5 59q0 47 30.5 77.5t75.5 30.5q40 0 62.5 -22t22.5 -59q0 -47 -30.5 -77.5t-75.5 -30.5q-40 0 -62.5 22z" />
    <glyph glyph-name="uni0230" unicode="&#x230;" horiz-adv-x="580" 
d="M518 647.5q57 -65.5 57 -196.5q0 -125 -35.5 -232t-108 -172t-179.5 -65q-111 0 -167.5 66t-56.5 196q0 125 35 232t107.5 172t179.5 65q111 0 168 -65.5zM262.5 522.5q-30.5 -62.5 -44.5 -150t-14 -164.5q0 -53 14.5 -76t44.5 -23q47 0 77.5 61t44 147.5t13.5 165.5
q0 54 -14.5 78t-44.5 24q-46 0 -76.5 -62.5zM292.5 757q-22.5 22 -22.5 59q0 47 30.5 77.5t75.5 30.5q40 0 62.5 -22t22.5 -59q0 -47 -30.5 -77.5t-75.5 -30.5q-40 0 -62.5 22zM516 953h-264l18 117h264z" />
    <glyph glyph-name="uni0231" unicode="&#x231;" horiz-adv-x="492" 
d="M66 35.5q-51 53.5 -51 158.5q0 95 30 176.5t91 131t148 49.5q90 0 141 -54t51 -159q0 -95 -30 -176.5t-90.5 -130.5t-147.5 -49q-91 0 -142 53.5zM270 147.5q20 42.5 29 103t9 113.5q0 33 -9 48t-27 15q-31 0 -50.5 -42.5t-28.5 -102t-9 -113.5q0 -34 9 -49t27 -15
q30 0 50 42.5zM228.5 614q-22.5 22 -22.5 59q0 47 30.5 77.5t75.5 30.5q40 0 62.5 -22t22.5 -59q0 -47 -30.5 -77.5t-75.5 -30.5q-40 0 -62.5 22zM449 815h-264l18 117h264z" />
    <glyph glyph-name="uni0232" unicode="&#x232;" horiz-adv-x="502" 
d="M577 695l-240 -436l-36 -259h-174l36 258l-117 437h183l42 -304l120 304h186zM448 779h-264l18 117h264z" />
    <glyph glyph-name="uni0233" unicode="&#x233;" horiz-adv-x="439" 
d="M284 -1q-43 -114 -117.5 -165.5t-189.5 -57.5l-2 115q65 10 99 32.5t59 76.5h-60l-45 533h172l-6 -425l117 425h176zM404 653h-264l18 117h264z" />
    <glyph glyph-name="uni0234" unicode="&#x234;" horiz-adv-x="410" 
d="M368 221q26 -27 26 -74q0 -82 -51.5 -123.5t-132.5 -41.5l-33 1l-35 -69l-66 32l30 54q-46 19 -69 56.5t-23 89.5q0 17 3 36l78 561l169 17l-85 -609l-1 -6q26 57 54.5 80t69.5 23q40 0 66 -27zM277.5 113q10.5 11 10.5 30t-13 19q-11 0 -20 -13t-21 -47h14q19 0 29.5 11
z" />
    <glyph glyph-name="uni0235" unicode="&#x235;" horiz-adv-x="653" 
d="M611 221q26 -27 26 -74q0 -81 -51.5 -123t-132.5 -42q-12 0 -34 2l-34 -70l-67 32l31 55q-45 19 -68 56.5t-23 89.5q0 18 3 37l22 176q1 6 1 16q0 13 -3 18t-10 5q-12 0 -26.5 -23t-39.5 -78l-41 -298h-167l74 533h145l-1 -83q64 101 145 101q47 0 73 -32t26 -89
q0 -19 -3 -40l-31 -221q-2 -16 -2 -21q25 55 53.5 77.5t68.5 22.5t66 -27zM521 113q11 11 11 30t-14 19q-10 0 -19 -13t-22 -47h14q19 0 30 11z" />
    <glyph glyph-name="uni0236" unicode="&#x236;" horiz-adv-x="433" 
d="M390.5 221q25.5 -27 25.5 -74q0 -82 -51 -123.5t-132 -41.5q-23 0 -33 1l-35 -69l-67 32l30 54q-46 19 -69 55.5t-23 88.5q0 9 2 33l32 238h-52l18 118h57l31 117l148 17l-18 -134h95l-36 -118h-76l-35 -259q-1 -4 -1 -11q25 56 54.5 79.5t68.5 23.5q41 0 66.5 -27z
M300 113q11 11 11 30t-14 19q-11 0 -19.5 -13t-20.5 -47h14q18 0 29 11z" />
    <glyph glyph-name="uni0237" unicode="&#x237;" horiz-adv-x="235" 
d="M-106 -101q52 22 77 54.5t35 102.5l66 477h167l-66 -471q-13 -90 -47 -145.5t-80 -85t-114 -54.5z" />
    <glyph glyph-name="uni0238" unicode="&#x238;" horiz-adv-x="724" 
d="M681 500.5q30 -49.5 30 -140.5q0 -96 -26 -183t-74.5 -141t-111.5 -54q-28 0 -52.5 18.5t-40.5 55.5l-16 -56h-130v54q-46 -72 -110 -72q-68 0 -102 52.5t-34 146.5t27 179t75.5 137.5t111.5 52.5q26 0 48 -15t34 -43l34 251l170 17l-37 -272q22 29 51.5 45.5t63.5 16.5
q59 0 89 -49.5zM263 152l33 239q-7 20 -15.5 28t-20.5 8q-22 0 -39 -35.5t-26 -90.5t-9 -113q0 -46 7 -64t22 -18q24 0 48 46zM505.5 142q16.5 37 25.5 93.5t9 113.5q0 43 -7 60t-20 17q-24 0 -50 -40l-33 -235q7 -25 15.5 -35.5t21.5 -10.5q22 0 38.5 37z" />
    <glyph glyph-name="uni0239" unicode="&#x239;" horiz-adv-x="720" 
d="M674.5 501q31.5 -50 31.5 -140q0 -108 -26 -194.5t-72 -135.5t-105 -49q-34 0 -55 13t-37 43l-34 -244l-170 -18l36 256q-42 -50 -98 -50q-63 0 -96.5 52.5t-33.5 145.5q0 98 26.5 183t75.5 136.5t114 51.5q29 0 52.5 -15.5t39.5 -45.5l9 43h129l-1 -46q28 35 58 49.5
t66 14.5q59 0 90.5 -50zM258 140l36 260q-13 28 -32 28q-25 0 -42 -41.5t-25 -100t-8 -109.5q0 -40 7 -55.5t21 -15.5q20 0 43 34zM516 182.5q20 76.5 20 172.5q0 40 -7 56t-21 16q-21 0 -49 -38l-34 -246q15 -37 38 -37q33 0 53 76.5z" />
    <glyph glyph-name="uni023A" unicode="&#x23a;" horiz-adv-x="501" 
d="M323 0l-8 145h-78l-78 -220l-50 14l73 206h-26l-44 -145h-164l258 695h171l22 61l50 -13l-31 -88l60 -655h-155zM192 263h32l74 210l-6 122zM279 263h30l-4 75z" />
    <glyph glyph-name="uni023B" unicode="&#x23b;" horiz-adv-x="484" 
d="M334 129.5q24 12.5 59 38.5l63 -96q-94 -90 -209 -90q-28 0 -49 4l-22 -61l-55 15l23 64q-56 29 -86 90.5t-30 155.5q0 126 36.5 231t110.5 168.5t181 63.5q26 0 43 -4l17 47l53 -15l-17 -47q44 -20 79 -61l-89 -90q-17 17 -35 26l-159 -444q16 -8 35 -8q27 0 51 12.5z
M212 190l141 393q-50 0 -83 -53.5t-47.5 -132t-14.5 -158.5q0 -30 4 -49z" />
    <glyph glyph-name="uni023C" unicode="&#x23c;" horiz-adv-x="400" 
d="M276.5 120q17.5 7 40.5 22l59 -98q-73 -62 -164 -62q-11 0 -29 2l-21 -59l-47 14l20 56q-57 21 -88 73.5t-31 131.5q0 98 32 178t93 126.5t144 46.5q26 0 45 -4l19 54l48 -14l-20 -55q37 -18 63 -49l-80 -90q-16 12 -26 18l-105 -297q4 -1 13 -1q17 0 34.5 7zM193 159
l93 263q-50 -5 -73 -72t-23 -153q0 -21 3 -38z" />
    <glyph glyph-name="uni023D" unicode="&#x23d;" horiz-adv-x="438" 
d="M209 138h212l-39 -138h-367l42 298h-49l17 130h50l38 267h174l-37 -267h53l-17 -130h-55z" />
    <glyph glyph-name="uni023E" unicode="&#x23e;" horiz-adv-x="454" 
d="M480 567h-56l-109 -205l-50 -362h-143l-40 -75l-43 23l95 179l61 440h-150l20 128h372l33 61l43 -22l-21 -39h26zM334 501l35 66h-26z" />
    <glyph glyph-name="uni023F" unicode="&#x23f;" horiz-adv-x="405" 
d="M352 74.5q-28 -44.5 -71.5 -68.5t-87.5 -24q-15 0 -32 3q19 -10 32.5 -22t28.5 -29q16 -18 27 -26t27 -8q13 0 35 8l18 -105q-42 -26 -92 -26q-45 0 -75.5 19t-49.5 48t-44 80q-23 48 -44.5 82.5t-51.5 64.5l78 75q28 -22 52.5 -33.5t51.5 -11.5q28 0 42.5 14t14.5 37
q0 22 -16 37.5t-58 34.5q-55 25 -79.5 56.5t-24.5 85.5q0 52 26.5 94.5t73 66.5t104.5 24q52 0 96.5 -18t75.5 -50l-71 -89q-49 37 -91 37q-23 0 -37 -11.5t-14 -30.5q0 -17 16.5 -31t63.5 -37q52 -24 78 -57t26 -87q0 -58 -28 -102.5z" />
    <glyph glyph-name="uni0240" unicode="&#x240;" horiz-adv-x="377" 
d="M-15 120l210 286h-156l19 127h351l-17 -119l-246 -331q36 -19 54 -46.5t34 -68.5q14 -36 26.5 -52t37.5 -16q17 0 31 7l20 -107q-44 -23 -88 -23q-40 0 -66 14t-41 34.5t-34 55.5q-18 36 -34.5 58.5t-45 39.5t-72.5 21z" />
    <glyph glyph-name="uni0241" unicode="&#x241;" horiz-adv-x="446" 
d="M134 333l37 14q56 21 84 59t28 102q0 78 -55 78q-26 0 -49.5 -13t-54.5 -40l-68 87q49 47 98 69.5t111 22.5q90 0 143.5 -51.5t53.5 -140.5q0 -87 -33.5 -141t-102.5 -84l-25 -11l-40 -284h-174z" />
    <glyph glyph-name="uni0242" unicode="&#x242;" horiz-adv-x="389" 
d="M84 204l31 12q51 19 76.5 51.5t25.5 88.5q0 33 -11.5 51t-31.5 18q-22 0 -40.5 -11.5t-41.5 -34.5l-65 86q80 85 182 85q80 0 129 -50t49 -131q0 -156 -117 -204l-26 -11l-21 -154h-167z" />
    <glyph glyph-name="uni0243" unicode="&#x243;" horiz-adv-x="517" 
d="M499 230q0 -111 -79 -170.5t-213 -59.5h-202l25 177h-35l11 82h36l61 436h184q109 0 171.5 -40.5t62.5 -116.5q0 -68 -40 -111.5t-103 -59.5q121 -26 121 -137zM324 446q20 27 20 73q0 52 -56 52h-29l-21 -152h24q42 0 62 27zM299 159q24 32 24 81q0 33 -16 48.5
t-51 15.5h-34l-6 -45h68l-11 -82h-68l-7 -50h27q50 0 74 32z" />
    <glyph glyph-name="uni0244" unicode="&#x244;" horiz-adv-x="556" 
d="M584 498h-38l-42 -298q-9 -62 -41.5 -111t-88.5 -78t-130 -29q-105 0 -159 51.5t-54 133.5q0 20 3 39l41 292h-38l14 96h37l14 101h174l-14 -101h123l14 101h175l-14 -101h38zM371 498h-122l-44 -313q-1 -6 -1 -19q0 -25 12.5 -39.5t38.5 -14.5q32 0 50 21t23 55z" />
    <glyph glyph-name="uni0245" unicode="&#x245;" horiz-adv-x="501" 
d="M415 695l63 -695h-175l-10 571l-162 -571h-183l258 695h209z" />
    <glyph glyph-name="uni0246" unicode="&#x246;" horiz-adv-x="423" 
d="M433 570h-29l-56 -156h44l-19 -123h-69l-60 -165h143l-18 -126h-170l-27 -75l-53 15l22 60h-142l98 695h293l22 61l54 -15l-17 -46h22zM289 414l56 156h-91l-22 -156h57zM196 154l49 137h-31z" />
    <glyph glyph-name="uni0247" unicode="&#x247;" horiz-adv-x="463" 
d="M434 497q32 -37 32 -88q0 -168 -244 -209l-30 -85q18 -9 48 -9q26 0 51 11t58 35l56 -97q-87 -73 -192 -73q-37 0 -65 7l-23 -64l-47 14l24 68q-87 47 -87 178q0 102 31 185t94 132t154 49l18 50l47 -14l-14 -41q57 -12 89 -49zM203.5 392q-21.5 -45 -31.5 -108
q20 2 29 4l57 159q-33 -10 -54.5 -55zM321 404q0 27 -14 37l-48 -137q62 30 62 100zM168 193q-2 -1 -5 -1v-13z" />
    <glyph glyph-name="uni0248" unicode="&#x248;" horiz-adv-x="287" 
d="M288 278h-51l-25 -177q-13 -88 -48 -142t-82.5 -82.5t-115.5 -52.5l-30 122q52 25 73 61t31 107l23 164h-53l17 130h54l40 287h174l-40 -287h50z" />
    <glyph glyph-name="uni0249" unicode="&#x249;" horiz-adv-x="288" 
d="M275 192h-54l-18 -130q-13 -90 -47 -145.5t-80 -85t-114 -54.5l-38 122q52 22 77 54.5t35 102.5l19 136h-58l17 119h57l31 222h167l-31 -222h54zM139.5 649q-22.5 22 -22.5 59q0 47 30.5 77.5t75.5 30.5q40 0 62.5 -22t22.5 -59q0 -47 -30.5 -77.5t-75.5 -30.5
q-40 0 -62.5 22z" />
    <glyph glyph-name="uni024A" unicode="&#x24a;" horiz-adv-x="573" 
d="M615 -182q-56 -41 -135 -41t-122.5 40t-43.5 115q0 11 2 33l5 35h-1l2 16q-44 -34 -102 -34q-94 0 -143.5 67t-49.5 186q0 129 36 238.5t101 174.5t148 65q41 0 67.5 -18t46.5 -51l17 51h147l-96 -695h1l-6 -50q-1 -4 -1 -11q0 -17 8 -26t24 -9q15 0 27 3.5t30 12.5z
M341 150l54 394q-13 20 -26 30.5t-30 10.5q-42 0 -72.5 -51.5t-46 -133t-15.5 -170.5q0 -66 15.5 -94.5t46.5 -28.5q41 0 74 43z" />
    <glyph glyph-name="uni024B" unicode="&#x24b;" horiz-adv-x="488" 
d="M441 -87l11 -119q-42 -17 -90 -17q-60 0 -90.5 32t-30.5 90q0 8 2 28l8 73l5 40q-19 -29 -44.5 -43.5t-60.5 -14.5q-66 0 -102 50.5t-36 138.5q0 103 29 189t93.5 138.5t163.5 52.5q100 0 189 -52l-70 -499l-8 -66v-7q0 -16 15 -16q8 0 16 2zM275 161l38 266q-13 5 -29 5
q-49 0 -75.5 -77.5t-26.5 -187.5q0 -33 7.5 -47t22.5 -14q30 0 63 55z" />
    <glyph glyph-name="uni024C" unicode="&#x24c;" horiz-adv-x="523" 
d="M501 383q-31 -52 -96 -89l97 -294h-180l-72 259h-31l-37 -259h-174l37 259h-39l18 121h38l44 315h188q121 0 179.5 -47.5t58.5 -137.5q0 -75 -31 -127zM263 572l-27 -192h24q50 0 73 36t23 89q0 35 -17 51t-51 16h-25z" />
    <glyph glyph-name="uni024D" unicode="&#x24d;" horiz-adv-x="359" 
d="M406 540l-51 -163q-24 6 -37 6q-32 0 -54 -32.5t-39 -91.5h55l-17 -117h-56l-20 -142h-167l20 142h-55l17 117h54l38 274h143l-1 -88q50 104 127 104q22 0 43 -9z" />
    <glyph glyph-name="uni024E" unicode="&#x24e;" horiz-adv-x="504" 
d="M535 617h30l-14 -96h-68l-144 -262l-36 -259h-174l36 258l-71 263h-72l14 96h32l-21 78h167l14 -78h148l34 78h168zM272 375l63 146h-89z" />
    <glyph glyph-name="uni024F" unicode="&#x24f;" horiz-adv-x="468" 
d="M484 396l-15 -103h-59l-112 -294q-43 -114 -117.5 -165.5t-189.5 -57.5l-2 115q65 10 99 32.5t59 76.5h-60l-25 293h-56l15 103h33l-12 137h172l-2 -137h75l38 137h176l-52 -137h35zM208 108l51 185h-48z" />
    <glyph glyph-name="uni0250" unicode="&#x250;" horiz-adv-x="450" 
d="M184 166q-1 -7 -1 -19q0 -23 11 -32.5t40 -9.5q43 0 102 22l33 -106q-40 -19 -88 -29t-92 -10q-86 0 -130 35.5t-44 105.5q0 17 3 36l29 214q3 17 3 29q0 13 -4.5 21.5t-15.5 13.5l51 110q39 -4 69 -19.5t44 -43.5q57 66 134 66q57 0 91 -38t34 -101q0 -102 -65.5 -155.5
t-171.5 -53.5h-27zM215 397l-14 -103h14q34 0 52.5 23.5t18.5 68.5q0 22 -6 32.5t-19 10.5q-24 0 -46 -32z" />
    <glyph glyph-name="uni0251" unicode="&#x251;" horiz-adv-x="483" 
d="M433 130q0 -13 4.5 -21.5t15.5 -13.5l-52 -110q-43 4 -74.5 22.5t-43.5 52.5q-28 -39 -59 -58.5t-73 -19.5q-66 0 -102 50.5t-36 138.5q0 102 26 188.5t76.5 138.5t121.5 52q38 0 65 -15t44 -48l24 46h117l-51 -374q-3 -16 -3 -29zM301 395q-13 36 -39 36
q-24 0 -42.5 -39t-28 -100t-9.5 -125q0 -34 7 -47.5t23 -13.5q14 0 28 14.5t30 40.5z" />
    <glyph glyph-name="uni0252" unicode="&#x252;" horiz-adv-x="483" 
d="M434 500.5q36 -50.5 36 -138.5q0 -102 -26 -188.5t-76.5 -138.5t-121.5 -52q-38 0 -65 15t-44 48l-24 -46h-117l51 374q3 17 3 29q0 13 -4.5 21.5t-15.5 13.5l52 110q43 -4 74.5 -22.5t43.5 -52.5q28 39 59 58.5t73 19.5q66 0 102 -50.5zM263.5 141q18.5 39 28 100
t9.5 125q0 34 -7 47.5t-23 13.5q-14 0 -28 -14.5t-30 -40.5l-31 -234q13 -36 39 -36q24 0 42.5 39z" />
    <glyph glyph-name="uni0253" unicode="&#x253;" horiz-adv-x="493" 
d="M446.5 505q33.5 -46 33.5 -133q0 -179 -68 -284.5t-220 -105.5q-44 0 -93.5 11.5t-98.5 31.5l70 507l9 62q11 74 63.5 120t140.5 46q73 0 129 -35l-59 -104q-33 15 -60 15q-22 0 -33.5 -14t-15.5 -45l-6 -45h-1l-4 -40q22 27 53 43t66 16q61 0 94.5 -46zM286 185
q24 81 24 176q0 38 -8 52t-24 14q-28 0 -62 -47l-36 -268q18 -8 36 -8q46 0 70 81z" />
    <glyph glyph-name="uni0254" unicode="&#x254;" horiz-adv-x="394" 
d="M24 -2.5q-35 15.5 -65 45.5l88 91q18 -15 31 -21.5t32 -6.5q49 0 73.5 67.5t24.5 166.5q0 47 -10.5 67t-33.5 20q-34 0 -77 -32l-55 94q39 31 77.5 46.5t86.5 15.5q84 0 133 -55.5t49 -155.5q0 -112 -33 -192.5t-94 -123t-142 -42.5q-50 0 -85 15.5z" />
    <glyph glyph-name="uni0255" unicode="&#x255;" horiz-adv-x="432" 
d="M384 229q27 -27 27 -77q0 -81 -52 -125.5t-132 -44.5q-27 0 -57 6l-37 -74l-67 32l38 71q-42 26 -65 73.5t-23 113.5q0 96 32.5 175t93.5 125.5t143 46.5q50 0 87.5 -17t67.5 -51l-80 -90q-35 29 -68 29q-53 0 -77.5 -68t-24.5 -157v-30q25 48 55 68.5t68 20.5
q44 0 71 -27zM292 114q11 12 12 34q0 22 -16 22q-30 0 -54 -64q12 -4 29 -4q18 0 29 12z" />
    <glyph glyph-name="uni0256" unicode="&#x256;" horiz-adv-x="494" 
d="M546 -182q-60 -41 -137 -41q-75 0 -117.5 40t-42.5 116q0 10 2 32l5 35l6 46q-21 -30 -48.5 -47t-66.5 -17q-64 0 -99 48.5t-35 140.5q0 96 26 183.5t76 142t120 54.5q59 0 91 -47l35 256l166 -17l-104 -743l-7 -53q-1 -4 -1 -12q0 -17 9 -26.5t26 -9.5q15 0 25 3.5
t28 12.5zM279 167l32 232q-9 15 -17.5 22t-22.5 7q-28 0 -48 -41.5t-30 -101.5t-10 -112q0 -39 8 -53.5t24 -14.5q29 0 64 62z" />
    <glyph glyph-name="uni0257" unicode="&#x257;" horiz-adv-x="493" 
d="M650 722l-62 -100q-25 14 -45 14q-18 0 -26 -12t-12 -39l-8 -53l-74 -532h-148l2 61q-27 -40 -57.5 -59.5t-72.5 -19.5q-64 0 -99 48.5t-35 140.5q0 96 26 183.5t76 142t120 54.5q59 0 91 -47l4 28l7 52q10 78 60.5 127t134.5 49q71 0 118 -38zM311 399q-9 15 -17.5 22
t-22.5 7q-28 0 -48 -41.5t-30 -101.5t-10 -112q0 -39 8 -53.5t24 -14.5q29 0 64 62z" />
    <glyph glyph-name="uni0258" unicode="&#x258;" horiz-adv-x="469" 
d="M404.5 490q47.5 -61 47.5 -158q0 -108 -33.5 -187t-96 -121t-149.5 -42q-108 0 -173 76l82 86q21 -19 42.5 -28.5t48.5 -9.5q71 0 98 85q-113 9 -176 46.5t-63 119.5q0 54 26.5 98t76.5 70t118 26q104 0 151.5 -61zM219.5 313q18.5 -17 67.5 -21q2 19 2 58q0 45 -10 67.5
t-32 22.5q-21 0 -33.5 -21t-12.5 -59q0 -30 18.5 -47z" />
    <glyph glyph-name="uni0259" unicode="&#x259;" horiz-adv-x="463" 
d="M396.5 500q51.5 -51 51.5 -152q0 -102 -31 -185t-94 -132t-154 -49q-80 0 -127 41t-45 106q6 179 287 212v14q0 72 -61 72q-26 0 -51 -11t-58 -35l-56 97q87 73 195 73q92 0 143.5 -51zM241.5 135.5q21.5 41.5 32.5 104.5q-60 -6 -88 -38t-28 -73q0 -35 30 -35
q32 0 53.5 41.5z" />
    <glyph glyph-name="uni025A" unicode="&#x25a;" horiz-adv-x="701" 
d="M724 342q-49 -36 -109 -36q-57 0 -85.5 28.5t-34.5 77.5l-2 17l-49 -32q4 -23 4 -57q-2 -100 -33 -181t-93.5 -129t-152.5 -48q-80 0 -127 41t-45 106q6 179 287 212v14q0 72 -61 72q-26 0 -51 -11t-58 -35l-56 97q87 73 196 73q54 0 94.5 -18t65.5 -54l86 54h132
l-10 -70l-1 -10q0 -17 8.5 -25.5t22.5 -8.5q19 0 44 10zM241.5 135.5q21.5 41.5 32.5 104.5q-60 -6 -88 -38t-28 -73q0 -35 30 -35q32 0 53.5 41.5z" />
    <glyph glyph-name="uni025B" unicode="&#x25b;" horiz-adv-x="417" 
d="M55.5 24.5q-51.5 42.5 -51.5 115.5q0 60 39.5 98.5t110.5 45.5q-98 22 -98 108q0 47 25.5 83t70.5 56t102 20q51 0 95.5 -17t76.5 -53l-76 -79q-38 32 -77 32q-26 0 -39.5 -15.5t-13.5 -41.5q0 -25 12 -38t41 -13h40l-32 -107h-38q-35 0 -52 -17.5t-17 -46.5
q0 -25 13 -39t39 -14q23 0 45.5 9t51.5 29l54 -91q-35 -32 -83.5 -49.5t-104.5 -17.5q-82 0 -133.5 42.5z" />
    <glyph glyph-name="uni025C" unicode="&#x25c;" horiz-adv-x="415" 
d="M357.5 515q44.5 -36 44.5 -95q0 -53 -35 -89.5t-105 -48.5q61 -6 90 -35.5t29 -78.5q0 -47 -24.5 -89.5t-75.5 -69.5t-127 -27q-107 0 -176 66l82 94q26 -22 46 -31t41 -9q31 0 47 20t16 54q0 24 -12.5 33.5t-37.5 9.5h-62l28 107h38q33 0 50 18.5t17 48.5q0 21 -9 31
t-27 10q-21 0 -40 -7.5t-44 -23.5l-59 87q86 61 187 61q74 0 118.5 -36z" />
    <glyph glyph-name="uni025D" unicode="&#x25d;" horiz-adv-x="641" 
d="M664 342q-49 -36 -109 -36q-57 0 -85.5 28.5t-34.5 77.5l-2 17l-31 -21q-4 -49 -39 -81.5t-101 -44.5q61 -6 90 -35.5t29 -78.5q0 -47 -24.5 -89.5t-75.5 -69.5t-127 -27q-107 0 -176 66l82 94q26 -22 46 -31t41 -9q31 0 47 20t16 54q0 24 -12.5 33.5t-37.5 9.5h-62
l28 107h38q33 0 50 18.5t17 48.5q0 21 -9 31t-27 10q-21 0 -40 -7.5t-44 -23.5l-59 87q86 61 187 61q47 0 83 -15t56 -42l62 39h132l-10 -70l-1 -10q0 -17 8.5 -25.5t22.5 -8.5q19 0 44 10z" />
    <glyph glyph-name="uni025E" unicode="&#x25e;" horiz-adv-x="480" 
d="M66.5 36q-51.5 54 -51.5 156q0 111 35 192t98 124t147 43q77 0 125.5 -35.5t48.5 -96.5q0 -53 -33 -88.5t-96 -47.5q55 -7 81 -36t26 -76q0 -48 -23.5 -91t-75.5 -70.5t-133 -27.5q-97 0 -148.5 54zM268 122.5q14 20.5 14 55.5q0 22 -10.5 31.5t-33.5 9.5h-24l32 107h9
q20 0 33.5 17.5t13.5 49.5q0 41 -33 41q-46 0 -70.5 -73t-24.5 -175q0 -46 11.5 -65t38.5 -19q30 0 44 20.5z" />
    <glyph glyph-name="uni025F" unicode="&#x25f;" horiz-adv-x="288" 
d="M275 192h-54l-18 -130q-13 -90 -47 -145.5t-80 -85t-114 -54.5l-38 122q52 22 77 54.5t35 102.5l19 136h-58l17 119h57l31 222h167l-31 -222h54z" />
    <glyph glyph-name="uni0260" unicode="&#x260;" horiz-adv-x="487" 
d="M644 722l-62 -100q-25 14 -45 14q-18 0 -26 -12t-12 -39l-8 -53l-71 -504q-19 -129 -79.5 -190.5t-172.5 -61.5q-96 0 -178 56l59 108q32 -19 58.5 -27.5t54.5 -8.5q37 0 60.5 20.5t31.5 75.5l9 65q-45 -66 -114 -66q-64 0 -99 51t-35 138q0 98 28.5 180t87.5 132.5
t148 50.5q23 0 47 -6l5 39q10 78 60.5 127t134.5 49q71 0 118 -38zM275 179l35 250q-13 3 -27 3q-49 0 -74.5 -73.5t-25.5 -174.5q0 -33 7.5 -47t22.5 -14q28 0 62 56z" />
    <glyph glyph-name="uni0261" unicode="&#x261;" horiz-adv-x="484" 
d="M486 499l-66 -471q-19 -129 -79.5 -190.5t-172.5 -61.5q-96 0 -178 56l59 108q32 -19 58.5 -27.5t54.5 -8.5q37 0 60.5 20.5t31.5 75.5l9 65q-45 -66 -114 -66q-64 0 -99 51t-35 138q0 99 28.5 181t92 132t163.5 50q96 0 187 -52zM208.5 358.5q-25.5 -73.5 -25.5 -174.5
q0 -33 7.5 -47t22.5 -14q28 0 62 56l34 248q-13 5 -26 5q-49 0 -74.5 -73.5z" />
    <glyph glyph-name="uni0262" unicode="&#x262;" horiz-adv-x="471" 
d="M469 475l-89 -85q-20 21 -41 31t-47 10q-56 0 -81 -71t-25 -171q0 -47 10.5 -66.5t34.5 -19.5q18 0 43 10l12 93h-42l2 108h206l-38 -266q-40 -30 -91 -47t-109 -17q-101 0 -150 51.5t-49 153.5q0 111 35.5 193t98 125.5t143.5 43.5q112 0 177 -76z" />
    <glyph glyph-name="uni0263" unicode="&#x263;" horiz-adv-x="433" 
d="M304.5 0.5q9.5 -36.5 9.5 -73.5q0 -72 -41 -111t-116 -39q-59 0 -91 30t-32 79q0 45 21 89t66 112l1 1l-94 445h175l13 -339l92 339h173l-203 -448l-1 -1q18 -47 27.5 -83.5zM189.5 -109.5q7.5 10.5 7.5 31.5q0 25 -11 73q-15 -25 -24.5 -50t-9.5 -43q0 -22 17 -22
q13 0 20.5 10.5z" />
    <glyph glyph-name="uni0264" unicode="&#x264;" horiz-adv-x="484" 
d="M483 541.5q23 -8.5 44 -23.5l-60 -96q-15 9 -32 9q-14 0 -24 -7.5t-20 -28.5l-78 -154q17 -39 25 -66.5t8 -56.5q0 -60 -34.5 -98t-103.5 -38q-56 0 -85 28t-29 74q0 38 17.5 76t53.5 85l-37 152q-4 19 -11.5 26.5t-21.5 7.5q-17 0 -35 -9l-31 98q25 15 48 22.5t52 7.5
q52 0 77 -31.5t33 -97.5l13 -90l33 97q22 65 55.5 93.5t89.5 28.5q30 0 53 -8.5zM229 169q-26 -46 -26 -69q0 -19 14 -19q10 0 16 8.5t6 24.5q0 18 -10 55z" />
    <glyph glyph-name="uni0265" unicode="&#x265;" horiz-adv-x="464" 
d="M239 62q-23 -36 -52.5 -58t-74.5 -22q-47 0 -75 32.5t-28 88.5q0 17 3 35l56 395h167l-52 -369q-1 -5 -1 -13q0 -21 15 -21q13 0 29 17t31 44l47 342h167l-104 -740l-169 -18z" />
    <glyph glyph-name="uni0266" unicode="&#x266;" horiz-adv-x="466" 
d="M431 519q26 -32 26 -89q0 -17 -3 -38l-55 -392h-167l49 362q2 14 2 17q0 20 -13 20q-12 0 -26 -22.5t-40 -76.5l-41 -300h-167l74 532l9 62q11 74 63.5 120t140.5 46q73 0 129 -35l-59 -104q-33 15 -60 15q-22 0 -33.5 -14t-15.5 -45l-6 -45h-1l-8 -71q22 38 54.5 64
t74.5 26q47 0 73 -32z" />
    <glyph glyph-name="uni0267" unicode="&#x267;" horiz-adv-x="466" 
d="M431 519q26 -32 26 -89q0 -17 -3 -38l-55 -392l-6 -42q-13 -91 -68.5 -136t-140.5 -45q-43 0 -72.5 12t-53.5 32l68 96q17 -10 27.5 -14t25.5 -4q20 0 31.5 12t13.5 34l8 55l49 362q2 14 2 17q0 20 -13 20q-12 0 -26 -22.5t-40 -76.5l-41 -300h-167l74 532l9 62
q11 74 63.5 120t140.5 46q73 0 129 -35l-59 -104q-33 15 -60 15q-22 0 -33.5 -14t-15.5 -45l-6 -45h-1l-8 -71q22 38 54.5 64t74.5 26q47 0 73 -32z" />
    <glyph glyph-name="uni0268" unicode="&#x268;" horiz-adv-x="283" 
d="M132.5 649q-22.5 22 -22.5 59q0 47 30.5 77.5t75.5 30.5q40 0 62.5 -22t22.5 -59q0 -47 -30.5 -77.5t-75.5 -30.5q-40 0 -62.5 22zM263 533l-27 -193h55l-17 -117h-54l-31 -223h-167l31 223h-57l17 117h56l27 193h167z" />
    <glyph glyph-name="uni0269" unicode="&#x269;" horiz-adv-x="250" 
d="M66 533h165l-51 -388v-9q0 -19 15 -19q6 0 16 2l12 -117q-47 -20 -95 -20q-58 0 -88.5 31.5t-30.5 88.5q0 9 2 31z" />
    <glyph glyph-name="uni026A" unicode="&#x26a;" horiz-adv-x="277" 
d="M289 415h-46l-42 -297h47l-17 -118h-259l16 118h46l42 297h-47l17 118h259z" />
    <glyph glyph-name="uni026B" unicode="&#x26b;" horiz-adv-x="408" 
d="M266 145q-1 -4 -1 -10q0 -18 16 -18q6 0 16 2l12 -117q-47 -20 -95 -20q-58 0 -88.5 31.5t-30.5 87.5q0 21 2 32l27 197q-15 -3 -26.5 -14t-30.5 -36l-74 46q35 58 69.5 92t79.5 38l40 287l168 17l-49 -362q15 3 26 14t26 34l77 -46q-34 -56 -68.5 -89.5t-78.5 -38.5z
" />
    <glyph glyph-name="uni026C" unicode="&#x26c;" horiz-adv-x="393" 
d="M290 145q-1 -4 -1 -10q0 -18 16 -18q6 0 16 2l12 -117q-47 -20 -95 -20q-58 0 -88.5 31.5t-30.5 87.5q0 21 2 32l15 106q-64 2 -97 32t-33 82q0 59 37 94t95 35q15 0 31 -4l37 265l168 17l-59 -429h2q26 2 53 7l4 -83q-35 -12 -69 -13h-2zM148 329l10 69q-12 2 -16 2
q-15 0 -23 -10.5t-8 -27.5q0 -33 37 -33z" />
    <glyph glyph-name="uni026D" unicode="&#x26d;" horiz-adv-x="234" 
d="M287 -182q-60 -41 -137 -41q-75 0 -117.5 40t-42.5 116q0 10 2 32l5 35h-1l104 743l169 17l-106 -760h1l-7 -53q-1 -4 -1 -12q0 -17 9 -26.5t26 -9.5q15 0 25 3.5t28 12.5z" />
    <glyph glyph-name="uni026E" unicode="&#x26e;" horiz-adv-x="607" 
d="M587 417l-169 -208q148 -19 148 -163q0 -82 -35 -143.5t-95.5 -94t-135.5 -32.5q-131 0 -192 106l99 80q24 -31 45.5 -44t49.5 -13q42 0 68 36t26 101q0 41 -18 58t-53 17h-83l14 96l158 194h-199l-36 -262q-1 -4 -1 -10q0 -18 16 -18q6 0 16 2l12 -117q-47 -20 -95 -20
q-58 0 -88.5 31.5t-30.5 87.5q0 21 2 32l85 610l168 17l-31 -227h372z" />
    <glyph glyph-name="uni026F" unicode="&#x26f;" horiz-adv-x="682" 
d="M685 533l-74 -533h-145v78q-58 -96 -133 -96q-39 0 -64 23.5t-32 65.5q-56 -89 -129 -89q-46 0 -72.5 32.5t-26.5 88.5q0 18 3 37l56 393h167l-50 -362l-2 -20q0 -21 12 -21q10 0 22.5 22t31.5 74l44 307h167l-50 -362q-1 -7 -1 -19q0 -22 11 -22t23.5 23t32.5 78l42 302
h167z" />
    <glyph glyph-name="uni0270" unicode="&#x270;" horiz-adv-x="678" 
d="M685 533l-104 -740l-169 -17l40 288q-20 -36 -49.5 -59t-68.5 -23t-64 23.5t-32 65.5q-58 -89 -129 -89q-46 0 -73 32.5t-27 88.5q0 18 3 37l56 393h167l-50 -363q-1 -7 -1 -18q0 -22 11 -22q23 0 52 79l46 324h167l-49 -363q-2 -16 -2 -20q0 -20 11 -20q22 0 55 83
l43 320h167z" />
    <glyph glyph-name="uni0271" unicode="&#x271;" horiz-adv-x="682" 
d="M646.5 518.5q26.5 -32.5 26.5 -88.5q0 -17 -3 -37l-56 -393l-6 -42q-13 -91 -68.5 -136t-140.5 -45q-43 0 -72.5 12t-53.5 32l68 96q17 -10 27.5 -14t25.5 -4q20 0 31.5 12t13.5 34l8 55l50 362l2 20q0 21 -12 21q-10 0 -22.5 -22t-31.5 -74l-44 -307h-167l50 362
q1 7 1 19q0 22 -11 22t-23.5 -23t-32.5 -78l-42 -302h-167l74 533h145v-78q58 96 133 96q39 0 64 -23.5t32 -65.5q56 89 129 89q46 0 72.5 -32.5z" />
    <glyph glyph-name="uni0272" unicode="&#x272;" horiz-adv-x="468" 
d="M432 518.5q27 -32.5 27 -88.5q0 -18 -3 -38l-56 -392h-167l50 362q1 6 1 15q0 22 -13 22q-12 0 -26 -22.5t-39 -76.5l-42 -300l-6 -42q-13 -91 -68.5 -136t-140.5 -45q-43 0 -72.5 12t-53.5 32l68 96q17 -10 27.5 -14t25.5 -4q20 0 31.5 12t13.5 34l8 55l74 533h145v-81
q63 99 142 99q47 0 74 -32.5z" />
    <glyph glyph-name="uni0273" unicode="&#x273;" horiz-adv-x="468" 
d="M524 -182q-60 -41 -137 -41q-75 0 -117.5 40t-42.5 116q0 10 2 32l5 35h-1l50 362q1 6 1 15q0 22 -13 22q-12 0 -26 -22.5t-39 -76.5l-42 -300h-167l74 533h145v-81q63 99 142 99q47 0 74 -32.5t27 -88.5q0 -18 -3 -38l-56 -392h1l-7 -53q-1 -4 -1 -12q0 -17 9 -26.5
t26 -9.5q15 0 25 3.5t28 12.5z" />
    <glyph glyph-name="uni0274" unicode="&#x274;" horiz-adv-x="476" 
d="M405 0h-192l-45 386v-27q-1 -66 -3.5 -114.5t-10.5 -105.5l-19 -139h-138l74 533h193l45 -386v42q0 10 1 65.5t8 106.5l25 172h136z" />
    <glyph glyph-name="uni0275" unicode="&#x275;" horiz-adv-x="492" 
d="M425 497q51 -54 51 -159q0 -95 -30 -176.5t-90.5 -130.5t-147.5 -49q-91 0 -142 53.5t-51 158.5q0 95 30 176.5t91 131t148 49.5q90 0 141 -54zM190 316h125q2 32 2 46q0 37 -10.5 53t-31.5 16q-58 0 -85 -115zM269.5 135q21.5 34 33.5 89h-126q-2 -38 -2 -53
q0 -37 10 -53.5t32 -16.5q31 0 52.5 34z" />
    <glyph glyph-name="uni0276" unicode="&#x276;" horiz-adv-x="629" 
d="M627 417h-176q17 -42 17 -87v-4h129l-15 -113h-128q-15 -57 -41 -97h184l-16 -116h-286q-44 -18 -91 -18q-88 0 -138.5 53.5t-50.5 158.5q0 95 30 176.5t91 131t148 49.5q53 0 86 -18h290zM270 147.5q20 42.5 29 103t9 113.5q0 33 -9 48t-27 15q-31 0 -50.5 -42.5
t-28.5 -102t-9 -113.5q0 -34 9 -49t27 -15q30 0 50 42.5z" />
    <glyph glyph-name="uni0277" unicode="&#x277;" horiz-adv-x="639" 
d="M550.5 490.5q70.5 -60.5 70.5 -178.5q0 -90 -25 -165t-74 -120t-117 -45q-109 0 -112 116q-22 -62 -56.5 -89t-86.5 -27q-66 0 -102.5 45.5t-36.5 133.5q0 190 92 290t259 100q118 0 188.5 -60.5zM426.5 129q14.5 23 23.5 67.5t9 106.5q0 66 -26.5 98.5t-85.5 32.5
q-91 0 -133 -68t-42 -200q0 -31 5.5 -45.5t16.5 -14.5q26 0 34 56l20 136l156 21l-25 -166q-2 -16 -2 -20q0 -27 19 -27q16 0 30.5 23z" />
    <glyph glyph-name="uni0278" unicode="&#x278;" horiz-adv-x="578" 
d="M504.5 103q-61.5 -85 -168.5 -97l-31 -213l-168 -17l34 231q-70 12 -114 62t-44 138q0 139 61.5 224t170.5 96l29 216l167 17l-32 -235q69 -12 113 -62.5t44 -137.5q0 -137 -61.5 -222zM395 181q20 65 20 148q0 47 -10 69t-31 25l-40 -314q41 7 61 72zM183.5 352.5
q-20.5 -63.5 -20.5 -149.5q0 -88 40 -94l41 313q-40 -6 -60.5 -69.5z" />
    <glyph glyph-name="uni0279" unicode="&#x279;" horiz-adv-x="336" 
d="M-47 -7l51 163q24 -6 37 -6q34 0 57 38t41 106l33 239h167l-74 -533h-143l1 88q-50 -104 -127 -104q-22 0 -43 9z" />
    <glyph glyph-name="uni027A" unicode="&#x27a;" horiz-adv-x="336" 
d="M339 532l-74 -532h-143l1 88q-50 -104 -127 -104q-22 0 -43 9l51 163q24 -6 37 -6q34 0 57 38t41 106l33 239l32 227l165 -17z" />
    <glyph glyph-name="uni027B" unicode="&#x27b;" horiz-adv-x="335" 
d="M388 -182q-60 -41 -137 -41q-75 0 -117.5 40t-42.5 116q0 10 2 32l5 35l9 66q-42 -82 -111 -82q-22 0 -43 9l51 163q24 -6 37 -6q34 0 56.5 37.5t41.5 105.5l33 240h167l-74 -533l-7 -53q-1 -4 -1 -12q0 -17 9 -26.5t26 -9.5q15 0 25 3.5t28 12.5z" />
    <glyph glyph-name="uni027C" unicode="&#x27c;" horiz-adv-x="336" 
d="M383 540l-51 -163q-22 6 -37 6q-34 0 -56.5 -37.5t-41.5 -106.5l-63 -446l-169 -17l106 757h143l-1 -88q50 104 127 104q22 0 43 -9z" />
    <glyph glyph-name="uni027D" unicode="&#x27d;" horiz-adv-x="336" 
d="M383 540l-51 -163q-24 6 -37 6q-34 0 -57 -38t-41 -106l-33 -239l-7 -53q-1 -4 -1 -12q0 -17 9 -26.5t26 -9.5q15 0 25 3.5t28 12.5l43 -97q-60 -41 -137 -41q-75 0 -117.5 40t-42.5 116q0 10 2 32l5 35l74 533h143l-1 -88q50 104 127 104q22 0 43 -9z" />
    <glyph glyph-name="uni027E" unicode="&#x27e;" horiz-adv-x="335" 
d="M326.5 539q29.5 -12 53.5 -32l-68 -96q-17 10 -27.5 14t-25.5 4q-20 0 -31.5 -12t-13.5 -34l-8 -55l-45 -328h-167l45 328l6 42q13 91 68.5 136t140.5 45q43 0 72.5 -12z" />
    <glyph glyph-name="uni027F" unicode="&#x27f;" horiz-adv-x="336" 
d="M277.5 511q42.5 -40 42.5 -116q0 -10 -2 -32l-5 -35l-45 -328h-167l45 328l7 53q1 4 1 12q0 17 -9 26.5t-26 9.5q-15 0 -25 -3.5t-28 -12.5l-43 97q60 41 137 41q75 0 117.5 -40z" />
    <glyph glyph-name="uni0280" unicode="&#x280;" horiz-adv-x="450" 
d="M340 212l71 -212h-160l-51 180h-20l-25 -180h-158l74 533h165q97 0 144 -38t47 -120q0 -113 -87 -163zM195 289h18q28 0 42 22t14 61q0 24 -9.5 34.5t-28.5 10.5h-19z" />
    <glyph glyph-name="uni0281" unicode="&#x281;" horiz-adv-x="448" 
d="M404 203q0 -100 -59.5 -151.5t-163.5 -51.5h-184l74 533h158l-25 -181h25l95 181h161l-132 -218q51 -37 51 -112zM229.5 134.5q16.5 19.5 16.5 60.5q0 46 -42 46h-16l-17 -126h14q28 0 44.5 19.5z" />
    <glyph glyph-name="uni0282" unicode="&#x282;" horiz-adv-x="401" 
d="M349 264q26 -33 26 -87q0 -90 -55 -142.5t-144 -52.5q-40 0 -78 10l-6 -45q-1 -4 -1 -12q0 -36 43 -36q29 0 69 18l44 -99q-58 -41 -137 -41q-74 0 -117 39.5t-43 111.5q0 17 3 37l15 106l74 75q31 -22 55.5 -33.5t51.5 -11.5q28 0 43 14t15 37q0 22 -16.5 37.5
t-58.5 34.5q-55 25 -79.5 56.5t-24.5 85.5q0 52 26.5 94.5t73 66.5t104.5 24q52 0 96.5 -18t75.5 -50l-71 -89q-49 37 -91 37q-23 0 -36.5 -11.5t-13.5 -30.5q0 -17 16.5 -31.5t62.5 -36.5q52 -24 78 -57z" />
    <glyph glyph-name="uni0283" unicode="&#x283;" horiz-adv-x="236" 
d="M391 722l-62 -100q-25 14 -45 14q-18 0 -26 -12t-12 -39l-8 -53l-74 -532l-6 -42q-13 -91 -68.5 -136t-140.5 -45q-43 0 -72.5 12t-53.5 32l68 96q17 -10 27.5 -14t25.5 -4q20 0 31.5 12t13.5 34l8 55l74 533l7 51q10 78 60.5 127t134.5 49q70 0 118 -38z" />
    <glyph glyph-name="uni0284" unicode="&#x284;" horiz-adv-x="341" 
d="M429 722l-62 -100q-25 14 -45 14q-18 0 -26 -12t-12 -39l-8 -52h1l-59 -414h55l-17 -119h-58q-18 -66 -51.5 -109t-75.5 -67.5t-102 -46.5l-37 122q41 18 63.5 39.5t35.5 61.5h-53l17 119h57l57 414l7 51q10 78 60.5 127t134.5 49q71 0 118 -38z" />
    <glyph glyph-name="uni0285" unicode="&#x285;" horiz-adv-x="438" 
d="M417 24q-60 -41 -137 -41q-75 0 -117.5 40t-42.5 116q0 10 2 32l5 35l17 121h-1l7 53q1 4 1 12q0 17 -9 26.5t-26 9.5q-15 0 -25 -3.5t-28 -12.5l-43 97q60 41 137 41q75 0 117.5 -40t42.5 -116q0 -10 -2 -32l-5 -35h1l-17 -121l-7 -53q-1 -4 -1 -12q0 -17 9 -26.5
t26 -9.5q15 0 25 3.5t28 12.5z" />
    <glyph glyph-name="uni0286" unicode="&#x286;" horiz-adv-x="308" 
d="M464 722l-62 -100q-25 14 -45 14q-18 0 -26 -12t-12 -39l-8 -53h-1l-75 -538l-1 -4q36 -11 68 -34l-36 -67q-25 14 -49 25q-47 -137 -194 -137q-60 0 -92 30t-32 84q0 62 37.5 97t96.5 35q28 0 39 -3l71 513h1l7 51q10 78 60.5 127t134.5 49q71 0 118 -38zM59 -76l3 21
q-15 3 -29 3q-21 0 -33 -14t-12 -38q0 -33 27 -33q35 0 44 61z" />
    <glyph glyph-name="uni0287" unicode="&#x287;" horiz-adv-x="328" 
d="M293 0h-59l-30 -117l-149 -17l18 134h-95l37 118h75l34 252q1 5 1 14q0 33 -28 33q-18 0 -38 -11l-38 106q28 19 63 29t69 10q69 0 105.5 -38t36.5 -106q0 -18 -3 -38l-35 -251h53z" />
    <glyph glyph-name="uni0288" unicode="&#x288;" horiz-adv-x="327" 
d="M173 -53q-1 -4 -1 -12q0 -17 9 -26.5t26 -9.5q15 0 25 3.5t28 12.5l43 -97q-60 -41 -137 -41q-75 0 -117.5 40t-42.5 116q0 10 2 32l5 35l57 415h-52l18 118h57l31 117l148 17l-18 -134h95l-36 -118h-76l-57 -415z" />
    <glyph glyph-name="uni0289" unicode="&#x289;" horiz-adv-x="511" 
d="M519 293h-56l-41 -293h-145l3 71q-28 -42 -59.5 -65.5t-76.5 -23.5q-47 0 -75 32.5t-28 88.5q0 17 3 35l22 155h-57l15 103h56l19 137h167l-19 -137h64l19 137h167l-19 -137h55zM297 293h-64l-18 -129q-1 -5 -1 -14q0 -20 13 -20q24 0 56 60z" />
    <glyph glyph-name="uni028A" unicode="&#x28a;" horiz-adv-x="500" 
d="M63 36.5q-52 54.5 -52 140.5q0 77 31.5 138t93.5 102h-78l19 116h191l-18 -109q-31 -48 -48.5 -114t-17.5 -129q0 -40 10 -59.5t31 -19.5q37 0 59 51.5t22 140.5q0 46 -3.5 74t-10.5 57l17 108h189l-18 -116h-77q35 -30 54 -67.5t19 -90.5q0 -87 -36 -150t-96 -95
t-132 -32q-97 0 -149 54.5z" />
    <glyph glyph-name="uni028B" unicode="&#x28b;" horiz-adv-x="464" 
d="M60 21.5q-47 39.5 -47 109.5q0 8 2 28l53 374h166l-52 -380q-1 -5 -1 -13q0 -34 25 -34q23 0 39 28t23 82l25 188q1 3 1 9q0 15 -11 15q-8 0 -14 -3l-6 111q39 14 81 14q56 0 86.5 -31.5t30.5 -93.5q0 -19 -3 -40l-23 -166q-16 -117 -86.5 -177t-166.5 -60
q-75 0 -122 39.5z" />
    <glyph glyph-name="uni028C" unicode="&#x28c;" horiz-adv-x="433" 
d="M-48 0l196 533h202l55 -533h-175l1 406l-106 -406h-173z" />
    <glyph glyph-name="uni028D" unicode="&#x28d;" horiz-adv-x="635" 
d="M-36 0l157 533h187l-5 -380l92 380h191l10 -533h-167l32 405l-107 -405h-156l11 405l-85 -405h-160z" />
    <glyph glyph-name="uni028E" unicode="&#x28e;" horiz-adv-x="439" 
d="M154 534q44 115 119 167t189 58l2 -115q-65 -10 -99.5 -34t-58.5 -79l59 2l46 -533h-172l6 424l-117 -424h-176z" />
    <glyph glyph-name="uni028F" unicode="&#x28f;" horiz-adv-x="437" 
d="M485 533l-193 -341l-28 -192h-167l28 191l-97 342h174l21 -226l88 226h174z" />
    <glyph glyph-name="uni0290" unicode="&#x290;" horiz-adv-x="387" 
d="M457 -182q-60 -41 -137 -41q-75 0 -117.5 40t-42.5 116q0 10 2 32l5 35h-199l17 120l210 286h-156l19 127h351l-17 -119l-210 -286h169l-18 -128h1l-7 -53q-1 -4 -1 -12q0 -17 9 -26.5t26 -9.5q15 0 25 3.5t28 12.5z" />
    <glyph glyph-name="uni0291" unicode="&#x291;" horiz-adv-x="496" 
d="M465.5 248q28.5 -28 28.5 -81q0 -83 -53.5 -125.5t-139.5 -41.5h-17q-6 -31 -15 -84q-4 -30 -7 -46l-87 2q12 78 24 128h-231l17 120l210 286h-156l19 127h351l-16 -107l-219 -298h62q33 81 68 114.5t85 33.5q48 0 76.5 -28zM388 167q0 22 -18 22q-29 0 -48 -61h21
q45 0 45 39z" />
    <glyph glyph-name="uni0292" unicode="&#x292;" horiz-adv-x="430" 
d="M409 417l-169 -208q149 -20 149 -163q0 -82 -35 -143.5t-96 -94t-136 -32.5q-131 0 -192 106l99 80q24 -31 45.5 -44t49.5 -13q43 0 68.5 36t25.5 101q0 41 -18 58t-53 17h-83l14 96l158 194h-198l18 126h370z" />
    <glyph glyph-name="uni0293" unicode="&#x293;" horiz-adv-x="426" 
d="M406 417l-164 -199q70 -8 107 -49.5t37 -116.5q0 -93 -46 -160t-127 -96l17 -63l-81 -25l-16 71q-24 -2 -39 -2q-72 0 -115 36t-43 101q0 45 17.5 77.5t46.5 49t62 16.5q47 0 71.5 -28t42.5 -96q40 36 40 116q0 40 -19 57.5t-61 17.5h-75l13 89l161 194h-200l18 126h370z
M105 -94q-9 39 -16.5 53t-20.5 14q-11 0 -17 -9.5t-6 -25.5t11 -24t37 -8h12z" />
    <glyph glyph-name="uni0294" unicode="&#x294;" horiz-adv-x="420" 
d="M119 355l24 11q64 29 91.5 72t27.5 114q0 41 -15 62.5t-42 21.5q-23 0 -45.5 -12.5t-48.5 -38.5l-69 84q45 46 92 68.5t106 22.5q58 0 103.5 -24.5t71 -70.5t25.5 -107q0 -95 -34 -152.5t-106 -89.5l-21 -9l-42 -307h-167z" />
    <glyph glyph-name="uni0295" unicode="&#x295;" horiz-adv-x="415" 
d="M105 0l42 308l-17 12q-42 28 -61.5 61t-19.5 95q0 81 33.5 146t91 101.5t128.5 36.5q59 0 103 -23.5t80 -70.5l-89 -79q-22 25 -41.5 37t-44.5 12q-41 0 -66 -41.5t-25 -113.5q0 -47 18 -74t59 -45l25 -10l-49 -352h-167z" />
    <glyph glyph-name="uni0296" unicode="&#x296;" horiz-adv-x="425" 
d="M338 760l-46 -325l23 -11q42 -21 64.5 -58t22.5 -99q0 -83 -32 -147.5t-89 -100.5t-129 -36q-117 0 -188 94l91 79q23 -26 42.5 -37.5t42.5 -11.5q43 0 66.5 42.5t23.5 112.5q0 49 -17.5 75.5t-58.5 40.5l-34 11l50 354z" />
    <glyph glyph-name="uni0297" unicode="&#x297;" horiz-adv-x="416" 
d="M455 483l-80 -90q-17 15 -33 22t-35 7q-43 0 -72.5 -57.5t-44 -147t-14.5 -186.5q0 -75 13 -99.5t40 -24.5q17 0 33.5 7t41.5 23l58 -99q-73 -62 -164 -62q-93 0 -144 63.5t-51 189.5q0 152 36.5 270.5t104 185t157.5 66.5q95 0 154 -68z" />
    <glyph glyph-name="uni0298" unicode="&#x298;" horiz-adv-x="669" 
d="M538.5 679q59.5 -34 91.5 -98t32 -151q0 -136 -46.5 -237.5t-129.5 -156t-192 -54.5q-81 0 -140.5 34.5t-92 99t-32.5 152.5q0 136 47 237t130.5 154.5t191.5 53.5q81 0 140.5 -34zM242.5 503q-48.5 -93 -48.5 -244q0 -160 113 -160q93 0 142 91.5t49 240.5q0 83 -30 124
t-82 41q-95 0 -143.5 -93zM285.5 277.5q-18.5 18.5 -18.5 49.5q0 39 25.5 64.5t63.5 25.5q34 0 52.5 -18.5t18.5 -49.5q0 -39 -25.5 -64.5t-63.5 -25.5q-34 0 -52.5 18.5z" />
    <glyph glyph-name="uni0299" unicode="&#x299;" horiz-adv-x="447" 
d="M398.5 259q24.5 -26 24.5 -71q0 -92 -63 -140t-171 -48h-192l73 527q92 23 189 23q85 0 132.5 -35t47.5 -94q0 -103 -119 -129q54 -7 78.5 -33zM263 346q14 21 14 60q0 19 -8.5 28t-25.5 9q-12 0 -26 -2l-16 -116h21q27 0 41 21zM240.5 132q18.5 23 18.5 66
q0 23 -9.5 32.5t-32.5 9.5h-27l-18 -131h19q31 0 49.5 23z" />
    <glyph glyph-name="uni029A" unicode="&#x29a;" horiz-adv-x="487" 
d="M56.5 22q-53.5 40 -53.5 113q0 62 39 102t108 47q-46 11 -68.5 36t-22.5 65q0 46 26.5 84t74.5 60t111 22q96 0 147.5 -57.5t51.5 -158.5q0 -168 -70 -260.5t-206 -92.5q-84 0 -137.5 40zM288.5 174q22.5 72 22.5 165q0 51 -11 73t-34 22q-22 0 -33 -16.5t-11 -45.5
q0 -46 39 -46h12l-32 -107h-9q-30 0 -45.5 -19t-15.5 -50q0 -23 11 -35.5t30 -12.5q54 0 76.5 72z" />
    <glyph glyph-name="uni029B" unicode="&#x29b;" horiz-adv-x="463" 
d="M577.5 749.5q30.5 -10.5 52.5 -27.5l-58 -101q-28 15 -48 15q-18 0 -26.5 -12.5t-12.5 -39.5l-16 -109l-81 -77q-29 18 -49.5 25.5t-46.5 7.5q-56 0 -81 -71t-25 -171q0 -47 10.5 -66.5t34.5 -19.5q18 0 43 10l12 93h-42l2 108h206l-38 -266q-40 -30 -91 -47t-109 -17
q-101 0 -150 51.5t-49 153.5q0 110 35 192t96 126t138 44q28 0 55 -9l11 73q12 70 51.5 107.5t109.5 37.5q36 0 66.5 -10.5z" />
    <glyph glyph-name="uni029C" unicode="&#x29c;" horiz-adv-x="475" 
d="M237 0l29 207h-73l-29 -207h-167l74 533h167l-28 -201h73l28 201h167l-74 -533h-167z" />
    <glyph glyph-name="uni029D" unicode="&#x29d;" horiz-adv-x="343" 
d="M325.5 794q22.5 -22 22.5 -59q0 -47 -30.5 -77.5t-75.5 -30.5q-40 0 -62.5 22t-22.5 59q0 47 30.5 77.5t75.5 30.5q40 0 62.5 -22zM235 -6l-1 -4q36 -11 68 -34l-36 -67q-25 14 -49 25q-47 -137 -194 -137q-60 0 -92 30t-32 84q0 62 37.5 97t96.5 35q28 0 39 -3l71 513
h167zM59 -76l3 21q-15 3 -29 3q-21 0 -33 -14t-12 -38q0 -33 27 -33q35 0 44 61z" />
    <glyph glyph-name="uni029E" unicode="&#x29e;" horiz-adv-x="464" 
d="M-50 0l149 250l-76 283h177l60 -292l-137 -241h-173zM198 -224l106 757h167l-104 -740z" />
    <glyph glyph-name="uni029F" unicode="&#x29f;" horiz-adv-x="371" 
d="M238 533l-53 -403h171l-38 -130h-321l74 533h167z" />
    <glyph glyph-name="uni02A0" unicode="&#x2a0;" horiz-adv-x="490" 
d="M646 722l-62 -100q-25 14 -45 14q-18 0 -26 -12t-12 -39l-8 -53l-105 -754l-165 13l34 247q-23 -28 -48 -42t-59 -14q-65 0 -101 51t-36 138q0 100 29 187t87.5 140t141.5 53q27 0 56 -8l6 41q10 78 60.5 127t134.5 49q71 0 118 -38zM368 532h-13l2 -1zM311 427
q-13 5 -27 5q-50 0 -76.5 -77.5t-26.5 -187.5q0 -33 7.5 -47t23.5 -14q29 0 62 55z" />
    <glyph glyph-name="uni02A1" unicode="&#x2a1;" horiz-adv-x="420" 
d="M279 307l-11 -84h76l-14 -96h-76l-17 -127h-167l18 127h-55l14 96h54l18 132l24 11q64 29 91.5 72t27.5 114q0 41 -15 62.5t-42 21.5q-23 0 -45.5 -12.5t-48.5 -38.5l-69 84q45 46 92 68.5t106 22.5q58 0 103.5 -24.5t71 -70.5t25.5 -107q0 -95 -34 -152.5t-106 -89.5z
" />
    </font>
</defs>
</svg>
