<?xml version="1.0" standalone="no"?>
<!DOCTYPE svg PUBLIC "-//W3C//DTD SVG 1.1//EN" "http://www.w3.org/Graphics/SVG/1.1/DTD/svg11.dtd" >
<svg xmlns="http://www.w3.org/2000/svg" xmlns:xlink="http://www.w3.org/1999/xlink" version="1.1">
<metadata>
Created by FontForge 20170731 at Tue Dec  6 15:27:44 2016
 By Aleksey,,,
Digitized data copyright 2012-2016, The Mozilla Foundation and Telefonica S.A.
</metadata>
<defs>
<font id="FiraSansExtraCondensed-Medium" horiz-adv-x="460" >
  <font-face 
    font-family="Fira Sans Extra Condensed Medium"
    font-weight="500"
    font-stretch="ultra-condensed"
    units-per-em="1000"
    panose-1="2 11 6 3 5 0 0 2 0 4"
    ascent="800"
    descent="-200"
    x-height="529"
    cap-height="691"
    bbox="-645 -353 1360 1145"
    underline-thickness="50"
    underline-position="-150"
    unicode-range="U+000D-FEFF"
  />
<missing-glyph horiz-adv-x="666" 
d="M543 1050v-1400h-420v1400h420zM489 998h-311v-1296h311v1296zM409.5 419q25.5 -32 25.5 -83q0 -53 -22.5 -82t-72.5 -36v-45q0 -11 -7.5 -17.5t-17.5 -6.5t-17.5 6.5t-7.5 17.5v84q53 3 72 19.5t19 57.5q0 33 -13 51t-48 18q-29 0 -52 -11q-8 -3 -13 -3q-11 0 -17.5 6.5
t-6.5 16.5q0 19 29.5 29t63.5 10q60 0 85.5 -32zM340 110q10 -10 10 -25q0 -16 -10 -26.5t-25 -10.5t-25 10.5t-10 26.5q0 15 10 25t25 10t25 -10z" />
    <glyph glyph-name="fi" unicode="fi" horiz-adv-x="495" 
d="M393 716l-35 -78q-48 22 -96 22q-35 0 -50 -15.5t-15 -49.5v-66h241v-529h-123v440h-118v-440h-123v440h-67v89h67v69q0 68 43.5 112t131.5 44q81 0 144 -38z" />
    <glyph glyph-name="fl" unicode="fl" horiz-adv-x="522" 
d="M517 4q-34 -19 -75 -19q-55 0 -86.5 33.5t-31.5 89.5v544q-36 10 -66 10q-34 0 -47.5 -14.5t-13.5 -49.5v-69h85l-14 -89h-71v-440h-123v440h-67v89h67v70q0 69 42.5 112t122.5 43q50 0 97 -18l111 12v-635q0 -13 6.5 -21t18.5 -8q6 0 12.5 2t8.5 2z" />
    <glyph glyph-name=".notdef" horiz-adv-x="666" 
d="M543 1050v-1400h-420v1400h420zM489 998h-311v-1296h311v1296zM409.5 419q25.5 -32 25.5 -83q0 -53 -22.5 -82t-72.5 -36v-45q0 -11 -7.5 -17.5t-17.5 -6.5t-17.5 6.5t-7.5 17.5v84q53 3 72 19.5t19 57.5q0 33 -13 51t-48 18q-29 0 -52 -11q-8 -3 -13 -3q-11 0 -17.5 6.5
t-6.5 16.5q0 19 29.5 29t63.5 10q60 0 85.5 -32zM340 110q10 -10 10 -25q0 -16 -10 -26.5t-25 -10.5t-25 10.5t-10 26.5q0 15 10 25t25 10t25 -10z" />
    <glyph glyph-name=".null" horiz-adv-x="0" 
 />
    <glyph glyph-name="nonmarkingreturn" unicode="&#xd;" horiz-adv-x="197" 
 />
    <glyph glyph-name="space" unicode=" " horiz-adv-x="197" 
 />
    <glyph glyph-name="exclam" unicode="!" horiz-adv-x="220" 
d="M175 691l-17 -449h-97l-17 449h131zM164.5 118q21.5 -23 21.5 -55t-21.5 -55t-54.5 -23t-54.5 23t-21.5 55t21.5 55t54.5 23t54.5 -23z" />
    <glyph glyph-name="quotedbl" unicode="&#x22;" horiz-adv-x="395" 
d="M61 421l-14 270h109l-14 -270h-81zM253 421l-14 270h109l-14 -270h-81z" />
    <glyph glyph-name="numbersign" unicode="#" horiz-adv-x="452" 
d="M440 444h-56l-27 -205h53v-84h-64l-20 -155h-98l20 155h-94l-20 -155h-97l20 155h-45v84h56l27 205h-53v85h64l19 144h98l-19 -144h94l19 144h97l-19 -144h45v-85zM260 239l27 205h-94l-27 -205h94z" />
    <glyph glyph-name="dollar" unicode="$" horiz-adv-x="449" 
d="M385.5 67.5q-40.5 -53.5 -111.5 -71.5v-153h-89v147q-106 8 -178 89l61 67q33 -31 66 -47t71 -16q46 0 71 28t25 75q0 41 -23 67t-82 50q-89 35 -128 81t-39 116q0 69 43.5 118t112.5 61v147h89v-147q77 -12 137 -77l-57 -66q-30 27 -58.5 40.5t-60.5 13.5
q-38 0 -59.5 -22t-21.5 -59t23 -60.5t88 -49.5q82 -34 121.5 -79t39.5 -127q0 -72 -40.5 -125.5z" />
    <glyph glyph-name="percent" unicode="%" horiz-adv-x="715" 
d="M511 715l76 -43l-382 -707l-75 43zM280.5 639.5q40.5 -45.5 40.5 -128.5t-40.5 -129t-103.5 -46t-103.5 45.5t-40.5 128.5t40.5 129t103.5 46t103.5 -45.5zM134 584.5q-12 -24.5 -12 -74.5q0 -49 12 -74t43 -25q30 0 42 24.5t12 75.5q0 49 -12 73.5t-42 24.5
q-31 0 -43 -24.5zM641.5 288.5q40.5 -45.5 40.5 -129.5q0 -83 -40 -128.5t-104 -45.5q-63 0 -103.5 45.5t-40.5 128.5q0 84 40.5 129.5t103.5 45.5t103.5 -45.5zM494.5 233.5q-12.5 -24.5 -12.5 -74.5q0 -49 12.5 -73.5t43.5 -24.5t42.5 24t11.5 74q0 51 -11.5 75t-42.5 24
t-43.5 -24.5z" />
    <glyph glyph-name="ampersand" unicode="&#x26;" horiz-adv-x="624" 
d="M387.5 661.5q46.5 -43.5 46.5 -114.5q0 -57 -29 -100t-85 -85l122 -148q27 79 41 153l99 -25q-30 -113 -74 -193l99 -106l-99 -58l-71 88q-39 -45 -84 -66.5t-100 -21.5q-57 0 -102 24t-70 67.5t-25 99.5q0 61 27.5 105.5t87.5 90.5q-46 48 -64 85.5t-18 87.5
q0 70 44 115t127 45q81 0 127.5 -43.5zM206 545q0 -35 11 -60.5t39 -61.5q33 31 47 57t14 64q0 79 -55 79q-56 0 -56 -78zM196.5 249.5q-12.5 -29.5 -12.5 -69.5q0 -50 24 -77t65 -27q31 0 56 14.5t48 43.5l-139 171q-29 -26 -41.5 -55.5z" />
    <glyph glyph-name="quotesingle" unicode="'" horiz-adv-x="203" 
d="M61 421l-14 270h109l-14 -270h-81z" />
    <glyph glyph-name="parenleft" unicode="(" horiz-adv-x="274" 
d="M255 799q-41 -72 -65 -133.5t-36.5 -137t-12.5 -178.5q0 -102 12.5 -177.5t36.5 -137.5t65 -134l-79 -52q-50 78 -83 145.5t-54 156t-21 199.5t21 199.5t54 156t83 145.5z" />
    <glyph glyph-name="parenright" unicode=")" horiz-adv-x="274" 
d="M181 701q32 -66 53 -153t21 -198t-21 -198t-53 -153t-84 -150l-79 52q61 107 87.5 204.5t26.5 244.5t-26.5 244.5t-87.5 204.5l79 52q52 -84 84 -150z" />
    <glyph glyph-name="asterisk" unicode="*" horiz-adv-x="387" 
d="M369 549l-116 -28l88 -111l-90 -54l-57 125l-57 -125l-89 53l87 112l-117 28l33 91l108 -55l-18 156h105l-17 -156l107 56z" />
    <glyph glyph-name="plus" unicode="+" horiz-adv-x="432" 
d="M267 530v-150h125v-98h-125v-148h-101v148h-125v98h125v150h101z" />
    <glyph glyph-name="comma" unicode="," horiz-adv-x="209" 
d="M157.5 119.5q20.5 -21.5 20.5 -54.5q0 -14 -4.5 -29.5t-11.5 -34t-9 -25.5l-53 -147h-69l36 169q-36 26 -36 66q0 33 21 55t53 22t52.5 -21.5z" />
    <glyph glyph-name="hyphen" unicode="-" horiz-adv-x="344" 
d="M43 264v98h258v-98h-258z" />
    <glyph glyph-name="period" unicode="." horiz-adv-x="215" 
d="M162 118q21 -23 21 -55t-21 -55t-55 -23q-33 0 -54.5 23t-21.5 55t21.5 55t54.5 23q34 0 55 -23z" />
    <glyph glyph-name="slash" unicode="/" horiz-adv-x="427" 
d="M261 811l102 -22l-197 -896l-103 22z" />
    <glyph glyph-name="zero" unicode="0" horiz-adv-x="502" 
d="M405 598q52 -87 52 -262q0 -351 -205 -351q-207 0 -207 351q0 349 207 349q101 0 153 -87zM205.5 569.5q-17.5 -22.5 -26 -78t-8.5 -155.5q0 -101 8.5 -156.5t26 -78t46.5 -22.5t46 22.5t25 78t8 156.5t-8 156t-25 77.5t-46 22.5t-46.5 -22.5z" />
    <glyph glyph-name="one" unicode="1" horiz-adv-x="376" 
d="M303 672v-672h-120v549l-120 -88l-55 78l185 133h110z" />
    <glyph glyph-name="two" unicode="2" horiz-adv-x="413" 
d="M288 661q43 -24 65 -65.5t22 -93.5q0 -58 -20 -110t-67 -118.5t-139 -175.5h238l-13 -98h-356v91q99 124 146.5 191.5t66 114.5t18.5 98q0 46 -20 69.5t-55 23.5q-29 0 -51.5 -15.5t-49.5 -51.5l-73 55q71 109 186 109q59 0 102 -24z" />
    <glyph glyph-name="three" unicode="3" horiz-adv-x="425" 
d="M290.5 662q41.5 -23 64 -62.5t22.5 -85.5q0 -124 -126 -158q68 -9 106 -49.5t38 -114.5q0 -56 -25 -103.5t-72 -75.5t-111 -28q-59 0 -104 24t-85 72l70 60q30 -32 54.5 -46t56.5 -14q41 0 66 30t25 86q0 59 -26.5 85t-78.5 26h-40l14 86h26q43 0 69 27.5t26 79.5
q0 44 -22 67.5t-60 23.5q-56 0 -105 -54l-63 62q80 85 184 85q55 0 96.5 -23z" />
    <glyph glyph-name="four" unicode="4" 
d="M442 250v-94h-63v-156h-116v156h-240v85l159 446l104 -38l-139 -399h117l14 171h101v-171h63z" />
    <glyph glyph-name="five" unicode="5" horiz-adv-x="440" 
d="M371 581h-204v-172q22 13 42 19t43 6q70 0 114 -56.5t44 -158.5q0 -69 -26.5 -122t-75 -82.5t-112.5 -29.5q-59 0 -102.5 24t-79.5 70l69 62q26 -31 50.5 -45.5t57.5 -14.5q45 0 69.5 34.5t24.5 103.5q0 71 -21 99.5t-59 28.5q-18 0 -34 -6t-36 -18h-84v350h335z" />
    <glyph glyph-name="six" unicode="6" horiz-adv-x="478" 
d="M373.5 422q35.5 -25 56 -74.5t20.5 -118.5q0 -114 -53 -179t-144 -65q-208 0 -208 325q0 115 29 199.5t82.5 130t126.5 45.5q71 0 124 -43l-45 -74q-37 26 -75 26q-50 0 -81 -56t-36 -164q45 73 124 73q44 0 79.5 -25zM308.5 114q18.5 37 19.5 113q0 72 -17.5 102.5
t-49.5 30.5q-25 0 -48.5 -20t-42.5 -55q1 -78 9.5 -123t26 -65t46.5 -20q38 0 56.5 37z" />
    <glyph glyph-name="seven" unicode="7" horiz-adv-x="382" 
d="M366 673v-87l-204 -599l-110 35l192 555h-232v96h354z" />
    <glyph glyph-name="eight" unicode="8" horiz-adv-x="474" 
d="M419 284.5q29 -43.5 29 -104.5q0 -88 -57 -141.5t-157 -53.5q-97 0 -152.5 53.5t-55.5 139.5q0 61 28 102.5t85 69.5q-49 30 -70 68t-21 90q0 83 52 130t135 47q85 0 138 -45t53 -127q0 -49 -23.5 -86t-76.5 -66q64 -33 93 -76.5zM183.5 578q-18.5 -21 -18.5 -72
q0 -41 17 -64.5t57 -43.5l15 -7q31 25 43 51.5t12 64.5q0 48 -18 70t-54 22q-35 0 -53.5 -21zM305 101.5q22 25.5 22 78.5q0 48 -20 74.5t-74 51.5l-23 10q-33 -23 -48 -55.5t-15 -78.5q0 -56 23 -81t68 -25t67 25.5z" />
    <glyph glyph-name="nine" unicode="9" horiz-adv-x="466" 
d="M379 616.5q52 -68.5 52 -193.5q0 -136 -36 -223t-109 -139t-194 -86l-26 88q110 35 166 89t70 151q-48 -64 -116 -64q-43 0 -79.5 27t-59 76.5t-22.5 114.5q0 73 26.5 124.5t72 77.5t103.5 26q100 0 152 -68.5zM306 396q0 77 -7.5 120t-24.5 61.5t-46 18.5
q-80 0 -80 -137q0 -67 20 -99t53 -32q50 0 85 68z" />
    <glyph glyph-name="colon" unicode=":" horiz-adv-x="215" 
d="M162 118q21 -23 21 -55t-21 -55t-55 -23q-33 0 -54.5 23t-21.5 55t21.5 55t54.5 23q34 0 55 -23zM162 474q21 -23 21 -55t-21 -55t-55 -23q-33 0 -54.5 23t-21.5 55t21.5 55t54.5 23q34 0 55 -23z" />
    <glyph glyph-name="semicolon" unicode=";" horiz-adv-x="215" 
d="M157.5 119.5q20.5 -21.5 20.5 -54.5q0 -14 -4.5 -29.5t-11.5 -34t-9 -25.5l-53 -147h-69l36 169q-36 26 -36 66q0 33 21 55t53 22t52.5 -21.5zM162 474q21 -23 21 -55t-21 -55t-55 -23q-33 0 -54.5 23t-21.5 55t21.5 55t54.5 23q34 0 55 -23z" />
    <glyph glyph-name="less" unicode="&#x3c;" horiz-adv-x="424" 
d="M353 557l43 -86l-270 -138l270 -136l-43 -88l-325 169v110z" />
    <glyph glyph-name="equal" unicode="=" horiz-adv-x="423" 
d="M41 384v95h341v-95h-341zM41 183v95h341v-95h-341z" />
    <glyph glyph-name="greater" unicode="&#x3e;" horiz-adv-x="424" 
d="M71 557l325 -169v-110l-325 -169l-43 88l270 136l-270 138z" />
    <glyph glyph-name="question" unicode="?" horiz-adv-x="404" 
d="M304 682.5q40 -22.5 60.5 -59t20.5 -78.5q0 -37 -11 -64t-26.5 -44t-41.5 -40q-35 -31 -52 -55.5t-17 -64.5v-35h-113v41q0 43 11 72.5t27 47.5t41 40q29 26 43 45.5t14 52.5q0 32 -17.5 49t-48.5 17q-27 0 -51.5 -14.5t-49.5 -46.5l-74 57q72 102 188 102q57 0 97 -22.5
zM236.5 118q21.5 -23 21.5 -55t-21.5 -55t-54.5 -23t-54.5 23t-21.5 55t21.5 55t54.5 23t54.5 -23z" />
    <glyph glyph-name="at" unicode="@" horiz-adv-x="847" 
d="M578 454v-252q0 -64 9.5 -88.5t31.5 -24.5q33 0 52 53t19 167q0 146 -63 225t-190 79q-88 0 -150.5 -46t-95.5 -130t-33 -196q0 -178 72 -271.5t208 -93.5q83 0 160 34l30 -86q-91 -41 -191 -41q-119 0 -207 55t-135.5 158t-47.5 245q0 134 50 240t138.5 165t201.5 59
q114 0 196 -52t124.5 -141.5t42.5 -200.5q0 -87 -22 -156t-62.5 -108.5t-92.5 -39.5q-44 0 -71.5 28t-35.5 67q-17 -41 -46.5 -67t-72.5 -26q-73 0 -111 58.5t-38 164.5q0 129 49.5 197t138.5 68q77 0 142 -43zM474 137v273q-21 7 -41 7q-38 0 -56 -41.5t-18 -143.5
q0 -80 12.5 -111t41.5 -31q34 0 61 47z" />
    <glyph glyph-name="A" unicode="A" horiz-adv-x="497" 
d="M370 0l-34 162h-178l-33 -162h-127l174 691h154l173 -691h-129zM178 258h139l-70 336z" />
    <glyph glyph-name="B" unicode="B" horiz-adv-x="508" 
d="M446.5 312.5q38.5 -38.5 38.5 -114.5q0 -100 -67.5 -149t-183.5 -49h-174v691h151q119 0 184 -45t65 -131q0 -58 -32.5 -96t-86.5 -53q67 -15 105.5 -53.5zM187 597v-191h43q101 0 101 98q0 49 -25.5 71t-81.5 22h-37zM323 120.5q30 24.5 30 82.5t-28 85.5t-87 27.5h-51
v-220h48q58 0 88 24.5z" />
    <glyph glyph-name="C" unicode="C" horiz-adv-x="476" 
d="M383.5 687.5q40.5 -17.5 78.5 -53.5l-61 -73q-26 24 -50.5 35.5t-53.5 11.5q-60 0 -94 -60t-34 -201q0 -139 34 -199.5t96 -60.5q31 0 54 12.5t54 38.5l61 -70q-32 -36 -77 -59.5t-101 -23.5q-117 0 -186 91t-69 271q0 119 33 199t90.5 119.5t131.5 39.5q53 0 93.5 -17.5
z" />
    <glyph glyph-name="D" unicode="D" horiz-adv-x="542" 
d="M364.5 664.5q63.5 -26.5 103 -102t39.5 -213.5q0 -195 -77.5 -272t-202.5 -77h-167v691h154q87 0 150.5 -26.5zM187 596v-501h47q45 0 75.5 21t48 77t17.5 156q0 102 -18.5 156t-49 72.5t-74.5 18.5h-46z" />
    <glyph glyph-name="E" unicode="E" horiz-adv-x="433" 
d="M403 691l-13 -95h-203v-198h177v-94h-177v-208h216v-96h-343v691h343z" />
    <glyph glyph-name="F" unicode="F" horiz-adv-x="403" 
d="M60 0v691h334l-14 -95h-193v-211h168v-95h-168v-290h-127z" />
    <glyph glyph-name="G" unicode="G" horiz-adv-x="538" 
d="M407 684.5q45 -20.5 85 -59.5l-64 -66q-31 27 -58 38.5t-61 11.5q-66 0 -103.5 -59t-37.5 -204q0 -102 13.5 -159.5t40 -80.5t69.5 -23q45 0 82 25v187h-78l-13 95h212v-338q-43 -31 -95.5 -48.5t-106.5 -17.5q-129 0 -193 87.5t-64 272.5q0 120 35.5 200.5t96.5 119.5
t138 39q57 0 102 -20.5z" />
    <glyph glyph-name="H" unicode="H" horiz-adv-x="553" 
d="M366 0v310h-179v-310h-127v691h127v-279h179v279h128v-691h-128z" />
    <glyph glyph-name="I" unicode="I" horiz-adv-x="247" 
d="M187 691v-691h-127v691h127z" />
    <glyph glyph-name="J" unicode="J" horiz-adv-x="261" 
d="M204 100q0 -108 -47 -163.5t-132 -88.5l-34 90q37 18 55 38.5t24 49.5t6 79v586h128v-591z" />
    <glyph glyph-name="K" unicode="K" horiz-adv-x="519" 
d="M187 691v-691h-127v691h127zM511 691l-188 -313l203 -378h-140l-194 369l190 322h129z" />
    <glyph glyph-name="L" unicode="L" horiz-adv-x="417" 
d="M187 691v-586h223l-14 -105h-336v691h127z" />
    <glyph glyph-name="M" unicode="M" horiz-adv-x="664" 
d="M625 0h-121l-12 292q-6 160 -6 228l1 52l-95 -496h-120l-99 497q1 -30 1 -92q0 -105 -4 -193l-11 -288h-119l44 691h160l90 -487l84 487h163z" />
    <glyph glyph-name="N" unicode="N" horiz-adv-x="552" 
d="M492 0h-162l-175 566q8 -72 12.5 -132.5t4.5 -143.5v-290h-112v691h161l175 -566q-6 36 -11.5 102t-5.5 134v330h113v-691z" />
    <glyph glyph-name="O" unicode="O" horiz-adv-x="578" 
d="M477 616q66 -89 66 -270q0 -179 -66 -270t-188 -91q-121 0 -187.5 90t-66.5 270q0 178 66.5 269t187.5 91q122 0 188 -89zM198.5 548q-29.5 -61 -29.5 -203q0 -143 30 -202.5t90 -59.5q62 0 91.5 59t29.5 204q0 142 -30 202.5t-91 60.5t-90.5 -61z" />
    <glyph glyph-name="P" unicode="P" horiz-adv-x="489" 
d="M408.5 635.5q65.5 -55.5 65.5 -163.5q0 -115 -64.5 -172t-182.5 -57h-40v-243h-127v691h158q125 0 190.5 -55.5zM314 368q29 30 29 103q0 66 -29 96t-93 30h-34v-259h33q65 0 94 30z" />
    <glyph glyph-name="Q" unicode="Q" horiz-adv-x="578" 
d="M501 23.5q41 -17.5 78 -51.5l-80 -97q-43 57 -92.5 85.5t-124.5 28.5q-115 0 -181 90.5t-66 265.5q0 177 66.5 268.5t187.5 91.5t187.5 -90t66.5 -269q0 -124 -37 -194t-102 -110q56 -1 97 -18.5zM199 142.5q30 -59.5 90 -59.5q62 0 91.5 59t29.5 204q0 143 -29.5 203
t-91.5 60q-61 0 -90.5 -60t-29.5 -204q0 -143 30 -202.5z" />
    <glyph glyph-name="R" unicode="R" horiz-adv-x="511" 
d="M370 0l-122 279h-12h-49v-279h-127v691h163q250 0 250 -203q0 -63 -28 -111.5t-84 -73.5l146 -303h-137zM314.5 399q26.5 28 26.5 89q0 57 -27.5 83.5t-90.5 26.5h-36v-227h42q59 0 85.5 28z" />
    <glyph glyph-name="S" unicode="S" horiz-adv-x="465" 
d="M341 684q46 -21 85 -63l-59 -68q-31 28 -60.5 42t-62.5 14q-38 0 -60 -23.5t-22 -61.5t23 -62t90 -50q86 -35 126.5 -82t40.5 -133q0 -59 -27 -107.5t-77.5 -76.5t-117.5 -28q-69 0 -120 24.5t-93 69.5l64 70q36 -32 69 -49t72 -17q46 0 71.5 28.5t25.5 77.5
q0 43 -22.5 70.5t-83.5 50.5q-92 37 -132.5 85t-40.5 120q0 55 26.5 98t73.5 67.5t105 24.5q60 0 106 -21z" />
    <glyph glyph-name="T" unicode="T" horiz-adv-x="440" 
d="M439 691l-14 -100h-142v-591h-127v591h-148v100h431z" />
    <glyph glyph-name="U" unicode="U" horiz-adv-x="537" 
d="M487 194q0 -91 -56.5 -149.5t-161.5 -58.5q-107 0 -163 57.5t-56 150.5v497h127v-491q0 -58 22 -86.5t70 -28.5q47 0 69 28.5t22 86.5v491h127v-497z" />
    <glyph glyph-name="V" unicode="V" horiz-adv-x="481" 
d="M483 691l-160 -691h-159l-166 691h129l118 -579l113 579h125z" />
    <glyph glyph-name="W" unicode="W" horiz-adv-x="702" 
d="M688 691l-97 -691h-167l-74 556l-77 -556h-164l-95 691h123l64 -589l83 589h135l81 -589l70 589h118z" />
    <glyph glyph-name="X" unicode="X" horiz-adv-x="471" 
d="M309 373l165 -373h-134l-108 288l-104 -288h-131l160 368l-148 323h134l91 -244l96 244h129z" />
    <glyph glyph-name="Y" unicode="Y" horiz-adv-x="482" 
d="M487 691l-182 -428v-263h-128v262l-182 429h135l113 -325l114 325h130z" />
    <glyph glyph-name="Z" unicode="Z" horiz-adv-x="440" 
d="M417 691v-99l-264 -488h267l-12 -104h-393v98l265 491h-239v102h376z" />
    <glyph glyph-name="bracketleft" unicode="[" horiz-adv-x="268" 
d="M243 819v-95h-94v-750h94v-93h-210v938h210z" />
    <glyph glyph-name="backslash" unicode="\" horiz-adv-x="427" 
d="M166 809l197 -894l-102 -22l-198 894z" />
    <glyph glyph-name="bracketright" unicode="]" horiz-adv-x="268" 
d="M235 819v-938h-211v94h95v750h-95v94h211z" />
    <glyph glyph-name="asciicircum" unicode="^" horiz-adv-x="459" 
d="M285 841l155 -314h-122l-90 217l-87 -217h-122l154 314h112z" />
    <glyph glyph-name="underscore" unicode="_" horiz-adv-x="431" 
d="M12 -155v99h408v-99h-408z" />
    <glyph glyph-name="grave" unicode="`" horiz-adv-x="285" 
d="M85 812l175 -121l-34 -60l-191 90z" />
    <glyph glyph-name="a" unicode="a" horiz-adv-x="454" 
d="M402 89.5q7 -12.5 23 -20.5l-25 -82q-41 5 -65.5 22t-36.5 52q-46 -76 -129 -76q-66 0 -105 44.5t-39 118.5q0 86 53.5 131t155.5 45h41v37q0 50 -17.5 70.5t-56.5 20.5q-47 0 -117 -26l-28 80q40 18 83 27.5t82 9.5q174 0 174 -176v-239q0 -26 7 -38.5zM275 140v111h-29
q-51 0 -74.5 -23t-23.5 -71q0 -41 14 -62t40 -21q48 0 73 66z" />
    <glyph glyph-name="b" unicode="b" horiz-adv-x="494" 
d="M418 473q41 -70 41 -208q0 -130 -46 -205t-126 -75q-35 0 -64 17.5t-50 48.5l-7 -51h-109v740l123 13v-281q21 34 51.5 52.5t68.5 18.5q77 0 118 -70zM311.5 120q20.5 42 20.5 145q0 107 -18.5 146.5t-52.5 39.5q-23 0 -44 -19t-37 -50v-248q13 -25 32.5 -40.5
t41.5 -15.5q37 0 57.5 42z" />
    <glyph glyph-name="c" unicode="c" horiz-adv-x="396" 
d="M325 528.5q35 -14.5 67 -45.5l-53 -70q-22 18 -41.5 26.5t-42.5 8.5q-45 0 -68 -42.5t-23 -143.5q0 -98 23.5 -138t67.5 -40q22 0 40 8t42 25l55 -71q-64 -61 -143 -61q-102 0 -158.5 69.5t-56.5 205.5q0 88 26 152t74.5 97.5t112.5 33.5q43 0 78 -14.5z" />
    <glyph glyph-name="d" unicode="d" horiz-adv-x="496" 
d="M439 741v-741h-109l-6 61q-47 -76 -121 -76q-82 0 -125.5 73.5t-43.5 205.5q0 84 22.5 147.5t62.5 97.5t92 34q64 0 105 -53v264zM279.5 94q18.5 16 36.5 46v257q-32 54 -73 54q-81 0 -81 -186q0 -101 20 -144t56 -43q23 0 41.5 16z" />
    <glyph glyph-name="e" unicode="e" horiz-adv-x="463" 
d="M431 226h-273q4 -82 28.5 -114.5t69.5 -32.5q31 0 56 10.5t54 33.5l51 -70q-70 -68 -168 -68q-104 0 -159.5 72t-55.5 203t53 207t150 76q93 0 145 -67.5t52 -198.5q0 -9 -3 -51zM314 313q0 75 -18 109.5t-58 34.5q-37 0 -56.5 -33.5t-23.5 -117.5h156v7z" />
    <glyph glyph-name="f" unicode="f" horiz-adv-x="296" 
d="M209.5 646q-13.5 -15 -13.5 -46v-71h101l-14 -89h-87v-440h-123v440h-66v89h66v67q0 72 42 115t120 43q61 0 118 -30l-34 -80q-35 17 -68 17q-28 0 -41.5 -15z" />
    <glyph glyph-name="g" unicode="g" horiz-adv-x="445" 
d="M447 502q-21 -10 -50.5 -14t-73.5 -4q42 -20 62.5 -53.5t20.5 -82.5q0 -80 -49 -129t-133 -49q-25 0 -51 8q-18 -15 -18 -41q0 -20 11 -30t41 -10h56q80 0 127 -41.5t47 -105.5q0 -76 -58.5 -121.5t-166.5 -45.5q-114 0 -159.5 42t-45.5 123h109q0 -43 20 -61t77 -18
q55 0 78 19t23 54q0 34 -19 50t-59 16h-38q-76 0 -111 27t-35 74q0 27 14.5 51.5t39.5 43.5q-41 26 -60 62t-19 88q0 87 52 137.5t140 50.5q65 0 107.5 14t89.5 41zM166 435q-18 -25 -18 -79q0 -51 18 -78.5t52 -27.5q35 0 52 24.5t17 82.5q0 54 -16.5 78.5t-51.5 24.5
t-53 -25z" />
    <glyph glyph-name="h" unicode="h" horiz-adv-x="481" 
d="M394 502q33 -41 33 -110v-392h-123v378q0 38 -10.5 54.5t-30.5 16.5q-42 0 -83 -79v-370h-123v740l123 13v-287q25 39 54.5 58t69.5 19q57 0 90 -41z" />
    <glyph glyph-name="i" unicode="i" horiz-adv-x="237" 
d="M180 529v-529h-123v529h123zM171.5 772q20.5 -21 20.5 -54q0 -32 -20.5 -53t-53.5 -21t-53.5 21t-20.5 53q0 33 20.5 54t53.5 21t53.5 -21z" />
    <glyph glyph-name="j" unicode="j" horiz-adv-x="237" 
d="M180 25q0 -67 -20.5 -112t-57 -74t-92.5 -55l-42 88q32 19 50.5 36t28.5 44.5t10 71.5v505h123v-504zM171.5 772q20.5 -21 20.5 -54q0 -32 -20.5 -53t-53.5 -21t-53.5 21t-20.5 53q0 33 20.5 54t53.5 21t53.5 -21z" />
    <glyph glyph-name="k" unicode="k" horiz-adv-x="453" 
d="M180 754v-754h-123v741zM447 529l-140 -234l152 -295h-132l-142 289l142 240h120z" />
    <glyph glyph-name="l" unicode="l" horiz-adv-x="249" 
d="M83.5 18.5q-31.5 33.5 -31.5 89.5v633l123 13v-641q0 -13 6 -21t18 -8q7 0 13.5 2t8.5 2l24 -84q-34 -19 -76 -19q-54 0 -85.5 33.5z" />
    <glyph glyph-name="m" unicode="m" horiz-adv-x="700" 
d="M615 502q32 -41 32 -110v-392h-121v379q0 38 -10 54.5t-29 16.5q-39 0 -75 -74v-376h-120v379q0 71 -38 71q-41 0 -76 -74v-376h-121v529h107l8 -68q52 82 125 82q37 0 64 -23t41 -65q53 88 128 88q53 0 85 -41z" />
    <glyph glyph-name="n" unicode="n" horiz-adv-x="481" 
d="M394 502q33 -41 33 -110v-392h-123v378q0 38 -10.5 54.5t-30.5 16.5q-42 0 -83 -79v-370h-123v529h107l9 -69q27 42 57.5 62.5t73.5 20.5q57 0 90 -41z" />
    <glyph glyph-name="o" unicode="o" horiz-adv-x="490" 
d="M400.5 473q55.5 -70 55.5 -208q0 -132 -56 -206t-155 -74t-155 72.5t-56 207.5q0 134 56 206t155 72q100 0 155.5 -70zM182 407.5q-20 -42.5 -20 -142.5q0 -101 20 -143.5t63 -42.5t63 42.5t20 143.5t-20 143t-63 42t-63 -42.5z" />
    <glyph glyph-name="p" unicode="p" horiz-adv-x="494" 
d="M419 471.5q40 -71.5 40 -205.5q0 -130 -45.5 -205.5t-126.5 -75.5q-64 0 -107 57v-245l-123 -14v746h109l5 -64q26 40 58 59t72 19q78 0 118 -71.5zM312 122.5q20 43.5 20 142.5q0 104 -17 145t-53 41q-46 0 -82 -66v-256q32 -50 74 -50q38 0 58 43.5z" />
    <glyph glyph-name="q" unicode="q" horiz-adv-x="496" 
d="M439 529v-746l-123 14v256q-42 -68 -114 -68q-80 0 -124 73t-44 206q0 85 22.5 148t62.5 97t93 34q69 0 114 -64l6 50h107zM280 94q19 16 36 48v254q-34 55 -74 55q-36 0 -58 -44.5t-22 -141.5q0 -103 19.5 -145t55.5 -42q24 0 43 16z" />
    <glyph glyph-name="r" unicode="r" horiz-adv-x="331" 
d="M331 535l-20 -118q-20 5 -37 5q-38 0 -60 -33t-34 -98v-291h-123v529h107l9 -92q37 105 117 105q23 0 41 -7z" />
    <glyph glyph-name="s" unicode="s" horiz-adv-x="398" 
d="M363 481l-47 -67q-28 20 -53 30t-51 10q-29 0 -45.5 -15.5t-16.5 -42.5t18.5 -43.5t74.5 -38.5q69 -27 102 -64t33 -99q0 -77 -54 -121.5t-137 -44.5q-54 0 -99.5 19.5t-79.5 54.5l60 66q56 -49 114 -49q33 0 52 17.5t19 48.5q0 23 -8 37.5t-28 27t-60 27.5
q-69 27 -98.5 63t-29.5 92q0 67 47.5 110.5t127.5 43.5q94 0 159 -62z" />
    <glyph glyph-name="t" unicode="t" horiz-adv-x="317" 
d="M323 24q-49 -39 -115 -39q-69 0 -105 39.5t-36 107.5v308h-62v89h62v117l123 15v-132h100l-12 -89h-88v-308q0 -48 41 -48q13 0 23 3.5t26 12.5z" />
    <glyph glyph-name="u" unicode="u" horiz-adv-x="477" 
d="M420 0h-107l-6 67q-25 -41 -56 -61.5t-72 -20.5q-58 0 -91.5 41t-33.5 107v396h123v-389q0 -62 42 -62q24 0 43 18.5t35 52.5v380h123v-529z" />
    <glyph glyph-name="v" unicode="v" horiz-adv-x="427" 
d="M426 529l-138 -529h-145l-142 529h127l87 -430l90 430h121z" />
    <glyph glyph-name="w" unicode="w" horiz-adv-x="625" 
d="M612 529l-91 -529h-150l-59 417l-58 -417h-149l-93 529h119l54 -437l67 437h125l64 -437l57 437h114z" />
    <glyph glyph-name="x" unicode="x" horiz-adv-x="424" 
d="M284 283l143 -283h-130l-88 213l-86 -213h-127l143 279l-129 250h128l73 -184l71 184h124z" />
    <glyph glyph-name="y" unicode="y" horiz-adv-x="431" 
d="M290 -2q-26 -96 -84 -151t-155 -64l-14 87q63 13 94.5 41.5t49.5 88.5h-46l-134 529h125l88 -447l94 447h122z" />
    <glyph glyph-name="z" unicode="z" horiz-adv-x="375" 
d="M356 529v-89l-211 -343h215l-11 -97h-336v89l211 343h-193v97h325z" />
    <glyph glyph-name="braceleft" unicode="{" horiz-adv-x="266" 
d="M244 750q-37 0 -51.5 -14t-14.5 -50v-215q0 -58 -19 -83.5t-64 -38.5q44 -12 64 -37.5t20 -82.5v-215q0 -37 14 -50.5t51 -13.5v-87q-68 0 -107 17t-54.5 50.5t-15.5 87.5v207q0 41 -11.5 57.5t-43.5 16.5v101q31 0 43 17t12 58v207q0 55 15.5 88.5t54 50t107.5 16.5v-87
z" />
    <glyph glyph-name="bar" unicode="|" horiz-adv-x="311" 
d="M213 809v-913h-115v913h115z" />
    <glyph glyph-name="braceright" unicode="}" horiz-adv-x="266" 
d="M129.5 820.5q38.5 -16.5 54.5 -50t16 -88.5v-207q0 -41 11.5 -58t42.5 -17v-101q-31 0 -42.5 -16.5t-11.5 -57.5v-207q0 -54 -16 -87.5t-54.5 -50.5t-107.5 -17v87q38 0 52 13.5t14 50.5v215q0 57 19.5 82t64.5 38q-46 14 -65 39t-19 83v215q0 36 -14 50t-50 14l-2 87
q69 0 107.5 -16.5z" />
    <glyph glyph-name="asciitilde" unicode="~" horiz-adv-x="425" 
d="M237 254q-20 9 -43 25q-18 12 -30 18t-24 6q-17 0 -29.5 -12.5t-28.5 -38.5l-63 34q50 107 127 107q24 0 42 -8.5t43 -24.5q16 -12 28.5 -18t24.5 -6q18 0 31 11.5t27 34.5l64 -33q-49 -104 -124 -104q-25 0 -45 9z" />
    <glyph glyph-name="uni00A0" unicode="&#xa0;" horiz-adv-x="197" 
 />
    <glyph glyph-name="exclamdown" unicode="&#xa1;" horiz-adv-x="220" 
d="M164.5 478q21.5 -23 21.5 -55t-21.5 -55t-54.5 -23t-54.5 23t-21.5 55t21.5 55t54.5 23t54.5 -23zM159 244l17 -450h-130l16 450h97z" />
    <glyph glyph-name="cent" unicode="&#xa2;" horiz-adv-x="396" 
d="M392 46q-50 -48 -111 -58v-146h-89v149q-76 18 -117 86t-41 183q0 113 42.5 185t116.5 91v152h88v-147q64 -11 111 -58l-53 -70q-22 18 -41.5 26.5t-42.5 8.5q-45 0 -68 -42.5t-23 -143.5q0 -98 23.5 -138t67.5 -40q22 0 40 8t42 25z" />
    <glyph glyph-name="sterling" unicode="&#xa3;" horiz-adv-x="444" 
d="M200.5 145.5q-12.5 -27.5 -50.5 -48.5h264l-14 -97h-376v92q31 12 45 26.5t18.5 36.5t4.5 62v100h-55v70h55v111q0 82 46 134.5t128 52.5q53 0 93 -22.5t70 -68.5l-73 -54q-19 27 -36.5 39t-40.5 12q-66 0 -66 -91v-113h154v-70h-154v-95q0 -49 -12.5 -76.5z" />
    <glyph glyph-name="currency" unicode="&#xa4;" 
d="M388 84l-61 76q-42 -30 -99 -30q-53 0 -96 30l-62 -76l-60 53l70 83q-28 51 -28 121q0 68 27 120l-72 87l65 52l61 -77q41 29 95 29q57 0 98 -29l64 77l60 -54l-71 -82q29 -52 29 -123q0 -67 -27 -119l71 -87zM290 245.5q20 30.5 20 96.5q0 67 -20 97t-61 30t-61.5 -30.5
t-20.5 -96.5t20.5 -96.5t61.5 -30.5t61 30.5z" />
    <glyph glyph-name="yen" unicode="&#xa5;" horiz-adv-x="462" 
d="M467 673l-150 -325h85v-71h-109v-81h109v-70h-109v-126h-123v126h-108v70h108v81h-108v71h83l-150 325h125l113 -290l113 290h121z" />
    <glyph glyph-name="brokenbar" unicode="&#xa6;" horiz-adv-x="311" 
d="M213 809v-366h-115v366h115zM213 262v-366h-115v366h115z" />
    <glyph glyph-name="section" unicode="&#xa7;" horiz-adv-x="450" 
d="M374.5 133q11.5 -24 11.5 -56q0 -69 -49 -111.5t-127 -42.5q-93 0 -158 52l43 72q50 -35 108 -35q31 0 49 15t18 44q0 20 -7 32t-28 24.5t-64 29.5q-67 26 -96.5 57.5t-29.5 88.5q0 38 18 69.5t50 53.5q-25 21 -36 46.5t-11 59.5q0 67 48 109.5t125 42.5q88 0 156 -56
l-44 -69q-51 36 -102 36q-33 0 -50 -15.5t-17 -43.5q0 -20 7 -33t27.5 -26t62.5 -30q64 -26 95 -58t31 -85q0 -78 -67 -127q25 -20 36.5 -44zM275 215q24 32 24 69q0 30 -17.5 48t-66.5 39q-30 12 -42 19q-21 -31 -21 -66q0 -33 15 -51t59 -36q45 -20 49 -22z" />
    <glyph glyph-name="dieresis" unicode="&#xa8;" horiz-adv-x="377" 
d="M147.5 762.5q18.5 -19.5 18.5 -47.5q0 -29 -18.5 -48t-46.5 -19t-46.5 19t-18.5 48q0 28 18.5 47.5t46.5 19.5t46.5 -19.5zM334.5 762.5q18.5 -19.5 18.5 -47.5q0 -29 -18.5 -48t-46.5 -19t-46.5 19t-18.5 48q0 28 18.5 47.5t46.5 19.5t46.5 -19.5z" />
    <glyph glyph-name="copyright" unicode="&#xa9;" horiz-adv-x="664" 
d="M472 717q62 -40 98 -113.5t36 -170.5t-36 -170t-98 -112.5t-139 -39.5t-139.5 39.5t-99 112.5t-36.5 170t36.5 170.5t99 113.5t139.5 40t139 -40zM228 660.5q-46 -30.5 -72 -89t-26 -138.5t26 -138t72 -88.5t105 -30.5q58 0 104 30.5t72 88.5t26 138t-26 138.5t-72 89
t-104 30.5q-59 0 -105 -30.5zM440 582l-37 -50q-18 12 -31.5 17.5t-29.5 5.5q-28 0 -45 -28.5t-17 -92.5q0 -119 64 -119q18 0 32 6.5t30 20.5l37 -52q-49 -49 -108 -49q-64 0 -103.5 50t-39.5 143t40 143t106 50q57 0 102 -45z" />
    <glyph glyph-name="ordfeminine" unicode="&#xaa;" horiz-adv-x="419" 
d="M238 527v24q0 31 -12.5 44t-43.5 13q-33 0 -90 -20l-27 74q31 14 66.5 21.5t68.5 7.5q74 0 110 -34t36 -96v-177q0 -16 5.5 -25.5t17.5 -13.5l-23 -75q-66 6 -88 52q-34 -54 -100 -54q-54 0 -86 34.5t-32 89.5q0 65 42.5 100t121.5 35h34zM238 385v78h-27
q-34 0 -47.5 -14.5t-13.5 -47.5q0 -53 38 -53q32 0 50 37zM44 97h335v-95h-335v95z" />
    <glyph glyph-name="guillemotleft" unicode="&#xab;" horiz-adv-x="532" 
d="M193 544l76 -48l-112 -210l112 -210l-76 -49l-153 218v81zM416 544l76 -48l-112 -210l112 -210l-76 -49l-153 218v81z" />
    <glyph glyph-name="logicalnot" unicode="&#xac;" horiz-adv-x="433" 
d="M392 373v-244h-102v149h-249v95h351z" />
    <glyph glyph-name="uni00AD" unicode="&#xad;" horiz-adv-x="344" 
d="M43 264v98h258v-98h-258z" />
    <glyph glyph-name="registered" unicode="&#xae;" horiz-adv-x="523" 
d="M376.5 720q50.5 -33 79 -93t28.5 -138t-28.5 -137.5t-79 -92.5t-114.5 -33q-63 0 -114 33t-80 93t-29 137q0 78 29 138t80 93t114 33q64 0 114.5 -33zM379 337.5q44 54.5 44 151.5t-44.5 152.5t-116.5 55.5t-117 -56t-45 -152t45 -151t117 -55q73 0 117 54.5z
M340.5 502.5q-13.5 -18.5 -34.5 -29.5l60 -117h-65l-46 104h-20v-104h-57v278h68q53 0 80.5 -22t27.5 -64q0 -27 -13.5 -45.5zM235 511h24q17 0 27 9.5t10 28.5q0 37 -38 37h-23v-75z" />
    <glyph glyph-name="macron" unicode="&#xaf;" horiz-adv-x="306" 
d="M281 663h-246v85h246v-85z" />
    <glyph glyph-name="degree" unicode="&#xb0;" horiz-adv-x="427" 
d="M107 395q-33 19 -53 56.5t-20 90.5q0 52 20 89t53 55.5t71 18.5q39 0 72 -18.5t53 -55.5t20 -90t-20 -90t-53 -56t-72 -19q-38 0 -71 19zM238 541q0 90 -60 90q-58 0 -58 -89q0 -91 58 -91q60 0 60 90z" />
    <glyph glyph-name="plusminus" unicode="&#xb1;" horiz-adv-x="432" 
d="M45 0v95h341v-95h-341zM267 580v-150h125v-98h-125v-148h-101v148h-125v98h125v150h101z" />
    <glyph glyph-name="uni00B2" unicode="&#xb2;" horiz-adv-x="332" 
d="M254.5 713q34.5 -35 34.5 -87q0 -33 -12.5 -63t-43 -68.5t-90.5 -99.5h154l-10 -74h-241v69q66 74 95.5 111.5t41.5 64t12 55.5q0 25 -11.5 39t-32.5 14q-19 0 -34.5 -9.5t-32.5 -29.5l-51 41q50 72 129 72q58 0 92.5 -35z" />
    <glyph glyph-name="uni00B3" unicode="&#xb3;" horiz-adv-x="332" 
d="M254.5 717.5q32.5 -31.5 32.5 -79.5q0 -76 -83 -95q45 -4 70 -29.5t25 -72.5q0 -56 -37.5 -93.5t-104.5 -37.5q-79 0 -128 64l48 45q20 -19 37 -27.5t37 -8.5q24 0 39 17t15 47q0 32 -15.5 46t-45.5 14h-28l11 66h18q53 0 53 54q0 25 -12.5 39t-35.5 14q-32 0 -71 -34
l-43 47q53 56 127 56q59 0 91.5 -31.5z" />
    <glyph glyph-name="acute" unicode="&#xb4;" horiz-adv-x="285" 
d="M210 812l50 -91l-191 -90l-34 60z" />
    <glyph glyph-name="uni00B5" unicode="&#xb5;" horiz-adv-x="482" 
d="M329 -14q-8 22 -11.5 39.5t-8.5 50.5q-18 -39 -42 -62.5t-54 -23.5q-22 0 -38.5 11t-31.5 36q16 -33 23 -64t7 -80v-97l-116 -12v745h123v-375q0 -69 44 -69q45 0 74 76v368h123v-348q0 -97 20 -181z" />
    <glyph glyph-name="paragraph" unicode="&#xb6;" horiz-adv-x="641" 
d="M545 691v-894l-108 -15v820h-79v-805l-107 -15v491q-95 4 -145 61.5t-50 148.5q0 99 56.5 153.5t161.5 54.5h271z" />
    <glyph glyph-name="periodcentered" unicode="&#xb7;" horiz-adv-x="215" 
d="M162 363q21 -23 21 -55t-21 -55t-55 -23q-33 0 -54.5 23t-21.5 55t21.5 55t54.5 23q34 0 55 -23z" />
    <glyph glyph-name="cedilla" unicode="&#xb8;" horiz-adv-x="269" 
d="M160 -56q84 -14 84 -90q0 -48 -32.5 -76t-86.5 -28q-52 0 -90 26l30 57q26 -12 52 -12q37 0 37 34q0 20 -17.5 29.5t-57.5 9.5l13 122h68v-72z" />
    <glyph glyph-name="uni00B9" unicode="&#xb9;" horiz-adv-x="332" 
d="M243 740v-419h-91v327l-75 -53l-42 59l125 86h83z" />
    <glyph glyph-name="ordmasculine" unicode="&#xba;" horiz-adv-x="418" 
d="M336.5 637.5q45.5 -53.5 45.5 -158.5q0 -101 -45.5 -156t-126.5 -55q-82 0 -128 53.5t-46 158.5q0 101 46 156t127 55q82 0 127.5 -53.5zM163 580.5q-14 -27.5 -14 -100.5q0 -74 14 -101.5t46 -27.5t46.5 28t14.5 100q0 74 -14.5 101.5t-46.5 27.5t-46 -27.5zM39 0v95
h341v-95h-341z" />
    <glyph glyph-name="guillemotright" unicode="&#xbb;" horiz-adv-x="532" 
d="M115 544l154 -218v-81l-154 -218l-75 49l112 210l-112 210zM338 544l154 -218v-81l-154 -218l-75 49l112 210l-112 210z" />
    <glyph glyph-name="onequarter" unicode="&#xbc;" horiz-adv-x="799" 
d="M243 691v-419h-91v327l-75 -53l-42 59l125 86h83zM530 754l74 -31l-335 -804l-74 31zM775 161v-71h-40v-90h-85l-1 90h-158v66l100 272l77 -30l-86 -237h68l17 102h68v-102h40z" />
    <glyph glyph-name="onehalf" unicode="&#xbd;" horiz-adv-x="799" 
d="M243 691v-419h-91v327l-75 -53l-42 59l125 86h83zM530 754l74 -31l-335 -804l-74 31zM721.5 392q34.5 -35 34.5 -87q0 -33 -12.5 -63t-43 -68.5t-90.5 -99.5h154l-10 -74h-241v69q66 74 95.5 111.5t41.5 64t12 55.5q0 25 -11.5 39t-32.5 14q-19 0 -34.5 -9.5t-32.5 -29.5
l-51 41q50 72 129 72q58 0 92.5 -35z" />
    <glyph glyph-name="threequarters" unicode="&#xbe;" horiz-adv-x="799" 
d="M254.5 668.5q32.5 -31.5 32.5 -79.5q0 -76 -83 -95q45 -4 70 -29.5t25 -72.5q0 -56 -37.5 -93.5t-104.5 -37.5q-79 0 -128 64l48 45q20 -19 37 -27.5t37 -8.5q24 0 39 17t15 47q0 32 -15.5 46t-45.5 14h-28l11 66h18q53 0 53 54q0 25 -12.5 39t-35.5 14q-32 0 -71 -34
l-43 47q53 56 127 56q59 0 91.5 -31.5zM530 754l74 -31l-335 -804l-74 31zM775 161v-71h-40v-90h-85l-1 90h-158v66l100 272l77 -30l-86 -237h68l17 102h68v-102h40z" />
    <glyph glyph-name="questiondown" unicode="&#xbf;" horiz-adv-x="404" 
d="M166.5 367.5q-21.5 22.5 -21.5 55.5q0 32 21.5 54.5t55.5 22.5q33 0 54 -22.5t21 -54.5q0 -33 -20.5 -55.5t-54.5 -22.5t-55.5 22.5zM100 -197.5q-40 22.5 -60.5 59.5t-20.5 79q0 54 20.5 85.5t59.5 64.5q35 31 51.5 55.5t16.5 64.5v30h113v-36q0 -43 -11 -72.5t-27 -48
t-41 -39.5q-29 -25 -43 -45.5t-14 -53.5t17.5 -50.5t47.5 -17.5q27 0 51.5 15t50.5 47l74 -57q-72 -103 -188 -103q-57 0 -97 22.5z" />
    <glyph glyph-name="Agrave" unicode="&#xc0;" horiz-adv-x="497" 
d="M370 0l-34 162h-178l-33 -162h-127l174 691h154l173 -691h-129zM178 258h139l-70 336zM181 928l177 -113l-32 -62l-193 82z" />
    <glyph glyph-name="Aacute" unicode="&#xc1;" horiz-adv-x="497" 
d="M370 0l-34 162h-178l-33 -162h-127l174 691h154l173 -691h-129zM178 258h139l-70 336zM312 929l49 -94l-193 -82l-32 62z" />
    <glyph glyph-name="Acircumflex" unicode="&#xc2;" horiz-adv-x="497" 
d="M370 0l-34 162h-178l-33 -162h-127l174 691h154l173 -691h-129zM178 258h139l-70 336zM140 760l-44 47l115 123h75l115 -123l-45 -47l-107 82z" />
    <glyph glyph-name="Atilde" unicode="&#xc3;" horiz-adv-x="497" 
d="M370 0l-34 162h-178l-33 -162h-127l174 691h154l173 -691h-129zM178 258h139l-70 336zM269 782.5q-14 6.5 -30 18.5q-13 9 -20.5 13t-16.5 4q-13 0 -22 -9.5t-22 -32.5l-60 28q16 46 42 73t60 27q17 0 31 -6.5t30 -18.5q12 -9 20 -13.5t17 -4.5q13 0 22.5 10t20.5 32
l61 -28q-16 -48 -42.5 -73.5t-59.5 -25.5q-17 0 -31 6.5z" />
    <glyph glyph-name="Adieresis" unicode="&#xc4;" horiz-adv-x="497" 
d="M370 0l-34 162h-178l-33 -162h-127l174 691h154l173 -691h-129zM178 258h139l-70 336zM207.5 888.5q18.5 -19.5 18.5 -47.5q0 -29 -18.5 -48t-46.5 -19t-46.5 19t-18.5 48q0 28 18.5 47.5t46.5 19.5t46.5 -19.5zM394.5 888.5q18.5 -19.5 18.5 -47.5q0 -29 -18.5 -48
t-46.5 -19t-46.5 19t-18.5 48q0 28 18.5 47.5t46.5 19.5t46.5 -19.5z" />
    <glyph glyph-name="Aring" unicode="&#xc5;" horiz-adv-x="497" 
d="M370 0l-34 162h-178l-33 -162h-127l174 691h154l173 -691h-129zM178 258h139l-70 336zM330 944.5q30 -31.5 30 -85.5t-30 -86t-81 -32t-81 32t-30 86t30 85.5t81 31.5t81 -31.5zM220.5 901.5q-9.5 -12.5 -9.5 -42.5t9.5 -43t28.5 -13t29 13t10 43t-10 42.5t-29 12.5
t-28.5 -12.5z" />
    <glyph glyph-name="AE" unicode="&#xc6;" horiz-adv-x="690" 
d="M474 96h189v-96h-296l-23 162h-182l-45 -162h-133l223 691h424l-13 -95h-225l32 -199h199v-94h-184zM188 257h142l-49 338z" />
    <glyph glyph-name="Ccedilla" unicode="&#xc7;" horiz-adv-x="476" 
d="M403 15q-38 -22 -84 -28v-43q84 -14 84 -90q0 -48 -32.5 -76t-86.5 -28q-52 0 -90 26l30 57q26 -12 52 -12q37 0 37 34q0 20 -17.5 29.5t-57.5 9.5l10 94q-99 16 -156 106t-57 253q0 119 33 199t90.5 119.5t131.5 39.5q53 0 93.5 -17.5t78.5 -53.5l-61 -73
q-26 24 -50.5 35.5t-53.5 11.5q-60 0 -94 -60t-34 -201q0 -139 34 -199.5t96 -60.5q31 0 54 12.5t54 38.5l61 -70q-27 -31 -65 -53z" />
    <glyph glyph-name="Egrave" unicode="&#xc8;" horiz-adv-x="433" 
d="M403 691l-13 -95h-203v-198h177v-94h-177v-208h216v-96h-343v691h343zM165 928l177 -113l-32 -62l-193 82z" />
    <glyph glyph-name="Eacute" unicode="&#xc9;" horiz-adv-x="433" 
d="M403 691l-13 -95h-203v-198h177v-94h-177v-208h216v-96h-343v691h343zM296 929l49 -94l-193 -82l-32 62z" />
    <glyph glyph-name="Ecircumflex" unicode="&#xca;" horiz-adv-x="433" 
d="M403 691l-13 -95h-203v-198h177v-94h-177v-208h216v-96h-343v691h343zM124 760l-44 47l115 123h75l115 -123l-45 -47l-107 82z" />
    <glyph glyph-name="Edieresis" unicode="&#xcb;" horiz-adv-x="433" 
d="M403 691l-13 -95h-203v-198h177v-94h-177v-208h216v-96h-343v691h343zM191.5 888.5q18.5 -19.5 18.5 -47.5q0 -29 -18.5 -48t-46.5 -19t-46.5 19t-18.5 48q0 28 18.5 47.5t46.5 19.5t46.5 -19.5zM378.5 888.5q18.5 -19.5 18.5 -47.5q0 -29 -18.5 -48t-46.5 -19t-46.5 19
t-18.5 48q0 28 18.5 47.5t46.5 19.5t46.5 -19.5z" />
    <glyph glyph-name="Igrave" unicode="&#xcc;" horiz-adv-x="247" 
d="M187 691v-691h-127v691h127zM55 928l177 -113l-32 -62l-193 82z" />
    <glyph glyph-name="Iacute" unicode="&#xcd;" horiz-adv-x="247" 
d="M187 691v-691h-127v691h127zM186 929l49 -94l-193 -82l-32 62z" />
    <glyph glyph-name="Icircumflex" unicode="&#xce;" horiz-adv-x="247" 
d="M187 691v-691h-127v691h127zM14 760l-44 47l115 123h75l115 -123l-45 -47l-107 82z" />
    <glyph glyph-name="Idieresis" unicode="&#xcf;" horiz-adv-x="247" 
d="M187 691v-691h-127v691h127zM81.5 888.5q18.5 -19.5 18.5 -47.5q0 -29 -18.5 -48t-46.5 -19t-46.5 19t-18.5 48q0 28 18.5 47.5t46.5 19.5t46.5 -19.5zM268.5 888.5q18.5 -19.5 18.5 -47.5q0 -29 -18.5 -48t-46.5 -19t-46.5 19t-18.5 48q0 28 18.5 47.5t46.5 19.5
t46.5 -19.5z" />
    <glyph glyph-name="Eth" unicode="&#xd0;" horiz-adv-x="559" 
d="M380.5 664.5q63.5 -26.5 103 -102t39.5 -213.5q0 -195 -77.5 -272t-202.5 -77h-167v311h-59v84h59v296h154q87 0 150.5 -26.5zM325.5 116q30.5 21 48 77t17.5 156q0 102 -18.5 156t-49 72.5t-74.5 18.5h-46v-201h97v-84h-97v-216h47q45 0 75.5 21z" />
    <glyph glyph-name="Ntilde" unicode="&#xd1;" horiz-adv-x="552" 
d="M492 0h-162l-175 566q8 -72 12.5 -132.5t4.5 -143.5v-290h-112v691h161l175 -566q-6 36 -11.5 102t-5.5 134v330h113v-691zM300 782.5q-14 6.5 -30 18.5q-13 9 -20.5 13t-16.5 4q-13 0 -22 -9.5t-22 -32.5l-60 28q16 46 42 73t60 27q17 0 31 -6.5t30 -18.5
q12 -9 20 -13.5t17 -4.5q13 0 22.5 10t20.5 32l61 -28q-16 -48 -42.5 -73.5t-59.5 -25.5q-17 0 -31 6.5z" />
    <glyph glyph-name="Ograve" unicode="&#xd2;" horiz-adv-x="578" 
d="M477 616q66 -89 66 -270q0 -179 -66 -270t-188 -91q-121 0 -187.5 90t-66.5 270q0 178 66.5 269t187.5 91q122 0 188 -89zM198.5 548q-29.5 -61 -29.5 -203q0 -143 30 -202.5t90 -59.5q62 0 91.5 59t29.5 204q0 142 -30 202.5t-91 60.5t-90.5 -61zM221 928l177 -113
l-32 -62l-193 82z" />
    <glyph glyph-name="Oacute" unicode="&#xd3;" horiz-adv-x="578" 
d="M477 616q66 -89 66 -270q0 -179 -66 -270t-188 -91q-121 0 -187.5 90t-66.5 270q0 178 66.5 269t187.5 91q122 0 188 -89zM198.5 548q-29.5 -61 -29.5 -203q0 -143 30 -202.5t90 -59.5q62 0 91.5 59t29.5 204q0 142 -30 202.5t-91 60.5t-90.5 -61zM352 929l49 -94
l-193 -82l-32 62z" />
    <glyph glyph-name="Ocircumflex" unicode="&#xd4;" horiz-adv-x="578" 
d="M477 616q66 -89 66 -270q0 -179 -66 -270t-188 -91q-121 0 -187.5 90t-66.5 270q0 178 66.5 269t187.5 91q122 0 188 -89zM198.5 548q-29.5 -61 -29.5 -203q0 -143 30 -202.5t90 -59.5q62 0 91.5 59t29.5 204q0 142 -30 202.5t-91 60.5t-90.5 -61zM180 760l-44 47
l115 123h75l115 -123l-45 -47l-107 82z" />
    <glyph glyph-name="Otilde" unicode="&#xd5;" horiz-adv-x="578" 
d="M477 616q66 -89 66 -270q0 -179 -66 -270t-188 -91q-121 0 -187.5 90t-66.5 270q0 178 66.5 269t187.5 91q122 0 188 -89zM198.5 548q-29.5 -61 -29.5 -203q0 -143 30 -202.5t90 -59.5q62 0 91.5 59t29.5 204q0 142 -30 202.5t-91 60.5t-90.5 -61zM309 782.5
q-14 6.5 -30 18.5q-13 9 -20.5 13t-16.5 4q-13 0 -22 -9.5t-22 -32.5l-60 28q16 46 42 73t60 27q17 0 31 -6.5t30 -18.5q12 -9 20 -13.5t17 -4.5q13 0 22.5 10t20.5 32l61 -28q-16 -48 -42.5 -73.5t-59.5 -25.5q-17 0 -31 6.5z" />
    <glyph glyph-name="Odieresis" unicode="&#xd6;" horiz-adv-x="578" 
d="M477 616q66 -89 66 -270q0 -179 -66 -270t-188 -91q-121 0 -187.5 90t-66.5 270q0 178 66.5 269t187.5 91q122 0 188 -89zM198.5 548q-29.5 -61 -29.5 -203q0 -143 30 -202.5t90 -59.5q62 0 91.5 59t29.5 204q0 142 -30 202.5t-91 60.5t-90.5 -61zM247.5 888.5
q18.5 -19.5 18.5 -47.5q0 -29 -18.5 -48t-46.5 -19t-46.5 19t-18.5 48q0 28 18.5 47.5t46.5 19.5t46.5 -19.5zM434.5 888.5q18.5 -19.5 18.5 -47.5q0 -29 -18.5 -48t-46.5 -19t-46.5 19t-18.5 48q0 28 18.5 47.5t46.5 19.5t46.5 -19.5z" />
    <glyph glyph-name="multiply" unicode="&#xd7;" horiz-adv-x="423" 
d="M309 497l74 -59l-105 -131l105 -132l-74 -58l-98 127l-96 -127l-75 58l105 132l-105 131l75 59l96 -128z" />
    <glyph glyph-name="Oslash" unicode="&#xd8;" horiz-adv-x="578" 
d="M543 346q0 -179 -66 -269.5t-188 -90.5q-20 0 -40 3l-29 -119l-96 25l32 127q-121 80 -121 323q0 178 66.5 269t187.5 91q21 0 40 -3l30 121l96 -26l-34 -128q122 -80 122 -323zM193.5 549.5q-30.5 -60.5 -30.5 -204.5q0 -90 10.5 -145t31.5 -82l112 489q-13 3 -28 3
q-65 0 -95.5 -60.5zM404 492q-10 52 -31 80l-111 -489q16 -2 27 -2q44 0 71.5 26t40.5 86.5t13 164.5q0 82 -10 134z" />
    <glyph glyph-name="Ugrave" unicode="&#xd9;" horiz-adv-x="537" 
d="M487 194q0 -91 -56.5 -149.5t-161.5 -58.5q-107 0 -163 57.5t-56 150.5v497h127v-491q0 -58 22 -86.5t70 -28.5q47 0 69 28.5t22 86.5v491h127v-497zM200 928l177 -113l-32 -62l-193 82z" />
    <glyph glyph-name="Uacute" unicode="&#xda;" horiz-adv-x="537" 
d="M487 194q0 -91 -56.5 -149.5t-161.5 -58.5q-107 0 -163 57.5t-56 150.5v497h127v-491q0 -58 22 -86.5t70 -28.5q47 0 69 28.5t22 86.5v491h127v-497zM331 929l49 -94l-193 -82l-32 62z" />
    <glyph glyph-name="Ucircumflex" unicode="&#xdb;" horiz-adv-x="537" 
d="M487 194q0 -91 -56.5 -149.5t-161.5 -58.5q-107 0 -163 57.5t-56 150.5v497h127v-491q0 -58 22 -86.5t70 -28.5q47 0 69 28.5t22 86.5v491h127v-497zM159 760l-44 47l115 123h75l115 -123l-45 -47l-107 82z" />
    <glyph glyph-name="Udieresis" unicode="&#xdc;" horiz-adv-x="537" 
d="M487 194q0 -91 -56.5 -149.5t-161.5 -58.5q-107 0 -163 57.5t-56 150.5v497h127v-491q0 -58 22 -86.5t70 -28.5q47 0 69 28.5t22 86.5v491h127v-497zM226.5 888.5q18.5 -19.5 18.5 -47.5q0 -29 -18.5 -48t-46.5 -19t-46.5 19t-18.5 48q0 28 18.5 47.5t46.5 19.5
t46.5 -19.5zM413.5 888.5q18.5 -19.5 18.5 -47.5q0 -29 -18.5 -48t-46.5 -19t-46.5 19t-18.5 48q0 28 18.5 47.5t46.5 19.5t46.5 -19.5z" />
    <glyph glyph-name="Yacute" unicode="&#xdd;" horiz-adv-x="482" 
d="M487 691l-182 -428v-263h-128v262l-182 429h135l113 -325l114 325h130zM304 929l49 -94l-193 -82l-32 62z" />
    <glyph glyph-name="Thorn" unicode="&#xde;" horiz-adv-x="489" 
d="M410 521q64 -56 64 -166q0 -118 -63 -176t-177 -58h-47v-121h-127v691h127v-114h39q120 0 184 -56zM315.5 247.5q29.5 31.5 29.5 107.5q0 68 -30 98.5t-92 30.5h-36v-268h37q62 0 91.5 31.5z" />
    <glyph glyph-name="germandbls" unicode="&#xdf;" horiz-adv-x="500" 
d="M336.5 734.5q37.5 -19.5 57.5 -52t20 -72.5q0 -37 -12 -61.5t-34 -51.5q-16 -20 -24 -35t-8 -33q0 -21 12 -37t40 -43q29 -27 48 -49.5t32.5 -57t13.5 -79.5q0 -54 -21 -94.5t-58 -62t-82 -21.5q-56 0 -96 25l37 81q18 -9 40 -9q25 0 40.5 21t15.5 62q0 40 -16.5 67.5
t-48.5 61.5q-32 33 -47.5 58t-15.5 62q0 27 8.5 46.5t26.5 43.5q18 26 27 45.5t9 48.5q0 32 -15 49t-41 17q-32 0 -48.5 -24.5t-16.5 -71.5v-568h-123v563q0 85 51 138t139 53q52 0 89.5 -19.5z" />
    <glyph glyph-name="agrave" unicode="&#xe0;" horiz-adv-x="454" 
d="M402 89.5q7 -12.5 23 -20.5l-25 -82q-41 5 -65.5 22t-36.5 52q-46 -76 -129 -76q-66 0 -105 44.5t-39 118.5q0 86 53.5 131t155.5 45h41v37q0 50 -17.5 70.5t-56.5 20.5q-47 0 -117 -26l-28 80q40 18 83 27.5t82 9.5q174 0 174 -176v-239q0 -26 7 -38.5zM275 140v111h-29
q-51 0 -74.5 -23t-23.5 -71q0 -41 14 -62t40 -21q48 0 73 66zM166 812l175 -121l-34 -60l-191 90z" />
    <glyph glyph-name="aacute" unicode="&#xe1;" horiz-adv-x="454" 
d="M402 89.5q7 -12.5 23 -20.5l-25 -82q-41 5 -65.5 22t-36.5 52q-46 -76 -129 -76q-66 0 -105 44.5t-39 118.5q0 86 53.5 131t155.5 45h41v37q0 50 -17.5 70.5t-56.5 20.5q-47 0 -117 -26l-28 80q40 18 83 27.5t82 9.5q174 0 174 -176v-239q0 -26 7 -38.5zM275 140v111h-29
q-51 0 -74.5 -23t-23.5 -71q0 -41 14 -62t40 -21q48 0 73 66zM278 812l50 -91l-191 -90l-34 60z" />
    <glyph glyph-name="acircumflex" unicode="&#xe2;" horiz-adv-x="454" 
d="M402 89.5q7 -12.5 23 -20.5l-25 -82q-41 5 -65.5 22t-36.5 52q-46 -76 -129 -76q-66 0 -105 44.5t-39 118.5q0 86 53.5 131t155.5 45h41v37q0 50 -17.5 70.5t-56.5 20.5q-47 0 -117 -26l-28 80q40 18 83 27.5t82 9.5q174 0 174 -176v-239q0 -26 7 -38.5zM275 140v111h-29
q-51 0 -74.5 -23t-23.5 -71q0 -41 14 -62t40 -21q48 0 73 66zM112 631l-44 47l115 128h75l115 -128l-45 -47l-107 88z" />
    <glyph glyph-name="atilde" unicode="&#xe3;" horiz-adv-x="454" 
d="M402 89.5q7 -12.5 23 -20.5l-25 -82q-41 5 -65.5 22t-36.5 52q-46 -76 -129 -76q-66 0 -105 44.5t-39 118.5q0 86 53.5 131t155.5 45h41v37q0 50 -17.5 70.5t-56.5 20.5q-47 0 -117 -26l-28 80q40 18 83 27.5t82 9.5q174 0 174 -176v-239q0 -26 7 -38.5zM275 140v111h-29
q-51 0 -74.5 -23t-23.5 -71q0 -41 14 -62t40 -21q48 0 73 66zM240 656.5q-14 6.5 -30 18.5q-13 9 -20.5 13t-16.5 4q-13 0 -22 -9.5t-22 -32.5l-60 28q16 46 42 73t60 27q17 0 31 -6.5t30 -18.5q12 -9 20 -13.5t17 -4.5q13 0 22.5 10t20.5 32l61 -28q-16 -48 -42.5 -73.5
t-59.5 -25.5q-17 0 -31 6.5z" />
    <glyph glyph-name="adieresis" unicode="&#xe4;" horiz-adv-x="454" 
d="M402 89.5q7 -12.5 23 -20.5l-25 -82q-41 5 -65.5 22t-36.5 52q-46 -76 -129 -76q-66 0 -105 44.5t-39 118.5q0 86 53.5 131t155.5 45h41v37q0 50 -17.5 70.5t-56.5 20.5q-47 0 -117 -26l-28 80q40 18 83 27.5t82 9.5q174 0 174 -176v-239q0 -26 7 -38.5zM275 140v111h-29
q-51 0 -74.5 -23t-23.5 -71q0 -41 14 -62t40 -21q48 0 73 66zM173.5 762.5q18.5 -19.5 18.5 -47.5q0 -29 -18.5 -48t-46.5 -19t-46.5 19t-18.5 48q0 28 18.5 47.5t46.5 19.5t46.5 -19.5zM360.5 762.5q18.5 -19.5 18.5 -47.5q0 -29 -18.5 -48t-46.5 -19t-46.5 19t-18.5 48
q0 28 18.5 47.5t46.5 19.5t46.5 -19.5z" />
    <glyph glyph-name="aring" unicode="&#xe5;" horiz-adv-x="454" 
d="M402 89.5q7 -12.5 23 -20.5l-25 -82q-41 5 -65.5 22t-36.5 52q-46 -76 -129 -76q-66 0 -105 44.5t-39 118.5q0 86 53.5 131t155.5 45h41v37q0 50 -17.5 70.5t-56.5 20.5q-47 0 -117 -26l-28 80q40 18 83 27.5t82 9.5q174 0 174 -176v-239q0 -26 7 -38.5zM275 140v111h-29
q-51 0 -74.5 -23t-23.5 -71q0 -41 14 -62t40 -21q48 0 73 66zM302 818.5q30 -31.5 30 -85.5t-30 -86t-81 -32t-81 32t-30 86t30 85.5t81 31.5t81 -31.5zM192.5 775.5q-9.5 -12.5 -9.5 -42.5t9.5 -43t28.5 -13t29 13t10 43t-10 42.5t-29 12.5t-28.5 -12.5z" />
    <glyph glyph-name="ae" unicode="&#xe6;" horiz-adv-x="708" 
d="M676 226h-272q5 -79 31 -113t71 -34q27 0 51.5 10.5t52.5 33.5l52 -68q-72 -70 -167 -70q-57 0 -99.5 23.5t-70.5 67.5q-57 -91 -149 -91q-69 0 -110 45t-41 118q0 83 55 128t158 45h41v35q0 53 -17 74.5t-58 21.5q-45 0 -115 -27l-28 81q85 37 162 37q50 0 81.5 -18
t49.5 -53q53 71 138 71q87 0 136.5 -68t49.5 -198q0 -23 -2 -51zM560 313q0 74 -18.5 109t-56.5 35q-37 0 -57 -35.5t-24 -115.5h156v7zM254.5 94q20.5 19 38.5 59q-11 44 -12 94v1h-30q-99 0 -99 -93q0 -80 56 -80q26 0 46.5 19z" />
    <glyph glyph-name="ccedilla" unicode="&#xe7;" horiz-adv-x="396" 
d="M269 -14v-42q84 -14 84 -90q0 -48 -32.5 -76t-86.5 -28q-52 0 -90 26l30 57q26 -12 52 -12q37 0 37 34q0 20 -17.5 29.5t-57.5 9.5l10 96q-79 16 -121.5 84t-42.5 186q0 88 26 152t74.5 97.5t112.5 33.5q43 0 78 -14.5t67 -45.5l-53 -70q-22 18 -41.5 26.5t-42.5 8.5
q-45 0 -68 -42.5t-23 -143.5q0 -98 23.5 -138t67.5 -40q22 0 40 8t42 25l55 -71q-54 -53 -123 -60z" />
    <glyph glyph-name="egrave" unicode="&#xe8;" horiz-adv-x="463" 
d="M431 226h-273q4 -82 28.5 -114.5t69.5 -32.5q31 0 56 10.5t54 33.5l51 -70q-70 -68 -168 -68q-104 0 -159.5 72t-55.5 203t53 207t150 76q93 0 145 -67.5t52 -198.5q0 -9 -3 -51zM314 313q0 75 -18 109.5t-58 34.5q-37 0 -56.5 -33.5t-23.5 -117.5h156v7zM182 812
l175 -121l-34 -60l-191 90z" />
    <glyph glyph-name="eacute" unicode="&#xe9;" horiz-adv-x="463" 
d="M431 226h-273q4 -82 28.5 -114.5t69.5 -32.5q31 0 56 10.5t54 33.5l51 -70q-70 -68 -168 -68q-104 0 -159.5 72t-55.5 203t53 207t150 76q93 0 145 -67.5t52 -198.5q0 -9 -3 -51zM314 313q0 75 -18 109.5t-58 34.5q-37 0 -56.5 -33.5t-23.5 -117.5h156v7zM294 812l50 -91
l-191 -90l-34 60z" />
    <glyph glyph-name="ecircumflex" unicode="&#xea;" horiz-adv-x="463" 
d="M431 226h-273q4 -82 28.5 -114.5t69.5 -32.5q31 0 56 10.5t54 33.5l51 -70q-70 -68 -168 -68q-104 0 -159.5 72t-55.5 203t53 207t150 76q93 0 145 -67.5t52 -198.5q0 -9 -3 -51zM314 313q0 75 -18 109.5t-58 34.5q-37 0 -56.5 -33.5t-23.5 -117.5h156v7zM128 631l-44 47
l115 128h75l115 -128l-45 -47l-107 88z" />
    <glyph glyph-name="edieresis" unicode="&#xeb;" horiz-adv-x="463" 
d="M431 226h-273q4 -82 28.5 -114.5t69.5 -32.5q31 0 56 10.5t54 33.5l51 -70q-70 -68 -168 -68q-104 0 -159.5 72t-55.5 203t53 207t150 76q93 0 145 -67.5t52 -198.5q0 -9 -3 -51zM314 313q0 75 -18 109.5t-58 34.5q-37 0 -56.5 -33.5t-23.5 -117.5h156v7zM189.5 762.5
q18.5 -19.5 18.5 -47.5q0 -29 -18.5 -48t-46.5 -19t-46.5 19t-18.5 48q0 28 18.5 47.5t46.5 19.5t46.5 -19.5zM376.5 762.5q18.5 -19.5 18.5 -47.5q0 -29 -18.5 -48t-46.5 -19t-46.5 19t-18.5 48q0 28 18.5 47.5t46.5 19.5t46.5 -19.5z" />
    <glyph glyph-name="igrave" unicode="&#xec;" horiz-adv-x="237" 
d="M180 529v-529h-123v529h123zM64 812l175 -121l-34 -60l-191 90z" />
    <glyph glyph-name="iacute" unicode="&#xed;" horiz-adv-x="237" 
d="M180 529v-529h-123v529h123zM176 812l50 -91l-191 -90l-34 60z" />
    <glyph glyph-name="icircumflex" unicode="&#xee;" horiz-adv-x="237" 
d="M180 529v-529h-123v529h123zM10 631l-44 47l115 128h75l115 -128l-45 -47l-107 88z" />
    <glyph glyph-name="idieresis" unicode="&#xef;" horiz-adv-x="237" 
d="M180 529v-529h-123v529h123zM71.5 762.5q18.5 -19.5 18.5 -47.5q0 -29 -18.5 -48t-46.5 -19t-46.5 19t-18.5 48q0 28 18.5 47.5t46.5 19.5t46.5 -19.5zM258.5 762.5q18.5 -19.5 18.5 -47.5q0 -29 -18.5 -48t-46.5 -19t-46.5 19t-18.5 48q0 28 18.5 47.5t46.5 19.5
t46.5 -19.5z" />
    <glyph glyph-name="eth" unicode="&#xf0;" horiz-adv-x="486" 
d="M411.5 502q34.5 -96 34.5 -230q0 -132 -55 -209t-154 -77q-59 0 -104.5 28.5t-72 84t-26.5 135.5q0 70 22 125t60.5 86t86.5 31q67 0 112 -51q-12 58 -31 98.5t-55 74.5l-54 -65l-76 38l61 72q-42 17 -82 28l22 82q64 -14 124 -42l59 75l69 -51l-55 -69
q80 -68 114.5 -164zM301 120.5q21 42.5 21 135.5q0 51 -1 72q-33 59 -84 59q-41 0 -60 -37.5t-19 -112.5q0 -85 20.5 -122t60.5 -37q41 0 62 42.5z" />
    <glyph glyph-name="ntilde" unicode="&#xf1;" horiz-adv-x="481" 
d="M394 502q33 -41 33 -110v-392h-123v378q0 38 -10.5 54.5t-30.5 16.5q-42 0 -83 -79v-370h-123v529h107l9 -69q27 42 57.5 62.5t73.5 20.5q57 0 90 -41zM263 656.5q-14 6.5 -30 18.5q-13 9 -20.5 13t-16.5 4q-13 0 -22 -9.5t-22 -32.5l-60 28q16 46 42 73t60 27
q17 0 31 -6.5t30 -18.5q12 -9 20 -13.5t17 -4.5q13 0 22.5 10t20.5 32l61 -28q-16 -48 -42.5 -73.5t-59.5 -25.5q-17 0 -31 6.5z" />
    <glyph glyph-name="ograve" unicode="&#xf2;" horiz-adv-x="490" 
d="M400.5 473q55.5 -70 55.5 -208q0 -132 -56 -206t-155 -74t-155 72.5t-56 207.5q0 134 56 206t155 72q100 0 155.5 -70zM182 407.5q-20 -42.5 -20 -142.5q0 -101 20 -143.5t63 -42.5t63 42.5t20 143.5t-20 143t-63 42t-63 -42.5zM190 812l175 -121l-34 -60l-191 90z" />
    <glyph glyph-name="oacute" unicode="&#xf3;" horiz-adv-x="490" 
d="M400.5 473q55.5 -70 55.5 -208q0 -132 -56 -206t-155 -74t-155 72.5t-56 207.5q0 134 56 206t155 72q100 0 155.5 -70zM182 407.5q-20 -42.5 -20 -142.5q0 -101 20 -143.5t63 -42.5t63 42.5t20 143.5t-20 143t-63 42t-63 -42.5zM302 812l50 -91l-191 -90l-34 60z" />
    <glyph glyph-name="ocircumflex" unicode="&#xf4;" horiz-adv-x="490" 
d="M400.5 473q55.5 -70 55.5 -208q0 -132 -56 -206t-155 -74t-155 72.5t-56 207.5q0 134 56 206t155 72q100 0 155.5 -70zM182 407.5q-20 -42.5 -20 -142.5q0 -101 20 -143.5t63 -42.5t63 42.5t20 143.5t-20 143t-63 42t-63 -42.5zM136 631l-44 47l115 128h75l115 -128
l-45 -47l-107 88z" />
    <glyph glyph-name="otilde" unicode="&#xf5;" horiz-adv-x="490" 
d="M400.5 473q55.5 -70 55.5 -208q0 -132 -56 -206t-155 -74t-155 72.5t-56 207.5q0 134 56 206t155 72q100 0 155.5 -70zM182 407.5q-20 -42.5 -20 -142.5q0 -101 20 -143.5t63 -42.5t63 42.5t20 143.5t-20 143t-63 42t-63 -42.5zM264 656.5q-14 6.5 -30 18.5
q-13 9 -20.5 13t-16.5 4q-13 0 -22 -9.5t-22 -32.5l-60 28q16 46 42 73t60 27q17 0 31 -6.5t30 -18.5q12 -9 20 -13.5t17 -4.5q13 0 22.5 10t20.5 32l61 -28q-16 -48 -42.5 -73.5t-59.5 -25.5q-17 0 -31 6.5z" />
    <glyph glyph-name="odieresis" unicode="&#xf6;" horiz-adv-x="490" 
d="M400.5 473q55.5 -70 55.5 -208q0 -132 -56 -206t-155 -74t-155 72.5t-56 207.5q0 134 56 206t155 72q100 0 155.5 -70zM182 407.5q-20 -42.5 -20 -142.5q0 -101 20 -143.5t63 -42.5t63 42.5t20 143.5t-20 143t-63 42t-63 -42.5zM197.5 762.5q18.5 -19.5 18.5 -47.5
q0 -29 -18.5 -48t-46.5 -19t-46.5 19t-18.5 48q0 28 18.5 47.5t46.5 19.5t46.5 -19.5zM384.5 762.5q18.5 -19.5 18.5 -47.5q0 -29 -18.5 -48t-46.5 -19t-46.5 19t-18.5 48q0 28 18.5 47.5t46.5 19.5t46.5 -19.5z" />
    <glyph glyph-name="divide" unicode="&#xf7;" horiz-adv-x="423" 
d="M266 152q21 -23 21 -55t-21 -55t-55 -23q-33 0 -54.5 23t-21.5 55t21.5 55t54.5 23q34 0 55 -23zM266 620q21 -23 21 -55t-21 -55t-55 -23q-33 0 -54.5 23t-21.5 55t21.5 55t54.5 23q34 0 55 -23zM41 285v95h341v-95h-341z" />
    <glyph glyph-name="oslash" unicode="&#xf8;" horiz-adv-x="490" 
d="M456 265q0 -132 -56 -206t-155 -74q-10 0 -28 2l-31 -119l-91 25l35 127q-46 33 -71 95t-25 150q0 134 56 206t155 72q12 0 30 -2l32 120l90 -26l-36 -126q95 -66 95 -244zM172.5 409.5q-23.5 -42.5 -23.5 -144.5q0 -115 27 -156l86 342q-6 1 -17 1q-49 0 -72.5 -42.5z
M317.5 119.5q23.5 43.5 23.5 145.5q0 114 -27 154l-84 -342q5 -1 15 -1q49 0 72.5 43.5z" />
    <glyph glyph-name="ugrave" unicode="&#xf9;" horiz-adv-x="477" 
d="M420 0h-107l-6 67q-25 -41 -56 -61.5t-72 -20.5q-58 0 -91.5 41t-33.5 107v396h123v-389q0 -62 42 -62q24 0 43 18.5t35 52.5v380h123v-529zM182 812l175 -121l-34 -60l-191 90z" />
    <glyph glyph-name="uacute" unicode="&#xfa;" horiz-adv-x="477" 
d="M420 0h-107l-6 67q-25 -41 -56 -61.5t-72 -20.5q-58 0 -91.5 41t-33.5 107v396h123v-389q0 -62 42 -62q24 0 43 18.5t35 52.5v380h123v-529zM294 812l50 -91l-191 -90l-34 60z" />
    <glyph glyph-name="ucircumflex" unicode="&#xfb;" horiz-adv-x="477" 
d="M420 0h-107l-6 67q-25 -41 -56 -61.5t-72 -20.5q-58 0 -91.5 41t-33.5 107v396h123v-389q0 -62 42 -62q24 0 43 18.5t35 52.5v380h123v-529zM128 631l-44 47l115 128h75l115 -128l-45 -47l-107 88z" />
    <glyph glyph-name="udieresis" unicode="&#xfc;" horiz-adv-x="477" 
d="M420 0h-107l-6 67q-25 -41 -56 -61.5t-72 -20.5q-58 0 -91.5 41t-33.5 107v396h123v-389q0 -62 42 -62q24 0 43 18.5t35 52.5v380h123v-529zM189.5 762.5q18.5 -19.5 18.5 -47.5q0 -29 -18.5 -48t-46.5 -19t-46.5 19t-18.5 48q0 28 18.5 47.5t46.5 19.5t46.5 -19.5z
M376.5 762.5q18.5 -19.5 18.5 -47.5q0 -29 -18.5 -48t-46.5 -19t-46.5 19t-18.5 48q0 28 18.5 47.5t46.5 19.5t46.5 -19.5z" />
    <glyph glyph-name="yacute" unicode="&#xfd;" horiz-adv-x="431" 
d="M290 -2q-26 -96 -84 -151t-155 -64l-14 87q63 13 94.5 41.5t49.5 88.5h-46l-134 529h125l88 -447l94 447h122zM273 812l50 -91l-191 -90l-34 60z" />
    <glyph glyph-name="thorn" unicode="&#xfe;" horiz-adv-x="494" 
d="M419 471.5q40 -71.5 40 -205.5q0 -130 -45.5 -205.5t-126.5 -75.5q-66 0 -107 62v-248l-123 -16v958l123 13v-280q24 36 54 52.5t67 16.5q78 0 118 -71.5zM312 122.5q20 43.5 20 142.5q0 104 -17.5 145t-53.5 41q-45 0 -81 -66v-256q32 -50 74 -50q38 0 58 43.5z" />
    <glyph glyph-name="ydieresis" unicode="&#xff;" horiz-adv-x="431" 
d="M290 -2q-26 -96 -84 -151t-155 -64l-14 87q63 13 94.5 41.5t49.5 88.5h-46l-134 529h125l88 -447l94 447h122zM168.5 762.5q18.5 -19.5 18.5 -47.5q0 -29 -18.5 -48t-46.5 -19t-46.5 19t-18.5 48q0 28 18.5 47.5t46.5 19.5t46.5 -19.5zM355.5 762.5
q18.5 -19.5 18.5 -47.5q0 -29 -18.5 -48t-46.5 -19t-46.5 19t-18.5 48q0 28 18.5 47.5t46.5 19.5t46.5 -19.5z" />
    <glyph glyph-name="Amacron" unicode="&#x100;" horiz-adv-x="497" 
d="M370 0l-34 162h-178l-33 -162h-127l174 691h154l173 -691h-129zM178 258h139l-70 336zM372 789h-246v85h246v-85z" />
    <glyph glyph-name="amacron" unicode="&#x101;" horiz-adv-x="454" 
d="M402 89.5q7 -12.5 23 -20.5l-25 -82q-41 5 -65.5 22t-36.5 52q-46 -76 -129 -76q-66 0 -105 44.5t-39 118.5q0 86 53.5 131t155.5 45h41v37q0 50 -17.5 70.5t-56.5 20.5q-47 0 -117 -26l-28 80q40 18 83 27.5t82 9.5q174 0 174 -176v-239q0 -26 7 -38.5zM275 140v111h-29
q-51 0 -74.5 -23t-23.5 -71q0 -41 14 -62t40 -21q48 0 73 66zM344 663h-246v85h246v-85z" />
    <glyph glyph-name="Abreve" unicode="&#x102;" horiz-adv-x="497" 
d="M370 0l-34 162h-178l-33 -162h-127l174 691h154l173 -691h-129zM178 258h139l-70 336zM152 793q-36 38 -41 103l68 14q16 -67 70 -67q27 0 45 17.5t26 49.5l68 -14q-5 -65 -41 -103t-98 -38q-61 0 -97 38z" />
    <glyph glyph-name="abreve" unicode="&#x103;" horiz-adv-x="454" 
d="M402 89.5q7 -12.5 23 -20.5l-25 -82q-41 5 -65.5 22t-36.5 52q-46 -76 -129 -76q-66 0 -105 44.5t-39 118.5q0 86 53.5 131t155.5 45h41v37q0 50 -17.5 70.5t-56.5 20.5q-47 0 -117 -26l-28 80q40 18 83 27.5t82 9.5q174 0 174 -176v-239q0 -26 7 -38.5zM275 140v111h-29
q-51 0 -74.5 -23t-23.5 -71q0 -41 14 -62t40 -21q48 0 73 66zM123.5 677.5q-35.5 39.5 -40.5 112.5l68 13q15 -78 70 -78q56 0 71 78l68 -13q-5 -73 -41 -112.5t-98 -39.5t-97.5 39.5z" />
    <glyph glyph-name="Aogonek" unicode="&#x104;" horiz-adv-x="497" 
d="M358.5 -54q-20.5 -26 -20.5 -56q0 -47 45 -47q17 0 48 7l-8 -80q-29 -8 -56 -8q-54 0 -87 29t-33 79q0 95 119 150l-30 142h-178l-33 -162h-127l174 691h154l173 -691h-65q-55 -28 -75.5 -54zM178 258h139l-70 336z" />
    <glyph glyph-name="aogonek" unicode="&#x105;" horiz-adv-x="454" 
d="M400 -13h-1v0q-55 -28 -75.5 -54t-20.5 -56q0 -47 45 -47q17 0 48 7l-8 -80q-29 -8 -56 -8q-54 0 -87 29t-33 79t31.5 87t90.5 65q-25 19 -36 52q-46 -76 -129 -76q-66 0 -105 44.5t-39 118.5q0 86 53.5 131t155.5 45h41v37q0 50 -17.5 70.5t-56.5 20.5q-47 0 -117 -26
l-28 80q40 18 83 27.5t82 9.5q174 0 174 -176v-239q0 -26 7 -38.5t23 -20.5zM275 140v111h-29q-51 0 -74.5 -23t-23.5 -71q0 -41 14 -62t40 -21q48 0 73 66z" />
    <glyph glyph-name="Cacute" unicode="&#x106;" horiz-adv-x="476" 
d="M383.5 687.5q40.5 -17.5 78.5 -53.5l-61 -73q-26 24 -50.5 35.5t-53.5 11.5q-60 0 -94 -60t-34 -201q0 -139 34 -199.5t96 -60.5q31 0 54 12.5t54 38.5l61 -70q-32 -36 -77 -59.5t-101 -23.5q-117 0 -186 91t-69 271q0 119 33 199t90.5 119.5t131.5 39.5q53 0 93.5 -17.5
zM358 929l49 -94l-193 -82l-32 62z" />
    <glyph glyph-name="cacute" unicode="&#x107;" horiz-adv-x="396" 
d="M325 528.5q35 -14.5 67 -45.5l-53 -70q-22 18 -41.5 26.5t-42.5 8.5q-45 0 -68 -42.5t-23 -143.5q0 -98 23.5 -138t67.5 -40q22 0 40 8t42 25l55 -71q-64 -61 -143 -61q-102 0 -158.5 69.5t-56.5 205.5q0 88 26 152t74.5 97.5t112.5 33.5q43 0 78 -14.5zM303 812l50 -91
l-191 -90l-34 60z" />
    <glyph glyph-name="Ccircumflex" unicode="&#x108;" horiz-adv-x="476" 
d="M383.5 687.5q40.5 -17.5 78.5 -53.5l-61 -73q-26 24 -50.5 35.5t-53.5 11.5q-60 0 -94 -60t-34 -201q0 -139 34 -199.5t96 -60.5q31 0 54 12.5t54 38.5l61 -70q-32 -36 -77 -59.5t-101 -23.5q-117 0 -186 91t-69 271q0 119 33 199t90.5 119.5t131.5 39.5q53 0 93.5 -17.5
zM186 760l-44 47l115 123h75l115 -123l-45 -47l-107 82z" />
    <glyph glyph-name="ccircumflex" unicode="&#x109;" horiz-adv-x="396" 
d="M325 528.5q35 -14.5 67 -45.5l-53 -70q-22 18 -41.5 26.5t-42.5 8.5q-45 0 -68 -42.5t-23 -143.5q0 -98 23.5 -138t67.5 -40q22 0 40 8t42 25l55 -71q-64 -61 -143 -61q-102 0 -158.5 69.5t-56.5 205.5q0 88 26 152t74.5 97.5t112.5 33.5q43 0 78 -14.5zM137 631l-44 47
l115 128h75l115 -128l-45 -47l-107 88z" />
    <glyph glyph-name="Cdotaccent" unicode="&#x10a;" horiz-adv-x="476" 
d="M383.5 687.5q40.5 -17.5 78.5 -53.5l-61 -73q-26 24 -50.5 35.5t-53.5 11.5q-60 0 -94 -60t-34 -201q0 -139 34 -199.5t96 -60.5q31 0 54 12.5t54 38.5l61 -70q-32 -36 -77 -59.5t-101 -23.5q-117 0 -186 91t-69 271q0 119 33 199t90.5 119.5t131.5 39.5q53 0 93.5 -17.5
zM347.5 898q20.5 -21 20.5 -54q0 -32 -20.5 -53t-53.5 -21t-53.5 21t-20.5 53q0 33 20.5 54t53.5 21t53.5 -21z" />
    <glyph glyph-name="cdotaccent" unicode="&#x10b;" horiz-adv-x="396" 
d="M325 528.5q35 -14.5 67 -45.5l-53 -70q-22 18 -41.5 26.5t-42.5 8.5q-45 0 -68 -42.5t-23 -143.5q0 -98 23.5 -138t67.5 -40q22 0 40 8t42 25l55 -71q-64 -61 -143 -61q-102 0 -158.5 69.5t-56.5 205.5q0 88 26 152t74.5 97.5t112.5 33.5q43 0 78 -14.5zM298.5 772
q20.5 -21 20.5 -54q0 -32 -20.5 -53t-53.5 -21t-53.5 21t-20.5 53q0 33 20.5 54t53.5 21t53.5 -21z" />
    <glyph glyph-name="Ccaron" unicode="&#x10c;" horiz-adv-x="476" 
d="M383.5 687.5q40.5 -17.5 78.5 -53.5l-61 -73q-26 24 -50.5 35.5t-53.5 11.5q-60 0 -94 -60t-34 -201q0 -139 34 -199.5t96 -60.5q31 0 54 12.5t54 38.5l61 -70q-32 -36 -77 -59.5t-101 -23.5q-117 0 -186 91t-69 271q0 119 33 199t90.5 119.5t131.5 39.5q53 0 93.5 -17.5
zM403 922l44 -47l-115 -123h-75l-115 123l45 47l108 -82z" />
    <glyph glyph-name="ccaron" unicode="&#x10d;" horiz-adv-x="396" 
d="M325 528.5q35 -14.5 67 -45.5l-53 -70q-22 18 -41.5 26.5t-42.5 8.5q-45 0 -68 -42.5t-23 -143.5q0 -98 23.5 -138t67.5 -40q22 0 40 8t42 25l55 -71q-64 -61 -143 -61q-102 0 -158.5 69.5t-56.5 205.5q0 88 26 152t74.5 97.5t112.5 33.5q43 0 78 -14.5zM354 796l44 -48
l-115 -128h-75l-115 128l44 48l109 -91z" />
    <glyph glyph-name="Dcaron" unicode="&#x10e;" horiz-adv-x="542" 
d="M364.5 664.5q63.5 -26.5 103 -102t39.5 -213.5q0 -195 -77.5 -272t-202.5 -77h-167v691h154q87 0 150.5 -26.5zM187 596v-501h47q45 0 75.5 21t48 77t17.5 156q0 102 -18.5 156t-49 72.5t-74.5 18.5h-46zM354 922l44 -47l-115 -123h-75l-115 123l45 47l108 -82z" />
    <glyph glyph-name="dcaron" unicode="&#x10f;" horiz-adv-x="559" 
d="M439 741v-741h-109l-6 61q-47 -76 -121 -76q-82 0 -125.5 73.5t-43.5 205.5q0 84 22.5 147.5t62.5 97.5t92 34q64 0 105 -53v264zM279.5 94q18.5 16 36.5 46v257q-32 54 -73 54q-81 0 -81 -186q0 -101 20 -144t56 -43q23 0 41.5 16zM540 542l44 198l-93 14l-19 -201z" />
    <glyph glyph-name="Dcroat" unicode="&#x110;" horiz-adv-x="559" 
d="M380.5 664.5q63.5 -26.5 103 -102t39.5 -213.5q0 -195 -77.5 -272t-202.5 -77h-167v311h-59v84h59v296h154q87 0 150.5 -26.5zM325.5 116q30.5 21 48 77t17.5 156q0 102 -18.5 156t-49 72.5t-74.5 18.5h-46v-201h97v-84h-97v-216h47q45 0 75.5 21z" />
    <glyph glyph-name="dcroat" unicode="&#x111;" horiz-adv-x="500" 
d="M490 682v-80h-51v-602h-109l-6 61q-47 -76 -121 -76q-82 0 -125.5 73.5t-43.5 205.5q0 84 22.5 147.5t62.5 97.5t92 34q64 0 105 -53v112h-114v80h114v72l123 -13v-59h51zM279.5 94q18.5 16 36.5 46v257q-32 54 -73 54q-81 0 -81 -186q0 -101 20 -144t56 -43
q23 0 41.5 16z" />
    <glyph glyph-name="Emacron" unicode="&#x112;" horiz-adv-x="433" 
d="M403 691l-13 -95h-203v-198h177v-94h-177v-208h216v-96h-343v691h343zM356 789h-246v85h246v-85z" />
    <glyph glyph-name="emacron" unicode="&#x113;" horiz-adv-x="463" 
d="M431 226h-273q4 -82 28.5 -114.5t69.5 -32.5q31 0 56 10.5t54 33.5l51 -70q-70 -68 -168 -68q-104 0 -159.5 72t-55.5 203t53 207t150 76q93 0 145 -67.5t52 -198.5q0 -9 -3 -51zM314 313q0 75 -18 109.5t-58 34.5q-37 0 -56.5 -33.5t-23.5 -117.5h156v7zM360 663h-246
v85h246v-85z" />
    <glyph glyph-name="Ebreve" unicode="&#x114;" horiz-adv-x="433" 
d="M403 691l-13 -95h-203v-198h177v-94h-177v-208h216v-96h-343v691h343zM136 793q-36 38 -41 103l68 14q16 -67 70 -67q27 0 45 17.5t26 49.5l68 -14q-5 -65 -41 -103t-98 -38q-61 0 -97 38z" />
    <glyph glyph-name="ebreve" unicode="&#x115;" horiz-adv-x="463" 
d="M431 226h-273q4 -82 28.5 -114.5t69.5 -32.5q31 0 56 10.5t54 33.5l51 -70q-70 -68 -168 -68q-104 0 -159.5 72t-55.5 203t53 207t150 76q93 0 145 -67.5t52 -198.5q0 -9 -3 -51zM314 313q0 75 -18 109.5t-58 34.5q-37 0 -56.5 -33.5t-23.5 -117.5h156v7zM139.5 677.5
q-35.5 39.5 -40.5 112.5l68 13q15 -78 70 -78q56 0 71 78l68 -13q-5 -73 -41 -112.5t-98 -39.5t-97.5 39.5z" />
    <glyph glyph-name="Edotaccent" unicode="&#x116;" horiz-adv-x="433" 
d="M403 691l-13 -95h-203v-198h177v-94h-177v-208h216v-96h-343v691h343zM285.5 898q20.5 -21 20.5 -54q0 -32 -20.5 -53t-53.5 -21t-53.5 21t-20.5 53q0 33 20.5 54t53.5 21t53.5 -21z" />
    <glyph glyph-name="edotaccent" unicode="&#x117;" horiz-adv-x="463" 
d="M431 226h-273q4 -82 28.5 -114.5t69.5 -32.5q31 0 56 10.5t54 33.5l51 -70q-70 -68 -168 -68q-104 0 -159.5 72t-55.5 203t53 207t150 76q93 0 145 -67.5t52 -198.5q0 -9 -3 -51zM314 313q0 75 -18 109.5t-58 34.5q-37 0 -56.5 -33.5t-23.5 -117.5h156v7zM289.5 772
q20.5 -21 20.5 -54q0 -32 -20.5 -53t-53.5 -21t-53.5 21t-20.5 53q0 33 20.5 54t53.5 21t53.5 -21z" />
    <glyph glyph-name="Eogonek" unicode="&#x118;" horiz-adv-x="433" 
d="M187 96h216v-96h-32q-55 -28 -75.5 -54t-20.5 -56q0 -47 45 -47q17 0 48 7l-8 -80q-29 -8 -56 -8q-54 0 -87 29t-33 79q0 79 81 130h-205v691h343l-13 -95h-203v-198h177v-94h-177v-208z" />
    <glyph glyph-name="eogonek" unicode="&#x119;" horiz-adv-x="463" 
d="M431 226h-273q4 -82 28.5 -114.5t69.5 -32.5q31 0 56 10.5t54 33.5l51 -70q-35 -35 -83 -53q-46 -26 -63.5 -50t-17.5 -50q0 -23 11 -35t33 -12q23 0 50 7l-8 -82q-29 -8 -57 -8q-52 0 -85 30t-33 79q0 66 66 107q-95 7 -145.5 78t-50.5 196q0 131 53 207t150 76
q93 0 145 -67.5t52 -198.5q0 -9 -3 -51zM314 313q0 75 -18 109.5t-58 34.5q-37 0 -56.5 -33.5t-23.5 -117.5h156v7z" />
    <glyph glyph-name="Ecaron" unicode="&#x11a;" horiz-adv-x="433" 
d="M403 691l-13 -95h-203v-198h177v-94h-177v-208h216v-96h-343v691h343zM341 922l44 -47l-115 -123h-75l-115 123l45 47l108 -82z" />
    <glyph glyph-name="ecaron" unicode="&#x11b;" horiz-adv-x="463" 
d="M431 226h-273q4 -82 28.5 -114.5t69.5 -32.5q31 0 56 10.5t54 33.5l51 -70q-70 -68 -168 -68q-104 0 -159.5 72t-55.5 203t53 207t150 76q93 0 145 -67.5t52 -198.5q0 -9 -3 -51zM314 313q0 75 -18 109.5t-58 34.5q-37 0 -56.5 -33.5t-23.5 -117.5h156v7zM345 796l44 -48
l-115 -128h-75l-115 128l44 48l109 -91z" />
    <glyph glyph-name="Gcircumflex" unicode="&#x11c;" horiz-adv-x="538" 
d="M407 684.5q45 -20.5 85 -59.5l-64 -66q-31 27 -58 38.5t-61 11.5q-66 0 -103.5 -59t-37.5 -204q0 -102 13.5 -159.5t40 -80.5t69.5 -23q45 0 82 25v187h-78l-13 95h212v-338q-43 -31 -95.5 -48.5t-106.5 -17.5q-129 0 -193 87.5t-64 272.5q0 120 35.5 200.5t96.5 119.5
t138 39q57 0 102 -20.5zM185 760l-44 47l115 123h75l115 -123l-45 -47l-107 82z" />
    <glyph glyph-name="gcircumflex" unicode="&#x11d;" horiz-adv-x="445" 
d="M447 502q-21 -10 -50.5 -14t-73.5 -4q42 -20 62.5 -53.5t20.5 -82.5q0 -80 -49 -129t-133 -49q-25 0 -51 8q-18 -15 -18 -41q0 -20 11 -30t41 -10h56q80 0 127 -41.5t47 -105.5q0 -76 -58.5 -121.5t-166.5 -45.5q-114 0 -159.5 42t-45.5 123h109q0 -43 20 -61t77 -18
q55 0 78 19t23 54q0 34 -19 50t-59 16h-38q-76 0 -111 27t-35 74q0 27 14.5 51.5t39.5 43.5q-41 26 -60 62t-19 88q0 87 52 137.5t140 50.5q65 0 107.5 14t89.5 41zM166 435q-18 -25 -18 -79q0 -51 18 -78.5t52 -27.5q35 0 52 24.5t17 82.5q0 54 -16.5 78.5t-51.5 24.5
t-53 -25zM115 631l-44 47l115 128h75l115 -128l-45 -47l-107 88z" />
    <glyph glyph-name="Gbreve" unicode="&#x11e;" horiz-adv-x="538" 
d="M407 684.5q45 -20.5 85 -59.5l-64 -66q-31 27 -58 38.5t-61 11.5q-66 0 -103.5 -59t-37.5 -204q0 -102 13.5 -159.5t40 -80.5t69.5 -23q45 0 82 25v187h-78l-13 95h212v-338q-43 -31 -95.5 -48.5t-106.5 -17.5q-129 0 -193 87.5t-64 272.5q0 120 35.5 200.5t96.5 119.5
t138 39q57 0 102 -20.5zM197 793q-36 38 -41 103l68 14q16 -67 70 -67q27 0 45 17.5t26 49.5l68 -14q-5 -65 -41 -103t-98 -38q-61 0 -97 38z" />
    <glyph glyph-name="gbreve" unicode="&#x11f;" horiz-adv-x="445" 
d="M447 502q-21 -10 -50.5 -14t-73.5 -4q42 -20 62.5 -53.5t20.5 -82.5q0 -80 -49 -129t-133 -49q-25 0 -51 8q-18 -15 -18 -41q0 -20 11 -30t41 -10h56q80 0 127 -41.5t47 -105.5q0 -76 -58.5 -121.5t-166.5 -45.5q-114 0 -159.5 42t-45.5 123h109q0 -43 20 -61t77 -18
q55 0 78 19t23 54q0 34 -19 50t-59 16h-38q-76 0 -111 27t-35 74q0 27 14.5 51.5t39.5 43.5q-41 26 -60 62t-19 88q0 87 52 137.5t140 50.5q65 0 107.5 14t89.5 41zM166 435q-18 -25 -18 -79q0 -51 18 -78.5t52 -27.5q35 0 52 24.5t17 82.5q0 54 -16.5 78.5t-51.5 24.5
t-53 -25zM126.5 677.5q-35.5 39.5 -40.5 112.5l68 13q15 -78 70 -78q56 0 71 78l68 -13q-5 -73 -41 -112.5t-98 -39.5t-97.5 39.5z" />
    <glyph glyph-name="Gdotaccent" unicode="&#x120;" horiz-adv-x="538" 
d="M407 684.5q45 -20.5 85 -59.5l-64 -66q-31 27 -58 38.5t-61 11.5q-66 0 -103.5 -59t-37.5 -204q0 -102 13.5 -159.5t40 -80.5t69.5 -23q45 0 82 25v187h-78l-13 95h212v-338q-43 -31 -95.5 -48.5t-106.5 -17.5q-129 0 -193 87.5t-64 272.5q0 120 35.5 200.5t96.5 119.5
t138 39q57 0 102 -20.5zM346.5 898q20.5 -21 20.5 -54q0 -32 -20.5 -53t-53.5 -21t-53.5 21t-20.5 53q0 33 20.5 54t53.5 21t53.5 -21z" />
    <glyph glyph-name="gdotaccent" unicode="&#x121;" horiz-adv-x="445" 
d="M447 502q-21 -10 -50.5 -14t-73.5 -4q42 -20 62.5 -53.5t20.5 -82.5q0 -80 -49 -129t-133 -49q-25 0 -51 8q-18 -15 -18 -41q0 -20 11 -30t41 -10h56q80 0 127 -41.5t47 -105.5q0 -76 -58.5 -121.5t-166.5 -45.5q-114 0 -159.5 42t-45.5 123h109q0 -43 20 -61t77 -18
q55 0 78 19t23 54q0 34 -19 50t-59 16h-38q-76 0 -111 27t-35 74q0 27 14.5 51.5t39.5 43.5q-41 26 -60 62t-19 88q0 87 52 137.5t140 50.5q65 0 107.5 14t89.5 41zM166 435q-18 -25 -18 -79q0 -51 18 -78.5t52 -27.5q35 0 52 24.5t17 82.5q0 54 -16.5 78.5t-51.5 24.5
t-53 -25zM276.5 772q20.5 -21 20.5 -54q0 -32 -20.5 -53t-53.5 -21t-53.5 21t-20.5 53q0 33 20.5 54t53.5 21t53.5 -21z" />
    <glyph glyph-name="Gcommaaccent" unicode="&#x122;" horiz-adv-x="538" 
d="M407 684.5q45 -20.5 85 -59.5l-64 -66q-31 27 -58 38.5t-61 11.5q-66 0 -103.5 -59t-37.5 -204q0 -102 13.5 -159.5t40 -80.5t69.5 -23q45 0 82 25v187h-78l-13 95h212v-338q-43 -31 -95.5 -48.5t-106.5 -17.5q-129 0 -193 87.5t-64 272.5q0 120 35.5 200.5t96.5 119.5
t138 39q57 0 102 -20.5zM335.5 -91.5q17.5 -18.5 17.5 -47.5q0 -15 -4.5 -31t-17.5 -48l-37 -91h-63l27 115q-31 20 -31 55q0 28 17.5 47t45.5 19t45.5 -18.5z" />
    <glyph glyph-name="gcommaaccent" unicode="&#x123;" horiz-adv-x="445" 
d="M447 502q-21 -10 -50.5 -14t-73.5 -4q42 -20 62.5 -53.5t20.5 -82.5q0 -80 -49 -129t-133 -49q-25 0 -51 8q-18 -15 -18 -41q0 -20 11 -30t41 -10h56q80 0 127 -41.5t47 -105.5q0 -76 -58.5 -121.5t-166.5 -45.5q-114 0 -159.5 42t-45.5 123h109q0 -43 20 -61t77 -18
q55 0 78 19t23 54q0 34 -19 50t-59 16h-38q-76 0 -111 27t-35 74q0 27 14.5 51.5t39.5 43.5q-41 26 -60 62t-19 88q0 87 52 137.5t140 50.5q65 0 107.5 14t89.5 41zM166 435q-18 -25 -18 -79q0 -51 18 -78.5t52 -27.5q35 0 52 24.5t17 82.5q0 54 -16.5 78.5t-51.5 24.5
t-53 -25zM178.5 599.5q-17.5 18.5 -17.5 47.5q0 15 4.5 31t17.5 48l37 91h63l-27 -115q31 -20 31 -55q0 -28 -17.5 -47t-45.5 -19t-45.5 18.5z" />
    <glyph glyph-name="Hcircumflex" unicode="&#x124;" horiz-adv-x="553" 
d="M366 0v310h-179v-310h-127v691h127v-279h179v279h128v-691h-128zM168 760l-44 47l115 123h75l115 -123l-45 -47l-107 82z" />
    <glyph glyph-name="hcircumflex" unicode="&#x125;" horiz-adv-x="481" 
d="M394 502q33 -41 33 -110v-392h-123v378q0 38 -10.5 54.5t-30.5 16.5q-42 0 -83 -79v-370h-123v740l123 13v-287q25 39 54.5 58t69.5 19q57 0 90 -41zM131 810l-44 47l115 123h75l115 -123l-45 -47l-107 82z" />
    <glyph glyph-name="Hbar" unicode="&#x126;" horiz-adv-x="561" 
d="M545 583v-78h-46v-505h-128v310h-179v-310h-127v505h-49v78h49v108h127v-108h179v108h128v-108h46zM371 412v93h-179v-93h179z" />
    <glyph glyph-name="hbar" unicode="&#x127;" horiz-adv-x="485" 
d="M398 502q33 -41 33 -110v-392h-123v378q0 38 -10.5 54.5t-30.5 16.5q-42 0 -83 -79v-370h-123v604h-51v79h51v57l123 13v-70h111v-79h-111v-138q25 39 54.5 58t69.5 19q57 0 90 -41z" />
    <glyph glyph-name="Itilde" unicode="&#x128;" horiz-adv-x="247" 
d="M187 691v-691h-127v691h127zM143 782.5q-14 6.5 -30 18.5q-13 9 -20.5 13t-16.5 4q-13 0 -22 -9.5t-22 -32.5l-60 28q16 46 42 73t60 27q17 0 31 -6.5t30 -18.5q12 -9 20 -13.5t17 -4.5q13 0 22.5 10t20.5 32l61 -28q-16 -48 -42.5 -73.5t-59.5 -25.5q-17 0 -31 6.5z" />
    <glyph glyph-name="itilde" unicode="&#x129;" horiz-adv-x="237" 
d="M180 529v-529h-123v529h123zM138 656.5q-14 6.5 -30 18.5q-13 9 -20.5 13t-16.5 4q-13 0 -22 -9.5t-22 -32.5l-60 28q16 46 42 73t60 27q17 0 31 -6.5t30 -18.5q12 -9 20 -13.5t17 -4.5q13 0 22.5 10t20.5 32l61 -28q-16 -48 -42.5 -73.5t-59.5 -25.5q-17 0 -31 6.5z" />
    <glyph glyph-name="Imacron" unicode="&#x12a;" horiz-adv-x="247" 
d="M187 691v-691h-127v691h127zM246 789h-246v85h246v-85z" />
    <glyph glyph-name="imacron" unicode="&#x12b;" horiz-adv-x="237" 
d="M180 529v-529h-123v529h123zM242 663h-246v85h246v-85z" />
    <glyph glyph-name="Ibreve" unicode="&#x12c;" horiz-adv-x="247" 
d="M187 691v-691h-127v691h127zM26 793q-36 38 -41 103l68 14q16 -67 70 -67q27 0 45 17.5t26 49.5l68 -14q-5 -65 -41 -103t-98 -38q-61 0 -97 38z" />
    <glyph glyph-name="ibreve" unicode="&#x12d;" horiz-adv-x="237" 
d="M180 529v-529h-123v529h123zM21.5 677.5q-35.5 39.5 -40.5 112.5l68 13q15 -78 70 -78q56 0 71 78l68 -13q-5 -73 -41 -112.5t-98 -39.5t-97.5 39.5z" />
    <glyph glyph-name="Iogonek" unicode="&#x12e;" horiz-adv-x="247" 
d="M187 691v-691h-29q-55 -28 -75.5 -54t-20.5 -56q0 -47 45 -47q17 0 48 7l-8 -80q-29 -8 -56 -8q-54 0 -87 29t-33 79q0 82 89 135v686h127z" />
    <glyph glyph-name="iogonek" unicode="&#x12f;" horiz-adv-x="237" 
d="M64.5 665q-20.5 21 -20.5 53q0 33 20.5 54t53.5 21t53.5 -21t20.5 -54q0 -32 -20.5 -53t-53.5 -21t-53.5 21zM57 529h123v-529h-18q-55 -28 -75.5 -54t-20.5 -56q0 -47 45 -47q16 0 48 7l-8 -80q-29 -8 -56 -8q-54 0 -87 29t-33 79q0 79 82 130v529z" />
    <glyph glyph-name="Idotaccent" unicode="&#x130;" horiz-adv-x="247" 
d="M187 691v-691h-127v691h127zM175.5 898q20.5 -21 20.5 -54q0 -32 -20.5 -53t-53.5 -21t-53.5 21t-20.5 53q0 33 20.5 54t53.5 21t53.5 -21z" />
    <glyph glyph-name="dotlessi" unicode="&#x131;" horiz-adv-x="237" 
d="M180 529v-529h-123v529h123z" />
    <glyph glyph-name="IJ" unicode="&#x132;" horiz-adv-x="508" 
d="M187 691v-691h-127v691h127zM451 100q0 -108 -47 -163.5t-132 -88.5l-34 90q37 18 55 38.5t24 49.5t6 79v586h128v-591z" />
    <glyph glyph-name="ij" unicode="&#x133;" horiz-adv-x="474" 
d="M180 529v-529h-123v529h123zM171.5 772q20.5 -21 20.5 -54q0 -32 -20.5 -53t-53.5 -21t-53.5 21t-20.5 53q0 33 20.5 54t53.5 21t53.5 -21zM417 25q0 -67 -20.5 -112t-57 -74t-92.5 -55l-42 88q32 19 50.5 36t28.5 44.5t10 71.5v505h123v-504zM408.5 772
q20.5 -21 20.5 -54q0 -32 -20.5 -53t-53.5 -21t-53.5 21t-20.5 53q0 33 20.5 54t53.5 21t53.5 -21z" />
    <glyph glyph-name="Jcircumflex" unicode="&#x134;" horiz-adv-x="261" 
d="M204 100q0 -108 -47 -163.5t-132 -88.5l-34 90q37 18 55 38.5t24 49.5t6 79v586h128v-591zM31 760l-44 47l115 123h75l115 -123l-45 -47l-107 82z" />
    <glyph glyph-name="jcircumflex" unicode="&#x135;" horiz-adv-x="237" 
d="M180 25q0 -67 -20.5 -112t-57 -74t-92.5 -55l-42 88q32 19 50.5 36t28.5 44.5t10 71.5v505h123v-504zM10 631l-44 47l115 128h75l115 -128l-45 -47l-107 88z" />
    <glyph glyph-name="Kcommaaccent" unicode="&#x136;" horiz-adv-x="519" 
d="M187 691v-691h-127v691h127zM511 691l-188 -313l203 -378h-140l-194 369l190 322h129zM313.5 -91.5q17.5 -18.5 17.5 -47.5q0 -15 -4.5 -31t-17.5 -48l-37 -91h-63l27 115q-31 20 -31 55q0 28 17.5 47t45.5 19t45.5 -18.5z" />
    <glyph glyph-name="kcommaaccent" unicode="&#x137;" horiz-adv-x="453" 
d="M180 754v-754h-123v741zM447 529l-140 -234l152 -295h-132l-142 289l142 240h120zM275.5 -91.5q17.5 -18.5 17.5 -47.5q0 -15 -4.5 -31t-17.5 -48l-37 -91h-63l27 115q-31 20 -31 55q0 28 17.5 47t45.5 19t45.5 -18.5z" />
    <glyph glyph-name="kgreenlandic" unicode="&#x138;" horiz-adv-x="453" 
d="M180 529v-529h-123v529h123zM447 529l-140 -240l152 -289h-132l-142 283l142 246h120z" />
    <glyph glyph-name="Lacute" unicode="&#x139;" horiz-adv-x="417" 
d="M187 691v-586h223l-14 -105h-336v691h127zM187 929l49 -94l-193 -82l-32 62z" />
    <glyph glyph-name="lacute" unicode="&#x13a;" horiz-adv-x="249" 
d="M83.5 18.5q-31.5 33.5 -31.5 89.5v633l123 13v-641q0 -13 6 -21t18 -8q7 0 13.5 2t8.5 2l24 -84q-34 -19 -76 -19q-54 0 -85.5 33.5zM177 979l49 -94l-193 -82l-32 62z" />
    <glyph glyph-name="Lcommaaccent" unicode="&#x13b;" horiz-adv-x="417" 
d="M187 691v-586h223l-14 -105h-336v691h127zM274.5 -91.5q17.5 -18.5 17.5 -47.5q0 -15 -4.5 -31t-17.5 -48l-37 -91h-63l27 115q-31 20 -31 55q0 28 17.5 47t45.5 19t45.5 -18.5z" />
    <glyph glyph-name="lcommaaccent" unicode="&#x13c;" horiz-adv-x="249" 
d="M83.5 18.5q-31.5 33.5 -31.5 89.5v633l123 13v-641q0 -13 6 -21t18 -8q7 0 13.5 2t8.5 2l24 -84q-34 -19 -76 -19q-54 0 -85.5 33.5zM198.5 -91.5q17.5 -18.5 17.5 -47.5q0 -15 -4.5 -31t-17.5 -48l-37 -91h-63l27 115q-31 20 -31 55q0 28 17.5 47t45.5 19t45.5 -18.5z
" />
    <glyph glyph-name="Lcaron" unicode="&#x13d;" horiz-adv-x="417" 
d="M187 691v-586h223l-14 -105h-336v691h127zM291 492l44 198l-93 14l-19 -201z" />
    <glyph glyph-name="lcaron" unicode="&#x13e;" horiz-adv-x="289" 
d="M83.5 18.5q-31.5 33.5 -31.5 89.5v633l123 13v-641q0 -13 6 -21t18 -8q7 0 13.5 2t8.5 2l24 -84q-34 -19 -76 -19q-54 0 -85.5 33.5zM277 542l44 198l-93 14l-19 -201z" />
    <glyph glyph-name="Ldot" unicode="&#x13f;" horiz-adv-x="417" 
d="M187 691v-586h223l-14 -105h-336v691h127zM381.5 446q20.5 -21 20.5 -54q0 -32 -20.5 -53t-53.5 -21t-53.5 21t-20.5 53q0 33 20.5 54t53.5 21t53.5 -21z" />
    <glyph glyph-name="ldot" unicode="&#x140;" horiz-adv-x="348" 
d="M83.5 18.5q-31.5 33.5 -31.5 89.5v633l123 13v-641q0 -13 6 -21t18 -8q7 0 13.5 2t8.5 2l24 -84q-34 -19 -76 -19q-54 0 -85.5 33.5zM341.5 431q20.5 -21 20.5 -54q0 -32 -20.5 -53t-53.5 -21t-53.5 21t-20.5 53q0 33 20.5 54t53.5 21t53.5 -21z" />
    <glyph glyph-name="Lslash" unicode="&#x141;" horiz-adv-x="448" 
d="M218 105h223l-14 -105h-336v241l-41 -30l-42 73l78 57l5 4v346h127v-255l105 75l42 -72l-147 -106v-228z" />
    <glyph glyph-name="lslash" unicode="&#x142;" horiz-adv-x="292" 
d="M236.5 86q6.5 2 8.5 2l24 -84q-34 -19 -76 -19q-54 0 -85.5 33.5t-31.5 89.5v176l-35 -24l-42 68l77 56v357l123 13v-286l56 38l41 -68l-97 -68v-257q0 -13 6 -21t18 -8q7 0 13.5 2z" />
    <glyph glyph-name="Nacute" unicode="&#x143;" horiz-adv-x="552" 
d="M492 0h-162l-175 566q8 -72 12.5 -132.5t4.5 -143.5v-290h-112v691h161l175 -566q-6 36 -11.5 102t-5.5 134v330h113v-691zM343 929l49 -94l-193 -82l-32 62z" />
    <glyph glyph-name="nacute" unicode="&#x144;" horiz-adv-x="481" 
d="M394 502q33 -41 33 -110v-392h-123v378q0 38 -10.5 54.5t-30.5 16.5q-42 0 -83 -79v-370h-123v529h107l9 -69q27 42 57.5 62.5t73.5 20.5q57 0 90 -41zM301 812l50 -91l-191 -90l-34 60z" />
    <glyph glyph-name="Ncommaaccent" unicode="&#x145;" horiz-adv-x="552" 
d="M492 0h-162l-175 566q8 -72 12.5 -132.5t4.5 -143.5v-290h-112v691h161l175 -566q-6 36 -11.5 102t-5.5 134v330h113v-691zM322.5 -91.5q17.5 -18.5 17.5 -47.5q0 -15 -4.5 -31t-17.5 -48l-37 -91h-63l27 115q-31 20 -31 55q0 28 17.5 47t45.5 19t45.5 -18.5z" />
    <glyph glyph-name="ncommaaccent" unicode="&#x146;" horiz-adv-x="481" 
d="M394 502q33 -41 33 -110v-392h-123v378q0 38 -10.5 54.5t-30.5 16.5q-42 0 -83 -79v-370h-123v529h107l9 -69q27 42 57.5 62.5t73.5 20.5q57 0 90 -41zM286.5 -91.5q17.5 -18.5 17.5 -47.5q0 -15 -4.5 -31t-17.5 -48l-37 -91h-63l27 115q-31 20 -31 55q0 28 17.5 47
t45.5 19t45.5 -18.5z" />
    <glyph glyph-name="Ncaron" unicode="&#x147;" horiz-adv-x="552" 
d="M492 0h-162l-175 566q8 -72 12.5 -132.5t4.5 -143.5v-290h-112v691h161l175 -566q-6 36 -11.5 102t-5.5 134v330h113v-691zM388 922l44 -47l-115 -123h-75l-115 123l45 47l108 -82z" />
    <glyph glyph-name="ncaron" unicode="&#x148;" horiz-adv-x="481" 
d="M394 502q33 -41 33 -110v-392h-123v378q0 38 -10.5 54.5t-30.5 16.5q-42 0 -83 -79v-370h-123v529h107l9 -69q27 42 57.5 62.5t73.5 20.5q57 0 90 -41zM352 796l44 -48l-115 -128h-75l-115 128l44 48l109 -91z" />
    <glyph glyph-name="napostrophe" unicode="&#x149;" horiz-adv-x="588" 
d="M133 739q16 -17 16 -44q0 -12 -4.5 -27.5t-9.5 -28.5t-7 -19l-31 -84h-56l20 108q-28 19 -28 51q0 26 16 43.5t42 17.5t42 -17zM501 502q33 -41 33 -110v-392h-123v378q0 38 -10.5 54.5t-30.5 16.5q-42 0 -83 -79v-370h-123v529h107l9 -69q27 42 57.5 62.5t73.5 20.5
q57 0 90 -41z" />
    <glyph glyph-name="Eng" unicode="&#x14a;" horiz-adv-x="552" 
d="M492 0h-1v-62q0 -76 -43 -115.5t-114 -39.5q-65 0 -115 40l46 73q16 -9 28 -13t28 -4q43 0 43 53v68h-34l-175 566q8 -72 12.5 -132.5t4.5 -143.5v-290h-112v691h161l175 -566q-6 36 -11.5 102t-5.5 134v330h113v-691z" />
    <glyph glyph-name="eng" unicode="&#x14b;" horiz-adv-x="481" 
d="M428 1v-68q0 -72 -42.5 -111t-111.5 -39t-116 40l45 71q15 -10 27.5 -14t28.5 -4q46 0 46 53v71h-1v378q0 38 -10.5 54.5t-30.5 16.5q-42 0 -83 -79v-370h-123v529h107l9 -69q27 42 57.5 62.5t73.5 20.5q57 0 90 -41t33 -110v-391h1z" />
    <glyph glyph-name="Omacron" unicode="&#x14c;" horiz-adv-x="578" 
d="M477 616q66 -89 66 -270q0 -179 -66 -270t-188 -91q-121 0 -187.5 90t-66.5 270q0 178 66.5 269t187.5 91q122 0 188 -89zM198.5 548q-29.5 -61 -29.5 -203q0 -143 30 -202.5t90 -59.5q62 0 91.5 59t29.5 204q0 142 -30 202.5t-91 60.5t-90.5 -61zM412 789h-246v85h246
v-85z" />
    <glyph glyph-name="omacron" unicode="&#x14d;" horiz-adv-x="490" 
d="M400.5 473q55.5 -70 55.5 -208q0 -132 -56 -206t-155 -74t-155 72.5t-56 207.5q0 134 56 206t155 72q100 0 155.5 -70zM182 407.5q-20 -42.5 -20 -142.5q0 -101 20 -143.5t63 -42.5t63 42.5t20 143.5t-20 143t-63 42t-63 -42.5zM368 663h-246v85h246v-85z" />
    <glyph glyph-name="Obreve" unicode="&#x14e;" horiz-adv-x="578" 
d="M477 616q66 -89 66 -270q0 -179 -66 -270t-188 -91q-121 0 -187.5 90t-66.5 270q0 178 66.5 269t187.5 91q122 0 188 -89zM198.5 548q-29.5 -61 -29.5 -203q0 -143 30 -202.5t90 -59.5q62 0 91.5 59t29.5 204q0 142 -30 202.5t-91 60.5t-90.5 -61zM192 793
q-36 38 -41 103l68 14q16 -67 70 -67q27 0 45 17.5t26 49.5l68 -14q-5 -65 -41 -103t-98 -38q-61 0 -97 38z" />
    <glyph glyph-name="obreve" unicode="&#x14f;" horiz-adv-x="490" 
d="M400.5 473q55.5 -70 55.5 -208q0 -132 -56 -206t-155 -74t-155 72.5t-56 207.5q0 134 56 206t155 72q100 0 155.5 -70zM182 407.5q-20 -42.5 -20 -142.5q0 -101 20 -143.5t63 -42.5t63 42.5t20 143.5t-20 143t-63 42t-63 -42.5zM147.5 677.5q-35.5 39.5 -40.5 112.5
l68 13q15 -78 70 -78q56 0 71 78l68 -13q-5 -73 -41 -112.5t-98 -39.5t-97.5 39.5z" />
    <glyph glyph-name="Ohungarumlaut" unicode="&#x150;" horiz-adv-x="578" 
d="M477 616q66 -89 66 -270q0 -179 -66 -270t-188 -91q-121 0 -187.5 90t-66.5 270q0 178 66.5 269t187.5 91q122 0 188 -89zM198.5 548q-29.5 -61 -29.5 -203q0 -143 30 -202.5t90 -59.5q62 0 91.5 59t29.5 204q0 142 -30 202.5t-91 60.5t-90.5 -61zM256 968l83 -42
l-91 -165l-62 27zM396 968l83 -44l-98 -168l-61 29z" />
    <glyph glyph-name="ohungarumlaut" unicode="&#x151;" horiz-adv-x="490" 
d="M400.5 473q55.5 -70 55.5 -208q0 -132 -56 -206t-155 -74t-155 72.5t-56 207.5q0 134 56 206t155 72q100 0 155.5 -70zM182 407.5q-20 -42.5 -20 -142.5q0 -101 20 -143.5t63 -42.5t63 42.5t20 143.5t-20 143t-63 42t-63 -42.5zM209 842l83 -42l-91 -165l-62 27zM349 842
l83 -44l-98 -168l-61 29z" />
    <glyph glyph-name="OE" unicode="&#x152;" horiz-adv-x="746" 
d="M716 0h-363q-34 -15 -77 -15q-73 0 -127.5 41t-84 122t-29.5 197q0 115 29.5 196t84 122.5t127.5 41.5q41 0 77 -14h362l-13 -95h-243q56 -73 65 -197h152v-95h-151q-9 -130 -68 -208h259v-96zM365 143.5q28 60.5 28 202.5q0 140 -28.5 201.5t-83.5 61.5t-83.5 -61.5
t-28.5 -202.5q0 -140 28.5 -201t83.5 -61q56 0 84 60.5z" />
    <glyph glyph-name="oe" unicode="&#x153;" horiz-adv-x="756" 
d="M724 226h-272q9 -147 99 -147q31 0 56 10.5t54 33.5l51 -67q-71 -71 -168 -71t-154 88q-56 -88 -148 -88q-97 0 -152.5 72.5t-55.5 207.5q0 130 56 204t154 74q90 0 147 -84q56 84 145 84q88 0 139.5 -68.5t51.5 -197.5q0 -9 -3 -51zM608 313q0 73 -18 108t-57 35
q-37 0 -57 -35t-24 -115h156v7zM306.5 123.5q20.5 44.5 20.5 141.5q0 96 -20.5 140.5t-61.5 44.5q-43 0 -63 -42.5t-20 -142.5q0 -101 20 -143.5t62 -42.5t62.5 44.5z" />
    <glyph glyph-name="Racute" unicode="&#x154;" horiz-adv-x="511" 
d="M370 0l-122 279h-12h-49v-279h-127v691h163q250 0 250 -203q0 -63 -28 -111.5t-84 -73.5l146 -303h-137zM314.5 399q26.5 28 26.5 89q0 57 -27.5 83.5t-90.5 26.5h-36v-227h42q59 0 85.5 28zM314 929l49 -94l-193 -82l-32 62z" />
    <glyph glyph-name="racute" unicode="&#x155;" horiz-adv-x="331" 
d="M331 535l-20 -118q-20 5 -37 5q-38 0 -60 -33t-34 -98v-291h-123v529h107l9 -92q37 105 117 105q23 0 41 -7zM252 812l50 -91l-191 -90l-34 60z" />
    <glyph glyph-name="Rcommaaccent" unicode="&#x156;" horiz-adv-x="511" 
d="M370 0l-122 279h-12h-49v-279h-127v691h163q250 0 250 -203q0 -63 -28 -111.5t-84 -73.5l146 -303h-137zM314.5 399q26.5 28 26.5 89q0 57 -27.5 83.5t-90.5 26.5h-36v-227h42q59 0 85.5 28zM303.5 -91.5q17.5 -18.5 17.5 -47.5q0 -15 -4.5 -31t-17.5 -48l-37 -91h-63
l27 115q-31 20 -31 55q0 28 17.5 47t45.5 19t45.5 -18.5z" />
    <glyph glyph-name="rcommaaccent" unicode="&#x157;" horiz-adv-x="331" 
d="M331 535l-20 -118q-20 5 -37 5q-38 0 -60 -33t-34 -98v-291h-123v529h107l9 -92q37 105 117 105q23 0 41 -7zM165.5 -91.5q17.5 -18.5 17.5 -47.5q0 -15 -4.5 -31t-17.5 -48l-37 -91h-63l27 115q-31 20 -31 55q0 28 17.5 47t45.5 19t45.5 -18.5z" />
    <glyph glyph-name="Rcaron" unicode="&#x158;" horiz-adv-x="511" 
d="M370 0l-122 279h-12h-49v-279h-127v691h163q250 0 250 -203q0 -63 -28 -111.5t-84 -73.5l146 -303h-137zM314.5 399q26.5 28 26.5 89q0 57 -27.5 83.5t-90.5 26.5h-36v-227h42q59 0 85.5 28zM359 922l44 -47l-115 -123h-75l-115 123l45 47l108 -82z" />
    <glyph glyph-name="rcaron" unicode="&#x159;" horiz-adv-x="331" 
d="M331 535l-20 -118q-20 5 -37 5q-38 0 -60 -33t-34 -98v-291h-123v529h107l9 -92q37 105 117 105q23 0 41 -7zM303 796l44 -48l-115 -128h-75l-115 128l44 48l109 -91z" />
    <glyph glyph-name="Sacute" unicode="&#x15a;" horiz-adv-x="465" 
d="M341 684q46 -21 85 -63l-59 -68q-31 28 -60.5 42t-62.5 14q-38 0 -60 -23.5t-22 -61.5t23 -62t90 -50q86 -35 126.5 -82t40.5 -133q0 -59 -27 -107.5t-77.5 -76.5t-117.5 -28q-69 0 -120 24.5t-93 69.5l64 70q36 -32 69 -49t72 -17q46 0 71.5 28.5t25.5 77.5
q0 43 -22.5 70.5t-83.5 50.5q-92 37 -132.5 85t-40.5 120q0 55 26.5 98t73.5 67.5t105 24.5q60 0 106 -21zM301 929l49 -94l-193 -82l-32 62z" />
    <glyph glyph-name="sacute" unicode="&#x15b;" horiz-adv-x="398" 
d="M363 481l-47 -67q-28 20 -53 30t-51 10q-29 0 -45.5 -15.5t-16.5 -42.5t18.5 -43.5t74.5 -38.5q69 -27 102 -64t33 -99q0 -77 -54 -121.5t-137 -44.5q-54 0 -99.5 19.5t-79.5 54.5l60 66q56 -49 114 -49q33 0 52 17.5t19 48.5q0 23 -8 37.5t-28 27t-60 27.5
q-69 27 -98.5 63t-29.5 92q0 67 47.5 110.5t127.5 43.5q94 0 159 -62zM261 812l50 -91l-191 -90l-34 60z" />
    <glyph glyph-name="Scircumflex" unicode="&#x15c;" horiz-adv-x="465" 
d="M341 684q46 -21 85 -63l-59 -68q-31 28 -60.5 42t-62.5 14q-38 0 -60 -23.5t-22 -61.5t23 -62t90 -50q86 -35 126.5 -82t40.5 -133q0 -59 -27 -107.5t-77.5 -76.5t-117.5 -28q-69 0 -120 24.5t-93 69.5l64 70q36 -32 69 -49t72 -17q46 0 71.5 28.5t25.5 77.5
q0 43 -22.5 70.5t-83.5 50.5q-92 37 -132.5 85t-40.5 120q0 55 26.5 98t73.5 67.5t105 24.5q60 0 106 -21zM129 760l-44 47l115 123h75l115 -123l-45 -47l-107 82z" />
    <glyph glyph-name="scircumflex" unicode="&#x15d;" horiz-adv-x="398" 
d="M363 481l-47 -67q-28 20 -53 30t-51 10q-29 0 -45.5 -15.5t-16.5 -42.5t18.5 -43.5t74.5 -38.5q69 -27 102 -64t33 -99q0 -77 -54 -121.5t-137 -44.5q-54 0 -99.5 19.5t-79.5 54.5l60 66q56 -49 114 -49q33 0 52 17.5t19 48.5q0 23 -8 37.5t-28 27t-60 27.5
q-69 27 -98.5 63t-29.5 92q0 67 47.5 110.5t127.5 43.5q94 0 159 -62zM95 631l-44 47l115 128h75l115 -128l-45 -47l-107 88z" />
    <glyph glyph-name="Scedilla" unicode="&#x15e;" horiz-adv-x="465" 
d="M393 58.5q-49 -57.5 -132 -70.5v-44q84 -14 84 -90q0 -48 -32.5 -76t-86.5 -28q-52 0 -90 26l30 57q26 -12 52 -12q37 0 37 34q0 20 -17.5 29.5t-57.5 9.5l10 92q-57 6 -101.5 29.5t-81.5 63.5l64 70q36 -32 69 -49t72 -17q46 0 71.5 28.5t25.5 77.5q0 43 -22.5 70.5
t-83.5 50.5q-92 37 -132.5 85t-40.5 120q0 55 26.5 98t73.5 67.5t105 24.5q60 0 106 -21t85 -63l-59 -68q-31 28 -60.5 42t-62.5 14q-38 0 -60 -23.5t-22 -61.5t23 -62t90 -50q86 -35 126.5 -82t40.5 -133q0 -81 -49 -138.5z" />
    <glyph glyph-name="scedilla" unicode="&#x15f;" horiz-adv-x="398" 
d="M338 43q-40 -42 -105 -54v-45q84 -14 84 -90q0 -48 -32.5 -76t-86.5 -28q-52 0 -90 26l30 57q26 -12 52 -12q37 0 37 34q0 20 -17.5 29.5t-57.5 9.5l10 92q-91 9 -154 73l60 66q56 -49 114 -49q33 0 52 17.5t19 48.5q0 23 -8 37.5t-28 27t-60 27.5q-69 27 -98.5 63
t-29.5 92q0 67 47.5 110.5t127.5 43.5q94 0 159 -62l-47 -67q-28 20 -53 30t-51 10q-29 0 -45.5 -15.5t-16.5 -42.5t18.5 -43.5t74.5 -38.5q69 -27 102 -64t33 -99q0 -66 -40 -108z" />
    <glyph glyph-name="Scaron" unicode="&#x160;" horiz-adv-x="465" 
d="M341 684q46 -21 85 -63l-59 -68q-31 28 -60.5 42t-62.5 14q-38 0 -60 -23.5t-22 -61.5t23 -62t90 -50q86 -35 126.5 -82t40.5 -133q0 -59 -27 -107.5t-77.5 -76.5t-117.5 -28q-69 0 -120 24.5t-93 69.5l64 70q36 -32 69 -49t72 -17q46 0 71.5 28.5t25.5 77.5
q0 43 -22.5 70.5t-83.5 50.5q-92 37 -132.5 85t-40.5 120q0 55 26.5 98t73.5 67.5t105 24.5q60 0 106 -21zM346 922l44 -47l-115 -123h-75l-115 123l45 47l108 -82z" />
    <glyph glyph-name="scaron" unicode="&#x161;" horiz-adv-x="398" 
d="M363 481l-47 -67q-28 20 -53 30t-51 10q-29 0 -45.5 -15.5t-16.5 -42.5t18.5 -43.5t74.5 -38.5q69 -27 102 -64t33 -99q0 -77 -54 -121.5t-137 -44.5q-54 0 -99.5 19.5t-79.5 54.5l60 66q56 -49 114 -49q33 0 52 17.5t19 48.5q0 23 -8 37.5t-28 27t-60 27.5
q-69 27 -98.5 63t-29.5 92q0 67 47.5 110.5t127.5 43.5q94 0 159 -62zM312 796l44 -48l-115 -128h-75l-115 128l44 48l109 -91z" />
    <glyph glyph-name="uni0162" unicode="&#x162;" horiz-adv-x="440" 
d="M346.5 -82.5q21.5 -24.5 21.5 -61.5q0 -49 -32.5 -77.5t-88.5 -28.5q-26 0 -49.5 7t-38.5 19l29 61q28 -16 49 -16q41 0 41 36q0 19 -18 28t-57 9l11 106h-58v591h-148v100h431l-14 -100h-142v-644q42 -5 63.5 -29.5z" />
    <glyph glyph-name="uni0163" unicode="&#x163;" horiz-adv-x="317" 
d="M311 -146q0 -48 -32.5 -76t-86.5 -28q-52 0 -90 26l30 57q26 -12 52 -12q37 0 37 34q0 20 -17.5 29.5t-57.5 9.5l10 98q-44 13 -66.5 50t-22.5 90v308h-62v89h62v117l123 15v-132h100l-12 -89h-88v-308q0 -48 41 -48q13 0 23 3.5t26 12.5l43 -76q-42 -33 -96 -38v-42
q84 -14 84 -90z" />
    <glyph glyph-name="Tcaron" unicode="&#x164;" horiz-adv-x="440" 
d="M439 691l-14 -100h-142v-591h-127v591h-148v100h431zM328 922l44 -47l-115 -123h-75l-115 123l45 47l108 -82z" />
    <glyph glyph-name="tcaron" unicode="&#x165;" horiz-adv-x="317" 
d="M322 762l-44 -198l-68 11l19 201zM323 24q-49 -39 -115 -39q-69 0 -105 39.5t-36 107.5v308h-62v89h62v117l123 15v-132h100l-12 -89h-88v-308q0 -48 41 -48q13 0 23 3.5t26 12.5z" />
    <glyph glyph-name="Tbar" unicode="&#x166;" horiz-adv-x="440" 
d="M425 590h-142v-202h95v-80h-95v-309h-127v309h-95v80h95v202h-148v100h431z" />
    <glyph glyph-name="tbar" unicode="&#x167;" horiz-adv-x="317" 
d="M323 24q-49 -39 -115 -39q-69 0 -105 39.5t-36 107.5v141h-58v85h58v82h-62v89h62v117l123 15v-132h100l-12 -89h-88v-82h84v-85h-84v-141q0 -48 41 -48q13 0 23 3.5t26 12.5z" />
    <glyph glyph-name="Utilde" unicode="&#x168;" horiz-adv-x="537" 
d="M487 194q0 -91 -56.5 -149.5t-161.5 -58.5q-107 0 -163 57.5t-56 150.5v497h127v-491q0 -58 22 -86.5t70 -28.5q47 0 69 28.5t22 86.5v491h127v-497zM288 782.5q-14 6.5 -30 18.5q-13 9 -20.5 13t-16.5 4q-13 0 -22 -9.5t-22 -32.5l-60 28q16 46 42 73t60 27
q17 0 31 -6.5t30 -18.5q12 -9 20 -13.5t17 -4.5q13 0 22.5 10t20.5 32l61 -28q-16 -48 -42.5 -73.5t-59.5 -25.5q-17 0 -31 6.5z" />
    <glyph glyph-name="utilde" unicode="&#x169;" horiz-adv-x="477" 
d="M420 0h-107l-6 67q-25 -41 -56 -61.5t-72 -20.5q-58 0 -91.5 41t-33.5 107v396h123v-389q0 -62 42 -62q24 0 43 18.5t35 52.5v380h123v-529zM256 656.5q-14 6.5 -30 18.5q-13 9 -20.5 13t-16.5 4q-13 0 -22 -9.5t-22 -32.5l-60 28q16 46 42 73t60 27q17 0 31 -6.5
t30 -18.5q12 -9 20 -13.5t17 -4.5q13 0 22.5 10t20.5 32l61 -28q-16 -48 -42.5 -73.5t-59.5 -25.5q-17 0 -31 6.5z" />
    <glyph glyph-name="Umacron" unicode="&#x16a;" horiz-adv-x="537" 
d="M487 194q0 -91 -56.5 -149.5t-161.5 -58.5q-107 0 -163 57.5t-56 150.5v497h127v-491q0 -58 22 -86.5t70 -28.5q47 0 69 28.5t22 86.5v491h127v-497zM391 789h-246v85h246v-85z" />
    <glyph glyph-name="umacron" unicode="&#x16b;" horiz-adv-x="477" 
d="M420 0h-107l-6 67q-25 -41 -56 -61.5t-72 -20.5q-58 0 -91.5 41t-33.5 107v396h123v-389q0 -62 42 -62q24 0 43 18.5t35 52.5v380h123v-529zM360 663h-246v85h246v-85z" />
    <glyph glyph-name="Ubreve" unicode="&#x16c;" horiz-adv-x="537" 
d="M487 194q0 -91 -56.5 -149.5t-161.5 -58.5q-107 0 -163 57.5t-56 150.5v497h127v-491q0 -58 22 -86.5t70 -28.5q47 0 69 28.5t22 86.5v491h127v-497zM171 793q-36 38 -41 103l68 14q16 -67 70 -67q27 0 45 17.5t26 49.5l68 -14q-5 -65 -41 -103t-98 -38q-61 0 -97 38z
" />
    <glyph glyph-name="ubreve" unicode="&#x16d;" horiz-adv-x="477" 
d="M420 0h-107l-6 67q-25 -41 -56 -61.5t-72 -20.5q-58 0 -91.5 41t-33.5 107v396h123v-389q0 -62 42 -62q24 0 43 18.5t35 52.5v380h123v-529zM139.5 677.5q-35.5 39.5 -40.5 112.5l68 13q15 -78 70 -78q56 0 71 78l68 -13q-5 -73 -41 -112.5t-98 -39.5t-97.5 39.5z" />
    <glyph glyph-name="Uring" unicode="&#x16e;" horiz-adv-x="537" 
d="M487 194q0 -91 -56.5 -149.5t-161.5 -58.5q-107 0 -163 57.5t-56 150.5v497h127v-491q0 -58 22 -86.5t70 -28.5q47 0 69 28.5t22 86.5v491h127v-497zM349 944.5q30 -31.5 30 -85.5t-30 -86t-81 -32t-81 32t-30 86t30 85.5t81 31.5t81 -31.5zM239.5 901.5
q-9.5 -12.5 -9.5 -42.5t9.5 -43t28.5 -13t29 13t10 43t-10 42.5t-29 12.5t-28.5 -12.5z" />
    <glyph glyph-name="uring" unicode="&#x16f;" horiz-adv-x="477" 
d="M420 0h-107l-6 67q-25 -41 -56 -61.5t-72 -20.5q-58 0 -91.5 41t-33.5 107v396h123v-389q0 -62 42 -62q24 0 43 18.5t35 52.5v380h123v-529zM318 818.5q30 -31.5 30 -85.5t-30 -86t-81 -32t-81 32t-30 86t30 85.5t81 31.5t81 -31.5zM208.5 775.5q-9.5 -12.5 -9.5 -42.5
t9.5 -43t28.5 -13t29 13t10 43t-10 42.5t-29 12.5t-28.5 -12.5z" />
    <glyph glyph-name="Uhungarumlaut" unicode="&#x170;" horiz-adv-x="537" 
d="M487 194q0 -91 -56.5 -149.5t-161.5 -58.5q-107 0 -163 57.5t-56 150.5v497h127v-491q0 -58 22 -86.5t70 -28.5q47 0 69 28.5t22 86.5v491h127v-497zM235 968l83 -42l-91 -165l-62 27zM375 968l83 -44l-98 -168l-61 29z" />
    <glyph glyph-name="uhungarumlaut" unicode="&#x171;" horiz-adv-x="477" 
d="M420 0h-107l-6 67q-25 -41 -56 -61.5t-72 -20.5q-58 0 -91.5 41t-33.5 107v396h123v-389q0 -62 42 -62q24 0 43 18.5t35 52.5v380h123v-529zM201 842l83 -42l-91 -165l-62 27zM341 842l83 -44l-98 -168l-61 29z" />
    <glyph glyph-name="Uogonek" unicode="&#x172;" horiz-adv-x="537" 
d="M487 691v-497q0 -69 -33 -121t-97 -74q-55 -27 -75.5 -53t-20.5 -54q0 -23 11 -35t33 -12q23 0 50 7l-8 -82q-29 -8 -57 -8q-52 0 -85 30t-33 79q0 74 81 115q-99 5 -151 61.5t-52 146.5v497h127v-491q0 -58 22 -86.5t70 -28.5q47 0 69 28.5t22 86.5v491h127z" />
    <glyph glyph-name="uogonek" unicode="&#x173;" horiz-adv-x="477" 
d="M420 529v-529h-1q-55 -28 -75.5 -54t-20.5 -56q0 -47 45 -47q17 0 48 7l-8 -80q-29 -8 -56 -8q-54 0 -87 29t-33 79q0 79 81 130l-6 67q-25 -41 -56 -61.5t-72 -20.5q-58 0 -91.5 41t-33.5 107v396h123v-389q0 -62 42 -62q24 0 43 18.5t35 52.5v380h123z" />
    <glyph glyph-name="Wcircumflex" unicode="&#x174;" horiz-adv-x="702" 
d="M688 691l-97 -691h-167l-74 556l-77 -556h-164l-95 691h123l64 -589l83 589h135l81 -589l70 589h118zM243 760l-44 47l115 123h75l115 -123l-45 -47l-107 82z" />
    <glyph glyph-name="wcircumflex" unicode="&#x175;" horiz-adv-x="625" 
d="M612 529l-91 -529h-150l-59 417l-58 -417h-149l-93 529h119l54 -437l67 437h125l64 -437l57 437h114zM205 631l-44 47l115 128h75l115 -128l-45 -47l-107 88z" />
    <glyph glyph-name="Ycircumflex" unicode="&#x176;" horiz-adv-x="482" 
d="M487 691l-182 -428v-263h-128v262l-182 429h135l113 -325l114 325h130zM132 760l-44 47l115 123h75l115 -123l-45 -47l-107 82z" />
    <glyph glyph-name="ycircumflex" unicode="&#x177;" horiz-adv-x="431" 
d="M290 -2q-26 -96 -84 -151t-155 -64l-14 87q63 13 94.5 41.5t49.5 88.5h-46l-134 529h125l88 -447l94 447h122zM107 631l-44 47l115 128h75l115 -128l-45 -47l-107 88z" />
    <glyph glyph-name="Ydieresis" unicode="&#x178;" horiz-adv-x="482" 
d="M487 691l-182 -428v-263h-128v262l-182 429h135l113 -325l114 325h130zM199.5 888.5q18.5 -19.5 18.5 -47.5q0 -29 -18.5 -48t-46.5 -19t-46.5 19t-18.5 48q0 28 18.5 47.5t46.5 19.5t46.5 -19.5zM386.5 888.5q18.5 -19.5 18.5 -47.5q0 -29 -18.5 -48t-46.5 -19t-46.5 19
t-18.5 48q0 28 18.5 47.5t46.5 19.5t46.5 -19.5z" />
    <glyph glyph-name="Zacute" unicode="&#x179;" horiz-adv-x="440" 
d="M417 691v-99l-264 -488h267l-12 -104h-393v98l265 491h-239v102h376zM289 929l49 -94l-193 -82l-32 62z" />
    <glyph glyph-name="zacute" unicode="&#x17a;" horiz-adv-x="375" 
d="M356 529v-89l-211 -343h215l-11 -97h-336v89l211 343h-193v97h325zM248 812l50 -91l-191 -90l-34 60z" />
    <glyph glyph-name="Zdotaccent" unicode="&#x17b;" horiz-adv-x="440" 
d="M417 691v-99l-264 -488h267l-12 -104h-393v98l265 491h-239v102h376zM278.5 898q20.5 -21 20.5 -54q0 -32 -20.5 -53t-53.5 -21t-53.5 21t-20.5 53q0 33 20.5 54t53.5 21t53.5 -21z" />
    <glyph glyph-name="zdotaccent" unicode="&#x17c;" horiz-adv-x="375" 
d="M356 529v-89l-211 -343h215l-11 -97h-336v89l211 343h-193v97h325zM243.5 772q20.5 -21 20.5 -54q0 -32 -20.5 -53t-53.5 -21t-53.5 21t-20.5 53q0 33 20.5 54t53.5 21t53.5 -21z" />
    <glyph glyph-name="Zcaron" unicode="&#x17d;" horiz-adv-x="440" 
d="M417 691v-99l-264 -488h267l-12 -104h-393v98l265 491h-239v102h376zM334 922l44 -47l-115 -123h-75l-115 123l45 47l108 -82z" />
    <glyph glyph-name="zcaron" unicode="&#x17e;" horiz-adv-x="375" 
d="M356 529v-89l-211 -343h215l-11 -97h-336v89l211 343h-193v97h325zM299 796l44 -48l-115 -128h-75l-115 128l44 48l109 -91z" />
    <glyph glyph-name="longs" unicode="&#x17f;" horiz-adv-x="296" 
d="M353 724l-34 -80q-35 17 -68 17q-28 0 -41.5 -15t-13.5 -46v-600h-123v440h-66v89h66v67q0 72 42 115t120 43q61 0 118 -30z" />
    <glyph glyph-name="uni0180" unicode="&#x180;" horiz-adv-x="498" 
d="M422 473q41 -70 41 -208q0 -130 -46 -205t-126 -75q-35 0 -64 17.5t-50 48.5l-7 -51h-109v602h-51v80h51v58l123 13v-71h111v-80h-111v-130q21 34 51.5 52.5t68.5 18.5q77 0 118 -70zM315.5 120q20.5 42 20.5 145q0 107 -18.5 146.5t-52.5 39.5q-23 0 -44 -19t-37 -50
v-248q13 -25 32.5 -40.5t41.5 -15.5q37 0 57.5 42z" />
    <glyph glyph-name="uni0181" unicode="&#x181;" horiz-adv-x="615" 
d="M554.5 312.5q38.5 -38.5 38.5 -114.5q0 -100 -67.5 -149t-183.5 -49h-174v597h-20q-43 0 -43 -46q0 -31 18 -72l-80 -37q-18 29 -28 56.5t-10 63.5q0 59 37.5 94t109.5 35h167q119 0 184 -45t65 -131q0 -58 -32.5 -96t-86.5 -53q67 -15 105.5 -53.5zM295 597v-191h43
q101 0 101 98q0 49 -25.5 71t-81.5 22h-37zM431 120.5q30 24.5 30 82.5t-28 85.5t-87 27.5h-51v-220h48q58 0 88 24.5z" />
    <glyph glyph-name="uni0182" unicode="&#x182;" horiz-adv-x="492" 
d="M415 384.5q59 -53.5 59 -160.5q0 -114 -61.5 -169t-175.5 -55h-177v691h349l-13 -99h-209v-154h59q110 0 169 -53.5zM316 124.5q25 28.5 25 98.5q0 64 -25.5 93t-80.5 29h-48v-249h48q56 0 81 28.5z" />
    <glyph glyph-name="uni0183" unicode="&#x183;" horiz-adv-x="494" 
d="M418 473q41 -70 41 -208q0 -130 -46 -205t-126 -75q-35 0 -64 17.5t-50 48.5l-7 -51h-109v741h303l-13 -91h-167v-178q21 34 51.5 52.5t68.5 18.5q77 0 118 -70zM311.5 120q20.5 42 20.5 145q0 107 -18.5 146.5t-52.5 39.5q-23 0 -44 -19t-37 -50v-248q13 -25 32.5 -40.5
t41.5 -15.5q37 0 57.5 42z" />
    <glyph glyph-name="uni0184" unicode="&#x184;" horiz-adv-x="499" 
d="M424 391q60 -54 60 -162q0 -229 -234 -229h-180v509l-60 46q45 50 80 136h108v-246h53q113 0 173 -54zM325.5 125.5q25.5 29.5 25.5 101.5q0 67 -26 96.5t-83 29.5h-44v-257h48q54 0 79.5 29.5z" />
    <glyph glyph-name="uni0185" unicode="&#x185;" horiz-adv-x="442" 
d="M376.5 315q49.5 -46 49.5 -134q0 -92 -51.5 -136.5t-143.5 -44.5h-163v357l-60 46q47 55 80 126h103v-168h28q108 0 157.5 -46zM282.5 107.5q18.5 21.5 18.5 74.5q0 52 -17 74t-60 22h-33v-192h35q38 0 56.5 21.5z" />
    <glyph glyph-name="uni0186" unicode="&#x186;" horiz-adv-x="476" 
d="M376 616q65 -89 65 -269q0 -178 -69 -269.5t-186 -91.5q-101 0 -179 82l62 70q32 -26 55.5 -38.5t56.5 -12.5q59 0 92.5 60t33.5 200q0 144 -30.5 202.5t-86.5 58.5q-32 0 -59 -12t-55 -35l-62 73q39 35 83 53t98 18q116 0 181 -89z" />
    <glyph glyph-name="uni0187" unicode="&#x187;" horiz-adv-x="476" 
d="M598 806l-38 -75q-15 9 -27 13.5t-28 4.5q-22 0 -32.5 -13.5t-10.5 -42.5v-59l-56 -69q-30 22 -55.5 32.5t-53.5 10.5q-60 0 -94 -60t-34 -201q0 -139 34 -199.5t96 -60.5q31 0 54 12.5t54 38.5l61 -70q-32 -36 -77 -59.5t-101 -23.5q-117 0 -186 91t-69 271
q0 118 33 198.5t88 120t123 39.5q41 0 75 -18v11q0 69 35.5 107t97.5 38q60 0 111 -37z" />
    <glyph glyph-name="uni0188" unicode="&#x188;" horiz-adv-x="396" 
d="M528 717l-39 -74q-15 9 -27 13t-27 4q-22 0 -32.5 -13t-10.5 -43v-121l-50 -67q-25 16 -45 24t-42 8q-45 0 -68 -42.5t-23 -143.5q0 -98 23.5 -138t67.5 -40q22 0 40 8t42 25l55 -71q-64 -61 -143 -61q-102 0 -158.5 69.5t-56.5 205.5q0 88 25.5 152t71.5 97.5t106 33.5
q25 0 46 -7v74q0 68 36 106t97 38q59 0 112 -37z" />
    <glyph glyph-name="uni0189" unicode="&#x189;" horiz-adv-x="559" 
d="M380.5 664.5q63.5 -26.5 103 -102t39.5 -213.5q0 -195 -77.5 -272t-202.5 -77h-167v311h-59v84h59v296h154q87 0 150.5 -26.5zM325.5 116q30.5 21 48 77t17.5 156q0 102 -18.5 156t-49 72.5t-74.5 18.5h-46v-201h97v-84h-97v-216h47q45 0 75.5 21z" />
    <glyph glyph-name="uni018A" unicode="&#x18a;" horiz-adv-x="650" 
d="M472.5 664.5q63.5 -26.5 103 -102t39.5 -213.5q0 -195 -77.5 -272t-202.5 -77h-167v597h-20q-43 0 -43 -46q0 -31 18 -72l-80 -37q-18 29 -28 56.5t-10 63.5q0 59 37.5 94t109.5 35h170q87 0 150.5 -26.5zM417.5 116q30.5 21 48 77t17.5 156q0 102 -18.5 156t-49 72.5
t-74.5 18.5h-46v-501h47q45 0 75.5 21z" />
    <glyph glyph-name="uni018B" unicode="&#x18b;" horiz-adv-x="492" 
d="M433 0h-175q-240 0 -240 218q0 107 60.5 163.5t175.5 56.5h51v154h-216v99h344v-691zM305 96v249h-41q-59 0 -86 -30t-27 -97q0 -68 27 -95t86 -27h41z" />
    <glyph glyph-name="uni018C" unicode="&#x18c;" horiz-adv-x="496" 
d="M439 0h-109l-6 61q-47 -76 -121 -76q-82 0 -125.5 72.5t-43.5 202.5q0 83 22.5 146t62.5 97t92 34q63 0 105 -54v167h-173v91h296v-741zM279.5 94q18.5 16 36.5 46v250q-32 54 -73 54q-38 0 -59.5 -43.5t-21.5 -139.5q0 -98 20 -140.5t56 -42.5q23 0 41.5 16z" />
    <glyph glyph-name="uni018D" unicode="&#x18d;" horiz-adv-x="484" 
d="M323 67q47 -28 64.5 -60.5t17.5 -76.5q0 -65 -44 -107.5t-129 -42.5q-90 0 -154 57l53 65q25 -17 46.5 -25t48.5 -8q31 0 46 16.5t15 44.5q0 20 -6 34t-24 28t-54 32q-61 31 -97.5 65t-54 81t-17.5 115q1 124 56 191.5t152 67.5q99 0 153.5 -62.5t54.5 -189.5
q0 -155 -127 -225zM304 417q-19 34 -61 34t-61.5 -36t-19.5 -127q0 -53 7.5 -85t28 -56t61.5 -46q35 32 49.5 77.5t14.5 117.5q0 87 -19 121z" />
    <glyph glyph-name="uni018E" unicode="&#x18e;" horiz-adv-x="433" 
d="M35 691h339v-691h-344v96h216v208h-177v94h177v198h-211v95z" />
    <glyph glyph-name="uni018F" unicode="&#x18f;" horiz-adv-x="535" 
d="M438 620.5q62 -84.5 62 -267.5q0 -190 -62.5 -278.5t-176.5 -88.5q-121 0 -178.5 86.5t-57.5 264.5q0 20 4 58h342q-2 119 -32.5 166.5t-90.5 47.5q-38 0 -69 -15.5t-63 -42.5l-59 68q44 44 92.5 65t108.5 21q118 0 180 -84.5zM317 101.5q23 19.5 36.5 67.5t16.5 133
h-222q0 -122 28.5 -171t82.5 -49q35 0 58 19.5z" />
    <glyph glyph-name="uni0190" unicode="&#x190;" horiz-adv-x="442" 
d="M339 683q46 -22 86 -65l-61 -66q-57 57 -112 57q-41 0 -61 -26.5t-20 -68.5q0 -48 24 -74.5t68 -26.5h57l-15 -96h-43q-52 0 -78.5 -29.5t-26.5 -85.5q0 -58 25.5 -87.5t72.5 -29.5q35 0 62.5 14.5t56.5 44.5l69 -63q-74 -95 -198 -95q-64 0 -114.5 25.5t-79 73
t-28.5 111.5q0 76 38.5 119.5t103.5 52.5q-62 15 -93.5 55t-31.5 102q0 51 24.5 92t69.5 64.5t103 23.5q56 0 102 -22z" />
    <glyph glyph-name="uni0191" unicode="&#x191;" horiz-adv-x="403" 
d="M187 596v-211h168v-95h-168v-352q0 -76 -43 -115.5t-114 -39.5q-65 0 -115 40l46 73q16 -9 28 -13t28 -4q43 0 43 53v759h334l-14 -95h-193z" />
    <glyph glyph-name="florin" unicode="&#x192;" horiz-adv-x="306" 
d="M211.5 646q-13.5 -15 -13.5 -46v-71h104l-13 -89h-91v-395q0 -76 -21 -125.5t-57 -79t-93 -56.5l-40 89q32 18 50 36t28 48.5t10 80.5v402h-66v89h66v67q0 72 42 115t122 43q64 0 124 -30l-33 -80q-38 17 -75 17q-30 0 -43.5 -15z" />
    <glyph glyph-name="uni0193" unicode="&#x193;" horiz-adv-x="505" 
d="M627 806l-38 -75q-15 9 -27 13.5t-28 4.5q-21 0 -31.5 -13t-10.5 -43v-68l-58 -61q-33 24 -61.5 34.5t-63.5 10.5q-66 0 -103.5 -59t-37.5 -204q0 -102 13.5 -159.5t40 -80.5t69.5 -23q45 0 82 25v187h-78l-13 95h212v-338q-43 -31 -95.5 -48.5t-106.5 -17.5
q-129 0 -193 87.5t-64 272.5q0 119 35.5 200t94.5 120t131 39q47 0 87 -19v12q0 69 35.5 107t97.5 38q60 0 111 -37z" />
    <glyph glyph-name="uni0194" unicode="&#x194;" horiz-adv-x="480" 
d="M308 80q29 -60 41.5 -101t12.5 -84q0 -112 -120 -112q-61 0 -90.5 29.5t-29.5 82.5q0 37 12.5 78t41.5 107l-178 611h129l115 -528l116 528h124zM261.5 -55.5q-5.5 21.5 -19.5 62.5q-12 -37 -18 -60.5t-6 -44.5q0 -33 24 -33q25 0 25 33q0 21 -5.5 42.5z" />
    <glyph glyph-name="uni0195" unicode="&#x195;" horiz-adv-x="723" 
d="M681 258q0 -144 -59.5 -208t-148.5 -64q-76 0 -122.5 43t-46.5 123v226q0 38 -10.5 54.5t-30.5 16.5q-42 0 -83 -79v-370h-123v740l123 13v-287q25 39 54.5 58t69.5 19q57 0 90 -41t33 -110v-241q0 -37 13 -54.5t39 -17.5q36 0 57.5 39.5t21.5 143.5q0 115 -21 267h121
q23 -161 23 -271z" />
    <glyph glyph-name="uni0196" unicode="&#x196;" horiz-adv-x="320" 
d="M322 25q-50 -40 -115 -40q-71 0 -114 39.5t-43 115.5v551h127v-557q0 -53 43 -53q16 0 28 4t28 13z" />
    <glyph glyph-name="uni0197" unicode="&#x197;" horiz-adv-x="271" 
d="M264 407v-95h-65v-312h-127v312h-66v95h66v284h127v-284h65z" />
    <glyph glyph-name="uni0198" unicode="&#x198;" horiz-adv-x="535" 
d="M192 369l104 217q29 63 60.5 91t85.5 28q55 0 99 -37l-36 -70q-23 15 -43 15q-17 0 -28.5 -11t-26.5 -41l-88 -183l207 -378h-140zM187 691v-691h-127v691h127z" />
    <glyph glyph-name="uni0199" unicode="&#x199;" horiz-adv-x="453" 
d="M193 645q-13 -15 -13 -48v-597h-123v599q0 68 42.5 111.5t120.5 43.5q62 0 117 -30l-35 -80q-35 16 -67 16q-29 0 -42 -15zM307 295l152 -295h-132l-142 289l142 240h120z" />
    <glyph glyph-name="uni019A" unicode="&#x19a;" horiz-adv-x="275" 
d="M267 4q-34 -19 -76 -19q-54 0 -85.5 33.5t-31.5 89.5v220h-68v88h68v325l123 13v-338h67v-88h-67v-215q0 -13 6 -21t18 -8q7 0 13.5 2t8.5 2z" />
    <glyph glyph-name="uni019B" unicode="&#x19b;" horiz-adv-x="430" 
d="M354 263q20 -83 41 -136t51 -100l-115 -41q-40 78 -64.5 166.5t-48.5 254.5l-89 -421l-119 26l135 490h54q-9 53 -24 87l-51 -60l-62 42l66 74q-28 18 -74 29l15 81q79 -16 126 -48l60 65l53 -53l-60 -65q41 -58 60 -166q26 -142 46 -225z" />
    <glyph glyph-name="uni019C" unicode="&#x19c;" horiz-adv-x="756" 
d="M697 691v-691h-112l-9 65q-27 -41 -58 -60t-70 -19q-42 0 -74 24.5t-49 65.5q-30 -47 -62.5 -68.5t-73.5 -21.5q-64 0 -101.5 49t-37.5 127v529h127v-524q0 -41 13 -62t38 -21q23 0 42.5 17t38.5 53v8v529h128v-524q0 -38 13.5 -60.5t37.5 -22.5t42.5 17t38.5 56v534h128
z" />
    <glyph glyph-name="uni019D" unicode="&#x19d;" horiz-adv-x="552" 
d="M492 691v-691h-162l-175 566q8 -72 12.5 -132.5t4.5 -143.5v-352q0 -75 -41 -115t-106 -40q-63 0 -113 40l46 68q16 -10 28.5 -14t28.5 -4q45 0 45 57v761h161l175 -566q-6 36 -11.5 102t-5.5 134v330h113z" />
    <glyph glyph-name="uni019E" unicode="&#x19e;" horiz-adv-x="481" 
d="M394 502q33 -41 33 -110v-609l-123 14v581q0 38 -10.5 54.5t-30.5 16.5q-42 0 -83 -79v-370h-123v529h107l9 -69q27 42 57.5 62.5t73.5 20.5q57 0 90 -41z" />
    <glyph glyph-name="uni019F" unicode="&#x19f;" horiz-adv-x="578" 
d="M477 616q66 -89 66 -270q0 -179 -66 -270t-188 -91q-121 0 -187.5 90t-66.5 270q0 178 66.5 269t187.5 91q122 0 188 -89zM200 558.5q-31 -50.5 -36 -167.5h251q-4 117 -35 167.5t-91 50.5q-58 0 -89 -50.5zM381.5 134.5q30.5 51.5 34.5 176.5h-253q4 -124 35 -176
t91 -52q62 0 92.5 51.5z" />
    <glyph glyph-name="Ohorn" unicode="&#x1a0;" horiz-adv-x="609" 
d="M501 575q42 -89 42 -229q0 -179 -66 -270t-188 -91q-121 0 -187.5 90t-66.5 270q0 178 66.5 269t187.5 91q109 0 173 -71q21 3 30.5 15t9.5 36q0 39 -12 73l80 15q16 -40 16 -88q0 -91 -85 -110zM380.5 142q29.5 59 29.5 204q0 142 -30 202.5t-91 60.5t-90.5 -61
t-29.5 -203q0 -143 30 -202.5t90 -59.5q62 0 91.5 59z" />
    <glyph glyph-name="ohorn" unicode="&#x1a1;" horiz-adv-x="517" 
d="M434 410q22 -57 22 -145q0 -132 -56 -206t-155 -74t-155 72.5t-56 207.5q0 134 56 206t155 72q102 0 156 -70q20 3 28.5 14t8.5 34q0 40 -12 74l80 15q16 -42 16 -88q0 -93 -88 -112zM308 121.5q20 42.5 20 143.5t-20 143t-63 42t-63 -42.5t-20 -142.5q0 -101 20 -143.5
t63 -42.5t63 42.5z" />
    <glyph glyph-name="uni01A2" unicode="&#x1a2;" horiz-adv-x="787" 
d="M685 663q43 -43 43 -121v-747h-128v753q0 66 -50 66q-30 0 -60 -18q53 -90 53 -250q0 -179 -66 -270t-188 -91q-121 0 -187.5 90t-66.5 270q0 178 66.5 269t187.5 91q86 0 145 -45q30 23 62.5 34.5t71.5 11.5q74 0 117 -43zM380.5 142q29.5 59 29.5 204q0 142 -30 202.5
t-91 60.5t-90.5 -61t-29.5 -203q0 -143 30 -202.5t90 -59.5q62 0 91.5 59z" />
    <glyph glyph-name="uni01A3" unicode="&#x1a3;" horiz-adv-x="681" 
d="M582.5 501q40.5 -42 40.5 -122v-596l-123 14v591q0 63 -47 63q-19 0 -37 -7q36 -69 36 -179q0 -132 -55.5 -206t-153.5 -74t-153.5 72.5t-55.5 207.5q0 134 55.5 206t154.5 72q68 0 113 -32q27 17 53.5 24.5t59.5 7.5q72 0 112.5 -42zM305 121.5q20 42.5 20 143.5
q0 100 -20 142.5t-61 42.5q-42 0 -62 -42.5t-20 -142.5q0 -101 19.5 -143.5t61.5 -42.5t62 42.5z" />
    <glyph glyph-name="uni01A4" unicode="&#x1a4;" horiz-adv-x="597" 
d="M516.5 635.5q65.5 -55.5 65.5 -163.5q0 -115 -64.5 -172t-182.5 -57h-40v-243h-127v597h-20q-43 0 -43 -46q0 -31 18 -72l-80 -37q-18 29 -28 56.5t-10 63.5q0 59 37.5 94t109.5 35h174q125 0 190.5 -55.5zM422 368q29 30 29 103q0 66 -29 96t-93 30h-34v-259h33
q65 0 94 30z" />
    <glyph glyph-name="uni01A5" unicode="&#x1a5;" horiz-adv-x="494" 
d="M419 471.5q40 -71.5 40 -205.5q0 -130 -45.5 -205.5t-126.5 -75.5q-64 0 -107 57v-245l-123 -14v816q0 68 42.5 111.5t120.5 43.5q62 0 117 -30l-35 -80q-35 16 -67 16q-29 0 -42 -15t-13 -48v-119q25 33 54.5 49t66.5 16q78 0 118 -71.5zM312 122.5q20 43.5 20 142.5
q0 104 -17 145t-53 41q-46 0 -82 -66v-256q32 -50 74 -50q38 0 58 43.5z" />
    <glyph glyph-name="uni01A6" unicode="&#x1a6;" horiz-adv-x="515" 
d="M374 -119l-122 279h-12h-53v-160h-127v691h127v-119h40q250 0 250 -203q0 -63 -27.5 -111t-83.5 -74l145 -303h-137zM319 280q26 28 26 89q0 56 -27.5 82.5t-90.5 27.5h-40v-227h46q60 0 86 28z" />
    <glyph glyph-name="uni01A7" unicode="&#x1a7;" horiz-adv-x="457" 
d="M383 655q54 -50 54 -134q0 -76 -41 -122t-134 -81q-61 -23 -83.5 -52.5t-22.5 -78.5t24.5 -75.5t67.5 -26.5q39 0 71.5 16t67.5 47l63 -69q-83 -93 -210 -93q-66 0 -115 26t-75.5 72.5t-26.5 107.5q0 85 40.5 132t126.5 81q67 25 91 51t24 71q0 41 -20 61.5t-57 20.5
q-35 0 -65.5 -13.5t-61.5 -41.5l-60 67q84 84 198 84q90 0 144 -50z" />
    <glyph glyph-name="uni01A8" unicode="&#x1a8;" horiz-adv-x="390" 
d="M323 500.5q46 -42.5 46 -108.5q0 -61 -31.5 -96.5t-98.5 -58.5q-40 -15 -59.5 -27t-26.5 -27t-7 -38q0 -33 18.5 -50.5t50.5 -17.5q55 0 107 47l61 -65q-33 -34 -79.5 -53.5t-100.5 -19.5q-80 0 -131.5 43t-51.5 120q0 63 34 99.5t103 59.5q54 18 72 36.5t18 52.5
q0 26 -15.5 41t-42.5 15t-52 -9.5t-53 -28.5l-48 66q73 62 162 62q79 0 125 -42.5z" />
    <glyph glyph-name="uni01A9" unicode="&#x1a9;" horiz-adv-x="413" 
d="M394 691v-97h-243l151 -222v-62l-154 -212h246v-98h-374v96l173 244l-173 255v96h374z" />
    <glyph glyph-name="uni01AA" unicode="&#x1aa;" horiz-adv-x="326" 
d="M416 -177q-47 -40 -116 -40t-111.5 39t-42.5 111v525q-23 -10 -48 -10q-57 0 -93 40.5t-36 111.5q0 72 39 113t107 41q72 0 113 -41.5t41 -111.5v-672q0 -53 46 -53q16 0 28.5 4t27.5 14zM146 542v66q0 31 -8 44t-26 13t-27 -15t-9 -48q0 -36 10 -50.5t32 -14.5
q13 0 28 5z" />
    <glyph glyph-name="uni01AB" unicode="&#x1ab;" horiz-adv-x="317" 
d="M323 25v-92q0 -72 -42.5 -111t-111.5 -39t-116 40l45 70q32 -19 61 -19q26 0 41 14.5t15 44.5v53q-5 -1 -15 -1q-65 0 -99 39.5t-34 106.5v309h-62v89h62v117l123 15v-132h100l-12 -89h-88v-311q0 -49 42 -49q13 0 24 2.5t28 8.5l38 -66h1z" />
    <glyph glyph-name="uni01AC" unicode="&#x1ac;" horiz-adv-x="484" 
d="M470 590h-142v-590h-128v590h-53q-41 0 -41 -44q0 -32 15 -64l-83 -40q-33 54 -33 113q0 64 40.5 100t112.5 36h324z" />
    <glyph glyph-name="uni01AD" unicode="&#x1ad;" horiz-adv-x="317" 
d="M323 24q-49 -39 -115 -39q-69 0 -105 39.5t-36 107.5v308h-62v89h62v75q0 67 39 108.5t109 41.5q56 0 107 -37l-38 -71q-17 10 -28 14t-25 4q-20 0 -30.5 -13t-10.5 -38v-84h100l-12 -89h-88v-308q0 -48 43 -48q12 0 21.5 3.5t25.5 12.5z" />
    <glyph glyph-name="uni01AE" unicode="&#x1ae;" horiz-adv-x="444" 
d="M354 -117q12 4 28 13l46 -73q-50 -40 -115 -40q-71 0 -114 39.5t-43 115.5v653h-148v100h431l-14 -100h-142v-659q0 -53 43 -53q16 0 28 4z" />
    <glyph glyph-name="Uhorn" unicode="&#x1af;" horiz-adv-x="596" 
d="M574.5 601.5q-30.5 -28.5 -87.5 -31.5v-376q0 -91 -56.5 -149.5t-161.5 -58.5q-107 0 -163 57.5t-56 150.5v497h127v-491q0 -58 22 -86.5t70 -28.5q47 0 69 28.5t22 86.5v491h127v-56q18 4 26 16t8 34q0 39 -12 73l80 15q16 -40 16 -88q0 -55 -30.5 -83.5z" />
    <glyph glyph-name="uhorn" unicode="&#x1b0;" horiz-adv-x="524" 
d="M539 522q0 -108 -119 -116v-406h-107l-6 67q-25 -41 -56 -61.5t-72 -20.5q-58 0 -91.5 41t-33.5 107v396h123v-389q0 -62 42 -62q24 0 43 18.5t35 52.5v380h123v-56q19 4 27 15t8 33q0 40 -12 74l80 15q16 -42 16 -88z" />
    <glyph glyph-name="uni01B1" unicode="&#x1b1;" horiz-adv-x="566" 
d="M95.5 68q-66.5 82 -66.5 234q0 110 28 178t80 115h-90v96h190v-92q-38 -52 -56 -118t-18 -179q0 -117 29.5 -168t90.5 -51t91 51t30 169q0 111 -18.5 177.5t-55.5 118.5v92h190v-96h-91q52 -43 80 -111.5t28 -180.5q0 -149 -67.5 -233t-186.5 -84q-121 0 -187.5 82z" />
    <glyph glyph-name="uni01B2" unicode="&#x1b2;" horiz-adv-x="537" 
d="M455.5 671.5q31.5 -33.5 31.5 -97.5v-305q0 -88 -29 -151.5t-82.5 -97.5t-123.5 -34q-62 0 -108 25.5t-70 71t-24 102.5v506h127v-507q0 -48 20 -73.5t57 -25.5q49 0 77.5 46t28.5 132v311q0 36 -26 36q-12 0 -24 -5l-20 85q37 15 76 15q58 0 89.5 -33.5z" />
    <glyph glyph-name="uni01B3" unicode="&#x1b3;" horiz-adv-x="510" 
d="M177 262l-182 429h135l113 -324l69 216q20 65 51 93.5t83 28.5q31 0 54.5 -9.5t45.5 -27.5l-36 -70q-12 8 -22 11.5t-23 3.5q-19 0 -30 -11.5t-22 -43.5l-108 -296v-262h-128v262z" />
    <glyph glyph-name="uni01B4" unicode="&#x1b4;" horiz-adv-x="429" 
d="M37 -130q63 13 94.5 41.5t49.5 88.5h-46l-134 529h125l88 -447l73 384q11 60 36.5 86.5t74.5 26.5q37 0 69 -16l-23 -78q-12 5 -24 5q-24 0 -31 -32l-99 -460q-20 -94 -80.5 -149.5t-158.5 -65.5z" />
    <glyph glyph-name="uni01B5" unicode="&#x1b5;" horiz-adv-x="440" 
d="M146 104h274l-12 -104h-393v94l114 207h-72v88h120l110 200h-246v102h376v-95l-114 -207h73v-88h-121z" />
    <glyph glyph-name="uni01B6" unicode="&#x1b6;" horiz-adv-x="375" 
d="M137 94h222l-10 -94h-336v86l86 138h-57v82h109l81 130h-201v93h325v-86l-86 -137h64v-82h-115z" />
    <glyph glyph-name="uni01B7" unicode="&#x1b7;" horiz-adv-x="439" 
d="M420 201q0 -96 -59 -155.5t-163 -59.5q-67 0 -114 24t-82 72l71 60q28 -31 54 -44.5t62 -13.5q48 0 73.5 31t25.5 91q0 61 -26.5 86.5t-82.5 25.5h-76v79l160 197h-229v97h358v-94l-162 -198q190 -9 190 -198z" />
    <glyph glyph-name="uni01B8" unicode="&#x1b8;" horiz-adv-x="439" 
d="M437 82q-36 -48 -84 -72t-113 -24q-103 0 -162 58t-59 154q0 191 191 201l-163 198v94h358v-97h-228l160 -197v-79h-77q-56 0 -82.5 -27t-26.5 -90q0 -58 24 -87.5t71 -29.5q37 0 64 13.5t56 44.5z" />
    <glyph glyph-name="uni01B9" unicode="&#x1b9;" horiz-adv-x="412" 
d="M423 -121q-33 -47 -80 -71.5t-112 -24.5q-100 0 -158 60.5t-58 160.5q0 95 48 147.5t138 57.5l-160 232v88h351v-95h-222l153 -226v-78h-70q-57 0 -83.5 -29.5t-26.5 -93.5q0 -128 96 -128q34 0 60 14.5t57 46.5z" />
    <glyph glyph-name="uni01BA" unicode="&#x1ba;" horiz-adv-x="413" 
d="M56.5 -155.5q-33.5 36.5 -33.5 82.5q0 50 33.5 79t103.5 44q61 12 85 30t24 58q0 31 -16.5 45t-51.5 14h-110v76l146 164h-219v92h350v-85l-153 -168h24q72 0 114 -36t42 -103q0 -74 -43.5 -113t-119.5 -55q-40 -9 -60 -16t-27.5 -15.5t-7.5 -22.5q0 -17 10.5 -31
t32.5 -29l-29 -73q-61 26 -94.5 62.5z" />
    <glyph glyph-name="uni01BB" unicode="&#x1bb;" horiz-adv-x="422" 
d="M269 247q-41 -55 -120 -149h238l-13 -98h-356v91q80 100 121 156h-87v88h147q28 47 39 83.5t11 76.5q0 46 -20 69.5t-55 23.5q-29 0 -51.5 -15.5t-49.5 -51.5l-73 55q71 109 186 109q59 0 102 -24t65 -65.5t22 -93.5q0 -43 -11 -82.5t-37 -84.5h60v-88h-118z" />
    <glyph glyph-name="uni01BC" unicode="&#x1bc;" horiz-adv-x="446" 
d="M377 600h-210v-181q42 26 87 26q72 0 117 -57.5t45 -163.5q0 -71 -27 -125.5t-76.5 -84t-114.5 -29.5q-60 0 -103.5 24t-80.5 70l69 62q26 -30 51 -45t59 -15q47 0 72.5 35.5t25.5 107.5q0 74 -22 103.5t-62 29.5q-20 0 -36.5 -5.5t-35.5 -18.5h-84v358h340z" />
    <glyph glyph-name="uni01BD" unicode="&#x1bd;" horiz-adv-x="392" 
d="M323 436h-164v-108q31 18 72 18q58 0 96.5 -45.5t38.5 -126.5q0 -87 -51.5 -137.5t-136.5 -50.5q-53 0 -90.5 19t-71.5 56l66 66q27 -25 46.5 -34.5t44.5 -9.5q70 0 70 92q0 83 -56 83q-29 0 -56 -19h-81v290h290z" />
    <glyph glyph-name="uni01BE" unicode="&#x1be;" horiz-adv-x="424" 
d="M356 356q34 -48 34 -140q0 -110 -55.5 -170t-149.5 -60q-54 0 -97.5 22t-82.5 66l61 61q28 -28 52.5 -41.5t55.5 -13.5q89 0 89 138q0 70 -24.5 105t-76.5 52l-47 14v149h-57v80h57v122l123 13v-135h82v-80h-82v-103l24 -9q60 -22 94 -70z" />
    <glyph glyph-name="uni01BF" unicode="&#x1bf;" horiz-adv-x="494" 
d="M417 492.5q42 -50.5 42 -139.5q0 -82 -28 -141.5t-75 -102t-122 -87.5l-54 -33v-192l-123 -14v746h109l5 -60q31 36 64.5 55t73.5 19q66 0 108 -50.5zM303 214q29 57 29 137q0 100 -60 100q-26 0 -47.5 -14.5t-44.5 -42.5v-312l34 27q60 48 89 105z" />
    <glyph glyph-name="uni01C0" unicode="&#x1c0;" horiz-adv-x="226" 
d="M167 752v-752h-107v741z" />
    <glyph glyph-name="uni01C1" unicode="&#x1c1;" horiz-adv-x="395" 
d="M167 752v-752h-107v741zM336 752v-752h-107v741z" />
    <glyph glyph-name="uni01C2" unicode="&#x1c2;" horiz-adv-x="271" 
d="M264 403h-74v-76h74v-75h-74v-252h-107v252h-77v75h77v76h-77v75h77v263l107 11v-274h74v-75z" />
    <glyph glyph-name="uni01C3" unicode="&#x1c3;" horiz-adv-x="271" 
d="M190 752v-530h-107v519zM190.5 118q21.5 -23 21.5 -55t-21.5 -55t-55.5 -23q-33 0 -54 23t-21 55t21 55t54 23q34 0 55.5 -23z" />
    <glyph glyph-name="uni01C4" unicode="&#x1c4;" horiz-adv-x="957" 
d="M364.5 664.5q63.5 -26.5 103 -102t39.5 -213.5q0 -195 -77.5 -272t-202.5 -77h-167v691h154q87 0 150.5 -26.5zM187 596v-501h47q45 0 75.5 21t48 77t17.5 156q0 102 -18.5 156t-49 72.5t-74.5 18.5h-46zM934 691v-99l-264 -488h267l-12 -104h-393v98l265 491h-239v102
h376zM851 922l44 -47l-115 -123h-75l-115 123l45 47l108 -82z" />
    <glyph glyph-name="uni01C5" unicode="&#x1c5;" horiz-adv-x="907" 
d="M364.5 664.5q63.5 -26.5 103 -102t39.5 -213.5q0 -195 -77.5 -272t-202.5 -77h-167v691h154q87 0 150.5 -26.5zM187 596v-501h47q45 0 75.5 21t48 77t17.5 156q0 102 -18.5 156t-49 72.5t-74.5 18.5h-46zM888 529v-89l-211 -343h215l-11 -97h-336v89l211 343h-193v97h325
zM832 796l44 -48l-115 -128h-75l-115 128l44 48l109 -91z" />
    <glyph glyph-name="uni01C6" unicode="&#x1c6;" horiz-adv-x="871" 
d="M439 741v-741h-109l-6 61q-47 -76 -121 -76q-82 0 -125.5 73.5t-43.5 205.5q0 84 22.5 147.5t62.5 97.5t92 34q64 0 105 -53v264zM279.5 94q18.5 16 36.5 46v257q-32 54 -73 54q-81 0 -81 -186q0 -101 20 -144t56 -43q23 0 41.5 16zM852 529v-89l-211 -343h215l-11 -97
h-336v89l211 343h-193v97h325zM796 796l44 -48l-115 -128h-75l-115 128l44 48l109 -91z" />
    <glyph glyph-name="uni01C7" unicode="&#x1c7;" horiz-adv-x="657" 
d="M187 691v-586h223l-14 -105h-336v691h127zM600 100q0 -108 -47 -163.5t-132 -88.5l-34 90q37 18 55 38.5t24 49.5t6 79v586h128v-591z" />
    <glyph glyph-name="uni01C8" unicode="&#x1c8;" horiz-adv-x="639" 
d="M187 691v-586h223l-14 -105h-336v691h127zM582 25q0 -67 -20.5 -112t-57 -74t-92.5 -55l-42 88q32 19 50.5 36t28.5 44.5t10 71.5v505h123v-504zM573.5 772q20.5 -21 20.5 -54q0 -32 -20.5 -53t-53.5 -21t-53.5 21t-20.5 53q0 33 20.5 54t53.5 21t53.5 -21z" />
    <glyph glyph-name="uni01C9" unicode="&#x1c9;" horiz-adv-x="486" 
d="M83.5 18.5q-31.5 33.5 -31.5 89.5v633l123 13v-641q0 -13 6 -21t18 -8q7 0 13.5 2t8.5 2l24 -84q-34 -19 -76 -19q-54 0 -85.5 33.5zM429 25q0 -67 -20.5 -112t-57 -74t-92.5 -55l-42 88q32 19 50.5 36t28.5 44.5t10 71.5v505h123v-504zM420.5 772q20.5 -21 20.5 -54
q0 -32 -20.5 -53t-53.5 -21t-53.5 21t-20.5 53q0 33 20.5 54t53.5 21t53.5 -21z" />
    <glyph glyph-name="uni01CA" unicode="&#x1ca;" horiz-adv-x="813" 
d="M492 0h-162l-175 566q8 -72 12.5 -132.5t4.5 -143.5v-290h-112v691h161l175 -566q-6 36 -11.5 102t-5.5 134v330h113v-691zM756 100q0 -108 -47 -163.5t-132 -88.5l-34 90q37 18 55 38.5t24 49.5t6 79v586h128v-591z" />
    <glyph glyph-name="uni01CB" unicode="&#x1cb;" horiz-adv-x="789" 
d="M492 0h-162l-175 566q8 -72 12.5 -132.5t4.5 -143.5v-290h-112v691h161l175 -566q-6 36 -11.5 102t-5.5 134v330h113v-691zM732 25q0 -67 -20.5 -112t-57 -74t-92.5 -55l-42 88q32 19 50.5 36t28.5 44.5t10 71.5v505h123v-504zM723.5 772q20.5 -21 20.5 -54
q0 -32 -20.5 -53t-53.5 -21t-53.5 21t-20.5 53q0 33 20.5 54t53.5 21t53.5 -21z" />
    <glyph glyph-name="uni01CC" unicode="&#x1cc;" horiz-adv-x="718" 
d="M394 502q33 -41 33 -110v-392h-123v378q0 38 -10.5 54.5t-30.5 16.5q-42 0 -83 -79v-370h-123v529h107l9 -69q27 42 57.5 62.5t73.5 20.5q57 0 90 -41zM661 25q0 -67 -20.5 -112t-57 -74t-92.5 -55l-42 88q32 19 50.5 36t28.5 44.5t10 71.5v505h123v-504zM652.5 772
q20.5 -21 20.5 -54q0 -32 -20.5 -53t-53.5 -21t-53.5 21t-20.5 53q0 33 20.5 54t53.5 21t53.5 -21z" />
    <glyph glyph-name="uni01CD" unicode="&#x1cd;" horiz-adv-x="497" 
d="M370 0l-34 162h-178l-33 -162h-127l174 691h154l173 -691h-129zM178 258h139l-70 336zM357 922l44 -47l-115 -123h-75l-115 123l45 47l108 -82z" />
    <glyph glyph-name="uni01CE" unicode="&#x1ce;" horiz-adv-x="454" 
d="M402 89.5q7 -12.5 23 -20.5l-25 -82q-41 5 -65.5 22t-36.5 52q-46 -76 -129 -76q-66 0 -105 44.5t-39 118.5q0 86 53.5 131t155.5 45h41v37q0 50 -17.5 70.5t-56.5 20.5q-47 0 -117 -26l-28 80q40 18 83 27.5t82 9.5q174 0 174 -176v-239q0 -26 7 -38.5zM275 140v111h-29
q-51 0 -74.5 -23t-23.5 -71q0 -41 14 -62t40 -21q48 0 73 66zM329 796l44 -48l-115 -128h-75l-115 128l44 48l109 -91z" />
    <glyph glyph-name="uni01CF" unicode="&#x1cf;" horiz-adv-x="247" 
d="M187 691v-691h-127v691h127zM231 922l44 -47l-115 -123h-75l-115 123l45 47l108 -82z" />
    <glyph glyph-name="uni01D0" unicode="&#x1d0;" horiz-adv-x="237" 
d="M180 529v-529h-123v529h123zM227 796l44 -48l-115 -128h-75l-115 128l44 48l109 -91z" />
    <glyph glyph-name="uni01D1" unicode="&#x1d1;" horiz-adv-x="578" 
d="M477 616q66 -89 66 -270q0 -179 -66 -270t-188 -91q-121 0 -187.5 90t-66.5 270q0 178 66.5 269t187.5 91q122 0 188 -89zM198.5 548q-29.5 -61 -29.5 -203q0 -143 30 -202.5t90 -59.5q62 0 91.5 59t29.5 204q0 142 -30 202.5t-91 60.5t-90.5 -61zM397 922l44 -47
l-115 -123h-75l-115 123l45 47l108 -82z" />
    <glyph glyph-name="uni01D2" unicode="&#x1d2;" horiz-adv-x="490" 
d="M400.5 473q55.5 -70 55.5 -208q0 -132 -56 -206t-155 -74t-155 72.5t-56 207.5q0 134 56 206t155 72q100 0 155.5 -70zM182 407.5q-20 -42.5 -20 -142.5q0 -101 20 -143.5t63 -42.5t63 42.5t20 143.5t-20 143t-63 42t-63 -42.5zM353 796l44 -48l-115 -128h-75l-115 128
l44 48l109 -91z" />
    <glyph glyph-name="uni01D3" unicode="&#x1d3;" horiz-adv-x="537" 
d="M487 194q0 -91 -56.5 -149.5t-161.5 -58.5q-107 0 -163 57.5t-56 150.5v497h127v-491q0 -58 22 -86.5t70 -28.5q47 0 69 28.5t22 86.5v491h127v-497zM376 922l44 -47l-115 -123h-75l-115 123l45 47l108 -82z" />
    <glyph glyph-name="uni01D4" unicode="&#x1d4;" horiz-adv-x="477" 
d="M420 0h-107l-6 67q-25 -41 -56 -61.5t-72 -20.5q-58 0 -91.5 41t-33.5 107v396h123v-389q0 -62 42 -62q24 0 43 18.5t35 52.5v380h123v-529zM345 796l44 -48l-115 -128h-75l-115 128l44 48l109 -91z" />
    <glyph glyph-name="uni01D5" unicode="&#x1d5;" horiz-adv-x="537" 
d="M487 194q0 -91 -56.5 -149.5t-161.5 -58.5q-107 0 -163 57.5t-56 150.5v497h127v-491q0 -58 22 -86.5t70 -28.5q47 0 69 28.5t22 86.5v491h127v-497zM221.5 860.5q18.5 -19.5 18.5 -47.5q0 -29 -18.5 -48t-46.5 -19t-46.5 19t-18.5 48q0 28 18.5 47.5t46.5 19.5
t46.5 -19.5zM408.5 860.5q18.5 -19.5 18.5 -47.5q0 -29 -18.5 -48t-46.5 -19t-46.5 19t-18.5 48q0 28 18.5 47.5t46.5 19.5t46.5 -19.5zM392 926h-246v85h246v-85z" />
    <glyph glyph-name="uni01D6" unicode="&#x1d6;" horiz-adv-x="477" 
d="M420 0h-107l-6 67q-25 -41 -56 -61.5t-72 -20.5q-58 0 -91.5 41t-33.5 107v396h123v-389q0 -62 42 -62q24 0 43 18.5t35 52.5v380h123v-529zM190.5 727.5q18.5 -19.5 18.5 -47.5q0 -29 -18.5 -48t-46.5 -19t-46.5 19t-18.5 48q0 28 18.5 47.5t46.5 19.5t46.5 -19.5z
M377.5 727.5q18.5 -19.5 18.5 -47.5q0 -29 -18.5 -48t-46.5 -19t-46.5 19t-18.5 48q0 28 18.5 47.5t46.5 19.5t46.5 -19.5zM361 799h-246v85h246v-85z" />
    <glyph glyph-name="uni01D7" unicode="&#x1d7;" horiz-adv-x="537" 
d="M487 194q0 -91 -56.5 -149.5t-161.5 -58.5q-107 0 -163 57.5t-56 150.5v497h127v-491q0 -58 22 -86.5t70 -28.5q47 0 69 28.5t22 86.5v491h127v-497zM335 1053l75 -63l-135 -138l-49 41zM216.5 861.5q18.5 -19.5 18.5 -47.5q0 -29 -18.5 -48t-46.5 -19t-46.5 19t-18.5 48
q0 28 18.5 47.5t46.5 19.5t46.5 -19.5zM411 861.5q18 -19.5 18 -47.5q0 -29 -18 -48t-46 -19t-46.5 19t-18.5 48q0 28 18.5 47.5t46.5 19.5t46 -19.5z" />
    <glyph glyph-name="uni01D8" unicode="&#x1d8;" horiz-adv-x="477" 
d="M420 0h-107l-6 67q-25 -41 -56 -61.5t-72 -20.5q-58 0 -91.5 41t-33.5 107v396h123v-389q0 -62 42 -62q24 0 43 18.5t35 52.5v380h123v-529zM304 919l75 -63l-135 -138l-49 41zM185.5 727.5q18.5 -19.5 18.5 -47.5q0 -29 -18.5 -48t-46.5 -19t-46.5 19t-18.5 48
q0 28 18.5 47.5t46.5 19.5t46.5 -19.5zM380 727.5q18 -19.5 18 -47.5q0 -29 -18 -48t-46 -19t-46.5 19t-18.5 48q0 28 18.5 47.5t46.5 19.5t46 -19.5z" />
    <glyph glyph-name="uni01D9" unicode="&#x1d9;" horiz-adv-x="537" 
d="M487 194q0 -91 -56.5 -149.5t-161.5 -58.5q-107 0 -163 57.5t-56 150.5v497h127v-491q0 -58 22 -86.5t70 -28.5q47 0 69 28.5t22 86.5v491h127v-497zM377 1053l44 -47l-115 -123h-75l-115 123l45 47l108 -82zM217 861.5q18 -19.5 18 -47.5q0 -29 -18 -48t-46 -19
t-46.5 19t-18.5 48q0 28 18.5 47.5t46.5 19.5t46 -19.5zM411.5 861.5q18.5 -19.5 18.5 -47.5q0 -29 -18.5 -48t-46.5 -19t-46.5 19t-18.5 48q0 28 18.5 47.5t46.5 19.5t46.5 -19.5z" />
    <glyph glyph-name="uni01DA" unicode="&#x1da;" horiz-adv-x="477" 
d="M420 0h-107l-6 67q-25 -41 -56 -61.5t-72 -20.5q-58 0 -91.5 41t-33.5 107v396h123v-389q0 -62 42 -62q24 0 43 18.5t35 52.5v380h123v-529zM345 920l44 -47l-115 -123h-75l-115 123l45 47l108 -82zM186 727.5q18 -19.5 18 -47.5q0 -29 -18 -48t-47 -19q-28 0 -46.5 19
t-18.5 48q0 28 18.5 47.5t46.5 19.5q29 0 47 -19.5zM380.5 727.5q18.5 -19.5 18.5 -47.5q0 -29 -18.5 -48t-46.5 -19t-46.5 19t-18.5 48q0 28 18.5 47.5t46.5 19.5t46.5 -19.5z" />
    <glyph glyph-name="uni01DB" unicode="&#x1db;" horiz-adv-x="537" 
d="M487 194q0 -91 -56.5 -149.5t-161.5 -58.5q-107 0 -163 57.5t-56 150.5v497h127v-491q0 -58 22 -86.5t70 -28.5q47 0 69 28.5t22 86.5v491h127v-497zM209 1053l110 -160l-50 -41l-135 138zM216.5 861.5q18.5 -19.5 18.5 -47.5q0 -29 -18.5 -48t-46.5 -19t-46.5 19
t-18.5 48q0 28 18.5 47.5t46.5 19.5t46.5 -19.5zM411 861.5q18 -19.5 18 -47.5q0 -29 -18 -48t-46 -19t-46.5 19t-18.5 48q0 28 18.5 47.5t46.5 19.5t46 -19.5z" />
    <glyph glyph-name="uni01DC" unicode="&#x1dc;" horiz-adv-x="477" 
d="M420 0h-107l-6 67q-25 -41 -56 -61.5t-72 -20.5q-58 0 -91.5 41t-33.5 107v396h123v-389q0 -62 42 -62q24 0 43 18.5t35 52.5v380h123v-529zM173 919l110 -160l-50 -41l-135 138zM185.5 727.5q18.5 -19.5 18.5 -47.5q0 -29 -18.5 -48t-46.5 -19t-46.5 19t-18.5 48
q0 28 18.5 47.5t46.5 19.5t46.5 -19.5zM380 727.5q18 -19.5 18 -47.5q0 -29 -18 -48t-46 -19t-46.5 19t-18.5 48q0 28 18.5 47.5t46.5 19.5t46 -19.5z" />
    <glyph glyph-name="uni01DD" unicode="&#x1dd;" horiz-adv-x="466" 
d="M432 265q0 -135 -53 -207t-151 -72q-93 0 -146 66.5t-53 199.5q0 9 3 51h281q-3 82 -25.5 115t-65.5 33q-31 0 -57.5 -9.5t-55.5 -32.5l-50 69q70 65 166 65q207 0 207 -278zM289.5 107q20.5 31 23.5 116h-168v-7q0 -75 21 -107.5t62 -32.5t61.5 31z" />
    <glyph glyph-name="uni01DE" unicode="&#x1de;" horiz-adv-x="497" 
d="M370 0l-34 162h-178l-33 -162h-127l174 691h154l173 -691h-129zM178 258h139l-70 336zM202.5 860.5q18.5 -19.5 18.5 -47.5q0 -29 -18.5 -48t-46.5 -19t-46.5 19t-18.5 48q0 28 18.5 47.5t46.5 19.5t46.5 -19.5zM389.5 860.5q18.5 -19.5 18.5 -47.5q0 -29 -18.5 -48
t-46.5 -19t-46.5 19t-18.5 48q0 28 18.5 47.5t46.5 19.5t46.5 -19.5zM373 926h-246v85h246v-85z" />
    <glyph glyph-name="uni01DF" unicode="&#x1df;" horiz-adv-x="454" 
d="M402 89.5q7 -12.5 23 -20.5l-25 -82q-41 5 -65.5 22t-36.5 52q-46 -76 -129 -76q-66 0 -105 44.5t-39 118.5q0 86 53.5 131t155.5 45h41v37q0 50 -17.5 70.5t-56.5 20.5q-47 0 -117 -26l-28 80q40 18 83 27.5t82 9.5q174 0 174 -176v-239q0 -26 7 -38.5zM275 140v111h-29
q-51 0 -74.5 -23t-23.5 -71q0 -41 14 -62t40 -21q48 0 73 66zM174.5 727.5q18.5 -19.5 18.5 -47.5q0 -29 -18.5 -48t-46.5 -19t-46.5 19t-18.5 48q0 28 18.5 47.5t46.5 19.5t46.5 -19.5zM361.5 727.5q18.5 -19.5 18.5 -47.5q0 -29 -18.5 -48t-46.5 -19t-46.5 19t-18.5 48
q0 28 18.5 47.5t46.5 19.5t46.5 -19.5zM345 799h-246v85h246v-85z" />
    <glyph glyph-name="uni01E0" unicode="&#x1e0;" horiz-adv-x="497" 
d="M370 0l-34 162h-178l-33 -162h-127l174 691h154l173 -691h-129zM178 258h139l-70 336zM301.5 867q20.5 -21 20.5 -54q0 -32 -20.5 -53t-53.5 -21t-53.5 21t-20.5 53q0 33 20.5 54t53.5 21t53.5 -21zM372 927h-246v85h246v-85z" />
    <glyph glyph-name="uni01E1" unicode="&#x1e1;" horiz-adv-x="454" 
d="M402 89.5q7 -12.5 23 -20.5l-25 -82q-41 5 -65.5 22t-36.5 52q-46 -76 -129 -76q-66 0 -105 44.5t-39 118.5q0 86 53.5 131t155.5 45h41v37q0 50 -17.5 70.5t-56.5 20.5q-47 0 -117 -26l-28 80q40 18 83 27.5t82 9.5q174 0 174 -176v-239q0 -26 7 -38.5zM275 140v111h-29
q-51 0 -74.5 -23t-23.5 -71q0 -41 14 -62t40 -21q48 0 73 66zM273.5 728q20.5 -21 20.5 -54q0 -32 -20.5 -53t-53.5 -21t-53.5 21t-20.5 53q0 33 20.5 54t53.5 21t53.5 -21zM344 790h-246v85h246v-85z" />
    <glyph glyph-name="uni01E2" unicode="&#x1e2;" horiz-adv-x="690" 
d="M474 96h189v-96h-296l-23 162h-182l-45 -162h-133l223 691h424l-13 -95h-225l32 -199h199v-94h-184zM188 257h142l-49 338zM519 789h-246v85h246v-85z" />
    <glyph glyph-name="uni01E3" unicode="&#x1e3;" horiz-adv-x="708" 
d="M676 226h-272q5 -79 31 -113t71 -34q27 0 51.5 10.5t52.5 33.5l52 -68q-72 -70 -167 -70q-57 0 -99.5 23.5t-70.5 67.5q-57 -91 -149 -91q-69 0 -110 45t-41 118q0 83 55 128t158 45h41v35q0 53 -17 74.5t-58 21.5q-45 0 -115 -27l-28 81q85 37 162 37q50 0 81.5 -18
t49.5 -53q53 71 138 71q87 0 136.5 -68t49.5 -198q0 -23 -2 -51zM560 313q0 74 -18.5 109t-56.5 35q-37 0 -57 -35.5t-24 -115.5h156v7zM254.5 94q20.5 19 38.5 59q-11 44 -12 94v1h-30q-99 0 -99 -93q0 -80 56 -80q26 0 46.5 19zM476 663h-246v85h246v-85z" />
    <glyph glyph-name="uni01E4" unicode="&#x1e4;" horiz-adv-x="549" 
d="M553 175h-59v-123q-44 -31 -96 -48.5t-109 -17.5q-254 0 -254 360q0 116 35.5 196.5t96.5 121.5t136 41q59 0 104.5 -20.5t84.5 -59.5l-66 -69q-29 28 -55.5 40.5t-60.5 12.5q-65 0 -103.5 -62.5t-38.5 -200.5q0 -143 30 -203t94 -60q47 0 89 27v65h-86v80h86v56h-88
l-11 87h212v-143h59v-80z" />
    <glyph glyph-name="uni01E5" unicode="&#x1e5;" horiz-adv-x="445" 
d="M483 -89h-50q-15 -59 -71.5 -93.5t-149.5 -34.5q-114 0 -159.5 42t-45.5 123h109q0 -44 20.5 -62t80.5 -18q48 0 73.5 10.5t34.5 32.5h-100v65h99q-18 38 -88 38h-38q-146 0 -146 95q0 27 14.5 51.5t39.5 43.5q-41 26 -60 62t-19 88q0 87 52 137.5t140 50.5
q65 0 107.5 14t89.5 41l31 -95q-21 -10 -50.5 -14t-73.5 -4q42 -20 62.5 -53.5t20.5 -82.5q0 -80 -49 -129t-133 -49q-25 0 -51 8q-18 -15 -18 -41q0 -20 11 -30t41 -10h56q72 0 117.5 -33.5t54.5 -87.5h48v-65zM166 435q-18 -25 -18 -79q0 -51 18 -78.5t52 -27.5
q35 0 52 24.5t17 82.5q0 54 -16.5 78.5t-51.5 24.5t-53 -25z" />
    <glyph glyph-name="Gcaron" unicode="&#x1e6;" horiz-adv-x="538" 
d="M407 684.5q45 -20.5 85 -59.5l-64 -66q-31 27 -58 38.5t-61 11.5q-66 0 -103.5 -59t-37.5 -204q0 -102 13.5 -159.5t40 -80.5t69.5 -23q45 0 82 25v187h-78l-13 95h212v-338q-43 -31 -95.5 -48.5t-106.5 -17.5q-129 0 -193 87.5t-64 272.5q0 120 35.5 200.5t96.5 119.5
t138 39q57 0 102 -20.5zM402 922l44 -47l-115 -123h-75l-115 123l45 47l108 -82z" />
    <glyph glyph-name="gcaron" unicode="&#x1e7;" horiz-adv-x="445" 
d="M447 502q-21 -10 -50.5 -14t-73.5 -4q42 -20 62.5 -53.5t20.5 -82.5q0 -80 -49 -129t-133 -49q-25 0 -51 8q-18 -15 -18 -41q0 -20 11 -30t41 -10h56q80 0 127 -41.5t47 -105.5q0 -76 -58.5 -121.5t-166.5 -45.5q-114 0 -159.5 42t-45.5 123h109q0 -43 20 -61t77 -18
q55 0 78 19t23 54q0 34 -19 50t-59 16h-38q-76 0 -111 27t-35 74q0 27 14.5 51.5t39.5 43.5q-41 26 -60 62t-19 88q0 87 52 137.5t140 50.5q65 0 107.5 14t89.5 41zM166 435q-18 -25 -18 -79q0 -51 18 -78.5t52 -27.5q35 0 52 24.5t17 82.5q0 54 -16.5 78.5t-51.5 24.5
t-53 -25zM332 796l44 -48l-115 -128h-75l-115 128l44 48l109 -91z" />
    <glyph glyph-name="uni01E8" unicode="&#x1e8;" horiz-adv-x="519" 
d="M187 691v-691h-127v691h127zM511 691l-188 -313l203 -378h-140l-194 369l190 322h129zM380 922l44 -47l-115 -123h-75l-115 123l45 47l108 -82z" />
    <glyph glyph-name="uni01E9" unicode="&#x1e9;" horiz-adv-x="453" 
d="M180 754v-754h-123v741zM447 529l-140 -234l152 -295h-132l-142 289l142 240h120zM353 972l44 -47l-115 -123h-75l-115 123l45 47l108 -82z" />
    <glyph glyph-name="uni01EA" unicode="&#x1ea;" horiz-adv-x="578" 
d="M302 -54q-20 -26 -20 -56q0 -47 45 -47q16 0 48 7l-8 -80q-29 -8 -56 -8q-54 0 -87 29t-33 79q0 70 63 117q-105 12 -162 101.5t-57 256.5q0 178 66.5 269t187.5 91q122 0 188 -89t66 -270q0 -143 -43 -230.5t-124 -116.5q-54 -27 -74 -53zM199 142.5q30 -59.5 90 -59.5
q62 0 91.5 59t29.5 204q0 142 -30 202.5t-91 60.5t-90.5 -61t-29.5 -203q0 -143 30 -202.5z" />
    <glyph glyph-name="uni01EB" unicode="&#x1eb;" horiz-adv-x="490" 
d="M245 -56q-19 -25 -19 -54q0 -47 45 -47q17 0 48 7l-8 -80q-29 -8 -56 -8q-54 0 -87 29t-33 79q0 71 65 119q-79 16 -122.5 86.5t-43.5 189.5q0 134 56 206t155 72q100 0 155.5 -70t55.5 -208q0 -106 -37 -175.5t-104 -93.5q-51 -27 -70 -52zM182 121.5q20 -42.5 63 -42.5
t63 42.5t20 143.5t-20 143t-63 42t-63 -42.5t-20 -142.5q0 -101 20 -143.5z" />
    <glyph glyph-name="uni01EC" unicode="&#x1ec;" horiz-adv-x="578" 
d="M412 874v-85h-246v85h246zM302 -54q-20 -26 -20 -56q0 -47 45 -47q16 0 48 7l-8 -80q-29 -8 -56 -8q-54 0 -87 29t-33 79q0 70 63 117q-105 12 -162 101.5t-57 256.5q0 178 66.5 269t187.5 91q122 0 188 -89t66 -270q0 -143 -43 -230.5t-124 -116.5q-54 -27 -74 -53z
M199 142.5q30 -59.5 90 -59.5q62 0 91.5 59t29.5 204q0 142 -30 202.5t-91 60.5t-90.5 -61t-29.5 -203q0 -143 30 -202.5z" />
    <glyph glyph-name="uni01ED" unicode="&#x1ed;" horiz-adv-x="490" 
d="M368 748v-85h-246v85h246zM245 -56q-19 -25 -19 -54q0 -47 45 -47q17 0 48 7l-8 -80q-29 -8 -56 -8q-54 0 -87 29t-33 79q0 71 65 119q-79 16 -122.5 86.5t-43.5 189.5q0 134 56 206t155 72q100 0 155.5 -70t55.5 -208q0 -106 -37 -175.5t-104 -93.5q-51 -27 -70 -52z
M182 121.5q20 -42.5 63 -42.5t63 42.5t20 143.5t-20 143t-63 42t-63 -42.5t-20 -142.5q0 -101 20 -143.5z" />
    <glyph glyph-name="uni01EE" unicode="&#x1ee;" horiz-adv-x="439" 
d="M420 201q0 -96 -59 -155.5t-163 -59.5q-67 0 -114 24t-82 72l71 60q28 -31 54 -44.5t62 -13.5q48 0 73.5 31t25.5 91q0 61 -26.5 86.5t-82.5 25.5h-76v79l160 197h-229v97h358v-94l-162 -198q190 -9 190 -198zM321 922l44 -47l-115 -123h-75l-115 123l45 47l108 -82z" />
    <glyph glyph-name="uni01EF" unicode="&#x1ef;" horiz-adv-x="412" 
d="M397 8q0 -66 -26 -117t-75 -79.5t-116 -28.5q-122 0 -191 96l67 61q32 -32 58 -46.5t59 -14.5q47 0 72 34t25 99q0 63 -26.5 90.5t-83.5 27.5h-70v78l153 226h-222v95h351v-88l-160 -232q185 -11 185 -201zM304 796l44 -48l-115 -128h-75l-115 128l44 48l109 -91z" />
    <glyph glyph-name="uni01F0" unicode="&#x1f0;" horiz-adv-x="237" 
d="M180 25q0 -67 -20.5 -112t-57 -74t-92.5 -55l-42 88q32 19 50.5 36t28.5 44.5t10 71.5v505h123v-504zM227 796l44 -48l-115 -128h-75l-115 128l44 48l109 -91z" />
    <glyph glyph-name="uni01F1" unicode="&#x1f1;" horiz-adv-x="957" 
d="M364.5 664.5q63.5 -26.5 103 -102t39.5 -213.5q0 -195 -77.5 -272t-202.5 -77h-167v691h154q87 0 150.5 -26.5zM187 596v-501h47q45 0 75.5 21t48 77t17.5 156q0 102 -18.5 156t-49 72.5t-74.5 18.5h-46zM934 691v-99l-264 -488h267l-12 -104h-393v98l265 491h-239v102
h376z" />
    <glyph glyph-name="uni01F2" unicode="&#x1f2;" horiz-adv-x="907" 
d="M364.5 664.5q63.5 -26.5 103 -102t39.5 -213.5q0 -195 -77.5 -272t-202.5 -77h-167v691h154q87 0 150.5 -26.5zM187 596v-501h47q45 0 75.5 21t48 77t17.5 156q0 102 -18.5 156t-49 72.5t-74.5 18.5h-46zM888 529v-89l-211 -343h215l-11 -97h-336v89l211 343h-193v97h325
z" />
    <glyph glyph-name="uni01F3" unicode="&#x1f3;" horiz-adv-x="871" 
d="M439 741v-741h-109l-6 61q-47 -76 -121 -76q-82 0 -125.5 73.5t-43.5 205.5q0 84 22.5 147.5t62.5 97.5t92 34q64 0 105 -53v264zM279.5 94q18.5 16 36.5 46v257q-32 54 -73 54q-81 0 -81 -186q0 -101 20 -144t56 -43q23 0 41.5 16zM852 529v-89l-211 -343h215l-11 -97
h-336v89l211 343h-193v97h325z" />
    <glyph glyph-name="uni01F4" unicode="&#x1f4;" horiz-adv-x="538" 
d="M407 684.5q45 -20.5 85 -59.5l-64 -66q-31 27 -58 38.5t-61 11.5q-66 0 -103.5 -59t-37.5 -204q0 -102 13.5 -159.5t40 -80.5t69.5 -23q45 0 82 25v187h-78l-13 95h212v-338q-43 -31 -95.5 -48.5t-106.5 -17.5q-129 0 -193 87.5t-64 272.5q0 120 35.5 200.5t96.5 119.5
t138 39q57 0 102 -20.5zM357 929l49 -94l-193 -82l-32 62z" />
    <glyph glyph-name="uni01F5" unicode="&#x1f5;" horiz-adv-x="445" 
d="M447 502q-21 -10 -50.5 -14t-73.5 -4q42 -20 62.5 -53.5t20.5 -82.5q0 -80 -49 -129t-133 -49q-25 0 -51 8q-18 -15 -18 -41q0 -20 11 -30t41 -10h56q80 0 127 -41.5t47 -105.5q0 -76 -58.5 -121.5t-166.5 -45.5q-114 0 -159.5 42t-45.5 123h109q0 -43 20 -61t77 -18
q55 0 78 19t23 54q0 34 -19 50t-59 16h-38q-76 0 -111 27t-35 74q0 27 14.5 51.5t39.5 43.5q-41 26 -60 62t-19 88q0 87 52 137.5t140 50.5q65 0 107.5 14t89.5 41zM166 435q-18 -25 -18 -79q0 -51 18 -78.5t52 -27.5q35 0 52 24.5t17 82.5q0 54 -16.5 78.5t-51.5 24.5
t-53 -25zM281 812l50 -91l-191 -90l-34 60z" />
    <glyph glyph-name="uni01F6" unicode="&#x1f6;" horiz-adv-x="789" 
d="M742 386q6 -62 6 -128q0 -144 -59.5 -208t-150.5 -64q-75 0 -123.5 43.5t-48.5 122.5v158h-179v-310h-127v691h127v-279h179v279h128v-538q0 -38 13 -56t39 -18q35 0 57 40t22 143q0 119 -22 267h121q12 -81 18 -143z" />
    <glyph glyph-name="uni01F7" unicode="&#x1f7;" horiz-adv-x="489" 
d="M395.5 682q36.5 -23 57.5 -66t21 -102q0 -74 -29 -126t-76.5 -87t-117.5 -68l-64 -30v-203h-127v691h127v-42q56 56 126 56q46 0 82.5 -23zM313.5 399q29.5 44 29.5 111q0 50 -18.5 75t-51.5 25q-47 0 -86 -44v-268l39 22q58 35 87.5 79z" />
    <glyph glyph-name="uni01F8" unicode="&#x1f8;" horiz-adv-x="552" 
d="M492 0h-162l-175 566q8 -72 12.5 -132.5t4.5 -143.5v-290h-112v691h161l175 -566q-6 36 -11.5 102t-5.5 134v330h113v-691zM212 928l177 -113l-32 -62l-193 82z" />
    <glyph glyph-name="uni01F9" unicode="&#x1f9;" horiz-adv-x="481" 
d="M394 502q33 -41 33 -110v-392h-123v378q0 38 -10.5 54.5t-30.5 16.5q-42 0 -83 -79v-370h-123v529h107l9 -69q27 42 57.5 62.5t73.5 20.5q57 0 90 -41zM189 812l175 -121l-34 -60l-191 90z" />
    <glyph glyph-name="Aringacute" unicode="&#x1fa;" horiz-adv-x="497" 
d="M370 0l-34 162h-178l-33 -162h-127l174 691h154l173 -691h-129zM178 258h139l-70 336zM329 928.5q30 -31.5 30 -85.5t-30 -86t-81 -32t-81 32t-30 86t30 85.5t81 31.5t81 -31.5zM219.5 885.5q-9.5 -12.5 -9.5 -42.5t9.5 -43t28.5 -13t29 13t10 43t-10 42.5t-29 12.5
t-28.5 -12.5zM312 1145l49 -94l-193 -82l-32 62z" />
    <glyph glyph-name="aringacute" unicode="&#x1fb;" horiz-adv-x="454" 
d="M334 907l-193 -82l-32 62l176 114zM140 784.5q30 31.5 81 31.5t81 -31.5t30 -85.5t-30 -86t-81 -32t-81 32t-30 86t30 85.5zM250 741.5q-10 12.5 -29 12.5t-28.5 -12.5t-9.5 -42.5t9.5 -43t28.5 -13t29 13t10 43t-10 42.5zM402 89.5q7 -12.5 23 -20.5l-25 -82
q-41 5 -65.5 22t-36.5 52q-46 -76 -129 -76q-66 0 -105 44.5t-39 118.5q0 86 53.5 131t155.5 45h41v37q0 50 -17.5 70.5t-56.5 20.5q-47 0 -117 -26l-28 80q40 18 83 27.5t82 9.5q174 0 174 -176v-239q0 -26 7 -38.5zM275 140v111h-29q-51 0 -74.5 -23t-23.5 -71
q0 -41 14 -62t40 -21q48 0 73 66z" />
    <glyph glyph-name="AEacute" unicode="&#x1fc;" horiz-adv-x="690" 
d="M474 96h189v-96h-296l-23 162h-182l-45 -162h-133l223 691h424l-13 -95h-225l32 -199h199v-94h-184zM188 257h142l-49 338zM459 929l49 -94l-193 -82l-32 62z" />
    <glyph glyph-name="aeacute" unicode="&#x1fd;" horiz-adv-x="708" 
d="M676 226h-272q5 -79 31 -113t71 -34q27 0 51.5 10.5t52.5 33.5l52 -68q-72 -70 -167 -70q-57 0 -99.5 23.5t-70.5 67.5q-57 -91 -149 -91q-69 0 -110 45t-41 118q0 83 55 128t158 45h41v35q0 53 -17 74.5t-58 21.5q-45 0 -115 -27l-28 81q85 37 162 37q50 0 81.5 -18
t49.5 -53q53 71 138 71q87 0 136.5 -68t49.5 -198q0 -23 -2 -51zM560 313q0 74 -18.5 109t-56.5 35q-37 0 -57 -35.5t-24 -115.5h156v7zM254.5 94q20.5 19 38.5 59q-11 44 -12 94v1h-30q-99 0 -99 -93q0 -80 56 -80q26 0 46.5 19zM410 812l50 -91l-191 -90l-34 60z" />
    <glyph glyph-name="Oslashacute" unicode="&#x1fe;" horiz-adv-x="578" 
d="M543 346q0 -179 -66 -269.5t-188 -90.5q-20 0 -40 3l-29 -119l-96 25l32 127q-121 80 -121 323q0 178 66.5 269t187.5 91q21 0 40 -3l30 121l96 -26l-34 -128q122 -80 122 -323zM193.5 549.5q-30.5 -60.5 -30.5 -204.5q0 -90 10.5 -145t31.5 -82l112 489q-13 3 -28 3
q-65 0 -95.5 -60.5zM404 492q-10 52 -31 80l-111 -489q16 -2 27 -2q44 0 71.5 26t40.5 86.5t13 164.5q0 82 -10 134zM350 953l49 -94l-193 -82l-32 62z" />
    <glyph glyph-name="oslashacute" unicode="&#x1ff;" horiz-adv-x="490" 
d="M456 265q0 -132 -56 -206t-155 -74q-10 0 -28 2l-31 -119l-91 25l35 127q-46 33 -71 95t-25 150q0 134 56 206t155 72q12 0 30 -2l32 120l90 -26l-36 -126q95 -66 95 -244zM172.5 409.5q-23.5 -42.5 -23.5 -144.5q0 -115 27 -156l86 342q-6 1 -17 1q-49 0 -72.5 -42.5z
M317.5 119.5q23.5 43.5 23.5 145.5q0 114 -27 154l-84 -342q5 -1 15 -1q49 0 72.5 43.5zM302 812l50 -91l-191 -90l-34 60z" />
    <glyph glyph-name="uni0200" unicode="&#x200;" horiz-adv-x="497" 
d="M370 0l-34 162h-178l-33 -162h-127l174 691h154l173 -691h-129zM178 258h139l-70 336zM140 968l76 -183l-61 -29l-98 168zM280 968l70 -180l-62 -27l-91 165z" />
    <glyph glyph-name="uni0201" unicode="&#x201;" horiz-adv-x="454" 
d="M402 89.5q7 -12.5 23 -20.5l-25 -82q-41 5 -65.5 22t-36.5 52q-46 -76 -129 -76q-66 0 -105 44.5t-39 118.5q0 86 53.5 131t155.5 45h41v37q0 50 -17.5 70.5t-56.5 20.5q-47 0 -117 -26l-28 80q40 18 83 27.5t82 9.5q174 0 174 -176v-239q0 -26 7 -38.5zM275 140v111h-29
q-51 0 -74.5 -23t-23.5 -71q0 -41 14 -62t40 -21q48 0 73 66zM121 842l76 -183l-61 -29l-98 168zM261 842l70 -180l-62 -27l-91 165z" />
    <glyph glyph-name="uni0202" unicode="&#x202;" horiz-adv-x="497" 
d="M370 0l-34 162h-178l-33 -162h-127l174 691h154l173 -691h-129zM178 258h139l-70 336zM347 896.5q36 -39.5 41 -112.5l-68 -13q-15 78 -71 78q-55 0 -70 -78l-68 13q5 73 40.5 112.5t97.5 39.5t98 -39.5z" />
    <glyph glyph-name="uni0203" unicode="&#x203;" horiz-adv-x="454" 
d="M402 89.5q7 -12.5 23 -20.5l-25 -82q-41 5 -65.5 22t-36.5 52q-46 -76 -129 -76q-66 0 -105 44.5t-39 118.5q0 86 53.5 131t155.5 45h41v37q0 50 -17.5 70.5t-56.5 20.5q-47 0 -117 -26l-28 80q40 18 83 27.5t82 9.5q174 0 174 -176v-239q0 -26 7 -38.5zM275 140v111h-29
q-51 0 -74.5 -23t-23.5 -71q0 -41 14 -62t40 -21q48 0 73 66zM319 734.5q36 -39.5 41 -112.5l-68 -13q-15 78 -71 78q-55 0 -70 -78l-68 13q5 73 40.5 112.5t97.5 39.5t98 -39.5z" />
    <glyph glyph-name="uni0204" unicode="&#x204;" horiz-adv-x="433" 
d="M403 691l-13 -95h-203v-198h177v-94h-177v-208h216v-96h-343v691h343zM124 968l76 -183l-61 -29l-98 168zM264 968l70 -180l-62 -27l-91 165z" />
    <glyph glyph-name="uni0205" unicode="&#x205;" horiz-adv-x="463" 
d="M431 226h-273q4 -82 28.5 -114.5t69.5 -32.5q31 0 56 10.5t54 33.5l51 -70q-70 -68 -168 -68q-104 0 -159.5 72t-55.5 203t53 207t150 76q93 0 145 -67.5t52 -198.5q0 -9 -3 -51zM314 313q0 75 -18 109.5t-58 34.5q-37 0 -56.5 -33.5t-23.5 -117.5h156v7zM137 842
l76 -183l-61 -29l-98 168zM277 842l70 -180l-62 -27l-91 165z" />
    <glyph glyph-name="uni0206" unicode="&#x206;" horiz-adv-x="433" 
d="M403 691l-13 -95h-203v-198h177v-94h-177v-208h216v-96h-343v691h343zM331 896.5q36 -39.5 41 -112.5l-68 -13q-15 78 -71 78q-55 0 -70 -78l-68 13q5 73 40.5 112.5t97.5 39.5t98 -39.5z" />
    <glyph glyph-name="uni0207" unicode="&#x207;" horiz-adv-x="463" 
d="M431 226h-273q4 -82 28.5 -114.5t69.5 -32.5q31 0 56 10.5t54 33.5l51 -70q-70 -68 -168 -68q-104 0 -159.5 72t-55.5 203t53 207t150 76q93 0 145 -67.5t52 -198.5q0 -9 -3 -51zM314 313q0 75 -18 109.5t-58 34.5q-37 0 -56.5 -33.5t-23.5 -117.5h156v7zM335 734.5
q36 -39.5 41 -112.5l-68 -13q-15 78 -71 78q-55 0 -70 -78l-68 13q5 73 40.5 112.5t97.5 39.5t98 -39.5z" />
    <glyph glyph-name="uni0208" unicode="&#x208;" horiz-adv-x="247" 
d="M187 691v-691h-127v691h127zM14 968l76 -183l-61 -29l-98 168zM154 968l70 -180l-62 -27l-91 165z" />
    <glyph glyph-name="uni0209" unicode="&#x209;" horiz-adv-x="237" 
d="M180 529v-529h-123v529h123zM19 842l76 -183l-61 -29l-98 168zM159 842l70 -180l-62 -27l-91 165z" />
    <glyph glyph-name="uni020A" unicode="&#x20a;" horiz-adv-x="247" 
d="M187 691v-691h-127v691h127zM221 896.5q36 -39.5 41 -112.5l-68 -13q-15 78 -71 78q-55 0 -70 -78l-68 13q5 73 40.5 112.5t97.5 39.5t98 -39.5z" />
    <glyph glyph-name="uni020B" unicode="&#x20b;" horiz-adv-x="237" 
d="M180 529v-529h-123v529h123zM217 734.5q36 -39.5 41 -112.5l-68 -13q-15 78 -71 78q-55 0 -70 -78l-68 13q5 73 40.5 112.5t97.5 39.5t98 -39.5z" />
    <glyph glyph-name="uni020C" unicode="&#x20c;" horiz-adv-x="578" 
d="M477 616q66 -89 66 -270q0 -179 -66 -270t-188 -91q-121 0 -187.5 90t-66.5 270q0 178 66.5 269t187.5 91q122 0 188 -89zM198.5 548q-29.5 -61 -29.5 -203q0 -143 30 -202.5t90 -59.5q62 0 91.5 59t29.5 204q0 142 -30 202.5t-91 60.5t-90.5 -61zM180 968l76 -183
l-61 -29l-98 168zM320 968l70 -180l-62 -27l-91 165z" />
    <glyph glyph-name="uni020D" unicode="&#x20d;" horiz-adv-x="490" 
d="M400.5 473q55.5 -70 55.5 -208q0 -132 -56 -206t-155 -74t-155 72.5t-56 207.5q0 134 56 206t155 72q100 0 155.5 -70zM182 407.5q-20 -42.5 -20 -142.5q0 -101 20 -143.5t63 -42.5t63 42.5t20 143.5t-20 143t-63 42t-63 -42.5zM145 842l76 -183l-61 -29l-98 168z
M285 842l70 -180l-62 -27l-91 165z" />
    <glyph glyph-name="uni020E" unicode="&#x20e;" horiz-adv-x="578" 
d="M477 616q66 -89 66 -270q0 -179 -66 -270t-188 -91q-121 0 -187.5 90t-66.5 270q0 178 66.5 269t187.5 91q122 0 188 -89zM198.5 548q-29.5 -61 -29.5 -203q0 -143 30 -202.5t90 -59.5q62 0 91.5 59t29.5 204q0 142 -30 202.5t-91 60.5t-90.5 -61zM387 896.5
q36 -39.5 41 -112.5l-68 -13q-15 78 -71 78q-55 0 -70 -78l-68 13q5 73 40.5 112.5t97.5 39.5t98 -39.5z" />
    <glyph glyph-name="uni020F" unicode="&#x20f;" horiz-adv-x="490" 
d="M400.5 473q55.5 -70 55.5 -208q0 -132 -56 -206t-155 -74t-155 72.5t-56 207.5q0 134 56 206t155 72q100 0 155.5 -70zM182 407.5q-20 -42.5 -20 -142.5q0 -101 20 -143.5t63 -42.5t63 42.5t20 143.5t-20 143t-63 42t-63 -42.5zM343 734.5q36 -39.5 41 -112.5l-68 -13
q-15 78 -71 78q-55 0 -70 -78l-68 13q5 73 40.5 112.5t97.5 39.5t98 -39.5z" />
    <glyph glyph-name="uni0210" unicode="&#x210;" horiz-adv-x="511" 
d="M370 0l-122 279h-12h-49v-279h-127v691h163q250 0 250 -203q0 -63 -28 -111.5t-84 -73.5l146 -303h-137zM314.5 399q26.5 28 26.5 89q0 57 -27.5 83.5t-90.5 26.5h-36v-227h42q59 0 85.5 28zM142 968l76 -183l-61 -29l-98 168zM282 968l70 -180l-62 -27l-91 165z" />
    <glyph glyph-name="uni0211" unicode="&#x211;" horiz-adv-x="331" 
d="M331 535l-20 -118q-20 5 -37 5q-38 0 -60 -33t-34 -98v-291h-123v529h107l9 -92q37 105 117 105q23 0 41 -7zM95 842l76 -183l-61 -29l-98 168zM235 842l70 -180l-62 -27l-91 165z" />
    <glyph glyph-name="uni0212" unicode="&#x212;" horiz-adv-x="511" 
d="M370 0l-122 279h-12h-49v-279h-127v691h163q250 0 250 -203q0 -63 -28 -111.5t-84 -73.5l146 -303h-137zM314.5 399q26.5 28 26.5 89q0 57 -27.5 83.5t-90.5 26.5h-36v-227h42q59 0 85.5 28zM349 896.5q36 -39.5 41 -112.5l-68 -13q-15 78 -71 78q-55 0 -70 -78l-68 13
q5 73 40.5 112.5t97.5 39.5t98 -39.5z" />
    <glyph glyph-name="uni0213" unicode="&#x213;" horiz-adv-x="331" 
d="M331 535l-20 -118q-20 5 -37 5q-38 0 -60 -33t-34 -98v-291h-123v529h107l9 -92q37 105 117 105q23 0 41 -7zM293 734.5q36 -39.5 41 -112.5l-68 -13q-15 78 -71 78q-55 0 -70 -78l-68 13q5 73 40.5 112.5t97.5 39.5t98 -39.5z" />
    <glyph glyph-name="uni0214" unicode="&#x214;" horiz-adv-x="537" 
d="M487 194q0 -91 -56.5 -149.5t-161.5 -58.5q-107 0 -163 57.5t-56 150.5v497h127v-491q0 -58 22 -86.5t70 -28.5q47 0 69 28.5t22 86.5v491h127v-497zM159 968l76 -183l-61 -29l-98 168zM299 968l70 -180l-62 -27l-91 165z" />
    <glyph glyph-name="uni0215" unicode="&#x215;" horiz-adv-x="477" 
d="M420 0h-107l-6 67q-25 -41 -56 -61.5t-72 -20.5q-58 0 -91.5 41t-33.5 107v396h123v-389q0 -62 42 -62q24 0 43 18.5t35 52.5v380h123v-529zM137 842l76 -183l-61 -29l-98 168zM277 842l70 -180l-62 -27l-91 165z" />
    <glyph glyph-name="uni0216" unicode="&#x216;" horiz-adv-x="537" 
d="M487 194q0 -91 -56.5 -149.5t-161.5 -58.5q-107 0 -163 57.5t-56 150.5v497h127v-491q0 -58 22 -86.5t70 -28.5q47 0 69 28.5t22 86.5v491h127v-497zM366 896.5q36 -39.5 41 -112.5l-68 -13q-15 78 -71 78q-55 0 -70 -78l-68 13q5 73 40.5 112.5t97.5 39.5t98 -39.5z" />
    <glyph glyph-name="uni0217" unicode="&#x217;" horiz-adv-x="477" 
d="M420 0h-107l-6 67q-25 -41 -56 -61.5t-72 -20.5q-58 0 -91.5 41t-33.5 107v396h123v-389q0 -62 42 -62q24 0 43 18.5t35 52.5v380h123v-529zM335 734.5q36 -39.5 41 -112.5l-68 -13q-15 78 -71 78q-55 0 -70 -78l-68 13q5 73 40.5 112.5t97.5 39.5t98 -39.5z" />
    <glyph glyph-name="Scommaaccent" unicode="&#x218;" horiz-adv-x="465" 
d="M341 684q46 -21 85 -63l-59 -68q-31 28 -60.5 42t-62.5 14q-38 0 -60 -23.5t-22 -61.5t23 -62t90 -50q86 -35 126.5 -82t40.5 -133q0 -59 -27 -107.5t-77.5 -76.5t-117.5 -28q-69 0 -120 24.5t-93 69.5l64 70q36 -32 69 -49t72 -17q46 0 71.5 28.5t25.5 77.5
q0 43 -22.5 70.5t-83.5 50.5q-92 37 -132.5 85t-40.5 120q0 55 26.5 98t73.5 67.5t105 24.5q60 0 106 -21zM273.5 -91.5q17.5 -18.5 17.5 -47.5q0 -15 -4.5 -31t-17.5 -48l-37 -91h-63l27 115q-31 20 -31 55q0 28 17.5 47t45.5 19t45.5 -18.5z" />
    <glyph glyph-name="scommaaccent" unicode="&#x219;" horiz-adv-x="398" 
d="M363 481l-47 -67q-28 20 -53 30t-51 10q-29 0 -45.5 -15.5t-16.5 -42.5t18.5 -43.5t74.5 -38.5q69 -27 102 -64t33 -99q0 -77 -54 -121.5t-137 -44.5q-54 0 -99.5 19.5t-79.5 54.5l60 66q56 -49 114 -49q33 0 52 17.5t19 48.5q0 23 -8 37.5t-28 27t-60 27.5
q-69 27 -98.5 63t-29.5 92q0 67 47.5 110.5t127.5 43.5q94 0 159 -62zM245.5 -91.5q17.5 -18.5 17.5 -47.5q0 -15 -4.5 -31t-17.5 -48l-37 -91h-63l27 115q-31 20 -31 55q0 28 17.5 47t45.5 19t45.5 -18.5z" />
    <glyph glyph-name="uni021A" unicode="&#x21a;" horiz-adv-x="440" 
d="M439 691l-14 -100h-142v-591h-127v591h-148v100h431zM265.5 -91.5q17.5 -18.5 17.5 -47.5q0 -15 -4.5 -31t-17.5 -48l-37 -91h-63l27 115q-31 20 -31 55q0 28 17.5 47t45.5 19t45.5 -18.5z" />
    <glyph glyph-name="uni021B" unicode="&#x21b;" horiz-adv-x="317" 
d="M323 24q-49 -39 -115 -39q-69 0 -105 39.5t-36 107.5v308h-62v89h62v117l123 15v-132h100l-12 -89h-88v-308q0 -48 41 -48q13 0 23 3.5t26 12.5zM239.5 -91.5q17.5 -18.5 17.5 -47.5q0 -15 -4.5 -31t-17.5 -48l-37 -91h-63l27 115q-31 20 -31 55q0 28 17.5 47t45.5 19
t45.5 -18.5z" />
    <glyph glyph-name="uni021C" unicode="&#x21c;" horiz-adv-x="425" 
d="M293.5 681.5q44.5 -23.5 68 -65.5t23.5 -95q0 -134 -134 -163q151 -16 151 -162q0 -106 -83.5 -185t-262.5 -118l-10 98q87 26 135 56t67.5 66.5t19.5 85.5q0 55 -26.5 81.5t-81.5 26.5h-55l14 96h43q44 0 68 27t24 79q0 46 -19 73t-59 27q-54 0 -117 -57l-60 66
q82 87 191 87q59 0 103.5 -23.5z" />
    <glyph glyph-name="uni021D" unicode="&#x21d;" horiz-adv-x="399" 
d="M294.5 504q48.5 -39 48.5 -109q0 -49 -25.5 -78.5t-79.5 -43.5q126 -7 126 -116q0 -88 -81 -156t-233 -105l-12 84q106 40 152.5 80.5t46.5 96.5q0 35 -16 49.5t-48 14.5h-73l7 85h42q31 0 50.5 19t19.5 59q0 70 -63 70q-27 0 -47.5 -8.5t-48.5 -26.5l-56 64
q71 60 167 60q75 0 123.5 -39z" />
    <glyph glyph-name="uni021E" unicode="&#x21e;" horiz-adv-x="553" 
d="M366 0v310h-179v-310h-127v691h127v-279h179v279h128v-691h-128zM385 922l44 -47l-115 -123h-75l-115 123l45 47l108 -82z" />
    <glyph glyph-name="uni021F" unicode="&#x21f;" horiz-adv-x="481" 
d="M394 502q33 -41 33 -110v-392h-123v378q0 38 -10.5 54.5t-30.5 16.5q-42 0 -83 -79v-370h-123v740l123 13v-287q25 39 54.5 58t69.5 19q57 0 90 -41zM348 972l44 -47l-115 -123h-75l-115 123l45 47l108 -82z" />
    <glyph glyph-name="uni0220" unicode="&#x220;" horiz-adv-x="543" 
d="M450.5 657.5q38.5 -47.5 38.5 -127.5v-736h-127v714q0 52 -15 75.5t-48 23.5q-32 0 -57 -18t-55 -54v-535h-127v691h111l9 -67q35 40 73 60.5t86 20.5q73 0 111.5 -47.5z" />
    <glyph glyph-name="uni0221" unicode="&#x221;" horiz-adv-x="639" 
d="M622 202q27 -28 27 -78q0 -68 -42.5 -103t-111.5 -35q-24 0 -44 4l-26 -69l-61 24l27 66q-38 21 -57 60q-52 -86 -131 -86q-82 0 -125.5 73.5t-43.5 205.5q0 84 22.5 147.5t62.5 97.5t92 34q64 0 105 -53v264l123 -13v-590q0 -17 1 -24q22 54 48 78.5t65 24.5
q42 0 69 -28zM317 141q-1 6 -1 17v239q-32 54 -73 54q-81 0 -81 -186q0 -101 20 -144t56 -43q43 0 79 63zM562 128q0 31 -23 31q-14 0 -25 -17t-28 -63q7 -1 23 -1q53 0 53 50z" />
    <glyph glyph-name="uni0222" unicode="&#x222;" horiz-adv-x="545" 
d="M479.5 325.5q29.5 -45.5 29.5 -112.5q0 -62 -28.5 -114t-82 -82.5t-125.5 -30.5q-73 0 -126.5 30t-82.5 81.5t-29 114.5q0 65 29.5 111t85.5 69q-40 19 -60.5 51.5t-20.5 75.5v172h128v-177q0 -80 76 -80q40 0 57.5 23t17.5 57v177h129v-172q0 -41 -21 -73.5t-61 -52.5
q55 -22 84.5 -67.5zM351 114.5q25 31.5 25 99.5q0 62 -26 94t-77 32q-52 0 -78 -32.5t-26 -94.5q0 -67 26 -98.5t78 -31.5q53 0 78 31.5z" />
    <glyph glyph-name="uni0223" unicode="&#x223;" horiz-adv-x="485" 
d="M451 213q0 -104 -54.5 -165.5t-154.5 -61.5q-99 0 -153.5 60.5t-54.5 165.5q0 74 26 124t77 74q-73 40 -73 129v202h121v-218q0 -76 58 -76t58 76v218h121v-202q0 -43 -19 -75.5t-56 -52.5q104 -46 104 -198zM305 110q19 31 19 107q0 78 -19 111.5t-63 33.5
q-43 0 -62 -33.5t-19 -112.5q0 -74 19.5 -105.5t61.5 -31.5q44 0 63 31z" />
    <glyph glyph-name="uni0224" unicode="&#x224;" horiz-adv-x="437" 
d="M417 592l-264 -488h261v-166q0 -75 -43 -115t-112 -40q-67 0 -117 40l46 74q15 -10 28 -14t31 -4q44 0 44 53v68h-276v98l265 491h-239v102h376v-99z" />
    <glyph glyph-name="uni0225" unicode="&#x225;" horiz-adv-x="372" 
d="M356 440l-211 -343h209v-164q0 -72 -42.5 -111t-111.5 -39q-67 0 -117 40l46 71q16 -10 28.5 -14t30.5 -4q48 0 48 53v71h-223v89l211 343h-193v97h325v-89z" />
    <glyph glyph-name="uni0226" unicode="&#x226;" horiz-adv-x="497" 
d="M370 0l-34 162h-178l-33 -162h-127l174 691h154l173 -691h-129zM178 258h139l-70 336zM301.5 898q20.5 -21 20.5 -54q0 -32 -20.5 -53t-53.5 -21t-53.5 21t-20.5 53q0 33 20.5 54t53.5 21t53.5 -21z" />
    <glyph glyph-name="uni0227" unicode="&#x227;" horiz-adv-x="454" 
d="M402 89.5q7 -12.5 23 -20.5l-25 -82q-41 5 -65.5 22t-36.5 52q-46 -76 -129 -76q-66 0 -105 44.5t-39 118.5q0 86 53.5 131t155.5 45h41v37q0 50 -17.5 70.5t-56.5 20.5q-47 0 -117 -26l-28 80q40 18 83 27.5t82 9.5q174 0 174 -176v-239q0 -26 7 -38.5zM275 140v111h-29
q-51 0 -74.5 -23t-23.5 -71q0 -41 14 -62t40 -21q48 0 73 66zM273.5 772q20.5 -21 20.5 -54q0 -32 -20.5 -53t-53.5 -21t-53.5 21t-20.5 53q0 33 20.5 54t53.5 21t53.5 -21z" />
    <glyph glyph-name="uni0228" unicode="&#x228;" horiz-adv-x="433" 
d="M187 96h216v-96h-140v-56q84 -14 84 -90q0 -48 -32.5 -76t-86.5 -28q-52 0 -90 26l30 57q26 -12 52 -12q37 0 37 34q0 20 -17.5 29.5t-57.5 9.5l11 106h-133v691h343l-13 -95h-203v-198h177v-94h-177v-208z" />
    <glyph glyph-name="uni0229" unicode="&#x229;" horiz-adv-x="463" 
d="M431 226h-273q4 -82 28.5 -114.5t69.5 -32.5q31 0 56 10.5t54 33.5l51 -70q-56 -56 -136 -66v-43q84 -14 84 -90q0 -48 -32.5 -76t-86.5 -28q-52 0 -90 26l30 57q26 -12 52 -12q37 0 37 34q0 20 -17.5 29.5t-57.5 9.5l10 94q-85 13 -130.5 83.5t-45.5 188.5q0 131 53 207
t150 76q93 0 145 -67.5t52 -198.5q0 -9 -3 -51zM314 313q0 75 -18 109.5t-58 34.5q-37 0 -56.5 -33.5t-23.5 -117.5h156v7z" />
    <glyph glyph-name="uni022A" unicode="&#x22a;" horiz-adv-x="578" 
d="M477 616q66 -89 66 -270q0 -179 -66 -270t-188 -91q-121 0 -187.5 90t-66.5 270q0 178 66.5 269t187.5 91q122 0 188 -89zM198.5 548q-29.5 -61 -29.5 -203q0 -143 30 -202.5t90 -59.5q62 0 91.5 59t29.5 204q0 142 -30 202.5t-91 60.5t-90.5 -61zM242.5 860.5
q18.5 -19.5 18.5 -47.5q0 -29 -18.5 -48t-46.5 -19t-46.5 19t-18.5 48q0 28 18.5 47.5t46.5 19.5t46.5 -19.5zM429.5 860.5q18.5 -19.5 18.5 -47.5q0 -29 -18.5 -48t-46.5 -19t-46.5 19t-18.5 48q0 28 18.5 47.5t46.5 19.5t46.5 -19.5zM413 926h-246v85h246v-85z" />
    <glyph glyph-name="uni022B" unicode="&#x22b;" horiz-adv-x="490" 
d="M400.5 473q55.5 -70 55.5 -208q0 -132 -56 -206t-155 -74t-155 72.5t-56 207.5q0 134 56 206t155 72q100 0 155.5 -70zM182 407.5q-20 -42.5 -20 -142.5q0 -101 20 -143.5t63 -42.5t63 42.5t20 143.5t-20 143t-63 42t-63 -42.5zM198.5 727.5q18.5 -19.5 18.5 -47.5
q0 -29 -18.5 -48t-46.5 -19t-46.5 19t-18.5 48q0 28 18.5 47.5t46.5 19.5t46.5 -19.5zM385.5 727.5q18.5 -19.5 18.5 -47.5q0 -29 -18.5 -48t-46.5 -19t-46.5 19t-18.5 48q0 28 18.5 47.5t46.5 19.5t46.5 -19.5zM369 799h-246v85h246v-85z" />
    <glyph glyph-name="uni022C" unicode="&#x22c;" horiz-adv-x="578" 
d="M477 616q66 -89 66 -270q0 -179 -66 -270t-188 -91q-121 0 -187.5 90t-66.5 270q0 178 66.5 269t187.5 91q122 0 188 -89zM198.5 548q-29.5 -61 -29.5 -203q0 -143 30 -202.5t90 -59.5q62 0 91.5 59t29.5 204q0 142 -30 202.5t-91 60.5t-90.5 -61zM309 767.5
q-14 6.5 -30 18.5q-13 9 -20.5 13t-16.5 4q-13 0 -22 -9.5t-22 -32.5l-60 28q16 46 42 73t60 27q17 0 31 -6.5t30 -18.5q12 -9 20 -13.5t17 -4.5q13 0 22.5 10t20.5 32l61 -28q-16 -48 -42.5 -73.5t-59.5 -25.5q-17 0 -31 6.5zM410 931h-246v85h246v-85z" />
    <glyph glyph-name="uni022D" unicode="&#x22d;" horiz-adv-x="490" 
d="M400.5 473q55.5 -70 55.5 -208q0 -132 -56 -206t-155 -74t-155 72.5t-56 207.5q0 134 56 206t155 72q100 0 155.5 -70zM182 407.5q-20 -42.5 -20 -142.5q0 -101 20 -143.5t63 -42.5t63 42.5t20 143.5t-20 143t-63 42t-63 -42.5zM265 605.5q-14 6.5 -30 18.5
q-13 9 -20.5 13t-16.5 4q-13 0 -22 -9.5t-22 -32.5l-60 28q16 46 42 73t60 27q17 0 31 -6.5t30 -18.5q12 -9 20 -13.5t17 -4.5q13 0 22.5 10t20.5 32l61 -28q-16 -48 -42.5 -73.5t-59.5 -25.5q-17 0 -31 6.5zM369 821h-246v85h246v-85z" />
    <glyph glyph-name="uni022E" unicode="&#x22e;" horiz-adv-x="578" 
d="M477 616q66 -89 66 -270q0 -179 -66 -270t-188 -91q-121 0 -187.5 90t-66.5 270q0 178 66.5 269t187.5 91q122 0 188 -89zM198.5 548q-29.5 -61 -29.5 -203q0 -143 30 -202.5t90 -59.5q62 0 91.5 59t29.5 204q0 142 -30 202.5t-91 60.5t-90.5 -61zM341.5 898
q20.5 -21 20.5 -54q0 -32 -20.5 -53t-53.5 -21t-53.5 21t-20.5 53q0 33 20.5 54t53.5 21t53.5 -21z" />
    <glyph glyph-name="uni022F" unicode="&#x22f;" horiz-adv-x="490" 
d="M400.5 473q55.5 -70 55.5 -208q0 -132 -56 -206t-155 -74t-155 72.5t-56 207.5q0 134 56 206t155 72q100 0 155.5 -70zM182 407.5q-20 -42.5 -20 -142.5q0 -101 20 -143.5t63 -42.5t63 42.5t20 143.5t-20 143t-63 42t-63 -42.5zM297.5 772q20.5 -21 20.5 -54
q0 -32 -20.5 -53t-53.5 -21t-53.5 21t-20.5 53q0 33 20.5 54t53.5 21t53.5 -21z" />
    <glyph glyph-name="uni0230" unicode="&#x230;" horiz-adv-x="578" 
d="M477 616q66 -89 66 -270q0 -179 -66 -270t-188 -91q-121 0 -187.5 90t-66.5 270q0 178 66.5 269t187.5 91q122 0 188 -89zM198.5 548q-29.5 -61 -29.5 -203q0 -143 30 -202.5t90 -59.5q62 0 91.5 59t29.5 204q0 142 -30 202.5t-91 60.5t-90.5 -61zM341.5 867
q20.5 -21 20.5 -54q0 -32 -20.5 -53t-53.5 -21t-53.5 21t-20.5 53q0 33 20.5 54t53.5 21t53.5 -21zM412 927h-246v85h246v-85z" />
    <glyph glyph-name="uni0231" unicode="&#x231;" horiz-adv-x="490" 
d="M400.5 473q55.5 -70 55.5 -208q0 -132 -56 -206t-155 -74t-155 72.5t-56 207.5q0 134 56 206t155 72q100 0 155.5 -70zM182 407.5q-20 -42.5 -20 -142.5q0 -101 20 -143.5t63 -42.5t63 42.5t20 143.5t-20 143t-63 42t-63 -42.5zM297.5 728q20.5 -21 20.5 -54
q0 -32 -20.5 -53t-53.5 -21t-53.5 21t-20.5 53q0 33 20.5 54t53.5 21t53.5 -21zM368 790h-246v85h246v-85z" />
    <glyph glyph-name="uni0232" unicode="&#x232;" horiz-adv-x="482" 
d="M487 691l-182 -428v-263h-128v262l-182 429h135l113 -325l114 325h130zM364 789h-246v85h246v-85z" />
    <glyph glyph-name="uni0233" unicode="&#x233;" horiz-adv-x="431" 
d="M290 -2q-26 -96 -84 -151t-155 -64l-14 87q63 13 94.5 41.5t49.5 88.5h-46l-134 529h125l88 -447l94 447h122zM339 663h-246v85h246v-85z" />
    <glyph glyph-name="uni0234" unicode="&#x234;" horiz-adv-x="376" 
d="M359 202q27 -28 27 -78q0 -68 -43 -103t-112 -35q-24 0 -43 4l-27 -69l-60 24l26 66q-35 19 -55 55.5t-20 91.5v583l123 13v-603q0 -17 1 -24q22 54 48.5 78.5t64.5 24.5q43 0 70 -28zM298 128q0 31 -22 31q-15 0 -26 -16.5t-28 -62.5q14 -2 24 -2q52 0 52 50z" />
    <glyph glyph-name="uni0235" unicode="&#x235;" horiz-adv-x="628" 
d="M611 202q27 -28 27 -78q0 -68 -42.5 -103t-112.5 -35q-24 0 -43 4l-27 -69l-60 24l26 66q-35 19 -55 55.5t-20 91.5v220q0 38 -10.5 54.5t-30.5 16.5q-42 0 -83 -79v-370h-123v529h107l9 -69q27 42 57.5 62.5t73.5 20.5q57 0 90 -41t33 -110v-241q0 -11 2 -25
q21 55 47 79.5t65 24.5q43 0 70 -28zM551 128q0 14 -6 22.5t-17 8.5q-15 0 -26 -16.5t-28 -62.5q14 -2 24 -2q53 0 53 50z" />
    <glyph glyph-name="uni0236" unicode="&#x236;" horiz-adv-x="390" 
d="M373 202q27 -28 27 -78q0 -68 -42.5 -103t-111.5 -35q-24 0 -44 4l-26 -69l-61 24l27 66q-35 19 -55 55.5t-20 91.5v282h-62v89h62v117l123 15v-132h100l-12 -89h-88v-295q0 -13 1 -19q22 55 47.5 79.5t65.5 24.5q42 0 69 -28zM313 128q0 31 -23 31q-14 0 -25 -17
t-28 -63q7 -1 23 -1q53 0 53 50z" />
    <glyph glyph-name="uni0237" unicode="&#x237;" horiz-adv-x="237" 
d="M180 25q0 -67 -20.5 -112t-57 -74t-92.5 -55l-42 88q32 19 50.5 36t28.5 44.5t10 71.5v505h123v-504z" />
    <glyph glyph-name="uni0238" unicode="&#x238;" horiz-adv-x="720" 
d="M647.5 474.5q38.5 -68.5 38.5 -209.5q0 -133 -45.5 -206t-120.5 -73q-32 0 -59 19t-44 51l-8 -56h-95l-8 61q-44 -75 -113 -75q-75 0 -117 72t-42 206q0 88 20.5 151t57.5 95.5t85 32.5q63 0 103 -61v259l123 13v-277q44 66 115 66t109.5 -68.5zM300 137v260
q-31 54 -67 54q-33 0 -52 -42t-19 -144q0 -105 17 -146t48 -41q39 0 73 59zM539.5 119q18.5 41 18.5 146q0 108 -16.5 146.5t-48.5 38.5q-22 0 -39 -15t-31 -42v-257q15 -28 30 -43t36 -15q32 0 50.5 41z" />
    <glyph glyph-name="uni0239" unicode="&#x239;" horiz-adv-x="720" 
d="M647.5 473q38.5 -70 38.5 -207q0 -88 -20.5 -151t-57 -96t-84.5 -33q-29 0 -55 15t-46 45v-249l-123 -14v261q-43 -58 -107 -58q-75 0 -117 72t-42 206q0 86 21.5 149t59.5 96.5t88 33.5q65 0 107 -70l5 56h93l6 -60q26 38 54 56t65 18q76 0 114.5 -70zM267.5 92
q16.5 14 32.5 44v262q-15 27 -31.5 40t-36.5 13q-33 0 -51.5 -42.5t-18.5 -143.5q0 -104 17.5 -145.5t49.5 -41.5q22 0 38.5 14zM540 121q18 41 18 144q0 105 -16 145.5t-48 40.5q-34 0 -71 -53v-266q24 -52 64 -52q35 0 53 41z" />
    <glyph glyph-name="uni023A" unicode="&#x23a;" horiz-adv-x="497" 
d="M380 0l-35 162h-96l-51 -234l-46 10l49 224h-52l-35 -162h-116l174 691h145l13 61l46 -10l-29 -134l152 -608h-119zM169 253h52l52 238l-26 120zM269 253h56l-28 128z" />
    <glyph glyph-name="uni023B" unicode="&#x23b;" horiz-adv-x="476" 
d="M468 68q-32 -36 -77 -59.5t-101 -23.5q-36 0 -63 8l-14 -65l-48 10l16 72q-69 36 -107.5 120.5t-38.5 216.5q0 119 33 199t90.5 119.5t131.5 39.5q23 0 42 -3l11 50l47 -10l-11 -53q41 -17 83 -55l-61 -73q-25 22 -43 32l-108 -495q21 -11 49 -11q31 0 54 12.5t54 38.5z
M209 138l102 469q-4 1 -14 1q-60 0 -94 -60t-34 -201q0 -147 40 -209z" />
    <glyph glyph-name="uni023C" unicode="&#x23c;" horiz-adv-x="396" 
d="M295 92q18 8 42 25l55 -71q-64 -61 -143 -61q-25 0 -44 4l-14 -61l-43 10l14 63q-62 25 -95 90.5t-33 168.5q0 88 26 152t74.5 97.5t112.5 33.5q18 0 35 -3l13 58l43 -10l-13 -59q36 -15 67 -46l-53 -70q-20 17 -35 23l-77 -348q11 -4 28 -4q22 0 40 8zM189 122l73 326
h-7q-45 0 -68 -42.5t-23 -143.5q0 -98 25 -140z" />
    <glyph glyph-name="uni023D" unicode="&#x23d;" horiz-adv-x="429" 
d="M199 105h223l-14 -105h-336v314h-66v98h66v279h127v-279h65v-98h-65v-209z" />
    <glyph glyph-name="uni023E" unicode="&#x23e;" horiz-adv-x="441" 
d="M425 593h-68l-81 -215v-378h-113v77l-56 -149l-42 16l98 261v388h-155v98h338l24 65l42 -16l-18 -49h45zM276 506l33 87h-33v-87z" />
    <glyph glyph-name="uni023F" unicode="&#x23f;" horiz-adv-x="398" 
d="M323 -120.5q8 2.5 20 8.5l31 -74q-34 -30 -84 -30q-37 0 -63.5 16t-45.5 40t-47 68q-32 52 -59 87t-67 64l53 66q32 -24 61 -36.5t60 -12.5q33 0 52 17.5t19 48.5q0 23 -8 37.5t-28 27t-60 27.5q-69 27 -98.5 63t-29.5 92q0 67 47.5 110.5t127.5 43.5q94 0 159 -62
l-47 -67q-28 20 -53 30t-51 10q-29 0 -45.5 -15.5t-16.5 -42.5t18.5 -43.5t74.5 -38.5q69 -27 102 -64t33 -99q0 -51 -24.5 -88.5t-65.5 -57.5t-89 -20h-11q27 -21 55 -63q17 -24 28.5 -34.5t29.5 -10.5q14 0 22 2.5z" />
    <glyph glyph-name="uni0240" unicode="&#x240;" horiz-adv-x="375" 
d="M252.5 -203q-24.5 13 -41 32.5t-37.5 52.5q-24 36 -42.5 57.5t-48 38.5t-70.5 22v89l211 343h-193v97h325v-89l-230 -376q43 -16 69.5 -44t55.5 -74q22 -36 37.5 -52.5t39.5 -16.5q18 0 30.5 4.5t14.5 5.5l25 -75q-34 -28 -86 -28q-35 0 -59.5 13z" />
    <glyph glyph-name="uni0241" unicode="&#x241;" horiz-adv-x="408" 
d="M119 324l47 16q51 18 74 50.5t23 95.5q0 57 -22.5 90t-62.5 33q-30 0 -57 -13.5t-57 -41.5l-62 63q40 44 86.5 66t102.5 22q94 0 149 -59t55 -155q0 -90 -32 -133.5t-95 -68.5l-21 -9v-280h-128v324z" />
    <glyph glyph-name="uni0242" unicode="&#x242;" horiz-adv-x="376" 
d="M92 199l44 16q44 16 66.5 46t22.5 82t-20 78.5t-55 26.5q-28 0 -48.5 -11t-45.5 -34l-59 61q34 39 74.5 59t93.5 20q85 0 136.5 -54t51.5 -144q0 -75 -31 -116.5t-85 -64.5l-22 -10v-154h-123v199z" />
    <glyph glyph-name="uni0243" unicode="&#x243;" horiz-adv-x="520" 
d="M458.5 312.5q38.5 -38.5 38.5 -114.5q0 -100 -67.5 -149t-183.5 -49h-174v173h-55v72h55v446h151q119 0 184 -45t65 -131q0 -58 -32.5 -96t-86.5 -53q67 -15 105.5 -53.5zM199 597v-191h43q101 0 101 98q0 49 -25.5 71t-81.5 22h-37zM335 120.5q30 24.5 30 82.5t-28 85.5
t-87 27.5h-51v-71h96v-72h-96v-77h48q58 0 88 24.5z" />
    <glyph glyph-name="uni0244" unicode="&#x244;" horiz-adv-x="565" 
d="M549 505h-48v-311q0 -91 -56.5 -149.5t-161.5 -58.5q-107 0 -163 57.5t-56 150.5v311h-48v78h48v108h127v-108h183v108h127v-108h48v-78zM374 505h-183v-305q0 -58 22 -86.5t70 -28.5q47 0 69 28.5t22 86.5v305z" />
    <glyph glyph-name="uni0245" unicode="&#x245;" horiz-adv-x="497" 
d="M326 691l173 -691h-132l-120 594l-120 -594h-129l174 691h154z" />
    <glyph glyph-name="uni0246" unicode="&#x246;" horiz-adv-x="433" 
d="M282 304l-43 -208h164v-96h-184l-15 -72l-46 10l13 62h-111v691h254l13 61l46 -9l-11 -52h41l-13 -95h-47l-42 -198h63v-94h-82zM187 596v-198h67l41 198h-108zM187 96h4l43 208h-47v-208z" />
    <glyph glyph-name="uni0247" unicode="&#x247;" horiz-adv-x="463" 
d="M244 228l-32 -142q17 -8 44 -8q31 0 56 10.5t54 33.5l51 -67q-72 -70 -168 -70q-33 0 -58 7l-14 -64l-43 10l15 69q-56 29 -85.5 94t-29.5 159q0 131 53 207t150 76q12 0 30 -2l13 57l44 -10l-13 -58q59 -24 91 -87.5t32 -165.5q0 -7 -3 -49h-187zM175.5 424.5
q-21.5 -34.5 -25.5 -120.5h65l34 154q-3 1 -11 1q-41 0 -62.5 -34.5zM291 441l-30 -137h64v8q0 98 -34 129zM198 228h-48q3 -71 24 -108z" />
    <glyph glyph-name="uni0248" unicode="&#x248;" horiz-adv-x="276" 
d="M269 294h-65v-194q0 -108 -47 -163.5t-132 -88.5l-34 90q37 18 55 38.5t24 49.5t6 79v189h-65v98h65v299h128v-299h65v-98z" />
    <glyph glyph-name="uni0249" unicode="&#x249;" horiz-adv-x="275" 
d="M268 210h-67v-185q0 -67 -20.5 -112t-57 -74t-92.5 -55l-42 88q32 19 50.5 36t28.5 44.5t10 71.5v186h-67v89h67v230h123v-230h67v-89zM192.5 772q20.5 -21 20.5 -54q0 -32 -20.5 -53t-53.5 -21t-53.5 21t-20.5 53q0 33 20.5 54t53.5 21t53.5 -21z" />
    <glyph glyph-name="uni024A" unicode="&#x24a;" horiz-adv-x="560" 
d="M645 -177q-50 -40 -115 -40q-71 0 -114 39.5t-43 115.5v95q-49 -47 -119 -47q-63 0 -112.5 37t-78 115t-28.5 194q0 122 29.5 206t79.5 125.5t112 41.5q76 0 125 -54l6 40h114v-691h-1v-68q0 -53 43 -53q16 0 28 4t28 13zM373 126v437q-18 22 -39.5 34t-50.5 12
q-55 0 -84.5 -63t-29.5 -214q0 -142 28 -196t82 -54q56 0 94 44z" />
    <glyph glyph-name="uni024B" unicode="&#x24b;" horiz-adv-x="494" 
d="M509 -198q-36 -19 -76 -19q-54 0 -85.5 33t-31.5 90v147q-42 -68 -114 -68q-80 0 -124 73t-44 206q0 85 22.5 148t62.5 97t93 34q69 0 114 -64l6 50h107v-619q0 -28 24 -28q5 0 21 4zM280 94q19 16 36 48v254q-34 55 -74 55q-36 0 -58 -44.5t-22 -141.5q0 -103 19.5 -145
t55.5 -42q24 0 43 16z" />
    <glyph glyph-name="uni024C" unicode="&#x24c;" horiz-adv-x="523" 
d="M382 0l-122 279h-12h-49v-279h-127v279h-55v92h55v320h163q250 0 250 -203q0 -63 -28 -111.5t-84 -73.5l146 -303h-137zM326.5 399q26.5 28 26.5 89q0 57 -27.5 83.5t-90.5 26.5h-36v-227h42q59 0 85.5 28z" />
    <glyph glyph-name="uni024D" unicode="&#x24d;" horiz-adv-x="348" 
d="M348 535l-20 -118q-20 5 -37 5q-38 0 -60 -33t-34 -97h67v-88h-67v-204h-123v204h-68v88h68v237h107l9 -92q37 105 117 105q23 0 41 -7z" />
    <glyph glyph-name="uni024E" unicode="&#x24e;" horiz-adv-x="482" 
d="M487 691l-35 -82h34v-79h-67l-114 -267v-263h-128v262l-114 268h-66v79h33l-35 82h131l29 -82h177l29 82h126zM243 363l60 167h-120z" />
    <glyph glyph-name="uni024F" unicode="&#x24f;" horiz-adv-x="442" 
d="M433 391v-77h-55l-83 -316q-26 -96 -84 -151t-155 -64l-14 87q63 13 94.5 41.5t49.5 88.5h-46l-80 314h-52v77h33l-35 138h125l27 -138h126l29 138h122l-36 -138h34zM219 82l49 232h-95z" />
    <glyph glyph-name="uni0250" unicode="&#x250;" horiz-adv-x="454" 
d="M370 103l28 -80q-40 -18 -83 -27.5t-82 -9.5q-174 0 -174 176v239q0 26 -7 38.5t-23 20.5l25 82q41 -5 65.5 -22t36.5 -52q46 76 129 76q66 0 105 -44.5t39 -118.5q0 -86 -53.5 -131t-155.5 -45h-41v-37q0 -50 17.5 -70.5t56.5 -20.5q47 0 117 26zM179 389v-111h29
q51 0 74.5 23t23.5 71q0 41 -14 62t-40 21q-48 0 -73 -66z" />
    <glyph glyph-name="uni0251" unicode="&#x251;" horiz-adv-x="498" 
d="M444.5 102.5q7.5 -14.5 27.5 -26.5l-35 -91q-43 10 -68 27.5t-39 47.5q-22 -35 -54 -55t-73 -20q-79 0 -124 72t-45 207q0 87 22.5 150t62.5 96t91 33q73 0 113 -62l7 48h107v-383q0 -29 7.5 -43.5zM314 137v263q-15 25 -32 38t-40 13q-38 0 -59 -42t-21 -144
q0 -105 19 -146t54 -41q45 0 79 59z" />
    <glyph glyph-name="uni0252" unicode="&#x252;" horiz-adv-x="498" 
d="M419 472q45 -72 45 -207q0 -87 -22.5 -150t-62.5 -96t-91 -33q-73 0 -113 62l-7 -48h-107v383q0 29 -7.5 43.5t-27.5 26.5l35 91q43 -10 68 -27.5t39 -47.5q22 35 54 55t73 20q79 0 124 -72zM315 120q21 42 21 144q0 105 -19 146t-54 41q-45 0 -79 -59v-263
q15 -25 32 -38t40 -13q38 0 59 42z" />
    <glyph glyph-name="uni0253" unicode="&#x253;" horiz-adv-x="494" 
d="M418 473q41 -70 41 -208q0 -130 -46 -205t-126 -75q-35 0 -64 17.5t-50 48.5l-7 -51h-109v599q0 68 42.5 111.5t120.5 43.5q62 0 117 -30l-35 -80q-35 16 -67 16q-29 0 -42 -15t-13 -48v-125q21 34 51.5 52.5t68.5 18.5q77 0 118 -70zM311.5 120q20.5 42 20.5 145
q0 107 -18.5 146.5t-52.5 39.5q-23 0 -44 -19t-37 -50v-248q13 -25 32.5 -40.5t41.5 -15.5q37 0 57.5 42z" />
    <glyph glyph-name="uni0254" unicode="&#x254;" horiz-adv-x="394" 
d="M70.5 1q-35.5 15 -65.5 43l55 70q25 -19 42.5 -27t40.5 -8q46 0 67.5 41.5t21.5 144.5t-20.5 144t-65.5 41q-23 0 -42.5 -7.5t-41.5 -26.5l-53 68q57 59 149 59q97 0 149.5 -69t52.5 -209q0 -136 -55 -207.5t-154 -71.5q-45 0 -80.5 15z" />
    <glyph glyph-name="uni0255" unicode="&#x255;" horiz-adv-x="415" 
d="M380 210.5q29 -29.5 29 -80.5q0 -69 -43.5 -106.5t-110.5 -37.5q-33 0 -59 8l-28 -73l-63 25l31 75q-49 33 -75.5 94.5t-26.5 144.5q0 88 26 152t74.5 97.5t112.5 33.5q43 0 78 -14.5t67 -45.5l-53 -70q-22 18 -41.5 26.5t-42.5 8.5q-45 0 -68 -42.5t-23 -143.5
q0 -86 20 -133q20 59 48.5 85t72.5 26q46 0 75 -29.5zM308.5 92.5q14.5 13.5 14.5 39.5q0 17 -7.5 27t-21.5 10q-19 0 -32.5 -18t-29.5 -67q15 -5 37 -5q25 0 39.5 13.5z" />
    <glyph glyph-name="uni0256" unicode="&#x256;" horiz-adv-x="496" 
d="M586 -177q-47 -40 -116 -40t-111.5 39t-42.5 111v116q-45 -64 -113 -64q-82 0 -125.5 73t-43.5 206q0 84 22.5 147.5t62.5 97.5t92 34q64 0 105 -53v264l123 -13v-812q0 -53 46 -53q16 0 28.5 4t27.5 14zM279.5 94q18.5 16 36.5 46v257q-32 54 -73 54q-81 0 -81 -186
q0 -101 20 -144t56 -43q23 0 41.5 16z" />
    <glyph glyph-name="uni0257" unicode="&#x257;" horiz-adv-x="496" 
d="M575 717l-39 -74q-15 9 -27 13t-27 4q-22 0 -32.5 -13t-10.5 -43v-604h-109l-6 61q-47 -76 -121 -76q-82 0 -125.5 73t-43.5 206q0 84 22.5 147.5t62.5 97.5t92 34q64 0 105 -53v109q0 74 39 114.5t109 40.5q58 0 111 -37zM279.5 94q18.5 16 36.5 46v257q-32 54 -73 54
q-81 0 -81 -186q0 -101 20 -144t56 -43q23 0 41.5 16z" />
    <glyph glyph-name="uni0258" unicode="&#x258;" horiz-adv-x="463" 
d="M429 260q0 -132 -56 -203.5t-161 -71.5q-96 0 -167 68l52 70q29 -23 54 -33.5t56 -10.5q45 0 69.5 32.5t28.5 114.5h-273q-3 42 -3 51q0 129 54 197.5t147 68.5q199 0 199 -283zM149 306h156q-2 61 -11 93.5t-25 45t-41 12.5q-79 0 -79 -144v-7z" />
    <glyph glyph-name="uni0259" unicode="&#x259;" horiz-adv-x="466" 
d="M432 265q0 -135 -53 -207t-151 -72q-93 0 -146 66.5t-53 199.5q0 9 3 51h281q-3 82 -25.5 115t-65.5 33q-31 0 -57.5 -9.5t-55.5 -32.5l-50 69q70 65 166 65q207 0 207 -278zM289.5 107q20.5 31 23.5 116h-168v-7q0 -75 21 -107.5t62 -32.5t61.5 31z" />
    <glyph glyph-name="uni025A" unicode="&#x25a;" horiz-adv-x="689" 
d="M703 348q-43 -37 -102 -37q-56 0 -88 30.5t-36 83.5l-1 19l-61 -41q17 -60 17 -138q0 -135 -53 -207t-151 -72q-93 0 -146 66.5t-53 199.5q0 9 3 51h281q-3 82 -25.5 115t-65.5 33q-31 0 -57.5 -9.5t-55.5 -32.5l-50 69q70 65 166 65q106 0 158 -72l87 58h103v-78
q0 -50 43 -50q14 0 24 3.5t25 11.5zM289.5 107q20.5 31 23.5 116h-168v-7q0 -75 21 -107.5t62 -32.5t61.5 31z" />
    <glyph glyph-name="uni025B" unicode="&#x25b;" horiz-adv-x="399" 
d="M382 489l-48 -65q-26 16 -47.5 23t-46.5 7q-31 0 -48 -17.5t-17 -50.5t17.5 -51.5t50.5 -18.5h52l-13 -85h-44q-41 0 -58.5 -19t-17.5 -59q0 -36 19 -56t56 -20q27 0 51.5 10t52.5 30l54 -69q-32 -29 -77 -45.5t-98 -16.5q-83 0 -134.5 42t-51.5 117q0 59 32 91.5
t93 44.5q-108 24 -108 119q0 65 48 104t125 39q90 0 158 -54z" />
    <glyph glyph-name="uni025C" unicode="&#x25c;" horiz-adv-x="413" 
d="M309 503.5q48 -39.5 48 -105.5q0 -45 -24.5 -72.5t-78.5 -42.5q64 -11 94.5 -41.5t30.5 -87.5q0 -82 -54.5 -125t-144.5 -43q-105 0 -176 65l58 67q31 -23 55 -32t55 -9q79 0 79 81q0 41 -21.5 57t-68.5 16h-55l7 85h38q41 0 61 18t20 55q0 65 -64 65q-26 0 -47.5 -8.5
t-47.5 -26.5l-56 64q36 30 78 45t94 15q72 0 120 -39.5z" />
    <glyph glyph-name="uni025D" unicode="&#x25d;" horiz-adv-x="644" 
d="M659 348q-43 -37 -102 -37q-56 0 -88 30.5t-36 83.5l-1 19l-75 -50q-1 -43 -25.5 -69.5t-77.5 -41.5q64 -11 94.5 -41.5t30.5 -87.5q0 -82 -54.5 -125t-144.5 -43q-105 0 -176 65l58 67q31 -23 55 -32t55 -9q79 0 79 81q0 41 -21.5 57t-68.5 16h-55l7 85h38q41 0 61 18
t20 55q0 65 -64 65q-26 0 -47.5 -8.5t-47.5 -26.5l-56 64q36 30 78 45t94 15q49 0 88.5 -19t60.5 -54l88 59h103v-78q0 -50 43 -50q14 0 24 3.5t25 11.5z" />
    <glyph glyph-name="uni025E" unicode="&#x25e;" horiz-adv-x="481" 
d="M89 57q-55 71 -55 208q0 134 56.5 206t160.5 72q76 0 125 -40.5t49 -105.5q0 -44 -24 -72t-76 -42q63 -11 92.5 -41t29.5 -88q0 -78 -54 -123t-144 -45q-105 0 -160 71zM322 159q0 40 -20 56t-58 16h-26l7 85h15q29 0 46.5 18.5t17.5 53.5q0 32 -15.5 49t-42.5 17
q-45 0 -66.5 -43t-21.5 -146q0 -71 8.5 -111.5t28 -58.5t53.5 -18q74 0 74 82z" />
    <glyph glyph-name="uni025F" unicode="&#x25f;" horiz-adv-x="275" 
d="M268 210h-67v-185q0 -67 -20.5 -112t-57 -74t-92.5 -55l-42 88q32 19 50.5 36t28.5 44.5t10 71.5v186h-67v89h67v230h123v-230h67v-89z" />
    <glyph glyph-name="uni0260" unicode="&#x260;" horiz-adv-x="496" 
d="M575 717l-39 -74q-15 9 -27 13t-27 4q-22 0 -32.5 -13t-10.5 -43v-619q0 -96 -54 -149t-153 -53q-89 0 -155 46l42 76q22 -14 46.5 -21.5t57.5 -7.5q49 0 71 25.5t22 76.5v90q-41 -62 -109 -62q-82 0 -127.5 71t-45.5 197q0 81 22.5 142t63.5 94t95 33q30 0 56 -12.5
t45 -35.5v104q0 74 39 114.5t109 40.5q58 0 111 -37zM280.5 114.5q18.5 16.5 35.5 50.5v234q-32 52 -73 52q-81 0 -81 -176q0 -97 19.5 -137t55.5 -40q25 0 43.5 16.5z" />
    <glyph glyph-name="uni0261" unicode="&#x261;" horiz-adv-x="496" 
d="M439 529v-544q0 -96 -54 -149t-153 -53q-89 0 -155 46l42 76q22 -14 46.5 -21.5t57.5 -7.5q49 0 71 25.5t22 76.5v90q-41 -62 -109 -62q-82 0 -127.5 71t-45.5 197q0 81 22.5 142t63.5 94t95 33q34 0 62.5 -16.5t48.5 -44.5l6 47h107zM280.5 114.5q18.5 16.5 35.5 50.5
v234q-32 52 -73 52q-81 0 -81 -176q0 -97 19.5 -137t55.5 -40q25 0 43.5 16.5z" />
    <glyph glyph-name="uni0262" unicode="&#x262;" horiz-adv-x="473" 
d="M350 526.5q40 -17.5 74 -50.5l-58 -66q-27 21 -51 31t-51 10q-50 0 -76.5 -41.5t-26.5 -142.5q0 -76 10.5 -117t29.5 -56.5t48 -15.5q32 0 66 16v123h-61l-12 87h186v-260q-84 -57 -180 -57q-108 0 -161 66.5t-53 213.5q0 91 29 153t79.5 93t115.5 31q52 0 92 -17.5z" />
    <glyph glyph-name="uni0263" unicode="&#x263;" horiz-adv-x="430" 
d="M277 73q30 -58 43.5 -98.5t13.5 -82.5q0 -51 -29 -80t-88 -29q-58 0 -87 29t-29 80q0 37 13 77.5t43 101.5l-156 458h127l89 -378l91 378h121zM236 -56q-6 23 -19 54q-12 -32 -18 -55t-6 -46q0 -32 24 -32q25 0 25 33q0 23 -6 46z" />
    <glyph glyph-name="uni0264" unicode="&#x264;" 
d="M426.5 536q18.5 -7 38.5 -21l-35 -70q-10 6 -16.5 8t-17.5 2q-12 0 -20.5 -9t-17.5 -33l-69 -179q27 -52 38 -81.5t11 -63.5q0 -48 -27 -75.5t-81 -27.5q-52 0 -80 27.5t-28 74.5q0 32 10.5 62t37.5 84l-68 179q-9 24 -17.5 33t-21.5 9q-10 0 -16.5 -2t-16.5 -8l-35 70
q20 14 38.5 21t42.5 7q46 0 72 -26.5t42 -85.5l40 -129l40 129q17 59 43 85.5t71 26.5q24 0 42.5 -7zM246 126.5q-5 16.5 -16 44.5q-11 -28 -16 -44.5t-5 -33.5q0 -27 21 -27t21 27q0 17 -5 33.5z" />
    <glyph glyph-name="uni0265" unicode="&#x265;" horiz-adv-x="481" 
d="M424 529v-746l-123 14v267q-25 -39 -54.5 -58.5t-69.5 -19.5q-57 0 -90 41t-33 110v392h123v-378q0 -38 10.5 -54t30.5 -16q43 0 83 79v369h123z" />
    <glyph glyph-name="uni0266" unicode="&#x266;" horiz-adv-x="481" 
d="M394 500.5q33 -42.5 33 -118.5v-382h-123v368q0 45 -10 63t-31 18q-42 0 -83 -79v-370h-123v599q0 68 42.5 111.5t120.5 43.5q62 0 117 -30l-35 -80q-35 16 -67 16q-29 0 -42 -15t-13 -48v-131q25 39 54.5 58t69.5 19q57 0 90 -42.5z" />
    <glyph glyph-name="uni0267" unicode="&#x267;" horiz-adv-x="481" 
d="M428 1v-68q0 -72 -42.5 -111t-111.5 -39t-116 40l45 71q15 -10 27.5 -14t28.5 -4q46 0 46 53v71h-1v368q0 45 -10 63t-31 18q-42 0 -83 -79v-370h-123v599q0 68 42.5 111.5t120.5 43.5q62 0 117 -30l-35 -80q-35 16 -67 16q-29 0 -42 -15t-13 -48v-131q25 39 54.5 58
t69.5 19q57 0 90 -42.5t33 -118.5v-381h1z" />
    <glyph glyph-name="uni0268" unicode="&#x268;" horiz-adv-x="271" 
d="M82.5 665q-20.5 21 -20.5 53q0 33 20.5 54t53.5 21t53.5 -21t20.5 -54q0 -32 -20.5 -53t-53.5 -21t-53.5 21zM264 326v-88h-66v-238h-123v238h-69v88h69v203h123v-203h66z" />
    <glyph glyph-name="uni0269" unicode="&#x269;" horiz-adv-x="249" 
d="M83.5 18.5q-31.5 33.5 -31.5 89.5v421h123v-416q0 -29 24 -29q7 0 13.5 2t8.5 2l24 -84q-34 -19 -76 -19q-54 0 -85.5 33.5z" />
    <glyph glyph-name="uni026A" unicode="&#x26a;" horiz-adv-x="278" 
d="M263 440h-63v-350h63v-90h-248v90h62v350h-62v89h248v-89z" />
    <glyph glyph-name="uni026B" unicode="&#x26b;" horiz-adv-x="361" 
d="M245 291v-178q0 -13 6 -21t18 -8q7 0 13.5 2t8.5 2l24 -84q-34 -19 -76 -19q-54 0 -85.5 33.5t-31.5 89.5v240q-3 1 -10 1q-17 0 -29.5 -12.5t-28.5 -38.5l-63 34q50 107 127 107h4v302l123 13v-371q4 -1 11 -1q18 0 31 11.5t27 34.5l64 -33q-49 -104 -124 -104h-9z" />
    <glyph glyph-name="uni026C" unicode="&#x26c;" horiz-adv-x="341" 
d="M321 4q-34 -19 -76 -19q-54 0 -85.5 33.5t-31.5 89.5v140q-66 2 -98.5 33t-32.5 85q0 49 28.5 77t72.5 28q14 0 30 -4v274l123 13v-432q17 1 33.5 4.5t21.5 4.5l14 -66q-33 -11 -69 -14v-138q0 -13 6 -21t18 -8q7 0 13.5 2t8.5 2zM128 321v81q-9 3 -19 3q-31 0 -31 -38
q0 -46 50 -46z" />
    <glyph glyph-name="uni026D" unicode="&#x26d;" horiz-adv-x="237" 
d="M327 -177q-47 -40 -116 -40t-111.5 39t-42.5 111v808l123 13v-825q0 -53 46 -53q16 0 28.5 4t27.5 14z" />
    <glyph glyph-name="uni026E" unicode="&#x26e;" horiz-adv-x="575" 
d="M513.5 152.5q46.5 -50.5 46.5 -144.5q0 -66 -26 -117t-75 -79.5t-116 -28.5q-58 0 -101.5 20t-76.5 59l65 67q26 -27 50.5 -38.5t55.5 -11.5q47 0 71.5 33.5t24.5 99.5q0 63 -26 90.5t-84 27.5h-66v78l149 226h-230v-321q0 -13 6 -21t18 -8q7 0 13.5 2t8.5 2l24 -84
q-34 -19 -76 -19q-54 0 -85.5 33.5t-31.5 89.5v633l123 13v-225h359v-88l-157 -233q90 -5 136.5 -55.5z" />
    <glyph glyph-name="uni026F" unicode="&#x26f;" horiz-adv-x="700" 
d="M643 529v-529h-107l-8 68q-52 -82 -125 -82q-37 0 -64 23t-41 65q-53 -88 -128 -88q-53 0 -85 41t-32 110v392h121v-379q0 -38 10 -54.5t29 -16.5q39 0 75 74v376h120v-379q0 -71 38 -71q41 0 76 74v376h121z" />
    <glyph glyph-name="uni0270" unicode="&#x270;" horiz-adv-x="700" 
d="M643 529v-746l-123 14v259q-25 -34 -53 -52t-64 -18q-37 0 -64 23t-41 65q-53 -88 -128 -88q-53 0 -85 41t-32 110v392h121v-379q0 -38 10 -54.5t29 -16.5q39 0 75 74v376h120v-379q0 -71 38 -71q41 0 76 74v376h121z" />
    <glyph glyph-name="uni0271" unicode="&#x271;" horiz-adv-x="700" 
d="M615 502q32 -41 32 -110v-452q0 -76 -42.5 -116.5t-109.5 -40.5q-66 0 -116 40l46 71q16 -10 28 -14t28 -4q45 0 45 53v450q0 38 -10 54.5t-29 16.5q-39 0 -75 -74v-376h-120v379q0 71 -38 71q-41 0 -76 -74v-376h-121v529h107l8 -68q52 82 125 82q37 0 64 -23t41 -65
q53 88 128 88q53 0 85 -41z" />
    <glyph glyph-name="uni0272" unicode="&#x272;" horiz-adv-x="481" 
d="M394 502q33 -41 33 -110v-392h-123v378q0 38 -10.5 54.5t-30.5 16.5q-42 0 -83 -79v-369h1v-68q0 -72 -42.5 -111t-111.5 -39t-116 40l45 71q15 -10 27.5 -14t28.5 -4q46 0 46 53v71h-1v529h107l9 -69q27 42 57.5 62.5t73.5 20.5q57 0 90 -41z" />
    <glyph glyph-name="uni0273" unicode="&#x273;" horiz-adv-x="478" 
d="M574 -177q-47 -40 -116 -40t-111.5 39t-42.5 111v445q0 38 -10.5 54.5t-30.5 16.5q-42 0 -83 -79v-370h-123v529h107l9 -69q27 42 57.5 62.5t73.5 20.5q57 0 90 -41t33 -110v-463q0 -53 46 -53q16 0 28.5 4t27.5 14z" />
    <glyph glyph-name="uni0274" unicode="&#x274;" horiz-adv-x="489" 
d="M432 0h-149l-135 416q7 -59 11 -110.5t4 -122.5v-183h-106v529h149l135 -416q-8 57 -11.5 97.5t-3.5 100.5v218h106v-529z" />
    <glyph glyph-name="uni0275" unicode="&#x275;" horiz-adv-x="490" 
d="M400.5 473q55.5 -70 55.5 -208q0 -132 -56 -206t-155 -74t-155 72.5t-56 207.5q0 134 56 206t155 72q100 0 155.5 -70zM183.5 418.5q-21.5 -33.5 -25.5 -110.5h175q-4 78 -26 111t-62 33t-61.5 -33.5zM308 112q21 35 25 118h-175q3 -83 24 -118t63 -35t63 35z" />
    <glyph glyph-name="uni0276" unicode="&#x276;" horiz-adv-x="633" 
d="M401 88h211v-88h-292q-37 -14 -76 -14q-98 0 -154 72t-56 207q0 134 56 206t155 72q44 0 76 -14h292l-13 -88h-197q36 -50 45 -129h131v-86h-130q-7 -85 -48 -138zM307 121.5q21 42.5 21 143.5q0 99 -21.5 142t-61.5 43q-43 0 -63 -42t-20 -143q0 -102 20 -144t63 -42
q41 0 62 42.5z" />
    <glyph glyph-name="uni0277" unicode="&#x277;" horiz-adv-x="638" 
d="M529.5 465q74.5 -78 74.5 -224q0 -131 -43 -193.5t-118 -62.5q-51 0 -83 27t-41 80q-22 -107 -122 -107q-77 0 -120 62t-43 194q0 146 75.5 224t210.5 78t209.5 -78zM456 92q13 13 20 49.5t7 103.5q0 105 -37.5 157t-125.5 52q-89 0 -127 -52t-38 -158q0 -92 14 -128.5
t45 -36.5q24 0 36.5 19t12.5 71v122l112 14v-136q0 -48 12 -69t36 -21q20 0 33 13z" />
    <glyph glyph-name="uni0278" unicode="&#x278;" horiz-adv-x="549" 
d="M472 78.5q-50 -64.5 -136 -74.5v-207l-123 -14v222q-85 11 -135.5 74.5t-50.5 183.5q0 123 50 187t136 74v216l123 12v-229q86 -10 136 -73t50 -183q0 -124 -50 -188.5zM164 134q19 -40 60 -46v353q-43 -6 -61 -45t-18 -133q0 -89 19 -129zM386.5 134.5
q18.5 40.5 18.5 132.5q0 90 -19 129t-60 45v-354q42 7 60.5 47.5z" />
    <glyph glyph-name="uni0279" unicode="&#x279;" horiz-adv-x="331" 
d="M274 529v-529h-107l-9 92q-37 -105 -117 -105q-23 0 -41 7l20 118q20 -5 37 -5q38 0 60 33t34 98v291h123z" />
    <glyph glyph-name="uni027A" unicode="&#x27a;" horiz-adv-x="331" 
d="M274 529v-529h-107l-9 92q-37 -105 -117 -105q-23 0 -41 7l20 118q20 -5 37 -5q38 0 60 33t34 98v290h-1v226l123 -13v-212h1z" />
    <glyph glyph-name="uni027B" unicode="&#x27b;" horiz-adv-x="331" 
d="M421 -177q-47 -40 -116 -40t-111.5 39t-42.5 111v141q-37 -87 -110 -87q-23 0 -41 7l21 118q20 -5 36 -5q38 0 60 31.5t34 94.5v296h123v-600q0 -53 46 -53q16 0 28.5 4t27.5 14z" />
    <glyph glyph-name="uni027C" unicode="&#x27c;" horiz-adv-x="331" 
d="M331 535l-20 -118q-20 5 -37 5q-38 0 -60 -33t-34 -98v-494l-123 -14v746h107l9 -92q37 105 117 105q23 0 41 -7z" />
    <glyph glyph-name="uni027D" unicode="&#x27d;" horiz-adv-x="331" 
d="M254.5 -120q12.5 4 27.5 14l45 -71q-47 -40 -116 -40t-111.5 39t-42.5 111v596h107l9 -92q37 105 117 105q23 0 41 -7l-20 -118q-20 5 -37 5q-38 0 -60 -33t-34 -98v-362q0 -53 46 -53q16 0 28.5 4z" />
    <glyph glyph-name="uni027E" unicode="&#x27e;" horiz-adv-x="324" 
d="M323 504l-45 -71q-15 10 -27.5 14t-28.5 4q-46 0 -46 -53v-71h1v-327h-123v326h-1v68q0 72 42.5 111t111.5 39t116 -40z" />
    <glyph glyph-name="uni027F" unicode="&#x27f;" horiz-adv-x="324" 
d="M271 326h-1v-326h-123v327h1v71q0 53 -46 53q-16 0 -28.5 -4t-27.5 -14l-45 71q47 40 116 40t111.5 -39t42.5 -111v-68z" />
    <glyph glyph-name="uni0280" unicode="&#x280;" horiz-adv-x="443" 
d="M307 0l-88 194h-8h-36v-194h-118v529h145q99 0 150 -43t51 -125q0 -106 -81 -146l110 -215h-125zM175 275h35q36 0 53 19.5t17 67.5q0 45 -19 64t-61 19h-25v-170z" />
    <glyph glyph-name="uni0281" unicode="&#x281;" horiz-adv-x="443" 
d="M383 257.5q20 -37.5 20 -88.5q0 -82 -51 -125.5t-150 -43.5h-145v529h118v-193h42h2l88 193h125l-110 -214q41 -20 61 -57.5zM261 103.5q19 19.5 19 64.5q0 48 -17.5 67.5t-52.5 19.5h-35v-171h25q42 0 61 19.5z" />
    <glyph glyph-name="uni0282" unicode="&#x282;" horiz-adv-x="398" 
d="M116 2v-62q0 -65 54 -65q19 0 34 5.5t32 16.5l42 -74q-49 -39 -118 -39q-71 0 -111.5 41.5t-40.5 121.5v112l53 58q63 -41 121 -41q33 0 52 17.5t19 48.5q0 23 -8 37.5t-28 27t-60 27.5q-69 27 -98.5 63t-29.5 92q0 67 47.5 110.5t127.5 43.5q94 0 159 -62l-47 -67
q-28 20 -53 30t-51 10q-29 0 -45.5 -15.5t-16.5 -42.5t18.5 -43.5t74.5 -38.5q69 -27 102 -64t33 -99q0 -51 -24.5 -89t-66.5 -57.5t-93 -19.5q-44 0 -78 17z" />
    <glyph glyph-name="uni0283" unicode="&#x283;" horiz-adv-x="236" 
d="M316 717l-39 -74q-15 9 -27 13t-27 4q-22 0 -32.5 -13t-10.5 -43v-603h1v-68q0 -72 -42.5 -111t-111.5 -39t-116 40l45 71q15 -10 27.5 -14t28.5 -4q46 0 46 53v71h-1v599q0 74 39 114.5t109 40.5q58 0 111 -37z" />
    <glyph glyph-name="uni0284" unicode="&#x284;" horiz-adv-x="269" 
d="M265 89v-89h-68q-6 -85 -47.5 -132t-122.5 -84l-41 88q44 26 64.5 52t23.5 76h-66v89h67v510q0 74 39 114.5t109 40.5q58 0 111 -37l-39 -74q-15 9 -27 13t-27 4q-22 0 -32.5 -13t-10.5 -43v-515h67z" />
    <glyph glyph-name="uni0285" unicode="&#x285;" horiz-adv-x="392" 
d="M398 26q-47 -40 -116 -40t-111.5 39t-42.5 111v68h1v189q0 30 -10.5 43t-32.5 13q-15 0 -27 -4t-27 -13l-39 74q53 37 111 37q70 0 109 -40.5t39 -114.5v-185h-1v-71q0 -53 46 -53q16 0 28.5 4t27.5 14z" />
    <glyph glyph-name="uni0286" unicode="&#x286;" horiz-adv-x="277" 
d="M220 -10q46 -14 84 -37l-25 -54q-38 18 -63 26q-10 -69 -50.5 -105.5t-109.5 -36.5q-59 0 -91 30t-32 82q0 58 34 88.5t93 30.5q18 0 38 -2v587q0 74 39 114.5t109 40.5q58 0 111 -37l-39 -74q-15 9 -27 13t-27 4q-22 0 -32.5 -13t-10.5 -43v-76zM86.5 -125.5
q11.5 20.5 11.5 65.5v8q-13 4 -37 4q-53 0 -53 -52q0 -46 41 -46q26 0 37.5 20.5z" />
    <glyph glyph-name="uni0287" unicode="&#x287;" horiz-adv-x="317" 
d="M312 0h-62v-117l-123 -15v132h-100l12 89h88v308q0 48 -41 48q-13 0 -23 -3.5t-26 -12.5l-43 76q49 39 115 39q69 0 105 -39.5t36 -107.5v-308h62v-89z" />
    <glyph glyph-name="uni0288" unicode="&#x288;" horiz-adv-x="377" 
d="M337 -177q-47 -40 -116 -40t-111.5 39t-42.5 111v507h-62v89h62v117l123 15v-132h100l-12 -89h-88v-511q0 -53 46 -53q16 0 28.5 4t27.5 14z" />
    <glyph glyph-name="uni0289" unicode="&#x289;" horiz-adv-x="506" 
d="M497 308h-62v-308h-107l-6 67q-25 -41 -56 -61.5t-72 -20.5q-58 0 -91.5 41t-33.5 107v175h-64v83h64v138h123v-138h120v138h123v-138h62v-83zM312 308h-120v-168q0 -62 42 -62q24 0 43 18.5t35 52.5v159z" />
    <glyph glyph-name="uni028A" unicode="&#x28a;" horiz-adv-x="489" 
d="M89.5 49.5q-55.5 64.5 -55.5 179.5q0 72 23 123t67 91h-78v86h163v-82q-24 -40 -36 -86.5t-12 -125.5q0 -86 20.5 -122t63.5 -36t63 36.5t20 121.5q0 79 -12 126t-36 86v82h162v-86h-76q44 -39 66.5 -90.5t22.5 -123.5q0 -113 -55.5 -178.5t-154.5 -65.5
q-100 0 -155.5 64.5z" />
    <glyph glyph-name="uni028B" unicode="&#x28b;" horiz-adv-x="478" 
d="M102 29q-48 43 -48 120v380h123v-372q0 -41 13.5 -59.5t41.5 -18.5q79 0 79 145v191q0 18 -5.5 25.5t-18.5 7.5q-10 0 -19 -3l-20 83q30 15 71 15q56 0 85.5 -33t29.5 -95v-184q0 -124 -59 -184.5t-150 -60.5q-75 0 -123 43z" />
    <glyph glyph-name="uni028C" unicode="&#x28c;" horiz-adv-x="427" 
d="M1 0l138 529h145l142 -529h-127l-87 430l-90 -430h-121z" />
    <glyph glyph-name="uni028D" unicode="&#x28d;" horiz-adv-x="625" 
d="M13 0l91 529h150l59 -417l58 417h149l93 -529h-119l-54 437l-67 -437h-125l-64 437l-57 -437h-114z" />
    <glyph glyph-name="uni028E" unicode="&#x28e;" horiz-adv-x="431" 
d="M142 531q25 96 83 151t155 65l14 -88q-63 -12 -94.5 -41t-49.5 -89h46l134 -529h-125l-88 447l-93 -447h-123z" />
    <glyph glyph-name="uni028F" unicode="&#x28f;" horiz-adv-x="404" 
d="M413 529l-149 -333v-196h-123v195l-150 334h126l87 -255l86 255h123z" />
    <glyph glyph-name="uni0290" unicode="&#x290;" horiz-adv-x="372" 
d="M504 -177q-51 -40 -118 -40t-108.5 38t-41.5 109v70h-223v89l211 343h-193v97h325v-89l-211 -343h209v-168q0 -53 47 -53q16 0 29 4t28 14z" />
    <glyph glyph-name="uni0291" unicode="&#x291;" horiz-adv-x="441" 
d="M412.5 33q-42.5 -33 -129.5 -33q-4 -39 -4 -124h-71q0 72 4 124h-199v89l211 343h-193v97h325v-86l-211 -346h80q17 74 49 108t79 34q45 0 73.5 -28t28.5 -77q0 -68 -42.5 -101zM353.5 105.5q16.5 8.5 16.5 32.5q0 14 -6.5 22.5t-18.5 8.5q-17 0 -29 -16t-19 -56
q40 0 56.5 8.5z" />
    <glyph glyph-name="uni0292" unicode="&#x292;" horiz-adv-x="412" 
d="M397 8q0 -66 -26 -117t-75 -79.5t-116 -28.5q-122 0 -191 96l67 61q32 -32 58 -46.5t59 -14.5q47 0 72 34t25 99q0 63 -26.5 90.5t-83.5 27.5h-70v78l153 226h-222v95h351v-88l-160 -232q185 -11 185 -201z" />
    <glyph glyph-name="uni0293" unicode="&#x293;" horiz-adv-x="412" 
d="M361 -123q-36 -55 -105 -79l22 -56l-62 -26l-26 69q-22 -2 -36 -2q-83 0 -129.5 37t-46.5 106q0 52 29 83t74 31q47 0 76.5 -31.5t58.5 -115.5q54 27 54 121q0 64 -26 91.5t-81 27.5h-73v78l153 223h-222v95h351v-88l-160 -229q91 -5 138 -55.5t47 -147.5q0 -77 -36 -132
zM83.5 -108.5q19.5 -11.5 68.5 -11.5h1q-18 53 -30.5 70.5t-30.5 17.5q-28 0 -28 -37q0 -28 19.5 -39.5z" />
    <glyph glyph-name="uni0294" unicode="&#x294;" horiz-adv-x="388" 
d="M106 351l37 14q53 21 77.5 54.5t24.5 102.5q0 138 -89 138q-31 0 -55.5 -13t-52.5 -42l-61 61q39 44 83 66t99 22q93 0 148 -60t55 -169q0 -93 -33.5 -139t-94.5 -74l-15 -7v-305h-123v351z" />
    <glyph glyph-name="uni0295" unicode="&#x295;" horiz-adv-x="388" 
d="M159 0v305l-15 7q-61 27 -94 73.5t-33 139.5q0 109 55.5 169t148.5 60q54 0 97.5 -22t83.5 -66l-61 -61q-29 29 -53.5 42t-55.5 13q-89 0 -89 -138q0 -69 24.5 -102.5t77.5 -54.5l37 -14v-351h-123z" />
    <glyph glyph-name="uni0296" unicode="&#x296;" horiz-adv-x="424" 
d="M238 753v-318l24 -9q60 -22 94 -70t34 -140q0 -110 -55.5 -170t-149.5 -60q-54 0 -97.5 22t-82.5 66l61 61q28 -28 52.5 -41.5t55.5 -13.5q89 0 89 138q0 70 -24.5 105t-76.5 52l-47 14v351z" />
    <glyph glyph-name="uni0297" unicode="&#x297;" horiz-adv-x="414" 
d="M342.5 528.5q34.5 -14.5 66.5 -45.5l-52 -72q-45 35 -86 35q-49 0 -73 -64t-24 -221q0 -156 23.5 -216.5t71.5 -60.5q23 0 41.5 8t41.5 25l54 -73q-62 -60 -143 -60q-218 0 -218 375q0 191 57 287.5t163 96.5q43 0 77.5 -14.5z" />
    <glyph glyph-name="uni0298" unicode="&#x298;" horiz-adv-x="666" 
d="M489 664q67 -41 104 -121.5t37 -196.5q0 -113 -37 -194t-104 -123.5t-156 -42.5t-156.5 41t-104.5 122t-37 197q0 112 37.5 193t104.5 123.5t156 42.5t156 -41zM155 346q0 -271 179 -271q86 0 131.5 64t45.5 207q0 140 -47 205t-130 65q-179 0 -179 -270zM385 392
q19 -20 19 -50t-19 -49.5t-50 -19.5q-30 0 -49.5 19.5t-19.5 49.5t19.5 50t49.5 20q31 0 50 -20z" />
    <glyph glyph-name="uni0299" unicode="&#x299;" horiz-adv-x="465" 
d="M431 159q0 -79 -52.5 -119t-144.5 -40h-177v525q101 18 169 18q86 0 135.5 -38.5t49.5 -104.5q0 -43 -23 -70.5t-75 -41.5q118 -13 118 -129zM180 457v-140h49q30 0 46.5 16t16.5 56t-16 55.5t-51 15.5q-22 0 -45 -3zM287.5 101.5q18.5 17.5 18.5 63.5t-18 62.5t-54 16.5
h-54v-160h54q35 0 53.5 17.5z" />
    <glyph glyph-name="uni029A" unicode="&#x29a;" horiz-adv-x="481" 
d="M88 31q-54 45 -54 123q0 58 29.5 88t92.5 41q-52 14 -76 42t-24 72q0 65 49 105.5t125 40.5q104 0 160.5 -72t56.5 -206q0 -137 -55 -208t-160 -71q-90 0 -144 45zM286.5 95q19.5 18 28 58.5t8.5 111.5q0 103 -21.5 146t-66.5 43q-27 0 -42.5 -17t-15.5 -49
q0 -35 17.5 -53.5t46.5 -18.5h15l7 -85h-26q-38 0 -58 -16t-20 -56q0 -82 74 -82q34 0 53.5 18z" />
    <glyph glyph-name="uni029B" unicode="&#x29b;" horiz-adv-x="470" 
d="M559 717l-38 -74q-16 9 -27.5 13t-27.5 4q-22 0 -32 -13t-10 -43v-128l-55 -62q-27 19 -51.5 28t-52.5 9q-51 0 -77.5 -41t-26.5 -143q0 -76 10.5 -117t29.5 -56.5t48 -15.5q34 0 66 16v123h-61l-12 87h186v-260q-84 -57 -180 -57q-108 0 -161 66.5t-53 213.5
q0 90 28.5 152.5t77 93.5t108.5 31q38 0 67 -13v79q0 68 36 106t97 38q60 0 111 -37z" />
    <glyph glyph-name="uni029C" unicode="&#x29c;" horiz-adv-x="488" 
d="M307 0v223h-127v-223h-123v529h123v-213h127v213h123v-529h-123z" />
    <glyph glyph-name="uni029D" unicode="&#x29d;" horiz-adv-x="278" 
d="M279 -101q-38 18 -63 26q-10 -69 -50.5 -105.5t-109.5 -36.5q-59 0 -91 30t-32 82q0 58 34 88.5t93 30.5q18 0 38 -2v517h123l-1 -538q42 -13 84 -38zM86.5 -125.5q11.5 20.5 11.5 65.5v8q-13 4 -37 4q-53 0 -53 -52q0 -46 41 -46q26 0 37.5 20.5zM211.5 772
q20.5 -21 20.5 -54q0 -32 -20.5 -53t-53.5 -21t-53.5 21t-20.5 53q0 33 20.5 54t53.5 21t53.5 -21z" />
    <glyph glyph-name="uni029E" unicode="&#x29e;" horiz-adv-x="453" 
d="M6 0l141 234l-152 295h132l142 -289l-143 -240h-120zM273 -203v732h123v-746z" />
    <glyph glyph-name="uni029F" unicode="&#x29f;" horiz-adv-x="369" 
d="M180 529v-431h183l-13 -98h-293v529h123z" />
    <glyph glyph-name="uni02A0" unicode="&#x2a0;" horiz-adv-x="496" 
d="M575 717l-39 -74q-15 9 -27 13t-27 4q-22 0 -32.5 -13t-10.5 -43v-821l-123 14v256q-42 -68 -114 -68q-80 0 -124 73t-44 206q0 85 22.5 148t62.5 97t93 34q61 0 104 -51v107q0 74 39 114.5t109 40.5q58 0 111 -37zM280 94q19 16 36 48v254q-34 55 -74 55
q-36 0 -58 -44.5t-22 -141.5q0 -103 19.5 -145t55.5 -42q24 0 43 16z" />
    <glyph glyph-name="uni02A1" unicode="&#x2a1;" horiz-adv-x="388" 
d="M229 305v-87h81v-80h-81v-138h-123v138h-54v80h54v133l37 14q53 21 77.5 54.5t24.5 102.5q0 138 -89 138q-31 0 -55.5 -13t-52.5 -42l-61 61q39 44 83 66t99 22q93 0 148 -60t55 -169q0 -93 -33.5 -139t-94.5 -74z" />
    <glyph glyph-name="uni02A2" unicode="&#x2a2;" horiz-adv-x="388" 
d="M143 522q0 -69 24.5 -102.5t77.5 -54.5l37 -14v-133h56v-80h-56v-138h-123v138h-80v80h80v87l-15 7q-61 27 -94 73.5t-33 139.5q0 109 55.5 169t148.5 60q54 0 97.5 -22t83.5 -66l-61 -61q-29 29 -53.5 42t-55.5 13q-89 0 -89 -138z" />
    <glyph glyph-name="uni02A3" unicode="&#x2a3;" horiz-adv-x="798" 
d="M782 97l-11 -97h-441l-6 61q-47 -76 -121 -76q-82 0 -125.5 73.5t-43.5 205.5q0 84 22.5 147.5t62.5 97.5t92 34q64 0 105 -53v264l123 -13v-212h340v-89l-211 -343h214zM279.5 94q18.5 16 36.5 46v257q-32 54 -73 54q-81 0 -81 -186q0 -101 20 -144t56 -43q23 0 41.5 16
zM439 432v-338l207 338h-207z" />
    <glyph glyph-name="uni02A4" unicode="&#x2a4;" horiz-adv-x="829" 
d="M814 8q0 -66 -26 -117t-75 -79.5t-116 -28.5q-122 0 -191 96l67 61q32 -32 58 -46.5t59 -14.5q47 0 72 34t25 99q0 63 -26.5 90.5t-83.5 27.5h-70v78l153 226h-221v-434h-109l-6 61q-47 -76 -121 -76q-82 0 -125.5 73.5t-43.5 205.5q0 84 22.5 147.5t62.5 97.5t92 34
q64 0 105 -53v264l123 -13v-212h350v-88l-160 -232q185 -11 185 -201zM279.5 94q18.5 16 36.5 46v257q-32 54 -73 54q-81 0 -81 -186q0 -101 20 -144t56 -43q23 0 41.5 16z" />
    <glyph glyph-name="uni02A5" unicode="&#x2a5;" horiz-adv-x="862" 
d="M834.5 33q-42.5 -33 -129.5 -33q-4 -39 -4 -124h-72q0 59 5 124h-304l-6 61q-47 -76 -121 -76q-82 0 -125.5 73.5t-43.5 205.5q0 84 22.5 147.5t62.5 97.5t92 34q64 0 105 -53v264l123 -13v-212h339v-86l-211 -346h80q17 74 49 108t79 34q45 0 73.5 -28t28.5 -77
q0 -68 -42.5 -101zM279.5 94q18.5 16 36.5 46v257q-32 54 -73 54q-81 0 -81 -186q0 -101 20 -144t56 -43q23 0 41.5 16zM439 432v-336l206 336h-206zM774.5 105.5q16.5 8.5 16.5 32.5q0 15 -6 23t-18 8q-17 0 -29.5 -16t-19.5 -56q40 0 56.5 8.5z" />
    <glyph glyph-name="uni02A6" unicode="&#x2a6;" horiz-adv-x="611" 
d="M559.5 251.5q31.5 -37.5 31.5 -94.5q-1 -84 -67 -127.5t-191 -43.5q-266 0 -266 206v248h-62v89h62v117l123 15v-132h80l-13 -89h-67v-245q0 -58 34.5 -87t109.5 -29q70 0 102.5 18t32.5 55q0 29 -17 46t-67 37q-64 26 -90.5 61t-26.5 92q0 67 44.5 111t118.5 44
q85 0 149 -61l-46 -66q-25 19 -47 28t-47 9q-26 0 -41.5 -15t-15.5 -42q0 -29 16 -47t67 -37q62 -23 93.5 -60.5z" />
    <glyph glyph-name="uni02A7" unicode="&#x2a7;" horiz-adv-x="491" 
d="M571 717l-39 -74q-15 9 -27 13t-27 4q-22 0 -32.5 -13t-10.5 -43v-603h1v-68q0 -72 -42.5 -111t-111.5 -39t-116 40l45 71q15 -10 27.5 -14t28.5 -4q46 0 46 53v70q-45 -14 -90 -14q-156 0 -156 167v288h-62v89h62v117l123 15v-132h122v70q0 74 39 114.5t109 40.5
q58 0 111 -37zM202.5 100q12.5 -16 46.5 -16q35 0 63 8v348h-122v-288q0 -36 12.5 -52z" />
    <glyph glyph-name="uni02A8" unicode="&#x2a8;" horiz-adv-x="668" 
d="M633 211.5q29 -29.5 29 -81.5q0 -69 -43.5 -106.5t-111.5 -37.5q-89 0 -146 59q-47 -32 -82.5 -45.5t-73.5 -13.5q-68 0 -103 39.5t-35 109.5v305h-62v89h62v117l123 15v-132h100l-12 -89h-88v-300q0 -28 11.5 -41.5t35.5 -13.5q22 0 40 4.5t41 16.5q-31 67 -31 154
q0 133 57.5 208t155.5 75q84 0 144 -60l-52 -70q-22 18 -41.5 26.5t-42.5 8.5q-46 0 -69 -42.5t-23 -143.5q0 -53 9 -94q34 39 65.5 56t67.5 17q46 0 75 -29.5zM560 92.5q15 13.5 15 39.5q0 37 -28 37q-18 0 -39.5 -14t-54.5 -49q24 -27 64 -27q28 0 43 13.5z" />
    <glyph glyph-name="uni02A9" unicode="&#x2a9;" horiz-adv-x="733" 
d="M680 1v-68q0 -72 -42.5 -111t-111.5 -39t-116 40l45 71q15 -10 27.5 -14t28.5 -4q46 0 46 53v71h-1v378q0 38 -10.5 54.5t-30.5 16.5q-42 0 -83 -79v-370h-123v439h-113v-439h-123v439h-66v90h66v67q0 72 42 115t120 43q61 0 118 -30l-34 -80q-35 17 -68 17
q-28 0 -41.5 -15t-13.5 -46v-71h220l9 -69q27 42 57.5 62.5t73.5 20.5q57 0 90 -41t33 -110v-391h1z" />
    <glyph glyph-name="uni02AA" unicode="&#x2aa;" horiz-adv-x="568" 
d="M52 183v558l123 13v-572q0 -52 30 -77.5t97 -25.5q66 0 97 17.5t31 54.5q0 20 -6 33t-23.5 25.5t-53.5 26.5q-64 25 -90.5 60.5t-26.5 93.5q0 67 44 110t116 43q84 0 147 -60l-44 -69q-51 38 -95 38q-25 0 -39.5 -15.5t-14.5 -41.5q0 -28 16 -44t66 -35
q63 -25 92.5 -62.5t29.5 -93.5q0 -86 -65 -130t-187 -44q-244 0 -244 197z" />
    <glyph glyph-name="uni02AB" unicode="&#x2ab;" horiz-adv-x="581" 
d="M555 0h-318q-34 -15 -68 -15q-54 0 -85.5 33.5t-31.5 89.5v633l123 13v-641q0 -13 6 -21t18 -8q7 0 13 2t7 2l211 344h-193v97h325v-89l-211 -343h215z" />
    <glyph glyph-name="uni02AC" unicode="&#x2ac;" horiz-adv-x="383" 
d="M358 666l-51 -266h-82l-31 196l-33 -196h-82l-54 266h64l33 -205l36 205h74l34 -206l32 206h60zM358 266l-51 -266h-82l-31 196l-33 -196h-82l-54 266h64l33 -205l36 205h74l34 -206l32 206h60z" />
    <glyph glyph-name="uni02AD" unicode="&#x2ad;" horiz-adv-x="307" 
d="M30 399v156h247v-156h-73v87h-100v-87h-74zM30 -2v156h247v-156h-73v87h-100v-87h-74z" />
    <glyph glyph-name="uni02AE" unicode="&#x2ae;" horiz-adv-x="575" 
d="M518 529v-746l-123 14v268q-25 -40 -54 -59.5t-70 -19.5q-57 0 -90.5 41t-33.5 110v191h1v71q0 53 -46 53q-16 0 -28.5 -4t-27.5 -14l-45 71q47 40 116 40t111.5 -39t42.5 -111v-68h-1v-176q0 -37 10.5 -53.5t31.5 -16.5q41 0 83 79v369h123z" />
    <glyph glyph-name="uni02AF" unicode="&#x2af;" horiz-adv-x="575" 
d="M664 -177q-47 -40 -116 -40t-111.5 39t-42.5 111v68h1v64q-25 -40 -54 -59.5t-70 -19.5q-57 0 -90.5 41t-33.5 110v191h1v71q0 53 -46 53q-16 0 -28.5 -4t-27.5 -14l-45 71q47 40 116 40t111.5 -39t42.5 -111v-68h-1v-176q0 -37 10.5 -53.5t31.5 -16.5q41 0 83 79v369
h123v-529h-1v-71q0 -53 46 -53q16 0 28.5 4t27.5 14z" />
    <glyph glyph-name="uni02B0" unicode="&#x2b0;" horiz-adv-x="255" 
d="M211.5 652q18.5 -21 18.5 -59v-193h-66v177q0 21 -6.5 29t-18.5 8q-13 0 -24 -8t-24 -22v-184h-66v372l66 8v-143q27 36 69 36q33 0 51.5 -21z" />
    <glyph glyph-name="uni02B1" unicode="&#x2b1;" horiz-adv-x="255" 
d="M211.5 652q18.5 -21 18.5 -59v-193h-66v177q0 21 -6.5 29t-18.5 8q-13 0 -24.5 -8t-23.5 -22v-184h-66v294q0 37 23 60.5t65 23.5q16 0 34 -4t31 -11l-18 -51q-21 8 -41 8q-15 0 -21.5 -7t-6.5 -25v-51q27 36 69 36q33 0 51.5 -21z" />
    <glyph glyph-name="uni02B2" unicode="&#x2b2;" horiz-adv-x="174" 
d="M137 791.5q12 -12.5 12 -31.5t-12 -31.5t-32 -12.5q-19 0 -31.5 12.5t-12.5 31.5t12.5 31.5t31.5 12.5q20 0 32 -12.5zM138 418q0 -56 -22.5 -81.5t-70.5 -44.5l-20 51q26 15 36.5 30t10.5 45v247h66v-247z" />
    <glyph glyph-name="uni02B4" unicode="&#x2b4;" horiz-adv-x="202" 
d="M177 666v-266h-50l-10 49q-20 -56 -65 -56q-17 0 -27 5l10 71q11 -3 22 -3q22 0 34.5 19.5t19.5 56.5v124h66z" />
    <glyph glyph-name="uni02B7" unicode="&#x2b7;" horiz-adv-x="383" 
d="M358 666l-51 -266h-82l-31 196l-33 -196h-82l-54 266h64l33 -205l36 205h74l34 -206l32 206h60z" />
    <glyph glyph-name="uni02B8" unicode="&#x2b8;" horiz-adv-x="291" 
d="M181 397q-17 -53 -45 -78t-82 -32l-8 50q34 9 49 21.5t25 41.5h-17l-78 266h67l52 -218l57 218h65z" />
    <glyph glyph-name="uni02B9" unicode="&#x2b9;" horiz-adv-x="272" 
d="M47 421l64 271h114l-96 -271h-82z" />
    <glyph glyph-name="uni02BA" unicode="&#x2ba;" horiz-adv-x="446" 
d="M47 421l64 271h114l-96 -271h-82zM221 421l64 271h114l-96 -271h-82z" />
    <glyph glyph-name="uni02BB" unicode="&#x2bb;" horiz-adv-x="199" 
d="M47.5 606.5q-17.5 19.5 -17.5 49.5q0 16 4.5 32t17.5 47l53 133h62l-34 -152q30 -22 30 -58q0 -31 -18.5 -51t-48.5 -20q-31 0 -48.5 19.5z" />
    <glyph glyph-name="uni02BC" unicode="&#x2bc;" horiz-adv-x="210" 
d="M154.5 739.5q17.5 -19.5 17.5 -49.5q0 -16 -4.5 -32t-17.5 -47l-53 -133h-62l34 152q-30 22 -30 58q0 31 18.5 51t48.5 20q31 0 48.5 -19.5z" />
    <glyph glyph-name="uni02BF" unicode="&#x2bf;" horiz-adv-x="171" 
d="M141 680q-18 0 -27.5 13.5t-9.5 39.5t9.5 39.5t27.5 13.5v64q-51 0 -81 -32.5t-30 -84.5q0 -53 30 -85.5t81 -32.5v65z" />
    <glyph glyph-name="uni02C0" unicode="&#x2c0;" horiz-adv-x="247" 
d="M75 704q32 4 45 12t13 29q0 35 -33 35q-23 0 -49 -13l-21 56q37 25 87 25q48 0 74 -26t26 -70q0 -37 -17.5 -59.5t-50.5 -29.5v-54h-74v95z" />
    <glyph glyph-name="circumflex" unicode="&#x2c6;" horiz-adv-x="365" 
d="M79 631l-44 47l115 128h75l115 -128l-45 -47l-107 88z" />
    <glyph glyph-name="caron" unicode="&#x2c7;" horiz-adv-x="365" 
d="M296 796l44 -48l-115 -128h-75l-115 128l44 48l109 -91z" />
    <glyph glyph-name="uni02C8" unicode="&#x2c8;" horiz-adv-x="168" 
d="M30 623v248h108v-248h-108z" />
    <glyph glyph-name="uni02CA" unicode="&#x2ca;" horiz-adv-x="285" 
d="M205 812l50 -91l-191 -90l-34 60z" />
    <glyph glyph-name="uni02CB" unicode="&#x2cb;" horiz-adv-x="285" 
d="M80 812l175 -121l-34 -60l-191 90z" />
    <glyph glyph-name="uni02CC" unicode="&#x2cc;" horiz-adv-x="168" 
d="M30 -316v248h108v-248h-108z" />
    <glyph glyph-name="uni02CE" unicode="&#x2ce;" horiz-adv-x="285" 
d="M78 -50l177 -113l-32 -62l-193 82z" />
    <glyph glyph-name="uni02CF" unicode="&#x2cf;" horiz-adv-x="285" 
d="M206 -49l49 -94l-193 -82l-32 62z" />
    <glyph glyph-name="uni02D0" unicode="&#x2d0;" horiz-adv-x="198" 
d="M90 331l-59 161h136l-59 -161h-18zM90 161h18l59 -161h-136z" />
    <glyph glyph-name="uni02D1" unicode="&#x2d1;" horiz-adv-x="198" 
d="M90 330l-59 161h136l-59 -161h-18z" />
    <glyph glyph-name="uni02D4" unicode="&#x2d4;" horiz-adv-x="345" 
d="M304 257v-73h-263v73h92v152h78v-152h93z" />
    <glyph glyph-name="uni02D6" unicode="&#x2d6;" horiz-adv-x="397" 
d="M244 477v-135h113v-88h-113v-133h-91v133h-112v88h112v135h91z" />
    <glyph glyph-name="uni02D7" unicode="&#x2d7;" horiz-adv-x="389" 
d="M41 256v86h307v-86h-307z" />
    <glyph glyph-name="breve" unicode="&#x2d8;" horiz-adv-x="337" 
d="M75.5 677.5q-35.5 39.5 -40.5 112.5l68 13q15 -78 70 -78q56 0 71 78l68 -13q-5 -73 -41 -112.5t-98 -39.5t-97.5 39.5z" />
    <glyph glyph-name="dotaccent" unicode="&#x2d9;" horiz-adv-x="208" 
d="M163.5 772q20.5 -21 20.5 -54q0 -32 -20.5 -53t-53.5 -21t-53.5 21t-20.5 53q0 33 20.5 54t53.5 21t53.5 -21z" />
    <glyph glyph-name="ring" unicode="&#x2da;" horiz-adv-x="282" 
d="M227 818.5q30 -31.5 30 -85.5t-30 -86t-81 -32t-81 32t-30 86t30 85.5t81 31.5t81 -31.5zM117.5 775.5q-9.5 -12.5 -9.5 -42.5t9.5 -43t28.5 -13t29 13t10 43t-10 42.5t-29 12.5t-28.5 -12.5z" />
    <glyph glyph-name="ogonek" unicode="&#x2db;" horiz-adv-x="247" 
d="M249 0q-55 -28 -75.5 -54t-20.5 -56q0 -47 45 -47q16 0 48 7l-8 -80q-29 -8 -56 -8q-54 0 -87 29t-33 79q0 60 43.5 100.5t124.5 70.5z" />
    <glyph glyph-name="tilde" unicode="&#x2dc;" horiz-adv-x="364" 
d="M201 656.5q-14 6.5 -30 18.5q-13 9 -20.5 13t-16.5 4q-13 0 -22 -9.5t-22 -32.5l-60 28q16 46 42 73t60 27q17 0 31 -6.5t30 -18.5q12 -9 20 -13.5t17 -4.5q13 0 22.5 10t20.5 32l61 -28q-16 -48 -42.5 -73.5t-59.5 -25.5q-17 0 -31 6.5z" />
    <glyph glyph-name="hungarumlaut" unicode="&#x2dd;" horiz-adv-x="353" 
d="M102 842l83 -42l-91 -165l-62 27zM242 842l83 -44l-98 -168l-61 29z" />
    <glyph glyph-name="uni02DE" unicode="&#x2de;" horiz-adv-x="334" 
d="M159 341.5q-32 30.5 -36 83.5l-1 19l-96 -64v89l90 60h103v-78q0 -50 43 -50q14 0 24 3.5t25 11.5l38 -68q-43 -37 -102 -37q-56 0 -88 30.5z" />
    <glyph glyph-name="uni02E0" unicode="&#x2e0;" horiz-adv-x="292" 
d="M179 436q29 -52 29 -86q0 -27 -16 -43t-45 -16t-45.5 15.5t-16.5 43.5q0 37 31 87l-86 228h68l49 -183l50 183h67zM156.5 374.5q-2.5 9.5 -9.5 24.5q-6 -13 -9 -23.5t-3 -21.5q0 -14 12 -14t12 14q0 11 -2.5 20.5z" />
    <glyph glyph-name="uni02E1" unicode="&#x2e1;" horiz-adv-x="151" 
d="M42 407.5q-17 16.5 -17 49.5v315l66 7v-313q0 -14 11 -14q4 0 12 2l12 -54q-18 -9 -38 -9q-29 0 -46 16.5z" />
    <glyph glyph-name="uni02E2" unicode="&#x2e2;" horiz-adv-x="254" 
d="M220 639l-28 -40q-15 10 -28.5 15t-29.5 5q-14 0 -21.5 -6t-7.5 -16q0 -12 9 -18t38 -16q42 -15 59.5 -33.5t17.5 -52.5q0 -38 -28 -62t-75 -24q-58 0 -101 39l32 40q18 -13 33.5 -19t35.5 -6q33 0 33 28q0 13 -10 21t-39 17q-38 12 -55.5 30.5t-17.5 50.5
q0 34 25.5 57.5t69.5 23.5q50 0 88 -34z" />
    <glyph glyph-name="uni02E3" unicode="&#x2e3;" horiz-adv-x="284" 
d="M181 542l78 -142h-71l-48 101l-47 -101h-68l78 140l-70 125h70l40 -86l38 86h67z" />
    <glyph glyph-name="uni02E4" unicode="&#x2e4;" horiz-adv-x="268" 
d="M110 400v145l-13 5q-37 14 -54.5 37.5t-17.5 69.5q0 55 34.5 88t86.5 33q27 0 50.5 -10.5t46.5 -32.5l-33 -43q-16 13 -30.5 19.5t-31.5 6.5q-23 0 -38 -16t-15 -45q0 -31 13.5 -46.5t41.5 -24.5l26 -8l1 -178h-67z" />
    </font>
</defs>
</svg>
