<?xml version="1.0" standalone="no"?>
<!DOCTYPE svg PUBLIC "-//W3C//DTD SVG 1.1//EN" "http://www.w3.org/Graphics/SVG/1.1/DTD/svg11.dtd" >
<svg xmlns="http://www.w3.org/2000/svg" xmlns:xlink="http://www.w3.org/1999/xlink" version="1.1">
<metadata>
Created by FontForge 20170731 at Tue Dec  6 15:27:44 2016
 By Aleksey,,,
Digitized data copyright 2012-2016, The Mozilla Foundation and Telefonica S.A.
</metadata>
<defs>
<font id="FiraSansExtraCondensed-BoldItalic" horiz-adv-x="460" >
  <font-face 
    font-family="Fira Sans Extra Condensed"
    font-weight="700"
    font-style="italic"
    font-stretch="condensed"
    units-per-em="1000"
    panose-1="2 11 8 3 5 0 0 2 0 4"
    ascent="800"
    descent="-200"
    x-height="531"
    cap-height="693"
    bbox="-653 -354 1416 1179"
    underline-thickness="50"
    underline-position="-150"
    slope="-8"
    unicode-range="U+000D-FEFF"
  />
<missing-glyph horiz-adv-x="656" 
d="M645 1050l-197 -1400h-414l198 1400h413zM585 998h-306l-183 -1296h306zM416.5 425.5q23.5 -25.5 23.5 -66.5q0 -9 -2 -27q-7 -52 -32 -79.5t-75 -34.5l-8 -47q-1 -10 -9 -16t-16 -6q-11 0 -18.5 7.5t-5.5 18.5l10 82q52 3 74.5 21t27.5 60q2 14 2 21q0 44 -50 44
q-27 0 -53 -12q-6 -2 -12 -2q-11 0 -17.5 6.5t-6.5 16.5q0 19 29 29t64 10q51 0 74.5 -25.5zM311 110.5q9 -9.5 9 -23.5q0 -17 -10.5 -28t-26.5 -11q-14 0 -22.5 10t-8.5 25q0 16 10.5 26.5t25.5 10.5q14 0 23 -9.5z" />
    <glyph glyph-name="fi" unicode="fi" horiz-adv-x="493" 
d="M413 0h-148l59 425h-89l-51 -373q-12 -86 -43 -138t-74 -80t-109 -55l-33 110q35 15 56 32.5t34.5 48t20.5 80.5l51 375h-60l15 106h59l7 51q12 78 66.5 127t140.5 49q43 0 79 -11t74 -33l-54 -93q-26 13 -46.5 19t-40.5 6q-33 0 -50 -17.5t-22 -55.5l-6 -42h238z" />
    <glyph glyph-name="fl" unicode="fl" horiz-adv-x="526" 
d="M480 107l13 -104q-40 -19 -88 -19q-53 0 -81.5 29t-28.5 81q0 20 2 31l72 518q-24 7 -48 7q-32 0 -46 -18.5t-20 -58.5l-6 -42h70l-30 -106h-54l-51 -373q-12 -86 -43 -138t-74 -80t-109 -55l-33 110q35 15 56 32.5t34.5 48t20.5 80.5l51 375h-60l15 106h59l7 51
q12 79 63 127.5t134 48.5q64 0 108 -19l119 13l-86 -619q-1 -4 -1 -11q0 -18 17 -18q9 0 18 3z" />
    <glyph glyph-name=".notdef" horiz-adv-x="656" 
d="M645 1050l-197 -1400h-414l198 1400h413zM585 998h-306l-183 -1296h306zM416.5 425.5q23.5 -25.5 23.5 -66.5q0 -9 -2 -27q-7 -52 -32 -79.5t-75 -34.5l-8 -47q-1 -10 -9 -16t-16 -6q-11 0 -18.5 7.5t-5.5 18.5l10 82q52 3 74.5 21t27.5 60q2 14 2 21q0 44 -50 44
q-27 0 -53 -12q-6 -2 -12 -2q-11 0 -17.5 6.5t-6.5 16.5q0 19 29 29t64 10q51 0 74.5 -25.5zM311 110.5q9 -9.5 9 -23.5q0 -17 -10.5 -28t-26.5 -11q-14 0 -22.5 10t-8.5 25q0 16 10.5 26.5t25.5 10.5q14 0 23 -9.5z" />
    <glyph glyph-name=".null" horiz-adv-x="0" 
 />
    <glyph glyph-name="nonmarkingreturn" unicode="&#xd;" horiz-adv-x="176" 
 />
    <glyph glyph-name="space" unicode=" " horiz-adv-x="176" 
 />
    <glyph glyph-name="exclam" unicode="!" horiz-adv-x="225" 
d="M48 252l41 441h156l-80 -441h-117zM21.5 5q-20.5 22 -20.5 55q0 40 27 69t67 29q35 0 55 -22t20 -56q0 -41 -26.5 -69t-67.5 -28q-34 0 -54.5 22z" />
    <glyph glyph-name="quotedbl" unicode="&#x22;" horiz-adv-x="412" 
d="M78 414l24 279h128l-56 -279h-96zM279 414l24 279h128l-56 -279h-96z" />
    <glyph glyph-name="numbersign" unicode="#" horiz-adv-x="467" 
d="M480 441h-55l-48 -195h45l-14 -99h-56l-36 -147h-116l36 147h-78l-36 -147h-115l36 147h-48l15 99h57l48 195h-48l14 99h58l33 135h117l-33 -135h77l33 135h117l-33 -135h44zM260 246l48 195h-77l-48 -195h77z" />
    <glyph glyph-name="dollar" unicode="$" horiz-adv-x="453" 
d="M395 332.5q32 -39.5 32 -104.5q0 -89 -52 -152t-139 -81l-22 -155h-102l21 152q-96 13 -159 92l81 78q30 -31 57.5 -46.5t62.5 -15.5q45 0 71.5 28.5t26.5 75.5q0 31 -19 52t-70 47q-69 33 -98.5 70t-29.5 95q0 53 24 99t66.5 76t96.5 39l21 147h103l-22 -149
q73 -15 127 -80l-76 -76q-25 26 -50 39t-54 13q-39 0 -61 -23t-22 -59q0 -28 18 -45.5t67 -42.5q69 -34 101 -73.5z" />
    <glyph glyph-name="percent" unicode="%" horiz-adv-x="717" 
d="M571 719l-479 -705l77 -53l481 705zM94.5 368.5q-35.5 37.5 -35.5 105.5q0 55 20.5 104.5t60 80t93.5 30.5q58 0 93 -36.5t35 -104.5q0 -55 -20.5 -105t-59.5 -81t-93 -31q-58 0 -93.5 37.5zM244.5 460.5q15.5 41.5 15.5 87.5q0 54 -35 54t-50 -40t-15 -88
q0 -28 8.5 -41.5t26.5 -13.5q34 0 49.5 41.5zM411.5 20.5q-35.5 37.5 -35.5 105.5q0 55 20.5 105t60 80.5t93.5 30.5q58 0 93 -37t35 -105q0 -55 -20.5 -105t-59.5 -81t-93 -31q-58 0 -93.5 37.5zM562 112.5q16 41.5 16 87.5q0 54 -36 54q-35 0 -50 -40t-15 -88
q0 -28 8.5 -41.5t26.5 -13.5q34 0 50 41.5z" />
    <glyph glyph-name="ampersand" unicode="&#x26;" horiz-adv-x="648" 
d="M450.5 669.5q44.5 -40.5 44.5 -103.5q0 -66 -35 -113t-104 -94l85 -130q25 52 55 136l111 -33q-41 -97 -101 -182l83 -106l-132 -61l-50 76q-47 -41 -91 -58.5t-96 -17.5q-54 0 -95 21.5t-63.5 60t-22.5 86.5q0 67 34.5 119.5t107.5 104.5q-31 40 -44 72t-13 67
q0 58 25.5 102.5t72 69t107.5 24.5q77 0 121.5 -40.5zM277.5 583.5q-14.5 -28.5 -14.5 -65.5q0 -22 6 -41t19 -42q36 32 52.5 62t16.5 70q0 21 -9 33t-27 12q-29 0 -43.5 -28.5zM205.5 228q-12.5 -31 -12.5 -67q0 -34 15.5 -52t45.5 -18q50 0 93 43l-99 154
q-30 -29 -42.5 -60z" />
    <glyph glyph-name="quotesingle" unicode="'" horiz-adv-x="211" 
d="M78 414l24 279h128l-56 -279h-96z" />
    <glyph glyph-name="parenleft" unicode="(" horiz-adv-x="276" 
d="M339 792q-91 -127 -136 -280.5t-45 -311.5q0 -90 13.5 -159t42.5 -139l-104 -58q-32 73 -51 123.5t-32 114t-13 137.5q0 130 26.5 235t77 198.5t133.5 205.5z" />
    <glyph glyph-name="parenright" unicode=")" horiz-adv-x="278" 
d="M241.5 734q19.5 -51 32.5 -115t13 -138q0 -129 -27 -234.5t-77.5 -200t-132.5 -204.5l-88 65q92 129 136 281t44 311q0 91 -14 160.5t-42 138.5l104 58q32 -71 51.5 -122z" />
    <glyph glyph-name="asterisk" unicode="*" horiz-adv-x="396" 
d="M422 536l-124 -24l75 -111l-116 -67l-33 124l-65 -125l-101 67l102 114l-109 24l47 115l101 -57l-2 146h131l-42 -148l111 61z" />
    <glyph glyph-name="plus" unicode="+" horiz-adv-x="447" 
d="M325 546l-21 -156h121l-16 -117h-124l-23 -155h-120l23 155h-124l16 117h126l22 156h120z" />
    <glyph glyph-name="comma" unicode="," horiz-adv-x="213" 
d="M142.5 138q19.5 -20 19.5 -54q0 -24 -9.5 -47.5t-34.5 -69.5l-76 -143h-77l61 176q-29 22 -29 60q0 41 26 69.5t66 28.5q34 0 53.5 -20z" />
    <glyph glyph-name="hyphen" unicode="-" horiz-adv-x="345" 
d="M37 254l16 118h268l-15 -118h-269z" />
    <glyph glyph-name="period" unicode="." horiz-adv-x="217" 
d="M16.5 5q-20.5 22 -20.5 55q0 40 27 69t67 29q35 0 55 -22t20 -56q0 -41 -26.5 -69t-67.5 -28q-34 0 -54.5 22z" />
    <glyph glyph-name="slash" unicode="/" horiz-adv-x="430" 
d="M324 816l123 -31l-316 -896l-123 32z" />
    <glyph glyph-name="zero" unicode="0" horiz-adv-x="511" 
d="M158.5 619.5q-61.5 -69.5 -90 -177.5t-28.5 -225q0 -116 45.5 -175t132.5 -59q93 0 154.5 69.5t90 177.5t28.5 224t-45 175.5t-132 59.5q-94 0 -155.5 -69.5zM337.5 559.5q10.5 -18.5 10.5 -61.5q0 -83 -15 -177.5t-43.5 -160t-65.5 -65.5q-20 0 -30 18.5t-10 61.5
q0 79 14.5 174.5t42.5 162t66 66.5q20 0 30.5 -18.5z" />
    <glyph glyph-name="one" unicode="1" horiz-adv-x="395" 
d="M380 676l-95 -676h-144l71 517l-124 -82l-52 103l211 138h133z" />
    <glyph glyph-name="two" unicode="2" horiz-adv-x="427" 
d="M379.5 642q46.5 -47 46.5 -121q0 -58 -28.5 -114.5t-84.5 -121.5t-160 -170l228 2l-32 -117h-368l14 109q116 125 168.5 187t81 114t28.5 101q0 31 -13.5 47t-38.5 16q-26 0 -50 -16t-56 -51l-77 69q43 55 94 84t114 29q87 0 133.5 -47z" />
    <glyph glyph-name="three" unicode="3" horiz-adv-x="431" 
d="M373 645q46 -44 46 -113q0 -137 -159 -176q129 -18 129 -130q0 -65 -31 -120.5t-87.5 -89t-129.5 -33.5q-64 0 -109 26t-78 77l89 70q23 -31 45.5 -45t50.5 -14q43 0 70.5 35.5t27.5 97.5q0 37 -19 54t-55 17h-45l32 104h29q42 0 67.5 31t25.5 80q0 62 -55 62
q-53 0 -112 -57l-63 79q90 89 203 89q82 0 128 -44z" />
    <glyph glyph-name="four" unicode="4" horiz-adv-x="473" 
d="M459 261l-17 -113h-58l-21 -148h-141l20 148h-240l14 101l216 444l120 -46l-180 -386h87l40 163h123l-23 -163h60z" />
    <glyph glyph-name="five" unicode="5" horiz-adv-x="449" 
d="M424 567h-196l-22 -150q24 14 44 19.5t42 5.5q59 0 94.5 -43.5t35.5 -123.5q0 -79 -31 -146t-90.5 -106.5t-140.5 -39.5q-117 0 -178 101l91 72q19 -29 40.5 -44t50.5 -15q55 0 81.5 51.5t26.5 119.5q0 38 -13 53.5t-38 15.5q-31 0 -69 -24h-99l52 363h351z" />
    <glyph glyph-name="six" unicode="6" horiz-adv-x="484" 
d="M428 409.5q35 -43.5 35 -123.5q0 -81 -28.5 -150.5t-84 -111t-131.5 -41.5q-93 0 -138 56.5t-45 163.5q0 119 38 231.5t109.5 183.5t166.5 71q72 0 126 -45l-64 -85q-31 22 -65 22q-44 0 -81 -49.5t-59 -143.5q55 65 124 65q62 0 97 -43.5zM277 125q20 33 29.5 79t9.5 87
q0 33 -9.5 46t-28.5 13q-38 0 -86 -64q-10 -85 -10 -114q0 -43 11 -61.5t33 -18.5q31 0 51 33z" />
    <glyph glyph-name="seven" unicode="7" horiz-adv-x="386" 
d="M434 675l-15 -103l-277 -588l-125 46l250 531h-217l16 114h368z" />
    <glyph glyph-name="eight" unicode="8" horiz-adv-x="485" 
d="M431.5 295q21.5 -36 21.5 -82q0 -70 -32 -122t-88 -80t-128 -28q-94 0 -145.5 48.5t-51.5 123.5q0 64 33 112.5t102 82.5q-64 51 -64 129q0 63 29 110.5t79.5 73.5t113.5 26q84 0 133.5 -40.5t49.5 -110.5q0 -55 -27.5 -98.5t-92.5 -79.5q46 -29 67.5 -65zM236.5 555.5
q-17.5 -31.5 -17.5 -76.5q0 -27 11 -43.5t38 -30.5l11 -5q34 27 48.5 58t14.5 71q0 58 -50 58q-38 0 -55.5 -31.5zM283.5 124q24.5 32 24.5 85q0 32 -14 51t-51 38l-18 9q-38 -28 -55 -65.5t-17 -78.5q0 -35 16.5 -53t46.5 -18q43 0 67.5 32z" />
    <glyph glyph-name="nine" unicode="9" horiz-adv-x="476" 
d="M428 635.5q47 -53.5 47 -148.5q0 -192 -105.5 -327.5t-328.5 -187.5l-20 104q116 35 180.5 84t99.5 140q-30 -33 -58.5 -49t-63.5 -16q-61 0 -99 47t-38 127q0 76 29.5 140t85.5 102t132 38q92 0 139 -53.5zM319 402q6 56 6 107q0 39 -11 57t-34 18q-45 0 -67.5 -54
t-22.5 -118q0 -72 44 -72q39 0 85 62z" />
    <glyph glyph-name="colon" unicode=":" horiz-adv-x="218" 
d="M17.5 5q-20.5 22 -20.5 55q0 40 27 69t67 29q35 0 55 -22t20 -56q0 -41 -26.5 -69t-67.5 -28q-34 0 -54.5 22zM65.5 351q-20.5 22 -20.5 55q0 40 27 69t67 29q35 0 55 -22t20 -56q0 -41 -26.5 -69t-67.5 -28q-34 0 -54.5 22z" />
    <glyph glyph-name="semicolon" unicode=";" horiz-adv-x="218" 
d="M143.5 138q19.5 -20 19.5 -54q0 -24 -9.5 -47.5t-34.5 -69.5l-76 -143h-77l61 176q-29 22 -29 60q0 41 26 69.5t66 28.5q34 0 53.5 -20zM66.5 351q-20.5 22 -20.5 55q0 40 27 69t67 29q35 0 55 -22t20 -56q0 -41 -26.5 -69t-67.5 -28q-34 0 -54.5 22z" />
    <glyph glyph-name="less" unicode="&#x3c;" horiz-adv-x="430" 
d="M399 573l34 -110l-281 -135l242 -133l-64 -102l-305 173l18 134z" />
    <glyph glyph-name="equal" unicode="=" horiz-adv-x="435" 
d="M56 376l16 118h355l-16 -118h-355zM26 168l16 118h355l-16 -118h-355z" />
    <glyph glyph-name="greater" unicode="&#x3e;" horiz-adv-x="431" 
d="M120 573l305 -173l-19 -134l-355 -173l-35 111l285 135l-246 131z" />
    <glyph glyph-name="question" unicode="?" horiz-adv-x="407" 
d="M389 666q45 -43 45 -109q0 -45 -15.5 -76.5t-37.5 -51.5t-58 -44q-41 -28 -60.5 -50t-19.5 -56q0 -13 2 -27l-130 -21q-9 25 -9 53q0 43 14 73t33.5 49t52.5 43q36 26 53.5 47t17.5 52q0 42 -41 42q-42 0 -98 -58l-78 73q85 104 203 104q81 0 126 -43zM109.5 5
q-20.5 22 -20.5 55q0 40 27 69t67 29q35 0 55 -22t20 -56q0 -41 -26.5 -69t-67.5 -28q-34 0 -54.5 22z" />
    <glyph glyph-name="at" unicode="@" horiz-adv-x="849" 
d="M670 665q72 -44 109 -119t37 -169t-28.5 -179.5t-81.5 -139t-121 -53.5q-44 0 -70 27.5t-28 68.5q-21 -44 -52 -68.5t-76 -24.5q-59 0 -91.5 43t-32.5 119q0 84 26 160t78.5 123.5t128.5 47.5q37 0 74.5 -12t66.5 -32l-36 -257l-3 -21q-4 -34 -4 -44q0 -36 22 -36
q30 0 53 44.5t36 110.5t13 126q0 108 -50 164.5t-150 56.5q-111 0 -184.5 -67t-108 -171.5t-34.5 -219.5q0 -123 55.5 -188.5t163.5 -65.5q43 0 86.5 9.5t78.5 23.5l21 -102q-44 -19 -96 -30t-103 -11q-106 0 -181.5 45t-115 128t-39.5 195q0 140 55 269.5t160.5 211
t248.5 81.5q101 0 173 -44zM446 151l36 254q-14 4 -24 4q-33 0 -54.5 -40.5t-31.5 -98.5t-10 -112q0 -30 7 -43.5t22 -13.5q29 0 55 50z" />
    <glyph glyph-name="A" unicode="A" horiz-adv-x="497" 
d="M310 0l-5 152h-146l-46 -152h-160l262 693h186l67 -693h-158zM193 265h108l-11 322z" />
    <glyph glyph-name="B" unicode="B" horiz-adv-x="510" 
d="M486 230q0 -108 -75.5 -169t-209.5 -61h-192l97 693h182q104 0 163 -40.5t59 -114.5q0 -69 -40 -112t-105 -60q121 -26 121 -136zM330 443q24 29 24 80q0 59 -66 59h-44l-23 -168h37q48 0 72 29zM303.5 148.5q26.5 34.5 26.5 88.5q0 37 -18.5 54.5t-58.5 17.5h-47
l-27 -195h39q59 0 85.5 34.5z" />
    <glyph glyph-name="C" unicode="C" horiz-adv-x="480" 
d="M525 632l-81 -80q-43 41 -90 41q-57 0 -93 -54.5t-52.5 -136t-16.5 -164.5q0 -134 83 -134q29 0 53.5 13t61.5 40l56 -88q-92 -86 -200 -86q-98 0 -155.5 67.5t-57.5 196.5q0 122 36 228t108.5 170.5t177.5 64.5q103 0 170 -78z" />
    <glyph glyph-name="D" unicode="D" horiz-adv-x="548" 
d="M468 639.5q69 -53.5 69 -189.5q0 -205 -83.5 -327.5t-261.5 -122.5h-183l97 693h176q117 0 186 -53.5zM244 580l-65 -466h38q60 0 96.5 52t52 129.5t15.5 158.5q0 69 -24 97.5t-71 28.5h-42z" />
    <glyph glyph-name="E" unicode="E" horiz-adv-x="426" 
d="M465 693l-34 -112h-186l-25 -174h166l-16 -110h-165l-26 -183h204l-17 -114h-357l97 693h359z" />
    <glyph glyph-name="F" unicode="F" horiz-adv-x="397" 
d="M454 693l-35 -112h-174l-27 -190h157l-18 -113h-155l-39 -278h-154l97 693h348z" />
    <glyph glyph-name="G" unicode="G" horiz-adv-x="539" 
d="M555 624l-84 -76q-25 25 -48.5 36.5t-54.5 11.5q-63 0 -104 -57.5t-59 -144t-18 -178.5q0 -61 18.5 -89t54.5 -28t76 24l23 163h-65l1 111h225l-48 -341q-51 -35 -109 -53.5t-112 -18.5q-110 0 -165 64.5t-55 190.5q0 123 39 231t116 174t185 66q112 0 184 -86z" />
    <glyph glyph-name="H" unicode="H" horiz-adv-x="542" 
d="M163 0h-154l97 693h155l-39 -271h141l38 271h154l-97 -693h-154l42 299h-141z" />
    <glyph glyph-name="I" unicode="I" horiz-adv-x="247" 
d="M261 693l-98 -693h-154l97 693h155z" />
    <glyph glyph-name="J" unicode="J" horiz-adv-x="270" 
d="M202 98q-12 -83 -45 -134.5t-77.5 -79t-109.5 -50.5l-27 108q54 26 75.5 62t30.5 106l82 583h154z" />
    <glyph glyph-name="K" unicode="K" horiz-adv-x="538" 
d="M9 0l97 693h155l-98 -693h-154zM338 0l-118 370l211 323h156l-211 -321l129 -372h-167z" />
    <glyph glyph-name="L" unicode="L" horiz-adv-x="417" 
d="M261 693l-80 -569h215l-35 -124h-352l97 693h155z" />
    <glyph glyph-name="M" unicode="M" horiz-adv-x="659" 
d="M593 0h-148l29 273q7 67 18.5 145t23.5 152l-140 -496h-148l-13 495q-12 -158 -33 -298l-42 -271h-149l138 693h185l6 -485l130 485h199z" />
    <glyph glyph-name="N" unicode="N" horiz-adv-x="539" 
d="M455 0h-185l-78 563v-55q0 -136 -15 -254l-33 -254h-135l97 693h186l77 -563l-1 73q0 103 13 207l37 283h134z" />
    <glyph glyph-name="O" unicode="O" horiz-adv-x="578" 
d="M512.5 644.5q55.5 -65.5 55.5 -193.5q0 -122 -34 -228.5t-106 -173t-178 -66.5t-161.5 65.5t-55.5 193.5q0 121 34 227.5t105.5 173.5t178.5 67q106 0 161.5 -65.5zM254 532.5q-34 -62.5 -49.5 -151t-15.5 -167.5q0 -61 17.5 -88.5t52.5 -27.5q54 0 88 61.5t49 149
t15 168.5q0 62 -17 90t-53 28q-53 0 -87 -62.5z" />
    <glyph glyph-name="P" unicode="P" horiz-adv-x="489" 
d="M452 644.5q58 -48.5 58 -141.5q0 -77 -31 -138t-93 -96.5t-151 -35.5h-40l-32 -233h-154l97 693h180q108 0 166 -48.5zM326.5 390.5q26.5 43.5 26.5 110.5q0 43 -19 61.5t-60 18.5h-30l-33 -234h25q64 0 90.5 43.5z" />
    <glyph glyph-name="Q" unicode="Q" horiz-adv-x="577" 
d="M477.5 21.5q39.5 -17.5 70.5 -50.5l-111 -113q-32 60 -76 94t-111 34q-106 0 -161.5 64.5t-55.5 191.5q0 121 34 227.5t105.5 173.5t178.5 67q106 0 161.5 -65.5t55.5 -193.5q0 -138 -45.5 -249.5t-139.5 -159.5q55 -3 94.5 -20.5zM206.5 125.5q17.5 -27.5 52.5 -27.5
q54 0 88 61.5t49 149t15 168.5q0 62 -17 90t-53 28q-53 0 -87 -62.5t-49.5 -151t-15.5 -167.5q0 -61 17.5 -88.5z" />
    <glyph glyph-name="R" unicode="R" horiz-adv-x="510" 
d="M383 299l98 -299h-159l-78 267h-43l-38 -267h-154l97 693h178q115 0 171.5 -46.5t56.5 -132.5q0 -145 -129 -215zM216 376h32q57 0 82.5 38.5t25.5 94.5q0 39 -18.5 56t-58.5 17h-34z" />
    <glyph glyph-name="S" unicode="S" horiz-adv-x="473" 
d="M413.5 687q47.5 -23 84.5 -67l-79 -79q-26 27 -53 40.5t-59 13.5q-41 0 -64.5 -23.5t-23.5 -59.5q0 -30 19 -50t77 -48q68 -34 100.5 -76t32.5 -111t-33.5 -124.5t-93 -87.5t-134.5 -32q-133 0 -214 99l85 80q32 -32 61.5 -47.5t68.5 -15.5q47 0 75 28.5t28 74.5
q0 37 -21 59t-79 51q-69 34 -98.5 73t-29.5 103q0 63 31 113.5t85.5 79.5t122.5 29q64 0 111.5 -23z" />
    <glyph glyph-name="T" unicode="T" horiz-adv-x="445" 
d="M507 693l-33 -121h-131l-81 -572h-154l81 572h-142l17 121h443z" />
    <glyph glyph-name="U" unicode="U" horiz-adv-x="528" 
d="M481 195q-13 -92 -79 -151.5t-173 -59.5q-100 0 -152 51.5t-52 131.5q0 23 2 35l70 491h154l-71 -508q-2 -14 -2 -21q0 -29 15 -46t46 -17q38 0 59.5 24.5t27.5 62.5l70 505h155z" />
    <glyph glyph-name="V" unicode="V" horiz-adv-x="479" 
d="M548 693l-242 -693h-199l-56 693h156l18 -569l165 569h158z" />
    <glyph glyph-name="W" unicode="W" horiz-adv-x="700" 
d="M751 693l-182 -693h-202l19 539l-131 -539h-200l13 693h150l-34 -573l147 573h158l-19 -573l134 573h147z" />
    <glyph glyph-name="X" unicode="X" horiz-adv-x="480" 
d="M534 693l-191 -320l106 -373h-161l-48 275l-117 -275h-167l203 368l-95 325h162l36 -237l106 237h166z" />
    <glyph glyph-name="Y" unicode="Y" horiz-adv-x="491" 
d="M561 693l-239 -433l-36 -260h-155l36 260l-117 433h161l51 -314l134 314h165z" />
    <glyph glyph-name="Z" unicode="Z" horiz-adv-x="445" 
d="M-27 0l17 117l306 454h-222l19 122h389l-18 -119l-307 -449h255l-35 -125h-404z" />
    <glyph glyph-name="bracketleft" unicode="[" horiz-adv-x="270" 
d="M329 822l-15 -114h-91l-97 -718h88l-16 -112h-231l134 944h228z" />
    <glyph glyph-name="backslash" unicode="\" horiz-adv-x="433" 
d="M261 808l66 -896l-132 -23l-65 896z" />
    <glyph glyph-name="bracketright" unicode="]" horiz-adv-x="269" 
d="M327 822l-134 -944h-229l17 113h90l97 718h-87l15 113h231z" />
    <glyph glyph-name="asciicircum" unicode="^" horiz-adv-x="467" 
d="M382 844l109 -317h-141l-52 203l-101 -203h-147l197 317h135z" />
    <glyph glyph-name="underscore" unicode="_" horiz-adv-x="430" 
d="M-50 -168l17 119h407l-16 -119h-408z" />
    <glyph glyph-name="grave" unicode="`" horiz-adv-x="298" 
d="M160 824l167 -131l-44 -67l-189 92z" />
    <glyph glyph-name="a" unicode="a" horiz-adv-x="482" 
d="M474 499l-50 -350q-3 -16 -3 -30q0 -26 21 -35l-47 -98q-40 4 -68.5 23t-39.5 53q-29 -39 -59 -59t-72 -20q-66 0 -102 50.5t-36 137.5q0 98 28.5 183.5t91.5 139.5t160 54q89 0 176 -49zM198 357.5q-30 -82.5 -30 -189.5q0 -40 9.5 -57t29.5 -17q19 0 35.5 17t35.5 48
l39 276q-17 5 -32 5q-57 0 -87 -82.5z" />
    <glyph glyph-name="b" unicode="b" horiz-adv-x="492" 
d="M438 501.5q34 -46.5 34 -132.5q0 -172 -66.5 -279t-213.5 -107q-87 0 -183 42l100 717l150 16l-38 -271q25 29 56.5 45t66.5 16q60 0 94 -46.5zM244.5 422q-19.5 -15 -37.5 -40l-39 -280q25 -9 44 -9q37 0 62 41t36.5 103t11.5 124q0 42 -10 59t-30 17q-18 0 -37.5 -15z
" />
    <glyph glyph-name="c" unicode="c" horiz-adv-x="399" 
d="M368 531.5q36 -16.5 64 -49.5l-72 -81q-19 17 -35.5 24.5t-35.5 7.5q-59 0 -86.5 -73.5t-27.5 -167.5q0 -50 15 -70.5t44 -20.5q19 0 36 7.5t44 23.5l52 -88q-70 -61 -158 -61q-87 0 -137 56.5t-50 156.5q0 95 31 175.5t90.5 128.5t141.5 48q48 0 84 -16.5z" />
    <glyph glyph-name="d" unicode="d" horiz-adv-x="492" 
d="M516 742l-104 -742h-131l3 66q-27 -41 -58 -62t-73 -21q-64 0 -99 49t-35 140q0 93 25.5 179.5t76 141.5t120.5 55q61 0 93 -50l36 259zM214.5 395q-22.5 -43 -33.5 -105.5t-11 -117.5q0 -43 10.5 -60.5t29.5 -17.5q20 0 39 20t39 57l32 229q-10 19 -21.5 28.5t-28.5 9.5
q-33 0 -55.5 -43z" />
    <glyph glyph-name="e" unicode="e" horiz-adv-x="458" 
d="M412 509q44 -39 44 -100q0 -103 -80 -151.5t-209 -64.5v-14q0 -84 65 -84q27 0 52 11t59 35l52 -87q-84 -71 -188 -71q-87 0 -137 51.5t-50 150.5q0 98 30 180.5t91.5 132.5t150.5 50q76 0 120 -39zM279 325q33 32 33 79q0 42 -37 42q-38 0 -62.5 -45.5t-36.5 -114.5
q70 7 103 39z" />
    <glyph glyph-name="f" unicode="f" horiz-adv-x="298" 
d="M276 629.5q-15 -17.5 -21 -56.5l-6 -42h103l-32 -106h-85l-51 -373q-12 -86 -43 -138t-74 -80t-109 -55l-33 110q35 15 56 32.5t34.5 48t20.5 80.5l51 375h-60l15 106h60l7 51q11 80 61 128.5t133 48.5q73 0 129 -43l-53 -88q-31 19 -61 19q-27 0 -42 -17.5z" />
    <glyph glyph-name="g" unicode="g" horiz-adv-x="482" 
d="M476 499l-67 -477q-18 -126 -77 -185t-165 -59q-94 0 -172 55l54 97q58 -36 113 -36q40 0 66 23t34 84l9 65q-24 -32 -51 -49.5t-65 -17.5q-64 0 -99.5 50.5t-35.5 135.5q0 96 28.5 178t91 133.5t159.5 51.5q90 0 177 -49zM199.5 363q-29.5 -77 -29.5 -181
q0 -38 9.5 -54.5t29.5 -16.5q32 0 74 64l36 260q-17 5 -33 5q-57 0 -86.5 -77z" />
    <glyph glyph-name="h" unicode="h" horiz-adv-x="469" 
d="M423 515.5q27 -32.5 27 -88.5q0 -17 -3 -37l-55 -390h-148l51 366q1 6 1 17q0 31 -20 31q-17 0 -36 -27t-44 -81l-43 -306h-148l104 742l150 15l-42 -303q56 94 132 94q47 0 74 -32.5z" />
    <glyph glyph-name="i" unicode="i" horiz-adv-x="234" 
d="M228 531l-74 -531h-148l74 531h148zM113.5 654.5q-20.5 20.5 -20.5 54.5q0 42 28 70t68 28q37 0 57 -20.5t20 -54.5q0 -43 -27.5 -70.5t-68.5 -27.5q-36 0 -56.5 20.5z" />
    <glyph glyph-name="j" unicode="j" horiz-adv-x="235" 
d="M-97 -111q35 15 56 32.5t34.5 48t20.5 80.5l67 481h149l-68 -479q-12 -86 -43.5 -138t-73.5 -80t-108 -55zM115.5 654.5q-20.5 20.5 -20.5 54.5q0 42 28 70t68 28q37 0 57 -20.5t20 -54.5q0 -43 -27.5 -70.5t-68.5 -27.5q-36 0 -56.5 20.5z" />
    <glyph glyph-name="k" unicode="k" horiz-adv-x="483" 
d="M219 463q32 43 68 63.5t80 20.5q55 0 88 -33t33 -86q0 -60 -30.5 -104.5t-94.5 -82.5l71 -241h-154l-65 256q69 28 96.5 63t27.5 81q0 20 -9 30.5t-24 10.5q-49 0 -106 -108l-46 -333h-149l104 742l151 16z" />
    <glyph glyph-name="l" unicode="l" horiz-adv-x="248" 
d="M168 133q-1 -4 -1 -10q0 -19 17 -19q9 0 18 3l12 -104q-38 -19 -87 -19q-53 0 -81.5 29t-28.5 81q0 20 2 31l85 617l149 16z" />
    <glyph glyph-name="m" unicode="m" horiz-adv-x="686" 
d="M640.5 515.5q26.5 -32.5 26.5 -88.5q0 -17 -3 -37l-56 -390h-148l51 366q2 16 2 22q0 30 -17 30q-15 0 -31.5 -26t-39.5 -81l-44 -311h-148l50 366q2 18 2 23q0 29 -17 29q-15 0 -31.5 -27t-39.5 -83l-43 -308h-148l74 531h129l-3 -81q29 47 61 72.5t73 25.5
q39 0 64.5 -24.5t32.5 -68.5q28 45 60 69t71 24q46 0 72.5 -32.5z" />
    <glyph glyph-name="n" unicode="n" horiz-adv-x="470" 
d="M423.5 515.5q27.5 -32.5 27.5 -88.5q0 -17 -3 -37l-55 -390h-148l51 366q1 6 1 17q0 31 -20 31q-17 0 -36 -27t-44 -81l-43 -306h-148l74 531h129l-3 -84q30 47 65 74t78 27q47 0 74.5 -32.5z" />
    <glyph glyph-name="o" unicode="o" horiz-adv-x="489" 
d="M69.5 36.5q-48.5 53.5 -48.5 154.5q0 92 29 173.5t88 132.5t145 51q88 0 136.5 -53.5t48.5 -155.5q0 -92 -29 -173t-88 -132t-145 -51q-88 0 -136.5 53.5zM275 138q23 44 33.5 106t10.5 117q0 40 -11.5 57.5t-34.5 17.5q-36 0 -59 -43.5t-33 -105t-10 -117.5
q0 -40 11 -58t34 -18q36 0 59 44z" />
    <glyph glyph-name="p" unicode="p" horiz-adv-x="491" 
d="M80 531h131l-1 -53q55 70 134 70q61 0 95 -46.5t34 -132.5q0 -106 -26.5 -193.5t-82.5 -140t-140 -52.5q-39 0 -72 12l-28 -201l-149 -16zM275 137q25 44 36.5 107t11.5 120q0 41 -10.5 57t-30.5 16q-18 0 -37.5 -14.5t-37.5 -39.5l-39 -281q21 -9 44 -9q38 0 63 44z" />
    <glyph glyph-name="q" unicode="q" horiz-adv-x="486" 
d="M268 43q-25 -29 -51 -44.5t-61 -15.5q-65 0 -101 51t-36 137q0 99 28.5 184.5t91 139t159.5 53.5q92 0 180 -49l-98 -705l-149 -16zM245 111q18 17 38 48l39 276q-17 5 -35 5q-58 0 -88.5 -80.5t-30.5 -191.5q0 -39 10 -56.5t30 -17.5q19 0 37 17z" />
    <glyph glyph-name="r" unicode="r" horiz-adv-x="332" 
d="M375 538l-46 -145q-22 6 -36 6q-36 0 -60.5 -39t-44.5 -111l-34 -249h-148l74 531h127l-3 -89q24 50 55 77t73 27q21 0 43 -8z" />
    <glyph glyph-name="s" unicode="s" horiz-adv-x="402" 
d="M328 530q43 -18 74 -49l-64 -80q-49 39 -95 39q-26 0 -42 -14t-16 -37q0 -20 17 -35t64 -36q53 -24 79 -57.5t26 -87.5q0 -57 -28.5 -100t-77.5 -66.5t-108 -23.5q-112 0 -186 81l78 77q52 -50 105 -50q32 0 49.5 18t17.5 44q0 25 -16.5 41.5t-60.5 35.5q-55 25 -80 56.5
t-25 83.5q0 50 25.5 90.5t70 64t101.5 23.5q49 0 92 -18z" />
    <glyph glyph-name="t" unicode="t" horiz-adv-x="322" 
d="M190 152q-1 -4 -1 -12q0 -37 31 -37q18 0 44 13l35 -94q-28 -20 -60.5 -29.5t-65.5 -9.5q-64 0 -98.5 36t-34.5 100q0 23 2 35l38 271h-57l15 106h63l30 119l131 14l-19 -133h96l-32 -106h-79z" />
    <glyph glyph-name="u" unicode="u" horiz-adv-x="465" 
d="M47.5 15q-28.5 32 -28.5 87q0 17 3 35l55 394h148l-53 -376q-1 -5 -1 -14q0 -14 5.5 -21.5t14.5 -7.5q31 0 72 74l49 345h147l-74 -531h-129l4 75q-29 -44 -60 -68t-76 -24q-48 0 -76.5 32z" />
    <glyph glyph-name="v" unicode="v" horiz-adv-x="428" 
d="M471 531l-201 -531h-178l-60 531h156l9 -416l120 416h154z" />
    <glyph glyph-name="w" unicode="w" horiz-adv-x="627" 
d="M659 531l-161 -531h-168l1 397l-102 -397h-172l-14 531h148l-23 -418l116 418h141l-5 -418l97 418h142z" />
    <glyph glyph-name="x" unicode="x" horiz-adv-x="425" 
d="M450 531l-145 -252l93 -279h-154l-45 198l-96 -198h-151l172 283l-87 248h156l34 -174l75 174h148z" />
    <glyph glyph-name="y" unicode="y" horiz-adv-x="433" 
d="M271 -2q-43 -111 -112.5 -161t-178.5 -58l-2 103q65 11 98.5 35.5t59.5 82.5h-53l-51 531h153l6 -433l129 433h156z" />
    <glyph glyph-name="z" unicode="z" horiz-adv-x="381" 
d="M400 531l-16 -107l-223 -309h188l-30 -115h-348l16 107l223 310h-166l18 114h338z" />
    <glyph glyph-name="braceleft" unicode="{" horiz-adv-x="268" 
d="M317 733q-32 0 -45 -13.5t-18 -51.5l-25 -188q-7 -62 -34 -90t-79 -42q39 -10 57.5 -31t18.5 -63q0 -16 -3 -37l-25 -189q-2 -16 -2 -21q0 -22 11.5 -31t38.5 -9l-15 -106q-89 0 -130 31.5t-41 99.5q0 17 3 38l24 185q3 17 3 30q0 24 -10.5 33.5t-34.5 9.5l17 123
q31 0 46 16.5t20 56.5l25 188q7 60 28 96t64.5 53.5t118.5 17.5z" />
    <glyph glyph-name="bar" unicode="|" horiz-adv-x="303" 
d="M297 810l-128 -915h-138l127 915h139z" />
    <glyph glyph-name="braceright" unicode="}" horiz-adv-x="268" 
d="M-25 -33q32 0 45.5 14t17.5 51l24 188q8 62 35 90t78 42q-39 9 -57 30t-18 63q0 17 3 38l25 189q2 16 2 20q0 23 -11.5 32t-38.5 9l14 106q90 0 131 -31.5t41 -99.5q0 -18 -3 -38l-25 -185q-2 -22 -2 -29q0 -24 10 -34t35 -10l-17 -123q-31 0 -46 -16.5t-20 -56.5
l-25 -188q-8 -60 -29 -96t-64.5 -53.5t-118.5 -17.5z" />
    <glyph glyph-name="asciitilde" unicode="~" horiz-adv-x="435" 
d="M242 242.5q-17 8.5 -41 26.5q-16 13 -27 19.5t-24 6.5q-19 0 -32 -11.5t-34 -39.5l-68 42q35 56 70 88.5t81 32.5q24 0 42 -9t39 -26q17 -13 27.5 -19t23.5 -6q20 0 34 12t31 36l70 -41q-34 -56 -69 -88t-82 -32q-24 0 -41 8.5z" />
    <glyph glyph-name="uni00A0" unicode="&#xa0;" horiz-adv-x="176" 
 />
    <glyph glyph-name="exclamdown" unicode="&#xa1;" horiz-adv-x="226" 
d="M71.5 354q-20.5 22 -20.5 55q0 40 27 69t67 29q35 0 55 -22t20 -56q0 -41 -26.5 -69t-67.5 -28q-34 0 -54.5 22zM163 236l-42 -441h-156l82 441h116z" />
    <glyph glyph-name="cent" unicode="&#xa2;" horiz-adv-x="399" 
d="M366 44q-54 -46 -118 -58l-22 -146h-102l22 152q-60 17 -92.5 70t-32.5 134q0 82 23.5 154t69 122.5t109.5 67.5l22 151h101l-20 -147q63 -11 106 -62l-72 -81q-19 17 -35.5 24.5t-35.5 7.5q-59 0 -86.5 -73.5t-27.5 -167.5q0 -50 15 -70.5t44 -20.5q19 0 36 7.5t44 23.5
z" />
    <glyph glyph-name="sterling" unicode="&#xa3;" horiz-adv-x="447" 
d="M214 162q-16 -27 -55 -48h249l-34 -114h-386l16 110q33 11 49.5 26.5t23.5 36.5t12 58l11 81h-57l11 79h56l13 100q14 93 66 145.5t140 52.5q110 0 159 -98l-94 -60q-14 25 -27.5 35t-33.5 10q-29 0 -44 -21.5t-21 -67.5l-12 -96h140l-12 -79h-138l-10 -78
q-6 -45 -22 -72z" />
    <glyph glyph-name="currency" unicode="&#xa4;" 
d="M396 79l-60 75q-42 -28 -96 -28t-97 29l-62 -76l-67 59l70 84q-26 50 -26 120q0 69 26 118l-72 87l73 58l60 -76q42 28 95 28q56 0 97 -29l63 77l67 -59l-71 -85q27 -52 27 -119q0 -69 -26 -119l72 -87zM294 252q17 27 17 90t-17 90t-54 27q-36 0 -53.5 -27.5
t-17.5 -89.5t17.5 -89.5t53.5 -27.5q37 0 54 27z" />
    <glyph glyph-name="yen" unicode="&#xa5;" horiz-adv-x="466" 
d="M534 675l-188 -324h79l-12 -80h-105l-11 -73h106l-12 -80h-105l-16 -118h-146l16 118h-106l13 80h103l10 73h-104l12 80h75l-96 324h149l54 -283l129 283h155z" />
    <glyph glyph-name="brokenbar" unicode="&#xa6;" horiz-adv-x="303" 
d="M297 810l-51 -367h-139l51 367h139zM221 262l-52 -367h-138l51 367h139z" />
    <glyph glyph-name="section" unicode="&#xa7;" horiz-adv-x="465" 
d="M401.5 398.5q26.5 -30.5 26.5 -74.5q0 -47 -23.5 -81.5t-70.5 -62.5q21 -19 30.5 -40t9.5 -50q0 -47 -25.5 -86t-72.5 -62.5t-110 -23.5q-95 0 -158 55l59 83q26 -18 49 -26t51 -8q34 0 51 15.5t17 41.5q0 25 -16.5 40t-66.5 35q-53 21 -78.5 50.5t-25.5 75.5
q0 90 92 143q-35 36 -35 90q0 49 25.5 89.5t71.5 63.5t106 23q92 0 158 -58l-60 -81q-43 34 -95 34q-35 0 -52 -15.5t-17 -40.5q0 -24 16.5 -39t66.5 -37q50 -23 76.5 -53.5zM270 223q15 20 22.5 37t7.5 37q0 21 -14.5 37.5t-50.5 31.5q-24 10 -32 14q-27 -34 -27 -72
q0 -21 11.5 -35t37.5 -27q38 -19 45 -23z" />
    <glyph glyph-name="dieresis" unicode="&#xa8;" horiz-adv-x="406" 
d="M111 661q-18 18 -18 48q0 36 24.5 61t58.5 25q32 0 49.5 -18t17.5 -48q0 -37 -24 -61.5t-60 -24.5q-30 0 -48 18zM308 661q-18 18 -18 48q0 36 24.5 61t58.5 25q31 0 49 -18t18 -48q0 -37 -24 -61.5t-59 -24.5q-31 0 -49 18z" />
    <glyph glyph-name="copyright" unicode="&#xa9;" horiz-adv-x="669" 
d="M503.5 723q64.5 -41 102 -116.5t37.5 -174.5q0 -98 -37.5 -173t-102 -116t-144.5 -41t-145 41t-103 116t-38 173q0 99 38 174.5t103 116.5t145 41t144.5 -41zM255.5 656.5q-45.5 -30.5 -71.5 -88t-26 -136.5t26 -136.5t71.5 -87.5t103.5 -30q57 0 102.5 30t71 87.5
t25.5 136.5t-25.5 136.5t-71 88t-102.5 30.5q-58 0 -103.5 -30.5zM471 580l-42 -56q-17 12 -29.5 17t-27.5 5q-25 0 -40.5 -27t-15.5 -86q0 -60 15 -85.5t43 -25.5q17 0 30 6.5t29 19.5l42 -59q-23 -24 -52.5 -38t-61.5 -14q-69 0 -108.5 51t-39.5 145q0 92 41 144t110 52
q61 0 107 -49z" />
    <glyph glyph-name="ordfeminine" unicode="&#xaa;" horiz-adv-x="406" 
d="M75.5 296q-27.5 31 -27.5 81q0 64 43 107.5t137 43.5h33l2 13q1 7 1 19q0 21 -9.5 30t-30.5 9q-35 0 -92 -18l-20 82q33 15 70 22.5t70 7.5q139 0 139 -122q0 -16 -3 -36l-20 -138q-1 -5 -1 -14q0 -10 4 -16.5t14 -11.5l-39 -87q-33 2 -56.5 15.5t-32.5 38.5
q-42 -57 -106 -57q-48 0 -75.5 31zM242 387l9 67h-23q-27 0 -39 -17t-12 -45q0 -33 24 -33q23 0 41 28zM-6 0l15 118h344l-15 -118h-344z" />
    <glyph glyph-name="guillemotleft" unicode="&#xab;" horiz-adv-x="544" 
d="M225 553l83 -61l-133 -209l75 -205l-101 -62l-126 220l16 96zM465 553l83 -61l-133 -209l75 -205l-101 -62l-126 220l16 96z" />
    <glyph glyph-name="logicalnot" unicode="&#xac;" horiz-adv-x="448" 
d="M425 387l-39 -270h-129l21 152h-238l16 118h369z" />
    <glyph glyph-name="uni00AD" unicode="&#xad;" horiz-adv-x="345" 
d="M37 254l16 118h268l-15 -118h-269z" />
    <glyph glyph-name="registered" unicode="&#xae;" horiz-adv-x="522" 
d="M411.5 724q52.5 -34 82.5 -96t30 -143q0 -80 -30 -141.5t-82.5 -95t-118.5 -33.5t-119 33.5t-83.5 95t-30.5 141.5q0 81 30.5 143t83.5 96t119 34t118.5 -34zM409 333q44 54 44 152q0 99 -44 154t-116 55t-117 -55.5t-45 -153.5q0 -97 45 -151.5t117 -54.5t116 54z
M402 353h-72l-44 103h-19v-103h-64v281h71q56 0 84.5 -22.5t28.5 -66.5q0 -25 -12.5 -43.5t-32.5 -29.5zM267 512h23q15 0 24 9t9 27q0 17 -9 25.5t-24 8.5h-23v-70z" />
    <glyph glyph-name="macron" unicode="&#xaf;" horiz-adv-x="318" 
d="M341 656h-256l16 106h256z" />
    <glyph glyph-name="degree" unicode="&#xb0;" horiz-adv-x="417" 
d="M105 407.5q-36 36.5 -36 103.5q0 56 22 101.5t61 71.5t87 26q55 0 92 -36.5t37 -103.5q0 -56 -22.5 -101.5t-61.5 -71.5t-88 -26q-55 0 -91 36.5zM253.5 489.5q16.5 32.5 16.5 78.5q0 56 -38 56q-32 0 -49 -32.5t-17 -78.5q0 -56 38 -56q33 0 49.5 32.5z" />
    <glyph glyph-name="plusminus" unicode="&#xb1;" horiz-adv-x="447" 
d="M11 0l16 118h355l-16 -118h-355zM335 618l-21 -156h121l-16 -117h-124l-23 -155h-120l23 155h-124l16 117h126l22 156h120z" />
    <glyph glyph-name="uni00B2" unicode="&#xb2;" horiz-adv-x="332" 
d="M310 720q32 -31 32 -78q0 -42 -19.5 -78.5t-53.5 -70.5t-96 -86h147l-24 -86h-249l12 81q98 94 135.5 141.5t37.5 88.5q0 16 -8.5 25.5t-23.5 9.5q-16 0 -31 -10t-33 -31l-56 51q61 74 144 74q54 0 86 -31z" />
    <glyph glyph-name="uni00B3" unicode="&#xb3;" horiz-adv-x="332" 
d="M308.5 724q30.5 -28 30.5 -72q0 -42 -26.5 -70t-74.5 -39q41 -3 63 -24t22 -60q0 -40 -20 -74t-57.5 -55t-88.5 -21q-83 0 -127 68l63 51q16 -18 30.5 -26t33.5 -8q26 0 42.5 20t16.5 51q0 20 -12.5 29t-38.5 9h-27l23 75h15q28 0 43.5 16.5t15.5 41.5q0 34 -35 34
q-19 0 -36.5 -8.5t-37.5 -24.5l-44 56q63 59 141 59q55 0 85.5 -28z" />
    <glyph glyph-name="acute" unicode="&#xb4;" horiz-adv-x="303" 
d="M286 826l51 -108l-211 -94l-38 71z" />
    <glyph glyph-name="uni00B5" unicode="&#xb5;" horiz-adv-x="476" 
d="M403 64q0 -29 4 -65l-138 -14q-7 43 -6 72q-22 -34 -42 -49.5t-45 -15.5q-30 0 -48 23q5 -25 5 -55t-6 -72l-13 -93l-140 -14l106 750h147l-51 -371q-2 -18 -2 -22q0 -37 26 -37q15 0 31.5 16t31.5 50l51 364h147l-49 -350q-9 -69 -9 -117z" />
    <glyph glyph-name="paragraph" unicode="&#xb6;" horiz-adv-x="654" 
d="M634 693l-127 -898l-127 -17l111 809h-73l-109 -792l-128 -17l69 487q-84 3 -128 49.5t-44 124.5q0 77 31.5 134.5t89.5 88.5t136 31h299z" />
    <glyph glyph-name="periodcentered" unicode="&#xb7;" horiz-adv-x="217" 
d="M50.5 242q-20.5 22 -20.5 55q0 40 27 69t67 29q35 0 55 -22t20 -56q0 -41 -26.5 -69t-67.5 -28q-34 0 -54.5 22z" />
    <glyph glyph-name="cedilla" unicode="&#xb8;" horiz-adv-x="286" 
d="M123 -53q37 -5 56 -26t19 -56q0 -30 -14 -58t-46.5 -47t-83.5 -19q-57 0 -93 31l42 64q26 -13 49 -13q19 0 30.5 9t11.5 26t-16 24t-55 7l30 127h80z" />
    <glyph glyph-name="uni00B9" unicode="&#xb9;" horiz-adv-x="332" 
d="M317 742l-59 -421h-105l42 314l-76 -52l-40 71l141 88h97z" />
    <glyph glyph-name="ordmasculine" unicode="&#xba;" horiz-adv-x="415" 
d="M378 651.5q41 -41.5 41 -122.5q0 -70 -23 -130t-70 -97t-116 -37q-73 0 -114 41.5t-41 122.5q0 70 23 130.5t70 97t116 36.5q73 0 114 -41.5zM202 538q-17 -58 -17 -125q0 -27 8 -39t25 -12q37 0 54.5 59.5t17.5 124.5q0 50 -33 50q-38 0 -55 -58zM-7 0l16 118h355
l-16 -118h-355z" />
    <glyph glyph-name="guillemotright" unicode="&#xbb;" horiz-adv-x="544" 
d="M161 553l126 -221l-16 -96l-187 -220l-83 62l134 209l-76 205zM401 553l126 -221l-16 -96l-187 -220l-83 62l134 209l-76 205z" />
    <glyph glyph-name="onequarter" unicode="&#xbc;" horiz-adv-x="805" 
d="M310 693l-59 -421h-105l42 314l-76 -52l-40 71l141 88h97zM582 756l77 -41l-444 -799l-78 41zM772 169l-12 -84h-34l-12 -85h-98l12 85h-160l11 76l133 270l85 -35l-106 -227h51l34 96h75l-13 -96h34z" />
    <glyph glyph-name="onehalf" unicode="&#xbd;" horiz-adv-x="805" 
d="M310 693l-59 -421h-105l42 314l-76 -52l-40 71l141 88h97zM582 756l77 -41l-444 -799l-78 41zM738 399q32 -31 32 -78q0 -42 -19.5 -78.5t-53.5 -70.5t-96 -86h147l-24 -86h-249l12 81q98 94 135.5 141.5t37.5 88.5q0 16 -8.5 25.5t-23.5 9.5q-16 0 -31 -10t-33 -31
l-56 51q61 74 144 74q54 0 86 -31z" />
    <glyph glyph-name="threequarters" unicode="&#xbe;" horiz-adv-x="805" 
d="M301.5 675q30.5 -28 30.5 -72q0 -42 -26.5 -70t-74.5 -39q41 -3 63 -24t22 -60q0 -40 -20 -74t-57.5 -55t-88.5 -21q-83 0 -127 68l63 51q16 -18 30.5 -26t33.5 -8q26 0 42.5 20t16.5 51q0 20 -12.5 29t-38.5 9h-27l23 75h15q28 0 43.5 16.5t15.5 41.5q0 34 -35 34
q-19 0 -36.5 -8.5t-37.5 -24.5l-44 56q63 59 141 59q55 0 85.5 -28zM582 756l77 -41l-444 -799l-78 41zM772 169l-12 -84h-34l-12 -85h-98l12 85h-160l11 76l133 270l85 -35l-106 -227h51l34 96h75l-13 -96h34z" />
    <glyph glyph-name="questiondown" unicode="&#xbf;" horiz-adv-x="407" 
d="M291.5 486q20.5 -22 20.5 -55q0 -40 -27 -69t-67 -29q-35 0 -55 22t-20 56q0 41 26.5 69t67.5 28q34 0 54.5 -22zM12 -179q-45 43 -45 109q0 44 15.5 75.5t37.5 51.5t57 43q41 28 60.5 50.5t19.5 56.5q0 14 -2 28l131 21q8 -28 8 -54q0 -42 -14 -72t-33.5 -48.5
t-51.5 -42.5q-37 -27 -54.5 -48t-17.5 -52q0 -43 42 -43q43 0 97 60l79 -74q-85 -104 -203 -104q-81 0 -126 43z" />
    <glyph glyph-name="Agrave" unicode="&#xc0;" horiz-adv-x="497" 
d="M310 0l-5 152h-146l-46 -152h-160l262 693h186l67 -693h-158zM193 265h108l-11 322zM283 936l170 -121l-45 -66l-189 81z" />
    <glyph glyph-name="Aacute" unicode="&#xc1;" horiz-adv-x="497" 
d="M310 0l-5 152h-146l-46 -152h-160l262 693h186l67 -693h-158zM193 265h108l-11 322zM407 939l51 -108l-211 -83l-36 70z" />
    <glyph glyph-name="Acircumflex" unicode="&#xc2;" horiz-adv-x="497" 
d="M310 0l-5 152h-146l-46 -152h-160l262 693h186l67 -693h-158zM193 265h108l-11 322zM207 757l-54 60l137 128h89l104 -136l-58 -52l-100 85z" />
    <glyph glyph-name="Atilde" unicode="&#xc3;" horiz-adv-x="497" 
d="M310 0l-5 152h-146l-46 -152h-160l262 693h186l67 -693h-158zM193 265h108l-11 322zM343.5 769.5q-12.5 6.5 -29.5 19.5q-9 7 -18.5 13t-17.5 6q-13 0 -23.5 -10.5t-24.5 -33.5l-65 39q24 50 56 81.5t65 31.5q19 0 33 -7.5t29 -20.5q11 -9 18.5 -13.5t15.5 -4.5
q12 0 22.5 10t23.5 33l65 -37q-23 -51 -55 -82t-66 -31q-16 0 -28.5 6.5z" />
    <glyph glyph-name="Adieresis" unicode="&#xc4;" horiz-adv-x="497" 
d="M310 0l-5 152h-146l-46 -152h-160l262 693h186l67 -693h-158zM193 265h108l-11 322zM171 787q-18 18 -18 48q0 36 24.5 61t58.5 25q32 0 49.5 -18t17.5 -48q0 -37 -24 -61.5t-60 -24.5q-30 0 -48 18zM368 787q-18 18 -18 48q0 36 24.5 61t58.5 25q31 0 49 -18t18 -48
q0 -37 -24 -61.5t-59 -24.5q-31 0 -49 18z" />
    <glyph glyph-name="Aring" unicode="&#xc5;" horiz-adv-x="497" 
d="M310 0l-5 152h-146l-46 -152h-160l262 693h186l67 -693h-158zM193 265h108l-11 322zM424.5 956.5q28.5 -31.5 28.5 -81.5q0 -60 -38 -100.5t-99 -40.5q-50 0 -78 31t-28 81q0 60 38 101t98 41q50 0 78.5 -31.5zM306 895q-12 -19 -12 -45q0 -42 30 -42q21 0 33 19t12 45
q0 42 -30 42q-21 0 -33 -19z" />
    <glyph glyph-name="AE" unicode="&#xc6;" horiz-adv-x="698" 
d="M676 581h-206l1 -175h192l-17 -111h-174l1 -181h186l-18 -114h-310l2 152h-160l-58 -152h-165l308 693h451zM217 266h117l3 312z" />
    <glyph glyph-name="Ccedilla" unicode="&#xc7;" horiz-adv-x="480" 
d="M277 -15l-5 -38q37 -5 56 -26t19 -56q0 -30 -14 -58t-46.5 -47t-83.5 -19q-57 0 -93 31l42 64q26 -13 49 -13q19 0 30.5 9t11.5 26t-16 24t-55 7l23 99q-76 16 -119 82t-43 177q0 122 36 228t108.5 170.5t177.5 64.5q103 0 170 -78l-81 -80q-43 41 -90 41
q-57 0 -93 -54.5t-52.5 -136t-16.5 -164.5q0 -134 83 -134q29 0 53.5 13t61.5 40l56 -88q-80 -74 -169 -84z" />
    <glyph glyph-name="Egrave" unicode="&#xc8;" horiz-adv-x="426" 
d="M465 693l-34 -112h-186l-25 -174h166l-16 -110h-165l-26 -183h204l-17 -114h-357l97 693h359zM261 936l170 -121l-45 -66l-189 81z" />
    <glyph glyph-name="Eacute" unicode="&#xc9;" horiz-adv-x="426" 
d="M465 693l-34 -112h-186l-25 -174h166l-16 -110h-165l-26 -183h204l-17 -114h-357l97 693h359zM385 939l51 -108l-211 -83l-36 70z" />
    <glyph glyph-name="Ecircumflex" unicode="&#xca;" horiz-adv-x="426" 
d="M465 693l-34 -112h-186l-25 -174h166l-16 -110h-165l-26 -183h204l-17 -114h-357l97 693h359zM185 757l-54 60l137 128h89l104 -136l-58 -52l-100 85z" />
    <glyph glyph-name="Edieresis" unicode="&#xcb;" horiz-adv-x="426" 
d="M465 693l-34 -112h-186l-25 -174h166l-16 -110h-165l-26 -183h204l-17 -114h-357l97 693h359zM149 787q-18 18 -18 48q0 36 24.5 61t58.5 25q32 0 49.5 -18t17.5 -48q0 -37 -24 -61.5t-60 -24.5q-30 0 -48 18zM346 787q-18 18 -18 48q0 36 24.5 61t58.5 25q31 0 49 -18
t18 -48q0 -37 -24 -61.5t-59 -24.5q-31 0 -49 18z" />
    <glyph glyph-name="Igrave" unicode="&#xcc;" horiz-adv-x="247" 
d="M261 693l-98 -693h-154l97 693h155zM158 936l170 -121l-45 -66l-189 81z" />
    <glyph glyph-name="Iacute" unicode="&#xcd;" horiz-adv-x="247" 
d="M261 693l-98 -693h-154l97 693h155zM282 939l51 -108l-211 -83l-36 70z" />
    <glyph glyph-name="Icircumflex" unicode="&#xce;" horiz-adv-x="247" 
d="M261 693l-98 -693h-154l97 693h155zM82 757l-54 60l137 128h89l104 -136l-58 -52l-100 85z" />
    <glyph glyph-name="Idieresis" unicode="&#xcf;" horiz-adv-x="247" 
d="M261 693l-98 -693h-154l97 693h155zM46 787q-18 18 -18 48q0 36 24.5 61t58.5 25q32 0 49.5 -18t17.5 -48q0 -37 -24 -61.5t-60 -24.5q-30 0 -48 18zM243 787q-18 18 -18 48q0 36 24.5 61t58.5 25q31 0 49 -18t18 -48q0 -37 -24 -61.5t-59 -24.5q-31 0 -49 18z" />
    <glyph glyph-name="Eth" unicode="&#xd0;" horiz-adv-x="556" 
d="M476 639.5q69 -53.5 69 -189.5q0 -205 -83.5 -327.5t-261.5 -122.5h-183l43 305h-46l15 96h44l41 292h176q117 0 186 -53.5zM321.5 166q36.5 52 52 129.5t15.5 158.5q0 69 -24 97.5t-71 28.5h-42l-25 -179h101l-15 -96h-99l-27 -191h38q60 0 96.5 52z" />
    <glyph glyph-name="Ntilde" unicode="&#xd1;" horiz-adv-x="539" 
d="M455 0h-185l-78 563v-55q0 -136 -15 -254l-33 -254h-135l97 693h186l77 -563l-1 73q0 103 13 207l37 283h134zM365.5 769.5q-12.5 6.5 -29.5 19.5q-9 7 -18.5 13t-17.5 6q-13 0 -23.5 -10.5t-24.5 -33.5l-65 39q24 50 56 81.5t65 31.5q19 0 33 -7.5t29 -20.5
q11 -9 18.5 -13.5t15.5 -4.5q12 0 22.5 10t23.5 33l65 -37q-23 -51 -55 -82t-66 -31q-16 0 -28.5 6.5z" />
    <glyph glyph-name="Ograve" unicode="&#xd2;" horiz-adv-x="578" 
d="M512.5 644.5q55.5 -65.5 55.5 -193.5q0 -122 -34 -228.5t-106 -173t-178 -66.5t-161.5 65.5t-55.5 193.5q0 121 34 227.5t105.5 173.5t178.5 67q106 0 161.5 -65.5zM254 532.5q-34 -62.5 -49.5 -151t-15.5 -167.5q0 -61 17.5 -88.5t52.5 -27.5q54 0 88 61.5t49 149
t15 168.5q0 62 -17 90t-53 28q-53 0 -87 -62.5zM324 936l170 -121l-45 -66l-189 81z" />
    <glyph glyph-name="Oacute" unicode="&#xd3;" horiz-adv-x="578" 
d="M512.5 644.5q55.5 -65.5 55.5 -193.5q0 -122 -34 -228.5t-106 -173t-178 -66.5t-161.5 65.5t-55.5 193.5q0 121 34 227.5t105.5 173.5t178.5 67q106 0 161.5 -65.5zM254 532.5q-34 -62.5 -49.5 -151t-15.5 -167.5q0 -61 17.5 -88.5t52.5 -27.5q54 0 88 61.5t49 149
t15 168.5q0 62 -17 90t-53 28q-53 0 -87 -62.5zM448 939l51 -108l-211 -83l-36 70z" />
    <glyph glyph-name="Ocircumflex" unicode="&#xd4;" horiz-adv-x="578" 
d="M512.5 644.5q55.5 -65.5 55.5 -193.5q0 -122 -34 -228.5t-106 -173t-178 -66.5t-161.5 65.5t-55.5 193.5q0 121 34 227.5t105.5 173.5t178.5 67q106 0 161.5 -65.5zM254 532.5q-34 -62.5 -49.5 -151t-15.5 -167.5q0 -61 17.5 -88.5t52.5 -27.5q54 0 88 61.5t49 149
t15 168.5q0 62 -17 90t-53 28q-53 0 -87 -62.5zM248 757l-54 60l137 128h89l104 -136l-58 -52l-100 85z" />
    <glyph glyph-name="Otilde" unicode="&#xd5;" horiz-adv-x="578" 
d="M512.5 644.5q55.5 -65.5 55.5 -193.5q0 -122 -34 -228.5t-106 -173t-178 -66.5t-161.5 65.5t-55.5 193.5q0 121 34 227.5t105.5 173.5t178.5 67q106 0 161.5 -65.5zM254 532.5q-34 -62.5 -49.5 -151t-15.5 -167.5q0 -61 17.5 -88.5t52.5 -27.5q54 0 88 61.5t49 149
t15 168.5q0 62 -17 90t-53 28q-53 0 -87 -62.5zM384.5 769.5q-12.5 6.5 -29.5 19.5q-9 7 -18.5 13t-17.5 6q-13 0 -23.5 -10.5t-24.5 -33.5l-65 39q24 50 56 81.5t65 31.5q19 0 33 -7.5t29 -20.5q11 -9 18.5 -13.5t15.5 -4.5q12 0 22.5 10t23.5 33l65 -37q-23 -51 -55 -82
t-66 -31q-16 0 -28.5 6.5z" />
    <glyph glyph-name="Odieresis" unicode="&#xd6;" horiz-adv-x="578" 
d="M512.5 644.5q55.5 -65.5 55.5 -193.5q0 -122 -34 -228.5t-106 -173t-178 -66.5t-161.5 65.5t-55.5 193.5q0 121 34 227.5t105.5 173.5t178.5 67q106 0 161.5 -65.5zM254 532.5q-34 -62.5 -49.5 -151t-15.5 -167.5q0 -61 17.5 -88.5t52.5 -27.5q54 0 88 61.5t49 149
t15 168.5q0 62 -17 90t-53 28q-53 0 -87 -62.5zM212 787q-18 18 -18 48q0 36 24.5 61t58.5 25q32 0 49.5 -18t17.5 -48q0 -37 -24 -61.5t-60 -24.5q-30 0 -48 18zM409 787q-18 18 -18 48q0 36 24.5 61t58.5 25q31 0 49 -18t18 -48q0 -37 -24 -61.5t-59 -24.5q-31 0 -49 18z
" />
    <glyph glyph-name="multiply" unicode="&#xd7;" horiz-adv-x="436" 
d="M343 507l75 -74l-119 -127l94 -127l-94 -73l-86 122l-108 -122l-76 74l117 125l-92 130l94 72l84 -126z" />
    <glyph glyph-name="Oslash" unicode="&#xd8;" horiz-adv-x="578" 
d="M547 579q21 -55 21 -128q0 -122 -34 -228.5t-106 -173t-178 -66.5q-12 0 -32 2l-43 -118l-109 31l48 130q-39 33 -60 87.5t-21 126.5q0 121 34 227.5t105.5 173.5t178.5 67q10 0 30 -2l44 119l108 -32l-47 -129q40 -32 61 -87zM250 533q-36 -63 -51.5 -151t-15.5 -168
q0 -48 10 -74l160 455q-4 1 -12 1q-55 0 -91 -63zM351.5 158q35.5 62 50.5 149.5t15 169.5q0 46 -9 73l-159 -454h10q57 0 92.5 62z" />
    <glyph glyph-name="Ugrave" unicode="&#xd9;" horiz-adv-x="528" 
d="M481 195q-13 -92 -79 -151.5t-173 -59.5q-100 0 -152 51.5t-52 131.5q0 23 2 35l70 491h154l-71 -508q-2 -14 -2 -21q0 -29 15 -46t46 -17q38 0 59.5 24.5t27.5 62.5l70 505h155zM298 936l170 -121l-45 -66l-189 81z" />
    <glyph glyph-name="Uacute" unicode="&#xda;" horiz-adv-x="528" 
d="M481 195q-13 -92 -79 -151.5t-173 -59.5q-100 0 -152 51.5t-52 131.5q0 23 2 35l70 491h154l-71 -508q-2 -14 -2 -21q0 -29 15 -46t46 -17q38 0 59.5 24.5t27.5 62.5l70 505h155zM422 939l51 -108l-211 -83l-36 70z" />
    <glyph glyph-name="Ucircumflex" unicode="&#xdb;" horiz-adv-x="528" 
d="M481 195q-13 -92 -79 -151.5t-173 -59.5q-100 0 -152 51.5t-52 131.5q0 23 2 35l70 491h154l-71 -508q-2 -14 -2 -21q0 -29 15 -46t46 -17q38 0 59.5 24.5t27.5 62.5l70 505h155zM222 757l-54 60l137 128h89l104 -136l-58 -52l-100 85z" />
    <glyph glyph-name="Udieresis" unicode="&#xdc;" horiz-adv-x="528" 
d="M481 195q-13 -92 -79 -151.5t-173 -59.5q-100 0 -152 51.5t-52 131.5q0 23 2 35l70 491h154l-71 -508q-2 -14 -2 -21q0 -29 15 -46t46 -17q38 0 59.5 24.5t27.5 62.5l70 505h155zM186 787q-18 18 -18 48q0 36 24.5 61t58.5 25q32 0 49.5 -18t17.5 -48q0 -37 -24 -61.5
t-60 -24.5q-30 0 -48 18zM383 787q-18 18 -18 48q0 36 24.5 61t58.5 25q31 0 49 -18t18 -48q0 -37 -24 -61.5t-59 -24.5q-31 0 -49 18z" />
    <glyph glyph-name="Yacute" unicode="&#xdd;" horiz-adv-x="491" 
d="M561 693l-239 -433l-36 -260h-155l36 260l-117 433h161l51 -314l134 314h165zM402 939l51 -108l-211 -83l-36 70z" />
    <glyph glyph-name="Thorn" unicode="&#xde;" horiz-adv-x="493" 
d="M440 533.5q58 -49.5 58 -145.5q0 -78 -31.5 -139.5t-93.5 -97t-150 -35.5h-43l-16 -116h-155l97 693h155l-15 -110h27q109 0 167 -49.5zM314 273q26 44 26 114q0 46 -18.5 65t-59.5 19h-32l-34 -242h28q64 0 90 44z" />
    <glyph glyph-name="germandbls" unicode="&#xdf;" horiz-adv-x="496" 
d="M-97 -111q49 21 74.5 52t34.5 96l68 498q14 106 73.5 164.5t155.5 58.5q75 0 116.5 -38.5t41.5 -98.5q0 -42 -14 -69t-40 -57q-19 -23 -28 -38.5t-9 -35.5q0 -18 8.5 -32.5t26.5 -35.5q30 -35 47 -70.5t17 -93.5q0 -53 -20.5 -99.5t-64.5 -76t-109 -29.5q-53 0 -95 25
l50 102q19 -11 37 -11q27 0 39 22t12 56q0 30 -9 52t-28 50q-20 31 -30 55.5t-10 59.5q0 34 10.5 57t30.5 53q21 31 30.5 52.5t9.5 53.5q0 20 -9 30t-25 10q-27 0 -42.5 -28.5t-23.5 -86.5l-66 -484q-12 -81 -43 -133.5t-75 -83t-107 -56.5z" />
    <glyph glyph-name="agrave" unicode="&#xe0;" horiz-adv-x="482" 
d="M474 499l-50 -350q-3 -16 -3 -30q0 -26 21 -35l-47 -98q-40 4 -68.5 23t-39.5 53q-29 -39 -59 -59t-72 -20q-66 0 -102 50.5t-36 137.5q0 98 28.5 183.5t91.5 139.5t160 54q89 0 176 -49zM198 357.5q-30 -82.5 -30 -189.5q0 -40 9.5 -57t29.5 -17q19 0 35.5 17t35.5 48
l39 276q-17 5 -32 5q-57 0 -87 -82.5zM286 824l167 -131l-44 -67l-189 92z" />
    <glyph glyph-name="aacute" unicode="&#xe1;" horiz-adv-x="482" 
d="M474 499l-50 -350q-3 -16 -3 -30q0 -26 21 -35l-47 -98q-40 4 -68.5 23t-39.5 53q-29 -39 -59 -59t-72 -20q-66 0 -102 50.5t-36 137.5q0 98 28.5 183.5t91.5 139.5t160 54q89 0 176 -49zM198 357.5q-30 -82.5 -30 -189.5q0 -40 9.5 -57t29.5 -17q19 0 35.5 17t35.5 48
l39 276q-17 5 -32 5q-57 0 -87 -82.5zM397 826l51 -108l-211 -94l-38 71z" />
    <glyph glyph-name="acircumflex" unicode="&#xe2;" horiz-adv-x="482" 
d="M474 499l-50 -350q-3 -16 -3 -30q0 -26 21 -35l-47 -98q-40 4 -68.5 23t-39.5 53q-29 -39 -59 -59t-72 -20q-66 0 -102 50.5t-36 137.5q0 98 28.5 183.5t91.5 139.5t160 54q89 0 176 -49zM198 357.5q-30 -82.5 -30 -189.5q0 -40 9.5 -57t29.5 -17q19 0 35.5 17t35.5 48
l39 276q-17 5 -32 5q-57 0 -87 -82.5zM210 624l-50 60l137 135h89l103 -142l-62 -53l-96 91z" />
    <glyph glyph-name="atilde" unicode="&#xe3;" horiz-adv-x="482" 
d="M474 499l-50 -350q-3 -16 -3 -30q0 -26 21 -35l-47 -98q-40 4 -68.5 23t-39.5 53q-29 -39 -59 -59t-72 -20q-66 0 -102 50.5t-36 137.5q0 98 28.5 183.5t91.5 139.5t160 54q89 0 176 -49zM198 357.5q-30 -82.5 -30 -189.5q0 -40 9.5 -57t29.5 -17q19 0 35.5 17t35.5 48
l39 276q-17 5 -32 5q-57 0 -87 -82.5zM341.5 643.5q-12.5 6.5 -29.5 19.5q-9 7 -18.5 13t-17.5 6q-13 0 -23.5 -10.5t-24.5 -33.5l-65 39q24 50 56 81.5t65 31.5q19 0 33 -7.5t29 -20.5q11 -9 18.5 -13.5t15.5 -4.5q12 0 22.5 10t23.5 33l65 -37q-23 -51 -55 -82t-66 -31
q-16 0 -28.5 6.5z" />
    <glyph glyph-name="adieresis" unicode="&#xe4;" horiz-adv-x="482" 
d="M474 499l-50 -350q-3 -16 -3 -30q0 -26 21 -35l-47 -98q-40 4 -68.5 23t-39.5 53q-29 -39 -59 -59t-72 -20q-66 0 -102 50.5t-36 137.5q0 98 28.5 183.5t91.5 139.5t160 54q89 0 176 -49zM198 357.5q-30 -82.5 -30 -189.5q0 -40 9.5 -57t29.5 -17q19 0 35.5 17t35.5 48
l39 276q-17 5 -32 5q-57 0 -87 -82.5zM172 661q-18 18 -18 48q0 36 24.5 61t58.5 25q32 0 49.5 -18t17.5 -48q0 -37 -24 -61.5t-60 -24.5q-30 0 -48 18zM369 661q-18 18 -18 48q0 36 24.5 61t58.5 25q31 0 49 -18t18 -48q0 -37 -24 -61.5t-59 -24.5q-31 0 -49 18z" />
    <glyph glyph-name="aring" unicode="&#xe5;" horiz-adv-x="482" 
d="M474 499l-50 -350q-3 -16 -3 -30q0 -26 21 -35l-47 -98q-40 4 -68.5 23t-39.5 53q-29 -39 -59 -59t-72 -20q-66 0 -102 50.5t-36 137.5q0 98 28.5 183.5t91.5 139.5t160 54q89 0 176 -49zM198 357.5q-30 -82.5 -30 -189.5q0 -40 9.5 -57t29.5 -17q19 0 35.5 17t35.5 48
l39 276q-17 5 -32 5q-57 0 -87 -82.5zM422.5 830.5q28.5 -31.5 28.5 -81.5q0 -60 -38 -100.5t-99 -40.5q-50 0 -78 31t-28 81q0 60 38 101t98 41q50 0 78.5 -31.5zM304 769q-12 -19 -12 -45q0 -42 30 -42q21 0 33 19t12 45q0 42 -30 42q-21 0 -33 -19z" />
    <glyph glyph-name="ae" unicode="&#xe6;" horiz-adv-x="703" 
d="M323 532q29 -15 51 -46q67 62 163 62q76 0 120 -39t44 -100q0 -103 -80.5 -152t-208.5 -64q0 -52 15 -75t51 -23q27 0 52.5 11t58.5 35l51 -87q-84 -71 -189 -71q-54 0 -94 20.5t-63 59.5q-35 -43 -73 -61t-81 -18q-63 0 -100 38t-37 101q0 84 53.5 140.5t184.5 56.5h41
q6 31 18 56q-6 29 -26.5 44.5t-50.5 15.5q-46 0 -116 -26l-18 100q85 37 161 37q44 0 73 -15zM457 400.5q-25 -45.5 -36 -114.5q70 7 103.5 39t33.5 79q0 42 -37 42q-39 0 -64 -45.5zM239 233q-38 0 -59 -23t-21 -69q0 -50 36 -50q18 0 35 15t37 47q-1 10 -1 33q0 25 2 47
h-29z" />
    <glyph glyph-name="ccedilla" unicode="&#xe7;" horiz-adv-x="399" 
d="M233 -16l-5 -37q37 -5 56 -26t19 -56q0 -30 -14 -58t-46.5 -47t-83.5 -19q-57 0 -93 31l42 64q26 -13 49 -13q19 0 30.5 9t11.5 26t-16 24t-55 7l24 101q-62 17 -96.5 70t-34.5 136q0 95 31 175.5t90.5 128.5t141.5 48q48 0 84 -16.5t64 -49.5l-72 -81q-19 17 -35.5 24.5
t-35.5 7.5q-59 0 -86.5 -73.5t-27.5 -167.5q0 -50 15 -70.5t44 -20.5q19 0 36 7.5t44 23.5l52 -88q-61 -52 -133 -60z" />
    <glyph glyph-name="egrave" unicode="&#xe8;" horiz-adv-x="458" 
d="M412 509q44 -39 44 -100q0 -103 -80 -151.5t-209 -64.5v-14q0 -84 65 -84q27 0 52 11t59 35l52 -87q-84 -71 -188 -71q-87 0 -137 51.5t-50 150.5q0 98 30 180.5t91.5 132.5t150.5 50q76 0 120 -39zM279 325q33 32 33 79q0 42 -37 42q-38 0 -62.5 -45.5t-36.5 -114.5
q70 7 103 39zM269 824l167 -131l-44 -67l-189 92z" />
    <glyph glyph-name="eacute" unicode="&#xe9;" horiz-adv-x="458" 
d="M412 509q44 -39 44 -100q0 -103 -80 -151.5t-209 -64.5v-14q0 -84 65 -84q27 0 52 11t59 35l52 -87q-84 -71 -188 -71q-87 0 -137 51.5t-50 150.5q0 98 30 180.5t91.5 132.5t150.5 50q76 0 120 -39zM279 325q33 32 33 79q0 42 -37 42q-38 0 -62.5 -45.5t-36.5 -114.5
q70 7 103 39zM380 826l51 -108l-211 -94l-38 71z" />
    <glyph glyph-name="ecircumflex" unicode="&#xea;" horiz-adv-x="458" 
d="M412 509q44 -39 44 -100q0 -103 -80 -151.5t-209 -64.5v-14q0 -84 65 -84q27 0 52 11t59 35l52 -87q-84 -71 -188 -71q-87 0 -137 51.5t-50 150.5q0 98 30 180.5t91.5 132.5t150.5 50q76 0 120 -39zM279 325q33 32 33 79q0 42 -37 42q-38 0 -62.5 -45.5t-36.5 -114.5
q70 7 103 39zM193 624l-50 60l137 135h89l103 -142l-62 -53l-96 91z" />
    <glyph glyph-name="edieresis" unicode="&#xeb;" horiz-adv-x="458" 
d="M412 509q44 -39 44 -100q0 -103 -80 -151.5t-209 -64.5v-14q0 -84 65 -84q27 0 52 11t59 35l52 -87q-84 -71 -188 -71q-87 0 -137 51.5t-50 150.5q0 98 30 180.5t91.5 132.5t150.5 50q76 0 120 -39zM279 325q33 32 33 79q0 42 -37 42q-38 0 -62.5 -45.5t-36.5 -114.5
q70 7 103 39zM155 661q-18 18 -18 48q0 36 24.5 61t58.5 25q32 0 49.5 -18t17.5 -48q0 -37 -24 -61.5t-60 -24.5q-30 0 -48 18zM352 661q-18 18 -18 48q0 36 24.5 61t58.5 25q31 0 49 -18t18 -48q0 -37 -24 -61.5t-59 -24.5q-31 0 -49 18z" />
    <glyph glyph-name="igrave" unicode="&#xec;" horiz-adv-x="234" 
d="M228 531l-74 -531h-148l74 531h148zM138 824l167 -131l-44 -67l-189 92z" />
    <glyph glyph-name="iacute" unicode="&#xed;" horiz-adv-x="234" 
d="M228 531l-74 -531h-148l74 531h148zM249 826l51 -108l-211 -94l-38 71z" />
    <glyph glyph-name="icircumflex" unicode="&#xee;" horiz-adv-x="234" 
d="M228 531l-74 -531h-148l74 531h148zM62 624l-50 60l137 135h89l103 -142l-62 -53l-96 91z" />
    <glyph glyph-name="idieresis" unicode="&#xef;" horiz-adv-x="234" 
d="M228 531l-74 -531h-148l74 531h148zM24 661q-18 18 -18 48q0 36 24.5 61t58.5 25q32 0 49.5 -18t17.5 -48q0 -37 -24 -61.5t-60 -24.5q-30 0 -48 18zM221 661q-18 18 -18 48q0 36 24.5 61t58.5 25q31 0 49 -18t18 -48q0 -37 -24 -61.5t-59 -24.5q-31 0 -49 18z" />
    <glyph glyph-name="eth" unicode="&#xf0;" horiz-adv-x="492" 
d="M442 548.5q26 -65.5 26 -155.5q0 -110 -30.5 -203t-90.5 -149.5t-146 -56.5q-84 0 -133.5 52.5t-49.5 147.5q0 70 26.5 138t74 112t105.5 44q64 0 102 -48q-2 53 -14.5 87t-41.5 67l-53 -55l-79 44l61 63q-22 10 -72 25l40 96q54 -12 114 -40l75 78l65 -62l-62 -66
q57 -53 83 -118.5zM281.5 154q21.5 60 35.5 174q-21 44 -58 44q-48 0 -71 -63t-23 -136q0 -42 12 -60.5t37 -18.5q46 0 67.5 60z" />
    <glyph glyph-name="ntilde" unicode="&#xf1;" horiz-adv-x="470" 
d="M423.5 515.5q27.5 -32.5 27.5 -88.5q0 -17 -3 -37l-55 -390h-148l51 366q1 6 1 17q0 31 -20 31q-17 0 -36 -27t-44 -81l-43 -306h-148l74 531h129l-3 -84q30 47 65 74t78 27q47 0 74.5 -32.5zM314.5 643.5q-12.5 6.5 -29.5 19.5q-9 7 -18.5 13t-17.5 6q-13 0 -23.5 -10.5
t-24.5 -33.5l-65 39q24 50 56 81.5t65 31.5q19 0 33 -7.5t29 -20.5q11 -9 18.5 -13.5t15.5 -4.5q12 0 22.5 10t23.5 33l65 -37q-23 -51 -55 -82t-66 -31q-16 0 -28.5 6.5z" />
    <glyph glyph-name="ograve" unicode="&#xf2;" horiz-adv-x="489" 
d="M69.5 36.5q-48.5 53.5 -48.5 154.5q0 92 29 173.5t88 132.5t145 51q88 0 136.5 -53.5t48.5 -155.5q0 -92 -29 -173t-88 -132t-145 -51q-88 0 -136.5 53.5zM275 138q23 44 33.5 106t10.5 117q0 40 -11.5 57.5t-34.5 17.5q-36 0 -59 -43.5t-33 -105t-10 -117.5
q0 -40 11 -58t34 -18q36 0 59 44zM266 824l167 -131l-44 -67l-189 92z" />
    <glyph glyph-name="oacute" unicode="&#xf3;" horiz-adv-x="489" 
d="M69.5 36.5q-48.5 53.5 -48.5 154.5q0 92 29 173.5t88 132.5t145 51q88 0 136.5 -53.5t48.5 -155.5q0 -92 -29 -173t-88 -132t-145 -51q-88 0 -136.5 53.5zM275 138q23 44 33.5 106t10.5 117q0 40 -11.5 57.5t-34.5 17.5q-36 0 -59 -43.5t-33 -105t-10 -117.5
q0 -40 11 -58t34 -18q36 0 59 44zM377 826l51 -108l-211 -94l-38 71z" />
    <glyph glyph-name="ocircumflex" unicode="&#xf4;" horiz-adv-x="489" 
d="M69.5 36.5q-48.5 53.5 -48.5 154.5q0 92 29 173.5t88 132.5t145 51q88 0 136.5 -53.5t48.5 -155.5q0 -92 -29 -173t-88 -132t-145 -51q-88 0 -136.5 53.5zM275 138q23 44 33.5 106t10.5 117q0 40 -11.5 57.5t-34.5 17.5q-36 0 -59 -43.5t-33 -105t-10 -117.5
q0 -40 11 -58t34 -18q36 0 59 44zM190 624l-50 60l137 135h89l103 -142l-62 -53l-96 91z" />
    <glyph glyph-name="otilde" unicode="&#xf5;" horiz-adv-x="489" 
d="M69.5 36.5q-48.5 53.5 -48.5 154.5q0 92 29 173.5t88 132.5t145 51q88 0 136.5 -53.5t48.5 -155.5q0 -92 -29 -173t-88 -132t-145 -51q-88 0 -136.5 53.5zM275 138q23 44 33.5 106t10.5 117q0 40 -11.5 57.5t-34.5 17.5q-36 0 -59 -43.5t-33 -105t-10 -117.5
q0 -40 11 -58t34 -18q36 0 59 44zM321.5 643.5q-12.5 6.5 -29.5 19.5q-9 7 -18.5 13t-17.5 6q-13 0 -23.5 -10.5t-24.5 -33.5l-65 39q24 50 56 81.5t65 31.5q19 0 33 -7.5t29 -20.5q11 -9 18.5 -13.5t15.5 -4.5q12 0 22.5 10t23.5 33l65 -37q-23 -51 -55 -82t-66 -31
q-16 0 -28.5 6.5z" />
    <glyph glyph-name="odieresis" unicode="&#xf6;" horiz-adv-x="489" 
d="M69.5 36.5q-48.5 53.5 -48.5 154.5q0 92 29 173.5t88 132.5t145 51q88 0 136.5 -53.5t48.5 -155.5q0 -92 -29 -173t-88 -132t-145 -51q-88 0 -136.5 53.5zM275 138q23 44 33.5 106t10.5 117q0 40 -11.5 57.5t-34.5 17.5q-36 0 -59 -43.5t-33 -105t-10 -117.5
q0 -40 11 -58t34 -18q36 0 59 44zM152 661q-18 18 -18 48q0 36 24.5 61t58.5 25q32 0 49.5 -18t17.5 -48q0 -37 -24 -61.5t-60 -24.5q-30 0 -48 18zM349 661q-18 18 -18 48q0 36 24.5 61t58.5 25q31 0 49 -18t18 -48q0 -37 -24 -61.5t-59 -24.5q-31 0 -49 18z" />
    <glyph glyph-name="divide" unicode="&#xf7;" horiz-adv-x="435" 
d="M134.5 27q-20.5 22 -20.5 55q0 40 27 69t67 29q35 0 55 -22t20 -56q0 -41 -26.5 -69t-67.5 -28q-34 0 -54.5 22zM201.5 505q-20.5 22 -20.5 55q0 40 27 69t67 29q35 0 55 -22t20 -56q0 -41 -26.5 -69t-67.5 -28q-34 0 -54.5 22zM41 273l16 118h355l-16 -118h-355z" />
    <glyph glyph-name="oslash" unicode="&#xf8;" horiz-adv-x="489" 
d="M450.5 439.5q17.5 -43.5 17.5 -100.5q0 -92 -29 -173t-88 -132t-145 -51q-14 0 -20 1l-46 -118l-101 32l50 122q-68 56 -68 171q0 92 29 173.5t88 132.5t145 51q15 0 22 -1l44 118l102 -32l-50 -124q32 -26 49.5 -69.5zM186.5 360q-28.5 -85 -28.5 -190q0 -29 4 -45l3 4
l109 305l3 11h-4q-58 0 -86.5 -85zM281 127.5q26 42.5 38 105.5t12 128q0 24 -3 40l-3 -4l-107 -300l-3 -12h1q39 0 65 42.5z" />
    <glyph glyph-name="ugrave" unicode="&#xf9;" horiz-adv-x="465" 
d="M47.5 15q-28.5 32 -28.5 87q0 17 3 35l55 394h148l-53 -376q-1 -5 -1 -14q0 -14 5.5 -21.5t14.5 -7.5q31 0 72 74l49 345h147l-74 -531h-129l4 75q-29 -44 -60 -68t-76 -24q-48 0 -76.5 32zM252 824l167 -131l-44 -67l-189 92z" />
    <glyph glyph-name="uacute" unicode="&#xfa;" horiz-adv-x="465" 
d="M47.5 15q-28.5 32 -28.5 87q0 17 3 35l55 394h148l-53 -376q-1 -5 -1 -14q0 -14 5.5 -21.5t14.5 -7.5q31 0 72 74l49 345h147l-74 -531h-129l4 75q-29 -44 -60 -68t-76 -24q-48 0 -76.5 32zM363 826l51 -108l-211 -94l-38 71z" />
    <glyph glyph-name="ucircumflex" unicode="&#xfb;" horiz-adv-x="465" 
d="M47.5 15q-28.5 32 -28.5 87q0 17 3 35l55 394h148l-53 -376q-1 -5 -1 -14q0 -14 5.5 -21.5t14.5 -7.5q31 0 72 74l49 345h147l-74 -531h-129l4 75q-29 -44 -60 -68t-76 -24q-48 0 -76.5 32zM176 624l-50 60l137 135h89l103 -142l-62 -53l-96 91z" />
    <glyph glyph-name="udieresis" unicode="&#xfc;" horiz-adv-x="465" 
d="M47.5 15q-28.5 32 -28.5 87q0 17 3 35l55 394h148l-53 -376q-1 -5 -1 -14q0 -14 5.5 -21.5t14.5 -7.5q31 0 72 74l49 345h147l-74 -531h-129l4 75q-29 -44 -60 -68t-76 -24q-48 0 -76.5 32zM138 661q-18 18 -18 48q0 36 24.5 61t58.5 25q32 0 49.5 -18t17.5 -48
q0 -37 -24 -61.5t-60 -24.5q-30 0 -48 18zM335 661q-18 18 -18 48q0 36 24.5 61t58.5 25q31 0 49 -18t18 -48q0 -37 -24 -61.5t-59 -24.5q-31 0 -49 18z" />
    <glyph glyph-name="yacute" unicode="&#xfd;" horiz-adv-x="433" 
d="M271 -2q-43 -111 -112.5 -161t-178.5 -58l-2 103q65 11 98.5 35.5t59.5 82.5h-53l-51 531h153l6 -433l129 433h156zM348 826l51 -108l-211 -94l-38 71z" />
    <glyph glyph-name="thorn" unicode="&#xfe;" horiz-adv-x="491" 
d="M438.5 501.5q34.5 -46.5 34.5 -132.5q0 -106 -26.5 -193.5t-82.5 -140t-141 -52.5q-38 0 -70 12l-29 -200l-150 -17l136 964l150 16l-38 -272q22 29 54 45.5t67 16.5q61 0 95.5 -46.5zM275 137q25 44 36.5 107t11.5 120q0 41 -10.5 57t-30.5 16q-18 0 -37.5 -14.5
t-37.5 -39.5l-39 -281q19 -9 44 -9q38 0 63 44z" />
    <glyph glyph-name="ydieresis" unicode="&#xff;" horiz-adv-x="433" 
d="M271 -2q-43 -111 -112.5 -161t-178.5 -58l-2 103q65 11 98.5 35.5t59.5 82.5h-53l-51 531h153l6 -433l129 433h156zM123 661q-18 18 -18 48q0 36 24.5 61t58.5 25q32 0 49.5 -18t17.5 -48q0 -37 -24 -61.5t-60 -24.5q-30 0 -48 18zM320 661q-18 18 -18 48q0 36 24.5 61
t58.5 25q31 0 49 -18t18 -48q0 -37 -24 -61.5t-59 -24.5q-31 0 -49 18z" />
    <glyph glyph-name="Amacron" unicode="&#x100;" horiz-adv-x="497" 
d="M310 0l-5 152h-146l-46 -152h-160l262 693h186l67 -693h-158zM193 265h108l-11 322zM445 782h-256l16 106h256z" />
    <glyph glyph-name="amacron" unicode="&#x101;" horiz-adv-x="482" 
d="M474 499l-50 -350q-3 -16 -3 -30q0 -26 21 -35l-47 -98q-40 4 -68.5 23t-39.5 53q-29 -39 -59 -59t-72 -20q-66 0 -102 50.5t-36 137.5q0 98 28.5 183.5t91.5 139.5t160 54q89 0 176 -49zM198 357.5q-30 -82.5 -30 -189.5q0 -40 9.5 -57t29.5 -17q19 0 35.5 17t35.5 48
l39 276q-17 5 -32 5q-57 0 -87 -82.5zM446 656h-256l16 106h256z" />
    <glyph glyph-name="Abreve" unicode="&#x102;" horiz-adv-x="497" 
d="M310 0l-5 152h-146l-46 -152h-160l262 693h186l67 -693h-158zM193 265h108l-11 322zM222 792q-32 40 -32 100q0 12 1 19l77 12q5 -66 56 -66q52 0 77 69l79 -19q-14 -69 -55 -112t-108 -43q-63 0 -95 40z" />
    <glyph glyph-name="abreve" unicode="&#x103;" horiz-adv-x="482" 
d="M474 499l-50 -350q-3 -16 -3 -30q0 -26 21 -35l-47 -98q-40 4 -68.5 23t-39.5 53q-29 -39 -59 -59t-72 -20q-66 0 -102 50.5t-36 137.5q0 98 28.5 183.5t91.5 139.5t160 54q89 0 176 -49zM198 357.5q-30 -82.5 -30 -189.5q0 -40 9.5 -57t29.5 -17q19 0 35.5 17t35.5 48
l39 276q-17 5 -32 5q-57 0 -87 -82.5zM222 675.5q-33 41.5 -33 107.5q0 13 1 20l79 12q3 -76 55 -76q27 0 47 21t32 58l76 -18q-14 -75 -55 -120.5t-106 -45.5q-63 0 -96 41.5z" />
    <glyph glyph-name="Aogonek" unicode="&#x104;" horiz-adv-x="497" 
d="M286 -116q0 -33 38 -33q19 0 47 5l-22 -92q-24 -7 -58 -7q-50 0 -81 29t-31 78q0 50 31.5 89.5t98.5 69.5l-4 129h-146l-46 -152h-160l262 693h186l67 -693h-73q-109 -50 -109 -116zM193 265h108l-11 322z" />
    <glyph glyph-name="aogonek" unicode="&#x105;" horiz-adv-x="482" 
d="M421 119q0 -26 21 -35l-47 -98q-109 -50 -109 -116q0 -33 38 -33q19 0 47 5l-22 -92q-24 -7 -58 -7q-50 0 -81 29t-31 78q0 52 34.5 92.5t106.5 71.5q-24 20 -33 48q-29 -39 -59 -59t-72 -20q-66 0 -102 50.5t-36 137.5q0 98 28.5 183.5t91.5 139.5t160 54q89 0 176 -49
l-50 -350q-3 -16 -3 -30zM317 435q-17 5 -32 5q-57 0 -87 -82.5t-30 -189.5q0 -40 9.5 -57t29.5 -17q19 0 35.5 17t35.5 48z" />
    <glyph glyph-name="Cacute" unicode="&#x106;" horiz-adv-x="480" 
d="M525 632l-81 -80q-43 41 -90 41q-57 0 -93 -54.5t-52.5 -136t-16.5 -164.5q0 -134 83 -134q29 0 53.5 13t61.5 40l56 -88q-92 -86 -200 -86q-98 0 -155.5 67.5t-57.5 196.5q0 122 36 228t108.5 170.5t177.5 64.5q103 0 170 -78zM451 939l51 -108l-211 -83l-36 70z" />
    <glyph glyph-name="cacute" unicode="&#x107;" horiz-adv-x="399" 
d="M368 531.5q36 -16.5 64 -49.5l-72 -81q-19 17 -35.5 24.5t-35.5 7.5q-59 0 -86.5 -73.5t-27.5 -167.5q0 -50 15 -70.5t44 -20.5q19 0 36 7.5t44 23.5l52 -88q-70 -61 -158 -61q-87 0 -137 56.5t-50 156.5q0 95 31 175.5t90.5 128.5t141.5 48q48 0 84 -16.5zM373 826
l51 -108l-211 -94l-38 71z" />
    <glyph glyph-name="Ccircumflex" unicode="&#x108;" horiz-adv-x="480" 
d="M525 632l-81 -80q-43 41 -90 41q-57 0 -93 -54.5t-52.5 -136t-16.5 -164.5q0 -134 83 -134q29 0 53.5 13t61.5 40l56 -88q-92 -86 -200 -86q-98 0 -155.5 67.5t-57.5 196.5q0 122 36 228t108.5 170.5t177.5 64.5q103 0 170 -78zM251 757l-54 60l137 128h89l104 -136
l-58 -52l-100 85z" />
    <glyph glyph-name="ccircumflex" unicode="&#x109;" horiz-adv-x="399" 
d="M368 531.5q36 -16.5 64 -49.5l-72 -81q-19 17 -35.5 24.5t-35.5 7.5q-59 0 -86.5 -73.5t-27.5 -167.5q0 -50 15 -70.5t44 -20.5q19 0 36 7.5t44 23.5l52 -88q-70 -61 -158 -61q-87 0 -137 56.5t-50 156.5q0 95 31 175.5t90.5 128.5t141.5 48q48 0 84 -16.5zM186 624
l-50 60l137 135h89l103 -142l-62 -53l-96 91z" />
    <glyph glyph-name="Cdotaccent" unicode="&#x10a;" horiz-adv-x="480" 
d="M525 632l-81 -80q-43 41 -90 41q-57 0 -93 -54.5t-52.5 -136t-16.5 -164.5q0 -134 83 -134q29 0 53.5 13t61.5 40l56 -88q-92 -86 -200 -86q-98 0 -155.5 67.5t-57.5 196.5q0 122 36 228t108.5 170.5t177.5 64.5q103 0 170 -78zM309.5 780.5q-20.5 20.5 -20.5 54.5
q0 42 28 70t68 28q37 0 57 -20.5t20 -54.5q0 -43 -27.5 -70.5t-68.5 -27.5q-36 0 -56.5 20.5z" />
    <glyph glyph-name="cdotaccent" unicode="&#x10b;" horiz-adv-x="399" 
d="M368 531.5q36 -16.5 64 -49.5l-72 -81q-19 17 -35.5 24.5t-35.5 7.5q-59 0 -86.5 -73.5t-27.5 -167.5q0 -50 15 -70.5t44 -20.5q19 0 36 7.5t44 23.5l52 -88q-70 -61 -158 -61q-87 0 -137 56.5t-50 156.5q0 95 31 175.5t90.5 128.5t141.5 48q48 0 84 -16.5zM237.5 654.5
q-20.5 20.5 -20.5 54.5q0 42 28 70t68 28q37 0 57 -20.5t20 -54.5q0 -43 -27.5 -70.5t-68.5 -27.5q-36 0 -56.5 20.5z" />
    <glyph glyph-name="Ccaron" unicode="&#x10c;" horiz-adv-x="480" 
d="M525 632l-81 -80q-43 41 -90 41q-57 0 -93 -54.5t-52.5 -136t-16.5 -164.5q0 -134 83 -134q29 0 53.5 13t61.5 40l56 -88q-92 -86 -200 -86q-98 0 -155.5 67.5t-57.5 196.5q0 122 36 228t108.5 170.5t177.5 64.5q103 0 170 -78zM488 938l54 -59l-137 -129h-89l-104 136
l58 52l100 -84z" />
    <glyph glyph-name="ccaron" unicode="&#x10d;" horiz-adv-x="399" 
d="M368 531.5q36 -16.5 64 -49.5l-72 -81q-19 17 -35.5 24.5t-35.5 7.5q-59 0 -86.5 -73.5t-27.5 -167.5q0 -50 15 -70.5t44 -20.5q19 0 36 7.5t44 23.5l52 -88q-70 -61 -158 -61q-87 0 -137 56.5t-50 156.5q0 95 31 175.5t90.5 128.5t141.5 48q48 0 84 -16.5zM420 807
l49 -60l-136 -134h-89l-98 134l55 60l96 -91z" />
    <glyph glyph-name="Dcaron" unicode="&#x10e;" horiz-adv-x="548" 
d="M468 639.5q69 -53.5 69 -189.5q0 -205 -83.5 -327.5t-261.5 -122.5h-183l97 693h176q117 0 186 -53.5zM244 580l-65 -466h38q60 0 96.5 52t52 129.5t15.5 158.5q0 69 -24 97.5t-71 28.5h-42zM446 938l54 -59l-137 -129h-89l-104 136l58 52l100 -84z" />
    <glyph glyph-name="dcaron" unicode="&#x10f;" horiz-adv-x="582" 
d="M516 742l-104 -742h-131l3 66q-27 -41 -58 -62t-73 -21q-64 0 -99 49t-35 140q0 93 25.5 179.5t76 141.5t120.5 55q61 0 93 -50l36 259zM214.5 395q-22.5 -43 -33.5 -105.5t-11 -117.5q0 -43 10.5 -60.5t29.5 -17.5q20 0 39 20t39 57l32 229q-10 19 -21.5 28.5t-28.5 9.5
q-33 0 -55.5 -43zM561 755l105 -14l-70 -211l-74 8z" />
    <glyph glyph-name="Dcroat" unicode="&#x110;" horiz-adv-x="556" 
d="M476 639.5q69 -53.5 69 -189.5q0 -205 -83.5 -327.5t-261.5 -122.5h-183l43 305h-46l15 96h44l41 292h176q117 0 186 -53.5zM321.5 166q36.5 52 52 129.5t15.5 158.5q0 69 -24 97.5t-71 28.5h-42l-25 -179h101l-15 -96h-99l-27 -191h38q60 0 96.5 52z" />
    <glyph glyph-name="dcroat" unicode="&#x111;" horiz-adv-x="502" 
d="M555 686l-14 -89h-45l-84 -597h-131l3 66q-27 -41 -58 -62t-73 -21q-64 0 -99 49t-35 140q0 93 25.5 179.5t76 141.5t120.5 55q61 0 93 -50l14 99h-97l3 89h106l10 71l146 -15l-8 -56h47zM320 400q-10 19 -21.5 28.5t-28.5 9.5q-33 0 -55.5 -43t-33.5 -105.5t-11 -117.5
q0 -43 10.5 -60.5t29.5 -17.5q20 0 39 20t39 57z" />
    <glyph glyph-name="Emacron" unicode="&#x112;" horiz-adv-x="426" 
d="M465 693l-34 -112h-186l-25 -174h166l-16 -110h-165l-26 -183h204l-17 -114h-357l97 693h359zM423 782h-256l16 106h256z" />
    <glyph glyph-name="emacron" unicode="&#x113;" horiz-adv-x="458" 
d="M412 509q44 -39 44 -100q0 -103 -80 -151.5t-209 -64.5v-14q0 -84 65 -84q27 0 52 11t59 35l52 -87q-84 -71 -188 -71q-87 0 -137 51.5t-50 150.5q0 98 30 180.5t91.5 132.5t150.5 50q76 0 120 -39zM279 325q33 32 33 79q0 42 -37 42q-38 0 -62.5 -45.5t-36.5 -114.5
q70 7 103 39zM429 656h-256l16 106h256z" />
    <glyph glyph-name="Ebreve" unicode="&#x114;" horiz-adv-x="426" 
d="M465 693l-34 -112h-186l-25 -174h166l-16 -110h-165l-26 -183h204l-17 -114h-357l97 693h359zM200 792q-32 40 -32 100q0 12 1 19l77 12q5 -66 56 -66q52 0 77 69l79 -19q-14 -69 -55 -112t-108 -43q-63 0 -95 40z" />
    <glyph glyph-name="ebreve" unicode="&#x115;" horiz-adv-x="458" 
d="M412 509q44 -39 44 -100q0 -103 -80 -151.5t-209 -64.5v-14q0 -84 65 -84q27 0 52 11t59 35l52 -87q-84 -71 -188 -71q-87 0 -137 51.5t-50 150.5q0 98 30 180.5t91.5 132.5t150.5 50q76 0 120 -39zM279 325q33 32 33 79q0 42 -37 42q-38 0 -62.5 -45.5t-36.5 -114.5
q70 7 103 39zM205 675.5q-33 41.5 -33 107.5q0 13 1 20l79 12q3 -76 55 -76q27 0 47 21t32 58l76 -18q-14 -75 -55 -120.5t-106 -45.5q-63 0 -96 41.5z" />
    <glyph glyph-name="Edotaccent" unicode="&#x116;" horiz-adv-x="426" 
d="M465 693l-34 -112h-186l-25 -174h166l-16 -110h-165l-26 -183h204l-17 -114h-357l97 693h359zM243.5 780.5q-20.5 20.5 -20.5 54.5q0 42 28 70t68 28q37 0 57 -20.5t20 -54.5q0 -43 -27.5 -70.5t-68.5 -27.5q-36 0 -56.5 20.5z" />
    <glyph glyph-name="edotaccent" unicode="&#x117;" horiz-adv-x="458" 
d="M412 509q44 -39 44 -100q0 -103 -80 -151.5t-209 -64.5v-14q0 -84 65 -84q27 0 52 11t59 35l52 -87q-84 -71 -188 -71q-87 0 -137 51.5t-50 150.5q0 98 30 180.5t91.5 132.5t150.5 50q76 0 120 -39zM279 325q33 32 33 79q0 42 -37 42q-38 0 -62.5 -45.5t-36.5 -114.5
q70 7 103 39zM244.5 654.5q-20.5 20.5 -20.5 54.5q0 42 28 70t68 28q37 0 57 -20.5t20 -54.5q0 -43 -27.5 -70.5t-68.5 -27.5q-36 0 -56.5 20.5z" />
    <glyph glyph-name="Eogonek" unicode="&#x118;" horiz-adv-x="426" 
d="M245 581l-25 -174h166l-16 -110h-165l-26 -183h204l-17 -114h-32q-109 -50 -109 -116q0 -33 38 -33q19 0 47 5l-22 -92q-24 -7 -58 -7q-50 0 -81 29t-31 78q0 82 87 136h-196l97 693h359l-34 -112h-186z" />
    <glyph glyph-name="eogonek" unicode="&#x119;" horiz-adv-x="458" 
d="M412 509q44 -39 44 -100q0 -103 -80 -151.5t-209 -64.5v-14q0 -84 65 -84q27 0 52 11t59 35l52 -87q-40 -34 -87 -53q-53 -26 -73 -52.5t-20 -53.5q0 -35 36 -35q27 0 52 7l-22 -94q-29 -8 -60 -8q-50 0 -82 27t-32 72q0 38 20 68.5t56 51.5q-77 7 -120 58t-43 142
q0 98 30 181t91.5 133t150.5 50q76 0 120 -39zM279 325q33 32 33 79q0 42 -37 42q-38 0 -62.5 -45.5t-36.5 -114.5q70 7 103 39z" />
    <glyph glyph-name="Ecaron" unicode="&#x11a;" horiz-adv-x="426" 
d="M465 693l-34 -112h-186l-25 -174h166l-16 -110h-165l-26 -183h204l-17 -114h-357l97 693h359zM422 938l54 -59l-137 -129h-89l-104 136l58 52l100 -84z" />
    <glyph glyph-name="ecaron" unicode="&#x11b;" horiz-adv-x="458" 
d="M412 509q44 -39 44 -100q0 -103 -80 -151.5t-209 -64.5v-14q0 -84 65 -84q27 0 52 11t59 35l52 -87q-84 -71 -188 -71q-87 0 -137 51.5t-50 150.5q0 98 30 180.5t91.5 132.5t150.5 50q76 0 120 -39zM279 325q33 32 33 79q0 42 -37 42q-38 0 -62.5 -45.5t-36.5 -114.5
q70 7 103 39zM427 807l49 -60l-136 -134h-89l-98 134l55 60l96 -91z" />
    <glyph glyph-name="Gcircumflex" unicode="&#x11c;" horiz-adv-x="539" 
d="M555 624l-84 -76q-25 25 -48.5 36.5t-54.5 11.5q-63 0 -104 -57.5t-59 -144t-18 -178.5q0 -61 18.5 -89t54.5 -28t76 24l23 163h-65l1 111h225l-48 -341q-51 -35 -109 -53.5t-112 -18.5q-110 0 -165 64.5t-55 190.5q0 123 39 231t116 174t185 66q112 0 184 -86zM259 757
l-54 60l137 128h89l104 -136l-58 -52l-100 85z" />
    <glyph glyph-name="gcircumflex" unicode="&#x11d;" horiz-adv-x="482" 
d="M476 499l-67 -477q-18 -126 -77 -185t-165 -59q-94 0 -172 55l54 97q58 -36 113 -36q40 0 66 23t34 84l9 65q-24 -32 -51 -49.5t-65 -17.5q-64 0 -99.5 50.5t-35.5 135.5q0 96 28.5 178t91 133.5t159.5 51.5q90 0 177 -49zM199.5 363q-29.5 -77 -29.5 -181
q0 -38 9.5 -54.5t29.5 -16.5q32 0 74 64l36 260q-17 5 -33 5q-57 0 -86.5 -77zM200 624l-50 60l137 135h89l103 -142l-62 -53l-96 91z" />
    <glyph glyph-name="Gbreve" unicode="&#x11e;" horiz-adv-x="539" 
d="M555 624l-84 -76q-25 25 -48.5 36.5t-54.5 11.5q-63 0 -104 -57.5t-59 -144t-18 -178.5q0 -61 18.5 -89t54.5 -28t76 24l23 163h-65l1 111h225l-48 -341q-51 -35 -109 -53.5t-112 -18.5q-110 0 -165 64.5t-55 190.5q0 123 39 231t116 174t185 66q112 0 184 -86zM274 792
q-32 40 -32 100q0 12 1 19l77 12q5 -66 56 -66q52 0 77 69l79 -19q-14 -69 -55 -112t-108 -43q-63 0 -95 40z" />
    <glyph glyph-name="gbreve" unicode="&#x11f;" horiz-adv-x="482" 
d="M476 499l-67 -477q-18 -126 -77 -185t-165 -59q-94 0 -172 55l54 97q58 -36 113 -36q40 0 66 23t34 84l9 65q-24 -32 -51 -49.5t-65 -17.5q-64 0 -99.5 50.5t-35.5 135.5q0 96 28.5 178t91 133.5t159.5 51.5q90 0 177 -49zM199.5 363q-29.5 -77 -29.5 -181
q0 -38 9.5 -54.5t29.5 -16.5q32 0 74 64l36 260q-17 5 -33 5q-57 0 -86.5 -77zM212 675.5q-33 41.5 -33 107.5q0 13 1 20l79 12q3 -76 55 -76q27 0 47 21t32 58l76 -18q-14 -75 -55 -120.5t-106 -45.5q-63 0 -96 41.5z" />
    <glyph glyph-name="Gdotaccent" unicode="&#x120;" horiz-adv-x="539" 
d="M555 624l-84 -76q-25 25 -48.5 36.5t-54.5 11.5q-63 0 -104 -57.5t-59 -144t-18 -178.5q0 -61 18.5 -89t54.5 -28t76 24l23 163h-65l1 111h225l-48 -341q-51 -35 -109 -53.5t-112 -18.5q-110 0 -165 64.5t-55 190.5q0 123 39 231t116 174t185 66q112 0 184 -86z
M317.5 780.5q-20.5 20.5 -20.5 54.5q0 42 28 70t68 28q37 0 57 -20.5t20 -54.5q0 -43 -27.5 -70.5t-68.5 -27.5q-36 0 -56.5 20.5z" />
    <glyph glyph-name="gdotaccent" unicode="&#x121;" horiz-adv-x="482" 
d="M476 499l-67 -477q-18 -126 -77 -185t-165 -59q-94 0 -172 55l54 97q58 -36 113 -36q40 0 66 23t34 84l9 65q-24 -32 -51 -49.5t-65 -17.5q-64 0 -99.5 50.5t-35.5 135.5q0 96 28.5 178t91 133.5t159.5 51.5q90 0 177 -49zM199.5 363q-29.5 -77 -29.5 -181
q0 -38 9.5 -54.5t29.5 -16.5q32 0 74 64l36 260q-17 5 -33 5q-57 0 -86.5 -77zM251.5 654.5q-20.5 20.5 -20.5 54.5q0 42 28 70t68 28q37 0 57 -20.5t20 -54.5q0 -43 -27.5 -70.5t-68.5 -27.5q-36 0 -56.5 20.5z" />
    <glyph glyph-name="Gcommaaccent" unicode="&#x122;" horiz-adv-x="539" 
d="M555 624l-84 -76q-25 25 -48.5 36.5t-54.5 11.5q-63 0 -104 -57.5t-59 -144t-18 -178.5q0 -61 18.5 -89t54.5 -28t76 24l23 163h-65l1 111h225l-48 -341q-51 -35 -109 -53.5t-112 -18.5q-110 0 -165 64.5t-55 190.5q0 123 39 231t116 174t185 66q112 0 184 -86z
M288.5 -87.5q18.5 -18.5 18.5 -46.5q0 -22 -7.5 -41t-28.5 -55l-52 -92h-71l39 118q-25 17 -25 50q0 37 22.5 61t55.5 24q30 0 48.5 -18.5z" />
    <glyph glyph-name="gcommaaccent" unicode="&#x123;" horiz-adv-x="482" 
d="M476 499l-67 -477q-18 -126 -77 -185t-165 -59q-94 0 -172 55l54 97q58 -36 113 -36q40 0 66 23t34 84l9 65q-24 -32 -51 -49.5t-65 -17.5q-64 0 -99.5 50.5t-35.5 135.5q0 96 28.5 178t91 133.5t159.5 51.5q90 0 177 -49zM199.5 363q-29.5 -77 -29.5 -181
q0 -38 9.5 -54.5t29.5 -16.5q32 0 74 64l36 260q-17 5 -33 5q-57 0 -86.5 -77zM253.5 604.5q-18.5 18.5 -18.5 46.5q0 22 7.5 41t28.5 55l52 92h71l-39 -118q25 -17 25 -50q0 -37 -22.5 -61t-55.5 -24q-30 0 -48.5 18.5z" />
    <glyph glyph-name="Hcircumflex" unicode="&#x124;" horiz-adv-x="542" 
d="M163 0h-154l97 693h155l-39 -271h141l38 271h154l-97 -693h-154l42 299h-141zM230 757l-54 60l137 128h89l104 -136l-58 -52l-100 85z" />
    <glyph glyph-name="hcircumflex" unicode="&#x125;" horiz-adv-x="469" 
d="M423 515.5q27 -32.5 27 -88.5q0 -17 -3 -37l-55 -390h-148l51 366q1 6 1 17q0 31 -20 31q-17 0 -36 -27t-44 -81l-43 -306h-148l104 742l150 15l-42 -303q56 94 132 94q47 0 74 -32.5zM200 806l-54 60l137 128h89l104 -136l-58 -52l-100 85z" />
    <glyph glyph-name="Hbar" unicode="&#x126;" horiz-adv-x="552" 
d="M589 590l-13 -89h-42l-70 -501h-154l42 299h-141l-42 -299h-154l70 501h-42l12 89h43l14 103h155l-15 -103h141l14 103h154l-14 -103h42zM369 422l11 79h-141l-11 -79h141z" />
    <glyph glyph-name="hbar" unicode="&#x127;" horiz-adv-x="477" 
d="M431 515.5q27 -32.5 27 -88.5q0 -17 -3 -37l-55 -390h-148l51 366q1 6 1 17q0 31 -20 31q-17 0 -36 -27t-44 -81l-43 -306h-148l84 597h-44l13 89h43l8 56l150 15l-10 -71h109l-24 -89h-97l-20 -143q56 94 132 94q47 0 74 -32.5z" />
    <glyph glyph-name="Itilde" unicode="&#x128;" horiz-adv-x="247" 
d="M261 693l-98 -693h-154l97 693h155zM218.5 769.5q-12.5 6.5 -29.5 19.5q-9 7 -18.5 13t-17.5 6q-13 0 -23.5 -10.5t-24.5 -33.5l-65 39q24 50 56 81.5t65 31.5q19 0 33 -7.5t29 -20.5q11 -9 18.5 -13.5t15.5 -4.5q12 0 22.5 10t23.5 33l65 -37q-23 -51 -55 -82t-66 -31
q-16 0 -28.5 6.5z" />
    <glyph glyph-name="itilde" unicode="&#x129;" horiz-adv-x="234" 
d="M228 531l-74 -531h-148l74 531h148zM193.5 643.5q-12.5 6.5 -29.5 19.5q-9 7 -18.5 13t-17.5 6q-13 0 -23.5 -10.5t-24.5 -33.5l-65 39q24 50 56 81.5t65 31.5q19 0 33 -7.5t29 -20.5q11 -9 18.5 -13.5t15.5 -4.5q12 0 22.5 10t23.5 33l65 -37q-23 -51 -55 -82t-66 -31
q-16 0 -28.5 6.5z" />
    <glyph glyph-name="Imacron" unicode="&#x12a;" horiz-adv-x="247" 
d="M261 693l-98 -693h-154l97 693h155zM320 782h-256l16 106h256z" />
    <glyph glyph-name="imacron" unicode="&#x12b;" horiz-adv-x="234" 
d="M228 531l-74 -531h-148l74 531h148zM298 656h-256l16 106h256z" />
    <glyph glyph-name="Ibreve" unicode="&#x12c;" horiz-adv-x="247" 
d="M261 693l-98 -693h-154l97 693h155zM97 792q-32 40 -32 100q0 12 1 19l77 12q5 -66 56 -66q52 0 77 69l79 -19q-14 -69 -55 -112t-108 -43q-63 0 -95 40z" />
    <glyph glyph-name="ibreve" unicode="&#x12d;" horiz-adv-x="234" 
d="M228 531l-74 -531h-148l74 531h148zM74 675.5q-33 41.5 -33 107.5q0 13 1 20l79 12q3 -76 55 -76q27 0 47 21t32 58l76 -18q-14 -75 -55 -120.5t-106 -45.5q-63 0 -96 41.5z" />
    <glyph glyph-name="Iogonek" unicode="&#x12e;" horiz-adv-x="247" 
d="M261 693l-98 -693h-37q-109 -50 -109 -116q0 -33 38 -33q19 0 47 5l-22 -92q-24 -7 -58 -7q-50 0 -81 29t-31 78q0 44 24.5 79.5t75.5 64.5l96 685h155z" />
    <glyph glyph-name="iogonek" unicode="&#x12f;" horiz-adv-x="234" 
d="M246 786.5q20 -20.5 20 -54.5q0 -43 -27.5 -70.5t-68.5 -27.5q-36 0 -56.5 20.5t-20.5 54.5q0 42 28 70t68 28q37 0 57 -20.5zM80 531h148l-74 -531h-36q-109 -50 -109 -116q0 -33 38 -33q19 0 47 5l-22 -92q-24 -7 -58 -7q-50 0 -81 29t-31 78q0 45 25.5 81t80.5 66z
" />
    <glyph glyph-name="Idotaccent" unicode="&#x130;" horiz-adv-x="247" 
d="M261 693l-98 -693h-154l97 693h155zM140.5 780.5q-20.5 20.5 -20.5 54.5q0 42 28 70t68 28q37 0 57 -20.5t20 -54.5q0 -43 -27.5 -70.5t-68.5 -27.5q-36 0 -56.5 20.5z" />
    <glyph glyph-name="dotlessi" unicode="&#x131;" horiz-adv-x="234" 
d="M228 531l-74 -531h-148l74 531h148z" />
    <glyph glyph-name="IJ" unicode="&#x132;" horiz-adv-x="517" 
d="M261 693l-98 -693h-154l97 693h155zM449 98q-12 -83 -45 -134.5t-77.5 -79t-109.5 -50.5l-27 108q54 26 75.5 62t30.5 106l82 583h154z" />
    <glyph glyph-name="ij" unicode="&#x133;" horiz-adv-x="469" 
d="M228 531l-74 -531h-148l74 531h148zM113.5 654.5q-20.5 20.5 -20.5 54.5q0 42 28 70t68 28q37 0 57 -20.5t20 -54.5q0 -43 -27.5 -70.5t-68.5 -27.5q-36 0 -56.5 20.5zM137 -111q35 15 56 32.5t34.5 48t20.5 80.5l67 481h149l-68 -479q-12 -86 -43.5 -138t-73.5 -80
t-108 -55zM349.5 654.5q-20.5 20.5 -20.5 54.5q0 42 28 70t68 28q37 0 57 -20.5t20 -54.5q0 -43 -27.5 -70.5t-68.5 -27.5q-36 0 -56.5 20.5z" />
    <glyph glyph-name="Jcircumflex" unicode="&#x134;" horiz-adv-x="270" 
d="M202 98q-12 -83 -45 -134.5t-77.5 -79t-109.5 -50.5l-27 108q54 26 75.5 62t30.5 106l82 583h154zM107 757l-54 60l137 128h89l104 -136l-58 -52l-100 85z" />
    <glyph glyph-name="jcircumflex" unicode="&#x135;" horiz-adv-x="235" 
d="M-97 -111q35 15 56 32.5t34.5 48t20.5 80.5l67 481h149l-68 -479q-12 -86 -43.5 -138t-73.5 -80t-108 -55zM64 624l-50 60l137 135h89l103 -142l-62 -53l-96 91z" />
    <glyph glyph-name="Kcommaaccent" unicode="&#x136;" horiz-adv-x="538" 
d="M9 0l97 693h155l-98 -693h-154zM338 0l-118 370l211 323h156l-211 -321l129 -372h-167zM272.5 -87.5q18.5 -18.5 18.5 -46.5q0 -22 -7.5 -41t-28.5 -55l-52 -92h-71l39 118q-25 17 -25 50q0 37 22.5 61t55.5 24q30 0 48.5 -18.5z" />
    <glyph glyph-name="kcommaaccent" unicode="&#x137;" horiz-adv-x="483" 
d="M219 463q32 43 68 63.5t80 20.5q55 0 88 -33t33 -86q0 -60 -30.5 -104.5t-94.5 -82.5l71 -241h-154l-65 256q69 28 96.5 63t27.5 81q0 20 -9 30.5t-24 10.5q-49 0 -106 -108l-46 -333h-149l104 742l151 16zM249.5 -87.5q18.5 -18.5 18.5 -46.5q0 -22 -7.5 -41t-28.5 -55
l-52 -92h-71l39 118q-25 17 -25 50q0 37 22.5 61t55.5 24q30 0 48.5 -18.5z" />
    <glyph glyph-name="kgreenlandic" unicode="&#x138;" horiz-adv-x="461" 
d="M229 531l-74 -531h-149l74 531h149zM500 531l-154 -249l88 -282h-157l-80 280l151 251h152z" />
    <glyph glyph-name="Lacute" unicode="&#x139;" horiz-adv-x="417" 
d="M261 693l-80 -569h215l-35 -124h-352l97 693h155zM282 939l51 -108l-211 -83l-36 70z" />
    <glyph glyph-name="lacute" unicode="&#x13a;" horiz-adv-x="248" 
d="M168 133q-1 -4 -1 -10q0 -19 17 -19q9 0 18 3l12 -104q-38 -19 -87 -19q-53 0 -81.5 29t-28.5 81q0 20 2 31l85 617l149 16zM276 988l51 -108l-211 -83l-36 70z" />
    <glyph glyph-name="Lcommaaccent" unicode="&#x13b;" horiz-adv-x="417" 
d="M261 693l-80 -569h215l-35 -124h-352l97 693h155zM226.5 -87.5q18.5 -18.5 18.5 -46.5q0 -22 -7.5 -41t-28.5 -55l-52 -92h-71l39 118q-25 17 -25 50q0 37 22.5 61t55.5 24q30 0 48.5 -18.5z" />
    <glyph glyph-name="lcommaaccent" unicode="&#x13c;" horiz-adv-x="248" 
d="M168 133q-1 -4 -1 -10q0 -19 17 -19q9 0 18 3l12 -104q-38 -19 -87 -19q-53 0 -81.5 29t-28.5 81q0 20 2 31l85 617l149 16zM151.5 -87.5q18.5 -18.5 18.5 -46.5q0 -22 -7.5 -41t-28.5 -55l-52 -92h-71l39 118q-25 17 -25 50q0 37 22.5 61t55.5 24q30 0 48.5 -18.5z" />
    <glyph glyph-name="Lcaron" unicode="&#x13d;" horiz-adv-x="417" 
d="M261 693l-80 -569h215l-35 -124h-352l97 693h155zM305 706l105 -14l-70 -211l-74 8z" />
    <glyph glyph-name="lcaron" unicode="&#x13e;" horiz-adv-x="309" 
d="M168 133q-1 -4 -1 -10q0 -19 17 -19q9 0 18 3l12 -104q-38 -19 -87 -19q-53 0 -81.5 29t-28.5 81q0 20 2 31l85 617l149 16zM294 755l105 -14l-70 -211l-74 8z" />
    <glyph glyph-name="Ldot" unicode="&#x13f;" horiz-adv-x="417" 
d="M261 693l-80 -569h215l-35 -124h-352l97 693h155zM280.5 330.5q-20.5 20.5 -20.5 54.5q0 42 28 70t68 28q37 0 57 -20.5t20 -54.5q0 -43 -27.5 -70.5t-68.5 -27.5q-36 0 -56.5 20.5z" />
    <glyph glyph-name="ldot" unicode="&#x140;" horiz-adv-x="387" 
d="M168 133q-1 -4 -1 -10q0 -19 17 -19q9 0 18 3l12 -104q-38 -19 -87 -19q-53 0 -81.5 29t-28.5 81q0 20 2 31l85 617l149 16zM253.5 309.5q-20.5 20.5 -20.5 54.5q0 42 28 70t68 28q37 0 57 -20.5t20 -54.5q0 -43 -27.5 -70.5t-68.5 -27.5q-36 0 -56.5 20.5z" />
    <glyph glyph-name="Lslash" unicode="&#x141;" horiz-adv-x="454" 
d="M217 124h215l-35 -124h-352l32 227l-33 -23l-40 75l88 58l50 356h155l-34 -245l101 66l40 -75l-157 -102z" />
    <glyph glyph-name="lslash" unicode="&#x142;" horiz-adv-x="292" 
d="M230 107l12 -104q-38 -19 -87 -19q-53 0 -81.5 29t-28.5 81q0 20 2 31l20 147l-36 -23l-28 84l80 50l49 359l149 16l-37 -274l52 33l25 -86l-92 -58l-33 -240q-1 -4 -1 -10q0 -19 17 -19q9 0 18 3z" />
    <glyph glyph-name="Nacute" unicode="&#x143;" horiz-adv-x="539" 
d="M455 0h-185l-78 563v-55q0 -136 -15 -254l-33 -254h-135l97 693h186l77 -563l-1 73q0 103 13 207l37 283h134zM429 939l51 -108l-211 -83l-36 70z" />
    <glyph glyph-name="nacute" unicode="&#x144;" horiz-adv-x="470" 
d="M423.5 515.5q27.5 -32.5 27.5 -88.5q0 -17 -3 -37l-55 -390h-148l51 366q1 6 1 17q0 31 -20 31q-17 0 -36 -27t-44 -81l-43 -306h-148l74 531h129l-3 -84q30 47 65 74t78 27q47 0 74.5 -32.5zM370 826l51 -108l-211 -94l-38 71z" />
    <glyph glyph-name="Ncommaaccent" unicode="&#x145;" horiz-adv-x="539" 
d="M455 0h-185l-78 563v-55q0 -136 -15 -254l-33 -254h-135l97 693h186l77 -563l-1 73q0 103 13 207l37 283h134zM273.5 -87.5q18.5 -18.5 18.5 -46.5q0 -22 -7.5 -41t-28.5 -55l-52 -92h-71l39 118q-25 17 -25 50q0 37 22.5 61t55.5 24q30 0 48.5 -18.5z" />
    <glyph glyph-name="ncommaaccent" unicode="&#x146;" horiz-adv-x="470" 
d="M423.5 515.5q27.5 -32.5 27.5 -88.5q0 -17 -3 -37l-55 -390h-148l51 366q1 6 1 17q0 31 -20 31q-17 0 -36 -27t-44 -81l-43 -306h-148l74 531h129l-3 -84q30 47 65 74t78 27q47 0 74.5 -32.5zM232.5 -87.5q18.5 -18.5 18.5 -46.5q0 -22 -7.5 -41t-28.5 -55l-52 -92h-71
l39 118q-25 17 -25 50q0 37 22.5 61t55.5 24q30 0 48.5 -18.5z" />
    <glyph glyph-name="Ncaron" unicode="&#x147;" horiz-adv-x="539" 
d="M455 0h-185l-78 563v-55q0 -136 -15 -254l-33 -254h-135l97 693h186l77 -563l-1 73q0 103 13 207l37 283h134zM466 938l54 -59l-137 -129h-89l-104 136l58 52l100 -84z" />
    <glyph glyph-name="ncaron" unicode="&#x148;" horiz-adv-x="470" 
d="M423.5 515.5q27.5 -32.5 27.5 -88.5q0 -17 -3 -37l-55 -390h-148l51 366q1 6 1 17q0 31 -20 31q-17 0 -36 -27t-44 -81l-43 -306h-148l74 531h129l-3 -84q30 47 65 74t78 27q47 0 74.5 -32.5zM417 807l49 -60l-136 -134h-89l-98 134l55 60l96 -91z" />
    <glyph glyph-name="napostrophe" unicode="&#x149;" horiz-adv-x="579" 
d="M200 743q16 -16 16 -41q0 -19 -6.5 -35.5t-24.5 -50.5l-46 -81h-62l35 105q-22 16 -22 45q0 32 19.5 53t48.5 21q26 0 42 -16zM533.5 515.5q27.5 -32.5 27.5 -88.5q0 -17 -3 -37l-55 -390h-148l51 366q1 6 1 17q0 31 -20 31q-17 0 -36 -27t-44 -81l-43 -306h-148l74 531
h129l-3 -84q30 47 65 74t78 27q47 0 74.5 -32.5z" />
    <glyph glyph-name="Eng" unicode="&#x14a;" horiz-adv-x="539" 
d="M552 693l-97 -693l-6 -46q-13 -85 -66 -130t-132 -45q-74 0 -121 43l62 89q14 -9 25 -13t26 -4q21 0 34.5 14t17.5 40l6 52h-31l-78 563v-55q0 -136 -15 -254l-33 -254h-135l97 693h186l77 -563l-1 73q0 103 13 207l37 283h134z" />
    <glyph glyph-name="eng" unicode="&#x14b;" horiz-adv-x="470" 
d="M423.5 515.5q27.5 -32.5 27.5 -88.5q0 -17 -3 -37l-55 -390l-7 -50q-12 -85 -64 -128t-131 -43q-70 0 -118 44l61 85q17 -10 27.5 -14t26.5 -4q21 0 33.5 13t15.5 37l8 60l51 366q1 6 1 17q0 31 -20 31q-17 0 -36 -27t-44 -81l-43 -306h-148l74 531h129l-3 -84
q30 47 65 74t78 27q47 0 74.5 -32.5z" />
    <glyph glyph-name="Omacron" unicode="&#x14c;" horiz-adv-x="578" 
d="M512.5 644.5q55.5 -65.5 55.5 -193.5q0 -122 -34 -228.5t-106 -173t-178 -66.5t-161.5 65.5t-55.5 193.5q0 121 34 227.5t105.5 173.5t178.5 67q106 0 161.5 -65.5zM254 532.5q-34 -62.5 -49.5 -151t-15.5 -167.5q0 -61 17.5 -88.5t52.5 -27.5q54 0 88 61.5t49 149
t15 168.5q0 62 -17 90t-53 28q-53 0 -87 -62.5zM486 782h-256l16 106h256z" />
    <glyph glyph-name="omacron" unicode="&#x14d;" horiz-adv-x="489" 
d="M69.5 36.5q-48.5 53.5 -48.5 154.5q0 92 29 173.5t88 132.5t145 51q88 0 136.5 -53.5t48.5 -155.5q0 -92 -29 -173t-88 -132t-145 -51q-88 0 -136.5 53.5zM275 138q23 44 33.5 106t10.5 117q0 40 -11.5 57.5t-34.5 17.5q-36 0 -59 -43.5t-33 -105t-10 -117.5
q0 -40 11 -58t34 -18q36 0 59 44zM426 656h-256l16 106h256z" />
    <glyph glyph-name="Obreve" unicode="&#x14e;" horiz-adv-x="578" 
d="M512.5 644.5q55.5 -65.5 55.5 -193.5q0 -122 -34 -228.5t-106 -173t-178 -66.5t-161.5 65.5t-55.5 193.5q0 121 34 227.5t105.5 173.5t178.5 67q106 0 161.5 -65.5zM254 532.5q-34 -62.5 -49.5 -151t-15.5 -167.5q0 -61 17.5 -88.5t52.5 -27.5q54 0 88 61.5t49 149
t15 168.5q0 62 -17 90t-53 28q-53 0 -87 -62.5zM263 792q-32 40 -32 100q0 12 1 19l77 12q5 -66 56 -66q52 0 77 69l79 -19q-14 -69 -55 -112t-108 -43q-63 0 -95 40z" />
    <glyph glyph-name="obreve" unicode="&#x14f;" horiz-adv-x="489" 
d="M69.5 36.5q-48.5 53.5 -48.5 154.5q0 92 29 173.5t88 132.5t145 51q88 0 136.5 -53.5t48.5 -155.5q0 -92 -29 -173t-88 -132t-145 -51q-88 0 -136.5 53.5zM275 138q23 44 33.5 106t10.5 117q0 40 -11.5 57.5t-34.5 17.5q-36 0 -59 -43.5t-33 -105t-10 -117.5
q0 -40 11 -58t34 -18q36 0 59 44zM202 675.5q-33 41.5 -33 107.5q0 13 1 20l79 12q3 -76 55 -76q27 0 47 21t32 58l76 -18q-14 -75 -55 -120.5t-106 -45.5q-63 0 -96 41.5z" />
    <glyph glyph-name="Ohungarumlaut" unicode="&#x150;" horiz-adv-x="578" 
d="M512.5 644.5q55.5 -65.5 55.5 -193.5q0 -122 -34 -228.5t-106 -173t-178 -66.5t-161.5 65.5t-55.5 193.5q0 121 34 227.5t105.5 173.5t178.5 67q106 0 161.5 -65.5zM254 532.5q-34 -62.5 -49.5 -151t-15.5 -167.5q0 -61 17.5 -88.5t52.5 -27.5q54 0 88 61.5t49 149
t15 168.5q0 62 -17 90t-53 28q-53 0 -87 -62.5zM342 983l88 -49l-122 -177l-70 32zM490 983l87 -52l-129 -179l-68 37z" />
    <glyph glyph-name="ohungarumlaut" unicode="&#x151;" horiz-adv-x="489" 
d="M69.5 36.5q-48.5 53.5 -48.5 154.5q0 92 29 173.5t88 132.5t145 51q88 0 136.5 -53.5t48.5 -155.5q0 -92 -29 -173t-88 -132t-145 -51q-88 0 -136.5 53.5zM275 138q23 44 33.5 106t10.5 117q0 40 -11.5 57.5t-34.5 17.5q-36 0 -59 -43.5t-33 -105t-10 -117.5
q0 -40 11 -58t34 -18q36 0 59 44zM283 857l88 -49l-122 -177l-70 32zM431 857l87 -52l-129 -179l-68 37z" />
    <glyph glyph-name="OE" unicode="&#x152;" horiz-adv-x="739" 
d="M746 581h-225q27 -54 27 -130q0 -29 -1 -44h153l-16 -110h-151q-25 -111 -78 -183h243l-18 -114h-357q-40 -17 -87 -17q-97 0 -150 66t-53 193q0 120 33.5 227t102 174t169.5 67q51 0 87 -17h354zM331 160q32 62 46 149.5t14 167.5q0 62 -15 90t-46 28q-48 0 -79.5 -62.5
t-46.5 -151.5t-15 -167q0 -116 61 -116q49 0 81 62z" />
    <glyph glyph-name="oe" unicode="&#x153;" horiz-adv-x="743" 
d="M697.5 509q43.5 -39 43.5 -100q0 -103 -80.5 -151.5t-208.5 -64.5v-14q0 -84 66 -84q27 0 52.5 11t57.5 35l52 -87q-84 -71 -185 -71q-94 0 -139 75q-62 -75 -158 -75q-81 0 -129 53.5t-48 154.5q0 92 28.5 173.5t87 132.5t143.5 51q97 0 139 -77q61 77 162 77
q73 0 116.5 -39zM563.5 324.5q33.5 32.5 33.5 79.5q0 42 -37 42q-39 0 -64 -44.5t-36 -116.5q70 7 103.5 39.5zM275 138q23 44 33.5 106t10.5 117q0 40 -11.5 57.5t-34.5 17.5q-36 0 -59 -43.5t-33 -105t-10 -117.5q0 -40 11 -58t34 -18q36 0 59 44z" />
    <glyph glyph-name="Racute" unicode="&#x154;" horiz-adv-x="510" 
d="M383 299l98 -299h-159l-78 267h-43l-38 -267h-154l97 693h178q115 0 171.5 -46.5t56.5 -132.5q0 -145 -129 -215zM216 376h32q57 0 82.5 38.5t25.5 94.5q0 39 -18.5 56t-58.5 17h-34zM402 939l51 -108l-211 -83l-36 70z" />
    <glyph glyph-name="racute" unicode="&#x155;" horiz-adv-x="332" 
d="M375 538l-46 -145q-22 6 -36 6q-36 0 -60.5 -39t-44.5 -111l-34 -249h-148l74 531h127l-3 -89q24 50 55 77t73 27q21 0 43 -8zM321 826l51 -108l-211 -94l-38 71z" />
    <glyph glyph-name="Rcommaaccent" unicode="&#x156;" horiz-adv-x="510" 
d="M383 299l98 -299h-159l-78 267h-43l-38 -267h-154l97 693h178q115 0 171.5 -46.5t56.5 -132.5q0 -145 -129 -215zM216 376h32q57 0 82.5 38.5t25.5 94.5q0 39 -18.5 56t-58.5 17h-34zM279.5 -87.5q18.5 -18.5 18.5 -46.5q0 -22 -7.5 -41t-28.5 -55l-52 -92h-71l39 118
q-25 17 -25 50q0 37 22.5 61t55.5 24q30 0 48.5 -18.5z" />
    <glyph glyph-name="rcommaaccent" unicode="&#x157;" horiz-adv-x="332" 
d="M375 538l-46 -145q-22 6 -36 6q-36 0 -60.5 -39t-44.5 -111l-34 -249h-148l74 531h127l-3 -89q24 50 55 77t73 27q21 0 43 -8zM112.5 -87.5q18.5 -18.5 18.5 -46.5q0 -22 -7.5 -41t-28.5 -55l-52 -92h-71l39 118q-25 17 -25 50q0 37 22.5 61t55.5 24q30 0 48.5 -18.5z
" />
    <glyph glyph-name="Rcaron" unicode="&#x158;" horiz-adv-x="510" 
d="M383 299l98 -299h-159l-78 267h-43l-38 -267h-154l97 693h178q115 0 171.5 -46.5t56.5 -132.5q0 -145 -129 -215zM216 376h32q57 0 82.5 38.5t25.5 94.5q0 39 -18.5 56t-58.5 17h-34zM439 938l54 -59l-137 -129h-89l-104 136l58 52l100 -84z" />
    <glyph glyph-name="rcaron" unicode="&#x159;" horiz-adv-x="332" 
d="M375 538l-46 -145q-22 6 -36 6q-36 0 -60.5 -39t-44.5 -111l-34 -249h-148l74 531h127l-3 -89q24 50 55 77t73 27q21 0 43 -8zM368 807l49 -60l-136 -134h-89l-98 134l55 60l96 -91z" />
    <glyph glyph-name="Sacute" unicode="&#x15a;" horiz-adv-x="473" 
d="M413.5 687q47.5 -23 84.5 -67l-79 -79q-26 27 -53 40.5t-59 13.5q-41 0 -64.5 -23.5t-23.5 -59.5q0 -30 19 -50t77 -48q68 -34 100.5 -76t32.5 -111t-33.5 -124.5t-93 -87.5t-134.5 -32q-133 0 -214 99l85 80q32 -32 61.5 -47.5t68.5 -15.5q47 0 75 28.5t28 74.5
q0 37 -21 59t-79 51q-69 34 -98.5 73t-29.5 103q0 63 31 113.5t85.5 79.5t122.5 29q64 0 111.5 -23zM399 939l51 -108l-211 -83l-36 70z" />
    <glyph glyph-name="sacute" unicode="&#x15b;" horiz-adv-x="402" 
d="M328 530q43 -18 74 -49l-64 -80q-49 39 -95 39q-26 0 -42 -14t-16 -37q0 -20 17 -35t64 -36q53 -24 79 -57.5t26 -87.5q0 -57 -28.5 -100t-77.5 -66.5t-108 -23.5q-112 0 -186 81l78 77q52 -50 105 -50q32 0 49.5 18t17.5 44q0 25 -16.5 41.5t-60.5 35.5q-55 25 -80 56.5
t-25 83.5q0 50 25.5 90.5t70 64t101.5 23.5q49 0 92 -18zM331 826l51 -108l-211 -94l-38 71z" />
    <glyph glyph-name="Scircumflex" unicode="&#x15c;" horiz-adv-x="473" 
d="M413.5 687q47.5 -23 84.5 -67l-79 -79q-26 27 -53 40.5t-59 13.5q-41 0 -64.5 -23.5t-23.5 -59.5q0 -30 19 -50t77 -48q68 -34 100.5 -76t32.5 -111t-33.5 -124.5t-93 -87.5t-134.5 -32q-133 0 -214 99l85 80q32 -32 61.5 -47.5t68.5 -15.5q47 0 75 28.5t28 74.5
q0 37 -21 59t-79 51q-69 34 -98.5 73t-29.5 103q0 63 31 113.5t85.5 79.5t122.5 29q64 0 111.5 -23zM199 757l-54 60l137 128h89l104 -136l-58 -52l-100 85z" />
    <glyph glyph-name="scircumflex" unicode="&#x15d;" horiz-adv-x="402" 
d="M328 530q43 -18 74 -49l-64 -80q-49 39 -95 39q-26 0 -42 -14t-16 -37q0 -20 17 -35t64 -36q53 -24 79 -57.5t26 -87.5q0 -57 -28.5 -100t-77.5 -66.5t-108 -23.5q-112 0 -186 81l78 77q52 -50 105 -50q32 0 49.5 18t17.5 44q0 25 -16.5 41.5t-60.5 35.5q-55 25 -80 56.5
t-25 83.5q0 50 25.5 90.5t70 64t101.5 23.5q49 0 92 -18zM144 624l-50 60l137 135h89l103 -142l-62 -53l-96 91z" />
    <glyph glyph-name="Scedilla" unicode="&#x15e;" horiz-adv-x="473" 
d="M415.5 338q32.5 -42 32.5 -111q0 -61 -26.5 -112t-74 -84.5t-109.5 -43.5l-6 -40q37 -5 56 -26t19 -56q0 -30 -14 -58t-46.5 -47t-83.5 -19q-57 0 -93 31l42 64q26 -13 49 -13q19 0 30.5 9t11.5 26t-16 24t-55 7l23 96q-111 10 -182 97l85 80q32 -32 61.5 -47.5
t68.5 -15.5q47 0 75 28.5t28 74.5q0 37 -21 59t-79 51q-69 34 -98.5 73t-29.5 103q0 63 31 113.5t85.5 79.5t122.5 29q64 0 111.5 -23t84.5 -67l-79 -79q-26 27 -53 40.5t-59 13.5q-41 0 -64.5 -23.5t-23.5 -59.5q0 -30 19 -50t77 -48q68 -34 100.5 -76z" />
    <glyph glyph-name="scedilla" unicode="&#x15f;" horiz-adv-x="402" 
d="M345 260.5q26 -33.5 26 -87.5q0 -74 -47 -124t-121 -62l-6 -40q37 -5 56 -26t19 -56q0 -30 -14 -58t-46.5 -47t-83.5 -19q-57 0 -93 31l42 64q26 -13 49 -13q19 0 30.5 9t11.5 26t-16 24t-55 7l23 96q-89 12 -149 79l78 77q52 -50 105 -50q32 0 49.5 18t17.5 44
q0 25 -16.5 41.5t-60.5 35.5q-55 25 -80 56.5t-25 83.5q0 50 25.5 90.5t70 64t101.5 23.5q49 0 92 -18t74 -49l-64 -80q-49 39 -95 39q-26 0 -42 -14t-16 -37q0 -20 17 -35t64 -36q53 -24 79 -57.5z" />
    <glyph glyph-name="Scaron" unicode="&#x160;" horiz-adv-x="473" 
d="M413.5 687q47.5 -23 84.5 -67l-79 -79q-26 27 -53 40.5t-59 13.5q-41 0 -64.5 -23.5t-23.5 -59.5q0 -30 19 -50t77 -48q68 -34 100.5 -76t32.5 -111t-33.5 -124.5t-93 -87.5t-134.5 -32q-133 0 -214 99l85 80q32 -32 61.5 -47.5t68.5 -15.5q47 0 75 28.5t28 74.5
q0 37 -21 59t-79 51q-69 34 -98.5 73t-29.5 103q0 63 31 113.5t85.5 79.5t122.5 29q64 0 111.5 -23zM436 938l54 -59l-137 -129h-89l-104 136l58 52l100 -84z" />
    <glyph glyph-name="scaron" unicode="&#x161;" horiz-adv-x="402" 
d="M328 530q43 -18 74 -49l-64 -80q-49 39 -95 39q-26 0 -42 -14t-16 -37q0 -20 17 -35t64 -36q53 -24 79 -57.5t26 -87.5q0 -57 -28.5 -100t-77.5 -66.5t-108 -23.5q-112 0 -186 81l78 77q52 -50 105 -50q32 0 49.5 18t17.5 44q0 25 -16.5 41.5t-60.5 35.5q-55 25 -80 56.5
t-25 83.5q0 50 25.5 90.5t70 64t101.5 23.5q49 0 92 -18zM378 807l49 -60l-136 -134h-89l-98 134l55 60l96 -91z" />
    <glyph glyph-name="uni0162" unicode="&#x162;" horiz-adv-x="445" 
d="M507 693l-33 -121h-131l-81 -572h1l-6 -49q35 -5 54 -27.5t19 -57.5q0 -48 -34.5 -86.5t-108.5 -38.5q-58 0 -94 31l42 68q25 -17 49 -17q19 0 30.5 9.5t11.5 27.5q0 16 -16.5 22.5t-54.5 6.5l27 111h-74l81 572h-142l17 121h443z" />
    <glyph glyph-name="uni0163" unicode="&#x163;" horiz-adv-x="322" 
d="M190 152q-1 -4 -1 -12q0 -37 31 -37q18 0 44 13l35 -94q-42 -31 -97 -37l-5 -38q37 -5 56 -26t19 -56q0 -30 -14 -58t-46.5 -47t-83.5 -19q-57 0 -93 31l42 64q26 -13 49 -13q19 0 30.5 9t11.5 26t-16 24t-55 7l24 102q-39 13 -60 46.5t-21 82.5q0 22 2 34l38 271h-57
l15 106h63l30 119l131 14l-19 -133h96l-32 -106h-79z" />
    <glyph glyph-name="Tcaron" unicode="&#x164;" horiz-adv-x="445" 
d="M507 693l-33 -121h-131l-81 -572h-154l81 572h-142l17 121h443zM419 938l54 -59l-137 -129h-89l-104 136l58 52l100 -84z" />
    <glyph glyph-name="tcaron" unicode="&#x165;" horiz-adv-x="322" 
d="M313 795l105 -14l-70 -211l-74 8zM243 531h96l-32 -106h-79l-38 -273q-1 -4 -1 -12q0 -37 31 -37q18 0 44 13l35 -94q-28 -20 -60.5 -29.5t-65.5 -9.5q-64 0 -98.5 36t-34.5 100q0 23 2 35l38 271h-57l15 106h63l30 119l131 14z" />
    <glyph glyph-name="Tbar" unicode="&#x166;" horiz-adv-x="445" 
d="M474 572h-131l-26 -182h91l-13 -89h-90l-43 -301h-154l43 301h-91l12 89h91l26 182h-142l17 121h443z" />
    <glyph glyph-name="tbar" unicode="&#x167;" horiz-adv-x="322" 
d="M228 425l-9 -65h83l-32 -100h-65l-15 -108q-1 -4 -1 -12q0 -37 31 -37q18 0 44 13l35 -94q-28 -20 -60.5 -29.5t-65.5 -9.5q-64 0 -98.5 36t-34.5 100q0 23 2 35l15 106h-49l15 100h48l9 65h-57l15 106h63l30 119l131 14l-19 -133h96l-32 -106h-79z" />
    <glyph glyph-name="Utilde" unicode="&#x168;" horiz-adv-x="528" 
d="M481 195q-13 -92 -79 -151.5t-173 -59.5q-100 0 -152 51.5t-52 131.5q0 23 2 35l70 491h154l-71 -508q-2 -14 -2 -21q0 -29 15 -46t46 -17q38 0 59.5 24.5t27.5 62.5l70 505h155zM358.5 769.5q-12.5 6.5 -29.5 19.5q-9 7 -18.5 13t-17.5 6q-13 0 -23.5 -10.5t-24.5 -33.5
l-65 39q24 50 56 81.5t65 31.5q19 0 33 -7.5t29 -20.5q11 -9 18.5 -13.5t15.5 -4.5q12 0 22.5 10t23.5 33l65 -37q-23 -51 -55 -82t-66 -31q-16 0 -28.5 6.5z" />
    <glyph glyph-name="utilde" unicode="&#x169;" horiz-adv-x="465" 
d="M47.5 15q-28.5 32 -28.5 87q0 17 3 35l55 394h148l-53 -376q-1 -5 -1 -14q0 -14 5.5 -21.5t14.5 -7.5q31 0 72 74l49 345h147l-74 -531h-129l4 75q-29 -44 -60 -68t-76 -24q-48 0 -76.5 32zM307.5 643.5q-12.5 6.5 -29.5 19.5q-9 7 -18.5 13t-17.5 6q-13 0 -23.5 -10.5
t-24.5 -33.5l-65 39q24 50 56 81.5t65 31.5q19 0 33 -7.5t29 -20.5q11 -9 18.5 -13.5t15.5 -4.5q12 0 22.5 10t23.5 33l65 -37q-23 -51 -55 -82t-66 -31q-16 0 -28.5 6.5z" />
    <glyph glyph-name="Umacron" unicode="&#x16a;" horiz-adv-x="528" 
d="M481 195q-13 -92 -79 -151.5t-173 -59.5q-100 0 -152 51.5t-52 131.5q0 23 2 35l70 491h154l-71 -508q-2 -14 -2 -21q0 -29 15 -46t46 -17q38 0 59.5 24.5t27.5 62.5l70 505h155zM460 782h-256l16 106h256z" />
    <glyph glyph-name="umacron" unicode="&#x16b;" horiz-adv-x="465" 
d="M47.5 15q-28.5 32 -28.5 87q0 17 3 35l55 394h148l-53 -376q-1 -5 -1 -14q0 -14 5.5 -21.5t14.5 -7.5q31 0 72 74l49 345h147l-74 -531h-129l4 75q-29 -44 -60 -68t-76 -24q-48 0 -76.5 32zM412 656h-256l16 106h256z" />
    <glyph glyph-name="Ubreve" unicode="&#x16c;" horiz-adv-x="528" 
d="M481 195q-13 -92 -79 -151.5t-173 -59.5q-100 0 -152 51.5t-52 131.5q0 23 2 35l70 491h154l-71 -508q-2 -14 -2 -21q0 -29 15 -46t46 -17q38 0 59.5 24.5t27.5 62.5l70 505h155zM237 792q-32 40 -32 100q0 12 1 19l77 12q5 -66 56 -66q52 0 77 69l79 -19
q-14 -69 -55 -112t-108 -43q-63 0 -95 40z" />
    <glyph glyph-name="ubreve" unicode="&#x16d;" horiz-adv-x="465" 
d="M47.5 15q-28.5 32 -28.5 87q0 17 3 35l55 394h148l-53 -376q-1 -5 -1 -14q0 -14 5.5 -21.5t14.5 -7.5q31 0 72 74l49 345h147l-74 -531h-129l4 75q-29 -44 -60 -68t-76 -24q-48 0 -76.5 32zM188 675.5q-33 41.5 -33 107.5q0 13 1 20l79 12q3 -76 55 -76q27 0 47 21t32 58
l76 -18q-14 -75 -55 -120.5t-106 -45.5q-63 0 -96 41.5z" />
    <glyph glyph-name="Uring" unicode="&#x16e;" horiz-adv-x="528" 
d="M481 195q-13 -92 -79 -151.5t-173 -59.5q-100 0 -152 51.5t-52 131.5q0 23 2 35l70 491h154l-71 -508q-2 -14 -2 -21q0 -29 15 -46t46 -17q38 0 59.5 24.5t27.5 62.5l70 505h155zM439.5 956.5q28.5 -31.5 28.5 -81.5q0 -60 -38 -100.5t-99 -40.5q-50 0 -78 31t-28 81
q0 60 38 101t98 41q50 0 78.5 -31.5zM321 895q-12 -19 -12 -45q0 -42 30 -42q21 0 33 19t12 45q0 42 -30 42q-21 0 -33 -19z" />
    <glyph glyph-name="uring" unicode="&#x16f;" horiz-adv-x="465" 
d="M47.5 15q-28.5 32 -28.5 87q0 17 3 35l55 394h148l-53 -376q-1 -5 -1 -14q0 -14 5.5 -21.5t14.5 -7.5q31 0 72 74l49 345h147l-74 -531h-129l4 75q-29 -44 -60 -68t-76 -24q-48 0 -76.5 32zM388.5 830.5q28.5 -31.5 28.5 -81.5q0 -60 -38 -100.5t-99 -40.5q-50 0 -78 31
t-28 81q0 60 38 101t98 41q50 0 78.5 -31.5zM270 769q-12 -19 -12 -45q0 -42 30 -42q21 0 33 19t12 45q0 42 -30 42q-21 0 -33 -19z" />
    <glyph glyph-name="Uhungarumlaut" unicode="&#x170;" horiz-adv-x="528" 
d="M481 195q-13 -92 -79 -151.5t-173 -59.5q-100 0 -152 51.5t-52 131.5q0 23 2 35l70 491h154l-71 -508q-2 -14 -2 -21q0 -29 15 -46t46 -17q38 0 59.5 24.5t27.5 62.5l70 505h155zM316 983l88 -49l-122 -177l-70 32zM464 983l87 -52l-129 -179l-68 37z" />
    <glyph glyph-name="uhungarumlaut" unicode="&#x171;" horiz-adv-x="465" 
d="M47.5 15q-28.5 32 -28.5 87q0 17 3 35l55 394h148l-53 -376q-1 -5 -1 -14q0 -14 5.5 -21.5t14.5 -7.5q31 0 72 74l49 345h147l-74 -531h-129l4 75q-29 -44 -60 -68t-76 -24q-48 0 -76.5 32zM269 857l88 -49l-122 -177l-70 32zM417 857l87 -52l-129 -179l-68 37z" />
    <glyph glyph-name="Uogonek" unicode="&#x172;" horiz-adv-x="528" 
d="M551 693l-70 -498q-10 -69 -51 -121.5t-107 -74.5q-61 -28 -83.5 -56t-22.5 -57q0 -35 36 -35q27 0 52 7l-22 -94q-29 -8 -60 -8q-50 0 -82 27t-32 72q0 83 94 130q-88 7 -133 57.5t-45 124.5q0 23 2 35l70 491h154l-71 -508q-2 -14 -2 -21q0 -29 15 -46t46 -17
q38 0 59.5 24.5t27.5 62.5l70 505h155z" />
    <glyph glyph-name="uogonek" unicode="&#x173;" horiz-adv-x="465" 
d="M276 -116q0 -33 38 -33q19 0 47 5l-22 -92q-24 -7 -58 -7q-50 0 -81 29t-31 78q0 82 87 136l4 75q-29 -44 -60 -68t-76 -24q-48 0 -76.5 32t-28.5 87q0 17 3 35l55 394h148l-53 -376q-1 -5 -1 -14q0 -14 5.5 -21.5t14.5 -7.5q31 0 72 74l49 345h147l-74 -531
q-109 -50 -109 -116z" />
    <glyph glyph-name="Wcircumflex" unicode="&#x174;" horiz-adv-x="700" 
d="M751 693l-182 -693h-202l19 539l-131 -539h-200l13 693h150l-34 -573l147 573h158l-19 -573l134 573h147zM311 757l-54 60l137 128h89l104 -136l-58 -52l-100 85z" />
    <glyph glyph-name="wcircumflex" unicode="&#x175;" horiz-adv-x="627" 
d="M659 531l-161 -531h-168l1 397l-102 -397h-172l-14 531h148l-23 -418l116 418h141l-5 -418l97 418h142zM259 624l-50 60l137 135h89l103 -142l-62 -53l-96 91z" />
    <glyph glyph-name="Ycircumflex" unicode="&#x176;" horiz-adv-x="491" 
d="M561 693l-239 -433l-36 -260h-155l36 260l-117 433h161l51 -314l134 314h165zM202 757l-54 60l137 128h89l104 -136l-58 -52l-100 85z" />
    <glyph glyph-name="ycircumflex" unicode="&#x177;" horiz-adv-x="433" 
d="M271 -2q-43 -111 -112.5 -161t-178.5 -58l-2 103q65 11 98.5 35.5t59.5 82.5h-53l-51 531h153l6 -433l129 433h156zM161 624l-50 60l137 135h89l103 -142l-62 -53l-96 91z" />
    <glyph glyph-name="Ydieresis" unicode="&#x178;" horiz-adv-x="491" 
d="M561 693l-239 -433l-36 -260h-155l36 260l-117 433h161l51 -314l134 314h165zM166 787q-18 18 -18 48q0 36 24.5 61t58.5 25q32 0 49.5 -18t17.5 -48q0 -37 -24 -61.5t-60 -24.5q-30 0 -48 18zM363 787q-18 18 -18 48q0 36 24.5 61t58.5 25q31 0 49 -18t18 -48
q0 -37 -24 -61.5t-59 -24.5q-31 0 -49 18z" />
    <glyph glyph-name="Zacute" unicode="&#x179;" horiz-adv-x="445" 
d="M-27 0l17 117l306 454h-222l19 122h389l-18 -119l-307 -449h255l-35 -125h-404zM383 939l51 -108l-211 -83l-36 70z" />
    <glyph glyph-name="zacute" unicode="&#x17a;" horiz-adv-x="381" 
d="M400 531l-16 -107l-223 -309h188l-30 -115h-348l16 107l223 310h-166l18 114h338zM326 826l51 -108l-211 -94l-38 71z" />
    <glyph glyph-name="Zdotaccent" unicode="&#x17b;" horiz-adv-x="445" 
d="M-27 0l17 117l306 454h-222l19 122h389l-18 -119l-307 -449h255l-35 -125h-404zM241.5 780.5q-20.5 20.5 -20.5 54.5q0 42 28 70t68 28q37 0 57 -20.5t20 -54.5q0 -43 -27.5 -70.5t-68.5 -27.5q-36 0 -56.5 20.5z" />
    <glyph glyph-name="zdotaccent" unicode="&#x17c;" horiz-adv-x="381" 
d="M400 531l-16 -107l-223 -309h188l-30 -115h-348l16 107l223 310h-166l18 114h338zM190.5 654.5q-20.5 20.5 -20.5 54.5q0 42 28 70t68 28q37 0 57 -20.5t20 -54.5q0 -43 -27.5 -70.5t-68.5 -27.5q-36 0 -56.5 20.5z" />
    <glyph glyph-name="Zcaron" unicode="&#x17d;" horiz-adv-x="445" 
d="M-27 0l17 117l306 454h-222l19 122h389l-18 -119l-307 -449h255l-35 -125h-404zM420 938l54 -59l-137 -129h-89l-104 136l58 52l100 -84z" />
    <glyph glyph-name="zcaron" unicode="&#x17e;" horiz-adv-x="381" 
d="M400 531l-16 -107l-223 -309h188l-30 -115h-348l16 107l223 310h-166l18 114h338zM373 807l49 -60l-136 -134h-89l-98 134l55 60l96 -91z" />
    <glyph glyph-name="longs" unicode="&#x17f;" horiz-adv-x="298" 
d="M432 716l-53 -88q-31 19 -61 19q-27 0 -42 -17.5t-21 -56.5l-78 -573h-149l59 425h-60l15 106h60l7 51q11 80 61 128.5t133 48.5q73 0 129 -43z" />
    <glyph glyph-name="uni0180" unicode="&#x180;" horiz-adv-x="500" 
d="M446 501.5q34 -46.5 34 -132.5q0 -172 -66.5 -279t-213.5 -107q-87 0 -183 42l80 574h-43l13 89h42l8 54l150 16l-10 -70h111l-26 -89h-97l-16 -112q25 29 56.5 45t66.5 16q60 0 94 -46.5zM282 134q25 41 36.5 103t11.5 124q0 42 -10 59t-30 17q-18 0 -37.5 -15
t-37.5 -40l-39 -280q25 -9 44 -9q37 0 62 41z" />
    <glyph glyph-name="uni0181" unicode="&#x181;" horiz-adv-x="644" 
d="M620 230q0 -108 -75.5 -169t-209.5 -61h-192l81 581h-23q-20 0 -31.5 -15t-11.5 -43q0 -26 9 -57l-103 -37q-21 52 -21 99q0 75 46.5 120t121.5 45h211q104 0 163 -40.5t59 -114.5q0 -69 -40 -112t-105 -60q121 -26 121 -136zM464 443q24 29 24 80q0 59 -66 59h-44
l-23 -168h37q48 0 72 29zM437.5 148.5q26.5 34.5 26.5 88.5q0 37 -18.5 54.5t-58.5 17.5h-47l-27 -195h39q59 0 85.5 34.5z" />
    <glyph glyph-name="uni0182" unicode="&#x182;" horiz-adv-x="495" 
d="M424.5 396.5q56.5 -48.5 56.5 -138.5q0 -66 -27 -125t-86 -96t-149 -37h-210l97 693h367l-34 -119h-195l-18 -129h42q100 0 156.5 -48.5zM295 154.5q24 40.5 24 99.5q0 41 -16.5 61t-51.5 20h-41l-31 -221h38q54 0 78 40.5z" />
    <glyph glyph-name="uni0183" unicode="&#x183;" horiz-adv-x="492" 
d="M438.5 488q33.5 -48 33.5 -141q-1 -161 -67 -262.5t-213 -101.5q-87 0 -183 42l100 717h325l-33 -109h-160l-22 -158q25 29 57 45t67 16q62 0 95.5 -48zM273.5 133.5q24.5 40.5 36.5 99t12 112.5q0 45 -10.5 62t-30.5 17q-18 0 -38 -14.5t-38 -39.5l-37 -268q25 -9 44 -9
q37 0 61.5 40.5z" />
    <glyph glyph-name="uni0184" unicode="&#x184;" horiz-adv-x="509" 
d="M441 405q57 -49 57 -142q0 -69 -27 -128.5t-85.5 -97t-149.5 -37.5h-209l68 495l-55 50q58 55 112 148h126l-34 -239h41q99 0 156 -49zM312 155.5q24 41.5 24 103.5q0 45 -16.5 65.5t-51.5 20.5h-39l-33 -231h38q54 0 78 41.5z" />
    <glyph glyph-name="uni0185" unicode="&#x185;" horiz-adv-x="456" 
d="M387 323q49 -42 49 -122q0 -57 -23 -106t-75 -80t-134 -31q-47 0 -88 8t-84 24l45 327l-56 50q62 59 111 138h120l-23 -166h14q95 0 144 -42zM271 117q18 34 18 86q0 32 -12.5 48t-39.5 16h-22l-25 -180q13 -4 27 -4q36 0 54 34z" />
    <glyph glyph-name="uni0186" unicode="&#x186;" horiz-adv-x="482" 
d="M415.5 643.5q56.5 -66.5 56.5 -196.5q0 -129 -36.5 -234.5t-108.5 -167t-174 -61.5q-60 0 -104 25t-74 64l80 83q26 -26 48 -38.5t51 -12.5q54 0 90.5 54t53.5 134.5t17 160.5q0 76 -19.5 107.5t-56.5 31.5q-29 0 -54.5 -11t-54.5 -33l-63 87q43 37 89.5 55.5t101.5 18.5
q101 0 157.5 -66.5z" />
    <glyph glyph-name="uni0187" unicode="&#x187;" horiz-adv-x="478" 
d="M680 811l-54 -90q-25 17 -49 17q-20 0 -31 -15t-16 -46l-5 -45l-76 -76q-26 19 -48 28t-47 9q-57 0 -93 -54.5t-52.5 -136t-16.5 -164.5q0 -134 83 -134q29 0 53.5 13t61.5 40l56 -88q-92 -86 -200 -86q-98 0 -155.5 67.5t-57.5 196.5q0 120 36 226.5t104 171.5t160 65
q38 0 73 -16l3 19q10 61 49.5 98.5t108.5 37.5q65 0 113 -38z" />
    <glyph glyph-name="uni0188" unicode="&#x188;" horiz-adv-x="397" 
d="M595 719l-53 -89q-27 16 -50 16q-20 0 -30 -15t-15 -48l-15 -101l-67 -76q-39 27 -76 27q-59 0 -86.5 -73.5t-27.5 -167.5q0 -50 15 -70.5t44 -20.5q19 0 37 7.5t43 23.5l52 -88q-70 -61 -158 -61q-87 0 -137 56.5t-50 156.5q0 94 30 174.5t86 129t130 48.5q23 0 47 -8
l12 74q11 69 50 106.5t105 37.5q65 0 114 -39z" />
    <glyph glyph-name="uni0189" unicode="&#x189;" horiz-adv-x="556" 
d="M476 639.5q69 -53.5 69 -189.5q0 -205 -83.5 -327.5t-261.5 -122.5h-183l43 305h-46l15 96h44l41 292h176q117 0 186 -53.5zM321.5 166q36.5 52 52 129.5t15.5 158.5q0 69 -24 97.5t-71 28.5h-42l-25 -179h101l-15 -96h-99l-27 -191h38q60 0 96.5 52z" />
    <glyph glyph-name="uni018A" unicode="&#x18a;" horiz-adv-x="682" 
d="M602 639.5q69 -53.5 69 -189.5q0 -205 -83.5 -327.5t-261.5 -122.5h-183l81 581h-23q-20 0 -31.5 -15t-11.5 -43q0 -26 9 -57l-103 -37q-21 52 -21 99q0 75 46.5 120t121.5 45h205q117 0 186 -53.5zM447.5 166q36.5 52 52 129.5t15.5 158.5q0 69 -24 97.5t-71 28.5h-42
l-65 -466h38q60 0 96.5 52z" />
    <glyph glyph-name="uni018B" unicode="&#x18b;" horiz-adv-x="494" 
d="M410 0h-186q-107 0 -163 50t-56 146q0 118 70.5 183t188.5 65h54l18 130h-209l16 119h364zM272 114l31 221h-40q-48 0 -72.5 -35t-24.5 -98q0 -45 19 -66.5t61 -21.5h26z" />
    <glyph glyph-name="uni018C" unicode="&#x18c;" horiz-adv-x="492" 
d="M412 0h-131l2 66q-26 -41 -57.5 -62t-73.5 -21q-64 0 -99 49t-35 140q0 87 25.5 171t75.5 138.5t120 54.5q61 0 93 -50l20 147h-168l14 109h318zM318 388q-9 19 -20.5 28t-28.5 9q-33 0 -55.5 -42.5t-33.5 -101.5t-11 -109q0 -43 10.5 -60.5t29.5 -17.5q37 0 79 77z" />
    <glyph glyph-name="uni018D" unicode="&#x18d;" horiz-adv-x="485" 
d="M0 -150l77 70q38 -38 82 -38q30 0 45 16.5t15 43.5q0 20 -12.5 35.5t-50.5 36.5q-70 39 -101.5 85.5t-31.5 120.5q0 72 26.5 147.5t85 127.5t147.5 52q86 0 134.5 -56.5t48.5 -144.5q0 -100 -38 -171.5t-132 -117.5q64 -48 64 -113q0 -43 -22 -81t-66.5 -61.5
t-107.5 -23.5q-109 0 -163 72zM296 208q18 58 18 142q0 86 -46 86q-47 0 -70.5 -66t-23.5 -155q0 -42 11 -67t42 -47q51 49 69 107z" />
    <glyph glyph-name="uni018E" unicode="&#x18e;" horiz-adv-x="421" 
d="M79 693h355l-97 -693h-357l16 114h203l26 183h-167l16 110h166l24 174h-201z" />
    <glyph glyph-name="uni018F" unicode="&#x18f;" horiz-adv-x="533" 
d="M470 649.5q54 -60.5 54 -178.5q0 -136 -34.5 -246.5t-104 -175.5t-170.5 -65q-97 0 -147 62t-50 173q0 48 6.5 92t20.5 93l323 -1q4 39 4 73q0 64 -19.5 91.5t-58.5 27.5q-36 0 -65.5 -15t-62.5 -41l-57 84q50 44 100.5 65.5t110.5 21.5q96 0 150 -60.5zM299 140.5
q31 42.5 52 152.5h-185q-7 -51 -7 -84q0 -57 15.5 -84t48.5 -27q45 0 76 42.5z" />
    <glyph glyph-name="uni0190" unicode="&#x190;" horiz-adv-x="446" 
d="M413 686q43 -23 78 -69l-82 -75q-23 27 -46 40t-49 13q-39 0 -61 -29.5t-22 -75.5q0 -33 18.5 -50.5t52.5 -17.5h53l-34 -113h-37q-57 0 -88.5 -33t-31.5 -95q0 -81 69 -81q31 0 59 14.5t61 43.5l69 -79q-87 -95 -215 -95q-92 0 -147 49t-55 132q0 90 49.5 142t138.5 61
q-116 25 -116 132q0 61 32 109t84.5 74t112.5 26q64 0 107 -23z" />
    <glyph glyph-name="uni0191" unicode="&#x191;" horiz-adv-x="397" 
d="M245 581l-27 -190h157l-18 -113h-155l-39 -278l-6 -46q-13 -85 -66 -130t-132 -45q-74 0 -121 43l62 89q14 -9 25 -13t26 -4q21 0 34.5 14t17.5 40l6 52l97 693h348l-35 -112h-174z" />
    <glyph glyph-name="florin" unicode="&#x192;" horiz-adv-x="298" 
d="M275 629.5q-15 -17.5 -20 -56.5l-6 -42h103l-34 -106h-83l-51 -373q-12 -86 -43.5 -138t-74 -80.5t-108.5 -54.5l-33 110q35 15 56 33t35 48t21 80l50 375h-61l16 106h59l7 51q11 80 61.5 128.5t133.5 48.5q73 0 129 -43l-53 -88q-31 19 -62 19q-27 0 -42 -17.5z" />
    <glyph glyph-name="uni0193" unicode="&#x193;" horiz-adv-x="510" 
d="M712 811l-53 -90q-26 17 -50 17q-38 0 -46 -61l-8 -53l-76 -71q-28 23 -54 33t-57 10q-63 0 -103.5 -57.5t-58.5 -144t-18 -178.5q0 -61 18 -89t54 -28q38 0 76 24l23 163h-65l2 111h224l-47 -341q-51 -35 -109 -53.5t-113 -18.5q-110 0 -165 64.5t-55 190.5
q0 123 38 231t111.5 174t173.5 66q49 0 83 -20l4 23q10 61 50 98.5t109 37.5q64 0 112 -38z" />
    <glyph glyph-name="uni0194" unicode="&#x194;" horiz-adv-x="480" 
d="M291 84q18 -51 26.5 -85t8.5 -67q0 -74 -39.5 -113.5t-110.5 -39.5q-57 0 -86.5 30t-29.5 80q0 46 20 93t61 108l-90 603h156l27 -501l158 501h157zM206 8q-37 -70 -37 -105q0 -25 19 -25q29 0 29 50q0 33 -11 80z" />
    <glyph glyph-name="uni0195" unicode="&#x195;" horiz-adv-x="708" 
d="M304.5 27.5q-40.5 43.5 -40.5 107.5q0 9 2 25l29 206q1 6 1 17q0 31 -20 31q-17 0 -36 -27t-44 -81l-43 -306h-148l104 742l150 15l-42 -303q56 94 132 94q47 0 74 -32.5t27 -88.5q0 -17 -3 -37l-33 -236q-1 -7 -1 -19q0 -40 31 -40q56 0 78.5 108.5t22.5 234.5
q0 53 -3 93h140q6 -48 6 -93q0 -138 -21 -237t-78.5 -158t-160.5 -59q-83 0 -123.5 43.5z" />
    <glyph glyph-name="uni0196" unicode="&#x196;" horiz-adv-x="326" 
d="M302 24q-57 -41 -127 -41q-74 0 -114 37.5t-40 108.5q0 10 2 32l5 43l69 489h154l-69 -489l-7 -56q-5 -50 33 -50q16 0 27.5 4t29.5 13z" />
    <glyph glyph-name="uni0197" unicode="&#x197;" horiz-adv-x="276" 
d="M294 418l-15 -116h-56l-43 -302h-154l42 302h-58l16 116h59l38 275h155l-39 -275h55z" />
    <glyph glyph-name="uni0198" unicode="&#x198;" horiz-adv-x="552" 
d="M220 370l145 238q32 55 66.5 78t85.5 23q58 0 97 -37l-53 -85q-14 10 -30 10q-13 0 -23.5 -8t-21.5 -26l-109 -191l128 -372h-167zM9 0l97 693h155l-98 -693h-154z" />
    <glyph glyph-name="uni0199" unicode="&#x199;" horiz-adv-x="483" 
d="M457.5 323.5q-30.5 -44.5 -94.5 -82.5l71 -241h-154l-66 256q69 28 96.5 63t27.5 81q0 41 -32 41q-24 0 -51 -27t-56 -81l-45 -333h-149l74 530h1l10 68q10 72 59.5 116t132.5 44q67 0 124 -34l-53 -94q-34 16 -62 16q-24 0 -37.5 -15.5t-18.5 -48.5l-7 -52l-9 -67
q32 43 68 63.5t80 20.5q55 0 88 -33t33 -86q0 -60 -30.5 -104.5z" />
    <glyph glyph-name="uni019A" unicode="&#x19a;" horiz-adv-x="283" 
d="M195 133q-1 -4 -1 -10q0 -19 17 -19q9 0 18 3l12 -104q-38 -19 -87 -19q-53 0 -81.5 29t-28.5 81q0 20 2 31l27 194h-61l16 106h59l44 317l149 16l-45 -333h61l-15 -106h-61z" />
    <glyph glyph-name="uni019B" unicode="&#x19b;" horiz-adv-x="434" 
d="M377 184.5q14 -84.5 46 -153.5l-139 -46q-27 75 -38 162.5t-10 226.5l-115 -390l-150 35l204 473l57 -11q-2 61 -9 89l-47 -49l-68 51l68 68q-22 14 -69 24l28 94q45 -11 76 -23t54 -31l74 66l45 -71l-67 -64h-1q32 -69 39 -210q8 -156 22 -240.5z" />
    <glyph glyph-name="uni019C" unicode="&#x19c;" horiz-adv-x="741" 
d="M754 693l-97 -693h-135l-2 60q-33 -40 -64 -58t-68 -18q-41 0 -68.5 22t-39.5 60q-33 -42 -68 -62t-75 -20q-57 0 -87.5 40t-30.5 101q0 9 2 31l76 537h155l-75 -534q-1 -6 -1 -17q0 -20 7.5 -30.5t21.5 -10.5q18 0 34.5 15t35.5 48l74 529h154l-74 -530q-1 -7 -1 -19
q0 -43 29 -43q17 0 33.5 15.5t34.5 48.5l75 528h154z" />
    <glyph glyph-name="uni019D" unicode="&#x19d;" horiz-adv-x="539" 
d="M552 693l-97 -693h-185l-78 563v-55q0 -136 -15 -254l-33 -254l-8 -55q-11 -80 -58 -123t-122 -43q-39 0 -67 12t-51 32l62 83q15 -9 26 -13t26 -4q20 0 33.5 15.5t17.5 43.5l6 52l97 693h186l77 -563l-1 73q0 103 13 207l37 283h134z" />
    <glyph glyph-name="uni019E" unicode="&#x19e;" horiz-adv-x="470" 
d="M423.5 515.5q27.5 -32.5 27.5 -88.5q0 -17 -3 -37l-85 -596l-151 -16l84 588q1 7 1 18q0 30 -20 30q-17 0 -36 -27t-44 -81l-43 -306h-148l74 531h129l-3 -84q30 47 65 74t78 27q47 0 74.5 -32.5z" />
    <glyph glyph-name="uni019F" unicode="&#x19f;" horiz-adv-x="578" 
d="M512.5 644.5q55.5 -65.5 55.5 -193.5q0 -122 -34 -228.5t-106 -173t-178 -66.5t-161.5 65.5t-55.5 193.5q0 121 34 227.5t105.5 173.5t178.5 67q106 0 161.5 -65.5zM255 541.5q-35 -56.5 -54 -145.5h214q4 39 4 81q0 64 -18 92.5t-57 28.5q-54 0 -89 -56.5zM349 154
q36 59 54 152h-216q-5 -55 -5 -92q0 -64 18 -91.5t56 -27.5q57 0 93 59z" />
    <glyph glyph-name="Ohorn" unicode="&#x1a0;" horiz-adv-x="612" 
d="M634.5 613q-28.5 -37 -81.5 -48q15 -48 15 -114q0 -122 -34 -228.5t-106 -173t-178 -66.5t-161.5 65.5t-55.5 193.5q0 121 34 227.5t105.5 173.5t178.5 67q113 0 169 -74q24 4 35 23t11 54q0 27 -3 46l95 13q5 -25 5 -58q0 -64 -28.5 -101zM347 159.5q34 61.5 49 149
t15 168.5q0 62 -17 90t-53 28q-53 0 -87 -62.5t-49.5 -151t-15.5 -167.5q0 -61 17.5 -88.5t52.5 -27.5q54 0 88 61.5z" />
    <glyph glyph-name="ohorn" unicode="&#x1a1;" horiz-adv-x="530" 
d="M544.5 450q-28.5 -37 -82.5 -48q6 -28 6 -63q0 -92 -29 -173t-88 -132t-145 -51q-88 0 -136.5 53.5t-48.5 154.5q0 92 29 173.5t88 132.5t145 51q52 0 91 -19.5t62 -56.5q41 11 41 78q0 27 -3 46l94 12q5 -25 5 -58q0 -63 -28.5 -100zM275 138q23 44 33.5 106t10.5 117
q0 40 -11.5 57.5t-34.5 17.5q-36 0 -59 -43.5t-33 -105t-10 -117.5q0 -40 11 -58t34 -18q36 0 59 44z" />
    <glyph glyph-name="uni01A2" unicode="&#x1a2;" horiz-adv-x="801" 
d="M753.5 672.5q40.5 -37.5 40.5 -102.5q0 -21 -2 -32l-105 -748h-153l105 754q1 5 1 15q0 41 -38 41q-25 0 -56 -20q22 -57 22 -129q0 -122 -34 -228.5t-106 -173t-178 -66.5t-161.5 65.5t-55.5 193.5q0 121 34 227.5t105.5 173.5t178.5 67q86 0 141 -50q66 50 148 50
q73 0 113.5 -37.5zM347 159.5q34 61.5 49 149t15 168.5q0 62 -17 90t-53 28q-53 0 -87 -62.5t-49.5 -151t-15.5 -167.5q0 -61 17.5 -88.5t52.5 -27.5q54 0 88 61.5z" />
    <glyph glyph-name="uni01A3" unicode="&#x1a3;" horiz-adv-x="686" 
d="M624.5 510.5q37.5 -37.5 37.5 -103.5q0 -18 -3 -38l-79 -575l-150 -16l84 609q1 6 1 16q0 34 -30 34q-18 0 -36 -7q13 -38 13 -91q0 -91 -28.5 -172.5t-87 -132.5t-143.5 -51t-133.5 53.5t-48.5 154.5q0 92 28.5 173.5t87 132.5t143.5 51q67 0 111 -33q32 17 61.5 25
t65.5 8q69 0 106.5 -37.5zM269.5 138q22.5 44 33 106t10.5 117q0 75 -43 75q-35 0 -57 -43.5t-32 -105t-10 -117.5q0 -76 42 -76q34 0 56.5 44z" />
    <glyph glyph-name="uni01A4" unicode="&#x1a4;" horiz-adv-x="623" 
d="M586 644.5q58 -48.5 58 -141.5q0 -77 -31 -138t-93 -96.5t-151 -35.5h-40l-32 -233h-154l81 581h-23q-20 0 -31.5 -15t-11.5 -43q0 -26 9 -57l-103 -37q-21 52 -21 99q0 75 46.5 120t121.5 45h209q108 0 166 -48.5zM460.5 390.5q26.5 43.5 26.5 110.5q0 43 -19 61.5
t-60 18.5h-30l-33 -234h25q64 0 90.5 43.5z" />
    <glyph glyph-name="uni01A5" unicode="&#x1a5;" horiz-adv-x="491" 
d="M438 501.5q34 -46.5 34 -132.5q0 -106 -26.5 -193.5t-82 -140t-140.5 -52.5q-38 0 -71 12l-29 -201l-149 -16l105 752h1l10 68q10 72 59.5 116t132.5 44q67 0 124 -34l-53 -94q-34 16 -62 16q-24 0 -37.5 -15.5t-18.5 -48.5l-7 -52l-6 -48q26 33 55 49.5t66 16.5
q61 0 95 -46.5zM274 137q25 44 36.5 107t11.5 120q0 40 -10.5 56.5t-29.5 16.5q-18 0 -37.5 -14.5t-37.5 -39.5l-40 -281q21 -9 44 -9q38 0 63 44z" />
    <glyph glyph-name="uni01A6" unicode="&#x1a6;" horiz-adv-x="513" 
d="M369 183l99 -299h-160l-77 267l-46 1l-21 -152h-154l97 693h154l-16 -115h26q115 0 171.5 -46.5t56.5 -133.5q0 -146 -130 -215zM201 261h33q57 0 82.5 38t25.5 94q0 39 -18.5 56.5t-57.5 17.5h-37z" />
    <glyph glyph-name="uni01A7" unicode="&#x1a7;" horiz-adv-x="457" 
d="M444.5 665q48.5 -44 48.5 -119q0 -64 -24 -107.5t-70 -74t-120 -59.5q-63 -24 -88.5 -55t-25.5 -82q0 -66 62 -66q66 0 141 63l64 -85q-96 -96 -232 -96q-90 0 -142 49t-52 128q0 99 51 158t152 95q50 18 76.5 34.5t38 37t11.5 52.5q0 56 -55 56q-64 0 -131 -55l-55 83
q49 44 103 65.5t117 21.5q82 0 130.5 -44z" />
    <glyph glyph-name="uni01A8" unicode="&#x1a8;" horiz-adv-x="398" 
d="M355 510q43 -38 43 -100q0 -61 -35.5 -105t-116.5 -76q-58 -22 -76.5 -41.5t-18.5 -49.5q0 -46 46 -46q25 0 55.5 14.5t59.5 36.5l58 -83q-39 -35 -92 -55.5t-107 -20.5q-80 0 -127 39.5t-47 107.5q0 63 35.5 108.5t127.5 80.5q56 21 73.5 38.5t17.5 44.5
q0 18 -10.5 27.5t-28.5 9.5q-22 0 -49 -11t-51 -29l-43 83q36 31 80.5 48t90.5 17q72 0 115 -38z" />
    <glyph glyph-name="uni01A9" unicode="&#x1a9;" horiz-adv-x="418" 
d="M459 693l-16 -114h-225l106 -210l-8 -64l-152 -188h217l-17 -117h-382l17 114l185 234l-123 231l16 114h382z" />
    <glyph glyph-name="uni01AA" unicode="&#x1aa;" horiz-adv-x="367" 
d="M408 -180q-55 -41 -129 -41q-70 0 -109 38t-39 108q0 10 2 32l5 43l61 437q-28 -13 -58 -13q-49 0 -80.5 39.5t-31.5 102.5q0 87 51 139.5t135 52.5q70 0 111.5 -41t41.5 -114q0 -19 -3 -39l-79 -564l-7 -59q-1 -5 -1 -13q0 -19 10 -28.5t27 -9.5q15 0 26 3.5t28 12.5z
M212 534l10 69q2 14 2 19q0 30 -25 30q-23 0 -33.5 -24.5t-10.5 -61.5t30 -37q12 0 27 5z" />
    <glyph glyph-name="uni01AB" unicode="&#x1ab;" horiz-adv-x="322" 
d="M188 145q-1 -4 -1 -11q0 -37 33 -37q19 0 44 10l34 -85l-11 -82q-11 -79 -60.5 -120t-127.5 -41q-75 0 -125 44l62 84q30 -20 63 -20q54 0 61 63l4 33q-60 2 -92.5 38t-32.5 98q0 17 3 35l38 271h-58l16 106h62l30 119l131 14l-19 -133h97l-33 -106h-79z" />
    <glyph glyph-name="uni01AC" unicode="&#x1ac;" horiz-adv-x="498" 
d="M526 572h-131l-80 -572h-154l80 572h-40q-43 0 -43 -49q0 -26 9 -57l-103 -37q-21 52 -21 99q0 75 46.5 120t123.5 45h346z" />
    <glyph glyph-name="uni01AD" unicode="&#x1ad;" horiz-adv-x="322" 
d="M252 606l-10 -75h97l-33 -106h-78l-38 -273q-1 -5 -1 -14q0 -35 31 -35q17 0 43 13l35 -94q-27 -19 -60 -29t-65 -10q-64 0 -98.5 36t-34.5 100q0 23 2 35l37 271h-57l16 106h56l8 62q10 80 56 122.5t123 42.5q66 0 113 -39l-54 -82q-25 15 -45 15q-36 0 -43 -46z" />
    <glyph glyph-name="uni01AE" unicode="&#x1ae;" horiz-adv-x="445" 
d="M255 -56q-5 -50 33 -50q16 0 27.5 4t29.5 13l37 -91q-57 -41 -127 -41q-74 0 -114 37.5t-40 108.5q0 10 2 32l5 43l81 572h-142l17 121h443l-33 -121h-131l-81 -572z" />
    <glyph glyph-name="Uhorn" unicode="&#x1af;" horiz-adv-x="607" 
d="M639.5 602.5q-37.5 -38.5 -107.5 -41.5l-51 -366q-13 -92 -79 -151.5t-173 -59.5q-100 0 -152 51.5t-52 131.5q0 23 2 35l70 491h154l-71 -508q-2 -14 -2 -21q0 -29 15 -46t46 -17q38 0 59.5 24.5t27.5 62.5l70 505h155l-8 -55q37 13 37 75q0 27 -3 46l95 13q5 -25 5 -58
q0 -73 -37.5 -111.5z" />
    <glyph glyph-name="uhorn" unicode="&#x1b0;" horiz-adv-x="543" 
d="M548 439q-38 -38 -108 -41l-55 -398h-129l4 75q-29 -44 -60 -68t-76 -24q-48 0 -76.5 32t-28.5 87q0 17 3 35l55 394h148l-53 -376q-1 -5 -1 -14q0 -14 5.5 -21.5t14.5 -7.5q31 0 72 74l49 345h147l-8 -59q39 13 39 78q0 27 -3 46l94 12q5 -25 5 -58q0 -73 -38 -111z" />
    <glyph glyph-name="uni01B1" unicode="&#x1b1;" horiz-adv-x="578" 
d="M88 53q-57 70 -57 186q0 243 163 342h-101l16 112h216l-16 -107q-64 -32 -92.5 -140t-28.5 -227q0 -63 17.5 -92t52.5 -29q54 0 89.5 57t51 141t15.5 166q0 49 -12.5 76.5t-40.5 48.5l15 106h216l-16 -113h-102q45 -32 67 -76t22 -108q0 -107 -37 -202t-108.5 -153
t-169.5 -58q-103 0 -160 70z" />
    <glyph glyph-name="uni01B2" unicode="&#x1b2;" horiz-adv-x="527" 
d="M533 592q0 -18 -3 -41l-39 -291q-18 -131 -91.5 -203.5t-185.5 -72.5q-89 0 -139.5 50t-50.5 130q0 17 3 35l70 494h154l-70 -504q-2 -20 -2 -26q0 -30 12.5 -46t37.5 -16q39 0 67.5 39.5t39.5 121.5l42 309v7q0 21 -17 21q-7 0 -19 -4l-7 98q39 17 83 17q115 0 115 -118
z" />
    <glyph glyph-name="uni01B3" unicode="&#x1b3;" horiz-adv-x="510" 
d="M167 260l-117 434h161l50 -315l82 207q23 65 59.5 94.5t95.5 29.5q60 0 105 -40l-55 -84q-10 6 -17.5 9t-17.5 3q-14 0 -23 -8t-20 -29l-148 -301l-36 -260h-155z" />
    <glyph glyph-name="uni01B4" unicode="&#x1b4;" horiz-adv-x="436" 
d="M-22 -118q65 11 98.5 35.5t59.5 82.5h-53l-51 531h153l6 -433l99 358q14 65 48.5 95t92.5 30q38 0 73 -16l-39 -99q-8 5 -21 5q-12 0 -19 -7.5t-13 -25.5l-139 -434q-36 -114 -108.5 -165.5t-184.5 -59.5z" />
    <glyph glyph-name="uni01B5" unicode="&#x1b5;" horiz-adv-x="445" 
d="M482 693l-18 -119l-128 -181h65l-14 -97h-119l-121 -171h265l-35 -125h-404l17 117l125 179h-68l13 97h122l124 178h-232l19 122h389z" />
    <glyph glyph-name="uni01B6" unicode="&#x1b6;" horiz-adv-x="380" 
d="M400 531l-14 -100l-91 -119h56l-14 -88h-109l-88 -115h207l-28 -109h-348l15 101l94 123h-56l14 88h109l85 111h-187l17 108h338z" />
    <glyph glyph-name="uni01B7" unicode="&#x1b7;" horiz-adv-x="452" 
d="M448 582l-166 -181q74 -5 112.5 -47t38.5 -115q0 -78 -35 -135.5t-94 -88.5t-130 -31q-72 0 -117.5 26t-76.5 76l90 72q25 -31 47.5 -44.5t55.5 -13.5q44 0 73 36t29 95q0 79 -79 79h-85l1 1l13 88l159 180h-203l18 114h367z" />
    <glyph glyph-name="uni01B8" unicode="&#x1b8;" horiz-adv-x="454" 
d="M454 579h-214l124 -181l-14 -87l1 -1h-77q-55 0 -83 -33.5t-28 -94.5q0 -82 66 -82q32 0 61 15t63 47l70 -79q-42 -49 -94 -74t-121 -25q-96 0 -150.5 52t-54.5 141q0 64 27.5 114t76 79t110.5 32l-128 180l17 111h366z" />
    <glyph glyph-name="uni01B9" unicode="&#x1b9;" horiz-adv-x="424" 
d="M420 418h-212l118 -210l-13 -86l-2 1l1 -1h-77q-51 0 -79.5 -35.5t-28.5 -99.5q0 -92 70 -92q30 0 57 14t61 46l66 -77q-81 -99 -209 -99q-93 0 -146 54.5t-53 144.5q0 100 58.5 163.5t159.5 70.5l-129 215l15 104h360z" />
    <glyph glyph-name="uni01BA" unicode="&#x1ba;" horiz-adv-x="416" 
d="M3.5 -164q-31.5 34 -31.5 77q0 61 38.5 93t119.5 55q58 16 81 34.5t23 53.5q0 23 -12.5 32.5t-43.5 9.5h-102l12 83l146 150h-200l16 107h360l-14 -98l-156 -156h13q62 0 97.5 -32t35.5 -91q0 -80 -49 -124t-136 -67q-42 -11 -62.5 -19.5t-27.5 -17.5t-7 -22
q0 -22 26 -43l-42 -82q-53 23 -84.5 57z" />
    <glyph glyph-name="uni01BB" unicode="&#x1bb;" horiz-adv-x="427" 
d="M409.5 432.5q-16.5 -43.5 -51.5 -91.5h53l-13 -98h-122q-42 -47 -123 -128l228 2l-32 -117h-368l14 109l122 134h-68l14 98h136q38 51 56 91t18 79q0 31 -13.5 47t-38.5 16q-26 0 -50 -16t-56 -51l-77 69q43 55 94 84t114 29q87 0 133.5 -47t46.5 -121q0 -45 -16.5 -88.5
z" />
    <glyph glyph-name="uni01BC" unicode="&#x1bc;" horiz-adv-x="454" 
d="M-17 85l89 71q21 -30 42.5 -44.5t52.5 -14.5q57 0 83.5 54t26.5 125q0 39 -13.5 55.5t-39.5 16.5q-32 0 -73 -24h-99l52 369h354l-31 -109h-201l-22 -157q25 14 46.5 19.5t45.5 5.5q61 0 96 -43t35 -126q0 -84 -31 -152t-91.5 -108t-144.5 -40q-116 0 -177 102z" />
    <glyph glyph-name="uni01BD" unicode="&#x1bd;" horiz-adv-x="398" 
d="M350 424h-155l-13 -95q36 17 70 17q50 0 82 -37t32 -104q0 -69 -29.5 -119t-79 -76t-109.5 -26q-57 0 -95.5 20.5t-70.5 59.5l87 77q21 -23 39 -33.5t43 -10.5q31 0 49.5 26.5t18.5 71.5q0 50 -36 50q-24 0 -49 -15h-94l42 301h304z" />
    <glyph glyph-name="uni01BE" unicode="&#x1be;" horiz-adv-x="422" 
d="M393 264q0 -81 -31 -145t-86.5 -99.5t-125.5 -35.5q-58 0 -102 23.5t-78 69.5l82 70q23 -27 43.5 -39t46.5 -12q47 0 73 45t26 119q0 50 -18.5 77t-58.5 40l-39 13l20 141h-51l13 90h51l17 121l148 15l-19 -136h84l-13 -90h-83l-14 -97l23 -10q92 -41 92 -160z" />
    <glyph glyph-name="uni01BF" unicode="&#x1bf;" horiz-adv-x="492" 
d="M443 505q36 -43 36 -120q0 -90 -34 -156.5t-87.5 -111.5t-131.5 -89l-75 -42l-27 -191l-149 -17l105 753h131l-1 -56q31 35 63.5 54t73.5 19q60 0 96 -43zM294.5 232.5q31.5 60.5 31.5 143.5q0 63 -40 63q-38 0 -78 -51l-40 -285l32 23q63 46 94.5 106.5z" />
    <glyph glyph-name="uni01C0" unicode="&#x1c0;" horiz-adv-x="221" 
d="M243 755l-109 -755h-125l104 742z" />
    <glyph glyph-name="uni01C1" unicode="&#x1c1;" horiz-adv-x="415" 
d="M243 755l-109 -755h-125l104 742zM438 755l-109 -755h-125l104 742z" />
    <glyph glyph-name="uni01C2" unicode="&#x1c2;" horiz-adv-x="277" 
d="M293 399h-70l-9 -63h70l-12 -86h-71l-36 -250h-125l35 250h-73l12 86h73l9 63h-72l12 86h72l36 257l130 13l-39 -270h70z" />
    <glyph glyph-name="uni01C3" unicode="&#x1c3;" horiz-adv-x="261" 
d="M262 755l-74 -523h-126l72 510zM38.5 5q-20.5 22 -20.5 55q0 40 27 69t67 29q35 0 55 -22t20 -56q0 -41 -26.5 -69t-67.5 -28q-34 0 -54.5 22z" />
    <glyph glyph-name="uni01C4" unicode="&#x1c4;" horiz-adv-x="968" 
d="M468 639.5q69 -53.5 69 -189.5q0 -205 -83.5 -327.5t-261.5 -122.5h-183l97 693h176q117 0 186 -53.5zM244 580l-65 -466h38q60 0 96.5 52t52 129.5t15.5 158.5q0 69 -24 97.5t-71 28.5h-42zM496 0l17 117l306 454h-222l19 122h389l-18 -119l-307 -449h255l-35 -125h-404
zM943 938l54 -59l-137 -129h-89l-104 136l58 52l100 -84z" />
    <glyph glyph-name="uni01C5" unicode="&#x1c5;" horiz-adv-x="919" 
d="M468 639.5q69 -53.5 69 -189.5q0 -205 -83.5 -327.5t-261.5 -122.5h-183l97 693h176q117 0 186 -53.5zM244 580l-65 -466h38q60 0 96.5 52t52 129.5t15.5 158.5q0 69 -24 97.5t-71 28.5h-42zM938 531l-16 -107l-223 -309h188l-30 -115h-348l16 107l223 310h-166l18 114
h338zM912 807l49 -60l-136 -134h-89l-98 134l55 60l96 -91z" />
    <glyph glyph-name="uni01C6" unicode="&#x1c6;" horiz-adv-x="873" 
d="M516 742l-104 -742h-131l3 66q-27 -41 -58 -62t-73 -21q-64 0 -99 49t-35 140q0 93 25.5 179.5t76 141.5t120.5 55q61 0 93 -50l36 259zM214.5 395q-22.5 -43 -33.5 -105.5t-11 -117.5q0 -43 10.5 -60.5t29.5 -17.5q20 0 39 20t39 57l32 229q-10 19 -21.5 28.5t-28.5 9.5
q-33 0 -55.5 -43zM892 531l-16 -107l-223 -309h188l-30 -115h-348l16 107l223 310h-166l18 114h338zM866 807l49 -60l-136 -134h-89l-98 134l55 60l96 -91z" />
    <glyph glyph-name="uni01C7" unicode="&#x1c7;" horiz-adv-x="664" 
d="M261 693l-80 -569h215l-35 -124h-352l97 693h155zM596 98q-12 -83 -45 -134.5t-77.5 -79t-109.5 -50.5l-27 108q54 26 75.5 62t30.5 106l82 583h154z" />
    <glyph glyph-name="uni01C8" unicode="&#x1c8;" horiz-adv-x="637" 
d="M261 693l-80 -569h215l-35 -124h-352l97 693h155zM305 -111q35 15 56 32.5t34.5 48t20.5 80.5l67 481h149l-68 -479q-12 -86 -43.5 -138t-73.5 -80t-108 -55zM517.5 654.5q-20.5 20.5 -20.5 54.5q0 42 28 70t68 28q37 0 57 -20.5t20 -54.5q0 -43 -27.5 -70.5t-68.5 -27.5
q-36 0 -56.5 20.5z" />
    <glyph glyph-name="uni01C9" unicode="&#x1c9;" horiz-adv-x="483" 
d="M168 133q-1 -4 -1 -10q0 -19 17 -19q9 0 18 3l12 -104q-38 -19 -87 -19q-53 0 -81.5 29t-28.5 81q0 20 2 31l85 617l149 16zM151 -111q35 15 56 32.5t34.5 48t20.5 80.5l67 481h149l-68 -479q-12 -86 -43.5 -138t-73.5 -80t-108 -55zM363.5 654.5q-20.5 20.5 -20.5 54.5
q0 42 28 70t68 28q37 0 57 -20.5t20 -54.5q0 -43 -27.5 -70.5t-68.5 -27.5q-36 0 -56.5 20.5z" />
    <glyph glyph-name="uni01CA" unicode="&#x1ca;" horiz-adv-x="809" 
d="M455 0h-185l-78 563v-55q0 -136 -15 -254l-33 -254h-135l97 693h186l77 -563l-1 73q0 103 13 207l37 283h134zM741 98q-12 -83 -45 -134.5t-77.5 -79t-109.5 -50.5l-27 108q54 26 75.5 62t30.5 106l82 583h154z" />
    <glyph glyph-name="uni01CB" unicode="&#x1cb;" horiz-adv-x="774" 
d="M455 0h-185l-78 563v-55q0 -136 -15 -254l-33 -254h-135l97 693h186l77 -563l-1 73q0 103 13 207l37 283h134zM442 -111q35 15 56 32.5t34.5 48t20.5 80.5l67 481h149l-68 -479q-12 -86 -43.5 -138t-73.5 -80t-108 -55zM654.5 654.5q-20.5 20.5 -20.5 54.5q0 42 28 70
t68 28q37 0 57 -20.5t20 -54.5q0 -43 -27.5 -70.5t-68.5 -27.5q-36 0 -56.5 20.5z" />
    <glyph glyph-name="uni01CC" unicode="&#x1cc;" horiz-adv-x="705" 
d="M423.5 515.5q27.5 -32.5 27.5 -88.5q0 -17 -3 -37l-55 -390h-148l51 366q1 6 1 17q0 31 -20 31q-17 0 -36 -27t-44 -81l-43 -306h-148l74 531h129l-3 -84q30 47 65 74t78 27q47 0 74.5 -32.5zM373 -111q35 15 56 32.5t34.5 48t20.5 80.5l67 481h149l-68 -479
q-12 -86 -43.5 -138t-73.5 -80t-108 -55zM585.5 654.5q-20.5 20.5 -20.5 54.5q0 42 28 70t68 28q37 0 57 -20.5t20 -54.5q0 -43 -27.5 -70.5t-68.5 -27.5q-36 0 -56.5 20.5z" />
    <glyph glyph-name="uni01CD" unicode="&#x1cd;" horiz-adv-x="497" 
d="M310 0l-5 152h-146l-46 -152h-160l262 693h186l67 -693h-158zM193 265h108l-11 322zM444 938l54 -59l-137 -129h-89l-104 136l58 52l100 -84z" />
    <glyph glyph-name="uni01CE" unicode="&#x1ce;" horiz-adv-x="482" 
d="M474 499l-50 -350q-3 -16 -3 -30q0 -26 21 -35l-47 -98q-40 4 -68.5 23t-39.5 53q-29 -39 -59 -59t-72 -20q-66 0 -102 50.5t-36 137.5q0 98 28.5 183.5t91.5 139.5t160 54q89 0 176 -49zM198 357.5q-30 -82.5 -30 -189.5q0 -40 9.5 -57t29.5 -17q19 0 35.5 17t35.5 48
l39 276q-17 5 -32 5q-57 0 -87 -82.5zM444 807l49 -60l-136 -134h-89l-98 134l55 60l96 -91z" />
    <glyph glyph-name="uni01CF" unicode="&#x1cf;" horiz-adv-x="247" 
d="M261 693l-98 -693h-154l97 693h155zM319 938l54 -59l-137 -129h-89l-104 136l58 52l100 -84z" />
    <glyph glyph-name="uni01D0" unicode="&#x1d0;" horiz-adv-x="234" 
d="M228 531l-74 -531h-148l74 531h148zM296 807l49 -60l-136 -134h-89l-98 134l55 60l96 -91z" />
    <glyph glyph-name="uni01D1" unicode="&#x1d1;" horiz-adv-x="578" 
d="M512.5 644.5q55.5 -65.5 55.5 -193.5q0 -122 -34 -228.5t-106 -173t-178 -66.5t-161.5 65.5t-55.5 193.5q0 121 34 227.5t105.5 173.5t178.5 67q106 0 161.5 -65.5zM254 532.5q-34 -62.5 -49.5 -151t-15.5 -167.5q0 -61 17.5 -88.5t52.5 -27.5q54 0 88 61.5t49 149
t15 168.5q0 62 -17 90t-53 28q-53 0 -87 -62.5zM485 938l54 -59l-137 -129h-89l-104 136l58 52l100 -84z" />
    <glyph glyph-name="uni01D2" unicode="&#x1d2;" horiz-adv-x="489" 
d="M69.5 36.5q-48.5 53.5 -48.5 154.5q0 92 29 173.5t88 132.5t145 51q88 0 136.5 -53.5t48.5 -155.5q0 -92 -29 -173t-88 -132t-145 -51q-88 0 -136.5 53.5zM275 138q23 44 33.5 106t10.5 117q0 40 -11.5 57.5t-34.5 17.5q-36 0 -59 -43.5t-33 -105t-10 -117.5
q0 -40 11 -58t34 -18q36 0 59 44zM424 807l49 -60l-136 -134h-89l-98 134l55 60l96 -91z" />
    <glyph glyph-name="uni01D3" unicode="&#x1d3;" horiz-adv-x="528" 
d="M481 195q-13 -92 -79 -151.5t-173 -59.5q-100 0 -152 51.5t-52 131.5q0 23 2 35l70 491h154l-71 -508q-2 -14 -2 -21q0 -29 15 -46t46 -17q38 0 59.5 24.5t27.5 62.5l70 505h155zM459 938l54 -59l-137 -129h-89l-104 136l58 52l100 -84z" />
    <glyph glyph-name="uni01D4" unicode="&#x1d4;" horiz-adv-x="465" 
d="M47.5 15q-28.5 32 -28.5 87q0 17 3 35l55 394h148l-53 -376q-1 -5 -1 -14q0 -14 5.5 -21.5t14.5 -7.5q31 0 72 74l49 345h147l-74 -531h-129l4 75q-29 -44 -60 -68t-76 -24q-48 0 -76.5 32zM410 807l49 -60l-136 -134h-89l-98 134l55 60l96 -91z" />
    <glyph glyph-name="uni01D5" unicode="&#x1d5;" horiz-adv-x="528" 
d="M481 195q-13 -92 -79 -151.5t-173 -59.5q-100 0 -152 51.5t-52 131.5q0 23 2 35l70 491h154l-71 -508q-2 -14 -2 -21q0 -29 15 -46t46 -17q38 0 59.5 24.5t27.5 62.5l70 505h155zM182 764q-18 18 -18 48q0 36 24.5 61t58.5 25q32 0 49.5 -18t17.5 -48q0 -37 -24 -61.5
t-60 -24.5q-30 0 -48 18zM379 764q-18 18 -18 48q0 36 24.5 61t58.5 25q31 0 49 -18t18 -48q0 -37 -24 -61.5t-59 -24.5q-31 0 -49 18zM478 941h-256l16 106h256z" />
    <glyph glyph-name="uni01D6" unicode="&#x1d6;" horiz-adv-x="465" 
d="M47.5 15q-28.5 32 -28.5 87q0 17 3 35l55 394h148l-53 -376q-1 -5 -1 -14q0 -14 5.5 -21.5t14.5 -7.5q31 0 72 74l49 345h147l-74 -531h-129l4 75q-29 -44 -60 -68t-76 -24q-48 0 -76.5 32zM130 622q-18 18 -18 48q0 36 24.5 61t58.5 25q32 0 49.5 -18t17.5 -48
q0 -37 -24 -61.5t-60 -24.5q-30 0 -48 18zM327 622q-18 18 -18 48q0 36 24.5 61t58.5 25q31 0 49 -18t18 -48q0 -37 -24 -61.5t-59 -24.5q-31 0 -49 18zM427 802h-256l16 106h256z" />
    <glyph glyph-name="uni01D7" unicode="&#x1d7;" horiz-adv-x="528" 
d="M481 195q-13 -92 -79 -151.5t-173 -59.5q-100 0 -152 51.5t-52 131.5q0 23 2 35l70 491h154l-71 -508q-2 -14 -2 -21q0 -29 15 -46t46 -17q38 0 59.5 24.5t27.5 62.5l70 505h155zM434 1088l72 -75l-159 -145l-51 46zM180 767q-18 18 -18 47q0 37 25 61.5t59 24.5
q31 0 48.5 -17.5t17.5 -47.5q0 -37 -24.5 -61.5t-59.5 -24.5q-30 0 -48 18zM388 767q-18 18 -18 47q0 37 24.5 61.5t59.5 24.5q31 0 48.5 -17.5t17.5 -47.5q0 -37 -24.5 -61.5t-59.5 -24.5q-30 0 -48 18z" />
    <glyph glyph-name="uni01D8" unicode="&#x1d8;" horiz-adv-x="465" 
d="M47.5 15q-28.5 32 -28.5 87q0 17 3 35l55 394h148l-53 -376q-1 -5 -1 -14q0 -14 5.5 -21.5t14.5 -7.5q31 0 72 74l49 345h147l-74 -531h-129l4 75q-29 -44 -60 -68t-76 -24q-48 0 -76.5 32zM372 943l72 -75l-159 -145l-51 46zM118 622q-18 18 -18 47q0 37 25 62t59 25
q31 0 48.5 -18t17.5 -48q0 -37 -24.5 -61.5t-59.5 -24.5q-30 0 -48 18zM325.5 622q-17.5 18 -17.5 47q0 37 24.5 62t59.5 25q30 0 48 -18t18 -48q0 -36 -24.5 -61t-59.5 -25q-31 0 -48.5 18z" />
    <glyph glyph-name="uni01D9" unicode="&#x1d9;" horiz-adv-x="528" 
d="M481 195q-13 -92 -79 -151.5t-173 -59.5q-100 0 -152 51.5t-52 131.5q0 23 2 35l70 491h154l-71 -508q-2 -14 -2 -21q0 -29 15 -46t46 -17q38 0 59.5 24.5t27.5 62.5l70 505h155zM477 1088l54 -59l-137 -129h-89l-104 136l58 52l100 -84zM179.5 766.5
q-17.5 17.5 -17.5 47.5q0 37 24.5 61.5t58.5 24.5q31 0 49 -17.5t18 -47.5q0 -37 -24.5 -61.5t-59.5 -24.5q-31 0 -48.5 17.5zM387.5 766.5q-17.5 17.5 -17.5 47.5q0 37 24.5 61.5t58.5 24.5q31 0 48.5 -17.5t17.5 -47.5q0 -37 -24.5 -61.5t-58.5 -24.5q-31 0 -48.5 17.5z
" />
    <glyph glyph-name="uni01DA" unicode="&#x1da;" horiz-adv-x="465" 
d="M47.5 15q-28.5 32 -28.5 87q0 17 3 35l55 394h148l-53 -376q-1 -5 -1 -14q0 -14 5.5 -21.5t14.5 -7.5q31 0 72 74l49 345h147l-74 -531h-129l4 75q-29 -44 -60 -68t-76 -24q-48 0 -76.5 32zM417 944l54 -59l-137 -129h-89l-104 136l58 52l100 -84zM118.5 622
q-17.5 18 -17.5 47q0 37 24.5 62t59.5 25q30 0 48 -18t18 -48q0 -37 -24.5 -61.5t-59.5 -24.5q-31 0 -48.5 18zM326 622q-18 18 -18 47q0 37 24.5 62t59.5 25q30 0 48 -18t18 -48q0 -36 -24.5 -61t-59.5 -25q-30 0 -48 18z" />
    <glyph glyph-name="uni01DB" unicode="&#x1db;" horiz-adv-x="528" 
d="M481 195q-13 -92 -79 -151.5t-173 -59.5q-100 0 -152 51.5t-52 131.5q0 23 2 35l70 491h154l-71 -508q-2 -14 -2 -21q0 -29 15 -46t46 -17q38 0 59.5 24.5t27.5 62.5l70 505h155zM314 1085l88 -175l-63 -42l-117 151zM177 767q-18 18 -18 47q0 37 25 61.5t59 24.5
q31 0 48.5 -17.5t17.5 -47.5q0 -37 -24.5 -61.5t-59.5 -24.5q-30 0 -48 18zM385 767q-18 18 -18 47q0 37 24.5 61.5t59.5 24.5q31 0 48.5 -17.5t17.5 -47.5q0 -37 -24.5 -61.5t-59.5 -24.5q-30 0 -48 18z" />
    <glyph glyph-name="uni01DC" unicode="&#x1dc;" horiz-adv-x="465" 
d="M47.5 15q-28.5 32 -28.5 87q0 17 3 35l55 394h148l-53 -376q-1 -5 -1 -14q0 -14 5.5 -21.5t14.5 -7.5q31 0 72 74l49 345h147l-74 -531h-129l4 75q-29 -44 -60 -68t-76 -24q-48 0 -76.5 32zM253 940l88 -175l-63 -42l-117 151zM119.5 622q-18.5 18 -18.5 47q0 37 24.5 62
t59.5 25q30 0 48 -18t18 -48q0 -37 -24 -61.5t-59 -24.5q-30 0 -48.5 18zM327 622q-18 18 -18 47q0 37 24.5 62t58.5 25q31 0 49 -18t18 -48q0 -36 -24.5 -61t-59.5 -25q-30 0 -48 18z" />
    <glyph glyph-name="uni01DD" unicode="&#x1dd;" horiz-adv-x="458" 
d="M388 496.5q50 -51.5 50 -150.5q0 -98 -30 -180.5t-91.5 -132.5t-150.5 -50q-76 0 -120 39t-44 100q0 103 80 151.5t209 64.5v14q0 84 -65 84q-27 0 -52 -11t-59 -35l-52 87q84 71 188 71q87 0 137 -51.5zM245.5 130.5q24.5 45.5 36.5 114.5q-70 -7 -103 -39t-33 -79
q0 -42 37 -42q38 0 62.5 45.5z" />
    <glyph glyph-name="uni01DE" unicode="&#x1de;" horiz-adv-x="497" 
d="M310 0l-5 152h-146l-46 -152h-160l262 693h186l67 -693h-158zM193 265h108l-11 322zM167 764q-18 18 -18 48q0 36 24.5 61t58.5 25q32 0 49.5 -18t17.5 -48q0 -37 -24 -61.5t-60 -24.5q-30 0 -48 18zM364 764q-18 18 -18 48q0 36 24.5 61t58.5 25q31 0 49 -18t18 -48
q0 -37 -24 -61.5t-59 -24.5q-31 0 -49 18zM463 941h-256l16 106h256z" />
    <glyph glyph-name="uni01DF" unicode="&#x1df;" horiz-adv-x="482" 
d="M474 499l-50 -350q-3 -16 -3 -30q0 -26 21 -35l-47 -98q-40 4 -68.5 23t-39.5 53q-29 -39 -59 -59t-72 -20q-66 0 -102 50.5t-36 137.5q0 98 28.5 183.5t91.5 139.5t160 54q89 0 176 -49zM198 357.5q-30 -82.5 -30 -189.5q0 -40 9.5 -57t29.5 -17q19 0 35.5 17t35.5 48
l39 276q-17 5 -32 5q-57 0 -87 -82.5zM164 622q-18 18 -18 48q0 36 24.5 61t58.5 25q32 0 49.5 -18t17.5 -48q0 -37 -24 -61.5t-60 -24.5q-30 0 -48 18zM361 622q-18 18 -18 48q0 36 24.5 61t58.5 25q31 0 49 -18t18 -48q0 -37 -24 -61.5t-59 -24.5q-31 0 -49 18zM461 802
h-256l16 106h256z" />
    <glyph glyph-name="uni01E0" unicode="&#x1e0;" horiz-adv-x="497" 
d="M310 0l-5 152h-146l-46 -152h-160l262 693h186l67 -693h-158zM193 265h108l-11 322zM257.5 757.5q-20.5 20.5 -20.5 54.5q0 42 28 70t68 28q37 0 57 -20.5t20 -54.5q0 -43 -27.5 -70.5t-68.5 -27.5q-36 0 -56.5 20.5zM468 941h-256l16 106h256z" />
    <glyph glyph-name="uni01E1" unicode="&#x1e1;" horiz-adv-x="482" 
d="M474 499l-50 -350q-3 -16 -3 -30q0 -26 21 -35l-47 -98q-40 4 -68.5 23t-39.5 53q-29 -39 -59 -59t-72 -20q-66 0 -102 50.5t-36 137.5q0 98 28.5 183.5t91.5 139.5t160 54q89 0 176 -49zM198 357.5q-30 -82.5 -30 -189.5q0 -40 9.5 -57t29.5 -17q19 0 35.5 17t35.5 48
l39 276q-17 5 -32 5q-57 0 -87 -82.5zM255.5 615.5q-20.5 20.5 -20.5 54.5q0 42 28 70t68 28q37 0 57 -20.5t20 -54.5q0 -43 -27.5 -70.5t-68.5 -27.5q-36 0 -56.5 20.5zM465 804h-256l16 106h256z" />
    <glyph glyph-name="uni01E2" unicode="&#x1e2;" horiz-adv-x="698" 
d="M676 581h-206l1 -175h192l-17 -111h-174l1 -181h186l-18 -114h-310l2 152h-160l-58 -152h-165l308 693h451zM217 266h117l3 312zM596 782h-256l16 106h256z" />
    <glyph glyph-name="uni01E3" unicode="&#x1e3;" horiz-adv-x="703" 
d="M323 532q29 -15 51 -46q67 62 163 62q76 0 120 -39t44 -100q0 -103 -80.5 -152t-208.5 -64q0 -52 15 -75t51 -23q27 0 52.5 11t58.5 35l51 -87q-84 -71 -189 -71q-54 0 -94 20.5t-63 59.5q-35 -43 -73 -61t-81 -18q-63 0 -100 38t-37 101q0 84 53.5 140.5t184.5 56.5h41
q6 31 18 56q-6 29 -26.5 44.5t-50.5 15.5q-46 0 -116 -26l-18 100q85 37 161 37q44 0 73 -15zM457 400.5q-25 -45.5 -36 -114.5q70 7 103.5 39t33.5 79q0 42 -37 42q-39 0 -64 -45.5zM239 233q-38 0 -59 -23t-21 -69q0 -50 36 -50q18 0 35 15t37 47q-1 10 -1 33q0 25 2 47
h-29zM532 656h-256l16 106h256z" />
    <glyph glyph-name="uni01E4" unicode="&#x1e4;" horiz-adv-x="557" 
d="M544 173h-57l-15 -117q-51 -35 -109 -53.5t-112 -18.5q-110 0 -165 64.5t-55 190.5q0 123 39 231t116 174t185 66q112 0 184 -86l-84 -76q-25 25 -48.5 36.5t-54.5 11.5q-63 0 -104 -57.5t-59 -144t-18 -178.5q0 -61 18.5 -89t54.5 -28q41 0 82 25l6 49h-69l12 90h69
l7 52h-71l-1 96h224l-20 -148h57z" />
    <glyph glyph-name="uni01E5" unicode="&#x1e5;" horiz-adv-x="481" 
d="M404 -5h43l-8 -63h-52q-27 -79 -81.5 -116.5t-139.5 -37.5q-94 0 -172 55l51 91q61 -37 116 -37q60 0 83 45h-89l8 63h98l12 94q-22 -32 -49.5 -49.5t-65.5 -17.5q-64 0 -99.5 50t-35.5 137q0 85 27.5 162t89.5 127t158 50q90 0 177 -49l-67 -477zM285 197l33 238
q-17 5 -33 5q-38 0 -63.5 -35.5t-37.5 -89.5t-12 -109q0 -39 9.5 -56t29.5 -17q34 0 74 64z" />
    <glyph glyph-name="Gcaron" unicode="&#x1e6;" horiz-adv-x="539" 
d="M555 624l-84 -76q-25 25 -48.5 36.5t-54.5 11.5q-63 0 -104 -57.5t-59 -144t-18 -178.5q0 -61 18.5 -89t54.5 -28t76 24l23 163h-65l1 111h225l-48 -341q-51 -35 -109 -53.5t-112 -18.5q-110 0 -165 64.5t-55 190.5q0 123 39 231t116 174t185 66q112 0 184 -86zM496 938
l54 -59l-137 -129h-89l-104 136l58 52l100 -84z" />
    <glyph glyph-name="gcaron" unicode="&#x1e7;" horiz-adv-x="482" 
d="M476 499l-67 -477q-18 -126 -77 -185t-165 -59q-94 0 -172 55l54 97q58 -36 113 -36q40 0 66 23t34 84l9 65q-24 -32 -51 -49.5t-65 -17.5q-64 0 -99.5 50.5t-35.5 135.5q0 96 28.5 178t91 133.5t159.5 51.5q90 0 177 -49zM199.5 363q-29.5 -77 -29.5 -181
q0 -38 9.5 -54.5t29.5 -16.5q32 0 74 64l36 260q-17 5 -33 5q-57 0 -86.5 -77zM434 807l49 -60l-136 -134h-89l-98 134l55 60l96 -91z" />
    <glyph glyph-name="uni01E8" unicode="&#x1e8;" horiz-adv-x="538" 
d="M9 0l97 693h155l-98 -693h-154zM338 0l-118 370l211 323h156l-211 -321l129 -372h-167zM466 938l54 -59l-137 -129h-89l-104 136l58 52l100 -84z" />
    <glyph glyph-name="uni01E9" unicode="&#x1e9;" horiz-adv-x="483" 
d="M219 463q32 43 68 63.5t80 20.5q55 0 88 -33t33 -86q0 -60 -30.5 -104.5t-94.5 -82.5l71 -241h-154l-65 256q69 28 96.5 63t27.5 81q0 20 -9 30.5t-24 10.5q-49 0 -106 -108l-46 -333h-149l104 742l151 16zM471 987l54 -59l-137 -129h-89l-104 136l58 52l100 -84z" />
    <glyph glyph-name="uni01EA" unicode="&#x1ea;" horiz-adv-x="578" 
d="M237 -116q0 -33 38 -33q19 0 47 5l-22 -92q-24 -7 -58 -7q-50 0 -81 29t-31 78q0 74 68 123q-81 15 -123 79.5t-42 175.5q0 121 34 227.5t105.5 173.5t178.5 67q106 0 161.5 -65.5t55.5 -193.5q0 -102 -24.5 -195.5t-75 -162t-126.5 -95.5q-105 -49 -105 -114zM254 532.5
q-34 -62.5 -49.5 -151t-15.5 -167.5q0 -61 17.5 -88.5t52.5 -27.5q54 0 88 61.5t49 149t15 168.5q0 62 -17 90t-53 28q-53 0 -87 -62.5z" />
    <glyph glyph-name="uni01EB" unicode="&#x1eb;" horiz-adv-x="489" 
d="M186 -116q0 -33 38 -33q19 0 47 5l-22 -92q-24 -7 -58 -7q-50 0 -81 29t-31 78q0 74 71 125q-62 16 -95.5 67.5t-33.5 134.5q0 92 29 173.5t88 132.5t145 51q88 0 136.5 -53.5t48.5 -155.5q0 -115 -44.5 -210t-129.5 -130q-108 -49 -108 -115zM214 392.5
q-23 -43.5 -33 -105t-10 -117.5q0 -40 11 -58t34 -18q36 0 59 44t33.5 106t10.5 117q0 40 -11.5 57.5t-34.5 17.5q-36 0 -59 -43.5z" />
    <glyph glyph-name="uni01EC" unicode="&#x1ec;" horiz-adv-x="578" 
d="M502 888l-16 -106h-256l16 106h256zM237 -116q0 -33 38 -33q19 0 47 5l-22 -92q-24 -7 -58 -7q-50 0 -81 29t-31 78q0 74 68 123q-81 15 -123 79.5t-42 175.5q0 121 34 227.5t105.5 173.5t178.5 67q106 0 161.5 -65.5t55.5 -193.5q0 -102 -24.5 -195.5t-75 -162
t-126.5 -95.5q-105 -49 -105 -114zM254 532.5q-34 -62.5 -49.5 -151t-15.5 -167.5q0 -61 17.5 -88.5t52.5 -27.5q54 0 88 61.5t49 149t15 168.5q0 62 -17 90t-53 28q-53 0 -87 -62.5z" />
    <glyph glyph-name="uni01ED" unicode="&#x1ed;" horiz-adv-x="489" 
d="M442 762l-16 -106h-256l16 106h256zM186 -116q0 -33 38 -33q19 0 47 5l-22 -92q-24 -7 -58 -7q-50 0 -81 29t-31 78q0 74 71 125q-62 16 -95.5 67.5t-33.5 134.5q0 92 29 173.5t88 132.5t145 51q88 0 136.5 -53.5t48.5 -155.5q0 -115 -44.5 -210t-129.5 -130
q-108 -49 -108 -115zM214 392.5q-23 -43.5 -33 -105t-10 -117.5q0 -40 11 -58t34 -18q36 0 59 44t33.5 106t10.5 117q0 40 -11.5 57.5t-34.5 17.5q-36 0 -59 -43.5z" />
    <glyph glyph-name="uni01EE" unicode="&#x1ee;" horiz-adv-x="452" 
d="M448 582l-166 -181q74 -5 112.5 -47t38.5 -115q0 -78 -35 -135.5t-94 -88.5t-130 -31q-72 0 -117.5 26t-76.5 76l90 72q25 -31 47.5 -44.5t55.5 -13.5q44 0 73 36t29 95q0 79 -79 79h-85l1 1l13 88l159 180h-203l18 114h367zM418 938l54 -59l-137 -129h-89l-104 136
l58 52l100 -84z" />
    <glyph glyph-name="uni01EF" unicode="&#x1ef;" horiz-adv-x="422" 
d="M402 427l-179 -219q154 -16 154 -163q0 -81 -33.5 -141t-92 -92.5t-131.5 -32.5q-125 0 -186 102l89 71q24 -31 46.5 -44t52.5 -13q47 0 75.5 39t28.5 107q0 45 -20 63t-60 18h-79l13 89l167 207h-206l16 113h360zM380 807l49 -60l-136 -134h-89l-98 134l55 60l96 -91z
" />
    <glyph glyph-name="uni01F0" unicode="&#x1f0;" horiz-adv-x="235" 
d="M-97 -111q35 15 56 32.5t34.5 48t20.5 80.5l67 481h149l-68 -479q-12 -86 -43.5 -138t-73.5 -80t-108 -55zM298 807l49 -60l-136 -134h-89l-98 134l55 60l96 -91z" />
    <glyph glyph-name="uni01F1" unicode="&#x1f1;" horiz-adv-x="968" 
d="M468 639.5q69 -53.5 69 -189.5q0 -205 -83.5 -327.5t-261.5 -122.5h-183l97 693h176q117 0 186 -53.5zM244 580l-65 -466h38q60 0 96.5 52t52 129.5t15.5 158.5q0 69 -24 97.5t-71 28.5h-42zM496 0l17 117l306 454h-222l19 122h389l-18 -119l-307 -449h255l-35 -125h-404
z" />
    <glyph glyph-name="uni01F2" unicode="&#x1f2;" horiz-adv-x="919" 
d="M468 639.5q69 -53.5 69 -189.5q0 -205 -83.5 -327.5t-261.5 -122.5h-183l97 693h176q117 0 186 -53.5zM244 580l-65 -466h38q60 0 96.5 52t52 129.5t15.5 158.5q0 69 -24 97.5t-71 28.5h-42zM938 531l-16 -107l-223 -309h188l-30 -115h-348l16 107l223 310h-166l18 114
h338z" />
    <glyph glyph-name="uni01F3" unicode="&#x1f3;" horiz-adv-x="873" 
d="M516 742l-104 -742h-131l3 66q-27 -41 -58 -62t-73 -21q-64 0 -99 49t-35 140q0 93 25.5 179.5t76 141.5t120.5 55q61 0 93 -50l36 259zM214.5 395q-22.5 -43 -33.5 -105.5t-11 -117.5q0 -43 10.5 -60.5t29.5 -17.5q20 0 39 20t39 57l32 229q-10 19 -21.5 28.5t-28.5 9.5
q-33 0 -55.5 -43zM892 531l-16 -107l-223 -309h188l-30 -115h-348l16 107l223 310h-166l18 114h338z" />
    <glyph glyph-name="uni01F4" unicode="&#x1f4;" horiz-adv-x="539" 
d="M555 624l-84 -76q-25 25 -48.5 36.5t-54.5 11.5q-63 0 -104 -57.5t-59 -144t-18 -178.5q0 -61 18.5 -89t54.5 -28t76 24l23 163h-65l1 111h225l-48 -341q-51 -35 -109 -53.5t-112 -18.5q-110 0 -165 64.5t-55 190.5q0 123 39 231t116 174t185 66q112 0 184 -86zM459 939
l51 -108l-211 -83l-36 70z" />
    <glyph glyph-name="uni01F5" unicode="&#x1f5;" horiz-adv-x="482" 
d="M476 499l-67 -477q-18 -126 -77 -185t-165 -59q-94 0 -172 55l54 97q58 -36 113 -36q40 0 66 23t34 84l9 65q-24 -32 -51 -49.5t-65 -17.5q-64 0 -99.5 50.5t-35.5 135.5q0 96 28.5 178t91 133.5t159.5 51.5q90 0 177 -49zM199.5 363q-29.5 -77 -29.5 -181
q0 -38 9.5 -54.5t29.5 -16.5q32 0 74 64l36 260q-17 5 -33 5q-57 0 -86.5 -77zM387 826l51 -108l-211 -94l-38 71z" />
    <glyph glyph-name="uni01F6" unicode="&#x1f6;" horiz-adv-x="774" 
d="M367.5 28.5q-42.5 44.5 -42.5 107.5q0 8 2 24l19 139h-141l-42 -299h-154l97 693h155l-39 -271h141l38 271h154l-75 -539q-1 -7 -1 -19q0 -40 31 -40q56 0 78.5 108.5t22.5 234.5q0 53 -3 93h140q5 -53 5 -93q0 -138 -21 -237t-78 -158t-161 -59q-83 0 -125.5 44.5z" />
    <glyph glyph-name="uni01F7" unicode="&#x1f7;" horiz-adv-x="492" 
d="M481.5 666.5q37.5 -43.5 37.5 -121.5q0 -82 -33.5 -140t-90 -97.5t-141.5 -77.5l-62 -27l-29 -203h-154l97 693h155l-5 -33q53 50 125 50q63 0 100.5 -43.5zM327 416.5q31 48.5 31 115.5t-46 67q-36 0 -69 -36l-35 -245l27 15q61 35 92 83.5z" />
    <glyph glyph-name="uni01F8" unicode="&#x1f8;" horiz-adv-x="539" 
d="M455 0h-185l-78 563v-55q0 -136 -15 -254l-33 -254h-135l97 693h186l77 -563l-1 73q0 103 13 207l37 283h134zM305 936l170 -121l-45 -66l-189 81z" />
    <glyph glyph-name="uni01F9" unicode="&#x1f9;" horiz-adv-x="470" 
d="M423.5 515.5q27.5 -32.5 27.5 -88.5q0 -17 -3 -37l-55 -390h-148l51 366q1 6 1 17q0 31 -20 31q-17 0 -36 -27t-44 -81l-43 -306h-148l74 531h129l-3 -84q30 47 65 74t78 27q47 0 74.5 -32.5zM259 824l167 -131l-44 -67l-189 92z" />
    <glyph glyph-name="Aringacute" unicode="&#x1fa;" horiz-adv-x="497" 
d="M310 0l-5 152h-146l-46 -152h-160l262 693h186l67 -693h-158zM193 265h108l-11 322zM419.5 950.5q28.5 -31.5 28.5 -81.5q0 -60 -38 -100.5t-99 -40.5q-50 0 -78 31t-28 81q0 60 38 101t98 41q50 0 78.5 -31.5zM301 889q-12 -19 -12 -45q0 -42 30 -42q21 0 33 19t12 45
q0 42 -30 42q-21 0 -33 -19zM414 1179l51 -108l-211 -83l-36 70z" />
    <glyph glyph-name="aringacute" unicode="&#x1fb;" horiz-adv-x="482" 
d="M474 499l-50 -350q-3 -16 -3 -30q0 -26 21 -35l-47 -98q-40 4 -68.5 23t-39.5 53q-29 -39 -59 -59t-72 -20q-66 0 -102 50.5t-36 137.5q0 98 28.5 183.5t91.5 139.5t160 54q89 0 176 -49zM198 357.5q-30 -82.5 -30 -189.5q0 -40 9.5 -57t29.5 -17q19 0 35.5 17t35.5 48
l39 276q-17 5 -32 5q-57 0 -87 -82.5zM419.5 801.5q28.5 -31.5 28.5 -81.5q0 -60 -38 -100.5t-99 -40.5q-50 0 -78 31t-28 81q0 60 38 101t98 41q50 0 78.5 -31.5zM301 740q-12 -19 -12 -45q0 -42 30 -42q21 0 33 19t12 45q0 42 -30 42q-21 0 -33 -19zM418 1031l51 -108
l-211 -83l-36 70z" />
    <glyph glyph-name="AEacute" unicode="&#x1fc;" horiz-adv-x="698" 
d="M676 581h-206l1 -175h192l-17 -111h-174l1 -181h186l-18 -114h-310l2 152h-160l-58 -152h-165l308 693h451zM217 266h117l3 312zM558 939l51 -108l-211 -83l-36 70z" />
    <glyph glyph-name="aeacute" unicode="&#x1fd;" horiz-adv-x="703" 
d="M323 532q29 -15 51 -46q67 62 163 62q76 0 120 -39t44 -100q0 -103 -80.5 -152t-208.5 -64q0 -52 15 -75t51 -23q27 0 52.5 11t58.5 35l51 -87q-84 -71 -189 -71q-54 0 -94 20.5t-63 59.5q-35 -43 -73 -61t-81 -18q-63 0 -100 38t-37 101q0 84 53.5 140.5t184.5 56.5h41
q6 31 18 56q-6 29 -26.5 44.5t-50.5 15.5q-46 0 -116 -26l-18 100q85 37 161 37q44 0 73 -15zM457 400.5q-25 -45.5 -36 -114.5q70 7 103.5 39t33.5 79q0 42 -37 42q-39 0 -64 -45.5zM239 233q-38 0 -59 -23t-21 -69q0 -50 36 -50q18 0 35 15t37 47q-1 10 -1 33q0 25 2 47
h-29zM483 826l51 -108l-211 -94l-38 71z" />
    <glyph glyph-name="Oslashacute" unicode="&#x1fe;" horiz-adv-x="578" 
d="M547 579q21 -55 21 -128q0 -122 -34 -228.5t-106 -173t-178 -66.5q-12 0 -32 2l-43 -118l-109 31l48 130q-39 33 -60 87.5t-21 126.5q0 121 34 227.5t105.5 173.5t178.5 67q10 0 30 -2l44 119l108 -32l-47 -129q40 -32 61 -87zM250 533q-36 -63 -51.5 -151t-15.5 -168
q0 -48 10 -74l160 455q-4 1 -12 1q-55 0 -91 -63zM351.5 158q35.5 62 50.5 149.5t15 169.5q0 46 -9 73l-159 -454h10q57 0 92.5 62zM434 971l51 -108l-211 -83l-36 70z" />
    <glyph glyph-name="oslashacute" unicode="&#x1ff;" horiz-adv-x="489" 
d="M450.5 439.5q17.5 -43.5 17.5 -100.5q0 -92 -29 -173t-88 -132t-145 -51q-14 0 -20 1l-46 -118l-101 32l50 122q-68 56 -68 171q0 92 29 173.5t88 132.5t145 51q15 0 22 -1l44 118l102 -32l-50 -124q32 -26 49.5 -69.5zM186.5 360q-28.5 -85 -28.5 -190q0 -29 4 -45l3 4
l109 305l3 11h-4q-58 0 -86.5 -85zM281 127.5q26 42.5 38 105.5t12 128q0 24 -3 40l-3 -4l-107 -300l-3 -12h1q39 0 65 42.5zM379 839l51 -108l-211 -94l-38 71z" />
    <glyph glyph-name="uni0200" unicode="&#x200;" horiz-adv-x="497" 
d="M310 0l-5 152h-146l-46 -152h-160l262 693h186l67 -693h-158zM193 265h108l-11 322zM238 983l57 -198l-83 -33l-83 186zM386 983l50 -198l-82 -28l-78 184z" />
    <glyph glyph-name="uni0201" unicode="&#x201;" horiz-adv-x="482" 
d="M474 499l-50 -350q-3 -16 -3 -30q0 -26 21 -35l-47 -98q-40 4 -68.5 23t-39.5 53q-29 -39 -59 -59t-72 -20q-66 0 -102 50.5t-36 137.5q0 98 28.5 183.5t91.5 139.5t160 54q89 0 176 -49zM198 357.5q-30 -82.5 -30 -189.5q0 -40 9.5 -57t29.5 -17q19 0 35.5 17t35.5 48
l39 276q-17 5 -32 5q-57 0 -87 -82.5zM239 857l57 -198l-83 -33l-83 186zM387 857l50 -198l-82 -28l-78 184z" />
    <glyph glyph-name="uni0202" unicode="&#x202;" horiz-adv-x="497" 
d="M310 0l-5 152h-146l-46 -152h-160l262 693h186l67 -693h-158zM193 265h108l-11 322zM172 782q18 75 60.5 120.5t108.5 45.5q63 0 95 -41.5t32 -109.5l-1 -19l-81 -11q-3 76 -56 76q-54 0 -80 -80z" />
    <glyph glyph-name="uni0203" unicode="&#x203;" horiz-adv-x="482" 
d="M474 499l-50 -350q-3 -16 -3 -30q0 -26 21 -35l-47 -98q-40 4 -68.5 23t-39.5 53q-29 -39 -59 -59t-72 -20q-66 0 -102 50.5t-36 137.5q0 98 28.5 183.5t91.5 139.5t160 54q89 0 176 -49zM198 357.5q-30 -82.5 -30 -189.5q0 -40 9.5 -57t29.5 -17q19 0 35.5 17t35.5 48
l39 276q-17 5 -32 5q-57 0 -87 -82.5zM166 620q18 75 60.5 120.5t108.5 45.5q63 0 95 -41.5t32 -109.5l-1 -19l-81 -11q-3 76 -56 76q-54 0 -80 -80z" />
    <glyph glyph-name="uni0204" unicode="&#x204;" horiz-adv-x="426" 
d="M465 693l-34 -112h-186l-25 -174h166l-16 -110h-165l-26 -183h204l-17 -114h-357l97 693h359zM216 983l57 -198l-83 -33l-83 186zM364 983l50 -198l-82 -28l-78 184z" />
    <glyph glyph-name="uni0205" unicode="&#x205;" horiz-adv-x="458" 
d="M412 509q44 -39 44 -100q0 -103 -80 -151.5t-209 -64.5v-14q0 -84 65 -84q27 0 52 11t59 35l52 -87q-84 -71 -188 -71q-87 0 -137 51.5t-50 150.5q0 98 30 180.5t91.5 132.5t150.5 50q76 0 120 -39zM279 325q33 32 33 79q0 42 -37 42q-38 0 -62.5 -45.5t-36.5 -114.5
q70 7 103 39zM222 857l57 -198l-83 -33l-83 186zM370 857l50 -198l-82 -28l-78 184z" />
    <glyph glyph-name="uni0206" unicode="&#x206;" horiz-adv-x="426" 
d="M465 693l-34 -112h-186l-25 -174h166l-16 -110h-165l-26 -183h204l-17 -114h-357l97 693h359zM150 782q18 75 60.5 120.5t108.5 45.5q63 0 95 -41.5t32 -109.5l-1 -19l-81 -11q-3 76 -56 76q-54 0 -80 -80z" />
    <glyph glyph-name="uni0207" unicode="&#x207;" horiz-adv-x="458" 
d="M412 509q44 -39 44 -100q0 -103 -80 -151.5t-209 -64.5v-14q0 -84 65 -84q27 0 52 11t59 35l52 -87q-84 -71 -188 -71q-87 0 -137 51.5t-50 150.5q0 98 30 180.5t91.5 132.5t150.5 50q76 0 120 -39zM279 325q33 32 33 79q0 42 -37 42q-38 0 -62.5 -45.5t-36.5 -114.5
q70 7 103 39zM149 620q18 75 60.5 120.5t108.5 45.5q63 0 95 -41.5t32 -109.5l-1 -19l-81 -11q-3 76 -56 76q-54 0 -80 -80z" />
    <glyph glyph-name="uni0208" unicode="&#x208;" horiz-adv-x="247" 
d="M261 693l-98 -693h-154l97 693h155zM113 983l57 -198l-83 -33l-83 186zM261 983l50 -198l-82 -28l-78 184z" />
    <glyph glyph-name="uni0209" unicode="&#x209;" horiz-adv-x="234" 
d="M228 531l-74 -531h-148l74 531h148zM91 857l57 -198l-83 -33l-83 186zM239 857l50 -198l-82 -28l-78 184z" />
    <glyph glyph-name="uni020A" unicode="&#x20a;" horiz-adv-x="247" 
d="M261 693l-98 -693h-154l97 693h155zM47 782q18 75 60.5 120.5t108.5 45.5q63 0 95 -41.5t32 -109.5l-1 -19l-81 -11q-3 76 -56 76q-54 0 -80 -80z" />
    <glyph glyph-name="uni020B" unicode="&#x20b;" horiz-adv-x="234" 
d="M228 531l-74 -531h-148l74 531h148zM18 620q18 75 60.5 120.5t108.5 45.5q63 0 95 -41.5t32 -109.5l-1 -19l-81 -11q-3 76 -56 76q-54 0 -80 -80z" />
    <glyph glyph-name="uni020C" unicode="&#x20c;" horiz-adv-x="578" 
d="M512.5 644.5q55.5 -65.5 55.5 -193.5q0 -122 -34 -228.5t-106 -173t-178 -66.5t-161.5 65.5t-55.5 193.5q0 121 34 227.5t105.5 173.5t178.5 67q106 0 161.5 -65.5zM254 532.5q-34 -62.5 -49.5 -151t-15.5 -167.5q0 -61 17.5 -88.5t52.5 -27.5q54 0 88 61.5t49 149
t15 168.5q0 62 -17 90t-53 28q-53 0 -87 -62.5zM279 983l57 -198l-83 -33l-83 186zM427 983l50 -198l-82 -28l-78 184z" />
    <glyph glyph-name="uni020D" unicode="&#x20d;" horiz-adv-x="489" 
d="M69.5 36.5q-48.5 53.5 -48.5 154.5q0 92 29 173.5t88 132.5t145 51q88 0 136.5 -53.5t48.5 -155.5q0 -92 -29 -173t-88 -132t-145 -51q-88 0 -136.5 53.5zM275 138q23 44 33.5 106t10.5 117q0 40 -11.5 57.5t-34.5 17.5q-36 0 -59 -43.5t-33 -105t-10 -117.5
q0 -40 11 -58t34 -18q36 0 59 44zM219 857l57 -198l-83 -33l-83 186zM367 857l50 -198l-82 -28l-78 184z" />
    <glyph glyph-name="uni020E" unicode="&#x20e;" horiz-adv-x="578" 
d="M512.5 644.5q55.5 -65.5 55.5 -193.5q0 -122 -34 -228.5t-106 -173t-178 -66.5t-161.5 65.5t-55.5 193.5q0 121 34 227.5t105.5 173.5t178.5 67q106 0 161.5 -65.5zM254 532.5q-34 -62.5 -49.5 -151t-15.5 -167.5q0 -61 17.5 -88.5t52.5 -27.5q54 0 88 61.5t49 149
t15 168.5q0 62 -17 90t-53 28q-53 0 -87 -62.5zM213 782q18 75 60.5 120.5t108.5 45.5q63 0 95 -41.5t32 -109.5l-1 -19l-81 -11q-3 76 -56 76q-54 0 -80 -80z" />
    <glyph glyph-name="uni020F" unicode="&#x20f;" horiz-adv-x="489" 
d="M69.5 36.5q-48.5 53.5 -48.5 154.5q0 92 29 173.5t88 132.5t145 51q88 0 136.5 -53.5t48.5 -155.5q0 -92 -29 -173t-88 -132t-145 -51q-88 0 -136.5 53.5zM275 138q23 44 33.5 106t10.5 117q0 40 -11.5 57.5t-34.5 17.5q-36 0 -59 -43.5t-33 -105t-10 -117.5
q0 -40 11 -58t34 -18q36 0 59 44zM146 620q18 75 60.5 120.5t108.5 45.5q63 0 95 -41.5t32 -109.5l-1 -19l-81 -11q-3 76 -56 76q-54 0 -80 -80z" />
    <glyph glyph-name="uni0210" unicode="&#x210;" horiz-adv-x="510" 
d="M383 299l98 -299h-159l-78 267h-43l-38 -267h-154l97 693h178q115 0 171.5 -46.5t56.5 -132.5q0 -145 -129 -215zM216 376h32q57 0 82.5 38.5t25.5 94.5q0 39 -18.5 56t-58.5 17h-34zM233 983l57 -198l-83 -33l-83 186zM381 983l50 -198l-82 -28l-78 184z" />
    <glyph glyph-name="uni0211" unicode="&#x211;" horiz-adv-x="332" 
d="M375 538l-46 -145q-22 6 -36 6q-36 0 -60.5 -39t-44.5 -111l-34 -249h-148l74 531h127l-3 -89q24 50 55 77t73 27q21 0 43 -8zM163 857l57 -198l-83 -33l-83 186zM311 857l50 -198l-82 -28l-78 184z" />
    <glyph glyph-name="uni0212" unicode="&#x212;" horiz-adv-x="510" 
d="M383 299l98 -299h-159l-78 267h-43l-38 -267h-154l97 693h178q115 0 171.5 -46.5t56.5 -132.5q0 -145 -129 -215zM216 376h32q57 0 82.5 38.5t25.5 94.5q0 39 -18.5 56t-58.5 17h-34zM167 782q18 75 60.5 120.5t108.5 45.5q63 0 95 -41.5t32 -109.5l-1 -19l-81 -11
q-3 76 -56 76q-54 0 -80 -80z" />
    <glyph glyph-name="uni0213" unicode="&#x213;" horiz-adv-x="332" 
d="M375 538l-46 -145q-22 6 -36 6q-36 0 -60.5 -39t-44.5 -111l-34 -249h-148l74 531h127l-3 -89q24 50 55 77t73 27q21 0 43 -8zM90 620q18 75 60.5 120.5t108.5 45.5q63 0 95 -41.5t32 -109.5l-1 -19l-81 -11q-3 76 -56 76q-54 0 -80 -80z" />
    <glyph glyph-name="uni0214" unicode="&#x214;" horiz-adv-x="528" 
d="M481 195q-13 -92 -79 -151.5t-173 -59.5q-100 0 -152 51.5t-52 131.5q0 23 2 35l70 491h154l-71 -508q-2 -14 -2 -21q0 -29 15 -46t46 -17q38 0 59.5 24.5t27.5 62.5l70 505h155zM253 983l57 -198l-83 -33l-83 186zM401 983l50 -198l-82 -28l-78 184z" />
    <glyph glyph-name="uni0215" unicode="&#x215;" horiz-adv-x="465" 
d="M47.5 15q-28.5 32 -28.5 87q0 17 3 35l55 394h148l-53 -376q-1 -5 -1 -14q0 -14 5.5 -21.5t14.5 -7.5q31 0 72 74l49 345h147l-74 -531h-129l4 75q-29 -44 -60 -68t-76 -24q-48 0 -76.5 32zM205 857l57 -198l-83 -33l-83 186zM353 857l50 -198l-82 -28l-78 184z" />
    <glyph glyph-name="uni0216" unicode="&#x216;" horiz-adv-x="528" 
d="M481 195q-13 -92 -79 -151.5t-173 -59.5q-100 0 -152 51.5t-52 131.5q0 23 2 35l70 491h154l-71 -508q-2 -14 -2 -21q0 -29 15 -46t46 -17q38 0 59.5 24.5t27.5 62.5l70 505h155zM187 782q18 75 60.5 120.5t108.5 45.5q63 0 95 -41.5t32 -109.5l-1 -19l-81 -11
q-3 76 -56 76q-54 0 -80 -80z" />
    <glyph glyph-name="uni0217" unicode="&#x217;" horiz-adv-x="465" 
d="M47.5 15q-28.5 32 -28.5 87q0 17 3 35l55 394h148l-53 -376q-1 -5 -1 -14q0 -14 5.5 -21.5t14.5 -7.5q31 0 72 74l49 345h147l-74 -531h-129l4 75q-29 -44 -60 -68t-76 -24q-48 0 -76.5 32zM132 620q18 75 60.5 120.5t108.5 45.5q63 0 95 -41.5t32 -109.5l-1 -19l-81 -11
q-3 76 -56 76q-54 0 -80 -80z" />
    <glyph glyph-name="Scommaaccent" unicode="&#x218;" horiz-adv-x="473" 
d="M413.5 687q47.5 -23 84.5 -67l-79 -79q-26 27 -53 40.5t-59 13.5q-41 0 -64.5 -23.5t-23.5 -59.5q0 -30 19 -50t77 -48q68 -34 100.5 -76t32.5 -111t-33.5 -124.5t-93 -87.5t-134.5 -32q-133 0 -214 99l85 80q32 -32 61.5 -47.5t68.5 -15.5q47 0 75 28.5t28 74.5
q0 37 -21 59t-79 51q-69 34 -98.5 73t-29.5 103q0 63 31 113.5t85.5 79.5t122.5 29q64 0 111.5 -23zM236.5 -87.5q18.5 -18.5 18.5 -46.5q0 -22 -7.5 -41t-28.5 -55l-52 -92h-71l39 118q-25 17 -25 50q0 37 22.5 61t55.5 24q30 0 48.5 -18.5z" />
    <glyph glyph-name="scommaaccent" unicode="&#x219;" horiz-adv-x="402" 
d="M328 530q43 -18 74 -49l-64 -80q-49 39 -95 39q-26 0 -42 -14t-16 -37q0 -20 17 -35t64 -36q53 -24 79 -57.5t26 -87.5q0 -57 -28.5 -100t-77.5 -66.5t-108 -23.5q-112 0 -186 81l78 77q52 -50 105 -50q32 0 49.5 18t17.5 44q0 25 -16.5 41.5t-60.5 35.5q-55 25 -80 56.5
t-25 83.5q0 50 25.5 90.5t70 64t101.5 23.5q49 0 92 -18zM195.5 -87.5q18.5 -18.5 18.5 -46.5q0 -22 -7.5 -41t-28.5 -55l-52 -92h-71l39 118q-25 17 -25 50q0 37 22.5 61t55.5 24q30 0 48.5 -18.5z" />
    <glyph glyph-name="uni021A" unicode="&#x21a;" horiz-adv-x="445" 
d="M507 693l-33 -121h-131l-81 -572h-154l81 572h-142l17 121h443zM225.5 -87.5q18.5 -18.5 18.5 -46.5q0 -22 -7.5 -41t-28.5 -55l-52 -92h-71l39 118q-25 17 -25 50q0 37 22.5 61t55.5 24q30 0 48.5 -18.5z" />
    <glyph glyph-name="uni021B" unicode="&#x21b;" horiz-adv-x="322" 
d="M190 152q-1 -4 -1 -12q0 -37 31 -37q18 0 44 13l35 -94q-28 -20 -60.5 -29.5t-65.5 -9.5q-64 0 -98.5 36t-34.5 100q0 23 2 35l38 271h-57l15 106h63l30 119l131 14l-19 -133h96l-32 -106h-79zM195.5 -87.5q18.5 -18.5 18.5 -46.5q0 -22 -7.5 -41t-28.5 -55l-52 -92h-71
l39 118q-25 17 -25 50q0 37 22.5 61t55.5 24q30 0 48.5 -18.5z" />
    <glyph glyph-name="uni021C" unicode="&#x21c;" horiz-adv-x="422" 
d="M385 665q48 -45 48 -118q0 -150 -168 -190q134 -8 134 -129q0 -133 -115.5 -218t-292.5 -122l7 114q79 26 129.5 53.5t80 69t29.5 101.5q0 39 -19.5 56t-63.5 17h-56l34 113h42q48 0 73 31.5t25 84.5q0 68 -51 68q-26 0 -54 -14t-61 -43l-58 81q94 90 208 90
q81 0 129 -45z" />
    <glyph glyph-name="uni021D" unicode="&#x21d;" horiz-adv-x="409" 
d="M340 511q43 -37 43 -101q0 -104 -126 -137q56 -1 85 -25.5t29 -70.5q0 -105 -93.5 -176.5t-268.5 -108.5l2 102q108 39 157.5 79.5t49.5 101.5q0 21 -12.5 30t-37.5 9h-66l24 98h31q35 0 55 21t20 60q0 50 -43 50q-22 0 -43 -8.5t-48 -25.5l-54 79q42 30 85.5 45t93.5 15
q74 0 117 -37z" />
    <glyph glyph-name="uni021E" unicode="&#x21e;" horiz-adv-x="542" 
d="M163 0h-154l97 693h155l-39 -271h141l38 271h154l-97 -693h-154l42 299h-141zM467 938l54 -59l-137 -129h-89l-104 136l58 52l100 -84z" />
    <glyph glyph-name="uni021F" unicode="&#x21f;" horiz-adv-x="469" 
d="M423 515.5q27 -32.5 27 -88.5q0 -17 -3 -37l-55 -390h-148l51 366q1 6 1 17q0 31 -20 31q-17 0 -36 -27t-44 -81l-43 -306h-148l104 742l150 15l-42 -303q56 94 132 94q47 0 74 -32.5zM437 987l54 -59l-137 -129h-89l-104 136l58 52l100 -84z" />
    <glyph glyph-name="uni0220" unicode="&#x220;" horiz-adv-x="533" 
d="M495 670q34 -40 34 -102q0 -21 -2 -32l-103 -746h-154l101 735q2 14 2 20q0 23 -10 35.5t-30 12.5q-21 0 -43.5 -13t-50.5 -39l-76 -541h-154l97 693h135l2 -54q73 71 155 71q63 0 97 -40z" />
    <glyph glyph-name="uni0221" unicode="&#x221;" horiz-adv-x="660" 
d="M621 214.5q25 -26.5 25 -72.5q0 -78 -49.5 -118t-128.5 -40q-13 0 -37 2l-35 -69l-62 30l30 55q-50 23 -70 75q-29 -48 -63 -71t-78 -23q-64 0 -99 49t-35 140q0 93 25.5 179.5t76 141.5t120.5 55q61 0 93 -50l36 259l146 -15l-83 -592q-1 -6 -1 -17q26 59 54.5 83.5
t69.5 24.5q40 0 65 -26.5zM320 400q-10 19 -21.5 28.5t-28.5 9.5q-33 0 -55.5 -43t-33.5 -105.5t-11 -117.5q0 -43 10.5 -60.5t29.5 -17.5q36 0 78 76zM536.5 105.5q13.5 12.5 13.5 34.5q0 21 -17 21q-13 0 -23.5 -14t-25.5 -54h17q22 0 35.5 12.5z" />
    <glyph glyph-name="uni0222" unicode="&#x222;" horiz-adv-x="541" 
d="M414 395q93 -42 93 -146q0 -78 -35 -138.5t-97 -93.5t-140 -33q-68 0 -117 26t-74 71t-25 101q0 76 38 130t104 82q-67 30 -67 108q0 8 2 28l21 163h155l-24 -172q-2 -20 -2 -26q0 -27 11.5 -39t37.5 -12q32 0 48 21t21 59l23 169h155l-24 -166q-13 -94 -104 -132z
M319.5 138q26.5 39 26.5 105q0 89 -66 89q-44 0 -72 -39.5t-28 -104.5q0 -89 68 -89q45 0 71.5 39z" />
    <glyph glyph-name="uni0223" unicode="&#x223;" horiz-adv-x="482" 
d="M434.5 464.5q-22.5 -31.5 -59.5 -51.5q77 -39 77 -150q0 -80 -31.5 -144t-87 -99.5t-126.5 -35.5q-92 0 -141 54t-49 142q0 83 34 143t96 89q-54 31 -54 100q0 9 2 29l29 201h145l-32 -227q-2 -16 -2 -21q0 -38 31 -38q38 0 46 61l33 225h146l-29 -205
q-5 -41 -27.5 -72.5zM280.5 148.5q21.5 53.5 21.5 122.5q0 44 -11.5 65t-36.5 21q-41 0 -63.5 -55t-22.5 -123q0 -84 48 -84q43 0 64.5 53.5z" />
    <glyph glyph-name="uni0224" unicode="&#x224;" horiz-adv-x="435" 
d="M464 574l-307 -449h243l-17 -125l-9 -53q-12 -81 -63.5 -124.5t-125.5 -43.5q-42 0 -70 11.5t-50 31.5l61 86q15 -9 25.5 -13.5t25.5 -4.5q21 0 34.5 15t17.5 43l7 52h-263l17 117l306 454h-222l19 122h389z" />
    <glyph glyph-name="uni0225" unicode="&#x225;" horiz-adv-x="373" 
d="M384 424l-223 -309h180l-17 -115l-7 -53q-12 -82 -63 -125t-125 -43q-69 0 -119 44l62 85q17 -10 27.5 -14.5t25.5 -4.5q22 0 35 13.5t16 37.5l7 60h-212l16 107l223 310h-166l18 114h338z" />
    <glyph glyph-name="uni0226" unicode="&#x226;" horiz-adv-x="497" 
d="M310 0l-5 152h-146l-46 -152h-160l262 693h186l67 -693h-158zM193 265h108l-11 322zM265.5 780.5q-20.5 20.5 -20.5 54.5q0 42 28 70t68 28q37 0 57 -20.5t20 -54.5q0 -43 -27.5 -70.5t-68.5 -27.5q-36 0 -56.5 20.5z" />
    <glyph glyph-name="uni0227" unicode="&#x227;" horiz-adv-x="482" 
d="M474 499l-50 -350q-3 -16 -3 -30q0 -26 21 -35l-47 -98q-40 4 -68.5 23t-39.5 53q-29 -39 -59 -59t-72 -20q-66 0 -102 50.5t-36 137.5q0 98 28.5 183.5t91.5 139.5t160 54q89 0 176 -49zM198 357.5q-30 -82.5 -30 -189.5q0 -40 9.5 -57t29.5 -17q19 0 35.5 17t35.5 48
l39 276q-17 5 -32 5q-57 0 -87 -82.5zM261.5 654.5q-20.5 20.5 -20.5 54.5q0 42 28 70t68 28q37 0 57 -20.5t20 -54.5q0 -43 -27.5 -70.5t-68.5 -27.5q-36 0 -56.5 20.5z" />
    <glyph glyph-name="uni0228" unicode="&#x228;" horiz-adv-x="426" 
d="M245 581l-25 -174h166l-16 -110h-165l-26 -183h204l-17 -114h-138l-8 -53q37 -5 56 -26t19 -56q0 -30 -14 -58t-46.5 -47t-83.5 -19q-57 0 -93 31l42 64q26 -13 49 -13q19 0 30.5 9t11.5 26t-16 24t-55 7l26 111h-137l97 693h359l-34 -112h-186z" />
    <glyph glyph-name="uni0229" unicode="&#x229;" horiz-adv-x="458" 
d="M412 509q44 -39 44 -100q0 -103 -80 -151.5t-209 -64.5v-14q0 -84 65 -84q27 0 52 11t59 35l52 -87q-69 -57 -146 -68l-6 -39q37 -5 56 -26t19 -56q0 -30 -14 -58t-46.5 -47t-83.5 -19q-57 0 -93 31l42 64q26 -13 49 -13q19 0 30.5 9t11.5 26t-16 24t-55 7l23 97
q-69 11 -107.5 62t-38.5 136q0 98 30 181t91.5 133t150.5 50q76 0 120 -39zM279 325q33 32 33 79q0 42 -37 42q-38 0 -62.5 -45.5t-36.5 -114.5q70 7 103 39z" />
    <glyph glyph-name="uni022A" unicode="&#x22a;" horiz-adv-x="578" 
d="M512.5 644.5q55.5 -65.5 55.5 -193.5q0 -122 -34 -228.5t-106 -173t-178 -66.5t-161.5 65.5t-55.5 193.5q0 121 34 227.5t105.5 173.5t178.5 67q106 0 161.5 -65.5zM254 532.5q-34 -62.5 -49.5 -151t-15.5 -167.5q0 -61 17.5 -88.5t52.5 -27.5q54 0 88 61.5t49 149
t15 168.5q0 62 -17 90t-53 28q-53 0 -87 -62.5zM208 764q-18 18 -18 48q0 36 24.5 61t58.5 25q32 0 49.5 -18t17.5 -48q0 -37 -24 -61.5t-60 -24.5q-30 0 -48 18zM405 764q-18 18 -18 48q0 36 24.5 61t58.5 25q31 0 49 -18t18 -48q0 -37 -24 -61.5t-59 -24.5q-31 0 -49 18z
M504 941h-256l16 106h256z" />
    <glyph glyph-name="uni022B" unicode="&#x22b;" horiz-adv-x="489" 
d="M69.5 36.5q-48.5 53.5 -48.5 154.5q0 92 29 173.5t88 132.5t145 51q88 0 136.5 -53.5t48.5 -155.5q0 -92 -29 -173t-88 -132t-145 -51q-88 0 -136.5 53.5zM275 138q23 44 33.5 106t10.5 117q0 40 -11.5 57.5t-34.5 17.5q-36 0 -59 -43.5t-33 -105t-10 -117.5
q0 -40 11 -58t34 -18q36 0 59 44zM144 622q-18 18 -18 48q0 36 24.5 61t58.5 25q32 0 49.5 -18t17.5 -48q0 -37 -24 -61.5t-60 -24.5q-30 0 -48 18zM341 622q-18 18 -18 48q0 36 24.5 61t58.5 25q31 0 49 -18t18 -48q0 -37 -24 -61.5t-59 -24.5q-31 0 -49 18zM441 802h-256
l16 106h256z" />
    <glyph glyph-name="uni022C" unicode="&#x22c;" horiz-adv-x="578" 
d="M505 943h-256l16 106h256zM379.5 762.5q-12.5 6.5 -29.5 19.5q-9 7 -18.5 13t-17.5 6q-12 0 -23 -10.5t-25 -33.5l-65 39q24 50 56 81.5t65 31.5q19 0 33 -7.5t29 -20.5q11 -9 18.5 -13.5t15.5 -4.5q12 0 22.5 10t23.5 33l65 -37q-23 -51 -55 -82t-66 -31
q-16 0 -28.5 6.5zM512.5 644.5q55.5 -65.5 55.5 -193.5q0 -122 -34 -228.5t-106 -173t-178 -66.5t-161.5 65.5t-55.5 193.5q0 121 34 227.5t105.5 173.5t178.5 67q106 0 161.5 -65.5zM254 532.5q-34 -62.5 -49.5 -151t-15.5 -167.5q0 -61 17.5 -88.5t52.5 -27.5
q54 0 88 61.5t49 149t15 168.5q0 62 -17 90t-53 28q-53 0 -87 -62.5z" />
    <glyph glyph-name="uni022D" unicode="&#x22d;" horiz-adv-x="489" 
d="M69.5 36.5q-48.5 53.5 -48.5 154.5q0 92 29 173.5t88 132.5t145 51q88 0 136.5 -53.5t48.5 -155.5q0 -92 -29 -173t-88 -132t-145 -51q-88 0 -136.5 53.5zM275 138q23 44 33.5 106t10.5 117q0 40 -11.5 57.5t-34.5 17.5q-36 0 -59 -43.5t-33 -105t-10 -117.5
q0 -40 11 -58t34 -18q36 0 59 44zM305.5 600.5q-12.5 6.5 -29.5 19.5q-9 7 -18.5 13t-17.5 6q-13 0 -23.5 -10.5t-24.5 -33.5l-65 39q24 50 56 81.5t65 31.5q19 0 33 -7.5t29 -20.5q11 -9 18.5 -13.5t15.5 -4.5q12 0 22.5 10t23.5 33l65 -37q-23 -51 -55 -82t-66 -31
q-16 0 -28.5 6.5zM436 783h-256l16 106h256z" />
    <glyph glyph-name="uni022E" unicode="&#x22e;" horiz-adv-x="578" 
d="M512.5 644.5q55.5 -65.5 55.5 -193.5q0 -122 -34 -228.5t-106 -173t-178 -66.5t-161.5 65.5t-55.5 193.5q0 121 34 227.5t105.5 173.5t178.5 67q106 0 161.5 -65.5zM254 532.5q-34 -62.5 -49.5 -151t-15.5 -167.5q0 -61 17.5 -88.5t52.5 -27.5q54 0 88 61.5t49 149
t15 168.5q0 62 -17 90t-53 28q-53 0 -87 -62.5zM306.5 780.5q-20.5 20.5 -20.5 54.5q0 42 28 70t68 28q37 0 57 -20.5t20 -54.5q0 -43 -27.5 -70.5t-68.5 -27.5q-36 0 -56.5 20.5z" />
    <glyph glyph-name="uni022F" unicode="&#x22f;" horiz-adv-x="489" 
d="M69.5 36.5q-48.5 53.5 -48.5 154.5q0 92 29 173.5t88 132.5t145 51q88 0 136.5 -53.5t48.5 -155.5q0 -92 -29 -173t-88 -132t-145 -51q-88 0 -136.5 53.5zM275 138q23 44 33.5 106t10.5 117q0 40 -11.5 57.5t-34.5 17.5q-36 0 -59 -43.5t-33 -105t-10 -117.5
q0 -40 11 -58t34 -18q36 0 59 44zM241.5 654.5q-20.5 20.5 -20.5 54.5q0 42 28 70t68 28q37 0 57 -20.5t20 -54.5q0 -43 -27.5 -70.5t-68.5 -27.5q-36 0 -56.5 20.5z" />
    <glyph glyph-name="uni0230" unicode="&#x230;" horiz-adv-x="578" 
d="M512.5 644.5q55.5 -65.5 55.5 -193.5q0 -122 -34 -228.5t-106 -173t-178 -66.5t-161.5 65.5t-55.5 193.5q0 121 34 227.5t105.5 173.5t178.5 67q106 0 161.5 -65.5zM254 532.5q-34 -62.5 -49.5 -151t-15.5 -167.5q0 -61 17.5 -88.5t52.5 -27.5q54 0 88 61.5t49 149
t15 168.5q0 62 -17 90t-53 28q-53 0 -87 -62.5zM298.5 757.5q-20.5 20.5 -20.5 54.5q0 42 28 70t68 28q37 0 57 -20.5t20 -54.5q0 -43 -27.5 -70.5t-68.5 -27.5q-36 0 -56.5 20.5zM509 941h-256l16 106h256z" />
    <glyph glyph-name="uni0231" unicode="&#x231;" horiz-adv-x="489" 
d="M69.5 36.5q-48.5 53.5 -48.5 154.5q0 92 29 173.5t88 132.5t145 51q88 0 136.5 -53.5t48.5 -155.5q0 -92 -29 -173t-88 -132t-145 -51q-88 0 -136.5 53.5zM275 138q23 44 33.5 106t10.5 117q0 40 -11.5 57.5t-34.5 17.5q-36 0 -59 -43.5t-33 -105t-10 -117.5
q0 -40 11 -58t34 -18q36 0 59 44zM235.5 615.5q-20.5 20.5 -20.5 54.5q0 42 28 70t68 28q37 0 57 -20.5t20 -54.5q0 -43 -27.5 -70.5t-68.5 -27.5q-36 0 -56.5 20.5zM445 804h-256l16 106h256z" />
    <glyph glyph-name="uni0232" unicode="&#x232;" horiz-adv-x="491" 
d="M561 693l-239 -433l-36 -260h-155l36 260l-117 433h161l51 -314l134 314h165zM440 782h-256l16 106h256z" />
    <glyph glyph-name="uni0233" unicode="&#x233;" horiz-adv-x="433" 
d="M271 -2q-43 -111 -112.5 -161t-178.5 -58l-2 103q65 11 98.5 35.5t59.5 82.5h-53l-51 531h153l6 -433l129 433h156zM397 656h-256l16 106h256z" />
    <glyph glyph-name="uni0234" unicode="&#x234;" horiz-adv-x="395" 
d="M356 214.5q25 -26.5 25 -72.5q0 -77 -49.5 -117.5t-127.5 -40.5q-14 0 -38 2l-35 -69l-62 30l32 57q-40 19 -59.5 53.5t-19.5 81.5q0 10 2 32l80 571l150 16l-86 -615l-1 -9q26 58 55 82.5t69 24.5t65 -26.5zM271.5 105.5q13.5 12.5 13.5 34.5q0 21 -17 21
q-13 0 -23.5 -14t-25.5 -54h17q22 0 35.5 12.5z" />
    <glyph glyph-name="uni0235" unicode="&#x235;" horiz-adv-x="642" 
d="M603 215.5q25 -26.5 25 -71.5q0 -78 -50 -119t-128 -41q-15 0 -39 2l-35 -69l-61 30l32 58q-78 38 -78 137q0 9 2 33l24 187q2 18 2 22q0 17 -5 23.5t-15 6.5q-18 0 -37 -28t-44 -84l-42 -302h-148l74 531h129l-3 -88q65 105 146 105q47 0 73 -32t26 -91q0 -19 -3 -40
l-32 -225q-2 -19 -1 -26q25 58 54 83t70 25q39 0 64 -26.5zM518 105.5q13 12.5 13 34.5q0 21 -16 21q-13 0 -23.5 -14.5t-26.5 -52.5q5 -1 17 -1q23 0 36 12.5z" />
    <glyph glyph-name="uni0236" unicode="&#x236;" horiz-adv-x="417" 
d="M377.5 214.5q25.5 -26.5 25.5 -72.5q0 -77 -50 -117.5t-129 -40.5q-13 0 -37 2l-35 -69l-61 30l31 56q-40 19 -60 53t-20 82q0 9 2 31l36 256h-58l16 106h62l30 119l131 14l-18 -133h96l-33 -106h-78l-38 -275q-1 -5 -1 -15q26 58 55 82t69 24q39 0 64.5 -26.5z
M292.5 105.5q13.5 12.5 13.5 34.5q0 21 -16 21q-13 0 -24 -14t-26 -53q5 -1 18 -1q21 0 34.5 12.5z" />
    <glyph glyph-name="uni0237" unicode="&#x237;" horiz-adv-x="235" 
d="M-97 -111q35 15 56 32.5t34.5 48t20.5 80.5l67 481h149l-68 -479q-12 -86 -43.5 -138t-73.5 -80t-108 -55z" />
    <glyph glyph-name="uni0238" unicode="&#x238;" horiz-adv-x="720" 
d="M670 497q31 -50 31 -141q0 -96 -26.5 -181.5t-74.5 -138t-110 -52.5q-29 0 -53 18.5t-40 53.5l-16 -56h-114v57q-46 -73 -113 -73q-65 0 -99.5 52t-34.5 146t26.5 178t75 135.5t110.5 51.5q28 0 50.5 -16t34.5 -45l36 256l150 16l-37 -272q21 29 50.5 45t63.5 16
q59 0 90 -50zM270 151l34 241q-9 24 -20 34.5t-25 10.5q-39 0 -62.5 -77t-23.5 -173q0 -51 9 -72t26 -21q31 0 62 57zM525 173.5q23 79.5 23 174.5q0 49 -8.5 68.5t-25.5 19.5q-29 0 -62 -47l-33 -242q8 -28 19 -40.5t26 -12.5q38 0 61 79.5z" />
    <glyph glyph-name="uni0239" unicode="&#x239;" horiz-adv-x="717" 
d="M665.5 497.5q31.5 -50.5 31.5 -141.5q0 -105 -26 -190t-72.5 -133.5t-105.5 -48.5q-33 0 -54.5 13.5t-38.5 43.5l-34 -246l-150 -17l36 260q-42 -54 -101 -54q-62 0 -96 52.5t-34 145.5q0 97 26.5 181t75 134.5t113.5 50.5q29 0 53 -16t40 -47l9 46h114l-1 -49
q27 35 57 50.5t66 15.5q60 0 91.5 -50.5zM237 105.5q14 11.5 30 36.5l36 256q-17 39 -42 39q-28 0 -48 -40.5t-30 -100t-10 -114.5q0 -88 35 -88q15 0 29 11.5zM522 174.5q23 79.5 23 180.5q0 44 -8.5 63t-25.5 19q-28 0 -62 -48l-35 -248q18 -46 46 -46q39 0 62 79.5z" />
    <glyph glyph-name="uni023A" unicode="&#x23a;" horiz-adv-x="497" 
d="M329 0l-9 152h-85l-81 -226l-47 14l75 212h-34l-49 -152h-146l262 693h160l22 62l48 -14l-38 -107l61 -634h-139zM182 259h39l78 222l-7 119zM273 259h40l-6 96z" />
    <glyph glyph-name="uni023B" unicode="&#x23b;" horiz-adv-x="480" 
d="M328.5 117q24.5 13 61.5 40l56 -88q-92 -86 -200 -86q-25 0 -53 5l-22 -62l-51 15l24 66q-53 28 -82 88.5t-29 151.5q0 122 36 228t108.5 170.5t177.5 64.5q23 0 42 -3l17 48l50 -15l-17 -48q45 -21 78 -60l-81 -80q-18 18 -38 28l-168 -468q18 -8 37 -8q29 0 53.5 13z
M201 165l154 428h-1q-57 0 -93 -54.5t-52.5 -136t-16.5 -164.5q0 -44 9 -73z" />
    <glyph glyph-name="uni023C" unicode="&#x23c;" horiz-adv-x="399" 
d="M270 108.5q17 7.5 44 23.5l52 -88q-70 -61 -158 -61q-11 0 -31 2l-21 -59l-45 14l20 57q-52 21 -81 72.5t-29 126.5q0 95 31 175.5t90.5 128.5t141.5 48q26 0 43 -4l20 56l44 -14l-20 -56q34 -16 61 -48l-72 -81q-18 15 -28 20l-113 -319q5 -1 15 -1q19 0 36 7.5z
M182 138l105 295q-57 -1 -84.5 -75t-27.5 -166q0 -34 7 -54z" />
    <glyph glyph-name="uni023D" unicode="&#x23d;" horiz-adv-x="430" 
d="M194 124h215l-35 -124h-352l43 304h-55l16 118h55l38 271h155l-38 -271h58l-15 -118h-60z" />
    <glyph glyph-name="uni023E" unicode="&#x23e;" horiz-adv-x="447" 
d="M475 577h-60l-111 -216l-50 -361h-133l1 6l-41 -80l-40 21l99 194l60 436h-152l18 116h357l32 62l40 -21l-21 -41h35zM323 497l41 80h-30z" />
    <glyph glyph-name="uni023F" unicode="&#x23f;" horiz-adv-x="402" 
d="M344 73.5q-27 -43.5 -70 -67t-88 -23.5q-17 0 -34 3q29 -18 56 -56q16 -21 27 -30t28 -9q18 0 36 8l20 -93q-19 -12 -39.5 -19t-48.5 -7q-42 0 -70 18t-45.5 45t-41.5 76q-24 50 -45.5 85t-52.5 65l69 69q29 -23 54.5 -35t54.5 -12q32 0 49.5 18t17.5 44q0 25 -16.5 41.5
t-60.5 35.5q-55 25 -80 56.5t-25 83.5q0 50 25.5 90.5t70 64t100.5 23.5q50 0 93 -18t74 -49l-64 -80q-49 39 -95 39q-26 0 -42 -14t-16 -37q0 -20 17 -35t64 -36q53 -24 79 -57.5t26 -87.5q0 -56 -27 -99.5z" />
    <glyph glyph-name="uni0240" unicode="&#x240;" horiz-adv-x="371" 
d="M-13 107l223 310h-166l18 114h338l-16 -107l-256 -349q37 -19 57 -47.5t36 -68.5q15 -36 28 -52t37 -16q17 0 33 7l21 -94q-39 -24 -85 -24q-38 0 -62.5 13.5t-39 33.5t-32.5 54q-19 36 -35 58.5t-44 39.5t-71 21z" />
    <glyph glyph-name="uni0241" unicode="&#x241;" horiz-adv-x="433" 
d="M133 329l42 15q57 22 86 61.5t29 105.5q0 40 -15.5 62t-46.5 22q-27 0 -52.5 -13.5t-57.5 -41.5l-62 79q47 45 94.5 67.5t104.5 22.5q89 0 141.5 -50.5t52.5 -137.5q0 -90 -36 -145t-108 -84l-25 -11l-39 -281h-154z" />
    <glyph glyph-name="uni0242" unicode="&#x242;" horiz-adv-x="383" 
d="M84 202l37 14q53 19 79 53t26 91q0 35 -13.5 54.5t-37.5 19.5t-44 -12t-45 -36l-59 79q77 82 178 82q77 0 124.5 -49t47.5 -128q0 -155 -125 -206l-27 -10l-21 -154h-148z" />
    <glyph glyph-name="uni0243" unicode="&#x243;" horiz-adv-x="517" 
d="M493 230q0 -108 -75.5 -169t-209.5 -61h-192l24 175h-44l12 78h43l62 440h182q104 0 163 -40.5t59 -114.5q0 -69 -40 -112t-105 -60q121 -26 121 -136zM337 443q24 29 24 80q0 59 -66 59h-44l-23 -168h37q48 0 72 29zM310.5 148.5q26.5 34.5 26.5 88.5q0 37 -18.5 54.5
t-58.5 17.5h-47l-8 -56h80l-11 -78h-80l-8 -61h39q59 0 85.5 34.5z" />
    <glyph glyph-name="uni0244" unicode="&#x244;" horiz-adv-x="556" 
d="M579 501h-41l-43 -306q-13 -92 -79 -151.5t-173 -59.5q-100 0 -152 51.5t-52 131.5q0 23 2 35l43 299h-42l13 89h41l15 103h154l-14 -103h145l14 103h155l-14 -103h41zM383 501h-145l-44 -316q-2 -14 -2 -21q0 -29 15 -46t46 -17q38 0 59.5 24.5t27.5 62.5z" />
    <glyph glyph-name="uni0245" unicode="&#x245;" horiz-adv-x="497" 
d="M401 693l67 -693h-155l-21 581l-177 -581h-162l262 693h186z" />
    <glyph glyph-name="uni0246" unicode="&#x246;" horiz-adv-x="426" 
d="M431 581h-30l-63 -174h48l-16 -110h-71l-66 -183h150l-17 -114h-174l-27 -74l-50 15l21 59h-127l97 693h280l22 62l50 -15l-17 -47h24zM283 407l62 174h-100l-25 -174h63zM180 122l63 175h-38z" />
    <glyph glyph-name="uni0247" unicode="&#x247;" horiz-adv-x="458" 
d="M426 494q30 -35 30 -84q0 -90 -63 -138.5t-170 -68.5l-36 -99q18 -9 45 -9t52 11t59 35l52 -87q-85 -71 -186 -71q-35 0 -62 7l-23 -64l-45 14l24 68q-40 23 -61.5 68t-21.5 110q0 97 30 179.5t91.5 132.5t150.5 50h3l19 52l45 -14l-16 -44q53 -13 83 -48zM197.5 396.5
q-24.5 -48.5 -35.5 -117.5q18 1 40 5l60 169q-40 -8 -64.5 -56.5zM325 404q0 30 -16 41l-52 -144q68 30 68 103zM170 195q-6 0 -16 -2v-14q0 -10 2 -24z" />
    <glyph glyph-name="uni0248" unicode="&#x248;" horiz-adv-x="282" 
d="M282 284h-55l-26 -186q-12 -83 -45 -134.5t-77.5 -79t-109.5 -50.5l-27 108q54 26 75.5 62t30.5 106l24 174h-59l16 118h60l41 291h154l-41 -291h54z" />
    <glyph glyph-name="uni0249" unicode="&#x249;" horiz-adv-x="281" 
d="M267 198h-58l-21 -146q-12 -86 -43.5 -138t-73.5 -80t-108 -55l-34 110q35 15 56 32.5t34.5 48t20.5 80.5l21 148h-62l15 107h62l31 226h149l-32 -226h58zM141.5 654.5q-20.5 20.5 -20.5 54.5q0 42 28 70t68 28q37 0 57 -20.5t20 -54.5q0 -43 -27.5 -70.5t-68.5 -27.5
q-36 0 -56.5 20.5z" />
    <glyph glyph-name="uni024A" unicode="&#x24a;" horiz-adv-x="571" 
d="M603 -180q-57 -41 -127 -41q-74 0 -114 37.5t-40 108.5q0 10 2 32l5 43l3 23q-45 -39 -107 -39q-92 0 -142 67t-50 187q0 129 36 237t100.5 171.5t147.5 63.5q39 0 66 -18t47 -51l18 52h131l-95 -693h-1l-7 -56q-5 -50 33 -50q16 0 27.5 4t29.5 13zM349 147l55 400
q-14 24 -29.5 36t-36.5 12q-46 0 -79.5 -51.5t-50.5 -135t-17 -175.5q0 -72 19 -104.5t55 -32.5q47 0 84 51z" />
    <glyph glyph-name="uni024B" unicode="&#x24b;" horiz-adv-x="486" 
d="M424 -100.5q5 1.5 7 1.5l13 -105q-42 -17 -84 -17q-54 0 -82.5 30t-28.5 83q0 9 2 27l14 126q-42 -62 -109 -62q-65 0 -101 51t-36 137q0 99 28.5 184.5t91 139t159.5 53.5q92 0 180 -49l-70 -499l-10 -76v-7q0 -10 3.5 -14.5t12.5 -4.5q5 0 10 1.5zM245 111q18 17 38 48
l39 276q-17 5 -35 5q-58 0 -88.5 -80.5t-30.5 -191.5q0 -39 10 -56.5t30 -17.5q19 0 37 17z" />
    <glyph glyph-name="uni024C" unicode="&#x24c;" horiz-adv-x="519" 
d="M392 299l98 -299h-159l-78 267h-43l-38 -267h-154l38 268h-47l16 108h46l44 317h178q115 0 171.5 -46.5t56.5 -132.5q0 -145 -129 -215zM254 582l-29 -206h32q57 0 82.5 38.5t25.5 94.5q0 39 -18.5 56t-58.5 17h-34z" />
    <glyph glyph-name="uni024D" unicode="&#x24d;" horiz-adv-x="353" 
d="M396 538l-46 -145q-22 6 -36 6q-32 0 -55.5 -32.5t-42.5 -93.5h58l-15 -106h-61l-23 -167h-148l23 167h-60l16 106h59l36 258h127l-3 -89q24 50 55 77t73 27q21 0 43 -8z" />
    <glyph glyph-name="uni024E" unicode="&#x24e;" horiz-adv-x="492" 
d="M519 613h31l-14 -88h-66l-147 -265l-36 -260h-155l37 260l-72 265h-70l13 88h33l-22 80h149l15 -80h160l36 80h152zM263 367l72 158h-103z" />
    <glyph glyph-name="uni024F" unicode="&#x24f;" horiz-adv-x="455" 
d="M433 394h36l-14 -95h-58l-116 -301q-43 -111 -112.5 -161t-178.5 -58l-2 103q65 11 98.5 35.5t59.5 82.5h-53l-29 299h-55l13 95h33l-13 137h153l2 -137h92l41 137h156zM201 98l60 201h-63z" />
    <glyph glyph-name="uni0250" unicode="&#x250;" horiz-adv-x="450" 
d="M175 160q-2 -16 -2 -21q0 -24 12.5 -34t44.5 -10q47 0 103 22l31 -95q-39 -19 -85 -28.5t-88 -9.5q-82 0 -124 35t-42 103q0 22 2 34l30 225q3 18 3 30q0 13 -4.5 21.5t-15.5 13.5l46 99q36 -4 63.5 -20t39.5 -44q55 66 134 66q57 0 90.5 -37.5t33.5 -100.5
q0 -101 -64 -153.5t-168 -52.5h-34zM206 395l-14 -108h22q41 0 63 26.5t22 76.5q0 49 -33 49t-60 -44z" />
    <glyph glyph-name="uni0251" unicode="&#x251;" horiz-adv-x="482" 
d="M421 121q0 -14 4.5 -22.5t16.5 -14.5l-46 -98q-40 4 -69 23t-39 53q-28 -39 -59 -59t-73 -20q-66 0 -101.5 50.5t-35.5 137.5q0 98 26 184t76.5 139t120.5 53q38 0 64.5 -15t43.5 -48l23 47h104l-53 -382q-3 -16 -3 -28zM311 394q-17 46 -50 46q-28 0 -49 -40.5
t-32.5 -103.5t-11.5 -128q0 -40 9.5 -57t29.5 -17q19 0 36 17t36 48z" />
    <glyph glyph-name="uni0252" unicode="&#x252;" horiz-adv-x="482" 
d="M427.5 497.5q35.5 -50.5 35.5 -137.5q0 -98 -26 -184t-76.5 -139t-120.5 -53q-38 0 -64.5 15t-43.5 48l-23 -47h-104l53 382q3 17 3 28q0 14 -4.5 22.5t-16.5 14.5l46 98q40 -4 69 -23t39 -53q28 39 59 59t73 20q66 0 101.5 -50.5zM270 131.5q21 40.5 32.5 103.5
t11.5 128q0 40 -9.5 57t-29.5 17q-19 0 -36 -17t-36 -48l-32 -235q17 -46 50 -46q28 0 49 40.5z" />
    <glyph glyph-name="uni0253" unicode="&#x253;" horiz-adv-x="492" 
d="M438 501.5q34 -46.5 34 -132.5q0 -172 -66.5 -279t-213.5 -107q-87 0 -183 42l70 505h1l10 68q10 72 59.5 116t132.5 44q67 0 124 -34l-53 -94q-34 16 -62 16q-24 0 -37.5 -15.5t-18.5 -48.5l-7 -52l-5 -43q23 28 54.5 44.5t66.5 16.5q60 0 94 -46.5zM274 134
q25 41 36.5 103t11.5 124q0 42 -10 59t-30 17q-18 0 -37.5 -15t-37.5 -40l-39 -280q25 -9 44 -9q37 0 62 41z" />
    <glyph glyph-name="uni0254" unicode="&#x254;" horiz-adv-x="395" 
d="M28 -1q-34 15 -63 45l79 81q18 -16 32.5 -23t35.5 -7q55 0 82.5 71.5t27.5 175.5q0 50 -12 72t-39 22q-36 0 -81 -32l-50 84q37 30 74 45t83 15q82 0 129.5 -54.5t47.5 -152.5q0 -110 -32.5 -190.5t-91.5 -123.5t-139 -43q-49 0 -83 15z" />
    <glyph glyph-name="uni0255" unicode="&#x255;" horiz-adv-x="424" 
d="M374 222.5q27 -27.5 27 -75.5q0 -77 -51 -120t-127 -43q-29 0 -59 6l-38 -73l-61 30l38 71q-40 26 -61 72t-21 109q0 93 31 173t90.5 128t141.5 48q48 0 84 -16.5t64 -49.5l-72 -81q-19 16 -35.5 24t-35.5 8q-59 0 -86.5 -73.5t-27.5 -166.5q0 -22 2 -42q26 52 57 75.5
t70 23.5q43 0 70 -27.5zM288.5 106.5q13.5 13.5 14.5 37.5q0 26 -20 26q-32 0 -63 -73q15 -4 33 -4q22 0 35.5 13.5z" />
    <glyph glyph-name="uni0256" unicode="&#x256;" horiz-adv-x="493" 
d="M534 -180q-55 -41 -129 -41q-70 0 -109 38t-39 108q0 10 2 32l5 43l8 54q-22 -34 -51 -52.5t-68 -18.5q-64 0 -99 49t-35 140q0 93 25.5 179.5t76 141.5t120.5 55q61 0 93 -50l36 259l146 -15l-104 -742l-7 -59q-1 -5 -1 -13q0 -19 10 -28.5t27 -9.5q15 0 26 3.5t28 12.5
zM249 114q19 20 39 57l32 229q-9 19 -21 28.5t-29 9.5q-33 0 -55.5 -43t-33.5 -105.5t-11 -117.5q0 -43 10.5 -60.5t29.5 -17.5q20 0 39 20z" />
    <glyph glyph-name="uni0257" unicode="&#x257;" horiz-adv-x="492" 
d="M642 719l-57 -88q-25 15 -46 15q-20 0 -29.5 -13t-14.5 -42l-9 -60l-74 -531h-131l3 66q-27 -41 -58 -62t-73 -21q-64 0 -99 49t-35 140q0 93 25.5 179.5t76 141.5t120.5 55q61 0 93 -50l4 33l9 59q10 76 57 122t126 46q65 0 112 -39zM320 400q-9 19 -21 28.5t-29 9.5
q-33 0 -55.5 -43t-33.5 -105.5t-11 -117.5q0 -43 10.5 -60.5t29.5 -17.5q20 0 39 20t39 57z" />
    <glyph glyph-name="uni0258" unicode="&#x258;" horiz-adv-x="462" 
d="M393.5 488q46.5 -60 46.5 -156q0 -106 -33 -184.5t-94 -121t-145 -42.5q-105 0 -166 73l73 78q23 -21 44.5 -30.5t50.5 -9.5q77 0 106 97q-113 9 -175.5 47t-62.5 119q0 53 25.5 96.5t73.5 68.5t111 25q99 0 145.5 -60zM212 307.5q23 -18.5 80 -22.5q2 40 2 62
q0 99 -51 99q-25 0 -39.5 -22t-14.5 -63q0 -35 23 -53.5z" />
    <glyph glyph-name="uni0259" unicode="&#x259;" horiz-adv-x="458" 
d="M388 496.5q50 -51.5 50 -150.5q0 -98 -30 -180.5t-91.5 -132.5t-150.5 -50q-76 0 -120 39t-44 100q0 103 80 151.5t209 64.5v14q0 84 -65 84q-27 0 -52 -11t-59 -35l-52 87q84 71 188 71q87 0 137 -51.5zM245.5 130.5q24.5 45.5 36.5 114.5q-70 -7 -103 -39t-33 -79
q0 -42 37 -42q38 0 62.5 45.5z" />
    <glyph glyph-name="uni025A" unicode="&#x25a;" horiz-adv-x="683" 
d="M708 343q-48 -35 -106 -35q-56 0 -85 30t-31 79l-1 17l-52 -33q5 -22 5 -60q-2 -97 -32 -178.5t-90.5 -130.5t-149.5 -49q-76 0 -120 39t-44 100q0 103 80 151.5t209 64.5v14q0 84 -65 84q-27 0 -52 -11t-59 -35l-52 87q84 71 190 71q51 0 89.5 -18t61.5 -53l88 54h119
l-10 -76l-1 -10q0 -17 9 -26t24 -9q19 0 47 13zM245.5 130.5q24.5 45.5 36.5 114.5q-70 -7 -103 -39t-33 -79q0 -42 37 -42q38 0 62.5 45.5z" />
    <glyph glyph-name="uni025B" unicode="&#x25b;" horiz-adv-x="414" 
d="M59 26q-50 42 -50 113q0 59 38.5 98t109.5 46q-48 12 -71.5 38.5t-23.5 68.5q0 45 24 81t67.5 56.5t100.5 20.5q48 0 90 -16.5t73 -49.5l-67 -72q-21 16 -40.5 24.5t-41.5 8.5q-30 0 -45.5 -18t-15.5 -46q0 -57 60 -57h40l-30 -98h-37q-40 0 -59.5 -20t-19.5 -54
q0 -27 14.5 -42.5t42.5 -15.5q26 0 50 10t52 30l51 -82q-35 -32 -82 -49t-101 -17q-79 0 -129 42z" />
    <glyph glyph-name="uni025C" unicode="&#x25c;" horiz-adv-x="414" 
d="M353 512.5q43 -35.5 43 -93.5q0 -53 -33.5 -89t-102.5 -48q115 -14 115 -113q0 -47 -23.5 -89.5t-73.5 -69t-124 -26.5q-105 0 -172 65l74 84q25 -22 47.5 -31.5t45.5 -9.5q37 0 55.5 23t18.5 60q0 27 -15 38t-45 11h-60l26 98h37q38 0 58.5 21t20.5 54q0 46 -42 46
q-23 0 -44 -8.5t-49 -25.5l-52 78q82 61 181 61q71 0 114 -35.5z" />
    <glyph glyph-name="uni025D" unicode="&#x25d;" horiz-adv-x="630" 
d="M655 343q-48 -35 -106 -35q-56 0 -85 30t-31 79l-1 17l-36 -23q-2 -50 -36 -83.5t-100 -45.5q115 -14 115 -113q0 -47 -23.5 -89.5t-73.5 -69t-124 -26.5q-105 0 -172 65l74 84q25 -22 47.5 -31.5t45.5 -9.5q37 0 55.5 23t18.5 60q0 27 -15 38t-45 11h-60l26 98h37
q38 0 58.5 21t20.5 54q0 46 -42 46q-23 0 -44 -8.5t-49 -25.5l-52 78q82 61 181 61q45 0 80 -15t55 -42l65 40h119l-10 -76l-1 -10q0 -17 9 -26t24 -9q19 0 47 13z" />
    <glyph glyph-name="uni025E" unicode="&#x25e;" horiz-adv-x="476" 
d="M70 37.5q-49 53.5 -49 151.5q0 109 33.5 190.5t95.5 125t144 43.5q73 0 119 -35t46 -95q0 -52 -32.5 -88t-95.5 -48q106 -13 106 -111q0 -48 -23 -90.5t-73.5 -69.5t-128.5 -27q-93 0 -142 53.5zM273.5 115q17.5 23 17.5 61q0 25 -14 36.5t-41 11.5h-26l30 98h11
q27 0 43.5 20t16.5 55q0 46 -39 46q-53 0 -81.5 -77t-28.5 -183q0 -49 13.5 -70t44.5 -21q36 0 53.5 23z" />
    <glyph glyph-name="uni025F" unicode="&#x25f;" horiz-adv-x="281" 
d="M267 198h-58l-21 -146q-12 -86 -43.5 -138t-73.5 -80t-108 -55l-34 110q35 15 56 32.5t34.5 48t20.5 80.5l21 148h-62l15 107h62l31 226h149l-32 -226h58z" />
    <glyph glyph-name="uni0260" unicode="&#x260;" horiz-adv-x="486" 
d="M636 719l-57 -88q-25 15 -46 15q-20 0 -29.5 -13t-14.5 -42l-9 -60l-71 -509q-18 -126 -77 -185t-165 -59q-94 0 -172 55l54 97q58 -36 113 -36q40 0 66 23t34 84l9 65q-24 -32 -51 -49.5t-65 -17.5q-64 0 -99.5 50.5t-35.5 135.5q0 94 28 177t87.5 134.5t147.5 51.5
q21 0 51 -7l7 49q10 76 57 122t126 46q65 0 112 -39zM283 175l36 261q-13 4 -33 4q-57 0 -86.5 -77t-29.5 -181q0 -38 9.5 -54.5t29.5 -16.5q32 0 74 64z" />
    <glyph glyph-name="uni0261" unicode="&#x261;" horiz-adv-x="482" 
d="M476 499l-67 -477q-18 -126 -77 -185t-165 -59q-94 0 -172 55l54 97q58 -36 113 -36q40 0 66 23t34 84l9 65q-24 -32 -51 -49.5t-65 -17.5q-64 0 -99.5 50.5t-35.5 135.5q0 96 28.5 178t91 133.5t159.5 51.5q90 0 177 -49zM199.5 363q-29.5 -77 -29.5 -181
q0 -38 9.5 -54.5t29.5 -16.5q32 0 74 64l36 260q-17 5 -33 5q-57 0 -86.5 -77z" />
    <glyph glyph-name="uni0262" unicode="&#x262;" horiz-adv-x="469" 
d="M460 475l-80 -77q-21 22 -42 32t-48 10q-60 0 -88.5 -74.5t-28.5 -179.5q0 -50 13 -71.5t41 -21.5q26 0 52 13l15 105h-50l1 99h197l-37 -263q-39 -29 -88.5 -45.5t-103.5 -16.5q-96 0 -144 51t-48 149q0 110 34 192.5t95.5 126.5t140.5 44q103 0 169 -73z" />
    <glyph glyph-name="uni0263" unicode="&#x263;" horiz-adv-x="428" 
d="M264 78q18 -46 27 -82.5t9 -71.5q0 -70 -38 -107.5t-109 -37.5q-54 0 -84 29t-30 75q0 43 21.5 88.5t64.5 109.5l-93 450h156l22 -354l107 354h154l-206 -452zM182 -3q-16 -27 -26 -54.5t-10 -45.5q0 -23 18 -23q29 0 29 46q0 26 -11 77z" />
    <glyph glyph-name="uni0264" unicode="&#x264;" horiz-adv-x="473" 
d="M514 516l-53 -85q-16 10 -32 10q-14 0 -23 -7.5t-19 -28.5l-87 -168q17 -42 24.5 -68.5t7.5 -55.5q0 -57 -32.5 -93t-96.5 -36q-52 0 -79.5 26.5t-27.5 70.5q0 37 17.5 74.5t53.5 85.5l-42 167q-5 18 -11.5 25.5t-19.5 7.5q-18 0 -35 -10l-29 88q24 14 45.5 21t47.5 7
q49 0 72 -29t32 -89l18 -110l44 115q22 59 53.5 86t82.5 27q49 0 89 -31zM224 170q-29 -48 -29 -75q0 -20 16 -20q11 0 17 9t6 26q0 22 -10 60z" />
    <glyph glyph-name="uni0265" unicode="&#x265;" horiz-adv-x="465" 
d="M251 67q-25 -39 -54.5 -61.5t-73.5 -22.5q-48 0 -76.5 32t-28.5 87q0 17 3 35l56 394h148l-53 -376q-1 -6 -1 -15q0 -28 20 -28q31 0 77 77l47 342h148l-103 -737l-149 -16z" />
    <glyph glyph-name="uni0266" unicode="&#x266;" horiz-adv-x="469" 
d="M423.5 515.5q27.5 -32.5 27.5 -89.5q0 -16 -3 -36l-56 -390h-148l51 366q1 6 1 17q0 31 -20 31q-17 0 -36 -27t-44 -81l-42 -306h-148l73 530h1l10 68q10 72 59.5 116t132.5 44q67 0 124 -34l-53 -94q-34 16 -62 16q-24 0 -37.5 -15.5t-18.5 -48.5l-7 -52l-9 -75
q53 93 130 93q47 0 74.5 -32.5z" />
    <glyph glyph-name="uni0267" unicode="&#x267;" horiz-adv-x="469" 
d="M423.5 515.5q27.5 -32.5 27.5 -89.5q0 -16 -3 -36l-56 -390l-7 -50q-12 -85 -64 -128t-131 -43q-70 0 -118 44l61 85q17 -10 27.5 -14t26.5 -4q21 0 33.5 13t15.5 37l8 60l51 366q1 6 1 17q0 31 -20 31q-17 0 -36 -27t-44 -81l-42 -306h-148l73 530h1l10 68
q10 72 59.5 116t132.5 44q67 0 124 -34l-53 -94q-34 16 -62 16q-24 0 -37.5 -15.5t-18.5 -48.5l-7 -52l-9 -75q53 93 130 93q47 0 74.5 -32.5z" />
    <glyph glyph-name="uni0268" unicode="&#x268;" horiz-adv-x="277" 
d="M135.5 654.5q-20.5 20.5 -20.5 54.5q0 42 28 70t68 28q37 0 57 -20.5t20 -54.5q0 -43 -27.5 -70.5t-68.5 -27.5q-36 0 -56.5 20.5zM250 531l-27 -196h60l-15 -106h-60l-32 -229h-148l32 229h-61l16 106h60l27 196h148z" />
    <glyph glyph-name="uni0269" unicode="&#x269;" horiz-adv-x="248" 
d="M75 531h147l-54 -398q-1 -3 -1 -9q0 -20 18 -20q9 0 18 3l12 -104q-38 -19 -88 -19q-53 0 -81.5 30t-28.5 82q0 9 2 29z" />
    <glyph glyph-name="uni026A" unicode="&#x26a;" horiz-adv-x="274" 
d="M285 425h-52l-44 -319h52l-14 -106h-254l15 106h53l44 319h-53l15 106h253z" />
    <glyph glyph-name="uni026B" unicode="&#x26b;" horiz-adv-x="387" 
d="M244 133q-1 -4 -1 -10q0 -19 17 -19q9 0 18 3l12 -104q-38 -19 -87 -19q-53 0 -81.5 29t-28.5 81q0 20 2 31l29 214q-19 0 -32 -11.5t-34 -39.5l-68 42q35 55 70 87.5t80 33.5l40 291l149 16l-50 -367q17 2 30 13.5t29 34.5l70 -41q-33 -54 -66.5 -85.5t-77.5 -34.5z" />
    <glyph glyph-name="uni026C" unicode="&#x26c;" horiz-adv-x="373" 
d="M299 107l12 -104q-38 -19 -87 -19q-53 0 -81.5 29t-28.5 81q0 20 2 31l16 118q-61 2 -92.5 31.5t-31.5 78.5q0 57 35 90.5t91 33.5q18 0 30 -3l37 268l149 16l-59 -431h1q30 3 55 8l4 -76q-29 -11 -69 -14h-2l-15 -112q-1 -4 -1 -10q0 -19 17 -19q9 0 18 3zM144 325
l10 74q-9 3 -17 3q-16 0 -25 -11t-9 -31q0 -35 41 -35z" />
    <glyph glyph-name="uni026D" unicode="&#x26d;" horiz-adv-x="233" 
d="M275 -180q-55 -41 -129 -41q-70 0 -109 38t-39 108q0 10 2 32l5 43l105 742l149 16l-106 -758l-7 -59q-1 -5 -1 -13q0 -19 10 -28.5t27 -9.5q15 0 26 3.5t28 12.5z" />
    <glyph glyph-name="uni026E" unicode="&#x26e;" horiz-adv-x="595" 
d="M575 427l-179 -219q154 -16 154 -163q0 -81 -33.5 -141t-92.5 -92.5t-132 -32.5q-123 0 -186 102l89 71q24 -31 46.5 -44t52.5 -13q48 0 76.5 39t28.5 107q0 45 -20 63t-60 18h-80l1 1l12 88l168 207h-213l-39 -285q-1 -4 -1 -10q0 -19 17 -19q9 0 18 3l12 -104
q-38 -19 -87 -19q-53 0 -81.5 29t-28.5 81q0 20 2 31l85 617l149 16l-31 -227h368z" />
    <glyph glyph-name="uni026F" unicode="&#x26f;" horiz-adv-x="686" 
d="M680 531l-74 -531h-129l3 81q-29 -47 -61 -72.5t-73 -25.5q-39 0 -64.5 24.5t-32.5 68.5q-28 -45 -60 -69t-71 -24q-46 0 -72.5 32.5t-26.5 88.5q0 18 3 37l56 390h148l-51 -366q-2 -16 -2 -22q0 -30 17 -30q15 0 31.5 26t39.5 81l44 311h148l-50 -366q-2 -18 -2 -23
q0 -29 17 -29q15 0 31.5 27t39.5 83l43 308h148z" />
    <glyph glyph-name="uni0270" unicode="&#x270;" horiz-adv-x="682" 
d="M679 531l-103 -737l-150 -16l40 291q-21 -38 -51 -62t-69 -24q-40 0 -65.5 24.5t-32.5 69.5q-57 -94 -129 -94q-47 0 -74 32.5t-27 89.5q0 17 3 36l56 390h148l-50 -366q-2 -18 -2 -23q0 -28 17 -28q28 0 67 89l48 328h148l-51 -366q-2 -16 -2 -22q0 -29 17 -29
q31 0 70 95l44 322h148z" />
    <glyph glyph-name="uni0271" unicode="&#x271;" horiz-adv-x="686" 
d="M640.5 515.5q26.5 -32.5 26.5 -88.5q0 -17 -3 -37l-56 -390l-7 -50q-12 -85 -64 -128t-131 -43q-70 0 -118 44l61 85q17 -10 27.5 -14t26.5 -4q21 0 33.5 13t15.5 37l8 60l51 366q2 16 2 22q0 30 -17 30q-15 0 -31.5 -26t-39.5 -81l-44 -311h-148l50 366q2 18 2 23
q0 29 -17 29q-15 0 -31.5 -27t-39.5 -83l-43 -308h-148l74 531h129l-3 -81q29 47 61 72.5t73 25.5q39 0 64.5 -24.5t32.5 -68.5q28 45 60 69t71 24q46 0 72.5 -32.5z" />
    <glyph glyph-name="uni0272" unicode="&#x272;" horiz-adv-x="470" 
d="M423.5 515.5q27.5 -32.5 27.5 -88.5q0 -17 -3 -37l-55 -390h-148l51 366q1 6 1 17q0 31 -20 31q-17 0 -36 -27t-44 -81l-43 -306l-7 -50q-12 -85 -64 -128t-131 -43q-70 0 -118 44l61 85q17 -10 27.5 -14t26.5 -4q21 0 33.5 13t15.5 37l8 60l74 531h129l-3 -84
q30 47 65 74t78 27q47 0 74.5 -32.5z" />
    <glyph glyph-name="uni0273" unicode="&#x273;" horiz-adv-x="470" 
d="M515 -180q-55 -41 -129 -41q-70 0 -109 38t-39 108q0 10 2 32l5 43l51 366q1 6 1 17q0 31 -20 31q-17 0 -36 -27t-44 -81l-43 -306h-148l74 531h129l-3 -84q30 47 65 74t78 27q47 0 74.5 -32.5t27.5 -88.5q0 -17 -3 -37l-55 -390l-7 -59q-1 -5 -1 -13q0 -19 10 -28.5
t27 -9.5q15 0 26 3.5t28 12.5z" />
    <glyph glyph-name="uni0274" unicode="&#x274;" horiz-adv-x="478" 
d="M398 0h-172l-60 398q0 -65 -2.5 -119.5t-11.5 -121.5l-22 -157h-124l74 531h172l60 -398q0 64 1.5 109.5t8.5 94.5l27 194h123z" />
    <glyph glyph-name="uni0275" unicode="&#x275;" horiz-adv-x="489" 
d="M419.5 494.5q48.5 -53.5 48.5 -155.5q0 -92 -29 -173t-88 -132t-145 -51q-88 0 -136.5 53.5t-48.5 154.5q0 92 29 173.5t88 132.5t145 51q88 0 136.5 -53.5zM215.5 405q-24.5 -35 -37.5 -92h146q2 32 2 46q0 42 -12.5 61.5t-37.5 19.5q-36 0 -60.5 -35zM275 129
q24 38 37 98h-147q-2 -38 -2 -55q0 -42 12.5 -61.5t38.5 -19.5q37 0 61 38z" />
    <glyph glyph-name="uni0276" unicode="&#x276;" horiz-adv-x="624" 
d="M622 427h-179q19 -44 19 -94v-13h127l-13 -102h-127q-16 -65 -51 -113h192l-15 -105h-288q-39 -17 -84 -17q-85 0 -133.5 53.5t-48.5 154.5q0 92 29 173.5t88 132.5t145 51q49 0 81 -17h288zM275 138q23 44 33.5 106t10.5 117q0 40 -11.5 57.5t-34.5 17.5
q-36 0 -59 -43.5t-33 -105t-10 -117.5q0 -40 11 -58t34 -18q36 0 59 44z" />
    <glyph glyph-name="uni0277" unicode="&#x277;" horiz-adv-x="637" 
d="M544.5 487q67.5 -61 67.5 -176q0 -89 -24.5 -163.5t-72.5 -119t-114 -44.5q-53 0 -81 28t-29 86q-22 -60 -55.5 -87t-84.5 -27q-63 0 -98.5 43.5t-35.5 129.5q0 190 90 290.5t253 100.5q117 0 184.5 -61zM448 151.5q21 56.5 21 152.5q0 69 -28.5 103.5t-92.5 34.5
q-188 0 -188 -279q0 -36 7 -52t21 -16q36 0 47 67l20 137l139 19l-25 -164q-2 -16 -2 -23q0 -36 26 -36q34 0 55 56.5z" />
    <glyph glyph-name="uni0278" unicode="&#x278;" horiz-adv-x="565" 
d="M486.5 102q-61.5 -86 -167.5 -97l-30 -211l-148 -16l32 229q-69 10 -112.5 60.5t-43.5 137.5q0 138 61.5 224.5t168.5 96.5l29 216l149 15l-32 -233q69 -11 112 -61.5t43 -137.5q0 -137 -61.5 -223zM390 174.5q23 66.5 23 154.5q0 50 -12.5 74t-37.5 27l-43 -330
q47 8 70 74.5zM176.5 358.5q-23.5 -65.5 -23.5 -157.5q0 -48 12 -72.5t37 -28.5l44 330q-46 -6 -69.5 -71.5z" />
    <glyph glyph-name="uni0279" unicode="&#x279;" horiz-adv-x="332" 
d="M-43 -7l46 145q22 -6 36 -6q36 0 60.5 39t44.5 111l34 249h148l-74 -531h-127l3 89q-24 -50 -55 -77t-73 -27q-21 0 -43 8z" />
    <glyph glyph-name="uni027A" unicode="&#x27a;" horiz-adv-x="332" 
d="M356 742l-30 -211l-74 -531h-127l3 89q-24 -50 -55 -77t-73 -27q-21 0 -43 8l46 145q22 -6 36 -6q36 0 60.5 39t44.5 111l34 249l32 226z" />
    <glyph glyph-name="uni027B" unicode="&#x27b;" horiz-adv-x="331" 
d="M374 -180q-55 -41 -129 -41q-70 0 -109 38t-39 108q0 10 2 32l5 43l10 71q-19 -39 -46.5 -62.5t-67.5 -23.5q-22 0 -43 9l46 144q22 -6 36 -6q36 0 60.5 39t44.5 111l34 249h148l-74 -531l-7 -59q-1 -5 -1 -13q0 -19 10 -28.5t27 -9.5q15 0 26 3.5t28 12.5z" />
    <glyph glyph-name="uni027C" unicode="&#x27c;" horiz-adv-x="332" 
d="M375 538l-46 -145q-22 6 -36 6q-35 0 -60 -39.5t-44 -110.5l-65 -455l-149 -16l105 753h127l-3 -89q24 50 55 77t73 27q22 0 43 -8z" />
    <glyph glyph-name="uni027D" unicode="&#x27d;" horiz-adv-x="332" 
d="M375 538l-46 -145q-22 6 -36 6q-36 0 -60.5 -39t-44.5 -111l-34 -249l-7 -59q-1 -5 -1 -13q0 -19 10 -28.5t27 -9.5q15 0 26 3.5t28 12.5l39 -86q-55 -41 -129 -41q-70 0 -109 38t-39 108q0 10 2 32l5 43l74 531h127l-3 -89q24 50 55 77t73 27q21 0 43 -8z" />
    <glyph glyph-name="uni027E" unicode="&#x27e;" horiz-adv-x="329" 
d="M368 504l-61 -85q-17 10 -27.5 14t-26.5 4q-21 0 -33.5 -13t-15.5 -37l-8 -60l-45 -327h-148l45 327l7 50q12 85 64 128t131 43q70 0 118 -44z" />
    <glyph glyph-name="uni027F" unicode="&#x27f;" horiz-adv-x="329" 
d="M266 510q39 -38 39 -108q0 -10 -2 -32l-5 -43l-45 -327h-148l45 327l7 59q1 5 1 13q0 19 -9.5 28.5t-27.5 9.5q-15 0 -26 -3.5t-28 -12.5l-39 86q55 41 129 41q70 0 109 -38z" />
    <glyph glyph-name="uni0280" unicode="&#x280;" horiz-adv-x="445" 
d="M326 214l75 -214h-142l-57 186h-30l-26 -186h-140l74 531h155q93 0 139 -37.5t46 -116.5q0 -115 -94 -163zM186 285h25q33 0 50 23.5t17 66.5q0 28 -12 40t-37 12h-23z" />
    <glyph glyph-name="uni0281" unicode="&#x281;" horiz-adv-x="444" 
d="M395 199q0 -98 -58.5 -148.5t-159.5 -50.5h-171l74 531h140l-26 -187h34l103 187h144l-136 -219q56 -36 56 -113zM253 192q0 28 -12.5 40t-36.5 12h-24l-19 -140h20q72 0 72 88z" />
    <glyph glyph-name="uni0282" unicode="&#x282;" horiz-adv-x="399" 
d="M341 260.5q26 -33.5 26 -87.5q0 -57 -25 -100.5t-69.5 -66.5t-100.5 -23q-42 0 -84 13l-7 -55l-1 -11q0 -40 44 -40q18 0 33 4.5t34 13.5l41 -88q-55 -41 -128 -41q-70 0 -110 37.5t-40 105.5q0 17 3 35l15 112l67 67q32 -22 57.5 -33.5t53.5 -11.5q33 0 50 17.5t17 44.5
q0 25 -16.5 41.5t-60.5 35.5q-55 25 -80 56.5t-25 83.5q0 50 25.5 90.5t70 64t100.5 23.5q51 0 94 -18t73 -49l-64 -80q-49 39 -94 39q-27 0 -43 -14t-16 -37q0 -20 17 -35t64 -36q53 -24 79 -57.5z" />
    <glyph glyph-name="uni0283" unicode="&#x283;" horiz-adv-x="235" 
d="M384 719l-57 -88q-25 15 -46 15q-20 0 -29.5 -13t-14.5 -42l-9 -60l-74 -531l-7 -50q-12 -85 -64 -128t-131 -43q-70 0 -118 44l61 85q17 -10 27.5 -14t26.5 -4q21 0 33.5 13t15.5 37l8 60l74 531l9 59q10 76 57 122t126 46q65 0 112 -39z" />
    <glyph glyph-name="uni0284" unicode="&#x284;" horiz-adv-x="334" 
d="M418 719l-57 -88q-25 15 -46 15q-20 0 -29.5 -13t-14.5 -42l-9 -60h2l-60 -425h59l-16 -106h-61q-16 -66 -47 -107.5t-70.5 -66t-98.5 -47.5l-33 110q42 19 65 42.5t36 68.5h-59l15 106h62l59 425h-1l9 59q10 76 57 122t126 46q65 0 112 -39z" />
    <glyph glyph-name="uni0285" unicode="&#x285;" horiz-adv-x="420" 
d="M397 25q-55 -41 -129 -41q-70 0 -109 38t-39 108q0 10 2 32l5 43h1l17 122l7 59q1 5 1 13q0 19 -9.5 28.5t-27.5 9.5q-15 0 -26 -3.5t-28 -12.5l-39 86q55 41 129 41q70 0 109 -38t39 -108q0 -10 -2 -32l-5 -43l-17 -123h-1l-7 -58q-1 -5 -1 -13q0 -18 10 -28t27 -10
q15 0 26 4t28 12z" />
    <glyph glyph-name="uni0286" unicode="&#x286;" horiz-adv-x="298" 
d="M447 719l-57 -88q-25 15 -46 15q-20 0 -29.5 -13t-14.5 -42l-9 -60l-75 -542q38 -12 70 -35l-33 -61q-24 14 -53 25q-44 -138 -186 -138q-57 0 -88 29t-31 81q0 61 37.5 95t96.5 34q29 0 42 -3l72 515l9 59q10 76 57 122t126 46q65 0 112 -39zM59 -68l2 14q-15 3 -33 3
q-23 0 -36 -14.5t-13 -39.5q0 -36 29 -36q42 0 51 73z" />
    <glyph glyph-name="uni0287" unicode="&#x287;" horiz-adv-x="322" 
d="M284 0h-63l-30 -119l-131 -14l19 133h-96l32 106h79l38 273q1 4 1 12q0 37 -31 37q-18 0 -44 -13l-35 94q28 20 60.5 29.5t65.5 9.5q64 0 98.5 -36t34.5 -100q0 -23 -2 -35l-38 -271h57z" />
    <glyph glyph-name="uni0288" unicode="&#x288;" horiz-adv-x="322" 
d="M162 -59q-1 -5 -1 -13q0 -19 10 -28.5t27 -9.5q15 0 26 3.5t28 12.5l39 -86q-55 -41 -129 -41q-70 0 -109 38t-39 108q0 10 2 32l5 43l59 425h-58l16 106h62l30 119l131 14l-18 -133h96l-33 -106h-78l-59 -425z" />
    <glyph glyph-name="uni0289" unicode="&#x289;" horiz-adv-x="507" 
d="M511 299h-58l-42 -299h-129l4 75q-29 -44 -60 -68t-76 -24q-48 0 -76.5 32t-28.5 87q0 17 3 35l23 162h-59l13 95h59l19 137h148l-19 -137h87l19 137h147l-19 -137h59zM305 299h-87l-20 -144q-1 -5 -1 -14q0 -14 5.5 -21.5t14.5 -7.5q31 0 72 74z" />
    <glyph glyph-name="uni028A" unicode="&#x28a;" horiz-adv-x="496" 
d="M67 38q-50 54 -50 139q0 79 32 142t93 107h-76l16 105h179l-15 -99q-36 -52 -56 -118.5t-20 -133.5q0 -45 12.5 -66.5t38.5 -21.5q44 0 70 55.5t26 149.5q0 48 -4.5 78t-13.5 58l15 98h177l-16 -105h-76q33 -30 50.5 -67.5t17.5 -89.5q0 -88 -35 -153t-93.5 -98.5
t-129.5 -33.5q-92 0 -142 54z" />
    <glyph glyph-name="uni028B" unicode="&#x28b;" horiz-adv-x="465" 
d="M67 22q-45 38 -45 105q0 8 2 28l53 376h147l-52 -380q-1 -6 -1 -16q0 -40 32 -40q28 0 48 32t29 96l26 187v8q0 19 -13 19q-8 0 -16 -3l-7 99q36 14 76 14q52 0 80.5 -29.5t28.5 -87.5q0 -17 -3 -37l-23 -168q-16 -120 -84.5 -180.5t-161.5 -60.5q-71 0 -116 38z" />
    <glyph glyph-name="uni028C" unicode="&#x28c;" horiz-adv-x="428" 
d="M-43 0l201 531h178l60 -531h-156l-9 416l-120 -416h-154z" />
    <glyph glyph-name="uni028D" unicode="&#x28d;" horiz-adv-x="627" 
d="M-32 0l161 531h168l-1 -397l102 397h172l14 -531h-148l23 418l-116 -418h-141l5 418l-97 -418h-142z" />
    <glyph glyph-name="uni028E" unicode="&#x28e;" horiz-adv-x="433" 
d="M162 533q44 114 113.5 164.5t178.5 58.5l2 -103q-66 -11 -99.5 -37t-59.5 -86l53 1l51 -531h-154l-5 433l-129 -433h-156z" />
    <glyph glyph-name="uni028F" unicode="&#x28f;" horiz-adv-x="428" 
d="M472 531l-194 -338l-27 -193h-148l27 192l-98 339h155l30 -234l100 234h155z" />
    <glyph glyph-name="uni0290" unicode="&#x290;" horiz-adv-x="381" 
d="M446 -180q-55 -41 -129 -41q-70 0 -109 38t-39 108q0 10 2 32l5 43h-205l16 107l223 310h-166l18 114h338l-16 -107l-223 -309h180l-17 -115l-7 -59q-1 -5 -1 -13q0 -19 10 -28.5t27 -9.5q15 0 26 3.5t28 12.5z" />
    <glyph glyph-name="uni0291" unicode="&#x291;" horiz-adv-x="469" 
d="M442.5 233.5q27.5 -26.5 27.5 -75.5q0 -80 -52 -119.5t-137 -38.5h-11q-8 -32 -22 -129l-80 4q10 76 22 125h-219l16 107l223 310h-166l18 114h338l-15 -96l-231 -320h69q29 79 63.5 112t83.5 33q45 0 72.5 -26.5zM358 125q15 10 15 33q0 22 -19 22q-31 0 -52 -65h13
q28 0 43 10z" />
    <glyph glyph-name="uni0292" unicode="&#x292;" horiz-adv-x="422" 
d="M402 427l-179 -219q154 -16 154 -163q0 -81 -33.5 -141t-92 -92.5t-131.5 -32.5q-125 0 -186 102l89 71q24 -31 46.5 -44t52.5 -13q47 0 75.5 39t28.5 107q0 45 -20 63t-60 18h-79l13 89l167 207h-206l16 113h360z" />
    <glyph glyph-name="uni0293" unicode="&#x293;" horiz-adv-x="418" 
d="M400 427l-175 -213q73 -6 111 -47.5t38 -116.5q0 -92 -45.5 -158t-125.5 -95l17 -62l-76 -24l-15 70q-26 -2 -40 -2q-72 0 -114 35t-42 99q0 63 36 99.5t87 36.5q47 0 72.5 -29t42.5 -103q52 39 52 130q0 44 -20 62.5t-65 18.5h-74l1 1l12 82l169 207h-207l16 113h360z
M46 -95.5q13 -9.5 44 -9.5h12q-10 45 -18.5 60.5t-23.5 15.5q-13 0 -20 -10.5t-7 -27.5q0 -19 13 -28.5z" />
    <glyph glyph-name="uni0294" unicode="&#x294;" horiz-adv-x="407" 
d="M119 354l30 12q65 28 93 72t28 118q0 44 -16 67t-47 23q-25 0 -49 -13t-53 -40l-62 75q45 46 90.5 68t102.5 22q56 0 99.5 -24.5t68 -69t24.5 -103.5q0 -98 -36 -155.5t-111 -90.5l-21 -9l-42 -306h-148z" />
    <glyph glyph-name="uni0295" unicode="&#x295;" horiz-adv-x="403" 
d="M112 0l42 307l-16 10q-44 27 -66 61.5t-22 99.5q0 79 32 143t88 100.5t126 36.5q57 0 99.5 -23.5t76.5 -69.5l-80 -70q-23 27 -43.5 39t-47.5 12q-45 0 -72.5 -45t-27.5 -120q0 -48 19 -75.5t60 -44.5l28 -10l-48 -351h-148z" />
    <glyph glyph-name="uni0296" unicode="&#x296;" horiz-adv-x="422" 
d="M323 757l-45 -323l23 -10q92 -41 92 -160q0 -81 -31 -145t-86.5 -99.5t-125.5 -35.5q-58 0 -102 23.5t-78 69.5l82 70q23 -27 43.5 -39t46.5 -12q47 0 73 45t26 119q0 50 -18.5 77t-58.5 40l-39 13l50 352z" />
    <glyph glyph-name="uni0297" unicode="&#x297;" horiz-adv-x="415" 
d="M384.5 531.5q35.5 -16.5 64.5 -49.5l-72 -81q-19 16 -35.5 24t-35.5 8q-46 0 -78 -59t-47.5 -151t-15.5 -191q0 -80 14.5 -107.5t43.5 -27.5q20 0 38 7.5t42 23.5l53 -89q-73 -60 -158 -60q-89 0 -138 63t-49 190q0 149 35 266t100.5 183.5t154.5 66.5q48 0 83.5 -16.5z
" />
    <glyph glyph-name="uni0298" unicode="&#x298;" horiz-adv-x="666" 
d="M535 676.5q58 -33.5 89 -96.5t31 -149q0 -135 -46 -236t-128.5 -156t-189.5 -55q-78 0 -136 34t-89.5 97t-31.5 150q0 134 46.5 235t129 155.5t188.5 54.5q79 0 137 -33.5zM233.5 508q-53.5 -96 -53.5 -250q0 -86 32 -127.5t91 -41.5q67 0 113.5 44t70 121t23.5 177
q0 88 -32.5 130.5t-89.5 42.5q-101 0 -154.5 -96zM288.5 282q-17.5 18 -17.5 48q0 37 24 61.5t60 24.5q32 0 49.5 -18.5t17.5 -47.5q0 -38 -24 -62t-60 -24q-32 0 -49.5 18z" />
    <glyph glyph-name="uni0299" unicode="&#x299;" horiz-adv-x="446" 
d="M315 291q103 -13 103 -104q0 -90 -62.5 -138.5t-167.5 -48.5h-182l73 525q90 22 178 22q82 0 129 -34.5t47 -92.5q0 -104 -118 -129zM271 344q17 22 17 63q0 23 -10 33t-33 10q-15 0 -35 -4l-17 -124h30q31 0 48 22zM249.5 124q22.5 24 22.5 71q0 26 -12.5 36t-41.5 10
h-36l-20 -141h28q37 0 59.5 24z" />
    <glyph glyph-name="uni029A" unicode="&#x29a;" horiz-adv-x="484" 
d="M60 24q-51 40 -51 110q0 61 38 101.5t108 47.5q-44 12 -65.5 36.5t-21.5 63.5q0 45 25 83t71 60t106 22q92 0 141.5 -57t49.5 -156q0 -165 -68.5 -258t-201.5 -93q-80 0 -131 40zM293 165.5q27 73.5 27 173.5q0 55 -14 79.5t-41 24.5q-26 0 -40 -19t-14 -51q0 -51 47 -51
h15l-29 -98h-13q-37 0 -54.5 -22t-17.5 -56q0 -26 12 -40t35 -14q60 0 87 73.5z" />
    <glyph glyph-name="uni029B" unicode="&#x29b;" horiz-adv-x="462" 
d="M573 747q29 -11 50 -28l-53 -89q-27 16 -50 16q-20 0 -30 -14t-14 -43l-16 -114l-73 -70q-28 19 -49.5 27t-47.5 8q-60 0 -88.5 -74.5t-28.5 -179.5q0 -50 13 -71.5t41 -21.5q26 0 52 13l15 105h-50l1 99h197l-37 -263q-39 -29 -88.5 -45.5t-103.5 -16.5q-96 0 -144 51
t-48 149q0 110 34 192t93.5 126.5t135.5 44.5q28 0 58 -10l12 76q12 70 50.5 107t105.5 37q34 0 63 -11z" />
    <glyph glyph-name="uni029C" unicode="&#x29c;" horiz-adv-x="476" 
d="M248 0l30 214h-94l-30 -214h-148l74 531h148l-28 -206h94l28 206h148l-74 -531h-148z" />
    <glyph glyph-name="uni029D" unicode="&#x29d;" horiz-adv-x="334" 
d="M308 786.5q20 -20.5 20 -54.5q0 -43 -27.5 -70.5t-68.5 -27.5q-36 0 -56.5 20.5t-20.5 54.5q0 42 28 70t68 28q37 0 57 -20.5zM291 531l-75 -542q38 -12 70 -35l-33 -61q-24 14 -53 25q-44 -138 -186 -138q-57 0 -88 29t-31 81q0 61 37.5 95t96.5 34q29 0 42 -3l72 515
h148zM59 -68l2 14q-15 3 -33 3q-23 0 -36 -14.5t-13 -39.5q0 -36 29 -36q42 0 51 73z" />
    <glyph glyph-name="uni029E" unicode="&#x29e;" horiz-adv-x="455" 
d="M-43 0l160 249l-89 282h157l76 -290l-148 -241h-156zM200 -222l105 753h148l-104 -737z" />
    <glyph glyph-name="uni029F" unicode="&#x29f;" horiz-adv-x="366" 
d="M228 531l-55 -414h174l-34 -117h-307l74 531h148z" />
    <glyph glyph-name="uni02A0" unicode="&#x2a0;" horiz-adv-x="488" 
d="M638 719l-57 -88q-25 15 -46 15q-20 0 -29.5 -13t-14.5 -42l-9 -60l-104 -749l-147 7l36 254q-25 -29 -50.5 -44.5t-60.5 -15.5q-65 0 -101.5 50.5t-36.5 137.5q0 97 29 183t87 140t141 54q33 0 60 -10l8 52q10 76 57 122t126 46q65 0 112 -39zM366 531h-13l4 -2z
M320 435q-15 5 -34 5q-57 0 -87.5 -80.5t-30.5 -191.5q0 -40 9.5 -57t29.5 -17t38 17t37 48z" />
    <glyph glyph-name="uni02A1" unicode="&#x2a1;" horiz-adv-x="407" 
d="M260 306l-12 -85h79l-13 -89h-78l-18 -132h-148l18 132h-55l13 89h55l18 133l30 12q65 28 93 72t28 118q0 44 -16 67t-47 23q-25 0 -49 -13t-53 -40l-62 75q45 46 90.5 68t102.5 22q56 0 99.5 -24.5t68 -69t24.5 -103.5q0 -98 -36 -155.5t-111 -90.5z" />
    <glyph glyph-name="uni02A2" unicode="&#x2a2;" horiz-adv-x="403" 
d="M395.5 734.5q42.5 -23.5 76.5 -69.5l-80 -70q-23 27 -43.5 39t-47.5 12q-45 0 -72.5 -45t-27.5 -120q0 -48 19 -75.5t60 -44.5l28 -10l-18 -130h56l-13 -89h-55l-18 -132h-148l18 132h-78l13 89h77l12 86l-16 10q-44 27 -66 61.5t-22 99.5q0 79 32 143t88 100.5t126 36.5
q57 0 99.5 -23.5z" />
    <glyph glyph-name="uni02A3" unicode="&#x2a3;" horiz-adv-x="820" 
d="M823 424l-220 -309h185l-30 -115h-477l3 66q-27 -41 -58 -62t-73 -21q-64 0 -99 49t-35 140q0 93 25.5 179.5t76 141.5t120.5 55q61 0 93 -50l36 259l146 -15l-30 -211h353zM320 400q-10 19 -21.5 28.5t-28.5 9.5q-33 0 -55.5 -43t-33.5 -105.5t-11 -117.5
q0 -43 10.5 -60.5t29.5 -17.5q20 0 39 20t39 57zM427 105l222 312h-179z" />
    </font>
</defs>
</svg>
