<?xml version="1.0" standalone="no"?>
<!DOCTYPE svg PUBLIC "-//W3C//DTD SVG 1.1//EN" "http://www.w3.org/Graphics/SVG/1.1/DTD/svg11.dtd" >
<svg xmlns="http://www.w3.org/2000/svg" xmlns:xlink="http://www.w3.org/1999/xlink" version="1.1">
<metadata>
Created by FontForge 20170731 at Tue Dec  6 15:27:44 2016
 By Aleksey,,,
Digitized data copyright 2012-2016, The Mozilla Foundation and Telefonica S.A.
</metadata>
<defs>
<font id="FiraSansExtraCondensed-BlackItalic" horiz-adv-x="460" >
  <font-face 
    font-family="Fira Sans Extra Condensed Black"
    font-weight="900"
    font-style="italic"
    font-stretch="condensed"
    units-per-em="1000"
    panose-1="2 11 10 3 5 0 0 2 0 4"
    ascent="800"
    descent="-200"
    x-height="534"
    cap-height="696"
    bbox="-662 -356 1416 1233"
    underline-thickness="50"
    underline-position="-150"
    slope="-8"
    unicode-range="U+000D-FEFF"
  />
<missing-glyph horiz-adv-x="654" 
d="M643 1050l-197 -1400h-412l197 1400h412zM584 998h-305l-183 -1296h305zM416 426q23 -25 23 -66q0 -9 -2 -27q-7 -52 -32.5 -80t-75.5 -35l-7 -46q-1 -11 -9 -17t-17 -6q-10 0 -17.5 7t-5.5 18l11 83q52 3 73.5 20.5t26.5 59.5q2 14 2 21q0 45 -50 45q-26 0 -53 -12
q-6 -2 -12 -2q-12 0 -18 7t-5 19q3 17 32.5 26.5t61.5 9.5q51 0 74 -25zM313 109.5q9 -10.5 7 -27.5q-2 -14 -13.5 -24t-25.5 -10q-13 0 -21.5 9.5t-8.5 24.5q0 16 11 27t26 11q16 0 25 -10.5z" />
    <glyph glyph-name="fi" unicode="fi" horiz-adv-x="498" 
d="M436 0h-185l56 405h-51l-44 -332q-13 -94 -50 -152.5t-86.5 -89.5t-120.5 -57l-41 136q52 21 77 53.5t34 99.5l46 342h-52l18 129h51l5 35q12 85 73.5 139.5t157.5 54.5q48 0 87.5 -10t81.5 -33l-65 -116q-28 12 -47.5 17t-39.5 5q-29 0 -44 -16t-20 -52l-3 -24h237z" />
    <glyph glyph-name="fl" unicode="fl" horiz-adv-x="538" 
d="M505 132l11 -131q-47 -20 -101 -20q-63 0 -96 33t-33 92q0 16 3 34l69 491q-18 2 -24 2q-28 0 -39.5 -17.5t-17.5 -57.5l-3 -24h52l-36 -129h-34l-44 -332q-13 -94 -50 -152.5t-86.5 -89.5t-120.5 -57l-41 136q52 21 77 53.5t34 99.5l46 342h-52l18 129h51l5 35
q12 86 68 140t149 54q59 0 105 -16l147 15l-84 -606q-1 -4 -1 -10q0 -16 15 -16q5 0 13 2z" />
    <glyph glyph-name=".notdef" horiz-adv-x="654" 
d="M643 1050l-197 -1400h-412l197 1400h412zM584 998h-305l-183 -1296h305zM416 426q23 -25 23 -66q0 -9 -2 -27q-7 -52 -32.5 -80t-75.5 -35l-7 -46q-1 -11 -9 -17t-17 -6q-10 0 -17.5 7t-5.5 18l11 83q52 3 73.5 20.5t26.5 59.5q2 14 2 21q0 45 -50 45q-26 0 -53 -12
q-6 -2 -12 -2q-12 0 -18 7t-5 19q3 17 32.5 26.5t61.5 9.5q51 0 74 -25zM313 109.5q9 -10.5 7 -27.5q-2 -14 -13.5 -24t-25.5 -10q-13 0 -21.5 9.5t-8.5 24.5q0 16 11 27t26 11q16 0 25 -10.5z" />
    <glyph glyph-name=".null" horiz-adv-x="0" 
 />
    <glyph glyph-name="nonmarkingreturn" unicode="&#xd;" horiz-adv-x="157" 
 />
    <glyph glyph-name="space" unicode=" " horiz-adv-x="157" 
 />
    <glyph glyph-name="exclam" unicode="!" horiz-adv-x="230" 
d="M39 267l33 429h194l-84 -429h-143zM16 5.5q-23 25.5 -23 62.5q0 48 31 80.5t78 32.5q39 0 62 -25.5t23 -63.5q0 -48 -31 -80t-78 -32q-39 0 -62 25.5z" />
    <glyph glyph-name="quotedbl" unicode="&#x22;" horiz-adv-x="438" 
d="M73 406l22 290h154l-60 -290h-116zM287 406l22 290h154l-60 -290h-116z" />
    <glyph glyph-name="numbersign" unicode="#" horiz-adv-x="490" 
d="M503 437h-51l-45 -182h40l-17 -119h-52l-34 -136h-143l33 136h-54l-34 -136h-142l33 136h-44l17 119h56l45 182h-45l16 119h58l30 123h145l-31 -123h54l30 123h144l-30 -123h37zM264 255l44 182h-53l-46 -182h55z" />
    <glyph glyph-name="dollar" unicode="$" horiz-adv-x="462" 
d="M415.5 345q31.5 -40 31.5 -105q0 -94 -53 -158t-141 -84l-23 -162h-122l22 157q-100 15 -163 96l98 96q29 -30 56 -45t58 -15q36 0 55 22t19 56q0 25 -18 44.5t-65 42.5q-68 33 -98 71t-30 97q0 88 54 149.5t140 77.5l21 148h123l-22 -150q79 -18 130 -83l-90 -93
q-47 49 -99 49q-31 0 -47.5 -16.5t-16.5 -42.5q0 -21 17 -37t63 -39q69 -36 100.5 -76z" />
    <glyph glyph-name="percent" unicode="%" horiz-adv-x="737" 
d="M571 724l-476 -707l94 -61l478 707zM88 361.5q-38 37.5 -38 110.5q0 61 22.5 112t64 81.5t97.5 30.5q61 0 98 -37.5t37 -109.5q0 -61 -22 -112.5t-63.5 -82t-96.5 -30.5q-61 0 -99 37.5zM236 467q14 38 14 82q0 42 -27 42t-40 -36t-13 -83q0 -23 6.5 -33t20.5 -10
q25 0 39 38zM426 17.5q-38 37.5 -38 110.5q0 61 22.5 112t64 81.5t97.5 30.5q61 0 98 -37.5t37 -109.5q0 -61 -22 -112.5t-63.5 -82t-96.5 -30.5q-61 0 -99 37.5zM574 123q14 38 14 82q0 42 -27 42t-40 -36t-13 -83q0 -23 6.5 -33t20.5 -10q25 0 39 38z" />
    <glyph glyph-name="ampersand" unicode="&#x26;" horiz-adv-x="671" 
d="M467 674.5q48 -41.5 48 -108.5q0 -64 -34 -113.5t-98 -97.5l69 -106q18 41 44 123l135 -36q-43 -104 -101 -181l90 -107l-169 -68l-46 66q-47 -35 -92 -50.5t-96 -15.5q-57 0 -100 21.5t-67 60t-24 88.5q0 71 35.5 122.5t105.5 99.5q-33 41 -46.5 72t-13.5 64
q0 63 29 110t80 72.5t117 25.5q86 0 134 -41.5zM290 570q-10 -27 -10 -57q0 -18 4 -32t14 -34q23 31 33.5 58.5t10.5 62.5q0 15 -5 22t-16 7q-21 0 -31 -27zM220 165q0 -27 12 -40.5t35 -13.5q36 0 67 24l-82 129q-32 -42 -32 -99z" />
    <glyph glyph-name="quotesingle" unicode="'" horiz-adv-x="224" 
d="M73 406l22 290h154l-60 -290h-116z" />
    <glyph glyph-name="parenleft" unicode="(" horiz-adv-x="284" 
d="M356 783q-86 -118 -129 -277.5t-43 -318.5q0 -83 12 -149t38 -128l-132 -74q-32 70 -52 123t-33 118t-13 141q0 131 27.5 238.5t79 203.5t133.5 206z" />
    <glyph glyph-name="parenright" unicode=")" horiz-adv-x="287" 
d="M259.5 740q19.5 -52 33 -117.5t13.5 -141.5q0 -129 -28 -237.5t-80 -205t-134 -204.5l-110 83q86 121 128 277.5t42 316.5q0 83 -12 150t-38 129l133 74q33 -72 52.5 -124z" />
    <glyph glyph-name="asterisk" unicode="*" horiz-adv-x="404" 
d="M435 521l-119 -19l76 -103l-142 -83l-26 120l-57 -121l-122 83l99 106l-103 18l59 141l93 -57l-8 138h160l-45 -141l102 60z" />
    <glyph glyph-name="plus" unicode="+" horiz-adv-x="462" 
d="M349 563l-22 -159h123l-20 -144h-126l-24 -159h-146l23 159h-127l20 144h130l22 159h147z" />
    <glyph glyph-name="comma" unicode="," horiz-adv-x="219" 
d="M156.5 159q22.5 -23 22.5 -62q0 -28 -11 -55.5t-42 -84.5l-77 -140h-91l64 183q-34 24 -34 68q0 47 30.5 80.5t76.5 33.5q39 0 61.5 -23z" />
    <glyph glyph-name="hyphen" unicode="-" horiz-adv-x="350" 
d="M28 241l19 144h288l-19 -144h-288z" />
    <glyph glyph-name="period" unicode="." horiz-adv-x="223" 
d="M11 5.5q-23 25.5 -23 62.5q0 48 31 80.5t78 32.5q39 0 62 -25.5t23 -63.5q0 -48 -31 -80t-78 -32q-39 0 -62 25.5z" />
    <glyph glyph-name="slash" unicode="/" horiz-adv-x="427" 
d="M307 821l155 -38l-316 -899l-156 39z" />
    <glyph glyph-name="zero" unicode="0" horiz-adv-x="523" 
d="M155.5 630.5q-64.5 -65.5 -94.5 -171.5t-30 -230q0 -249 196 -249q95 0 159.5 65.5t95 171.5t30.5 228q0 123 -50 187t-145 64q-97 0 -161.5 -65.5zM326.5 546.5q6.5 -11.5 6.5 -40.5q0 -74 -12.5 -166t-34.5 -157t-50 -65q-13 0 -19.5 11.5t-6.5 40.5q0 69 12 161.5
t34 159.5t51 67q13 0 19.5 -11.5z" />
    <glyph glyph-name="one" unicode="1" horiz-adv-x="411" 
d="M413 680l-95 -680h-179l65 488l-118 -78l-63 126l223 144h167z" />
    <glyph glyph-name="two" unicode="2" horiz-adv-x="437" 
d="M397 647q50 -49 50 -125q0 -59 -31.5 -118t-84 -117t-142.5 -145l217 1l-39 -143h-393l16 132q96 100 146.5 157.5t85 114.5t34.5 104q0 45 -39 45q-21 0 -43.5 -15t-53.5 -48l-94 83q93 123 228 123q93 0 143 -49z" />
    <glyph glyph-name="three" unicode="3" horiz-adv-x="442" 
d="M387.5 650.5q50.5 -45.5 50.5 -115.5q0 -69 -42 -114t-123 -63q68 -9 103.5 -40.5t35.5 -91.5q0 -69 -34.5 -125t-94.5 -88.5t-134 -32.5q-70 0 -118.5 28t-85.5 81l108 90q25 -31 45.5 -44t46.5 -13q32 0 54.5 28.5t22.5 78.5q0 62 -67 62h-47l38 127h30q35 0 56.5 25
t21.5 66q0 49 -46 49q-25 0 -52.5 -14.5t-53.5 -40.5l-78 97q98 96 223 96q90 0 140.5 -45.5z" />
    <glyph glyph-name="four" unicode="4" horiz-adv-x="494" 
d="M487 277l-20 -141h-53l-19 -136h-176l18 136h-244l17 125l212 440l150 -55l-169 -369h55l44 150h153l-21 -150h53z" />
    <glyph glyph-name="five" unicode="5" horiz-adv-x="467" 
d="M437 547h-189l-17 -119q24 14 43.5 19t41.5 5q58 0 94.5 -43.5t36.5 -126.5q0 -88 -35 -156.5t-98.5 -107t-145.5 -38.5q-70 0 -116 29.5t-77 81.5l111 87q20 -29 39 -43.5t46 -14.5q46 0 66.5 45t20.5 107q0 29 -9.5 41t-28.5 12q-14 0 -27.5 -5.5t-33.5 -19.5l-119 1
l54 379h380z" />
    <glyph glyph-name="six" unicode="6" horiz-adv-x="497" 
d="M450.5 416.5q35.5 -45.5 35.5 -127.5q0 -89 -31.5 -159t-90 -110t-138.5 -40q-200 0 -200 232q0 123 39.5 234.5t115 180.5t176.5 69q80 0 134 -47l-77 -104q-33 19 -59 19q-37 0 -67 -36.5t-49 -115.5q47 50 112 50q64 0 99.5 -45.5zM272.5 144.5q15.5 31.5 23 75
t7.5 78.5q0 23 -5.5 31.5t-17.5 8.5q-23 0 -59 -41q-12 -93 -12 -134q0 -28 6.5 -39t19.5 -11q22 0 37.5 31.5z" />
    <glyph glyph-name="seven" unicode="7" horiz-adv-x="399" 
d="M455 679l-18 -125l-272 -573l-157 57l237 501h-205l20 140h395z" />
    <glyph glyph-name="eight" unicode="8" horiz-adv-x="500" 
d="M457 296.5q21 -35.5 21 -81.5q0 -72 -34 -125.5t-94.5 -81.5t-137.5 -28q-69 0 -117 23.5t-72 64t-24 89.5q0 125 129 189q-34 29 -49 61t-15 70q0 66 30.5 115.5t85 76.5t125.5 27q94 0 147 -42t53 -114q0 -108 -117 -176q48 -32 69 -67.5zM251.5 543
q-12.5 -28 -12.5 -67q0 -19 8 -32.5t29 -26.5l5 -3q46 46 46 113q0 24 -8 34t-25 10q-30 0 -42.5 -28zM280 140q18 27 18 68q0 27 -11.5 43t-43.5 34l-12 7q-26 -26 -39 -58t-13 -65q0 -56 48 -56q35 0 53 27z" />
    <glyph glyph-name="nine" unicode="9" horiz-adv-x="499" 
d="M456 640.5q52 -55.5 52 -154.5q0 -211 -121 -342.5t-343 -174.5l-24 128q112 31 171 71t97 115q-28 -27 -54.5 -40t-58.5 -13q-62 0 -101.5 48t-39.5 131q0 81 33.5 146.5t94.5 103t141 37.5q101 0 153 -55.5zM320 521q0 26 -7 36.5t-22 10.5q-33 0 -51.5 -49.5
t-18.5 -104.5q0 -57 31 -57q28 0 60 47q8 62 8 117z" />
    <glyph glyph-name="colon" unicode=":" horiz-adv-x="224" 
d="M12 5.5q-23 25.5 -23 62.5q0 48 31 80.5t78 32.5q39 0 62 -25.5t23 -63.5q0 -48 -31 -80t-78 -32q-39 0 -62 25.5zM58 337.5q-23 25.5 -23 62.5q0 48 31 80.5t78 32.5q39 0 62 -25.5t23 -63.5q0 -48 -31 -80t-78 -32q-39 0 -62 25.5z" />
    <glyph glyph-name="semicolon" unicode=";" horiz-adv-x="223" 
d="M157.5 159q22.5 -23 22.5 -62q0 -28 -11 -55.5t-42 -84.5l-77 -140h-91l64 183q-34 24 -34 68q0 47 30.5 80.5t76.5 33.5q39 0 61.5 -23zM58 337.5q-23 25.5 -23 62.5q0 48 31 80.5t78 32.5q39 0 62 -25.5t23 -63.5q0 -48 -31 -80t-78 -32q-39 0 -62 25.5z" />
    <glyph glyph-name="less" unicode="&#x3c;" horiz-adv-x="439" 
d="M410 588l40 -135l-276 -125l240 -126l-79 -124l-321 175l22 161z" />
    <glyph glyph-name="equal" unicode="=" horiz-adv-x="444" 
d="M46 369l20 144h381l-20 -144h-381zM15 150l20 144h381l-20 -144h-381z" />
    <glyph glyph-name="greater" unicode="&#x3e;" horiz-adv-x="440" 
d="M124 588l321 -175l-22 -161l-374 -174l-41 137l281 125l-244 124z" />
    <glyph glyph-name="question" unicode="?" horiz-adv-x="418" 
d="M405 669.5q49 -45.5 49 -115.5q0 -45 -16 -77t-38 -52t-57 -44q-37 -26 -54.5 -44.5t-17.5 -45.5q0 -17 2 -27l-164 -25q-9 32 -9 55q0 44 14 75.5t34 51.5t50 42q31 24 44.5 39.5t13.5 38.5q0 26 -27 26q-33 0 -83 -52l-96 90q88 110 218 110q88 0 137 -45.5zM111 5.5
q-23 25.5 -23 62.5q0 48 31 80.5t78 32.5q39 0 62 -25.5t23 -63.5q0 -48 -31 -80t-78 -32q-39 0 -62 25.5z" />
    <glyph glyph-name="at" unicode="@" horiz-adv-x="847" 
d="M674 670q75 -45 113.5 -122t38.5 -170q0 -102 -31.5 -188.5t-86.5 -137t-123 -50.5q-44 0 -71.5 26.5t-29.5 66.5q-21 -43 -51.5 -66t-76.5 -23q-63 0 -95.5 43.5t-32.5 121.5q0 90 27.5 167t81 123.5t128.5 46.5q41 0 82 -13.5t73 -35.5l-34 -240q-1 -7 -2 -15t-3 -16
q-6 -42 -6 -51q0 -24 15 -24q23 0 41.5 43.5t29.5 107t11 118.5q0 101 -45.5 151.5t-139.5 50.5q-102 0 -171 -61.5t-102.5 -163.5t-33.5 -224q0 -117 51 -173t156 -56q42 0 87.5 9.5t78.5 23.5l27 -122q-43 -19 -100 -31t-109 -12q-170 0 -260 97t-90 271q0 152 59.5 283.5
t167.5 210.5t247 79q104 0 179 -45zM427 138l36 257q-6 2 -12 2q-20 0 -35.5 -40.5t-24 -98t-8.5 -105.5q0 -21 3.5 -29t11.5 -8q15 0 29 22z" />
    <glyph glyph-name="A" unicode="A" horiz-adv-x="506" 
d="M488 0h-198v138h-111l-36 -138h-201l255 696h231zM214 276h76v294z" />
    <glyph glyph-name="B" unicode="B" horiz-adv-x="512" 
d="M500 230q0 -114 -82.5 -172t-216.5 -58h-211l98 696h186q115 0 180.5 -40.5t65.5 -117.5q0 -68 -40 -111t-102 -59q122 -27 122 -138zM306.5 449.5q16.5 24.5 16.5 65.5q0 45 -48 45h-13l-19 -135h11q36 0 52.5 24.5zM283 169.5q21 29.5 21 72.5q0 29 -13 43t-44 14h-21
l-22 -159h17q41 0 62 29.5z" />
    <glyph glyph-name="C" unicode="C" horiz-adv-x="488" 
d="M537 634l-98 -100q-39 39 -84 39q-46 0 -76 -51t-43 -127.5t-13 -154.5q0 -59 16.5 -85t50.5 -26q25 0 48.5 12.5t58.5 38.5l69 -106q-98 -94 -217 -94q-105 0 -165.5 68.5t-60.5 203.5q0 130 37.5 235t113 167t183.5 62q109 0 180 -82z" />
    <glyph glyph-name="D" unicode="D" horiz-adv-x="550" 
d="M477.5 642q71.5 -54 71.5 -197q0 -208 -85 -326.5t-266 -118.5h-208l98 696h197q121 0 192.5 -54zM262 557l-58 -417h23q67 0 96.5 97.5t29.5 214.5q0 56 -15.5 80.5t-48.5 24.5h-27z" />
    <glyph glyph-name="E" unicode="E" horiz-adv-x="421" 
d="M476 696l-42 -137h-171l-20 -139h154l-20 -134h-153l-20 -147h188l-20 -139h-382l98 696h388z" />
    <glyph glyph-name="F" unicode="F" horiz-adv-x="397" 
d="M462 696l-43 -137h-156l-22 -160h142l-22 -138h-140l-37 -261h-194l98 696h374z" />
    <glyph glyph-name="G" unicode="G" horiz-adv-x="547" 
d="M488.5 691q49.5 -25 83.5 -66l-101 -93q-25 24 -47.5 34.5t-51.5 10.5q-81 0 -118 -110.5t-37 -253.5q0 -49 12.5 -70.5t37.5 -21.5q28 0 55 20l19 132h-48l1 134h246l-48 -349q-52 -37 -115.5 -57t-119.5 -20q-236 0 -236 263q0 129 41.5 237t121.5 171.5t191 63.5
q64 0 113.5 -25z" />
    <glyph glyph-name="H" unicode="H" horiz-adv-x="536" 
d="M184 0h-194l98 696h194l-37 -260h92l36 260h194l-97 -696h-194l40 284h-92z" />
    <glyph glyph-name="I" unicode="I" horiz-adv-x="250" 
d="M282 696l-98 -696h-194l98 696h194z" />
    <glyph glyph-name="J" unicode="J" horiz-adv-x="278" 
d="M228 104q-13 -92 -51 -149t-88.5 -86.5t-121.5 -53.5l-32 136q50 24 70.5 60.5t30.5 106.5l81 578h194z" />
    <glyph glyph-name="K" unicode="K" horiz-adv-x="566" 
d="M-10 0l98 696h194l-98 -696h-194zM329 0l-88 371l187 325h192l-185 -320l103 -376h-209z" />
    <glyph glyph-name="L" unicode="L" horiz-adv-x="428" 
d="M282 696l-76 -544h208l-43 -152h-381l98 696h194z" />
    <glyph glyph-name="M" unicode="M" horiz-adv-x="662" 
d="M612 0h-187l32 253q7 52 19 121.5t17 98.5l15 82l-114 -484h-184l7 482q-6 -108 -11 -172t-13 -130l-32 -251h-187l135 696h229l-16 -473l103 473h246z" />
    <glyph glyph-name="N" unicode="N" horiz-adv-x="530" 
d="M464 0h-227l-45 533q4 -86 4 -132q0 -93 -12 -188l-26 -213h-167l97 696h228l43 -534q-3 71 -3 130q0 94 11 180l28 224h166z" />
    <glyph glyph-name="O" unicode="O" horiz-adv-x="581" 
d="M581 451q0 -130 -36 -236.5t-109.5 -170.5t-181.5 -64q-231 0 -231 266q0 130 35.5 236.5t109 170t181.5 63.5q232 0 232 -265zM270.5 513q-26.5 -62 -39 -149t-12.5 -162q0 -44 11.5 -63t35.5 -19q41 0 67.5 60t38.5 145.5t12 163.5q0 46 -11.5 66t-35.5 20
q-40 0 -66.5 -62z" />
    <glyph glyph-name="P" unicode="P" horiz-adv-x="505" 
d="M467 646q62 -50 62 -147q0 -83 -34.5 -146t-98.5 -98t-151 -35h-30l-31 -220h-194l98 696h198q119 0 181 -50zM311.5 396.5q20.5 37.5 20.5 99.5q0 34 -13 48.5t-43 14.5h-14l-28 -200h9q48 0 68.5 37.5z" />
    <glyph glyph-name="Q" unicode="Q" horiz-adv-x="579" 
d="M498.5 27q40.5 -17 73.5 -53l-136 -141q-27 64 -72.5 107.5t-109.5 43.5q-115 0 -173 64.5t-58 197.5q0 130 35.5 236.5t109 170t181.5 63.5q232 0 232 -265q0 -141 -44.5 -247.5t-136.5 -156.5q58 -3 98.5 -20zM230.5 139q11.5 -19 35.5 -19q41 0 67.5 60t38.5 145.5
t12 163.5q0 46 -11.5 66t-35.5 20q-40 0 -66.5 -62t-39 -149t-12.5 -162q0 -44 11.5 -63z" />
    <glyph glyph-name="R" unicode="R" horiz-adv-x="518" 
d="M504 379.5q-30 -50.5 -93 -89.5l94 -290h-200l-67 251h-19l-35 -251h-194l98 696h198q248 0 248 -190q0 -76 -30 -126.5zM238 384h17q43 0 63 33.5t20 83.5q0 32 -14.5 46t-44.5 14h-16z" />
    <glyph glyph-name="S" unicode="S" horiz-adv-x="488" 
d="M431 692q52 -24 90 -71l-94 -98q-49 52 -109 52q-34 0 -52.5 -16.5t-18.5 -41.5t19 -42.5t79 -48.5q65 -34 96.5 -78t31.5 -114q0 -74 -35.5 -131.5t-98.5 -90t-142 -32.5q-148 0 -231 104l103 99q32 -31 61.5 -46t66.5 -15t58 20.5t21 53.5q0 32 -21 53t-78 50
q-67 34 -96.5 74.5t-29.5 106.5q0 71 33.5 124.5t92 82.5t131.5 29q71 0 123 -24z" />
    <glyph glyph-name="T" unicode="T" horiz-adv-x="457" 
d="M524 696l-41 -148h-118l-77 -548h-194l77 548h-132l21 148h464z" />
    <glyph glyph-name="U" unicode="U" horiz-adv-x="524" 
d="M497 204q-14 -98 -83.5 -160.5t-184.5 -62.5q-110 0 -166 52.5t-56 137.5q0 20 3 39l68 486h194l-71 -511q-1 -6 -1 -17q0 -45 41 -45q50 0 59 64l71 509h195z" />
    <glyph glyph-name="V" unicode="V" horiz-adv-x="486" 
d="M566 696l-225 -696h-257l-44 696h197l-4 -556l136 556h197z" />
    <glyph glyph-name="W" unicode="W" horiz-adv-x="710" 
d="M770 696l-168 -696h-255l39 511l-103 -511h-253l30 696h190l-54 -552l123 552h194l-40 -552l110 552h187z" />
    <glyph glyph-name="X" unicode="X" horiz-adv-x="503" 
d="M564 696l-186 -321l99 -375h-203l-28 255l-86 -255h-210l195 369l-89 327h203l16 -220l81 220h208z" />
    <glyph glyph-name="Y" unicode="Y" horiz-adv-x="514" 
d="M592 696l-239 -439l-36 -257h-194l36 257l-117 439h204l33 -294l107 294h206z" />
    <glyph glyph-name="Z" unicode="Z" horiz-adv-x="457" 
d="M-35 0l21 145l279 401h-206l23 150h417l-22 -147l-279 -394h240l-43 -155h-430z" />
    <glyph glyph-name="bracketleft" unicode="[" horiz-adv-x="274" 
d="M346 826l-19 -138h-88l-90 -677h85l-20 -137h-265l136 952h261z" />
    <glyph glyph-name="backslash" unicode="\" horiz-adv-x="434" 
d="M279 813l67 -899l-169 -30l-66 899z" />
    <glyph glyph-name="bracketright" unicode="]" horiz-adv-x="272" 
d="M347 826l-135 -952h-261l20 138h87l90 677h-83l18 137h264z" />
    <glyph glyph-name="asciicircum" unicode="^" horiz-adv-x="476" 
d="M405 847l108 -320h-174l-41 183l-79 -183h-182l197 320h171z" />
    <glyph glyph-name="underscore" unicode="_" horiz-adv-x="426" 
d="M-58 -185l20 145h415l-20 -145h-415z" />
    <glyph glyph-name="grave" unicode="`" horiz-adv-x="321" 
d="M173 842l178 -143l-54 -81l-204 95z" />
    <glyph glyph-name="a" unicode="a" horiz-adv-x="483" 
d="M493 499l-47 -331q-3 -16 -3 -28q0 -13 4.5 -21t14.5 -13l-57 -122q-45 4 -79.5 22.5t-48.5 51.5q-28 -39 -59 -58.5t-74 -19.5q-67 0 -102 51t-35 141q0 104 29 190t94 139t168 53q101 0 195 -55zM216 345.5q-22 -77.5 -22 -178.5q0 -28 5 -39t16 -11t22 12.5t24 34.5
l36 256q-9 3 -18 3q-41 0 -63 -77.5z" />
    <glyph glyph-name="b" unicode="b" horiz-adv-x="495" 
d="M454.5 508q32.5 -46 32.5 -132q0 -396 -295 -396q-45 0 -97.5 12.5t-103.5 33.5l100 718l188 20l-37 -267q21 26 52.5 41.5t66.5 15.5q61 0 93.5 -46zM226 377l-35 -255q16 -7 28 -7q39 0 59 78.5t20 168.5q0 33 -6 44t-17 11q-22 0 -49 -40z" />
    <glyph glyph-name="c" unicode="c" horiz-adv-x="402" 
d="M447 483l-88 -99q-18 15 -33 21.5t-32 6.5q-47 0 -68.5 -63.5t-21.5 -147.5q0 -45 12 -60.5t35 -15.5q15 0 31 6.5t39 20.5l64 -108q-75 -64 -170 -64q-96 0 -150 59.5t-54 164.5q0 101 33.5 180.5t96 124.5t145.5 45q100 0 161 -71z" />
    <glyph glyph-name="d" unicode="d" horiz-adv-x="495" 
d="M537 744l-104 -744h-165l2 56q-27 -38 -57 -57t-72 -19q-64 0 -99 49t-35 142q0 99 26.5 187t76.5 142t119 54q57 0 89 -43l35 252zM232 378q-17 -40 -26 -97.5t-9 -106.5q0 -35 6 -46.5t17 -11.5q22 0 49 47l33 235q-12 20 -30 20q-23 0 -40 -40z" />
    <glyph glyph-name="e" unicode="e" horiz-adv-x="469" 
d="M429.5 512q48.5 -42 46.5 -109q-4 -101 -85 -149.5t-200 -62.5v-14q0 -61 56 -61q26 0 50 11t58 35l61 -106q-88 -76 -203 -76q-96 0 -150 52t-54 156q0 105 32.5 188t97 130.5t158.5 47.5q84 0 132.5 -42zM275.5 336q22.5 32 22.5 68q0 28 -24 28q-25 0 -43.5 -37.5
t-28.5 -95.5q51 5 73.5 37z" />
    <glyph glyph-name="f" unicode="f" horiz-adv-x="316" 
d="M295.5 611q-13.5 -16 -18.5 -53l-3 -24h101l-40 -129h-79l-44 -332q-13 -94 -50 -152.5t-86.5 -89.5t-120.5 -57l-41 136q52 21 77 53.5t34 99.5l46 342h-52l18 129h51l5 35q12 87 68.5 141t150.5 54q44 0 80.5 -13t61.5 -33l-65 -108q-28 17 -56 17q-24 0 -37.5 -16z
" />
    <glyph glyph-name="g" unicode="g" horiz-adv-x="485" 
d="M400.5 539.5q50.5 -14.5 95.5 -40.5l-65 -464q-19 -133 -81.5 -197t-180.5 -64q-101 0 -184 57l64 119q33 -19 59 -27.5t54 -8.5q34 0 55.5 18.5t28.5 67.5l9 63q-42 -64 -112 -64q-64 0 -98.5 51.5t-34.5 140.5q0 160 69 261.5t220 101.5q51 0 101.5 -14.5zM218.5 354
q-21.5 -69 -21.5 -168q0 -28 5 -39t16 -11t24 13t25 34l32 237q-9 3 -19 3q-40 0 -61.5 -69z" />
    <glyph glyph-name="h" unicode="h" horiz-adv-x="465" 
d="M439 522q26 -32 26 -88q0 -18 -3 -39l-56 -395h-186l49 358q1 5 1 13q0 12 -6 12q-7 0 -16.5 -17.5t-33.5 -71.5l-41 -294h-186l104 744l188 19l-41 -299q22 38 54.5 64t74.5 26q46 0 72 -32z" />
    <glyph glyph-name="i" unicode="i" horiz-adv-x="236" 
d="M248 534l-74 -534h-186l74 534h186zM103 644q-24 24 -24 64q0 51 33.5 84t82.5 33q44 0 68 -24t24 -64q0 -51 -33.5 -84t-82.5 -33q-44 0 -68 24z" />
    <glyph glyph-name="j" unicode="j" horiz-adv-x="235" 
d="M-114 -90q52 21 77 53.5t34 99.5l65 471h187l-65 -461q-14 -94 -51 -152.5t-86.5 -89.5t-119.5 -57zM104 644q-24 24 -24 64q0 51 33.5 84t82.5 33q44 0 68 -24t24 -64q0 -51 -33.5 -84t-82.5 -33q-44 0 -68 24z" />
    <glyph glyph-name="k" unicode="k" horiz-adv-x="499" 
d="M242 480q33 38 69 55.5t80 17.5q57 0 92 -34t35 -89q0 -60 -27 -102.5t-87 -84.5l57 -243h-192l-47 256q62 29 85.5 62t23.5 72q0 17 -6.5 25.5t-18.5 8.5q-35 0 -85 -79l-47 -345h-187l104 744l189 19z" />
    <glyph glyph-name="l" unicode="l" horiz-adv-x="251" 
d="M191 156q-1 -4 -1 -10q0 -16 15 -16q5 0 13 2l11 -131q-47 -20 -101 -20q-63 0 -96 33t-33 92q0 16 3 34l84 604l187 19z" />
    <glyph glyph-name="m" unicode="m" horiz-adv-x="679" 
d="M653 522.5q26 -31.5 26 -88.5q0 -18 -3 -39l-56 -395h-186l49 358q1 7 1 17q0 13 -5 13q-6 0 -14 -18t-25 -68l-43 -302h-186l49 358q1 7 1 17q0 13 -5 13q-6 0 -14.5 -19t-26.5 -72l-41 -297h-186l74 534h162l1 -74q59 94 132 94q39 0 63.5 -22.5t32.5 -63.5
q56 86 127 86q47 0 73 -31.5z" />
    <glyph glyph-name="n" unicode="n" horiz-adv-x="466" 
d="M440 522.5q26 -31.5 26 -88.5q0 -18 -3 -39l-56 -395h-186l49 358q1 5 1 13q0 12 -6 12q-7 0 -16.5 -17.5t-33.5 -71.5l-41 -294h-186l74 534h162l1 -77q62 97 142 97q47 0 73 -31.5z" />
    <glyph glyph-name="o" unicode="o" horiz-adv-x="494" 
d="M63 34q-53 54 -53 162q0 99 31 180t93 129.5t150 48.5q94 0 147 -54.5t53 -162.5q0 -99 -31.5 -180t-93 -129t-149.5 -48q-94 0 -147 54zM264.5 157.5q16.5 41.5 24.5 100t8 109.5q0 28 -6.5 39t-20.5 11q-36 0 -54.5 -82.5t-18.5 -167.5q0 -28 6.5 -39.5t20.5 -11.5
q24 0 40.5 41.5z" />
    <glyph glyph-name="p" unicode="p" horiz-adv-x="494" 
d="M62 534h166v-48q53 68 133 68q61 0 93.5 -46t32.5 -132q0 -179 -63 -287.5t-187 -108.5q-34 0 -66 8l-27 -196l-188 -19zM264 157q18 43 26.5 102t8.5 108q0 30 -6.5 40t-17.5 10q-22 0 -48 -39l-36 -257q15 -7 27 -7q28 0 46 43z" />
    <glyph glyph-name="q" unicode="q" horiz-adv-x="491" 
d="M251 32q-23 -26 -48 -39t-58 -13q-66 0 -101.5 51.5t-35.5 140.5q0 166 70.5 274t220.5 108q106 0 200 -55l-96 -707l-188 -19zM268 164l36 256q-9 3 -22 3q-41 0 -64 -74.5t-23 -181.5q0 -27 5.5 -38.5t16.5 -11.5q24 0 51 47z" />
    <glyph glyph-name="r" unicode="r" horiz-adv-x="340" 
d="M391 542l-57 -182q-22 6 -37 6q-32 0 -53 -36.5t-38 -100.5l-32 -229h-186l74 534h159v-86q49 103 127 103q22 0 43 -9z" />
    <glyph glyph-name="s" unicode="s" horiz-adv-x="408" 
d="M338 535.5q46 -18.5 78 -50.5l-78 -98q-47 35 -87 35q-20 0 -31.5 -9t-11.5 -24t16 -28.5t63 -36.5q51 -24 76.5 -57t25.5 -87q0 -60 -31 -105.5t-83 -70t-114 -24.5q-121 0 -200 84l96 95q52 -48 97 -48q23 0 35.5 10.5t12.5 29.5t-15.5 33.5t-56.5 33.5
q-55 25 -79.5 57t-24.5 86q0 56 27.5 100t76 68.5t109.5 24.5q53 0 99 -18.5z" />
    <glyph glyph-name="t" unicode="t" horiz-adv-x="333" 
d="M217 174q-1 -5 -1 -13q0 -32 26 -32q15 0 33 9l41 -117q-30 -20 -67 -30.5t-73 -10.5q-73 0 -111 40t-38 112q0 20 3 42l32 231h-48l18 129h55l31 116l167 19l-19 -135h94l-40 -129h-71z" />
    <glyph glyph-name="u" unicode="u" 
d="M28 12.5q-27 32.5 -27 89.5q0 18 3 37l55 395h186l-50 -362l-1 -11q0 -14 8 -14q16 0 38 46l47 341h186l-75 -534h-162l2 67q-27 -41 -58.5 -64t-76.5 -23q-48 0 -75 32.5z" />
    <glyph glyph-name="v" unicode="v" horiz-adv-x="438" 
d="M491 534l-191 -534h-225l-52 534h195l-11 -396l92 396h192z" />
    <glyph glyph-name="w" unicode="w" horiz-adv-x="643" 
d="M684 534l-155 -534h-205l9 364l-81 -364h-210l-7 534h187l-41 -390l98 390h169l-16 -390l73 390h179z" />
    <glyph glyph-name="x" unicode="x" horiz-adv-x="438" 
d="M469 534l-134 -253l85 -281h-193l-27 181l-70 -181h-188l164 283l-82 251h195l16 -160l51 160h183z" />
    <glyph glyph-name="y" unicode="y" horiz-adv-x="445" 
d="M298 0q-44 -117 -124 -169.5t-199 -57.5l-2 127q65 8 99 29t58 71h-66l-41 534h192l-17 -416l104 416h196z" />
    <glyph glyph-name="z" unicode="z" horiz-adv-x="394" 
d="M418 534l-19 -131l-195 -262h169l-37 -141h-371l19 133l195 262h-146l21 139h364z" />
    <glyph glyph-name="braceleft" unicode="{" horiz-adv-x="268" 
d="M326 712q-27 0 -37 -11t-14 -44l-20 -161q-8 -68 -39 -100.5t-89 -47.5q43 -8 64 -32t21 -72q0 -19 -3 -42l-21 -160q-2 -16 -2 -20q0 -19 9.5 -26.5t33.5 -7.5l-19 -130q-103 0 -148.5 34.5t-45.5 107.5q0 19 3 41l20 159q2 22 2 29q0 24 -9 33.5t-31 9.5l22 156
q30 0 44 16.5t19 57.5l20 158q8 65 30.5 103.5t71.5 58.5t135 20z" />
    <glyph glyph-name="bar" unicode="|" horiz-adv-x="285" 
d="M307 812l-129 -919h-175l128 919h176z" />
    <glyph glyph-name="braceright" unicode="}" horiz-adv-x="268" 
d="M-34 -12q27 0 37 11t14 44l20 161q8 68 39 100.5t89 47.5q-43 8 -64 32t-21 72q0 20 3 42l21 160q2 16 2 20q0 19 -9.5 26.5t-33.5 7.5l19 130q103 0 148.5 -34.5t45.5 -107.5q0 -18 -3 -41l-20 -159q-2 -22 -2 -29q0 -24 9 -33.5t31 -9.5l-22 -156q-30 0 -44 -16.5
t-19 -57.5l-20 -158q-8 -65 -30.5 -103.5t-71.5 -58.5t-135 -20z" />
    <glyph glyph-name="asciitilde" unicode="~" horiz-adv-x="449" 
d="M246 231.5q-18 8.5 -43 26.5q-18 13 -29 19t-24 6q-18 0 -31.5 -11.5t-33.5 -39.5l-81 51q41 67 79.5 103.5t89.5 36.5q27 0 46 -9.5t41 -26.5q16 -12 27 -18t24 -6q20 0 33 11t32 38l84 -49q-41 -67 -79.5 -103.5t-90.5 -36.5q-26 0 -44 8.5z" />
    <glyph glyph-name="uni00A0" unicode="&#xa0;" horiz-adv-x="157" 
 />
    <glyph glyph-name="exclamdown" unicode="&#xa1;" horiz-adv-x="231" 
d="M64 340.5q-23 25.5 -23 62.5q0 48 31 80.5t78 32.5q39 0 62 -25.5t23 -63.5q0 -48 -31 -80t-78 -32q-39 0 -62 25.5zM175 229l-36 -436h-194l87 436h143z" />
    <glyph glyph-name="cent" unicode="&#xa2;" horiz-adv-x="402" 
d="M385 44q-59 -49 -125 -60l-22 -148h-123l24 156q-61 20 -94.5 75t-33.5 137q0 130 54.5 222t149.5 119l23 151h121l-21 -147q65 -14 109 -66l-88 -99q-18 15 -33 21.5t-32 6.5q-47 0 -68.5 -63.5t-21.5 -147.5q0 -45 12 -60.5t35 -15.5q15 0 31 6.5t39 20.5z" />
    <glyph glyph-name="sterling" unicode="&#xa3;" horiz-adv-x="458" 
d="M248 188q-17 -27 -59 -48h242l-41 -140h-410l20 134q34 10 51.5 25.5t23.5 35.5t9 53l7 57h-58l13 93h57l12 90q15 98 70 153t151 55q123 0 172 -108l-116 -74q-11 24 -22 33.5t-27 9.5q-22 0 -31 -16t-15 -57l-11 -86h126l-13 -93h-124l-6 -48q-4 -42 -21 -69z" />
    <glyph glyph-name="currency" unicode="&#xa4;" 
d="M404 226l72 -88l-83 -66l-59 75q-41 -26 -93 -26q-54 0 -98 27l-62 -76l-77 67l71 87q-24 53 -24 116q0 66 25 116l-72 88l83 66l59 -75q41 26 95 26q52 0 96 -27l62 76l77 -67l-71 -88q24 -51 24 -115q0 -66 -25 -116zM282.5 262.5q13.5 23.5 13.5 79.5q0 57 -13.5 80
t-42.5 23q-30 0 -43.5 -23t-13.5 -80q0 -56 14 -79.5t43 -23.5t42.5 23.5z" />
    <glyph glyph-name="yen" unicode="&#xa5;" horiz-adv-x="483" 
d="M559 679l-181 -324h71l-14 -92h-102l-9 -63h104l-16 -92h-100l-15 -108h-183l14 108h-102l15 92h99l8 63h-100l14 92h67l-89 324h185l35 -274l106 274h193z" />
    <glyph glyph-name="brokenbar" unicode="&#xa6;" horiz-adv-x="285" 
d="M307 812l-52 -369h-176l52 369h176zM230 262l-52 -369h-175l51 369h176z" />
    <glyph glyph-name="section" unicode="&#xa7;" horiz-adv-x="466" 
d="M416.5 409.5q27.5 -29.5 27.5 -76.5q0 -94 -96 -146q23 -20 33 -41.5t10 -49.5q0 -51 -28.5 -93.5t-80 -67t-117.5 -24.5q-101 0 -168 57l72 102q26 -18 47.5 -25t46.5 -7q27 0 42 11t15 30t-16.5 32t-67.5 35q-53 21 -78.5 49t-25.5 75q0 93 94 144q-39 36 -39 94
q0 50 26.5 93t77 69t118.5 26q97 0 168 -58l-73 -100q-19 14 -43.5 22t-47.5 8q-28 0 -42 -10.5t-14 -29.5q0 -20 15.5 -32t67.5 -35q49 -22 76.5 -51.5zM267 237q10 16 15 29.5t5 29.5q0 20 -14.5 34t-49.5 28l-19 8q-16 -27 -16 -56q0 -18 10 -30.5t33 -23.5z" />
    <glyph glyph-name="dieresis" unicode="&#xa8;" horiz-adv-x="448" 
d="M114.5 656q-20.5 21 -20.5 56q0 43 29 72.5t70 29.5q38 0 58.5 -21t20.5 -56q0 -43 -29 -72.5t-71 -29.5q-37 0 -57.5 21zM326 656q-21 21 -21 56q0 43 29 72.5t70 29.5q37 0 58 -21t21 -56q0 -43 -29 -72.5t-70 -29.5q-37 0 -58 21z" />
    <glyph glyph-name="copyright" unicode="&#xa9;" horiz-adv-x="670" 
d="M511 732q68 -43 107.5 -121t39.5 -180q0 -101 -39.5 -179t-107.5 -120.5t-152 -42.5q-83 0 -152 42.5t-109 120.5t-40 179q0 102 40 180t109 121t152 43q84 0 152 -43zM257 652q-45 -30 -70 -86.5t-25 -134.5q0 -77 25 -133.5t70 -86.5t102 -30q56 0 100.5 30t70 86.5
t25.5 133.5q0 78 -25.5 134.5t-70 86.5t-100.5 30q-57 0 -102 -30zM427.5 617.5q29.5 -14.5 52.5 -40.5l-49 -65q-18 12 -29 16.5t-25 4.5q-21 0 -34 -24t-13 -77q0 -56 13.5 -78.5t37.5 -22.5q15 0 27 6t27 20l49 -70q-26 -26 -58.5 -41t-64.5 -15q-74 0 -114.5 52
t-40.5 149q0 92 43 146t116 54q33 0 62.5 -14.5z" />
    <glyph glyph-name="ordfeminine" unicode="&#xaa;" horiz-adv-x="404" 
d="M64 292q-27 31 -27 83q0 65 44.5 110t140.5 45h26l1 8q1 7 1 17q0 17 -7.5 23.5t-25.5 6.5q-35 0 -92 -17l-23 96q33 15 74.5 23.5t76.5 8.5q75 0 112.5 -30t37.5 -96q0 -18 -3 -41l-17 -121q-1 -5 -1 -12q0 -9 3.5 -15t13.5 -10l-48 -106q-37 2 -65 15.5t-38 38.5
q-42 -58 -108 -58q-49 0 -76 31zM228 383l8 61h-13q-15 0 -22 -11.5t-7 -36.5q0 -12 3 -17t10 -5q10 0 21 9zM-17 0l19 144h362l-19 -144h-362z" />
    <glyph glyph-name="guillemotleft" unicode="&#xab;" horiz-adv-x="572" 
d="M225 566l103 -77l-129 -208l71 -203l-128 -78l-133 224l20 118zM485 566l103 -77l-129 -208l71 -203l-128 -78l-133 224l20 118z" />
    <glyph glyph-name="logicalnot" unicode="&#xac;" horiz-adv-x="463" 
d="M451 404l-45 -304h-157l21 159h-240l20 145h401z" />
    <glyph glyph-name="uni00AD" unicode="&#xad;" horiz-adv-x="350" 
d="M28 241l19 144h288l-19 -144h-288z" />
    <glyph glyph-name="registered" unicode="&#xae;" horiz-adv-x="521" 
d="M418 729q55 -35 86 -99.5t31 -149.5q0 -84 -31 -148t-86 -98.5t-125 -34.5q-71 0 -127.5 34.5t-88 98.5t-31.5 148q0 85 31.5 149.5t88 99.5t127.5 35q70 0 125 -35zM407.5 327.5q43.5 53.5 43.5 152.5q0 100 -43.5 154.5t-114.5 54.5q-73 0 -118 -54.5t-45 -154.5
q0 -99 44.5 -152.5t118.5 -53.5q71 0 114.5 53.5zM347 470l61 -122h-81l-42 101h-18v-101h-72v285h75q59 0 89.5 -23t30.5 -69q0 -44 -43 -71zM267 514h23q11 0 18.5 8t7.5 24q0 14 -7 21.5t-19 7.5h-23v-61z" />
    <glyph glyph-name="macron" unicode="&#xaf;" horiz-adv-x="337" 
d="M358 649h-274l20 130h274z" />
    <glyph glyph-name="degree" unicode="&#xb0;" horiz-adv-x="413" 
d="M96 401.5q-38 38.5 -38 108.5q0 58 23 105t63.5 74t92.5 27q59 0 97.5 -39t38.5 -108q0 -58 -23 -105t-64 -74t-93 -27q-59 0 -97 38.5zM243.5 496q12.5 30 12.5 70q0 25 -7 36t-22 11q-27 0 -39.5 -30t-12.5 -70q0 -25 7 -36t22 -11q27 0 39.5 30z" />
    <glyph glyph-name="plusminus" unicode="&#xb1;" horiz-adv-x="463" 
d="M7 0l20 144h381l-20 -144h-381zM364 666l-22 -159h123l-20 -144h-126l-24 -159h-146l23 159h-127l20 144h130l22 159h147z" />
    <glyph glyph-name="uni00B2" unicode="&#xb2;" horiz-adv-x="338" 
d="M320.5 722q34.5 -33 34.5 -81q0 -43 -17.5 -77t-51 -65t-93.5 -76h142l-29 -103h-264l14 95q67 61 102.5 99t48.5 63.5t13 48.5q0 28 -25 28q-14 0 -27 -9t-31 -30l-65 59q67 81 156 81q58 0 92.5 -33z" />
    <glyph glyph-name="uni00B3" unicode="&#xb3;" horiz-adv-x="338" 
d="M316 726q34 -29 34 -73t-27.5 -71t-78.5 -39q92 -6 92 -85q0 -39 -20.5 -74t-60.5 -56.5t-96 -21.5q-50 0 -82 19t-55 53l74 62q17 -17 31 -24.5t31 -7.5q19 0 33 14.5t14 41.5q0 18 -11 25.5t-37 7.5h-26l27 87h14q51 0 51 45q0 28 -30 28q-32 0 -70 -33l-53 68
q67 63 154 63q58 0 92 -29z" />
    <glyph glyph-name="acute" unicode="&#xb4;" horiz-adv-x="328" 
d="M301 844l60 -131l-226 -98l-46 87z" />
    <glyph glyph-name="uni00B5" unicode="&#xb5;" horiz-adv-x="474" 
d="M418 54q0 -40 2 -55l-173 -17q-6 38 -6 65q-19 -29 -33.5 -41t-33.5 -12q-21 0 -35 16q7 -33 7 -68q0 -33 -5 -64l-12 -85l-174 -17l107 758h185l-50 -369q-2 -18 -2 -22q0 -16 10 -16q16 0 34 42l51 365h186l-49 -351q-9 -66 -9 -129z" />
    <glyph glyph-name="paragraph" unicode="&#xb6;" horiz-adv-x="683" 
d="M677 696l-127 -903l-157 -20l108 795h-63l-107 -775l-157 -20l68 481q-86 1 -132.5 49t-46.5 130q0 80 33.5 139.5t94.5 91.5t143 32h343z" />
    <glyph glyph-name="periodcentered" unicode="&#xb7;" horiz-adv-x="223" 
d="M43 230.5q-23 25.5 -23 62.5q0 48 31 80.5t78 32.5q39 0 62 -25.5t23 -63.5q0 -48 -31 -80t-78 -32q-39 0 -62 25.5z" />
    <glyph glyph-name="cedilla" unicode="&#xb8;" horiz-adv-x="313" 
d="M144 -49q81 -13 81 -87q0 -31 -15 -62t-51 -52.5t-95 -21.5q-32 0 -59.5 9.5t-45.5 24.5l51 77q25 -13 50 -13q17 0 27.5 7t10.5 22t-17 21t-56 6l33 134h96z" />
    <glyph glyph-name="uni00B9" unicode="&#xb9;" horiz-adv-x="338" 
d="M334 744l-59 -424h-128l40 298l-73 -51l-47 85l148 92h119z" />
    <glyph glyph-name="ordmasculine" unicode="&#xba;" horiz-adv-x="418" 
d="M387 655q43 -41 43 -126q0 -76 -25 -137t-75 -96t-120 -35q-79 0 -122 41t-43 126q0 77 25 138t75 95.5t120 34.5q79 0 122 -41zM216.5 523.5q-12.5 -56.5 -12.5 -117.5q0 -16 4 -22.5t13 -6.5q25 0 38.5 58t13.5 116q0 29 -18 29q-26 0 -38.5 -56.5zM-19 0l20 144h381
l-20 -144h-381z" />
    <glyph glyph-name="guillemotright" unicode="&#xbb;" horiz-adv-x="572" 
d="M176 566l132 -224l-19 -118l-197 -224l-104 78l131 207l-73 204zM436 566l132 -224l-19 -118l-197 -224l-104 78l131 207l-73 204z" />
    <glyph glyph-name="onequarter" unicode="&#xbc;" horiz-adv-x="836" 
d="M327 696l-59 -424h-128l40 298l-73 -51l-47 85l148 92h119zM589 761l94 -51l-445 -799l-95 51zM810 177l-14 -99h-30l-11 -78h-117l11 78h-164l12 90l129 267l103 -41l-95 -217h31l41 90h86l-12 -90h30z" />
    <glyph glyph-name="onehalf" unicode="&#xbd;" horiz-adv-x="836" 
d="M327 696l-59 -424h-128l40 298l-73 -51l-47 85l148 92h119zM589 761l94 -51l-445 -799l-95 51zM773.5 402q34.5 -33 34.5 -81q0 -43 -17.5 -77t-51 -65t-93.5 -76h142l-29 -103h-264l14 95q67 61 102.5 99t48.5 63.5t13 48.5q0 28 -25 28q-14 0 -27 -9t-31 -30l-65 59
q67 81 156 81q58 0 92.5 -33z" />
    <glyph glyph-name="threequarters" unicode="&#xbe;" horiz-adv-x="836" 
d="M309 678q34 -29 34 -73t-27.5 -71t-78.5 -39q92 -6 92 -85q0 -39 -20.5 -74t-60.5 -56.5t-96 -21.5q-50 0 -82 19t-55 53l74 62q17 -17 31 -24.5t31 -7.5q19 0 33 14.5t14 41.5q0 18 -11 25.5t-37 7.5h-26l27 87h14q51 0 51 45q0 28 -30 28q-32 0 -70 -33l-53 68
q67 63 154 63q58 0 92 -29zM589 761l94 -51l-445 -799l-95 51zM810 177l-14 -99h-30l-11 -78h-117l11 78h-164l12 90l129 267l103 -41l-95 -217h31l41 90h86l-12 -90h30z" />
    <glyph glyph-name="questiondown" unicode="&#xbf;" horiz-adv-x="417" 
d="M300 483.5q23 -25.5 23 -62.5q0 -48 -31 -80.5t-78 -32.5q-39 0 -62 25.5t-23 63.5q0 48 31 80t78 32q39 0 62 -25.5zM6 -181.5q-49 45.5 -49 115.5q0 45 16 77t38 52t57 44q37 26 54.5 44.5t17.5 45.5q0 17 -2 27l164 25q9 -31 9 -55q0 -44 -14 -75.5t-34 -51.5t-50 -42
q-31 -24 -44.5 -39.5t-13.5 -38.5q0 -26 27 -26q33 0 83 52l96 -90q-88 -110 -218 -110q-88 0 -137 45.5z" />
    <glyph glyph-name="Agrave" unicode="&#xc0;" horiz-adv-x="506" 
d="M488 0h-198v138h-111l-36 -138h-201l255 696h231zM214 276h76v294zM292 958l182 -133l-54 -81l-204 85z" />
    <glyph glyph-name="Aacute" unicode="&#xc1;" horiz-adv-x="506" 
d="M488 0h-198v138h-111l-36 -138h-201l255 696h231zM214 276h76v294zM419 962l60 -131l-226 -88l-43 87z" />
    <glyph glyph-name="Acircumflex" unicode="&#xc2;" horiz-adv-x="506" 
d="M488 0h-198v138h-111l-36 -138h-201l255 696h231zM214 276h76v294zM209 756l-65 72l142 138h110l109 -148l-72 -62l-103 87z" />
    <glyph glyph-name="Atilde" unicode="&#xc3;" horiz-adv-x="506" 
d="M488 0h-198v138h-111l-36 -138h-201l255 696h231zM214 276h76v294zM347 757.5q-12 6.5 -30 18.5q-2 2 -10 7.5t-14 8t-12 2.5q-13 0 -23 -10.5t-24 -33.5l-77 46q25 57 62 94t74 37q19 0 33 -7t30 -20q9 -7 17.5 -12t16.5 -5q11 0 21 10t23 32l77 -43q-24 -57 -61.5 -94
t-75.5 -37q-15 0 -27 6.5z" />
    <glyph glyph-name="Adieresis" unicode="&#xc4;" horiz-adv-x="506" 
d="M488 0h-198v138h-111l-36 -138h-201l255 696h231zM214 276h76v294zM157.5 782q-20.5 21 -20.5 56q0 43 29 72.5t70 29.5q38 0 58.5 -21t20.5 -56q0 -43 -29 -72.5t-71 -29.5q-37 0 -57.5 21zM369 782q-21 21 -21 56q0 43 29 72.5t70 29.5q37 0 58 -21t21 -56
q0 -43 -29 -72.5t-70 -29.5q-37 0 -58 21z" />
    <glyph glyph-name="Aring" unicode="&#xc5;" horiz-adv-x="506" 
d="M488 0h-198v138h-111l-36 -138h-201l255 696h231zM214 276h76v294zM442 972.5q31 -34.5 31 -90.5q0 -44 -19 -80t-54 -57t-81 -21q-57 0 -88 34t-31 90q0 43 19 79.5t54 58t81 21.5q57 0 88 -34.5zM313.5 896.5q-11.5 -18.5 -11.5 -42.5q0 -38 27 -38q19 0 30.5 18.5
t11.5 42.5q0 38 -26 38q-20 0 -31.5 -18.5z" />
    <glyph glyph-name="AE" unicode="&#xc6;" horiz-adv-x="713" 
d="M698 559h-183l-4 -141h183l-21 -134h-166l-4 -145h187l-22 -139h-344l6 138h-127l-48 -138h-211l303 696h492zM336 277l13 278l-97 -278h84z" />
    <glyph glyph-name="Ccedilla" unicode="&#xc7;" horiz-adv-x="488" 
d="M287 -17l-5 -32q81 -13 81 -87q0 -31 -15 -62t-51 -52.5t-95 -21.5q-32 0 -59.5 9.5t-45.5 24.5l51 77q25 -13 50 -13q17 0 27.5 7t10.5 22t-17 21t-56 6l26 104q-78 19 -122 85.5t-44 180.5q0 130 37.5 235t113 167t183.5 62q109 0 180 -82l-98 -100q-39 39 -84 39
q-46 0 -76 -51t-43 -127.5t-13 -154.5q0 -59 16.5 -85t50.5 -26q25 0 48.5 12.5t58.5 38.5l69 -106q-81 -78 -179 -91z" />
    <glyph glyph-name="Egrave" unicode="&#xc8;" horiz-adv-x="421" 
d="M476 696l-42 -137h-171l-20 -139h154l-20 -134h-153l-20 -147h188l-20 -139h-382l98 696h388zM260 958l182 -133l-54 -81l-204 85z" />
    <glyph glyph-name="Eacute" unicode="&#xc9;" horiz-adv-x="421" 
d="M476 696l-42 -137h-171l-20 -139h154l-20 -134h-153l-20 -147h188l-20 -139h-382l98 696h388zM387 962l60 -131l-226 -88l-43 87z" />
    <glyph glyph-name="Ecircumflex" unicode="&#xca;" horiz-adv-x="421" 
d="M476 696l-42 -137h-171l-20 -139h154l-20 -134h-153l-20 -147h188l-20 -139h-382l98 696h388zM177 756l-65 72l142 138h110l109 -148l-72 -62l-103 87z" />
    <glyph glyph-name="Edieresis" unicode="&#xcb;" horiz-adv-x="421" 
d="M476 696l-42 -137h-171l-20 -139h154l-20 -134h-153l-20 -147h188l-20 -139h-382l98 696h388zM125.5 782q-20.5 21 -20.5 56q0 43 29 72.5t70 29.5q38 0 58.5 -21t20.5 -56q0 -43 -29 -72.5t-71 -29.5q-37 0 -57.5 21zM337 782q-21 21 -21 56q0 43 29 72.5t70 29.5
q37 0 58 -21t21 -56q0 -43 -29 -72.5t-70 -29.5q-37 0 -58 21z" />
    <glyph glyph-name="Igrave" unicode="&#xcc;" horiz-adv-x="250" 
d="M282 696l-98 -696h-194l98 696h194zM164 958l182 -133l-54 -81l-204 85z" />
    <glyph glyph-name="Iacute" unicode="&#xcd;" horiz-adv-x="250" 
d="M282 696l-98 -696h-194l98 696h194zM291 962l60 -131l-226 -88l-43 87z" />
    <glyph glyph-name="Icircumflex" unicode="&#xce;" horiz-adv-x="250" 
d="M282 696l-98 -696h-194l98 696h194zM81 756l-65 72l142 138h110l109 -148l-72 -62l-103 87z" />
    <glyph glyph-name="Idieresis" unicode="&#xcf;" horiz-adv-x="250" 
d="M282 696l-98 -696h-194l98 696h194zM29.5 782q-20.5 21 -20.5 56q0 43 29 72.5t70 29.5q38 0 58.5 -21t20.5 -56q0 -43 -29 -72.5t-71 -29.5q-37 0 -57.5 21zM241 782q-21 21 -21 56q0 43 29 72.5t70 29.5q37 0 58 -21t21 -56q0 -43 -29 -72.5t-70 -29.5q-37 0 -58 21z
" />
    <glyph glyph-name="Eth" unicode="&#xd0;" horiz-adv-x="558" 
d="M485.5 642q71.5 -54 71.5 -197q0 -208 -85 -326.5t-266 -118.5h-208l42 297h-31l18 112h29l40 287h197q121 0 192.5 -54zM331.5 237.5q29.5 97.5 29.5 214.5q0 56 -15.5 80.5t-48.5 24.5h-27l-21 -148h87l-18 -112h-84l-22 -157h23q67 0 96.5 97.5z" />
    <glyph glyph-name="Ntilde" unicode="&#xd1;" horiz-adv-x="530" 
d="M464 0h-227l-45 533q4 -86 4 -132q0 -93 -12 -188l-26 -213h-167l97 696h228l43 -534q-3 71 -3 130q0 94 11 180l28 224h166zM356 757.5q-12 6.5 -30 18.5q-2 2 -10 7.5t-14 8t-12 2.5q-13 0 -23 -10.5t-24 -33.5l-77 46q25 57 62 94t74 37q19 0 33 -7t30 -20
q9 -7 17.5 -12t16.5 -5q11 0 21 10t23 32l77 -43q-24 -57 -61.5 -94t-75.5 -37q-15 0 -27 6.5z" />
    <glyph glyph-name="Ograve" unicode="&#xd2;" horiz-adv-x="581" 
d="M581 451q0 -130 -36 -236.5t-109.5 -170.5t-181.5 -64q-231 0 -231 266q0 130 35.5 236.5t109 170t181.5 63.5q232 0 232 -265zM270.5 513q-26.5 -62 -39 -149t-12.5 -162q0 -44 11.5 -63t35.5 -19q41 0 67.5 60t38.5 145.5t12 163.5q0 46 -11.5 66t-35.5 20
q-40 0 -66.5 -62zM326 958l182 -133l-54 -81l-204 85z" />
    <glyph glyph-name="Oacute" unicode="&#xd3;" horiz-adv-x="581" 
d="M581 451q0 -130 -36 -236.5t-109.5 -170.5t-181.5 -64q-231 0 -231 266q0 130 35.5 236.5t109 170t181.5 63.5q232 0 232 -265zM270.5 513q-26.5 -62 -39 -149t-12.5 -162q0 -44 11.5 -63t35.5 -19q41 0 67.5 60t38.5 145.5t12 163.5q0 46 -11.5 66t-35.5 20
q-40 0 -66.5 -62zM453 962l60 -131l-226 -88l-43 87z" />
    <glyph glyph-name="Ocircumflex" unicode="&#xd4;" horiz-adv-x="581" 
d="M581 451q0 -130 -36 -236.5t-109.5 -170.5t-181.5 -64q-231 0 -231 266q0 130 35.5 236.5t109 170t181.5 63.5q232 0 232 -265zM270.5 513q-26.5 -62 -39 -149t-12.5 -162q0 -44 11.5 -63t35.5 -19q41 0 67.5 60t38.5 145.5t12 163.5q0 46 -11.5 66t-35.5 20
q-40 0 -66.5 -62zM243 756l-65 72l142 138h110l109 -148l-72 -62l-103 87z" />
    <glyph glyph-name="Otilde" unicode="&#xd5;" horiz-adv-x="581" 
d="M581 451q0 -130 -36 -236.5t-109.5 -170.5t-181.5 -64q-231 0 -231 266q0 130 35.5 236.5t109 170t181.5 63.5q232 0 232 -265zM270.5 513q-26.5 -62 -39 -149t-12.5 -162q0 -44 11.5 -63t35.5 -19q41 0 67.5 60t38.5 145.5t12 163.5q0 46 -11.5 66t-35.5 20
q-40 0 -66.5 -62zM381 757.5q-12 6.5 -30 18.5q-2 2 -10 7.5t-14 8t-12 2.5q-13 0 -23 -10.5t-24 -33.5l-77 46q25 57 62 94t74 37q19 0 33 -7t30 -20q9 -7 17.5 -12t16.5 -5q11 0 21 10t23 32l77 -43q-24 -57 -61.5 -94t-75.5 -37q-15 0 -27 6.5z" />
    <glyph glyph-name="Odieresis" unicode="&#xd6;" horiz-adv-x="581" 
d="M581 451q0 -130 -36 -236.5t-109.5 -170.5t-181.5 -64q-231 0 -231 266q0 130 35.5 236.5t109 170t181.5 63.5q232 0 232 -265zM270.5 513q-26.5 -62 -39 -149t-12.5 -162q0 -44 11.5 -63t35.5 -19q41 0 67.5 60t38.5 145.5t12 163.5q0 46 -11.5 66t-35.5 20
q-40 0 -66.5 -62zM191.5 782q-20.5 21 -20.5 56q0 43 29 72.5t70 29.5q38 0 58.5 -21t20.5 -56q0 -43 -29 -72.5t-71 -29.5q-37 0 -57.5 21zM403 782q-21 21 -21 56q0 43 29 72.5t70 29.5q37 0 58 -21t21 -56q0 -43 -29 -72.5t-70 -29.5q-37 0 -58 21z" />
    <glyph glyph-name="multiply" unicode="&#xd7;" horiz-adv-x="443" 
d="M346 522l92 -92l-119 -126l91 -125l-114 -89l-82 121l-104 -121l-92 92l115 122l-89 129l114 89l80 -125z" />
    <glyph glyph-name="Oslash" unicode="&#xd8;" horiz-adv-x="581" 
d="M581 451q0 -130 -36 -236.5t-109.5 -170.5t-181.5 -64q-17 0 -25 1l-41 -119l-134 38l47 132q-78 69 -78 214q0 130 35.5 236.5t109 170t181.5 63.5q15 0 22 -1l42 117l132 -39l-44 -127q80 -69 80 -215zM264 515.5q-29 -62.5 -42 -149.5t-13 -164v-11l129 387h-1
q-44 0 -73 -62.5zM340 177.5q29 60.5 41.5 146.5t12.5 165v10l-128 -382q45 0 74 60.5z" />
    <glyph glyph-name="Ugrave" unicode="&#xd9;" horiz-adv-x="524" 
d="M497 204q-14 -98 -83.5 -160.5t-184.5 -62.5q-110 0 -166 52.5t-56 137.5q0 20 3 39l68 486h194l-71 -511q-1 -6 -1 -17q0 -45 41 -45q50 0 59 64l71 509h195zM300 958l182 -133l-54 -81l-204 85z" />
    <glyph glyph-name="Uacute" unicode="&#xda;" horiz-adv-x="524" 
d="M497 204q-14 -98 -83.5 -160.5t-184.5 -62.5q-110 0 -166 52.5t-56 137.5q0 20 3 39l68 486h194l-71 -511q-1 -6 -1 -17q0 -45 41 -45q50 0 59 64l71 509h195zM427 962l60 -131l-226 -88l-43 87z" />
    <glyph glyph-name="Ucircumflex" unicode="&#xdb;" horiz-adv-x="524" 
d="M497 204q-14 -98 -83.5 -160.5t-184.5 -62.5q-110 0 -166 52.5t-56 137.5q0 20 3 39l68 486h194l-71 -511q-1 -6 -1 -17q0 -45 41 -45q50 0 59 64l71 509h195zM217 756l-65 72l142 138h110l109 -148l-72 -62l-103 87z" />
    <glyph glyph-name="Udieresis" unicode="&#xdc;" horiz-adv-x="524" 
d="M497 204q-14 -98 -83.5 -160.5t-184.5 -62.5q-110 0 -166 52.5t-56 137.5q0 20 3 39l68 486h194l-71 -511q-1 -6 -1 -17q0 -45 41 -45q50 0 59 64l71 509h195zM165.5 782q-20.5 21 -20.5 56q0 43 29 72.5t70 29.5q38 0 58.5 -21t20.5 -56q0 -43 -29 -72.5t-71 -29.5
q-37 0 -57.5 21zM377 782q-21 21 -21 56q0 43 29 72.5t70 29.5q37 0 58 -21t21 -56q0 -43 -29 -72.5t-70 -29.5q-37 0 -58 21z" />
    <glyph glyph-name="Yacute" unicode="&#xdd;" horiz-adv-x="514" 
d="M592 696l-239 -439l-36 -257h-194l36 257l-117 439h204l33 -294l107 294h206zM420 962l60 -131l-226 -88l-43 87z" />
    <glyph glyph-name="Thorn" unicode="&#xde;" horiz-adv-x="507" 
d="M454 540.5q62 -50.5 62 -150.5q0 -85 -34.5 -148.5t-98.5 -98.5t-151 -35h-32l-15 -108h-194l97 696h194l-15 -105h6q119 0 181 -50.5zM319 387q0 37 -13 52t-43 15h-15l-29 -207h11q89 0 89 140z" />
    <glyph glyph-name="germandbls" unicode="&#xdf;" horiz-adv-x="505" 
d="M-114 -90q48 20 73.5 49.5t33.5 83.5l66 488q15 110 79.5 171.5t170.5 61.5q82 0 126.5 -40.5t44.5 -103.5q0 -39 -11.5 -65t-32.5 -57q-16 -22 -24 -38.5t-8 -36.5q0 -17 7 -30t23 -34q27 -34 42.5 -69.5t15.5 -94.5q0 -57 -21 -105.5t-67.5 -78.5t-117.5 -30
q-52 0 -93 22l59 129q13 -7 23 -7q27 0 27 55q0 24 -6.5 44t-19.5 45q-15 32 -23 57t-8 61q0 33 8 57t24 55q15 30 22.5 52.5t7.5 52.5q0 29 -20 29q-18 0 -26.5 -23t-15.5 -74l-62 -463q-18 -126 -84.5 -192.5t-171.5 -106.5z" />
    <glyph glyph-name="agrave" unicode="&#xe0;" horiz-adv-x="483" 
d="M493 499l-47 -331q-3 -16 -3 -28q0 -13 4.5 -21t14.5 -13l-57 -122q-45 4 -79.5 22.5t-48.5 51.5q-28 -39 -59 -58.5t-74 -19.5q-67 0 -102 51t-35 141q0 104 29 190t94 139t168 53q101 0 195 -55zM216 345.5q-22 -77.5 -22 -178.5q0 -28 5 -39t16 -11t22 12.5t24 34.5
l36 256q-9 3 -18 3q-41 0 -63 -77.5zM289 842l178 -143l-54 -81l-204 95z" />
    <glyph glyph-name="aacute" unicode="&#xe1;" horiz-adv-x="483" 
d="M493 499l-47 -331q-3 -16 -3 -28q0 -13 4.5 -21t14.5 -13l-57 -122q-45 4 -79.5 22.5t-48.5 51.5q-28 -39 -59 -58.5t-74 -19.5q-67 0 -102 51t-35 141q0 104 29 190t94 139t168 53q101 0 195 -55zM216 345.5q-22 -77.5 -22 -178.5q0 -28 5 -39t16 -11t22 12.5t24 34.5
l36 256q-9 3 -18 3q-41 0 -63 -77.5zM400 844l60 -131l-226 -98l-46 87z" />
    <glyph glyph-name="acircumflex" unicode="&#xe2;" horiz-adv-x="483" 
d="M493 499l-47 -331q-3 -16 -3 -28q0 -13 4.5 -21t14.5 -13l-57 -122q-45 4 -79.5 22.5t-48.5 51.5q-28 -39 -59 -58.5t-74 -19.5q-67 0 -102 51t-35 141q0 104 29 190t94 139t168 53q101 0 195 -55zM216 345.5q-22 -77.5 -22 -178.5q0 -28 5 -39t16 -11t22 12.5t24 34.5
l36 256q-9 3 -18 3q-41 0 -63 -77.5zM207 616l-60 72l142 148h110l108 -157l-76 -63l-98 97z" />
    <glyph glyph-name="atilde" unicode="&#xe3;" horiz-adv-x="483" 
d="M493 499l-47 -331q-3 -16 -3 -28q0 -13 4.5 -21t14.5 -13l-57 -122q-45 4 -79.5 22.5t-48.5 51.5q-28 -39 -59 -58.5t-74 -19.5q-67 0 -102 51t-35 141q0 104 29 190t94 139t168 53q101 0 195 -55zM216 345.5q-22 -77.5 -22 -178.5q0 -28 5 -39t16 -11t22 12.5t24 34.5
l36 256q-9 3 -18 3q-41 0 -63 -77.5zM341 631.5q-12 6.5 -30 18.5q-2 2 -10 7.5t-14 8t-12 2.5q-13 0 -23 -10.5t-24 -33.5l-77 46q25 57 62 94t74 37q19 0 33 -7t30 -20q9 -7 17.5 -12t16.5 -5q11 0 21 10t23 32l77 -43q-24 -57 -61.5 -94t-75.5 -37q-15 0 -27 6.5z" />
    <glyph glyph-name="adieresis" unicode="&#xe4;" horiz-adv-x="483" 
d="M493 499l-47 -331q-3 -16 -3 -28q0 -13 4.5 -21t14.5 -13l-57 -122q-45 4 -79.5 22.5t-48.5 51.5q-28 -39 -59 -58.5t-74 -19.5q-67 0 -102 51t-35 141q0 104 29 190t94 139t168 53q101 0 195 -55zM216 345.5q-22 -77.5 -22 -178.5q0 -28 5 -39t16 -11t22 12.5t24 34.5
l36 256q-9 3 -18 3q-41 0 -63 -77.5zM154.5 656q-20.5 21 -20.5 56q0 43 29 72.5t70 29.5q38 0 58.5 -21t20.5 -56q0 -43 -29 -72.5t-71 -29.5q-37 0 -57.5 21zM366 656q-21 21 -21 56q0 43 29 72.5t70 29.5q37 0 58 -21t21 -56q0 -43 -29 -72.5t-70 -29.5q-37 0 -58 21z
" />
    <glyph glyph-name="aring" unicode="&#xe5;" horiz-adv-x="483" 
d="M493 499l-47 -331q-3 -16 -3 -28q0 -13 4.5 -21t14.5 -13l-57 -122q-45 4 -79.5 22.5t-48.5 51.5q-28 -39 -59 -58.5t-74 -19.5q-67 0 -102 51t-35 141q0 104 29 190t94 139t168 53q101 0 195 -55zM216 345.5q-22 -77.5 -22 -178.5q0 -28 5 -39t16 -11t22 12.5t24 34.5
l36 256q-9 3 -18 3q-41 0 -63 -77.5zM437 845.5q31 -34.5 31 -90.5q0 -44 -19 -80t-54 -57t-81 -21q-57 0 -88 34t-31 90q0 43 19 79.5t54 58t81 21.5q57 0 88 -34.5zM308.5 769.5q-11.5 -18.5 -11.5 -42.5q0 -38 27 -38q19 0 30.5 18.5t11.5 42.5q0 38 -26 38
q-20 0 -31.5 -18.5z" />
    <glyph glyph-name="ae" unicode="&#xe6;" horiz-adv-x="713" 
d="M325 540q28 -13 51 -39q67 53 165 53q84 0 132.5 -42t46.5 -109q-4 -101 -85 -149.5t-200 -62.5q0 -40 12.5 -57.5t43.5 -17.5q26 0 50 11t58 35l61 -106q-88 -76 -204 -76q-117 0 -169 76q-34 -41 -72 -58t-81 -17q-64 0 -102 39t-38 103q0 88 55 146.5t195 58.5h26
q6 24 15 45q-4 22 -21.5 32.5t-43.5 10.5q-52 0 -116 -25l-22 122q46 19 91.5 29.5t81.5 10.5q42 0 70 -13zM474.5 394.5q-18.5 -37.5 -28.5 -95.5q51 5 73.5 37t22.5 68q0 28 -24 28q-25 0 -43.5 -37.5zM240 224q-23 0 -37 -18.5t-14 -52.5q0 -39 23 -39q10 0 19.5 11
t22.5 32q-1 8 -1 25l1 42h-14z" />
    <glyph glyph-name="ccedilla" unicode="&#xe7;" horiz-adv-x="402" 
d="M247 -18l-5 -31q81 -13 81 -87q0 -31 -15 -62t-51 -52.5t-95 -21.5q-32 0 -59.5 9.5t-45.5 24.5l51 77q25 -13 50 -13q17 0 27.5 7t10.5 22t-17 21t-56 6l26 107q-66 18 -102 73.5t-36 141.5q0 101 33.5 180.5t96 124.5t145.5 45q100 0 161 -71l-88 -99q-18 15 -33 21.5
t-32 6.5q-47 0 -68.5 -63.5t-21.5 -147.5q0 -45 12 -60.5t35 -15.5q15 0 31 6.5t39 20.5l64 -108q-64 -54 -138 -62z" />
    <glyph glyph-name="egrave" unicode="&#xe8;" horiz-adv-x="469" 
d="M429.5 512q48.5 -42 46.5 -109q-4 -101 -85 -149.5t-200 -62.5v-14q0 -61 56 -61q26 0 50 11t58 35l61 -106q-88 -76 -203 -76q-96 0 -150 52t-54 156q0 105 32.5 188t97 130.5t158.5 47.5q84 0 132.5 -42zM275.5 336q22.5 32 22.5 68q0 28 -24 28q-25 0 -43.5 -37.5
t-28.5 -95.5q51 5 73.5 37zM274 842l178 -143l-54 -81l-204 95z" />
    <glyph glyph-name="eacute" unicode="&#xe9;" horiz-adv-x="469" 
d="M429.5 512q48.5 -42 46.5 -109q-4 -101 -85 -149.5t-200 -62.5v-14q0 -61 56 -61q26 0 50 11t58 35l61 -106q-88 -76 -203 -76q-96 0 -150 52t-54 156q0 105 32.5 188t97 130.5t158.5 47.5q84 0 132.5 -42zM275.5 336q22.5 32 22.5 68q0 28 -24 28q-25 0 -43.5 -37.5
t-28.5 -95.5q51 5 73.5 37zM385 844l60 -131l-226 -98l-46 87z" />
    <glyph glyph-name="ecircumflex" unicode="&#xea;" horiz-adv-x="469" 
d="M429.5 512q48.5 -42 46.5 -109q-4 -101 -85 -149.5t-200 -62.5v-14q0 -61 56 -61q26 0 50 11t58 35l61 -106q-88 -76 -203 -76q-96 0 -150 52t-54 156q0 105 32.5 188t97 130.5t158.5 47.5q84 0 132.5 -42zM275.5 336q22.5 32 22.5 68q0 28 -24 28q-25 0 -43.5 -37.5
t-28.5 -95.5q51 5 73.5 37zM192 616l-60 72l142 148h110l108 -157l-76 -63l-98 97z" />
    <glyph glyph-name="edieresis" unicode="&#xeb;" horiz-adv-x="469" 
d="M429.5 512q48.5 -42 46.5 -109q-4 -101 -85 -149.5t-200 -62.5v-14q0 -61 56 -61q26 0 50 11t58 35l61 -106q-88 -76 -203 -76q-96 0 -150 52t-54 156q0 105 32.5 188t97 130.5t158.5 47.5q84 0 132.5 -42zM275.5 336q22.5 32 22.5 68q0 28 -24 28q-25 0 -43.5 -37.5
t-28.5 -95.5q51 5 73.5 37zM139.5 656q-20.5 21 -20.5 56q0 43 29 72.5t70 29.5q38 0 58.5 -21t20.5 -56q0 -43 -29 -72.5t-71 -29.5q-37 0 -57.5 21zM351 656q-21 21 -21 56q0 43 29 72.5t70 29.5q37 0 58 -21t21 -56q0 -43 -29 -72.5t-70 -29.5q-37 0 -58 21z" />
    <glyph glyph-name="igrave" unicode="&#xec;" horiz-adv-x="236" 
d="M248 534l-74 -534h-186l74 534h186zM141 842l178 -143l-54 -81l-204 95z" />
    <glyph glyph-name="iacute" unicode="&#xed;" horiz-adv-x="236" 
d="M248 534l-74 -534h-186l74 534h186zM252 844l60 -131l-226 -98l-46 87z" />
    <glyph glyph-name="icircumflex" unicode="&#xee;" horiz-adv-x="236" 
d="M248 534l-74 -534h-186l74 534h186zM59 616l-60 72l142 148h110l108 -157l-76 -63l-98 97z" />
    <glyph glyph-name="idieresis" unicode="&#xef;" horiz-adv-x="236" 
d="M248 534l-74 -534h-186l74 534h186zM6.5 656q-20.5 21 -20.5 56q0 43 29 72.5t70 29.5q38 0 58.5 -21t20.5 -56q0 -43 -29 -72.5t-71 -29.5q-37 0 -57.5 21zM218 656q-21 21 -21 56q0 43 29 72.5t70 29.5q37 0 58 -21t21 -56q0 -43 -29 -72.5t-70 -29.5q-37 0 -58 21z
" />
    <glyph glyph-name="eth" unicode="&#xf0;" horiz-adv-x="495" 
d="M456.5 542q28.5 -71 28.5 -159q0 -110 -32 -201.5t-95.5 -146t-153.5 -54.5q-89 0 -143.5 55t-54.5 152q0 67 27.5 135.5t74.5 113t103 44.5q32 0 55 -10t42 -31q-5 42 -16.5 72t-35.5 59l-46 -49l-96 53l52 53q-31 11 -64 18l49 116q50 -9 118 -35l75 81l80 -72l-57 -66
q61 -57 89.5 -128zM261 142.5q14 26.5 21 67t16 119.5q-17 23 -37 23q-35 0 -53 -60t-18 -121q0 -31 8 -43t25 -12q24 0 38 26.5z" />
    <glyph glyph-name="ntilde" unicode="&#xf1;" horiz-adv-x="466" 
d="M440 522.5q26 -31.5 26 -88.5q0 -18 -3 -39l-56 -395h-186l49 358q1 5 1 13q0 12 -6 12q-7 0 -16.5 -17.5t-33.5 -71.5l-41 -294h-186l74 534h162l1 -77q62 97 142 97q47 0 73 -31.5zM313 631.5q-12 6.5 -30 18.5q-2 2 -10 7.5t-14 8t-12 2.5q-13 0 -23 -10.5t-24 -33.5
l-77 46q25 57 62 94t74 37q19 0 33 -7t30 -20q9 -7 17.5 -12t16.5 -5q11 0 21 10t23 32l77 -43q-24 -57 -61.5 -94t-75.5 -37q-15 0 -27 6.5z" />
    <glyph glyph-name="ograve" unicode="&#xf2;" horiz-adv-x="494" 
d="M63 34q-53 54 -53 162q0 99 31 180t93 129.5t150 48.5q94 0 147 -54.5t53 -162.5q0 -99 -31.5 -180t-93 -129t-149.5 -48q-94 0 -147 54zM264.5 157.5q16.5 41.5 24.5 100t8 109.5q0 28 -6.5 39t-20.5 11q-36 0 -54.5 -82.5t-18.5 -167.5q0 -28 6.5 -39.5t20.5 -11.5
q24 0 40.5 41.5zM268 842l178 -143l-54 -81l-204 95z" />
    <glyph glyph-name="oacute" unicode="&#xf3;" horiz-adv-x="494" 
d="M63 34q-53 54 -53 162q0 99 31 180t93 129.5t150 48.5q94 0 147 -54.5t53 -162.5q0 -99 -31.5 -180t-93 -129t-149.5 -48q-94 0 -147 54zM264.5 157.5q16.5 41.5 24.5 100t8 109.5q0 28 -6.5 39t-20.5 11q-36 0 -54.5 -82.5t-18.5 -167.5q0 -28 6.5 -39.5t20.5 -11.5
q24 0 40.5 41.5zM379 844l60 -131l-226 -98l-46 87z" />
    <glyph glyph-name="ocircumflex" unicode="&#xf4;" horiz-adv-x="494" 
d="M63 34q-53 54 -53 162q0 99 31 180t93 129.5t150 48.5q94 0 147 -54.5t53 -162.5q0 -99 -31.5 -180t-93 -129t-149.5 -48q-94 0 -147 54zM264.5 157.5q16.5 41.5 24.5 100t8 109.5q0 28 -6.5 39t-20.5 11q-36 0 -54.5 -82.5t-18.5 -167.5q0 -28 6.5 -39.5t20.5 -11.5
q24 0 40.5 41.5zM186 616l-60 72l142 148h110l108 -157l-76 -63l-98 97z" />
    <glyph glyph-name="otilde" unicode="&#xf5;" horiz-adv-x="494" 
d="M63 34q-53 54 -53 162q0 99 31 180t93 129.5t150 48.5q94 0 147 -54.5t53 -162.5q0 -99 -31.5 -180t-93 -129t-149.5 -48q-94 0 -147 54zM264.5 157.5q16.5 41.5 24.5 100t8 109.5q0 28 -6.5 39t-20.5 11q-36 0 -54.5 -82.5t-18.5 -167.5q0 -28 6.5 -39.5t20.5 -11.5
q24 0 40.5 41.5zM320 631.5q-12 6.5 -30 18.5q-2 2 -10 7.5t-14 8t-12 2.5q-13 0 -23 -10.5t-24 -33.5l-77 46q25 57 62 94t74 37q19 0 33 -7t30 -20q9 -7 17.5 -12t16.5 -5q11 0 21 10t23 32l77 -43q-24 -57 -61.5 -94t-75.5 -37q-15 0 -27 6.5z" />
    <glyph glyph-name="odieresis" unicode="&#xf6;" horiz-adv-x="494" 
d="M63 34q-53 54 -53 162q0 99 31 180t93 129.5t150 48.5q94 0 147 -54.5t53 -162.5q0 -99 -31.5 -180t-93 -129t-149.5 -48q-94 0 -147 54zM264.5 157.5q16.5 41.5 24.5 100t8 109.5q0 28 -6.5 39t-20.5 11q-36 0 -54.5 -82.5t-18.5 -167.5q0 -28 6.5 -39.5t20.5 -11.5
q24 0 40.5 41.5zM133.5 656q-20.5 21 -20.5 56q0 43 29 72.5t70 29.5q38 0 58.5 -21t20.5 -56q0 -43 -29 -72.5t-71 -29.5q-37 0 -57.5 21zM345 656q-21 21 -21 56q0 43 29 72.5t70 29.5q37 0 58 -21t21 -56q0 -43 -29 -72.5t-70 -29.5q-37 0 -58 21z" />
    <glyph glyph-name="divide" unicode="&#xf7;" horiz-adv-x="443" 
d="M130 9.5q-23 25.5 -23 62.5q0 48 31 80.5t78 32.5q39 0 62 -25.5t23 -63.5q0 -48 -31 -80t-78 -32q-39 0 -62 25.5zM199 503.5q-23 25.5 -23 62.5q0 48 31 80.5t78 32.5q39 0 62 -25.5t23 -63.5q0 -48 -31 -80t-78 -32q-39 0 -62 25.5zM30 260l20 144h381l-20 -144h-381z
" />
    <glyph glyph-name="oslash" unicode="&#xf8;" horiz-adv-x="494" 
d="M466 440.5q18 -44.5 18 -103.5q0 -99 -31.5 -180t-93 -129t-149.5 -48h-11l-45 -117l-123 39l49 119q-70 56 -70 175q0 99 31 180t93 129.5t150 48.5h11l43 118l124 -40l-48 -120q34 -27 52 -71.5zM200 347q-23 -79 -23 -180v-5l84 254l4 16q-42 -6 -65 -85zM294 188
q23 80 23 179l-82 -249l-4 -16q40 6 63 86z" />
    <glyph glyph-name="ugrave" unicode="&#xf9;" 
d="M28 12.5q-27 32.5 -27 89.5q0 18 3 37l55 395h186l-50 -362l-1 -11q0 -14 8 -14q16 0 38 46l47 341h186l-75 -534h-162l2 67q-27 -41 -58.5 -64t-76.5 -23q-48 0 -75 32.5zM252 842l178 -143l-54 -81l-204 95z" />
    <glyph glyph-name="uacute" unicode="&#xfa;" 
d="M28 12.5q-27 32.5 -27 89.5q0 18 3 37l55 395h186l-50 -362l-1 -11q0 -14 8 -14q16 0 38 46l47 341h186l-75 -534h-162l2 67q-27 -41 -58.5 -64t-76.5 -23q-48 0 -75 32.5zM363 844l60 -131l-226 -98l-46 87z" />
    <glyph glyph-name="ucircumflex" unicode="&#xfb;" 
d="M28 12.5q-27 32.5 -27 89.5q0 18 3 37l55 395h186l-50 -362l-1 -11q0 -14 8 -14q16 0 38 46l47 341h186l-75 -534h-162l2 67q-27 -41 -58.5 -64t-76.5 -23q-48 0 -75 32.5zM170 616l-60 72l142 148h110l108 -157l-76 -63l-98 97z" />
    <glyph glyph-name="udieresis" unicode="&#xfc;" 
d="M28 12.5q-27 32.5 -27 89.5q0 18 3 37l55 395h186l-50 -362l-1 -11q0 -14 8 -14q16 0 38 46l47 341h186l-75 -534h-162l2 67q-27 -41 -58.5 -64t-76.5 -23q-48 0 -75 32.5zM117.5 656q-20.5 21 -20.5 56q0 43 29 72.5t70 29.5q38 0 58.5 -21t20.5 -56q0 -43 -29 -72.5
t-71 -29.5q-37 0 -57.5 21zM329 656q-21 21 -21 56q0 43 29 72.5t70 29.5q37 0 58 -21t21 -56q0 -43 -29 -72.5t-70 -29.5q-37 0 -58 21z" />
    <glyph glyph-name="yacute" unicode="&#xfd;" horiz-adv-x="445" 
d="M298 0q-44 -117 -124 -169.5t-199 -57.5l-2 127q65 8 99 29t58 71h-66l-41 534h192l-17 -416l104 416h196zM357 844l60 -131l-226 -98l-46 87z" />
    <glyph glyph-name="thorn" unicode="&#xfe;" horiz-adv-x="493" 
d="M453.5 508q32.5 -46 32.5 -132q0 -179 -63 -287.5t-187 -108.5q-33 0 -65 8l-28 -195l-188 -19l136 970l189 19l-38 -267q18 26 49.5 42t67.5 16q62 0 94.5 -46zM263 157q18 43 26.5 102t8.5 108q0 30 -6.5 40t-17.5 10q-22 0 -48 -39l-37 -257q15 -7 28 -7q28 0 46 43z
" />
    <glyph glyph-name="ydieresis" unicode="&#xff;" horiz-adv-x="445" 
d="M298 0q-44 -117 -124 -169.5t-199 -57.5l-2 127q65 8 99 29t58 71h-66l-41 534h192l-17 -416l104 416h196zM111.5 656q-20.5 21 -20.5 56q0 43 29 72.5t70 29.5q38 0 58.5 -21t20.5 -56q0 -43 -29 -72.5t-71 -29.5q-37 0 -57.5 21zM323 656q-21 21 -21 56q0 43 29 72.5
t70 29.5q37 0 58 -21t21 -56q0 -43 -29 -72.5t-70 -29.5q-37 0 -58 21z" />
    <glyph glyph-name="Amacron" unicode="&#x100;" horiz-adv-x="506" 
d="M488 0h-198v138h-111l-36 -138h-201l255 696h231zM214 276h76v294zM457 775h-274l20 130h274z" />
    <glyph glyph-name="amacron" unicode="&#x101;" horiz-adv-x="483" 
d="M493 499l-47 -331q-3 -16 -3 -28q0 -13 4.5 -21t14.5 -13l-57 -122q-45 4 -79.5 22.5t-48.5 51.5q-28 -39 -59 -58.5t-74 -19.5q-67 0 -102 51t-35 141q0 104 29 190t94 139t168 53q101 0 195 -55zM216 345.5q-22 -77.5 -22 -178.5q0 -28 5 -39t16 -11t22 12.5t24 34.5
l36 256q-9 3 -18 3q-41 0 -63 -77.5zM454 649h-274l20 130h274z" />
    <glyph glyph-name="Abreve" unicode="&#x102;" horiz-adv-x="506" 
d="M488 0h-198v138h-111l-36 -138h-201l255 696h231zM214 276h76v294zM219.5 792q-33.5 45 -33.5 113q0 16 1 24l93 15q1 -30 14 -49t39 -19q49 0 72 70l95 -19q-14 -79 -57.5 -129.5t-119.5 -50.5q-70 0 -103.5 45z" />
    <glyph glyph-name="abreve" unicode="&#x103;" horiz-adv-x="483" 
d="M493 499l-47 -331q-3 -16 -3 -28q0 -13 4.5 -21t14.5 -13l-57 -122q-45 4 -79.5 22.5t-48.5 51.5q-28 -39 -59 -58.5t-74 -19.5q-67 0 -102 51t-35 141q0 104 29 190t94 139t168 53q101 0 195 -55zM216 345.5q-22 -77.5 -22 -178.5q0 -28 5 -39t16 -11t22 12.5t24 34.5
l36 256q-9 3 -18 3q-41 0 -63 -77.5zM213 674q-35 47 -35 121q0 17 1 25l94 14q1 -36 14.5 -57t39.5 -21t45 21.5t30 58.5l90 -19q-15 -83 -58.5 -136.5t-115.5 -53.5q-70 0 -105 47z" />
    <glyph glyph-name="Aogonek" unicode="&#x104;" horiz-adv-x="506" 
d="M310.5 -54.5q-22.5 -29.5 -22.5 -54.5q0 -32 37 -32q18 0 46 5l-26 -108q-29 -8 -63 -8q-53 0 -87.5 31t-34.5 85q0 103 130 163v111h-111l-36 -138h-201l255 696h231l60 -696h-95q-60 -25 -82.5 -54.5zM214 276h76v294z" />
    <glyph glyph-name="aogonek" unicode="&#x105;" horiz-adv-x="483" 
d="M443 140q0 -13 4.5 -21t14.5 -13l-57 -122q-60 -25 -82.5 -54.5t-22.5 -54.5q0 -32 37 -32q18 0 46 5l-26 -108q-29 -8 -63 -8q-53 0 -87.5 31t-34.5 85t34.5 95t104.5 73q-24 18 -34 42q-28 -39 -59 -58.5t-74 -19.5q-67 0 -102 51t-35 141q0 104 29 190t94 139t168 53
q101 0 195 -55l-47 -331q-3 -16 -3 -28zM297 420q-9 3 -18 3q-41 0 -63 -77.5t-22 -178.5q0 -28 5 -39t16 -11t22 12.5t24 34.5z" />
    <glyph glyph-name="Cacute" unicode="&#x106;" horiz-adv-x="488" 
d="M537 634l-98 -100q-39 39 -84 39q-46 0 -76 -51t-43 -127.5t-13 -154.5q0 -59 16.5 -85t50.5 -26q25 0 48.5 12.5t58.5 38.5l69 -106q-98 -94 -217 -94q-105 0 -165.5 68.5t-60.5 203.5q0 130 37.5 235t113 167t183.5 62q109 0 180 -82zM458 962l60 -131l-226 -88l-43 87
z" />
    <glyph glyph-name="cacute" unicode="&#x107;" horiz-adv-x="402" 
d="M447 483l-88 -99q-18 15 -33 21.5t-32 6.5q-47 0 -68.5 -63.5t-21.5 -147.5q0 -45 12 -60.5t35 -15.5q15 0 31 6.5t39 20.5l64 -108q-75 -64 -170 -64q-96 0 -150 59.5t-54 164.5q0 101 33.5 180.5t96 124.5t145.5 45q100 0 161 -71zM377 844l60 -131l-226 -98l-46 87z
" />
    <glyph glyph-name="Ccircumflex" unicode="&#x108;" horiz-adv-x="488" 
d="M537 634l-98 -100q-39 39 -84 39q-46 0 -76 -51t-43 -127.5t-13 -154.5q0 -59 16.5 -85t50.5 -26q25 0 48.5 12.5t58.5 38.5l69 -106q-98 -94 -217 -94q-105 0 -165.5 68.5t-60.5 203.5q0 130 37.5 235t113 167t183.5 62q109 0 180 -82zM248 756l-65 72l142 138h110
l109 -148l-72 -62l-103 87z" />
    <glyph glyph-name="ccircumflex" unicode="&#x109;" horiz-adv-x="402" 
d="M447 483l-88 -99q-18 15 -33 21.5t-32 6.5q-47 0 -68.5 -63.5t-21.5 -147.5q0 -45 12 -60.5t35 -15.5q15 0 31 6.5t39 20.5l64 -108q-75 -64 -170 -64q-96 0 -150 59.5t-54 164.5q0 101 33.5 180.5t96 124.5t145.5 45q100 0 161 -71zM184 616l-60 72l142 148h110
l108 -157l-76 -63l-98 97z" />
    <glyph glyph-name="Cdotaccent" unicode="&#x10a;" horiz-adv-x="488" 
d="M537 634l-98 -100q-39 39 -84 39q-46 0 -76 -51t-43 -127.5t-13 -154.5q0 -59 16.5 -85t50.5 -26q25 0 48.5 12.5t58.5 38.5l69 -106q-98 -94 -217 -94q-105 0 -165.5 68.5t-60.5 203.5q0 130 37.5 235t113 167t183.5 62q109 0 180 -82zM297 770q-24 24 -24 64
q0 51 33.5 84t82.5 33q44 0 68 -24t24 -64q0 -51 -33.5 -84t-82.5 -33q-44 0 -68 24z" />
    <glyph glyph-name="cdotaccent" unicode="&#x10b;" horiz-adv-x="402" 
d="M447 483l-88 -99q-18 15 -33 21.5t-32 6.5q-47 0 -68.5 -63.5t-21.5 -147.5q0 -45 12 -60.5t35 -15.5q15 0 31 6.5t39 20.5l64 -108q-75 -64 -170 -64q-96 0 -150 59.5t-54 164.5q0 101 33.5 180.5t96 124.5t145.5 45q100 0 161 -71zM228 644q-24 24 -24 64q0 51 33.5 84
t82.5 33q44 0 68 -24t24 -64q0 -51 -33.5 -84t-82.5 -33q-44 0 -68 24z" />
    <glyph glyph-name="Ccaron" unicode="&#x10c;" horiz-adv-x="488" 
d="M537 634l-98 -100q-39 39 -84 39q-46 0 -76 -51t-43 -127.5t-13 -154.5q0 -59 16.5 -85t50.5 -26q25 0 48.5 12.5t58.5 38.5l69 -106q-98 -94 -217 -94q-105 0 -165.5 68.5t-60.5 203.5q0 130 37.5 235t113 167t183.5 62q109 0 180 -82zM491 958l65 -72l-142 -138h-110
l-109 148l72 62l103 -87z" />
    <glyph glyph-name="ccaron" unicode="&#x10d;" horiz-adv-x="402" 
d="M447 483l-88 -99q-18 15 -33 21.5t-32 6.5q-47 0 -68.5 -63.5t-21.5 -147.5q0 -45 12 -60.5t35 -15.5q15 0 31 6.5t39 20.5l64 -108q-75 -64 -170 -64q-96 0 -150 59.5t-54 164.5q0 101 33.5 180.5t96 124.5t145.5 45q100 0 161 -71zM427 824l60 -72l-142 -148h-110
l-99 148l67 72l98 -97z" />
    <glyph glyph-name="Dcaron" unicode="&#x10e;" horiz-adv-x="550" 
d="M477.5 642q71.5 -54 71.5 -197q0 -208 -85 -326.5t-266 -118.5h-208l98 696h197q121 0 192.5 -54zM262 557l-58 -417h23q67 0 96.5 97.5t29.5 214.5q0 56 -15.5 80.5t-48.5 24.5h-27zM437 958l65 -72l-142 -138h-110l-109 148l72 62l103 -87z" />
    <glyph glyph-name="dcaron" unicode="&#x10f;" horiz-adv-x="608" 
d="M537 744l-104 -744h-165l2 56q-27 -38 -57 -57t-72 -19q-64 0 -99 49t-35 142q0 99 26.5 187t76.5 142t119 54q57 0 89 -43l35 252zM232 378q-17 -40 -26 -97.5t-9 -106.5q0 -35 6 -46.5t17 -11.5q22 0 49 47l33 235q-12 20 -30 20q-23 0 -40 -40zM567 759l126 -16
l-73 -231l-91 8z" />
    <glyph glyph-name="Dcroat" unicode="&#x110;" horiz-adv-x="558" 
d="M485.5 642q71.5 -54 71.5 -197q0 -208 -85 -326.5t-266 -118.5h-208l42 297h-31l18 112h29l40 287h197q121 0 192.5 -54zM331.5 237.5q29.5 97.5 29.5 214.5q0 56 -15.5 80.5t-48.5 24.5h-27l-21 -148h87l-18 -112h-84l-22 -157h23q67 0 96.5 97.5z" />
    <glyph glyph-name="dcroat" unicode="&#x111;" horiz-adv-x="505" 
d="M567 694l-16 -103h-35l-83 -591h-165l2 56q-27 -38 -57 -57t-72 -19q-64 0 -99 49t-35 142q0 99 26.5 187t76.5 142t119 54q57 0 89 -43l11 80h-83l4 103h93l10 69l184 -19l-7 -50h37zM302 398q-12 20 -30 20q-23 0 -40 -40t-26 -97.5t-9 -106.5q0 -35 6 -46.5t17 -11.5
q22 0 49 47z" />
    <glyph glyph-name="Emacron" unicode="&#x112;" horiz-adv-x="421" 
d="M476 696l-42 -137h-171l-20 -139h154l-20 -134h-153l-20 -147h188l-20 -139h-382l98 696h388zM425 775h-274l20 130h274z" />
    <glyph glyph-name="emacron" unicode="&#x113;" horiz-adv-x="469" 
d="M429.5 512q48.5 -42 46.5 -109q-4 -101 -85 -149.5t-200 -62.5v-14q0 -61 56 -61q26 0 50 11t58 35l61 -106q-88 -76 -203 -76q-96 0 -150 52t-54 156q0 105 32.5 188t97 130.5t158.5 47.5q84 0 132.5 -42zM275.5 336q22.5 32 22.5 68q0 28 -24 28q-25 0 -43.5 -37.5
t-28.5 -95.5q51 5 73.5 37zM439 649h-274l20 130h274z" />
    <glyph glyph-name="Ebreve" unicode="&#x114;" horiz-adv-x="421" 
d="M476 696l-42 -137h-171l-20 -139h154l-20 -134h-153l-20 -147h188l-20 -139h-382l98 696h388zM187.5 792q-33.5 45 -33.5 113q0 16 1 24l93 15q1 -30 14 -49t39 -19q49 0 72 70l95 -19q-14 -79 -57.5 -129.5t-119.5 -50.5q-70 0 -103.5 45z" />
    <glyph glyph-name="ebreve" unicode="&#x115;" horiz-adv-x="469" 
d="M429.5 512q48.5 -42 46.5 -109q-4 -101 -85 -149.5t-200 -62.5v-14q0 -61 56 -61q26 0 50 11t58 35l61 -106q-88 -76 -203 -76q-96 0 -150 52t-54 156q0 105 32.5 188t97 130.5t158.5 47.5q84 0 132.5 -42zM275.5 336q22.5 32 22.5 68q0 28 -24 28q-25 0 -43.5 -37.5
t-28.5 -95.5q51 5 73.5 37zM198 674q-35 47 -35 121q0 17 1 25l94 14q1 -36 14.5 -57t39.5 -21t45 21.5t30 58.5l90 -19q-15 -83 -58.5 -136.5t-115.5 -53.5q-70 0 -105 47z" />
    <glyph glyph-name="Edotaccent" unicode="&#x116;" horiz-adv-x="421" 
d="M476 696l-42 -137h-171l-20 -139h154l-20 -134h-153l-20 -147h188l-20 -139h-382l98 696h388zM226 770q-24 24 -24 64q0 51 33.5 84t82.5 33q44 0 68 -24t24 -64q0 -51 -33.5 -84t-82.5 -33q-44 0 -68 24z" />
    <glyph glyph-name="edotaccent" unicode="&#x117;" horiz-adv-x="469" 
d="M429.5 512q48.5 -42 46.5 -109q-4 -101 -85 -149.5t-200 -62.5v-14q0 -61 56 -61q26 0 50 11t58 35l61 -106q-88 -76 -203 -76q-96 0 -150 52t-54 156q0 105 32.5 188t97 130.5t158.5 47.5q84 0 132.5 -42zM275.5 336q22.5 32 22.5 68q0 28 -24 28q-25 0 -43.5 -37.5
t-28.5 -95.5q51 5 73.5 37zM236 644q-24 24 -24 64q0 51 33.5 84t82.5 33q44 0 68 -24t24 -64q0 -51 -33.5 -84t-82.5 -33q-44 0 -68 24z" />
    <glyph glyph-name="Eogonek" unicode="&#x118;" horiz-adv-x="421" 
d="M263 559l-20 -139h154l-20 -134h-153l-20 -147h188l-20 -139h-32q-60 -25 -82.5 -54.5t-22.5 -54.5q0 -32 37 -32q18 0 46 5l-26 -108q-29 -8 -63 -8q-53 0 -87.5 31t-34.5 85q0 82 81 136h-198l98 696h388l-42 -137h-171z" />
    <glyph glyph-name="eogonek" unicode="&#x119;" horiz-adv-x="469" 
d="M429.5 512q48.5 -42 46.5 -109q-4 -101 -85 -149.5t-200 -62.5v-14q0 -61 56 -61q26 0 50 11t58 35l61 -106q-44 -38 -95 -57q-47 -24 -66 -49.5t-19 -48.5q0 -31 32 -31q24 0 53 8l-29 -111q-30 -8 -64 -8q-54 0 -88 27t-34 75q0 75 71 121q-79 9 -123.5 60.5
t-44.5 144.5q0 106 32.5 189t97 130.5t158.5 47.5q84 0 132.5 -42zM275.5 336q22.5 32 22.5 68q0 28 -24 28q-25 0 -43.5 -37.5t-28.5 -95.5q51 5 73.5 37z" />
    <glyph glyph-name="Ecaron" unicode="&#x11a;" horiz-adv-x="421" 
d="M476 696l-42 -137h-171l-20 -139h154l-20 -134h-153l-20 -147h188l-20 -139h-382l98 696h388zM420 958l65 -72l-142 -138h-110l-109 148l72 62l103 -87z" />
    <glyph glyph-name="ecaron" unicode="&#x11b;" horiz-adv-x="469" 
d="M429.5 512q48.5 -42 46.5 -109q-4 -101 -85 -149.5t-200 -62.5v-14q0 -61 56 -61q26 0 50 11t58 35l61 -106q-88 -76 -203 -76q-96 0 -150 52t-54 156q0 105 32.5 188t97 130.5t158.5 47.5q84 0 132.5 -42zM275.5 336q22.5 32 22.5 68q0 28 -24 28q-25 0 -43.5 -37.5
t-28.5 -95.5q51 5 73.5 37zM435 824l60 -72l-142 -148h-110l-99 148l67 72l98 -97z" />
    <glyph glyph-name="Gcircumflex" unicode="&#x11c;" horiz-adv-x="547" 
d="M488.5 691q49.5 -25 83.5 -66l-101 -93q-25 24 -47.5 34.5t-51.5 10.5q-81 0 -118 -110.5t-37 -253.5q0 -49 12.5 -70.5t37.5 -21.5q28 0 55 20l19 132h-48l1 134h246l-48 -349q-52 -37 -115.5 -57t-119.5 -20q-236 0 -236 263q0 129 41.5 237t121.5 171.5t191 63.5
q64 0 113.5 -25zM256 756l-65 72l142 138h110l109 -148l-72 -62l-103 87z" />
    <glyph glyph-name="gcircumflex" unicode="&#x11d;" horiz-adv-x="485" 
d="M400.5 539.5q50.5 -14.5 95.5 -40.5l-65 -464q-19 -133 -81.5 -197t-180.5 -64q-101 0 -184 57l64 119q33 -19 59 -27.5t54 -8.5q34 0 55.5 18.5t28.5 67.5l9 63q-42 -64 -112 -64q-64 0 -98.5 51.5t-34.5 140.5q0 160 69 261.5t220 101.5q51 0 101.5 -14.5zM218.5 354
q-21.5 -69 -21.5 -168q0 -28 5 -39t16 -11t24 13t25 34l32 237q-9 3 -19 3q-40 0 -61.5 -69zM194 616l-60 72l142 148h110l108 -157l-76 -63l-98 97z" />
    <glyph glyph-name="Gbreve" unicode="&#x11e;" horiz-adv-x="547" 
d="M488.5 691q49.5 -25 83.5 -66l-101 -93q-25 24 -47.5 34.5t-51.5 10.5q-81 0 -118 -110.5t-37 -253.5q0 -49 12.5 -70.5t37.5 -21.5q28 0 55 20l19 132h-48l1 134h246l-48 -349q-52 -37 -115.5 -57t-119.5 -20q-236 0 -236 263q0 129 41.5 237t121.5 171.5t191 63.5
q64 0 113.5 -25zM266.5 792q-33.5 45 -33.5 113q0 16 1 24l93 15q1 -30 14 -49t39 -19q49 0 72 70l95 -19q-14 -79 -57.5 -129.5t-119.5 -50.5q-70 0 -103.5 45z" />
    <glyph glyph-name="gbreve" unicode="&#x11f;" horiz-adv-x="485" 
d="M400.5 539.5q50.5 -14.5 95.5 -40.5l-65 -464q-19 -133 -81.5 -197t-180.5 -64q-101 0 -184 57l64 119q33 -19 59 -27.5t54 -8.5q34 0 55.5 18.5t28.5 67.5l9 63q-42 -64 -112 -64q-64 0 -98.5 51.5t-34.5 140.5q0 160 69 261.5t220 101.5q51 0 101.5 -14.5zM218.5 354
q-21.5 -69 -21.5 -168q0 -28 5 -39t16 -11t24 13t25 34l32 237q-9 3 -19 3q-40 0 -61.5 -69zM200 674q-35 47 -35 121q0 17 1 25l94 14q1 -36 14.5 -57t39.5 -21t45 21.5t30 58.5l90 -19q-15 -83 -58.5 -136.5t-115.5 -53.5q-70 0 -105 47z" />
    <glyph glyph-name="Gdotaccent" unicode="&#x120;" horiz-adv-x="547" 
d="M488.5 691q49.5 -25 83.5 -66l-101 -93q-25 24 -47.5 34.5t-51.5 10.5q-81 0 -118 -110.5t-37 -253.5q0 -49 12.5 -70.5t37.5 -21.5q28 0 55 20l19 132h-48l1 134h246l-48 -349q-52 -37 -115.5 -57t-119.5 -20q-236 0 -236 263q0 129 41.5 237t121.5 171.5t191 63.5
q64 0 113.5 -25zM305 770q-24 24 -24 64q0 51 33.5 84t82.5 33q44 0 68 -24t24 -64q0 -51 -33.5 -84t-82.5 -33q-44 0 -68 24z" />
    <glyph glyph-name="gdotaccent" unicode="&#x121;" horiz-adv-x="485" 
d="M400.5 539.5q50.5 -14.5 95.5 -40.5l-65 -464q-19 -133 -81.5 -197t-180.5 -64q-101 0 -184 57l64 119q33 -19 59 -27.5t54 -8.5q34 0 55.5 18.5t28.5 67.5l9 63q-42 -64 -112 -64q-64 0 -98.5 51.5t-34.5 140.5q0 160 69 261.5t220 101.5q51 0 101.5 -14.5zM218.5 354
q-21.5 -69 -21.5 -168q0 -28 5 -39t16 -11t24 13t25 34l32 237q-9 3 -19 3q-40 0 -61.5 -69zM238 644q-24 24 -24 64q0 51 33.5 84t82.5 33q44 0 68 -24t24 -64q0 -51 -33.5 -84t-82.5 -33q-44 0 -68 24z" />
    <glyph glyph-name="Gcommaaccent" unicode="&#x122;" horiz-adv-x="547" 
d="M488.5 691q49.5 -25 83.5 -66l-101 -93q-25 24 -47.5 34.5t-51.5 10.5q-81 0 -118 -110.5t-37 -253.5q0 -49 12.5 -70.5t37.5 -21.5q28 0 55 20l19 132h-48l1 134h246l-48 -349q-52 -37 -115.5 -57t-119.5 -20q-236 0 -236 263q0 129 41.5 237t121.5 171.5t191 63.5
q64 0 113.5 -25zM309.5 -84q21.5 -21 21.5 -55q0 -25 -8 -46t-29 -57l-56 -97h-86l38 117q-30 21 -30 57q0 45 26.5 73.5t66.5 28.5q35 0 56.5 -21z" />
    <glyph glyph-name="gcommaaccent" unicode="&#x123;" horiz-adv-x="485" 
d="M400.5 539.5q50.5 -14.5 95.5 -40.5l-65 -464q-19 -133 -81.5 -197t-180.5 -64q-101 0 -184 57l64 119q33 -19 59 -27.5t54 -8.5q34 0 55.5 18.5t28.5 67.5l9 63q-42 -64 -112 -64q-64 0 -98.5 51.5t-34.5 140.5q0 160 69 261.5t220 101.5q51 0 101.5 -14.5zM218.5 354
q-21.5 -69 -21.5 -168q0 -28 5 -39t16 -11t24 13t25 34l32 237q-9 3 -19 3q-40 0 -61.5 -69zM241.5 608q-21.5 21 -21.5 55q0 25 8 46t29 57l56 97h86l-38 -117q30 -21 30 -57q0 -45 -26.5 -73.5t-66.5 -28.5q-35 0 -56.5 21z" />
    <glyph glyph-name="Hcircumflex" unicode="&#x124;" horiz-adv-x="536" 
d="M184 0h-194l98 696h194l-37 -260h92l36 260h194l-97 -696h-194l40 284h-92zM224 756l-65 72l142 138h110l109 -148l-72 -62l-103 87z" />
    <glyph glyph-name="hcircumflex" unicode="&#x125;" horiz-adv-x="465" 
d="M439 522q26 -32 26 -88q0 -18 -3 -39l-56 -395h-186l49 358q1 5 1 13q0 12 -6 12q-7 0 -16.5 -17.5t-33.5 -71.5l-41 -294h-186l104 744l188 19l-41 -299q22 38 54.5 64t74.5 26q46 0 72 -32zM195 804l-65 72l142 138h110l109 -148l-72 -62l-103 87z" />
    <glyph glyph-name="Hbar" unicode="&#x126;" horiz-adv-x="552" 
d="M599 599l-15 -103h-35l-69 -496h-194l40 284h-92l-40 -284h-194l70 496h-37l14 103h37l14 97h194l-14 -97h92l13 97h194l-14 -97h36zM347 436l8 60h-91l-9 -60h92z" />
    <glyph glyph-name="hbar" unicode="&#x127;" horiz-adv-x="474" 
d="M448 522q26 -32 26 -88q0 -18 -3 -39l-56 -395h-186l49 358q1 5 1 13q0 12 -6 12q-7 0 -16.5 -17.5t-33.5 -71.5l-41 -294h-186l83 591h-35l14 103h35l7 50l188 19l-9 -69h99l-28 -103h-86l-17 -127q22 38 54.5 64t74.5 26q46 0 72 -32z" />
    <glyph glyph-name="Itilde" unicode="&#x128;" horiz-adv-x="250" 
d="M282 696l-98 -696h-194l98 696h194zM219 757.5q-12 6.5 -30 18.5q-2 2 -10 7.5t-14 8t-12 2.5q-13 0 -23 -10.5t-24 -33.5l-77 46q25 57 62 94t74 37q19 0 33 -7t30 -20q9 -7 17.5 -12t16.5 -5q11 0 21 10t23 32l77 -43q-24 -57 -61.5 -94t-75.5 -37q-15 0 -27 6.5z" />
    <glyph glyph-name="itilde" unicode="&#x129;" horiz-adv-x="236" 
d="M248 534l-74 -534h-186l74 534h186zM193 631.5q-12 6.5 -30 18.5q-2 2 -10 7.5t-14 8t-12 2.5q-13 0 -23 -10.5t-24 -33.5l-77 46q25 57 62 94t74 37q19 0 33 -7t30 -20q9 -7 17.5 -12t16.5 -5q11 0 21 10t23 32l77 -43q-24 -57 -61.5 -94t-75.5 -37q-15 0 -27 6.5z" />
    <glyph glyph-name="Imacron" unicode="&#x12a;" horiz-adv-x="250" 
d="M282 696l-98 -696h-194l98 696h194zM329 775h-274l20 130h274z" />
    <glyph glyph-name="imacron" unicode="&#x12b;" horiz-adv-x="236" 
d="M248 534l-74 -534h-186l74 534h186zM306 649h-274l20 130h274z" />
    <glyph glyph-name="Ibreve" unicode="&#x12c;" horiz-adv-x="250" 
d="M282 696l-98 -696h-194l98 696h194zM91.5 792q-33.5 45 -33.5 113q0 16 1 24l93 15q1 -30 14 -49t39 -19q49 0 72 70l95 -19q-14 -79 -57.5 -129.5t-119.5 -50.5q-70 0 -103.5 45z" />
    <glyph glyph-name="ibreve" unicode="&#x12d;" horiz-adv-x="236" 
d="M248 534l-74 -534h-186l74 534h186zM65 674q-35 47 -35 121q0 17 1 25l94 14q1 -36 14.5 -57t39.5 -21t45 21.5t30 58.5l90 -19q-15 -83 -58.5 -136.5t-115.5 -53.5q-70 0 -105 47z" />
    <glyph glyph-name="Iogonek" unicode="&#x12e;" horiz-adv-x="250" 
d="M282 696l-98 -696h-48q-60 -25 -82.5 -54.5t-22.5 -54.5q0 -32 37 -32q18 0 46 5l-26 -108q-29 -8 -63 -8q-53 0 -87.5 31t-34.5 85q0 84 88 140l97 692h194z" />
    <glyph glyph-name="iogonek" unicode="&#x12f;" horiz-adv-x="236" 
d="M263 801q24 -24 24 -64q0 -51 -33.5 -84t-82.5 -33q-44 0 -68 24t-24 64q0 51 33.5 84t82.5 33q44 0 68 -24zM62 534h186l-74 -534h-43q-60 -25 -82.5 -54.5t-22.5 -54.5q0 -32 37 -32q18 0 46 5l-26 -108q-29 -8 -63 -8q-53 0 -87.5 31t-34.5 85q0 86 91 142z" />
    <glyph glyph-name="Idotaccent" unicode="&#x130;" horiz-adv-x="250" 
d="M282 696l-98 -696h-194l98 696h194zM130 770q-24 24 -24 64q0 51 33.5 84t82.5 33q44 0 68 -24t24 -64q0 -51 -33.5 -84t-82.5 -33q-44 0 -68 24z" />
    <glyph glyph-name="dotlessi" unicode="&#x131;" horiz-adv-x="236" 
d="M248 534l-74 -534h-186l74 534h186z" />
    <glyph glyph-name="IJ" unicode="&#x132;" horiz-adv-x="528" 
d="M282 696l-98 -696h-194l98 696h194zM478 104q-13 -92 -51 -149t-88.5 -86.5t-121.5 -53.5l-32 136q50 24 70.5 60.5t30.5 106.5l81 578h194z" />
    <glyph glyph-name="ij" unicode="&#x133;" horiz-adv-x="471" 
d="M248 534l-74 -534h-186l74 534h186zM103 644q-24 24 -24 64q0 51 33.5 84t82.5 33q44 0 68 -24t24 -64q0 -51 -33.5 -84t-82.5 -33q-44 0 -68 24zM122 -90q52 21 77 53.5t34 99.5l65 471h187l-65 -461q-14 -94 -51 -152.5t-86.5 -89.5t-119.5 -57zM340 644q-24 24 -24 64
q0 51 33.5 84t82.5 33q44 0 68 -24t24 -64q0 -51 -33.5 -84t-82.5 -33q-44 0 -68 24z" />
    <glyph glyph-name="Jcircumflex" unicode="&#x134;" horiz-adv-x="278" 
d="M228 104q-13 -92 -51 -149t-88.5 -86.5t-121.5 -53.5l-32 136q50 24 70.5 60.5t30.5 106.5l81 578h194zM109 756l-65 72l142 138h110l109 -148l-72 -62l-103 87z" />
    <glyph glyph-name="jcircumflex" unicode="&#x135;" horiz-adv-x="235" 
d="M-114 -90q52 21 77 53.5t34 99.5l65 471h187l-65 -461q-14 -94 -51 -152.5t-86.5 -89.5t-119.5 -57zM60 616l-60 72l142 148h110l108 -157l-76 -63l-98 97z" />
    <glyph glyph-name="Kcommaaccent" unicode="&#x136;" horiz-adv-x="566" 
d="M-10 0l98 696h194l-98 -696h-194zM329 0l-88 371l187 325h192l-185 -320l103 -376h-209zM292.5 -84q21.5 -21 21.5 -55q0 -25 -8 -46t-29 -57l-56 -97h-86l38 117q-30 21 -30 57q0 45 26.5 73.5t66.5 28.5q35 0 56.5 -21z" />
    <glyph glyph-name="kcommaaccent" unicode="&#x137;" horiz-adv-x="499" 
d="M242 480q33 38 69 55.5t80 17.5q57 0 92 -34t35 -89q0 -60 -27 -102.5t-87 -84.5l57 -243h-192l-47 256q62 29 85.5 62t23.5 72q0 17 -6.5 25.5t-18.5 8.5q-35 0 -85 -79l-47 -345h-187l104 744l189 19zM262.5 -84q21.5 -21 21.5 -55q0 -25 -8 -46t-29 -57l-56 -97h-86
l38 117q-30 21 -30 57q0 45 26.5 73.5t66.5 28.5q35 0 56.5 -21z" />
    <glyph glyph-name="kgreenlandic" unicode="&#x138;" horiz-adv-x="482" 
d="M249 534l-74 -534h-187l74 534h187zM535 534l-133 -250l62 -284h-195l-52 282l131 252h187z" />
    <glyph glyph-name="Lacute" unicode="&#x139;" horiz-adv-x="428" 
d="M282 696l-76 -544h208l-43 -152h-381l98 696h194zM291 962l60 -131l-226 -88l-43 87z" />
    <glyph glyph-name="lacute" unicode="&#x13a;" horiz-adv-x="251" 
d="M191 156q-1 -4 -1 -10q0 -16 15 -16q5 0 13 2l11 -131q-47 -20 -101 -20q-63 0 -96 33t-33 92q0 16 3 34l84 604l187 19zM284 1010l60 -131l-226 -88l-43 87z" />
    <glyph glyph-name="Lcommaaccent" unicode="&#x13b;" horiz-adv-x="428" 
d="M282 696l-76 -544h208l-43 -152h-381l98 696h194zM234.5 -84q21.5 -21 21.5 -55q0 -25 -8 -46t-29 -57l-56 -97h-86l38 117q-30 21 -30 57q0 45 26.5 73.5t66.5 28.5q35 0 56.5 -21z" />
    <glyph glyph-name="lcommaaccent" unicode="&#x13c;" horiz-adv-x="251" 
d="M191 156q-1 -4 -1 -10q0 -16 15 -16q5 0 13 2l11 -131q-47 -20 -101 -20q-63 0 -96 33t-33 92q0 16 3 34l84 604l187 19zM158.5 -84q21.5 -21 21.5 -55q0 -25 -8 -46t-29 -57l-56 -97h-86l38 117q-30 21 -30 57q0 45 26.5 73.5t66.5 28.5q35 0 56.5 -21z" />
    <glyph glyph-name="Lcaron" unicode="&#x13d;" horiz-adv-x="428" 
d="M282 696l-76 -544h208l-43 -152h-381l98 696h194zM317 711l126 -16l-73 -231l-91 8z" />
    <glyph glyph-name="lcaron" unicode="&#x13e;" horiz-adv-x="351" 
d="M191 156q-1 -4 -1 -10q0 -16 15 -16q5 0 13 2l11 -131q-47 -20 -101 -20q-63 0 -96 33t-33 92q0 16 3 34l84 604l187 19zM310 759l126 -16l-73 -231l-91 8z" />
    <glyph glyph-name="Ldot" unicode="&#x13f;" horiz-adv-x="428" 
d="M282 696l-76 -544h208l-43 -152h-381l98 696h194zM276 324q-24 24 -24 64q0 51 33.5 84t82.5 33q44 0 68 -24t24 -64q0 -51 -33.5 -84t-82.5 -33q-44 0 -68 24z" />
    <glyph glyph-name="ldot" unicode="&#x140;" horiz-adv-x="453" 
d="M191 156q-1 -4 -1 -10q0 -16 15 -16q5 0 13 2l11 -131q-47 -20 -101 -20q-63 0 -96 33t-33 92q0 16 3 34l84 604l187 19zM274 295q-24 24 -24 64q0 51 33.5 84t82.5 33q44 0 68 -24t24 -64q0 -51 -33.5 -84t-82.5 -33q-44 0 -68 24z" />
    <glyph glyph-name="Lslash" unicode="&#x141;" horiz-adv-x="476" 
d="M254 152h208l-43 -152h-381l29 209l-25 -17l-46 89l90 58l50 357h194l-31 -219l80 51l46 -89l-144 -92z" />
    <glyph glyph-name="lslash" unicode="&#x142;" horiz-adv-x="317" 
d="M260 132l11 -131q-47 -20 -101 -20q-63 0 -96 33t-33 92q0 16 3 34l16 114l-37 -23l-29 102l84 53l50 358l187 19l-34 -251l43 27l26 -105l-87 -54l-30 -224q-1 -4 -1 -10q0 -16 15 -16q5 0 13 2z" />
    <glyph glyph-name="Nacute" unicode="&#x143;" horiz-adv-x="530" 
d="M464 0h-227l-45 533q4 -86 4 -132q0 -93 -12 -188l-26 -213h-167l97 696h228l43 -534q-3 71 -3 130q0 94 11 180l28 224h166zM428 962l60 -131l-226 -88l-43 87z" />
    <glyph glyph-name="nacute" unicode="&#x144;" horiz-adv-x="466" 
d="M440 522.5q26 -31.5 26 -88.5q0 -18 -3 -39l-56 -395h-186l49 358q1 5 1 13q0 12 -6 12q-7 0 -16.5 -17.5t-33.5 -71.5l-41 -294h-186l74 534h162l1 -77q62 97 142 97q47 0 73 -31.5zM372 844l60 -131l-226 -98l-46 87z" />
    <glyph glyph-name="Ncommaaccent" unicode="&#x145;" horiz-adv-x="530" 
d="M464 0h-227l-45 533q4 -86 4 -132q0 -93 -12 -188l-26 -213h-167l97 696h228l43 -534q-3 71 -3 130q0 94 11 180l28 224h166zM281.5 -84q21.5 -21 21.5 -55q0 -25 -8 -46t-29 -57l-56 -97h-86l38 117q-30 21 -30 57q0 45 26.5 73.5t66.5 28.5q35 0 56.5 -21z" />
    <glyph glyph-name="ncommaaccent" unicode="&#x146;" horiz-adv-x="466" 
d="M440 522.5q26 -31.5 26 -88.5q0 -18 -3 -39l-56 -395h-186l49 358q1 5 1 13q0 12 -6 12q-7 0 -16.5 -17.5t-33.5 -71.5l-41 -294h-186l74 534h162l1 -77q62 97 142 97q47 0 73 -31.5zM238.5 -84q21.5 -21 21.5 -55q0 -25 -8 -46t-29 -57l-56 -97h-86l38 117
q-30 21 -30 57q0 45 26.5 73.5t66.5 28.5q35 0 56.5 -21z" />
    <glyph glyph-name="Ncaron" unicode="&#x147;" horiz-adv-x="530" 
d="M464 0h-227l-45 533q4 -86 4 -132q0 -93 -12 -188l-26 -213h-167l97 696h228l43 -534q-3 71 -3 130q0 94 11 180l28 224h166zM461 958l65 -72l-142 -138h-110l-109 148l72 62l103 -87z" />
    <glyph glyph-name="ncaron" unicode="&#x148;" horiz-adv-x="466" 
d="M440 522.5q26 -31.5 26 -88.5q0 -18 -3 -39l-56 -395h-186l49 358q1 5 1 13q0 12 -6 12q-7 0 -16.5 -17.5t-33.5 -71.5l-41 -294h-186l74 534h162l1 -77q62 97 142 97q47 0 73 -31.5zM422 824l60 -72l-142 -148h-110l-99 148l67 72l98 -97z" />
    <glyph glyph-name="napostrophe" unicode="&#x149;" horiz-adv-x="586" 
d="M206 745.5q18 -17.5 18 -45.5q0 -20 -6.5 -37t-23.5 -48l-46 -80h-71l31 97q-24 16 -24 47q0 37 21.5 60.5t54.5 23.5q28 0 46 -17.5zM560 522q26 -32 26 -88q0 -18 -3 -39l-56 -395h-186l49 358q1 5 1 13q0 12 -6 12q-7 0 -16.5 -17.5t-33.5 -71.5l-41 -294h-186l74 534
h162l1 -77q62 97 142 97q47 0 73 -32z" />
    <glyph glyph-name="Eng" unicode="&#x14a;" horiz-adv-x="530" 
d="M561 696l-97 -696l-4 -31q-14 -95 -76 -145.5t-154 -50.5q-85 0 -135 46l77 111q15 -9 25 -12.5t23 -3.5q19 0 30.5 12t14.5 34l5 40h-33l-45 533q4 -86 4 -132q0 -93 -12 -188l-26 -213h-167l97 696h228l43 -534q-3 71 -3 130q0 94 11 180l28 224h166z" />
    <glyph glyph-name="eng" unicode="&#x14b;" horiz-adv-x="466" 
d="M440 522.5q26 -31.5 26 -88.5q0 -18 -3 -39l-56 -395l-5 -35q-14 -96 -73.5 -143.5t-150.5 -47.5q-45 0 -76.5 12.5t-56.5 33.5l74 106q17 -9 27.5 -13t25.5 -4q19 0 29.5 11t12.5 30l7 50l49 358q1 5 1 13q0 12 -6 12q-7 0 -16.5 -17.5t-33.5 -71.5l-41 -294h-186
l74 534h162l1 -77q62 97 142 97q47 0 73 -31.5z" />
    <glyph glyph-name="Omacron" unicode="&#x14c;" horiz-adv-x="581" 
d="M581 451q0 -130 -36 -236.5t-109.5 -170.5t-181.5 -64q-231 0 -231 266q0 130 35.5 236.5t109 170t181.5 63.5q232 0 232 -265zM270.5 513q-26.5 -62 -39 -149t-12.5 -162q0 -44 11.5 -63t35.5 -19q41 0 67.5 60t38.5 145.5t12 163.5q0 46 -11.5 66t-35.5 20
q-40 0 -66.5 -62zM491 775h-274l20 130h274z" />
    <glyph glyph-name="omacron" unicode="&#x14d;" horiz-adv-x="494" 
d="M63 34q-53 54 -53 162q0 99 31 180t93 129.5t150 48.5q94 0 147 -54.5t53 -162.5q0 -99 -31.5 -180t-93 -129t-149.5 -48q-94 0 -147 54zM264.5 157.5q16.5 41.5 24.5 100t8 109.5q0 28 -6.5 39t-20.5 11q-36 0 -54.5 -82.5t-18.5 -167.5q0 -28 6.5 -39.5t20.5 -11.5
q24 0 40.5 41.5zM433 649h-274l20 130h274z" />
    <glyph glyph-name="Obreve" unicode="&#x14e;" horiz-adv-x="581" 
d="M581 451q0 -130 -36 -236.5t-109.5 -170.5t-181.5 -64q-231 0 -231 266q0 130 35.5 236.5t109 170t181.5 63.5q232 0 232 -265zM270.5 513q-26.5 -62 -39 -149t-12.5 -162q0 -44 11.5 -63t35.5 -19q41 0 67.5 60t38.5 145.5t12 163.5q0 46 -11.5 66t-35.5 20
q-40 0 -66.5 -62zM253.5 792q-33.5 45 -33.5 113q0 16 1 24l93 15q1 -30 14 -49t39 -19q49 0 72 70l95 -19q-14 -79 -57.5 -129.5t-119.5 -50.5q-70 0 -103.5 45z" />
    <glyph glyph-name="obreve" unicode="&#x14f;" horiz-adv-x="494" 
d="M63 34q-53 54 -53 162q0 99 31 180t93 129.5t150 48.5q94 0 147 -54.5t53 -162.5q0 -99 -31.5 -180t-93 -129t-149.5 -48q-94 0 -147 54zM264.5 157.5q16.5 41.5 24.5 100t8 109.5q0 28 -6.5 39t-20.5 11q-36 0 -54.5 -82.5t-18.5 -167.5q0 -28 6.5 -39.5t20.5 -11.5
q24 0 40.5 41.5zM192 674q-35 47 -35 121q0 17 1 25l94 14q1 -36 14.5 -57t39.5 -21t45 21.5t30 58.5l90 -19q-15 -83 -58.5 -136.5t-115.5 -53.5q-70 0 -105 47z" />
    <glyph glyph-name="Ohungarumlaut" unicode="&#x150;" horiz-adv-x="581" 
d="M581 451q0 -130 -36 -236.5t-109.5 -170.5t-181.5 -64q-231 0 -231 266q0 130 35.5 236.5t109 170t181.5 63.5q232 0 232 -265zM270.5 513q-26.5 -62 -39 -149t-12.5 -162q0 -44 11.5 -63t35.5 -19q41 0 67.5 60t38.5 145.5t12 163.5q0 46 -11.5 66t-35.5 20
q-40 0 -66.5 -62zM333 1000l104 -55l-135 -194l-83 38zM494 1000l102 -60l-140 -193l-80 44z" />
    <glyph glyph-name="ohungarumlaut" unicode="&#x151;" horiz-adv-x="494" 
d="M63 34q-53 54 -53 162q0 99 31 180t93 129.5t150 48.5q94 0 147 -54.5t53 -162.5q0 -99 -31.5 -180t-93 -129t-149.5 -48q-94 0 -147 54zM264.5 157.5q16.5 41.5 24.5 100t8 109.5q0 28 -6.5 39t-20.5 11q-36 0 -54.5 -82.5t-18.5 -167.5q0 -28 6.5 -39.5t20.5 -11.5
q24 0 40.5 41.5zM274 874l104 -55l-135 -194l-83 38zM435 874l102 -60l-140 -193l-80 44z" />
    <glyph glyph-name="OE" unicode="&#x152;" horiz-adv-x="744" 
d="M758 559h-215q18 -46 18 -108q0 -21 -1 -31h161l-20 -134h-158q-18 -82 -60 -147h235l-23 -139h-359q-45 -20 -100 -20q-103 0 -158 67t-55 199q0 129 35 236t106.5 170.5t174.5 63.5q60 0 100 -20h360zM316.5 180q24.5 60 36 146t11.5 163q0 46 -8.5 66t-28.5 20
q-35 0 -59.5 -62t-36.5 -149.5t-12 -161.5q0 -44 9 -63t28 -19q36 0 60.5 60z" />
    <glyph glyph-name="oe" unicode="&#x153;" horiz-adv-x="747" 
d="M708.5 511.5q47.5 -42.5 45.5 -108.5q-4 -101 -85 -149.5t-200 -62.5v-14q0 -61 56 -61q26 0 50 11t58 35l61 -106q-41 -35 -91 -55.5t-107 -20.5q-91 0 -143 66q-64 -66 -156 -66q-84 0 -135.5 54t-51.5 162q0 98 31 179.5t91.5 130t146.5 48.5q46 0 80.5 -16t57.5 -52
q65 68 164 68q80 0 127.5 -42.5zM553.5 335.5q22.5 32.5 22.5 68.5q0 28 -24 28q-27 0 -45.5 -37t-27.5 -96q52 4 74.5 36.5zM264.5 157.5q16.5 41.5 24.5 100t8 109.5q0 28 -6.5 39t-20.5 11q-36 0 -54.5 -82.5t-18.5 -167.5q0 -28 6.5 -39.5t20.5 -11.5q24 0 40.5 41.5z
" />
    <glyph glyph-name="Racute" unicode="&#x154;" horiz-adv-x="518" 
d="M504 379.5q-30 -50.5 -93 -89.5l94 -290h-200l-67 251h-19l-35 -251h-194l98 696h198q248 0 248 -190q0 -76 -30 -126.5zM238 384h17q43 0 63 33.5t20 83.5q0 32 -14.5 46t-44.5 14h-16zM413 962l60 -131l-226 -88l-43 87z" />
    <glyph glyph-name="racute" unicode="&#x155;" horiz-adv-x="340" 
d="M391 542l-57 -182q-22 6 -37 6q-32 0 -53 -36.5t-38 -100.5l-32 -229h-186l74 534h159v-86q49 103 127 103q22 0 43 -9zM322 844l60 -131l-226 -98l-46 87z" />
    <glyph glyph-name="Rcommaaccent" unicode="&#x156;" horiz-adv-x="518" 
d="M504 379.5q-30 -50.5 -93 -89.5l94 -290h-200l-67 251h-19l-35 -251h-194l98 696h198q248 0 248 -190q0 -76 -30 -126.5zM238 384h17q43 0 63 33.5t20 83.5q0 32 -14.5 46t-44.5 14h-16zM296.5 -84q21.5 -21 21.5 -55q0 -25 -8 -46t-29 -57l-56 -97h-86l38 117
q-30 21 -30 57q0 45 26.5 73.5t66.5 28.5q35 0 56.5 -21z" />
    <glyph glyph-name="rcommaaccent" unicode="&#x157;" horiz-adv-x="340" 
d="M391 542l-57 -182q-22 6 -37 6q-32 0 -53 -36.5t-38 -100.5l-32 -229h-186l74 534h159v-86q49 103 127 103q22 0 43 -9zM121.5 -84q21.5 -21 21.5 -55q0 -25 -8 -46t-29 -57l-56 -97h-86l38 117q-30 21 -30 57q0 45 26.5 73.5t66.5 28.5q35 0 56.5 -21z" />
    <glyph glyph-name="Rcaron" unicode="&#x158;" horiz-adv-x="518" 
d="M504 379.5q-30 -50.5 -93 -89.5l94 -290h-200l-67 251h-19l-35 -251h-194l98 696h198q248 0 248 -190q0 -76 -30 -126.5zM238 384h17q43 0 63 33.5t20 83.5q0 32 -14.5 46t-44.5 14h-16zM446 958l65 -72l-142 -138h-110l-109 148l72 62l103 -87z" />
    <glyph glyph-name="rcaron" unicode="&#x159;" horiz-adv-x="340" 
d="M391 542l-57 -182q-22 6 -37 6q-32 0 -53 -36.5t-38 -100.5l-32 -229h-186l74 534h159v-86q49 103 127 103q22 0 43 -9zM372 824l60 -72l-142 -148h-110l-99 148l67 72l98 -97z" />
    <glyph glyph-name="Sacute" unicode="&#x15a;" horiz-adv-x="488" 
d="M431 692q52 -24 90 -71l-94 -98q-49 52 -109 52q-34 0 -52.5 -16.5t-18.5 -41.5t19 -42.5t79 -48.5q65 -34 96.5 -78t31.5 -114q0 -74 -35.5 -131.5t-98.5 -90t-142 -32.5q-148 0 -231 104l103 99q32 -31 61.5 -46t66.5 -15t58 20.5t21 53.5q0 32 -21 53t-78 50
q-67 34 -96.5 74.5t-29.5 106.5q0 71 33.5 124.5t92 82.5t131.5 29q71 0 123 -24zM413 962l60 -131l-226 -88l-43 87z" />
    <glyph glyph-name="sacute" unicode="&#x15b;" horiz-adv-x="408" 
d="M338 535.5q46 -18.5 78 -50.5l-78 -98q-47 35 -87 35q-20 0 -31.5 -9t-11.5 -24t16 -28.5t63 -36.5q51 -24 76.5 -57t25.5 -87q0 -60 -31 -105.5t-83 -70t-114 -24.5q-121 0 -200 84l96 95q52 -48 97 -48q23 0 35.5 10.5t12.5 29.5t-15.5 33.5t-56.5 33.5
q-55 25 -79.5 57t-24.5 86q0 56 27.5 100t76 68.5t109.5 24.5q53 0 99 -18.5zM335 844l60 -131l-226 -98l-46 87z" />
    <glyph glyph-name="Scircumflex" unicode="&#x15c;" horiz-adv-x="488" 
d="M431 692q52 -24 90 -71l-94 -98q-49 52 -109 52q-34 0 -52.5 -16.5t-18.5 -41.5t19 -42.5t79 -48.5q65 -34 96.5 -78t31.5 -114q0 -74 -35.5 -131.5t-98.5 -90t-142 -32.5q-148 0 -231 104l103 99q32 -31 61.5 -46t66.5 -15t58 20.5t21 53.5q0 32 -21 53t-78 50
q-67 34 -96.5 74.5t-29.5 106.5q0 71 33.5 124.5t92 82.5t131.5 29q71 0 123 -24zM203 756l-65 72l142 138h110l109 -148l-72 -62l-103 87z" />
    <glyph glyph-name="scircumflex" unicode="&#x15d;" horiz-adv-x="408" 
d="M338 535.5q46 -18.5 78 -50.5l-78 -98q-47 35 -87 35q-20 0 -31.5 -9t-11.5 -24t16 -28.5t63 -36.5q51 -24 76.5 -57t25.5 -87q0 -60 -31 -105.5t-83 -70t-114 -24.5q-121 0 -200 84l96 95q52 -48 97 -48q23 0 35.5 10.5t12.5 29.5t-15.5 33.5t-56.5 33.5
q-55 25 -79.5 57t-24.5 86q0 56 27.5 100t76 68.5t109.5 24.5q53 0 99 -18.5zM142 616l-60 72l142 148h110l108 -157l-76 -63l-98 97z" />
    <glyph glyph-name="Scedilla" unicode="&#x15e;" horiz-adv-x="488" 
d="M441.5 348q31.5 -44 31.5 -114q0 -98 -61.5 -166t-161.5 -84l-5 -33q81 -13 81 -87q0 -31 -15 -62t-51 -52.5t-95 -21.5q-32 0 -59.5 9.5t-45.5 24.5l51 77q25 -13 50 -13q17 0 27.5 7t10.5 22t-17 21t-56 6l25 101q-115 14 -185 101l103 99q32 -31 61.5 -46t66.5 -15
t58 20.5t21 53.5q0 32 -21 53t-78 50q-67 34 -96.5 74.5t-29.5 106.5q0 71 33.5 124.5t92 82.5t131.5 29q71 0 123 -24t90 -71l-94 -98q-49 52 -109 52q-34 0 -52.5 -16.5t-18.5 -41.5t19 -42.5t79 -48.5q65 -34 96.5 -78z" />
    <glyph glyph-name="scedilla" unicode="&#x15f;" horiz-adv-x="408" 
d="M363.5 267q25.5 -33 25.5 -87q0 -76 -49 -128t-125 -67l-5 -34q81 -13 81 -87q0 -31 -15 -62t-51 -52.5t-95 -21.5q-32 0 -59.5 9.5t-45.5 24.5l51 77q25 -13 50 -13q17 0 27.5 7t10.5 22t-17 21t-56 6l25 101q-91 13 -155 81l96 95q52 -48 97 -48q23 0 35.5 10.5
t12.5 29.5t-15.5 33.5t-56.5 33.5q-55 25 -79.5 57t-24.5 86q0 56 27.5 100t76 68.5t109.5 24.5q53 0 99 -18.5t78 -50.5l-78 -98q-47 35 -87 35q-20 0 -31.5 -9t-11.5 -24t16 -28.5t63 -36.5q51 -24 76.5 -57z" />
    <glyph glyph-name="Scaron" unicode="&#x160;" horiz-adv-x="488" 
d="M431 692q52 -24 90 -71l-94 -98q-49 52 -109 52q-34 0 -52.5 -16.5t-18.5 -41.5t19 -42.5t79 -48.5q65 -34 96.5 -78t31.5 -114q0 -74 -35.5 -131.5t-98.5 -90t-142 -32.5q-148 0 -231 104l103 99q32 -31 61.5 -46t66.5 -15t58 20.5t21 53.5q0 32 -21 53t-78 50
q-67 34 -96.5 74.5t-29.5 106.5q0 71 33.5 124.5t92 82.5t131.5 29q71 0 123 -24zM446 958l65 -72l-142 -138h-110l-109 148l72 62l103 -87z" />
    <glyph glyph-name="scaron" unicode="&#x161;" horiz-adv-x="408" 
d="M338 535.5q46 -18.5 78 -50.5l-78 -98q-47 35 -87 35q-20 0 -31.5 -9t-11.5 -24t16 -28.5t63 -36.5q51 -24 76.5 -57t25.5 -87q0 -60 -31 -105.5t-83 -70t-114 -24.5q-121 0 -200 84l96 95q52 -48 97 -48q23 0 35.5 10.5t12.5 29.5t-15.5 33.5t-56.5 33.5
q-55 25 -79.5 57t-24.5 86q0 56 27.5 100t76 68.5t109.5 24.5q53 0 99 -18.5zM385 824l60 -72l-142 -148h-110l-99 148l67 72l98 -97z" />
    <glyph glyph-name="uni0162" unicode="&#x162;" horiz-adv-x="457" 
d="M524 696l-41 -148h-118l-77 -548l-5 -44q37 -6 57.5 -29.5t20.5 -62.5q0 -31 -15 -62t-51.5 -52.5t-94.5 -21.5q-62 0 -105 34l51 81q26 -17 50 -17q38 0 38 30q0 14 -17.5 20t-55.5 6l29 118h-96l77 548h-132l21 148h464z" />
    <glyph glyph-name="uni0163" unicode="&#x163;" horiz-adv-x="333" 
d="M217 174q-1 -5 -1 -13q0 -32 26 -32q15 0 33 9l41 -117q-45 -31 -105 -39l-5 -31q81 -13 81 -87q0 -31 -15 -62t-51 -52.5t-95 -21.5q-32 0 -59.5 9.5t-45.5 24.5l51 77q25 -13 50 -13q17 0 27.5 7t10.5 22t-17 21t-56 6l26 108q-42 14 -64 50.5t-22 90.5q0 21 3 43
l32 231h-48l18 129h55l31 116l167 19l-19 -135h94l-40 -129h-71z" />
    <glyph glyph-name="Tcaron" unicode="&#x164;" horiz-adv-x="457" 
d="M524 696l-41 -148h-118l-77 -548h-194l77 548h-132l21 148h464zM428 958l65 -72l-142 -138h-110l-109 148l72 62l103 -87z" />
    <glyph glyph-name="tcaron" unicode="&#x165;" horiz-adv-x="333" 
d="M327 820l126 -16l-73 -231l-91 8zM266 534h94l-40 -129h-71l-32 -231q-1 -5 -1 -13q0 -32 26 -32q15 0 33 9l41 -117q-30 -20 -67 -30.5t-73 -10.5q-73 0 -111 40t-38 112q0 20 3 42l32 231h-48l18 129h55l31 116l167 19z" />
    <glyph glyph-name="Tbar" unicode="&#x166;" horiz-adv-x="457" 
d="M483 548h-118l-22 -157h86l-15 -103h-86l-40 -288h-194l40 288h-86l15 103h86l22 157h-132l21 148h464z" />
    <glyph glyph-name="tbar" unicode="&#x167;" horiz-adv-x="333" 
d="M249 405l-6 -42h76l-39 -120h-54l-9 -69q-1 -5 -1 -13q0 -32 26 -32q15 0 33 9l41 -117q-30 -20 -67 -30.5t-73 -10.5q-73 0 -111 40t-38 112q0 20 3 42l10 69h-41l18 120h39l6 42h-48l18 129h55l31 116l167 19l-19 -135h94l-40 -129h-71z" />
    <glyph glyph-name="Utilde" unicode="&#x168;" horiz-adv-x="524" 
d="M497 204q-14 -98 -83.5 -160.5t-184.5 -62.5q-110 0 -166 52.5t-56 137.5q0 20 3 39l68 486h194l-71 -511q-1 -6 -1 -17q0 -45 41 -45q50 0 59 64l71 509h195zM355 757.5q-12 6.5 -30 18.5q-2 2 -10 7.5t-14 8t-12 2.5q-13 0 -23 -10.5t-24 -33.5l-77 46q25 57 62 94
t74 37q19 0 33 -7t30 -20q9 -7 17.5 -12t16.5 -5q11 0 21 10t23 32l77 -43q-24 -57 -61.5 -94t-75.5 -37q-15 0 -27 6.5z" />
    <glyph glyph-name="utilde" unicode="&#x169;" 
d="M28 12.5q-27 32.5 -27 89.5q0 18 3 37l55 395h186l-50 -362l-1 -11q0 -14 8 -14q16 0 38 46l47 341h186l-75 -534h-162l2 67q-27 -41 -58.5 -64t-76.5 -23q-48 0 -75 32.5zM304 631.5q-12 6.5 -30 18.5q-2 2 -10 7.5t-14 8t-12 2.5q-13 0 -23 -10.5t-24 -33.5l-77 46
q25 57 62 94t74 37q19 0 33 -7t30 -20q9 -7 17.5 -12t16.5 -5q11 0 21 10t23 32l77 -43q-24 -57 -61.5 -94t-75.5 -37q-15 0 -27 6.5z" />
    <glyph glyph-name="Umacron" unicode="&#x16a;" horiz-adv-x="524" 
d="M497 204q-14 -98 -83.5 -160.5t-184.5 -62.5q-110 0 -166 52.5t-56 137.5q0 20 3 39l68 486h194l-71 -511q-1 -6 -1 -17q0 -45 41 -45q50 0 59 64l71 509h195zM465 775h-274l20 130h274z" />
    <glyph glyph-name="umacron" unicode="&#x16b;" 
d="M28 12.5q-27 32.5 -27 89.5q0 18 3 37l55 395h186l-50 -362l-1 -11q0 -14 8 -14q16 0 38 46l47 341h186l-75 -534h-162l2 67q-27 -41 -58.5 -64t-76.5 -23q-48 0 -75 32.5zM417 649h-274l20 130h274z" />
    <glyph glyph-name="Ubreve" unicode="&#x16c;" horiz-adv-x="524" 
d="M497 204q-14 -98 -83.5 -160.5t-184.5 -62.5q-110 0 -166 52.5t-56 137.5q0 20 3 39l68 486h194l-71 -511q-1 -6 -1 -17q0 -45 41 -45q50 0 59 64l71 509h195zM227.5 792q-33.5 45 -33.5 113q0 16 1 24l93 15q1 -30 14 -49t39 -19q49 0 72 70l95 -19
q-14 -79 -57.5 -129.5t-119.5 -50.5q-70 0 -103.5 45z" />
    <glyph glyph-name="ubreve" unicode="&#x16d;" 
d="M28 12.5q-27 32.5 -27 89.5q0 18 3 37l55 395h186l-50 -362l-1 -11q0 -14 8 -14q16 0 38 46l47 341h186l-75 -534h-162l2 67q-27 -41 -58.5 -64t-76.5 -23q-48 0 -75 32.5zM176 674q-35 47 -35 121q0 17 1 25l94 14q1 -36 14.5 -57t39.5 -21t45 21.5t30 58.5l90 -19
q-15 -83 -58.5 -136.5t-115.5 -53.5q-70 0 -105 47z" />
    <glyph glyph-name="Uring" unicode="&#x16e;" horiz-adv-x="524" 
d="M497 204q-14 -98 -83.5 -160.5t-184.5 -62.5q-110 0 -166 52.5t-56 137.5q0 20 3 39l68 486h194l-71 -511q-1 -6 -1 -17q0 -45 41 -45q50 0 59 64l71 509h195zM450 972.5q31 -34.5 31 -90.5q0 -44 -19 -80t-54 -57t-81 -21q-57 0 -88 34t-31 90q0 43 19 79.5t54 58
t81 21.5q57 0 88 -34.5zM321.5 896.5q-11.5 -18.5 -11.5 -42.5q0 -38 27 -38q19 0 30.5 18.5t11.5 42.5q0 38 -26 38q-20 0 -31.5 -18.5z" />
    <glyph glyph-name="uring" unicode="&#x16f;" 
d="M28 12.5q-27 32.5 -27 89.5q0 18 3 37l55 395h186l-50 -362l-1 -11q0 -14 8 -14q16 0 38 46l47 341h186l-75 -534h-162l2 67q-27 -41 -58.5 -64t-76.5 -23q-48 0 -75 32.5zM400 845.5q31 -34.5 31 -90.5q0 -44 -19 -80t-54 -57t-81 -21q-57 0 -88 34t-31 90q0 43 19 79.5
t54 58t81 21.5q57 0 88 -34.5zM271.5 769.5q-11.5 -18.5 -11.5 -42.5q0 -38 27 -38q19 0 30.5 18.5t11.5 42.5q0 38 -26 38q-20 0 -31.5 -18.5z" />
    <glyph glyph-name="Uhungarumlaut" unicode="&#x170;" horiz-adv-x="524" 
d="M497 204q-14 -98 -83.5 -160.5t-184.5 -62.5q-110 0 -166 52.5t-56 137.5q0 20 3 39l68 486h194l-71 -511q-1 -6 -1 -17q0 -45 41 -45q50 0 59 64l71 509h195zM307 1000l104 -55l-135 -194l-83 38zM468 1000l102 -60l-140 -193l-80 44z" />
    <glyph glyph-name="uhungarumlaut" unicode="&#x171;" 
d="M28 12.5q-27 32.5 -27 89.5q0 18 3 37l55 395h186l-50 -362l-1 -11q0 -14 8 -14q16 0 38 46l47 341h186l-75 -534h-162l2 67q-27 -41 -58.5 -64t-76.5 -23q-48 0 -75 32.5zM258 874l104 -55l-135 -194l-83 38zM419 874l102 -60l-140 -193l-80 44z" />
    <glyph glyph-name="Uogonek" unicode="&#x172;" horiz-adv-x="524" 
d="M566 696l-69 -492q-11 -75 -54.5 -130.5t-115.5 -78.5q-57 -25 -79 -52.5t-22 -52.5q0 -31 32 -31q24 0 53 8l-29 -111q-30 -8 -64 -8q-54 0 -88 27t-34 75q0 86 93 133q-90 9 -136 60t-46 127q0 19 3 40l68 486h194l-71 -511q-1 -6 -1 -17q0 -45 41 -45q50 0 59 64
l71 509h195z" />
    <glyph glyph-name="uogonek" unicode="&#x173;" 
d="M315.5 -54.5q-22.5 -29.5 -22.5 -54.5q0 -32 37 -32q18 0 46 5l-26 -108q-29 -8 -63 -8q-53 0 -87.5 31t-34.5 85q0 82 81 136h-10l2 67q-27 -41 -58.5 -64t-76.5 -23q-48 0 -75 32.5t-27 89.5q0 18 3 37l55 395h186l-50 -362l-1 -11q0 -14 8 -14q16 0 38 46l47 341h186
l-75 -534q-60 -25 -82.5 -54.5z" />
    <glyph glyph-name="Wcircumflex" unicode="&#x174;" horiz-adv-x="710" 
d="M770 696l-168 -696h-255l39 511l-103 -511h-253l30 696h190l-54 -552l123 552h194l-40 -552l110 552h187zM314 756l-65 72l142 138h110l109 -148l-72 -62l-103 87z" />
    <glyph glyph-name="wcircumflex" unicode="&#x175;" horiz-adv-x="643" 
d="M684 534l-155 -534h-205l9 364l-81 -364h-210l-7 534h187l-41 -390l98 390h169l-16 -390l73 390h179zM263 616l-60 72l142 148h110l108 -157l-76 -63l-98 97z" />
    <glyph glyph-name="Ycircumflex" unicode="&#x176;" horiz-adv-x="514" 
d="M592 696l-239 -439l-36 -257h-194l36 257l-117 439h204l33 -294l107 294h206zM210 756l-65 72l142 138h110l109 -148l-72 -62l-103 87z" />
    <glyph glyph-name="ycircumflex" unicode="&#x177;" horiz-adv-x="445" 
d="M298 0q-44 -117 -124 -169.5t-199 -57.5l-2 127q65 8 99 29t58 71h-66l-41 534h192l-17 -416l104 416h196zM164 616l-60 72l142 148h110l108 -157l-76 -63l-98 97z" />
    <glyph glyph-name="Ydieresis" unicode="&#x178;" horiz-adv-x="514" 
d="M592 696l-239 -439l-36 -257h-194l36 257l-117 439h204l33 -294l107 294h206zM158.5 782q-20.5 21 -20.5 56q0 43 29 72.5t70 29.5q38 0 58.5 -21t20.5 -56q0 -43 -29 -72.5t-71 -29.5q-37 0 -57.5 21zM370 782q-21 21 -21 56q0 43 29 72.5t70 29.5q37 0 58 -21t21 -56
q0 -43 -29 -72.5t-70 -29.5q-37 0 -58 21z" />
    <glyph glyph-name="Zacute" unicode="&#x179;" horiz-adv-x="457" 
d="M-35 0l21 145l279 401h-206l23 150h417l-22 -147l-279 -394h240l-43 -155h-430zM391 962l60 -131l-226 -88l-43 87z" />
    <glyph glyph-name="zacute" unicode="&#x17a;" horiz-adv-x="394" 
d="M418 534l-19 -131l-195 -262h169l-37 -141h-371l19 133l195 262h-146l21 139h364zM334 844l60 -131l-226 -98l-46 87z" />
    <glyph glyph-name="Zdotaccent" unicode="&#x17b;" horiz-adv-x="457" 
d="M-35 0l21 145l279 401h-206l23 150h417l-22 -147l-279 -394h240l-43 -155h-430zM230 770q-24 24 -24 64q0 51 33.5 84t82.5 33q44 0 68 -24t24 -64q0 -51 -33.5 -84t-82.5 -33q-44 0 -68 24z" />
    <glyph glyph-name="zdotaccent" unicode="&#x17c;" horiz-adv-x="394" 
d="M418 534l-19 -131l-195 -262h169l-37 -141h-371l19 133l195 262h-146l21 139h364zM185 644q-24 24 -24 64q0 51 33.5 84t82.5 33q44 0 68 -24t24 -64q0 -51 -33.5 -84t-82.5 -33q-44 0 -68 24z" />
    <glyph glyph-name="Zcaron" unicode="&#x17d;" horiz-adv-x="457" 
d="M-35 0l21 145l279 401h-206l23 150h417l-22 -147l-279 -394h240l-43 -155h-430zM424 958l65 -72l-142 -138h-110l-109 148l72 62l103 -87z" />
    <glyph glyph-name="zcaron" unicode="&#x17e;" horiz-adv-x="394" 
d="M418 534l-19 -131l-195 -262h169l-37 -141h-371l19 133l195 262h-146l21 139h364zM384 824l60 -72l-142 -148h-110l-99 148l67 72l98 -97z" />
    <glyph glyph-name="longs" unicode="&#x17f;" horiz-adv-x="316" 
d="M392.5 751q36.5 -13 61.5 -33l-65 -108q-28 17 -56 17q-24 0 -37.5 -16t-18.5 -53l-75 -558h-187l56 405h-52l18 129h51l5 35q12 87 68.5 141t150.5 54q44 0 80.5 -13z" />
    <glyph glyph-name="uni0180" unicode="&#x180;" horiz-adv-x="504" 
d="M463.5 508q32.5 -46 32.5 -132q0 -396 -295 -396q-45 0 -97.5 12.5t-103.5 33.5l79 567h-35l16 103h33l7 48l188 20l-9 -68h101l-30 -103h-86l-13 -96q21 26 52.5 41.5t66.5 15.5q61 0 93.5 -46zM287 193.5q20 78.5 20 168.5q0 33 -6 44t-17 11q-22 0 -49 -40l-35 -255
q16 -7 28 -7q39 0 59 78.5z" />
    <glyph glyph-name="uni0181" unicode="&#x181;" horiz-adv-x="682" 
d="M670 230q0 -114 -82.5 -172t-216.5 -58h-211l79 558h-25q-17 0 -26.5 -14t-9.5 -40q0 -20 6 -52l-126 -44q-9 27 -14 50t-5 52q0 56 24.5 98.5t67.5 65t98 22.5h215q115 0 180.5 -40.5t65.5 -117.5q0 -68 -40 -111t-102 -59q122 -27 122 -138zM476.5 449.5
q16.5 24.5 16.5 65.5q0 45 -48 45h-13l-19 -135h11q36 0 52.5 24.5zM453 169.5q21 29.5 21 72.5q0 29 -13 43t-44 14h-21l-22 -159h17q41 0 62 29.5z" />
    <glyph glyph-name="uni0182" unicode="&#x182;" horiz-adv-x="508" 
d="M440.5 406q59.5 -49 59.5 -141q0 -67 -28 -127.5t-89 -99t-153 -38.5h-239l97 696h399l-41 -147h-185l-13 -94h32q101 0 160.5 -49zM278 174.5q19 34.5 19 84.5q0 31 -10.5 46.5t-35.5 15.5h-22l-25 -181h17q38 0 57 34.5z" />
    <glyph glyph-name="uni0183" unicode="&#x183;" horiz-adv-x="496" 
d="M453.5 486.5q32.5 -47.5 32.5 -141.5q0 -365 -294 -365q-45 0 -97.5 12.5t-103.5 33.5l100 718h359l-41 -134h-152l-18 -133q21 26 53 41.5t68 15.5q61 0 93.5 -47.5zM263 152.5q18 37.5 26.5 89.5t8.5 95q0 36 -6 48t-18 12q-11 0 -24.5 -10t-26.5 -30l-32 -235
q16 -7 28 -7q26 0 44 37.5z" />
    <glyph glyph-name="uni0184" unicode="&#x184;" horiz-adv-x="529" 
d="M465 417q59 -50 59 -147q0 -70 -28 -131t-89 -100t-153 -39h-239l66 475l-59 56q67 62 128 165h156l-32 -229h30q102 0 161 -50zM302 175.5q19 35.5 19 88.5q0 36 -10 52.5t-36 16.5h-20l-27 -193h17q38 0 57 35.5z" />
    <glyph glyph-name="uni0185" unicode="&#x185;" horiz-adv-x="478" 
d="M466 201q0 -92 -59 -156t-191 -64q-51 0 -95 9t-92 28l41 305l-59 56q72 68 127 155h148l-23 -164q203 -2 203 -169zM270 129q12 29 12 76q0 49 -30 49h-5l-21 -153q5 -1 11 -1q21 0 33 29z" />
    <glyph glyph-name="uni0186" unicode="&#x186;" horiz-adv-x="488" 
d="M425.5 648q61.5 -68 61.5 -204q0 -132 -36.5 -236.5t-110 -165.5t-180.5 -61q-63 0 -111.5 27t-80.5 69l98 102q27 -25 47 -37t47 -12q45 0 74.5 52t42.5 126.5t13 145.5q0 67 -14.5 93t-45.5 26q-27 0 -49.5 -10.5t-49.5 -31.5l-79 105q91 80 204 80q108 0 169.5 -68z
" />
    <glyph glyph-name="uni0187" unicode="&#x187;" horiz-adv-x="490" 
d="M689 823l-64 -114q-24 15 -45 15q-17 0 -26 -14t-13 -43l-4 -33l-94 -96q-24 17 -44.5 26t-43.5 9q-46 0 -76 -51t-43 -127.5t-13 -154.5q0 -59 16.5 -85t50.5 -26q25 0 48.5 12.5t58.5 38.5l69 -106q-98 -94 -217 -94q-105 0 -165.5 68.5t-60.5 203.5q0 127 38 233
t106.5 168.5t156.5 62.5q38 0 68 -13l2 12q10 64 53.5 105t119.5 41q68 0 122 -38z" />
    <glyph glyph-name="uni0188" unicode="&#x188;" horiz-adv-x="400" 
d="M605 725l-63 -113q-26 14 -46 14q-17 0 -24 -12.5t-12 -44.5l-13 -86l-83 -95q-37 24 -70 24q-47 0 -68.5 -63.5t-21.5 -147.5q0 -45 12 -60.5t35 -15.5q15 0 31 6.5t39 20.5l64 -108q-75 -64 -170 -64q-96 0 -150 59.5t-54 164.5q0 100 32.5 180t90 125t129.5 45
q21 0 40 -6l11 69q12 70 53 108t114 38q72 0 124 -38z" />
    <glyph glyph-name="uni0189" unicode="&#x189;" horiz-adv-x="558" 
d="M485.5 642q71.5 -54 71.5 -197q0 -208 -85 -326.5t-266 -118.5h-208l42 297h-31l18 112h29l40 287h197q121 0 192.5 -54zM331.5 237.5q29.5 97.5 29.5 214.5q0 56 -15.5 80.5t-48.5 24.5h-27l-21 -148h87l-18 -112h-84l-22 -157h23q67 0 96.5 97.5z" />
    <glyph glyph-name="uni018A" unicode="&#x18a;" horiz-adv-x="719" 
d="M646.5 642q71.5 -54 71.5 -197q0 -208 -85 -326.5t-266 -118.5h-208l79 558h-24q-17 0 -26.5 -14t-9.5 -40q0 -20 6 -52l-126 -44q-9 27 -14 50t-5 52q0 56 24.5 98.5t67.5 65t98 22.5h225q121 0 192.5 -54zM492.5 237.5q29.5 97.5 29.5 214.5q0 56 -15.5 80.5
t-48.5 24.5h-27l-58 -417h23q67 0 96.5 97.5z" />
    <glyph glyph-name="uni018B" unicode="&#x18b;" horiz-adv-x="506" 
d="M440 0h-218q-109 0 -166 52.5t-57 146.5q0 82 34 139.5t94.5 86.5t138.5 29h43l14 95h-201l20 147h395zM266 140l25 181h-22q-33 0 -50 -30t-17 -82q0 -36 13 -52.5t40 -16.5h11z" />
    <glyph glyph-name="uni018C" unicode="&#x18c;" horiz-adv-x="494" 
d="M432 0h-165l2 56q-27 -38 -57 -57t-72 -19q-64 0 -99 49t-35 142q0 90 26 173.5t76 136.5t118 53q57 0 89 -43l16 119h-163l18 134h350zM299 378q-12 20 -30 20q-23 0 -39.5 -39t-25 -92t-8.5 -93q0 -35 6 -46.5t17 -11.5q22 0 49 47z" />
    <glyph glyph-name="uni018D" unicode="&#x18d;" horiz-adv-x="488" 
d="M60.5 -204q-44.5 22 -69.5 57l95 84q35 -38 75 -38q23 0 33.5 13t10.5 35q0 16 -10.5 28.5t-43.5 30.5q-75 41 -107.5 88.5t-32.5 123.5t27.5 153.5t88.5 129.5t155 52q62 0 107 -27.5t68 -74t23 -103.5q0 -97 -36.5 -169t-128.5 -116q34 -25 49 -55t15 -60
q0 -44 -24 -84t-71.5 -65t-115.5 -25q-63 0 -107.5 22zM280 217q12 56 12 133q0 35 -7 50.5t-22 15.5q-30 0 -47 -57t-17 -147q0 -35 7 -56t28 -40q34 45 46 101z" />
    <glyph glyph-name="uni018E" unicode="&#x18e;" horiz-adv-x="415" 
d="M66 696h380l-97 -696h-382l20 139h187l21 147h-155l20 134h154l19 139h-187z" />
    <glyph glyph-name="uni018F" unicode="&#x18f;" horiz-adv-x="531" 
d="M474.5 651.5q57.5 -64.5 57.5 -185.5q0 -143 -35.5 -252.5t-106 -171t-173.5 -61.5t-156.5 64t-53.5 176q0 95 31 194l300 -2q4 29 4 60q0 54 -15.5 78t-47.5 24t-58 -13.5t-54 -36.5l-68 101q50 46 101.5 68t116.5 22q100 0 157.5 -64.5zM281.5 156q21.5 35 37.5 126
h-127q-7 -44 -7 -76q0 -45 11 -65t32 -20q32 0 53.5 35z" />
    <glyph glyph-name="uni0190" unicode="&#x190;" horiz-adv-x="454" 
d="M421 691.5q46 -23.5 82 -72.5l-100 -92q-21 25 -41 37t-43 12q-29 0 -46 -23.5t-17 -62.5q0 -56 60 -56h54l-41 -137h-33q-49 0 -76.5 -27.5t-27.5 -78.5q0 -36 14 -52.5t42 -16.5q26 0 50 13t57 41l83 -97q-90 -98 -227 -98q-101 0 -159.5 50t-58.5 135q0 182 196 201
q-69 15 -98 49.5t-29 87.5q0 63 35 111t91 74t117 26q70 0 116 -23.5z" />
    <glyph glyph-name="uni0191" unicode="&#x191;" horiz-adv-x="397" 
d="M263 559l-22 -160h142l-22 -138h-140l-37 -261l-4 -31q-14 -95 -76 -145.5t-154 -50.5q-85 0 -135 46l77 111q15 -9 25 -12.5t23 -3.5q19 0 30.5 12t14.5 34l5 40l98 696h374l-43 -137h-156z" />
    <glyph glyph-name="florin" unicode="&#x192;" horiz-adv-x="316" 
d="M295.5 611q-13.5 -16 -18.5 -53l-3 -25h101l-42 -129h-77l-44 -331q-14 -94 -51 -152.5t-86.5 -89.5t-119.5 -57l-41 136q52 21 77.5 54t34.5 100l45 340h-54l20 129h51l5 36q12 87 68.5 141t150.5 54q44 0 80.5 -13t61.5 -33l-65 -108q-28 17 -56 17q-24 0 -37.5 -16z
" />
    <glyph glyph-name="uni0193" unicode="&#x193;" horiz-adv-x="527" 
d="M726 823l-64 -114q-24 15 -45 15q-17 0 -26 -14t-13 -43l-6 -42l-92 -88q-26 21 -52 30.5t-56 9.5q-81 0 -118 -110.5t-37 -253.5q0 -49 12.5 -70.5t37.5 -21.5q28 0 55 20l19 132h-48l1 134h246l-48 -349q-52 -37 -115.5 -57t-119.5 -20q-236 0 -236 263q0 128 40.5 236
t115.5 172t174 64q46 0 78 -16l2 15q11 65 54 105.5t119 40.5q68 0 122 -38z" />
    <glyph glyph-name="uni0194" unicode="&#x194;" horiz-adv-x="488" 
d="M312 95q20 -53 29.5 -86t9.5 -67q0 -82 -44.5 -125t-125.5 -43q-66 0 -99.5 33t-33.5 90q0 51 21 100.5t62 105.5l-91 593h197l8 -467l126 467h197zM211 7q-33 -60 -33 -93q0 -23 17 -23q26 0 26 46q0 31 -10 70z" />
    <glyph glyph-name="uni0195" unicode="&#x195;" horiz-adv-x="702" 
d="M285.5 27.5q-44.5 46.5 -44.5 113.5q0 9 2 27l26 190q1 5 1 13q0 12 -6 12q-7 0 -16.5 -17.5t-33.5 -71.5l-41 -294h-186l104 744l188 19l-41 -299q22 38 54.5 64t74.5 26q46 0 72 -32t26 -88q0 -18 -3 -39l-33 -237q-2 -14 -2 -19q0 -22 17 -22q38 0 56 106.5t18 223.5
q0 31 -2 87h175q5 -53 5 -88q0 -147 -20.5 -246.5t-81 -159t-174.5 -59.5q-90 0 -134.5 46.5z" />
    <glyph glyph-name="uni0196" unicode="&#x196;" horiz-adv-x="345" 
d="M326 24q-62 -43 -143 -43q-85 0 -131.5 42t-46.5 122q0 10 2 34l3 28l69 489h193l-68 -489l-5 -43q-2 -20 5.5 -31.5t24.5 -11.5q14 0 26 3.5t30 12.5z" />
    <glyph glyph-name="uni0197" unicode="&#x197;" horiz-adv-x="288" 
d="M311 432l-19 -144h-46l-41 -288h-194l41 288h-48l19 144h49l37 264h194l-37 -264h45z" />
    <glyph glyph-name="uni0198" unicode="&#x198;" horiz-adv-x="572" 
d="M241 371l122 226q35 65 74 91.5t98 26.5q63 0 105 -36l-57 -108q-14 7 -26 7q-24 0 -37 -26l-84 -175l102 -377h-209zM-10 0l98 696h194l-98 -696h-194z" />
    <glyph glyph-name="uni0199" unicode="&#x199;" horiz-adv-x="498" 
d="M490 327.5q-27 -42.5 -87 -84.5l57 -243h-192l-47 256q62 29 85.5 62t23.5 72q0 17 -6.5 25.5t-18.5 8.5q-35 0 -85 -79l-47 -345h-187l75 533l8 56q11 78 66.5 126t148.5 48q38 0 73.5 -10.5t61.5 -26.5l-66 -115q-34 15 -57 15q-19 0 -29.5 -13t-14.5 -41l-5 -39
l-6 -53q33 38 69 55.5t80 17.5q57 0 92 -34t35 -89q0 -60 -27 -102.5z" />
    <glyph glyph-name="uni019A" unicode="&#x19a;" horiz-adv-x="298" 
d="M223 156q-1 -4 -1 -10q0 -16 15 -16q5 0 13 2l11 -131q-47 -20 -101 -20q-63 0 -96 33t-33 92q0 16 3 34l23 167h-51l19 129h50l43 308l187 19l-44 -327h52l-19 -129h-51z" />
    <glyph glyph-name="uni019B" unicode="&#x19b;" horiz-adv-x="455" 
d="M408 186.5q12 -79.5 40 -148.5l-174 -56q-20 66 -28 141t-8 174v47l-80 -363l-192 45l197 458l72 -14q0 50 -7 79l-39 -38l-80 63l62 56q-25 11 -69 19l33 114q52 -10 87.5 -22.5t61.5 -34.5l78 62l48 -88l-60 -51l-6 -4q35 -79 44 -226q8 -133 20 -212.5z" />
    <glyph glyph-name="uni019C" unicode="&#x19c;" horiz-adv-x="733" 
d="M764 696l-97 -696h-171l-5 54q-35 -40 -64 -56.5t-65 -16.5q-39 0 -66.5 20t-39.5 55q-32 -39 -65.5 -57t-73.5 -18q-55 0 -86 39.5t-31 99.5q0 22 2 33l77 543h194l-75 -536q-1 -4 -1 -12q0 -24 15 -24q17 0 38 41l75 531h193l-74 -536q-1 -5 -1 -13q0 -23 14 -23
q9 0 19 11t19 32l75 529h194z" />
    <glyph glyph-name="uni019D" unicode="&#x19d;" horiz-adv-x="530" 
d="M561 696l-97 -696h-227l-45 533q4 -86 4 -132q0 -93 -12 -188l-26 -213l-6 -42q-12 -89 -64.5 -136.5t-139.5 -47.5q-44 0 -75 12t-57 34l77 103q15 -9 25 -12.5t24 -3.5q18 0 29.5 14t14.5 39l5 40l97 696h228l43 -534q-3 71 -3 130q0 94 11 180l28 224h166z" />
    <glyph glyph-name="uni019E" unicode="&#x19e;" horiz-adv-x="466" 
d="M440 522.5q26 -31.5 26 -88.5q0 -18 -3 -39l-87 -602l-190 -20l84 585q1 6 1 14q0 11 -6 11q-7 0 -16.5 -17.5t-33.5 -71.5l-41 -294h-186l74 534h162l1 -77q62 97 142 97q47 0 73 -31.5z" />
    <glyph glyph-name="uni019F" unicode="&#x19f;" horiz-adv-x="581" 
d="M581 451q0 -130 -36 -236.5t-109.5 -170.5t-181.5 -64q-231 0 -231 266q0 130 35.5 236.5t109 170t181.5 63.5q232 0 232 -265zM273 531q-28 -49 -44 -128h162q3 47 3 86q0 50 -12 70.5t-40 20.5q-41 0 -69 -49zM333 166q29 51 44 133h-163q-5 -44 -5 -97q0 -48 12 -67.5
t40 -19.5q43 0 72 51z" />
    <glyph glyph-name="Ohorn" unicode="&#x1a0;" horiz-adv-x="622" 
d="M660.5 603q-31.5 -41 -89.5 -53q10 -41 10 -99q0 -130 -36 -236.5t-109.5 -170.5t-181.5 -64q-231 0 -231 266q0 130 35.5 236.5t109 170t181.5 63.5q129 0 186 -82q21 5 30.5 24.5t9.5 53.5q0 26 -3 47l115 13q5 -27 5 -58q0 -70 -31.5 -111zM333.5 180
q26.5 60 38.5 145.5t12 163.5q0 46 -11.5 66t-35.5 20q-40 0 -66.5 -62t-39 -149t-12.5 -162q0 -44 11.5 -63t35.5 -19q41 0 67.5 60z" />
    <glyph glyph-name="ohorn" unicode="&#x1a1;" horiz-adv-x="552" 
d="M568.5 441q-30.5 -40 -88.5 -51q4 -21 4 -53q0 -99 -31.5 -180t-93 -129t-149.5 -48q-94 0 -147 54t-53 162q0 99 31 180t93 129.5t150 48.5q117 0 167 -81q33 14 33 77q0 26 -3 47l113 13q5 -27 5 -58q0 -71 -30.5 -111zM264.5 157.5q16.5 41.5 24.5 100t8 109.5
q0 28 -6.5 39t-20.5 11q-36 0 -54.5 -82.5t-18.5 -167.5q0 -28 6.5 -39.5t20.5 -11.5q24 0 40.5 41.5z" />
    <glyph glyph-name="uni01A2" unicode="&#x1a2;" horiz-adv-x="822" 
d="M786 674q47 -41 47 -113q0 -16 -3 -34l-104 -742h-193l104 751l1 11q0 33 -29 33q-22 0 -44 -16q16 -53 16 -113q0 -130 -36 -236.5t-109.5 -170.5t-181.5 -64q-231 0 -231 266q0 130 35.5 236.5t109 170t181.5 63.5q92 0 152 -52q68 51 157 51q81 0 128 -41zM333.5 180
q26.5 60 38.5 145.5t12 163.5q0 46 -11.5 66t-35.5 20q-40 0 -66.5 -62t-39 -149t-12.5 -162q0 -44 11.5 -63t35.5 -19q41 0 67.5 60z" />
    <glyph glyph-name="uni01A3" unicode="&#x1a3;" horiz-adv-x="708" 
d="M657 511.5q42 -42.5 42 -116.5q0 -20 -3 -41l-76 -562l-188 -19l83 608q1 4 1 11q0 27 -23 27q-12 0 -24 -4q9 -34 9 -78q0 -99 -31 -180t-92.5 -129t-147.5 -48q-92 0 -144.5 54t-52.5 162q0 98 31 179.5t92 130t148 48.5q71 0 119 -33q35 17 66.5 25t72.5 8
q76 0 118 -42.5zM272.5 199.5q18.5 83.5 18.5 167.5q0 27 -6 38.5t-18 11.5q-34 0 -52 -82.5t-18 -167.5q0 -28 6 -39.5t18 -11.5q33 0 51.5 83.5z" />
    <glyph glyph-name="uni01A4" unicode="&#x1a4;" horiz-adv-x="674" 
d="M636 646q62 -50 62 -147q0 -83 -34.5 -146t-98.5 -98t-151 -35h-30l-31 -220h-194l79 558h-24q-17 0 -26.5 -14t-9.5 -40q0 -20 6 -52l-126 -44q-9 27 -14 50t-5 52q0 56 24.5 98.5t67.5 65t98 22.5h226q119 0 181 -50zM480.5 396.5q20.5 37.5 20.5 99.5q0 34 -13 48.5
t-43 14.5h-14l-28 -200h9q48 0 68.5 37.5z" />
    <glyph glyph-name="uni01A5" unicode="&#x1a5;" horiz-adv-x="493" 
d="M453.5 508q32.5 -46 32.5 -132q0 -179 -63 -287.5t-187 -108.5q-33 0 -65 8l-28 -196l-188 -19l106 760l8 56q11 78 66.5 126t148.5 48q38 0 73.5 -10.5t61.5 -26.5l-66 -115q-34 15 -57 15q-19 0 -29.5 -13t-14.5 -41l-5 -39l-5 -42q24 31 52 47t66 16q61 0 93.5 -46z
M263 157q18 43 26.5 102t8.5 108q0 30 -6.5 40t-17.5 10q-22 0 -48 -39l-37 -257q15 -7 28 -7q28 0 46 43z" />
    <glyph glyph-name="uni01A6" unicode="&#x1a6;" horiz-adv-x="518" 
d="M489 268.5q-30 -50.5 -93 -89.5l94 -290h-200l-67 251h-18l-19 -140h-194l81 585h1l15 111h194l-15 -111h3q248 0 248 -190q0 -76 -30 -126.5zM224 273h16q43 0 63 33.5t20 83.5q0 32 -14.5 46t-44.5 14h-15z" />
    <glyph glyph-name="uni01A7" unicode="&#x1a7;" horiz-adv-x="472" 
d="M459.5 668q52.5 -47 52.5 -126q0 -66 -25 -111.5t-72 -77t-122 -60.5q-51 -20 -73.5 -47.5t-22.5 -68.5q0 -25 10.5 -38t36.5 -13q58 0 133 61l77 -104q-45 -46 -108 -74t-142 -28q-97 0 -152 51t-55 135q0 102 51.5 162.5t151.5 96.5q47 17 71.5 31.5t33.5 31t9 41.5
q0 21 -11.5 32.5t-32.5 11.5q-59 0 -125 -53l-65 101q104 93 239 93q88 0 140.5 -47z" />
    <glyph glyph-name="uni01A8" unicode="&#x1a8;" horiz-adv-x="403" 
d="M365 513.5q47 -40.5 47 -106.5q0 -63 -36.5 -107.5t-115.5 -79.5q-47 -21 -63 -37t-16 -38q0 -33 33 -33q20 0 48.5 14t55.5 35l71 -98q-41 -38 -98.5 -60t-113.5 -22q-89 0 -139.5 42t-50.5 113q0 65 34.5 111t125.5 83q51 20 67 33t16 34q0 12 -7.5 18.5t-20.5 6.5
q-19 0 -44.5 -10t-47.5 -26l-50 100q36 32 84.5 50t97.5 18q76 0 123 -40.5z" />
    <glyph glyph-name="uni01A9" unicode="&#x1a9;" horiz-adv-x="416" 
d="M468 696l-20 -139h-207l94 -185l-9 -68l-131 -161h199l-21 -143h-402l21 139l166 212l-112 206l20 139h402z" />
    <glyph glyph-name="uni01AA" unicode="&#x1aa;" horiz-adv-x="421" 
d="M483 -183q-64 -43 -145 -43q-80 0 -125 42t-45 121q0 11 2 35l3 28l56 404q-30 -14 -64 -14q-54 0 -88.5 45t-34.5 115q0 63 26 111t75 75t114 27q84 0 132 -48t48 -134q0 -20 -3 -43l-75 -538l-6 -47l-1 -10q0 -16 9 -25t25 -9q15 0 25.5 3.5t26.5 11.5zM245 520l10 70
q1 7 1 17q0 28 -21 28q-22 0 -31 -23.5t-9 -56.5q0 -38 29 -38q11 0 21 3z" />
    <glyph glyph-name="uni01AB" unicode="&#x1ab;" horiz-adv-x="332" 
d="M214 163q-1 -4 -1 -11q0 -16 7.5 -24.5t20.5 -8.5q16 0 35 8l39 -106l-10 -70q-12 -86 -68 -131.5t-147 -45.5q-88 0 -141 46l74 105q32 -19 67 -19q26 0 40 14.5t18 45.5l2 15q-61 7 -92.5 46.5t-31.5 104.5q0 20 3 42l32 231h-48l20 129h53l31 116l167 19l-19 -135h94
l-40 -129h-72z" />
    <glyph glyph-name="uni01AC" unicode="&#x1ac;" horiz-adv-x="521" 
d="M547 548h-118l-77 -548h-194l77 548h-21q-36 0 -36 -44q0 -20 6 -52l-126 -44q-9 27 -14 50t-5 52q0 56 24.5 98.5t67.5 65t98 22.5h359z" />
    <glyph glyph-name="uni01AD" unicode="&#x1ad;" horiz-adv-x="332" 
d="M264 534h95l-40 -129h-72l-31 -231q-1 -5 -1 -13q0 -32 26 -32q15 0 33 9l41 -117q-30 -20 -67 -30.5t-73 -10.5q-73 0 -111 40t-38 112q0 20 3 42l31 231h-47l20 129h44l6 44q11 90 63 137.5t141 47.5q38 0 70 -10.5t54 -27.5l-64 -102q-23 12 -41 12q-29 0 -34 -36z
" />
    <glyph glyph-name="uni01AE" unicode="&#x1ae;" horiz-adv-x="457" 
d="M283 -43q-2 -20 5.5 -31.5t24.5 -11.5q14 0 26 3.5t30 12.5l41 -113q-62 -43 -143 -43q-85 0 -131.5 42t-46.5 122q0 10 2 34l3 28l77 548h-132l21 148h464l-41 -148h-118l-77 -548z" />
    <glyph glyph-name="Uhorn" unicode="&#x1af;" horiz-adv-x="637" 
d="M664 590q-43 -42 -119 -44l-48 -342q-14 -98 -83.5 -160.5t-184.5 -62.5q-110 0 -166 52.5t-56 137.5q0 20 3 39l68 486h194l-71 -511q-1 -6 -1 -17q0 -45 41 -45q50 0 59 64l71 509h195l-8 -59q17 7 24.5 25.5t7.5 49.5q0 26 -3 47l115 13q5 -27 5 -58q0 -82 -43 -124z
" />
    <glyph glyph-name="uhorn" unicode="&#x1b0;" horiz-adv-x="569" 
d="M573 427.5q-43 -41.5 -121 -41.5l-54 -386h-162l2 67q-27 -41 -58.5 -64t-76.5 -23q-48 0 -75 32.5t-27 89.5q0 18 3 37l55 395h186l-50 -362l-1 -11q0 -14 8 -14q16 0 38 46l47 341h186l-9 -63q37 13 37 79q0 26 -3 47l113 13q5 -27 5 -58q0 -83 -43 -124.5z" />
    <glyph glyph-name="uni01B1" unicode="&#x1b1;" horiz-adv-x="574" 
d="M76.5 53q-59.5 73 -59.5 189q0 110 39 188.5t122 129.5h-105l20 136h237l-19 -127q-48 -28 -72.5 -135.5t-24.5 -224.5q0 -48 11 -68t35 -20q42 0 69.5 55t40.5 136t13 160q0 37 -9 58.5t-30 38.5l19 127h237l-20 -137h-104q92 -66 92 -193q0 -110 -40 -197.5t-113 -138
t-168 -50.5q-111 0 -170.5 73z" />
    <glyph glyph-name="uni01B2" unicode="&#x1b2;" horiz-adv-x="526" 
d="M546 582q0 -14 -4 -48l-38 -278q-18 -133 -94.5 -204t-197.5 -71q-97 0 -151.5 51.5t-54.5 134.5q0 18 3 36l70 493h194l-71 -508q-2 -16 -2 -22q0 -43 32 -43q26 0 47 30.5t30 98.5l42 307v6q0 16 -14 16q-7 0 -13 -2l-4 120q45 17 94 17q132 0 132 -134z" />
    <glyph glyph-name="uni01B3" unicode="&#x1b3;" horiz-adv-x="534" 
d="M159 257l-117 440h204l31 -295l54 175q22 72 63.5 105.5t110.5 33.5q64 0 114 -38l-62 -109q-16 9 -30 9q-12 0 -20 -6.5t-15 -22.5l-139 -292l-36 -257h-194z" />
    <glyph glyph-name="uni01B4" unicode="&#x1b4;" horiz-adv-x="453" 
d="M-27 -100q65 8 99 29t58 71h-66l-41 534h192l-17 -416l74 321q14 76 54 111.5t110 35.5q24 0 41.5 -3.5t38.5 -11.5l-44 -124q-8 4 -19 4t-17 -6.5t-11 -23.5l-124 -412q-38 -123 -120.5 -177t-205.5 -59z" />
    <glyph glyph-name="uni01B5" unicode="&#x1b5;" horiz-adv-x="457" 
d="M499 696l-22 -147l-111 -148h57l-16 -115h-127l-98 -131h256l-43 -155h-430l21 145l104 141h-58l16 115h126l107 145h-222l23 150h417z" />
    <glyph glyph-name="uni01B6" unicode="&#x1b6;" horiz-adv-x="392" 
d="M418 534l-17 -121l-72 -90h46l-17 -101h-111l-73 -91h196l-34 -131h-371l18 123l80 99h-50l16 101h116l66 82h-176l19 129h364z" />
    <glyph glyph-name="uni01B7" unicode="&#x1b7;" horiz-adv-x="470" 
d="M466 562l-145 -157q67 -7 103.5 -48.5t36.5 -112.5q0 -82 -37.5 -141.5t-100 -90.5t-136.5 -31q-78 0 -127 28t-82 81l110 89q25 -30 46.5 -43t50.5 -13q32 0 55 30.5t23 78.5q0 34 -17.5 50t-45.5 16h-90l16 104l138 155h-185l22 139h386z" />
    <glyph glyph-name="uni01B8" unicode="&#x1b8;" horiz-adv-x="473" 
d="M466 557h-195l112 -157l-17 -101l1 -1h-80q-91 0 -91 -108q0 -67 50 -67q26 0 52.5 15t61.5 46l85 -96q-44 -52 -99.5 -79.5t-130.5 -27.5q-105 0 -163 54t-58 148q0 61 26 109.5t72.5 78t104.5 34.5l-115 157l21 134h385z" />
    <glyph glyph-name="uni01B9" unicode="&#x1b9;" horiz-adv-x="439" 
d="M433 396h-195l108 -185l-16 -100l-2 1l1 -1h-86q-38 0 -61.5 -30.5t-23.5 -84.5q0 -79 58 -79q25 0 50 13t59 44l79 -95q-87 -105 -225 -105q-99 0 -156 57.5t-57 150.5q0 98 55 160t156 73l-122 192l19 127h380z" />
    <glyph glyph-name="uni01BA" unicode="&#x1ba;" horiz-adv-x="437" 
d="M7.5 -168q-35.5 36 -35.5 84q0 64 40.5 99t119.5 59q50 15 69 31.5t19 42.5q0 18 -12 25.5t-42 7.5h-92l15 95l128 129h-188l20 129h382l-18 -118l-138 -136h5q59 0 94 -33t35 -92q0 -83 -49.5 -128.5t-135.5 -69.5q-40 -11 -59 -19.5t-25 -16t-6 -18.5q0 -16 16 -31
l-48 -98q-59 22 -94.5 58z" />
    <glyph glyph-name="uni01BB" unicode="&#x1bb;" horiz-adv-x="437" 
d="M383 351h42l-15 -115h-126q-28 -29 -95 -94l217 1l-39 -143h-393l16 132q39 40 99 104h-54l16 115h136q34 46 51.5 84.5t17.5 72.5q0 45 -39 45q-21 0 -43.5 -15t-53.5 -48l-94 83q93 123 228 123q93 0 143 -49t50 -125q0 -82 -64 -171z" />
    <glyph glyph-name="uni01BC" unicode="&#x1bc;" horiz-adv-x="468" 
d="M51.5 9.5q-45.5 29.5 -76.5 81.5l110 87q20 -29 39 -43.5t48 -14.5q47 0 68 47t21 112q0 32 -10.5 44.5t-30.5 12.5q-14 0 -27.5 -5.5t-31.5 -18.5h-119l54 384h382l-38 -133h-191l-18 -124q25 14 45 19t42 5q59 0 95 -44t36 -129q0 -93 -35 -163t-99.5 -108.5
t-149.5 -38.5q-68 0 -113.5 29.5z" />
    <glyph glyph-name="uni01BD" unicode="&#x1bd;" horiz-adv-x="416" 
d="M366 405h-147l-10 -73q32 15 67 15q49 0 81.5 -36.5t32.5 -103.5q0 -73 -32 -124t-84.5 -76.5t-114.5 -25.5t-104 22t-78 64l106 95q21 -22 38.5 -33t39.5 -11q23 0 34.5 20t11.5 54q0 36 -23 36q-15 0 -33 -11h-116l44 317h330z" />
    <glyph glyph-name="uni01BE" unicode="&#x1be;" horiz-adv-x="427" 
d="M389.5 366q20.5 -36 20.5 -95q0 -86 -32.5 -152t-91 -102t-133.5 -36q-122 0 -195 96l100 88q22 -25 40.5 -36t40.5 -11q38 0 59 39.5t21 107.5q0 47 -17 73.5t-57 39.5l-30 10l19 134h-50l15 103h49l17 119l187 19l-19 -138h76l-15 -103h-76l-12 -87l23 -12
q40 -21 60.5 -57z" />
    <glyph glyph-name="uni01BF" unicode="&#x1bf;" horiz-adv-x="497" 
d="M458.5 509.5q36.5 -44.5 36.5 -123.5q0 -93 -33 -160.5t-84.5 -112t-124.5 -84.5l-82 -45l-27 -191l-188 -19l106 760h166v-51q31 35 63 53t71 18q60 0 96.5 -44.5zM283 239q22 56 22 132q0 50 -29 50q-22 0 -48 -31l-38 -266l22 18q49 41 71 97z" />
    <glyph glyph-name="uni01C0" unicode="&#x1c0;" horiz-adv-x="214" 
d="M255 760l-110 -760h-155l105 744z" />
    <glyph glyph-name="uni01C1" unicode="&#x1c1;" horiz-adv-x="426" 
d="M255 760l-110 -760h-155l105 744zM467 760l-110 -760h-155l105 744z" />
    <glyph glyph-name="uni01C2" unicode="&#x1c2;" horiz-adv-x="289" 
d="M308 392h-64l-7 -47h64l-14 -102h-65l-35 -243h-155l34 243h-69l14 102h70l6 47h-68l15 102h68l35 250l160 16l-38 -266h63z" />
    <glyph glyph-name="uni01C3" unicode="&#x1c3;" horiz-adv-x="249" 
d="M272 760l-73 -513h-156l70 497zM24 5.5q-23 25.5 -23 62.5q0 48 31 80.5t78 32.5q39 0 62 -25.5t23 -63.5q0 -48 -31 -80t-78 -32q-39 0 -62 25.5z" />
    <glyph glyph-name="uni01C4" unicode="&#x1c4;" horiz-adv-x="982" 
d="M477.5 642q71.5 -54 71.5 -197q0 -208 -85 -326.5t-266 -118.5h-208l98 696h197q121 0 192.5 -54zM262 557l-58 -417h23q67 0 96.5 97.5t29.5 214.5q0 56 -15.5 80.5t-48.5 24.5h-27zM490 0l21 145l279 401h-206l23 150h417l-22 -147l-279 -394h240l-43 -155h-430z
M949 958l65 -72l-142 -138h-110l-109 148l72 62l103 -87z" />
    <glyph glyph-name="uni01C5" unicode="&#x1c5;" horiz-adv-x="934" 
d="M477.5 642q71.5 -54 71.5 -197q0 -208 -85 -326.5t-266 -118.5h-208l98 696h197q121 0 192.5 -54zM262 557l-58 -417h23q67 0 96.5 97.5t29.5 214.5q0 56 -15.5 80.5t-48.5 24.5h-27zM958 534l-19 -131l-195 -262h169l-37 -141h-371l19 133l195 262h-146l21 139h364z
M924 824l60 -72l-142 -148h-110l-99 148l67 72l98 -97z" />
    <glyph glyph-name="uni01C6" unicode="&#x1c6;" horiz-adv-x="889" 
d="M537 744l-104 -744h-165l2 56q-27 -38 -57 -57t-72 -19q-64 0 -99 49t-35 142q0 99 26.5 187t76.5 142t119 54q57 0 89 -43l35 252zM232 378q-17 -40 -26 -97.5t-9 -106.5q0 -35 6 -46.5t17 -11.5q22 0 49 47l33 235q-12 20 -30 20q-23 0 -40 -40zM913 534l-19 -131
l-195 -262h169l-37 -141h-371l19 133l195 262h-146l21 139h364zM879 824l60 -72l-142 -148h-110l-99 148l67 72l98 -97z" />
    <glyph glyph-name="uni01C7" unicode="&#x1c7;" horiz-adv-x="681" 
d="M282 696l-76 -544h208l-43 -152h-381l98 696h194zM631 104q-13 -92 -51 -149t-88.5 -86.5t-121.5 -53.5l-32 136q50 24 70.5 60.5t30.5 106.5l81 578h194z" />
    <glyph glyph-name="uni01C8" unicode="&#x1c8;" horiz-adv-x="648" 
d="M282 696l-76 -544h208l-43 -152h-381l98 696h194zM299 -90q52 21 77 53.5t34 99.5l65 471h187l-65 -461q-14 -94 -51 -152.5t-86.5 -89.5t-119.5 -57zM517 644q-24 24 -24 64q0 51 33.5 84t82.5 33q44 0 68 -24t24 -64q0 -51 -33.5 -84t-82.5 -33q-44 0 -68 24z" />
    <glyph glyph-name="uni01C9" unicode="&#x1c9;" horiz-adv-x="486" 
d="M191 156q-1 -4 -1 -10q0 -16 15 -16q5 0 13 2l11 -131q-47 -20 -101 -20q-63 0 -96 33t-33 92q0 16 3 34l84 604l187 19zM137 -90q52 21 77 53.5t34 99.5l65 471h187l-65 -461q-14 -94 -51 -152.5t-86.5 -89.5t-119.5 -57zM355 644q-24 24 -24 64q0 51 33.5 84t82.5 33
q44 0 68 -24t24 -64q0 -51 -33.5 -84t-82.5 -33q-44 0 -68 24z" />
    <glyph glyph-name="uni01CA" unicode="&#x1ca;" horiz-adv-x="808" 
d="M464 0h-227l-45 533q4 -86 4 -132q0 -93 -12 -188l-26 -213h-167l97 696h228l43 -534q-3 71 -3 130q0 94 11 180l28 224h166zM758 104q-13 -92 -51 -149t-88.5 -86.5t-121.5 -53.5l-32 136q50 24 70.5 60.5t30.5 106.5l81 578h194z" />
    <glyph glyph-name="uni01CB" unicode="&#x1cb;" horiz-adv-x="765" 
d="M464 0h-227l-45 533q4 -86 4 -132q0 -93 -12 -188l-26 -213h-167l97 696h228l43 -534q-3 71 -3 130q0 94 11 180l28 224h166zM416 -90q52 21 77 53.5t34 99.5l65 471h187l-65 -461q-14 -94 -51 -152.5t-86.5 -89.5t-119.5 -57zM634 644q-24 24 -24 64q0 51 33.5 84
t82.5 33q44 0 68 -24t24 -64q0 -51 -33.5 -84t-82.5 -33q-44 0 -68 24z" />
    <glyph glyph-name="uni01CC" unicode="&#x1cc;" horiz-adv-x="701" 
d="M440 522.5q26 -31.5 26 -88.5q0 -18 -3 -39l-56 -395h-186l49 358q1 5 1 13q0 12 -6 12q-7 0 -16.5 -17.5t-33.5 -71.5l-41 -294h-186l74 534h162l1 -77q62 97 142 97q47 0 73 -31.5zM352 -90q52 21 77 53.5t34 99.5l65 471h187l-65 -461q-14 -94 -51 -152.5t-86.5 -89.5
t-119.5 -57zM570 644q-24 24 -24 64q0 51 33.5 84t82.5 33q44 0 68 -24t24 -64q0 -51 -33.5 -84t-82.5 -33q-44 0 -68 24z" />
    <glyph glyph-name="uni01CD" unicode="&#x1cd;" horiz-adv-x="506" 
d="M488 0h-198v138h-111l-36 -138h-201l255 696h231zM214 276h76v294zM452 958l65 -72l-142 -138h-110l-109 148l72 62l103 -87z" />
    <glyph glyph-name="uni01CE" unicode="&#x1ce;" horiz-adv-x="483" 
d="M493 499l-47 -331q-3 -16 -3 -28q0 -13 4.5 -21t14.5 -13l-57 -122q-45 4 -79.5 22.5t-48.5 51.5q-28 -39 -59 -58.5t-74 -19.5q-67 0 -102 51t-35 141q0 104 29 190t94 139t168 53q101 0 195 -55zM216 345.5q-22 -77.5 -22 -178.5q0 -28 5 -39t16 -11t22 12.5t24 34.5
l36 256q-9 3 -18 3q-41 0 -63 -77.5zM450 824l60 -72l-142 -148h-110l-99 148l67 72l98 -97z" />
    <glyph glyph-name="uni01CF" unicode="&#x1cf;" horiz-adv-x="250" 
d="M282 696l-98 -696h-194l98 696h194zM324 958l65 -72l-142 -138h-110l-109 148l72 62l103 -87z" />
    <glyph glyph-name="uni01D0" unicode="&#x1d0;" horiz-adv-x="236" 
d="M248 534l-74 -534h-186l74 534h186zM302 824l60 -72l-142 -148h-110l-99 148l67 72l98 -97z" />
    <glyph glyph-name="uni01D1" unicode="&#x1d1;" horiz-adv-x="581" 
d="M581 451q0 -130 -36 -236.5t-109.5 -170.5t-181.5 -64q-231 0 -231 266q0 130 35.5 236.5t109 170t181.5 63.5q232 0 232 -265zM270.5 513q-26.5 -62 -39 -149t-12.5 -162q0 -44 11.5 -63t35.5 -19q41 0 67.5 60t38.5 145.5t12 163.5q0 46 -11.5 66t-35.5 20
q-40 0 -66.5 -62zM486 958l65 -72l-142 -138h-110l-109 148l72 62l103 -87z" />
    <glyph glyph-name="uni01D2" unicode="&#x1d2;" horiz-adv-x="494" 
d="M63 34q-53 54 -53 162q0 99 31 180t93 129.5t150 48.5q94 0 147 -54.5t53 -162.5q0 -99 -31.5 -180t-93 -129t-149.5 -48q-94 0 -147 54zM264.5 157.5q16.5 41.5 24.5 100t8 109.5q0 28 -6.5 39t-20.5 11q-36 0 -54.5 -82.5t-18.5 -167.5q0 -28 6.5 -39.5t20.5 -11.5
q24 0 40.5 41.5zM429 824l60 -72l-142 -148h-110l-99 148l67 72l98 -97z" />
    <glyph glyph-name="uni01D3" unicode="&#x1d3;" horiz-adv-x="524" 
d="M497 204q-14 -98 -83.5 -160.5t-184.5 -62.5q-110 0 -166 52.5t-56 137.5q0 20 3 39l68 486h194l-71 -511q-1 -6 -1 -17q0 -45 41 -45q50 0 59 64l71 509h195zM460 958l65 -72l-142 -138h-110l-109 148l72 62l103 -87z" />
    <glyph glyph-name="uni01D4" unicode="&#x1d4;" 
d="M28 12.5q-27 32.5 -27 89.5q0 18 3 37l55 395h186l-50 -362l-1 -11q0 -14 8 -14q16 0 38 46l47 341h186l-75 -534h-162l2 67q-27 -41 -58.5 -64t-76.5 -23q-48 0 -75 32.5zM413 824l60 -72l-142 -148h-110l-99 148l67 72l98 -97z" />
    <glyph glyph-name="uni01D5" unicode="&#x1d5;" horiz-adv-x="524" 
d="M497 204q-14 -98 -83.5 -160.5t-184.5 -62.5q-110 0 -166 52.5t-56 137.5q0 20 3 39l68 486h194l-71 -511q-1 -6 -1 -17q0 -45 41 -45q50 0 59 64l71 509h195zM165.5 766q-20.5 21 -20.5 56q0 43 29 72.5t70 29.5q38 0 58.5 -21t20.5 -56q0 -43 -29 -72.5t-71 -29.5
q-37 0 -57.5 21zM377 766q-21 21 -21 56q0 43 29 72.5t70 29.5q37 0 58 -21t21 -56q0 -43 -29 -72.5t-70 -29.5q-37 0 -58 21zM488 964h-274l20 130h274z" />
    <glyph glyph-name="uni01D6" unicode="&#x1d6;" 
d="M28 12.5q-27 32.5 -27 89.5q0 18 3 37l55 395h186l-50 -362l-1 -11q0 -14 8 -14q16 0 38 46l47 341h186l-75 -534h-162l2 67q-27 -41 -58.5 -64t-76.5 -23q-48 0 -75 32.5zM111.5 612q-20.5 21 -20.5 56q0 43 29 72.5t70 29.5q38 0 58.5 -21t20.5 -56q0 -43 -29 -72.5
t-71 -29.5q-37 0 -57.5 21zM323 612q-21 21 -21 56q0 43 29 72.5t70 29.5q37 0 58 -21t21 -56q0 -43 -29 -72.5t-70 -29.5q-37 0 -58 21zM437 808h-274l20 130h274z" />
    <glyph glyph-name="uni01D7" unicode="&#x1d7;" horiz-adv-x="524" 
d="M497 204q-14 -98 -83.5 -160.5t-184.5 -62.5q-110 0 -166 52.5t-56 137.5q0 20 3 39l68 486h194l-71 -511q-1 -6 -1 -17q0 -45 41 -45q50 0 59 64l71 509h195zM434 1136l87 -93l-174 -153l-62 57zM158.5 770q-20.5 21 -20.5 56q0 43 29 72.5t71 29.5q37 0 57.5 -21
t20.5 -56q0 -43 -29 -72.5t-71 -29.5q-37 0 -57.5 21zM387.5 770q-20.5 21 -20.5 56q0 43 29 72.5t71 29.5q37 0 57.5 -21t20.5 -56q0 -43 -29 -72.5t-71 -29.5q-37 0 -57.5 21z" />
    <glyph glyph-name="uni01D8" unicode="&#x1d8;" 
d="M28 12.5q-27 32.5 -27 89.5q0 18 3 37l55 395h186l-50 -362l-1 -11q0 -14 8 -14q16 0 38 46l47 341h186l-75 -534h-162l2 67q-27 -41 -58.5 -64t-76.5 -23q-48 0 -75 32.5zM372 977l87 -93l-174 -153l-62 57zM92.5 611q-20.5 21 -20.5 56q0 43 29 72.5t71 29.5
q37 0 57.5 -21t20.5 -56q0 -43 -29 -72.5t-71 -29.5q-37 0 -57.5 21zM320.5 611q-20.5 21 -20.5 56q0 43 29 72.5t71 29.5q37 0 57.5 -21t20.5 -56q0 -43 -29 -72.5t-71 -29.5q-37 0 -57.5 21z" />
    <glyph glyph-name="uni01D9" unicode="&#x1d9;" horiz-adv-x="524" 
d="M497 204q-14 -98 -83.5 -160.5t-184.5 -62.5q-110 0 -166 52.5t-56 137.5q0 20 3 39l68 486h194l-71 -511q-1 -6 -1 -17q0 -45 41 -45q50 0 59 64l71 509h195zM484 1135l65 -72l-142 -138h-110l-109 148l72 62l103 -87zM157.5 770q-20.5 21 -20.5 56q0 43 29 72.5
t71 29.5q37 0 57.5 -21t20.5 -56q0 -43 -29 -72.5t-71 -29.5q-37 0 -57.5 21zM386.5 770q-20.5 21 -20.5 56q0 43 29 72.5t71 29.5q37 0 57.5 -21t20.5 -56q0 -43 -29 -72.5t-71 -29.5q-37 0 -57.5 21z" />
    <glyph glyph-name="uni01DA" unicode="&#x1da;" 
d="M28 12.5q-27 32.5 -27 89.5q0 18 3 37l55 395h186l-50 -362l-1 -11q0 -14 8 -14q16 0 38 46l47 341h186l-75 -534h-162l2 67q-27 -41 -58.5 -64t-76.5 -23q-48 0 -75 32.5zM421 976l65 -72l-142 -138h-110l-109 148l72 62l103 -87zM92.5 611q-20.5 21 -20.5 56
q0 43 29 72.5t71 29.5q37 0 57.5 -21t20.5 -56q0 -43 -29 -72.5t-71 -29.5q-37 0 -57.5 21zM320.5 611q-20.5 21 -20.5 56q0 43 29 72.5t71 29.5q37 0 57.5 -21t20.5 -56q0 -43 -29 -72.5t-71 -29.5q-37 0 -57.5 21z" />
    <glyph glyph-name="uni01DB" unicode="&#x1db;" horiz-adv-x="524" 
d="M497 204q-14 -98 -83.5 -160.5t-184.5 -62.5q-110 0 -166 52.5t-56 137.5q0 20 3 39l68 486h194l-71 -511q-1 -6 -1 -17q0 -45 41 -45q50 0 59 64l71 509h195zM323 1134l95 -191l-78 -52l-129 161zM155.5 771q-20.5 21 -20.5 56q0 43 29 72.5t71 29.5q37 0 57.5 -21
t20.5 -56q0 -43 -29 -72.5t-71 -29.5q-37 0 -57.5 21zM384.5 771q-20.5 21 -20.5 56q0 43 29 72.5t71 29.5q37 0 57.5 -21t20.5 -56q0 -43 -29 -72.5t-71 -29.5q-37 0 -57.5 21z" />
    <glyph glyph-name="uni01DC" unicode="&#x1dc;" 
d="M28 12.5q-27 32.5 -27 89.5q0 18 3 37l55 395h186l-50 -362l-1 -11q0 -14 8 -14q16 0 38 46l47 341h186l-75 -534h-162l2 67q-27 -41 -58.5 -64t-76.5 -23q-48 0 -75 32.5zM258 974l95 -191l-78 -52l-129 161zM93 611q-21 21 -21 56q0 43 29 72.5t70 29.5q37 0 58 -21
t21 -56q0 -43 -29 -72.5t-70 -29.5q-37 0 -58 21zM321 611q-21 21 -21 56q0 43 29 72.5t70 29.5q37 0 58 -21t21 -56q0 -43 -29 -72.5t-70 -29.5q-37 0 -58 21z" />
    <glyph glyph-name="uni01DD" unicode="&#x1dd;" horiz-adv-x="469" 
d="M406 502q54 -52 54 -156q0 -105 -32.5 -188t-97 -130.5t-158.5 -47.5q-84 0 -132.5 42t-46.5 109q4 101 85 149.5t200 62.5v14q0 61 -56 61q-26 0 -50 -11t-58 -35l-61 106q88 76 203 76q96 0 150 -52zM238.5 139.5q18.5 37.5 28.5 95.5q-51 -5 -73.5 -37t-22.5 -68
q0 -28 24 -28q25 0 43.5 37.5z" />
    <glyph glyph-name="uni01DE" unicode="&#x1de;" horiz-adv-x="506" 
d="M488 0h-198v138h-111l-36 -138h-201l255 696h231zM214 276h76v294zM157.5 766q-20.5 21 -20.5 56q0 43 29 72.5t70 29.5q38 0 58.5 -21t20.5 -56q0 -43 -29 -72.5t-71 -29.5q-37 0 -57.5 21zM369 766q-21 21 -21 56q0 43 29 72.5t70 29.5q37 0 58 -21t21 -56
q0 -43 -29 -72.5t-70 -29.5q-37 0 -58 21zM480 964h-274l20 130h274z" />
    <glyph glyph-name="uni01DF" unicode="&#x1df;" horiz-adv-x="483" 
d="M493 499l-47 -331q-3 -16 -3 -28q0 -13 4.5 -21t14.5 -13l-57 -122q-45 4 -79.5 22.5t-48.5 51.5q-28 -39 -59 -58.5t-74 -19.5q-67 0 -102 51t-35 141q0 104 29 190t94 139t168 53q101 0 195 -55zM216 345.5q-22 -77.5 -22 -178.5q0 -28 5 -39t16 -11t22 12.5t24 34.5
l36 256q-9 3 -18 3q-41 0 -63 -77.5zM148.5 612q-20.5 21 -20.5 56q0 43 29 72.5t70 29.5q38 0 58.5 -21t20.5 -56q0 -43 -29 -72.5t-71 -29.5q-37 0 -57.5 21zM360 612q-21 21 -21 56q0 43 29 72.5t70 29.5q37 0 58 -21t21 -56q0 -43 -29 -72.5t-70 -29.5q-37 0 -58 21z
M474 808h-274l20 130h274z" />
    <glyph glyph-name="uni01E0" unicode="&#x1e0;" horiz-adv-x="506" 
d="M488 0h-198v138h-111l-36 -138h-201l255 696h231zM214 276h76v294zM251 758q-24 24 -24 64q0 51 33.5 84t82.5 33q44 0 68 -24t24 -64q0 -51 -33.5 -84t-82.5 -33q-44 0 -68 24zM489 964h-274l20 130h274z" />
    <glyph glyph-name="uni01E1" unicode="&#x1e1;" horiz-adv-x="483" 
d="M493 499l-47 -331q-3 -16 -3 -28q0 -13 4.5 -21t14.5 -13l-57 -122q-45 4 -79.5 22.5t-48.5 51.5q-28 -39 -59 -58.5t-74 -19.5q-67 0 -102 51t-35 141q0 104 29 190t94 139t168 53q101 0 195 -55zM216 345.5q-22 -77.5 -22 -178.5q0 -28 5 -39t16 -11t22 12.5t24 34.5
l36 256q-9 3 -18 3q-41 0 -63 -77.5zM243 612q-24 24 -24 64q0 51 33.5 84t82.5 33q44 0 68 -24t24 -64q0 -51 -33.5 -84t-82.5 -33q-44 0 -68 24zM475 826h-274l20 130h274z" />
    <glyph glyph-name="uni01E2" unicode="&#x1e2;" horiz-adv-x="713" 
d="M698 559h-183l-4 -141h183l-21 -134h-166l-4 -145h187l-22 -139h-344l6 138h-127l-48 -138h-211l303 696h492zM336 277l13 278l-97 -278h84zM608 775h-274l20 130h274z" />
    <glyph glyph-name="uni01E3" unicode="&#x1e3;" horiz-adv-x="713" 
d="M325 540q28 -13 51 -39q67 53 165 53q84 0 132.5 -42t46.5 -109q-4 -101 -85 -149.5t-200 -62.5q0 -40 12.5 -57.5t43.5 -17.5q26 0 50 11t58 35l61 -106q-88 -76 -204 -76q-117 0 -169 76q-34 -41 -72 -58t-81 -17q-64 0 -102 39t-38 103q0 88 55 146.5t195 58.5h26
q6 24 15 45q-4 22 -21.5 32.5t-43.5 10.5q-52 0 -116 -25l-22 122q46 19 91.5 29.5t81.5 10.5q42 0 70 -13zM474.5 394.5q-18.5 -37.5 -28.5 -95.5q51 5 73.5 37t22.5 68q0 28 -24 28q-25 0 -43.5 -37.5zM240 224q-23 0 -37 -18.5t-14 -52.5q0 -39 23 -39q10 0 19.5 11
t22.5 32q-1 8 -1 25l1 42h-14zM543 649h-274l20 130h274z" />
    <glyph glyph-name="uni01E4" unicode="&#x1e4;" horiz-adv-x="575" 
d="M562 173h-55l-15 -115q-52 -37 -115.5 -57t-119.5 -20q-236 0 -236 263q0 129 41.5 237t121.5 171.5t191 63.5q64 0 113.5 -25t83.5 -66l-101 -93q-25 24 -47.5 34.5t-51.5 10.5q-81 0 -118 -110.5t-37 -253.5q0 -49 12.5 -70.5t37.5 -21.5q30 0 65 20l4 32h-57l13 100
h57l6 47h-58l-4 109h246l-20 -156h56z" />
    <glyph glyph-name="uni01E5" unicode="&#x1e5;" horiz-adv-x="484" 
d="M425 7h38l-8 -63h-45q-29 -86 -87.5 -128t-154.5 -42q-101 0 -184 57l60 109q61 -36 117 -36t73 40h-82l8 63h86l12 86q-42 -64 -112 -64q-64 0 -98.5 51.5t-34.5 140.5t28 164t91.5 122t165.5 47q51 0 101.5 -14.5t95.5 -40.5l-65 -464q-1 -10 -5 -28zM245 179
q13 13 25 34l28 207q-9 3 -19 3q-39 0 -59 -63.5t-20 -143.5q0 -28 5 -39t16 -11t24 13z" />
    <glyph glyph-name="Gcaron" unicode="&#x1e6;" horiz-adv-x="547" 
d="M488.5 691q49.5 -25 83.5 -66l-101 -93q-25 24 -47.5 34.5t-51.5 10.5q-81 0 -118 -110.5t-37 -253.5q0 -49 12.5 -70.5t37.5 -21.5q28 0 55 20l19 132h-48l1 134h246l-48 -349q-52 -37 -115.5 -57t-119.5 -20q-236 0 -236 263q0 129 41.5 237t121.5 171.5t191 63.5
q64 0 113.5 -25zM499 958l65 -72l-142 -138h-110l-109 148l72 62l103 -87z" />
    <glyph glyph-name="gcaron" unicode="&#x1e7;" horiz-adv-x="485" 
d="M400.5 539.5q50.5 -14.5 95.5 -40.5l-65 -464q-19 -133 -81.5 -197t-180.5 -64q-101 0 -184 57l64 119q33 -19 59 -27.5t54 -8.5q34 0 55.5 18.5t28.5 67.5l9 63q-42 -64 -112 -64q-64 0 -98.5 51.5t-34.5 140.5q0 160 69 261.5t220 101.5q51 0 101.5 -14.5zM218.5 354
q-21.5 -69 -21.5 -168q0 -28 5 -39t16 -11t24 13t25 34l32 237q-9 3 -19 3q-40 0 -61.5 -69zM437 824l60 -72l-142 -148h-110l-99 148l67 72l98 -97z" />
    <glyph glyph-name="uni01E8" unicode="&#x1e8;" horiz-adv-x="566" 
d="M-10 0l98 696h194l-98 -696h-194zM329 0l-88 371l187 325h192l-185 -320l103 -376h-209zM472 958l65 -72l-142 -138h-110l-109 148l72 62l103 -87z" />
    <glyph glyph-name="uni01E9" unicode="&#x1e9;" horiz-adv-x="499" 
d="M242 480q33 38 69 55.5t80 17.5q57 0 92 -34t35 -89q0 -60 -27 -102.5t-87 -84.5l57 -243h-192l-47 256q62 29 85.5 62t23.5 72q0 17 -6.5 25.5t-18.5 8.5q-35 0 -85 -79l-47 -345h-187l104 744l189 19zM485 1006l65 -72l-142 -138h-110l-109 148l72 62l103 -87z" />
    <glyph glyph-name="uni01EA" unicode="&#x1ea;" horiz-adv-x="581" 
d="M279 -55.5q-22 -28.5 -22 -53.5q0 -32 37 -32q18 0 46 5l-26 -108q-29 -8 -63 -8q-53 0 -87.5 31t-34.5 85q0 71 62 122q-168 33 -168 260q0 130 35.5 236.5t109 170t181.5 63.5q232 0 232 -265q0 -164 -57 -287.5t-166 -165.5q-57 -25 -79 -53.5zM270.5 513
q-26.5 -62 -39 -149t-12.5 -162q0 -44 11.5 -63t35.5 -19q41 0 67.5 60t38.5 145.5t12 163.5q0 46 -11.5 66t-35.5 20q-40 0 -66.5 -62z" />
    <glyph glyph-name="uni01EB" unicode="&#x1eb;" horiz-adv-x="494" 
d="M226.5 -57q-20.5 -28 -20.5 -52q0 -32 37 -32q18 0 46 5l-26 -108q-29 -8 -63 -8q-53 0 -87.5 31t-34.5 85q0 73 65 124q-64 17 -98.5 69t-34.5 139q0 99 31 180t93 129.5t150 48.5q94 0 147 -54.5t53 -162.5q0 -122 -47 -215t-135 -126q-55 -25 -75.5 -53zM215.5 334.5
q-18.5 -82.5 -18.5 -167.5q0 -28 6.5 -39.5t20.5 -11.5q24 0 40.5 41.5t24.5 100t8 109.5q0 28 -6.5 39t-20.5 11q-36 0 -54.5 -82.5z" />
    <glyph glyph-name="uni01EC" unicode="&#x1ec;" horiz-adv-x="581" 
d="M511 905l-20 -130h-274l20 130h274zM279 -55.5q-22 -28.5 -22 -53.5q0 -32 37 -32q18 0 46 5l-26 -108q-29 -8 -63 -8q-53 0 -87.5 31t-34.5 85q0 71 62 122q-168 33 -168 260q0 130 35.5 236.5t109 170t181.5 63.5q232 0 232 -265q0 -164 -57 -287.5t-166 -165.5
q-57 -25 -79 -53.5zM270.5 513q-26.5 -62 -39 -149t-12.5 -162q0 -44 11.5 -63t35.5 -19q41 0 67.5 60t38.5 145.5t12 163.5q0 46 -11.5 66t-35.5 20q-40 0 -66.5 -62z" />
    <glyph glyph-name="uni01ED" unicode="&#x1ed;" horiz-adv-x="494" 
d="M453 779l-20 -130h-274l20 130h274zM226.5 -57q-20.5 -28 -20.5 -52q0 -32 37 -32q18 0 46 5l-26 -108q-29 -8 -63 -8q-53 0 -87.5 31t-34.5 85q0 73 65 124q-64 17 -98.5 69t-34.5 139q0 99 31 180t93 129.5t150 48.5q94 0 147 -54.5t53 -162.5q0 -122 -47 -215
t-135 -126q-55 -25 -75.5 -53zM215.5 334.5q-18.5 -82.5 -18.5 -167.5q0 -28 6.5 -39.5t20.5 -11.5q24 0 40.5 41.5t24.5 100t8 109.5q0 28 -6.5 39t-20.5 11q-36 0 -54.5 -82.5z" />
    <glyph glyph-name="uni01EE" unicode="&#x1ee;" horiz-adv-x="470" 
d="M466 562l-145 -157q67 -7 103.5 -48.5t36.5 -112.5q0 -82 -37.5 -141.5t-100 -90.5t-136.5 -31q-78 0 -127 28t-82 81l110 89q25 -30 46.5 -43t50.5 -13q32 0 55 30.5t23 78.5q0 34 -17.5 50t-45.5 16h-90l16 104l138 155h-185l22 139h386zM433 958l65 -72l-142 -138
h-110l-109 148l72 62l103 -87z" />
    <glyph glyph-name="uni01EF" unicode="&#x1ef;" horiz-adv-x="437" 
d="M416 407l-160 -197q144 -23 144 -163q0 -84 -36 -146t-98.5 -95t-140.5 -33q-135 0 -199 110l110 88q23 -29 44 -42t47 -13q38 0 61 32.5t23 93.5q0 38 -16.5 53.5t-46.5 15.5h-87l15 104l148 181h-189l20 138h380zM393 824l60 -72l-142 -148h-110l-99 148l67 72l98 -97z
" />
    <glyph glyph-name="uni01F0" unicode="&#x1f0;" horiz-adv-x="235" 
d="M-114 -90q52 21 77 53.5t34 99.5l65 471h187l-65 -461q-14 -94 -51 -152.5t-86.5 -89.5t-119.5 -57zM303 824l60 -72l-142 -148h-110l-99 148l67 72l98 -97z" />
    <glyph glyph-name="uni01F1" unicode="&#x1f1;" horiz-adv-x="982" 
d="M477.5 642q71.5 -54 71.5 -197q0 -208 -85 -326.5t-266 -118.5h-208l98 696h197q121 0 192.5 -54zM262 557l-58 -417h23q67 0 96.5 97.5t29.5 214.5q0 56 -15.5 80.5t-48.5 24.5h-27zM490 0l21 145l279 401h-206l23 150h417l-22 -147l-279 -394h240l-43 -155h-430z" />
    <glyph glyph-name="uni01F2" unicode="&#x1f2;" horiz-adv-x="934" 
d="M477.5 642q71.5 -54 71.5 -197q0 -208 -85 -326.5t-266 -118.5h-208l98 696h197q121 0 192.5 -54zM262 557l-58 -417h23q67 0 96.5 97.5t29.5 214.5q0 56 -15.5 80.5t-48.5 24.5h-27zM958 534l-19 -131l-195 -262h169l-37 -141h-371l19 133l195 262h-146l21 139h364z" />
    <glyph glyph-name="uni01F3" unicode="&#x1f3;" horiz-adv-x="889" 
d="M537 744l-104 -744h-165l2 56q-27 -38 -57 -57t-72 -19q-64 0 -99 49t-35 142q0 99 26.5 187t76.5 142t119 54q57 0 89 -43l35 252zM232 378q-17 -40 -26 -97.5t-9 -106.5q0 -35 6 -46.5t17 -11.5q22 0 49 47l33 235q-12 20 -30 20q-23 0 -40 -40zM913 534l-19 -131
l-195 -262h169l-37 -141h-371l19 133l195 262h-146l21 139h364z" />
    <glyph glyph-name="uni01F4" unicode="&#x1f4;" horiz-adv-x="547" 
d="M488.5 691q49.5 -25 83.5 -66l-101 -93q-25 24 -47.5 34.5t-51.5 10.5q-81 0 -118 -110.5t-37 -253.5q0 -49 12.5 -70.5t37.5 -21.5q28 0 55 20l19 132h-48l1 134h246l-48 -349q-52 -37 -115.5 -57t-119.5 -20q-236 0 -236 263q0 129 41.5 237t121.5 171.5t191 63.5
q64 0 113.5 -25zM466 962l60 -131l-226 -88l-43 87z" />
    <glyph glyph-name="uni01F5" unicode="&#x1f5;" horiz-adv-x="485" 
d="M400.5 539.5q50.5 -14.5 95.5 -40.5l-65 -464q-19 -133 -81.5 -197t-180.5 -64q-101 0 -184 57l64 119q33 -19 59 -27.5t54 -8.5q34 0 55.5 18.5t28.5 67.5l9 63q-42 -64 -112 -64q-64 0 -98.5 51.5t-34.5 140.5q0 160 69 261.5t220 101.5q51 0 101.5 -14.5zM218.5 354
q-21.5 -69 -21.5 -168q0 -28 5 -39t16 -11t24 13t25 34l32 237q-9 3 -19 3q-40 0 -61.5 -69zM387 844l60 -131l-226 -98l-46 87z" />
    <glyph glyph-name="uni01F6" unicode="&#x1f6;" horiz-adv-x="765" 
d="M379 4q-42 23 -61.5 59.5t-19.5 79.5q0 9 2 25l16 116h-92l-40 -284h-194l98 696h194l-37 -260h92l36 260h194l-75 -538q-2 -14 -2 -19q0 -22 17 -22q38 0 56 106.5t18 223.5q0 31 -2 87h175q5 -53 5 -88q0 -147 -20.5 -246.5t-81 -159t-174.5 -59.5q-62 0 -104 23z" />
    <glyph glyph-name="uni01F7" unicode="&#x1f7;" horiz-adv-x="506" 
d="M500 671.5q37 -44.5 37 -122.5q0 -86 -33.5 -144.5t-90 -98t-146.5 -79.5l-54 -24l-29 -203h-194l98 696h194l-4 -27q25 22 56.5 34.5t65.5 12.5q63 0 100 -44.5zM311 424q24 45 24 105q0 53 -31 53q-22 0 -41 -21l-31 -217l5 3q50 32 74 77z" />
    <glyph glyph-name="uni01F8" unicode="&#x1f8;" horiz-adv-x="530" 
d="M464 0h-227l-45 533q4 -86 4 -132q0 -93 -12 -188l-26 -213h-167l97 696h228l43 -534q-3 71 -3 130q0 94 11 180l28 224h166zM301 958l182 -133l-54 -81l-204 85z" />
    <glyph glyph-name="uni01F9" unicode="&#x1f9;" horiz-adv-x="466" 
d="M440 522.5q26 -31.5 26 -88.5q0 -18 -3 -39l-56 -395h-186l49 358q1 5 1 13q0 12 -6 12q-7 0 -16.5 -17.5t-33.5 -71.5l-41 -294h-186l74 534h162l1 -77q62 97 142 97q47 0 73 -31.5zM261 842l178 -143l-54 -81l-204 95z" />
    <glyph glyph-name="Aringacute" unicode="&#x1fa;" horiz-adv-x="506" 
d="M488 0h-198v138h-111l-36 -138h-201l255 696h231zM214 276h76v294zM439 974.5q31 -34.5 31 -90.5q0 -44 -19 -80t-54 -57t-81 -21q-57 0 -88 34t-31 90q0 43 19 79.5t54 58t81 21.5q57 0 88 -34.5zM310.5 898.5q-11.5 -18.5 -11.5 -42.5q0 -38 27 -38q19 0 30.5 18.5
t11.5 42.5q0 38 -26 38q-20 0 -31.5 -18.5zM425 1233l60 -131l-226 -88l-43 87z" />
    <glyph glyph-name="aringacute" unicode="&#x1fb;" horiz-adv-x="483" 
d="M493 499l-47 -331q-3 -16 -3 -28q0 -13 4.5 -21t14.5 -13l-57 -122q-45 4 -79.5 22.5t-48.5 51.5q-28 -39 -59 -58.5t-74 -19.5q-67 0 -102 51t-35 141q0 104 29 190t94 139t168 53q101 0 195 -55zM216 345.5q-22 -77.5 -22 -178.5q0 -28 5 -39t16 -11t22 12.5t24 34.5
l36 256q-9 3 -18 3q-41 0 -63 -77.5zM434 823.5q31 -34.5 31 -90.5q0 -44 -19 -80t-54 -57t-81 -21q-57 0 -88 34t-31 90q0 43 19 79.5t54 58t81 21.5q57 0 88 -34.5zM305.5 747.5q-11.5 -18.5 -11.5 -42.5q0 -38 27 -38q19 0 30.5 18.5t11.5 42.5q0 38 -26 38
q-20 0 -31.5 -18.5zM426 1082l60 -131l-226 -88l-43 87z" />
    <glyph glyph-name="AEacute" unicode="&#x1fc;" horiz-adv-x="713" 
d="M698 559h-183l-4 -141h183l-21 -134h-166l-4 -145h187l-22 -139h-344l6 138h-127l-48 -138h-211l303 696h492zM336 277l13 278l-97 -278h84zM570 962l60 -131l-226 -88l-43 87z" />
    <glyph glyph-name="aeacute" unicode="&#x1fd;" horiz-adv-x="713" 
d="M325 540q28 -13 51 -39q67 53 165 53q84 0 132.5 -42t46.5 -109q-4 -101 -85 -149.5t-200 -62.5q0 -40 12.5 -57.5t43.5 -17.5q26 0 50 11t58 35l61 -106q-88 -76 -204 -76q-117 0 -169 76q-34 -41 -72 -58t-81 -17q-64 0 -102 39t-38 103q0 88 55 146.5t195 58.5h26
q6 24 15 45q-4 22 -21.5 32.5t-43.5 10.5q-52 0 -116 -25l-22 122q46 19 91.5 29.5t81.5 10.5q42 0 70 -13zM474.5 394.5q-18.5 -37.5 -28.5 -95.5q51 5 73.5 37t22.5 68q0 28 -24 28q-25 0 -43.5 -37.5zM240 224q-23 0 -37 -18.5t-14 -52.5q0 -39 23 -39q10 0 19.5 11
t22.5 32q-1 8 -1 25l1 42h-14zM489 844l60 -131l-226 -98l-46 87z" />
    <glyph glyph-name="Oslashacute" unicode="&#x1fe;" horiz-adv-x="581" 
d="M581 451q0 -130 -36 -236.5t-109.5 -170.5t-181.5 -64q-17 0 -25 1l-41 -119l-134 38l47 132q-78 69 -78 214q0 130 35.5 236.5t109 170t181.5 63.5q15 0 22 -1l42 117l132 -39l-44 -127q80 -69 80 -215zM264 515.5q-29 -62.5 -42 -149.5t-13 -164v-11l129 387h-1
q-44 0 -73 -62.5zM340 177.5q29 60.5 41.5 146.5t12.5 165v10l-128 -382q45 0 74 60.5zM434 1004l60 -131l-226 -88l-43 87z" />
    <glyph glyph-name="oslashacute" unicode="&#x1ff;" horiz-adv-x="494" 
d="M466 440.5q18 -44.5 18 -103.5q0 -99 -31.5 -180t-93 -129t-149.5 -48h-11l-45 -117l-123 39l49 119q-70 56 -70 175q0 99 31 180t93 129.5t150 48.5h11l43 118l124 -40l-48 -120q34 -27 52 -71.5zM200 347q-23 -79 -23 -180v-5l84 254l4 16q-42 -6 -65 -85zM294 188
q23 80 23 179l-82 -249l-4 -16q40 6 63 86zM383 864l60 -131l-226 -98l-46 87z" />
    <glyph glyph-name="uni0200" unicode="&#x200;" horiz-adv-x="506" 
d="M488 0h-198v138h-111l-36 -138h-201l255 696h231zM214 276h76v294zM242 1000l61 -213l-99 -40l-90 201zM403 1000l55 -215l-98 -34l-85 202z" />
    <glyph glyph-name="uni0201" unicode="&#x201;" horiz-adv-x="483" 
d="M493 499l-47 -331q-3 -16 -3 -28q0 -13 4.5 -21t14.5 -13l-57 -122q-45 4 -79.5 22.5t-48.5 51.5q-28 -39 -59 -58.5t-74 -19.5q-67 0 -102 51t-35 141q0 104 29 190t94 139t168 53q101 0 195 -55zM216 345.5q-22 -77.5 -22 -178.5q0 -28 5 -39t16 -11t22 12.5t24 34.5
l36 256q-9 3 -18 3q-41 0 -63 -77.5zM239 874l61 -213l-99 -40l-90 201zM400 874l55 -215l-98 -34l-85 202z" />
    <glyph glyph-name="uni0202" unicode="&#x202;" horiz-adv-x="506" 
d="M488 0h-198v138h-111l-36 -138h-201l255 696h231zM214 276h76v294zM164 775q17 84 63 137t121 53q71 0 104.5 -46t33.5 -119q0 -18 -1 -27l-98 -14q-2 77 -52 77q-27 0 -46.5 -21t-31.5 -59z" />
    <glyph glyph-name="uni0203" unicode="&#x203;" horiz-adv-x="483" 
d="M493 499l-47 -331q-3 -16 -3 -28q0 -13 4.5 -21t14.5 -13l-57 -122q-45 4 -79.5 22.5t-48.5 51.5q-28 -39 -59 -58.5t-74 -19.5q-67 0 -102 51t-35 141q0 104 29 190t94 139t168 53q101 0 195 -55zM216 345.5q-22 -77.5 -22 -178.5q0 -28 5 -39t16 -11t22 12.5t24 34.5
l36 256q-9 3 -18 3q-41 0 -63 -77.5zM154 613q17 84 63 137t121 53q71 0 104.5 -46t33.5 -119q0 -18 -1 -27l-98 -14q-2 77 -52 77q-27 0 -46.5 -21t-31.5 -59z" />
    <glyph glyph-name="uni0204" unicode="&#x204;" horiz-adv-x="421" 
d="M476 696l-42 -137h-171l-20 -139h154l-20 -134h-153l-20 -147h188l-20 -139h-382l98 696h388zM210 1000l61 -213l-99 -40l-90 201zM371 1000l55 -215l-98 -34l-85 202z" />
    <glyph glyph-name="uni0205" unicode="&#x205;" horiz-adv-x="469" 
d="M429.5 512q48.5 -42 46.5 -109q-4 -101 -85 -149.5t-200 -62.5v-14q0 -61 56 -61q26 0 50 11t58 35l61 -106q-88 -76 -203 -76q-96 0 -150 52t-54 156q0 105 32.5 188t97 130.5t158.5 47.5q84 0 132.5 -42zM275.5 336q22.5 32 22.5 68q0 28 -24 28q-25 0 -43.5 -37.5
t-28.5 -95.5q51 5 73.5 37zM224 874l61 -213l-99 -40l-90 201zM385 874l55 -215l-98 -34l-85 202z" />
    <glyph glyph-name="uni0206" unicode="&#x206;" horiz-adv-x="421" 
d="M476 696l-42 -137h-171l-20 -139h154l-20 -134h-153l-20 -147h188l-20 -139h-382l98 696h388zM132 775q17 84 63 137t121 53q71 0 104.5 -46t33.5 -119q0 -18 -1 -27l-98 -14q-2 77 -52 77q-27 0 -46.5 -21t-31.5 -59z" />
    <glyph glyph-name="uni0207" unicode="&#x207;" horiz-adv-x="469" 
d="M429.5 512q48.5 -42 46.5 -109q-4 -101 -85 -149.5t-200 -62.5v-14q0 -61 56 -61q26 0 50 11t58 35l61 -106q-88 -76 -203 -76q-96 0 -150 52t-54 156q0 105 32.5 188t97 130.5t158.5 47.5q84 0 132.5 -42zM275.5 336q22.5 32 22.5 68q0 28 -24 28q-25 0 -43.5 -37.5
t-28.5 -95.5q51 5 73.5 37zM139 613q17 84 63 137t121 53q71 0 104.5 -46t33.5 -119q0 -18 -1 -27l-98 -14q-2 77 -52 77q-27 0 -46.5 -21t-31.5 -59z" />
    <glyph glyph-name="uni0208" unicode="&#x208;" horiz-adv-x="250" 
d="M282 696l-98 -696h-194l98 696h194zM114 1000l61 -213l-99 -40l-90 201zM275 1000l55 -215l-98 -34l-85 202z" />
    <glyph glyph-name="uni0209" unicode="&#x209;" horiz-adv-x="236" 
d="M248 534l-74 -534h-186l74 534h186zM91 874l61 -213l-99 -40l-90 201zM252 874l55 -215l-98 -34l-85 202z" />
    <glyph glyph-name="uni020A" unicode="&#x20a;" horiz-adv-x="250" 
d="M282 696l-98 -696h-194l98 696h194zM36 775q17 84 63 137t121 53q71 0 104.5 -46t33.5 -119q0 -18 -1 -27l-98 -14q-2 77 -52 77q-27 0 -46.5 -21t-31.5 -59z" />
    <glyph glyph-name="uni020B" unicode="&#x20b;" horiz-adv-x="236" 
d="M248 534l-74 -534h-186l74 534h186zM6 613q17 84 63 137t121 53q71 0 104.5 -46t33.5 -119q0 -18 -1 -27l-98 -14q-2 77 -52 77q-27 0 -46.5 -21t-31.5 -59z" />
    <glyph glyph-name="uni020C" unicode="&#x20c;" horiz-adv-x="581" 
d="M581 451q0 -130 -36 -236.5t-109.5 -170.5t-181.5 -64q-231 0 -231 266q0 130 35.5 236.5t109 170t181.5 63.5q232 0 232 -265zM270.5 513q-26.5 -62 -39 -149t-12.5 -162q0 -44 11.5 -63t35.5 -19q41 0 67.5 60t38.5 145.5t12 163.5q0 46 -11.5 66t-35.5 20
q-40 0 -66.5 -62zM276 1000l61 -213l-99 -40l-90 201zM437 1000l55 -215l-98 -34l-85 202z" />
    <glyph glyph-name="uni020D" unicode="&#x20d;" horiz-adv-x="494" 
d="M63 34q-53 54 -53 162q0 99 31 180t93 129.5t150 48.5q94 0 147 -54.5t53 -162.5q0 -99 -31.5 -180t-93 -129t-149.5 -48q-94 0 -147 54zM264.5 157.5q16.5 41.5 24.5 100t8 109.5q0 28 -6.5 39t-20.5 11q-36 0 -54.5 -82.5t-18.5 -167.5q0 -28 6.5 -39.5t20.5 -11.5
q24 0 40.5 41.5zM218 874l61 -213l-99 -40l-90 201zM379 874l55 -215l-98 -34l-85 202z" />
    <glyph glyph-name="uni020E" unicode="&#x20e;" horiz-adv-x="581" 
d="M581 451q0 -130 -36 -236.5t-109.5 -170.5t-181.5 -64q-231 0 -231 266q0 130 35.5 236.5t109 170t181.5 63.5q232 0 232 -265zM270.5 513q-26.5 -62 -39 -149t-12.5 -162q0 -44 11.5 -63t35.5 -19q41 0 67.5 60t38.5 145.5t12 163.5q0 46 -11.5 66t-35.5 20
q-40 0 -66.5 -62zM198 775q17 84 63 137t121 53q71 0 104.5 -46t33.5 -119q0 -18 -1 -27l-98 -14q-2 77 -52 77q-27 0 -46.5 -21t-31.5 -59z" />
    <glyph glyph-name="uni020F" unicode="&#x20f;" horiz-adv-x="494" 
d="M63 34q-53 54 -53 162q0 99 31 180t93 129.5t150 48.5q94 0 147 -54.5t53 -162.5q0 -99 -31.5 -180t-93 -129t-149.5 -48q-94 0 -147 54zM264.5 157.5q16.5 41.5 24.5 100t8 109.5q0 28 -6.5 39t-20.5 11q-36 0 -54.5 -82.5t-18.5 -167.5q0 -28 6.5 -39.5t20.5 -11.5
q24 0 40.5 41.5zM133 613q17 84 63 137t121 53q71 0 104.5 -46t33.5 -119q0 -18 -1 -27l-98 -14q-2 77 -52 77q-27 0 -46.5 -21t-31.5 -59z" />
    <glyph glyph-name="uni0210" unicode="&#x210;" horiz-adv-x="518" 
d="M504 379.5q-30 -50.5 -93 -89.5l94 -290h-200l-67 251h-19l-35 -251h-194l98 696h198q248 0 248 -190q0 -76 -30 -126.5zM238 384h17q43 0 63 33.5t20 83.5q0 32 -14.5 46t-44.5 14h-16zM236 1000l61 -213l-99 -40l-90 201zM397 1000l55 -215l-98 -34l-85 202z" />
    <glyph glyph-name="uni0211" unicode="&#x211;" horiz-adv-x="340" 
d="M391 542l-57 -182q-22 6 -37 6q-32 0 -53 -36.5t-38 -100.5l-32 -229h-186l74 534h159v-86q49 103 127 103q22 0 43 -9zM161 874l61 -213l-99 -40l-90 201zM322 874l55 -215l-98 -34l-85 202z" />
    <glyph glyph-name="uni0212" unicode="&#x212;" horiz-adv-x="518" 
d="M504 379.5q-30 -50.5 -93 -89.5l94 -290h-200l-67 251h-19l-35 -251h-194l98 696h198q248 0 248 -190q0 -76 -30 -126.5zM238 384h17q43 0 63 33.5t20 83.5q0 32 -14.5 46t-44.5 14h-16zM158 775q17 84 63 137t121 53q71 0 104.5 -46t33.5 -119q0 -18 -1 -27l-98 -14
q-2 77 -52 77q-27 0 -46.5 -21t-31.5 -59z" />
    <glyph glyph-name="uni0213" unicode="&#x213;" horiz-adv-x="340" 
d="M391 542l-57 -182q-22 6 -37 6q-32 0 -53 -36.5t-38 -100.5l-32 -229h-186l74 534h159v-86q49 103 127 103q22 0 43 -9zM76 613q17 84 63 137t121 53q71 0 104.5 -46t33.5 -119q0 -18 -1 -27l-98 -14q-2 77 -52 77q-27 0 -46.5 -21t-31.5 -59z" />
    <glyph glyph-name="uni0214" unicode="&#x214;" horiz-adv-x="524" 
d="M497 204q-14 -98 -83.5 -160.5t-184.5 -62.5q-110 0 -166 52.5t-56 137.5q0 20 3 39l68 486h194l-71 -511q-1 -6 -1 -17q0 -45 41 -45q50 0 59 64l71 509h195zM250 1000l61 -213l-99 -40l-90 201zM411 1000l55 -215l-98 -34l-85 202z" />
    <glyph glyph-name="uni0215" unicode="&#x215;" 
d="M28 12.5q-27 32.5 -27 89.5q0 18 3 37l55 395h186l-50 -362l-1 -11q0 -14 8 -14q16 0 38 46l47 341h186l-75 -534h-162l2 67q-27 -41 -58.5 -64t-76.5 -23q-48 0 -75 32.5zM202 874l61 -213l-99 -40l-90 201zM363 874l55 -215l-98 -34l-85 202z" />
    <glyph glyph-name="uni0216" unicode="&#x216;" horiz-adv-x="524" 
d="M497 204q-14 -98 -83.5 -160.5t-184.5 -62.5q-110 0 -166 52.5t-56 137.5q0 20 3 39l68 486h194l-71 -511q-1 -6 -1 -17q0 -45 41 -45q50 0 59 64l71 509h195zM172 775q17 84 63 137t121 53q71 0 104.5 -46t33.5 -119q0 -18 -1 -27l-98 -14q-2 77 -52 77q-27 0 -46.5 -21
t-31.5 -59z" />
    <glyph glyph-name="uni0217" unicode="&#x217;" 
d="M28 12.5q-27 32.5 -27 89.5q0 18 3 37l55 395h186l-50 -362l-1 -11q0 -14 8 -14q16 0 38 46l47 341h186l-75 -534h-162l2 67q-27 -41 -58.5 -64t-76.5 -23q-48 0 -75 32.5zM117 613q17 84 63 137t121 53q71 0 104.5 -46t33.5 -119q0 -18 -1 -27l-98 -14q-2 77 -52 77
q-27 0 -46.5 -21t-31.5 -59z" />
    <glyph glyph-name="Scommaaccent" unicode="&#x218;" horiz-adv-x="488" 
d="M431 692q52 -24 90 -71l-94 -98q-49 52 -109 52q-34 0 -52.5 -16.5t-18.5 -41.5t19 -42.5t79 -48.5q65 -34 96.5 -78t31.5 -114q0 -74 -35.5 -131.5t-98.5 -90t-142 -32.5q-148 0 -231 104l103 99q32 -31 61.5 -46t66.5 -15t58 20.5t21 53.5q0 32 -21 53t-78 50
q-67 34 -96.5 74.5t-29.5 106.5q0 71 33.5 124.5t92 82.5t131.5 29q71 0 123 -24zM251.5 -84q21.5 -21 21.5 -55q0 -25 -8 -46t-29 -57l-56 -97h-86l38 117q-30 21 -30 57q0 45 26.5 73.5t66.5 28.5q35 0 56.5 -21z" />
    <glyph glyph-name="scommaaccent" unicode="&#x219;" horiz-adv-x="408" 
d="M338 535.5q46 -18.5 78 -50.5l-78 -98q-47 35 -87 35q-20 0 -31.5 -9t-11.5 -24t16 -28.5t63 -36.5q51 -24 76.5 -57t25.5 -87q0 -60 -31 -105.5t-83 -70t-114 -24.5q-121 0 -200 84l96 95q52 -48 97 -48q23 0 35.5 10.5t12.5 29.5t-15.5 33.5t-56.5 33.5
q-55 25 -79.5 57t-24.5 86q0 56 27.5 100t76 68.5t109.5 24.5q53 0 99 -18.5zM205.5 -84q21.5 -21 21.5 -55q0 -25 -8 -46t-29 -57l-56 -97h-86l38 117q-30 21 -30 57q0 45 26.5 73.5t66.5 28.5q35 0 56.5 -21z" />
    <glyph glyph-name="uni021A" unicode="&#x21a;" horiz-adv-x="457" 
d="M524 696l-41 -148h-118l-77 -548h-194l77 548h-132l21 148h464zM244.5 -84q21.5 -21 21.5 -55q0 -25 -8 -46t-29 -57l-56 -97h-86l38 117q-30 21 -30 57q0 45 26.5 73.5t66.5 28.5q35 0 56.5 -21z" />
    <glyph glyph-name="uni021B" unicode="&#x21b;" horiz-adv-x="333" 
d="M217 174q-1 -5 -1 -13q0 -32 26 -32q15 0 33 9l41 -117q-30 -20 -67 -30.5t-73 -10.5q-73 0 -111 40t-38 112q0 20 3 42l32 231h-48l18 129h55l31 116l167 19l-19 -135h94l-40 -129h-71zM201.5 -84q21.5 -21 21.5 -55q0 -25 -8 -46t-29 -57l-56 -97h-86l38 117
q-30 21 -30 57q0 45 26.5 73.5t66.5 28.5q35 0 56.5 -21z" />
    <glyph glyph-name="uni021C" unicode="&#x21c;" horiz-adv-x="432" 
d="M400 669q52 -47 52 -123q0 -74 -43.5 -121t-135.5 -68q76 -1 111.5 -34t35.5 -97q0 -133 -121 -219.5t-305 -125.5l11 139q74 27 118 51.5t69 61t25 92.5q0 34 -16 48t-57 14h-55l40 137h41q44 0 62.5 26.5t18.5 72.5q0 54 -39 54q-22 0 -46 -12.5t-55 -39.5l-71 97
q97 94 221 94q87 0 139 -47z" />
    <glyph glyph-name="uni021D" unicode="&#x21d;" horiz-adv-x="412" 
d="M352.5 516q45.5 -38 45.5 -102q0 -56 -34.5 -90.5t-97.5 -49.5q58 0 88 -25.5t30 -71.5q0 -105 -93 -177.5t-288 -111.5l5 124q99 37 142 73t43 90q0 29 -34 29h-64l29 116h29q26 0 40.5 17.5t14.5 49.5q0 39 -30 39q-17 0 -34 -7t-41 -22l-66 95q43 32 89 47t101 15
q80 0 125.5 -38z" />
    <glyph glyph-name="uni021E" unicode="&#x21e;" horiz-adv-x="536" 
d="M184 0h-194l98 696h194l-37 -260h92l36 260h194l-97 -696h-194l40 284h-92zM467 958l65 -72l-142 -138h-110l-109 148l72 62l103 -87z" />
    <glyph glyph-name="uni021F" unicode="&#x21f;" horiz-adv-x="465" 
d="M439 522q26 -32 26 -88q0 -18 -3 -39l-56 -395h-186l49 358q1 5 1 13q0 12 -6 12q-7 0 -16.5 -17.5t-33.5 -71.5l-41 -294h-186l104 744l188 19l-41 -299q22 38 54.5 64t74.5 26q46 0 72 -32zM438 1006l65 -72l-142 -138h-110l-109 148l72 62l103 -87z" />
    <glyph glyph-name="uni0220" unicode="&#x220;" horiz-adv-x="526" 
d="M507 677.5q32 -38.5 32 -99.5q0 -22 -2 -34l-104 -759h-194l102 741q1 5 1 15q0 31 -22 31q-23 0 -60 -32l-76 -540h-194l98 696h170l5 -46q67 66 152 66q60 0 92 -38.5z" />
    <glyph glyph-name="uni0221" unicode="&#x221;" horiz-adv-x="690" 
d="M644.5 227q26.5 -28 26.5 -76q0 -85 -52.5 -127.5t-136.5 -42.5q-20 0 -29 1l-35 -71l-71 34l27 49q-64 21 -91 76q-28 -47 -63 -68.5t-79 -21.5q-64 0 -99 49t-35 142q0 99 26.5 187t76.5 142t119 54q57 0 89 -43l35 252l184 -19l-81 -581l-1 -7q25 55 53 77t69 22
t67.5 -28zM302 398q-12 20 -30 20q-23 0 -40 -40t-26 -97.5t-9 -106.5q0 -35 6 -46.5t17 -11.5q21 0 50 48zM548.5 120.5q8.5 9.5 8.5 26.5q0 16 -11 16q-9 0 -16 -11.5t-16 -40.5h12q14 0 22.5 9.5z" />
    <glyph glyph-name="uni0222" unicode="&#x222;" horiz-adv-x="543" 
d="M431 401q90 -42 90 -143q0 -85 -37.5 -148t-102 -96t-144.5 -33q-71 0 -122.5 27t-78.5 74t-27 105q0 78 37.5 130.5t102.5 80.5q-68 31 -68 107q0 8 2 26l20 165h194l-24 -180q-2 -18 -2 -23q0 -18 6.5 -26t21.5 -8q19 0 28 14t13 45l24 178h194l-23 -167
q-13 -90 -104 -128zM300.5 156q18.5 35 18.5 94q0 37 -10 56t-30 19q-28 0 -47.5 -36t-19.5 -94q0 -74 42 -74q28 0 46.5 35z" />
    <glyph glyph-name="uni0223" unicode="&#x223;" horiz-adv-x="487" 
d="M392 418q77 -39 77 -152q0 -84 -33.5 -149t-92 -100.5t-132.5 -35.5q-100 0 -152.5 55t-52.5 147q0 84 33 143.5t96 88.5q-54 32 -54 98q0 8 2 28l29 203h182l-34 -242q-1 -5 -1 -15q0 -18 10 -18q8 0 12 7.5t6 25.5l36 242h183l-29 -205q-11 -80 -85 -121zM267 169
q14 52 14 114q0 34 -6 50.5t-20 16.5q-29 0 -45 -53.5t-16 -115.5q0 -33 6.5 -48.5t22.5 -15.5q30 0 44 52z" />
    <glyph glyph-name="uni0224" unicode="&#x224;" horiz-adv-x="442" 
d="M477 549l-279 -394h225l-22 -155l-6 -41q-13 -89 -73.5 -137.5t-145.5 -48.5q-84 0 -134 46l76 106q14 -8 25 -12t24 -4q39 0 45 51l5 40h-252l21 145l279 401h-206l23 150h417z" />
    <glyph glyph-name="uni0225" unicode="&#x225;" horiz-adv-x="383" 
d="M399 403l-195 -262h158l-20 -141l-6 -40q-14 -90 -72 -138t-141 -48q-82 0 -133 46l74 106q17 -9 27.5 -13t25.5 -4q19 0 30 11t13 30l6 50h-201l19 133l195 262h-146l21 139h364z" />
    <glyph glyph-name="uni0226" unicode="&#x226;" horiz-adv-x="506" 
d="M488 0h-198v138h-111l-36 -138h-201l255 696h231zM214 276h76v294zM258 770q-24 24 -24 64q0 51 33.5 84t82.5 33q44 0 68 -24t24 -64q0 -51 -33.5 -84t-82.5 -33q-44 0 -68 24z" />
    <glyph glyph-name="uni0227" unicode="&#x227;" horiz-adv-x="483" 
d="M493 499l-47 -331q-3 -16 -3 -28q0 -13 4.5 -21t14.5 -13l-57 -122q-45 4 -79.5 22.5t-48.5 51.5q-28 -39 -59 -58.5t-74 -19.5q-67 0 -102 51t-35 141q0 104 29 190t94 139t168 53q101 0 195 -55zM216 345.5q-22 -77.5 -22 -178.5q0 -28 5 -39t16 -11t22 12.5t24 34.5
l36 256q-9 3 -18 3q-41 0 -63 -77.5zM251 644q-24 24 -24 64q0 51 33.5 84t82.5 33q44 0 68 -24t24 -64q0 -51 -33.5 -84t-82.5 -33q-44 0 -68 24z" />
    <glyph glyph-name="uni0228" unicode="&#x228;" horiz-adv-x="421" 
d="M263 559l-20 -139h154l-20 -134h-153l-20 -147h188l-20 -139h-143l-8 -49q81 -13 81 -87q0 -31 -15 -62t-51 -52.5t-95 -21.5q-32 0 -59.5 9.5t-45.5 24.5l51 77q25 -13 50 -13q17 0 27.5 7t10.5 22t-17 21t-56 6l29 118h-141l98 696h388l-42 -137h-171z" />
    <glyph glyph-name="uni0229" unicode="&#x229;" horiz-adv-x="469" 
d="M429.5 512q48.5 -42 46.5 -109q-4 -101 -85 -149.5t-200 -62.5v-14q0 -61 56 -61q26 0 50 11t58 35l61 -106q-69 -58 -150 -72l-5 -33q81 -13 81 -87q0 -31 -15 -62t-51 -52.5t-95 -21.5q-32 0 -59.5 9.5t-45.5 24.5l51 77q25 -13 50 -13q17 0 27.5 7t10.5 22t-17 21
t-56 6l25 101q-75 12 -116.5 63t-41.5 141q0 106 32.5 189t97 130.5t158.5 47.5q84 0 132.5 -42zM275.5 336q22.5 32 22.5 68q0 28 -24 28q-25 0 -43.5 -37.5t-28.5 -95.5q51 5 73.5 37z" />
    <glyph glyph-name="uni022A" unicode="&#x22a;" horiz-adv-x="581" 
d="M581 451q0 -130 -36 -236.5t-109.5 -170.5t-181.5 -64q-231 0 -231 266q0 130 35.5 236.5t109 170t181.5 63.5q232 0 232 -265zM270.5 513q-26.5 -62 -39 -149t-12.5 -162q0 -44 11.5 -63t35.5 -19q41 0 67.5 60t38.5 145.5t12 163.5q0 46 -11.5 66t-35.5 20
q-40 0 -66.5 -62zM191.5 766q-20.5 21 -20.5 56q0 43 29 72.5t70 29.5q38 0 58.5 -21t20.5 -56q0 -43 -29 -72.5t-71 -29.5q-37 0 -57.5 21zM403 766q-21 21 -21 56q0 43 29 72.5t70 29.5q37 0 58 -21t21 -56q0 -43 -29 -72.5t-70 -29.5q-37 0 -58 21zM514 964h-274l20 130
h274z" />
    <glyph glyph-name="uni022B" unicode="&#x22b;" horiz-adv-x="494" 
d="M63 34q-53 54 -53 162q0 99 31 180t93 129.5t150 48.5q94 0 147 -54.5t53 -162.5q0 -99 -31.5 -180t-93 -129t-149.5 -48q-94 0 -147 54zM264.5 157.5q16.5 41.5 24.5 100t8 109.5q0 28 -6.5 39t-20.5 11q-36 0 -54.5 -82.5t-18.5 -167.5q0 -28 6.5 -39.5t20.5 -11.5
q24 0 40.5 41.5zM127.5 612q-20.5 21 -20.5 56q0 43 29 72.5t70 29.5q38 0 58.5 -21t20.5 -56q0 -43 -29 -72.5t-71 -29.5q-37 0 -57.5 21zM339 612q-21 21 -21 56q0 43 29 72.5t70 29.5q37 0 58 -21t21 -56q0 -43 -29 -72.5t-70 -29.5q-37 0 -58 21zM453 808h-274l20 130
h274z" />
    <glyph glyph-name="uni022C" unicode="&#x22c;" horiz-adv-x="581" 
d="M513 963h-274l20 130h274zM378 761.5q-12 6.5 -30 18.5q-2 2 -10 7.5t-14 8t-12 2.5q-13 0 -23 -10.5t-24 -33.5l-77 46q25 57 62 94t74 37q19 0 33 -7t30 -20q9 -7 17.5 -12t16.5 -5q11 0 21 10t23 32l77 -43q-24 -57 -61.5 -94t-75.5 -37q-15 0 -27 6.5zM581 451
q0 -130 -36 -236.5t-109.5 -170.5t-181.5 -64q-231 0 -231 266q0 130 35.5 236.5t109 170t181.5 63.5q232 0 232 -265zM270.5 513q-26.5 -62 -39 -149t-12.5 -162q0 -44 11.5 -63t35.5 -19q41 0 67.5 60t38.5 145.5t12 163.5q0 46 -11.5 66t-35.5 20q-40 0 -66.5 -62z" />
    <glyph glyph-name="uni022D" unicode="&#x22d;" horiz-adv-x="494" 
d="M63 34q-53 54 -53 162q0 99 31 180t93 129.5t150 48.5q94 0 147 -54.5t53 -162.5q0 -99 -31.5 -180t-93 -129t-149.5 -48q-94 0 -147 54zM264.5 157.5q16.5 41.5 24.5 100t8 109.5q0 28 -6.5 39t-20.5 11q-36 0 -54.5 -82.5t-18.5 -167.5q0 -28 6.5 -39.5t20.5 -11.5
q24 0 40.5 41.5zM304 599.5q-12 6.5 -30 18.5q-2 2 -10 7.5t-14 8t-12 2.5q-13 0 -23 -10.5t-24 -33.5l-77 46q25 57 62 94t74 37q19 0 33 -7t30 -20q9 -7 17.5 -12t16.5 -5q11 0 21 10t23 32l77 -43q-24 -57 -61.5 -94t-75.5 -37q-15 0 -27 6.5zM445 804h-274l20 130h274z
" />
    <glyph glyph-name="uni022E" unicode="&#x22e;" horiz-adv-x="581" 
d="M581 451q0 -130 -36 -236.5t-109.5 -170.5t-181.5 -64q-231 0 -231 266q0 130 35.5 236.5t109 170t181.5 63.5q232 0 232 -265zM270.5 513q-26.5 -62 -39 -149t-12.5 -162q0 -44 11.5 -63t35.5 -19q41 0 67.5 60t38.5 145.5t12 163.5q0 46 -11.5 66t-35.5 20
q-40 0 -66.5 -62zM292 770q-24 24 -24 64q0 51 33.5 84t82.5 33q44 0 68 -24t24 -64q0 -51 -33.5 -84t-82.5 -33q-44 0 -68 24z" />
    <glyph glyph-name="uni022F" unicode="&#x22f;" horiz-adv-x="494" 
d="M63 34q-53 54 -53 162q0 99 31 180t93 129.5t150 48.5q94 0 147 -54.5t53 -162.5q0 -99 -31.5 -180t-93 -129t-149.5 -48q-94 0 -147 54zM264.5 157.5q16.5 41.5 24.5 100t8 109.5q0 28 -6.5 39t-20.5 11q-36 0 -54.5 -82.5t-18.5 -167.5q0 -28 6.5 -39.5t20.5 -11.5
q24 0 40.5 41.5zM230 644q-24 24 -24 64q0 51 33.5 84t82.5 33q44 0 68 -24t24 -64q0 -51 -33.5 -84t-82.5 -33q-44 0 -68 24z" />
    <glyph glyph-name="uni0230" unicode="&#x230;" horiz-adv-x="581" 
d="M581 451q0 -130 -36 -236.5t-109.5 -170.5t-181.5 -64q-231 0 -231 266q0 130 35.5 236.5t109 170t181.5 63.5q232 0 232 -265zM270.5 513q-26.5 -62 -39 -149t-12.5 -162q0 -44 11.5 -63t35.5 -19q41 0 67.5 60t38.5 145.5t12 163.5q0 46 -11.5 66t-35.5 20
q-40 0 -66.5 -62zM285 758q-24 24 -24 64q0 51 33.5 84t82.5 33q44 0 68 -24t24 -64q0 -51 -33.5 -84t-82.5 -33q-44 0 -68 24zM523 964h-274l20 130h274z" />
    <glyph glyph-name="uni0231" unicode="&#x231;" horiz-adv-x="494" 
d="M63 34q-53 54 -53 162q0 99 31 180t93 129.5t150 48.5q94 0 147 -54.5t53 -162.5q0 -99 -31.5 -180t-93 -129t-149.5 -48q-94 0 -147 54zM264.5 157.5q16.5 41.5 24.5 100t8 109.5q0 28 -6.5 39t-20.5 11q-36 0 -54.5 -82.5t-18.5 -167.5q0 -28 6.5 -39.5t20.5 -11.5
q24 0 40.5 41.5zM222 612q-24 24 -24 64q0 51 33.5 84t82.5 33q44 0 68 -24t24 -64q0 -51 -33.5 -84t-82.5 -33q-44 0 -68 24zM454 826h-274l20 130h274z" />
    <glyph glyph-name="uni0232" unicode="&#x232;" horiz-adv-x="514" 
d="M592 696l-239 -439l-36 -257h-194l36 257l-117 439h204l33 -294l107 294h206zM458 775h-274l20 130h274z" />
    <glyph glyph-name="uni0233" unicode="&#x233;" horiz-adv-x="445" 
d="M298 0q-44 -117 -124 -169.5t-199 -57.5l-2 127q65 8 99 29t58 71h-66l-41 534h192l-17 -416l104 416h196zM411 649h-274l20 130h274z" />
    <glyph glyph-name="uni0234" unicode="&#x234;" horiz-adv-x="425" 
d="M379.5 227q26.5 -28 26.5 -76q0 -85 -52.5 -127.5t-136.5 -42.5q-20 0 -29 1l-35 -71l-71 34l29 53q-51 19 -78 60t-27 98q0 18 3 37l77 551l188 19l-84 -605v-4q24 57 52.5 79t69.5 22t67.5 -28zM283.5 120.5q8.5 9.5 8.5 26.5q0 16 -11 16q-9 0 -16 -11.5t-16 -40.5h11
q15 0 23.5 9.5z" />
    <glyph glyph-name="uni0235" unicode="&#x235;" horiz-adv-x="665" 
d="M619.5 227q26.5 -28 26.5 -76q0 -85 -52.5 -127.5t-136.5 -42.5q-20 0 -29 1l-35 -71l-71 34l29 53q-51 19 -77.5 59.5t-26.5 97.5q0 19 3 38l20 165q1 5 1 13q0 12 -6 12q-7 0 -16.5 -17.5t-33.5 -71.5l-41 -294h-186l74 534h162l1 -77q62 97 142 97q47 0 73 -31.5
t26 -88.5q0 -18 -3 -39l-30 -216q-2 -16 -2 -20q25 53 53 74.5t68 21.5q41 0 67.5 -28zM523.5 120.5q8.5 9.5 8.5 26.5q0 16 -11 16q-9 0 -16 -11.5t-16 -40.5h11q15 0 23.5 9.5z" />
    <glyph glyph-name="uni0236" unicode="&#x236;" horiz-adv-x="449" 
d="M403.5 227q26.5 -28 26.5 -76q0 -85 -52.5 -127.5t-136.5 -42.5q-20 0 -29 1l-35 -71l-71 34l29 52q-53 18 -79.5 57t-26.5 96q0 22 2 34l30 221h-48l20 129h53l31 116l167 19l-18 -135h93l-40 -129h-71l-33 -242l-1 -7q24 54 54 76.5t68 22.5q41 0 67.5 -28z
M307.5 120.5q8.5 9.5 8.5 26.5q0 16 -11 16q-9 0 -16 -11.5t-16 -40.5h12q14 0 22.5 9.5z" />
    <glyph glyph-name="uni0237" unicode="&#x237;" horiz-adv-x="235" 
d="M-114 -90q52 21 77 53.5t34 99.5l65 471h187l-65 -461q-14 -94 -51 -152.5t-86.5 -89.5t-119.5 -57z" />
    <glyph glyph-name="uni0238" unicode="&#x238;" horiz-adv-x="729" 
d="M692 504.5q30 -48.5 30 -138.5q0 -96 -26.5 -185t-75 -144.5t-111.5 -55.5q-28 0 -52.5 18.5t-41.5 56.5l-16 -56h-145v52q-45 -71 -109 -71q-69 0 -103 52t-34 147q0 93 27 179.5t76.5 140t112.5 53.5q25 0 46 -14t32 -41l34 246l189 19l-37 -270q21 28 51 44t65 16
q58 0 88 -48.5zM255 149l33 242q-6 14 -12 20t-15 6q-27 0 -44.5 -71t-17.5 -158q0 -41 5.5 -56t16.5 -15q16 0 34 32zM513.5 190.5q17.5 74.5 17.5 159.5q0 38 -4.5 52t-14.5 14q-16 0 -39 -31l-31 -230q6 -22 12.5 -30.5t15.5 -8.5q26 0 43.5 74.5z" />
    <glyph glyph-name="uni0239" unicode="&#x239;" horiz-adv-x="724" 
d="M684.5 503.5q30.5 -50.5 30.5 -142.5q0 -109 -26 -195.5t-72 -135.5t-103 -49q-35 0 -56 12.5t-37 40.5l-33 -241l-189 -19l36 254q-41 -47 -96 -47q-65 0 -97.5 52t-32.5 146q0 100 26 185.5t75.5 137.5t115.5 52q60 0 92 -58l7 38h145v-42q28 34 57.5 48t67.5 14
q59 0 89.5 -50.5zM250 141l37 258q-10 19 -23 19q-31 0 -47.5 -81t-16.5 -159q0 -35 5.5 -48t15.5 -13q13 0 29 24zM509 191q17 74 17 165q0 36 -5 48.5t-15 12.5q-14 0 -36 -27l-34 -247q12 -26 29 -26q27 0 44 74z" />
    <glyph glyph-name="uni023A" unicode="&#x23a;" horiz-adv-x="506" 
d="M316 0l-5 138h-71l-76 -214l-53 14l71 200h-18l-40 -138h-182l255 696h182l22 62l53 -14l-24 -69l58 -675h-172zM200 267h27l71 199l-5 124zM285 267h21l-2 52z" />
    <glyph glyph-name="uni023B" unicode="&#x23b;" horiz-adv-x="488" 
d="M338.5 141.5q23.5 12.5 58.5 38.5l69 -106q-98 -94 -217 -94q-27 0 -47 4l-22 -60l-58 16l22 62q-58 28 -89.5 90.5t-31.5 159.5q0 130 37.5 235t113 167t183.5 62q25 0 44 -4l16 46l57 -16l-17 -47q46 -21 80 -61l-98 -100q-16 16 -31 24l-151 -421q14 -8 33 -8
q25 0 48.5 12.5zM223 221l127 352q-44 -3 -72.5 -54.5t-41.5 -126.5t-13 -152v-19z" />
    <glyph glyph-name="uni023C" unicode="&#x23c;" horiz-adv-x="402" 
d="M282 131.5q16 6.5 39 20.5l64 -108q-75 -64 -170 -64q-18 0 -26 1l-20 -57l-50 15l19 53q-61 21 -94 76t-33 136q0 101 33.5 180.5t96 124.5t145.5 45q28 0 47 -4l19 53l50 -15l-19 -55q36 -17 64 -50l-88 -99q-9 8 -23 16l-96 -274q3 -1 11 -1q15 0 31 6.5zM205 183
l80 228q-42 -7 -61.5 -68.5t-19.5 -141.5q0 -13 1 -18z" />
    <glyph glyph-name="uni023D" unicode="&#x23d;" horiz-adv-x="446" 
d="M224 152h208l-43 -152h-381l41 291h-44l19 144h45l37 261h194l-36 -261h48l-19 -144h-50z" />
    <glyph glyph-name="uni023E" unicode="&#x23e;" 
d="M530 734l-21 -38h18l-42 -140h-53l-107 -193l-50 -363h-151l-42 -76l-44 24l92 165l60 443h-149l22 140h389l34 62zM343 500l31 56h-23z" />
    <glyph glyph-name="uni023F" unicode="&#x23f;" horiz-adv-x="408" 
d="M360.5 75.5q-28.5 -45.5 -72.5 -70.5t-87 -25q-8 0 -24 2q18 -8 30.5 -17.5t28.5 -24.5q16 -16 27 -23t26 -7q16 0 33 7l16 -116q-42 -26 -95 -26q-49 0 -81.5 20t-53 50.5t-46.5 83.5q-25 49 -44.5 82t-48.5 62l85 82q27 -21 51 -32.5t49 -11.5q23 0 35.5 10.5
t12.5 29.5t-15.5 33.5t-56.5 33.5q-55 25 -79.5 57t-24.5 86q0 56 27.5 100t76 68.5t109.5 24.5q53 0 99 -18.5t78 -50.5l-78 -98q-47 35 -87 35q-20 0 -31.5 -9t-11.5 -24t16 -28.5t63 -36.5q51 -24 76.5 -57t25.5 -87q0 -59 -28.5 -104.5z" />
    <glyph glyph-name="uni0240" unicode="&#x240;" horiz-adv-x="383" 
d="M-16 133l195 262h-146l21 139h364l-19 -131l-236 -311q35 -19 52.5 -47t31.5 -68q13 -35 25.5 -51t37.5 -16q16 0 29 5l18 -118q-42 -22 -91 -22q-43 0 -70 14t-42 35t-34 57q-20 37 -36 59t-45 39t-74 21z" />
    <glyph glyph-name="uni0241" unicode="&#x241;" horiz-adv-x="459" 
d="M134 336l33 13q54 21 81.5 58t27.5 98q0 71 -49 71q-24 0 -46 -12t-51 -38l-75 95q52 49 101.5 71.5t114.5 22.5q93 0 148.5 -52.5t55.5 -143.5q0 -84 -31 -137.5t-97 -83.5l-26 -12l-40 -286h-194z" />
    <glyph glyph-name="uni0242" unicode="&#x242;" horiz-adv-x="396" 
d="M83 206l26 10q49 18 74.5 50.5t25.5 86.5q0 30 -10.5 46.5t-26.5 16.5q-19 0 -36.5 -11.5t-38.5 -33.5l-70 94q82 88 187 88q82 0 133 -51t51 -134q0 -80 -27.5 -129.5t-82.5 -72.5l-26 -11l-21 -155h-186z" />
    <glyph glyph-name="uni0243" unicode="&#x243;" horiz-adv-x="518" 
d="M506 230q0 -114 -82.5 -172t-216.5 -58h-211l25 179h-28l12 85h28l61 432h186q115 0 180.5 -40.5t65.5 -117.5q0 -68 -40 -111t-102 -59q122 -27 122 -138zM312.5 449.5q16.5 24.5 16.5 65.5q0 45 -48 45h-13l-19 -135h11q36 0 52.5 24.5zM289 169.5q21 29.5 21 72.5
q0 29 -13 43t-44 14h-21l-5 -35h56l-12 -85h-56l-5 -39h17q41 0 62 29.5z" />
    <glyph glyph-name="uni0244" unicode="&#x244;" horiz-adv-x="557" 
d="M589 496h-35l-41 -292q-14 -98 -83.5 -160.5t-184.5 -62.5q-110 0 -166 52.5t-56 137.5q0 20 3 39l40 286h-34l15 103h33l14 97h194l-13 -97h98l14 97h195l-14 -97h36zM359 496h-99l-43 -311q-1 -6 -1 -17q0 -45 41 -45q50 0 59 64z" />
    <glyph glyph-name="uni0245" unicode="&#x245;" horiz-adv-x="506" 
d="M428 696l60 -696h-195v560l-147 -560h-204l255 696h231z" />
    <glyph glyph-name="uni0246" unicode="&#x246;" horiz-adv-x="421" 
d="M434 559h-27l-50 -139h40l-20 -134h-68l-53 -147h136l-20 -139h-166l-27 -76l-57 16l22 60h-154l98 696h306l22 62l57 -16l-17 -46h20zM295 420l49 139h-81l-20 -139h52zM210 186l36 100h-22z" />
    <glyph glyph-name="uni0247" unicode="&#x247;" horiz-adv-x="469" 
d="M441.5 500.5q34.5 -37.5 34.5 -91.5q0 -172 -254 -212l-25 -72q17 -9 50 -9q26 0 50 11t58 35l61 -106q-88 -76 -200 -76q-39 0 -68 7l-22 -63l-50 15l23 66q-43 24 -66.5 70t-23.5 113q0 104 32 186.5t95.5 130.5t155.5 49l17 49l50 -15l-13 -38q61 -12 95.5 -49.5z
M208 386.5q-18 -41.5 -27 -97.5q6 0 18 2l53 150q-26 -13 -44 -54.5zM318 404q0 22 -12 33l-46 -130q58 28 58 97z" />
    <glyph glyph-name="uni0248" unicode="&#x248;" horiz-adv-x="291" 
d="M293 271h-46l-23 -167q-13 -92 -51 -149t-88.5 -86.5t-121.5 -53.5l-32 136q50 24 70.5 60.5t30.5 106.5l21 153h-48l19 144h50l39 281h194l-39 -281h44z" />
    <glyph glyph-name="uni0249" unicode="&#x249;" horiz-adv-x="295" 
d="M283 186h-49l-16 -113q-14 -94 -51 -152.5t-86.5 -89.5t-119.5 -57l-41 136q52 21 77 53.5t34 99.5l17 123h-53l19 131h52l30 217h187l-31 -217h50zM138 644q-24 24 -24 64q0 51 33.5 84t82.5 33q44 0 68 -24t24 -64q0 -51 -33.5 -84t-82.5 -33q-44 0 -68 24z" />
    <glyph glyph-name="uni024A" unicode="&#x24a;" horiz-adv-x="575" 
d="M627 -183q-62 -43 -143 -43q-85 0 -131.5 42t-46.5 122q0 10 2 34l3 28l1 10q-42 -29 -97 -29q-96 0 -145 66.5t-49 184.5q0 130 36 241t101 177t149 66q41 0 67.5 -18t45.5 -51l17 49h164l-96 -696l-5 -43q-2 -20 5.5 -31.5t24.5 -11.5q14 0 26 3.5t30 12.5zM332 151
l54 391q-23 33 -47 33q-38 0 -65 -51.5t-40.5 -132t-13.5 -165.5q0 -59 11.5 -84t38.5 -25q34 0 62 34z" />
    <glyph glyph-name="uni024B" unicode="&#x24b;" horiz-adv-x="490" 
d="M451 -75l9 -134q-49 -17 -97 -17q-65 0 -97 34t-32 96q0 9 2 31l7 65l4 35q-18 -28 -43 -41.5t-59 -13.5q-66 0 -101.5 51.5t-35.5 140.5q0 166 70.5 274t220.5 108q106 0 200 -55l-70 -499l-7 -55v-6q0 -16 15 -16q6 0 14 2zM268 164l36 256q-9 3 -22 3q-41 0 -64 -74.5
t-23 -181.5q0 -27 5.5 -38.5t16.5 -11.5q24 0 51 47z" />
    <glyph glyph-name="uni024C" unicode="&#x24c;" horiz-adv-x="527" 
d="M513 379.5q-30 -50.5 -93 -89.5l94 -290h-200l-67 251h-19l-35 -251h-194l35 251h-31l20 133h30l44 312h198q248 0 248 -190q0 -76 -30 -126.5zM272 561l-25 -177h17q43 0 63 33.5t20 83.5q0 32 -14.5 46t-44.5 14h-16z" />
    <glyph glyph-name="uni024D" unicode="&#x24d;" horiz-adv-x="366" 
d="M417 542l-57 -182q-22 6 -37 6q-30 0 -50.5 -32t-35.5 -88h49l-19 -129h-51l-16 -117h-186l16 117h-51l19 129h50l40 288h159v-86q49 103 127 103q22 0 43 -9z" />
    <glyph glyph-name="uni024E" unicode="&#x24e;" horiz-adv-x="516" 
d="M553 620h28l-15 -103h-69l-142 -260l-36 -257h-194l36 257l-69 260h-75l15 103h32l-20 76h184l13 -76h136l31 76h186zM280 382l55 135h-77z" />
    <glyph glyph-name="uni024F" unicode="&#x24f;" horiz-adv-x="481" 
d="M464 398h35l-16 -112h-61l-107 -286q-44 -117 -124 -169.5t-199 -57.5l-2 127q65 8 99 29t58 71h-66l-22 286h-56l16 112h31l-10 136h192l-6 -136h59l34 136h196zM215 118l42 168h-35z" />
    <glyph glyph-name="uni0250" unicode="&#x250;" horiz-adv-x="451" 
d="M194 171q-1 -7 -1 -19q0 -20 10 -28t36 -8q44 0 99 21l36 -116q-40 -19 -91 -29.5t-97 -10.5q-180 0 -180 144q0 19 3 38l27 202q3 17 3 28q0 13 -4.5 21t-14.5 13l57 122q41 -4 73 -19t48 -42q58 65 136 65q57 0 90.5 -38.5t33.5 -101.5q0 -104 -67 -158t-175 -54h-18z
M224 398l-13 -97h5q28 0 43 21t15 60q0 19 -4.5 28t-14.5 9q-15 0 -31 -21z" />
    <glyph glyph-name="uni0251" unicode="&#x251;" horiz-adv-x="484" 
d="M444 140q0 -13 4.5 -21t14.5 -13l-57 -122q-45 4 -79.5 22.5t-48.5 51.5q-28 -39 -59 -58.5t-74 -19.5q-67 0 -102 51t-35 141q0 106 26 192.5t76.5 137.5t121.5 51q40 0 67 -15t44 -49l25 45h128l-49 -366q-3 -16 -3 -28zM292 395q-10 27 -30 27q-30 0 -48.5 -78
t-18.5 -177q0 -28 5 -39t16 -11t22 12.5t24 34.5z" />
    <glyph glyph-name="uni0252" unicode="&#x252;" horiz-adv-x="484" 
d="M441 503q35 -51 35 -141q0 -106 -26 -192.5t-76.5 -137.5t-121.5 -51q-40 0 -67 15t-44 49l-25 -45h-128l49 366q3 17 3 28q0 13 -4.5 21t-14.5 13l57 122q45 -4 79.5 -22.5t48.5 -51.5q28 39 59 58.5t74 19.5q67 0 102 -51zM270.5 190q18.5 78 18.5 177q0 28 -5 39
t-16 11t-22 -12.5t-24 -34.5l-30 -231q11 -27 30 -27q30 0 48.5 78z" />
    <glyph glyph-name="uni0253" unicode="&#x253;" horiz-adv-x="495" 
d="M454.5 508q32.5 -46 32.5 -132q0 -396 -295 -396q-45 0 -97.5 12.5t-103.5 33.5l70 507l8 56q11 78 66.5 126t148.5 48q38 0 73.5 -10.5t61.5 -26.5l-66 -115q-34 15 -57 15q-19 0 -29.5 -13t-14.5 -41l-5 -39l-4 -37q20 26 51 42t67 16q61 0 93.5 -46zM278 193.5
q20 78.5 20 168.5q0 33 -6 44t-17 11q-22 0 -49 -40l-35 -255q16 -7 28 -7q39 0 59 78.5z" />
    <glyph glyph-name="uni0254" unicode="&#x254;" horiz-adv-x="393" 
d="M20 -4q-35 15 -67 46l97 101q17 -14 29 -20t29 -6q44 0 65 63t21 158q0 43 -8.5 61t-28.5 18q-33 0 -72 -30l-60 103q40 32 79.5 48t89.5 16q87 0 138 -56t51 -159q0 -115 -34 -195t-96 -121.5t-145 -41.5q-53 0 -88 15z" />
    <glyph glyph-name="uni0255" unicode="&#x255;" horiz-adv-x="439" 
d="M394 235q27 -28 27 -79q0 -84 -53.5 -129.5t-136.5 -45.5q-31 0 -54 5l-38 -75l-71 34l38 70q-46 26 -70.5 75t-24.5 119q0 99 33.5 177.5t96 123t145.5 44.5q100 0 161 -71l-88 -99q-34 28 -65 28q-47 0 -68.5 -63.5t-21.5 -147.5v-15q45 77 118 77q45 0 72 -28z
M296.5 121.5q8.5 10.5 9.5 30.5q0 19 -14 19q-25 0 -46 -56q12 -4 28 -4q14 0 22.5 10.5z" />
    <glyph glyph-name="uni0256" unicode="&#x256;" horiz-adv-x="496" 
d="M557 -183q-64 -43 -145 -43q-80 0 -125 42t-45 121q0 11 2 35l3 28l5 39q-42 -59 -111 -59q-64 0 -99 49t-35 142q0 99 26.5 187t76.5 142t119 54q57 0 89 -43l35 252l184 -19l-104 -744l-6 -47l-1 -10q0 -16 9 -25t25 -9q15 0 25.5 3.5t26.5 11.5zM269 163l33 235
q-7 11 -13.5 15.5t-16.5 4.5q-23 0 -40 -40t-26 -97.5t-9 -106.5q0 -35 6 -46.5t17 -11.5q22 0 49 47z" />
    <glyph glyph-name="uni0257" unicode="&#x257;" horiz-adv-x="495" 
d="M658 725l-68 -112q-23 13 -42 13q-17 0 -23.5 -10.5t-10.5 -36.5l-7 -46l-74 -533h-165l2 56q-27 -38 -57 -57t-72 -19q-64 0 -99 49t-35 142q0 99 26.5 187t76.5 142t119 54q57 0 89 -43l3 22l6 45q10 80 63.5 132.5t144.5 52.5q74 0 123 -38zM302 398q-7 11 -13.5 15.5
t-16.5 4.5q-23 0 -40 -40t-26 -97.5t-9 -106.5q0 -35 6 -46.5t17 -11.5q22 0 49 47z" />
    <glyph glyph-name="uni0258" unicode="&#x258;" horiz-adv-x="476" 
d="M416 492q49 -62 49 -160q0 -166 -76 -258.5t-211 -92.5q-113 0 -179 78l89 95q21 -19 42.5 -28.5t46.5 -9.5q65 0 89 74q-112 9 -176 46t-64 121q0 54 27.5 98.5t80 71.5t124.5 27q109 0 158 -62zM228 318q14 -16 55 -19q1 17 1 54q0 41 -7.5 60.5t-25.5 19.5
q-17 0 -27 -19t-10 -55q0 -25 14 -41z" />
    <glyph glyph-name="uni0259" unicode="&#x259;" horiz-adv-x="469" 
d="M406 502q54 -52 54 -156q0 -105 -32.5 -188t-97 -130.5t-158.5 -47.5q-84 0 -132.5 42t-46.5 109q4 101 85 149.5t200 62.5v14q0 61 -56 61q-26 0 -50 -11t-58 -35l-61 106q88 76 203 76q96 0 150 -52zM238.5 139.5q18.5 37.5 28.5 95.5q-51 -5 -73.5 -37t-22.5 -68
q0 -28 24 -28q25 0 43.5 37.5z" />
    <glyph glyph-name="uni025A" unicode="&#x25a;" horiz-adv-x="719" 
d="M739 340q-50 -36 -112 -36q-58 0 -86.5 27.5t-36.5 75.5l-3 17l-44 -29q3 -27 3 -57q-2 -104 -34.5 -184.5t-96.5 -127t-157 -46.5q-84 0 -132.5 42t-46.5 109q4 101 85 149.5t200 62.5v14q0 61 -56 61q-26 0 -50 -11t-58 -35l-61 106q88 76 204 76q56 0 98.5 -18.5
t68.5 -54.5l83 53h145l-9 -64l-1 -10q0 -16 8 -24.5t21 -8.5q16 0 39 9zM238.5 139.5q18.5 37.5 28.5 95.5q-51 -5 -73.5 -37t-22.5 -68q0 -28 24 -28q25 0 43.5 37.5z" />
    <glyph glyph-name="uni025B" unicode="&#x25b;" horiz-adv-x="420" 
d="M51.5 23.5q-53.5 42.5 -53.5 118.5q0 61 41.5 99t111.5 43q-101 22 -101 110q0 74 58 117t147 43q52 0 98.5 -18t80.5 -56l-83 -86q-38 32 -74 32q-22 0 -33.5 -13.5t-11.5 -36.5q0 -22 10.5 -34t37.5 -12h39l-35 -116h-39q-29 0 -43.5 -14.5t-14.5 -39.5
q0 -23 11.5 -35.5t34.5 -12.5q22 0 43.5 9t48.5 28l59 -100q-35 -32 -86 -50t-109 -18q-84 0 -137.5 42.5z" />
    <glyph glyph-name="uni025C" unicode="&#x25c;" horiz-adv-x="415" 
d="M362 517.5q46 -36.5 46 -95.5q0 -54 -36 -90.5t-109 -48.5q123 -11 123 -116q0 -48 -24.5 -90t-76.5 -69t-131 -27q-111 0 -180 66l90 103q25 -21 44 -29.5t37 -8.5q25 0 38.5 17t13.5 49q0 20 -9.5 28t-30.5 8h-64l31 116h37q28 0 42.5 16t14.5 44q0 19 -7 27.5t-23 8.5
q-32 0 -76 -29l-65 95q87 62 192 62q77 0 123 -36.5z" />
    <glyph glyph-name="uni025D" unicode="&#x25d;" horiz-adv-x="653" 
d="M673 340q-50 -36 -112 -36q-58 0 -86.5 27.5t-36.5 75.5l-3 17l-28 -18q-5 -48 -41 -80t-103 -43q123 -11 123 -116q0 -48 -24.5 -90t-76.5 -69t-131 -27q-111 0 -180 66l90 103q25 -21 44 -29.5t37 -8.5q25 0 38.5 17t13.5 49q0 20 -9.5 28t-30.5 8h-64l31 116h37
q28 0 42.5 16t14.5 44q0 19 -7 27.5t-23 8.5q-32 0 -76 -29l-65 95q87 62 192 62q48 0 85.5 -15t58.5 -42l58 37h145l-9 -64l-1 -10q0 -16 8 -24.5t21 -8.5q16 0 39 9z" />
    <glyph glyph-name="uni025E" unicode="&#x25e;" horiz-adv-x="485" 
d="M63 36q-53 55 -53 158q0 114 35.5 195t100.5 123t151 42q81 0 131.5 -35.5t50.5 -98.5q0 -53 -33.5 -89t-97.5 -48q56 -6 82.5 -35.5t26.5 -76.5q0 -49 -24 -92t-77.5 -70.5t-138.5 -27.5q-101 0 -154 55zM274 180q0 18 -7.5 26t-25.5 8h-24l35 116h7q13 0 23.5 15.5
t10.5 44.5q0 36 -26 36q-40 0 -61 -69.5t-21 -168.5q0 -42 9.5 -59t32.5 -17q47 0 47 68z" />
    <glyph glyph-name="uni025F" unicode="&#x25f;" horiz-adv-x="295" 
d="M283 186h-49l-16 -113q-14 -94 -51 -152.5t-86.5 -89.5t-119.5 -57l-41 136q52 21 77 53.5t34 99.5l17 123h-53l19 131h52l30 217h187l-31 -217h50z" />
    <glyph glyph-name="uni0260" unicode="&#x260;" horiz-adv-x="489" 
d="M652 725l-68 -112q-23 13 -42 13q-17 0 -23.5 -10.5t-10.5 -36.5l-7 -46l-70 -498q-19 -133 -81.5 -197t-180.5 -64q-101 0 -184 57l64 119q33 -19 59 -27.5t54 -8.5q34 0 55.5 18.5t28.5 67.5l9 63q-42 -64 -112 -64q-64 0 -98.5 51.5t-34.5 140.5q0 101 28.5 183
t88 131t148.5 49q19 0 42 -5l4 29q10 80 63.5 132.5t144.5 52.5q74 0 123 -38zM242 149q13 13 25 34l33 238q-14 2 -20 2q-40 0 -61.5 -69t-21.5 -168q0 -28 5 -39t16 -11t24 13z" />
    <glyph glyph-name="uni0261" unicode="&#x261;" horiz-adv-x="485" 
d="M400.5 539.5q50.5 -14.5 95.5 -40.5l-65 -464q-19 -133 -81.5 -197t-180.5 -64q-101 0 -184 57l64 119q33 -19 59 -27.5t54 -8.5q34 0 55.5 18.5t28.5 67.5l9 63q-42 -64 -112 -64q-64 0 -98.5 51.5t-34.5 140.5q0 160 69 261.5t220 101.5q51 0 101.5 -14.5zM218.5 354
q-21.5 -69 -21.5 -168q0 -28 5 -39t16 -11t24 13t25 34l32 237q-9 3 -19 3q-40 0 -61.5 -69z" />
    <glyph glyph-name="uni0262" unicode="&#x262;" horiz-adv-x="473" 
d="M478 476l-97 -93q-20 20 -40.5 30t-46.5 10q-52 0 -73.5 -67.5t-21.5 -164.5q0 -43 8.5 -60t27.5 -17q16 0 33 7l11 80h-34l2 117h215l-38 -268q-41 -32 -94.5 -49.5t-114.5 -17.5q-105 0 -155.5 51.5t-50.5 155.5q0 112 36.5 194.5t101 126t147.5 43.5q117 0 184 -78z
" />
    <glyph glyph-name="uni0263" unicode="&#x263;" horiz-adv-x="438" 
d="M318.5 6.5q9.5 -37.5 9.5 -75.5q0 -74 -43.5 -115.5t-124.5 -41.5q-63 0 -97 31.5t-34 82.5q0 47 22 92t67 112l1 1l-96 441h195l5 -323l76 323h192l-200 -443l-1 -1q19 -46 28.5 -83.5zM200 -76q0 23 -11 69q-31 -52 -31 -86q0 -21 16 -21q26 0 26 38z" />
    <glyph glyph-name="uni0264" unicode="&#x264;" horiz-adv-x="495" 
d="M540 520l-66 -108q-17 9 -34 9q-15 0 -24.5 -7.5t-20.5 -29.5l-69 -138q18 -41 26 -68t8 -56q0 -62 -36.5 -101.5t-109.5 -39.5q-60 0 -91 29.5t-31 76.5q0 39 17.5 77.5t54.5 85.5l-34 137q-4 19 -11.5 26.5t-21.5 7.5q-17 0 -37 -9l-33 110q28 16 53 23.5t55 7.5
q56 0 82 -33.5t35 -105.5l7 -71l22 79q23 70 58.5 100.5t96.5 30.5q57 0 104 -33zM234 168q-23 -42 -23 -63q0 -17 13 -17q9 0 14 7.5t5 21.5q0 20 -9 51z" />
    <glyph glyph-name="uni0265" unicode="&#x265;" horiz-adv-x="462" 
d="M226 57q-22 -34 -51 -55.5t-73 -21.5q-48 0 -75 32.5t-27 89.5q0 18 3 37l56 395h186l-51 -362l-1 -11q0 -14 10 -14q8 0 19.5 13t22.5 33l47 341h186l-104 -742l-188 -19z" />
    <glyph glyph-name="uni0266" unicode="&#x266;" horiz-adv-x="464" 
d="M438 522q26 -32 26 -88q0 -18 -3 -39l-56 -395h-186l49 358q1 5 1 13q0 12 -6 12q-7 0 -16.5 -17.5t-33.5 -71.5l-41 -294h-186l75 533l8 56q11 78 66.5 126t148.5 48q38 0 73.5 -10.5t61.5 -26.5l-66 -115q-34 15 -57 15q-19 0 -29.5 -13t-14.5 -41l-5 -39l-7 -67
q19 36 51.5 62t74.5 26q46 0 72 -32z" />
    <glyph glyph-name="uni0267" unicode="&#x267;" horiz-adv-x="464" 
d="M438 522q26 -32 26 -88q0 -18 -3 -39l-56 -395l-5 -35q-14 -96 -73.5 -143.5t-150.5 -47.5q-45 0 -76.5 12.5t-56.5 33.5l74 106q17 -9 27.5 -13t25.5 -4q19 0 29.5 11t12.5 30l7 50l49 358q1 5 1 13q0 12 -6 12q-7 0 -16.5 -17.5t-33.5 -71.5l-41 -294h-186l75 533l8 56
q11 78 66.5 126t148.5 48q38 0 73.5 -10.5t61.5 -26.5l-66 -115q-34 15 -57 15q-19 0 -29.5 -13t-14.5 -41l-5 -39l-7 -67q19 36 51.5 62t74.5 26q46 0 72 -32z" />
    <glyph glyph-name="uni0268" unicode="&#x268;" horiz-adv-x="289" 
d="M130 644q-24 24 -24 64q0 51 33.5 84t82.5 33q44 0 68 -24t24 -64q0 -51 -33.5 -84t-82.5 -33q-44 0 -68 24zM275 534l-26 -188h51l-19 -129h-50l-30 -217h-186l30 217h-52l19 129h51l26 188h186z" />
    <glyph glyph-name="uni0269" unicode="&#x269;" horiz-adv-x="252" 
d="M57 534h184l-49 -378v-8q0 -18 14 -18q5 0 13 2l11 -131q-47 -20 -101 -20q-63 0 -95.5 33t-32.5 93q0 22 2 33z" />
    <glyph glyph-name="uni026A" unicode="&#x26a;" horiz-adv-x="280" 
d="M292 404h-40l-38 -274h40l-18 -130h-266l18 130h40l38 274h-40l18 130h266z" />
    <glyph glyph-name="uni026B" unicode="&#x26b;" horiz-adv-x="429" 
d="M290 156q-1 -4 -1 -10q0 -16 15 -16q5 0 13 2l11 -131q-47 -20 -101 -20q-63 0 -96 33t-33 92q0 16 3 34l25 182q-13 -5 -24 -16.5t-26 -32.5l-81 51q37 61 71.5 96.5t79.5 42.5l39 281l187 19l-48 -355q11 6 20.5 16.5t22.5 28.5l84 -49q-36 -59 -69.5 -94t-76.5 -44z
" />
    <glyph glyph-name="uni026C" unicode="&#x26c;" horiz-adv-x="413" 
d="M316 156q-1 -4 -1 -10q0 -16 15 -16q5 0 13 2l11 -131q-47 -20 -101 -20q-63 0 -96 33t-33 92q0 16 3 34l13 95q-67 2 -101.5 33.5t-34.5 84.5q0 62 38.5 98t100.5 36q14 0 32 -4l36 261l187 19l-58 -428h1q27 3 52 7l3 -90q-30 -11 -67 -14h-2zM154 332l9 63q-9 3 -16 3
q-14 0 -21.5 -9.5t-7.5 -25.5q0 -31 36 -31z" />
    <glyph glyph-name="uni026D" unicode="&#x26d;" horiz-adv-x="235" 
d="M297 -183q-64 -43 -145 -43q-80 0 -125 42t-45 121q0 11 2 35l3 28l104 744l188 19l-106 -763l-6 -47l-1 -10q0 -16 9 -25t25 -9q15 0 25.5 3.5t26.5 11.5z" />
    <glyph glyph-name="uni026E" unicode="&#x26e;" horiz-adv-x="620" 
d="M599 407l-160 -197q144 -23 144 -163q0 -84 -36 -146t-98.5 -95t-140.5 -33q-135 0 -199 110l110 88q23 -29 44 -42t47 -13q38 0 61 32.5t23 93.5q0 38 -16.5 53.5t-46.5 15.5h-87l15 104l148 181h-184l-32 -240q-1 -4 -1 -10q0 -16 15 -16q5 0 13 2l11 -131
q-47 -20 -101 -20q-63 0 -96 33t-33 92q0 16 3 34l84 604l187 19l-31 -229h376z" />
    <glyph glyph-name="uni026F" unicode="&#x26f;" horiz-adv-x="679" 
d="M691 534l-74 -534h-162l-1 74q-59 -94 -132 -94q-39 0 -63.5 22.5t-32.5 63.5q-56 -86 -127 -86q-47 0 -73 32t-26 88q0 18 3 39l56 395h186l-49 -358q-1 -7 -1 -17q0 -13 5 -13q6 0 14 18t25 68l43 302h186l-49 -358q-1 -7 -1 -17q0 -13 5 -13q6 0 14.5 19t26.5 72
l41 297h186z" />
    <glyph glyph-name="uni0270" unicode="&#x270;" horiz-adv-x="675" 
d="M691 534l-104 -742l-188 -18l39 284q-46 -78 -116 -78q-39 0 -63.5 22.5t-32.5 63.5q-56 -86 -127 -86q-47 0 -73 32t-26 88q0 18 3 39l56 395h186l-49 -358q-1 -7 -1 -17q0 -13 5 -13q6 0 15.5 15.5t20.5 46.5l46 326h186l-49 -358q-1 -7 -1 -17q0 -13 5 -13
q6 0 16.5 18t22.5 53l43 317h186z" />
    <glyph glyph-name="uni0271" unicode="&#x271;" horiz-adv-x="679" 
d="M653 522.5q26 -31.5 26 -88.5q0 -18 -3 -39l-56 -395l-5 -35q-14 -96 -73.5 -143.5t-150.5 -47.5q-45 0 -76.5 12.5t-56.5 33.5l74 106q17 -9 27.5 -13t25.5 -4q19 0 29.5 11t12.5 30l7 50l49 358q1 7 1 17q0 13 -5 13q-6 0 -14 -18t-25 -68l-43 -302h-186l49 358
q1 7 1 17q0 13 -5 13q-6 0 -14.5 -19t-26.5 -72l-41 -297h-186l74 534h162l1 -74q59 94 132 94q39 0 63.5 -22.5t32.5 -63.5q56 86 127 86q47 0 73 -31.5z" />
    <glyph glyph-name="uni0272" unicode="&#x272;" horiz-adv-x="466" 
d="M440 522.5q26 -31.5 26 -88.5q0 -18 -3 -39l-56 -395h-186l49 358q1 5 1 13q0 12 -6 12q-7 0 -16.5 -17.5t-33.5 -71.5l-41 -294l-5 -35q-14 -96 -73.5 -143.5t-150.5 -47.5q-45 0 -76.5 12.5t-56.5 33.5l74 106q17 -9 27.5 -13t25.5 -4q19 0 29.5 11t12.5 30l7 50
l74 534h162l1 -77q62 97 142 97q47 0 73 -31.5z" />
    <glyph glyph-name="uni0273" unicode="&#x273;" horiz-adv-x="466" 
d="M531 -183q-64 -43 -145 -43q-80 0 -125 42t-45 121q0 11 2 35l3 28l49 358q1 5 1 13q0 12 -6 12q-7 0 -16.5 -17.5t-33.5 -71.5l-41 -294h-186l74 534h162l1 -77q62 97 142 97q47 0 73 -31.5t26 -88.5q0 -18 -3 -39l-56 -395l-6 -47l-1 -10q0 -16 9 -25t25 -9
q15 0 25.5 3.5t26.5 11.5z" />
    <glyph glyph-name="uni0274" unicode="&#x274;" horiz-adv-x="474" 
d="M412 0h-212l-31 373v-31q0 -129 -12 -220l-17 -122h-152l74 534h213l31 -373v45q0 10 1 68.5t8 109.5l21 150h150z" />
    <glyph glyph-name="uni0275" unicode="&#x275;" horiz-adv-x="494" 
d="M431 499.5q53 -54.5 53 -162.5q0 -99 -31.5 -180t-93 -129t-149.5 -48q-94 0 -147 54t-53 162q0 99 31 180t93 129.5t150 48.5q94 0 147 -54.5zM231 395q-18 -28 -29 -75h104q1 16 1 44q0 32 -8 45.5t-25 13.5q-25 0 -43 -28zM264 141.5q18 30.5 29 80.5h-104
q-2 -36 -2 -52q0 -32 8 -45.5t25 -13.5q26 0 44 30.5z" />
    <glyph glyph-name="uni0276" unicode="&#x276;" horiz-adv-x="634" 
d="M460 407q12 -33 14 -75h131l-16 -124h-129q-11 -42 -33 -80h177l-17 -128h-285q-48 -20 -97 -20q-91 0 -143 54t-52 162q0 99 31 180t93 129.5t150 48.5q61 0 94 -20h289l-36 -127h-171zM264.5 157.5q16.5 41.5 24.5 100t8 109.5q0 28 -6.5 39t-20.5 11
q-36 0 -54.5 -82.5t-18.5 -167.5q0 -28 6.5 -39.5t20.5 -11.5q24 0 40.5 41.5z" />
    <glyph glyph-name="uni0277" unicode="&#x277;" horiz-adv-x="642" 
d="M556 494q73 -60 73 -181q0 -91 -25.5 -166.5t-75 -120.5t-119.5 -45q-56 0 -84.5 28.5t-30.5 89.5q-22 -63 -57 -90.5t-89 -27.5q-68 0 -105 46t-37 135q0 192 93 292t264 100q120 0 193 -60zM421.5 137.5q12.5 20.5 20.5 62.5t8 102q0 62 -24.5 93t-79.5 31
q-85 0 -123 -64.5t-38 -191.5q0 -28 3.5 -40.5t11.5 -12.5t13 10t9 34l19 135l172 23l-25 -167l-2 -16q0 -19 12 -19q11 0 23.5 20.5z" />
    <glyph glyph-name="uni0278" unicode="&#x278;" horiz-adv-x="591" 
d="M521 104q-62 -84 -169 -98l-31 -214l-187 -19l34 235q-70 12 -115 62t-45 138q0 139 62 223t171 97l30 216l186 19l-32 -237q69 -13 113.5 -63t44.5 -138q0 -137 -62 -221zM401.5 188.5q16.5 63.5 16.5 141.5q0 43 -8 62.5t-24 23.5l-37 -298q36 7 52.5 70.5zM190.5 347
q-17.5 -62 -17.5 -143q0 -79 32 -87l38 298q-35 -6 -52.5 -68z" />
    <glyph glyph-name="uni0279" unicode="&#x279;" horiz-adv-x="340" 
d="M-51 -8l57 182q22 -6 37 -6q32 0 53 36.5t38 100.5l32 229h186l-74 -534h-159v86q-49 -103 -127 -103q-22 0 -43 9z" />
    <glyph glyph-name="uni027A" unicode="&#x27a;" horiz-adv-x="340" 
d="M352 533l-74 -533h-159v86q-49 -103 -127 -103q-22 0 -43 9l57 182q22 -6 37 -6q32 0 53 36.5t38 100.5l32 229l32 229l184 -19z" />
    <glyph glyph-name="uni027B" unicode="&#x27b;" horiz-adv-x="339" 
d="M402 -183q-64 -43 -145 -43q-80 0 -125 42t-45 121q0 11 2 35l3 28l8 61q-41 -78 -108 -78q-22 0 -43 9l57 182q22 -6 37 -6q32 0 53 36.5t38 100.5l32 229h186l-74 -534l-6 -47l-1 -10q0 -16 9 -25t25 -9q15 0 25.5 3.5t26.5 11.5z" />
    <glyph glyph-name="uni027C" unicode="&#x27c;" horiz-adv-x="340" 
d="M391 542l-57 -182q-22 6 -37 6q-32 0 -53 -36.5t-38 -100.5l-62 -437l-188 -18l106 760h159v-86q49 103 127 103q22 0 43 -9z" />
    <glyph glyph-name="uni027D" unicode="&#x27d;" horiz-adv-x="340" 
d="M168 -47l-1 -10q0 -16 9 -25t25 -9q15 0 25.5 3.5t26.5 11.5l45 -107q-64 -43 -145 -43q-80 0 -125 42t-45 121q0 11 2 35l3 28l74 534h159v-86q49 103 127 103q22 0 43 -9l-57 -182q-22 6 -37 6q-32 0 -53 -36.5t-38 -100.5l-32 -229z" />
    <glyph glyph-name="uni027E" unicode="&#x27e;" horiz-adv-x="342" 
d="M335.5 541.5q31.5 -12.5 56.5 -33.5l-74 -106q-17 9 -27.5 13t-25.5 4q-19 0 -29.5 -11t-12.5 -30l-7 -50l-45 -328h-186l45 328l5 35q14 96 73.5 143.5t150.5 47.5q45 0 76.5 -12.5z" />
    <glyph glyph-name="uni027F" unicode="&#x27f;" horiz-adv-x="342" 
d="M288 512q45 -42 45 -121q0 -11 -2 -35l-3 -28l-45 -328h-186l45 328l6 47l1 10q0 16 -9 25t-25 9q-15 0 -25 -3.5t-27 -11.5l-45 107q64 43 145 43q80 0 125 -42z" />
    <glyph glyph-name="uni0280" unicode="&#x280;" horiz-adv-x="454" 
d="M414.5 276q-20.5 -40 -61.5 -66l68 -210h-177l-46 174h-11l-24 -174h-175l74 534h176q101 0 149 -38t48 -124q0 -56 -20.5 -96zM203 293h12q22 0 33.5 20.5t11.5 55.5q0 38 -28 38h-13z" />
    <glyph glyph-name="uni0281" unicode="&#x281;" horiz-adv-x="451" 
d="M402 271q11 -27 11 -64q0 -102 -60.5 -154.5t-167.5 -52.5h-197l74 534h175l-24 -175h16l87 175h178l-127 -217q24 -19 35 -46zM238 198q0 39 -34 39h-8l-15 -110h8q49 0 49 71z" />
    <glyph glyph-name="uni0282" unicode="&#x282;" horiz-adv-x="403" 
d="M357.5 267q25.5 -33 25.5 -87q0 -92 -56 -146t-146 -54q-41 0 -74 9l-5 -36l-1 -9q0 -35 44 -35q31 0 70 17l47 -109q-64 -43 -145 -43q-79 0 -125 41t-46 118q0 18 3 39l14 101l82 82q30 -21 54 -32.5t49 -11.5q23 0 35.5 10.5t12.5 29.5t-15.5 33.5t-56.5 33.5
q-55 25 -79.5 57t-24.5 86q0 56 27.5 100t76 68.5t109.5 24.5q53 0 99 -18.5t78 -50.5l-78 -98q-47 35 -87 35q-20 0 -31.5 -9t-11.5 -24t16 -28.5t63 -36.5q51 -24 76.5 -57z" />
    <glyph glyph-name="uni0283" unicode="&#x283;" horiz-adv-x="237" 
d="M399 725l-68 -112q-23 13 -42 13q-17 0 -23.5 -10.5t-10.5 -36.5l-7 -46l-74 -533l-5 -35q-14 -96 -73.5 -143.5t-150.5 -47.5q-45 0 -76.5 12.5t-56.5 33.5l74 106q17 -9 27.5 -13t25.5 -4q19 0 29.5 11t12.5 30l7 50l74 534l6 44q10 80 63.5 132.5t144.5 52.5
q74 0 123 -38z" />
    <glyph glyph-name="uni0284" unicode="&#x284;" horiz-adv-x="347" 
d="M440 725l-68 -112q-23 13 -42 13q-17 0 -23.5 -10.5t-10.5 -36.5l-7 -45h1l-57 -403h50l-19 -131h-55q-20 -67 -56 -110.5t-80 -68.5t-105 -47l-41 136q38 16 60.5 36t35.5 54h-47l19 131h52l56 403l6 44q10 80 63.5 132.5t144.5 52.5q74 0 123 -38z" />
    <glyph glyph-name="uni0285" unicode="&#x285;" horiz-adv-x="455" 
d="M436 24q-64 -43 -145 -43q-80 0 -125 42t-45 121q0 11 2 35l3 28l17 120l6 47l1 10q0 16 -9 25t-25 9q-15 0 -25 -3.5t-27 -11.5l-45 107q64 43 145 43q80 0 125 -42t45 -121q0 -11 -2 -35l-3 -28l-17 -120l-6 -47l-1 -10q0 -16 9 -25t25 -9q15 0 25.5 3.5t26.5 11.5z
" />
    <glyph glyph-name="uni0286" unicode="&#x286;" horiz-adv-x="319" 
d="M481 725l-68 -112q-23 13 -42 13q-17 0 -23.5 -10.5t-10.5 -36.5l-7 -46l-74 -531l-2 -11q33 -10 64 -34l-38 -72q-21 12 -46 24q-26 -67 -75 -101t-128 -34q-63 0 -96 31t-33 86q0 63 37.5 99t98.5 36q21 0 35 -2l71 510l6 44q10 80 63.5 132.5t144.5 52.5q74 0 123 -38
zM45 -122q9 12 13 39l4 27q-18 2 -24 2q-20 0 -30.5 -13.5t-10.5 -35.5q0 -31 24 -31q15 0 24 12z" />
    <glyph glyph-name="uni0287" unicode="&#x287;" horiz-adv-x="333" 
d="M301 0h-55l-31 -116l-167 -19l19 135h-94l40 129h71l32 231q1 5 1 13q0 32 -26 32q-15 0 -33 -9l-41 117q30 20 67 30.5t73 10.5q73 0 111 -40t38 -112q0 -19 -3 -42l-32 -231h48z" />
    <glyph glyph-name="uni0288" unicode="&#x288;" horiz-adv-x="332" 
d="M185 -47l-1 -10q0 -16 9 -25t25 -9q15 0 25.5 3.5t26.5 11.5l45 -107q-64 -43 -145 -43q-80 0 -125 42t-45 121q0 11 2 35l3 28l56 405h-48l20 129h53l31 116l167 19l-19 -135h94l-40 -129h-72l-56 -405z" />
    <glyph glyph-name="uni0289" unicode="&#x289;" horiz-adv-x="514" 
d="M526 286h-53l-40 -286h-162l2 67q-27 -41 -58.5 -64t-76.5 -23q-48 0 -75 32.5t-27 89.5q0 18 3 37l20 147h-53l16 112h53l19 136h186l-19 -136h42l19 136h186l-19 -136h53zM288 286h-42l-16 -114l-1 -11q0 -14 8 -14q16 0 38 46z" />
    <glyph glyph-name="uni028A" unicode="&#x28a;" horiz-adv-x="504" 
d="M59 36q-54 55 -54 141q0 74 31.5 133t93.5 97h-79l20 127h203l-19 -118q-25 -45 -41 -110t-16 -124q0 -35 7.5 -52t24.5 -17q29 0 47.5 47.5t18.5 131.5q0 42 -2.5 67.5t-8.5 56.5l19 118h201l-20 -127h-79q38 -28 58 -65t20 -93q0 -86 -37 -146.5t-98.5 -91
t-134.5 -30.5q-101 0 -155 55z" />
    <glyph glyph-name="uni028B" unicode="&#x28b;" horiz-adv-x="464" 
d="M53.5 21q-48.5 40 -48.5 112q0 9 2 29l52 372h185l-51 -379q-1 -5 -1 -13q0 -25 17 -25q33 0 46 92l26 189l1 7q0 14 -10 14q-5 0 -11 -2l-4 122q42 14 86 14q60 0 92 -33.5t32 -99.5q0 -19 -3 -43l-22 -163q-11 -77 -49 -129.5t-93.5 -78t-119.5 -25.5q-78 0 -126.5 40z
" />
    <glyph glyph-name="uni028C" unicode="&#x28c;" horiz-adv-x="438" 
d="M-53 0l191 534h225l52 -534h-195l11 396l-92 -396h-192z" />
    <glyph glyph-name="uni028D" unicode="&#x28d;" horiz-adv-x="643" 
d="M-41 0l155 534h205l-9 -364l81 364h210l7 -534h-187l41 390l-98 -390h-169l16 390l-73 -390h-179z" />
    <glyph glyph-name="uni028E" unicode="&#x28e;" horiz-adv-x="445" 
d="M147 534q44 117 124 169.5t199 57.5l2 -127q-65 -8 -99.5 -29.5t-57.5 -71.5l66 1l41 -534h-192l17 416l-104 -416h-196z" />
    <glyph glyph-name="uni028F" unicode="&#x28f;" horiz-adv-x="445" 
d="M498 534l-193 -344l-27 -190h-186l27 189l-96 345h194l11 -217l77 217h193z" />
    <glyph glyph-name="uni0290" unicode="&#x290;" horiz-adv-x="394" 
d="M466 -183q-64 -43 -145 -43q-80 0 -125 42t-45 121q0 11 2 35l3 28h-191l19 133l195 262h-146l21 139h364l-19 -131l-195 -262h158l-20 -141l-6 -47l-1 -10q0 -16 9 -25t25 -9q15 0 25.5 3.5t26.5 11.5z" />
    <glyph glyph-name="uni0291" unicode="&#x291;" horiz-adv-x="523" 
d="M488 261.5q30 -29.5 30 -85.5q0 -86 -54.5 -131.5t-141.5 -44.5h-23q-9 -37 -17 -97l-6 -35l-93 2q13 87 24 130h-242l19 133l195 262h-146l21 139h364l-18 -116l-206 -277h54q35 83 72 116.5t88 33.5q50 0 80 -29.5zM394.5 150q8.5 9 8.5 26q0 21 -16 21q-13 0 -25 -14
t-21 -42h30q15 0 23.5 9z" />
    <glyph glyph-name="uni0292" unicode="&#x292;" horiz-adv-x="437" 
d="M416 407l-160 -197q144 -23 144 -163q0 -84 -36 -146t-98.5 -95t-140.5 -33q-135 0 -199 110l110 88q23 -29 44 -42t47 -13q38 0 61 32.5t23 93.5q0 38 -16.5 53.5t-46.5 15.5h-87l15 104l148 181h-189l20 138h380z" />
    <glyph glyph-name="uni0293" unicode="&#x293;" horiz-adv-x="433" 
d="M413 407l-153 -186q66 -9 101.5 -50.5t35.5 -115.5q0 -95 -46.5 -162.5t-127.5 -97.5l17 -64l-86 -27l-15 72q-28 -2 -41 -2q-71 0 -115.5 37t-44.5 105q0 47 18.5 81t48.5 51t64 17q46 0 70 -25.5t41 -88.5q28 32 28 100q0 37 -17.5 53t-55.5 16h-77l14 95l151 181h-191
l20 138h380zM106 -83q-8 34 -13.5 46t-16.5 12q-19 0 -19 -31q0 -14 9 -20.5t31 -6.5h9z" />
    <glyph glyph-name="uni0294" unicode="&#x294;" horiz-adv-x="432" 
d="M119 357l19 9q62 29 89 71.5t27 110.5q0 38 -13 58t-37 20q-21 0 -42 -12t-46 -37l-75 92q45 48 93.5 71t110.5 23q59 0 106.5 -25.5t74.5 -72.5t27 -109q0 -93 -32 -150.5t-101 -88.5l-22 -10l-42 -307h-186z" />
    <glyph glyph-name="uni0295" unicode="&#x295;" horiz-adv-x="427" 
d="M98 0l42 310l-18 13q-39 29 -56.5 61t-17.5 91q0 82 34.5 148t94 103t132.5 37q62 0 107 -24t82 -72l-98 -88q-21 24 -39.5 35.5t-42.5 11.5q-36 0 -58.5 -38t-22.5 -108q0 -45 17.5 -71.5t58.5 -45.5l20 -9l-49 -354h-186z" />
    <glyph glyph-name="uni0296" unicode="&#x296;" horiz-adv-x="427" 
d="M352 763l-46 -328l23 -12q40 -21 60.5 -57t20.5 -95q0 -86 -32.5 -152t-91 -102t-133.5 -36q-122 0 -195 96l100 88q22 -25 40.5 -36t40.5 -11q38 0 59 39.5t21 107.5q0 47 -17 73.5t-57 39.5l-30 10l50 356z" />
    <glyph glyph-name="uni0297" unicode="&#x297;" horiz-adv-x="417" 
d="M462 483l-88 -99q-18 15 -33 21.5t-32 6.5q-41 0 -68 -56t-40 -143.5t-13 -182.5q0 -48 6 -72.5t15.5 -32t25.5 -7.5q15 0 31 6.5t39 20.5l64 -108q-75 -64 -170 -64q-97 0 -150.5 64t-53.5 190q0 155 37.5 274.5t107 186t161.5 66.5q100 0 161 -71z" />
    <glyph glyph-name="uni0298" unicode="&#x298;" horiz-adv-x="671" 
d="M542.5 681q61.5 -35 94.5 -99.5t33 -152.5q0 -138 -47 -239t-131.5 -155t-194.5 -54q-83 0 -144.5 35.5t-95 101t-33.5 153.5q0 138 47.5 238.5t132.5 153.5t194 53q83 0 144.5 -35zM252 498q-44 -90 -44 -238q0 -152 104 -152q85 0 130 89t45 234q0 79 -27.5 118
t-74.5 39q-89 0 -133 -90zM282.5 273q-19.5 19 -19.5 51q0 41 27 67.5t66 26.5q35 0 54.5 -19t19.5 -51q0 -41 -27 -67.5t-66 -26.5q-35 0 -54.5 19z" />
    <glyph glyph-name="uni0299" unicode="&#x299;" horiz-adv-x="449" 
d="M404 260.5q24 -26.5 24 -71.5q0 -92 -64 -140.5t-174 -48.5h-202l73 528q98 25 199 25q87 0 136 -35.5t49 -94.5q0 -51 -30 -83.5t-90 -45.5q55 -7 79 -33.5zM254 348.5q11 20.5 11 56.5q0 17 -5.5 24.5t-18.5 7.5q-9 0 -17 -2l-15 -107h13q21 0 32 20.5zM233 141
q14 22 14 61q0 19 -7 27.5t-25 8.5h-18l-16 -119h12q26 0 40 22z" />
    <glyph glyph-name="uni029A" unicode="&#x29a;" horiz-adv-x="490" 
d="M53 21q-56 40 -56 116q0 64 40 103t108 44q-48 12 -71 37t-23 65q0 49 28 87t78 59.5t115 21.5q100 0 153 -58.5t53 -161.5q0 -170 -70.5 -261.5t-211.5 -91.5q-87 0 -143 40zM284 182.5q19 70.5 19 156.5q0 47 -9.5 67t-27.5 20q-34 0 -34 -56q0 -40 32 -40h9l-35 -116
h-5q-23 0 -36 -16t-13 -43q0 -20 8.5 -31.5t24.5 -11.5q48 0 67 70.5z" />
    <glyph glyph-name="uni029B" unicode="&#x29b;" horiz-adv-x="465" 
d="M581.5 752.5q31.5 -10.5 55.5 -27.5l-63 -113q-26 14 -46 14q-17 0 -24 -11.5t-10 -35.5l-16 -103l-89 -85q-29 18 -49 25t-46 7q-52 0 -73.5 -67.5t-21.5 -164.5q0 -43 8.5 -60t27.5 -17q16 0 33 7l11 80h-34l2 117h215l-38 -268q-41 -32 -94.5 -49.5t-114.5 -17.5
q-105 0 -155.5 51.5t-50.5 155.5q0 112 36 194.5t98.5 126t140.5 43.5q24 0 50 -8l12 71q12 70 53 108t114 38q37 0 68.5 -10.5z" />
    <glyph glyph-name="uni029C" unicode="&#x29c;" horiz-adv-x="473" 
d="M225 0l28 201h-51l-28 -201h-186l74 534h186l-27 -196h51l27 196h186l-74 -534h-186z" />
    <glyph glyph-name="uni029D" unicode="&#x29d;" horiz-adv-x="351" 
d="M344 801q24 -24 24 -64q0 -51 -33.5 -84t-82.5 -33q-44 0 -68 24t-24 64q0 51 33.5 84t82.5 33q44 0 68 -24zM256 2l-2 -11q33 -10 64 -34l-38 -72q-21 12 -46 24q-26 -67 -75 -101t-128 -34q-63 0 -96 31t-33 86q0 63 37.5 99t98.5 36q21 0 35 -2l71 510h186zM45 -122
q9 12 13 39l4 27q-18 2 -24 2q-20 0 -30.5 -13.5t-10.5 -35.5q0 -31 24 -31q15 0 24 12z" />
    <glyph glyph-name="uni029E" unicode="&#x29e;" horiz-adv-x="473" 
d="M-58 0l139 251l-62 283h196l44 -292l-127 -242h-190zM197 -226l106 760h186l-104 -742z" />
    <glyph glyph-name="uni029F" unicode="&#x29f;" horiz-adv-x="376" 
d="M248 534l-51 -391h167l-42 -143h-334l74 534h186z" />
    <glyph glyph-name="uni02A0" unicode="&#x2a0;" horiz-adv-x="492" 
d="M655 725l-68 -112q-23 13 -42 13q-17 0 -23.5 -10.5t-10.5 -36.5l-7 -46l-105 -760l-184 19l33 240q-24 -26 -47.5 -39t-56.5 -13q-66 0 -101.5 51.5t-35.5 140.5q0 103 29.5 190t88.5 139.5t142 52.5q29 0 53 -7l4 31q10 80 63.5 132.5t144.5 52.5q74 0 123 -38z
M302 420q-9 3 -21 3q-41 0 -64 -74.5t-23 -181.5q0 -27 5.5 -38.5t16.5 -11.5q24 0 51 47z" />
    <glyph glyph-name="uni02A1" unicode="&#x2a1;" horiz-adv-x="432" 
d="M298 307l-11 -82h73l-15 -103h-72l-17 -122h-186l17 122h-55l15 103h54l18 132l19 9q62 29 89 71.5t27 110.5q0 38 -13 58t-37 20q-21 0 -42 -12t-46 -37l-75 92q45 48 93.5 71t110.5 23q59 0 106.5 -25.5t74.5 -72.5t27 -109q0 -93 -32 -150.5t-101 -88.5z" />
    <glyph glyph-name="uni02A2" unicode="&#x2a2;" horiz-adv-x="427" 
d="M416 739q45 -24 82 -72l-98 -88q-21 24 -39.5 35.5t-42.5 11.5q-36 0 -58.5 -38t-22.5 -108q0 -45 17.5 -71.5t58.5 -45.5l20 -9l-18 -129h55l-15 -103h-54l-17 -122h-186l17 122h-73l15 103h71l12 85l-18 13q-39 29 -56.5 61t-17.5 91q0 82 34.5 148t94 103t132.5 37
q62 0 107 -24z" />
    <glyph glyph-name="uni02A3" unicode="&#x2a3;" horiz-adv-x="859" 
d="M864 403l-190 -262h164l-37 -141h-533l2 56q-27 -38 -57 -57t-72 -19q-64 0 -99 49t-35 142q0 99 26.5 187t76.5 142t119 54q57 0 89 -43l35 252l184 -19l-29 -210h375zM302 398q-12 20 -30 20q-23 0 -40 -40t-26 -97.5t-9 -106.5q0 -35 6 -46.5t17 -11.5q22 0 49 47z
M451 128l193 267h-156z" />
    <glyph glyph-name="uni02A4" unicode="&#x2a4;" horiz-adv-x="889" 
d="M868 407l-160 -197q144 -23 144 -163q0 -84 -36 -146t-98.5 -95t-140.5 -33q-135 0 -199 110l110 88q23 -29 44 -42t47 -13q38 0 61 32.5t23 93.5q0 38 -16.5 53.5t-46.5 15.5h-87l15 104l148 181h-188l-55 -396h-165l2 56q-27 -38 -57 -57t-72 -19q-64 0 -99 49t-35 142
q0 99 26.5 187t76.5 142t119 54q57 0 89 -43l35 252l184 -19l-29 -210h379zM302 398q-12 20 -30 20q-23 0 -40 -40t-26 -97.5t-9 -106.5q0 -35 6 -46.5t17 -11.5q22 0 49 47z" />
    <glyph glyph-name="uni02A5" unicode="&#x2a5;" horiz-adv-x="989" 
d="M954 261.5q30 -29.5 30 -85.5q0 -86 -54.5 -131.5t-141.5 -44.5h-23q-9 -37 -17 -97l-6 -35l-93 2q13 87 24 130h-405l2 56q-27 -38 -57 -57t-72 -19q-64 0 -99 49t-35 142q0 99 26.5 187t76.5 142t119 54q57 0 89 -43l35 252l184 -19l-29 -210h376l-18 -116l-206 -277
h54q35 83 72 116.5t88 33.5q50 0 80 -29.5zM302 398q-12 20 -30 20q-23 0 -40 -40t-26 -97.5t-9 -106.5q0 -35 6 -46.5t17 -11.5q22 0 49 47zM452 136l193 259h-157zM860.5 150q8.5 9 8.5 26q0 21 -16 21q-13 0 -25 -14t-21 -42h30q15 0 23.5 9z" />
    <glyph glyph-name="uni02A6" unicode="&#x2a6;" horiz-adv-x="655" 
d="M610.5 267q25.5 -33 25.5 -86q0 -103 -83 -151.5t-238 -48.5q-147 0 -213.5 49.5t-66.5 153.5q0 24 5 61l22 160h-48l18 129h55l31 116l167 19l-18 -135h61l-38 -129h-41l-22 -165q-2 -11 -2 -32q0 -51 28 -73.5t82 -22.5q126 0 126 54q0 18 -13 31.5t-51 33.5
q-53 27 -73.5 57t-20.5 83q0 51 24.5 93t69 66t99.5 24q98 0 167 -69l-78 -98q-25 19 -40.5 27t-33.5 8t-27 -9.5t-9 -27.5q0 -20 11.5 -32t47.5 -29q51 -24 76.5 -57z" />
    <glyph glyph-name="uni02A7" unicode="&#x2a7;" horiz-adv-x="492" 
d="M654 725l-68 -112q-23 13 -42 13q-17 0 -23.5 -10.5t-10.5 -36.5l-7 -46l-74 -533l-5 -35q-14 -96 -73.5 -143.5t-150.5 -47.5q-45 0 -76.5 12.5t-56.5 33.5l74 106q17 -9 27.5 -13t25.5 -4q19 0 29.5 11t12.5 30l6 41q-36 -11 -67 -11q-73 0 -111 40t-38 112q0 20 3 42
l32 231h-48l20 129h53l31 116l167 19l-19 -135h52l6 44q10 80 63.5 132.5t144.5 52.5q74 0 123 -38zM215 162q0 -33 31 -33q10 0 15 1l38 275h-51l-32 -231q-1 -4 -1 -12z" />
    <glyph glyph-name="uni02A8" unicode="&#x2a8;" horiz-adv-x="718" 
d="M672.5 237q27.5 -28 27.5 -82q0 -53 -25 -92.5t-68 -60.5t-96 -21q-105 0 -164 62q-105 -62 -184 -62q-66 0 -101.5 39.5t-35.5 110.5q0 21 3 43l32 231h-48l20 129h53l31 116l167 19l-19 -135h84l-40 -129h-61l-32 -231q-1 -4 -1 -12q0 -33 30 -33q21 0 51 8
q-7 37 -7 67q0 101 33.5 180.5t96 124.5t145.5 45q100 0 161 -71l-88 -99q-34 28 -65 28q-45 0 -66.5 -58t-23.5 -138q32 28 59.5 38.5t58.5 10.5q45 0 72.5 -28zM585 150q0 11 -4 16t-13 5q-11 0 -26.5 -9.5t-40.5 -33.5q17 -17 44 -17q40 0 40 39z" />
    </font>
</defs>
</svg>
