<?xml version="1.0" standalone="no"?>
<!DOCTYPE svg PUBLIC "-//W3C//DTD SVG 1.1//EN" "http://www.w3.org/Graphics/SVG/1.1/DTD/svg11.dtd" >
<svg xmlns="http://www.w3.org/2000/svg" xmlns:xlink="http://www.w3.org/1999/xlink" version="1.1">
<metadata>
Created by FontForge 20170731 at Tue Dec  6 15:27:44 2016
 By Aleksey,,,
Digitized data copyright 2012-2016, The Mozilla Foundation and Telefonica S.A.
</metadata>
<defs>
<font id="FiraSansExtraCondensed-Regular" horiz-adv-x="460" >
  <font-face 
    font-family="Fira Sans Extra Condensed"
    font-weight="400"
    font-stretch="ultra-condensed"
    units-per-em="1000"
    panose-1="2 11 5 3 5 0 0 2 0 4"
    ascent="800"
    descent="-200"
    x-height="527"
    cap-height="689"
    bbox="-630 -352 1360 1101"
    underline-thickness="50"
    underline-position="-150"
    unicode-range="U+000D-FEFF"
  />
<missing-glyph horiz-adv-x="666" 
d="M543 1050v-1400h-420v1400h420zM489 998h-311v-1296h311v1296zM409.5 419q25.5 -32 25.5 -83q0 -53 -22.5 -82t-72.5 -36v-45q0 -11 -7.5 -17.5t-17.5 -6.5t-17.5 6.5t-7.5 17.5v84q53 3 72 19.5t19 57.5q0 33 -13 51t-48 18q-29 0 -52 -11q-8 -3 -13 -3q-11 0 -17.5 6.5
t-6.5 16.5q0 19 29.5 29t63.5 10q60 0 85.5 -32zM340 110q10 -10 10 -25q0 -16 -10 -26.5t-25 -10.5t-25 10.5t-10 26.5q0 15 10 25t25 10t25 -10z" />
    <glyph glyph-name="fi" unicode="fi" horiz-adv-x="480" 
d="M362 713l-29 -58q-46 22 -96 22q-38 0 -54 -16.5t-16 -52.5v-81h240v-527h-88v458h-152v-458h-88v458h-69v69h69v80q0 62 38.5 102t114.5 40q68 0 130 -36z" />
    <glyph glyph-name="fl" unicode="fl" horiz-adv-x="499" 
d="M484 6q-29 -18 -64 -18q-44 0 -70.5 28t-26.5 76v572q-43 14 -87 14q-38 0 -53.5 -15.5t-15.5 -51.5v-84h99l-10 -69h-89v-458h-88v458h-69v69h69v83q0 63 38 101t110 38q48 0 99 -19l85 10v-646q0 -33 28 -33q13 0 25 5z" />
    <glyph glyph-name=".notdef" horiz-adv-x="666" 
d="M543 1050v-1400h-420v1400h420zM489 998h-311v-1296h311v1296zM409.5 419q25.5 -32 25.5 -83q0 -53 -22.5 -82t-72.5 -36v-45q0 -11 -7.5 -17.5t-17.5 -6.5t-17.5 6.5t-7.5 17.5v84q53 3 72 19.5t19 57.5q0 33 -13 51t-48 18q-29 0 -52 -11q-8 -3 -13 -3q-11 0 -17.5 6.5
t-6.5 16.5q0 19 29.5 29t63.5 10q60 0 85.5 -32zM340 110q10 -10 10 -25q0 -16 -10 -26.5t-25 -10.5t-25 10.5t-10 26.5q0 15 10 25t25 10t25 -10z" />
    <glyph glyph-name=".null" horiz-adv-x="0" 
 />
    <glyph glyph-name="nonmarkingreturn" unicode="&#xd;" horiz-adv-x="212" 
 />
    <glyph glyph-name="space" unicode=" " horiz-adv-x="212" 
 />
    <glyph glyph-name="exclam" unicode="!" horiz-adv-x="219" 
d="M156 689l-11 -460h-72l-12 460h95zM156 100.5q18 -19.5 18 -46.5t-18 -46.5t-47 -19.5q-28 0 -46 19.5t-18 46.5t18 46.5t46 19.5q29 0 47 -19.5z" />
    <glyph glyph-name="quotedbl" unicode="&#x22;" horiz-adv-x="372" 
d="M65 428l-12 261h86l-12 -261h-62zM245 428l-12 261h86l-12 -261h-62z" />
    <glyph glyph-name="numbersign" unicode="#" horiz-adv-x="432" 
d="M420 448h-60l-29 -217h59v-66h-67l-22 -165h-72l22 165h-116l-22 -165h-72l22 165h-51v66h59l29 217h-58v67h67l20 154h72l-20 -154h116l20 154h72l-20 -154h51v-67zM259 231l29 217h-116l-29 -217h116z" />
    <glyph glyph-name="dollar" unicode="$" horiz-adv-x="438" 
d="M366.5 62.5q-40.5 -53.5 -109.5 -68.5v-148h-71v143q-101 7 -171 86l47 50q34 -31 67.5 -47.5t74.5 -16.5q52 0 82.5 33t30.5 90q0 48 -25 77t-92 54q-84 31 -123.5 76.5t-39.5 115.5q0 63 42 111t107 59v146h71v-146q74 -11 134 -74l-47 -51q-30 29 -59.5 42.5
t-63.5 13.5q-43 0 -69 -26.5t-26 -70.5q0 -43 25.5 -71t94.5 -54q80 -30 120.5 -74.5t40.5 -126.5q0 -69 -40.5 -122.5z" />
    <glyph glyph-name="percent" unicode="%" horiz-adv-x="694" 
d="M509 710l59 -33l-381 -707l-59 33zM273 634.5q38 -44.5 38 -123.5q0 -80 -38 -124.5t-98 -44.5t-97.5 44.5t-37.5 123.5q0 80 37.5 124.5t97.5 44.5t98 -44.5zM125.5 591q-14.5 -28 -14.5 -81q0 -52 14.5 -80t49.5 -28q36 0 50 27.5t14 81.5q0 52 -14 80t-50 28
q-35 0 -49.5 -28zM616.5 280.5q37.5 -44.5 37.5 -124.5q0 -79 -37.5 -123.5t-97.5 -44.5t-98 44.5t-38 123.5q0 80 38 124.5t98 44.5t97.5 -44.5zM468.5 236.5q-14.5 -27.5 -14.5 -80.5q0 -52 14.5 -80t50.5 -28q35 0 49 27.5t14 80.5t-14 80.5t-49 27.5q-36 0 -50.5 -27.5z
" />
    <glyph glyph-name="ampersand" unicode="&#x26;" horiz-adv-x="606" 
d="M368.5 658q42.5 -42 42.5 -109q0 -60 -30.5 -102.5t-86.5 -81.5l140 -169q33 89 49 169l76 -21q-30 -115 -73 -199l95 -105l-65 -52l-79 98q-37 -49 -81.5 -73.5t-100.5 -24.5q-55 0 -97.5 23.5t-66.5 66t-24 97.5q0 61 28.5 107t87.5 91q-43 47 -62.5 85t-19.5 88
q0 69 40 111.5t114 42.5q71 0 113.5 -42zM204.5 613.5q-18.5 -22.5 -18.5 -66.5q0 -37 14 -67t47 -70q41 33 60 62t19 72q0 92 -70 92q-33 0 -51.5 -22.5zM175 259.5q-17 -34.5 -17 -82.5q0 -58 28 -88.5t75 -30.5q39 0 70 19t58 57l-158 192q-39 -32 -56 -66.5z" />
    <glyph glyph-name="quotesingle" unicode="'" horiz-adv-x="192" 
d="M65 428l-12 261h86l-12 -261h-62z" />
    <glyph glyph-name="parenleft" unicode="(" horiz-adv-x="266" 
d="M238 807q-44 -79 -69 -137.5t-39 -135t-14 -184.5q0 -107 14 -184t39 -135.5t69 -137.5l-56 -37q-50 82 -81.5 147t-52 151t-20.5 196t20.5 196t52 151t81.5 147z" />
    <glyph glyph-name="parenright" unicode=")" horiz-adv-x="266" 
d="M165.5 697q31.5 -65 52 -151t20.5 -196t-20.5 -196t-52 -151t-81.5 -147l-56 37q44 79 68.5 137.5t38.5 135.5t14 184t-14 184t-38.5 135.5t-68.5 137.5l56 37q50 -82 81.5 -147z" />
    <glyph glyph-name="asterisk" unicode="*" horiz-adv-x="382" 
d="M357 563l-122 -33l89 -119l-71 -39l-62 130l-62 -130l-70 38l88 120l-122 33l25 67l114 -53l-14 162h82l-14 -162l114 54z" />
    <glyph glyph-name="plus" unicode="+" horiz-adv-x="416" 
d="M246 514v-147h122v-73h-122v-145h-76v145h-122v73h122v147h76z" />
    <glyph glyph-name="comma" unicode="," horiz-adv-x="204" 
d="M147 101.5q17 -18.5 17 -46.5q0 -13 -5 -30.5t-13 -38.5l-54 -150h-57l35 163q-14 10 -22 24.5t-8 31.5q0 28 17.5 46.5t45.5 18.5q27 0 44 -18.5z" />
    <glyph glyph-name="hyphen" unicode="-" horiz-adv-x="339" 
d="M50 276v74h239v-74h-239z" />
    <glyph glyph-name="period" unicode="." horiz-adv-x="209" 
d="M151 100.5q18 -19.5 18 -46.5t-18 -46.5t-47 -19.5q-28 0 -46 19.5t-18 46.5t18 46.5t46 19.5q29 0 47 -19.5z" />
    <glyph glyph-name="slash" unicode="/" horiz-adv-x="427" 
d="M275 806l72 -14l-195 -895l-72 14z" />
    <glyph glyph-name="zero" unicode="0" horiz-adv-x="487" 
d="M386 594.5q47 -84.5 47 -260.5q0 -177 -47 -261.5t-142 -84.5t-142.5 85t-47.5 261t47.5 260.5t142.5 84.5t142 -84.5zM169 547q-24 -62 -24 -213q0 -152 24 -214t75 -62t74.5 62t23.5 214q0 104 -11 164.5t-32 85.5t-55 25q-51 0 -75 -62z" />
    <glyph glyph-name="one" unicode="1" horiz-adv-x="358" 
d="M270 669v-669h-87v576l-125 -92l-40 57l174 128h78z" />
    <glyph glyph-name="two" unicode="2" horiz-adv-x="403" 
d="M306.5 629q46.5 -50 46.5 -128q0 -61 -22.5 -116.5t-68.5 -121t-145 -189.5h249l-10 -74h-333v70q105 134 153 202.5t67 118.5t19 106q0 54 -23 81.5t-64 27.5q-32 0 -56 -16.5t-52 -52.5l-57 41q68 101 171 101q79 0 125.5 -50z" />
    <glyph glyph-name="three" unicode="3" horiz-adv-x="412" 
d="M275.5 656q38.5 -23 59 -61.5t20.5 -83.5q0 -125 -123 -156q65 -8 102.5 -49t37.5 -114q0 -56 -23.5 -102.5t-67.5 -74t-102 -27.5q-53 0 -94 22t-77 68l55 43q30 -33 55.5 -47.5t60.5 -14.5q47 0 76 35t29 99q0 68 -29.5 96t-88.5 28h-37l10 65h24q49 0 79 31.5t30 91.5
q0 51 -25 78t-69 27q-59 0 -108 -55l-48 45q73 79 165 79q50 0 88.5 -23z" />
    <glyph glyph-name="four" unicode="4" horiz-adv-x="443" 
d="M420 236v-70h-69v-166h-84v166h-237v64l163 449l75 -28l-148 -415h148l9 182h74v-182h69z" />
    <glyph glyph-name="five" unicode="5" horiz-adv-x="422" 
d="M353 599h-211v-200q21 14 41.5 20t44.5 6q71 0 114.5 -56t43.5 -155q0 -66 -24.5 -117.5t-69.5 -80t-103 -28.5q-53 0 -92 21t-76 64l52 47q27 -31 53.5 -45.5t60.5 -14.5q51 0 79.5 39.5t28.5 116.5q0 78 -25 110t-70 32q-21 0 -39 -6t-38 -18h-65v335h307z" />
    <glyph glyph-name="six" unicode="6" horiz-adv-x="463" 
d="M348.5 415q34.5 -24 55.5 -71.5t21 -116.5q0 -114 -49.5 -176.5t-130.5 -62.5q-191 0 -191 324q0 114 26 197t74.5 126.5t115.5 43.5q66 0 116 -41l-34 -57q-39 28 -81 28q-57 0 -91 -65.5t-38 -187.5q48 83 130 83q42 0 76.5 -24zM314.5 100q23.5 42 23.5 124
q0 147 -85 147q-32 0 -61 -26t-50 -70q2 -116 26.5 -166.5t76.5 -50.5q46 0 69.5 42z" />
    <glyph glyph-name="seven" unicode="7" horiz-adv-x="369" 
d="M347 669v-67l-206 -612l-78 25l197 582h-242v72h329z" />
    <glyph glyph-name="eight" unicode="8" horiz-adv-x="458" 
d="M393.5 284.5q30.5 -44.5 30.5 -106.5q0 -86 -54 -138t-143 -52q-88 0 -140.5 51.5t-52.5 136.5q0 63 29.5 106t87.5 70q-50 28 -72 65.5t-22 89.5q0 55 23.5 94t62.5 58.5t86 19.5q73 0 123 -43.5t50 -125.5q0 -51 -24.5 -87.5t-78.5 -64.5q64 -29 94.5 -73.5zM164.5 589
q-22.5 -25 -22.5 -83q0 -48 21.5 -73t70.5 -47l14 -6q38 25 53.5 54t15.5 73q0 56 -22 81.5t-66 25.5q-42 0 -64.5 -25zM336 177q0 54 -24.5 84.5t-87.5 57.5l-20 9q-43 -23 -62 -59.5t-19 -92.5q0 -120 106 -120q107 0 107 121z" />
    <glyph glyph-name="nine" unicode="9" horiz-adv-x="446" 
d="M354 611.5q47 -67.5 47 -193.5q0 -136 -32 -219.5t-97.5 -133t-176.5 -87.5l-19 66q111 38 168 99.5t66 170.5q-21 -32 -51 -51t-68 -19q-42 0 -78 26t-58 75t-22 113q0 72 24 121.5t65.5 74.5t93.5 25q91 0 138 -67.5zM313 397q0 80 -10 126.5t-31 66.5t-55 20
q-46 0 -71 -38t-25 -116q0 -71 23.5 -107t64.5 -36q63 0 104 84z" />
    <glyph glyph-name="colon" unicode=":" horiz-adv-x="209" 
d="M151 100.5q18 -19.5 18 -46.5t-18 -46.5t-47 -19.5q-28 0 -46 19.5t-18 46.5t18 46.5t46 19.5q29 0 47 -19.5zM151 468.5q18 -19.5 18 -46.5t-18 -46.5t-47 -19.5q-28 0 -46 19.5t-18 46.5t18 46.5t46 19.5q29 0 47 -19.5z" />
    <glyph glyph-name="semicolon" unicode=";" horiz-adv-x="209" 
d="M147 101.5q17 -18.5 17 -46.5q0 -13 -5 -30.5t-13 -38.5l-54 -150h-57l35 163q-14 10 -22 24.5t-8 31.5q0 28 17.5 46.5t45.5 18.5q27 0 44 -18.5zM151 468.5q18 -19.5 18 -46.5t-18 -46.5t-47 -19.5q-28 0 -46 19.5t-18 46.5t18 46.5t46 19.5q29 0 47 -19.5z" />
    <glyph glyph-name="less" unicode="&#x3c;" horiz-adv-x="415" 
d="M344 543l34 -67l-271 -143l271 -145l-34 -66l-307 167v88z" />
    <glyph glyph-name="equal" unicode="=" horiz-adv-x="413" 
d="M48 391v71h317v-71h-317zM48 199v71h317v-71h-317z" />
    <glyph glyph-name="greater" unicode="&#x3e;" horiz-adv-x="415" 
d="M71 543l307 -166v-88l-307 -167l-34 66l271 145l-271 143z" />
    <glyph glyph-name="question" unicode="?" horiz-adv-x="393" 
d="M290 678.5q37 -21.5 56 -56.5t19 -76q0 -37 -11 -63t-26 -43.5t-41 -39.5q-36 -31 -53.5 -56.5t-17.5 -68.5v-46h-84v51q0 41 11 70t27 46.5t42 40.5q33 28 48.5 50t15.5 59q0 39 -21.5 60.5t-59.5 21.5q-32 0 -58.5 -16t-54.5 -52l-54 42q67 98 172 98q53 0 90 -21.5z
M223 100.5q18 -19.5 18 -46.5t-18 -46.5t-47 -19.5q-28 0 -46 19.5t-18 46.5t18 46.5t46 19.5q29 0 47 -19.5z" />
    <glyph glyph-name="at" unicode="@" horiz-adv-x="847" 
d="M628 649q79 -51 119.5 -140t40.5 -202q0 -84 -19.5 -152t-56.5 -107t-89 -39q-42 0 -68 28t-36 66q-15 -39 -44.5 -65.5t-71.5 -26.5q-71 0 -109.5 57.5t-38.5 162.5q0 131 49 195.5t133 64.5q70 0 131 -40v-258q0 -63 13 -89.5t39 -26.5q40 0 62 56t22 172
q0 154 -68 238.5t-199 84.5q-90 0 -156.5 -48.5t-101.5 -136t-35 -203.5q0 -180 76.5 -279.5t216.5 -99.5q79 0 158 34l23 -68q-44 -19 -87.5 -29t-94.5 -10q-112 0 -197.5 53.5t-132.5 155.5t-47 243q0 133 47.5 238t133.5 163.5t197 58.5q112 0 191 -51zM491 138v280
q-27 10 -54 10q-48 0 -73 -47.5t-25 -149.5q0 -82 17.5 -118.5t54.5 -36.5q43 0 80 62z" />
    <glyph glyph-name="A" unicode="A" horiz-adv-x="487" 
d="M386 0l-41 175h-206l-41 -175h-90l179 689h113l179 -689h-93zM156 248h172l-86 365z" />
    <glyph glyph-name="B" unicode="B" horiz-adv-x="501" 
d="M429 311.5q39 -38.5 39 -116.5q0 -97 -63.5 -146t-174.5 -49h-154v689h131q114 0 175 -45t61 -129q0 -59 -32.5 -97t-90.5 -54q70 -14 109 -52.5zM167 617v-221h59q62 0 93 28.5t31 83.5q0 59 -32.5 84t-101.5 25h-49zM336.5 100.5q36.5 27.5 36.5 94.5q0 69 -34.5 99.5
t-105.5 30.5h-66v-252h63q70 0 106.5 27.5z" />
    <glyph glyph-name="C" unicode="C" horiz-adv-x="466" 
d="M372 683.5q37 -16.5 74 -50.5l-47 -55q-28 25 -54 36.5t-57 11.5q-147 0 -147 -281q0 -280 150 -280q34 0 59.5 13.5t52.5 38.5l49 -53q-30 -33 -71 -54.5t-92 -21.5q-111 0 -177.5 90t-66.5 267q0 119 31.5 198.5t86 118t123.5 38.5q49 0 86 -16.5z" />
    <glyph glyph-name="D" unicode="D" horiz-adv-x="534" 
d="M350.5 662.5q61.5 -26.5 100 -102t38.5 -212.5q0 -195 -76 -271.5t-193 -76.5h-144v689h129q84 0 145.5 -26.5zM167 616v-544h59q50 0 86.5 22t59 82.5t22.5 171.5q0 113 -23.5 171.5t-60 77.5t-88.5 19h-55z" />
    <glyph glyph-name="E" unicode="E" horiz-adv-x="435" 
d="M392 689l-10 -73h-215v-229h187v-73h-187v-241h229v-73h-320v689h316z" />
    <glyph glyph-name="F" unicode="F" horiz-adv-x="402" 
d="M76 0v689h309l-10 -73h-208v-239h180v-72h-180v-305h-91z" />
    <glyph glyph-name="G" unicode="G" horiz-adv-x="528" 
d="M390.5 681.5q40.5 -18.5 80.5 -56.5l-50 -51q-32 28 -59.5 40t-64.5 12q-69 0 -112.5 -64t-43.5 -217q0 -107 16.5 -168.5t49 -87.5t82.5 -26q54 0 99 30v214h-94l-10 74h192v-332q-88 -61 -188 -61q-243 0 -243 357q0 117 34 197t91 119t127 39q53 0 93.5 -18.5z" />
    <glyph glyph-name="H" unicode="H" horiz-adv-x="556" 
d="M389 0v324h-222v-324h-91v689h91v-290h222v290h91v-689h-91z" />
    <glyph glyph-name="I" unicode="I" horiz-adv-x="243" 
d="M167 689v-689h-91v689h91z" />
    <glyph glyph-name="J" unicode="J" horiz-adv-x="252" 
d="M180 95q0 -99 -39 -149.5t-117 -80.5l-24 64q38 20 56.5 40.5t25.5 49.5t7 80v590h91v-594z" />
    <glyph glyph-name="K" unicode="K" horiz-adv-x="494" 
d="M167 689v-689h-91v689h91zM479 689l-210 -315l225 -374h-103l-220 368l211 321h97z" />
    <glyph glyph-name="L" unicode="L" horiz-adv-x="406" 
d="M167 689v-609h229l-10 -80h-310v689h91z" />
    <glyph glyph-name="M" unicode="M" horiz-adv-x="660" 
d="M605 0h-86l-18 313q-13 194 -11 283l-117 -518h-85l-123 519l1 -46q0 -78 -8 -244l-17 -307h-86l47 689h118l112 -505l106 505h121z" />
    <glyph glyph-name="N" unicode="N" horiz-adv-x="557" 
d="M481 0h-121l-212 587q6 -70 9.5 -125t3.5 -138v-324h-85v689h121l212 -588q-4 15 -8.5 82t-4.5 125v381h85v-689z" />
    <glyph glyph-name="O" unicode="O" horiz-adv-x="575" 
d="M466 611.5q64 -88.5 64 -267.5q0 -177 -64 -266.5t-178 -89.5t-178.5 88t-64.5 267q0 177 65 267t178 90q114 0 178 -88.5zM178.5 560q-37.5 -66 -37.5 -217q0 -150 38 -215t109 -65q72 0 109 64.5t37 216.5q0 151 -37 216.5t-109 65.5t-109.5 -66z" />
    <glyph glyph-name="P" unicode="P" horiz-adv-x="476" 
d="M393.5 635q62.5 -54 62.5 -159q0 -112 -63.5 -166.5t-180.5 -54.5h-45v-255h-91v689h134q121 0 183.5 -54zM325 359.5q36 32.5 36 115.5q0 75 -36.5 108.5t-112.5 33.5h-45v-290h45q77 0 113 32.5z" />
    <glyph glyph-name="Q" unicode="Q" horiz-adv-x="575" 
d="M560 -31l-61 -71q-45 53 -91.5 73t-123.5 20q-109 0 -174 89t-65 263q0 177 65 267t178 90t177.5 -89t64.5 -267q0 -126 -34.5 -196t-100.5 -109q91 -3 165 -70zM179 128q38 -65 109 -65q72 0 109 64.5t37 216.5q0 151 -37 216.5t-109 65.5t-109.5 -66t-37.5 -217
q0 -150 38 -215z" />
    <glyph glyph-name="R" unicode="R" horiz-adv-x="502" 
d="M384 0l-134 295q-7 -1 -21 -1h-62v-294h-91v689h138q121 0 180 -50t59 -144q0 -66 -31 -113.5t-89 -69.5l151 -312h-100zM325 395.5q32 31.5 32 99.5q0 63 -33 92.5t-111 29.5h-46v-253h54q72 0 104 31.5z" />
    <glyph glyph-name="S" unicode="S" horiz-adv-x="450" 
d="M323.5 680.5q42.5 -19.5 78.5 -59.5l-48 -52q-31 30 -61 43.5t-66 13.5q-43 0 -69.5 -27.5t-26.5 -72.5q0 -44 25.5 -72t96.5 -55q82 -31 124 -77t42 -131q0 -55 -25.5 -101.5t-72.5 -74t-109 -27.5t-110 23t-87 66l49 52q35 -32 69.5 -49t76.5 -17q52 0 83 34t31 92
q0 50 -25 80t-93 55q-87 33 -127.5 80t-40.5 118q0 49 24 90t67 64.5t97 23.5q55 0 97.5 -19.5z" />
    <glyph glyph-name="T" unicode="T" horiz-adv-x="428" 
d="M422 689l-10 -76h-153v-613h-91v613h-157v76h411z" />
    <glyph glyph-name="U" unicode="U" horiz-adv-x="538" 
d="M472 185q0 -55 -23.5 -100t-69.5 -71t-110 -26q-97 0 -150 55.5t-53 141.5v504h91v-497q0 -127 112 -127t112 127v497h91v-504z" />
    <glyph glyph-name="V" unicode="V" horiz-adv-x="472" 
d="M464 689l-174 -689h-105l-177 689h92l139 -591l136 591h89z" />
    <glyph glyph-name="W" unicode="W" horiz-adv-x="690" 
d="M668 689l-110 -689h-119l-95 580l-96 -580h-117l-109 689h88l83 -609l102 609h100l102 -609l86 609h85z" />
    <glyph glyph-name="X" unicode="X" horiz-adv-x="449" 
d="M277 372l170 -372h-96l-129 311l-128 -311h-92l167 367l-153 322h96l112 -265l114 265h91z" />
    <glyph glyph-name="Y" unicode="Y" horiz-adv-x="459" 
d="M457 689l-182 -424v-265h-91v264l-182 425h97l133 -344l132 344h93z" />
    <glyph glyph-name="Z" unicode="Z" horiz-adv-x="427" 
d="M399 689v-74l-282 -537h282l-10 -78h-367v73l282 539h-254v77h349z" />
    <glyph glyph-name="bracketleft" unicode="[" horiz-adv-x="264" 
d="M227 815v-73h-96v-786h96v-72h-179v931h179z" />
    <glyph glyph-name="backslash" unicode="\" horiz-adv-x="427" 
d="M152 803l195 -892l-72 -14l-195 892z" />
    <glyph glyph-name="bracketright" unicode="]" horiz-adv-x="264" 
d="M216 815v-931h-179v72h96v786h-96v73h179z" />
    <glyph glyph-name="asciicircum" unicode="^" horiz-adv-x="446" 
d="M262 839l155 -312h-92l-104 235l-102 -235h-90l154 312h79z" />
    <glyph glyph-name="underscore" unicode="_" horiz-adv-x="430" 
d="M15 -140v76h400v-76h-400z" />
    <glyph glyph-name="grave" unicode="`" horiz-adv-x="264" 
d="M74 795l165 -112l-26 -44l-178 86z" />
    <glyph glyph-name="a" unicode="a" horiz-adv-x="451" 
d="M385 70.5q8 -13.5 26 -21.5l-19 -61q-37 6 -58.5 23.5t-30.5 52.5q-43 -76 -126 -76q-65 0 -103.5 43.5t-38.5 115.5q0 84 52 128.5t151 44.5h52v48q0 52 -20.5 76t-63.5 24q-51 0 -119 -27l-22 62q81 35 152 35q81 0 120.5 -43.5t39.5 -122.5v-260q0 -28 8 -41.5z
M290 138v123h-42q-63 0 -92.5 -27t-29.5 -83q0 -48 18 -72.5t51 -24.5q62 0 95 84z" />
    <glyph glyph-name="b" unicode="b" horiz-adv-x="488" 
d="M400.5 469q42.5 -69 42.5 -205q0 -86 -21 -148t-59.5 -95t-89.5 -33q-34 0 -64 17.5t-52 49.5l-6 -55h-78v738l88 9v-284q47 75 121 75q76 0 118.5 -69zM350 264q0 113 -23 158.5t-66 45.5q-56 0 -100 -81v-261q18 -31 41.5 -49.5t51.5 -18.5q96 0 96 206z" />
    <glyph glyph-name="c" unicode="c" horiz-adv-x="391" 
d="M314 525q32 -13 62 -43l-40 -52q-23 19 -44.5 28t-46.5 9q-106 0 -106 -206q0 -107 27 -153t78 -46q25 0 45.5 9t45.5 28l41 -53q-60 -58 -133 -58q-94 0 -146 68t-52 203q0 132 53 205.5t144 73.5q40 0 72 -13z" />
    <glyph glyph-name="d" unicode="d" horiz-adv-x="491" 
d="M418 739v-739h-78l-6 67q-47 -79 -120 -79q-82 0 -125.5 72.5t-43.5 200.5q0 83 22 146t61 97t89 34q69 0 113 -61v272zM330 133v267q-41 68 -95 68q-46 0 -71.5 -50t-25.5 -155q0 -205 93 -205q57 0 99 75z" />
    <glyph glyph-name="e" unicode="e" horiz-adv-x="454" 
d="M412 233h-276q4 -95 31.5 -134t78.5 -39q33 0 59 10.5t54 33.5l39 -53q-66 -63 -155 -63q-94 0 -146 69.5t-52 200.5t49.5 205.5t139.5 74.5q87 0 133.5 -65.5t46.5 -193.5q0 -22 -2 -46zM329 305q0 86 -23 125t-72 39q-44 0 -69 -39.5t-29 -131.5h193v7z" />
    <glyph glyph-name="f" unicode="f" horiz-adv-x="283" 
d="M186 662q-15 -16 -15 -51v-84h106l-10 -69h-96v-458h-88v458h-73v69h73v83q0 62 37.5 100.5t105.5 38.5q55 0 107 -27l-26 -62q-37 18 -74 18q-32 0 -47 -16z" />
    <glyph glyph-name="g" unicode="g" horiz-adv-x="434" 
d="M432 504q-23 -10 -51.5 -13t-72.5 -3q77 -42 77 -134q0 -81 -45 -129.5t-124 -48.5q-29 0 -53 10q-10 -8 -15.5 -21.5t-5.5 -28.5q0 -22 12 -34.5t43 -12.5h58q49 0 86 -19t56.5 -51.5t19.5 -71.5q0 -72 -53.5 -115.5t-154.5 -43.5q-104 0 -147.5 40.5t-43.5 118.5h78
q0 -49 24 -69.5t90 -20.5q64 0 92 21.5t28 62.5q0 78 -92 78h-37q-72 0 -105 26.5t-33 71.5q0 48 52 90q-77 47 -77 148q0 83 49 133t127 50q70 0 110 11t82 34zM147 446q-22 -29 -22 -91q0 -54 23 -87t64 -33q44 0 65 28t21 93q0 119 -85 119q-44 0 -66 -29z" />
    <glyph glyph-name="h" unicode="h" horiz-adv-x="482" 
d="M379 497q34 -41 34 -110v-387h-88v375q0 51 -14.5 72.5t-43.5 21.5q-57 0 -106 -98v-371h-88v738l88 9v-294q25 42 54.5 63.5t72.5 21.5q57 0 91 -41z" />
    <glyph glyph-name="i" unicode="i" horiz-adv-x="234" 
d="M161 527v-527h-88v527h88zM159 760q16 -17 16 -44q0 -25 -16.5 -42t-42.5 -17t-42.5 17t-16.5 42q0 26 16.5 43.5t42.5 17.5q27 0 43 -17z" />
    <glyph glyph-name="j" unicode="j" horiz-adv-x="234" 
d="M161 10q0 -61 -16.5 -101t-47 -66.5t-82.5 -53.5l-28 62q32 19 49.5 36.5t27 46t9.5 75.5v518h88v-517zM159 760q16 -17 16 -44q0 -25 -16.5 -42t-42.5 -17t-42.5 17t-16.5 42q0 26 16.5 43.5t42.5 17.5q27 0 43 -17z" />
    <glyph glyph-name="k" unicode="k" horiz-adv-x="428" 
d="M161 749v-749h-88v739zM415 527l-158 -234l174 -293h-98l-167 288l159 239h90z" />
    <glyph glyph-name="l" unicode="l" horiz-adv-x="244" 
d="M94.5 16q-26.5 28 -26.5 76v647l88 10v-655q0 -33 28 -33q13 0 25 5l20 -60q-29 -18 -64 -18q-44 0 -70.5 28z" />
    <glyph glyph-name="m" unicode="m" horiz-adv-x="703" 
d="M602 496.5q32 -41.5 32 -109.5v-387h-86v376q0 50 -13.5 72t-39.5 22q-53 0 -98 -94v-376h-86v376q0 94 -53 94q-28 0 -53.5 -25t-45.5 -69v-376h-86v527h76l6 -76q50 87 125 87q40 0 67.5 -24.5t39.5 -69.5q54 94 130 94q53 0 85 -41.5z" />
    <glyph glyph-name="n" unicode="n" horiz-adv-x="482" 
d="M379 497q34 -41 34 -110v-387h-88v375q0 51 -14.5 72.5t-43.5 21.5q-57 0 -106 -98v-371h-88v527h76l7 -79q26 44 57 67t75 23q57 0 91 -41z" />
    <glyph glyph-name="o" unicode="o" horiz-adv-x="485" 
d="M388.5 468.5q51.5 -69.5 51.5 -204.5q0 -127 -52.5 -201.5t-145.5 -74.5t-145 73t-52 202q0 133 52 204t146 71t145.5 -69.5zM164 419.5q-26 -47.5 -26 -156.5q0 -108 26 -156t78 -48q53 0 79 48t26 157q0 108 -26 155.5t-78 47.5q-53 0 -79 -47.5z" />
    <glyph glyph-name="p" unicode="p" horiz-adv-x="488" 
d="M403 467.5q40 -70.5 40 -203.5q0 -129 -44 -202.5t-126 -73.5q-68 0 -112 58v-247l-88 -11v739h77l5 -70q50 81 131 81q77 0 117 -70.5zM325.5 108.5q24.5 48.5 24.5 155.5q0 109 -21 156.5t-66 47.5q-57 0 -102 -77v-270q38 -61 93 -61q47 0 71.5 48.5z" />
    <glyph glyph-name="q" unicode="q" horiz-adv-x="491" 
d="M418 527v-739l-88 11v265q-20 -36 -50 -56t-68 -20q-78 0 -122.5 71.5t-44.5 201.5q0 84 21.5 147t60.5 96.5t90 33.5q73 0 120 -69l5 58h76zM285.5 77.5q23.5 19.5 44.5 59.5v263q-41 68 -96 68q-43 0 -69.5 -50t-26.5 -155q0 -108 24 -156.5t69 -48.5q31 0 54.5 19.5z
" />
    <glyph glyph-name="r" unicode="r" horiz-adv-x="323" 
d="M315 532l-15 -85q-20 5 -36 5q-39 0 -64 -35t-39 -107v-310h-88v527h76l7 -98q37 109 119 109q22 0 40 -6z" />
    <glyph glyph-name="s" unicode="s" horiz-adv-x="393" 
d="M350 479l-38 -51q-28 21 -54 31.5t-55 10.5q-35 0 -55.5 -19.5t-20.5 -53.5q0 -33 20 -52t76 -39q72 -26 106 -62t34 -98q0 -75 -50.5 -116.5t-125.5 -41.5q-100 0 -167 69l46 49q56 -49 119 -49q40 0 64 22t24 62q0 27 -9 44t-31 31t-64 29q-70 26 -100 61.5t-30 87.5
q0 40 20.5 73t57.5 52t84 19q87 0 149 -59z" />
    <glyph glyph-name="t" unicode="t" horiz-adv-x="306" 
d="M306 24q-45 -36 -101 -36q-59 0 -91.5 35t-32.5 94v341h-71v69h71v119l88 11v-130h102l-9 -69h-93v-342q0 -55 47 -55q16 0 28 4t28 14z" />
    <glyph glyph-name="u" unicode="u" horiz-adv-x="479" 
d="M406 0h-76l-6 74q-25 -43 -56.5 -64.5t-73.5 -21.5q-57 0 -91 39t-34 102v398h88v-389q0 -81 57 -81q33 0 58 23.5t46 65.5v381h88v-527z" />
    <glyph glyph-name="v" unicode="v" horiz-adv-x="416" 
d="M406 527l-144 -527h-104l-148 527h91l109 -449l108 449h88z" />
    <glyph glyph-name="w" unicode="w" horiz-adv-x="607" 
d="M587 527l-96 -527h-117l-71 445l-70 -445h-115l-98 527h86l72 -462l76 462h103l74 -462l74 462h82z" />
    <glyph glyph-name="x" unicode="x" horiz-adv-x="410" 
d="M256 282l149 -282h-95l-107 227l-107 -227h-91l149 278l-133 249h93l91 -197l91 197h90z" />
    <glyph glyph-name="y" unicode="y" horiz-adv-x="418" 
d="M264 -3q-25 -91 -74 -144t-136 -65l-10 67q63 14 92 46t49 99h-33l-142 527h90l110 -463l109 463h89z" />
    <glyph glyph-name="z" unicode="z" horiz-adv-x="362" 
d="M338 527v-68l-227 -385h229l-9 -74h-313v66l227 386h-208v75h301z" />
    <glyph glyph-name="braceleft" unicode="{" horiz-adv-x="265" 
d="M231 770q-42 0 -59 -16t-17 -56v-241q0 -51 -16 -73t-54 -35q38 -13 54.5 -34.5t16.5 -71.5v-241q0 -40 16.5 -56t58.5 -16v-65q-84 0 -119.5 34.5t-35.5 111.5v226q0 42 -12.5 59t-44.5 17v72q32 0 44.5 18t12.5 60v226q0 77 35 111.5t120 34.5v-65z" />
    <glyph glyph-name="bar" unicode="|" horiz-adv-x="325" 
d="M203 807v-909h-81v909h81z" />
    <glyph glyph-name="braceright" unicode="}" horiz-adv-x="265" 
d="M153.5 800.5q35.5 -34.5 35.5 -111.5v-226q0 -42 12.5 -60t44.5 -18v-72q-32 0 -44.5 -17t-12.5 -59v-226q0 -77 -35.5 -111.5t-119.5 -34.5v65q42 0 58.5 16t16.5 56v241q0 51 16 72t55 34q-39 13 -55 35t-16 73v241q0 40 -16.5 56t-56.5 16l-2 65q84 0 119.5 -34.5z
" />
    <glyph glyph-name="asciitilde" unicode="~" horiz-adv-x="405" 
d="M227.5 263q-18.5 9 -42.5 25q-18 13 -29 19t-23 6q-17 0 -30 -13.5t-28 -38.5l-49 27q45 92 113 92q22 0 39 -8.5t41 -24.5q17 -13 29 -19t24 -6q18 0 31.5 12t26.5 34l49 -27q-18 -37 -45.5 -62t-64.5 -25q-23 0 -41.5 9z" />
    <glyph glyph-name="uni00A0" unicode="&#xa0;" horiz-adv-x="212" 
 />
    <glyph glyph-name="exclamdown" unicode="&#xa1;" horiz-adv-x="219" 
d="M156 473.5q18 -19.5 18 -46.5t-18 -46.5t-46 -19.5q-29 0 -47 19.5t-18 46.5t18 46.5t47 19.5q28 0 46 -19.5zM146 252l12 -454h-95l11 454h72z" />
    <glyph glyph-name="cent" unicode="&#xa2;" horiz-adv-x="391" 
d="M376 46q-47 -46 -104 -56v-144h-71v146q-75 14 -115.5 80.5t-40.5 186.5q0 116 41.5 188t115.5 87v150h70v-148q56 -7 104 -54l-40 -52q-23 19 -44.5 28t-46.5 9q-106 0 -106 -206q0 -107 27 -153t78 -46q25 0 45.5 9t45.5 28z" />
    <glyph glyph-name="sterling" unicode="&#xa3;" horiz-adv-x="434" 
d="M173 120.5q-12 -27.5 -49 -46.5h270l-10 -74h-353v70q29 13 43.5 27.5t19.5 38t5 65.5v122h-55v58h55v123q0 77 43.5 126t117.5 49q91 0 149 -82l-55 -42q-20 28 -40.5 40.5t-47.5 12.5q-40 0 -60.5 -26t-20.5 -76v-125h166v-58h-166v-123q0 -52 -12 -79.5z" />
    <glyph glyph-name="currency" unicode="&#xa4;" 
d="M390 90l-62 76q-41 -32 -101 -32q-54 0 -96 31l-62 -75l-51 46l69 80q-30 52 -30 125q0 72 29 122l-72 86l55 44l62 -77q42 31 96 31q57 0 100 -31l63 77l51 -46l-70 -80q31 -53 31 -126q0 -71 -28 -122l71 -85zM299.5 236.5q23.5 33.5 23.5 105.5q0 71 -23.5 105
t-70.5 34q-95 0 -95 -139q0 -72 24 -105.5t71 -33.5t70.5 33.5z" />
    <glyph glyph-name="yen" unicode="&#xa5;" horiz-adv-x="445" 
d="M443 669l-156 -324h92v-60h-112v-91h112v-59h-112v-135h-89v135h-112v59h112v91h-112v60h92l-156 324h92l130 -298l131 298h88z" />
    <glyph glyph-name="brokenbar" unicode="&#xa6;" horiz-adv-x="325" 
d="M203 807v-364h-81v364h81zM203 262v-364h-81v364h81z" />
    <glyph glyph-name="section" unicode="&#xa7;" horiz-adv-x="442" 
d="M357 128.5q11 -23.5 11 -54.5q0 -66 -45 -105.5t-114 -39.5q-86 0 -148 50l35 55q49 -36 108 -36q36 0 57 18.5t21 53.5q0 23 -7.5 37t-28.5 27t-64 30q-68 27 -97.5 59t-29.5 89q0 36 17.5 67.5t48.5 53.5q-24 20 -35 44t-11 57q0 65 45 104t112 39q45 0 80 -14t65 -40
l-35 -52q-53 38 -104 38q-36 0 -56.5 -19t-20.5 -52q0 -23 7.5 -38.5t28.5 -30t63 -31.5q67 -28 97 -59t30 -82q0 -74 -64 -126q23 -19 34 -42.5zM275 202q31 37 31 83q0 32 -17.5 51t-70.5 42q-31 13 -51 25q-30 -36 -30 -80q0 -37 17 -56.5t68 -40.5q32 -13 53 -24z" />
    <glyph glyph-name="dieresis" unicode="&#xa8;" horiz-adv-x="341" 
d="M128 749q15 -16 15 -39t-15 -39t-38 -16t-38 16t-15 39t15 39t38 16t38 -16zM303 749q15 -16 15 -39t-15 -39t-38 -16q-22 0 -37.5 16t-15.5 39t15.5 39t37.5 16q23 0 38 -16z" />
    <glyph glyph-name="copyright" unicode="&#xa9;" horiz-adv-x="664" 
d="M465 709q59 -38 93.5 -109t34.5 -166q0 -94 -34.5 -165t-93.5 -109t-132 -38t-133 38t-94.5 109t-34.5 165q0 95 34.5 166t94.5 109t133 38t132 -38zM227 665q-47 -31 -73.5 -90.5t-26.5 -140.5t26.5 -139.5t73.5 -89.5t106 -31t105.5 31t73 89.5t26.5 139.5t-26.5 140.5
t-73 90.5t-105.5 31t-106 -31zM432 585l-30 -43q-34 24 -64 24q-70 0 -70 -131q0 -128 71 -128q19 0 34 7t32 20l30 -43q-21 -21 -44.5 -33t-55.5 -12q-59 0 -97.5 49t-38.5 140q0 93 38 141t100 48q51 0 95 -39z" />
    <glyph glyph-name="ordfeminine" unicode="&#xaa;" horiz-adv-x="421" 
d="M252 525v35q0 32 -16 47t-50 15q-35 0 -89 -19l-22 58q64 28 123 28q68 0 101.5 -33t33.5 -91v-192q0 -17 6.5 -27t19.5 -15l-17 -59q-58 8 -76 53q-36 -54 -101 -54q-53 0 -84 33.5t-31 88.5q0 64 41 98t116 34h45zM252 387v84h-43q-39 0 -56 -17.5t-17 -55.5
q0 -31 12.5 -47t36.5 -16q42 0 67 52zM54 73h317v-71h-317v71z" />
    <glyph glyph-name="guillemotleft" unicode="&#xab;" horiz-adv-x="500" 
d="M196 533l53 -34l-116 -212l116 -212l-53 -34l-146 215v61zM397 533l53 -34l-116 -212l116 -212l-53 -34l-146 215v61z" />
    <glyph glyph-name="logicalnot" unicode="&#xac;" horiz-adv-x="417" 
d="M369 358v-214h-77v143h-244v71h321z" />
    <glyph glyph-name="uni00AD" unicode="&#xad;" horiz-adv-x="339" 
d="M50 276v74h239v-74h-239z" />
    <glyph glyph-name="registered" unicode="&#xae;" horiz-adv-x="525" 
d="M370.5 716q48.5 -32 76 -90t27.5 -132t-27.5 -132t-76 -90t-108.5 -32q-59 0 -107.5 32t-76 89.5t-27.5 131.5t27.5 132t76 90.5t107.5 32.5q60 0 108.5 -32zM380 343.5q45 55.5 45 150.5t-45 151t-118 56q-46 0 -83 -25.5t-58 -72.5t-21 -110t21 -109t57.5 -71t83.5 -25
q73 0 118 55.5zM337.5 503q-13.5 -19 -37.5 -28l60 -115h-56l-48 106h-22v-106h-49v275h64q51 0 76.5 -22t25.5 -62q0 -29 -13.5 -48zM234 509h25q42 0 42 42q0 41 -44 41h-23v-83z" />
    <glyph glyph-name="macron" unicode="&#xaf;" horiz-adv-x="288" 
d="M263 669h-228v64h228v-64z" />
    <glyph glyph-name="degree" unicode="&#xb0;" horiz-adv-x="428" 
d="M112.5 401q-31.5 18 -50.5 53.5t-19 87.5q0 51 19 86.5t50.5 53.5t66.5 18q36 0 67.5 -18t50.5 -54t19 -87q0 -76 -40 -117t-97 -41q-35 0 -66.5 18zM229.5 465q18.5 24 18.5 76t-18.5 76t-50.5 24q-31 0 -49.5 -23t-18.5 -76t19 -77t49 -24q32 0 50.5 24z" />
    <glyph glyph-name="plusminus" unicode="&#xb1;" horiz-adv-x="416" 
d="M49 0v71h317v-71h-317zM246 537v-147h122v-73h-122v-145h-76v145h-122v73h122v147h76z" />
    <glyph glyph-name="uni00B2" unicode="&#xb2;" horiz-adv-x="328" 
d="M245.5 711.5q32.5 -33.5 32.5 -85.5q0 -34 -14 -65.5t-44.5 -71t-91.5 -107.5h158l-8 -60h-225v56q68 78 98 117t42.5 67.5t12.5 61.5q0 29 -13.5 45.5t-38.5 16.5q-20 0 -36.5 -10t-34.5 -31l-41 33q25 34 54 50.5t66 16.5q51 0 83.5 -33.5z" />
    <glyph glyph-name="uni00B3" unicode="&#xb3;" horiz-adv-x="328" 
d="M246.5 715.5q30.5 -30.5 30.5 -78.5q0 -76 -77 -94q41 -4 65 -29.5t24 -72.5q0 -55 -35.5 -91.5t-96.5 -36.5q-71 0 -118 60l39 35q19 -20 37 -29t40 -9q27 0 44 20t17 54q0 37 -16.5 53t-47.5 16h-29l8 54h20q26 0 41.5 16.5t15.5 47.5q0 29 -14.5 45t-39.5 16
q-19 0 -36 -8.5t-37 -25.5l-34 36q49 52 115 52q54 0 84.5 -30.5z" />
    <glyph glyph-name="acute" unicode="&#xb4;" horiz-adv-x="264" 
d="M200 795l39 -70l-178 -86l-26 44z" />
    <glyph glyph-name="uni00B5" unicode="&#xb5;" horiz-adv-x="482" 
d="M346 -12q-10 26 -13.5 46t-7.5 52q-20 -42 -48 -70t-63 -28q-25 0 -43 12.5t-31 39.5q10 -30 14 -60t4 -74v-108l-85 -10v739h88v-372q0 -91 60 -91t97 96v367h88v-347q0 -98 21 -180z" />
    <glyph glyph-name="paragraph" unicode="&#xb6;" horiz-adv-x="613" 
d="M503 689v-890l-78 -13v833h-91v-820l-78 -13v497q-93 5 -140 60.5t-47 143.5q0 96 54.5 149t151.5 53h228z" />
    <glyph glyph-name="periodcentered" unicode="&#xb7;" horiz-adv-x="209" 
d="M151 356.5q18 -19.5 18 -46.5t-18 -46.5t-47 -19.5q-28 0 -46 19.5t-18 46.5t18 46.5t46 19.5q29 0 47 -19.5z" />
    <glyph glyph-name="cedilla" unicode="&#xb8;" horiz-adv-x="244" 
d="M141 -60q78 -12 78 -84q0 -45 -29 -70t-76 -25q-46 0 -79 23l25 46q26 -12 49 -12q18 0 29.5 9.5t11.5 28.5q0 23 -17.5 34t-56.5 11l12 115h53v-76z" />
    <glyph glyph-name="uni00B9" unicode="&#xb9;" horiz-adv-x="328" 
d="M229 739v-417h-69v343l-77 -55l-34 46l117 83h63z" />
    <glyph glyph-name="ordmasculine" unicode="&#xba;" horiz-adv-x="415" 
d="M327.5 635.5q42.5 -53.5 42.5 -155.5q0 -99 -42.5 -154t-119.5 -55t-120 53.5t-43 155.5q0 99 43 154t120 55t119.5 -53.5zM149 591q-19 -32 -19 -111t19 -111t59 -32t58.5 32t18.5 111t-18.5 111t-58.5 32t-59 -32zM49 0v71h317v-71h-317z" />
    <glyph glyph-name="guillemotright" unicode="&#xbb;" horiz-adv-x="500" 
d="M103 533l146 -216v-61l-146 -215l-53 34l116 212l-116 212zM304 533l146 -216v-61l-146 -215l-53 34l116 212l-116 212z" />
    <glyph glyph-name="onequarter" unicode="&#xbc;" horiz-adv-x="771" 
d="M229 689v-417h-69v343l-77 -55l-34 46l117 83h63zM524 750l56 -24l-332 -803l-57 24zM739 154v-57h-43v-97h-68v97h-154v52l103 275l60 -24l-93 -246h85l9 107h58v-107h43z" />
    <glyph glyph-name="onehalf" unicode="&#xbd;" horiz-adv-x="771" 
d="M229 689v-417h-69v343l-77 -55l-34 46l117 83h63zM524 750l56 -24l-332 -803l-57 24zM688.5 389.5q32.5 -33.5 32.5 -85.5q0 -34 -14 -65.5t-44.5 -71t-91.5 -107.5h158l-8 -60h-225v56q68 78 98 117t42.5 67.5t12.5 61.5q0 29 -13.5 45.5t-38.5 16.5q-20 0 -36.5 -10
t-34.5 -31l-41 33q25 34 54 50.5t66 16.5q51 0 83.5 -33.5z" />
    <glyph glyph-name="threequarters" unicode="&#xbe;" horiz-adv-x="771" 
d="M246.5 665.5q30.5 -30.5 30.5 -78.5q0 -76 -77 -94q41 -4 65 -29.5t24 -72.5q0 -55 -35.5 -91.5t-96.5 -36.5q-71 0 -118 60l39 35q19 -20 37 -29t40 -9q27 0 44 20t17 54q0 37 -16.5 53t-47.5 16h-29l8 54h20q26 0 41.5 16.5t15.5 47.5q0 29 -14.5 45t-39.5 16
q-19 0 -36 -8.5t-37 -25.5l-34 36q49 52 115 52q54 0 84.5 -30.5zM524 750l56 -24l-332 -803l-57 24zM739 154v-57h-43v-97h-68v97h-154v52l103 275l60 -24l-93 -246h85l9 107h58v-107h43z" />
    <glyph glyph-name="questiondown" unicode="&#xbf;" horiz-adv-x="393" 
d="M170 379.5q-18 19.5 -18 46.5t18 46.5t47 19.5q28 0 46 -19.5t18 -46.5t-18 -46.5t-46 -19.5q-29 0 -47 19.5zM103 -194.5q-37 21.5 -56 56.5t-19 76q0 37 11 63t26 43.5t41 39.5q36 31 53.5 56.5t17.5 68.5v38h84v-43q0 -41 -11 -70t-27 -46.5t-42 -40.5
q-33 -28 -48.5 -50t-15.5 -59q0 -39 21.5 -60.5t59.5 -21.5q32 0 58.5 16t54.5 52l54 -42q-67 -98 -172 -98q-53 0 -90 21.5z" />
    <glyph glyph-name="Agrave" unicode="&#xc0;" horiz-adv-x="487" 
d="M386 0l-41 175h-206l-41 -175h-90l179 689h113l179 -689h-93zM156 248h172l-86 365zM172 908l168 -105l-23 -48l-181 79z" />
    <glyph glyph-name="Aacute" unicode="&#xc1;" horiz-adv-x="487" 
d="M386 0l-41 175h-206l-41 -175h-90l179 689h113l179 -689h-93zM156 248h172l-86 365zM309 908l37 -74l-181 -79l-23 48z" />
    <glyph glyph-name="Acircumflex" unicode="&#xc2;" horiz-adv-x="487" 
d="M386 0l-41 175h-206l-41 -175h-90l179 689h113l179 -689h-93zM156 248h172l-86 365zM138 761l-35 38l112 112h56l112 -112l-36 -38l-104 80z" />
    <glyph glyph-name="Atilde" unicode="&#xc3;" horiz-adv-x="487" 
d="M386 0l-41 175h-206l-41 -175h-90l179 689h113l179 -689h-93zM156 248h172l-86 365zM266.5 793.5q-12.5 6.5 -31.5 19.5q-9 7 -19 12.5t-19 5.5q-13 0 -23 -10.5t-22 -34.5l-48 23q15 40 38 62.5t52 22.5q17 0 30 -6.5t29 -18.5q25 -19 39 -19q12 0 22 10t22 33l49 -22
q-29 -84 -90 -84q-16 0 -28.5 6.5z" />
    <glyph glyph-name="Adieresis" unicode="&#xc4;" horiz-adv-x="487" 
d="M386 0l-41 175h-206l-41 -175h-90l179 689h113l179 -689h-93zM156 248h172l-86 365zM201 875q15 -16 15 -39t-15 -39t-38 -16t-38 16t-15 39t15 39t38 16t38 -16zM376 875q15 -16 15 -39t-15 -39t-38 -16q-22 0 -37.5 16t-15.5 39t15.5 39t37.5 16q23 0 38 -16z" />
    <glyph glyph-name="Aring" unicode="&#xc5;" horiz-adv-x="487" 
d="M386 0l-41 175h-206l-41 -175h-90l179 689h113l179 -689h-93zM156 248h172l-86 365zM315.5 932q26.5 -28 26.5 -76q0 -49 -26.5 -77t-71.5 -28t-71.5 28t-26.5 77q0 48 26.5 76t71.5 28t71.5 -28zM212 900.5q-11 -13.5 -11 -44.5q0 -32 11 -45.5t32 -13.5q43 0 43 59
q0 31 -11 44.5t-32 13.5t-32 -13.5z" />
    <glyph glyph-name="AE" unicode="&#xc6;" horiz-adv-x="674" 
d="M448 73h187v-73h-262l-31 174h-210l-52 -174h-91l224 689h388l-10 -73h-245l43 -230h205v-73h-191zM154 247h176l-65 369z" />
    <glyph glyph-name="Ccedilla" unicode="&#xc7;" horiz-adv-x="466" 
d="M391 14.5q-35 -20.5 -78 -25.5v-49q78 -12 78 -84q0 -45 -29 -70t-76 -25q-46 0 -79 23l25 46q26 -12 49 -12q18 0 29.5 9.5t11.5 28.5q0 23 -17.5 34t-56.5 11l9 89q-98 13 -155 102t-57 253q0 119 31.5 198.5t86 118t123.5 38.5q49 0 86 -16.5t74 -50.5l-47 -55
q-28 25 -54 36.5t-57 11.5q-147 0 -147 -281q0 -280 150 -280q34 0 59.5 13.5t52.5 38.5l49 -53q-26 -29 -61 -49.5z" />
    <glyph glyph-name="Egrave" unicode="&#xc8;" horiz-adv-x="435" 
d="M392 689l-10 -73h-215v-229h187v-73h-187v-241h229v-73h-320v689h316zM164 908l168 -105l-23 -48l-181 79z" />
    <glyph glyph-name="Eacute" unicode="&#xc9;" horiz-adv-x="435" 
d="M392 689l-10 -73h-215v-229h187v-73h-187v-241h229v-73h-320v689h316zM301 908l37 -74l-181 -79l-23 48z" />
    <glyph glyph-name="Ecircumflex" unicode="&#xca;" horiz-adv-x="435" 
d="M392 689l-10 -73h-215v-229h187v-73h-187v-241h229v-73h-320v689h316zM130 761l-35 38l112 112h56l112 -112l-36 -38l-104 80z" />
    <glyph glyph-name="Edieresis" unicode="&#xcb;" horiz-adv-x="435" 
d="M392 689l-10 -73h-215v-229h187v-73h-187v-241h229v-73h-320v689h316zM193 875q15 -16 15 -39t-15 -39t-38 -16t-38 16t-15 39t15 39t38 16t38 -16zM368 875q15 -16 15 -39t-15 -39t-38 -16q-22 0 -37.5 16t-15.5 39t15.5 39t37.5 16q23 0 38 -16z" />
    <glyph glyph-name="Igrave" unicode="&#xcc;" horiz-adv-x="243" 
d="M167 689v-689h-91v689h91zM49 908l168 -105l-23 -48l-181 79z" />
    <glyph glyph-name="Iacute" unicode="&#xcd;" horiz-adv-x="243" 
d="M167 689v-689h-91v689h91zM186 908l37 -74l-181 -79l-23 48z" />
    <glyph glyph-name="Icircumflex" unicode="&#xce;" horiz-adv-x="243" 
d="M167 689v-689h-91v689h91zM15 761l-35 38l112 112h56l112 -112l-36 -38l-104 80z" />
    <glyph glyph-name="Idieresis" unicode="&#xcf;" horiz-adv-x="243" 
d="M167 689v-689h-91v689h91zM78 875q15 -16 15 -39t-15 -39t-38 -16t-38 16t-15 39t15 39t38 16t38 -16zM253 875q15 -16 15 -39t-15 -39t-38 -16q-22 0 -37.5 16t-15.5 39t15.5 39t37.5 16q23 0 38 -16z" />
    <glyph glyph-name="Eth" unicode="&#xd0;" horiz-adv-x="549" 
d="M365.5 662.5q61.5 -26.5 100 -102t38.5 -212.5q0 -195 -76 -271.5t-193 -76.5h-144v319h-71v68h71v302h129q84 0 145.5 -26.5zM327.5 94q36.5 22 59 82.5t22.5 171.5q0 113 -23.5 171.5t-60 77.5t-88.5 19h-55v-229h113v-68h-113v-247h59q50 0 86.5 22z" />
    <glyph glyph-name="Ntilde" unicode="&#xd1;" horiz-adv-x="557" 
d="M481 0h-121l-212 587q6 -70 9.5 -125t3.5 -138v-324h-85v689h121l212 -588q-4 15 -8.5 82t-4.5 125v381h85v-689zM308.5 793.5q-12.5 6.5 -31.5 19.5q-9 7 -19 12.5t-19 5.5q-13 0 -23 -10.5t-22 -34.5l-48 23q15 40 38 62.5t52 22.5q17 0 30 -6.5t29 -18.5
q25 -19 39 -19q12 0 22 10t22 33l49 -22q-29 -84 -90 -84q-16 0 -28.5 6.5z" />
    <glyph glyph-name="Ograve" unicode="&#xd2;" horiz-adv-x="575" 
d="M466 611.5q64 -88.5 64 -267.5q0 -177 -64 -266.5t-178 -89.5t-178.5 88t-64.5 267q0 177 65 267t178 90q114 0 178 -88.5zM178.5 560q-37.5 -66 -37.5 -217q0 -150 38 -215t109 -65q72 0 109 64.5t37 216.5q0 151 -37 216.5t-109 65.5t-109.5 -66zM216 908l168 -105
l-23 -48l-181 79z" />
    <glyph glyph-name="Oacute" unicode="&#xd3;" horiz-adv-x="575" 
d="M466 611.5q64 -88.5 64 -267.5q0 -177 -64 -266.5t-178 -89.5t-178.5 88t-64.5 267q0 177 65 267t178 90q114 0 178 -88.5zM178.5 560q-37.5 -66 -37.5 -217q0 -150 38 -215t109 -65q72 0 109 64.5t37 216.5q0 151 -37 216.5t-109 65.5t-109.5 -66zM353 908l37 -74
l-181 -79l-23 48z" />
    <glyph glyph-name="Ocircumflex" unicode="&#xd4;" horiz-adv-x="575" 
d="M466 611.5q64 -88.5 64 -267.5q0 -177 -64 -266.5t-178 -89.5t-178.5 88t-64.5 267q0 177 65 267t178 90q114 0 178 -88.5zM178.5 560q-37.5 -66 -37.5 -217q0 -150 38 -215t109 -65q72 0 109 64.5t37 216.5q0 151 -37 216.5t-109 65.5t-109.5 -66zM182 761l-35 38
l112 112h56l112 -112l-36 -38l-104 80z" />
    <glyph glyph-name="Otilde" unicode="&#xd5;" horiz-adv-x="575" 
d="M466 611.5q64 -88.5 64 -267.5q0 -177 -64 -266.5t-178 -89.5t-178.5 88t-64.5 267q0 177 65 267t178 90q114 0 178 -88.5zM178.5 560q-37.5 -66 -37.5 -217q0 -150 38 -215t109 -65q72 0 109 64.5t37 216.5q0 151 -37 216.5t-109 65.5t-109.5 -66zM310.5 793.5
q-12.5 6.5 -31.5 19.5q-9 7 -19 12.5t-19 5.5q-13 0 -23 -10.5t-22 -34.5l-48 23q15 40 38 62.5t52 22.5q17 0 30 -6.5t29 -18.5q25 -19 39 -19q12 0 22 10t22 33l49 -22q-29 -84 -90 -84q-16 0 -28.5 6.5z" />
    <glyph glyph-name="Odieresis" unicode="&#xd6;" horiz-adv-x="575" 
d="M466 611.5q64 -88.5 64 -267.5q0 -177 -64 -266.5t-178 -89.5t-178.5 88t-64.5 267q0 177 65 267t178 90q114 0 178 -88.5zM178.5 560q-37.5 -66 -37.5 -217q0 -150 38 -215t109 -65q72 0 109 64.5t37 216.5q0 151 -37 216.5t-109 65.5t-109.5 -66zM245 875
q15 -16 15 -39t-15 -39t-38 -16t-38 16t-15 39t15 39t38 16t38 -16zM420 875q15 -16 15 -39t-15 -39t-38 -16q-22 0 -37.5 16t-15.5 39t15.5 39t37.5 16q23 0 38 -16z" />
    <glyph glyph-name="multiply" unicode="&#xd7;" horiz-adv-x="413" 
d="M306 484l56 -44l-105 -133l105 -133l-56 -43l-100 128l-99 -128l-56 43l104 133l-104 133l56 44l99 -130z" />
    <glyph glyph-name="Oslash" unicode="&#xd8;" horiz-adv-x="575" 
d="M498 550q32 -81 32 -206q0 -177 -64 -266.5t-178 -89.5q-24 0 -52 5l-28 -119l-73 19l33 127q-59 37 -91 117.5t-32 205.5q0 177 65 267t178 90q23 0 50 -5l30 123l72 -19l-33 -130q59 -38 91 -119zM177 560q-38 -66 -38 -217q0 -190 62 -249l125 528q-16 4 -38 4
q-73 0 -111 -66zM419 509.5q-15 58.5 -45 86.5l-125 -529q17 -4 39 -4q74 0 110 66t36 224q0 98 -15 156.5z" />
    <glyph glyph-name="Ugrave" unicode="&#xd9;" horiz-adv-x="538" 
d="M472 185q0 -55 -23.5 -100t-69.5 -71t-110 -26q-97 0 -150 55.5t-53 141.5v504h91v-497q0 -127 112 -127t112 127v497h91v-504zM197 908l168 -105l-23 -48l-181 79z" />
    <glyph glyph-name="Uacute" unicode="&#xda;" horiz-adv-x="538" 
d="M472 185q0 -55 -23.5 -100t-69.5 -71t-110 -26q-97 0 -150 55.5t-53 141.5v504h91v-497q0 -127 112 -127t112 127v497h91v-504zM334 908l37 -74l-181 -79l-23 48z" />
    <glyph glyph-name="Ucircumflex" unicode="&#xdb;" horiz-adv-x="538" 
d="M472 185q0 -55 -23.5 -100t-69.5 -71t-110 -26q-97 0 -150 55.5t-53 141.5v504h91v-497q0 -127 112 -127t112 127v497h91v-504zM163 761l-35 38l112 112h56l112 -112l-36 -38l-104 80z" />
    <glyph glyph-name="Udieresis" unicode="&#xdc;" horiz-adv-x="538" 
d="M472 185q0 -55 -23.5 -100t-69.5 -71t-110 -26q-97 0 -150 55.5t-53 141.5v504h91v-497q0 -127 112 -127t112 127v497h91v-504zM226 875q15 -16 15 -39t-15 -39t-38 -16t-38 16t-15 39t15 39t38 16t38 -16zM401 875q15 -16 15 -39t-15 -39t-38 -16q-22 0 -37.5 16
t-15.5 39t15.5 39t37.5 16q23 0 38 -16z" />
    <glyph glyph-name="Yacute" unicode="&#xdd;" horiz-adv-x="459" 
d="M457 689l-182 -424v-265h-91v264l-182 425h97l133 -344l132 344h93zM294 908l37 -74l-181 -79l-23 48z" />
    <glyph glyph-name="Thorn" unicode="&#xde;" horiz-adv-x="476" 
d="M394.5 516q61.5 -54 61.5 -162q0 -115 -62.5 -170.5t-176.5 -55.5h-50v-128h-91v689h91v-119h46q120 0 181.5 -54zM325 234q36 34 36 119q0 76 -36.5 111t-112.5 35h-45v-299h45q77 0 113 34z" />
    <glyph glyph-name="germandbls" unicode="&#xdf;" horiz-adv-x="490" 
d="M325.5 730q34.5 -19 53 -50.5t18.5 -69.5q0 -42 -14.5 -68.5t-40.5 -53.5q-17 -18 -25.5 -31t-8.5 -30q0 -21 13.5 -38.5t42.5 -43.5q31 -29 50.5 -50.5t33.5 -55t14 -78.5q0 -52 -20.5 -91.5t-54.5 -60.5t-75 -21q-51 0 -87 23l27 59q26 -11 50 -11q32 0 51.5 26.5
t19.5 76.5q0 47 -20 78t-58 67q-33 31 -49.5 55.5t-16.5 59.5q0 25 10 42.5t30 40.5q23 26 34.5 47t11.5 54q0 35 -19.5 54.5t-51.5 19.5q-40 0 -61.5 -29t-21.5 -82v-569h-88v569q0 80 47 130t125 50q46 0 80.5 -19z" />
    <glyph glyph-name="agrave" unicode="&#xe0;" horiz-adv-x="451" 
d="M385 70.5q8 -13.5 26 -21.5l-19 -61q-37 6 -58.5 23.5t-30.5 52.5q-43 -76 -126 -76q-65 0 -103.5 43.5t-38.5 115.5q0 84 52 128.5t151 44.5h52v48q0 52 -20.5 76t-63.5 24q-51 0 -119 -27l-22 62q81 35 152 35q81 0 120.5 -43.5t39.5 -122.5v-260q0 -28 8 -41.5z
M290 138v123h-42q-63 0 -92.5 -27t-29.5 -83q0 -48 18 -72.5t51 -24.5q62 0 95 84zM161 795l165 -112l-26 -44l-178 86z" />
    <glyph glyph-name="aacute" unicode="&#xe1;" horiz-adv-x="451" 
d="M385 70.5q8 -13.5 26 -21.5l-19 -61q-37 6 -58.5 23.5t-30.5 52.5q-43 -76 -126 -76q-65 0 -103.5 43.5t-38.5 115.5q0 84 52 128.5t151 44.5h52v48q0 52 -20.5 76t-63.5 24q-51 0 -119 -27l-22 62q81 35 152 35q81 0 120.5 -43.5t39.5 -122.5v-260q0 -28 8 -41.5z
M290 138v123h-42q-63 0 -92.5 -27t-29.5 -83q0 -48 18 -72.5t51 -24.5q62 0 95 84zM277 795l39 -70l-178 -86l-26 44z" />
    <glyph glyph-name="acircumflex" unicode="&#xe2;" horiz-adv-x="451" 
d="M385 70.5q8 -13.5 26 -21.5l-19 -61q-37 6 -58.5 23.5t-30.5 52.5q-43 -76 -126 -76q-65 0 -103.5 43.5t-38.5 115.5q0 84 52 128.5t151 44.5h52v48q0 52 -20.5 76t-63.5 24q-51 0 -119 -27l-22 62q81 35 152 35q81 0 120.5 -43.5t39.5 -122.5v-260q0 -28 8 -41.5z
M290 138v123h-42q-63 0 -92.5 -27t-29.5 -83q0 -48 18 -72.5t51 -24.5q62 0 95 84zM111 637l-35 38l112 116h56l112 -116l-36 -38l-104 84z" />
    <glyph glyph-name="atilde" unicode="&#xe3;" horiz-adv-x="451" 
d="M385 70.5q8 -13.5 26 -21.5l-19 -61q-37 6 -58.5 23.5t-30.5 52.5q-43 -76 -126 -76q-65 0 -103.5 43.5t-38.5 115.5q0 84 52 128.5t151 44.5h52v48q0 52 -20.5 76t-63.5 24q-51 0 -119 -27l-22 62q81 35 152 35q81 0 120.5 -43.5t39.5 -122.5v-260q0 -28 8 -41.5z
M290 138v123h-42q-63 0 -92.5 -27t-29.5 -83q0 -48 18 -72.5t51 -24.5q62 0 95 84zM238.5 667.5q-12.5 6.5 -31.5 19.5q-9 7 -19 12.5t-19 5.5q-13 0 -23 -10.5t-22 -34.5l-48 23q15 40 38 62.5t52 22.5q17 0 30 -6.5t29 -18.5q25 -19 39 -19q12 0 22 10t22 33l49 -22
q-29 -84 -90 -84q-16 0 -28.5 6.5z" />
    <glyph glyph-name="adieresis" unicode="&#xe4;" horiz-adv-x="451" 
d="M385 70.5q8 -13.5 26 -21.5l-19 -61q-37 6 -58.5 23.5t-30.5 52.5q-43 -76 -126 -76q-65 0 -103.5 43.5t-38.5 115.5q0 84 52 128.5t151 44.5h52v48q0 52 -20.5 76t-63.5 24q-51 0 -119 -27l-22 62q81 35 152 35q81 0 120.5 -43.5t39.5 -122.5v-260q0 -28 8 -41.5z
M290 138v123h-42q-63 0 -92.5 -27t-29.5 -83q0 -48 18 -72.5t51 -24.5q62 0 95 84zM166 749q15 -16 15 -39t-15 -39t-38 -16t-38 16t-15 39t15 39t38 16t38 -16zM341 749q15 -16 15 -39t-15 -39t-38 -16q-22 0 -37.5 16t-15.5 39t15.5 39t37.5 16q23 0 38 -16z" />
    <glyph glyph-name="aring" unicode="&#xe5;" horiz-adv-x="451" 
d="M385 70.5q8 -13.5 26 -21.5l-19 -61q-37 6 -58.5 23.5t-30.5 52.5q-43 -76 -126 -76q-65 0 -103.5 43.5t-38.5 115.5q0 84 52 128.5t151 44.5h52v48q0 52 -20.5 76t-63.5 24q-51 0 -119 -27l-22 62q81 35 152 35q81 0 120.5 -43.5t39.5 -122.5v-260q0 -28 8 -41.5z
M290 138v123h-42q-63 0 -92.5 -27t-29.5 -83q0 -48 18 -72.5t51 -24.5q62 0 95 84zM287.5 806q26.5 -28 26.5 -76q0 -49 -26.5 -77t-71.5 -28t-71.5 28t-26.5 77q0 48 26.5 76t71.5 28t71.5 -28zM184 774.5q-11 -13.5 -11 -44.5q0 -32 11 -45.5t32 -13.5q43 0 43 59
q0 31 -11 44.5t-32 13.5t-32 -13.5z" />
    <glyph glyph-name="ae" unicode="&#xe6;" horiz-adv-x="702" 
d="M660 233h-276q4 -90 34.5 -131.5t79.5 -41.5q30 0 56 10.5t53 33.5l39 -50q-69 -66 -155 -66q-54 0 -95 24.5t-66 71.5q-29 -51 -65.5 -73.5t-83.5 -22.5q-66 0 -106 44t-40 115q0 84 53.5 128.5t152.5 44.5h52v41q0 57 -21 82t-66 25q-48 0 -116 -28l-21 63
q81 35 152 35q50 0 81 -20.5t48 -59.5q50 80 137 80q83 0 129 -66.5t46 -192.5q0 -22 -2 -46zM575 305q0 85 -22 124.5t-68 39.5q-94 0 -101 -171h191v7zM257 77q25 23 48 73q-12 47 -12 107v4h-42q-62 0 -92.5 -27t-30.5 -83q0 -47 18.5 -72t52.5 -25q33 0 58 23z" />
    <glyph glyph-name="ccedilla" unicode="&#xe7;" horiz-adv-x="391" 
d="M259 -11v-49q78 -12 78 -84q0 -45 -29 -70t-76 -25q-46 0 -79 23l25 46q26 -12 49 -12q18 0 29.5 9.5t11.5 28.5q0 23 -17.5 34t-56.5 11l9 90q-75 14 -116.5 81t-41.5 187q0 132 53 205.5t144 73.5q40 0 72 -13t62 -43l-40 -52q-23 19 -44.5 28t-46.5 9
q-106 0 -106 -206q0 -107 27 -153t78 -46q25 0 45.5 9t45.5 28l41 -53q-53 -51 -117 -57z" />
    <glyph glyph-name="egrave" unicode="&#xe8;" horiz-adv-x="454" 
d="M412 233h-276q4 -95 31.5 -134t78.5 -39q33 0 59 10.5t54 33.5l39 -53q-66 -63 -155 -63q-94 0 -146 69.5t-52 200.5t49.5 205.5t139.5 74.5q87 0 133.5 -65.5t46.5 -193.5q0 -22 -2 -46zM329 305q0 86 -23 125t-72 39q-44 0 -69 -39.5t-29 -131.5h193v7zM178 795
l165 -112l-26 -44l-178 86z" />
    <glyph glyph-name="eacute" unicode="&#xe9;" horiz-adv-x="454" 
d="M412 233h-276q4 -95 31.5 -134t78.5 -39q33 0 59 10.5t54 33.5l39 -53q-66 -63 -155 -63q-94 0 -146 69.5t-52 200.5t49.5 205.5t139.5 74.5q87 0 133.5 -65.5t46.5 -193.5q0 -22 -2 -46zM329 305q0 86 -23 125t-72 39q-44 0 -69 -39.5t-29 -131.5h193v7zM294 795l39 -70
l-178 -86l-26 44z" />
    <glyph glyph-name="ecircumflex" unicode="&#xea;" horiz-adv-x="454" 
d="M412 233h-276q4 -95 31.5 -134t78.5 -39q33 0 59 10.5t54 33.5l39 -53q-66 -63 -155 -63q-94 0 -146 69.5t-52 200.5t49.5 205.5t139.5 74.5q87 0 133.5 -65.5t46.5 -193.5q0 -22 -2 -46zM329 305q0 86 -23 125t-72 39q-44 0 -69 -39.5t-29 -131.5h193v7zM128 637l-35 38
l112 116h56l112 -116l-36 -38l-104 84z" />
    <glyph glyph-name="edieresis" unicode="&#xeb;" horiz-adv-x="454" 
d="M412 233h-276q4 -95 31.5 -134t78.5 -39q33 0 59 10.5t54 33.5l39 -53q-66 -63 -155 -63q-94 0 -146 69.5t-52 200.5t49.5 205.5t139.5 74.5q87 0 133.5 -65.5t46.5 -193.5q0 -22 -2 -46zM329 305q0 86 -23 125t-72 39q-44 0 -69 -39.5t-29 -131.5h193v7zM183 749
q15 -16 15 -39t-15 -39t-38 -16t-38 16t-15 39t15 39t38 16t38 -16zM358 749q15 -16 15 -39t-15 -39t-38 -16q-22 0 -37.5 16t-15.5 39t15.5 39t37.5 16q23 0 38 -16z" />
    <glyph glyph-name="igrave" unicode="&#xec;" horiz-adv-x="234" 
d="M161 527v-527h-88v527h88zM62 795l165 -112l-26 -44l-178 86z" />
    <glyph glyph-name="iacute" unicode="&#xed;" horiz-adv-x="234" 
d="M161 527v-527h-88v527h88zM178 795l39 -70l-178 -86l-26 44z" />
    <glyph glyph-name="icircumflex" unicode="&#xee;" horiz-adv-x="234" 
d="M161 527v-527h-88v527h88zM12 637l-35 38l112 116h56l112 -116l-36 -38l-104 84z" />
    <glyph glyph-name="idieresis" unicode="&#xef;" horiz-adv-x="234" 
d="M161 527v-527h-88v527h88zM67 749q15 -16 15 -39t-15 -39t-38 -16t-38 16t-15 39t15 39t38 16t38 -16zM242 749q15 -16 15 -39t-15 -39t-38 -16q-22 0 -37.5 16t-15.5 39t15.5 39t37.5 16q23 0 38 -16z" />
    <glyph glyph-name="eth" unicode="&#xf0;" horiz-adv-x="476" 
d="M394 502q32 -96 32 -235q0 -134 -52 -206.5t-142 -72.5q-83 0 -135 63t-52 184q0 68 20 122.5t58 85.5t88 31q71 0 118 -59q-11 65 -33 112t-61 85l-61 -74l-59 31l67 80q-42 22 -90 35l16 65q65 -16 123 -48l59 73l54 -39l-58 -72q76 -65 108 -161zM309.5 109.5
q27.5 51.5 27.5 158.5q0 22 -2 60q-40 77 -106 77q-49 0 -72 -42.5t-23 -124.5q0 -92 26 -136t72 -44q50 0 77.5 51.5z" />
    <glyph glyph-name="ntilde" unicode="&#xf1;" horiz-adv-x="482" 
d="M379 497q34 -41 34 -110v-387h-88v375q0 51 -14.5 72.5t-43.5 21.5q-57 0 -106 -98v-371h-88v527h76l7 -79q26 44 57 67t75 23q57 0 91 -41zM267.5 667.5q-12.5 6.5 -31.5 19.5q-9 7 -19 12.5t-19 5.5q-13 0 -23 -10.5t-22 -34.5l-48 23q15 40 38 62.5t52 22.5
q17 0 30 -6.5t29 -18.5q25 -19 39 -19q12 0 22 10t22 33l49 -22q-29 -84 -90 -84q-16 0 -28.5 6.5z" />
    <glyph glyph-name="ograve" unicode="&#xf2;" horiz-adv-x="485" 
d="M388.5 468.5q51.5 -69.5 51.5 -204.5q0 -127 -52.5 -201.5t-145.5 -74.5t-145 73t-52 202q0 133 52 204t146 71t145.5 -69.5zM164 419.5q-26 -47.5 -26 -156.5q0 -108 26 -156t78 -48q53 0 79 48t26 157q0 108 -26 155.5t-78 47.5q-53 0 -79 -47.5zM187 795l165 -112
l-26 -44l-178 86z" />
    <glyph glyph-name="oacute" unicode="&#xf3;" horiz-adv-x="485" 
d="M388.5 468.5q51.5 -69.5 51.5 -204.5q0 -127 -52.5 -201.5t-145.5 -74.5t-145 73t-52 202q0 133 52 204t146 71t145.5 -69.5zM164 419.5q-26 -47.5 -26 -156.5q0 -108 26 -156t78 -48q53 0 79 48t26 157q0 108 -26 155.5t-78 47.5q-53 0 -79 -47.5zM303 795l39 -70
l-178 -86l-26 44z" />
    <glyph glyph-name="ocircumflex" unicode="&#xf4;" horiz-adv-x="485" 
d="M388.5 468.5q51.5 -69.5 51.5 -204.5q0 -127 -52.5 -201.5t-145.5 -74.5t-145 73t-52 202q0 133 52 204t146 71t145.5 -69.5zM164 419.5q-26 -47.5 -26 -156.5q0 -108 26 -156t78 -48q53 0 79 48t26 157q0 108 -26 155.5t-78 47.5q-53 0 -79 -47.5zM137 637l-35 38
l112 116h56l112 -116l-36 -38l-104 84z" />
    <glyph glyph-name="otilde" unicode="&#xf5;" horiz-adv-x="485" 
d="M388.5 468.5q51.5 -69.5 51.5 -204.5q0 -127 -52.5 -201.5t-145.5 -74.5t-145 73t-52 202q0 133 52 204t146 71t145.5 -69.5zM164 419.5q-26 -47.5 -26 -156.5q0 -108 26 -156t78 -48q53 0 79 48t26 157q0 108 -26 155.5t-78 47.5q-53 0 -79 -47.5zM264.5 667.5
q-12.5 6.5 -31.5 19.5q-9 7 -19 12.5t-19 5.5q-13 0 -23 -10.5t-22 -34.5l-48 23q15 40 38 62.5t52 22.5q17 0 30 -6.5t29 -18.5q25 -19 39 -19q12 0 22 10t22 33l49 -22q-29 -84 -90 -84q-16 0 -28.5 6.5z" />
    <glyph glyph-name="odieresis" unicode="&#xf6;" horiz-adv-x="485" 
d="M388.5 468.5q51.5 -69.5 51.5 -204.5q0 -127 -52.5 -201.5t-145.5 -74.5t-145 73t-52 202q0 133 52 204t146 71t145.5 -69.5zM164 419.5q-26 -47.5 -26 -156.5q0 -108 26 -156t78 -48q53 0 79 48t26 157q0 108 -26 155.5t-78 47.5q-53 0 -79 -47.5zM192 749
q15 -16 15 -39t-15 -39t-38 -16t-38 16t-15 39t15 39t38 16t38 -16zM367 749q15 -16 15 -39t-15 -39t-38 -16q-22 0 -37.5 16t-15.5 39t15.5 39t37.5 16q23 0 38 -16z" />
    <glyph glyph-name="divide" unicode="&#xf7;" horiz-adv-x="413" 
d="M253 150.5q18 -19.5 18 -46.5t-18 -46.5t-47 -19.5q-28 0 -46 19.5t-18 46.5t18 46.5t46 19.5q29 0 47 -19.5zM253 604.5q18 -19.5 18 -46.5t-18 -46.5t-47 -19.5q-28 0 -46 19.5t-18 46.5t18 46.5t46 19.5q29 0 47 -19.5zM48 297v71h317v-71h-317z" />
    <glyph glyph-name="oslash" unicode="&#xf8;" horiz-adv-x="485" 
d="M440 264q0 -127 -52.5 -201.5t-145.5 -74.5q-22 0 -39 4l-31 -121l-69 19l37 128q-46 32 -70.5 95t-24.5 150q0 133 52 204t146 71q21 0 39 -3l32 120l68 -20l-36 -126q94 -62 94 -245zM161.5 420.5q-26.5 -47.5 -26.5 -157.5q0 -131 36 -176l98 378q-12 3 -26 3
q-55 0 -81.5 -47.5zM323.5 106q26.5 48 26.5 158q0 68 -9 110.5t-28 64.5l-95 -379q14 -2 24 -2q55 0 81.5 48z" />
    <glyph glyph-name="ugrave" unicode="&#xf9;" horiz-adv-x="479" 
d="M406 0h-76l-6 74q-25 -43 -56.5 -64.5t-73.5 -21.5q-57 0 -91 39t-34 102v398h88v-389q0 -81 57 -81q33 0 58 23.5t46 65.5v381h88v-527zM183 795l165 -112l-26 -44l-178 86z" />
    <glyph glyph-name="uacute" unicode="&#xfa;" horiz-adv-x="479" 
d="M406 0h-76l-6 74q-25 -43 -56.5 -64.5t-73.5 -21.5q-57 0 -91 39t-34 102v398h88v-389q0 -81 57 -81q33 0 58 23.5t46 65.5v381h88v-527zM299 795l39 -70l-178 -86l-26 44z" />
    <glyph glyph-name="ucircumflex" unicode="&#xfb;" horiz-adv-x="479" 
d="M406 0h-76l-6 74q-25 -43 -56.5 -64.5t-73.5 -21.5q-57 0 -91 39t-34 102v398h88v-389q0 -81 57 -81q33 0 58 23.5t46 65.5v381h88v-527zM133 637l-35 38l112 116h56l112 -116l-36 -38l-104 84z" />
    <glyph glyph-name="udieresis" unicode="&#xfc;" horiz-adv-x="479" 
d="M406 0h-76l-6 74q-25 -43 -56.5 -64.5t-73.5 -21.5q-57 0 -91 39t-34 102v398h88v-389q0 -81 57 -81q33 0 58 23.5t46 65.5v381h88v-527zM188 749q15 -16 15 -39t-15 -39t-38 -16t-38 16t-15 39t15 39t38 16t38 -16zM363 749q15 -16 15 -39t-15 -39t-38 -16
q-22 0 -37.5 16t-15.5 39t15.5 39t37.5 16q23 0 38 -16z" />
    <glyph glyph-name="yacute" unicode="&#xfd;" horiz-adv-x="418" 
d="M264 -3q-25 -91 -74 -144t-136 -65l-10 67q63 14 92 46t49 99h-33l-142 527h90l110 -463l109 463h89zM270 795l39 -70l-178 -86l-26 44z" />
    <glyph glyph-name="thorn" unicode="&#xfe;" horiz-adv-x="488" 
d="M403 467.5q40 -70.5 40 -203.5q0 -129 -44 -202.5t-126 -73.5q-70 0 -112 62v-248l-88 -14v951l88 10v-286q47 75 125 75q77 0 117 -70.5zM325.5 108.5q24.5 48.5 24.5 155.5q0 109 -21.5 156.5t-66.5 47.5q-56 0 -101 -77v-270q38 -61 93 -61q47 0 71.5 48.5z" />
    <glyph glyph-name="ydieresis" unicode="&#xff;" horiz-adv-x="418" 
d="M264 -3q-25 -91 -74 -144t-136 -65l-10 67q63 14 92 46t49 99h-33l-142 527h90l110 -463l109 463h89zM159 749q15 -16 15 -39t-15 -39t-38 -16t-38 16t-15 39t15 39t38 16t38 -16zM334 749q15 -16 15 -39t-15 -39t-38 -16q-22 0 -37.5 16t-15.5 39t15.5 39t37.5 16
q23 0 38 -16z" />
    <glyph glyph-name="Amacron" unicode="&#x100;" horiz-adv-x="487" 
d="M386 0l-41 175h-206l-41 -175h-90l179 689h113l179 -689h-93zM156 248h172l-86 365zM358 795h-228v64h228v-64z" />
    <glyph glyph-name="amacron" unicode="&#x101;" horiz-adv-x="451" 
d="M385 70.5q8 -13.5 26 -21.5l-19 -61q-37 6 -58.5 23.5t-30.5 52.5q-43 -76 -126 -76q-65 0 -103.5 43.5t-38.5 115.5q0 84 52 128.5t151 44.5h52v48q0 52 -20.5 76t-63.5 24q-51 0 -119 -27l-22 62q81 35 152 35q81 0 120.5 -43.5t39.5 -122.5v-260q0 -28 8 -41.5z
M290 138v123h-42q-63 0 -92.5 -27t-29.5 -83q0 -48 18 -72.5t51 -24.5q62 0 95 84zM330 669h-228v64h228v-64z" />
    <glyph glyph-name="Abreve" unicode="&#x102;" horiz-adv-x="487" 
d="M386 0l-41 175h-206l-41 -175h-90l179 689h113l179 -689h-93zM156 248h172l-86 365zM156 790.5q-34 31.5 -39 88.5l54 13q15 -66 72 -66q29 0 48 17t26 49l54 -13q-5 -57 -39.5 -88.5t-88.5 -31.5q-53 0 -87 31.5z" />
    <glyph glyph-name="abreve" unicode="&#x103;" horiz-adv-x="451" 
d="M385 70.5q8 -13.5 26 -21.5l-19 -61q-37 6 -58.5 23.5t-30.5 52.5q-43 -76 -126 -76q-65 0 -103.5 43.5t-38.5 115.5q0 84 52 128.5t151 44.5h52v48q0 52 -20.5 76t-63.5 24q-51 0 -119 -27l-22 62q81 35 152 35q81 0 120.5 -43.5t39.5 -122.5v-260q0 -28 8 -41.5z
M290 138v123h-42q-63 0 -92.5 -27t-29.5 -83q0 -48 18 -72.5t51 -24.5q62 0 95 84zM127.5 677.5q-33.5 33.5 -38.5 97.5l54 12q16 -77 72 -77q58 0 74 77l54 -12q-5 -64 -39 -97.5t-89 -33.5q-54 0 -87.5 33.5z" />
    <glyph glyph-name="Aogonek" unicode="&#x104;" horiz-adv-x="487" 
d="M359 -57q-21 -27 -21 -60q0 -24 11 -36t36 -12q19 0 48 6l-7 -64q-30 -7 -53 -7q-49 0 -77.5 26.5t-28.5 73.5t29 82.5t87 62.5l-38 160h-206l-41 -175h-90l179 689h113l179 -689h-42q-57 -30 -78 -57zM156 248h172l-86 365z" />
    <glyph glyph-name="aogonek" unicode="&#x105;" horiz-adv-x="451" 
d="M392 -12h-1v0q-57 -30 -78 -57t-21 -60q0 -24 11 -36t36 -12q19 0 48 6l-7 -64q-30 -7 -53 -7q-49 0 -77.5 26.5t-28.5 73.5q0 48 30 84t91 63q-29 18 -39 59q-43 -76 -126 -76q-65 0 -103.5 43.5t-38.5 115.5q0 84 52 128.5t151 44.5h52v48q0 52 -20.5 76t-63.5 24
q-51 0 -119 -27l-22 62q81 35 152 35q81 0 120.5 -43.5t39.5 -122.5v-260q0 -28 8 -41.5t26 -21.5zM290 138v123h-42q-63 0 -92.5 -27t-29.5 -83q0 -48 18 -72.5t51 -24.5q62 0 95 84z" />
    <glyph glyph-name="Cacute" unicode="&#x106;" horiz-adv-x="466" 
d="M372 683.5q37 -16.5 74 -50.5l-47 -55q-28 25 -54 36.5t-57 11.5q-147 0 -147 -281q0 -280 150 -280q34 0 59.5 13.5t52.5 38.5l49 -53q-30 -33 -71 -54.5t-92 -21.5q-111 0 -177.5 90t-66.5 267q0 119 31.5 198.5t86 118t123.5 38.5q49 0 86 -16.5zM355 908l37 -74
l-181 -79l-23 48z" />
    <glyph glyph-name="cacute" unicode="&#x107;" horiz-adv-x="391" 
d="M314 525q32 -13 62 -43l-40 -52q-23 19 -44.5 28t-46.5 9q-106 0 -106 -206q0 -107 27 -153t78 -46q25 0 45.5 9t45.5 28l41 -53q-60 -58 -133 -58q-94 0 -146 68t-52 203q0 132 53 205.5t144 73.5q40 0 72 -13zM304 795l39 -70l-178 -86l-26 44z" />
    <glyph glyph-name="Ccircumflex" unicode="&#x108;" horiz-adv-x="466" 
d="M372 683.5q37 -16.5 74 -50.5l-47 -55q-28 25 -54 36.5t-57 11.5q-147 0 -147 -281q0 -280 150 -280q34 0 59.5 13.5t52.5 38.5l49 -53q-30 -33 -71 -54.5t-92 -21.5q-111 0 -177.5 90t-66.5 267q0 119 31.5 198.5t86 118t123.5 38.5q49 0 86 -16.5zM184 761l-35 38
l112 112h56l112 -112l-36 -38l-104 80z" />
    <glyph glyph-name="ccircumflex" unicode="&#x109;" horiz-adv-x="391" 
d="M314 525q32 -13 62 -43l-40 -52q-23 19 -44.5 28t-46.5 9q-106 0 -106 -206q0 -107 27 -153t78 -46q25 0 45.5 9t45.5 28l41 -53q-60 -58 -133 -58q-94 0 -146 68t-52 203q0 132 53 205.5t144 73.5q40 0 72 -13zM138 637l-35 38l112 116h56l112 -116l-36 -38l-104 84z
" />
    <glyph glyph-name="Cdotaccent" unicode="&#x10a;" horiz-adv-x="466" 
d="M372 683.5q37 -16.5 74 -50.5l-47 -55q-28 25 -54 36.5t-57 11.5q-147 0 -147 -281q0 -280 150 -280q34 0 59.5 13.5t52.5 38.5l49 -53q-30 -33 -71 -54.5t-92 -21.5q-111 0 -177.5 90t-66.5 267q0 119 31.5 198.5t86 118t123.5 38.5q49 0 86 -16.5zM332 886
q16 -17 16 -44q0 -25 -16.5 -42t-42.5 -17t-42.5 17t-16.5 42q0 26 16.5 43.5t42.5 17.5q27 0 43 -17z" />
    <glyph glyph-name="cdotaccent" unicode="&#x10b;" horiz-adv-x="391" 
d="M314 525q32 -13 62 -43l-40 -52q-23 19 -44.5 28t-46.5 9q-106 0 -106 -206q0 -107 27 -153t78 -46q25 0 45.5 9t45.5 28l41 -53q-60 -58 -133 -58q-94 0 -146 68t-52 203q0 132 53 205.5t144 73.5q40 0 72 -13zM285 760q16 -17 16 -44q0 -25 -16.5 -42t-42.5 -17
t-42.5 17t-16.5 42q0 26 16.5 43.5t42.5 17.5q27 0 43 -17z" />
    <glyph glyph-name="Ccaron" unicode="&#x10c;" horiz-adv-x="466" 
d="M372 683.5q37 -16.5 74 -50.5l-47 -55q-28 25 -54 36.5t-57 11.5q-147 0 -147 -281q0 -280 150 -280q34 0 59.5 13.5t52.5 38.5l49 -53q-30 -33 -71 -54.5t-92 -21.5q-111 0 -177.5 90t-66.5 267q0 119 31.5 198.5t86 118t123.5 38.5q49 0 86 -16.5zM395 904l35 -38
l-112 -112h-56l-112 112l36 38l104 -80z" />
    <glyph glyph-name="ccaron" unicode="&#x10d;" horiz-adv-x="391" 
d="M314 525q32 -13 62 -43l-40 -52q-23 19 -44.5 28t-46.5 9q-106 0 -106 -206q0 -107 27 -153t78 -46q25 0 45.5 9t45.5 28l41 -53q-60 -58 -133 -58q-94 0 -146 68t-52 203q0 132 53 205.5t144 73.5q40 0 72 -13zM348 782l35 -39l-112 -115h-56l-112 115l35 39l105 -88z
" />
    <glyph glyph-name="Dcaron" unicode="&#x10e;" horiz-adv-x="534" 
d="M350.5 662.5q61.5 -26.5 100 -102t38.5 -212.5q0 -195 -76 -271.5t-193 -76.5h-144v689h129q84 0 145.5 -26.5zM167 616v-544h59q50 0 86.5 22t59 82.5t22.5 171.5q0 113 -23.5 171.5t-60 77.5t-88.5 19h-55zM353 904l35 -38l-112 -112h-56l-112 112l36 38l104 -80z" />
    <glyph glyph-name="dcaron" unicode="&#x10f;" horiz-adv-x="515" 
d="M418 739v-739h-78l-6 67q-47 -79 -120 -79q-82 0 -125.5 72.5t-43.5 200.5q0 83 22 146t61 97t89 34q69 0 113 -61v272zM330 133v267q-41 68 -95 68q-46 0 -71.5 -50t-25.5 -155q0 -205 93 -205q57 0 99 75zM504 557l41 181l-74 10l-17 -183z" />
    <glyph glyph-name="Dcroat" unicode="&#x110;" horiz-adv-x="549" 
d="M365.5 662.5q61.5 -26.5 100 -102t38.5 -212.5q0 -195 -76 -271.5t-193 -76.5h-144v319h-71v68h71v302h129q84 0 145.5 -26.5zM327.5 94q36.5 22 59 82.5t22.5 171.5q0 113 -23.5 171.5t-60 77.5t-88.5 19h-55v-229h113v-68h-113v-247h59q50 0 86.5 22z" />
    <glyph glyph-name="dcroat" unicode="&#x111;" horiz-adv-x="495" 
d="M478 674v-67h-60v-607h-78l-6 67q-47 -79 -120 -79q-82 0 -125.5 72.5t-43.5 200.5q0 83 22 146t61 97t89 34q69 0 113 -61v130h-125v67h125v75l88 -10v-65h60zM330 133v267q-41 68 -95 68q-46 0 -71.5 -50t-25.5 -155q0 -205 93 -205q57 0 99 75z" />
    <glyph glyph-name="Emacron" unicode="&#x112;" horiz-adv-x="435" 
d="M392 689l-10 -73h-215v-229h187v-73h-187v-241h229v-73h-320v689h316zM350 795h-228v64h228v-64z" />
    <glyph glyph-name="emacron" unicode="&#x113;" horiz-adv-x="454" 
d="M412 233h-276q4 -95 31.5 -134t78.5 -39q33 0 59 10.5t54 33.5l39 -53q-66 -63 -155 -63q-94 0 -146 69.5t-52 200.5t49.5 205.5t139.5 74.5q87 0 133.5 -65.5t46.5 -193.5q0 -22 -2 -46zM329 305q0 86 -23 125t-72 39q-44 0 -69 -39.5t-29 -131.5h193v7zM347 669h-228
v64h228v-64z" />
    <glyph glyph-name="Ebreve" unicode="&#x114;" horiz-adv-x="435" 
d="M392 689l-10 -73h-215v-229h187v-73h-187v-241h229v-73h-320v689h316zM148 790.5q-34 31.5 -39 88.5l54 13q15 -66 72 -66q29 0 48 17t26 49l54 -13q-5 -57 -39.5 -88.5t-88.5 -31.5q-53 0 -87 31.5z" />
    <glyph glyph-name="ebreve" unicode="&#x115;" horiz-adv-x="454" 
d="M412 233h-276q4 -95 31.5 -134t78.5 -39q33 0 59 10.5t54 33.5l39 -53q-66 -63 -155 -63q-94 0 -146 69.5t-52 200.5t49.5 205.5t139.5 74.5q87 0 133.5 -65.5t46.5 -193.5q0 -22 -2 -46zM329 305q0 86 -23 125t-72 39q-44 0 -69 -39.5t-29 -131.5h193v7zM144.5 677.5
q-33.5 33.5 -38.5 97.5l54 12q16 -77 72 -77q58 0 74 77l54 -12q-5 -64 -39 -97.5t-89 -33.5q-54 0 -87.5 33.5z" />
    <glyph glyph-name="Edotaccent" unicode="&#x116;" horiz-adv-x="435" 
d="M392 689l-10 -73h-215v-229h187v-73h-187v-241h229v-73h-320v689h316zM278 886q16 -17 16 -44q0 -25 -16.5 -42t-42.5 -17t-42.5 17t-16.5 42q0 26 16.5 43.5t42.5 17.5q27 0 43 -17z" />
    <glyph glyph-name="edotaccent" unicode="&#x117;" horiz-adv-x="454" 
d="M412 233h-276q4 -95 31.5 -134t78.5 -39q33 0 59 10.5t54 33.5l39 -53q-66 -63 -155 -63q-94 0 -146 69.5t-52 200.5t49.5 205.5t139.5 74.5q87 0 133.5 -65.5t46.5 -193.5q0 -22 -2 -46zM329 305q0 86 -23 125t-72 39q-44 0 -69 -39.5t-29 -131.5h193v7zM275 760
q16 -17 16 -44q0 -25 -16.5 -42t-42.5 -17t-42.5 17t-16.5 42q0 26 16.5 43.5t42.5 17.5q27 0 43 -17z" />
    <glyph glyph-name="Eogonek" unicode="&#x118;" horiz-adv-x="435" 
d="M396 73v-73h-32q-57 -30 -78 -57t-21 -60q0 -24 11 -36t36 -12q20 0 48 6l-7 -64q-30 -7 -53 -7q-49 0 -77.5 26.5t-28.5 73.5q0 80 87 130h-205v689h316l-10 -73h-215v-229h187v-73h-187v-241h229z" />
    <glyph glyph-name="eogonek" unicode="&#x119;" horiz-adv-x="454" 
d="M412 233h-276q4 -95 31.5 -134t78.5 -39q33 0 59 10.5t54 33.5l39 -53q-35 -34 -78 -50q-51 -28 -70.5 -53.5t-19.5 -55.5q0 -49 46 -49q22 0 50 7l-8 -67q-30 -7 -53 -7q-48 0 -77 28t-29 72q0 34 18.5 63t53.5 49q-88 5 -137 74t-49 196q0 131 49.5 205.5t139.5 74.5
q87 0 133.5 -65.5t46.5 -193.5q0 -22 -2 -46zM329 305q0 86 -23 125t-72 39q-44 0 -69 -39.5t-29 -131.5h193v7z" />
    <glyph glyph-name="Ecaron" unicode="&#x11a;" horiz-adv-x="435" 
d="M392 689l-10 -73h-215v-229h187v-73h-187v-241h229v-73h-320v689h316zM341 904l35 -38l-112 -112h-56l-112 112l36 38l104 -80z" />
    <glyph glyph-name="ecaron" unicode="&#x11b;" horiz-adv-x="454" 
d="M412 233h-276q4 -95 31.5 -134t78.5 -39q33 0 59 10.5t54 33.5l39 -53q-66 -63 -155 -63q-94 0 -146 69.5t-52 200.5t49.5 205.5t139.5 74.5q87 0 133.5 -65.5t46.5 -193.5q0 -22 -2 -46zM329 305q0 86 -23 125t-72 39q-44 0 -69 -39.5t-29 -131.5h193v7zM338 782l35 -39
l-112 -115h-56l-112 115l35 39l105 -88z" />
    <glyph glyph-name="Gcircumflex" unicode="&#x11c;" horiz-adv-x="528" 
d="M390.5 681.5q40.5 -18.5 80.5 -56.5l-50 -51q-32 28 -59.5 40t-64.5 12q-69 0 -112.5 -64t-43.5 -217q0 -107 16.5 -168.5t49 -87.5t82.5 -26q54 0 99 30v214h-94l-10 74h192v-332q-88 -61 -188 -61q-243 0 -243 357q0 117 34 197t91 119t127 39q53 0 93.5 -18.5z
M188 761l-35 38l112 112h56l112 -112l-36 -38l-104 80z" />
    <glyph glyph-name="gcircumflex" unicode="&#x11d;" horiz-adv-x="434" 
d="M432 504q-23 -10 -51.5 -13t-72.5 -3q77 -42 77 -134q0 -81 -45 -129.5t-124 -48.5q-29 0 -53 10q-10 -8 -15.5 -21.5t-5.5 -28.5q0 -22 12 -34.5t43 -12.5h58q49 0 86 -19t56.5 -51.5t19.5 -71.5q0 -72 -53.5 -115.5t-154.5 -43.5q-104 0 -147.5 40.5t-43.5 118.5h78
q0 -49 24 -69.5t90 -20.5q64 0 92 21.5t28 62.5q0 78 -92 78h-37q-72 0 -105 26.5t-33 71.5q0 48 52 90q-77 47 -77 148q0 83 49 133t127 50q70 0 110 11t82 34zM147 446q-22 -29 -22 -91q0 -54 23 -87t64 -33q44 0 65 28t21 93q0 119 -85 119q-44 0 -66 -29zM112 637
l-35 38l112 116h56l112 -116l-36 -38l-104 84z" />
    <glyph glyph-name="Gbreve" unicode="&#x11e;" horiz-adv-x="528" 
d="M390.5 681.5q40.5 -18.5 80.5 -56.5l-50 -51q-32 28 -59.5 40t-64.5 12q-69 0 -112.5 -64t-43.5 -217q0 -107 16.5 -168.5t49 -87.5t82.5 -26q54 0 99 30v214h-94l-10 74h192v-332q-88 -61 -188 -61q-243 0 -243 357q0 117 34 197t91 119t127 39q53 0 93.5 -18.5z
M206 790.5q-34 31.5 -39 88.5l54 13q15 -66 72 -66q29 0 48 17t26 49l54 -13q-5 -57 -39.5 -88.5t-88.5 -31.5q-53 0 -87 31.5z" />
    <glyph glyph-name="gbreve" unicode="&#x11f;" horiz-adv-x="434" 
d="M432 504q-23 -10 -51.5 -13t-72.5 -3q77 -42 77 -134q0 -81 -45 -129.5t-124 -48.5q-29 0 -53 10q-10 -8 -15.5 -21.5t-5.5 -28.5q0 -22 12 -34.5t43 -12.5h58q49 0 86 -19t56.5 -51.5t19.5 -71.5q0 -72 -53.5 -115.5t-154.5 -43.5q-104 0 -147.5 40.5t-43.5 118.5h78
q0 -49 24 -69.5t90 -20.5q64 0 92 21.5t28 62.5q0 78 -92 78h-37q-72 0 -105 26.5t-33 71.5q0 48 52 90q-77 47 -77 148q0 83 49 133t127 50q70 0 110 11t82 34zM147 446q-22 -29 -22 -91q0 -54 23 -87t64 -33q44 0 65 28t21 93q0 119 -85 119q-44 0 -66 -29zM128.5 677.5
q-33.5 33.5 -38.5 97.5l54 12q16 -77 72 -77q58 0 74 77l54 -12q-5 -64 -39 -97.5t-89 -33.5q-54 0 -87.5 33.5z" />
    <glyph glyph-name="Gdotaccent" unicode="&#x120;" horiz-adv-x="528" 
d="M390.5 681.5q40.5 -18.5 80.5 -56.5l-50 -51q-32 28 -59.5 40t-64.5 12q-69 0 -112.5 -64t-43.5 -217q0 -107 16.5 -168.5t49 -87.5t82.5 -26q54 0 99 30v214h-94l-10 74h192v-332q-88 -61 -188 -61q-243 0 -243 357q0 117 34 197t91 119t127 39q53 0 93.5 -18.5z
M336 886q16 -17 16 -44q0 -25 -16.5 -42t-42.5 -17t-42.5 17t-16.5 42q0 26 16.5 43.5t42.5 17.5q27 0 43 -17z" />
    <glyph glyph-name="gdotaccent" unicode="&#x121;" horiz-adv-x="434" 
d="M432 504q-23 -10 -51.5 -13t-72.5 -3q77 -42 77 -134q0 -81 -45 -129.5t-124 -48.5q-29 0 -53 10q-10 -8 -15.5 -21.5t-5.5 -28.5q0 -22 12 -34.5t43 -12.5h58q49 0 86 -19t56.5 -51.5t19.5 -71.5q0 -72 -53.5 -115.5t-154.5 -43.5q-104 0 -147.5 40.5t-43.5 118.5h78
q0 -49 24 -69.5t90 -20.5q64 0 92 21.5t28 62.5q0 78 -92 78h-37q-72 0 -105 26.5t-33 71.5q0 48 52 90q-77 47 -77 148q0 83 49 133t127 50q70 0 110 11t82 34zM147 446q-22 -29 -22 -91q0 -54 23 -87t64 -33q44 0 65 28t21 93q0 119 -85 119q-44 0 -66 -29zM259 760
q16 -17 16 -44q0 -25 -16.5 -42t-42.5 -17t-42.5 17t-16.5 42q0 26 16.5 43.5t42.5 17.5q27 0 43 -17z" />
    <glyph glyph-name="Gcommaaccent" unicode="&#x122;" horiz-adv-x="528" 
d="M390.5 681.5q40.5 -18.5 80.5 -56.5l-50 -51q-32 28 -59.5 40t-64.5 12q-69 0 -112.5 -64t-43.5 -217q0 -107 16.5 -168.5t49 -87.5t82.5 -26q54 0 99 30v214h-94l-10 74h192v-332q-88 -61 -188 -61q-243 0 -243 357q0 117 34 197t91 119t127 39q53 0 93.5 -18.5z
M323.5 -93.5q14.5 -15.5 14.5 -38.5q0 -13 -4.5 -28.5t-16.5 -47.5l-35 -86h-48l28 116q-27 16 -27 46q0 23 14.5 38.5t37.5 15.5q22 0 36.5 -15.5z" />
    <glyph glyph-name="gcommaaccent" unicode="&#x123;" horiz-adv-x="434" 
d="M432 504q-23 -10 -51.5 -13t-72.5 -3q77 -42 77 -134q0 -81 -45 -129.5t-124 -48.5q-29 0 -53 10q-10 -8 -15.5 -21.5t-5.5 -28.5q0 -22 12 -34.5t43 -12.5h58q49 0 86 -19t56.5 -51.5t19.5 -71.5q0 -72 -53.5 -115.5t-154.5 -43.5q-104 0 -147.5 40.5t-43.5 118.5h78
q0 -49 24 -69.5t90 -20.5q64 0 92 21.5t28 62.5q0 78 -92 78h-37q-72 0 -105 26.5t-33 71.5q0 48 52 90q-77 47 -77 148q0 83 49 133t127 50q70 0 110 11t82 34zM147 446q-22 -29 -22 -91q0 -54 23 -87t64 -33q44 0 65 28t21 93q0 119 -85 119q-44 0 -66 -29zM181.5 599.5
q-14.5 15.5 -14.5 38.5q0 13 4.5 28.5t16.5 47.5l35 86h48l-28 -116q27 -16 27 -46q0 -23 -14.5 -38.5t-37.5 -15.5q-22 0 -36.5 15.5z" />
    <glyph glyph-name="Hcircumflex" unicode="&#x124;" horiz-adv-x="556" 
d="M389 0v324h-222v-324h-91v689h91v-290h222v290h91v-689h-91zM172 761l-35 38l112 112h56l112 -112l-36 -38l-104 80z" />
    <glyph glyph-name="hcircumflex" unicode="&#x125;" horiz-adv-x="482" 
d="M379 497q34 -41 34 -110v-387h-88v375q0 51 -14.5 72.5t-43.5 21.5q-57 0 -106 -98v-371h-88v738l88 9v-294q25 42 54.5 63.5t72.5 21.5q57 0 91 -41zM135 811l-35 38l112 112h56l112 -112l-36 -38l-104 80z" />
    <glyph glyph-name="Hbar" unicode="&#x126;" horiz-adv-x="561" 
d="M536 575v-66h-52v-509h-91v324h-222v-324h-91v509h-55v66h55v114h91v-114h222v114h91v-114h52zM393 399v110h-222v-110h222z" />
    <glyph glyph-name="hbar" unicode="&#x127;" horiz-adv-x="486" 
d="M383 497q34 -41 34 -110v-387h-88v375q0 51 -14.5 72.5t-43.5 21.5q-57 0 -106 -98v-371h-88v609h-60v67h60v62l88 9v-71h120v-67h-120v-156q25 42 54.5 63.5t72.5 21.5q57 0 91 -41z" />
    <glyph glyph-name="Itilde" unicode="&#x128;" horiz-adv-x="243" 
d="M167 689v-689h-91v689h91zM143.5 793.5q-12.5 6.5 -31.5 19.5q-9 7 -19 12.5t-19 5.5q-13 0 -23 -10.5t-22 -34.5l-48 23q15 40 38 62.5t52 22.5q17 0 30 -6.5t29 -18.5q25 -19 39 -19q12 0 22 10t22 33l49 -22q-29 -84 -90 -84q-16 0 -28.5 6.5z" />
    <glyph glyph-name="itilde" unicode="&#x129;" horiz-adv-x="234" 
d="M161 527v-527h-88v527h88zM139.5 667.5q-12.5 6.5 -31.5 19.5q-9 7 -19 12.5t-19 5.5q-13 0 -23 -10.5t-22 -34.5l-48 23q15 40 38 62.5t52 22.5q17 0 30 -6.5t29 -18.5q25 -19 39 -19q12 0 22 10t22 33l49 -22q-29 -84 -90 -84q-16 0 -28.5 6.5z" />
    <glyph glyph-name="Imacron" unicode="&#x12a;" horiz-adv-x="243" 
d="M167 689v-689h-91v689h91zM235 795h-228v64h228v-64z" />
    <glyph glyph-name="imacron" unicode="&#x12b;" horiz-adv-x="234" 
d="M161 527v-527h-88v527h88zM231 669h-228v64h228v-64z" />
    <glyph glyph-name="Ibreve" unicode="&#x12c;" horiz-adv-x="243" 
d="M167 689v-689h-91v689h91zM33 790.5q-34 31.5 -39 88.5l54 13q15 -66 72 -66q29 0 48 17t26 49l54 -13q-5 -57 -39.5 -88.5t-88.5 -31.5q-53 0 -87 31.5z" />
    <glyph glyph-name="ibreve" unicode="&#x12d;" horiz-adv-x="234" 
d="M161 527v-527h-88v527h88zM28.5 677.5q-33.5 33.5 -38.5 97.5l54 12q16 -77 72 -77q58 0 74 77l54 -12q-5 -64 -39 -97.5t-89 -33.5q-54 0 -87.5 33.5z" />
    <glyph glyph-name="Iogonek" unicode="&#x12e;" horiz-adv-x="243" 
d="M167 689v-689h-18q-57 -30 -78 -57t-21 -60q0 -24 11 -36t36 -12q19 0 48 6l-7 -64q-30 -7 -53 -7q-49 0 -77.5 26.5t-28.5 73.5q0 43 24 76t73 59v684h91z" />
    <glyph glyph-name="iogonek" unicode="&#x12f;" horiz-adv-x="234" 
d="M73.5 674q-16.5 17 -16.5 42q0 26 16.5 43.5t42.5 17.5q27 0 43 -17t16 -44q0 -25 -16.5 -42t-42.5 -17t-42.5 17zM73 527h88v-527h-5q-57 -30 -78 -57t-21 -60q0 -24 11 -36t36 -12q20 0 48 6l-7 -64q-30 -7 -53 -7q-49 0 -77.5 26.5t-28.5 73.5q0 80 87 130v527z" />
    <glyph glyph-name="Idotaccent" unicode="&#x130;" horiz-adv-x="243" 
d="M167 689v-689h-91v689h91zM163 886q16 -17 16 -44q0 -25 -16.5 -42t-42.5 -17t-42.5 17t-16.5 42q0 26 16.5 43.5t42.5 17.5q27 0 43 -17z" />
    <glyph glyph-name="dotlessi" unicode="&#x131;" horiz-adv-x="234" 
d="M161 527v-527h-88v527h88z" />
    <glyph glyph-name="IJ" unicode="&#x132;" horiz-adv-x="495" 
d="M167 689v-689h-91v689h91zM423 95q0 -99 -39 -149.5t-117 -80.5l-24 64q38 20 56.5 40.5t25.5 49.5t7 80v590h91v-594z" />
    <glyph glyph-name="ij" unicode="&#x133;" horiz-adv-x="468" 
d="M161 527v-527h-88v527h88zM159 760q16 -17 16 -44q0 -25 -16.5 -42t-42.5 -17t-42.5 17t-16.5 42q0 26 16.5 43.5t42.5 17.5q27 0 43 -17zM395 10q0 -61 -16.5 -101t-47 -66.5t-82.5 -53.5l-28 62q32 19 49.5 36.5t27 46t9.5 75.5v518h88v-517zM393 760q16 -17 16 -44
q0 -25 -16.5 -42t-42.5 -17t-42.5 17t-16.5 42q0 26 16.5 43.5t42.5 17.5q27 0 43 -17z" />
    <glyph glyph-name="Jcircumflex" unicode="&#x134;" horiz-adv-x="252" 
d="M180 95q0 -99 -39 -149.5t-117 -80.5l-24 64q38 20 56.5 40.5t25.5 49.5t7 80v590h91v-594zM28 761l-35 38l112 112h56l112 -112l-36 -38l-104 80z" />
    <glyph glyph-name="jcircumflex" unicode="&#x135;" horiz-adv-x="234" 
d="M161 10q0 -61 -16.5 -101t-47 -66.5t-82.5 -53.5l-28 62q32 19 49.5 36.5t27 46t9.5 75.5v518h88v-517zM12 637l-35 38l112 116h56l112 -116l-36 -38l-104 84z" />
    <glyph glyph-name="Kcommaaccent" unicode="&#x136;" horiz-adv-x="494" 
d="M167 689v-689h-91v689h91zM479 689l-210 -315l225 -374h-103l-220 368l211 321h97zM298.5 -93.5q14.5 -15.5 14.5 -38.5q0 -13 -4.5 -28.5t-16.5 -47.5l-35 -86h-48l28 116q-27 16 -27 46q0 23 14.5 38.5t37.5 15.5q22 0 36.5 -15.5z" />
    <glyph glyph-name="kcommaaccent" unicode="&#x137;" horiz-adv-x="428" 
d="M161 749v-749h-88v739zM415 527l-158 -234l174 -293h-98l-167 288l159 239h90zM255.5 -93.5q14.5 -15.5 14.5 -38.5q0 -13 -4.5 -28.5t-16.5 -47.5l-35 -86h-48l28 116q-27 16 -27 46q0 23 14.5 38.5t37.5 15.5q22 0 36.5 -15.5z" />
    <glyph glyph-name="kgreenlandic" unicode="&#x138;" horiz-adv-x="428" 
d="M161 527v-527h-88v527h88zM415 527l-158 -244l174 -283h-98l-167 278l159 249h90z" />
    <glyph glyph-name="Lacute" unicode="&#x139;" horiz-adv-x="406" 
d="M167 689v-609h229l-10 -80h-310v689h91zM187 908l37 -74l-181 -79l-23 48z" />
    <glyph glyph-name="lacute" unicode="&#x13a;" horiz-adv-x="244" 
d="M94.5 16q-26.5 28 -26.5 76v647l88 10v-655q0 -33 28 -33q13 0 25 5l20 -60q-29 -18 -64 -18q-44 0 -70.5 28zM177 958l37 -74l-181 -79l-23 48z" />
    <glyph glyph-name="Lcommaaccent" unicode="&#x13b;" horiz-adv-x="406" 
d="M167 689v-609h229l-10 -80h-310v689h91zM269.5 -93.5q14.5 -15.5 14.5 -38.5q0 -13 -4.5 -28.5t-16.5 -47.5l-35 -86h-48l28 116q-27 16 -27 46q0 23 14.5 38.5t37.5 15.5q22 0 36.5 -15.5z" />
    <glyph glyph-name="lcommaaccent" unicode="&#x13c;" horiz-adv-x="244" 
d="M94.5 16q-26.5 28 -26.5 76v647l88 10v-655q0 -33 28 -33q13 0 25 5l20 -60q-29 -18 -64 -18q-44 0 -70.5 28zM186.5 -93.5q14.5 -15.5 14.5 -38.5q0 -13 -4.5 -28.5t-16.5 -47.5l-35 -86h-48l28 116q-27 16 -27 46q0 23 14.5 38.5t37.5 15.5q22 0 36.5 -15.5z" />
    <glyph glyph-name="Lcaron" unicode="&#x13d;" horiz-adv-x="406" 
d="M167 689v-609h229l-10 -80h-310v689h91zM260 507l41 181l-74 10l-17 -183z" />
    <glyph glyph-name="lcaron" unicode="&#x13e;" horiz-adv-x="244" 
d="M94.5 16q-26.5 28 -26.5 76v647l88 10v-655q0 -33 28 -33q13 0 25 5l20 -60q-29 -18 -64 -18q-44 0 -70.5 28zM243 557l41 181l-74 10l-17 -183z" />
    <glyph glyph-name="Ldot" unicode="&#x13f;" horiz-adv-x="406" 
d="M167 689v-609h229l-10 -80h-310v689h91zM364 429q16 -17 16 -44q0 -25 -16.5 -42t-42.5 -17t-42.5 17t-16.5 42q0 26 16.5 43.5t42.5 17.5q27 0 43 -17z" />
    <glyph glyph-name="ldot" unicode="&#x140;" horiz-adv-x="289" 
d="M94.5 16q-26.5 28 -26.5 76v647l88 10v-655q0 -33 28 -33q13 0 25 5l20 -60q-29 -18 -64 -18q-44 0 -70.5 28zM300 421q16 -17 16 -44q0 -25 -16.5 -42t-42.5 -17t-42.5 17t-16.5 42q0 26 16.5 43.5t42.5 17.5q27 0 43 -17z" />
    <glyph glyph-name="Lslash" unicode="&#x141;" horiz-adv-x="425" 
d="M186 80h229l-10 -80h-310v258l-46 -34l-33 58l77 57l2 1v349h91v-282l124 90l33 -58l-157 -115v-244z" />
    <glyph glyph-name="lslash" unicode="&#x142;" horiz-adv-x="267" 
d="M220 66l20 -60q-29 -18 -64 -18q-44 0 -70.5 28t-26.5 76v210l-40 -28l-32 54l72 53v358l88 10v-307l69 47l31 -54l-100 -71v-270q0 -33 28 -33q13 0 25 5z" />
    <glyph glyph-name="Nacute" unicode="&#x143;" horiz-adv-x="557" 
d="M481 0h-121l-212 587q6 -70 9.5 -125t3.5 -138v-324h-85v689h121l212 -588q-4 15 -8.5 82t-4.5 125v381h85v-689zM351 908l37 -74l-181 -79l-23 48z" />
    <glyph glyph-name="nacute" unicode="&#x144;" horiz-adv-x="482" 
d="M379 497q34 -41 34 -110v-387h-88v375q0 51 -14.5 72.5t-43.5 21.5q-57 0 -106 -98v-371h-88v527h76l7 -79q26 44 57 67t75 23q57 0 91 -41zM306 795l39 -70l-178 -86l-26 44z" />
    <glyph glyph-name="Ncommaaccent" unicode="&#x145;" horiz-adv-x="557" 
d="M481 0h-121l-212 587q6 -70 9.5 -125t3.5 -138v-324h-85v689h121l212 -588q-4 15 -8.5 82t-4.5 125v381h85v-689zM317.5 -93.5q14.5 -15.5 14.5 -38.5q0 -13 -4.5 -28.5t-16.5 -47.5l-35 -86h-48l28 116q-27 16 -27 46q0 23 14.5 38.5t37.5 15.5q22 0 36.5 -15.5z" />
    <glyph glyph-name="ncommaaccent" unicode="&#x146;" horiz-adv-x="482" 
d="M379 497q34 -41 34 -110v-387h-88v375q0 51 -14.5 72.5t-43.5 21.5q-57 0 -106 -98v-371h-88v527h76l7 -79q26 44 57 67t75 23q57 0 91 -41zM279.5 -93.5q14.5 -15.5 14.5 -38.5q0 -13 -4.5 -28.5t-16.5 -47.5l-35 -86h-48l28 116q-27 16 -27 46q0 23 14.5 38.5
t37.5 15.5q22 0 36.5 -15.5z" />
    <glyph glyph-name="Ncaron" unicode="&#x147;" horiz-adv-x="557" 
d="M481 0h-121l-212 587q6 -70 9.5 -125t3.5 -138v-324h-85v689h121l212 -588q-4 15 -8.5 82t-4.5 125v381h85v-689zM391 904l35 -38l-112 -112h-56l-112 112l36 38l104 -80z" />
    <glyph glyph-name="ncaron" unicode="&#x148;" horiz-adv-x="482" 
d="M379 497q34 -41 34 -110v-387h-88v375q0 51 -14.5 72.5t-43.5 21.5q-57 0 -106 -98v-371h-88v527h76l7 -79q26 44 57 67t75 23q57 0 91 -41zM350 782l35 -39l-112 -115h-56l-112 115l35 39l105 -88z" />
    <glyph glyph-name="napostrophe" unicode="&#x149;" horiz-adv-x="578" 
d="M125.5 736.5q14.5 -15.5 14.5 -38.5q0 -11 -5.5 -29.5t-15.5 -46.5l-30 -86h-48l23 116q-27 17 -27 46q0 23 14.5 38.5t37.5 15.5q22 0 36.5 -15.5zM475 497q34 -41 34 -110v-387h-88v375q0 51 -14.5 72.5t-43.5 21.5q-57 0 -106 -98v-371h-88v527h76l7 -79q26 44 57 67
t75 23q57 0 91 -41z" />
    <glyph glyph-name="Eng" unicode="&#x14a;" horiz-adv-x="557" 
d="M481 0h-1v-79q0 -64 -36.5 -98.5t-94.5 -34.5t-101 37l38 54q15 -10 28 -14t30 -4q45 0 45 58v81h-29l-212 587q6 -70 9.5 -125t3.5 -138v-324h-85v689h121l212 -588q-4 15 -8.5 82t-4.5 125v381h85v-689z" />
    <glyph glyph-name="eng" unicode="&#x14b;" horiz-adv-x="482" 
d="M379 497q34 -41 34 -110v-470q0 -61 -36.5 -95t-93.5 -34q-59 0 -102 37l37 53q16 -10 28.5 -14.5t29.5 -4.5q49 0 49 58v458q0 51 -14.5 72.5t-43.5 21.5q-57 0 -106 -98v-371h-88v527h76l7 -79q26 44 57 67t75 23q57 0 91 -41z" />
    <glyph glyph-name="Omacron" unicode="&#x14c;" horiz-adv-x="575" 
d="M466 611.5q64 -88.5 64 -267.5q0 -177 -64 -266.5t-178 -89.5t-178.5 88t-64.5 267q0 177 65 267t178 90q114 0 178 -88.5zM178.5 560q-37.5 -66 -37.5 -217q0 -150 38 -215t109 -65q72 0 109 64.5t37 216.5q0 151 -37 216.5t-109 65.5t-109.5 -66zM402 795h-228v64h228
v-64z" />
    <glyph glyph-name="omacron" unicode="&#x14d;" horiz-adv-x="485" 
d="M388.5 468.5q51.5 -69.5 51.5 -204.5q0 -127 -52.5 -201.5t-145.5 -74.5t-145 73t-52 202q0 133 52 204t146 71t145.5 -69.5zM164 419.5q-26 -47.5 -26 -156.5q0 -108 26 -156t78 -48q53 0 79 48t26 157q0 108 -26 155.5t-78 47.5q-53 0 -79 -47.5zM356 669h-228v64h228
v-64z" />
    <glyph glyph-name="Obreve" unicode="&#x14e;" horiz-adv-x="575" 
d="M466 611.5q64 -88.5 64 -267.5q0 -177 -64 -266.5t-178 -89.5t-178.5 88t-64.5 267q0 177 65 267t178 90q114 0 178 -88.5zM178.5 560q-37.5 -66 -37.5 -217q0 -150 38 -215t109 -65q72 0 109 64.5t37 216.5q0 151 -37 216.5t-109 65.5t-109.5 -66zM200 790.5
q-34 31.5 -39 88.5l54 13q15 -66 72 -66q29 0 48 17t26 49l54 -13q-5 -57 -39.5 -88.5t-88.5 -31.5q-53 0 -87 31.5z" />
    <glyph glyph-name="obreve" unicode="&#x14f;" horiz-adv-x="485" 
d="M388.5 468.5q51.5 -69.5 51.5 -204.5q0 -127 -52.5 -201.5t-145.5 -74.5t-145 73t-52 202q0 133 52 204t146 71t145.5 -69.5zM164 419.5q-26 -47.5 -26 -156.5q0 -108 26 -156t78 -48q53 0 79 48t26 157q0 108 -26 155.5t-78 47.5q-53 0 -79 -47.5zM153.5 677.5
q-33.5 33.5 -38.5 97.5l54 12q16 -77 72 -77q58 0 74 77l54 -12q-5 -64 -39 -97.5t-89 -33.5q-54 0 -87.5 33.5z" />
    <glyph glyph-name="Ohungarumlaut" unicode="&#x150;" horiz-adv-x="575" 
d="M466 611.5q64 -88.5 64 -267.5q0 -177 -64 -266.5t-178 -89.5t-178.5 88t-64.5 267q0 177 65 267t178 90q114 0 178 -88.5zM178.5 560q-37.5 -66 -37.5 -217q0 -150 38 -215t109 -65q72 0 109 64.5t37 216.5q0 151 -37 216.5t-109 65.5t-109.5 -66zM258 953l68 -37
l-82 -150l-49 22zM385 953l69 -37l-90 -155l-49 22z" />
    <glyph glyph-name="ohungarumlaut" unicode="&#x151;" horiz-adv-x="485" 
d="M388.5 468.5q51.5 -69.5 51.5 -204.5q0 -127 -52.5 -201.5t-145.5 -74.5t-145 73t-52 202q0 133 52 204t146 71t145.5 -69.5zM164 419.5q-26 -47.5 -26 -156.5q0 -108 26 -156t78 -48q53 0 79 48t26 157q0 108 -26 155.5t-78 47.5q-53 0 -79 -47.5zM215 827l68 -37
l-82 -150l-49 22zM342 827l69 -37l-90 -155l-49 22z" />
    <glyph glyph-name="OE" unicode="&#x152;" horiz-adv-x="739" 
d="M700 73v-73h-358q-30 -12 -66 -12q-68 0 -120 40t-81.5 120t-29.5 195q0 114 29.5 194.5t81.5 121.5t120 41q33 0 64 -11h355l-10 -73h-250q69 -75 78 -228h144v-75h-144q-6 -153 -81 -240h268zM178 130q37 -67 101 -67q139 0 139 281q0 282 -139 282q-138 0 -138 -283
q0 -146 37 -213z" />
    <glyph glyph-name="oe" unicode="&#x153;" horiz-adv-x="756" 
d="M714 233h-276q4 -89 33.5 -131t76.5 -42q33 0 59 10.5t54 33.5l39 -50q-68 -66 -155 -66q-100 0 -154 105q-25 -50 -62.5 -77.5t-86.5 -27.5q-94 0 -145.5 71.5t-51.5 203.5q0 130 52 202.5t146 72.5q98 0 150 -101q52 101 145 101q85 0 131.5 -67t46.5 -192
q0 -22 -2 -46zM631 305q0 163 -93 163t-100 -170h193v7zM346 264q0 203 -103 203q-53 0 -79 -47.5t-26 -156.5q0 -108 26 -156t78 -48q104 0 104 205z" />
    <glyph glyph-name="Racute" unicode="&#x154;" horiz-adv-x="502" 
d="M384 0l-134 295q-7 -1 -21 -1h-62v-294h-91v689h138q121 0 180 -50t59 -144q0 -66 -31 -113.5t-89 -69.5l151 -312h-100zM325 395.5q32 31.5 32 99.5q0 63 -33 92.5t-111 29.5h-46v-253h54q72 0 104 31.5zM313 908l37 -74l-181 -79l-23 48z" />
    <glyph glyph-name="racute" unicode="&#x155;" horiz-adv-x="323" 
d="M315 532l-15 -85q-20 5 -36 5q-39 0 -64 -35t-39 -107v-310h-88v527h76l7 -98q37 109 119 109q22 0 40 -6zM257 795l39 -70l-178 -86l-26 44z" />
    <glyph glyph-name="Rcommaaccent" unicode="&#x156;" horiz-adv-x="502" 
d="M384 0l-134 295q-7 -1 -21 -1h-62v-294h-91v689h138q121 0 180 -50t59 -144q0 -66 -31 -113.5t-89 -69.5l151 -312h-100zM325 395.5q32 31.5 32 99.5q0 63 -33 92.5t-111 29.5h-46v-253h54q72 0 104 31.5zM292.5 -93.5q14.5 -15.5 14.5 -38.5q0 -13 -4.5 -28.5
t-16.5 -47.5l-35 -86h-48l28 116q-27 16 -27 46q0 23 14.5 38.5t37.5 15.5q22 0 36.5 -15.5z" />
    <glyph glyph-name="rcommaaccent" unicode="&#x157;" horiz-adv-x="323" 
d="M315 532l-15 -85q-20 5 -36 5q-39 0 -64 -35t-39 -107v-310h-88v527h76l7 -98q37 109 119 109q22 0 40 -6zM155.5 -93.5q14.5 -15.5 14.5 -38.5q0 -13 -4.5 -28.5t-16.5 -47.5l-35 -86h-48l28 116q-27 16 -27 46q0 23 14.5 38.5t37.5 15.5q22 0 36.5 -15.5z" />
    <glyph glyph-name="Rcaron" unicode="&#x158;" horiz-adv-x="502" 
d="M384 0l-134 295q-7 -1 -21 -1h-62v-294h-91v689h138q121 0 180 -50t59 -144q0 -66 -31 -113.5t-89 -69.5l151 -312h-100zM325 395.5q32 31.5 32 99.5q0 63 -33 92.5t-111 29.5h-46v-253h54q72 0 104 31.5zM353 904l35 -38l-112 -112h-56l-112 112l36 38l104 -80z" />
    <glyph glyph-name="rcaron" unicode="&#x159;" horiz-adv-x="323" 
d="M315 532l-15 -85q-20 5 -36 5q-39 0 -64 -35t-39 -107v-310h-88v527h76l7 -98q37 109 119 109q22 0 40 -6zM301 782l35 -39l-112 -115h-56l-112 115l35 39l105 -88z" />
    <glyph glyph-name="Sacute" unicode="&#x15a;" horiz-adv-x="450" 
d="M323.5 680.5q42.5 -19.5 78.5 -59.5l-48 -52q-31 30 -61 43.5t-66 13.5q-43 0 -69.5 -27.5t-26.5 -72.5q0 -44 25.5 -72t96.5 -55q82 -31 124 -77t42 -131q0 -55 -25.5 -101.5t-72.5 -74t-109 -27.5t-110 23t-87 66l49 52q35 -32 69.5 -49t76.5 -17q52 0 83 34t31 92
q0 50 -25 80t-93 55q-87 33 -127.5 80t-40.5 118q0 49 24 90t67 64.5t97 23.5q55 0 97.5 -19.5zM292 908l37 -74l-181 -79l-23 48z" />
    <glyph glyph-name="sacute" unicode="&#x15b;" horiz-adv-x="393" 
d="M350 479l-38 -51q-28 21 -54 31.5t-55 10.5q-35 0 -55.5 -19.5t-20.5 -53.5q0 -33 20 -52t76 -39q72 -26 106 -62t34 -98q0 -75 -50.5 -116.5t-125.5 -41.5q-100 0 -167 69l46 49q56 -49 119 -49q40 0 64 22t24 62q0 27 -9 44t-31 31t-64 29q-70 26 -100 61.5t-30 87.5
q0 40 20.5 73t57.5 52t84 19q87 0 149 -59zM265 795l39 -70l-178 -86l-26 44z" />
    <glyph glyph-name="Scircumflex" unicode="&#x15c;" horiz-adv-x="450" 
d="M323.5 680.5q42.5 -19.5 78.5 -59.5l-48 -52q-31 30 -61 43.5t-66 13.5q-43 0 -69.5 -27.5t-26.5 -72.5q0 -44 25.5 -72t96.5 -55q82 -31 124 -77t42 -131q0 -55 -25.5 -101.5t-72.5 -74t-109 -27.5t-110 23t-87 66l49 52q35 -32 69.5 -49t76.5 -17q52 0 83 34t31 92
q0 50 -25 80t-93 55q-87 33 -127.5 80t-40.5 118q0 49 24 90t67 64.5t97 23.5q55 0 97.5 -19.5zM121 761l-35 38l112 112h56l112 -112l-36 -38l-104 80z" />
    <glyph glyph-name="scircumflex" unicode="&#x15d;" horiz-adv-x="393" 
d="M350 479l-38 -51q-28 21 -54 31.5t-55 10.5q-35 0 -55.5 -19.5t-20.5 -53.5q0 -33 20 -52t76 -39q72 -26 106 -62t34 -98q0 -75 -50.5 -116.5t-125.5 -41.5q-100 0 -167 69l46 49q56 -49 119 -49q40 0 64 22t24 62q0 27 -9 44t-31 31t-64 29q-70 26 -100 61.5t-30 87.5
q0 40 20.5 73t57.5 52t84 19q87 0 149 -59zM99 637l-35 38l112 116h56l112 -116l-36 -38l-104 84z" />
    <glyph glyph-name="Scedilla" unicode="&#x15e;" horiz-adv-x="450" 
d="M372 58q-47 -57 -126 -68v-50q78 -12 78 -84q0 -45 -29 -70t-76 -25q-46 0 -79 23l25 46q26 -12 49 -12q18 0 29.5 9.5t11.5 28.5q0 23 -17.5 34t-56.5 11l9 88q-54 4 -96.5 26t-78.5 62l49 52q35 -32 69.5 -49t76.5 -17q52 0 83 34t31 92q0 50 -25 80t-93 55
q-87 33 -127.5 80t-40.5 118q0 49 24 90t67 64.5t97 23.5q55 0 97.5 -19.5t78.5 -59.5l-48 -52q-31 30 -61 43.5t-66 13.5q-43 0 -69.5 -27.5t-26.5 -72.5q0 -44 25.5 -72t96.5 -55q82 -31 124 -77t42 -131q0 -76 -47 -133z" />
    <glyph glyph-name="scedilla" unicode="&#x15f;" horiz-adv-x="393" 
d="M323.5 40q-39.5 -40 -102.5 -50v-50q78 -12 78 -84q0 -45 -29 -70t-76 -25q-46 0 -79 23l25 46q26 -12 49 -12q18 0 29.5 9.5t11.5 28.5q0 23 -17.5 34t-56.5 11l9 88q-86 7 -145 68l46 49q56 -49 119 -49q40 0 64 22t24 62q0 27 -9 44t-31 31t-64 29q-70 26 -100 61.5
t-30 87.5q0 40 20.5 73t57.5 52t84 19q87 0 149 -59l-38 -51q-28 21 -54 31.5t-55 10.5q-35 0 -55.5 -19.5t-20.5 -53.5q0 -33 20 -52t76 -39q72 -26 106 -62t34 -98q0 -66 -39.5 -106z" />
    <glyph glyph-name="Scaron" unicode="&#x160;" horiz-adv-x="450" 
d="M323.5 680.5q42.5 -19.5 78.5 -59.5l-48 -52q-31 30 -61 43.5t-66 13.5q-43 0 -69.5 -27.5t-26.5 -72.5q0 -44 25.5 -72t96.5 -55q82 -31 124 -77t42 -131q0 -55 -25.5 -101.5t-72.5 -74t-109 -27.5t-110 23t-87 66l49 52q35 -32 69.5 -49t76.5 -17q52 0 83 34t31 92
q0 50 -25 80t-93 55q-87 33 -127.5 80t-40.5 118q0 49 24 90t67 64.5t97 23.5q55 0 97.5 -19.5zM332 904l35 -38l-112 -112h-56l-112 112l36 38l104 -80z" />
    <glyph glyph-name="scaron" unicode="&#x161;" horiz-adv-x="393" 
d="M350 479l-38 -51q-28 21 -54 31.5t-55 10.5q-35 0 -55.5 -19.5t-20.5 -53.5q0 -33 20 -52t76 -39q72 -26 106 -62t34 -98q0 -75 -50.5 -116.5t-125.5 -41.5q-100 0 -167 69l46 49q56 -49 119 -49q40 0 64 22t24 62q0 27 -9 44t-31 31t-64 29q-70 26 -100 61.5t-30 87.5
q0 40 20.5 73t57.5 52t84 19q87 0 149 -59zM309 782l35 -39l-112 -115h-56l-112 115l35 39l105 -88z" />
    <glyph glyph-name="uni0162" unicode="&#x162;" horiz-adv-x="428" 
d="M319 -84.5q20 -23.5 20 -56.5q0 -47 -30 -72.5t-78 -25.5t-76 23l23 50q27 -16 48 -16q20 0 32 10t12 31q0 42 -74 42l10 99h-38v613h-157v76h411l-10 -76h-153v-670q40 -4 60 -27.5z" />
    <glyph glyph-name="uni0163" unicode="&#x163;" horiz-adv-x="306" 
d="M296 -144q0 -45 -29 -70t-76 -25q-46 0 -79 23l25 46q26 -12 49 -12q18 0 29.5 9.5t11.5 28.5q0 23 -17.5 34t-56.5 11l10 93q-40 11 -61 43t-21 80v341h-71v69h71v119l88 11v-130h102l-9 -69h-93v-342q0 -55 47 -55q16 0 28 4t28 14l34 -55q-40 -32 -88 -35v-49
q78 -12 78 -84z" />
    <glyph glyph-name="Tcaron" unicode="&#x164;" horiz-adv-x="428" 
d="M422 689l-10 -76h-153v-613h-91v613h-157v76h411zM319 904l35 -38l-112 -112h-56l-112 112l36 38l104 -80z" />
    <glyph glyph-name="tcaron" unicode="&#x165;" horiz-adv-x="306" 
d="M284 746l-41 -181l-50 8l17 183zM306 24q-45 -36 -101 -36q-59 0 -91.5 35t-32.5 94v341h-71v69h71v119l88 11v-130h102l-9 -69h-93v-342q0 -55 47 -55q16 0 28 4t28 14z" />
    <glyph glyph-name="Tbar" unicode="&#x166;" horiz-adv-x="428" 
d="M412 611h-153v-224h99v-68h-99v-321h-91v321h-99v68h99v224h-157v76h411z" />
    <glyph glyph-name="tbar" unicode="&#x167;" horiz-adv-x="306" 
d="M306 24q-45 -36 -101 -36q-59 0 -91.5 35t-32.5 94v171h-67v68h67v102h-71v69h71v119l88 11v-130h102l-9 -69h-93v-102h86v-68h-86v-172q0 -55 47 -55q16 0 28 4t28 14z" />
    <glyph glyph-name="Utilde" unicode="&#x168;" horiz-adv-x="538" 
d="M472 185q0 -55 -23.5 -100t-69.5 -71t-110 -26q-97 0 -150 55.5t-53 141.5v504h91v-497q0 -127 112 -127t112 127v497h91v-504zM291.5 793.5q-12.5 6.5 -31.5 19.5q-9 7 -19 12.5t-19 5.5q-13 0 -23 -10.5t-22 -34.5l-48 23q15 40 38 62.5t52 22.5q17 0 30 -6.5t29 -18.5
q25 -19 39 -19q12 0 22 10t22 33l49 -22q-29 -84 -90 -84q-16 0 -28.5 6.5z" />
    <glyph glyph-name="utilde" unicode="&#x169;" horiz-adv-x="479" 
d="M406 0h-76l-6 74q-25 -43 -56.5 -64.5t-73.5 -21.5q-57 0 -91 39t-34 102v398h88v-389q0 -81 57 -81q33 0 58 23.5t46 65.5v381h88v-527zM260.5 667.5q-12.5 6.5 -31.5 19.5q-9 7 -19 12.5t-19 5.5q-13 0 -23 -10.5t-22 -34.5l-48 23q15 40 38 62.5t52 22.5q17 0 30 -6.5
t29 -18.5q25 -19 39 -19q12 0 22 10t22 33l49 -22q-29 -84 -90 -84q-16 0 -28.5 6.5z" />
    <glyph glyph-name="Umacron" unicode="&#x16a;" horiz-adv-x="538" 
d="M472 185q0 -55 -23.5 -100t-69.5 -71t-110 -26q-97 0 -150 55.5t-53 141.5v504h91v-497q0 -127 112 -127t112 127v497h91v-504zM383 795h-228v64h228v-64z" />
    <glyph glyph-name="umacron" unicode="&#x16b;" horiz-adv-x="479" 
d="M406 0h-76l-6 74q-25 -43 -56.5 -64.5t-73.5 -21.5q-57 0 -91 39t-34 102v398h88v-389q0 -81 57 -81q33 0 58 23.5t46 65.5v381h88v-527zM352 669h-228v64h228v-64z" />
    <glyph glyph-name="Ubreve" unicode="&#x16c;" horiz-adv-x="538" 
d="M472 185q0 -55 -23.5 -100t-69.5 -71t-110 -26q-97 0 -150 55.5t-53 141.5v504h91v-497q0 -127 112 -127t112 127v497h91v-504zM181 790.5q-34 31.5 -39 88.5l54 13q15 -66 72 -66q29 0 48 17t26 49l54 -13q-5 -57 -39.5 -88.5t-88.5 -31.5q-53 0 -87 31.5z" />
    <glyph glyph-name="ubreve" unicode="&#x16d;" horiz-adv-x="479" 
d="M406 0h-76l-6 74q-25 -43 -56.5 -64.5t-73.5 -21.5q-57 0 -91 39t-34 102v398h88v-389q0 -81 57 -81q33 0 58 23.5t46 65.5v381h88v-527zM149.5 677.5q-33.5 33.5 -38.5 97.5l54 12q16 -77 72 -77q58 0 74 77l54 -12q-5 -64 -39 -97.5t-89 -33.5q-54 0 -87.5 33.5z" />
    <glyph glyph-name="Uring" unicode="&#x16e;" horiz-adv-x="538" 
d="M472 185q0 -55 -23.5 -100t-69.5 -71t-110 -26q-97 0 -150 55.5t-53 141.5v504h91v-497q0 -127 112 -127t112 127v497h91v-504zM340.5 932q26.5 -28 26.5 -76q0 -49 -26.5 -77t-71.5 -28t-71.5 28t-26.5 77q0 48 26.5 76t71.5 28t71.5 -28zM237 900.5
q-11 -13.5 -11 -44.5q0 -32 11 -45.5t32 -13.5q43 0 43 59q0 31 -11 44.5t-32 13.5t-32 -13.5z" />
    <glyph glyph-name="uring" unicode="&#x16f;" horiz-adv-x="479" 
d="M406 0h-76l-6 74q-25 -43 -56.5 -64.5t-73.5 -21.5q-57 0 -91 39t-34 102v398h88v-389q0 -81 57 -81q33 0 58 23.5t46 65.5v381h88v-527zM309.5 806q26.5 -28 26.5 -76q0 -49 -26.5 -77t-71.5 -28t-71.5 28t-26.5 77q0 48 26.5 76t71.5 28t71.5 -28zM206 774.5
q-11 -13.5 -11 -44.5q0 -32 11 -45.5t32 -13.5q43 0 43 59q0 31 -11 44.5t-32 13.5t-32 -13.5z" />
    <glyph glyph-name="Uhungarumlaut" unicode="&#x170;" horiz-adv-x="538" 
d="M472 185q0 -55 -23.5 -100t-69.5 -71t-110 -26q-97 0 -150 55.5t-53 141.5v504h91v-497q0 -127 112 -127t112 127v497h91v-504zM239 953l68 -37l-82 -150l-49 22zM366 953l69 -37l-90 -155l-49 22z" />
    <glyph glyph-name="uhungarumlaut" unicode="&#x171;" horiz-adv-x="479" 
d="M406 0h-76l-6 74q-25 -43 -56.5 -64.5t-73.5 -21.5q-57 0 -91 39t-34 102v398h88v-389q0 -81 57 -81q33 0 58 23.5t46 65.5v381h88v-527zM211 827l68 -37l-82 -150l-49 22zM338 827l69 -37l-90 -155l-49 22z" />
    <glyph glyph-name="Uogonek" unicode="&#x172;" horiz-adv-x="538" 
d="M472 689v-504q0 -67 -34 -117.5t-97 -69.5q-55 -29 -75 -55.5t-20 -56.5q0 -49 46 -49q22 0 50 7l-8 -67q-30 -7 -53 -7q-48 0 -77 28t-29 72q0 37 21.5 67.5t61.5 50.5q-92 4 -142 59t-50 138v504h91v-497q0 -127 112 -127t112 127v497h91z" />
    <glyph glyph-name="uogonek" unicode="&#x173;" horiz-adv-x="479" 
d="M406 527v-527h-1q-57 -30 -78 -57t-21 -60q0 -24 11 -36t36 -12q20 0 48 6l-7 -64q-30 -7 -53 -7q-49 0 -77.5 26.5t-28.5 73.5q0 83 95 134l-6 70q-25 -43 -56.5 -64.5t-73.5 -21.5q-57 0 -91 39t-34 102v398h88v-389q0 -81 57 -81q33 0 58 23.5t46 65.5v381h88z" />
    <glyph glyph-name="Wcircumflex" unicode="&#x174;" horiz-adv-x="690" 
d="M668 689l-110 -689h-119l-95 580l-96 -580h-117l-109 689h88l83 -609l102 609h100l102 -609l86 609h85zM239 761l-35 38l112 112h56l112 -112l-36 -38l-104 80z" />
    <glyph glyph-name="wcircumflex" unicode="&#x175;" horiz-adv-x="607" 
d="M587 527l-96 -527h-117l-71 445l-70 -445h-115l-98 527h86l72 -462l76 462h103l74 -462l74 462h82zM201 637l-35 38l112 116h56l112 -116l-36 -38l-104 84z" />
    <glyph glyph-name="Ycircumflex" unicode="&#x176;" horiz-adv-x="459" 
d="M457 689l-182 -424v-265h-91v264l-182 425h97l133 -344l132 344h93zM123 761l-35 38l112 112h56l112 -112l-36 -38l-104 80z" />
    <glyph glyph-name="ycircumflex" unicode="&#x177;" horiz-adv-x="418" 
d="M264 -3q-25 -91 -74 -144t-136 -65l-10 67q63 14 92 46t49 99h-33l-142 527h90l110 -463l109 463h89zM104 637l-35 38l112 116h56l112 -116l-36 -38l-104 84z" />
    <glyph glyph-name="Ydieresis" unicode="&#x178;" horiz-adv-x="459" 
d="M457 689l-182 -424v-265h-91v264l-182 425h97l133 -344l132 344h93zM186 875q15 -16 15 -39t-15 -39t-38 -16t-38 16t-15 39t15 39t38 16t38 -16zM361 875q15 -16 15 -39t-15 -39t-38 -16q-22 0 -37.5 16t-15.5 39t15.5 39t37.5 16q23 0 38 -16z" />
    <glyph glyph-name="Zacute" unicode="&#x179;" horiz-adv-x="427" 
d="M399 689v-74l-282 -537h282l-10 -78h-367v73l282 539h-254v77h349zM288 908l37 -74l-181 -79l-23 48z" />
    <glyph glyph-name="zacute" unicode="&#x17a;" horiz-adv-x="362" 
d="M338 527v-68l-227 -385h229l-9 -74h-313v66l227 386h-208v75h301zM244 795l39 -70l-178 -86l-26 44z" />
    <glyph glyph-name="Zdotaccent" unicode="&#x17b;" horiz-adv-x="427" 
d="M399 689v-74l-282 -537h282l-10 -78h-367v73l282 539h-254v77h349zM265 886q16 -17 16 -44q0 -25 -16.5 -42t-42.5 -17t-42.5 17t-16.5 42q0 26 16.5 43.5t42.5 17.5q27 0 43 -17z" />
    <glyph glyph-name="zdotaccent" unicode="&#x17c;" horiz-adv-x="362" 
d="M338 527v-68l-227 -385h229l-9 -74h-313v66l227 386h-208v75h301zM225 760q16 -17 16 -44q0 -25 -16.5 -42t-42.5 -17t-42.5 17t-16.5 42q0 26 16.5 43.5t42.5 17.5q27 0 43 -17z" />
    <glyph glyph-name="Zcaron" unicode="&#x17d;" horiz-adv-x="427" 
d="M399 689v-74l-282 -537h282l-10 -78h-367v73l282 539h-254v77h349zM328 904l35 -38l-112 -112h-56l-112 112l36 38l104 -80z" />
    <glyph glyph-name="zcaron" unicode="&#x17e;" horiz-adv-x="362" 
d="M338 527v-68l-227 -385h229l-9 -74h-313v66l227 386h-208v75h301zM288 782l35 -39l-112 -115h-56l-112 115l35 39l105 -88z" />
    <glyph glyph-name="longs" unicode="&#x17f;" horiz-adv-x="283" 
d="M333 722l-26 -62q-37 18 -74 18q-32 0 -47 -16t-15 -51v-611h-88v458h-73v69h73v83q0 62 37.5 100.5t105.5 38.5q55 0 107 -27z" />
    <glyph glyph-name="uni0180" unicode="&#x180;" horiz-adv-x="492" 
d="M404.5 469q42.5 -69 42.5 -205q0 -86 -21 -148t-59.5 -95t-89.5 -33q-34 0 -64 17.5t-52 49.5l-6 -55h-78v607h-60v67h60v64l88 9v-73h120v-67h-120v-144q47 75 121 75q76 0 118.5 -69zM354 264q0 113 -23 158.5t-66 45.5q-56 0 -100 -81v-261q18 -31 41.5 -49.5
t51.5 -18.5q96 0 96 206z" />
    <glyph glyph-name="uni0181" unicode="&#x181;" horiz-adv-x="579" 
d="M507 311.5q39 -38.5 39 -116.5q0 -97 -63.5 -146t-174.5 -49h-154v617h-20q-26 0 -37.5 -12.5t-11.5 -39.5q0 -34 19 -75l-60 -29q-18 25 -27.5 51t-9.5 60q0 52 31 84.5t96 32.5h151q114 0 175 -45t61 -129q0 -59 -32.5 -97t-90.5 -54q70 -14 109 -52.5zM245 617v-221
h59q62 0 93 28.5t31 83.5q0 59 -32.5 84t-101.5 25h-49zM414.5 100.5q36.5 27.5 36.5 94.5q0 69 -34.5 99.5t-105.5 30.5h-66v-252h63q70 0 106.5 27.5z" />
    <glyph glyph-name="uni0182" unicode="&#x182;" horiz-adv-x="481" 
d="M398.5 376.5q57.5 -52.5 57.5 -157.5q0 -114 -60 -166.5t-172 -52.5h-148v689h319l-11 -75h-217v-185h68q106 0 163.5 -52.5zM329 104q31 31 31 114q0 74 -31.5 106.5t-96.5 32.5h-65v-284h63q68 0 99 31z" />
    <glyph glyph-name="uni0183" unicode="&#x183;" horiz-adv-x="488" 
d="M400.5 469q42.5 -69 42.5 -205q0 -86 -21 -148t-59.5 -95t-89.5 -33q-34 0 -64 17.5t-52 49.5l-6 -55h-78v739h272l-11 -68h-173v-208q47 75 121 75q76 0 118.5 -69zM350 264q0 113 -23 158.5t-66 45.5q-56 0 -100 -81v-261q18 -31 41.5 -49.5t51.5 -18.5q96 0 96 206z
" />
    <glyph glyph-name="uni0184" unicode="&#x184;" horiz-adv-x="476" 
d="M396.5 381q59.5 -53 59.5 -159q0 -116 -58.5 -169t-168.5 -53h-153v527l-56 41q39 45 68 121h79v-255h60q110 0 169.5 -53zM328 105q32 32 32 116q0 77 -32 109.5t-101 32.5h-60v-290h63q66 0 98 32z" />
    <glyph glyph-name="uni0185" unicode="&#x185;" horiz-adv-x="429" 
d="M357.5 310q46.5 -46 46.5 -130q0 -90 -50.5 -135t-131.5 -45h-146v375l-56 41q40 46 68 111h76v-171h42q105 0 151.5 -46zM287.5 94q24.5 25 24.5 86q0 56 -23 82t-79 26h-46v-219h49q50 0 74.5 25z" />
    <glyph glyph-name="uni0186" unicode="&#x186;" horiz-adv-x="466" 
d="M361.5 612.5q59.5 -87.5 59.5 -266.5q0 -176 -65.5 -267t-175.5 -91q-94 0 -166 76l48 52q32 -26 56.5 -38.5t60.5 -12.5q67 0 106.5 66t39.5 214q0 154 -36 217.5t-99 63.5q-34 0 -64 -12t-60 -36l-45 55q76 67 171 67q110 0 169.5 -87.5z" />
    <glyph glyph-name="uni0187" unicode="&#x187;" horiz-adv-x="466" 
d="M586 795l-34 -54q-16 10 -28 15t-30 5q-48 0 -48 -62v-66l-42 -52q-33 23 -59.5 34t-56.5 11q-147 0 -147 -281q0 -280 150 -280q34 0 59.5 13.5t52.5 38.5l49 -53q-30 -33 -71 -54.5t-92 -21.5q-111 0 -177.5 90t-66.5 267q0 118 31.5 198t85 118.5t120.5 38.5
q44 0 81 -21v15q0 65 32.5 101.5t88.5 36.5q57 0 102 -37z" />
    <glyph glyph-name="uni0188" unicode="&#x188;" horiz-adv-x="391" 
d="M516 712l-34 -54q-16 10 -28 15t-30 5q-48 0 -48 -62v-134l-36 -48q-29 17 -50 25t-45 8q-106 0 -106 -206q0 -107 27 -153t78 -46q25 0 45.5 9t45.5 28l41 -53q-60 -58 -133 -58q-94 0 -146 68t-52 203q0 132 53 205.5t144 73.5q31 0 51 -10v83q0 65 32.5 101.5
t88.5 36.5q57 0 102 -37z" />
    <glyph glyph-name="uni0189" unicode="&#x189;" horiz-adv-x="549" 
d="M365.5 662.5q61.5 -26.5 100 -102t38.5 -212.5q0 -195 -76 -271.5t-193 -76.5h-144v319h-71v68h71v302h129q84 0 145.5 -26.5zM327.5 94q36.5 22 59 82.5t22.5 171.5q0 113 -23.5 171.5t-60 77.5t-88.5 19h-55v-229h113v-68h-113v-247h59q50 0 86.5 22z" />
    <glyph glyph-name="uni018A" unicode="&#x18a;" horiz-adv-x="612" 
d="M428.5 662.5q61.5 -26.5 100 -102t38.5 -212.5q0 -195 -76 -271.5t-193 -76.5h-144v617h-20q-26 0 -37.5 -12.5t-11.5 -39.5q0 -34 19 -75l-60 -29q-18 25 -27.5 51t-9.5 60q0 52 31 84.5t96 32.5h149q84 0 145.5 -26.5zM390.5 94q36.5 22 59 82.5t22.5 171.5
q0 113 -23.5 171.5t-60 77.5t-88.5 19h-55v-544h59q50 0 86.5 22z" />
    <glyph glyph-name="uni018B" unicode="&#x18b;" horiz-adv-x="481" 
d="M405 0h-149q-231 0 -231 213q0 106 59.5 161t170.5 55h59v185h-223v75h314v-689zM314 73v284h-56q-71 0 -104 -33t-33 -111q0 -80 34 -110t107 -30h52z" />
    <glyph glyph-name="uni018C" unicode="&#x18c;" horiz-adv-x="491" 
d="M418 0h-78l-6 67q-47 -79 -120 -79q-82 0 -125.5 72.5t-43.5 200.5q0 83 22 146t61 97t89 34q69 0 113 -61v194h-178v68h266v-739zM330 133v267q-41 68 -95 68q-46 0 -71.5 -50t-25.5 -155q0 -205 93 -205q57 0 99 75z" />
    <glyph glyph-name="uni018D" unicode="&#x18d;" horiz-adv-x="480" 
d="M371.5 1q18.5 -32 18.5 -74q0 -61 -40.5 -102t-116.5 -41q-43 0 -77.5 13.5t-65.5 39.5l40 52q27 -19 49.5 -27.5t51.5 -8.5q36 0 53.5 19t17.5 53q0 24 -7.5 40t-27.5 31.5t-60 36.5q-85 43 -123.5 99.5t-38.5 152.5q0 118 51.5 186t143.5 68t143.5 -61.5t51.5 -190.5
q0 -80 -33 -136.5t-93 -90.5q44 -27 62.5 -59zM148 197q10 -35 36 -61.5t75 -49.5q42 33 62.5 81t20.5 120q0 99 -24.5 140t-77.5 41q-52 0 -77 -41.5t-25 -141.5q0 -53 10 -88z" />
    <glyph glyph-name="uni018E" unicode="&#x18e;" horiz-adv-x="435" 
d="M44 689h315v-689h-320v73h229v241h-187v73h187v229h-224v73z" />
    <glyph glyph-name="uni018F" unicode="&#x18f;" horiz-adv-x="536" 
d="M431.5 618q59.5 -82 59.5 -263q0 -191 -61 -279t-168 -88q-114 0 -170.5 84t-56.5 263q0 23 3 50h360q-4 134 -39.5 187.5t-103.5 53.5q-41 0 -74 -16.5t-69 -46.5l-45 53q42 43 88.5 63.5t104.5 20.5q112 0 171.5 -82zM358 117q34 56 39 195h-273q0 -137 35 -194
t100 -57t99 56z" />
    <glyph glyph-name="uni0190" unicode="&#x190;" horiz-adv-x="432" 
d="M410 616l-48 -51q-59 61 -122 61q-48 0 -71.5 -30t-23.5 -78q0 -54 28 -85t76 -31h55l-11 -75h-43q-60 0 -90 -32.5t-30 -95.5q0 -66 29 -100t85 -34q40 0 70.5 16t58.5 48l53 -48q-71 -93 -183 -93q-60 0 -108 25.5t-75 73t-27 111.5q0 76 37.5 118.5t95.5 52.5
q-55 14 -85 52.5t-30 101.5q0 49 21.5 89.5t62.5 64t96 23.5q103 0 179 -84z" />
    <glyph glyph-name="uni0191" unicode="&#x191;" horiz-adv-x="402" 
d="M167 616v-239h180v-72h-180v-384q0 -64 -36.5 -98.5t-94.5 -34.5t-101 37l38 54q15 -10 28 -14t30 -4q45 0 45 58v770h309l-10 -73h-208z" />
    <glyph glyph-name="florin" unicode="&#x192;" horiz-adv-x="290" 
d="M190 662q-15 -16 -15 -51v-84h106l-10 -69h-96v-428q0 -71 -16.5 -115t-47 -71t-82.5 -55l-27 64q32 18 49.5 36t26.5 49.5t9 86.5v433h-73v69h73v83q0 62 37.5 100.5t105.5 38.5q58 0 110 -27l-26 -62q-37 18 -77 18q-32 0 -47 -16z" />
    <glyph glyph-name="uni0193" unicode="&#x193;" horiz-adv-x="491" 
d="M611 795l-34 -54q-16 10 -28 15t-30 5q-48 0 -48 -62v-74l-44 -47q-35 25 -64 36.5t-66 11.5q-69 0 -112.5 -64t-43.5 -217q0 -107 16.5 -168.5t49 -87.5t82.5 -26q54 0 99 30v214h-94l-10 74h192v-332q-88 -61 -188 -61q-243 0 -243 357q0 117 34 197t90.5 119t125.5 39
q53 0 93 -23v17q0 65 32.5 101.5t88.5 36.5q57 0 102 -37z" />
    <glyph glyph-name="uni0194" unicode="&#x194;" horiz-adv-x="471" 
d="M288 68q29 -67 40.5 -103.5t11.5 -76.5q0 -48 -26 -74t-78 -26q-51 0 -77 26t-26 73q0 34 12 73.5t40 107.5l-177 621h92l137 -558l138 558h88zM256.5 -58q-6.5 27 -20.5 66q-13 -41 -19.5 -67t-6.5 -48q0 -35 26 -35q27 0 27 35q0 22 -6.5 49z" />
    <glyph glyph-name="uni0195" unicode="&#x195;" horiz-adv-x="727" 
d="M672 262q0 -143 -55.5 -208.5t-138.5 -65.5q-67 0 -110 41t-43 114v232q0 51 -14.5 72.5t-43.5 21.5q-57 0 -106 -98v-371h-88v738l88 9v-294q25 42 54.5 63.5t72.5 21.5q57 0 91 -41t34 -110v-240q0 -88 68 -88q103 0 103 204q0 122 -22 264h87q23 -154 23 -265z" />
    <glyph glyph-name="uni0196" unicode="&#x196;" horiz-adv-x="303" 
d="M298 25q-43 -37 -101 -37t-94.5 34.5t-36.5 98.5v568h91v-570q0 -58 45 -58q17 0 30 4t28 14z" />
    <glyph glyph-name="uni0197" unicode="&#x197;" horiz-adv-x="259" 
d="M249 394v-70h-74v-324h-91v324h-74v70h74v295h91v-295h74z" />
    <glyph glyph-name="uni0198" unicode="&#x198;" horiz-adv-x="515" 
d="M171 368l123 230q29 53 58 77.5t72 24.5q28 0 49.5 -10t41.5 -29l-32 -49q-13 9 -24 14t-25 5q-18 0 -31 -12.5t-31 -45.5l-106 -199l228 -374h-103zM167 689v-689h-91v689h91z" />
    <glyph glyph-name="uni0199" unicode="&#x199;" horiz-adv-x="428" 
d="M175.5 661.5q-14.5 -16.5 -14.5 -50.5v-611h-88v610q0 62 37.5 100.5t105.5 38.5q57 0 107 -27l-27 -61q-37 17 -73 17q-33 0 -47.5 -16.5zM257 293l174 -293h-98l-167 288l159 239h90z" />
    <glyph glyph-name="uni019A" unicode="&#x19a;" horiz-adv-x="259" 
d="M174 338v-244q0 -33 28 -33q13 0 25 5l20 -60q-29 -18 -64 -18q-44 0 -70.5 28t-26.5 76v246h-76v67h76v334l88 10v-344h75v-67h-75z" />
    <glyph glyph-name="uni019B" unicode="&#x19b;" horiz-adv-x="407" 
d="M325 258q22 -89 44 -139.5t53 -97.5l-81 -33q-31 54 -52.5 106t-41 133.5t-39.5 211.5l-110 -451l-83 21l140 498h37q-13 67 -27 98l-53 -67l-51 31l67 84q-25 19 -72 30l12 68q70 -16 109 -46l56 69l45 -40l-60 -74q36 -51 56 -159q29 -154 51 -243z" />
    <glyph glyph-name="uni019C" unicode="&#x19c;" horiz-adv-x="761" 
d="M685 689v-689h-79l-7 72q-48 -84 -129 -84q-44 0 -76 25.5t-48 68.5q-30 -49 -64 -71.5t-75 -22.5q-65 0 -103 49.5t-38 130.5v521h91v-519q0 -53 17.5 -80t50.5 -27q31 0 55.5 20.5t50.5 66.5q-1 6 -1 18v521h91v-519q0 -47 18 -77t51 -30q31 0 55.5 21t48.5 67v538h91z
" />
    <glyph glyph-name="uni019D" unicode="&#x19d;" horiz-adv-x="557" 
d="M481 689v-689h-121l-212 587q6 -70 9.5 -125t3.5 -138v-402q0 -65 -36 -99.5t-92 -34.5q-58 0 -101 37l38 53q16 -10 29 -14.5t30 -4.5q24 0 35.5 14t11.5 44v772h121l212 -588q-4 15 -8.5 82t-4.5 125v381h85z" />
    <glyph glyph-name="uni019E" unicode="&#x19e;" horiz-adv-x="482" 
d="M379 497q34 -41 34 -110v-599l-88 11v576q0 51 -14.5 72.5t-43.5 21.5q-57 0 -106 -98v-371h-88v527h76l7 -79q26 44 57 67t75 23q57 0 91 -41z" />
    <glyph glyph-name="uni019F" unicode="&#x19f;" horiz-adv-x="575" 
d="M466 611.5q64 -88.5 64 -267.5q0 -177 -64 -266.5t-178 -89.5t-178.5 88t-64.5 267q0 177 65 267t178 90q114 0 178 -88.5zM180.5 569.5q-38.5 -56.5 -43.5 -184.5h301q-5 129 -42.5 185t-107.5 56q-69 0 -107.5 -56.5zM397.5 121.5q37.5 58.5 41.5 195.5h-303
q4 -136 42.5 -195t109.5 -59q72 0 109.5 58.5z" />
    <glyph glyph-name="Ohorn" unicode="&#x1a0;" horiz-adv-x="598" 
d="M481 587q49 -87 49 -243q0 -177 -64 -266.5t-178 -89.5t-178.5 88t-64.5 267q0 177 65 267t178 90q100 0 160 -66q22 4 32 16.5t10 35.5q0 38 -12 72l63 15q17 -40 17 -86q0 -81 -77 -100zM397 127.5q37 64.5 37 216.5q0 151 -37 216.5t-109 65.5t-109.5 -66t-37.5 -217
q0 -150 38 -215t109 -65q72 0 109 64.5z" />
    <glyph glyph-name="ohorn" unicode="&#x1a1;" horiz-adv-x="496" 
d="M414 422q26 -64 26 -158q0 -127 -52.5 -201.5t-145.5 -74.5t-145 73t-52 202q0 133 52 204t146 71q92 0 143 -66q22 4 32 15.5t10 34.5q0 38 -12 72l63 15q17 -40 17 -86q0 -84 -82 -101zM321 107q26 48 26 157q0 108 -26 155.5t-78 47.5q-53 0 -79 -47.5t-26 -156.5
q0 -108 26 -156t78 -48q53 0 79 48z" />
    <glyph glyph-name="uni01A2" unicode="&#x1a2;" horiz-adv-x="767" 
d="M654.5 663q36.5 -39 36.5 -109v-755h-91v758q0 74 -57 74q-39 0 -74 -24q61 -91 61 -263q0 -177 -64 -266.5t-178 -89.5t-178.5 88t-64.5 267q0 177 65 267t178 90q83 0 137 -45q30 24 60 35.5t67 11.5q66 0 102.5 -39zM397 127.5q37 64.5 37 216.5q0 151 -37 216.5
t-109 65.5t-109.5 -66t-37.5 -217q0 -150 38 -215t109 -65q72 0 109 64.5z" />
    <glyph glyph-name="uni01A3" unicode="&#x1a3;" horiz-adv-x="662" 
d="M553.5 499.5q35.5 -38.5 35.5 -109.5v-602l-88 11v594q0 74 -57 74q-22 0 -47 -10q43 -71 43 -193q0 -127 -52.5 -201.5t-145.5 -74.5t-145 73t-52 202q0 133 52 204t146 71q63 0 107 -32q26 16 50.5 24t53.5 8q64 0 99.5 -38.5zM321 107q26 48 26 157q0 108 -26 155.5
t-78 47.5q-53 0 -79 -47.5t-26 -156.5q0 -108 26 -156t78 -48q53 0 79 48z" />
    <glyph glyph-name="uni01A4" unicode="&#x1a4;" horiz-adv-x="554" 
d="M471.5 635q62.5 -54 62.5 -159q0 -112 -63.5 -166.5t-180.5 -54.5h-45v-255h-91v617h-20q-26 0 -37.5 -12.5t-11.5 -39.5q0 -34 19 -75l-60 -29q-18 25 -27.5 51t-9.5 60q0 52 31 84.5t96 32.5h154q121 0 183.5 -54zM403 359.5q36 32.5 36 115.5q0 75 -36.5 108.5
t-112.5 33.5h-45v-290h45q77 0 113 32.5z" />
    <glyph glyph-name="uni01A5" unicode="&#x1a5;" horiz-adv-x="488" 
d="M403 467.5q40 -70.5 40 -203.5q0 -129 -44 -202.5t-126 -73.5q-68 0 -112 58v-247l-88 -11v822q0 62 37.5 100.5t105.5 38.5q57 0 107 -27l-27 -61q-37 17 -73 17q-33 0 -47.5 -16.5t-14.5 -50.5v-145q49 72 125 72q77 0 117 -70.5zM325.5 108.5q24.5 48.5 24.5 155.5
q0 109 -21 156.5t-66 47.5q-57 0 -102 -77v-270q38 -61 93 -61q47 0 71.5 48.5z" />
    <glyph glyph-name="uni01A6" unicode="&#x1a6;" horiz-adv-x="504" 
d="M386 -123l-134 295q-7 -1 -21 -1h-64v-171h-91v689h91v-123h49q121 0 180 -50t59 -144q0 -66 -31 -113.5t-89 -69.5l151 -312h-100zM327 272.5q32 31.5 32 99.5q0 63 -33 92t-111 30l-48 1v-254h56q72 0 104 31.5z" />
    <glyph glyph-name="uni01A7" unicode="&#x1a7;" horiz-adv-x="443" 
d="M363.5 653.5q49.5 -46.5 49.5 -124.5q0 -77 -40 -121t-129 -78q-68 -26 -93 -58t-25 -88q0 -58 29 -89.5t78 -31.5q43 0 78 16.5t69 47.5l48 -50q-79 -89 -196 -89q-60 0 -106 25t-70.5 70t-24.5 101q0 60 20.5 100t56 64.5t89.5 45.5q49 19 75 37t36 40.5t10 57.5
q0 49 -24 73t-66 24q-38 0 -69 -13.5t-63 -42.5l-47 51q40 40 84 59.5t99 19.5q82 0 131.5 -46.5z" />
    <glyph glyph-name="uni01A8" unicode="&#x1a8;" horiz-adv-x="385" 
d="M310 498q43 -40 43 -101q0 -60 -30 -94t-99 -57q-43 -15 -65 -28.5t-30 -31t-8 -44.5q0 -39 23 -61t62 -22q60 0 113 48l46 -50q-31 -32 -73.5 -50.5t-93.5 -18.5q-71 0 -119.5 40.5t-48.5 116.5q0 62 34.5 97.5t106.5 58.5q55 18 74.5 39t19.5 60q0 31 -19.5 49.5
t-52.5 18.5q-31 0 -56 -9.5t-55 -30.5l-39 51q34 30 70.5 44.5t80.5 14.5q73 0 116 -40z" />
    <glyph glyph-name="uni01A9" unicode="&#x1a9;" horiz-adv-x="414" 
d="M384 689v-75h-256l162 -244v-59l-164 -236h258v-75h-354v74l183 266l-183 275v74h354z" />
    <glyph glyph-name="uni01AA" unicode="&#x1aa;" horiz-adv-x="276" 
d="M347 -175q-43 -37 -102 -37q-57 0 -93.5 34t-36.5 95v571q-23 -9 -46 -9q-50 0 -82 35.5t-32 98.5q0 64 33.5 100t88.5 36q58 0 92 -35t34 -101v-696q0 -58 49 -58q17 0 29.5 4.5t28.5 14.5zM115 554v64q0 33 -9.5 47.5t-28.5 14.5q-39 0 -39 -65q0 -36 10.5 -51.5
t33.5 -15.5q17 0 33 6z" />
    <glyph glyph-name="uni01AB" unicode="&#x1ab;" horiz-adv-x="306" 
d="M306 25v-108q0 -61 -36.5 -95t-93.5 -34q-59 0 -102 37l37 53q16 -10 28.5 -14.5t29.5 -4.5q25 0 40 14.5t15 43.5v76q-17 -5 -32 -5q-52 0 -81.5 34t-29.5 93v343h-71v69h71v119l88 11v-130h102l-9 -69h-93v-342q0 -57 47 -57q16 0 28.5 3t30.5 10l30 -47h1z" />
    <glyph glyph-name="uni01AC" unicode="&#x1ac;" horiz-adv-x="461" 
d="M446 611h-153v-611h-91v611h-74q-20 0 -31 -13t-11 -35q0 -34 18 -70l-63 -33q-34 52 -34 106q0 58 34 90.5t97 32.5h317z" />
    <glyph glyph-name="uni01AD" unicode="&#x1ad;" horiz-adv-x="306" 
d="M244.5 65q11.5 4 27.5 14l34 -55q-45 -36 -101 -36q-59 0 -91.5 35t-32.5 94v341h-71v69h71v88q0 62 34.5 98t93.5 36q52 0 97 -37l-34 -54q-17 11 -28 15.5t-27 4.5q-22 0 -35 -15t-13 -41v-95h102l-9 -69h-93v-342q0 -55 50 -55q14 0 25.5 4z" />
    <glyph glyph-name="uni01AE" unicode="&#x1ae;" horiz-adv-x="428" 
d="M304 -139q17 0 30 4t28 14l38 -54q-43 -37 -101 -37t-94.5 34.5t-36.5 98.5v692h-157v76h411l-10 -76h-153v-694q0 -58 45 -58z" />
    <glyph glyph-name="Uhorn" unicode="&#x1af;" horiz-adv-x="567" 
d="M550 612.5q-27 -25.5 -78 -30.5v-397q0 -55 -23.5 -100t-69.5 -71t-110 -26q-97 0 -150 55.5t-53 141.5v504h91v-497q0 -127 112 -127t112 127v497h91v-53q19 4 28 16t9 34q0 38 -12 72l63 15q17 -40 17 -86q0 -49 -27 -74.5z" />
    <glyph glyph-name="uhorn" unicode="&#x1b0;" horiz-adv-x="497" 
d="M512 523q0 -49 -27 -74.5t-79 -30.5v-418h-76l-6 74q-25 -43 -56.5 -64.5t-73.5 -21.5q-57 0 -91 39t-34 102v398h88v-389q0 -81 57 -81q33 0 58 23.5t46 65.5v381h88v-54q20 5 29 16.5t9 32.5q0 38 -12 72l63 15q17 -40 17 -86z" />
    <glyph glyph-name="uni01B1" unicode="&#x1b1;" horiz-adv-x="567" 
d="M105.5 69.5q-64.5 81.5 -64.5 235.5q0 118 28 187.5t79 121.5h-89v75h172v-75q-48 -52 -71 -121.5t-23 -187.5q0 -128 37.5 -185t109.5 -57q71 0 108.5 57.5t37.5 185.5q0 115 -23.5 185t-69.5 123v75h172v-75h-90q50 -44 78.5 -115t28.5 -193q0 -100 -30 -172
t-84.5 -109t-127.5 -37q-114 0 -178.5 81.5z" />
    <glyph glyph-name="uni01B2" unicode="&#x1b2;" horiz-adv-x="538" 
d="M445.5 670.5q26.5 -29.5 26.5 -84.5v-316q0 -86 -27 -149.5t-76.5 -98t-115.5 -34.5q-57 0 -99.5 24.5t-65 68t-22.5 98.5v510h91v-505q0 -58 25 -88.5t71 -30.5q61 0 94.5 53t33.5 152v315q0 21 -7 31.5t-23 10.5t-29 -5l-19 63q34 15 66 15q50 0 76.5 -29.5z" />
    <glyph glyph-name="uni01B3" unicode="&#x1b3;" horiz-adv-x="484" 
d="M184 264l-182 425h97l132 -344l87 252q19 54 47 78.5t73 24.5q28 0 49.5 -10t41.5 -29l-32 -49q-13 9 -24 14t-25 5q-19 0 -30.5 -12.5t-24.5 -45.5l-118 -308v-265h-91v264z" />
    <glyph glyph-name="uni01B4" unicode="&#x1b4;" horiz-adv-x="410" 
d="M44 -145q63 14 92 46t49 99h-33l-142 527h90l110 -463l88 414q11 50 33 73t63 23q32 0 61 -18l-22 -56q-10 6 -25 6q-13 0 -21 -8.5t-12 -27.5l-111 -473q-44 -186 -210 -209z" />
    <glyph glyph-name="uni01B5" unicode="&#x1b5;" horiz-adv-x="427" 
d="M399 689v-74l-123 -234h80v-70h-117l-122 -233h282l-10 -78h-367v73l125 238h-78v70h114l121 231h-254v77h349z" />
    <glyph glyph-name="uni01B6" unicode="&#x1b6;" horiz-adv-x="362" 
d="M109 74h231l-9 -74h-313v66l96 162h-63v67h103l93 157h-210v75h301v-68l-98 -164h74v-67h-113z" />
    <glyph glyph-name="uni01B7" unicode="&#x1b7;" horiz-adv-x="421" 
d="M344.5 345q48.5 -49 48.5 -148q0 -95 -55 -152t-151 -57q-62 0 -105.5 22t-76.5 68l55 45q29 -32 56.5 -46t66.5 -14q56 0 86 35t30 101q0 72 -30 101t-93 29h-74v65l175 220h-245v75h339v-74l-173 -219q98 -2 146.5 -51z" />
    <glyph glyph-name="uni01B8" unicode="&#x1b8;" horiz-adv-x="421" 
d="M416 78q-36 -46 -80 -68t-104 -22q-95 0 -149.5 55t-54.5 150q0 199 195 203l-173 219v74h339v-75h-245l175 -220v-65h-74q-63 0 -93 -31t-30 -103q0 -66 28 -99t82 -33q39 0 68.5 14t60.5 46z" />
    <glyph glyph-name="uni01B9" unicode="&#x1b9;" horiz-adv-x="396" 
d="M401 -123q-33 -45 -76 -67t-102 -22q-92 0 -146.5 57.5t-54.5 155.5q0 96 50.5 149.5t144.5 54.5l-174 254v68h331v-73h-239l169 -250v-64h-66q-64 0 -93.5 -33t-29.5 -104q0 -72 28.5 -107.5t82.5 -35.5q37 0 65 15t58 48z" />
    <glyph glyph-name="uni01BA" unicode="&#x1ba;" horiz-adv-x="393" 
d="M23 -76q0 48 33.5 75.5t104.5 38.5q65 10 92 30.5t27 68.5q0 69 -70 69h-119v65l161 183h-232v73h328v-68l-166 -187h33q75 0 116.5 -34.5t41.5 -99.5q0 -136 -164 -164q-60 -11 -80 -22t-20 -35q0 -20 13.5 -37t41.5 -36l-27 -58q-114 56 -114 138z" />
    <glyph glyph-name="uni01BB" unicode="&#x1bb;" horiz-adv-x="410" 
d="M256 254q-39 -54 -139 -180h249l-10 -74h-333v70q90 114 140 184h-103v70h149q30 50 41.5 89t11.5 84q0 54 -23 81.5t-64 27.5q-32 0 -56 -16.5t-52 -52.5l-57 41q68 101 171 101q79 0 125.5 -50t46.5 -128q0 -47 -12 -88.5t-40 -88.5h70v-70h-115z" />
    <glyph glyph-name="uni01BC" unicode="&#x1bc;" horiz-adv-x="429" 
d="M360 619h-218v-210q21 14 42 20t47 6q73 0 117.5 -57t44.5 -159q0 -68 -25 -120.5t-71 -81.5t-105 -29q-54 0 -94 21t-77 64l52 47q27 -31 54.5 -45.5t62.5 -14.5q53 0 82.5 40.5t29.5 120.5q0 81 -26 114t-73 33q-23 0 -41.5 -6t-38.5 -18h-65v345h314z" />
    <glyph glyph-name="uni01BD" unicode="&#x1bd;" horiz-adv-x="375" 
d="M305 454h-169v-130q32 21 76 21q37 0 67 -21t47.5 -60t17.5 -92q0 -84 -47.5 -134t-126.5 -50q-48 0 -82 17.5t-66 52.5l53 51q28 -25 47 -35t47 -10q38 0 61 27.5t23 82.5q0 99 -71 99q-33 0 -68 -22h-61v276h266z" />
    <glyph glyph-name="uni01BE" unicode="&#x1be;" horiz-adv-x="419" 
d="M336.5 355q37.5 -47 37.5 -144q0 -104 -51.5 -163t-139.5 -59q-50 0 -90 20.5t-78 63.5l46 47q31 -31 58 -45.5t62 -14.5q101 0 101 153q0 72 -26 108t-77 52l-55 17v156h-58v68h58v124l88 9v-133h90v-68h-90v-112l25 -9q62 -23 99.5 -70z" />
    <glyph glyph-name="uni01BF" unicode="&#x1bf;" horiz-adv-x="488" 
d="M402 489q41 -49 41 -135q0 -79 -27.5 -136.5t-75.5 -101t-123 -90.5l-56 -35v-192l-88 -11v739h77l5 -66q32 38 65 57.5t75 19.5q66 0 107 -49zM314.5 206.5q35.5 58.5 35.5 146.5q0 57 -19 85.5t-55 28.5q-32 0 -59.5 -18.5t-55.5 -53.5v-332l43 31q75 54 110.5 112.5z
" />
    <glyph glyph-name="uni01C0" unicode="&#x1c0;" horiz-adv-x="232" 
d="M156 748v-748h-80v739z" />
    <glyph glyph-name="uni01C1" unicode="&#x1c1;" horiz-adv-x="384" 
d="M156 748v-748h-80v739zM308 748v-748h-80v739z" />
    <glyph glyph-name="uni01C2" unicode="&#x1c2;" horiz-adv-x="259" 
d="M249 410h-79v-92h79v-59h-79v-259h-80v259h-80v59h80v92h-80v59h80v270l80 9v-279h79v-59z" />
    <glyph glyph-name="uni01C3" unicode="&#x1c3;" horiz-adv-x="281" 
d="M181 748v-539h-79v530zM187 100.5q18 -19.5 18 -46.5t-18 -46.5t-47 -19.5q-28 0 -46 19.5t-18 46.5t18 46.5t46 19.5q29 0 47 -19.5z" />
    <glyph glyph-name="uni01C4" unicode="&#x1c4;" horiz-adv-x="936" 
d="M350.5 662.5q61.5 -26.5 100 -102t38.5 -212.5q0 -195 -76 -271.5t-193 -76.5h-144v689h129q84 0 145.5 -26.5zM167 616v-544h59q50 0 86.5 22t59 82.5t22.5 171.5q0 113 -23.5 171.5t-60 77.5t-88.5 19h-55zM908 689v-74l-282 -537h282l-10 -78h-367v73l282 539h-254v77
h349zM837 904l35 -38l-112 -112h-56l-112 112l36 38l104 -80z" />
    <glyph glyph-name="uni01C5" unicode="&#x1c5;" horiz-adv-x="886" 
d="M350.5 662.5q61.5 -26.5 100 -102t38.5 -212.5q0 -195 -76 -271.5t-193 -76.5h-144v689h129q84 0 145.5 -26.5zM167 616v-544h59q50 0 86.5 22t59 82.5t22.5 171.5q0 113 -23.5 171.5t-60 77.5t-88.5 19h-55zM862 527v-68l-227 -385h229l-9 -74h-313v66l227 386h-208v75
h301zM812 782l35 -39l-112 -115h-56l-112 115l35 39l105 -88z" />
    <glyph glyph-name="uni01C6" unicode="&#x1c6;" horiz-adv-x="853" 
d="M418 739v-739h-78l-6 67q-47 -79 -120 -79q-82 0 -125.5 72.5t-43.5 200.5q0 83 22 146t61 97t89 34q69 0 113 -61v272zM330 133v267q-41 68 -95 68q-46 0 -71.5 -50t-25.5 -155q0 -205 93 -205q57 0 99 75zM829 527v-68l-227 -385h229l-9 -74h-313v66l227 386h-208v75
h301zM779 782l35 -39l-112 -115h-56l-112 115l35 39l105 -88z" />
    <glyph glyph-name="uni01C7" unicode="&#x1c7;" horiz-adv-x="639" 
d="M167 689v-609h229l-10 -80h-310v689h91zM567 95q0 -99 -39 -149.5t-117 -80.5l-24 64q38 20 56.5 40.5t25.5 49.5t7 80v590h91v-594z" />
    <glyph glyph-name="uni01C8" unicode="&#x1c8;" horiz-adv-x="625" 
d="M167 689v-609h229l-10 -80h-310v689h91zM552 10q0 -61 -16.5 -101t-47 -66.5t-82.5 -53.5l-28 62q32 19 49.5 36.5t27 46t9.5 75.5v518h88v-517zM550 760q16 -17 16 -44q0 -25 -16.5 -42t-42.5 -17t-42.5 17t-16.5 42q0 26 16.5 43.5t42.5 17.5q27 0 43 -17z" />
    <glyph glyph-name="uni01C9" unicode="&#x1c9;" horiz-adv-x="478" 
d="M94.5 16q-26.5 28 -26.5 76v647l88 10v-655q0 -33 28 -33q13 0 25 5l20 -60q-29 -18 -64 -18q-44 0 -70.5 28zM405 10q0 -61 -16.5 -101t-47 -66.5t-82.5 -53.5l-28 62q32 19 49.5 36.5t27 46t9.5 75.5v518h88v-517zM403 760q16 -17 16 -44q0 -25 -16.5 -42t-42.5 -17
t-42.5 17t-16.5 42q0 26 16.5 43.5t42.5 17.5q27 0 43 -17z" />
    <glyph glyph-name="uni01CA" unicode="&#x1ca;" horiz-adv-x="809" 
d="M481 0h-121l-212 587q6 -70 9.5 -125t3.5 -138v-324h-85v689h121l212 -588q-4 15 -8.5 82t-4.5 125v381h85v-689zM737 95q0 -99 -39 -149.5t-117 -80.5l-24 64q38 20 56.5 40.5t25.5 49.5t7 80v590h91v-594z" />
    <glyph glyph-name="uni01CB" unicode="&#x1cb;" horiz-adv-x="791" 
d="M481 0h-121l-212 587q6 -70 9.5 -125t3.5 -138v-324h-85v689h121l212 -588q-4 15 -8.5 82t-4.5 125v381h85v-689zM718 10q0 -61 -16.5 -101t-47 -66.5t-82.5 -53.5l-28 62q32 19 49.5 36.5t27 46t9.5 75.5v518h88v-517zM716 760q16 -17 16 -44q0 -25 -16.5 -42t-42.5 -17
t-42.5 17t-16.5 42q0 26 16.5 43.5t42.5 17.5q27 0 43 -17z" />
    <glyph glyph-name="uni01CC" unicode="&#x1cc;" horiz-adv-x="716" 
d="M379 497q34 -41 34 -110v-387h-88v375q0 51 -14.5 72.5t-43.5 21.5q-57 0 -106 -98v-371h-88v527h76l7 -79q26 44 57 67t75 23q57 0 91 -41zM643 10q0 -61 -16.5 -101t-47 -66.5t-82.5 -53.5l-28 62q32 19 49.5 36.5t27 46t9.5 75.5v518h88v-517zM641 760q16 -17 16 -44
q0 -25 -16.5 -42t-42.5 -17t-42.5 17t-16.5 42q0 26 16.5 43.5t42.5 17.5q27 0 43 -17z" />
    <glyph glyph-name="uni01CD" unicode="&#x1cd;" horiz-adv-x="487" 
d="M386 0l-41 175h-206l-41 -175h-90l179 689h113l179 -689h-93zM156 248h172l-86 365zM349 904l35 -38l-112 -112h-56l-112 112l36 38l104 -80z" />
    <glyph glyph-name="uni01CE" unicode="&#x1ce;" horiz-adv-x="451" 
d="M385 70.5q8 -13.5 26 -21.5l-19 -61q-37 6 -58.5 23.5t-30.5 52.5q-43 -76 -126 -76q-65 0 -103.5 43.5t-38.5 115.5q0 84 52 128.5t151 44.5h52v48q0 52 -20.5 76t-63.5 24q-51 0 -119 -27l-22 62q81 35 152 35q81 0 120.5 -43.5t39.5 -122.5v-260q0 -28 8 -41.5z
M290 138v123h-42q-63 0 -92.5 -27t-29.5 -83q0 -48 18 -72.5t51 -24.5q62 0 95 84zM321 782l35 -39l-112 -115h-56l-112 115l35 39l105 -88z" />
    <glyph glyph-name="uni01CF" unicode="&#x1cf;" horiz-adv-x="243" 
d="M167 689v-689h-91v689h91zM226 904l35 -38l-112 -112h-56l-112 112l36 38l104 -80z" />
    <glyph glyph-name="uni01D0" unicode="&#x1d0;" horiz-adv-x="234" 
d="M161 527v-527h-88v527h88zM222 782l35 -39l-112 -115h-56l-112 115l35 39l105 -88z" />
    <glyph glyph-name="uni01D1" unicode="&#x1d1;" horiz-adv-x="575" 
d="M466 611.5q64 -88.5 64 -267.5q0 -177 -64 -266.5t-178 -89.5t-178.5 88t-64.5 267q0 177 65 267t178 90q114 0 178 -88.5zM178.5 560q-37.5 -66 -37.5 -217q0 -150 38 -215t109 -65q72 0 109 64.5t37 216.5q0 151 -37 216.5t-109 65.5t-109.5 -66zM393 904l35 -38
l-112 -112h-56l-112 112l36 38l104 -80z" />
    <glyph glyph-name="uni01D2" unicode="&#x1d2;" horiz-adv-x="485" 
d="M388.5 468.5q51.5 -69.5 51.5 -204.5q0 -127 -52.5 -201.5t-145.5 -74.5t-145 73t-52 202q0 133 52 204t146 71t145.5 -69.5zM164 419.5q-26 -47.5 -26 -156.5q0 -108 26 -156t78 -48q53 0 79 48t26 157q0 108 -26 155.5t-78 47.5q-53 0 -79 -47.5zM347 782l35 -39
l-112 -115h-56l-112 115l35 39l105 -88z" />
    <glyph glyph-name="uni01D3" unicode="&#x1d3;" horiz-adv-x="538" 
d="M472 185q0 -55 -23.5 -100t-69.5 -71t-110 -26q-97 0 -150 55.5t-53 141.5v504h91v-497q0 -127 112 -127t112 127v497h91v-504zM374 904l35 -38l-112 -112h-56l-112 112l36 38l104 -80z" />
    <glyph glyph-name="uni01D4" unicode="&#x1d4;" horiz-adv-x="479" 
d="M406 0h-76l-6 74q-25 -43 -56.5 -64.5t-73.5 -21.5q-57 0 -91 39t-34 102v398h88v-389q0 -81 57 -81q33 0 58 23.5t46 65.5v381h88v-527zM343 782l35 -39l-112 -115h-56l-112 115l35 39l105 -88z" />
    <glyph glyph-name="uni01D5" unicode="&#x1d5;" horiz-adv-x="538" 
d="M472 185q0 -55 -23.5 -100t-69.5 -71t-110 -26q-97 0 -150 55.5t-53 141.5v504h91v-497q0 -127 112 -127t112 127v497h91v-504zM220 840q15 -16 15 -39t-15 -39t-38 -16t-38 16t-15 39t15 39t38 16t38 -16zM395 840q15 -16 15 -39t-15 -39t-38 -16q-22 0 -37.5 16
t-15.5 39t15.5 39t37.5 16q23 0 38 -16zM384 905h-228v64h228v-64z" />
    <glyph glyph-name="uni01D6" unicode="&#x1d6;" horiz-adv-x="479" 
d="M406 0h-76l-6 74q-25 -43 -56.5 -64.5t-73.5 -21.5q-57 0 -91 39t-34 102v398h88v-389q0 -81 57 -81q33 0 58 23.5t46 65.5v381h88v-527zM189 719q15 -16 15 -39t-15 -39t-38 -16t-38 16t-15 39t15 39t38 16t38 -16zM364 719q15 -16 15 -39t-15 -39t-38 -16
q-22 0 -37.5 16t-15.5 39t15.5 39t37.5 16q23 0 38 -16zM353 793h-228v64h228v-64z" />
    <glyph glyph-name="uni01D7" unicode="&#x1d7;" horiz-adv-x="538" 
d="M472 185q0 -55 -23.5 -100t-69.5 -71t-110 -26q-97 0 -150 55.5t-53 141.5v504h91v-497q0 -127 112 -127t112 127v497h91v-504zM341 1010l58 -48l-122 -130l-37 32zM219 840q15 -16 15 -39t-15 -39t-38 -16t-38 16t-15 39t15 39t38 16t38 -16zM394 840q15 -16 15 -39
t-15 -39t-38 -16q-22 0 -37.5 16t-15.5 39t15.5 39t37.5 16q23 0 38 -16z" />
    <glyph glyph-name="uni01D8" unicode="&#x1d8;" horiz-adv-x="479" 
d="M406 0h-76l-6 74q-25 -43 -56.5 -64.5t-73.5 -21.5q-57 0 -91 39t-34 102v398h88v-389q0 -81 57 -81q33 0 58 23.5t46 65.5v381h88v-527zM310 889l58 -48l-122 -130l-37 32zM188 719q15 -16 15 -39t-15 -39t-38 -16t-38 16t-15 39t15 39t38 16t38 -16zM363 719
q15 -16 15 -39t-15 -39t-38 -16q-22 0 -37.5 16t-15.5 39t15.5 39t37.5 16q23 0 38 -16z" />
    <glyph glyph-name="uni01D9" unicode="&#x1d9;" horiz-adv-x="538" 
d="M472 185q0 -55 -23.5 -100t-69.5 -71t-110 -26q-97 0 -150 55.5t-53 141.5v504h91v-497q0 -127 112 -127t112 127v497h91v-504zM372 1011l35 -38l-112 -112h-56l-112 112l36 38l104 -80zM219 840q15 -16 15 -39t-15 -39t-38 -16t-38 16t-15 39t15 39t38 16t38 -16z
M394 840q15 -16 15 -39t-15 -39t-38 -16q-22 0 -37.5 16t-15.5 39t15.5 39t37.5 16q23 0 38 -16z" />
    <glyph glyph-name="uni01DA" unicode="&#x1da;" horiz-adv-x="479" 
d="M406 0h-76l-6 74q-25 -43 -56.5 -64.5t-73.5 -21.5q-57 0 -91 39t-34 102v398h88v-389q0 -81 57 -81q33 0 58 23.5t46 65.5v381h88v-527zM343 891l35 -38l-112 -112h-56l-112 112l36 38l104 -80zM188 719q15 -16 15 -39t-15 -39t-38 -16t-38 16t-15 39t15 39t38 16
t38 -16zM363 719q15 -16 15 -39t-15 -39t-38 -16q-22 0 -37.5 16t-15.5 39t15.5 39t37.5 16q23 0 38 -16z" />
    <glyph glyph-name="uni01DB" unicode="&#x1db;" horiz-adv-x="538" 
d="M472 185q0 -55 -23.5 -100t-69.5 -71t-110 -26q-97 0 -150 55.5t-53 141.5v504h91v-497q0 -127 112 -127t112 127v497h91v-504zM206 1010l103 -146l-39 -32l-122 130zM219 840q15 -16 15 -39t-15 -39t-38 -16t-38 16t-15 39t15 39t38 16t38 -16zM394 840q15 -16 15 -39
t-15 -39t-38 -16q-22 0 -37.5 16t-15.5 39t15.5 39t37.5 16q23 0 38 -16z" />
    <glyph glyph-name="uni01DC" unicode="&#x1dc;" horiz-adv-x="479" 
d="M406 0h-76l-6 74q-25 -43 -56.5 -64.5t-73.5 -21.5q-57 0 -91 39t-34 102v398h88v-389q0 -81 57 -81q33 0 58 23.5t46 65.5v381h88v-527zM170 889l103 -146l-39 -32l-122 130zM188 719q15 -16 15 -39t-15 -39t-38 -16t-38 16t-15 39t15 39t38 16t38 -16zM363 719
q15 -16 15 -39t-15 -39t-38 -16q-22 0 -37.5 16t-15.5 39t15.5 39t37.5 16q23 0 38 -16z" />
    <glyph glyph-name="uni01DD" unicode="&#x1dd;" 
d="M368 469q47 -69 47 -205q0 -137 -50 -206.5t-140 -69.5q-87 0 -136 65t-49 195q0 22 2 46h284q-3 94 -29 133t-74 39q-32 0 -58.5 -10.5t-55.5 -34.5l-39 55q65 62 152 62q99 0 146 -69zM298.5 94.5q24.5 36.5 27.5 133.5h-201v-7q0 -86 25.5 -124.5t74.5 -38.5
t73.5 36.5z" />
    <glyph glyph-name="uni01DE" unicode="&#x1de;" horiz-adv-x="487" 
d="M386 0l-41 175h-206l-41 -175h-90l179 689h113l179 -689h-93zM156 248h172l-86 365zM195 840q15 -16 15 -39t-15 -39t-38 -16t-38 16t-15 39t15 39t38 16t38 -16zM370 840q15 -16 15 -39t-15 -39t-38 -16q-22 0 -37.5 16t-15.5 39t15.5 39t37.5 16q23 0 38 -16zM359 905
h-228v64h228v-64z" />
    <glyph glyph-name="uni01DF" unicode="&#x1df;" horiz-adv-x="451" 
d="M385 70.5q8 -13.5 26 -21.5l-19 -61q-37 6 -58.5 23.5t-30.5 52.5q-43 -76 -126 -76q-65 0 -103.5 43.5t-38.5 115.5q0 84 52 128.5t151 44.5h52v48q0 52 -20.5 76t-63.5 24q-51 0 -119 -27l-22 62q81 35 152 35q81 0 120.5 -43.5t39.5 -122.5v-260q0 -28 8 -41.5z
M290 138v123h-42q-63 0 -92.5 -27t-29.5 -83q0 -48 18 -72.5t51 -24.5q62 0 95 84zM167 719q15 -16 15 -39t-15 -39t-38 -16t-38 16t-15 39t15 39t38 16t38 -16zM342 719q15 -16 15 -39t-15 -39t-38 -16q-22 0 -37.5 16t-15.5 39t15.5 39t37.5 16q23 0 38 -16zM331 793h-228
v64h228v-64z" />
    <glyph glyph-name="uni01E0" unicode="&#x1e0;" horiz-adv-x="487" 
d="M386 0l-41 175h-206l-41 -175h-90l179 689h113l179 -689h-93zM156 248h172l-86 365zM287 845q16 -17 16 -44q0 -25 -16.5 -42t-42.5 -17t-42.5 17t-16.5 42q0 26 16.5 43.5t42.5 17.5q27 0 43 -17zM358 906h-228v64h228v-64z" />
    <glyph glyph-name="uni01E1" unicode="&#x1e1;" horiz-adv-x="451" 
d="M385 70.5q8 -13.5 26 -21.5l-19 -61q-37 6 -58.5 23.5t-30.5 52.5q-43 -76 -126 -76q-65 0 -103.5 43.5t-38.5 115.5q0 84 52 128.5t151 44.5h52v48q0 52 -20.5 76t-63.5 24q-51 0 -119 -27l-22 62q81 35 152 35q81 0 120.5 -43.5t39.5 -122.5v-260q0 -28 8 -41.5z
M290 138v123h-42q-63 0 -92.5 -27t-29.5 -83q0 -48 18 -72.5t51 -24.5q62 0 95 84zM259 710q16 -17 16 -44q0 -25 -16.5 -42t-42.5 -17t-42.5 17t-16.5 42q0 26 16.5 43.5t42.5 17.5q27 0 43 -17zM330 770h-228v64h228v-64z" />
    <glyph glyph-name="uni01E2" unicode="&#x1e2;" horiz-adv-x="674" 
d="M448 73h187v-73h-262l-31 174h-210l-52 -174h-91l224 689h388l-10 -73h-245l43 -230h205v-73h-191zM154 247h176l-65 369zM503 795h-228v64h228v-64z" />
    <glyph glyph-name="uni01E3" unicode="&#x1e3;" horiz-adv-x="702" 
d="M660 233h-276q4 -90 34.5 -131.5t79.5 -41.5q30 0 56 10.5t53 33.5l39 -50q-69 -66 -155 -66q-54 0 -95 24.5t-66 71.5q-29 -51 -65.5 -73.5t-83.5 -22.5q-66 0 -106 44t-40 115q0 84 53.5 128.5t152.5 44.5h52v41q0 57 -21 82t-66 25q-48 0 -116 -28l-21 63
q81 35 152 35q50 0 81 -20.5t48 -59.5q50 80 137 80q83 0 129 -66.5t46 -192.5q0 -22 -2 -46zM575 305q0 85 -22 124.5t-68 39.5q-94 0 -101 -171h191v7zM257 77q25 23 48 73q-12 47 -12 107v4h-42q-62 0 -92.5 -27t-30.5 -83q0 -47 18.5 -72t52.5 -25q33 0 58 23zM466 669
h-228v64h228v-64z" />
    <glyph glyph-name="uni01E4" unicode="&#x1e4;" horiz-adv-x="535" 
d="M535 174h-59v-125q-87 -61 -192 -61q-114 0 -176.5 90.5t-62.5 266.5q0 112 34 192t91 121.5t125 41.5q56 0 97.5 -18.5t78.5 -56.5l-51 -55q-30 30 -57.5 43t-63.5 13q-68 0 -113 -68.5t-45 -212.5q0 -146 37 -214t110 -68q56 0 102 32v79h-94v72h94v61h-97l-9 74h192
v-135h59v-72z" />
    <glyph glyph-name="uni01E5" unicode="&#x1e5;" horiz-adv-x="434" 
d="M461 -88h-48q-12 -57 -64 -90.5t-140 -33.5q-104 0 -147.5 40.5t-43.5 118.5h78q0 -49 24 -69.5t90 -20.5q56 0 85.5 14t38.5 41h-112v59h112q-16 48 -96 48h-37q-72 0 -105 26.5t-33 71.5q0 48 52 90q-77 47 -77 148q0 83 49 133t127 50q70 0 110 11t82 34l26 -79
q-23 -10 -51.5 -13t-72.5 -3q77 -42 77 -134q0 -81 -45 -129.5t-124 -48.5q-29 0 -53 10q-10 -8 -15.5 -21.5t-5.5 -28.5q0 -22 12 -34.5t43 -12.5h58q66 0 108.5 -33.5t51.5 -84.5h46v-59zM147 446q-22 -29 -22 -91q0 -54 23 -87t64 -33q44 0 65 28t21 93q0 119 -85 119
q-44 0 -66 -29z" />
    <glyph glyph-name="Gcaron" unicode="&#x1e6;" horiz-adv-x="528" 
d="M390.5 681.5q40.5 -18.5 80.5 -56.5l-50 -51q-32 28 -59.5 40t-64.5 12q-69 0 -112.5 -64t-43.5 -217q0 -107 16.5 -168.5t49 -87.5t82.5 -26q54 0 99 30v214h-94l-10 74h192v-332q-88 -61 -188 -61q-243 0 -243 357q0 117 34 197t91 119t127 39q53 0 93.5 -18.5z
M399 904l35 -38l-112 -112h-56l-112 112l36 38l104 -80z" />
    <glyph glyph-name="gcaron" unicode="&#x1e7;" horiz-adv-x="434" 
d="M432 504q-23 -10 -51.5 -13t-72.5 -3q77 -42 77 -134q0 -81 -45 -129.5t-124 -48.5q-29 0 -53 10q-10 -8 -15.5 -21.5t-5.5 -28.5q0 -22 12 -34.5t43 -12.5h58q49 0 86 -19t56.5 -51.5t19.5 -71.5q0 -72 -53.5 -115.5t-154.5 -43.5q-104 0 -147.5 40.5t-43.5 118.5h78
q0 -49 24 -69.5t90 -20.5q64 0 92 21.5t28 62.5q0 78 -92 78h-37q-72 0 -105 26.5t-33 71.5q0 48 52 90q-77 47 -77 148q0 83 49 133t127 50q70 0 110 11t82 34zM147 446q-22 -29 -22 -91q0 -54 23 -87t64 -33q44 0 65 28t21 93q0 119 -85 119q-44 0 -66 -29zM322 782
l35 -39l-112 -115h-56l-112 115l35 39l105 -88z" />
    <glyph glyph-name="uni01E8" unicode="&#x1e8;" horiz-adv-x="494" 
d="M167 689v-689h-91v689h91zM479 689l-210 -315l225 -374h-103l-220 368l211 321h97zM373 904l35 -38l-112 -112h-56l-112 112l36 38l104 -80z" />
    <glyph glyph-name="uni01E9" unicode="&#x1e9;" horiz-adv-x="428" 
d="M161 749v-749h-88v739zM415 527l-158 -234l174 -293h-98l-167 288l159 239h90zM340 954l35 -38l-112 -112h-56l-112 112l36 38l104 -80z" />
    <glyph glyph-name="uni01EA" unicode="&#x1ea;" horiz-adv-x="575" 
d="M487 113.5q-43 -86.5 -122 -113.5q-57 -30 -78 -57t-21 -60q0 -24 11 -36t36 -12q20 0 48 6l-7 -64q-30 -7 -53 -7q-49 0 -77.5 26.5t-28.5 73.5q0 72 70 119q-104 9 -162 97t-58 257q0 177 65 267t178 90q114 0 178 -88.5t64 -267.5q0 -144 -43 -230.5zM397 127.5
q37 64.5 37 216.5q0 151 -37 216.5t-109 65.5t-109.5 -66t-37.5 -217q0 -150 38 -215t109 -65q72 0 109 64.5z" />
    <glyph glyph-name="uni01EB" unicode="&#x1eb;" horiz-adv-x="485" 
d="M229.5 -58q-20.5 -27 -20.5 -59q0 -24 11 -36t36 -12q20 0 48 6l-7 -64q-30 -7 -53 -7q-49 0 -77.5 26.5t-28.5 73.5q0 73 72 120q-79 13 -122 84t-43 189q0 133 52 204t146 71t145.5 -69.5t51.5 -204.5q0 -103 -35 -172.5t-99 -92.5q-56 -30 -76.5 -57zM164 107
q26 -48 78 -48q53 0 79 48t26 157q0 108 -26 155.5t-78 47.5q-53 0 -79 -47.5t-26 -156.5q0 -108 26 -156z" />
    <glyph glyph-name="uni01EC" unicode="&#x1ec;" horiz-adv-x="575" 
d="M402 859v-64h-228v64h228zM487 113.5q-43 -86.5 -122 -113.5q-57 -30 -78 -57t-21 -60q0 -24 11 -36t36 -12q20 0 48 6l-7 -64q-30 -7 -53 -7q-49 0 -77.5 26.5t-28.5 73.5q0 72 70 119q-104 9 -162 97t-58 257q0 177 65 267t178 90q114 0 178 -88.5t64 -267.5
q0 -144 -43 -230.5zM397 127.5q37 64.5 37 216.5q0 151 -37 216.5t-109 65.5t-109.5 -66t-37.5 -217q0 -150 38 -215t109 -65q72 0 109 64.5z" />
    <glyph glyph-name="uni01ED" unicode="&#x1ed;" horiz-adv-x="485" 
d="M356 733v-64h-228v64h228zM229.5 -58q-20.5 -27 -20.5 -59q0 -24 11 -36t36 -12q20 0 48 6l-7 -64q-30 -7 -53 -7q-49 0 -77.5 26.5t-28.5 73.5q0 73 72 120q-79 13 -122 84t-43 189q0 133 52 204t146 71t145.5 -69.5t51.5 -204.5q0 -103 -35 -172.5t-99 -92.5
q-56 -30 -76.5 -57zM164 107q26 -48 78 -48q53 0 79 48t26 157q0 108 -26 155.5t-78 47.5q-53 0 -79 -47.5t-26 -156.5q0 -108 26 -156z" />
    <glyph glyph-name="uni01EE" unicode="&#x1ee;" horiz-adv-x="421" 
d="M344.5 345q48.5 -49 48.5 -148q0 -95 -55 -152t-151 -57q-62 0 -105.5 22t-76.5 68l55 45q29 -32 56.5 -46t66.5 -14q56 0 86 35t30 101q0 72 -30 101t-93 29h-74v65l175 220h-245v75h339v-74l-173 -219q98 -2 146.5 -51zM306 904l35 -38l-112 -112h-56l-112 112l36 38
l104 -80z" />
    <glyph glyph-name="uni01EF" unicode="&#x1ef;" horiz-adv-x="396" 
d="M325 153.5q49 -50.5 49 -146.5q0 -99 -54.5 -159t-146.5 -60q-59 0 -102 22t-76 67l52 46q30 -33 58 -48t65 -15q53 0 82 38.5t29 110.5q0 70 -29 100.5t-94 30.5h-66v64l169 250h-239v73h331v-68l-174 -254q97 -1 146 -51.5zM292 782l35 -39l-112 -115h-56l-112 115
l35 39l105 -88z" />
    <glyph glyph-name="uni01F0" unicode="&#x1f0;" horiz-adv-x="234" 
d="M161 10q0 -61 -16.5 -101t-47 -66.5t-82.5 -53.5l-28 62q32 19 49.5 36.5t27 46t9.5 75.5v518h88v-517zM222 782l35 -39l-112 -115h-56l-112 115l35 39l105 -88z" />
    <glyph glyph-name="uni01F1" unicode="&#x1f1;" horiz-adv-x="936" 
d="M350.5 662.5q61.5 -26.5 100 -102t38.5 -212.5q0 -195 -76 -271.5t-193 -76.5h-144v689h129q84 0 145.5 -26.5zM167 616v-544h59q50 0 86.5 22t59 82.5t22.5 171.5q0 113 -23.5 171.5t-60 77.5t-88.5 19h-55zM908 689v-74l-282 -537h282l-10 -78h-367v73l282 539h-254v77
h349z" />
    <glyph glyph-name="uni01F2" unicode="&#x1f2;" horiz-adv-x="886" 
d="M350.5 662.5q61.5 -26.5 100 -102t38.5 -212.5q0 -195 -76 -271.5t-193 -76.5h-144v689h129q84 0 145.5 -26.5zM167 616v-544h59q50 0 86.5 22t59 82.5t22.5 171.5q0 113 -23.5 171.5t-60 77.5t-88.5 19h-55zM862 527v-68l-227 -385h229l-9 -74h-313v66l227 386h-208v75
h301z" />
    <glyph glyph-name="uni01F3" unicode="&#x1f3;" horiz-adv-x="853" 
d="M418 739v-739h-78l-6 67q-47 -79 -120 -79q-82 0 -125.5 72.5t-43.5 200.5q0 83 22 146t61 97t89 34q69 0 113 -61v272zM330 133v267q-41 68 -95 68q-46 0 -71.5 -50t-25.5 -155q0 -205 93 -205q57 0 99 75zM829 527v-68l-227 -385h229l-9 -74h-313v66l227 386h-208v75
h301z" />
    <glyph glyph-name="uni01F4" unicode="&#x1f4;" horiz-adv-x="528" 
d="M390.5 681.5q40.5 -18.5 80.5 -56.5l-50 -51q-32 28 -59.5 40t-64.5 12q-69 0 -112.5 -64t-43.5 -217q0 -107 16.5 -168.5t49 -87.5t82.5 -26q54 0 99 30v214h-94l-10 74h192v-332q-88 -61 -188 -61q-243 0 -243 357q0 117 34 197t91 119t127 39q53 0 93.5 -18.5z
M359 908l37 -74l-181 -79l-23 48z" />
    <glyph glyph-name="uni01F5" unicode="&#x1f5;" horiz-adv-x="434" 
d="M432 504q-23 -10 -51.5 -13t-72.5 -3q77 -42 77 -134q0 -81 -45 -129.5t-124 -48.5q-29 0 -53 10q-10 -8 -15.5 -21.5t-5.5 -28.5q0 -22 12 -34.5t43 -12.5h58q49 0 86 -19t56.5 -51.5t19.5 -71.5q0 -72 -53.5 -115.5t-154.5 -43.5q-104 0 -147.5 40.5t-43.5 118.5h78
q0 -49 24 -69.5t90 -20.5q64 0 92 21.5t28 62.5q0 78 -92 78h-37q-72 0 -105 26.5t-33 71.5q0 48 52 90q-77 47 -77 148q0 83 49 133t127 50q70 0 110 11t82 34zM147 446q-22 -29 -22 -91q0 -54 23 -87t64 -33q44 0 65 28t21 93q0 119 -85 119q-44 0 -66 -29zM278 795
l39 -70l-178 -86l-26 44z" />
    <glyph glyph-name="uni01F6" unicode="&#x1f6;" horiz-adv-x="794" 
d="M739 262q0 -143 -55.5 -208.5t-138.5 -65.5q-67 0 -111.5 41.5t-44.5 113.5v181h-222v-324h-91v689h91v-290h222v290h91v-539q0 -91 68 -91q103 0 103 204q0 122 -22 264h87q23 -154 23 -265z" />
    <glyph glyph-name="uni01F7" unicode="&#x1f7;" horiz-adv-x="476" 
d="M410.5 649.5q45.5 -50.5 45.5 -139.5q0 -70 -29 -121t-75.5 -86t-114.5 -67l-70 -33v-203h-91v689h91v-46q57 57 127 57q71 0 116.5 -50.5zM326 392q35 47 35 119q0 57 -22.5 86t-63.5 29q-58 0 -108 -53v-294l60 32q64 34 99 81z" />
    <glyph glyph-name="uni01F8" unicode="&#x1f8;" horiz-adv-x="557" 
d="M481 0h-121l-212 587q6 -70 9.5 -125t3.5 -138v-324h-85v689h121l212 -588q-4 15 -8.5 82t-4.5 125v381h85v-689zM214 908l168 -105l-23 -48l-181 79z" />
    <glyph glyph-name="uni01F9" unicode="&#x1f9;" horiz-adv-x="482" 
d="M379 497q34 -41 34 -110v-387h-88v375q0 51 -14.5 72.5t-43.5 21.5q-57 0 -106 -98v-371h-88v527h76l7 -79q26 44 57 67t75 23q57 0 91 -41zM190 795l165 -112l-26 -44l-178 86z" />
    <glyph glyph-name="Aringacute" unicode="&#x1fa;" horiz-adv-x="487" 
d="M386 0l-41 175h-206l-41 -175h-90l179 689h113l179 -689h-93zM156 248h172l-86 365zM315.5 911q26.5 -28 26.5 -76q0 -49 -26.5 -77t-71.5 -28t-71.5 28t-26.5 77q0 48 26.5 76t71.5 28t71.5 -28zM212 879.5q-11 -13.5 -11 -44.5q0 -32 11 -45.5t32 -13.5q43 0 43 59
q0 31 -11 44.5t-32 13.5t-32 -13.5zM309 1101l37 -74l-181 -79l-23 48z" />
    <glyph glyph-name="aringacute" unicode="&#x1fb;" horiz-adv-x="451" 
d="M318 881l-181 -79l-23 48l167 105zM144.5 765q26.5 28 71.5 28t71.5 -28t26.5 -76q0 -49 -26.5 -77t-71.5 -28t-71.5 28t-26.5 77q0 48 26.5 76zM248 733.5q-11 13.5 -32 13.5t-32 -13.5t-11 -44.5q0 -32 11 -45.5t32 -13.5q43 0 43 59q0 31 -11 44.5zM385 70.5
q8 -13.5 26 -21.5l-19 -61q-37 6 -58.5 23.5t-30.5 52.5q-43 -76 -126 -76q-65 0 -103.5 43.5t-38.5 115.5q0 84 52 128.5t151 44.5h52v48q0 52 -20.5 76t-63.5 24q-51 0 -119 -27l-22 62q81 35 152 35q81 0 120.5 -43.5t39.5 -122.5v-260q0 -28 8 -41.5zM290 138v123h-42
q-63 0 -92.5 -27t-29.5 -83q0 -48 18 -72.5t51 -24.5q62 0 95 84z" />
    <glyph glyph-name="AEacute" unicode="&#x1fc;" horiz-adv-x="674" 
d="M448 73h187v-73h-262l-31 174h-210l-52 -174h-91l224 689h388l-10 -73h-245l43 -230h205v-73h-191zM154 247h176l-65 369zM454 908l37 -74l-181 -79l-23 48z" />
    <glyph glyph-name="aeacute" unicode="&#x1fd;" horiz-adv-x="702" 
d="M660 233h-276q4 -90 34.5 -131.5t79.5 -41.5q30 0 56 10.5t53 33.5l39 -50q-69 -66 -155 -66q-54 0 -95 24.5t-66 71.5q-29 -51 -65.5 -73.5t-83.5 -22.5q-66 0 -106 44t-40 115q0 84 53.5 128.5t152.5 44.5h52v41q0 57 -21 82t-66 25q-48 0 -116 -28l-21 63
q81 35 152 35q50 0 81 -20.5t48 -59.5q50 80 137 80q83 0 129 -66.5t46 -192.5q0 -22 -2 -46zM575 305q0 85 -22 124.5t-68 39.5q-94 0 -101 -171h191v7zM257 77q25 23 48 73q-12 47 -12 107v4h-42q-62 0 -92.5 -27t-30.5 -83q0 -47 18.5 -72t52.5 -25q33 0 58 23zM413 795
l39 -70l-178 -86l-26 44z" />
    <glyph glyph-name="Oslashacute" unicode="&#x1fe;" horiz-adv-x="575" 
d="M498 550q32 -81 32 -206q0 -177 -64 -266.5t-178 -89.5q-24 0 -52 5l-28 -119l-73 19l33 127q-59 37 -91 117.5t-32 205.5q0 177 65 267t178 90q23 0 50 -5l30 123l72 -19l-33 -130q59 -38 91 -119zM177 560q-38 -66 -38 -217q0 -190 62 -249l125 528q-16 4 -38 4
q-73 0 -111 -66zM419 509.5q-15 58.5 -45 86.5l-125 -529q17 -4 39 -4q74 0 110 66t36 224q0 98 -15 156.5zM349 922l37 -74l-181 -79l-23 48z" />
    <glyph glyph-name="oslashacute" unicode="&#x1ff;" horiz-adv-x="485" 
d="M440 264q0 -127 -52.5 -201.5t-145.5 -74.5q-22 0 -39 4l-31 -121l-69 19l37 128q-46 32 -70.5 95t-24.5 150q0 133 52 204t146 71q21 0 39 -3l32 120l68 -20l-36 -126q94 -62 94 -245zM161.5 420.5q-26.5 -47.5 -26.5 -157.5q0 -131 36 -176l98 378q-12 3 -26 3
q-55 0 -81.5 -47.5zM323.5 106q26.5 48 26.5 158q0 68 -9 110.5t-28 64.5l-95 -379q14 -2 24 -2q55 0 81.5 48zM303 795l39 -70l-178 -86l-26 44z" />
    <glyph glyph-name="uni0200" unicode="&#x200;" horiz-adv-x="487" 
d="M386 0l-41 175h-206l-41 -175h-90l179 689h113l179 -689h-93zM156 248h172l-86 365zM140 953l70 -170l-49 -22l-90 155zM267 953l63 -165l-49 -22l-82 150z" />
    <glyph glyph-name="uni0201" unicode="&#x201;" horiz-adv-x="451" 
d="M385 70.5q8 -13.5 26 -21.5l-19 -61q-37 6 -58.5 23.5t-30.5 52.5q-43 -76 -126 -76q-65 0 -103.5 43.5t-38.5 115.5q0 84 52 128.5t151 44.5h52v48q0 52 -20.5 76t-63.5 24q-51 0 -119 -27l-22 62q81 35 152 35q81 0 120.5 -43.5t39.5 -122.5v-260q0 -28 8 -41.5z
M290 138v123h-42q-63 0 -92.5 -27t-29.5 -83q0 -48 18 -72.5t51 -24.5q62 0 95 84zM119 827l70 -170l-49 -22l-90 155zM246 827l63 -165l-49 -22l-82 150z" />
    <glyph glyph-name="uni0202" unicode="&#x202;" horiz-adv-x="487" 
d="M386 0l-41 175h-206l-41 -175h-90l179 689h113l179 -689h-93zM156 248h172l-86 365zM332 886.5q34 -33.5 39 -97.5l-54 -12q-16 77 -74 77q-56 0 -72 -77l-54 12q5 64 38.5 97.5t87.5 33.5q55 0 89 -33.5z" />
    <glyph glyph-name="uni0203" unicode="&#x203;" horiz-adv-x="451" 
d="M385 70.5q8 -13.5 26 -21.5l-19 -61q-37 6 -58.5 23.5t-30.5 52.5q-43 -76 -126 -76q-65 0 -103.5 43.5t-38.5 115.5q0 84 52 128.5t151 44.5h52v48q0 52 -20.5 76t-63.5 24q-51 0 -119 -27l-22 62q81 35 152 35q81 0 120.5 -43.5t39.5 -122.5v-260q0 -28 8 -41.5z
M290 138v123h-42q-63 0 -92.5 -27t-29.5 -83q0 -48 18 -72.5t51 -24.5q62 0 95 84zM304 724.5q34 -33.5 39 -97.5l-54 -12q-16 77 -74 77q-56 0 -72 -77l-54 12q5 64 38.5 97.5t87.5 33.5q55 0 89 -33.5z" />
    <glyph glyph-name="uni0204" unicode="&#x204;" horiz-adv-x="435" 
d="M392 689l-10 -73h-215v-229h187v-73h-187v-241h229v-73h-320v689h316zM132 953l70 -170l-49 -22l-90 155zM259 953l63 -165l-49 -22l-82 150z" />
    <glyph glyph-name="uni0205" unicode="&#x205;" horiz-adv-x="454" 
d="M412 233h-276q4 -95 31.5 -134t78.5 -39q33 0 59 10.5t54 33.5l39 -53q-66 -63 -155 -63q-94 0 -146 69.5t-52 200.5t49.5 205.5t139.5 74.5q87 0 133.5 -65.5t46.5 -193.5q0 -22 -2 -46zM329 305q0 86 -23 125t-72 39q-44 0 -69 -39.5t-29 -131.5h193v7zM136 827
l70 -170l-49 -22l-90 155zM263 827l63 -165l-49 -22l-82 150z" />
    <glyph glyph-name="uni0206" unicode="&#x206;" horiz-adv-x="435" 
d="M392 689l-10 -73h-215v-229h187v-73h-187v-241h229v-73h-320v689h316zM324 886.5q34 -33.5 39 -97.5l-54 -12q-16 77 -74 77q-56 0 -72 -77l-54 12q5 64 38.5 97.5t87.5 33.5q55 0 89 -33.5z" />
    <glyph glyph-name="uni0207" unicode="&#x207;" horiz-adv-x="454" 
d="M412 233h-276q4 -95 31.5 -134t78.5 -39q33 0 59 10.5t54 33.5l39 -53q-66 -63 -155 -63q-94 0 -146 69.5t-52 200.5t49.5 205.5t139.5 74.5q87 0 133.5 -65.5t46.5 -193.5q0 -22 -2 -46zM329 305q0 86 -23 125t-72 39q-44 0 -69 -39.5t-29 -131.5h193v7zM321 724.5
q34 -33.5 39 -97.5l-54 -12q-16 77 -74 77q-56 0 -72 -77l-54 12q5 64 38.5 97.5t87.5 33.5q55 0 89 -33.5z" />
    <glyph glyph-name="uni0208" unicode="&#x208;" horiz-adv-x="243" 
d="M167 689v-689h-91v689h91zM17 953l70 -170l-49 -22l-90 155zM144 953l63 -165l-49 -22l-82 150z" />
    <glyph glyph-name="uni0209" unicode="&#x209;" horiz-adv-x="234" 
d="M161 527v-527h-88v527h88zM20 827l70 -170l-49 -22l-90 155zM147 827l63 -165l-49 -22l-82 150z" />
    <glyph glyph-name="uni020A" unicode="&#x20a;" horiz-adv-x="243" 
d="M167 689v-689h-91v689h91zM209 886.5q34 -33.5 39 -97.5l-54 -12q-16 77 -74 77q-56 0 -72 -77l-54 12q5 64 38.5 97.5t87.5 33.5q55 0 89 -33.5z" />
    <glyph glyph-name="uni020B" unicode="&#x20b;" horiz-adv-x="234" 
d="M161 527v-527h-88v527h88zM205 724.5q34 -33.5 39 -97.5l-54 -12q-16 77 -74 77q-56 0 -72 -77l-54 12q5 64 38.5 97.5t87.5 33.5q55 0 89 -33.5z" />
    <glyph glyph-name="uni020C" unicode="&#x20c;" horiz-adv-x="575" 
d="M466 611.5q64 -88.5 64 -267.5q0 -177 -64 -266.5t-178 -89.5t-178.5 88t-64.5 267q0 177 65 267t178 90q114 0 178 -88.5zM178.5 560q-37.5 -66 -37.5 -217q0 -150 38 -215t109 -65q72 0 109 64.5t37 216.5q0 151 -37 216.5t-109 65.5t-109.5 -66zM184 953l70 -170
l-49 -22l-90 155zM311 953l63 -165l-49 -22l-82 150z" />
    <glyph glyph-name="uni020D" unicode="&#x20d;" horiz-adv-x="485" 
d="M388.5 468.5q51.5 -69.5 51.5 -204.5q0 -127 -52.5 -201.5t-145.5 -74.5t-145 73t-52 202q0 133 52 204t146 71t145.5 -69.5zM164 419.5q-26 -47.5 -26 -156.5q0 -108 26 -156t78 -48q53 0 79 48t26 157q0 108 -26 155.5t-78 47.5q-53 0 -79 -47.5zM145 827l70 -170
l-49 -22l-90 155zM272 827l63 -165l-49 -22l-82 150z" />
    <glyph glyph-name="uni020E" unicode="&#x20e;" horiz-adv-x="575" 
d="M466 611.5q64 -88.5 64 -267.5q0 -177 -64 -266.5t-178 -89.5t-178.5 88t-64.5 267q0 177 65 267t178 90q114 0 178 -88.5zM178.5 560q-37.5 -66 -37.5 -217q0 -150 38 -215t109 -65q72 0 109 64.5t37 216.5q0 151 -37 216.5t-109 65.5t-109.5 -66zM376 886.5
q34 -33.5 39 -97.5l-54 -12q-16 77 -74 77q-56 0 -72 -77l-54 12q5 64 38.5 97.5t87.5 33.5q55 0 89 -33.5z" />
    <glyph glyph-name="uni020F" unicode="&#x20f;" horiz-adv-x="485" 
d="M388.5 468.5q51.5 -69.5 51.5 -204.5q0 -127 -52.5 -201.5t-145.5 -74.5t-145 73t-52 202q0 133 52 204t146 71t145.5 -69.5zM164 419.5q-26 -47.5 -26 -156.5q0 -108 26 -156t78 -48q53 0 79 48t26 157q0 108 -26 155.5t-78 47.5q-53 0 -79 -47.5zM330 724.5
q34 -33.5 39 -97.5l-54 -12q-16 77 -74 77q-56 0 -72 -77l-54 12q5 64 38.5 97.5t87.5 33.5q55 0 89 -33.5z" />
    <glyph glyph-name="uni0210" unicode="&#x210;" horiz-adv-x="502" 
d="M384 0l-134 295q-7 -1 -21 -1h-62v-294h-91v689h138q121 0 180 -50t59 -144q0 -66 -31 -113.5t-89 -69.5l151 -312h-100zM325 395.5q32 31.5 32 99.5q0 63 -33 92.5t-111 29.5h-46v-253h54q72 0 104 31.5zM144 953l70 -170l-49 -22l-90 155zM271 953l63 -165l-49 -22
l-82 150z" />
    <glyph glyph-name="uni0211" unicode="&#x211;" horiz-adv-x="323" 
d="M315 532l-15 -85q-20 5 -36 5q-39 0 -64 -35t-39 -107v-310h-88v527h76l7 -98q37 109 119 109q22 0 40 -6zM99 827l70 -170l-49 -22l-90 155zM226 827l63 -165l-49 -22l-82 150z" />
    <glyph glyph-name="uni0212" unicode="&#x212;" horiz-adv-x="502" 
d="M384 0l-134 295q-7 -1 -21 -1h-62v-294h-91v689h138q121 0 180 -50t59 -144q0 -66 -31 -113.5t-89 -69.5l151 -312h-100zM325 395.5q32 31.5 32 99.5q0 63 -33 92.5t-111 29.5h-46v-253h54q72 0 104 31.5zM336 886.5q34 -33.5 39 -97.5l-54 -12q-16 77 -74 77
q-56 0 -72 -77l-54 12q5 64 38.5 97.5t87.5 33.5q55 0 89 -33.5z" />
    <glyph glyph-name="uni0213" unicode="&#x213;" horiz-adv-x="323" 
d="M315 532l-15 -85q-20 5 -36 5q-39 0 -64 -35t-39 -107v-310h-88v527h76l7 -98q37 109 119 109q22 0 40 -6zM284 724.5q34 -33.5 39 -97.5l-54 -12q-16 77 -74 77q-56 0 -72 -77l-54 12q5 64 38.5 97.5t87.5 33.5q55 0 89 -33.5z" />
    <glyph glyph-name="uni0214" unicode="&#x214;" horiz-adv-x="538" 
d="M472 185q0 -55 -23.5 -100t-69.5 -71t-110 -26q-97 0 -150 55.5t-53 141.5v504h91v-497q0 -127 112 -127t112 127v497h91v-504zM165 953l70 -170l-49 -22l-90 155zM292 953l63 -165l-49 -22l-82 150z" />
    <glyph glyph-name="uni0215" unicode="&#x215;" horiz-adv-x="479" 
d="M406 0h-76l-6 74q-25 -43 -56.5 -64.5t-73.5 -21.5q-57 0 -91 39t-34 102v398h88v-389q0 -81 57 -81q33 0 58 23.5t46 65.5v381h88v-527zM141 827l70 -170l-49 -22l-90 155zM268 827l63 -165l-49 -22l-82 150z" />
    <glyph glyph-name="uni0216" unicode="&#x216;" horiz-adv-x="538" 
d="M472 185q0 -55 -23.5 -100t-69.5 -71t-110 -26q-97 0 -150 55.5t-53 141.5v504h91v-497q0 -127 112 -127t112 127v497h91v-504zM357 886.5q34 -33.5 39 -97.5l-54 -12q-16 77 -74 77q-56 0 -72 -77l-54 12q5 64 38.5 97.5t87.5 33.5q55 0 89 -33.5z" />
    <glyph glyph-name="uni0217" unicode="&#x217;" horiz-adv-x="479" 
d="M406 0h-76l-6 74q-25 -43 -56.5 -64.5t-73.5 -21.5q-57 0 -91 39t-34 102v398h88v-389q0 -81 57 -81q33 0 58 23.5t46 65.5v381h88v-527zM326 724.5q34 -33.5 39 -97.5l-54 -12q-16 77 -74 77q-56 0 -72 -77l-54 12q5 64 38.5 97.5t87.5 33.5q55 0 89 -33.5z" />
    <glyph glyph-name="Scommaaccent" unicode="&#x218;" horiz-adv-x="450" 
d="M323.5 680.5q42.5 -19.5 78.5 -59.5l-48 -52q-31 30 -61 43.5t-66 13.5q-43 0 -69.5 -27.5t-26.5 -72.5q0 -44 25.5 -72t96.5 -55q82 -31 124 -77t42 -131q0 -55 -25.5 -101.5t-72.5 -74t-109 -27.5t-110 23t-87 66l49 52q35 -32 69.5 -49t76.5 -17q52 0 83 34t31 92
q0 50 -25 80t-93 55q-87 33 -127.5 80t-40.5 118q0 49 24 90t67 64.5t97 23.5q55 0 97.5 -19.5zM256.5 -93.5q14.5 -15.5 14.5 -38.5q0 -13 -4.5 -28.5t-16.5 -47.5l-35 -86h-48l28 116q-27 16 -27 46q0 23 14.5 38.5t37.5 15.5q22 0 36.5 -15.5z" />
    <glyph glyph-name="scommaaccent" unicode="&#x219;" horiz-adv-x="393" 
d="M350 479l-38 -51q-28 21 -54 31.5t-55 10.5q-35 0 -55.5 -19.5t-20.5 -53.5q0 -33 20 -52t76 -39q72 -26 106 -62t34 -98q0 -75 -50.5 -116.5t-125.5 -41.5q-100 0 -167 69l46 49q56 -49 119 -49q40 0 64 22t24 62q0 27 -9 44t-31 31t-64 29q-70 26 -100 61.5t-30 87.5
q0 40 20.5 73t57.5 52t84 19q87 0 149 -59zM235.5 -93.5q14.5 -15.5 14.5 -38.5q0 -13 -4.5 -28.5t-16.5 -47.5l-35 -86h-48l28 116q-27 16 -27 46q0 23 14.5 38.5t37.5 15.5q22 0 36.5 -15.5z" />
    <glyph glyph-name="uni021A" unicode="&#x21a;" horiz-adv-x="428" 
d="M422 689l-10 -76h-153v-613h-91v613h-157v76h411zM251.5 -93.5q14.5 -15.5 14.5 -38.5q0 -13 -4.5 -28.5t-16.5 -47.5l-35 -86h-48l28 116q-27 16 -27 46q0 23 14.5 38.5t37.5 15.5q22 0 36.5 -15.5z" />
    <glyph glyph-name="uni021B" unicode="&#x21b;" horiz-adv-x="306" 
d="M306 24q-45 -36 -101 -36q-59 0 -91.5 35t-32.5 94v341h-71v69h71v119l88 11v-130h102l-9 -69h-93v-342q0 -55 47 -55q16 0 28 4t28 14zM232.5 -93.5q14.5 -15.5 14.5 -38.5q0 -13 -4.5 -28.5t-16.5 -47.5l-35 -86h-48l28 116q-27 16 -27 46q0 23 14.5 38.5t37.5 15.5
q22 0 36.5 -15.5z" />
    <glyph glyph-name="uni021C" unicode="&#x21c;" horiz-adv-x="416" 
d="M317 649q48 -51 48 -130q0 -132 -123 -160q66 -7 103.5 -47t37.5 -115q0 -107 -79.5 -184t-248.5 -114l-8 76q93 25 145.5 57t73.5 72t21 93q0 120 -120 120h-55l11 75h45q48 0 75.5 31.5t27.5 88.5q0 52 -22.5 83t-69.5 31q-32 0 -63 -15.5t-64 -45.5l-46 51
q79 84 179 84q84 0 132 -51z" />
    <glyph glyph-name="uni021D" unicode="&#x21d;" horiz-adv-x="395" 
d="M282 500q46 -38 46 -107q0 -49 -24.5 -78t-75.5 -43q60 -2 91 -32t31 -82q0 -87 -77 -154t-220 -105l-11 64q113 41 164 85.5t51 106.5q0 41 -19.5 58t-55.5 17h-80l6 69h48q36 0 59 22t23 67q0 81 -79 81q-31 0 -54 -9.5t-52 -29.5l-43 49q34 30 71.5 44.5t84.5 14.5
q70 0 116 -38z" />
    <glyph glyph-name="uni021E" unicode="&#x21e;" horiz-adv-x="556" 
d="M389 0v324h-222v-324h-91v689h91v-290h222v290h91v-689h-91zM383 904l35 -38l-112 -112h-56l-112 112l36 38l104 -80z" />
    <glyph glyph-name="uni021F" unicode="&#x21f;" horiz-adv-x="482" 
d="M379 497q34 -41 34 -110v-387h-88v375q0 51 -14.5 72.5t-43.5 21.5q-57 0 -106 -98v-371h-88v738l88 9v-294q25 42 54.5 63.5t72.5 21.5q57 0 91 -41zM346 954l35 -38l-112 -112h-56l-112 112l36 38l104 -80z" />
    <glyph glyph-name="uni0220" unicode="&#x220;" horiz-adv-x="548" 
d="M439 651.5q39 -48.5 39 -129.5v-724h-91v706q0 63 -19.5 92.5t-62.5 29.5q-41 0 -71.5 -21.5t-66.5 -64.5v-540h-91v689h79l7 -76q70 87 162 87q76 0 115 -48.5z" />
    <glyph glyph-name="uni0221" unicode="&#x221;" horiz-adv-x="611" 
d="M600 191q26 -26 26 -71q0 -65 -39 -98.5t-104 -33.5q-25 0 -51 6l-26 -68l-51 20l28 71q-30 22 -44 60q-22 -42 -53.5 -65.5t-71.5 -23.5q-82 0 -125.5 72.5t-43.5 200.5q0 83 22 146t61 97t89 34q69 0 113 -61v272l88 -10v-610q0 -11 2 -25q20 58 46 85.5t67 27.5
t67 -26zM330 133v5v262q-41 68 -95 68q-46 0 -71.5 -50t-25.5 -155q0 -205 93 -205q56 0 99 75zM538.5 76.5q16.5 15.5 16.5 43.5q0 17 -7.5 27t-21.5 10q-19 0 -32.5 -20t-32.5 -74q16 -2 28 -2q33 0 49.5 15.5z" />
    <glyph glyph-name="uni0222" unicode="&#x222;" horiz-adv-x="541" 
d="M466 318.5q30 -45.5 30 -110.5q0 -58 -27 -108.5t-78 -81t-120 -30.5t-120.5 30t-78.5 80t-27 109q0 62 30.5 109t86.5 69q-81 41 -81 132v172h91v-168q0 -102 99 -102q52 0 75.5 30t23.5 72v168h92v-172q0 -43 -21 -76.5t-61 -53.5q56 -23 86 -68.5zM368.5 98.5
q31.5 35.5 31.5 109.5q0 66 -32 101.5t-97 35.5t-97.5 -36t-32.5 -102q0 -144 130 -144q66 0 97.5 35.5z" />
    <glyph glyph-name="uni0223" unicode="&#x223;" horiz-adv-x="480" 
d="M408 334.5q27 -49.5 27 -125.5q0 -100 -51.5 -160.5t-143.5 -60.5q-91 0 -143 59.5t-52 160.5q0 73 27.5 123.5t78.5 73.5q-75 41 -75 133v201h88v-206q0 -97 77 -97t77 97v206h87v-201q0 -45 -19.5 -78.5t-55.5 -53.5q51 -22 78 -71.5zM317.5 94q24.5 35 24.5 115
q0 84 -24.5 121.5t-77.5 37.5q-52 0 -77 -38t-25 -122q0 -79 25.5 -114t76.5 -35q53 0 77.5 35z" />
    <glyph glyph-name="uni0224" unicode="&#x224;" horiz-adv-x="427" 
d="M399 615l-282 -537h277v-157q0 -64 -37 -98.5t-94 -34.5q-58 0 -101 37l38 55q16 -10 29 -14.5t31 -4.5q45 0 45 58v81h-283v73l282 539h-254v77h349v-74z" />
    <glyph glyph-name="uni0225" unicode="&#x225;" horiz-adv-x="360" 
d="M338 459l-227 -385h225v-157q0 -61 -36.5 -95t-93.5 -34q-59 0 -102 37l37 54q17 -11 29.5 -15.5t30.5 -4.5q50 0 50 58v83h-233v66l227 386h-208v75h301v-68z" />
    <glyph glyph-name="uni0226" unicode="&#x226;" horiz-adv-x="487" 
d="M386 0l-41 175h-206l-41 -175h-90l179 689h113l179 -689h-93zM156 248h172l-86 365zM286 886q16 -17 16 -44q0 -25 -16.5 -42t-42.5 -17t-42.5 17t-16.5 42q0 26 16.5 43.5t42.5 17.5q27 0 43 -17z" />
    <glyph glyph-name="uni0227" unicode="&#x227;" horiz-adv-x="451" 
d="M385 70.5q8 -13.5 26 -21.5l-19 -61q-37 6 -58.5 23.5t-30.5 52.5q-43 -76 -126 -76q-65 0 -103.5 43.5t-38.5 115.5q0 84 52 128.5t151 44.5h52v48q0 52 -20.5 76t-63.5 24q-51 0 -119 -27l-22 62q81 35 152 35q81 0 120.5 -43.5t39.5 -122.5v-260q0 -28 8 -41.5z
M290 138v123h-42q-63 0 -92.5 -27t-29.5 -83q0 -48 18 -72.5t51 -24.5q62 0 95 84zM258 760q16 -17 16 -44q0 -25 -16.5 -42t-42.5 -17t-42.5 17t-16.5 42q0 26 16.5 43.5t42.5 17.5q27 0 43 -17z" />
    <glyph glyph-name="uni0228" unicode="&#x228;" horiz-adv-x="435" 
d="M262 0v-60q78 -12 78 -84q0 -45 -29 -70t-76 -25q-46 0 -79 23l25 46q26 -12 49 -12q18 0 29.5 9.5t11.5 28.5q0 23 -17.5 34t-56.5 11l10 99h-131v689h316l-10 -73h-215v-229h187v-73h-187v-241h229v-73h-134z" />
    <glyph glyph-name="uni0229" unicode="&#x229;" horiz-adv-x="454" 
d="M412 233h-276q4 -95 31.5 -134t78.5 -39q33 0 59 10.5t54 33.5l39 -53q-55 -53 -130 -62v-49q78 -12 78 -84q0 -45 -29 -70t-76 -25q-46 0 -79 23l25 46q26 -12 49 -12q18 0 29.5 9.5t11.5 28.5q0 23 -17.5 34t-56.5 11l9 89q-79 11 -123 79.5t-44 188.5
q0 131 49.5 205.5t139.5 74.5q87 0 133.5 -65.5t46.5 -193.5q0 -22 -2 -46zM329 305q0 86 -23 125t-72 39q-44 0 -69 -39.5t-29 -131.5h193v7z" />
    <glyph glyph-name="uni022A" unicode="&#x22a;" horiz-adv-x="575" 
d="M466 611.5q64 -88.5 64 -267.5q0 -177 -64 -266.5t-178 -89.5t-178.5 88t-64.5 267q0 177 65 267t178 90q114 0 178 -88.5zM178.5 560q-37.5 -66 -37.5 -217q0 -150 38 -215t109 -65q72 0 109 64.5t37 216.5q0 151 -37 216.5t-109 65.5t-109.5 -66zM239 840
q15 -16 15 -39t-15 -39t-38 -16t-38 16t-15 39t15 39t38 16t38 -16zM414 840q15 -16 15 -39t-15 -39t-38 -16q-22 0 -37.5 16t-15.5 39t15.5 39t37.5 16q23 0 38 -16zM403 905h-228v64h228v-64z" />
    <glyph glyph-name="uni022B" unicode="&#x22b;" horiz-adv-x="485" 
d="M388.5 468.5q51.5 -69.5 51.5 -204.5q0 -127 -52.5 -201.5t-145.5 -74.5t-145 73t-52 202q0 133 52 204t146 71t145.5 -69.5zM164 419.5q-26 -47.5 -26 -156.5q0 -108 26 -156t78 -48q53 0 79 48t26 157q0 108 -26 155.5t-78 47.5q-53 0 -79 -47.5zM193 719
q15 -16 15 -39t-15 -39t-38 -16t-38 16t-15 39t15 39t38 16t38 -16zM368 719q15 -16 15 -39t-15 -39t-38 -16q-22 0 -37.5 16t-15.5 39t15.5 39t37.5 16q23 0 38 -16zM357 793h-228v64h228v-64z" />
    <glyph glyph-name="uni022C" unicode="&#x22c;" horiz-adv-x="575" 
d="M466 611.5q64 -88.5 64 -267.5q0 -177 -64 -266.5t-178 -89.5t-178.5 88t-64.5 267q0 177 65 267t178 90q114 0 178 -88.5zM178.5 560q-37.5 -66 -37.5 -217q0 -150 38 -215t109 -65q72 0 109 64.5t37 216.5q0 151 -37 216.5t-109 65.5t-109.5 -66zM310.5 768.5
q-12.5 6.5 -31.5 19.5q-9 7 -19 12.5t-19 5.5q-13 0 -23 -10.5t-22 -34.5l-48 23q15 40 38 62.5t52 22.5q17 0 30 -6.5t29 -18.5q25 -19 39 -19q12 0 22 10t22 33l49 -22q-29 -84 -90 -84q-16 0 -28.5 6.5zM396 913h-228v64h228v-64z" />
    <glyph glyph-name="uni022D" unicode="&#x22d;" horiz-adv-x="485" 
d="M388.5 468.5q51.5 -69.5 51.5 -204.5q0 -127 -52.5 -201.5t-145.5 -74.5t-145 73t-52 202q0 133 52 204t146 71t145.5 -69.5zM164 419.5q-26 -47.5 -26 -156.5q0 -108 26 -156t78 -48q53 0 79 48t26 157q0 108 -26 155.5t-78 47.5q-53 0 -79 -47.5zM264.5 606.5
q-12.5 6.5 -31.5 19.5q-9 7 -19 12.5t-19 5.5q-13 0 -23 -10.5t-22 -34.5l-48 23q15 40 38 62.5t52 22.5q17 0 30 -6.5t29 -18.5q25 -19 39 -19q12 0 22 10t22 33l49 -22q-29 -84 -90 -84q-16 0 -28.5 6.5zM357 751h-228v64h228v-64z" />
    <glyph glyph-name="uni022E" unicode="&#x22e;" horiz-adv-x="575" 
d="M466 611.5q64 -88.5 64 -267.5q0 -177 -64 -266.5t-178 -89.5t-178.5 88t-64.5 267q0 177 65 267t178 90q114 0 178 -88.5zM178.5 560q-37.5 -66 -37.5 -217q0 -150 38 -215t109 -65q72 0 109 64.5t37 216.5q0 151 -37 216.5t-109 65.5t-109.5 -66zM330 886
q16 -17 16 -44q0 -25 -16.5 -42t-42.5 -17t-42.5 17t-16.5 42q0 26 16.5 43.5t42.5 17.5q27 0 43 -17z" />
    <glyph glyph-name="uni022F" unicode="&#x22f;" horiz-adv-x="485" 
d="M388.5 468.5q51.5 -69.5 51.5 -204.5q0 -127 -52.5 -201.5t-145.5 -74.5t-145 73t-52 202q0 133 52 204t146 71t145.5 -69.5zM164 419.5q-26 -47.5 -26 -156.5q0 -108 26 -156t78 -48q53 0 79 48t26 157q0 108 -26 155.5t-78 47.5q-53 0 -79 -47.5zM284 760
q16 -17 16 -44q0 -25 -16.5 -42t-42.5 -17t-42.5 17t-16.5 42q0 26 16.5 43.5t42.5 17.5q27 0 43 -17z" />
    <glyph glyph-name="uni0230" unicode="&#x230;" horiz-adv-x="575" 
d="M466 611.5q64 -88.5 64 -267.5q0 -177 -64 -266.5t-178 -89.5t-178.5 88t-64.5 267q0 177 65 267t178 90q114 0 178 -88.5zM178.5 560q-37.5 -66 -37.5 -217q0 -150 38 -215t109 -65q72 0 109 64.5t37 216.5q0 151 -37 216.5t-109 65.5t-109.5 -66zM331 845
q16 -17 16 -44q0 -25 -16.5 -42t-42.5 -17t-42.5 17t-16.5 42q0 26 16.5 43.5t42.5 17.5q27 0 43 -17zM402 906h-228v64h228v-64z" />
    <glyph glyph-name="uni0231" unicode="&#x231;" horiz-adv-x="485" 
d="M388.5 468.5q51.5 -69.5 51.5 -204.5q0 -127 -52.5 -201.5t-145.5 -74.5t-145 73t-52 202q0 133 52 204t146 71t145.5 -69.5zM164 419.5q-26 -47.5 -26 -156.5q0 -108 26 -156t78 -48q53 0 79 48t26 157q0 108 -26 155.5t-78 47.5q-53 0 -79 -47.5zM285 710
q16 -17 16 -44q0 -25 -16.5 -42t-42.5 -17t-42.5 17t-16.5 42q0 26 16.5 43.5t42.5 17.5q27 0 43 -17zM356 770h-228v64h228v-64z" />
    <glyph glyph-name="uni0232" unicode="&#x232;" horiz-adv-x="459" 
d="M457 689l-182 -424v-265h-91v264l-182 425h97l133 -344l132 344h93zM343 795h-228v64h228v-64z" />
    <glyph glyph-name="uni0233" unicode="&#x233;" horiz-adv-x="418" 
d="M264 -3q-25 -91 -74 -144t-136 -65l-10 67q63 14 92 46t49 99h-33l-142 527h90l110 -463l109 463h89zM323 669h-228v64h228v-64z" />
    <glyph glyph-name="uni0234" unicode="&#x234;" horiz-adv-x="349" 
d="M338 191q26 -26 26 -71q0 -65 -39 -98.5t-104 -33.5q-25 0 -51 6l-26 -68l-51 20l28 71q-53 39 -53 121v601l88 10v-620q0 -11 2 -25q20 58 46 85.5t67 27.5t67 -26zM276.5 76.5q16.5 15.5 16.5 43.5q0 17 -7.5 27t-21.5 10q-19 0 -32.5 -20t-32.5 -74q16 -2 28 -2
q33 0 49.5 15.5z" />
    <glyph glyph-name="uni0235" unicode="&#x235;" horiz-adv-x="606" 
d="M595 191q26 -26 26 -71q0 -65 -39 -98.5t-104 -33.5q-25 0 -51 6l-26 -68l-51 20l28 71q-53 39 -53 121v237q0 51 -14.5 72.5t-43.5 21.5q-57 0 -106 -98v-371h-88v527h76l7 -79q26 44 57 67t75 23q57 0 91 -41t34 -110v-258q0 -11 2 -25q20 58 46 85.5t67 27.5t67 -26z
M533.5 76.5q16.5 15.5 16.5 43.5q0 17 -7.5 27t-21.5 10q-19 0 -32.5 -20t-32.5 -74q16 -2 28 -2q33 0 49.5 15.5z" />
    <glyph glyph-name="uni0236" unicode="&#x236;" horiz-adv-x="362" 
d="M351 191q26 -26 26 -71q0 -65 -39 -98.5t-104 -33.5q-25 0 -51 6l-26 -68l-51 20l28 71q-53 39 -53 121v320h-71v69h71v119l88 11v-130h102l-9 -69h-93v-339q0 -12 1 -17l1 2q20 58 46 85.5t67 27.5t67 -26zM289.5 76q16.5 16 16.5 44q0 17 -7.5 27t-21.5 10
q-19 0 -32.5 -20t-32.5 -75q16 -2 28 -2q33 0 49.5 16z" />
    <glyph glyph-name="uni0237" unicode="&#x237;" horiz-adv-x="234" 
d="M161 10q0 -61 -16.5 -101t-47 -66.5t-82.5 -53.5l-28 62q32 19 49.5 36.5t27 46t9.5 75.5v518h88v-517z" />
    <glyph glyph-name="uni0238" unicode="&#x238;" horiz-adv-x="712" 
d="M627.5 470.5q39.5 -67.5 39.5 -206.5q0 -88 -21 -150t-57.5 -94t-84.5 -32q-34 0 -60.5 20.5t-44.5 51.5l-8 -60h-67l-7 65q-20 -35 -49 -56t-64 -21q-73 0 -116 71t-43 202q0 130 44 203.5t118 73.5q65 0 107 -65v266l88 10v-278q23 33 50 50t65 17q71 0 110.5 -67.5z
M270.5 76.5q22.5 18.5 43.5 53.5v270q-40 68 -87 68q-89 0 -89 -205t82 -205q28 0 50.5 18.5zM574 264q0 116 -21.5 160t-61.5 44q-29 0 -50 -19t-39 -50v-266q21 -38 39 -56.5t46 -18.5q87 0 87 206z" />
    <glyph glyph-name="uni0239" unicode="&#x239;" horiz-adv-x="712" 
d="M667 264q0 -131 -44 -203.5t-120 -72.5q-59 0 -101 62v-251l-88 -11v263q-40 -63 -110 -63q-75 0 -117 70.5t-42 202.5q0 87 21 149t59 95t89 33q66 0 107 -72l5 61h64l5 -65q49 76 119 76q153 0 153 -274zM273 74.5q22 16.5 41 53.5v269q-18 36 -39 53.5t-48 17.5
q-89 0 -89 -205q0 -110 22.5 -157.5t62.5 -47.5q28 0 50 16.5zM550.5 107q23.5 47 23.5 157t-20.5 157t-60.5 47q-46 0 -91 -69v-273q28 -66 81 -66q44 0 67.5 47z" />
    <glyph glyph-name="uni023A" unicode="&#x23a;" horiz-adv-x="487" 
d="M387 0l-41 175h-100l-54 -245l-41 9l52 236h-65l-41 -175h-89l179 689h113l9 -33l20 93l41 -9l-38 -174l147 -566h-92zM154 246h64l55 246l-31 131zM261 246h69l-35 151z" />
    <glyph glyph-name="uni023B" unicode="&#x23b;" horiz-adv-x="466" 
d="M452 64q-30 -33 -71 -54.5t-92 -21.5q-38 0 -69 10l-15 -68l-41 9l17 76q-64 36 -100 118.5t-36 211.5q0 119 31.5 198.5t86 118t123.5 38.5q27 0 44 -4l12 53l41 -9l-12 -56q35 -14 75 -51l-47 -55q-24 21 -45 32l-117 -534q23 -11 54 -11q34 0 59.5 13.5t52.5 38.5z
M200 104l114 520q-16 2 -26 2q-147 0 -147 -281q0 -175 59 -241z" />
    <glyph glyph-name="uni023C" unicode="&#x23c;" horiz-adv-x="391" 
d="M289.5 71q20.5 9 45.5 28l41 -53q-60 -58 -133 -58q-29 0 -53 6l-15 -64l-39 9l16 70q-52 27 -79.5 89.5t-27.5 160.5q0 132 53 205.5t144 73.5q10 0 30 -2l13 59l39 -9l-14 -60q36 -14 66 -44l-40 -52q-24 19 -41 26l-88 -387q15 -7 37 -7q25 0 45.5 9zM172 98l84 369
h-11q-106 0 -106 -206q0 -114 33 -163z" />
    <glyph glyph-name="uni023D" unicode="&#x23d;" horiz-adv-x="414" 
d="M175 80h229l-10 -80h-310v326h-74v74h74v289h91v-289h74v-74h-74v-246z" />
    <glyph glyph-name="uni023E" unicode="&#x23e;" horiz-adv-x="428" 
d="M412 611h-76l-80 -242v-369h-85v112l-60 -182l-39 13l99 300v368h-160v78h307l22 66l39 -13l-17 -53h60zM256 500l36 111h-36v-111z" />
    <glyph glyph-name="uni023F" unicode="&#x23f;" horiz-adv-x="393" 
d="M311.5 -137.5q8.5 2.5 20.5 9.5l29 -54q-34 -30 -80 -30q-30 0 -52 14t-37.5 35t-40.5 62q-30 52 -59 89.5t-72 68.5l40 49q34 -24 63.5 -36.5t61.5 -12.5q40 0 64 22t24 62q0 27 -9 44t-31 31t-64 29q-69 25 -99.5 60.5t-30.5 88.5q0 40 20.5 73t57.5 52t84 19
q87 0 149 -59l-38 -51q-28 21 -54 31.5t-55 10.5q-35 0 -55.5 -19.5t-20.5 -53.5q0 -33 20 -52t76 -39q72 -26 106 -62t34 -98q0 -50 -23 -85.5t-59 -54t-75 -18.5q-20 0 -37 4q18 -17 30.5 -35t27.5 -42q18 -30 30 -42.5t30 -12.5q16 0 24.5 2.5z" />
    <glyph glyph-name="uni0240" unicode="&#x240;" horiz-adv-x="362" 
d="M230.5 -189q-25.5 23 -55.5 70q-24 36 -41.5 57.5t-46.5 39t-69 22.5v66l228 386h-209v75h301v-68l-239 -410q45 -14 72 -42.5t57 -75.5q23 -37 39.5 -54t40.5 -17q14 0 23 2.5t24 9.5l24 -57q-33 -27 -79 -27q-44 0 -69.5 23z" />
    <glyph glyph-name="uni0241" unicode="&#x241;" horiz-adv-x="387" 
d="M121 318l55 18q51 17 76 51t25 100q0 64 -26 101.5t-73 37.5q-34 0 -64 -15t-62 -45l-47 50q40 42 82.5 63t94.5 21q87 0 138.5 -57.5t51.5 -150.5q0 -95 -36.5 -140t-103.5 -68l-20 -7v-277h-91v318z" />
    <glyph glyph-name="uni0242" unicode="&#x242;" horiz-adv-x="363" 
d="M95 196l54 18q44 15 67.5 46.5t23.5 84.5q0 58 -23 88.5t-65 30.5q-32 0 -55 -12t-50 -37l-47 49q34 37 71 55.5t86 18.5q80 0 128 -52.5t48 -138.5q0 -80 -34 -120.5t-93 -63.5l-23 -9v-154h-88v196z" />
    <glyph glyph-name="uni0243" unicode="&#x243;" horiz-adv-x="514" 
d="M442 311.5q39 -38.5 39 -116.5q0 -97 -63.5 -146t-174.5 -49h-154v169h-69v67h69v453h131q114 0 175 -45t61 -129q0 -59 -32.5 -97t-90.5 -54q70 -14 109 -52.5zM180 617v-221h59q62 0 93 28.5t31 83.5q0 59 -32.5 84t-101.5 25h-49zM349.5 100.5q36.5 27.5 36.5 94.5
q0 69 -34.5 99.5t-105.5 30.5h-66v-89h120v-67h-120v-96h63q70 0 106.5 27.5z" />
    <glyph glyph-name="uni0244" unicode="&#x244;" horiz-adv-x="563" 
d="M538 509h-54v-324q0 -55 -23.5 -100t-69.5 -71t-110 -26q-97 0 -150 55.5t-53 141.5v324h-53v66h53v114h91v-114h224v114h91v-114h54v-66zM393 509h-224v-317q0 -127 112 -127t112 127v317z" />
    <glyph glyph-name="uni0245" unicode="&#x245;" horiz-adv-x="487" 
d="M300 689l179 -689h-94l-143 613l-143 -613h-91l179 689h113z" />
    <glyph glyph-name="uni0246" unicode="&#x246;" horiz-adv-x="435" 
d="M396 73v-73h-200l-15 -70l-39 9l13 61h-79v689h229l13 60l39 -9l-11 -51h46l-10 -73h-52l-50 -229h74v-73h-90l-52 -241h184zM167 616v-229h72l50 229h-122zM167 73h4l52 241h-56v-241z" />
    <glyph glyph-name="uni0247" unicode="&#x247;" horiz-adv-x="454" 
d="M234 233l-37 -162q19 -11 49 -11q33 0 59 10.5t54 33.5l39 -50q-68 -66 -155 -66q-34 0 -63 9l-15 -67l-39 9l17 76q-47 30 -72.5 91.5t-25.5 151.5q0 131 49.5 205.5t139.5 74.5q10 0 28 -2l13 59l39 -9l-14 -60q56 -22 85 -84t29 -163q0 -22 -2 -46h-178zM165 429.5
q-25 -39.5 -29 -131.5h72l38 170q-4 1 -12 1q-44 0 -69 -39.5zM284 455l-35 -157h80v7q0 117 -45 150zM193 233h-57q3 -86 28 -128z" />
    <glyph glyph-name="uni0248" unicode="&#x248;" horiz-adv-x="264" 
d="M254 306h-74v-211q0 -99 -39 -149.5t-117 -80.5l-24 64q38 20 56.5 40.5t25.5 49.5t7 80v207h-74v74h74v309h91v-309h74v-74z" />
    <glyph glyph-name="uni0249" unicode="&#x249;" horiz-adv-x="264" 
d="M254 218h-75v-208q0 -61 -16.5 -101t-47 -66.5t-82.5 -53.5l-28 62q32 19 49.5 36.5t27 46t9.5 75.5v209h-76v67h76v242h88v-242h75v-67zM177 760q16 -17 16 -44q0 -25 -16.5 -42t-42.5 -17t-42.5 17t-16.5 42q0 26 16.5 43.5t42.5 17.5q27 0 43 -17z" />
    <glyph glyph-name="uni024A" unicode="&#x24a;" horiz-adv-x="554" 
d="M619 -175q-43 -37 -101 -37t-94.5 34.5t-36.5 98.5v120q-50 -53 -126 -53q-96 0 -156 83.5t-60 256.5q0 122 30 206t79.5 125t110.5 41q76 0 126 -57l6 46h81v-770q0 -58 45 -58q17 0 30 4t28 14zM336.5 77.5q27.5 14.5 50.5 42.5v448q-43 58 -107 58q-139 0 -139 -298
q0 -147 34.5 -206t96.5 -59q37 0 64.5 14.5z" />
    <glyph glyph-name="uni024B" unicode="&#x24b;" horiz-adv-x="491" 
d="M491 -194q-29 -18 -64 -18q-44 0 -70.5 28t-26.5 76v172q-20 -36 -50 -56t-68 -20q-78 0 -122.5 71.5t-44.5 201.5q0 84 21.5 147t60.5 96.5t90 33.5q73 0 120 -69l5 58h76v-633q0 -33 28 -33q12 0 25 5zM285.5 77.5q23.5 19.5 44.5 59.5v263q-41 68 -96 68
q-43 0 -69.5 -50t-26.5 -155q0 -108 24 -156.5t69 -48.5q31 0 54.5 19.5z" />
    <glyph glyph-name="uni024C" unicode="&#x24c;" horiz-adv-x="515" 
d="M397 0l-134 295q-7 -1 -21 -1h-62v-294h-91v294h-69v70h69v325h138q121 0 180 -50t59 -144q0 -66 -31 -113.5t-89 -69.5l151 -312h-100zM338 395.5q32 31.5 32 99.5q0 63 -33 92.5t-111 29.5h-46v-253h54q72 0 104 31.5z" />
    <glyph glyph-name="uni024D" unicode="&#x24d;" horiz-adv-x="336" 
d="M328 532l-15 -85q-20 5 -36 5q-39 0 -63.5 -34t-38.5 -103h74v-67h-75v-248h-88v248h-76v67h76v212h76l7 -98q37 109 119 109q22 0 40 -6z" />
    <glyph glyph-name="uni024E" unicode="&#x24e;" horiz-adv-x="459" 
d="M457 689l-37 -86h36v-66h-64l-117 -272v-265h-91v264l-117 273h-62v66h34l-37 86h97l33 -86h199l33 86h93zM232 345l74 192h-148z" />
    <glyph glyph-name="uni024F" unicode="&#x24f;" horiz-adv-x="418" 
d="M406 387v-64h-53l-89 -326q-25 -91 -74 -144t-136 -65l-10 67q63 14 92 46t49 99h-33l-87 323h-53v64h36l-38 140h90l33 -140h153l33 140h89l-38 -140h36zM210 64l61 259h-123z" />
    <glyph glyph-name="uni0250" unicode="&#x250;" horiz-adv-x="451" 
d="M364 86l22 -62q-81 -35 -152 -35q-81 0 -120.5 43.5t-39.5 122.5v260q0 28 -8 41.5t-26 21.5l19 61q37 -6 58.5 -23.5t30.5 -52.5q43 76 126 76q65 0 103.5 -43.5t38.5 -115.5q0 -84 -52 -128.5t-151 -44.5h-52v-48q0 -52 20.5 -76t63.5 -24q51 0 119 27zM161 389v-123
h42q63 0 92.5 27t29.5 83q0 48 -18 72.5t-51 24.5q-62 0 -95 -84z" />
    <glyph glyph-name="uni0251" unicode="&#x251;" horiz-adv-x="494" 
d="M425.5 82q8.5 -15 28.5 -27l-26 -67q-39 11 -59.5 28.5t-30.5 46.5q-47 -75 -127 -75q-76 0 -121 71t-45 202q0 86 22 148.5t61.5 95.5t90.5 33q75 0 117 -68l5 57h76v-400q0 -30 8.5 -45zM284 76q24 18 45 52v272q-19 33 -41 50.5t-50 17.5q-48 0 -74 -48t-26 -157
q0 -110 24 -157.5t68 -47.5q30 0 54 18z" />
    <glyph glyph-name="uni0252" unicode="&#x252;" horiz-adv-x="494" 
d="M404 468q45 -71 45 -202q0 -86 -22 -148.5t-61.5 -95.5t-90.5 -33q-75 0 -117 68l-5 -57h-76v400q0 30 -8.5 45t-28.5 27l26 67q39 -11 59.5 -28.5t30.5 -46.5q47 75 127 75q76 0 121 -71zM330 107q26 48 26 157q0 110 -24 157.5t-68 47.5q-30 0 -54 -18t-45 -52v-272
q19 -33 41 -50.5t50 -17.5q48 0 74 48z" />
    <glyph glyph-name="uni0253" unicode="&#x253;" horiz-adv-x="488" 
d="M400.5 469q42.5 -69 42.5 -205q0 -86 -21 -148t-59.5 -95t-89.5 -33q-34 0 -64 17.5t-52 49.5l-6 -55h-78v610q0 62 37.5 100.5t105.5 38.5q57 0 107 -27l-27 -61q-37 17 -73 17q-33 0 -47.5 -16.5t-14.5 -50.5v-148q47 75 121 75q76 0 118.5 -69zM350 264
q0 113 -23 158.5t-66 45.5q-56 0 -100 -81v-261q18 -31 41.5 -49.5t51.5 -18.5q96 0 96 206z" />
    <glyph glyph-name="uni0254" unicode="&#x254;" horiz-adv-x="393" 
d="M15 46l42 52q25 -20 45 -29.5t47 -9.5q54 0 80 46.5t26 158.5q0 111 -25 157t-77 46q-26 0 -47.5 -8.5t-45.5 -28.5l-41 52q56 56 139 56q92 0 141 -68.5t49 -205.5q0 -133 -51.5 -204.5t-143.5 -71.5q-80 0 -138 58z" />
    <glyph glyph-name="uni0255" unicode="&#x255;" horiz-adv-x="406" 
d="M363 199.5q27 -27.5 27 -74.5q0 -64 -41 -100.5t-105 -36.5q-33 0 -61 10l-27 -72l-53 21l31 76q-43 34 -66 94t-23 142q0 132 53 205.5t144 73.5q40 0 72 -13t62 -43l-40 -52q-23 19 -44.5 28t-46.5 9q-106 0 -106 -206q0 -106 30 -155q22 65 50 93t73 28q44 0 71 -27.5
zM302.5 78.5q17.5 15.5 17.5 46.5q0 21 -9 32t-27 11q-21 0 -35.5 -20t-36.5 -79q21 -6 41 -6q32 0 49.5 15.5z" />
    <glyph glyph-name="uni0256" unicode="&#x256;" horiz-adv-x="491" 
d="M562 -175q-43 -37 -102 -37q-57 0 -93.5 34t-36.5 95v143q-46 -72 -116 -72q-82 0 -125.5 72.5t-43.5 200.5q0 83 22 146t61 97t89 34q69 0 113 -61v272l88 -10v-822q0 -58 49 -58q17 0 29.5 4.5t28.5 14.5zM330 133v267q-41 68 -95 68q-46 0 -71.5 -50t-25.5 -155
q0 -205 93 -205q57 0 99 75z" />
    <glyph glyph-name="uni0257" unicode="&#x257;" horiz-adv-x="491" 
d="M558 712l-34 -54q-16 10 -28 15t-30 5q-24 0 -36 -14.5t-12 -47.5v-616h-78l-6 67q-47 -79 -120 -79q-82 0 -125.5 72.5t-43.5 200.5q0 83 22 146t61 97t89 34q69 0 113 -61v134q0 67 34 102.5t92 35.5q57 0 102 -37zM330 133v267q-41 68 -95 68q-46 0 -71.5 -50
t-25.5 -155q0 -205 93 -205q57 0 99 75z" />
    <glyph glyph-name="uni0258" unicode="&#x258;" horiz-adv-x="454" 
d="M409 258q0 -131 -52 -200.5t-146 -69.5q-87 0 -156 64l40 52q28 -23 54 -33.5t59 -10.5q51 0 78.5 39t31.5 134h-276q-2 24 -2 46q0 125 49 192t135 67q185 0 185 -280zM125 298h193q-3 97 -26 134t-68 37q-48 0 -73.5 -40.5t-25.5 -123.5v-7z" />
    <glyph glyph-name="uni0259" unicode="&#x259;" 
d="M368 469q47 -69 47 -205q0 -137 -50 -206.5t-140 -69.5q-87 0 -136 65t-49 195q0 22 2 46h284q-3 94 -29 133t-74 39q-32 0 -58.5 -10.5t-55.5 -34.5l-39 55q65 62 152 62q99 0 146 -69zM298.5 94.5q24.5 36.5 27.5 133.5h-201v-7q0 -86 25.5 -124.5t74.5 -38.5
t73.5 36.5z" />
    <glyph glyph-name="uni025A" unicode="&#x25a;" horiz-adv-x="659" 
d="M679 352q-42 -38 -97 -38t-86 32t-31 89v20l-69 -45q19 -58 19 -146q0 -137 -50 -206.5t-140 -69.5q-87 0 -136 65t-49 195q0 22 2 46h284q-3 94 -29 133t-74 39q-32 0 -58.5 -10.5t-55.5 -34.5l-39 55q65 62 152 62q102 0 148 -72l92 61h79v-84q0 -58 50 -58
q16 0 27 4.5t26 13.5zM298.5 94.5q24.5 36.5 27.5 133.5h-201v-7q0 -86 25.5 -124.5t74.5 -38.5t73.5 36.5z" />
    <glyph glyph-name="uni025B" unicode="&#x25b;" horiz-adv-x="389" 
d="M300.5 526q33.5 -12 64.5 -36l-37 -52q-25 16 -48 23.5t-51 7.5q-37 0 -57 -20t-20 -59q0 -36 21.5 -58.5t58.5 -22.5h52l-10 -69h-47q-47 0 -68 -22.5t-21 -70.5q0 -41 23 -64.5t66 -23.5q31 0 57 11t52 33l43 -53q-30 -30 -71.5 -46t-88.5 -16q-78 0 -126 42t-48 116
q0 112 118 134q-48 11 -74.5 40t-26.5 77q0 64 45 102.5t116 38.5q44 0 77.5 -12z" />
    <glyph glyph-name="uni025C" unicode="&#x25c;" horiz-adv-x="411" 
d="M297.5 499.5q45.5 -38.5 45.5 -104.5q0 -44 -22.5 -70.5t-73.5 -42.5q60 -11 89.5 -41t29.5 -86q0 -80 -52.5 -123.5t-134.5 -43.5q-98 0 -169 66l46 51q30 -24 57 -35t63 -11q97 0 97 96q0 48 -27 66.5t-84 18.5h-52l5 69h38q50 0 75 20.5t25 63.5q0 76 -78 76
q-32 0 -56 -10t-53 -30l-41 50q34 30 72.5 44.5t87.5 14.5q67 0 112.5 -38.5z" />
    <glyph glyph-name="uni025D" unicode="&#x25d;" horiz-adv-x="614" 
d="M634 352q-42 -38 -97 -38t-86 32t-31 89v20l-77 -50v-10q0 -44 -22.5 -70.5t-73.5 -42.5q60 -11 89.5 -41t29.5 -86q0 -80 -52.5 -123.5t-134.5 -43.5q-98 0 -169 66l46 51q30 -24 57 -35t63 -11q97 0 97 96q0 48 -27 66.5t-84 18.5h-52l5 69h38q50 0 75 20.5t25 63.5
q0 76 -78 76q-32 0 -56 -10t-53 -30l-41 50q34 30 72.5 44.5t87.5 14.5q45 0 82.5 -18.5t57.5 -53.5l92 61h79v-84q0 -58 50 -58q16 0 27 4.5t26 13.5z" />
    <glyph glyph-name="uni025E" unicode="&#x25e;" horiz-adv-x="474" 
d="M95.5 58q-50.5 70 -50.5 205q0 133 52.5 204t149.5 71q69 0 114 -39.5t45 -104.5q0 -43 -22.5 -70.5t-72.5 -41.5q60 -11 89 -41t29 -86q0 -77 -50.5 -122t-131.5 -45q-101 0 -151.5 70zM313.5 82q24.5 23 24.5 73q0 47 -26.5 66t-72.5 19h-30l5 69h21q36 0 59.5 21
t23.5 63q0 36 -19.5 56t-52.5 20q-55 0 -82.5 -48.5t-27.5 -157.5q0 -111 25.5 -157.5t84.5 -46.5q43 0 67.5 23z" />
    <glyph glyph-name="uni025F" unicode="&#x25f;" horiz-adv-x="264" 
d="M254 218h-75v-208q0 -61 -16.5 -101t-47 -66.5t-82.5 -53.5l-28 62q32 19 49.5 36.5t27 46t9.5 75.5v209h-76v67h76v242h88v-242h75v-67z" />
    <glyph glyph-name="uni0260" unicode="&#x260;" horiz-adv-x="491" 
d="M558 712l-34 -54q-16 10 -28 15t-30 5q-24 0 -36 -14.5t-12 -47.5v-632q0 -92 -48.5 -144t-140.5 -52q-81 0 -140 43l33 57q23 -14 46 -21.5t56 -7.5q57 0 81.5 30t24.5 91v98q-42 -70 -114 -70q-81 0 -126 70t-45 193q0 122 47 194.5t130 72.5q33 0 60.5 -15.5
t47.5 -41.5v130q0 67 34 102.5t92 35.5q57 0 102 -37zM285 97.5q23 19.5 45 58.5v244q-20 33 -42 50.5t-50 17.5q-48 0 -74 -47.5t-26 -147.5q0 -195 93 -195q31 0 54 19.5z" />
    <glyph glyph-name="uni0261" unicode="&#x261;" horiz-adv-x="491" 
d="M418 527v-543q0 -92 -48.5 -144t-140.5 -52q-81 0 -140 43l33 57q23 -14 46 -21.5t56 -7.5q57 0 81.5 30t24.5 91v98q-42 -70 -114 -70q-81 0 -126 70t-45 193q0 122 47 194.5t130 72.5q35 0 64.5 -18t50.5 -48l5 55h76zM285 97.5q23 19.5 45 58.5v244q-20 33 -42 50.5
t-50 17.5q-48 0 -74 -47.5t-26 -147.5q0 -195 93 -195q31 0 54 19.5z" />
    <glyph glyph-name="uni0262" unicode="&#x262;" horiz-adv-x="468" 
d="M337.5 523q35.5 -16 68.5 -48l-44 -51q-28 22 -52.5 32t-53.5 10q-119 0 -119 -200q0 -117 27 -162t81 -45q39 0 79 20v148h-73l-10 69h168v-255q-77 -52 -163 -52q-99 0 -150 66t-51 211q0 89 28 150.5t75.5 92t107.5 30.5q46 0 81.5 -16z" />
    <glyph glyph-name="uni0263" unicode="&#x263;" horiz-adv-x="417" 
d="M256 63q29 -59 41.5 -98t12.5 -80q0 -46 -25.5 -71.5t-74.5 -25.5t-74 25.5t-25 70.5q0 35 13 75.5t41 101.5l-155 466h91l109 -406l109 406h88zM230.5 -58.5q-6.5 25.5 -20.5 59.5q-13 -35 -19.5 -60.5t-6.5 -50.5q0 -36 26 -36q27 0 27 36q0 26 -6.5 51.5z" />
    <glyph glyph-name="uni0264" unicode="&#x264;" horiz-adv-x="442" 
d="M409.5 531q15.5 -7 32.5 -20l-28 -50q-9 6 -15.5 8.5t-16.5 2.5q-11 0 -18.5 -9.5t-17.5 -34.5l-80 -202q28 -54 38 -82.5t10 -61.5q0 -43 -24 -68.5t-69 -25.5t-69.5 25.5t-24.5 67.5q0 31 10.5 60.5t37.5 84.5l-79 202q-10 25 -18 34.5t-19 9.5q-10 0 -16 -2.5
t-16 -8.5l-27 50q32 27 67 27q38 0 61 -23.5t40 -75.5l53 -161l53 161q18 53 40 76t60 23q20 0 35.5 -7zM239 121q-5 17 -18 49q-14 -35 -19 -50.5t-5 -34.5q0 -31 24 -31q23 0 23 31q0 19 -5 36z" />
    <glyph glyph-name="uni0265" unicode="&#x265;" horiz-adv-x="482" 
d="M409 527v-739l-88 11v275q-25 -42 -54.5 -63.5t-72.5 -21.5q-57 0 -91 41t-34 110v387h88v-375q0 -51 14.5 -72.5t43.5 -21.5q57 0 106 98v371h88z" />
    <glyph glyph-name="uni0266" unicode="&#x266;" horiz-adv-x="482" 
d="M379.5 495q33.5 -43 33.5 -118v-377h-88v365q0 57 -14.5 80.5t-43.5 23.5q-57 0 -106 -98v-371h-88v610q0 62 37.5 100.5t105.5 38.5q57 0 107 -27l-27 -61q-37 17 -73 17q-33 0 -47.5 -16.5t-14.5 -50.5v-158q25 42 54.5 63.5t72.5 21.5q58 0 91.5 -43z" />
    <glyph glyph-name="uni0267" unicode="&#x267;" horiz-adv-x="482" 
d="M379.5 495q33.5 -43 33.5 -118v-460q0 -61 -36.5 -95t-93.5 -34q-59 0 -102 37l37 53q16 -10 28.5 -14.5t29.5 -4.5q49 0 49 58v448q0 57 -14.5 80.5t-43.5 23.5q-57 0 -106 -98v-371h-88v610q0 62 37.5 100.5t105.5 38.5q57 0 107 -27l-27 -61q-37 17 -73 17
q-33 0 -47.5 -16.5t-14.5 -50.5v-158q25 42 54.5 63.5t72.5 21.5q58 0 91.5 -43z" />
    <glyph glyph-name="uni0268" unicode="&#x268;" horiz-adv-x="259" 
d="M87.5 674q-16.5 17 -16.5 42q0 26 16.5 43.5t42.5 17.5q27 0 43 -17t16 -44q0 -25 -16.5 -42t-42.5 -17t-42.5 17zM249 315v-67h-74v-248h-88v248h-77v67h77v212h88v-212h74z" />
    <glyph glyph-name="uni0269" unicode="&#x269;" horiz-adv-x="244" 
d="M94.5 16q-26.5 28 -26.5 76v435h88v-433q0 -33 28 -33q13 0 25 5l20 -60q-29 -18 -64 -18q-44 0 -70.5 28z" />
    <glyph glyph-name="uni026A" unicode="&#x26a;" horiz-adv-x="276" 
d="M256 458h-75v-390h75v-68h-236v68h73v390h-73v69h236v-69z" />
    <glyph glyph-name="uni026B" unicode="&#x26b;" horiz-adv-x="323" 
d="M206 304v-210q0 -33 28 -33q13 0 25 5l20 -60q-29 -18 -64 -18q-44 0 -70.5 28t-26.5 76v262q-16 7 -26 7q-17 0 -30 -13.5t-28 -38.5l-49 27q45 92 113 92q8 0 20 -2v313l88 10v-372q14 -7 25 -7q18 0 31.5 12t26.5 34l49 -27q-18 -37 -45.5 -62t-64.5 -25q-8 0 -22 2z
" />
    <glyph glyph-name="uni026C" unicode="&#x26c;" horiz-adv-x="306" 
d="M281 6q-29 -18 -64 -18q-44 0 -70.5 28t-26.5 76v163h-1q-58 2 -88.5 31t-30.5 79q0 45 27 71t66 26q9 0 27 -3v280l88 10v-434q22 1 58 10l12 -53q-34 -11 -70 -14v-164q0 -33 28 -33q13 0 25 5zM120 315v90q-11 3 -21 3q-16 0 -25 -11t-9 -32q0 -50 54 -50h1z" />
    <glyph glyph-name="uni026D" unicode="&#x26d;" horiz-adv-x="234" 
d="M305 -175q-43 -37 -102 -37q-57 0 -93.5 34t-36.5 95v822l88 10v-832q0 -58 49 -58q17 0 29.5 4.5t28.5 14.5z" />
    <glyph glyph-name="uni026E" unicode="&#x26e;" horiz-adv-x="549" 
d="M478 153.5q49 -50.5 49 -146.5q0 -99 -54.5 -159t-146.5 -60q-56 0 -97.5 20t-73.5 60l51 47q28 -29 55 -42t62 -13q53 0 82 38.5t29 110.5q0 70 -29 100.5t-94 30.5h-66v64l169 250h-258v-360q0 -33 28 -33q13 0 25 5l20 -60q-29 -18 -64 -18q-44 0 -70.5 28t-26.5 76
v647l88 10v-222h350v-68l-174 -254q97 -1 146 -51.5z" />
    <glyph glyph-name="uni026F" unicode="&#x26f;" horiz-adv-x="703" 
d="M630 527v-527h-76l-6 76q-50 -87 -125 -87q-40 0 -67.5 24.5t-39.5 69.5q-54 -94 -130 -94q-53 0 -85 41.5t-32 109.5v387h86v-376q0 -50 13.5 -72t39.5 -22q53 0 98 94v376h86v-376q0 -94 53 -94q28 0 53.5 25t45.5 69v376h86z" />
    <glyph glyph-name="uni0270" unicode="&#x270;" horiz-adv-x="703" 
d="M630 527v-739l-88 11v267q-50 -77 -119 -77q-40 0 -67.5 24.5t-39.5 69.5q-54 -94 -130 -94q-53 0 -85 41.5t-32 109.5v387h86v-376q0 -50 13.5 -72t39.5 -22q53 0 98 94v376h86v-376q0 -94 53 -94q28 0 53.5 25t45.5 69v376h86z" />
    <glyph glyph-name="uni0271" unicode="&#x271;" horiz-adv-x="703" 
d="M602 496.5q32 -41.5 32 -109.5v-463q0 -65 -36.5 -100.5t-92.5 -35.5q-58 0 -101 37l37 53q16 -10 28.5 -14.5t29.5 -4.5q49 0 49 58v459q0 50 -13.5 72t-39.5 22q-53 0 -98 -94v-376h-86v376q0 94 -53 94q-28 0 -53.5 -25t-45.5 -69v-376h-86v527h76l6 -76q50 87 125 87
q40 0 67.5 -24.5t39.5 -69.5q54 94 130 94q53 0 85 -41.5z" />
    <glyph glyph-name="uni0272" unicode="&#x272;" horiz-adv-x="482" 
d="M379 497q34 -41 34 -110v-387h-88v375q0 51 -14.5 72.5t-43.5 21.5q-57 0 -106 -98v-454q0 -61 -36.5 -95t-93.5 -34q-59 0 -102 37l37 53q16 -10 28.5 -14.5t29.5 -4.5q49 0 49 58v610h76l7 -79q26 44 57 67t75 23q57 0 91 -41z" />
    <glyph glyph-name="uni0273" unicode="&#x273;" horiz-adv-x="478" 
d="M557 -175q-43 -37 -102 -37q-57 0 -93.5 34t-36.5 95v458q0 51 -14.5 72.5t-43.5 21.5q-57 0 -106 -98v-371h-88v527h76l7 -79q26 44 57 67t75 23q57 0 91 -41t34 -110v-470q0 -58 49 -58q17 0 29.5 4.5t28.5 14.5z" />
    <glyph glyph-name="uni0274" unicode="&#x274;" horiz-adv-x="490" 
d="M417 0h-112l-164 437q6 -58 9 -105t3 -117v-215h-80v527h112l163 -438q-6 46 -8.5 79.5t-2.5 89.5v269h80v-527z" />
    <glyph glyph-name="uni0275" unicode="&#x275;" horiz-adv-x="485" 
d="M388.5 468.5q51.5 -69.5 51.5 -204.5q0 -127 -52.5 -201.5t-145.5 -74.5t-145 73t-52 202q0 133 52 204t146 71t145.5 -69.5zM167.5 429q-26.5 -39 -30.5 -128h211q-4 88 -30 127.5t-75 39.5t-75.5 -39zM318.5 99.5q26.5 41.5 29.5 134.5h-211q3 -93 29 -134.5t76 -41.5
t76.5 41.5z" />
    <glyph glyph-name="uni0276" unicode="&#x276;" horiz-adv-x="623" 
d="M598 0h-291q-36 -12 -65 -12q-93 0 -145 73t-52 202q0 133 52 204t146 71q21 0 36.5 -2.5t32.5 -8.5h283l-9 -69h-206q49 -51 58 -156h124v-68h-124q-3 -59 -18.5 -99t-42.5 -67h221v-68zM164 107q26 -48 79 -48q49 0 77 48.5t28 155.5q0 106 -28 155t-77 49
q-53 0 -79 -47.5t-26 -156.5q0 -108 26 -156z" />
    <glyph glyph-name="uni0277" unicode="&#x277;" horiz-adv-x="632" 
d="M518 458.5q69 -79.5 69 -219.5q0 -128 -41.5 -189.5t-113.5 -61.5q-47 0 -77.5 26.5t-37.5 74.5q-10 -49 -40 -75t-77 -26q-72 0 -113.5 60.5t-41.5 190.5q0 139 70 219t202 80t201 -79.5zM479 97.5q20 38.5 20 142.5q0 114 -42.5 171t-139.5 57q-98 0 -141 -57t-43 -173
q0 -95 18 -137t58 -42q31 0 48 24.5t17 87.5v124l83 11v-135q0 -58 17 -85t47 -27q38 0 58 38.5z" />
    <glyph glyph-name="uni0278" unicode="&#x278;" horiz-adv-x="528" 
d="M443 75q-49 -64 -135 -71v-205l-88 -11v216q-87 10 -135.5 74.5t-48.5 184.5q0 124 49 187.5t135 71.5v216l88 9v-225q88 -10 136 -74t48 -183q0 -126 -49 -190zM151 122q24 -44 74 -49v382q-52 -6 -75 -49.5t-23 -142.5q0 -97 24 -141zM378 122q24 44 24 143
q0 96 -24.5 140t-74.5 49v-382q51 6 75 50z" />
    <glyph glyph-name="uni0279" unicode="&#x279;" horiz-adv-x="323" 
d="M250 527v-527h-76l-7 98q-37 -109 -119 -109q-22 0 -40 6l15 85q20 -5 36 -5q39 0 64 35t39 107v310h88z" />
    <glyph glyph-name="uni027A" unicode="&#x27a;" horiz-adv-x="323" 
d="M250 527v-527h-76l-7 98q-37 -109 -119 -109q-22 0 -40 6l15 85q20 -5 36 -5q39 0 64 35t39 107v309h-2v223l88 -10v-212h2z" />
    <glyph glyph-name="uni027B" unicode="&#x27b;" horiz-adv-x="323" 
d="M394 -175q-43 -37 -102 -37q-57 0 -93.5 34t-36.5 95v168q-37 -96 -114 -96q-22 0 -40 6l15 85q20 -5 36 -5q39 0 64 35t39 107v310h88v-610q0 -58 49 -58q17 0 29.5 4.5t28.5 14.5z" />
    <glyph glyph-name="uni027C" unicode="&#x27c;" horiz-adv-x="323" 
d="M315 532l-15 -85q-20 5 -36 5q-39 0 -64 -35t-39 -107v-511l-88 -11v739h76l7 -98q37 109 119 109q22 0 40 -6z" />
    <glyph glyph-name="uni027D" unicode="&#x27d;" horiz-adv-x="323" 
d="M239.5 -136.5q12.5 4.5 28.5 14.5l37 -53q-43 -37 -102 -37q-57 0 -93.5 34t-36.5 95v610h76l7 -98q37 109 119 109q22 0 40 -6l-15 -85q-20 5 -36 5q-39 0 -64 -35t-39 -107v-393q0 -58 49 -58q17 0 29.5 4.5z" />
    <glyph glyph-name="uni027E" unicode="&#x27e;" horiz-adv-x="311" 
d="M301 501l-37 -53q-16 10 -28.5 14.5t-29.5 4.5q-49 0 -49 -58v-409h-88v409q0 61 36.5 95t93.5 34q59 0 102 -37z" />
    <glyph glyph-name="uni027F" unicode="&#x27f;" horiz-adv-x="311" 
d="M205.5 504q36.5 -34 36.5 -95v-409h-88v409q0 58 -49 58q-17 0 -29.5 -4.5t-28.5 -14.5l-37 53q43 37 102 37q57 0 93.5 -34z" />
    <glyph glyph-name="uni0280" unicode="&#x280;" horiz-adv-x="437" 
d="M320 0l-102 205q-8 -1 -24 -1h-35v-204h-86v527h118q95 0 143.5 -41.5t48.5 -119.5q0 -51 -22 -88.5t-67 -55.5l118 -222h-92zM207 271q43 0 65 21.5t22 73.5q0 49 -25 71t-80 22h-30v-188h48z" />
    <glyph glyph-name="uni0281" unicode="&#x281;" horiz-adv-x="437" 
d="M361 251.5q22 -37.5 22 -90.5q0 -77 -48.5 -119t-143.5 -42h-118v527h86v-204h45h14l102 204h92l-117 -220q44 -18 66 -55.5zM269 90q25 22 25 71q0 52 -22 73.5t-65 21.5h-48v-188h30q55 0 80 22z" />
    <glyph glyph-name="uni0282" unicode="&#x282;" horiz-adv-x="393" 
d="M102 8v-74q0 -39 14 -57t41 -18q19 0 32.5 5.5t29.5 17.5l33 -57q-45 -37 -101 -37q-61 0 -96 39t-35 114v116l41 43q62 -43 124 -43q40 0 64 22t24 62q0 27 -9 44t-31 31t-64 29q-69 25 -99.5 60.5t-30.5 88.5q0 40 20.5 73t57.5 52t84 19q87 0 149 -59l-38 -51
q-28 21 -54 31.5t-55 10.5q-35 0 -55.5 -19.5t-20.5 -53.5q0 -33 20 -52t76 -39q72 -26 106 -62t34 -98q0 -75 -50.5 -116.5t-125.5 -41.5q-48 0 -85 20z" />
    <glyph glyph-name="uni0283" unicode="&#x283;" horiz-adv-x="234" 
d="M301 712l-34 -54q-16 10 -28 15t-30 5q-24 0 -36 -14.5t-12 -47.5v-699q0 -61 -36.5 -95t-93.5 -34q-59 0 -102 37l37 53q16 -10 28.5 -14.5t29.5 -4.5q49 0 49 58v694q0 67 34 102.5t92 35.5q57 0 102 -37z" />
    <glyph glyph-name="uni0284" unicode="&#x284;" horiz-adv-x="254" 
d="M249 67v-67h-75q-1 -58 -18 -95.5t-47 -63t-81 -52.5l-28 62q31 19 48.5 35.5t27 43t10.5 70.5h-76v67h76v544q0 67 34 102.5t92 35.5q57 0 102 -37l-34 -54q-16 10 -28 15t-30 5q-24 0 -36 -14.5t-12 -47.5v-549h75z" />
    <glyph glyph-name="uni0285" unicode="&#x285;" horiz-adv-x="368" 
d="M370 26q-43 -37 -102 -37q-57 0 -93.5 34t-36.5 95v287q0 33 -12 47.5t-36 14.5q-18 0 -30 -5t-28 -15l-34 54q45 37 102 37q58 0 92 -35.5t34 -102.5v-282q0 -58 49 -58q17 0 29.5 4.5t28.5 14.5z" />
    <glyph glyph-name="uni0286" unicode="&#x286;" horiz-adv-x="258" 
d="M184 -10q42 -13 90 -39l-19 -48q-32 17 -72 31q-7 -70 -43 -108t-99 -38q-53 0 -82.5 28t-29.5 78q0 55 32.5 84.5t89.5 29.5q28 0 46 -3v606q0 67 34 102.5t92 35.5q57 0 102 -37l-34 -54q-16 10 -28 15t-30 5q-24 0 -36 -14.5t-12 -47.5v-90zM83 -128.5
q13 24.5 14 78.5q-15 5 -45 5q-59 0 -59 -57q0 -26 11 -38.5t36 -12.5q30 0 43 24.5z" />
    <glyph glyph-name="uni0287" unicode="&#x287;" horiz-adv-x="306" 
d="M296 0h-71v-119l-88 -11v130h-102l9 69h93v342q0 55 -47 55q-16 0 -28 -4t-28 -14l-34 55q45 36 101 36q59 0 91.5 -35t32.5 -94v-341h71v-69z" />
    <glyph glyph-name="uni0288" unicode="&#x288;" horiz-adv-x="364" 
d="M313 -175q-43 -37 -102 -37q-57 0 -93.5 34t-36.5 95v541h-71v69h71v119l88 11v-130h102l-9 -69h-93v-541q0 -58 49 -58q17 0 29.5 4.5t28.5 14.5z" />
    <glyph glyph-name="uni0289" unicode="&#x289;" horiz-adv-x="500" 
d="M482 320h-65v-320h-76l-6 74q-25 -43 -56.5 -64.5t-73.5 -21.5q-57 0 -91 39t-34 102v191h-70v67h70v140h88v-140h161v140h88v-140h65v-67zM329 320h-161v-182q0 -81 57 -81q33 0 58 23.5t46 65.5v174z" />
    <glyph glyph-name="uni028A" unicode="&#x28a;" horiz-adv-x="484" 
d="M97.5 53q-52.5 65 -52.5 182q0 75 20.5 128t62.5 97h-72v67h140v-65q-29 -47 -44 -95t-15 -131q0 -95 26 -136.5t79 -41.5q52 0 78.5 42t26.5 137q0 83 -15.5 131.5t-44.5 93.5v65h140v-67h-71q42 -44 62.5 -97t20.5 -128q0 -115 -52.5 -181t-144.5 -66t-144.5 65z" />
    <glyph glyph-name="uni028B" unicode="&#x28b;" horiz-adv-x="477" 
d="M112.5 29.5q-43.5 41.5 -43.5 113.5v384h88v-377q0 -46 17.5 -68.5t53.5 -22.5q44 0 72.5 40.5t28.5 133.5v195q0 20 -6.5 29t-20.5 9q-12 0 -25 -5l-19 60q26 17 63 17q96 0 96 -109v-194q0 -125 -55 -186t-139 -61q-67 0 -110.5 41.5z" />
    <glyph glyph-name="uni028C" unicode="&#x28c;" horiz-adv-x="416" 
d="M10 0l144 527h104l148 -527h-91l-109 449l-108 -449h-88z" />
    <glyph glyph-name="uni028D" unicode="&#x28d;" horiz-adv-x="607" 
d="M20 0l96 527h117l71 -445l70 445h115l98 -527h-86l-72 462l-76 -462h-103l-74 462l-74 -462h-82z" />
    <glyph glyph-name="uni028E" unicode="&#x28e;" horiz-adv-x="418" 
d="M154 530q24 90 73.5 143.5t136.5 65.5l10 -67q-63 -14 -92 -46t-49 -99h33l142 -527h-90l-110 463l-109 -463h-89z" />
    <glyph glyph-name="uni028F" unicode="&#x28f;" horiz-adv-x="383" 
d="M385 527l-149 -328v-199h-88v198l-150 329h89l106 -269l105 269h87z" />
    <glyph glyph-name="uni0290" unicode="&#x290;" horiz-adv-x="360" 
d="M480 -175q-43 -37 -102 -37q-57 0 -92 33t-35 96v83h-233v66l227 386h-208v75h301v-68l-227 -385h225v-157q0 -58 49 -58q17 0 29.5 4.5t28.5 14.5z" />
    <glyph glyph-name="uni0291" unicode="&#x291;" horiz-adv-x="392" 
d="M368.5 29.5q-39.5 -28.5 -118.5 -29.5q-4 -40 -4 -121h-59q0 66 4 121h-173v66l227 386h-208v75h301v-68l-227 -385h89q27 138 117 138q40 0 65.5 -24.5t25.5 -68.5q0 -61 -39.5 -89.5zM322.5 84q17.5 9 17.5 35q0 17 -7 26t-20 9q-18 0 -31.5 -17.5t-21.5 -62.5
q45 1 62.5 10z" />
    <glyph glyph-name="uni0292" unicode="&#x292;" horiz-adv-x="396" 
d="M325 153.5q49 -50.5 49 -146.5q0 -99 -54.5 -159t-146.5 -60q-59 0 -102 22t-76 67l52 46q30 -33 58 -48t65 -15q53 0 82 38.5t29 110.5q0 70 -29 100.5t-94 30.5h-66v64l169 250h-239v73h331v-68l-174 -254q97 -1 146 -51.5z" />
    <glyph glyph-name="uni0293" unicode="&#x293;" horiz-adv-x="396" 
d="M338.5 -125q-35.5 -54 -103.5 -75l21 -56l-54 -21l-24 66q-11 -1 -32 -1q-85 0 -129 34t-44 97q0 48 27.5 77.5t70.5 29.5q48 0 77.5 -34t57.5 -123q39 13 57 47.5t18 89.5q0 72 -29 103t-94 31h-66v64l169 250h-239v73h331v-68l-174 -254q97 -1 146 -51.5t49 -147.5
q0 -77 -35.5 -131zM66 -125.5q24 -14.5 81 -14.5h4q-21 61 -36.5 83t-37.5 22q-35 0 -35 -44q0 -32 24 -46.5z" />
    <glyph glyph-name="uni0294" unicode="&#x294;" horiz-adv-x="369" 
d="M107 348l47 17q51 18 77 53.5t26 106.5q0 153 -101 153q-35 0 -62 -14.5t-58 -45.5l-46 47q37 43 78 63.5t91 20.5q88 0 139 -59t51 -163q0 -68 -19 -111t-48 -65.5t-70 -39.5l-17 -7v-304h-88v348z" />
    <glyph glyph-name="uni0295" unicode="&#x295;" horiz-adv-x="369" 
d="M174 0v304l-17 7q-41 17 -70 39.5t-48 65.5t-19 111q0 104 51.5 163t139.5 59q50 0 90 -20.5t78 -63.5l-46 -47q-31 31 -58 45.5t-62 14.5q-101 0 -101 -153q0 -71 26 -106.5t77 -53.5l47 -17v-348h-88z" />
    <glyph glyph-name="uni0296" unicode="&#x296;" horiz-adv-x="419" 
d="M212 747v-313l25 -9q62 -23 99.5 -70t37.5 -144q0 -104 -51.5 -163t-139.5 -59q-50 0 -90 20.5t-78 63.5l46 47q31 -31 58 -45.5t62 -14.5q101 0 101 153q0 72 -26 108t-77 52l-55 17v348z" />
    <glyph glyph-name="uni0297" unicode="&#x297;" horiz-adv-x="409" 
d="M332 525q32 -13 62 -43l-40 -53q-23 19 -44.5 28t-46.5 9q-54 0 -82 -70.5t-28 -234.5q0 -163 27.5 -230t80.5 -67q25 0 45.5 8.5t44.5 27.5l41 -53q-60 -58 -133 -58q-200 0 -200 370q0 190 52 284.5t149 94.5q40 0 72 -13z" />
    <glyph glyph-name="uni0298" unicode="&#x298;" horiz-adv-x="659" 
d="M478 660q64 -40 100 -119.5t36 -195.5q0 -115 -35.5 -195t-100 -121t-148.5 -41q-85 0 -149 40t-100 120t-36 196q0 113 36 193.5t100.5 121.5t148.5 41t148 -40zM184 560q-53 -69 -53 -216q0 -149 53 -217t146 -68q198 0 198 286q0 147 -52.5 215.5t-145.5 68.5
t-146 -69zM373 388q16 -17 16 -44q0 -25 -16.5 -42t-42.5 -17t-42.5 17t-16.5 42q0 26 16.5 43.5t42.5 17.5q27 0 43 -17z" />
    <glyph glyph-name="uni0299" unicode="&#x299;" horiz-adv-x="465" 
d="M420 156q0 -77 -50 -116.5t-135 -39.5h-162v522q98 16 150 16q81 0 128 -38t47 -104q0 -42 -21 -69t-72 -42q115 -14 115 -129zM161 466v-155h70q80 0 80 81q0 41 -21.5 59.5t-66.5 18.5q-22 0 -62 -4zM304.5 88q24.5 20 24.5 69q0 52 -23.5 71t-68.5 19h-76v-179h74
q45 0 69.5 20z" />
    <glyph glyph-name="uni029A" unicode="&#x29a;" horiz-adv-x="474" 
d="M95.5 33q-50.5 45 -50.5 122q0 56 29 86t89 41q-50 14 -72.5 41.5t-22.5 70.5q0 65 45 104.5t114 39.5q97 0 149.5 -71t52.5 -204q0 -135 -50.5 -205t-151.5 -70q-81 0 -131.5 45zM312.5 105.5q25.5 46.5 25.5 157.5q0 109 -27.5 157.5t-82.5 48.5q-33 0 -52.5 -20
t-19.5 -56q0 -42 23.5 -63t59.5 -21h21l5 -69h-30q-46 0 -72.5 -19t-26.5 -66q0 -50 24.5 -73t67.5 -23q59 0 84.5 46.5z" />
    <glyph glyph-name="uni029B" unicode="&#x29b;" horiz-adv-x="463" 
d="M546 712l-34 -54q-16 10 -28 15t-30 5q-48 0 -48 -62v-141l-42 -47q-31 20 -55.5 29t-52.5 9q-119 0 -119 -200q0 -117 27 -162t81 -45q39 0 79 20v148h-73l-10 69h168v-255q-77 -52 -163 -52q-99 0 -150 66t-51 211q0 89 27.5 150.5t74.5 92t104 30.5q41 0 72 -17v89
q0 65 32.5 101.5t88.5 36.5q57 0 102 -37z" />
    <glyph glyph-name="uni029C" unicode="&#x29c;" horiz-adv-x="488" 
d="M327 0v234h-166v-234h-88v527h88v-222h166v222h88v-527h-88z" />
    <glyph glyph-name="uni029D" unicode="&#x29d;" horiz-adv-x="258" 
d="M255 -97q-32 17 -72 31q-7 -70 -43 -108t-99 -38q-53 0 -82.5 28t-29.5 78q0 55 32.5 84.5t89.5 29.5q28 0 46 -3v522h88l-1 -536q44 -15 90 -40zM83 -128.5q13 24.5 14 78.5q-15 5 -45 5q-59 0 -59 -57q0 -26 11 -38.5t36 -12.5q30 0 43 24.5zM183 760q16 -17 16 -44
q0 -25 -16.5 -42t-42.5 -17t-42.5 17t-16.5 42q0 26 16.5 43.5t42.5 17.5q27 0 43 -17z" />
    <glyph glyph-name="uni029E" unicode="&#x29e;" horiz-adv-x="428" 
d="M13 0l158 234l-174 293h98l167 -288l-159 -239h-90zM267 -201v728h88v-739z" />
    <glyph glyph-name="uni029F" unicode="&#x29f;" horiz-adv-x="360" 
d="M161 527v-452h189l-10 -75h-267v527h88z" />
    <glyph glyph-name="uni02A0" unicode="&#x2a0;" horiz-adv-x="491" 
d="M558 712l-34 -54q-16 10 -28 15t-30 5q-24 0 -36 -14.5t-12 -47.5v-828l-88 11v265q-20 -36 -50 -56t-68 -20q-78 0 -122.5 71.5t-44.5 201.5q0 84 21.5 147t60.5 96.5t90 33.5q67 0 113 -60v133q0 67 34 102.5t92 35.5q57 0 102 -37zM285.5 77.5q23.5 19.5 44.5 59.5
v263q-41 68 -96 68q-43 0 -69.5 -50t-26.5 -155q0 -108 24 -156.5t69 -48.5q31 0 54.5 19.5z" />
    <glyph glyph-name="uni02A1" unicode="&#x2a1;" horiz-adv-x="369" 
d="M195 304v-90h87v-67h-87v-147h-88v147h-55v67h55v134l47 17q51 18 77 53.5t26 106.5q0 153 -101 153q-35 0 -62 -14.5t-58 -45.5l-46 47q37 43 78 63.5t91 20.5q88 0 139 -59t51 -163q0 -68 -19 -111t-48 -65.5t-70 -39.5z" />
    <glyph glyph-name="uni02A2" unicode="&#x2a2;" horiz-adv-x="369" 
d="M112 525q0 -71 26 -106.5t77 -53.5l47 -17v-134h56v-67h-56v-147h-88v147h-86v67h86v90l-17 7q-41 17 -70 39.5t-48 65.5t-19 111q0 104 51.5 163t139.5 59q50 0 90 -20.5t78 -63.5l-46 -47q-31 31 -58 45.5t-62 14.5q-101 0 -101 -153z" />
    <glyph glyph-name="uni02A3" unicode="&#x2a3;" horiz-adv-x="762" 
d="M740 74l-9 -74h-391l-6 67q-47 -79 -120 -79q-82 0 -125.5 72.5t-43.5 200.5q0 83 22 146t61 97t89 34q69 0 113 -61v272l88 -10v-212h320v-68l-227 -385h229zM330 133v267q-41 68 -95 68q-46 0 -71.5 -50t-25.5 -155q0 -205 93 -205q57 0 99 75zM418 452v-386l227 386
h-227z" />
    <glyph glyph-name="uni02A4" unicode="&#x2a4;" horiz-adv-x="791" 
d="M720 153.5q49 -50.5 49 -146.5q0 -99 -54.5 -159t-146.5 -60q-59 0 -102 22t-76 67l52 46q30 -33 58 -48t65 -15q53 0 82 38.5t29 110.5q0 70 -29 100.5t-94 30.5h-66v64l169 250h-238v-454h-78l-6 67q-47 -79 -120 -79q-82 0 -125.5 72.5t-43.5 200.5q0 83 22 146t61 97
t89 34q69 0 113 -61v272l88 -10v-212h330v-68l-174 -254q97 -1 146 -51.5zM330 133v267q-41 68 -95 68q-46 0 -71.5 -50t-25.5 -155q0 -205 93 -205q57 0 99 75z" />
    <glyph glyph-name="uni02A5" unicode="&#x2a5;" horiz-adv-x="791" 
d="M767.5 29.5q-39.5 -28.5 -118.5 -29.5q-4 -40 -4 -121h-59q0 66 4 121h-250l-6 67q-47 -79 -120 -79q-82 0 -125.5 72.5t-43.5 200.5q0 83 22 146t61 97t89 34q69 0 113 -61v272l88 -10v-212h319v-68l-227 -385h89q27 138 117 138q40 0 65.5 -24.5t25.5 -68.5
q0 -61 -39.5 -89.5zM330 133v267q-41 68 -95 68q-46 0 -71.5 -50t-25.5 -155q0 -205 93 -205q57 0 99 75zM418 452v-384l226 384h-226zM721.5 84q17.5 9 17.5 35q0 17 -7 26t-20 9q-18 0 -31.5 -17.5t-21.5 -62.5q45 1 62.5 10z" />
    <glyph glyph-name="uni02A6" unicode="&#x2a6;" horiz-adv-x="586" 
d="M523 243q33 -36 33 -93q-1 -80 -63.5 -121t-173.5 -41q-119 0 -178.5 49t-59.5 139v282h-71v69h71v119l88 11v-130h85l-10 -69h-75v-278q0 -58 35 -88.5t116 -30.5q75 0 110.5 21.5t35.5 65.5q0 34 -20 53.5t-75 40.5q-67 26 -93 61.5t-26 88.5q0 63 43.5 104.5
t110.5 41.5q43 0 77.5 -15t66.5 -44l-38 -51q-29 22 -52.5 32t-51.5 10q-30 0 -49 -19t-19 -53q0 -36 16.5 -57t68.5 -39q65 -23 98 -59z" />
    <glyph glyph-name="uni02A7" unicode="&#x2a7;" horiz-adv-x="481" 
d="M548 712l-34 -54q-16 10 -28 15t-30 5q-24 0 -36 -14.5t-12 -47.5v-699q0 -61 -36.5 -95t-93.5 -34q-59 0 -102 37l37 53q16 -10 28.5 -14.5t29.5 -4.5q49 0 49 58v87q-49 -16 -95 -16q-144 0 -144 153v317h-71v69h71v119l88 11v-130h151v84q0 67 34 102.5t92 35.5
q57 0 102 -37zM320 73v385h-151v-318q0 -42 14.5 -60.5t52.5 -18.5q44 0 84 12z" />
    <glyph glyph-name="uni02A8" unicode="&#x2a8;" horiz-adv-x="641" 
d="M598 201q27 -27 27 -75q0 -64 -41 -101t-105 -37q-82 0 -133 56q-39 -29 -71.5 -42.5t-69.5 -13.5q-60 0 -92 35t-32 98v337h-71v69h71v119l88 11v-130h102l-9 -69h-93v-337q0 -30 12.5 -45t40.5 -15q23 0 43.5 6.5t48.5 23.5q-34 70 -34 168q0 132 53 205.5t144 73.5
q40 0 72 -13t62 -43l-40 -52q-23 19 -44.5 28t-46.5 9q-106 0 -106 -206q0 -68 13 -113q37 41 70 60.5t70 19.5q44 0 71 -27zM536.5 78.5q18.5 15.5 18.5 46.5q0 20 -9 31.5t-25 11.5q-21 0 -45 -16.5t-63 -56.5q27 -32 72 -32q33 0 51.5 15.5z" />
    <glyph glyph-name="uni02A9" unicode="&#x2a9;" horiz-adv-x="724" 
d="M621 497q34 -41 34 -110v-470q0 -61 -36.5 -95t-93.5 -34q-59 0 -102 37l37 53q16 -10 28.5 -14.5t29.5 -4.5q49 0 49 58v458q0 51 -14.5 72.5t-43.5 21.5q-57 0 -106 -98v-371h-88v458h-144v-458h-88v458h-73v69h73v83q0 62 37.5 100.5t105.5 38.5q55 0 107 -27l-26 -62
q-37 18 -74 18q-32 0 -47 -16t-15 -51v-84h220l7 -79q26 44 57 67t75 23q57 0 91 -41z" />
    <glyph glyph-name="uni02AA" unicode="&#x2aa;" horiz-adv-x="553" 
d="M123 37.5q-55 49.5 -55 135.5v566l88 10v-578q0 -54 33 -82t104 -28q73 0 107 21.5t34 65.5q0 34 -17 55t-70 41q-69 26 -95 60.5t-26 90.5q0 62 42.5 102.5t107.5 40.5q77 0 141 -59l-37 -53q-27 21 -51 31.5t-50 10.5q-30 0 -48 -19t-18 -52t17.5 -51.5t67.5 -37.5
q65 -25 95 -61.5t30 -91.5q0 -82 -61 -124.5t-173 -42.5q-111 0 -166 49.5z" />
    <glyph glyph-name="uni02AB" unicode="&#x2ab;" horiz-adv-x="551" 
d="M520 0h-302q-26 -12 -53 -12q-44 0 -70.5 28t-26.5 76v647l88 10v-655q0 -33 28 -33q11 0 23 5l227 386h-208v75h301v-68l-227 -385h229z" />
    <glyph glyph-name="uni02AC" unicode="&#x2ac;" horiz-adv-x="381" 
d="M356 665l-54 -265h-73l-37 197l-38 -197h-74l-55 265h62l33 -203l41 203h65l38 -204l34 204h58zM356 265l-54 -265h-73l-37 197l-38 -197h-74l-55 265h62l33 -203l41 203h65l38 -204l34 204h58z" />
    <glyph glyph-name="uni02AD" unicode="&#x2ad;" horiz-adv-x="294" 
d="M30 400v147h234v-147h-57v90h-120v-90h-57zM30 -1v147h234v-147h-57v90h-120v-90h-57z" />
    <glyph glyph-name="uni02AE" unicode="&#x2ae;" horiz-adv-x="567" 
d="M494 527v-739l-88 11v275q-25 -42 -54.5 -63.5t-72.5 -21.5q-57 0 -91 41t-34 110v271q0 58 -49 58q-17 0 -29.5 -4.5t-28.5 -14.5l-37 53q43 37 102 37q57 0 93.5 -34t36.5 -95v-259q0 -51 14.5 -72.5t43.5 -21.5q57 0 106 98v371h88z" />
    <glyph glyph-name="uni02AF" unicode="&#x2af;" horiz-adv-x="567" 
d="M638 -175q-43 -37 -102 -37q-57 0 -93.5 34t-36.5 95v157q-25 -42 -54.5 -63.5t-72.5 -21.5q-57 0 -91 41t-34 110v271q0 58 -49 58q-17 0 -29.5 -4.5t-28.5 -14.5l-37 53q43 37 102 37q57 0 93.5 -34t36.5 -95v-259q0 -51 14.5 -72.5t43.5 -21.5q57 0 106 98v371h88
v-610q0 -58 49 -58q17 0 29.5 4.5t28.5 14.5z" />
    <glyph glyph-name="uni02B0" unicode="&#x2b0;" horiz-adv-x="252" 
d="M209 652q18 -21 18 -59v-193h-61v179q0 37 -26 37q-14 0 -26 -8t-27 -24v-184h-62v372l62 8v-145q29 38 72 38q32 0 50 -21z" />
    <glyph glyph-name="uni02B1" unicode="&#x2b1;" horiz-adv-x="252" 
d="M209 652q18 -21 18 -59v-193h-61v179q0 37 -26 37q-15 0 -27.5 -8t-25.5 -24v-184h-62v294q0 37 23 60.5t64 23.5q16 0 33.5 -4t31.5 -11l-18 -49q-21 8 -40 8q-17 0 -24.5 -7t-7.5 -28v-52q29 38 72 38q32 0 50 -21z" />
    <glyph glyph-name="uni02B2" unicode="&#x2b2;" horiz-adv-x="170" 
d="M133.5 789.5q11.5 -11.5 11.5 -29.5t-12 -30t-30 -12t-30 12t-12 30t12 29.5t30 11.5q19 0 30.5 -11.5zM134 414q0 -52 -21.5 -77t-67.5 -45l-20 49q26 15 36.5 30t10.5 43v251h62v-251z" />
    <glyph glyph-name="uni02B4" unicode="&#x2b4;" horiz-adv-x="198" 
d="M173 666v-266h-47l-9 49q-10 -27 -25 -41.5t-40 -14.5q-17 0 -27 5l10 68q11 -3 22 -3q22 0 34.5 19.5t19.5 56.5v127h62z" />
    <glyph glyph-name="uni02B7" unicode="&#x2b7;" horiz-adv-x="381" 
d="M356 665l-54 -265h-73l-37 197l-38 -197h-74l-55 265h62l33 -203l41 203h65l38 -204l34 204h58z" />
    <glyph glyph-name="uni02B8" unicode="&#x2b8;" horiz-adv-x="283" 
d="M176 399q-16 -53 -43.5 -77t-80.5 -32l-7 47q35 10 49.5 22.5t23.5 40.5h-17l-76 265h65l50 -219l57 219h61z" />
    <glyph glyph-name="uni02B9" unicode="&#x2b9;" horiz-adv-x="263" 
d="M53 428l67 261h90l-94 -261h-63z" />
    <glyph glyph-name="uni02BA" unicode="&#x2ba;" horiz-adv-x="413" 
d="M53 428l67 261h90l-94 -261h-63zM203 428l67 261h90l-94 -261h-63z" />
    <glyph glyph-name="uni02BB" unicode="&#x2bb;" horiz-adv-x="181" 
d="M45 605q-15 17 -15 41q0 13 3.5 25.5t12.5 35.5l54 138h51l-34 -148q25 -19 25 -48q0 -26 -15.5 -43.5t-41.5 -17.5q-25 0 -40 17z" />
    <glyph glyph-name="uni02BC" unicode="&#x2bc;" horiz-adv-x="200" 
d="M143 734q15 -17 15 -41q0 -13 -3.5 -25.5t-12.5 -35.5l-54 -138h-51l34 148q-25 19 -25 48q0 26 15.5 43.5t41.5 17.5q25 0 40 -17z" />
    <glyph glyph-name="uni02BF" unicode="&#x2bf;" horiz-adv-x="158" 
d="M128 673q-20 0 -31 15t-11 42q0 26 11 41t31 15v48q-44 0 -71 -29.5t-27 -74.5q0 -47 27 -76t71 -29v48z" />
    <glyph glyph-name="uni02C0" unicode="&#x2c0;" horiz-adv-x="230" 
d="M73 704q32 5 45 13t13 30q0 39 -35 39q-22 0 -48 -13l-18 47q34 24 79 24q44 0 67.5 -24t23.5 -66q0 -36 -17.5 -57.5t-48.5 -27.5v-57h-61v92z" />
    <glyph glyph-name="circumflex" unicode="&#x2c6;" horiz-adv-x="340" 
d="M70 637l-35 38l112 116h56l112 -116l-36 -38l-104 84z" />
    <glyph glyph-name="caron" unicode="&#x2c7;" horiz-adv-x="340" 
d="M280 782l35 -39l-112 -115h-56l-112 115l35 39l105 -88z" />
    <glyph glyph-name="uni02C8" unicode="&#x2c8;" horiz-adv-x="141" 
d="M30 626v232h81v-232h-81z" />
    <glyph glyph-name="uni02CA" unicode="&#x2ca;" horiz-adv-x="264" 
d="M195 795l39 -70l-178 -86l-26 44z" />
    <glyph glyph-name="uni02CB" unicode="&#x2cb;" horiz-adv-x="264" 
d="M69 795l165 -112l-26 -44l-178 86z" />
    <glyph glyph-name="uni02CC" unicode="&#x2cc;" horiz-adv-x="141" 
d="M30 -303v232h81v-232h-81z" />
    <glyph glyph-name="uni02CE" unicode="&#x2ce;" horiz-adv-x="264" 
d="M66 -50l168 -105l-23 -48l-181 79z" />
    <glyph glyph-name="uni02CF" unicode="&#x2cf;" horiz-adv-x="264" 
d="M197 -50l37 -74l-181 -79l-23 48z" />
    <glyph glyph-name="uni02D0" unicode="&#x2d0;" horiz-adv-x="201" 
d="M91 336l-51 149h121l-51 -149h-19zM91 149h19l51 -149h-121z" />
    <glyph glyph-name="uni02D1" unicode="&#x2d1;" horiz-adv-x="201" 
d="M91 336l-51 149h121l-51 -149h-19z" />
    <glyph glyph-name="uni02D4" unicode="&#x2d4;" horiz-adv-x="346" 
d="M298 248v-57h-250v57h95v158h59v-158h96z" />
    <glyph glyph-name="uni02D6" unicode="&#x2d6;" horiz-adv-x="384" 
d="M226 463v-133h110v-65h-110v-131h-68v131h-110v65h110v133h68z" />
    <glyph glyph-name="uni02D7" unicode="&#x2d7;" horiz-adv-x="381" 
d="M48 267v64h285v-64h-285z" />
    <glyph glyph-name="breve" unicode="&#x2d8;" horiz-adv-x="314" 
d="M73.5 677.5q-33.5 33.5 -38.5 97.5l54 12q16 -77 72 -77q58 0 74 77l54 -12q-5 -64 -39 -97.5t-89 -33.5q-54 0 -87.5 33.5z" />
    <glyph glyph-name="dotaccent" unicode="&#x2d9;" horiz-adv-x="178" 
d="M139 760q16 -17 16 -44q0 -25 -16.5 -42t-42.5 -17t-42.5 17t-16.5 42q0 26 16.5 43.5t42.5 17.5q27 0 43 -17z" />
    <glyph glyph-name="ring" unicode="&#x2da;" horiz-adv-x="256" 
d="M204.5 806q26.5 -28 26.5 -76q0 -49 -26.5 -77t-71.5 -28t-71.5 28t-26.5 77q0 48 26.5 76t71.5 28t71.5 -28zM101 774.5q-11 -13.5 -11 -44.5q0 -32 11 -45.5t32 -13.5q43 0 43 59q0 31 -11 44.5t-32 13.5t-32 -13.5z" />
    <glyph glyph-name="ogonek" unicode="&#x2db;" horiz-adv-x="230" 
d="M233 0q-57 -30 -78 -57t-21 -60q0 -24 11 -36t36 -12q19 0 48 6l-7 -64q-30 -7 -53 -7q-49 0 -77.5 26.5t-28.5 73.5q0 54 39 93.5t118 68.5z" />
    <glyph glyph-name="tilde" unicode="&#x2dc;" horiz-adv-x="341" 
d="M192.5 667.5q-12.5 6.5 -31.5 19.5q-9 7 -19 12.5t-19 5.5q-13 0 -23 -10.5t-22 -34.5l-48 23q15 40 38 62.5t52 22.5q17 0 30 -6.5t29 -18.5q25 -19 39 -19q12 0 22 10t22 33l49 -22q-29 -84 -90 -84q-16 0 -28.5 6.5z" />
    <glyph glyph-name="hungarumlaut" unicode="&#x2dd;" horiz-adv-x="319" 
d="M96 827l68 -37l-82 -150l-49 22zM223 827l69 -37l-90 -155l-49 22z" />
    <glyph glyph-name="uni02DE" unicode="&#x2de;" horiz-adv-x="319" 
d="M156 346q-31 32 -31 89v20l-97 -63v73l94 62h79v-84q0 -58 50 -58q16 0 27 4.5t26 13.5l35 -51q-42 -38 -97 -38t-86 32z" />
    <glyph glyph-name="uni02E0" unicode="&#x2e0;" horiz-adv-x="287" 
d="M174 436q29 -50 29 -86q0 -27 -15 -43t-44 -16q-28 0 -44 15.5t-16 43.5q0 39 30 87l-87 228h66l51 -187l52 187h64zM153.5 374.5q-2.5 9.5 -9.5 25.5q-6 -13 -9 -24t-3 -23q0 -14 12 -14t12 14q0 12 -2.5 21.5z" />
    <glyph glyph-name="uni02E1" unicode="&#x2e1;" horiz-adv-x="150" 
d="M42 407.5q-17 16.5 -17 48.5v316l62 7v-313q0 -17 13 -17q5 0 13 2l12 -51q-18 -9 -38 -9q-28 0 -45 16.5z" />
    <glyph glyph-name="uni02E2" unicode="&#x2e2;" horiz-adv-x="251" 
d="M218 639l-28 -39q-15 11 -28 16t-30 5q-30 0 -30 -23q0 -13 8.5 -19t38.5 -17q42 -15 59.5 -33.5t17.5 -51.5q0 -38 -28 -62t-74 -24q-56 0 -99 39l31 38q18 -13 33 -19t35 -6q34 0 34 29q0 14 -9.5 22.5t-39.5 17.5q-37 12 -55 30.5t-18 49.5q0 35 26 58t68 23
q50 0 88 -34z" />
    <glyph glyph-name="uni02E3" unicode="&#x2e3;" horiz-adv-x="283" 
d="M179 542l79 -142h-68l-50 102l-49 -102h-66l79 140l-71 125h67l42 -87l40 87h65z" />
    <glyph glyph-name="uni02E4" unicode="&#x2e4;" horiz-adv-x="268" 
d="M112 400v145l-13 5q-37 14 -55 38t-18 70q0 54 34.5 87t86.5 33q27 0 50 -10.5t45 -32.5l-32 -41q-32 27 -62 27q-25 0 -40.5 -16.5t-15.5 -47.5t14 -45.5t45 -25.5l23 -8l1 -178h-63z" />
    <glyph glyph-name="uni02E5" unicode="&#x2e5;" horiz-adv-x="287" 
d="M195 0v624h-170v65h237v-689h-67z" />
    <glyph glyph-name="uni02E6" unicode="&#x2e6;" horiz-adv-x="287" 
d="M195 689h67v-689h-67v462h-170v65h170v162z" />
    <glyph glyph-name="uni02E7" unicode="&#x2e7;" horiz-adv-x="287" 
d="M195 689h67v-689h-67v312h-170v65h170v312z" />
    <glyph glyph-name="uni02E8" unicode="&#x2e8;" horiz-adv-x="287" 
d="M195 689h67v-689h-67v162h-170v65h170v462z" />
    <glyph glyph-name="uni02E9" unicode="&#x2e9;" horiz-adv-x="287" 
d="M195 689h67v-689h-237v64h170v625z" />
    <glyph glyph-name="uni02EE" unicode="&#x2ee;" horiz-adv-x="348" 
d="M132.5 730.5q13.5 -15.5 13.5 -37.5q0 -12 -3 -23t-11 -31l-49 -125h-46l31 134q-23 15 -23 43q0 23 14 39t38 16q22 0 35.5 -15.5zM292.5 730.5q13.5 -15.5 13.5 -37.5q0 -12 -3 -23t-11 -31l-49 -125h-46l31 134q-23 15 -23 43q0 23 14 39t38 16q22 0 35.5 -15.5z" />
    <glyph glyph-name="gravecomb" unicode="&#x300;" horiz-adv-x="0" 
d="M-195 795l165 -112l-26 -44l-178 86z" />
    <glyph glyph-name="acutecomb" unicode="&#x301;" horiz-adv-x="0" 
d="M-69 795l39 -70l-178 -86l-26 44z" />
    <glyph glyph-name="uni0302" unicode="&#x302;" horiz-adv-x="0" 
d="M-275 637l-35 38l112 116h56l112 -116l-36 -38l-104 84z" />
    <glyph glyph-name="tildecomb" unicode="&#x303;" horiz-adv-x="0" 
d="M-148.5 667.5q-12.5 6.5 -31.5 19.5q-9 7 -19 12.5t-19 5.5q-13 0 -23 -10.5t-22 -34.5l-48 23q15 40 38 62.5t52 22.5q17 0 30 -6.5t29 -18.5q25 -19 39 -19q12 0 22 10t22 33l49 -22q-29 -84 -90 -84q-16 0 -28.5 6.5z" />
    <glyph glyph-name="uni0304" unicode="&#x304;" horiz-adv-x="0" 
d="M-30 669h-228v64h228v-64z" />
    <glyph glyph-name="uni0306" unicode="&#x306;" horiz-adv-x="0" 
d="M-245.5 677.5q-33.5 33.5 -38.5 97.5l54 12q16 -77 72 -77q58 0 74 77l54 -12q-5 -64 -39 -97.5t-89 -33.5q-54 0 -87.5 33.5z" />
    <glyph glyph-name="uni0307" unicode="&#x307;" horiz-adv-x="0" 
d="M-46 760q16 -17 16 -44q0 -25 -16.5 -42t-42.5 -17t-42.5 17t-16.5 42q0 26 16.5 43.5t42.5 17.5q27 0 43 -17z" />
    </font>
</defs>
</svg>
