<?xml version="1.0" standalone="no"?>
<!DOCTYPE svg PUBLIC "-//W3C//DTD SVG 1.1//EN" "http://www.w3.org/Graphics/SVG/1.1/DTD/svg11.dtd" >
<svg xmlns="http://www.w3.org/2000/svg" xmlns:xlink="http://www.w3.org/1999/xlink" version="1.1">
<metadata>
Created by FontForge 20170731 at Tue Dec  6 15:27:44 2016
 By Aleksey,,,
Digitized data copyright 2012-2016, The Mozilla Foundation and Telefonica S.A.
</metadata>
<defs>
<font id="FiraSansExtraCondensed-Thin" horiz-adv-x="460" >
  <font-face 
    font-family="Fira Sans Extra Condensed Thin"
    font-weight="250"
    font-stretch="ultra-condensed"
    units-per-em="1000"
    panose-1="2 11 3 3 5 0 0 2 0 4"
    ascent="800"
    descent="-200"
    x-height="519"
    cap-height="681"
    bbox="-588 -350 1360 1050"
    underline-thickness="50"
    underline-position="-150"
    unicode-range="U+000D-FEFF"
  />
<missing-glyph horiz-adv-x="666" 
d="M543 1050v-1400h-420v1400h420zM504 1012h-341v-1324h341v1324zM409.5 419q25.5 -32 25.5 -83q0 -53 -22.5 -82t-72.5 -36v-45q0 -11 -7.5 -17.5t-17.5 -6.5t-17.5 6.5t-7.5 17.5v84q53 3 72 19.5t19 57.5q0 33 -13 51t-48 18q-29 0 -52 -11q-8 -3 -13 -3
q-11 0 -17.5 6.5t-6.5 16.5q0 19 29.5 29t63.5 10q60 0 85.5 -32zM340 110q10 -10 10 -25q0 -16 -10 -26.5t-25 -10.5t-25 10.5t-10 26.5q0 15 10 25t25 10t25 -10z" />
    <glyph glyph-name="fi" unicode="fi" horiz-adv-x="452" 
d="M321 699l-10 -17q-55 34 -106 34q-43 0 -64 -21t-21 -74v-102h236v-519h-22v499h-214v-499h-22v499h-73v20h73v107q0 111 107 111q58 0 116 -38z" />
    <glyph glyph-name="fl" unicode="fl" horiz-adv-x="472" 
d="M437 0q-22 -10 -40 -10q-28 0 -45 18.5t-17 52.5v628q-34 14 -62 20.5t-60 6.5q-47 0 -70 -22.5t-23 -69.5v-105h119l-3 -20h-116v-499h-22v499h-73v20h73v108q0 52 30.5 81t83.5 29q33 0 61 -7t63 -21l21 3v-651q0 -24 10.5 -37.5t31.5 -13.5q14 0 31 7z" />
    <glyph glyph-name=".notdef" horiz-adv-x="666" 
d="M543 1050v-1400h-420v1400h420zM504 1012h-341v-1324h341v1324zM409.5 419q25.5 -32 25.5 -83q0 -53 -22.5 -82t-72.5 -36v-45q0 -11 -7.5 -17.5t-17.5 -6.5t-17.5 6.5t-7.5 17.5v84q53 3 72 19.5t19 57.5q0 33 -13 51t-48 18q-29 0 -52 -11q-8 -3 -13 -3
q-11 0 -17.5 6.5t-6.5 16.5q0 19 29.5 29t63.5 10q60 0 85.5 -32zM340 110q10 -10 10 -25q0 -16 -10 -26.5t-25 -10.5t-25 10.5t-10 26.5q0 15 10 25t25 10t25 -10z" />
    <glyph glyph-name=".null" horiz-adv-x="0" 
 />
    <glyph glyph-name="nonmarkingreturn" unicode="&#xd;" horiz-adv-x="241" 
 />
    <glyph glyph-name="space" unicode=" " horiz-adv-x="241" 
 />
    <glyph glyph-name="exclam" unicode="!" horiz-adv-x="216" 
d="M119 681l-1 -479h-20l-1 479h22zM124.5 30q6.5 -7 6.5 -16t-6.5 -15.5t-16.5 -6.5t-16.5 6.5t-6.5 15.5t6.5 16t16.5 7t16.5 -7z" />
    <glyph glyph-name="quotedbl" unicode="&#x22;" horiz-adv-x="305" 
d="M75 441l-2 240h22l-3 -240h-17zM213 441l-2 240h22l-3 -240h-17z" />
    <glyph glyph-name="numbersign" unicode="#" horiz-adv-x="401" 
d="M389 459h-65l-32 -239h67v-20h-69l-27 -200h-21l26 200h-170l-26 -200h-21l26 200h-65v20h68l31 239h-69v20h72l24 183h21l-24 -183h170l24 183h22l-24 -183h62v-20zM271 220l31 239h-170l-31 -239h170z" />
    <glyph glyph-name="dollar" unicode="$" horiz-adv-x="430" 
d="M332 48q-43 -52 -110 -57v-137h-20v136q-50 1 -87.5 21t-71.5 58l14 14q34 -36 68 -54.5t81 -18.5q66 0 106.5 46.5t40.5 118.5q0 67 -31 104t-109 68q-83 32 -116.5 70.5t-33.5 100.5q0 61 39 105t101 48v140h20v-140q43 -2 74.5 -19t60.5 -49l-14 -14q-31 32 -61 46.5
t-70 14.5q-57 0 -92 -38t-35 -94q0 -57 29.5 -90.5t105.5 -62.5q82 -31 118 -73t36 -116q0 -76 -43 -128z" />
    <glyph glyph-name="percent" unicode="%" horiz-adv-x="639" 
d="M503 695l18 -9l-378 -701l-18 9zM250 633q30 -40 30 -114q0 -75 -29.5 -116.5t-82.5 -41.5q-51 0 -81.5 41t-30.5 114q0 75 29.5 116t82.5 41q52 0 82 -40zM100.5 617.5q-22.5 -36.5 -22.5 -101.5q0 -63 23 -99.5t67 -36.5q45 0 67.5 37t22.5 102q0 63 -22.5 99t-67.5 36
t-67.5 -36.5zM552.5 262q30.5 -40 30.5 -114q0 -75 -29.5 -116.5t-82.5 -41.5q-52 0 -82 41t-30 114q0 75 29.5 116t82.5 41q51 0 81.5 -40zM402.5 246.5q-22.5 -36.5 -22.5 -101.5q0 -63 22.5 -99.5t68.5 -36.5q45 0 67.5 37t22.5 102q0 63 -22.5 99t-67.5 36
q-46 0 -68.5 -36.5z" />
    <glyph glyph-name="ampersand" unicode="&#x26;" horiz-adv-x="588" 
d="M342.5 652.5q33.5 -39.5 33.5 -104.5q0 -57 -31.5 -97.5t-102.5 -89.5l191 -221q39 94 58 212l21 -4q-20 -123 -65 -222l105 -121l-16 -12l-100 114q-33 -56 -77.5 -86.5t-106.5 -30.5q-71 0 -117 47.5t-46 127.5q0 66 30 111.5t91 88.5q-48 57 -66.5 92.5t-18.5 86.5
q0 67 35.5 107.5t92.5 40.5q56 0 89.5 -39.5zM176 637q-29 -35 -29 -92q0 -43 15.5 -75.5t65.5 -93.5q67 44 96.5 82t29.5 90q0 59 -28 91.5t-73 32.5q-48 0 -77 -35zM139.5 269q-27.5 -44 -27.5 -104q0 -69 39 -111.5t101 -42.5q57 0 97 27.5t72 82.5l-197 230
q-57 -38 -84.5 -82z" />
    <glyph glyph-name="quotesingle" unicode="'" horiz-adv-x="167" 
d="M75 441l-2 240h22l-3 -240h-17z" />
    <glyph glyph-name="parenleft" unicode="(" horiz-adv-x="266" 
d="M212 820q-47 -84 -73.5 -143.5t-44 -140t-17.5 -186.5t17.5 -186.5t44 -140t73.5 -143.5l-15 -9q-48 81 -76.5 143.5t-47 145.5t-18.5 190t18.5 190t47 145.5t76.5 143.5z" />
    <glyph glyph-name="parenright" unicode=")" horiz-adv-x="266" 
d="M145.5 685.5q28.5 -62.5 47 -145.5t18.5 -190t-18.5 -190t-47 -145.5t-76.5 -143.5l-15 9q47 84 73.5 143.5t44 140t17.5 186.5t-17.5 186.5t-44 140t-73.5 143.5l15 9q48 -81 76.5 -143.5z" />
    <glyph glyph-name="asterisk" unicode="*" horiz-adv-x="365" 
d="M321 603l-126 -46l79 -126l-17 -11l-74 126l-75 -126l-17 11l79 125l-126 47l8 19l122 -51l-2 161h21l-1 -160l121 50z" />
    <glyph glyph-name="plus" unicode="+" horiz-adv-x="398" 
d="M211 493v-152h124v-21h-124v-152h-22v152h-126v21h126v152h22z" />
    <glyph glyph-name="comma" unicode="," horiz-adv-x="157" 
d="M97.5 31q6.5 -6 6.5 -16q0 -11 -9 -33l-38 -112h-16l32 123q-15 7 -15 21q0 10 7 16.5t16 6.5q10 0 16.5 -6z" />
    <glyph glyph-name="hyphen" unicode="-" horiz-adv-x="328" 
d="M63 302v21h202v-21h-202z" />
    <glyph glyph-name="period" unicode="." horiz-adv-x="151" 
d="M92 30q6 -7 6 -16t-6 -15.5t-16 -6.5t-16.5 6.5t-6.5 15.5t6.5 16t16.5 7t16 -7z" />
    <glyph glyph-name="slash" unicode="/" horiz-adv-x="426" 
d="M298 798l20 -5l-191 -888l-20 5z" />
    <glyph glyph-name="zero" unicode="0" horiz-adv-x="455" 
d="M348 590q40 -83 40 -260q0 -175 -40 -257.5t-120 -82.5q-81 0 -121.5 83.5t-40.5 258.5t40.5 258t121.5 83q80 0 120 -83zM124 575q-35 -77 -35 -243q0 -167 34.5 -244t104.5 -77q69 0 103.5 76.5t34.5 242.5q0 168 -34.5 245t-103.5 77t-104 -77z" />
    <glyph glyph-name="one" unicode="1" horiz-adv-x="325" 
d="M212 661v-661h-22v634l-140 -109l-12 17l156 119h18z" />
    <glyph glyph-name="two" unicode="2" horiz-adv-x="372" 
d="M273 628.5q37 -44.5 37 -115.5q0 -66 -22.5 -125.5t-72.5 -136t-162 -229.5h270l-4 -22h-292v21q114 154 166 233.5t73.5 137t21.5 121.5t-31 101.5t-85 37.5q-42 0 -73.5 -20t-59.5 -60l-16 11q32 46 67.5 68t81.5 22q64 0 101 -44.5z" />
    <glyph glyph-name="three" unicode="3" horiz-adv-x="391" 
d="M280.5 628.5q37.5 -44.5 37.5 -117.5q0 -70 -33 -109t-87 -49q61 -5 98 -47t37 -122q0 -88 -43.5 -141t-114.5 -53q-50 0 -85 20t-67 63l15 11q31 -40 62 -57t74 -17q63 0 100 47t37 126q0 80 -39.5 119.5t-107.5 39.5h-32l2 20h29q34 0 65 16t50 50t19 83q0 66 -32 104
t-87 38q-36 0 -66 -15t-60 -49l-14 11q31 38 65 55.5t75 17.5q65 0 102.5 -44.5z" />
    <glyph glyph-name="four" unicode="4" horiz-adv-x="414" 
d="M382 207v-20h-76v-187h-21v187h-244v18l169 468l19 -7l-165 -459h221l3 211h18v-211h76z" />
    <glyph glyph-name="five" unicode="5" horiz-adv-x="390" 
d="M321 641h-229v-265q44 39 101 39q70 0 109.5 -53t39.5 -148q0 -102 -43.5 -163t-118.5 -61q-88 0 -145 75l16 13q26 -34 57 -50.5t73 -16.5q65 0 102 54.5t37 148.5q0 89 -34.5 134.5t-94.5 45.5q-29 0 -53 -9.5t-50 -30.5h-17v307h254z" />
    <glyph glyph-name="six" unicode="6" horiz-adv-x="429" 
d="M338.5 375.5q38.5 -51.5 38.5 -153.5q0 -114 -39.5 -173t-107.5 -59q-86 0 -125 80t-39 218q0 184 49.5 284.5t137.5 100.5q27 0 49 -9.5t43 -27.5l-13 -16q-35 32 -80 32q-76 0 -119 -90.5t-45 -248.5q60 114 149 114q63 0 101.5 -51.5zM323 65.5q32 54.5 32 155.5
q0 93 -32 139t-86 46q-89 0 -149 -127q3 -268 142 -268q61 0 93 54.5z" />
    <glyph glyph-name="seven" unicode="7" horiz-adv-x="356" 
d="M321 661v-18l-224 -649l-21 8l222 639h-267v20h290z" />
    <glyph glyph-name="eight" unicode="8" horiz-adv-x="437" 
d="M355 272.5q29 -38.5 29 -105.5q0 -84 -45 -130.5t-121 -46.5q-77 0 -121 47t-44 131q0 136 129 195q-57 28 -81 61.5t-24 88.5q0 76 41 118t101 42q61 0 101.5 -40.5t40.5 -120.5q0 -55 -24.5 -93t-80.5 -74q70 -34 99 -72.5zM120.5 431.5q21.5 -30.5 83.5 -60.5l35 -18
q53 33 76.5 69.5t23.5 89.5q0 71 -33 106t-87 35q-53 0 -86.5 -35.5t-33.5 -104.5q0 -51 21.5 -81.5zM323 50q39 39 39 117q0 45 -13 74.5t-40.5 50.5t-76.5 45l-33 15q-65 -30 -94.5 -74t-29.5 -110q0 -78 38.5 -117.5t104.5 -39.5t105 39z" />
    <glyph glyph-name="nine" unicode="9" horiz-adv-x="420" 
d="M322.5 604.5q37.5 -68.5 37.5 -207.5q0 -121 -29.5 -201t-85 -129t-142.5 -82l-7 18q78 31 129.5 74.5t80.5 113t32 171.5q-55 -107 -141 -107q-66 0 -107 54t-41 150q0 103 42.5 158.5t113.5 55.5q80 0 117.5 -68.5zM275 305.5q34 29.5 63 87.5q0 133 -31 196t-101 63
q-62 0 -97.5 -48.5t-35.5 -145.5q0 -88 33.5 -135t90.5 -47q44 0 78 29.5z" />
    <glyph glyph-name="colon" unicode=":" horiz-adv-x="151" 
d="M92 30q6 -7 6 -16t-6 -15.5t-16 -6.5t-16.5 6.5t-6.5 15.5t6.5 16t16.5 7t16 -7zM92 445q6 -7 6 -16t-6 -15.5t-16 -6.5t-16.5 6.5t-6.5 15.5t6.5 16t16.5 7t16 -7z" />
    <glyph glyph-name="semicolon" unicode=";" horiz-adv-x="157" 
d="M97.5 31q6.5 -6 6.5 -16q0 -11 -9 -33l-38 -112h-16l32 123q-15 7 -15 21q0 10 7 16.5t16 6.5q10 0 16.5 -6zM92 445q6 -7 6 -16t-6 -15.5t-16 -6.5t-16.5 6.5t-6.5 15.5t6.5 16t16.5 7t16 -7z" />
    <glyph glyph-name="less" unicode="&#x3c;" horiz-adv-x="405" 
d="M331 502l12 -17l-260 -152l260 -156l-11 -18l-270 166v16z" />
    <glyph glyph-name="equal" unicode="=" horiz-adv-x="398" 
d="M63 400v20h272v-20h-272zM63 242v20h272v-20h-272z" />
    <glyph glyph-name="greater" unicode="&#x3e;" horiz-adv-x="405" 
d="M74 502l269 -161v-16l-270 -166l-11 18l260 156l-260 152z" />
    <glyph glyph-name="question" unicode="?" horiz-adv-x="375" 
d="M289 652.5q35 -38.5 35 -97.5q0 -48 -18 -76t-55 -61q-25 -22 -40.5 -39.5t-26 -44t-10.5 -63.5v-69h-21v71q0 40 11 68.5t26.5 46.5t41.5 40q35 30 52.5 56.5t17.5 70.5q0 53 -29 84.5t-78 31.5q-40 0 -69.5 -18.5t-58.5 -58.5l-16 12q30 44 64.5 64.5t79.5 20.5
q59 0 94 -38.5zM179.5 30q6.5 -7 6.5 -16t-6.5 -15.5t-16.5 -6.5t-16 6.5t-6 15.5t6 16t16 7t16.5 -7z" />
    <glyph glyph-name="at" unicode="@" horiz-adv-x="846" 
d="M613 641.5q73 -50.5 110.5 -137.5t37.5 -195q0 -158 -38.5 -226t-96.5 -68q-42 0 -66.5 31t-31.5 86q-40 -115 -122 -115q-60 0 -97.5 55.5t-37.5 159.5q0 121 46.5 183t117.5 62q52 0 108 -33v-260q0 -75 21 -112.5t62 -37.5q49 0 80.5 62.5t31.5 211.5q0 105 -34.5 187
t-102.5 129t-164 47t-171 -56.5t-116.5 -154t-41.5 -216.5q0 -136 41 -230.5t115 -142t171 -47.5q81 0 151 31l6 -19q-37 -16 -74 -24.5t-83 -8.5q-102 0 -181 50.5t-124 150t-45 240.5q0 125 44 227.5t124.5 161.5t183.5 59t176 -50.5zM478 73q30 36 44 95v265
q-23 11 -43 17t-43 6q-65 0 -103.5 -58t-38.5 -166q0 -96 30 -145.5t83 -49.5q41 0 71 36z" />
    <glyph glyph-name="A" unicode="A" horiz-adv-x="470" 
d="M420 0l-57 203h-257l-57 -203h-21l193 681h28l194 -681h-23zM112 224h245l-122 439z" />
    <glyph glyph-name="B" unicode="B" horiz-adv-x="482" 
d="M392 311.5q41 -43.5 41 -127.5q0 -91 -52 -137.5t-146 -46.5h-135v681h107q96 0 147 -43.5t51 -124.5q0 -63 -32 -102t-92 -50q70 -6 111 -49.5zM122 660v-290h116q68 0 105.5 39.5t37.5 102.5q0 72 -43 110t-127 38h-89zM364.5 61q45.5 40 45.5 123q0 82 -43.5 124
t-124.5 42h-120v-329h114q83 0 128.5 40z" />
    <glyph glyph-name="C" unicode="C" horiz-adv-x="443" 
d="M356 676.5q31 -14.5 60 -43.5l-13 -15q-29 27 -55.5 39.5t-63.5 12.5q-89 0 -143.5 -80.5t-54.5 -249.5q0 -163 53.5 -245.5t141.5 -82.5q42 0 70 14.5t57 41.5l14 -15q-59 -63 -141 -63q-64 0 -113.5 39t-77 117.5t-27.5 193.5q0 119 28.5 197.5t77.5 116t113 37.5
q43 0 74 -14.5z" />
    <glyph glyph-name="D" unicode="D" horiz-adv-x="510" 
d="M378.5 609q68.5 -72 68.5 -261q0 -193 -70 -270.5t-172 -77.5h-105v681h101q109 0 177.5 -72zM122 660v-639h84q94 0 155.5 72.5t61.5 254.5t-62 247t-160 65h-79z" />
    <glyph glyph-name="E" unicode="E" horiz-adv-x="407" 
d="M365 681l-3 -21h-240v-290h208v-21h-208v-328h249v-21h-271v681h265z" />
    <glyph glyph-name="F" unicode="F" horiz-adv-x="388" 
d="M100 0v681h261l-3 -21h-236v-304h204v-21h-204v-335h-22z" />
    <glyph glyph-name="G" unicode="G" horiz-adv-x="498" 
d="M360.5 677q32.5 -14 65.5 -45l-14 -15q-30 28 -59.5 40.5t-66.5 12.5q-53 0 -98 -31.5t-73.5 -104.5t-28.5 -189q0 -172 53.5 -252.5t148.5 -80.5q39 0 70 10.5t59 30.5v280h-118l-3 21h143v-313q-71 -51 -149 -51q-107 0 -167 87t-60 268q0 120 31.5 197.5t82 113
t109.5 35.5q42 0 74.5 -14z" />
    <glyph glyph-name="H" unicode="H" horiz-adv-x="542" 
d="M420 0v349h-298v-349h-22v681h22v-311h298v311h23v-681h-23z" />
    <glyph glyph-name="I" unicode="I" horiz-adv-x="222" 
d="M122 681v-681h-22v681h22z" />
    <glyph glyph-name="J" unicode="J" horiz-adv-x="229" 
d="M134 87q0 -52 -9 -84t-32.5 -55.5t-68.5 -47.5l-6 16q39 23 58.5 44.5t27.5 50.5t8 78v592h22v-594z" />
    <glyph glyph-name="K" unicode="K" horiz-adv-x="433" 
d="M122 681v-681h-22v681h22zM407 681l-255 -314l268 -367h-26l-269 367l256 314h26z" />
    <glyph glyph-name="L" unicode="L" horiz-adv-x="375" 
d="M122 681v-659h236l-3 -22h-255v681h22z" />
    <glyph glyph-name="M" unicode="M" horiz-adv-x="628" 
d="M564 0h-21l-32 345q-17 190 -26 315l-160 -576h-22l-162 576q-3 -42 -13 -149l-13 -157l-29 -354h-22l60 681h33l157 -569l156 569h33z" />
    <glyph glyph-name="N" unicode="N" horiz-adv-x="544" 
d="M444 0h-29l-296 655q3 -102 3 -178v-477h-22v681h29l296 -655q0 14 -1 22q-2 80 -2 157v476h22v-681z" />
    <glyph glyph-name="O" unicode="O" horiz-adv-x="565" 
d="M444.5 603q58.5 -88 58.5 -263q0 -172 -57.5 -261t-162.5 -89q-102 0 -161 89t-59 260q0 172 59.5 262t160.5 90q103 0 161.5 -88zM139 587q-53 -83 -53 -248q0 -163 53 -245t144 -82q95 0 145.5 81.5t50.5 246.5q0 167 -51.5 248.5t-144.5 81.5q-91 0 -144 -83z" />
    <glyph glyph-name="P" unicode="P" horiz-adv-x="454" 
d="M358 633.5q55 -47.5 55 -149.5q0 -105 -58.5 -153.5t-174.5 -48.5h-58v-282h-22v681h83q120 0 175 -47.5zM338.5 345q51.5 42 51.5 138q0 94 -48.5 135.5t-158.5 41.5h-61v-357h60q105 0 156.5 42z" />
    <glyph glyph-name="Q" unicode="Q" horiz-adv-x="565" 
d="M441.5 -11.5q43.5 -15.5 78.5 -52.5l-17 -17q-41 42 -90 57.5t-130 15.5q-102 0 -161 88t-59 259q0 115 27.5 194t77 118.5t115.5 39.5q103 0 161.5 -88t58.5 -263q0 -293 -161 -334q56 -2 99.5 -17.5zM139 94q53 -82 144 -82q95 0 145.5 81.5t50.5 246.5
q0 167 -51.5 248.5t-144.5 81.5q-91 0 -144 -83t-53 -248q0 -163 53 -245z" />
    <glyph glyph-name="R" unicode="R" horiz-adv-x="471" 
d="M411 0l-155 326q-24 -2 -36 -2h-98v-324h-22v681h107q107 0 155 -45.5t48 -131.5q0 -71 -34.5 -115.5t-97.5 -58.5l158 -330h-25zM386 504q0 78 -41 117t-140 39h-83v-315h94q170 0 170 159z" />
    <glyph glyph-name="S" unicode="S" horiz-adv-x="440" 
d="M301 673.5q34 -17.5 66 -51.5l-14 -14q-31 32 -62 47t-73 15q-58 0 -94.5 -39t-36.5 -97t30.5 -92.5t108.5 -64.5q85 -33 122 -76t37 -119q0 -54 -22 -98t-61.5 -69t-89.5 -25q-53 0 -93 21t-76 61l15 13q33 -36 68.5 -54.5t84.5 -18.5q68 0 109.5 47.5t41.5 121.5
q0 70 -32 107.5t-112 69.5q-85 34 -119.5 73t-34.5 103q0 42 19.5 78t54.5 57.5t80 21.5q49 0 83 -17.5z" />
    <glyph glyph-name="T" unicode="T" horiz-adv-x="392" 
d="M381 681l-2 -21h-171v-660h-23v660h-172v21h368z" />
    <glyph glyph-name="U" unicode="U" horiz-adv-x="523" 
d="M433 172q0 -80 -43 -131t-128 -51q-87 0 -129.5 51t-42.5 131v509h22v-507q0 -73 37 -117.5t113 -44.5t112.5 45t36.5 117v507h22v-509z" />
    <glyph glyph-name="V" unicode="V" horiz-adv-x="451" 
d="M423 681l-184 -681h-27l-184 681h23l175 -659l175 659h22z" />
    <glyph glyph-name="W" unicode="W" horiz-adv-x="658" 
d="M624 681l-130 -681h-28l-137 659l-137 -659h-28l-130 681h23l121 -657l137 657h28l137 -657l122 657h22z" />
    <glyph glyph-name="X" unicode="X" horiz-adv-x="400" 
d="M212 370l176 -370h-24l-166 355l-162 -355h-24l172 369l-152 312h24l142 -297l141 297h23z" />
    <glyph glyph-name="Y" unicode="Y" horiz-adv-x="408" 
d="M391 681l-174 -411v-270h-23v270l-178 411h25l165 -389l162 389h23z" />
    <glyph glyph-name="Z" unicode="Z" horiz-adv-x="418" 
d="M377 681v-19l-320 -640h311l-3 -22h-332v21l321 639h-290v21h313z" />
    <glyph glyph-name="bracketleft" unicode="[" horiz-adv-x="257" 
d="M191 796v-18h-88v-866h88v-18h-109v902h109z" />
    <glyph glyph-name="backslash" unicode="\" horiz-adv-x="426" 
d="M127 798l191 -888l-20 -5l-191 888z" />
    <glyph glyph-name="bracketright" unicode="]" horiz-adv-x="257" 
d="M175 796v-902h-109v18h88v866h-88v18h109z" />
    <glyph glyph-name="asciicircum" unicode="^" horiz-adv-x="432" 
d="M223 823l146 -296h-28l-127 269l-127 -269h-27l146 296h17z" />
    <glyph glyph-name="underscore" unicode="_" horiz-adv-x="431" 
d="M36 -100v21h360v-21h-360z" />
    <glyph glyph-name="grave" unicode="`" horiz-adv-x="215" 
d="M48 759l144 -91l-10 -14l-147 84z" />
    <glyph glyph-name="a" unicode="a" horiz-adv-x="434" 
d="M347.5 35q8.5 -20 29.5 -29l-5 -16q-27 10 -39.5 32t-13.5 64q-24 -48 -56.5 -72t-78.5 -24q-61 0 -96 42.5t-35 111.5q0 79 47 121.5t131 42.5h86v69q0 65 -24.5 98.5t-79.5 33.5q-56 0 -121 -31l-8 17q66 34 130 34q125 0 125 -150v-283q0 -41 8.5 -61zM317 120v168
h-84q-77 0 -116.5 -36.5t-39.5 -107.5q0 -63 28.5 -98t78.5 -35q90 0 133 109z" />
    <glyph glyph-name="b" unicode="b" horiz-adv-x="464" 
d="M367 463q39 -66 39 -199q0 -134 -40.5 -204t-117.5 -70q-78 0 -131 88l-2 -78h-19v733l22 3v-297q55 90 137 90q73 0 112 -66zM348 74q34 63 34 190q0 245 -129 245q-44 0 -75 -25t-60 -74v-303q54 -96 129 -96q67 0 101 63z" />
    <glyph glyph-name="c" unicode="c" horiz-adv-x="375" 
d="M293 517q26 -12 51 -38l-13 -14q-42 44 -98 44q-70 0 -110.5 -62t-40.5 -190q0 -125 40.5 -185.5t109.5 -60.5q58 0 104 46l12 -13q-51 -54 -115 -54q-81 0 -127.5 67t-46.5 200q0 134 46.5 203t127.5 69q34 0 60 -12z" />
    <glyph glyph-name="d" unicode="d" horiz-adv-x="468" 
d="M373 733v-733h-20l-2 88q-46 -98 -133 -98q-74 0 -116.5 69.5t-42.5 198.5q0 126 44.5 198.5t122.5 72.5t125 -82v289zM295.5 39.5q31.5 28.5 55.5 84.5v291q-46 94 -125 94q-66 0 -105 -64.5t-39 -182.5q0 -123 36 -187t100 -64q46 0 77.5 28.5z" />
    <glyph glyph-name="e" unicode="e" horiz-adv-x="433" 
d="M378 246h-297q3 -119 43 -177t106 -58q36 0 63 13t55 41l14 -14q-30 -30 -61 -45.5t-70 -15.5q-80 0 -126 68t-46 197q0 133 44.5 203.5t121.5 70.5t116 -64t39 -181q0 -16 -2 -38zM358 292q0 103 -33 160t-100 57q-64 0 -103.5 -60.5t-40.5 -183.5h276q1 8 1 27z" />
    <glyph glyph-name="f" unicode="f" horiz-adv-x="253" 
d="M142.5 694q-22.5 -22 -22.5 -70v-105h120l-4 -20h-116v-499h-22v499h-73v20h73v108q0 52 28.5 81t75.5 29q50 0 96 -31l-10 -17q-22 14 -41.5 20.5t-42.5 6.5q-39 0 -61.5 -22z" />
    <glyph glyph-name="g" unicode="g" horiz-adv-x="402" 
d="M389 526q-41 -14 -127 -15q41 -15 63.5 -54.5t22.5 -100.5q0 -79 -38.5 -122.5t-106.5 -43.5q-30 0 -62 14q-42 -30 -42 -75q0 -66 90 -66h52q65 0 101 -32.5t36 -87.5q0 -64 -43.5 -102t-128.5 -38q-90 0 -130.5 33t-40.5 106h21q1 -64 35 -91t115 -27q76 0 112.5 32
t36.5 86q0 48 -30 74.5t-86 26.5h-52q-55 0 -82 22.5t-27 60.5q0 51 46 85q-72 45 -72 147q0 80 40 125.5t109 45.5q83 0 116.5 4.5t64.5 16.5zM107 469q-32 -40 -32 -111t36 -109.5t92 -38.5q58 0 90.5 37t32.5 109t-33.5 112.5t-92.5 40.5q-61 0 -93 -40z" />
    <glyph glyph-name="h" unicode="h" horiz-adv-x="477" 
d="M357 489.5q29 -39.5 29 -110.5v-379h-22v377q0 64 -23.5 98t-70.5 34t-84 -33t-68 -95v-381h-22v733l22 3v-323q64 116 154 116q56 0 85 -39.5z" />
    <glyph glyph-name="i" unicode="i" horiz-adv-x="213" 
d="M118 519v-519h-22v519h22zM120.5 718q5.5 -6 5.5 -14t-5.5 -13.5t-13.5 -5.5q-9 0 -14.5 5.5t-5.5 13.5t5.5 14t14.5 6q8 0 13.5 -6z" />
    <glyph glyph-name="j" unicode="j" horiz-adv-x="213" 
d="M118 -25q0 -47 -10 -77t-30 -50.5t-55 -42.5l-9 16q46 29 64 60.5t18 94.5v543h22v-544zM119.5 718q5.5 -6 5.5 -14t-5.5 -13.5t-13.5 -5.5q-9 0 -14.5 5.5t-5.5 13.5t5.5 14t14.5 6q8 0 13.5 -6z" />
    <glyph glyph-name="k" unicode="k" horiz-adv-x="382" 
d="M118 736v-736h-22v733zM349 519l-201 -235l221 -284h-26l-220 284l200 235h26z" />
    <glyph glyph-name="l" unicode="l" horiz-adv-x="227" 
d="M107.5 8.5q-16.5 18.5 -16.5 52.5v672l22 3v-675q0 -51 41 -51q14 0 31 7l7 -17q-22 -10 -40 -10q-28 0 -44.5 18.5z" />
    <glyph glyph-name="m" unicode="m" horiz-adv-x="696" 
d="M577 488.5q28 -40.5 28 -109.5v-379h-22v377q0 62 -22.5 97t-64.5 35q-77 0 -135 -125v-384h-22v378q0 62 -22.5 96.5t-63.5 34.5q-77 0 -135 -125v-384h-22v519h19l2 -102q55 112 136 112q44 0 71.5 -30.5t34.5 -85.5q55 116 138 116q52 0 80 -40.5z" />
    <glyph glyph-name="n" unicode="n" horiz-adv-x="477" 
d="M357 489.5q29 -39.5 29 -110.5v-379h-22v377q0 64 -23.5 98t-70.5 34q-88 0 -152 -128v-381h-22v519h19l2 -105q30 56 67.5 85.5t87.5 29.5q56 0 85 -39.5z" />
    <glyph glyph-name="o" unicode="o" 
d="M356.5 462.5q44.5 -66.5 44.5 -200.5q0 -135 -45.5 -203.5t-126.5 -68.5t-125.5 68.5t-44.5 200.5q0 134 46 202t126 68q81 0 125.5 -66.5zM121 447q-40 -62 -40 -188q0 -124 38.5 -186t109.5 -62q72 0 111 62t39 189q0 125 -38.5 186t-109.5 61q-70 0 -110 -62z" />
    <glyph glyph-name="p" unicode="p" horiz-adv-x="464" 
d="M367 463.5q39 -65.5 39 -199.5t-41 -204t-116 -70q-42 0 -75 23.5t-56 62.5v-268l-22 -4v715h19l2 -81q55 91 137 91q74 0 113 -65.5zM347.5 74.5q34.5 63.5 34.5 189.5q0 245 -128 245q-43 0 -75 -25.5t-61 -73.5v-304q55 -95 130 -95q65 0 99.5 63.5z" />
    <glyph glyph-name="q" unicode="q" horiz-adv-x="468" 
d="M373 519v-715l-22 4v277q-47 -95 -130 -95q-75 0 -118.5 70t-43.5 198q0 126 44 198.5t122 72.5q82 0 126 -81l3 71h19zM295.5 38.5q31.5 27.5 55.5 78.5v299q-46 93 -126 93q-65 0 -104 -64.5t-39 -182.5q0 -122 36.5 -186.5t101.5 -64.5q44 0 75.5 27.5z" />
    <glyph glyph-name="r" unicode="r" horiz-adv-x="299" 
d="M284 523l-4 -18q-18 5 -36 5q-47 0 -76.5 -38.5t-49.5 -120.5v-351h-22v519h19l1 -119q19 67 49.5 98t78.5 31q20 0 40 -6z" />
    <glyph glyph-name="s" unicode="s" horiz-adv-x="378" 
d="M256.5 515.5q30.5 -13.5 59.5 -41.5l-12 -15q-28 26 -54 38t-61 12q-47 0 -78.5 -29.5t-31.5 -78.5q0 -41 25.5 -66.5t90.5 -50.5q74 -30 103.5 -61.5t29.5 -88.5q0 -64 -40 -104t-101 -40q-47 0 -81 17t-64 49l13 14q31 -31 60.5 -45.5t71.5 -14.5q52 0 85.5 33t33.5 91
q0 35 -11.5 57.5t-37 40t-73.5 36.5q-69 27 -98 56.5t-29 76.5q0 55 38 91.5t93 36.5q38 0 68.5 -13.5z" />
    <glyph glyph-name="t" unicode="t" horiz-adv-x="268" 
d="M269 20q-41 -30 -84 -30q-44 0 -69 28.5t-25 78.5v402h-70v20h70v131l22 2v-133h117l-3 -20h-114v-401q0 -41 19 -64t55 -23q37 0 71 24z" />
    <glyph glyph-name="u" unicode="u" horiz-adv-x="473" 
d="M378 0h-20l-1 102q-24 -50 -60 -81t-84 -31q-57 0 -89.5 38.5t-32.5 106.5v384h22v-383q0 -61 26.5 -93t73.5 -32t81 31.5t62 90.5v386h22v-519z" />
    <glyph glyph-name="v" unicode="v" horiz-adv-x="378" 
d="M355 519l-149 -519h-27l-157 519h24l146 -500l141 500h22z" />
    <glyph glyph-name="w" unicode="w" horiz-adv-x="570" 
d="M539 519l-111 -519h-30l-112 497l-112 -497h-30l-113 519h23l105 -496l114 496h27l113 -497l104 497h22z" />
    <glyph glyph-name="x" unicode="x" horiz-adv-x="366" 
d="M195 279l153 -279h-25l-141 266l-140 -266h-24l151 278l-131 241h25l119 -228l122 228h24z" />
    <glyph glyph-name="y" unicode="y" horiz-adv-x="374" 
d="M204 -1q-17 -62 -34 -97t-44 -58t-73 -39l-4 18q42 15 66 36t38 52t31 89h-8l-154 519h23l146 -501l138 501h23z" />
    <glyph glyph-name="z" unicode="z" horiz-adv-x="338" 
d="M308 519v-18l-258 -480h253l-2 -21h-276v18l259 481h-237v20h261z" />
    <glyph glyph-name="braceleft" unicode="{" horiz-adv-x="268" 
d="M200 800q-34 0 -49.5 -20t-15.5 -64v-283q0 -41 -15.5 -59.5t-48.5 -24.5q33 -6 48.5 -24.5t15.5 -59.5v-283q0 -43 16 -63.5t50 -20.5v-18q-42 0 -64.5 24.5t-22.5 78.5v283q0 39 -15.5 55.5t-48.5 16.5v22q33 0 48.5 16.5t15.5 55.5v284q0 54 22.5 78t64.5 24z" />
    <glyph glyph-name="bar" unicode="|" horiz-adv-x="338" 
d="M179 801v-899h-21v899h21z" />
    <glyph glyph-name="braceright" unicode="}" horiz-adv-x="268" 
d="M132 794q22 -24 22 -78v-284q0 -39 15.5 -55.5t48.5 -16.5v-22q-33 0 -48.5 -16.5t-15.5 -55.5v-283q0 -54 -22 -78.5t-65 -24.5v18q35 0 50.5 20.5t15.5 63.5v283q0 41 15.5 60t49.5 24q-33 6 -49 24.5t-16 59.5v283q0 44 -15.5 64t-49.5 20l-1 18q43 0 65 -24z" />
    <glyph glyph-name="asciitilde" unicode="~" horiz-adv-x="377" 
d="M221.5 288.5q-15.5 7.5 -36.5 21.5q-19 12 -32 18.5t-25 6.5q-18 0 -30 -10t-26 -32l-16 9q15 26 32 39.5t40 13.5q16 0 30.5 -7t35.5 -21q19 -13 32.5 -19t26.5 -6q16 0 27.5 10t24.5 31l16 -8q-15 -27 -30.5 -40.5t-38.5 -13.5q-15 0 -30.5 7.5z" />
    <glyph glyph-name="uni00A0" unicode="&#xa0;" horiz-adv-x="242" 
 />
    <glyph glyph-name="exclamdown" unicode="&#xa1;" horiz-adv-x="216" 
d="M124.5 446q6.5 -7 6.5 -16t-6.5 -16t-16.5 -7t-16.5 7t-6.5 16t6.5 16t16.5 7t16.5 -7zM118 252l1 -444h-22l1 444h20z" />
    <glyph glyph-name="cent" unicode="&#xa2;" horiz-adv-x="375" 
d="M241 -10v-136h-20v136q-75 5 -118.5 72.5t-43.5 194.5q0 129 43.5 198t120.5 74v147h19v-147q30 -2 54.5 -13.5t47.5 -36.5l-13 -14q-42 44 -98 44q-70 0 -110.5 -62t-40.5 -190q0 -125 40.5 -185.5t109.5 -60.5q58 0 104 46l12 -13q-46 -50 -107 -54z" />
    <glyph glyph-name="sterling" unicode="&#xa3;" horiz-adv-x="412" 
d="M126 64q-14 -25 -48 -43h280l-3 -21h-305v21q38 21 53 45t15 69v208h-52v21h52v148q0 71 33.5 116t94.5 45q37 0 66 -16.5t54 -50.5l-15 -12q-22 30 -46.5 44.5t-58.5 14.5q-52 0 -79 -38.5t-27 -102.5v-148h176v-21h-176v-206q0 -48 -14 -73z" />
    <glyph glyph-name="currency" unicode="&#xa4;" 
d="M389 121l-64 77q-39 -37 -96 -37q-55 0 -93 36l-64 -76l-15 12l65 79q-37 50 -37 128t36 127l-66 79l15 13l64 -77q40 38 95 38q60 0 96 -38l63 77l14 -13l-64 -78q36 -49 36 -128t-37 -127l68 -80zM320 222q32 42 32 118q0 77 -31.5 119t-91.5 42q-58 0 -90 -42
t-32 -119t32 -118.5t90 -41.5q59 0 91 42z" />
    <glyph glyph-name="yen" unicode="&#xa5;" horiz-adv-x="400" 
d="M384 661l-164 -332h102v-21h-110v-118h110v-22h-110v-168h-22v168h-108v22h108v118h-108v21h100l-166 332h25l160 -330l160 330h23z" />
    <glyph glyph-name="brokenbar" unicode="&#xa6;" horiz-adv-x="338" 
d="M179 801v-358h-21v358h21zM179 262v-360h-21v360h21z" />
    <glyph glyph-name="section" unicode="&#xa7;" horiz-adv-x="436" 
d="M326 117.5q11 -22.5 11 -55.5q0 -57 -36 -91.5t-93 -34.5q-37 0 -67 11t-58 33l12 16q50 -39 113 -39q50 0 78.5 29t28.5 75q0 42 -21.5 66.5t-84.5 50.5q-48 20 -75 38t-40.5 42.5t-13.5 63.5q0 37 17 68.5t53 61.5q-26 18 -37 40.5t-11 54.5q0 57 35 91t90 34
q34 0 61 -10.5t56 -32.5l-11 -17q-26 21 -51 30.5t-55 9.5q-47 0 -75 -28.5t-28 -75.5q0 -29 9 -47.5t32.5 -35t70.5 -35.5q64 -27 92 -59.5t28 -82.5q0 -41 -16 -72.5t-50 -57.5q25 -18 36 -40.5zM112 269.5q10 -20.5 33.5 -37t69.5 -35.5q36 -15 59 -28q32 24 46 52t14 66
q0 42 -22 70t-83 54q-40 17 -64 31q-33 -27 -48 -56t-15 -64q0 -32 10 -52.5z" />
    <glyph glyph-name="dieresis" unicode="&#xa8;" horiz-adv-x="237" 
d="M69 706.5q5 -5.5 5 -14.5q0 -8 -5 -13.5t-14 -5.5q-8 0 -13.5 5.5t-5.5 13.5t5.5 14t13.5 6q9 0 14 -5.5zM207.5 706q5.5 -6 5.5 -14t-5.5 -13.5t-13.5 -5.5q-9 0 -14.5 5.5t-5.5 13.5t5.5 14t14.5 6q8 0 13.5 -6z" />
    <glyph glyph-name="copyright" unicode="&#xa9;" horiz-adv-x="663" 
d="M451 688.5q52 -33.5 81.5 -98.5t29.5 -155q0 -89 -29.5 -154t-82 -99t-118.5 -34q-67 0 -119 33.5t-81.5 98.5t-29.5 155q0 89 29.5 154t82 99t118.5 34q67 0 119 -33.5zM223 670q-48 -31 -74.5 -91t-26.5 -144q0 -85 26.5 -145t74 -90.5t109.5 -30.5q61 0 108.5 31
t74 91t26.5 144q0 85 -26.5 145t-74 90.5t-108.5 30.5t-109 -31zM372 598.5q17 -7.5 32 -21.5l-11 -14q-13 11 -27.5 17t-34.5 6q-36 0 -62 -35.5t-26 -113.5q0 -79 24.5 -115.5t65.5 -36.5q38 0 68 28l11 -16q-34 -32 -80 -32q-50 0 -80.5 43t-30.5 129t32.5 127.5
t77.5 41.5q24 0 41 -7.5z" />
    <glyph glyph-name="ordfeminine" unicode="&#xaa;" horiz-adv-x="420" 
d="M284 517v56q0 43 -19.5 65.5t-64.5 22.5q-40 0 -94 -24l-6 19q55 25 102 25q104 0 104 -106v-225q0 -25 7 -38t23 -20l-5 -15q-22 8 -32.5 23.5t-11.5 44.5q-39 -68 -109 -68q-48 0 -76 31.5t-28 84.5q0 59 36.5 91.5t98.5 32.5h75zM284 373v123h-74q-112 0 -112 -103
q0 -46 22 -71t60 -25q68 0 104 76zM74 21h272v-20h-272v20z" />
    <glyph glyph-name="guillemotleft" unicode="&#xab;" horiz-adv-x="466" 
d="M203 503l15 -9l-117 -206l117 -205l-15 -9l-125 207v14zM373 503l15 -9l-117 -206l117 -205l-15 -9l-125 207v14z" />
    <glyph glyph-name="logicalnot" unicode="&#xac;" horiz-adv-x="406" 
d="M343 331v-133h-23v112h-257v21h280z" />
    <glyph glyph-name="uni00AD" unicode="&#xad;" horiz-adv-x="328" 
d="M63 302v21h202v-21h-202z" />
    <glyph glyph-name="registered" unicode="&#xae;" horiz-adv-x="523" 
d="M356 695q42 -26 66 -75.5t24 -117.5q0 -67 -23.5 -118t-65.5 -78.5t-96 -27.5q-53 0 -94.5 26t-65.5 76t-24 118q0 67 23.5 117.5t65.5 78t95 27.5t95 -26zM381 352q46 55 46 150t-46 148t-120 53q-73 0 -119 -55.5t-46 -149.5q0 -95 46 -148t119 -53q74 0 120 55z
M284 489l60 -120h-23l-58 118h-43v-118h-20v269h50q41 0 63 -20t22 -56q0 -59 -51 -73zM220 506h42q53 0 53 56t-61 56h-34v-112z" />
    <glyph glyph-name="macron" unicode="&#xaf;" horiz-adv-x="234" 
d="M209 685h-174v20h174v-20z" />
    <glyph glyph-name="degree" unicode="&#xb0;" horiz-adv-x="410" 
d="M98.5 448.5q-32.5 37.5 -32.5 103.5q0 64 33 101.5t81 37.5q51 0 82.5 -37t31.5 -103q0 -65 -31.5 -102.5t-82.5 -37.5q-49 0 -81.5 37.5zM246.5 462.5q24.5 31.5 24.5 88.5q0 58 -24.5 89.5t-66.5 31.5q-40 0 -65.5 -32t-25.5 -88q0 -57 25.5 -89t65.5 -32
q42 0 66.5 31.5z" />
    <glyph glyph-name="plusminus" unicode="&#xb1;" horiz-adv-x="398" 
d="M63 0v20h272v-20h-272zM211 493v-152h124v-21h-124v-152h-22v152h-126v21h126v152h22z" />
    <glyph glyph-name="uni00B2" unicode="&#xb2;" horiz-adv-x="328" 
d="M230.5 709.5q24.5 -28.5 24.5 -75.5q0 -41 -13 -75t-41 -73.5t-96 -125.5l-13 -17h173l-4 -21h-193v20q75 94 107 139t45 78.5t13 73.5t-19 62.5t-52 22.5q-48 0 -83 -48l-15 12q22 29 45.5 42.5t52.5 13.5q44 0 68.5 -28.5z" />
    <glyph glyph-name="uni00B3" unicode="&#xb3;" horiz-adv-x="328" 
d="M232 712q26 -28 26 -73q0 -42 -21.5 -67.5t-55.5 -30.5q37 -2 61.5 -29.5t24.5 -75.5q0 -53 -29.5 -87t-79.5 -34q-59 0 -98 53l14 11q19 -24 39 -34t45 -10q41 0 64.5 27t23.5 73q0 48 -23 71.5t-62 23.5h-21l2 19h17q32 0 55 22.5t23 66.5q0 38 -20 60t-53 22
q-23 0 -42.5 -9t-40.5 -30l-12 13q22 24 44 35t51 11q42 0 68 -28z" />
    <glyph glyph-name="acute" unicode="&#xb4;" horiz-adv-x="216" 
d="M178 759l13 -21l-148 -84l-9 14z" />
    <glyph glyph-name="uni00B5" unicode="&#xb5;" horiz-adv-x="478" 
d="M379 -5q-11 38 -16 64.5t-6 62.5q-54 -132 -145 -132q-39 0 -63.5 20.5t-34.5 58.5q4 -67 4 -133v-128l-22 -2v713h22v-377q0 -68 26.5 -99.5t67.5 -31.5q87 0 142 139v369h22v-349q0 -52 6 -92t17 -81z" />
    <glyph glyph-name="paragraph" unicode="&#xb6;" horiz-adv-x="565" 
d="M428 681v-873l-22 -4v857h-114v-853l-22 -4v502q-93 3 -135 54.5t-42 133.5q0 89 48 138t133 49h154z" />
    <glyph glyph-name="periodcentered" unicode="&#xb7;" horiz-adv-x="151" 
d="M92 342q6 -7 6 -16t-6 -15.5t-16 -6.5t-16.5 6.5t-6.5 15.5t6.5 16t16.5 7t16 -7z" />
    <glyph glyph-name="cedilla" unicode="&#xb8;" horiz-adv-x="188" 
d="M88 -74q75 -8 75 -67q0 -34 -20.5 -52.5t-50.5 -18.5q-32 0 -57 18l10 16q21 -15 47 -15q22 0 36 13t14 39t-17.5 38t-56.5 13l5 99h17z" />
    <glyph glyph-name="uni00B9" unicode="&#xb9;" horiz-adv-x="329" 
d="M200 732v-410h-21v386l-90 -65l-10 15l104 74h17z" />
    <glyph glyph-name="ordmasculine" unicode="&#xba;" horiz-adv-x="413" 
d="M310 632q36 -49 36 -151t-37 -153t-103 -51t-102 51t-36 151q0 101 37 151.5t102 50.5q67 0 103 -49zM120.5 617.5q-30.5 -44.5 -30.5 -138.5q0 -93 30 -138t86 -45q57 0 87.5 45t30.5 140q0 181 -117 181q-56 0 -86.5 -44.5zM71 0v20h272v-20h-272z" />
    <glyph glyph-name="guillemotright" unicode="&#xbb;" horiz-adv-x="466" 
d="M92 503l126 -208v-14l-126 -207l-14 9l116 205l-116 206zM262 503l126 -208v-14l-126 -207l-14 9l116 205l-116 206z" />
    <glyph glyph-name="onequarter" unicode="&#xbc;" horiz-adv-x="734" 
d="M200 681v-410h-21v386l-90 -65l-10 15l104 74h17zM526 742l18 -8l-334 -800l-18 8zM683 132v-20h-48v-112h-21v112h-156v18l108 288l17 -7l-106 -279h137l3 127h18v-127h48z" />
    <glyph glyph-name="onehalf" unicode="&#xbd;" horiz-adv-x="735" 
d="M200 681v-410h-21v386l-90 -65l-10 15l104 74h17zM526 742l18 -8l-334 -800l-18 8zM637.5 387.5q24.5 -28.5 24.5 -75.5q0 -41 -13 -75t-41 -73.5t-96 -125.5l-13 -17h173l-4 -21h-193v20q75 94 107 139t45 78.5t13 73.5t-19 62.5t-52 22.5q-48 0 -83 -48l-15 12
q22 29 45.5 42.5t52.5 13.5q44 0 68.5 -28.5z" />
    <glyph glyph-name="threequarters" unicode="&#xbe;" horiz-adv-x="733" 
d="M232 661q26 -28 26 -73q0 -42 -21.5 -67.5t-55.5 -30.5q37 -2 61.5 -29.5t24.5 -75.5q0 -53 -29.5 -87t-79.5 -34q-59 0 -98 53l14 11q19 -24 39 -34t45 -10q41 0 64.5 27t23.5 73q0 48 -23 71.5t-62 23.5h-21l2 19h17q32 0 55 22.5t23 66.5q0 38 -20 60t-53 22
q-23 0 -42.5 -9t-40.5 -30l-12 13q22 24 44 35t51 11q42 0 68 -28zM525 742l18 -8l-334 -800l-18 8zM682 132v-20h-48v-112h-21v112h-156v18l108 288l17 -7l-106 -279h137l3 127h18v-127h48z" />
    <glyph glyph-name="questiondown" unicode="&#xbf;" horiz-adv-x="375" 
d="M195.5 414q-6.5 7 -6.5 16t6.5 16t16.5 7t16 -7t6 -16t-6 -16t-16 -7t-16.5 7zM86.5 -158.5q-35.5 38.5 -35.5 95.5q0 48 18.5 76t54.5 60q26 23 41 40.5t25.5 44t10.5 63.5v31h21v-34q0 -40 -11 -68t-26.5 -45.5t-41.5 -40.5q-35 -30 -52.5 -56.5t-17.5 -70.5
q0 -50 29.5 -81.5t77.5 -31.5q41 0 70.5 18t57.5 59l16 -13q-30 -43 -65 -64t-79 -21q-58 0 -93.5 38.5z" />
    <glyph glyph-name="Agrave" unicode="&#xc0;" horiz-adv-x="470" 
d="M420 0l-57 203h-257l-57 -203h-21l193 681h28l194 -681h-23zM112 224h245l-122 439zM170 857l143 -80l-8 -14l-147 73z" />
    <glyph glyph-name="Aacute" unicode="&#xc1;" horiz-adv-x="470" 
d="M420 0l-57 203h-257l-57 -203h-21l193 681h28l194 -681h-23zM112 224h245l-122 439zM301 858l11 -22l-148 -72l-7 14z" />
    <glyph glyph-name="Acircumflex" unicode="&#xc2;" horiz-adv-x="470" 
d="M420 0l-57 203h-257l-57 -203h-21l193 681h28l194 -681h-23zM112 224h245l-122 439zM140 767l-11 11l99 91h12l100 -91l-12 -11l-94 79z" />
    <glyph glyph-name="Atilde" unicode="&#xc3;" horiz-adv-x="470" 
d="M420 0l-57 203h-257l-57 -203h-21l193 681h28l194 -681h-23zM112 224h245l-122 439zM255.5 810q-12.5 6 -27.5 18l-12 8t-16.5 9t-13.5 3q-14 0 -24.5 -8t-23.5 -27l-14 8q15 23 29.5 34.5t32.5 11.5q12 0 22 -5t27 -17q15 -11 25.5 -16.5t21.5 -5.5q14 0 25 9.5t24 31.5
l14 -7q-14 -28 -29 -40.5t-34 -12.5q-14 0 -26.5 6z" />
    <glyph glyph-name="Adieresis" unicode="&#xc4;" horiz-adv-x="470" 
d="M420 0l-57 203h-257l-57 -203h-21l193 681h28l194 -681h-23zM112 224h245l-122 439zM185 832.5q5 -5.5 5 -14.5q0 -8 -5 -13.5t-14 -5.5q-8 0 -13.5 5.5t-5.5 13.5t5.5 14t13.5 6q9 0 14 -5.5zM323.5 832q5.5 -6 5.5 -14t-5.5 -13.5t-13.5 -5.5q-9 0 -14.5 5.5t-5.5 13.5
t5.5 14t14.5 6q8 0 13.5 -6z" />
    <glyph glyph-name="Aring" unicode="&#xc5;" horiz-adv-x="470" 
d="M420 0l-57 203h-257l-57 -203h-21l193 681h28l194 -681h-23zM112 224h245l-122 439zM284 906.5q18 -20.5 18 -57.5q0 -38 -18 -58.5t-49 -20.5t-49 20.5t-18 57.5q0 38 18 58.5t49 20.5t49 -20.5zM188 848q0 -61 47 -61t47 62q0 61 -47 61t-47 -62z" />
    <glyph glyph-name="AE" unicode="&#xc6;" horiz-adv-x="623" 
d="M398 21h189v-21h-207l-42 196h-245l-61 -196h-23l217 681h318l-3 -21h-279l62 -290h213v-21h-209zM100 218h234l-95 445z" />
    <glyph glyph-name="Ccedilla" unicode="&#xc7;" horiz-adv-x="443" 
d="M284 -10l-2 -64q75 -8 75 -67q0 -34 -20.5 -52.5t-50.5 -18.5q-32 0 -57 18l10 16q21 -15 47 -15q22 0 36 13t14 39t-17.5 38t-56.5 13l4 81q-92 6 -147.5 95t-55.5 254q0 119 28.5 197.5t77.5 116t113 37.5q43 0 74 -14.5t60 -43.5l-13 -15q-29 27 -55.5 39.5
t-63.5 12.5q-89 0 -143.5 -80.5t-54.5 -249.5q0 -163 53.5 -245.5t141.5 -82.5q42 0 70 14.5t57 41.5l14 -15q-58 -62 -138 -63z" />
    <glyph glyph-name="Egrave" unicode="&#xc8;" horiz-adv-x="407" 
d="M365 681l-3 -21h-240v-290h208v-21h-208v-328h249v-21h-271v681h265zM171 857l143 -80l-8 -14l-147 73z" />
    <glyph glyph-name="Eacute" unicode="&#xc9;" horiz-adv-x="407" 
d="M365 681l-3 -21h-240v-290h208v-21h-208v-328h249v-21h-271v681h265zM302 858l11 -22l-148 -72l-7 14z" />
    <glyph glyph-name="Ecircumflex" unicode="&#xca;" horiz-adv-x="407" 
d="M365 681l-3 -21h-240v-290h208v-21h-208v-328h249v-21h-271v681h265zM141 767l-11 11l99 91h12l100 -91l-12 -11l-94 79z" />
    <glyph glyph-name="Edieresis" unicode="&#xcb;" horiz-adv-x="407" 
d="M365 681l-3 -21h-240v-290h208v-21h-208v-328h249v-21h-271v681h265zM186 832.5q5 -5.5 5 -14.5q0 -8 -5 -13.5t-14 -5.5q-8 0 -13.5 5.5t-5.5 13.5t5.5 14t13.5 6q9 0 14 -5.5zM324.5 832q5.5 -6 5.5 -14t-5.5 -13.5t-13.5 -5.5q-9 0 -14.5 5.5t-5.5 13.5t5.5 14t14.5 6
q8 0 13.5 -6z" />
    <glyph glyph-name="Igrave" unicode="&#xcc;" horiz-adv-x="222" 
d="M122 681v-681h-22v681h22zM46 857l143 -80l-8 -14l-147 73z" />
    <glyph glyph-name="Iacute" unicode="&#xcd;" horiz-adv-x="222" 
d="M122 681v-681h-22v681h22zM177 858l11 -22l-148 -72l-7 14z" />
    <glyph glyph-name="Icircumflex" unicode="&#xce;" horiz-adv-x="222" 
d="M122 681v-681h-22v681h22zM16 767l-11 11l99 91h12l100 -91l-12 -11l-94 79z" />
    <glyph glyph-name="Idieresis" unicode="&#xcf;" horiz-adv-x="222" 
d="M122 681v-681h-22v681h22zM61 832.5q5 -5.5 5 -14.5q0 -8 -5 -13.5t-14 -5.5q-8 0 -13.5 5.5t-5.5 13.5t5.5 14t13.5 6q9 0 14 -5.5zM199.5 832q5.5 -6 5.5 -14t-5.5 -13.5t-13.5 -5.5q-9 0 -14.5 5.5t-5.5 13.5t5.5 14t14.5 6q8 0 13.5 -6z" />
    <glyph glyph-name="Eth" unicode="&#xd0;" horiz-adv-x="509" 
d="M377.5 609q68.5 -72 68.5 -261q0 -193 -70 -270.5t-172 -77.5h-105v341h-78v22h78v318h101q109 0 177.5 -72zM360.5 93.5q61.5 72.5 61.5 254.5t-62 247t-160 65h-79v-297h155v-22h-155v-320h84q94 0 155.5 72.5z" />
    <glyph glyph-name="Ntilde" unicode="&#xd1;" horiz-adv-x="544" 
d="M444 0h-29l-296 655q3 -102 3 -178v-477h-22v681h29l296 -655q0 14 -1 22q-2 80 -2 157v476h22v-681zM297.5 810q-12.5 6 -27.5 18l-12 8t-16.5 9t-13.5 3q-14 0 -24.5 -8t-23.5 -27l-14 8q15 23 29.5 34.5t32.5 11.5q12 0 22 -5t27 -17q15 -11 25.5 -16.5t21.5 -5.5
q14 0 25 9.5t24 31.5l14 -7q-14 -28 -29 -40.5t-34 -12.5q-14 0 -26.5 6z" />
    <glyph glyph-name="Ograve" unicode="&#xd2;" horiz-adv-x="565" 
d="M444.5 603q58.5 -88 58.5 -263q0 -172 -57.5 -261t-162.5 -89q-102 0 -161 89t-59 260q0 172 59.5 262t160.5 90q103 0 161.5 -88zM139 587q-53 -83 -53 -248q0 -163 53 -245t144 -82q95 0 145.5 81.5t50.5 246.5q0 167 -51.5 248.5t-144.5 81.5q-91 0 -144 -83zM218 857
l143 -80l-8 -14l-147 73z" />
    <glyph glyph-name="Oacute" unicode="&#xd3;" horiz-adv-x="565" 
d="M444.5 603q58.5 -88 58.5 -263q0 -172 -57.5 -261t-162.5 -89q-102 0 -161 89t-59 260q0 172 59.5 262t160.5 90q103 0 161.5 -88zM139 587q-53 -83 -53 -248q0 -163 53 -245t144 -82q95 0 145.5 81.5t50.5 246.5q0 167 -51.5 248.5t-144.5 81.5q-91 0 -144 -83zM349 858
l11 -22l-148 -72l-7 14z" />
    <glyph glyph-name="Ocircumflex" unicode="&#xd4;" horiz-adv-x="565" 
d="M444.5 603q58.5 -88 58.5 -263q0 -172 -57.5 -261t-162.5 -89q-102 0 -161 89t-59 260q0 172 59.5 262t160.5 90q103 0 161.5 -88zM139 587q-53 -83 -53 -248q0 -163 53 -245t144 -82q95 0 145.5 81.5t50.5 246.5q0 167 -51.5 248.5t-144.5 81.5q-91 0 -144 -83zM188 767
l-11 11l99 91h12l100 -91l-12 -11l-94 79z" />
    <glyph glyph-name="Otilde" unicode="&#xd5;" horiz-adv-x="565" 
d="M444.5 603q58.5 -88 58.5 -263q0 -172 -57.5 -261t-162.5 -89q-102 0 -161 89t-59 260q0 172 59.5 262t160.5 90q103 0 161.5 -88zM139 587q-53 -83 -53 -248q0 -163 53 -245t144 -82q95 0 145.5 81.5t50.5 246.5q0 167 -51.5 248.5t-144.5 81.5q-91 0 -144 -83z
M303.5 810q-12.5 6 -27.5 18l-12 8t-16.5 9t-13.5 3q-14 0 -24.5 -8t-23.5 -27l-14 8q15 23 29.5 34.5t32.5 11.5q12 0 22 -5t27 -17q15 -11 25.5 -16.5t21.5 -5.5q14 0 25 9.5t24 31.5l14 -7q-14 -28 -29 -40.5t-34 -12.5q-14 0 -26.5 6z" />
    <glyph glyph-name="Odieresis" unicode="&#xd6;" horiz-adv-x="565" 
d="M444.5 603q58.5 -88 58.5 -263q0 -172 -57.5 -261t-162.5 -89q-102 0 -161 89t-59 260q0 172 59.5 262t160.5 90q103 0 161.5 -88zM139 587q-53 -83 -53 -248q0 -163 53 -245t144 -82q95 0 145.5 81.5t50.5 246.5q0 167 -51.5 248.5t-144.5 81.5q-91 0 -144 -83z
M233 832.5q5 -5.5 5 -14.5q0 -8 -5 -13.5t-14 -5.5q-8 0 -13.5 5.5t-5.5 13.5t5.5 14t13.5 6q9 0 14 -5.5zM371.5 832q5.5 -6 5.5 -14t-5.5 -13.5t-13.5 -5.5q-9 0 -14.5 5.5t-5.5 13.5t5.5 14t14.5 6q8 0 13.5 -6z" />
    <glyph glyph-name="multiply" unicode="&#xd7;" horiz-adv-x="398" 
d="M305 455l16 -13l-107 -135l107 -134l-17 -13l-105 134l-105 -134l-17 13l107 134l-107 135l17 13l105 -135z" />
    <glyph glyph-name="Oslash" unicode="&#xd8;" horiz-adv-x="565" 
d="M468.5 555q34.5 -83 34.5 -215q0 -171 -58 -260.5t-162 -89.5q-41 0 -73 14l-27 -115l-22 7l31 116q-62 34 -95.5 116.5t-33.5 210.5q0 114 27.5 193.5t77 119t115.5 39.5q39 0 71 -13l29 120l22 -6l-33 -122q62 -32 96.5 -115zM116 140.5q30 -76.5 84 -107.5l150 625
q-31 12 -67 12q-91 0 -144 -83t-53 -248q0 -122 30 -198.5zM428.5 93.5q50.5 81.5 50.5 246.5q0 246 -113 310l-149 -625q29 -13 66 -13q95 0 145.5 81.5z" />
    <glyph glyph-name="Ugrave" unicode="&#xd9;" horiz-adv-x="523" 
d="M433 172q0 -80 -43 -131t-128 -51q-87 0 -129.5 51t-42.5 131v509h22v-507q0 -73 37 -117.5t113 -44.5t112.5 45t36.5 117v507h22v-509zM197 857l143 -80l-8 -14l-147 73z" />
    <glyph glyph-name="Uacute" unicode="&#xda;" horiz-adv-x="523" 
d="M433 172q0 -80 -43 -131t-128 -51q-87 0 -129.5 51t-42.5 131v509h22v-507q0 -73 37 -117.5t113 -44.5t112.5 45t36.5 117v507h22v-509zM328 858l11 -22l-148 -72l-7 14z" />
    <glyph glyph-name="Ucircumflex" unicode="&#xdb;" horiz-adv-x="523" 
d="M433 172q0 -80 -43 -131t-128 -51q-87 0 -129.5 51t-42.5 131v509h22v-507q0 -73 37 -117.5t113 -44.5t112.5 45t36.5 117v507h22v-509zM167 767l-11 11l99 91h12l100 -91l-12 -11l-94 79z" />
    <glyph glyph-name="Udieresis" unicode="&#xdc;" horiz-adv-x="523" 
d="M433 172q0 -80 -43 -131t-128 -51q-87 0 -129.5 51t-42.5 131v509h22v-507q0 -73 37 -117.5t113 -44.5t112.5 45t36.5 117v507h22v-509zM212 832.5q5 -5.5 5 -14.5q0 -8 -5 -13.5t-14 -5.5q-8 0 -13.5 5.5t-5.5 13.5t5.5 14t13.5 6q9 0 14 -5.5zM350.5 832
q5.5 -6 5.5 -14t-5.5 -13.5t-13.5 -5.5q-9 0 -14.5 5.5t-5.5 13.5t5.5 14t14.5 6q8 0 13.5 -6z" />
    <glyph glyph-name="Yacute" unicode="&#xdd;" horiz-adv-x="408" 
d="M391 681l-174 -411v-270h-23v270l-178 411h25l165 -389l162 389h23zM270 858l11 -22l-148 -72l-7 14z" />
    <glyph glyph-name="Thorn" unicode="&#xde;" horiz-adv-x="454" 
d="M358.5 506q54.5 -48 54.5 -151q0 -109 -57.5 -158.5t-170.5 -49.5h-63v-147h-22v681h22v-127h66q116 0 170.5 -48zM339.5 210.5q50.5 42.5 50.5 144.5q0 95 -47.5 136.5t-154.5 41.5h-66v-365h63q104 0 154.5 42.5z" />
    <glyph glyph-name="germandbls" unicode="&#xdf;" horiz-adv-x="471" 
d="M329 702.5q34 -34.5 34 -91.5q0 -39 -14.5 -64t-42.5 -54q-21 -21 -31.5 -36.5t-10.5 -36.5q0 -25 14 -42.5t45 -42.5t51.5 -47t35 -56.5t14.5 -83.5q0 -71 -32.5 -114.5t-88.5 -43.5q-24 0 -41.5 5.5t-34.5 15.5l8 17q14 -8 29.5 -12.5t37.5 -4.5q46 0 72.5 36t26.5 101
q0 45 -13.5 77t-32.5 52t-49 45q-33 27 -48.5 47.5t-15.5 50.5q0 24 11 41t33 39q27 28 40.5 51t13.5 60q0 50 -27 77.5t-74 27.5q-54 0 -87.5 -39t-33.5 -109v-568h-22v571q0 76 40 121t103 45q56 0 90 -34.5z" />
    <glyph glyph-name="agrave" unicode="&#xe0;" horiz-adv-x="434" 
d="M347.5 35q8.5 -20 29.5 -29l-5 -16q-27 10 -39.5 32t-13.5 64q-24 -48 -56.5 -72t-78.5 -24q-61 0 -96 42.5t-35 111.5q0 79 47 121.5t131 42.5h86v69q0 65 -24.5 98.5t-79.5 33.5q-56 0 -121 -31l-8 17q66 34 130 34q125 0 125 -150v-283q0 -41 8.5 -61zM317 120v168
h-84q-77 0 -116.5 -36.5t-39.5 -107.5q0 -63 28.5 -98t78.5 -35q90 0 133 109zM150 759l144 -91l-10 -14l-147 84z" />
    <glyph glyph-name="aacute" unicode="&#xe1;" horiz-adv-x="434" 
d="M347.5 35q8.5 -20 29.5 -29l-5 -16q-27 10 -39.5 32t-13.5 64q-24 -48 -56.5 -72t-78.5 -24q-61 0 -96 42.5t-35 111.5q0 79 47 121.5t131 42.5h86v69q0 65 -24.5 98.5t-79.5 33.5q-56 0 -121 -31l-8 17q66 34 130 34q125 0 125 -150v-283q0 -41 8.5 -61zM317 120v168
h-84q-77 0 -116.5 -36.5t-39.5 -107.5q0 -63 28.5 -98t78.5 -35q90 0 133 109zM272 759l13 -21l-148 -84l-9 14z" />
    <glyph glyph-name="acircumflex" unicode="&#xe2;" horiz-adv-x="434" 
d="M347.5 35q8.5 -20 29.5 -29l-5 -16q-27 10 -39.5 32t-13.5 64q-24 -48 -56.5 -72t-78.5 -24q-61 0 -96 42.5t-35 111.5q0 79 47 121.5t131 42.5h86v69q0 65 -24.5 98.5t-79.5 33.5q-56 0 -121 -31l-8 17q66 34 130 34q125 0 125 -150v-283q0 -41 8.5 -61zM317 120v168
h-84q-77 0 -116.5 -36.5t-39.5 -107.5q0 -63 28.5 -98t78.5 -35q90 0 133 109zM118 655l-11 10l99 97h13l98 -97l-11 -10l-94 84z" />
    <glyph glyph-name="atilde" unicode="&#xe3;" horiz-adv-x="434" 
d="M347.5 35q8.5 -20 29.5 -29l-5 -16q-27 10 -39.5 32t-13.5 64q-24 -48 -56.5 -72t-78.5 -24q-61 0 -96 42.5t-35 111.5q0 79 47 121.5t131 42.5h86v69q0 65 -24.5 98.5t-79.5 33.5q-56 0 -121 -31l-8 17q66 34 130 34q125 0 125 -150v-283q0 -41 8.5 -61zM317 120v168
h-84q-77 0 -116.5 -36.5t-39.5 -107.5q0 -63 28.5 -98t78.5 -35q90 0 133 109zM234.5 684q-12.5 6 -27.5 18l-12 8t-16.5 9t-13.5 3q-14 0 -24.5 -8t-23.5 -27l-14 8q15 23 29.5 34.5t32.5 11.5q12 0 22 -5t27 -17q15 -11 25.5 -16.5t21.5 -5.5q14 0 25 9.5t24 31.5l14 -7
q-14 -28 -29 -40.5t-34 -12.5q-14 0 -26.5 6z" />
    <glyph glyph-name="adieresis" unicode="&#xe4;" horiz-adv-x="434" 
d="M347.5 35q8.5 -20 29.5 -29l-5 -16q-27 10 -39.5 32t-13.5 64q-24 -48 -56.5 -72t-78.5 -24q-61 0 -96 42.5t-35 111.5q0 79 47 121.5t131 42.5h86v69q0 65 -24.5 98.5t-79.5 33.5q-56 0 -121 -31l-8 17q66 34 130 34q125 0 125 -150v-283q0 -41 8.5 -61zM317 120v168
h-84q-77 0 -116.5 -36.5t-39.5 -107.5q0 -63 28.5 -98t78.5 -35q90 0 133 109zM157 706.5q5 -5.5 5 -14.5q0 -8 -5 -13.5t-14 -5.5q-8 0 -13.5 5.5t-5.5 13.5t5.5 14t13.5 6q9 0 14 -5.5zM295.5 706q5.5 -6 5.5 -14t-5.5 -13.5t-13.5 -5.5q-9 0 -14.5 5.5t-5.5 13.5t5.5 14
t14.5 6q8 0 13.5 -6z" />
    <glyph glyph-name="aring" unicode="&#xe5;" horiz-adv-x="434" 
d="M347.5 35q8.5 -20 29.5 -29l-5 -16q-27 10 -39.5 32t-13.5 64q-24 -48 -56.5 -72t-78.5 -24q-61 0 -96 42.5t-35 111.5q0 79 47 121.5t131 42.5h86v69q0 65 -24.5 98.5t-79.5 33.5q-56 0 -121 -31l-8 17q66 34 130 34q125 0 125 -150v-283q0 -41 8.5 -61zM317 120v168
h-84q-77 0 -116.5 -36.5t-39.5 -107.5q0 -63 28.5 -98t78.5 -35q90 0 133 109zM262 780.5q18 -20.5 18 -57.5q0 -38 -18 -58.5t-49 -20.5t-49 20.5t-18 57.5q0 38 18 58.5t49 20.5t49 -20.5zM166 722q0 -61 47 -61t47 62q0 61 -47 61t-47 -62z" />
    <glyph glyph-name="ae" unicode="&#xe6;" horiz-adv-x="692" 
d="M636 246h-296q2 -117 42 -176t107 -59q36 0 63 13.5t55 41.5l13 -15q-31 -31 -61.5 -46t-70.5 -15q-52 0 -90 30t-59 88q-35 -63 -72 -90.5t-85 -27.5q-60 0 -94.5 42t-34.5 112q0 79 46.5 121.5t129.5 42.5h88v62q0 70 -25 104.5t-83 34.5q-50 0 -117 -32l-6 18
q68 34 124 34q63 0 93 -35t34 -104q19 68 56.5 103.5t90.5 35.5q77 0 115.5 -63.5t38.5 -181.5q0 -16 -2 -38zM616 292q0 104 -33 160.5t-99 56.5q-63 0 -103 -62.5t-41 -181.5h276v27zM263 39.5q34 28.5 69 92.5q-15 53 -15 123v33h-89q-72 0 -112 -37t-40 -107
q0 -62 29 -97.5t79 -35.5q45 0 79 28.5z" />
    <glyph glyph-name="ccedilla" unicode="&#xe7;" horiz-adv-x="375" 
d="M237 -10l-2 -64q75 -8 75 -67q0 -34 -20.5 -52.5t-50.5 -18.5q-32 0 -57 18l10 16q21 -15 47 -15q22 0 36 13t14 39t-17.5 38t-56.5 13l4 81q-75 5 -117.5 72t-42.5 194q0 134 46.5 203t127.5 69q34 0 60 -12t51 -38l-13 -14q-42 44 -98 44q-70 0 -110.5 -62t-40.5 -190
q0 -125 40.5 -185.5t109.5 -60.5q58 0 104 46l12 -13q-49 -53 -111 -54z" />
    <glyph glyph-name="egrave" unicode="&#xe8;" horiz-adv-x="433" 
d="M378 246h-297q3 -119 43 -177t106 -58q36 0 63 13t55 41l14 -14q-30 -30 -61 -45.5t-70 -15.5q-80 0 -126 68t-46 197q0 133 44.5 203.5t121.5 70.5t116 -64t39 -181q0 -16 -2 -38zM358 292q0 103 -33 160t-100 57q-64 0 -103.5 -60.5t-40.5 -183.5h276q1 8 1 27z
M162 759l144 -91l-10 -14l-147 84z" />
    <glyph glyph-name="eacute" unicode="&#xe9;" horiz-adv-x="433" 
d="M378 246h-297q3 -119 43 -177t106 -58q36 0 63 13t55 41l14 -14q-30 -30 -61 -45.5t-70 -15.5q-80 0 -126 68t-46 197q0 133 44.5 203.5t121.5 70.5t116 -64t39 -181q0 -16 -2 -38zM358 292q0 103 -33 160t-100 57q-64 0 -103.5 -60.5t-40.5 -183.5h276q1 8 1 27z
M284 759l13 -21l-148 -84l-9 14z" />
    <glyph glyph-name="ecircumflex" unicode="&#xea;" horiz-adv-x="433" 
d="M378 246h-297q3 -119 43 -177t106 -58q36 0 63 13t55 41l14 -14q-30 -30 -61 -45.5t-70 -15.5q-80 0 -126 68t-46 197q0 133 44.5 203.5t121.5 70.5t116 -64t39 -181q0 -16 -2 -38zM358 292q0 103 -33 160t-100 57q-64 0 -103.5 -60.5t-40.5 -183.5h276q1 8 1 27z
M130 655l-11 10l99 97h13l98 -97l-11 -10l-94 84z" />
    <glyph glyph-name="edieresis" unicode="&#xeb;" horiz-adv-x="433" 
d="M378 246h-297q3 -119 43 -177t106 -58q36 0 63 13t55 41l14 -14q-30 -30 -61 -45.5t-70 -15.5q-80 0 -126 68t-46 197q0 133 44.5 203.5t121.5 70.5t116 -64t39 -181q0 -16 -2 -38zM358 292q0 103 -33 160t-100 57q-64 0 -103.5 -60.5t-40.5 -183.5h276q1 8 1 27z
M169 706.5q5 -5.5 5 -14.5q0 -8 -5 -13.5t-14 -5.5q-8 0 -13.5 5.5t-5.5 13.5t5.5 14t13.5 6q9 0 14 -5.5zM307.5 706q5.5 -6 5.5 -14t-5.5 -13.5t-13.5 -5.5q-9 0 -14.5 5.5t-5.5 13.5t5.5 14t14.5 6q8 0 13.5 -6z" />
    <glyph glyph-name="igrave" unicode="&#xec;" horiz-adv-x="213" 
d="M118 519v-519h-22v519h22zM44 759l144 -91l-10 -14l-147 84z" />
    <glyph glyph-name="iacute" unicode="&#xed;" horiz-adv-x="213" 
d="M118 519v-519h-22v519h22zM166 759l13 -21l-148 -84l-9 14z" />
    <glyph glyph-name="icircumflex" unicode="&#xee;" horiz-adv-x="213" 
d="M118 519v-519h-22v519h22zM12 655l-11 10l99 97h13l98 -97l-11 -10l-94 84z" />
    <glyph glyph-name="idieresis" unicode="&#xef;" horiz-adv-x="213" 
d="M118 519v-519h-22v519h22zM51 706.5q5 -5.5 5 -14.5q0 -8 -5 -13.5t-14 -5.5q-8 0 -13.5 5.5t-5.5 13.5t5.5 14t13.5 6q9 0 14 -5.5zM189.5 706q5.5 -6 5.5 -14t-5.5 -13.5t-13.5 -5.5q-9 0 -14.5 5.5t-5.5 13.5t5.5 14t14.5 6q8 0 13.5 -6z" />
    <glyph glyph-name="eth" unicode="&#xf0;" horiz-adv-x="447" 
d="M351 519.5q33 -86.5 33 -218.5q0 -157 -43.5 -234t-120.5 -77q-76 0 -118.5 64.5t-42.5 175.5q0 98 41.5 164.5t113.5 66.5q44 0 79 -24.5t66 -71.5q-6 94 -34 162.5t-86 123.5l-68 -85l-17 7l71 89q-23 19 -52 34t-57 22l5 20q64 -18 117 -62l55 70l15 -11l-56 -71
q66 -58 99 -144.5zM324.5 83.5q36.5 72.5 36.5 219.5q0 24 -1 32q-64 106 -145 106q-63 0 -98 -59t-35 -153q0 -103 36 -160.5t102 -57.5q68 0 104.5 72.5z" />
    <glyph glyph-name="ntilde" unicode="&#xf1;" horiz-adv-x="477" 
d="M357 489.5q29 -39.5 29 -110.5v-379h-22v377q0 64 -23.5 98t-70.5 34q-88 0 -152 -128v-381h-22v519h19l2 -105q30 56 67.5 85.5t87.5 29.5q56 0 85 -39.5zM264.5 684q-12.5 6 -27.5 18l-12 8t-16.5 9t-13.5 3q-14 0 -24.5 -8t-23.5 -27l-14 8q15 23 29.5 34.5t32.5 11.5
q12 0 22 -5t27 -17q15 -11 25.5 -16.5t21.5 -5.5q14 0 25 9.5t24 31.5l14 -7q-14 -28 -29 -40.5t-34 -12.5q-14 0 -26.5 6z" />
    <glyph glyph-name="ograve" unicode="&#xf2;" 
d="M356.5 462.5q44.5 -66.5 44.5 -200.5q0 -135 -45.5 -203.5t-126.5 -68.5t-125.5 68.5t-44.5 200.5q0 134 46 202t126 68q81 0 125.5 -66.5zM121 447q-40 -62 -40 -188q0 -124 38.5 -186t109.5 -62q72 0 111 62t39 189q0 125 -38.5 186t-109.5 61q-70 0 -110 -62zM167 759
l144 -91l-10 -14l-147 84z" />
    <glyph glyph-name="oacute" unicode="&#xf3;" 
d="M356.5 462.5q44.5 -66.5 44.5 -200.5q0 -135 -45.5 -203.5t-126.5 -68.5t-125.5 68.5t-44.5 200.5q0 134 46 202t126 68q81 0 125.5 -66.5zM121 447q-40 -62 -40 -188q0 -124 38.5 -186t109.5 -62q72 0 111 62t39 189q0 125 -38.5 186t-109.5 61q-70 0 -110 -62zM289 759
l13 -21l-148 -84l-9 14z" />
    <glyph glyph-name="ocircumflex" unicode="&#xf4;" 
d="M356.5 462.5q44.5 -66.5 44.5 -200.5q0 -135 -45.5 -203.5t-126.5 -68.5t-125.5 68.5t-44.5 200.5q0 134 46 202t126 68q81 0 125.5 -66.5zM121 447q-40 -62 -40 -188q0 -124 38.5 -186t109.5 -62q72 0 111 62t39 189q0 125 -38.5 186t-109.5 61q-70 0 -110 -62zM135 655
l-11 10l99 97h13l98 -97l-11 -10l-94 84z" />
    <glyph glyph-name="otilde" unicode="&#xf5;" 
d="M356.5 462.5q44.5 -66.5 44.5 -200.5q0 -135 -45.5 -203.5t-126.5 -68.5t-125.5 68.5t-44.5 200.5q0 134 46 202t126 68q81 0 125.5 -66.5zM121 447q-40 -62 -40 -188q0 -124 38.5 -186t109.5 -62q72 0 111 62t39 189q0 125 -38.5 186t-109.5 61q-70 0 -110 -62z
M251.5 684q-12.5 6 -27.5 18l-12 8t-16.5 9t-13.5 3q-14 0 -24.5 -8t-23.5 -27l-14 8q15 23 29.5 34.5t32.5 11.5q12 0 22 -5t27 -17q15 -11 25.5 -16.5t21.5 -5.5q14 0 25 9.5t24 31.5l14 -7q-14 -28 -29 -40.5t-34 -12.5q-14 0 -26.5 6z" />
    <glyph glyph-name="odieresis" unicode="&#xf6;" 
d="M356.5 462.5q44.5 -66.5 44.5 -200.5q0 -135 -45.5 -203.5t-126.5 -68.5t-125.5 68.5t-44.5 200.5q0 134 46 202t126 68q81 0 125.5 -66.5zM121 447q-40 -62 -40 -188q0 -124 38.5 -186t109.5 -62q72 0 111 62t39 189q0 125 -38.5 186t-109.5 61q-70 0 -110 -62z
M174 706.5q5 -5.5 5 -14.5q0 -8 -5 -13.5t-14 -5.5q-8 0 -13.5 5.5t-5.5 13.5t5.5 14t13.5 6q9 0 14 -5.5zM312.5 706q5.5 -6 5.5 -14t-5.5 -13.5t-13.5 -5.5q-9 0 -14.5 5.5t-5.5 13.5t5.5 14t14.5 6q8 0 13.5 -6z" />
    <glyph glyph-name="divide" unicode="&#xf7;" horiz-adv-x="398" 
d="M215 139q6 -7 6 -16t-6 -15.5t-16 -6.5t-16.5 6.5t-6.5 15.5t6.5 16t16.5 7t16 -7zM215 553q6 -7 6 -16t-6 -15.5t-16 -6.5t-16.5 6.5t-6.5 15.5t6.5 16t16.5 7t16 -7zM63 321v20h272v-20h-272z" />
    <glyph glyph-name="oslash" unicode="&#xf8;" 
d="M377 421q24 -62 24 -159q0 -135 -45.5 -203.5t-126.5 -68.5q-31 0 -59 11l-34 -119l-20 5l37 123q-46 27 -70 89.5t-24 159.5q0 134 46 202t126 68q32 0 60 -11l33 121l19 -5l-35 -125q45 -26 69 -88zM160 30l125 469q-23 10 -54 10q-70 0 -110 -62t-40 -188
q0 -180 79 -229zM340 73q39 62 39 189q0 178 -78 228l-124 -469q21 -10 52 -10q72 0 111 62z" />
    <glyph glyph-name="ugrave" unicode="&#xf9;" horiz-adv-x="473" 
d="M378 0h-20l-1 102q-24 -50 -60 -81t-84 -31q-57 0 -89.5 38.5t-32.5 106.5v384h22v-383q0 -61 26.5 -93t73.5 -32t81 31.5t62 90.5v386h22v-519zM172 759l144 -91l-10 -14l-147 84z" />
    <glyph glyph-name="uacute" unicode="&#xfa;" horiz-adv-x="473" 
d="M378 0h-20l-1 102q-24 -50 -60 -81t-84 -31q-57 0 -89.5 38.5t-32.5 106.5v384h22v-383q0 -61 26.5 -93t73.5 -32t81 31.5t62 90.5v386h22v-519zM294 759l13 -21l-148 -84l-9 14z" />
    <glyph glyph-name="ucircumflex" unicode="&#xfb;" horiz-adv-x="473" 
d="M378 0h-20l-1 102q-24 -50 -60 -81t-84 -31q-57 0 -89.5 38.5t-32.5 106.5v384h22v-383q0 -61 26.5 -93t73.5 -32t81 31.5t62 90.5v386h22v-519zM140 655l-11 10l99 97h13l98 -97l-11 -10l-94 84z" />
    <glyph glyph-name="udieresis" unicode="&#xfc;" horiz-adv-x="473" 
d="M378 0h-20l-1 102q-24 -50 -60 -81t-84 -31q-57 0 -89.5 38.5t-32.5 106.5v384h22v-383q0 -61 26.5 -93t73.5 -32t81 31.5t62 90.5v386h22v-519zM179 706.5q5 -5.5 5 -14.5q0 -8 -5 -13.5t-14 -5.5q-8 0 -13.5 5.5t-5.5 13.5t5.5 14t13.5 6q9 0 14 -5.5zM317.5 706
q5.5 -6 5.5 -14t-5.5 -13.5t-13.5 -5.5q-9 0 -14.5 5.5t-5.5 13.5t5.5 14t14.5 6q8 0 13.5 -6z" />
    <glyph glyph-name="yacute" unicode="&#xfd;" horiz-adv-x="374" 
d="M204 -1q-17 -62 -34 -97t-44 -58t-73 -39l-4 18q42 15 66 36t38 52t31 89h-8l-154 519h23l146 -501l138 501h23zM248 759l13 -21l-148 -84l-9 14z" />
    <glyph glyph-name="thorn" unicode="&#xfe;" horiz-adv-x="464" 
d="M367 463.5q39 -65.5 39 -199.5t-41 -204t-116 -70q-42 0 -75 23.5t-56 62.5v-268l-22 -4v929l22 3v-297q54 90 136 90q74 0 113 -65.5zM347.5 74.5q34.5 63.5 34.5 189.5q0 245 -128 245q-43 0 -75 -25.5t-61 -73.5v-304q55 -95 130 -95q65 0 99.5 63.5z" />
    <glyph glyph-name="ydieresis" unicode="&#xff;" horiz-adv-x="374" 
d="M204 -1q-17 -62 -34 -97t-44 -58t-73 -39l-4 18q42 15 66 36t38 52t31 89h-8l-154 519h23l146 -501l138 501h23zM133 706.5q5 -5.5 5 -14.5q0 -8 -5 -13.5t-14 -5.5q-8 0 -13.5 5.5t-5.5 13.5t5.5 14t13.5 6q9 0 14 -5.5zM271.5 706q5.5 -6 5.5 -14t-5.5 -13.5
t-13.5 -5.5q-9 0 -14.5 5.5t-5.5 13.5t5.5 14t14.5 6q8 0 13.5 -6z" />
    <glyph glyph-name="Amacron" unicode="&#x100;" horiz-adv-x="470" 
d="M420 0l-57 203h-257l-57 -203h-21l193 681h28l194 -681h-23zM112 224h245l-122 439zM322 811h-174v20h174v-20z" />
    <glyph glyph-name="amacron" unicode="&#x101;" horiz-adv-x="434" 
d="M347.5 35q8.5 -20 29.5 -29l-5 -16q-27 10 -39.5 32t-13.5 64q-24 -48 -56.5 -72t-78.5 -24q-61 0 -96 42.5t-35 111.5q0 79 47 121.5t131 42.5h86v69q0 65 -24.5 98.5t-79.5 33.5q-56 0 -121 -31l-8 17q66 34 130 34q125 0 125 -150v-283q0 -41 8.5 -61zM317 120v168
h-84q-77 0 -116.5 -36.5t-39.5 -107.5q0 -63 28.5 -98t78.5 -35q90 0 133 109zM300 685h-174v20h174v-20z" />
    <glyph glyph-name="Abreve" unicode="&#x102;" horiz-adv-x="470" 
d="M420 0l-57 203h-257l-57 -203h-21l193 681h28l194 -681h-23zM112 224h245l-122 439zM174.5 792.5q-24.5 21.5 -30.5 54.5l16 4q8 -27 27.5 -43t47.5 -16t47.5 16t28.5 43l15 -4q-5 -33 -30 -54.5t-61 -21.5t-60.5 21.5z" />
    <glyph glyph-name="abreve" unicode="&#x103;" horiz-adv-x="434" 
d="M347.5 35q8.5 -20 29.5 -29l-5 -16q-27 10 -39.5 32t-13.5 64q-24 -48 -56.5 -72t-78.5 -24q-61 0 -96 42.5t-35 111.5q0 79 47 121.5t131 42.5h86v69q0 65 -24.5 98.5t-79.5 33.5q-56 0 -121 -31l-8 17q66 34 130 34q125 0 125 -150v-283q0 -41 8.5 -61zM317 120v168
h-84q-77 0 -116.5 -36.5t-39.5 -107.5q0 -63 28.5 -98t78.5 -35q90 0 133 109zM152 685q-24 23 -30 63l16 4q16 -69 75 -69q61 0 75 69l16 -4q-5 -40 -29.5 -63t-61.5 -23t-61 23z" />
    <glyph glyph-name="Aogonek" unicode="&#x104;" horiz-adv-x="470" 
d="M354 -166q14 -15 42 -15q22 0 46 7l-2 -22q-24 -7 -45 -7q-38 0 -58 22t-20 58q0 41 26 71t76 57l-56 198h-257l-57 -203h-21l193 681h28l194 -681q-51 -26 -77 -53.5t-26 -69.5q0 -28 14 -43zM112 224h245l-122 439z" />
    <glyph glyph-name="aogonek" unicode="&#x105;" horiz-adv-x="434" 
d="M295 -63.5q-26 -27.5 -26 -69.5q0 -28 14 -43t42 -15q22 0 46 7l-2 -22q-24 -7 -45 -7q-38 0 -58 22t-20 58q0 43 27.5 73.5t81.5 57.5q-18 12 -26.5 32.5t-9.5 55.5q-24 -48 -56.5 -72t-78.5 -24q-61 0 -96 42.5t-35 111.5q0 79 47 121.5t131 42.5h86v69
q0 65 -24.5 98.5t-79.5 33.5q-56 0 -121 -31l-8 17q66 34 130 34q125 0 125 -150v-283q0 -41 8.5 -61t29.5 -29l-5 -16q-51 -26 -77 -53.5zM317 120v168h-84q-77 0 -116.5 -36.5t-39.5 -107.5q0 -63 28.5 -98t78.5 -35q90 0 133 109z" />
    <glyph glyph-name="Cacute" unicode="&#x106;" horiz-adv-x="443" 
d="M356 676.5q31 -14.5 60 -43.5l-13 -15q-29 27 -55.5 39.5t-63.5 12.5q-89 0 -143.5 -80.5t-54.5 -249.5q0 -163 53.5 -245.5t141.5 -82.5q42 0 70 14.5t57 41.5l14 -15q-59 -63 -141 -63q-64 0 -113.5 39t-77 117.5t-27.5 193.5q0 119 28.5 197.5t77.5 116t113 37.5
q43 0 74 -14.5zM347 858l11 -22l-148 -72l-7 14z" />
    <glyph glyph-name="cacute" unicode="&#x107;" horiz-adv-x="375" 
d="M293 517q26 -12 51 -38l-13 -14q-42 44 -98 44q-70 0 -110.5 -62t-40.5 -190q0 -125 40.5 -185.5t109.5 -60.5q58 0 104 46l12 -13q-51 -54 -115 -54q-81 0 -127.5 67t-46.5 200q0 134 46.5 203t127.5 69q34 0 60 -12zM290 759l13 -21l-148 -84l-9 14z" />
    <glyph glyph-name="Ccircumflex" unicode="&#x108;" horiz-adv-x="443" 
d="M356 676.5q31 -14.5 60 -43.5l-13 -15q-29 27 -55.5 39.5t-63.5 12.5q-89 0 -143.5 -80.5t-54.5 -249.5q0 -163 53.5 -245.5t141.5 -82.5q42 0 70 14.5t57 41.5l14 -15q-59 -63 -141 -63q-64 0 -113.5 39t-77 117.5t-27.5 193.5q0 119 28.5 197.5t77.5 116t113 37.5
q43 0 74 -14.5zM186 767l-11 11l99 91h12l100 -91l-12 -11l-94 79z" />
    <glyph glyph-name="ccircumflex" unicode="&#x109;" horiz-adv-x="375" 
d="M293 517q26 -12 51 -38l-13 -14q-42 44 -98 44q-70 0 -110.5 -62t-40.5 -190q0 -125 40.5 -185.5t109.5 -60.5q58 0 104 46l12 -13q-51 -54 -115 -54q-81 0 -127.5 67t-46.5 200q0 134 46.5 203t127.5 69q34 0 60 -12zM136 655l-11 10l99 97h13l98 -97l-11 -10l-94 84z
" />
    <glyph glyph-name="Cdotaccent" unicode="&#x10a;" horiz-adv-x="443" 
d="M356 676.5q31 -14.5 60 -43.5l-13 -15q-29 27 -55.5 39.5t-63.5 12.5q-89 0 -143.5 -80.5t-54.5 -249.5q0 -163 53.5 -245.5t141.5 -82.5q42 0 70 14.5t57 41.5l14 -15q-59 -63 -141 -63q-64 0 -113.5 39t-77 117.5t-27.5 193.5q0 119 28.5 197.5t77.5 116t113 37.5
q43 0 74 -14.5zM295.5 844q5.5 -6 5.5 -14t-5.5 -13.5t-13.5 -5.5q-9 0 -14.5 5.5t-5.5 13.5t5.5 14t14.5 6q8 0 13.5 -6z" />
    <glyph glyph-name="cdotaccent" unicode="&#x10b;" horiz-adv-x="375" 
d="M293 517q26 -12 51 -38l-13 -14q-42 44 -98 44q-70 0 -110.5 -62t-40.5 -190q0 -125 40.5 -185.5t109.5 -60.5q58 0 104 46l12 -13q-51 -54 -115 -54q-81 0 -127.5 67t-46.5 200q0 134 46.5 203t127.5 69q34 0 60 -12zM244.5 718q5.5 -6 5.5 -14t-5.5 -13.5t-13.5 -5.5
q-9 0 -14.5 5.5t-5.5 13.5t5.5 14t14.5 6q8 0 13.5 -6z" />
    <glyph glyph-name="Ccaron" unicode="&#x10c;" horiz-adv-x="443" 
d="M356 676.5q31 -14.5 60 -43.5l-13 -15q-29 27 -55.5 39.5t-63.5 12.5q-89 0 -143.5 -80.5t-54.5 -249.5q0 -163 53.5 -245.5t141.5 -82.5q42 0 70 14.5t57 41.5l14 -15q-59 -63 -141 -63q-64 0 -113.5 39t-77 117.5t-27.5 193.5q0 119 28.5 197.5t77.5 116t113 37.5
q43 0 74 -14.5zM376 863l9 -11l-99 -92h-12l-99 92l10 11l95 -80z" />
    <glyph glyph-name="ccaron" unicode="&#x10d;" horiz-adv-x="375" 
d="M293 517q26 -12 51 -38l-13 -14q-42 44 -98 44q-70 0 -110.5 -62t-40.5 -190q0 -125 40.5 -185.5t109.5 -60.5q58 0 104 46l12 -13q-51 -54 -115 -54q-81 0 -127.5 67t-46.5 200q0 134 46.5 203t127.5 69q34 0 60 -12zM325 748l11 -10l-99 -97h-12l-99 97l11 10l94 -84z
" />
    <glyph glyph-name="Dcaron" unicode="&#x10e;" horiz-adv-x="510" 
d="M378.5 609q68.5 -72 68.5 -261q0 -193 -70 -270.5t-172 -77.5h-105v681h101q109 0 177.5 -72zM122 660v-639h84q94 0 155.5 72.5t61.5 254.5t-62 247t-160 65h-79zM337 863l9 -11l-99 -92h-12l-99 92l10 11l95 -80z" />
    <glyph glyph-name="dcaron" unicode="&#x10f;" horiz-adv-x="468" 
d="M373 733v-733h-20l-2 88q-46 -98 -133 -98q-74 0 -116.5 69.5t-42.5 198.5q0 126 44.5 198.5t122.5 72.5t125 -82v289zM295.5 39.5q31.5 28.5 55.5 84.5v291q-46 94 -125 94q-66 0 -105 -64.5t-39 -182.5q0 -123 36 -187t100 -64q46 0 77.5 28.5zM446 588l23 145l-23 2
l-15 -144z" />
    <glyph glyph-name="Dcroat" unicode="&#x110;" horiz-adv-x="509" 
d="M377.5 609q68.5 -72 68.5 -261q0 -193 -70 -270.5t-172 -77.5h-105v341h-78v22h78v318h101q109 0 177.5 -72zM360.5 93.5q61.5 72.5 61.5 254.5t-62 247t-160 65h-79v-297h155v-22h-155v-320h84q94 0 155.5 72.5z" />
    <glyph glyph-name="dcroat" unicode="&#x111;" horiz-adv-x="472" 
d="M435 649v-20h-62v-629h-20l-2 88q-46 -98 -133 -98q-74 0 -116.5 69.5t-42.5 198.5q0 126 44.5 198.5t122.5 72.5t125 -82v182h-141v20h141v87l22 -3v-84h62zM295.5 39.5q31.5 28.5 55.5 84.5v291q-46 94 -125 94q-66 0 -105 -64.5t-39 -182.5q0 -123 36 -187t100 -64
q46 0 77.5 28.5z" />
    <glyph glyph-name="Emacron" unicode="&#x112;" horiz-adv-x="407" 
d="M365 681l-3 -21h-240v-290h208v-21h-208v-328h249v-21h-271v681h265zM323 811h-174v20h174v-20z" />
    <glyph glyph-name="emacron" unicode="&#x113;" horiz-adv-x="433" 
d="M378 246h-297q3 -119 43 -177t106 -58q36 0 63 13t55 41l14 -14q-30 -30 -61 -45.5t-70 -15.5q-80 0 -126 68t-46 197q0 133 44.5 203.5t121.5 70.5t116 -64t39 -181q0 -16 -2 -38zM358 292q0 103 -33 160t-100 57q-64 0 -103.5 -60.5t-40.5 -183.5h276q1 8 1 27z
M312 685h-174v20h174v-20z" />
    <glyph glyph-name="Ebreve" unicode="&#x114;" horiz-adv-x="407" 
d="M365 681l-3 -21h-240v-290h208v-21h-208v-328h249v-21h-271v681h265zM175.5 792.5q-24.5 21.5 -30.5 54.5l16 4q8 -27 27.5 -43t47.5 -16t47.5 16t28.5 43l15 -4q-5 -33 -30 -54.5t-61 -21.5t-60.5 21.5z" />
    <glyph glyph-name="ebreve" unicode="&#x115;" horiz-adv-x="433" 
d="M378 246h-297q3 -119 43 -177t106 -58q36 0 63 13t55 41l14 -14q-30 -30 -61 -45.5t-70 -15.5q-80 0 -126 68t-46 197q0 133 44.5 203.5t121.5 70.5t116 -64t39 -181q0 -16 -2 -38zM358 292q0 103 -33 160t-100 57q-64 0 -103.5 -60.5t-40.5 -183.5h276q1 8 1 27z
M164 685q-24 23 -30 63l16 4q16 -69 75 -69q61 0 75 69l16 -4q-5 -40 -29.5 -63t-61.5 -23t-61 23z" />
    <glyph glyph-name="Edotaccent" unicode="&#x116;" horiz-adv-x="407" 
d="M365 681l-3 -21h-240v-290h208v-21h-208v-328h249v-21h-271v681h265zM250.5 844q5.5 -6 5.5 -14t-5.5 -13.5t-13.5 -5.5q-9 0 -14.5 5.5t-5.5 13.5t5.5 14t14.5 6q8 0 13.5 -6z" />
    <glyph glyph-name="edotaccent" unicode="&#x117;" horiz-adv-x="433" 
d="M378 246h-297q3 -119 43 -177t106 -58q36 0 63 13t55 41l14 -14q-30 -30 -61 -45.5t-70 -15.5q-80 0 -126 68t-46 197q0 133 44.5 203.5t121.5 70.5t116 -64t39 -181q0 -16 -2 -38zM358 292q0 103 -33 160t-100 57q-64 0 -103.5 -60.5t-40.5 -183.5h276q1 8 1 27z
M238.5 718q5.5 -6 5.5 -14t-5.5 -13.5t-13.5 -5.5q-9 0 -14.5 5.5t-5.5 13.5t5.5 14t14.5 6q8 0 13.5 -6z" />
    <glyph glyph-name="Eogonek" unicode="&#x118;" horiz-adv-x="407" 
d="M371 21v-21h-22q-51 -26 -77 -53.5t-26 -69.5q0 -28 14 -43t42 -15q22 0 46 7l-2 -22q-24 -7 -45 -7q-38 0 -58 22t-20 58q0 39 23.5 68t69.5 55h-216v681h265l-3 -21h-240v-290h208v-21h-208v-328h249z" />
    <glyph glyph-name="eogonek" unicode="&#x119;" horiz-adv-x="433" 
d="M378 246h-297q3 -119 43 -177t106 -58q36 0 63 13t55 41l14 -14q-36 -36 -73 -50q-46 -25 -70 -52t-24 -65q0 -28 15 -44t43 -16q20 0 44 7l-2 -22q-22 -7 -45 -7q-38 0 -58 22.5t-20 59.5q0 33 18.5 59t54.5 48q-5 -1 -14 -1q-80 0 -126 68t-46 197q0 133 44.5 203.5
t121.5 70.5t116 -64t39 -181q0 -16 -2 -38zM358 292q0 103 -33 160t-100 57q-64 0 -103.5 -60.5t-40.5 -183.5h276q1 8 1 27z" />
    <glyph glyph-name="Ecaron" unicode="&#x11a;" horiz-adv-x="407" 
d="M365 681l-3 -21h-240v-290h208v-21h-208v-328h249v-21h-271v681h265zM331 863l9 -11l-99 -92h-12l-99 92l10 11l95 -80z" />
    <glyph glyph-name="ecaron" unicode="&#x11b;" horiz-adv-x="433" 
d="M378 246h-297q3 -119 43 -177t106 -58q36 0 63 13t55 41l14 -14q-30 -30 -61 -45.5t-70 -15.5q-80 0 -126 68t-46 197q0 133 44.5 203.5t121.5 70.5t116 -64t39 -181q0 -16 -2 -38zM358 292q0 103 -33 160t-100 57q-64 0 -103.5 -60.5t-40.5 -183.5h276q1 8 1 27z
M319 748l11 -10l-99 -97h-12l-99 97l11 10l94 -84z" />
    <glyph glyph-name="Gcircumflex" unicode="&#x11c;" horiz-adv-x="498" 
d="M360.5 677q32.5 -14 65.5 -45l-14 -15q-30 28 -59.5 40.5t-66.5 12.5q-53 0 -98 -31.5t-73.5 -104.5t-28.5 -189q0 -172 53.5 -252.5t148.5 -80.5q39 0 70 10.5t59 30.5v280h-118l-3 21h143v-313q-71 -51 -149 -51q-107 0 -167 87t-60 268q0 120 31.5 197.5t82 113
t109.5 35.5q42 0 74.5 -14zM189 767l-11 11l99 91h12l100 -91l-12 -11l-94 79z" />
    <glyph glyph-name="gcircumflex" unicode="&#x11d;" horiz-adv-x="402" 
d="M389 526q-41 -14 -127 -15q41 -15 63.5 -54.5t22.5 -100.5q0 -79 -38.5 -122.5t-106.5 -43.5q-30 0 -62 14q-42 -30 -42 -75q0 -66 90 -66h52q65 0 101 -32.5t36 -87.5q0 -64 -43.5 -102t-128.5 -38q-90 0 -130.5 33t-40.5 106h21q1 -64 35 -91t115 -27q76 0 112.5 32
t36.5 86q0 48 -30 74.5t-86 26.5h-52q-55 0 -82 22.5t-27 60.5q0 51 46 85q-72 45 -72 147q0 80 40 125.5t109 45.5q83 0 116.5 4.5t64.5 16.5zM107 469q-32 -40 -32 -111t36 -109.5t92 -38.5q58 0 90.5 37t32.5 109t-33.5 112.5t-92.5 40.5q-61 0 -93 -40zM106 655l-11 10
l99 97h13l98 -97l-11 -10l-94 84z" />
    <glyph glyph-name="Gbreve" unicode="&#x11e;" horiz-adv-x="498" 
d="M360.5 677q32.5 -14 65.5 -45l-14 -15q-30 28 -59.5 40.5t-66.5 12.5q-53 0 -98 -31.5t-73.5 -104.5t-28.5 -189q0 -172 53.5 -252.5t148.5 -80.5q39 0 70 10.5t59 30.5v280h-118l-3 21h143v-313q-71 -51 -149 -51q-107 0 -167 87t-60 268q0 120 31.5 197.5t82 113
t109.5 35.5q42 0 74.5 -14zM223.5 792.5q-24.5 21.5 -30.5 54.5l16 4q8 -27 27.5 -43t47.5 -16t47.5 16t28.5 43l15 -4q-5 -33 -30 -54.5t-61 -21.5t-60.5 21.5z" />
    <glyph glyph-name="gbreve" unicode="&#x11f;" horiz-adv-x="402" 
d="M389 526q-41 -14 -127 -15q41 -15 63.5 -54.5t22.5 -100.5q0 -79 -38.5 -122.5t-106.5 -43.5q-30 0 -62 14q-42 -30 -42 -75q0 -66 90 -66h52q65 0 101 -32.5t36 -87.5q0 -64 -43.5 -102t-128.5 -38q-90 0 -130.5 33t-40.5 106h21q1 -64 35 -91t115 -27q76 0 112.5 32
t36.5 86q0 48 -30 74.5t-86 26.5h-52q-55 0 -82 22.5t-27 60.5q0 51 46 85q-72 45 -72 147q0 80 40 125.5t109 45.5q83 0 116.5 4.5t64.5 16.5zM107 469q-32 -40 -32 -111t36 -109.5t92 -38.5q58 0 90.5 37t32.5 109t-33.5 112.5t-92.5 40.5q-61 0 -93 -40zM140 685
q-24 23 -30 63l16 4q16 -69 75 -69q61 0 75 69l16 -4q-5 -40 -29.5 -63t-61.5 -23t-61 23z" />
    <glyph glyph-name="Gdotaccent" unicode="&#x120;" horiz-adv-x="498" 
d="M360.5 677q32.5 -14 65.5 -45l-14 -15q-30 28 -59.5 40.5t-66.5 12.5q-53 0 -98 -31.5t-73.5 -104.5t-28.5 -189q0 -172 53.5 -252.5t148.5 -80.5q39 0 70 10.5t59 30.5v280h-118l-3 21h143v-313q-71 -51 -149 -51q-107 0 -167 87t-60 268q0 120 31.5 197.5t82 113
t109.5 35.5q42 0 74.5 -14zM298.5 844q5.5 -6 5.5 -14t-5.5 -13.5t-13.5 -5.5q-9 0 -14.5 5.5t-5.5 13.5t5.5 14t14.5 6q8 0 13.5 -6z" />
    <glyph glyph-name="gdotaccent" unicode="&#x121;" horiz-adv-x="402" 
d="M389 526q-41 -14 -127 -15q41 -15 63.5 -54.5t22.5 -100.5q0 -79 -38.5 -122.5t-106.5 -43.5q-30 0 -62 14q-42 -30 -42 -75q0 -66 90 -66h52q65 0 101 -32.5t36 -87.5q0 -64 -43.5 -102t-128.5 -38q-90 0 -130.5 33t-40.5 106h21q1 -64 35 -91t115 -27q76 0 112.5 32
t36.5 86q0 48 -30 74.5t-86 26.5h-52q-55 0 -82 22.5t-27 60.5q0 51 46 85q-72 45 -72 147q0 80 40 125.5t109 45.5q83 0 116.5 4.5t64.5 16.5zM107 469q-32 -40 -32 -111t36 -109.5t92 -38.5q58 0 90.5 37t32.5 109t-33.5 112.5t-92.5 40.5q-61 0 -93 -40zM214.5 718
q5.5 -6 5.5 -14t-5.5 -13.5t-13.5 -5.5q-9 0 -14.5 5.5t-5.5 13.5t5.5 14t14.5 6q8 0 13.5 -6z" />
    <glyph glyph-name="Gcommaaccent" unicode="&#x122;" horiz-adv-x="498" 
d="M360.5 677q32.5 -14 65.5 -45l-14 -15q-30 28 -59.5 40.5t-66.5 12.5q-53 0 -98 -31.5t-73.5 -104.5t-28.5 -189q0 -172 53.5 -252.5t148.5 -80.5q39 0 70 10.5t59 30.5v280h-118l-3 21h143v-313q-71 -51 -149 -51q-107 0 -167 87t-60 268q0 120 31.5 197.5t82 113
t109.5 35.5q42 0 74.5 -14zM292 -102q6 -6 6 -17q0 -10 -5 -24.5t-7 -20.5l-29 -94h-15l26 116q-16 7 -16 23q0 10 6 16.5t17 6.5t17 -6z" />
    <glyph glyph-name="gcommaaccent" unicode="&#x123;" horiz-adv-x="402" 
d="M389 526q-41 -14 -127 -15q41 -15 63.5 -54.5t22.5 -100.5q0 -79 -38.5 -122.5t-106.5 -43.5q-30 0 -62 14q-42 -30 -42 -75q0 -66 90 -66h52q65 0 101 -32.5t36 -87.5q0 -64 -43.5 -102t-128.5 -38q-90 0 -130.5 33t-40.5 106h21q1 -64 35 -91t115 -27q76 0 112.5 32
t36.5 86q0 48 -30 74.5t-86 26.5h-52q-55 0 -82 22.5t-27 60.5q0 51 46 85q-72 45 -72 147q0 80 40 125.5t109 45.5q83 0 116.5 4.5t64.5 16.5zM107 469q-32 -40 -32 -111t36 -109.5t92 -38.5q58 0 90.5 37t32.5 109t-33.5 112.5t-92.5 40.5q-61 0 -93 -40zM183 601
q-6 6 -6 17q0 10 5 24.5t7 20.5l29 94h15l-26 -116q16 -7 16 -23q0 -10 -6 -16.5t-17 -6.5t-17 6z" />
    <glyph glyph-name="Hcircumflex" unicode="&#x124;" horiz-adv-x="542" 
d="M420 0v349h-298v-349h-22v681h22v-311h298v311h23v-681h-23zM175 767l-11 11l99 91h12l100 -91l-12 -11l-94 79z" />
    <glyph glyph-name="hcircumflex" unicode="&#x125;" horiz-adv-x="477" 
d="M357 489.5q29 -39.5 29 -110.5v-379h-22v377q0 64 -23.5 98t-70.5 34t-84 -33t-68 -95v-381h-22v733l22 3v-323q64 116 154 116q56 0 85 -39.5zM147 818l-11 11l99 91h12l100 -91l-12 -11l-94 79z" />
    <glyph glyph-name="Hbar" unicode="&#x126;" horiz-adv-x="546" 
d="M494 538v-18h-49v-520h-23v349h-298v-349h-22v520h-50v18h50v143h22v-143h298v143h23v-143h49zM422 370v150h-298v-150h298z" />
    <glyph glyph-name="hbar" unicode="&#x127;" horiz-adv-x="481" 
d="M361 489.5q29 -39.5 29 -110.5v-379h-22v377q0 64 -23.5 98t-70.5 34t-84 -33t-68 -95v-381h-22v629h-62v20h62v84l22 3v-87h147v-20h-147v-216q64 116 154 116q56 0 85 -39.5z" />
    <glyph glyph-name="Itilde" unicode="&#x128;" horiz-adv-x="222" 
d="M122 681v-681h-22v681h22zM131.5 810q-12.5 6 -27.5 18l-12 8t-16.5 9t-13.5 3q-14 0 -24.5 -8t-23.5 -27l-14 8q15 23 29.5 34.5t32.5 11.5q12 0 22 -5t27 -17q15 -11 25.5 -16.5t21.5 -5.5q14 0 25 9.5t24 31.5l14 -7q-14 -28 -29 -40.5t-34 -12.5q-14 0 -26.5 6z" />
    <glyph glyph-name="itilde" unicode="&#x129;" horiz-adv-x="213" 
d="M118 519v-519h-22v519h22zM128.5 684q-12.5 6 -27.5 18l-12 8t-16.5 9t-13.5 3q-14 0 -24.5 -8t-23.5 -27l-14 8q15 23 29.5 34.5t32.5 11.5q12 0 22 -5t27 -17q15 -11 25.5 -16.5t21.5 -5.5q14 0 25 9.5t24 31.5l14 -7q-14 -28 -29 -40.5t-34 -12.5q-14 0 -26.5 6z" />
    <glyph glyph-name="Imacron" unicode="&#x12a;" horiz-adv-x="222" 
d="M122 681v-681h-22v681h22zM198 811h-174v20h174v-20z" />
    <glyph glyph-name="imacron" unicode="&#x12b;" horiz-adv-x="213" 
d="M118 519v-519h-22v519h22zM194 685h-174v20h174v-20z" />
    <glyph glyph-name="Ibreve" unicode="&#x12c;" horiz-adv-x="222" 
d="M122 681v-681h-22v681h22zM50.5 792.5q-24.5 21.5 -30.5 54.5l16 4q8 -27 27.5 -43t47.5 -16t47.5 16t28.5 43l15 -4q-5 -33 -30 -54.5t-61 -21.5t-60.5 21.5z" />
    <glyph glyph-name="ibreve" unicode="&#x12d;" horiz-adv-x="213" 
d="M118 519v-519h-22v519h22zM46 685q-24 23 -30 63l16 4q16 -69 75 -69q61 0 75 69l16 -4q-5 -40 -29.5 -63t-61.5 -23t-61 23z" />
    <glyph glyph-name="Iogonek" unicode="&#x12e;" horiz-adv-x="222" 
d="M45 -53.5q-26 -27.5 -26 -69.5q0 -28 14 -43t42 -15q22 0 46 7l-2 -22q-24 -7 -45 -7q-38 0 -58 22t-20 58q0 42 26.5 72t77.5 57v675h22v-681q-51 -26 -77 -53.5z" />
    <glyph glyph-name="iogonek" unicode="&#x12f;" horiz-adv-x="213" 
d="M120.5 718q5.5 -6 5.5 -14t-5.5 -13.5t-13.5 -5.5q-9 0 -14.5 5.5t-5.5 13.5t5.5 14t14.5 6q8 0 13.5 -6zM96 519h22v-519q-51 -26 -77 -53.5t-26 -69.5q0 -28 14 -43t42 -15q22 0 46 7l-2 -22q-24 -7 -45 -7q-38 0 -58 22t-20 58q0 42 26.5 72t77.5 57v513z" />
    <glyph glyph-name="Idotaccent" unicode="&#x130;" horiz-adv-x="222" 
d="M122 681v-681h-22v681h22zM125.5 844q5.5 -6 5.5 -14t-5.5 -13.5t-13.5 -5.5q-9 0 -14.5 5.5t-5.5 13.5t5.5 14t14.5 6q8 0 13.5 -6z" />
    <glyph glyph-name="dotlessi" unicode="&#x131;" horiz-adv-x="213" 
d="M118 519v-519h-22v519h22z" />
    <glyph glyph-name="IJ" unicode="&#x132;" horiz-adv-x="451" 
d="M122 681v-681h-22v681h22zM356 87q0 -52 -9 -84t-32.5 -55.5t-68.5 -47.5l-6 16q39 23 58.5 44.5t27.5 50.5t8 78v592h22v-594z" />
    <glyph glyph-name="ij" unicode="&#x133;" horiz-adv-x="426" 
d="M118 519v-519h-22v519h22zM120.5 718q5.5 -6 5.5 -14t-5.5 -13.5t-13.5 -5.5q-9 0 -14.5 5.5t-5.5 13.5t5.5 14t14.5 6q8 0 13.5 -6zM331 -25q0 -47 -10 -77t-30 -50.5t-55 -42.5l-9 16q46 29 64 60.5t18 94.5v543h22v-544zM332.5 718q5.5 -6 5.5 -14t-5.5 -13.5
t-13.5 -5.5q-9 0 -14.5 5.5t-5.5 13.5t5.5 14t14.5 6q8 0 13.5 -6z" />
    <glyph glyph-name="Jcircumflex" unicode="&#x134;" horiz-adv-x="229" 
d="M134 87q0 -52 -9 -84t-32.5 -55.5t-68.5 -47.5l-6 16q39 23 58.5 44.5t27.5 50.5t8 78v592h22v-594zM27 767l-11 11l99 91h12l100 -91l-12 -11l-94 79z" />
    <glyph glyph-name="jcircumflex" unicode="&#x135;" horiz-adv-x="213" 
d="M118 -25q0 -47 -10 -77t-30 -50.5t-55 -42.5l-9 16q46 29 64 60.5t18 94.5v543h22v-544zM11 655l-11 10l99 97h13l98 -97l-11 -10l-94 84z" />
    <glyph glyph-name="Kcommaaccent" unicode="&#x136;" horiz-adv-x="433" 
d="M122 681v-681h-22v681h22zM407 681l-255 -314l268 -367h-26l-269 367l256 314h26zM259 -102q6 -6 6 -17q0 -10 -5 -24.5t-7 -20.5l-29 -94h-15l26 116q-16 7 -16 23q0 10 6 16.5t17 6.5t17 -6z" />
    <glyph glyph-name="kcommaaccent" unicode="&#x137;" horiz-adv-x="382" 
d="M118 736v-736h-22v733zM349 519l-201 -235l221 -284h-26l-220 284l200 235h26zM235 -102q6 -6 6 -17q0 -10 -5 -24.5t-7 -20.5l-29 -94h-15l26 116q-16 7 -16 23q0 10 6 16.5t17 6.5t17 -6z" />
    <glyph glyph-name="kgreenlandic" unicode="&#x138;" horiz-adv-x="382" 
d="M118 519v-519h-22v519h22zM349 519l-201 -245l221 -274h-26l-220 274l200 245h26z" />
    <glyph glyph-name="Lacute" unicode="&#x139;" horiz-adv-x="375" 
d="M122 681v-659h236l-3 -22h-255v681h22zM177 858l11 -22l-148 -72l-7 14z" />
    <glyph glyph-name="lacute" unicode="&#x13a;" horiz-adv-x="227" 
d="M107.5 8.5q-16.5 18.5 -16.5 52.5v672l22 3v-675q0 -51 41 -51q14 0 31 7l7 -17q-22 -10 -40 -10q-28 0 -44.5 18.5zM168 910l11 -22l-148 -72l-7 14z" />
    <glyph glyph-name="Lcommaaccent" unicode="&#x13b;" horiz-adv-x="375" 
d="M122 681v-659h236l-3 -22h-255v681h22zM244 -102q6 -6 6 -17q0 -10 -5 -24.5t-7 -20.5l-29 -94h-15l26 116q-16 7 -16 23q0 10 6 16.5t17 6.5t17 -6z" />
    <glyph glyph-name="lcommaaccent" unicode="&#x13c;" horiz-adv-x="227" 
d="M107.5 8.5q-16.5 18.5 -16.5 52.5v672l22 3v-675q0 -51 41 -51q14 0 31 7l7 -17q-22 -10 -40 -10q-28 0 -44.5 18.5zM161 -102q6 -6 6 -17q0 -10 -5 -24.5t-7 -20.5l-29 -94h-15l26 116q-16 7 -16 23q0 10 6 16.5t17 6.5t17 -6z" />
    <glyph glyph-name="Lcaron" unicode="&#x13d;" horiz-adv-x="375" 
d="M122 681v-659h236l-3 -22h-255v681h22zM197 537l23 145l-23 2l-15 -144z" />
    <glyph glyph-name="lcaron" unicode="&#x13e;" horiz-adv-x="227" 
d="M107.5 8.5q-16.5 18.5 -16.5 52.5v672l22 3v-675q0 -51 41 -51q14 0 31 7l7 -17q-22 -10 -40 -10q-28 0 -44.5 18.5zM189 588l23 145l-23 2l-15 -144z" />
    <glyph glyph-name="Ldot" unicode="&#x13f;" horiz-adv-x="375" 
d="M122 681v-659h236l-3 -22h-255v681h22zM304.5 368q5.5 -6 5.5 -14t-5.5 -13.5t-13.5 -5.5q-9 0 -14.5 5.5t-5.5 13.5t5.5 14t14.5 6q8 0 13.5 -6z" />
    <glyph glyph-name="ldot" unicode="&#x140;" horiz-adv-x="227" 
d="M107.5 8.5q-16.5 18.5 -16.5 52.5v672l22 3v-675q0 -51 41 -51q14 0 31 7l7 -17q-22 -10 -40 -10q-28 0 -44.5 18.5zM228.5 389q5.5 -6 5.5 -14t-5.5 -13.5t-13.5 -5.5q-9 0 -14.5 5.5t-5.5 13.5t5.5 14t14.5 6q8 0 13.5 -6z" />
    <glyph glyph-name="Lslash" unicode="&#x141;" horiz-adv-x="380" 
d="M127 22h236l-3 -22h-255v307l-60 -45l-9 17l69 51v351h22v-334l162 123l10 -17l-172 -129v-302z" />
    <glyph glyph-name="lslash" unicode="&#x142;" horiz-adv-x="238" 
d="M191 17l7 -17q-22 -10 -40 -10q-28 0 -44.5 18.5t-16.5 52.5v285l-53 -39l-10 14l63 47v365l22 3v-352l85 63l9 -15l-94 -70v-301q0 -51 41 -51q14 0 31 7z" />
    <glyph glyph-name="Nacute" unicode="&#x143;" horiz-adv-x="544" 
d="M444 0h-29l-296 655q3 -102 3 -178v-477h-22v681h29l296 -655q0 14 -1 22q-2 80 -2 157v476h22v-681zM343 858l11 -22l-148 -72l-7 14z" />
    <glyph glyph-name="nacute" unicode="&#x144;" horiz-adv-x="477" 
d="M357 489.5q29 -39.5 29 -110.5v-379h-22v377q0 64 -23.5 98t-70.5 34q-88 0 -152 -128v-381h-22v519h19l2 -105q30 56 67.5 85.5t87.5 29.5q56 0 85 -39.5zM302 759l13 -21l-148 -84l-9 14z" />
    <glyph glyph-name="Ncommaaccent" unicode="&#x145;" horiz-adv-x="544" 
d="M444 0h-29l-296 655q3 -102 3 -178v-477h-22v681h29l296 -655q0 14 -1 22q-2 80 -2 157v476h22v-681zM286 -102q6 -6 6 -17q0 -10 -5 -24.5t-7 -20.5l-29 -94h-15l26 116q-16 7 -16 23q0 10 6 16.5t17 6.5t17 -6z" />
    <glyph glyph-name="ncommaaccent" unicode="&#x146;" horiz-adv-x="477" 
d="M357 489.5q29 -39.5 29 -110.5v-379h-22v377q0 64 -23.5 98t-70.5 34q-88 0 -152 -128v-381h-22v519h19l2 -105q30 56 67.5 85.5t87.5 29.5q56 0 85 -39.5zM253 -102q6 -6 6 -17q0 -10 -5 -24.5t-7 -20.5l-29 -94h-15l26 116q-16 7 -16 23q0 10 6 16.5t17 6.5t17 -6z" />
    <glyph glyph-name="Ncaron" unicode="&#x147;" horiz-adv-x="544" 
d="M444 0h-29l-296 655q3 -102 3 -178v-477h-22v681h29l296 -655q0 14 -1 22q-2 80 -2 157v476h22v-681zM372 863l9 -11l-99 -92h-12l-99 92l10 11l95 -80z" />
    <glyph glyph-name="ncaron" unicode="&#x148;" horiz-adv-x="477" 
d="M357 489.5q29 -39.5 29 -110.5v-379h-22v377q0 64 -23.5 98t-70.5 34q-88 0 -152 -128v-381h-22v519h19l2 -105q30 56 67.5 85.5t87.5 29.5q56 0 85 -39.5zM337 748l11 -10l-99 -97h-12l-99 97l11 10l94 -84z" />
    <glyph glyph-name="napostrophe" unicode="&#x149;" horiz-adv-x="534" 
d="M99.5 730.5q6.5 -6.5 6.5 -17.5q0 -9 -5 -24.5t-7 -20.5l-26 -98h-15l23 120q-17 7 -17 23q0 10 6.5 17t17.5 7q10 0 16.5 -6.5zM414 489.5q29 -39.5 29 -110.5v-379h-22v377q0 64 -23.5 98t-70.5 34q-88 0 -152 -128v-381h-22v519h19l2 -105q30 56 67.5 85.5t87.5 29.5
q56 0 85 -39.5z" />
    <glyph glyph-name="Eng" unicode="&#x14a;" horiz-adv-x="544" 
d="M444 681v-783q0 -47 -22.5 -71t-58.5 -24q-42 0 -76 30l12 16q27 -25 63 -25q59 0 59 74v102h-6l-296 655q3 -102 3 -178v-477h-22v681h29l296 -655q0 14 -1 22q-2 80 -2 157v476h22z" />
    <glyph glyph-name="eng" unicode="&#x14b;" horiz-adv-x="477" 
d="M357 489.5q29 -39.5 29 -110.5v-481q0 -47 -22.5 -71t-58.5 -24q-44 0 -76 30l12 15q27 -25 63 -25q27 0 43.5 17.5t16.5 56.5v480q0 64 -23.5 98t-70.5 34q-88 0 -152 -128v-381h-22v519h19l2 -105q30 56 67.5 85.5t87.5 29.5q56 0 85 -39.5z" />
    <glyph glyph-name="Omacron" unicode="&#x14c;" horiz-adv-x="565" 
d="M444.5 603q58.5 -88 58.5 -263q0 -172 -57.5 -261t-162.5 -89q-102 0 -161 89t-59 260q0 172 59.5 262t160.5 90q103 0 161.5 -88zM139 587q-53 -83 -53 -248q0 -163 53 -245t144 -82q95 0 145.5 81.5t50.5 246.5q0 167 -51.5 248.5t-144.5 81.5q-91 0 -144 -83zM370 811
h-174v20h174v-20z" />
    <glyph glyph-name="omacron" unicode="&#x14d;" 
d="M356.5 462.5q44.5 -66.5 44.5 -200.5q0 -135 -45.5 -203.5t-126.5 -68.5t-125.5 68.5t-44.5 200.5q0 134 46 202t126 68q81 0 125.5 -66.5zM121 447q-40 -62 -40 -188q0 -124 38.5 -186t109.5 -62q72 0 111 62t39 189q0 125 -38.5 186t-109.5 61q-70 0 -110 -62zM317 685
h-174v20h174v-20z" />
    <glyph glyph-name="Obreve" unicode="&#x14e;" horiz-adv-x="565" 
d="M444.5 603q58.5 -88 58.5 -263q0 -172 -57.5 -261t-162.5 -89q-102 0 -161 89t-59 260q0 172 59.5 262t160.5 90q103 0 161.5 -88zM139 587q-53 -83 -53 -248q0 -163 53 -245t144 -82q95 0 145.5 81.5t50.5 246.5q0 167 -51.5 248.5t-144.5 81.5q-91 0 -144 -83z
M222.5 792.5q-24.5 21.5 -30.5 54.5l16 4q8 -27 27.5 -43t47.5 -16t47.5 16t28.5 43l15 -4q-5 -33 -30 -54.5t-61 -21.5t-60.5 21.5z" />
    <glyph glyph-name="obreve" unicode="&#x14f;" 
d="M356.5 462.5q44.5 -66.5 44.5 -200.5q0 -135 -45.5 -203.5t-126.5 -68.5t-125.5 68.5t-44.5 200.5q0 134 46 202t126 68q81 0 125.5 -66.5zM121 447q-40 -62 -40 -188q0 -124 38.5 -186t109.5 -62q72 0 111 62t39 189q0 125 -38.5 186t-109.5 61q-70 0 -110 -62zM169 685
q-24 23 -30 63l16 4q16 -69 75 -69q61 0 75 69l16 -4q-5 -40 -29.5 -63t-61.5 -23t-61 23z" />
    <glyph glyph-name="Ohungarumlaut" unicode="&#x150;" horiz-adv-x="565" 
d="M444.5 603q58.5 -88 58.5 -263q0 -172 -57.5 -261t-162.5 -89q-102 0 -161 89t-59 260q0 172 59.5 262t160.5 90q103 0 161.5 -88zM139 587q-53 -83 -53 -248q0 -163 53 -245t144 -82q95 0 145.5 81.5t50.5 246.5q0 167 -51.5 248.5t-144.5 81.5q-91 0 -144 -83zM371 917
l21 -10l-65 -129l-15 7zM279 916l21 -10l-60 -124l-15 7z" />
    <glyph glyph-name="ohungarumlaut" unicode="&#x151;" 
d="M356.5 462.5q44.5 -66.5 44.5 -200.5q0 -135 -45.5 -203.5t-126.5 -68.5t-125.5 68.5t-44.5 200.5q0 134 46 202t126 68q81 0 125.5 -66.5zM121 447q-40 -62 -40 -188q0 -124 38.5 -186t109.5 -62q72 0 111 62t39 189q0 125 -38.5 186t-109.5 61q-70 0 -110 -62zM320 791
l21 -10l-65 -129l-15 7zM228 790l21 -10l-60 -124l-15 7z" />
    <glyph glyph-name="OE" unicode="&#x152;" horiz-adv-x="697" 
d="M661 0h-335q-24 -10 -54 -10q-61 0 -108.5 41t-74 119.5t-26.5 188.5t26.5 189.5t74 121t108.5 41.5q33 0 59 -10h324l-3 -21h-284q54 -34 84 -108t32 -182h135v-21h-135q0 -129 -31 -211.5t-89 -116.5h297v-21zM109.5 161.5q23.5 -73.5 65.5 -111.5t97 -38q89 0 139 87
t50 253q0 101 -23.5 172.5t-66 108.5t-99.5 37q-54 0 -96 -38.5t-66 -113t-24 -179.5q0 -104 23.5 -177.5z" />
    <glyph glyph-name="oe" unicode="&#x153;" horiz-adv-x="753" 
d="M698 246h-297q4 -116 44 -175.5t105 -59.5q36 0 63 13.5t56 41.5l13 -15q-31 -31 -62 -46t-70 -15q-61 0 -102 44t-58 123q-17 -79 -58.5 -123t-101.5 -44q-81 0 -126 69t-45 200q0 133 46 201.5t126 68.5q61 0 102 -43.5t58 -123.5q17 79 57 123t99 44q75 0 114 -64.5
t39 -180.5q0 -16 -2 -38zM339.5 76.5q39.5 65.5 39.5 185.5q0 118 -39 182.5t-109 64.5t-110 -62t-40 -188q0 -123 39 -185.5t110 -62.5q70 0 109.5 65.5zM678 292q0 102 -33 159.5t-99 57.5q-64 0 -104 -62.5t-41 -181.5h277v27z" />
    <glyph glyph-name="Racute" unicode="&#x154;" horiz-adv-x="471" 
d="M411 0l-155 326q-24 -2 -36 -2h-98v-324h-22v681h107q107 0 155 -45.5t48 -131.5q0 -71 -34.5 -115.5t-97.5 -58.5l158 -330h-25zM386 504q0 78 -41 117t-140 39h-83v-315h94q170 0 170 159zM299 858l11 -22l-148 -72l-7 14z" />
    <glyph glyph-name="racute" unicode="&#x155;" horiz-adv-x="299" 
d="M284 523l-4 -18q-18 5 -36 5q-47 0 -76.5 -38.5t-49.5 -120.5v-351h-22v519h19l1 -119q19 67 49.5 98t78.5 31q20 0 40 -6zM248 759l13 -21l-148 -84l-9 14z" />
    <glyph glyph-name="Rcommaaccent" unicode="&#x156;" horiz-adv-x="471" 
d="M411 0l-155 326q-24 -2 -36 -2h-98v-324h-22v681h107q107 0 155 -45.5t48 -131.5q0 -71 -34.5 -115.5t-97.5 -58.5l158 -330h-25zM386 504q0 78 -41 117t-140 39h-83v-315h94q170 0 170 159zM265 -102q6 -6 6 -17q0 -10 -5 -24.5t-7 -20.5l-29 -94h-15l26 116
q-16 7 -16 23q0 10 6 16.5t17 6.5t17 -6z" />
    <glyph glyph-name="rcommaaccent" unicode="&#x157;" horiz-adv-x="299" 
d="M284 523l-4 -18q-18 5 -36 5q-47 0 -76.5 -38.5t-49.5 -120.5v-351h-22v519h19l1 -119q19 67 49.5 98t78.5 31q20 0 40 -6zM122 -102q6 -6 6 -17q0 -10 -5 -24.5t-7 -20.5l-29 -94h-15l26 116q-16 7 -16 23q0 10 6 16.5t17 6.5t17 -6z" />
    <glyph glyph-name="Rcaron" unicode="&#x158;" horiz-adv-x="471" 
d="M411 0l-155 326q-24 -2 -36 -2h-98v-324h-22v681h107q107 0 155 -45.5t48 -131.5q0 -71 -34.5 -115.5t-97.5 -58.5l158 -330h-25zM386 504q0 78 -41 117t-140 39h-83v-315h94q170 0 170 159zM328 863l9 -11l-99 -92h-12l-99 92l10 11l95 -80z" />
    <glyph glyph-name="rcaron" unicode="&#x159;" horiz-adv-x="299" 
d="M284 523l-4 -18q-18 5 -36 5q-47 0 -76.5 -38.5t-49.5 -120.5v-351h-22v519h19l1 -119q19 67 49.5 98t78.5 31q20 0 40 -6zM283 748l11 -10l-99 -97h-12l-99 97l11 10l94 -84z" />
    <glyph glyph-name="Sacute" unicode="&#x15a;" horiz-adv-x="440" 
d="M301 673.5q34 -17.5 66 -51.5l-14 -14q-31 32 -62 47t-73 15q-58 0 -94.5 -39t-36.5 -97t30.5 -92.5t108.5 -64.5q85 -33 122 -76t37 -119q0 -54 -22 -98t-61.5 -69t-89.5 -25q-53 0 -93 21t-76 61l15 13q33 -36 68.5 -54.5t84.5 -18.5q68 0 109.5 47.5t41.5 121.5
q0 70 -32 107.5t-112 69.5q-85 34 -119.5 73t-34.5 103q0 42 19.5 78t54.5 57.5t80 21.5q49 0 83 -17.5zM288 858l11 -22l-148 -72l-7 14z" />
    <glyph glyph-name="sacute" unicode="&#x15b;" horiz-adv-x="378" 
d="M256.5 515.5q30.5 -13.5 59.5 -41.5l-12 -15q-28 26 -54 38t-61 12q-47 0 -78.5 -29.5t-31.5 -78.5q0 -41 25.5 -66.5t90.5 -50.5q74 -30 103.5 -61.5t29.5 -88.5q0 -64 -40 -104t-101 -40q-47 0 -81 17t-64 49l13 14q31 -31 60.5 -45.5t71.5 -14.5q52 0 85.5 33t33.5 91
q0 35 -11.5 57.5t-37 40t-73.5 36.5q-69 27 -98 56.5t-29 76.5q0 55 38 91.5t93 36.5q38 0 68.5 -13.5zM252 759l13 -21l-148 -84l-9 14z" />
    <glyph glyph-name="Scircumflex" unicode="&#x15c;" horiz-adv-x="440" 
d="M301 673.5q34 -17.5 66 -51.5l-14 -14q-31 32 -62 47t-73 15q-58 0 -94.5 -39t-36.5 -97t30.5 -92.5t108.5 -64.5q85 -33 122 -76t37 -119q0 -54 -22 -98t-61.5 -69t-89.5 -25q-53 0 -93 21t-76 61l15 13q33 -36 68.5 -54.5t84.5 -18.5q68 0 109.5 47.5t41.5 121.5
q0 70 -32 107.5t-112 69.5q-85 34 -119.5 73t-34.5 103q0 42 19.5 78t54.5 57.5t80 21.5q49 0 83 -17.5zM127 767l-11 11l99 91h12l100 -91l-12 -11l-94 79z" />
    <glyph glyph-name="scircumflex" unicode="&#x15d;" horiz-adv-x="378" 
d="M256.5 515.5q30.5 -13.5 59.5 -41.5l-12 -15q-28 26 -54 38t-61 12q-47 0 -78.5 -29.5t-31.5 -78.5q0 -41 25.5 -66.5t90.5 -50.5q74 -30 103.5 -61.5t29.5 -88.5q0 -64 -40 -104t-101 -40q-47 0 -81 17t-64 49l13 14q31 -31 60.5 -45.5t71.5 -14.5q52 0 85.5 33t33.5 91
q0 35 -11.5 57.5t-37 40t-73.5 36.5q-69 27 -98 56.5t-29 76.5q0 55 38 91.5t93 36.5q38 0 68.5 -13.5zM98 655l-11 10l99 97h13l98 -97l-11 -10l-94 84z" />
    <glyph glyph-name="Scedilla" unicode="&#x15e;" horiz-adv-x="440" 
d="M363.5 86q-21.5 -43 -59 -68.5t-85.5 -27.5l-2 -64q75 -8 75 -67q0 -34 -20.5 -52.5t-50.5 -18.5q-32 0 -57 18l10 16q21 -15 47 -15q22 0 36 13t14 39t-17.5 38t-56.5 13l4 80q-49 2 -86.5 23t-71.5 59l15 13q33 -36 68.5 -54.5t84.5 -18.5q68 0 109.5 47.5t41.5 121.5
q0 70 -32 107.5t-112 69.5q-85 34 -119.5 73t-34.5 103q0 42 19.5 78t54.5 57.5t80 21.5q49 0 83 -17.5t66 -51.5l-14 -14q-31 32 -62 47t-73 15q-58 0 -94.5 -39t-36.5 -97t30.5 -92.5t108.5 -64.5q85 -33 122 -76t37 -119q0 -53 -21.5 -96z" />
    <glyph glyph-name="scedilla" unicode="&#x15f;" horiz-adv-x="378" 
d="M290 32q-38 -40 -96 -42l-2 -64q75 -8 75 -67q0 -34 -20.5 -52.5t-50.5 -18.5q-32 0 -57 18l10 16q21 -15 47 -15q22 0 36 13t14 39t-17.5 38t-56.5 13l4 80q-43 2 -74.5 19t-59.5 47l13 14q31 -31 60.5 -45.5t71.5 -14.5q52 0 85.5 33t33.5 91q0 35 -11.5 57.5t-37 40
t-73.5 36.5q-69 27 -98 56.5t-29 76.5q0 55 38 91.5t93 36.5q38 0 68.5 -13.5t59.5 -41.5l-12 -15q-28 26 -54 38t-61 12q-47 0 -78.5 -29.5t-31.5 -78.5q0 -41 25.5 -66.5t90.5 -50.5q74 -30 103.5 -61.5t29.5 -88.5q0 -62 -38 -102z" />
    <glyph glyph-name="Scaron" unicode="&#x160;" horiz-adv-x="440" 
d="M301 673.5q34 -17.5 66 -51.5l-14 -14q-31 32 -62 47t-73 15q-58 0 -94.5 -39t-36.5 -97t30.5 -92.5t108.5 -64.5q85 -33 122 -76t37 -119q0 -54 -22 -98t-61.5 -69t-89.5 -25q-53 0 -93 21t-76 61l15 13q33 -36 68.5 -54.5t84.5 -18.5q68 0 109.5 47.5t41.5 121.5
q0 70 -32 107.5t-112 69.5q-85 34 -119.5 73t-34.5 103q0 42 19.5 78t54.5 57.5t80 21.5q49 0 83 -17.5zM317 863l9 -11l-99 -92h-12l-99 92l10 11l95 -80z" />
    <glyph glyph-name="scaron" unicode="&#x161;" horiz-adv-x="378" 
d="M256.5 515.5q30.5 -13.5 59.5 -41.5l-12 -15q-28 26 -54 38t-61 12q-47 0 -78.5 -29.5t-31.5 -78.5q0 -41 25.5 -66.5t90.5 -50.5q74 -30 103.5 -61.5t29.5 -88.5q0 -64 -40 -104t-101 -40q-47 0 -81 17t-64 49l13 14q31 -31 60.5 -45.5t71.5 -14.5q52 0 85.5 33t33.5 91
q0 35 -11.5 57.5t-37 40t-73.5 36.5q-69 27 -98 56.5t-29 76.5q0 55 38 91.5t93 36.5q38 0 68.5 -13.5zM287 748l11 -10l-99 -97h-12l-99 97l11 10l94 -84z" />
    <glyph glyph-name="uni0162" unicode="&#x162;" horiz-adv-x="392" 
d="M206 -74q75 -5 75 -66q0 -34 -21 -53t-50 -19q-32 0 -57 18l9 17q20 -15 47 -15q22 0 36 13t14 39q0 25 -17.5 37t-55.5 13l5 90h-6v660h-172v21h368l-2 -21h-171v-660z" />
    <glyph glyph-name="uni0163" unicode="&#x163;" horiz-adv-x="268" 
d="M262 -141q0 -34 -20.5 -52.5t-50.5 -18.5q-32 0 -57 18l10 16q21 -15 47 -15q22 0 36 13t14 39t-17.5 38t-56.5 13l4 81q-38 5 -59 32.5t-21 73.5v402h-70v20h70v131l22 2v-133h117l-3 -20h-114v-401q0 -41 19 -64t55 -23q37 0 71 24l11 -15q-40 -29 -80 -30l-2 -64
q75 -8 75 -67z" />
    <glyph glyph-name="Tcaron" unicode="&#x164;" horiz-adv-x="392" 
d="M381 681l-2 -21h-171v-660h-23v660h-172v21h368zM291 863l9 -11l-99 -92h-12l-99 92l10 11l95 -80z" />
    <glyph glyph-name="tcaron" unicode="&#x165;" horiz-adv-x="268" 
d="M269 20q-41 -30 -84 -30q-44 0 -69 28.5t-25 78.5v402h-70v20h70v131l22 2v-133h117l-3 -20h-114v-401q0 -41 19 -64t55 -23q37 0 71 24zM176 590l23 145l-23 2l-15 -144z" />
    <glyph glyph-name="Tbar" unicode="&#x166;" horiz-adv-x="392" 
d="M379 660h-171v-280h102v-20h-102v-360h-23v360h-102v20h102v280h-172v21h368z" />
    <glyph glyph-name="tbar" unicode="&#x167;" horiz-adv-x="268" 
d="M269 20q-41 -30 -84 -30q-44 0 -69 28.5t-25 78.5v225h-70v19h70v158h-70v20h70v131l22 2v-133h117l-3 -20h-114v-158h112v-19h-112v-224q0 -41 19 -64t55 -23q37 0 71 24z" />
    <glyph glyph-name="Utilde" unicode="&#x168;" horiz-adv-x="523" 
d="M433 172q0 -80 -43 -131t-128 -51q-87 0 -129.5 51t-42.5 131v509h22v-507q0 -73 37 -117.5t113 -44.5t112.5 45t36.5 117v507h22v-509zM282.5 810q-12.5 6 -27.5 18l-12 8t-16.5 9t-13.5 3q-14 0 -24.5 -8t-23.5 -27l-14 8q15 23 29.5 34.5t32.5 11.5q12 0 22 -5t27 -17
q15 -11 25.5 -16.5t21.5 -5.5q14 0 25 9.5t24 31.5l14 -7q-14 -28 -29 -40.5t-34 -12.5q-14 0 -26.5 6z" />
    <glyph glyph-name="utilde" unicode="&#x169;" horiz-adv-x="473" 
d="M378 0h-20l-1 102q-24 -50 -60 -81t-84 -31q-57 0 -89.5 38.5t-32.5 106.5v384h22v-383q0 -61 26.5 -93t73.5 -32t81 31.5t62 90.5v386h22v-519zM256.5 684q-12.5 6 -27.5 18l-12 8t-16.5 9t-13.5 3q-14 0 -24.5 -8t-23.5 -27l-14 8q15 23 29.5 34.5t32.5 11.5
q12 0 22 -5t27 -17q15 -11 25.5 -16.5t21.5 -5.5q14 0 25 9.5t24 31.5l14 -7q-14 -28 -29 -40.5t-34 -12.5q-14 0 -26.5 6z" />
    <glyph glyph-name="Umacron" unicode="&#x16a;" horiz-adv-x="523" 
d="M433 172q0 -80 -43 -131t-128 -51q-87 0 -129.5 51t-42.5 131v509h22v-507q0 -73 37 -117.5t113 -44.5t112.5 45t36.5 117v507h22v-509zM349 811h-174v20h174v-20z" />
    <glyph glyph-name="umacron" unicode="&#x16b;" horiz-adv-x="473" 
d="M378 0h-20l-1 102q-24 -50 -60 -81t-84 -31q-57 0 -89.5 38.5t-32.5 106.5v384h22v-383q0 -61 26.5 -93t73.5 -32t81 31.5t62 90.5v386h22v-519zM322 685h-174v20h174v-20z" />
    <glyph glyph-name="Ubreve" unicode="&#x16c;" horiz-adv-x="523" 
d="M433 172q0 -80 -43 -131t-128 -51q-87 0 -129.5 51t-42.5 131v509h22v-507q0 -73 37 -117.5t113 -44.5t112.5 45t36.5 117v507h22v-509zM201.5 792.5q-24.5 21.5 -30.5 54.5l16 4q8 -27 27.5 -43t47.5 -16t47.5 16t28.5 43l15 -4q-5 -33 -30 -54.5t-61 -21.5t-60.5 21.5z
" />
    <glyph glyph-name="ubreve" unicode="&#x16d;" horiz-adv-x="473" 
d="M378 0h-20l-1 102q-24 -50 -60 -81t-84 -31q-57 0 -89.5 38.5t-32.5 106.5v384h22v-383q0 -61 26.5 -93t73.5 -32t81 31.5t62 90.5v386h22v-519zM174 685q-24 23 -30 63l16 4q16 -69 75 -69q61 0 75 69l16 -4q-5 -40 -29.5 -63t-61.5 -23t-61 23z" />
    <glyph glyph-name="Uring" unicode="&#x16e;" horiz-adv-x="523" 
d="M433 172q0 -80 -43 -131t-128 -51q-87 0 -129.5 51t-42.5 131v509h22v-507q0 -73 37 -117.5t113 -44.5t112.5 45t36.5 117v507h22v-509zM311 906.5q18 -20.5 18 -57.5q0 -38 -18 -58.5t-49 -20.5t-49 20.5t-18 57.5q0 38 18 58.5t49 20.5t49 -20.5zM215 848q0 -61 47 -61
t47 62q0 61 -47 61t-47 -62z" />
    <glyph glyph-name="uring" unicode="&#x16f;" horiz-adv-x="473" 
d="M378 0h-20l-1 102q-24 -50 -60 -81t-84 -31q-57 0 -89.5 38.5t-32.5 106.5v384h22v-383q0 -61 26.5 -93t73.5 -32t81 31.5t62 90.5v386h22v-519zM284 780.5q18 -20.5 18 -57.5q0 -38 -18 -58.5t-49 -20.5t-49 20.5t-18 57.5q0 38 18 58.5t49 20.5t49 -20.5zM188 722
q0 -61 47 -61t47 62q0 61 -47 61t-47 -62z" />
    <glyph glyph-name="Uhungarumlaut" unicode="&#x170;" horiz-adv-x="523" 
d="M433 172q0 -80 -43 -131t-128 -51q-87 0 -129.5 51t-42.5 131v509h22v-507q0 -73 37 -117.5t113 -44.5t112.5 45t36.5 117v507h22v-509zM350 917l21 -10l-65 -129l-15 7zM258 916l21 -10l-60 -124l-15 7z" />
    <glyph glyph-name="uhungarumlaut" unicode="&#x171;" horiz-adv-x="473" 
d="M378 0h-20l-1 102q-24 -50 -60 -81t-84 -31q-57 0 -89.5 38.5t-32.5 106.5v384h22v-383q0 -61 26.5 -93t73.5 -32t81 31.5t62 90.5v386h22v-519zM325 791l21 -10l-65 -129l-15 7zM233 790l21 -10l-60 -124l-15 7z" />
    <glyph glyph-name="Uogonek" unicode="&#x172;" horiz-adv-x="523" 
d="M433 681v-509q0 -65 -28.5 -111.5t-85.5 -63.5q-48 -25 -73 -52t-25 -66q0 -28 15 -44t43 -16q20 0 44 7l-2 -22q-22 -7 -45 -7q-38 0 -58 22.5t-20 59.5q0 35 20.5 62t60.5 50q-5 -1 -17 -1q-87 0 -129.5 51t-42.5 131v509h22v-507q0 -73 37 -117.5t113 -44.5t112.5 45
t36.5 117v507h22z" />
    <glyph glyph-name="uogonek" unicode="&#x173;" horiz-adv-x="473" 
d="M301 -53.5q-26 -27.5 -26 -69.5q0 -28 14 -43t42 -15q22 0 46 7l-2 -22q-24 -7 -45 -7q-38 0 -58 22t-20 58q0 42 27 72.5t79 57.5l-1 95q-24 -50 -60 -81t-84 -31q-57 0 -89.5 38.5t-32.5 106.5v384h22v-383q0 -61 26.5 -93t73.5 -32t81 31.5t62 90.5v386h22v-519
q-51 -26 -77 -53.5z" />
    <glyph glyph-name="Wcircumflex" unicode="&#x174;" horiz-adv-x="658" 
d="M624 681l-130 -681h-28l-137 659l-137 -659h-28l-130 681h23l121 -657l137 657h28l137 -657l122 657h22zM234 767l-11 11l99 91h12l100 -91l-12 -11l-94 79z" />
    <glyph glyph-name="wcircumflex" unicode="&#x175;" horiz-adv-x="570" 
d="M539 519l-111 -519h-30l-112 497l-112 -497h-30l-113 519h23l105 -496l114 496h27l113 -497l104 497h22zM190 655l-11 10l99 97h13l98 -97l-11 -10l-94 84z" />
    <glyph glyph-name="Ycircumflex" unicode="&#x176;" horiz-adv-x="408" 
d="M391 681l-174 -411v-270h-23v270l-178 411h25l165 -389l162 389h23zM109 767l-11 11l99 91h12l100 -91l-12 -11l-94 79z" />
    <glyph glyph-name="ycircumflex" unicode="&#x177;" horiz-adv-x="374" 
d="M204 -1q-17 -62 -34 -97t-44 -58t-73 -39l-4 18q42 15 66 36t38 52t31 89h-8l-154 519h23l146 -501l138 501h23zM94 655l-11 10l99 97h13l98 -97l-11 -10l-94 84z" />
    <glyph glyph-name="Ydieresis" unicode="&#x178;" horiz-adv-x="408" 
d="M391 681l-174 -411v-270h-23v270l-178 411h25l165 -389l162 389h23zM154 832.5q5 -5.5 5 -14.5q0 -8 -5 -13.5t-14 -5.5q-8 0 -13.5 5.5t-5.5 13.5t5.5 14t13.5 6q9 0 14 -5.5zM292.5 832q5.5 -6 5.5 -14t-5.5 -13.5t-13.5 -5.5q-9 0 -14.5 5.5t-5.5 13.5t5.5 14t14.5 6
q8 0 13.5 -6z" />
    <glyph glyph-name="Zacute" unicode="&#x179;" horiz-adv-x="418" 
d="M377 681v-19l-320 -640h311l-3 -22h-332v21l321 639h-290v21h313zM276 858l11 -22l-148 -72l-7 14z" />
    <glyph glyph-name="zacute" unicode="&#x17a;" horiz-adv-x="338" 
d="M308 519v-18l-258 -480h253l-2 -21h-276v18l259 481h-237v20h261zM235 759l13 -21l-148 -84l-9 14z" />
    <glyph glyph-name="Zdotaccent" unicode="&#x17b;" horiz-adv-x="418" 
d="M377 681v-19l-320 -640h311l-3 -22h-332v21l321 639h-290v21h313zM224.5 844q5.5 -6 5.5 -14t-5.5 -13.5t-13.5 -5.5q-9 0 -14.5 5.5t-5.5 13.5t5.5 14t14.5 6q8 0 13.5 -6z" />
    <glyph glyph-name="zdotaccent" unicode="&#x17c;" horiz-adv-x="338" 
d="M308 519v-18l-258 -480h253l-2 -21h-276v18l259 481h-237v20h261zM189.5 718q5.5 -6 5.5 -14t-5.5 -13.5t-13.5 -5.5q-9 0 -14.5 5.5t-5.5 13.5t5.5 14t14.5 6q8 0 13.5 -6z" />
    <glyph glyph-name="Zcaron" unicode="&#x17d;" horiz-adv-x="418" 
d="M377 681v-19l-320 -640h311l-3 -22h-332v21l321 639h-290v21h313zM305 863l9 -11l-99 -92h-12l-99 92l10 11l95 -80z" />
    <glyph glyph-name="zcaron" unicode="&#x17e;" horiz-adv-x="338" 
d="M308 519v-18l-258 -480h253l-2 -21h-276v18l259 481h-237v20h261zM270 748l11 -10l-99 -97h-12l-99 97l11 10l94 -84z" />
    <glyph glyph-name="longs" unicode="&#x17f;" horiz-adv-x="253" 
d="M298 706l-10 -17q-22 14 -41.5 20.5t-42.5 6.5q-39 0 -61.5 -22t-22.5 -70v-624h-22v499h-73v20h73v108q0 52 28.5 81t75.5 29q50 0 96 -31z" />
    <glyph glyph-name="uni0180" unicode="&#x180;" horiz-adv-x="468" 
d="M371 463q39 -66 39 -199q0 -134 -40.5 -204t-117.5 -70q-78 0 -131 88l-2 -78h-19v629h-62v20h62v84l22 3v-87h147v-20h-147v-190q55 90 137 90q73 0 112 -66zM352 74q34 63 34 190q0 245 -129 245q-44 0 -75 -25t-60 -74v-303q54 -96 129 -96q67 0 101 63z" />
    <glyph glyph-name="uni0181" unicode="&#x181;" horiz-adv-x="519" 
d="M429 311.5q41 -43.5 41 -127.5q0 -91 -52 -137.5t-146 -46.5h-135v661h-23q-38 0 -56 -20t-18 -56q0 -23 6 -41t17 -37l-17 -9q-14 21 -21 40.5t-7 46.5q0 45 25 70.5t73 25.5h128q96 0 147 -43.5t51 -124.5q0 -63 -32 -102t-92 -50q70 -6 111 -49.5zM159 660v-290h116
q68 0 105.5 39.5t37.5 102.5q0 72 -43 110t-127 38h-89zM401.5 61q45.5 40 45.5 123q0 82 -43.5 124t-124.5 42h-120v-329h114q83 0 128.5 40z" />
    <glyph glyph-name="uni0182" unicode="&#x182;" horiz-adv-x="465" 
d="M363.5 356q50.5 -49 50.5 -145q0 -106 -51.5 -158.5t-144.5 -52.5h-118v681h262l-4 -21h-236v-255h95q96 0 146.5 -49zM347 68q43 47 43 143q0 173 -171 173h-97v-363h101q81 0 124 47z" />
    <glyph glyph-name="uni0183" unicode="&#x183;" horiz-adv-x="464" 
d="M367 463q39 -66 39 -199q0 -134 -40.5 -204t-117.5 -70q-78 0 -131 88l-2 -78h-19v732h221l-5 -21h-194v-272q55 90 137 90q73 0 112 -66zM348 74q34 63 34 190q0 245 -129 245q-44 0 -75 -25t-60 -74v-303q54 -96 129 -96q67 0 101 63z" />
    <glyph glyph-name="uni0184" unicode="&#x184;" horiz-adv-x="453" 
d="M414 212q0 -107 -52.5 -159.5t-150.5 -52.5h-111v587l-29 22q23 30 31 72h20v-273h89q203 0 203 -196zM346 68q44 47 44 145q0 89 -44.5 131.5t-133.5 42.5h-90v-366h94q86 0 130 47z" />
    <glyph glyph-name="uni0185" unicode="&#x185;" horiz-adv-x="406" 
d="M330 293q40 -42 40 -119q0 -87 -43 -130.5t-121 -43.5h-109v434l-28 22q19 25 31 63h19v-184h82q89 0 129 -42zM311 58.5q36 37.5 36 115.5q0 69 -33.5 105t-111.5 36h-83v-294h85q71 0 107 37.5z" />
    <glyph glyph-name="uni0186" unicode="&#x186;" horiz-adv-x="443" 
d="M325 604.5q55 -86.5 55 -264.5q0 -115 -27.5 -193.5t-76 -117.5t-111.5 -39q-47 0 -81.5 17t-63.5 47l14 14q30 -27 59.5 -41.5t70.5 -14.5q56 0 99 35.5t68 109t25 183.5q0 171 -49 250.5t-134 79.5q-40 0 -71.5 -13t-62.5 -40l-12 16q31 28 66.5 43t80.5 15
q96 0 151 -86.5z" />
    <glyph glyph-name="uni0187" unicode="&#x187;" horiz-adv-x="443" 
d="M551 784l-12 -15q-15 12 -29 18.5t-33 6.5q-28 0 -44.5 -19.5t-16.5 -62.5v-79l-15 -13q-28 26 -54 38t-63 12q-89 0 -143.5 -80.5t-54.5 -249.5q0 -163 53.5 -245.5t141.5 -82.5q42 0 70 14.5t57 41.5l14 -15q-59 -63 -141 -63q-64 0 -113.5 39t-77 117.5t-27.5 193.5
q0 119 28.5 197.5t77.5 116t113 37.5q36 0 62.5 -10.5t49.5 -30.5v63q0 49 22.5 75t60.5 26q40 0 74 -30z" />
    <glyph glyph-name="uni0188" unicode="&#x188;" horiz-adv-x="375" 
d="M479 706l-12 -14q-15 12 -29 18.5t-33 6.5q-28 0 -44.5 -19.5t-16.5 -62.5v-155l-2 1l2 -2l-11 -12q-23 21 -47 31.5t-53 10.5q-70 0 -110.5 -62t-40.5 -190q0 -125 40.5 -185.5t109.5 -60.5q58 0 104 46l12 -13q-51 -54 -115 -54q-81 0 -127.5 67t-46.5 200
q0 134 46.5 203t127.5 69q51 0 89 -31v138q0 49 22.5 75t60.5 26q39 0 74 -31z" />
    <glyph glyph-name="uni0189" unicode="&#x189;" horiz-adv-x="509" 
d="M377.5 609q68.5 -72 68.5 -261q0 -193 -70 -270.5t-172 -77.5h-105v341h-78v22h78v318h101q109 0 177.5 -72zM360.5 93.5q61.5 72.5 61.5 254.5t-62 247t-160 65h-79v-297h155v-22h-155v-320h84q94 0 155.5 72.5z" />
    <glyph glyph-name="uni018A" unicode="&#x18a;" horiz-adv-x="547" 
d="M415.5 609q68.5 -72 68.5 -261q0 -193 -70 -270.5t-172 -77.5h-105v661h-23q-38 0 -56 -20t-18 -56q0 -23 6 -41t17 -37l-17 -9q-14 21 -21 40.5t-7 46.5q0 45 25 70.5t73 25.5h122q109 0 177.5 -72zM398.5 93.5q61.5 72.5 61.5 254.5t-62 247t-160 65h-79v-639h84
q94 0 155.5 72.5z" />
    <glyph glyph-name="uni018B" unicode="&#x18b;" horiz-adv-x="465" 
d="M365 0h-116q-95 0 -147 49.5t-52 150.5q0 100 53.5 152.5t157.5 52.5h81v255h-238v21h261v-681zM342 21v363h-82q-186 0 -186 -184q0 -92 44 -135.5t132 -43.5h92z" />
    <glyph glyph-name="uni018C" unicode="&#x18c;" horiz-adv-x="468" 
d="M373 0h-20l-2 88q-46 -98 -133 -98q-74 0 -116.5 69.5t-42.5 198.5q0 126 44.5 198.5t122.5 72.5t125 -82v264h-198v21h220v-732zM295.5 39.5q31.5 28.5 55.5 84.5v292q-46 93 -125 93q-66 0 -105 -64.5t-39 -182.5q0 -123 36 -187t100 -64q46 0 77.5 28.5z" />
    <glyph glyph-name="uni018D" unicode="&#x18d;" horiz-adv-x="457" 
d="M332.5 -10.5q22.5 -28.5 22.5 -73.5q0 -53 -36 -88.5t-94 -35.5q-36 0 -64.5 11t-56.5 34l12 15q27 -21 51.5 -30.5t57.5 -9.5q50 0 78.5 29t28.5 76q0 28 -9.5 48t-34 38t-70.5 39q-58 26 -92.5 58.5t-50.5 79.5t-16 117q0 113 45 172.5t127 59.5q79 0 123.5 -59.5
t44.5 -172.5q0 -96 -37.5 -159.5t-104.5 -93.5q53 -26 75.5 -54.5zM95.5 185.5q14.5 -43.5 48 -74t94.5 -58.5q64 28 101 88t37 156q0 104 -38 157.5t-107 53.5q-73 0 -111.5 -53.5t-38.5 -157.5q0 -68 14.5 -111.5z" />
    <glyph glyph-name="uni018E" unicode="&#x18e;" horiz-adv-x="407" 
d="M42 681h266v-681h-272v21h249v328h-207v21h207v290h-243v21z" />
    <glyph glyph-name="uni018F" unicode="&#x18f;" horiz-adv-x="529" 
d="M414 609.5q52 -81.5 52 -272.5q0 -180 -55 -263.5t-152 -83.5q-98 0 -152 82.5t-54 252.5q0 21 1 34h388q-4 169 -49 240t-130 71q-47 0 -84 -17t-75 -55l-14 14q39 41 80 60t93 19q99 0 151 -81.5zM442 339h-365q-3 -327 183 -327q181 0 182 327z" />
    <glyph glyph-name="uni0190" unicode="&#x190;" horiz-adv-x="423" 
d="M306 670.5q38 -20.5 73 -62.5l-14 -14q-32 38 -66.5 57t-77.5 19q-60 0 -95.5 -39t-35.5 -103q0 -71 38 -109.5t100 -38.5h46l-3 -21l-46 1q-72 1 -112 -43t-40 -123q0 -88 42.5 -135t112.5 -47q47 0 83 20.5t69 62.5l17 -12q-37 -47 -78.5 -70t-90.5 -23
q-80 0 -129.5 54t-49.5 151q0 79 37.5 124.5t93.5 51.5q-51 10 -82 49t-31 107q0 74 41.5 119t111.5 45q48 0 86 -20.5z" />
    <glyph glyph-name="uni0191" unicode="&#x191;" horiz-adv-x="388" 
d="M122 660v-304h204v-21h-204v-437q0 -47 -22.5 -71t-58.5 -24q-42 0 -76 30l12 16q27 -25 63 -25q59 0 59 74v103h1v680h261l-3 -21h-236z" />
    <glyph glyph-name="florin" unicode="&#x192;" horiz-adv-x="252" 
d="M141.5 694q-22.5 -22 -22.5 -70v-105h120l-4 -20h-116v-493q0 -62 -10 -99t-29.5 -58.5t-55.5 -43.5l-7 17q31 20 47.5 40t24.5 53.5t8 91.5v492h-73v20h73v108q0 52 28.5 81t75.5 29q50 0 96 -31l-10 -17q-43 27 -84 27q-39 0 -61.5 -22z" />
    <glyph glyph-name="uni0193" unicode="&#x193;" horiz-adv-x="453" 
d="M561 784l-12 -15q-15 12 -29 18.5t-33 6.5q-28 0 -44.5 -19.5t-16.5 -62.5v-80l-13 -14q-32 27 -61 39.5t-65 12.5q-53 0 -98.5 -32.5t-74 -105.5t-28.5 -187q0 -169 54 -251t149 -82q39 0 69.5 10.5t58.5 30.5v280h-118l-3 21h143v-313q-71 -51 -148 -51
q-107 0 -167.5 88.5t-60.5 266.5q0 118 31.5 195.5t82.5 114t110 36.5q35 0 63 -10.5t54 -31.5v64q0 49 22.5 75t60.5 26q40 0 74 -30z" />
    <glyph glyph-name="uni0194" unicode="&#x194;" horiz-adv-x="451" 
d="M240 54q27 -76 37 -110.5t10 -68.5q0 -33 -15.5 -52.5t-44.5 -19.5t-45.5 19t-16.5 53q0 29 8.5 60.5t29.5 88.5q6 20 10 30l-185 627h23l176 -610l174 610h22zM257 -63q-8 31 -30 100l-6 -19q-19 -54 -26.5 -83.5t-7.5 -58.5q0 -53 40 -53q38 0 38 53q0 30 -8 61z" />
    <glyph glyph-name="uni0195" unicode="&#x195;" horiz-adv-x="733" 
d="M655 256q0 -134 -45 -200t-119 -66q-56 0 -91.5 38t-35.5 107v242q0 64 -23.5 98t-70.5 34t-84 -33t-68 -95v-381h-22v733l22 3v-323q64 116 154 116q56 0 85 -39.5t29 -110.5v-243q0 -61 28.5 -93t76.5 -32q63 0 102 58t39 187q0 122 -21 263h22q22 -136 22 -263z" />
    <glyph glyph-name="uni0196" unicode="&#x196;" horiz-adv-x="267" 
d="M247 20q-34 -30 -76 -30q-36 0 -58.5 24t-22.5 71v596h22v-493h1v-103q0 -74 59 -74q36 0 63 25z" />
    <glyph glyph-name="uni0197" unicode="&#x197;" horiz-adv-x="255" 
d="M229 371v-21h-90v-350h-22v350h-90v21h90v310h22v-310h90z" />
    <glyph glyph-name="uni0198" unicode="&#x198;" horiz-adv-x="461" 
d="M125 367l167 264q19 30 39 45t47 15q22 0 38.5 -9t31.5 -26l-12 -13q-16 16 -27.5 22.5t-29.5 6.5q-21 0 -36.5 -11.5t-32.5 -39.5l-158 -254l268 -367h-26zM122 681v-681h-22v681h22z" />
    <glyph glyph-name="uni0199" unicode="&#x199;" horiz-adv-x="382" 
d="M117 519h1v-519h-22v518h-1v102q0 56 28 86.5t76 30.5q47 0 95 -31l-9 -17q-46 27 -85 27t-61 -24t-22 -73v-100zM148 284l221 -284h-26l-220 284l200 235h26z" />
    <glyph glyph-name="uni019A" unicode="&#x19a;" horiz-adv-x="225" 
d="M121 360v-299q0 -51 41 -51q14 0 31 7l7 -17q-22 -10 -40 -10q-28 0 -44.5 18.5t-16.5 52.5v299h-87v21h87v352l22 3v-355h93v-21h-93z" />
    <glyph glyph-name="uni019B" unicode="&#x19b;" horiz-adv-x="371" 
d="M266 254q26 -96 49 -144t59 -106l-19 -9q-36 57 -59.5 106.5t-49 144t-50.5 251.5l-143 -502l-20 5l149 519h10q-14 84 -34 125l-64 -79l-16 8l70 88q-27 42 -80 58l3 17q60 -17 91 -60l55 70l15 -10l-61 -75q14 -26 24 -62t19 -88q26 -161 52 -257z" />
    <glyph glyph-name="uni019C" unicode="&#x19c;" horiz-adv-x="756" 
d="M656 681v-681h-20l-2 106q-27 -54 -64 -85t-82 -31q-50 0 -81.5 32t-40.5 88q-63 -120 -150 -120q-59 0 -92.5 45t-33.5 120v526h22v-528q0 -65 28 -103.5t76 -38.5q47 0 82.5 34.5t63.5 97.5v14v524h23v-528q0 -65 27.5 -103.5t75.5 -38.5q86 0 145 133v537h23z" />
    <glyph glyph-name="uni019D" unicode="&#x19d;" horiz-adv-x="544" 
d="M444 681v-681h-29l-296 655q3 -102 3 -178v-579q0 -47 -23 -71t-59 -24q-43 0 -75 30l11 15q14 -12 29 -18.5t35 -6.5q27 0 43.5 18t16.5 57v783h29l296 -655q0 14 -1 22q-2 80 -2 157v476h22z" />
    <glyph glyph-name="uni019E" unicode="&#x19e;" horiz-adv-x="477" 
d="M357 489.5q29 -39.5 29 -110.5v-575l-22 4v569q0 64 -23.5 98t-70.5 34q-88 0 -152 -128v-381h-22v519h19l2 -105q30 56 67.5 85.5t87.5 29.5q56 0 85 -39.5z" />
    <glyph glyph-name="uni019F" unicode="&#x19f;" horiz-adv-x="565" 
d="M444 603q59 -88 59 -262q0 -172 -58 -261.5t-162 -89.5q-102 0 -161 89t-59 261q0 114 27.5 193t77 118.5t115.5 39.5q102 0 161 -88zM141.5 591.5q-52.5 -78.5 -55.5 -234.5h393q-3 158 -54.5 235.5t-141.5 77.5q-89 0 -141.5 -78.5zM427.5 92.5q50.5 80.5 51.5 244.5
h-393q1 -162 54 -243.5t143 -81.5q94 0 144.5 80.5z" />
    <glyph glyph-name="Ohorn" unicode="&#x1a0;" horiz-adv-x="565" 
d="M503 340q0 -172 -57.5 -261t-162.5 -89q-102 0 -161 89t-59 260q0 172 59.5 262t160.5 90q91 0 145 -66q26 5 37 18.5t11 42.5q0 34 -11 72l17 7q14 -40 14 -79q0 -35 -14 -53t-43 -23q64 -89 64 -270zM428.5 93.5q50.5 81.5 50.5 246.5q0 167 -51.5 248.5t-144.5 81.5
q-91 0 -144 -83t-53 -248q0 -163 53 -245t144 -82q95 0 145.5 81.5z" />
    <glyph glyph-name="ohorn" unicode="&#x1a1;" horiz-adv-x="468" 
d="M412 469q-15 -18 -46 -23q35 -65 35 -184q0 -135 -45.5 -203.5t-126.5 -68.5t-125.5 68.5t-44.5 200.5q0 134 46 202t126 68q83 0 127 -68q26 4 37.5 18t11.5 44q0 32 -11 72l17 6q14 -40 14 -78q0 -36 -15 -54zM340 73q39 62 39 189q0 125 -38.5 186t-109.5 61
q-70 0 -110 -62t-40 -188q0 -124 38.5 -186t109.5 -62q72 0 111 62z" />
    <glyph glyph-name="uni01A2" unicode="&#x1a2;" horiz-adv-x="725" 
d="M600.5 661.5q25.5 -29.5 25.5 -86.5v-767h-23v766q0 98 -75 98q-30 0 -55.5 -10t-51.5 -29q82 -87 82 -293q0 -172 -57.5 -261t-162.5 -89q-102 0 -161 89t-59 260q0 172 59.5 262t160.5 90q73 0 125 -45q30 21 58 33t62 12q47 0 72.5 -29.5zM428.5 93.5
q50.5 81.5 50.5 246.5q0 167 -51.5 248.5t-144.5 81.5q-91 0 -144 -83t-53 -248q0 -163 53 -245t144 -82q95 0 145.5 81.5z" />
    <glyph glyph-name="uni01A3" unicode="&#x1a3;" horiz-adv-x="610" 
d="M487.5 498.5q26.5 -30.5 26.5 -87.5v-608l-22 5v603q0 98 -80 98q-37 0 -78 -19q67 -65 67 -228q0 -135 -45.5 -203.5t-126.5 -68.5t-125.5 68.5t-44.5 200.5q0 134 46 202t126 68q50 0 88 -27q46 27 93 27q49 0 75.5 -30.5zM340.5 448q-38.5 61 -109.5 61
q-70 0 -110 -62t-40 -188q0 -124 38.5 -186t109.5 -62q72 0 111 62t39 189q0 125 -38.5 186z" />
    <glyph glyph-name="uni01A4" unicode="&#x1a4;" horiz-adv-x="491" 
d="M395 633.5q55 -47.5 55 -149.5q0 -105 -58.5 -153.5t-174.5 -48.5h-58v-282h-22v661h-23q-38 0 -56 -20t-18 -56q0 -23 6 -41t17 -37l-17 -9q-14 21 -21 40.5t-7 46.5q0 45 25 70.5t73 25.5h104q120 0 175 -47.5zM375.5 345q51.5 42 51.5 138q0 94 -48.5 135.5
t-158.5 41.5h-61v-357h60q105 0 156.5 42z" />
    <glyph glyph-name="uni01A5" unicode="&#x1a5;" horiz-adv-x="464" 
d="M367 463.5q39 -65.5 39 -199.5t-41 -204t-116 -70q-42 0 -75 23.5t-56 62.5v-268l-22 -4v714h-1v102q0 56 28 86.5t76 30.5q47 0 95 -31l-9 -17q-46 27 -85 27t-61 -24t-22 -73v-100h1v-79q55 89 136 89q74 0 113 -65.5zM347.5 74.5q34.5 63.5 34.5 189.5q0 245 -128 245
q-43 0 -75 -25.5t-61 -73.5v-304q55 -95 130 -95q65 0 99.5 63.5z" />
    <glyph glyph-name="uni01A6" unicode="&#x1a6;" horiz-adv-x="471" 
d="M411 -132l-155 326q-22 -2 -36 -2h-98v-192h-22v681h22v-132h85q107 0 155 -45.5t48 -131.5q0 -72 -34.5 -116t-97.5 -58l158 -330h-25zM386 372q0 78 -41 117.5t-140 38.5l-83 -1v-314h94q170 0 170 159z" />
    <glyph glyph-name="uni01A7" unicode="&#x1a7;" horiz-adv-x="435" 
d="M336.5 648.5q39.5 -42.5 39.5 -108.5q0 -47 -15 -78.5t-48 -55t-91 -47.5q-54 -22 -85 -45.5t-45 -56t-14 -82.5q0 -75 40.5 -119t103.5 -44q50 0 86 19t69 56l15 -15q-36 -40 -76.5 -61t-93.5 -21q-48 0 -86 23t-59.5 65t-21.5 97q0 80 37 124.5t122 78.5q54 21 83 42
t42 49t13 71q0 59 -32 94.5t-89 35.5q-44 0 -77.5 -15.5t-67.5 -48.5l-13 16q36 35 72 52t86 17q66 0 105.5 -42.5z" />
    <glyph glyph-name="uni01A8" unicode="&#x1a8;" horiz-adv-x="371" 
d="M284.5 495.5q35.5 -33.5 35.5 -88.5q0 -53 -29 -83.5t-98 -55.5q-48 -17 -73.5 -35t-36 -42.5t-10.5 -62.5q0 -56 31.5 -86.5t83.5 -30.5q39 0 69 15t58 44l14 -14q-29 -31 -63 -48.5t-78 -17.5q-61 0 -99.5 38t-38.5 100t29.5 95.5t103.5 60.5q64 23 89.5 49.5
t25.5 73.5t-29.5 74.5t-78.5 27.5q-32 0 -60 -12t-56 -37l-13 14q59 55 130 55q58 0 93.5 -33.5z" />
    <glyph glyph-name="uni01A9" unicode="&#x1a9;" horiz-adv-x="399" 
d="M356 681v-21h-283l188 -316v-10l-188 -313h283v-21h-313v12l195 327l-195 330v12h313z" />
    <glyph glyph-name="uni01AA" unicode="&#x1aa;" horiz-adv-x="218" 
d="M258 -167q-32 -30 -76 -30q-36 0 -58.5 24t-22.5 71v641q-25 -18 -55 -18q-37 0 -59 26t-22 79q0 54 22 82.5t59 28.5q36 0 56.5 -25t20.5 -69v-746q0 -39 16.5 -56.5t43.5 -17.5q36 0 63 25zM101 559v83q0 75 -55 75q-28 0 -43.5 -22t-15.5 -68q0 -47 15.5 -66.5
t44.5 -19.5q27 0 54 18z" />
    <glyph glyph-name="uni01AB" unicode="&#x1ab;" horiz-adv-x="268" 
d="M269 20v-122q0 -47 -22.5 -71t-59.5 -24q-45 0 -75 30l12 15q27 -25 63 -25q27 0 43.5 17.5t16.5 56.5v110q-26 -17 -62 -17q-44 0 -69 28.5t-25 78.5v402h-70v20h70v131l22 2v-133h117l-3 -20h-114v-401q0 -41 19 -64t55 -23q35 0 73 21z" />
    <glyph glyph-name="uni01AC" unicode="&#x1ac;" horiz-adv-x="410" 
d="M396 659h-171v-659h-23v659h-86q-76 0 -76 -74q0 -23 6 -41t17 -36l-17 -10q-14 21 -21 40t-7 47q0 46 25.5 71t77.5 25h279z" />
    <glyph glyph-name="uni01AD" unicode="&#x1ad;" horiz-adv-x="268" 
d="M258 35l11 -15q-41 -30 -84 -30q-44 0 -69 28.5t-25 78.5v402h-70v20h70v111q0 49 26 78t70 29q43 0 82 -30l-11 -15q-36 25 -71 25t-54.5 -23.5t-19.5 -63.5v-111h117l-3 -20h-114v-401q0 -41 19 -64t55 -23q37 0 71 24z" />
    <glyph glyph-name="uni01AE" unicode="&#x1ae;" horiz-adv-x="392" 
d="M267 -176q36 0 63 25l12 -16q-34 -30 -76 -30q-36 0 -58.5 24t-22.5 71v762h-172v21h368l-2 -21h-171v-762q0 -74 59 -74z" />
    <glyph glyph-name="Uhorn" unicode="&#x1af;" horiz-adv-x="523" 
d="M500 686q0 -38 -16 -56t-51 -21v-437q0 -80 -43 -131t-128 -51q-87 0 -129.5 51t-42.5 131v509h22v-507q0 -73 37 -117.5t113 -44.5t112.5 45t36.5 117v507h22v-56q26 5 36.5 18t10.5 43q0 34 -11 72l17 7q14 -40 14 -79z" />
    <glyph glyph-name="uhorn" unicode="&#x1b0;" horiz-adv-x="484" 
d="M429 467q-16 -18 -51 -22v-445h-20l-1 102q-24 -50 -60 -81t-84 -31q-57 0 -89.5 38.5t-32.5 106.5v384h22v-383q0 -61 26.5 -93t73.5 -32t81 31.5t62 90.5v386h22v-58q25 5 36 18.5t11 43.5q0 32 -11 72l17 6q14 -40 14 -78t-16 -56z" />
    <glyph glyph-name="uni01B1" unicode="&#x1b1;" horiz-adv-x="565" 
d="M122 72q-59 82 -59 238q0 239 121 350h-101v21h133v-20q-130 -101 -130 -351q0 -149 52.5 -224t144.5 -75t144 75t52 225q0 250 -130 350v20h135v-21h-102q55 -48 88 -130t33 -219q0 -157 -59 -239t-161 -82t-161 82z" />
    <glyph glyph-name="uni01B2" unicode="&#x1b2;" horiz-adv-x="523" 
d="M416.5 671q16.5 -20 16.5 -60v-354q0 -128 -52.5 -197.5t-139.5 -69.5q-70 0 -110.5 44t-40.5 118v529h22v-527q0 -66 34 -104t95 -38q78 0 124 63t46 185v351q0 61 -44 61q-19 0 -36 -10l-9 16q23 13 46 13q32 0 48.5 -20z" />
    <glyph glyph-name="uni01B3" unicode="&#x1b3;" horiz-adv-x="424" 
d="M194 270l-178 411h25l165 -390l125 332q12 34 30.5 51t46.5 17q38 0 69 -35l-12 -13q-16 16 -27.5 22.5t-28.5 6.5q-22 0 -35 -13t-25 -46l-132 -343v-270h-23v270z" />
    <glyph glyph-name="uni01B4" unicode="&#x1b4;" horiz-adv-x="371" 
d="M49 -177q42 15 66 36t38 52t31 89h-9l-153 519h23l146 -503l132 494q7 29 21.5 43t39.5 14q20 0 38 -10l-6 -16q-18 7 -31 7q-17 0 -25.5 -9.5t-14.5 -30.5l-141 -509q-16 -61 -33.5 -96.5t-44.5 -58.5t-73 -39z" />
    <glyph glyph-name="uni01B5" unicode="&#x1b5;" horiz-adv-x="418" 
d="M377 681v-19l-154 -309h96v-21h-107l-155 -310h311l-3 -22h-332v21l156 311h-93v21h104l154 307h-290v21h313z" />
    <glyph glyph-name="uni01B6" unicode="&#x1b6;" horiz-adv-x="338" 
d="M308 519v-18l-119 -222h83v-21h-95l-127 -237h253l-2 -21h-276v18l129 240h-84v21h96l118 220h-237v20h261z" />
    <glyph glyph-name="uni01B7" unicode="&#x1b7;" horiz-adv-x="390" 
d="M349 182q0 -86 -45 -139t-124 -53q-53 0 -92 20.5t-70 61.5l15 12q32 -39 65.5 -55.5t80.5 -16.5q71 0 108.5 46t37.5 123q0 90 -40 130.5t-120 40.5h-60v20l196 289h-271v20h298v-19l-198 -290h35q184 0 184 -190z" />
    <glyph glyph-name="uni01B8" unicode="&#x1b8;" horiz-adv-x="390" 
d="M372 72q-33 -41 -72 -61.5t-92 -20.5q-77 0 -122 51t-45 136q0 195 183 195h36l-198 290v19h297v-20h-271l196 -289v-20h-59q-79 0 -120 -42.5t-41 -132.5q0 -77 37.5 -121t107.5 -44q47 0 80 16.5t66 55.5z" />
    <glyph glyph-name="uni01B9" unicode="&#x1b9;" horiz-adv-x="366" 
d="M349 -115q-32 -41 -68.5 -61.5t-86.5 -20.5q-76 0 -120 51.5t-44 140.5q0 94 47 146.5t141 52.5h19l-186 307v18h283v-20h-258l184 -305v-21h-44q-163 0 -163 -178q0 -81 36.5 -126t104.5 -45q44 0 76.5 17t63.5 55z" />
    <glyph glyph-name="uni01BA" unicode="&#x1ba;" horiz-adv-x="365" 
d="M53.5 -150q-21.5 25 -21.5 61q0 43 32.5 66t107.5 37q76 14 107 42t31 88q0 54 -28.5 78.5t-90.5 24.5h-96v20l185 232h-249v20h277v-18l-188 -234h71q142 0 142 -123q0 -67 -36.5 -100t-117.5 -49q-69 -13 -96.5 -30.5t-27.5 -53.5q0 -30 16.5 -50.5t53.5 -39.5l-7 -17
q-43 21 -64.5 46z" />
    <glyph glyph-name="uni01BB" unicode="&#x1bb;" horiz-adv-x="372" 
d="M228 271q-27 -43 -73.5 -108.5t-101.5 -140.5h270l-4 -22h-292v21q128 173 177 250h-133v21h146q40 66 55.5 115.5t15.5 105.5q0 64 -31 101.5t-85 37.5q-42 0 -73.5 -20t-59.5 -60l-16 11q32 46 67.5 68t81.5 22q64 0 101 -44.5t37 -115.5q0 -57 -15.5 -107t-54.5 -114
h93v-21h-105z" />
    <glyph glyph-name="uni01BC" unicode="&#x1bc;" horiz-adv-x="399" 
d="M330 661h-238v-275q26 19 50.5 29t56.5 10q71 0 111.5 -54t40.5 -152q0 -105 -44.5 -167t-120.5 -62q-47 0 -83 19t-68 56l16 13q28 -34 60.5 -50.5t75.5 -16.5q66 0 104 55.5t38 152.5q0 92 -36 138.5t-97 46.5q-32 0 -55 -9.5t-52 -30.5h-17v317h262z" />
    <glyph glyph-name="uni01BD" unicode="&#x1bd;" horiz-adv-x="348" 
d="M281 499h-189v-203q39 30 89 30q54 0 86 -40.5t32 -118.5q0 -84 -36.5 -130.5t-103.5 -46.5t-120 60l15 13q25 -26 49.5 -39t55.5 -13q56 0 86.5 40t30.5 116q0 138 -97 138q-25 0 -46.5 -7.5t-45.5 -22.5h-17v244h215z" />
    <glyph glyph-name="uni01BE" unicode="&#x1be;" horiz-adv-x="398" 
d="M298.5 343.5q41.5 -45.5 41.5 -141.5q0 -97 -44 -152t-121 -55q-46 0 -80 19.5t-68 59.5l15 13q31 -35 60.5 -52.5t71.5 -17.5q68 0 105 48t37 137q0 86 -36 127.5t-94 58.5l-52 14v170h-52v20h52v141l23 3v-144h102v-20h-102v-155l32 -9q68 -19 109.5 -64.5z" />
    <glyph glyph-name="uni01BF" unicode="&#x1bf;" horiz-adv-x="464" 
d="M368.5 483.5q37.5 -45.5 37.5 -124.5q0 -107 -57 -184.5t-178 -153.5l-53 -33v-180l-22 -4v715h19l2 -81q32 44 68 67.5t83 23.5q63 0 100.5 -45.5zM330.5 186q51.5 73 51.5 172q0 71 -31 111t-83 40q-45 0 -81.5 -25t-68.5 -71v-403l47 30q114 73 165.5 146z" />
    <glyph glyph-name="uni01C0" unicode="&#x1c0;" horiz-adv-x="220" 
d="M121 736v-736h-21v733z" />
    <glyph glyph-name="uni01C1" unicode="&#x1c1;" horiz-adv-x="350" 
d="M121 736v-736h-21v733zM251 736v-736h-21v733z" />
    <glyph glyph-name="uni01C2" unicode="&#x1c2;" horiz-adv-x="255" 
d="M229 429h-90v-129h90v-20h-90v-280h-21v280h-91v20h91v129h-91v20h91v284l21 3v-287h90v-20z" />
    <glyph glyph-name="uni01C3" unicode="&#x1c3;" horiz-adv-x="245" 
d="M132 736v-544h-21v541zM138.5 30q6.5 -7 6.5 -16t-6.5 -15.5t-16.5 -6.5t-16 6.5t-6 15.5t6 16t16 7t16.5 -7z" />
    <glyph glyph-name="uni01C4" unicode="&#x1c4;" horiz-adv-x="903" 
d="M378.5 609q68.5 -72 68.5 -261q0 -193 -70 -270.5t-172 -77.5h-105v681h101q109 0 177.5 -72zM122 660v-639h84q94 0 155.5 72.5t61.5 254.5t-62 247t-160 65h-79zM862 681v-19l-320 -640h311l-3 -22h-332v21l321 639h-290v21h313zM790 863l9 -11l-99 -92h-12l-99 92
l10 11l95 -80z" />
    <glyph glyph-name="uni01C5" unicode="&#x1c5;" horiz-adv-x="838" 
d="M378.5 609q68.5 -72 68.5 -261q0 -193 -70 -270.5t-172 -77.5h-105v681h101q109 0 177.5 -72zM122 660v-639h84q94 0 155.5 72.5t61.5 254.5t-62 247t-160 65h-79zM808 519v-18l-258 -480h253l-2 -21h-276v18l259 481h-237v20h261zM770 748l11 -10l-99 -97h-12l-99 97
l11 10l94 -84z" />
    <glyph glyph-name="uni01C6" unicode="&#x1c6;" horiz-adv-x="806" 
d="M373 733v-733h-20l-2 88q-46 -98 -133 -98q-74 0 -116.5 69.5t-42.5 198.5q0 126 44.5 198.5t122.5 72.5t125 -82v289zM295.5 39.5q31.5 28.5 55.5 84.5v291q-46 94 -125 94q-66 0 -105 -64.5t-39 -182.5q0 -123 36 -187t100 -64q46 0 77.5 28.5zM776 519v-18l-258 -480
h253l-2 -21h-276v18l259 481h-237v20h261zM738 748l11 -10l-99 -97h-12l-99 97l11 10l94 -84z" />
    <glyph glyph-name="uni01C7" unicode="&#x1c7;" horiz-adv-x="589" 
d="M122 681v-659h236l-3 -22h-255v681h22zM494 87q0 -52 -9 -84t-32.5 -55.5t-68.5 -47.5l-6 16q39 23 58.5 44.5t27.5 50.5t8 78v592h22v-594z" />
    <glyph glyph-name="uni01C8" unicode="&#x1c8;" horiz-adv-x="573" 
d="M122 681v-659h236l-3 -22h-255v681h22zM478 -25q0 -47 -10 -77t-30 -50.5t-55 -42.5l-9 16q46 29 64 60.5t18 94.5v543h22v-544zM479.5 718q5.5 -6 5.5 -14t-5.5 -13.5t-13.5 -5.5q-9 0 -14.5 5.5t-5.5 13.5t5.5 14t14.5 6q8 0 13.5 -6z" />
    <glyph glyph-name="uni01C9" unicode="&#x1c9;" horiz-adv-x="440" 
d="M107.5 8.5q-16.5 18.5 -16.5 52.5v672l22 3v-675q0 -51 41 -51q14 0 31 7l7 -17q-22 -10 -40 -10q-28 0 -44.5 18.5zM345 -25q0 -47 -10 -77t-30 -50.5t-55 -42.5l-9 16q46 29 64 60.5t18 94.5v543h22v-544zM346.5 718q5.5 -6 5.5 -14t-5.5 -13.5t-13.5 -5.5
q-9 0 -14.5 5.5t-5.5 13.5t5.5 14t14.5 6q8 0 13.5 -6z" />
    <glyph glyph-name="uni01CA" unicode="&#x1ca;" horiz-adv-x="773" 
d="M444 0h-29l-296 655q3 -102 3 -178v-477h-22v681h29l296 -655q0 14 -1 22q-2 80 -2 157v476h22v-681zM678 87q0 -52 -9 -84t-32.5 -55.5t-68.5 -47.5l-6 16q39 23 58.5 44.5t27.5 50.5t8 78v592h22v-594z" />
    <glyph glyph-name="uni01CB" unicode="&#x1cb;" horiz-adv-x="757" 
d="M444 0h-29l-296 655q3 -102 3 -178v-477h-22v681h29l296 -655q0 14 -1 22q-2 80 -2 157v476h22v-681zM662 -25q0 -47 -10 -77t-30 -50.5t-55 -42.5l-9 16q46 29 64 60.5t18 94.5v543h22v-544zM663.5 718q5.5 -6 5.5 -14t-5.5 -13.5t-13.5 -5.5q-9 0 -14.5 5.5t-5.5 13.5
t5.5 14t14.5 6q8 0 13.5 -6z" />
    <glyph glyph-name="uni01CC" unicode="&#x1cc;" horiz-adv-x="690" 
d="M357 489.5q29 -39.5 29 -110.5v-379h-22v377q0 64 -23.5 98t-70.5 34q-88 0 -152 -128v-381h-22v519h19l2 -105q30 56 67.5 85.5t87.5 29.5q56 0 85 -39.5zM595 -25q0 -47 -10 -77t-30 -50.5t-55 -42.5l-9 16q46 29 64 60.5t18 94.5v543h22v-544zM596.5 718
q5.5 -6 5.5 -14t-5.5 -13.5t-13.5 -5.5q-9 0 -14.5 5.5t-5.5 13.5t5.5 14t14.5 6q8 0 13.5 -6z" />
    <glyph glyph-name="uni01CD" unicode="&#x1cd;" horiz-adv-x="470" 
d="M420 0l-57 203h-257l-57 -203h-21l193 681h28l194 -681h-23zM112 224h245l-122 439zM330 863l9 -11l-99 -92h-12l-99 92l10 11l95 -80z" />
    <glyph glyph-name="uni01CE" unicode="&#x1ce;" horiz-adv-x="434" 
d="M347.5 35q8.5 -20 29.5 -29l-5 -16q-27 10 -39.5 32t-13.5 64q-24 -48 -56.5 -72t-78.5 -24q-61 0 -96 42.5t-35 111.5q0 79 47 121.5t131 42.5h86v69q0 65 -24.5 98.5t-79.5 33.5q-56 0 -121 -31l-8 17q66 34 130 34q125 0 125 -150v-283q0 -41 8.5 -61zM317 120v168
h-84q-77 0 -116.5 -36.5t-39.5 -107.5q0 -63 28.5 -98t78.5 -35q90 0 133 109zM307 748l11 -10l-99 -97h-12l-99 97l11 10l94 -84z" />
    <glyph glyph-name="uni01CF" unicode="&#x1cf;" horiz-adv-x="222" 
d="M122 681v-681h-22v681h22zM206 863l9 -11l-99 -92h-12l-99 92l10 11l95 -80z" />
    <glyph glyph-name="uni01D0" unicode="&#x1d0;" horiz-adv-x="213" 
d="M118 519v-519h-22v519h22zM201 748l11 -10l-99 -97h-12l-99 97l11 10l94 -84z" />
    <glyph glyph-name="uni01D1" unicode="&#x1d1;" horiz-adv-x="565" 
d="M444.5 603q58.5 -88 58.5 -263q0 -172 -57.5 -261t-162.5 -89q-102 0 -161 89t-59 260q0 172 59.5 262t160.5 90q103 0 161.5 -88zM139 587q-53 -83 -53 -248q0 -163 53 -245t144 -82q95 0 145.5 81.5t50.5 246.5q0 167 -51.5 248.5t-144.5 81.5q-91 0 -144 -83zM378 863
l9 -11l-99 -92h-12l-99 92l10 11l95 -80z" />
    <glyph glyph-name="uni01D2" unicode="&#x1d2;" 
d="M356.5 462.5q44.5 -66.5 44.5 -200.5q0 -135 -45.5 -203.5t-126.5 -68.5t-125.5 68.5t-44.5 200.5q0 134 46 202t126 68q81 0 125.5 -66.5zM121 447q-40 -62 -40 -188q0 -124 38.5 -186t109.5 -62q72 0 111 62t39 189q0 125 -38.5 186t-109.5 61q-70 0 -110 -62zM324 748
l11 -10l-99 -97h-12l-99 97l11 10l94 -84z" />
    <glyph glyph-name="uni01D3" unicode="&#x1d3;" horiz-adv-x="523" 
d="M433 172q0 -80 -43 -131t-128 -51q-87 0 -129.5 51t-42.5 131v509h22v-507q0 -73 37 -117.5t113 -44.5t112.5 45t36.5 117v507h22v-509zM357 863l9 -11l-99 -92h-12l-99 92l10 11l95 -80z" />
    <glyph glyph-name="uni01D4" unicode="&#x1d4;" horiz-adv-x="473" 
d="M378 0h-20l-1 102q-24 -50 -60 -81t-84 -31q-57 0 -89.5 38.5t-32.5 106.5v384h22v-383q0 -61 26.5 -93t73.5 -32t81 31.5t62 90.5v386h22v-519zM329 748l11 -10l-99 -97h-12l-99 97l11 10l94 -84z" />
    <glyph glyph-name="uni01D5" unicode="&#x1d5;" horiz-adv-x="523" 
d="M433 172q0 -80 -43 -131t-128 -51q-87 0 -129.5 51t-42.5 131v509h22v-507q0 -73 37 -117.5t113 -44.5t112.5 45t36.5 117v507h22v-509zM206 775.5q5 -5.5 5 -14.5q0 -8 -5 -13.5t-14 -5.5q-8 0 -13.5 5.5t-5.5 13.5t5.5 14t13.5 6q9 0 14 -5.5zM344.5 775
q5.5 -6 5.5 -14t-5.5 -13.5t-13.5 -5.5q-9 0 -14.5 5.5t-5.5 13.5t5.5 14t14.5 6q8 0 13.5 -6zM349 850h-174v20h174v-20z" />
    <glyph glyph-name="uni01D6" unicode="&#x1d6;" horiz-adv-x="473" 
d="M378 0h-20l-1 102q-24 -50 -60 -81t-84 -31q-57 0 -89.5 38.5t-32.5 106.5v384h22v-383q0 -61 26.5 -93t73.5 -32t81 31.5t62 90.5v386h22v-519zM179 676.5q5 -5.5 5 -14.5q0 -8 -5 -13.5t-14 -5.5q-8 0 -13.5 5.5t-5.5 13.5t5.5 14t13.5 6q9 0 14 -5.5zM317.5 676
q5.5 -6 5.5 -14t-5.5 -13.5t-13.5 -5.5q-9 0 -14.5 5.5t-5.5 13.5t5.5 14t14.5 6q8 0 13.5 -6zM322 753h-174v20h174v-20z" />
    <glyph glyph-name="uni01D7" unicode="&#x1d7;" horiz-adv-x="523" 
d="M433 172q0 -80 -43 -131t-128 -51q-87 0 -129.5 51t-42.5 131v509h22v-507q0 -73 37 -117.5t113 -44.5t112.5 45t36.5 117v507h22v-509zM329 921l19 -14l-88 -115l-13 9zM207 775.5q5 -5.5 5 -13.5q0 -9 -5 -14.5t-14 -5.5q-8 0 -13.5 6t-5.5 14t5.5 13.5t13.5 5.5
q9 0 14 -5.5zM345.5 775.5q5.5 -5.5 5.5 -13.5t-5.5 -14t-13.5 -6q-9 0 -14.5 6t-5.5 14t5.5 13.5t14.5 5.5q8 0 13.5 -5.5z" />
    <glyph glyph-name="uni01D8" unicode="&#x1d8;" horiz-adv-x="473" 
d="M378 0h-20l-1 102q-24 -50 -60 -81t-84 -31q-57 0 -89.5 38.5t-32.5 106.5v384h22v-383q0 -61 26.5 -93t73.5 -32t81 31.5t62 90.5v386h22v-519zM301 821l19 -14l-88 -115l-13 9zM179 676.5q5 -5.5 5 -14.5q0 -8 -5 -13.5t-14 -5.5q-8 0 -13.5 5.5t-5.5 13.5t5.5 14
t13.5 6q9 0 14 -5.5zM317.5 676q5.5 -6 5.5 -14t-5.5 -13.5t-13.5 -5.5q-9 0 -14.5 5.5t-5.5 13.5t5.5 14t14.5 6q8 0 13.5 -6z" />
    <glyph glyph-name="uni01D9" unicode="&#x1d9;" horiz-adv-x="523" 
d="M433 172q0 -80 -43 -131t-128 -51q-87 0 -129.5 51t-42.5 131v509h22v-507q0 -73 37 -117.5t113 -44.5t112.5 45t36.5 117v507h22v-509zM356 894l9 -11l-99 -92h-12l-99 92l10 11l95 -80zM206.5 775.5q5.5 -5.5 5.5 -13.5q0 -9 -5.5 -14.5t-14.5 -5.5q-8 0 -13.5 6
t-5.5 14t5.5 13.5t13.5 5.5q9 0 14.5 -5.5zM345.5 775.5q5.5 -5.5 5.5 -13.5t-5.5 -14t-14.5 -6t-14.5 6t-5.5 14t5.5 13.5t14.5 5.5t14.5 -5.5z" />
    <glyph glyph-name="uni01DA" unicode="&#x1da;" horiz-adv-x="473" 
d="M378 0h-20l-1 102q-24 -50 -60 -81t-84 -31q-57 0 -89.5 38.5t-32.5 106.5v384h22v-383q0 -61 26.5 -93t73.5 -32t81 31.5t62 90.5v386h22v-519zM330 794l9 -11l-99 -92h-12l-99 92l10 11l95 -80zM179 676.5q5 -5.5 5 -14.5q0 -8 -5 -13.5t-14 -5.5q-8 0 -13.5 5.5
t-5.5 13.5t5.5 14t13.5 6q9 0 14 -5.5zM317.5 676q5.5 -6 5.5 -14t-5.5 -13.5t-13.5 -5.5q-9 0 -14.5 5.5t-5.5 13.5t5.5 14t14.5 6q8 0 13.5 -6z" />
    <glyph glyph-name="uni01DB" unicode="&#x1db;" horiz-adv-x="523" 
d="M433 172q0 -80 -43 -131t-128 -51q-87 0 -129.5 51t-42.5 131v509h22v-507q0 -73 37 -117.5t113 -44.5t112.5 45t36.5 117v507h22v-509zM202 921l82 -120l-13 -9l-88 115zM206 775.5q5 -5.5 5 -13.5q0 -9 -5 -14.5t-14 -5.5q-8 0 -13.5 6t-5.5 14t5.5 13.5t13.5 5.5
q9 0 14 -5.5zM344.5 775.5q5.5 -5.5 5.5 -13.5t-5.5 -14t-13.5 -6q-9 0 -14.5 6t-5.5 14t5.5 13.5t14.5 5.5q8 0 13.5 -5.5z" />
    <glyph glyph-name="uni01DC" unicode="&#x1dc;" horiz-adv-x="473" 
d="M378 0h-20l-1 102q-24 -50 -60 -81t-84 -31q-57 0 -89.5 38.5t-32.5 106.5v384h22v-383q0 -61 26.5 -93t73.5 -32t81 31.5t62 90.5v386h22v-519zM172 821l82 -120l-13 -9l-88 115zM179 676.5q5 -5.5 5 -14.5q0 -8 -5 -13.5t-14 -5.5q-8 0 -13.5 5.5t-5.5 13.5t5.5 14
t13.5 6q9 0 14 -5.5zM317.5 676q5.5 -6 5.5 -14t-5.5 -13.5t-13.5 -5.5q-9 0 -14.5 5.5t-5.5 13.5t5.5 14t14.5 6q8 0 13.5 -6z" />
    <glyph glyph-name="uni01DD" unicode="&#x1dd;" horiz-adv-x="436" 
d="M378 264q0 -146 -43 -210t-121 -64q-76 0 -118 64t-42 189q0 21 1 30h300q-1 236 -138 236q-35 0 -64 -13t-60 -39l-12 15q64 57 136 57q161 0 161 -265zM318 66.5q36 55.5 37 186.5h-278q-1 -3 -1 -10q0 -232 138 -232q68 0 104 55.5z" />
    <glyph glyph-name="uni01DE" unicode="&#x1de;" horiz-adv-x="470" 
d="M420 0l-57 203h-257l-57 -203h-21l193 681h28l194 -681h-23zM112 224h245l-122 439zM179 775.5q5 -5.5 5 -14.5q0 -8 -5 -13.5t-14 -5.5q-8 0 -13.5 5.5t-5.5 13.5t5.5 14t13.5 6q9 0 14 -5.5zM317.5 775q5.5 -6 5.5 -14t-5.5 -13.5t-13.5 -5.5q-9 0 -14.5 5.5t-5.5 13.5
t5.5 14t14.5 6q8 0 13.5 -6zM322 850h-174v20h174v-20z" />
    <glyph glyph-name="uni01DF" unicode="&#x1df;" horiz-adv-x="434" 
d="M347.5 35q8.5 -20 29.5 -29l-5 -16q-27 10 -39.5 32t-13.5 64q-24 -48 -56.5 -72t-78.5 -24q-61 0 -96 42.5t-35 111.5q0 79 47 121.5t131 42.5h86v69q0 65 -24.5 98.5t-79.5 33.5q-56 0 -121 -31l-8 17q66 34 130 34q125 0 125 -150v-283q0 -41 8.5 -61zM317 120v168
h-84q-77 0 -116.5 -36.5t-39.5 -107.5q0 -63 28.5 -98t78.5 -35q90 0 133 109zM157 676.5q5 -5.5 5 -14.5q0 -8 -5 -13.5t-14 -5.5q-8 0 -13.5 5.5t-5.5 13.5t5.5 14t13.5 6q9 0 14 -5.5zM295.5 676q5.5 -6 5.5 -14t-5.5 -13.5t-13.5 -5.5q-9 0 -14.5 5.5t-5.5 13.5t5.5 14
t14.5 6q8 0 13.5 -6zM300 753h-174v20h174v-20z" />
    <glyph glyph-name="uni01E0" unicode="&#x1e0;" horiz-adv-x="470" 
d="M420 0l-57 203h-257l-57 -203h-21l193 681h28l194 -681h-23zM112 224h245l-122 439zM248.5 780q5.5 -6 5.5 -14t-5.5 -13.5t-13.5 -5.5q-9 0 -14.5 5.5t-5.5 13.5t5.5 14t14.5 6q8 0 13.5 -6zM322 849h-174v20h174v-20z" />
    <glyph glyph-name="uni01E1" unicode="&#x1e1;" horiz-adv-x="434" 
d="M347.5 35q8.5 -20 29.5 -29l-5 -16q-27 10 -39.5 32t-13.5 64q-24 -48 -56.5 -72t-78.5 -24q-61 0 -96 42.5t-35 111.5q0 79 47 121.5t131 42.5h86v69q0 65 -24.5 98.5t-79.5 33.5q-56 0 -121 -31l-8 17q66 34 130 34q125 0 125 -150v-283q0 -41 8.5 -61zM317 120v168
h-84q-77 0 -116.5 -36.5t-39.5 -107.5q0 -63 28.5 -98t78.5 -35q90 0 133 109zM227.5 665q5.5 -6 5.5 -14t-5.5 -13.5t-13.5 -5.5q-9 0 -14.5 5.5t-5.5 13.5t5.5 14t14.5 6q8 0 13.5 -6zM300 745h-174v20h174v-20z" />
    <glyph glyph-name="uni01E2" unicode="&#x1e2;" horiz-adv-x="623" 
d="M398 21h189v-21h-207l-42 196h-245l-61 -196h-23l217 681h318l-3 -21h-279l62 -290h213v-21h-209zM100 218h234l-95 445zM455 811h-174v20h174v-20z" />
    <glyph glyph-name="uni01E3" unicode="&#x1e3;" horiz-adv-x="692" 
d="M636 246h-296q2 -117 42 -176t107 -59q36 0 63 13.5t55 41.5l13 -15q-31 -31 -61.5 -46t-70.5 -15q-52 0 -90 30t-59 88q-35 -63 -72 -90.5t-85 -27.5q-60 0 -94.5 42t-34.5 112q0 79 46.5 121.5t129.5 42.5h88v62q0 70 -25 104.5t-83 34.5q-50 0 -117 -32l-6 18
q68 34 124 34q63 0 93 -35t34 -104q19 68 56.5 103.5t90.5 35.5q77 0 115.5 -63.5t38.5 -181.5q0 -16 -2 -38zM616 292q0 104 -33 160.5t-99 56.5q-63 0 -103 -62.5t-41 -181.5h276v27zM263 39.5q34 28.5 69 92.5q-15 53 -15 123v33h-89q-72 0 -112 -37t-40 -107
q0 -62 29 -97.5t79 -35.5q45 0 79 28.5zM434 685h-174v20h174v-20z" />
    <glyph glyph-name="uni01E4" unicode="&#x1e4;" horiz-adv-x="510" 
d="M501 212h-62v-171q-71 -51 -149 -51q-107 0 -167 87t-60 268q0 120 31.5 197.5t82 113t109.5 35.5q42 0 74.5 -14t65.5 -45l-14 -15q-30 28 -59.5 40.5t-66.5 12.5q-53 0 -98 -31.5t-73.5 -104.5t-28.5 -189q0 -172 53.5 -252.5t148.5 -80.5q39 0 70 10.5t59 30.5v159
h-118v21h118v100h-118l-3 21h143v-121h62v-21z" />
    <glyph glyph-name="uni01E5" unicode="&#x1e5;" horiz-adv-x="402" 
d="M431 -69h-53q-5 -59 -48 -93.5t-124 -34.5q-90 0 -130.5 33t-40.5 106h21q1 -64 35 -91t115 -27q71 0 108.5 28.5t41.5 78.5h-127v21h127q-4 43 -34 67t-83 24h-52q-55 0 -82 22.5t-27 60.5q0 51 46 85q-72 45 -72 147q0 80 40 125.5t109 45.5q83 0 116.5 4.5t64.5 16.5
l7 -24q-41 -14 -127 -15q41 -15 63.5 -54.5t22.5 -100.5q0 -79 -38.5 -122.5t-106.5 -43.5q-30 0 -62 14q-42 -30 -42 -75q0 -66 90 -66h52q62 0 98 -30t39 -81h53v-21zM111 248.5q36 -38.5 92 -38.5q58 0 90.5 37t32.5 109t-33.5 112.5t-92.5 40.5q-61 0 -93 -40t-32 -111
t36 -109.5z" />
    <glyph glyph-name="Gcaron" unicode="&#x1e6;" horiz-adv-x="498" 
d="M360.5 677q32.5 -14 65.5 -45l-14 -15q-30 28 -59.5 40.5t-66.5 12.5q-53 0 -98 -31.5t-73.5 -104.5t-28.5 -189q0 -172 53.5 -252.5t148.5 -80.5q39 0 70 10.5t59 30.5v280h-118l-3 21h143v-313q-71 -51 -149 -51q-107 0 -167 87t-60 268q0 120 31.5 197.5t82 113
t109.5 35.5q42 0 74.5 -14zM379 863l9 -11l-99 -92h-12l-99 92l10 11l95 -80z" />
    <glyph glyph-name="gcaron" unicode="&#x1e7;" horiz-adv-x="402" 
d="M389 526q-41 -14 -127 -15q41 -15 63.5 -54.5t22.5 -100.5q0 -79 -38.5 -122.5t-106.5 -43.5q-30 0 -62 14q-42 -30 -42 -75q0 -66 90 -66h52q65 0 101 -32.5t36 -87.5q0 -64 -43.5 -102t-128.5 -38q-90 0 -130.5 33t-40.5 106h21q1 -64 35 -91t115 -27q76 0 112.5 32
t36.5 86q0 48 -30 74.5t-86 26.5h-52q-55 0 -82 22.5t-27 60.5q0 51 46 85q-72 45 -72 147q0 80 40 125.5t109 45.5q83 0 116.5 4.5t64.5 16.5zM107 469q-32 -40 -32 -111t36 -109.5t92 -38.5q58 0 90.5 37t32.5 109t-33.5 112.5t-92.5 40.5q-61 0 -93 -40zM295 748l11 -10
l-99 -97h-12l-99 97l11 10l94 -84z" />
    <glyph glyph-name="uni01E8" unicode="&#x1e8;" horiz-adv-x="433" 
d="M122 681v-681h-22v681h22zM407 681l-255 -314l268 -367h-26l-269 367l256 314h26zM333 863l9 -11l-99 -92h-12l-99 92l10 11l95 -80z" />
    <glyph glyph-name="uni01E9" unicode="&#x1e9;" horiz-adv-x="382" 
d="M118 736v-736h-22v733zM349 519l-201 -235l221 -284h-26l-220 284l200 235h26zM309 914l9 -11l-99 -92h-12l-99 92l10 11l95 -80z" />
    <glyph glyph-name="uni01EA" unicode="&#x1ea;" horiz-adv-x="565" 
d="M268 -54.5q-25 -27.5 -25 -68.5q0 -28 14 -43t42 -15q22 0 46 7l-2 -22q-24 -7 -45 -7q-38 0 -58 22t-20 58t19.5 63t57.5 50h-14q-102 0 -161 89t-59 260q0 172 59.5 262t160.5 90q103 0 161.5 -88t58.5 -263q0 -146 -41.5 -232t-118.5 -109q-50 -26 -75 -53.5zM139 94
q53 -82 144 -82q95 0 145.5 81.5t50.5 246.5q0 167 -51.5 248.5t-144.5 81.5q-91 0 -144 -83t-53 -248q0 -163 53 -245z" />
    <glyph glyph-name="uni01EB" unicode="&#x1eb;" 
d="M207 -54.5q-25 -27.5 -25 -68.5q0 -28 14 -43t42 -15q22 0 46 7l-2 -22q-24 -7 -45 -7q-38 0 -58 22t-20 58t19.5 63t56.5 50h-6q-81 0 -125.5 68.5t-44.5 200.5q0 134 46 202t126 68q81 0 125.5 -66.5t44.5 -200.5q0 -111 -31 -177t-88 -86q-50 -26 -75 -53.5zM119.5 73
q38.5 -62 109.5 -62q72 0 111 62t39 189q0 125 -38.5 186t-109.5 61q-70 0 -110 -62t-40 -188q0 -124 38.5 -186z" />
    <glyph glyph-name="uni01EC" unicode="&#x1ec;" horiz-adv-x="565" 
d="M370 831v-20h-174v20h174zM268 -54.5q-25 -27.5 -25 -68.5q0 -28 14 -43t42 -15q22 0 46 7l-2 -22q-24 -7 -45 -7q-38 0 -58 22t-20 58t19.5 63t57.5 50h-14q-102 0 -161 89t-59 260q0 172 59.5 262t160.5 90q103 0 161.5 -88t58.5 -263q0 -146 -41.5 -232t-118.5 -109
q-50 -26 -75 -53.5zM139 94q53 -82 144 -82q95 0 145.5 81.5t50.5 246.5q0 167 -51.5 248.5t-144.5 81.5q-91 0 -144 -83t-53 -248q0 -163 53 -245z" />
    <glyph glyph-name="uni01ED" unicode="&#x1ed;" 
d="M317 705v-20h-174v20h174zM207 -54.5q-25 -27.5 -25 -68.5q0 -28 14 -43t42 -15q22 0 46 7l-2 -22q-24 -7 -45 -7q-38 0 -58 22t-20 58t19.5 63t56.5 50h-6q-81 0 -125.5 68.5t-44.5 200.5q0 134 46 202t126 68q81 0 125.5 -66.5t44.5 -200.5q0 -111 -31 -177t-88 -86
q-50 -26 -75 -53.5zM119.5 73q38.5 -62 109.5 -62q72 0 111 62t39 189q0 125 -38.5 186t-109.5 61q-70 0 -110 -62t-40 -188q0 -124 38.5 -186z" />
    <glyph glyph-name="uni01EE" unicode="&#x1ee;" horiz-adv-x="390" 
d="M349 182q0 -86 -45 -139t-124 -53q-53 0 -92 20.5t-70 61.5l15 12q32 -39 65.5 -55.5t80.5 -16.5q71 0 108.5 46t37.5 123q0 90 -40 130.5t-120 40.5h-60v20l196 289h-271v20h298v-19l-198 -290h35q184 0 184 -190zM274 863l9 -11l-99 -92h-12l-99 92l10 11l95 -80z" />
    <glyph glyph-name="uni01EF" unicode="&#x1ef;" horiz-adv-x="366" 
d="M336 2q0 -90 -44.5 -144.5t-121.5 -54.5q-48 0 -84 20.5t-68 61.5l15 11q31 -38 62.5 -55t74.5 -17q69 0 106.5 48t37.5 130q0 89 -40.5 130t-123.5 41h-44v21l184 305h-258v20h283v-18l-186 -307h20q187 0 187 -192zM268 748l11 -10l-99 -97h-12l-99 97l11 10l94 -84z
" />
    <glyph glyph-name="uni01F0" unicode="&#x1f0;" horiz-adv-x="213" 
d="M118 -25q0 -47 -10 -77t-30 -50.5t-55 -42.5l-9 16q46 29 64 60.5t18 94.5v543h22v-544zM200 748l11 -10l-99 -97h-12l-99 97l11 10l94 -84z" />
    <glyph glyph-name="uni01F1" unicode="&#x1f1;" horiz-adv-x="903" 
d="M378.5 609q68.5 -72 68.5 -261q0 -193 -70 -270.5t-172 -77.5h-105v681h101q109 0 177.5 -72zM122 660v-639h84q94 0 155.5 72.5t61.5 254.5t-62 247t-160 65h-79zM862 681v-19l-320 -640h311l-3 -22h-332v21l321 639h-290v21h313z" />
    <glyph glyph-name="uni01F2" unicode="&#x1f2;" horiz-adv-x="838" 
d="M378.5 609q68.5 -72 68.5 -261q0 -193 -70 -270.5t-172 -77.5h-105v681h101q109 0 177.5 -72zM122 660v-639h84q94 0 155.5 72.5t61.5 254.5t-62 247t-160 65h-79zM808 519v-18l-258 -480h253l-2 -21h-276v18l259 481h-237v20h261z" />
    <glyph glyph-name="uni01F3" unicode="&#x1f3;" horiz-adv-x="806" 
d="M373 733v-733h-20l-2 88q-46 -98 -133 -98q-74 0 -116.5 69.5t-42.5 198.5q0 126 44.5 198.5t122.5 72.5t125 -82v289zM295.5 39.5q31.5 28.5 55.5 84.5v291q-46 94 -125 94q-66 0 -105 -64.5t-39 -182.5q0 -123 36 -187t100 -64q46 0 77.5 28.5zM776 519v-18l-258 -480
h253l-2 -21h-276v18l259 481h-237v20h261z" />
    <glyph glyph-name="uni01F4" unicode="&#x1f4;" horiz-adv-x="498" 
d="M360.5 677q32.5 -14 65.5 -45l-14 -15q-30 28 -59.5 40.5t-66.5 12.5q-53 0 -98 -31.5t-73.5 -104.5t-28.5 -189q0 -172 53.5 -252.5t148.5 -80.5q39 0 70 10.5t59 30.5v280h-118l-3 21h143v-313q-71 -51 -149 -51q-107 0 -167 87t-60 268q0 120 31.5 197.5t82 113
t109.5 35.5q42 0 74.5 -14zM350 858l11 -22l-148 -72l-7 14z" />
    <glyph glyph-name="uni01F5" unicode="&#x1f5;" horiz-adv-x="402" 
d="M389 526q-41 -14 -127 -15q41 -15 63.5 -54.5t22.5 -100.5q0 -79 -38.5 -122.5t-106.5 -43.5q-30 0 -62 14q-42 -30 -42 -75q0 -66 90 -66h52q65 0 101 -32.5t36 -87.5q0 -64 -43.5 -102t-128.5 -38q-90 0 -130.5 33t-40.5 106h21q1 -64 35 -91t115 -27q76 0 112.5 32
t36.5 86q0 48 -30 74.5t-86 26.5h-52q-55 0 -82 22.5t-27 60.5q0 51 46 85q-72 45 -72 147q0 80 40 125.5t109 45.5q83 0 116.5 4.5t64.5 16.5zM107 469q-32 -40 -32 -111t36 -109.5t92 -38.5q58 0 90.5 37t32.5 109t-33.5 112.5t-92.5 40.5q-61 0 -93 -40zM260 759l13 -21
l-148 -84l-9 14z" />
    <glyph glyph-name="uni01F6" unicode="&#x1f6;" horiz-adv-x="789" 
d="M711 256q0 -134 -45 -200t-119 -66q-56 0 -91.5 38t-35.5 107v214h-298v-349h-22v681h22v-310h298v310h23v-545q0 -61 28.5 -93t75.5 -32q63 0 102.5 58t39.5 187q0 115 -22 263h22q22 -136 22 -263z" />
    <glyph glyph-name="uni01F7" unicode="&#x1f7;" horiz-adv-x="454" 
d="M373 644q40 -47 40 -128q0 -100 -52 -156.5t-150 -97.5l-89 -38v-224h-22v681h22v-62q31 33 66 52.5t79 19.5q66 0 106 -47zM344 372.5q46 51.5 46 143.5q0 73 -33.5 113.5t-90.5 40.5q-45 0 -79.5 -20.5t-64.5 -55.5v-349l91 39q85 37 131 88.5z" />
    <glyph glyph-name="uni01F8" unicode="&#x1f8;" horiz-adv-x="544" 
d="M444 0h-29l-296 655q3 -102 3 -178v-477h-22v681h29l296 -655q0 14 -1 22q-2 80 -2 157v476h22v-681zM212 857l143 -80l-8 -14l-147 73z" />
    <glyph glyph-name="uni01F9" unicode="&#x1f9;" horiz-adv-x="477" 
d="M357 489.5q29 -39.5 29 -110.5v-379h-22v377q0 64 -23.5 98t-70.5 34q-88 0 -152 -128v-381h-22v519h19l2 -105q30 56 67.5 85.5t87.5 29.5q56 0 85 -39.5zM180 759l144 -91l-10 -14l-147 84z" />
    <glyph glyph-name="Aringacute" unicode="&#x1fa;" horiz-adv-x="470" 
d="M420 0l-57 203h-257l-57 -203h-21l193 681h28l194 -681h-23zM112 224h245l-122 439zM288 866.5q18 -20.5 18 -57.5q0 -38 -18 -58.5t-49 -20.5t-49 20.5t-18 57.5q0 38 18 58.5t49 20.5t49 -20.5zM192 808q0 -61 47 -61t47 62q0 61 -47 61t-47 -62zM305 1001l11 -22
l-148 -72l-7 14z" />
    <glyph glyph-name="aringacute" unicode="&#x1fb;" horiz-adv-x="434" 
d="M291 832l-148 -72l-7 14l144 80zM165 724.5q18 20.5 49 20.5t49 -20.5t18 -57.5q0 -38 -18 -58.5t-49 -20.5t-49 20.5t-18 57.5q0 38 18 58.5zM214 728q-47 0 -47 -62q0 -61 47 -61t47 62q0 61 -47 61zM347.5 35q8.5 -20 29.5 -29l-5 -16q-27 10 -39.5 32t-13.5 64
q-24 -48 -56.5 -72t-78.5 -24q-61 0 -96 42.5t-35 111.5q0 79 47 121.5t131 42.5h86v69q0 65 -24.5 98.5t-79.5 33.5q-56 0 -121 -31l-8 17q66 34 130 34q125 0 125 -150v-283q0 -41 8.5 -61zM317 120v168h-84q-77 0 -116.5 -36.5t-39.5 -107.5q0 -63 28.5 -98t78.5 -35
q90 0 133 109z" />
    <glyph glyph-name="AEacute" unicode="&#x1fc;" horiz-adv-x="623" 
d="M398 21h189v-21h-207l-42 196h-245l-61 -196h-23l217 681h318l-3 -21h-279l62 -290h213v-21h-209zM100 218h234l-95 445zM434 858l11 -22l-148 -72l-7 14z" />
    <glyph glyph-name="aeacute" unicode="&#x1fd;" horiz-adv-x="692" 
d="M636 246h-296q2 -117 42 -176t107 -59q36 0 63 13.5t55 41.5l13 -15q-31 -31 -61.5 -46t-70.5 -15q-52 0 -90 30t-59 88q-35 -63 -72 -90.5t-85 -27.5q-60 0 -94.5 42t-34.5 112q0 79 46.5 121.5t129.5 42.5h88v62q0 70 -25 104.5t-83 34.5q-50 0 -117 -32l-6 18
q68 34 124 34q63 0 93 -35t34 -104q19 68 56.5 103.5t90.5 35.5q77 0 115.5 -63.5t38.5 -181.5q0 -16 -2 -38zM616 292q0 104 -33 160.5t-99 56.5q-63 0 -103 -62.5t-41 -181.5h276v27zM263 39.5q34 28.5 69 92.5q-15 53 -15 123v33h-89q-72 0 -112 -37t-40 -107
q0 -62 29 -97.5t79 -35.5q45 0 79 28.5zM406 759l13 -21l-148 -84l-9 14z" />
    <glyph glyph-name="Oslashacute" unicode="&#x1fe;" horiz-adv-x="565" 
d="M468.5 555q34.5 -83 34.5 -215q0 -171 -58 -260.5t-162 -89.5q-41 0 -73 14l-27 -115l-22 7l31 116q-62 34 -95.5 116.5t-33.5 210.5q0 114 27.5 193.5t77 119t115.5 39.5q39 0 71 -13l29 120l22 -6l-33 -122q62 -32 96.5 -115zM116 140.5q30 -76.5 84 -107.5l150 625
q-31 12 -67 12q-91 0 -144 -83t-53 -248q0 -122 30 -198.5zM428.5 93.5q50.5 81.5 50.5 246.5q0 246 -113 310l-149 -625q29 -13 66 -13q95 0 145.5 81.5zM342 868l11 -22l-148 -72l-7 14z" />
    <glyph glyph-name="oslashacute" unicode="&#x1ff;" 
d="M377 421q24 -62 24 -159q0 -135 -45.5 -203.5t-126.5 -68.5q-31 0 -59 11l-34 -119l-20 5l37 123q-46 27 -70 89.5t-24 159.5q0 134 46 202t126 68q32 0 60 -11l33 121l19 -5l-35 -125q45 -26 69 -88zM160 30l125 469q-23 10 -54 10q-70 0 -110 -62t-40 -188
q0 -180 79 -229zM340 73q39 62 39 189q0 178 -78 228l-124 -469q21 -10 52 -10q72 0 111 62zM289 759l13 -21l-148 -84l-9 14z" />
    <glyph glyph-name="uni0200" unicode="&#x200;" horiz-adv-x="470" 
d="M420 0l-57 203h-257l-57 -203h-21l193 681h28l194 -681h-23zM112 224h245l-122 439zM138 917l59 -132l-15 -7l-65 129zM230 916l54 -127l-15 -7l-60 124z" />
    <glyph glyph-name="uni0201" unicode="&#x201;" horiz-adv-x="434" 
d="M347.5 35q8.5 -20 29.5 -29l-5 -16q-27 10 -39.5 32t-13.5 64q-24 -48 -56.5 -72t-78.5 -24q-61 0 -96 42.5t-35 111.5q0 79 47 121.5t131 42.5h86v69q0 65 -24.5 98.5t-79.5 33.5q-56 0 -121 -31l-8 17q66 34 130 34q125 0 125 -150v-283q0 -41 8.5 -61zM317 120v168
h-84q-77 0 -116.5 -36.5t-39.5 -107.5q0 -63 28.5 -98t78.5 -35q90 0 133 109zM120 791l59 -132l-15 -7l-65 129zM212 790l54 -127l-15 -7l-60 124z" />
    <glyph glyph-name="uni0202" unicode="&#x202;" horiz-adv-x="470" 
d="M420 0l-57 203h-257l-57 -203h-21l193 681h28l194 -681h-23zM112 224h245l-122 439zM296.5 864q24.5 -23 29.5 -63l-16 -4q-14 69 -75 69q-59 0 -75 -69l-16 4q6 40 30 63t61 23t61.5 -23z" />
    <glyph glyph-name="uni0203" unicode="&#x203;" horiz-adv-x="434" 
d="M347.5 35q8.5 -20 29.5 -29l-5 -16q-27 10 -39.5 32t-13.5 64q-24 -48 -56.5 -72t-78.5 -24q-61 0 -96 42.5t-35 111.5q0 79 47 121.5t131 42.5h86v69q0 65 -24.5 98.5t-79.5 33.5q-56 0 -121 -31l-8 17q66 34 130 34q125 0 125 -150v-283q0 -41 8.5 -61zM317 120v168
h-84q-77 0 -116.5 -36.5t-39.5 -107.5q0 -63 28.5 -98t78.5 -35q90 0 133 109zM274.5 702q24.5 -23 29.5 -63l-16 -4q-14 69 -75 69q-59 0 -75 -69l-16 4q6 40 30 63t61 23t61.5 -23z" />
    <glyph glyph-name="uni0204" unicode="&#x204;" horiz-adv-x="407" 
d="M365 681l-3 -21h-240v-290h208v-21h-208v-328h249v-21h-271v681h265zM139 917l59 -132l-15 -7l-65 129zM231 916l54 -127l-15 -7l-60 124z" />
    <glyph glyph-name="uni0205" unicode="&#x205;" horiz-adv-x="433" 
d="M378 246h-297q3 -119 43 -177t106 -58q36 0 63 13t55 41l14 -14q-30 -30 -61 -45.5t-70 -15.5q-80 0 -126 68t-46 197q0 133 44.5 203.5t121.5 70.5t116 -64t39 -181q0 -16 -2 -38zM358 292q0 103 -33 160t-100 57q-64 0 -103.5 -60.5t-40.5 -183.5h276q1 8 1 27z
M132 791l59 -132l-15 -7l-65 129zM224 790l54 -127l-15 -7l-60 124z" />
    <glyph glyph-name="uni0206" unicode="&#x206;" horiz-adv-x="407" 
d="M365 681l-3 -21h-240v-290h208v-21h-208v-328h249v-21h-271v681h265zM297.5 864q24.5 -23 29.5 -63l-16 -4q-14 69 -75 69q-59 0 -75 -69l-16 4q6 40 30 63t61 23t61.5 -23z" />
    <glyph glyph-name="uni0207" unicode="&#x207;" horiz-adv-x="433" 
d="M378 246h-297q3 -119 43 -177t106 -58q36 0 63 13t55 41l14 -14q-30 -30 -61 -45.5t-70 -15.5q-80 0 -126 68t-46 197q0 133 44.5 203.5t121.5 70.5t116 -64t39 -181q0 -16 -2 -38zM358 292q0 103 -33 160t-100 57q-64 0 -103.5 -60.5t-40.5 -183.5h276q1 8 1 27z
M286.5 702q24.5 -23 29.5 -63l-16 -4q-14 69 -75 69q-59 0 -75 -69l-16 4q6 40 30 63t61 23t61.5 -23z" />
    <glyph glyph-name="uni0208" unicode="&#x208;" horiz-adv-x="222" 
d="M122 681v-681h-22v681h22zM14 917l59 -132l-15 -7l-65 129zM106 916l54 -127l-15 -7l-60 124z" />
    <glyph glyph-name="uni0209" unicode="&#x209;" horiz-adv-x="213" 
d="M118 519v-519h-22v519h22zM14 791l59 -132l-15 -7l-65 129zM106 790l54 -127l-15 -7l-60 124z" />
    <glyph glyph-name="uni020A" unicode="&#x20a;" horiz-adv-x="222" 
d="M122 681v-681h-22v681h22zM172.5 864q24.5 -23 29.5 -63l-16 -4q-14 69 -75 69q-59 0 -75 -69l-16 4q6 40 30 63t61 23t61.5 -23z" />
    <glyph glyph-name="uni020B" unicode="&#x20b;" horiz-adv-x="213" 
d="M118 519v-519h-22v519h22zM168.5 702q24.5 -23 29.5 -63l-16 -4q-14 69 -75 69q-59 0 -75 -69l-16 4q6 40 30 63t61 23t61.5 -23z" />
    <glyph glyph-name="uni020C" unicode="&#x20c;" horiz-adv-x="565" 
d="M444.5 603q58.5 -88 58.5 -263q0 -172 -57.5 -261t-162.5 -89q-102 0 -161 89t-59 260q0 172 59.5 262t160.5 90q103 0 161.5 -88zM139 587q-53 -83 -53 -248q0 -163 53 -245t144 -82q95 0 145.5 81.5t50.5 246.5q0 167 -51.5 248.5t-144.5 81.5q-91 0 -144 -83zM186 917
l59 -132l-15 -7l-65 129zM278 916l54 -127l-15 -7l-60 124z" />
    <glyph glyph-name="uni020D" unicode="&#x20d;" 
d="M356.5 462.5q44.5 -66.5 44.5 -200.5q0 -135 -45.5 -203.5t-126.5 -68.5t-125.5 68.5t-44.5 200.5q0 134 46 202t126 68q81 0 125.5 -66.5zM121 447q-40 -62 -40 -188q0 -124 38.5 -186t109.5 -62q72 0 111 62t39 189q0 125 -38.5 186t-109.5 61q-70 0 -110 -62zM137 791
l59 -132l-15 -7l-65 129zM229 790l54 -127l-15 -7l-60 124z" />
    <glyph glyph-name="uni020E" unicode="&#x20e;" horiz-adv-x="565" 
d="M444.5 603q58.5 -88 58.5 -263q0 -172 -57.5 -261t-162.5 -89q-102 0 -161 89t-59 260q0 172 59.5 262t160.5 90q103 0 161.5 -88zM139 587q-53 -83 -53 -248q0 -163 53 -245t144 -82q95 0 145.5 81.5t50.5 246.5q0 167 -51.5 248.5t-144.5 81.5q-91 0 -144 -83z
M344.5 864q24.5 -23 29.5 -63l-16 -4q-14 69 -75 69q-59 0 -75 -69l-16 4q6 40 30 63t61 23t61.5 -23z" />
    <glyph glyph-name="uni020F" unicode="&#x20f;" 
d="M356.5 462.5q44.5 -66.5 44.5 -200.5q0 -135 -45.5 -203.5t-126.5 -68.5t-125.5 68.5t-44.5 200.5q0 134 46 202t126 68q81 0 125.5 -66.5zM121 447q-40 -62 -40 -188q0 -124 38.5 -186t109.5 -62q72 0 111 62t39 189q0 125 -38.5 186t-109.5 61q-70 0 -110 -62z
M291.5 702q24.5 -23 29.5 -63l-16 -4q-14 69 -75 69q-59 0 -75 -69l-16 4q6 40 30 63t61 23t61.5 -23z" />
    <glyph glyph-name="uni0210" unicode="&#x210;" horiz-adv-x="471" 
d="M411 0l-155 326q-24 -2 -36 -2h-98v-324h-22v681h107q107 0 155 -45.5t48 -131.5q0 -71 -34.5 -115.5t-97.5 -58.5l158 -330h-25zM386 504q0 78 -41 117t-140 39h-83v-315h94q170 0 170 159zM136 917l59 -132l-15 -7l-65 129zM228 916l54 -127l-15 -7l-60 124z" />
    <glyph glyph-name="uni0211" unicode="&#x211;" horiz-adv-x="299" 
d="M284 523l-4 -18q-18 5 -36 5q-47 0 -76.5 -38.5t-49.5 -120.5v-351h-22v519h19l1 -119q19 67 49.5 98t78.5 31q20 0 40 -6zM96 791l59 -132l-15 -7l-65 129zM188 790l54 -127l-15 -7l-60 124z" />
    <glyph glyph-name="uni0212" unicode="&#x212;" horiz-adv-x="471" 
d="M411 0l-155 326q-24 -2 -36 -2h-98v-324h-22v681h107q107 0 155 -45.5t48 -131.5q0 -71 -34.5 -115.5t-97.5 -58.5l158 -330h-25zM386 504q0 78 -41 117t-140 39h-83v-315h94q170 0 170 159zM294.5 864q24.5 -23 29.5 -63l-16 -4q-14 69 -75 69q-59 0 -75 -69l-16 4
q6 40 30 63t61 23t61.5 -23z" />
    <glyph glyph-name="uni0213" unicode="&#x213;" horiz-adv-x="299" 
d="M284 523l-4 -18q-18 5 -36 5q-47 0 -76.5 -38.5t-49.5 -120.5v-351h-22v519h19l1 -119q19 67 49.5 98t78.5 31q20 0 40 -6zM250.5 702q24.5 -23 29.5 -63l-16 -4q-14 69 -75 69q-59 0 -75 -69l-16 4q6 40 30 63t61 23t61.5 -23z" />
    <glyph glyph-name="uni0214" unicode="&#x214;" horiz-adv-x="523" 
d="M433 172q0 -80 -43 -131t-128 -51q-87 0 -129.5 51t-42.5 131v509h22v-507q0 -73 37 -117.5t113 -44.5t112.5 45t36.5 117v507h22v-509zM165 917l59 -132l-15 -7l-65 129zM257 916l54 -127l-15 -7l-60 124z" />
    <glyph glyph-name="uni0215" unicode="&#x215;" horiz-adv-x="473" 
d="M378 0h-20l-1 102q-24 -50 -60 -81t-84 -31q-57 0 -89.5 38.5t-32.5 106.5v384h22v-383q0 -61 26.5 -93t73.5 -32t81 31.5t62 90.5v386h22v-519zM142 791l59 -132l-15 -7l-65 129zM234 790l54 -127l-15 -7l-60 124z" />
    <glyph glyph-name="uni0216" unicode="&#x216;" horiz-adv-x="523" 
d="M433 172q0 -80 -43 -131t-128 -51q-87 0 -129.5 51t-42.5 131v509h22v-507q0 -73 37 -117.5t113 -44.5t112.5 45t36.5 117v507h22v-509zM323.5 864q24.5 -23 29.5 -63l-16 -4q-14 69 -75 69q-59 0 -75 -69l-16 4q6 40 30 63t61 23t61.5 -23z" />
    <glyph glyph-name="uni0217" unicode="&#x217;" horiz-adv-x="473" 
d="M378 0h-20l-1 102q-24 -50 -60 -81t-84 -31q-57 0 -89.5 38.5t-32.5 106.5v384h22v-383q0 -61 26.5 -93t73.5 -32t81 31.5t62 90.5v386h22v-519zM296.5 702q24.5 -23 29.5 -63l-16 -4q-14 69 -75 69q-59 0 -75 -69l-16 4q6 40 30 63t61 23t61.5 -23z" />
    <glyph glyph-name="Scommaaccent" unicode="&#x218;" horiz-adv-x="440" 
d="M301 673.5q34 -17.5 66 -51.5l-14 -14q-31 32 -62 47t-73 15q-58 0 -94.5 -39t-36.5 -97t30.5 -92.5t108.5 -64.5q85 -33 122 -76t37 -119q0 -54 -22 -98t-61.5 -69t-89.5 -25q-53 0 -93 21t-76 61l15 13q33 -36 68.5 -54.5t84.5 -18.5q68 0 109.5 47.5t41.5 121.5
q0 70 -32 107.5t-112 69.5q-85 34 -119.5 73t-34.5 103q0 42 19.5 78t54.5 57.5t80 21.5q49 0 83 -17.5zM230 -102q6 -6 6 -17q0 -10 -5 -24.5t-7 -20.5l-29 -94h-15l26 116q-16 7 -16 23q0 10 6 16.5t17 6.5t17 -6z" />
    <glyph glyph-name="scommaaccent" unicode="&#x219;" horiz-adv-x="378" 
d="M256.5 515.5q30.5 -13.5 59.5 -41.5l-12 -15q-28 26 -54 38t-61 12q-47 0 -78.5 -29.5t-31.5 -78.5q0 -41 25.5 -66.5t90.5 -50.5q74 -30 103.5 -61.5t29.5 -88.5q0 -64 -40 -104t-101 -40q-47 0 -81 17t-64 49l13 14q31 -31 60.5 -45.5t71.5 -14.5q52 0 85.5 33t33.5 91
q0 35 -11.5 57.5t-37 40t-73.5 36.5q-69 27 -98 56.5t-29 76.5q0 55 38 91.5t93 36.5q38 0 68.5 -13.5zM205 -102q6 -6 6 -17q0 -10 -5 -24.5t-7 -20.5l-29 -94h-15l26 116q-16 7 -16 23q0 10 6 16.5t17 6.5t17 -6z" />
    <glyph glyph-name="uni021A" unicode="&#x21a;" horiz-adv-x="392" 
d="M381 681l-2 -21h-171v-660h-23v660h-172v21h368zM211 -102q6 -6 6 -17q0 -10 -5 -24.5t-7 -20.5l-29 -94h-15l26 116q-16 7 -16 23q0 10 6 16.5t17 6.5t17 -6z" />
    <glyph glyph-name="uni021B" unicode="&#x21b;" horiz-adv-x="268" 
d="M269 20q-41 -30 -84 -30q-44 0 -69 28.5t-25 78.5v402h-70v20h70v131l22 2v-133h117l-3 -20h-114v-401q0 -41 19 -64t55 -23q37 0 71 24zM200 -102q6 -6 6 -17q0 -10 -5 -24.5t-7 -20.5l-29 -94h-15l26 116q-16 7 -16 23q0 10 6 16.5t17 6.5t17 -6z" />
    <glyph glyph-name="uni021C" unicode="&#x21c;" horiz-adv-x="405" 
d="M298 644q41 -47 41 -124q0 -69 -32 -108.5t-86 -50.5q61 -6 98 -45.5t37 -111.5q0 -69 -28.5 -120.5t-94.5 -92t-178 -71.5l-2 22q104 29 165 66t87.5 84.5t26.5 111.5q0 70 -40 108.5t-115 37.5l-46 -1l4 21h40q64 0 102 39t38 112q0 68 -34 108.5t-95 40.5
q-43 0 -77 -19t-69 -57l-14 14q37 42 75 62.5t86 20.5q70 0 111 -47z" />
    <glyph glyph-name="uni021D" unicode="&#x21d;" horiz-adv-x="372" 
d="M257 492.5q35 -36.5 35 -100.5q0 -107 -93 -126q53 -2 83.5 -31.5t30.5 -86.5q0 -80 -61.5 -138.5t-193.5 -96.5l-4 19q125 39 180.5 90.5t55.5 125.5q0 56 -30.5 81.5t-97.5 25.5h-50l2 19h40q115 0 115 118q0 54 -28 85.5t-78 31.5q-38 0 -64 -11t-60 -35l-13 14
q31 26 64.5 39t73.5 13q58 0 93 -36.5z" />
    <glyph glyph-name="uni021E" unicode="&#x21e;" horiz-adv-x="542" 
d="M420 0v349h-298v-349h-22v681h22v-311h298v311h23v-681h-23zM365 863l9 -11l-99 -92h-12l-99 92l10 11l95 -80z" />
    <glyph glyph-name="uni021F" unicode="&#x21f;" horiz-adv-x="477" 
d="M357 489.5q29 -39.5 29 -110.5v-379h-22v377q0 64 -23.5 98t-70.5 34t-84 -33t-68 -95v-381h-22v733l22 3v-323q64 116 154 116q56 0 85 -39.5zM337 914l9 -11l-99 -92h-12l-99 92l10 11l95 -80z" />
    <glyph glyph-name="uni0220" unicode="&#x220;" horiz-adv-x="532" 
d="M404 646q37 -45 37 -129v-709h-22v706q0 78 -31 117t-88 39q-54 0 -97.5 -33t-80.5 -89v-548h-22v681h19l2 -104q35 52 80.5 83t100.5 31q65 0 102 -45z" />
    <glyph glyph-name="uni0221" unicode="&#x221;" horiz-adv-x="535" 
d="M544 158q21 -24 21 -59q0 -48 -31 -78.5t-78 -30.5q-51 0 -81 36l-34 -81l-17 9l40 91q-11 20 -12 44q-22 -46 -54 -72.5t-80 -26.5q-74 0 -116.5 69.5t-42.5 198.5q0 126 44.5 198.5t122.5 72.5t125 -82v289l22 -3v-630q0 -17 3 -31q22 55 48 82.5t65 27.5q34 0 55 -24z
M295.5 39.5q31.5 28.5 55.5 84.5v291q-46 94 -125 94q-66 0 -105 -64.5t-39 -182.5q0 -123 36 -187t100 -64q46 0 77.5 28.5zM518.5 35q24.5 24 24.5 64q0 28 -14.5 45.5t-40.5 17.5q-33 0 -54.5 -26t-48.5 -88q20 -37 71 -37q38 0 62.5 24z" />
    <glyph glyph-name="uni0222" unicode="&#x222;" horiz-adv-x="518" 
d="M421.5 317q33.5 -50 33.5 -126q0 -90 -50.5 -145.5t-145.5 -55.5q-94 0 -145 55t-51 144q0 73 34 124.5t96 69.5q-90 28 -90 145v153h23v-153q0 -135 133 -135q136 0 136 135v153h22v-153q0 -52 -22 -90t-70 -54q63 -17 96.5 -67zM388.5 60.5q43.5 48.5 43.5 130.5
q0 85 -43.5 133t-129.5 48q-84 0 -128.5 -49.5t-44.5 -133.5q0 -81 44.5 -129t128.5 -48q86 0 129.5 48.5z" />
    <glyph glyph-name="uni0223" unicode="&#x223;" horiz-adv-x="457" 
d="M369 341.5q29 -52.5 29 -137.5q0 -104 -44 -159t-126 -55q-80 0 -124.5 54.5t-44.5 157.5q0 83 29.5 136.5t84.5 71.5q-83 27 -83 136v186h22v-186q0 -57 27 -92t89 -35t90.5 36t28.5 91v186h22v-186q0 -49 -20.5 -85t-64.5 -51q56 -16 85 -68.5zM375 204q0 195 -147 195
q-72 0 -109.5 -51t-37.5 -146t38.5 -143t108.5 -48q147 0 147 193z" />
    <glyph glyph-name="uni0224" unicode="&#x224;" horiz-adv-x="418" 
d="M377 662l-320 -640h309v-124q0 -47 -22.5 -71t-58.5 -24q-42 0 -76 30l12 16q14 -12 28.5 -18.5t34.5 -6.5q59 0 59 74v102h-310v21l321 639h-290v21h313v-19z" />
    <glyph glyph-name="uni0225" unicode="&#x225;" horiz-adv-x="338" 
d="M308 501l-258 -480h251v-123q0 -47 -22.5 -71t-58.5 -24q-43 0 -75 30l11 15q14 -11 29 -18t34 -7q27 0 43.5 17.5t16.5 56.5v103h-254v18l259 481h-237v20h261v-18z" />
    <glyph glyph-name="uni0226" unicode="&#x226;" horiz-adv-x="470" 
d="M420 0l-57 203h-257l-57 -203h-21l193 681h28l194 -681h-23zM112 224h245l-122 439zM249.5 844q5.5 -6 5.5 -14t-5.5 -13.5t-13.5 -5.5q-9 0 -14.5 5.5t-5.5 13.5t5.5 14t14.5 6q8 0 13.5 -6z" />
    <glyph glyph-name="uni0227" unicode="&#x227;" horiz-adv-x="434" 
d="M347.5 35q8.5 -20 29.5 -29l-5 -16q-27 10 -39.5 32t-13.5 64q-24 -48 -56.5 -72t-78.5 -24q-61 0 -96 42.5t-35 111.5q0 79 47 121.5t131 42.5h86v69q0 65 -24.5 98.5t-79.5 33.5q-56 0 -121 -31l-8 17q66 34 130 34q125 0 125 -150v-283q0 -41 8.5 -61zM317 120v168
h-84q-77 0 -116.5 -36.5t-39.5 -107.5q0 -63 28.5 -98t78.5 -35q90 0 133 109zM226.5 718q5.5 -6 5.5 -14t-5.5 -13.5t-13.5 -5.5q-9 0 -14.5 5.5t-5.5 13.5t5.5 14t14.5 6q8 0 13.5 -6z" />
    <glyph glyph-name="uni0228" unicode="&#x228;" horiz-adv-x="407" 
d="M237 0l-2 -74q75 -8 75 -67q0 -34 -20.5 -52.5t-50.5 -18.5q-32 0 -57 18l10 16q21 -15 47 -15q22 0 36 13t14 39t-17.5 38t-56.5 13l4 90h-119v681h265l-3 -21h-240v-290h208v-21h-208v-328h249v-21h-134z" />
    <glyph glyph-name="uni0229" unicode="&#x229;" horiz-adv-x="433" 
d="M378 246h-297q3 -119 43 -177t106 -58q36 0 63 13t55 41l14 -14q-29 -29 -58.5 -44.5t-66.5 -16.5l-2 -64q75 -8 75 -67q0 -34 -20.5 -52.5t-50.5 -18.5q-32 0 -57 18l10 16q21 -15 47 -15q22 0 36 13t14 39t-17.5 38t-56.5 13l4 80q-74 5 -117 73.5t-43 191.5
q0 133 44.5 203.5t121.5 70.5t116 -64t39 -181q0 -16 -2 -38zM358 292q0 103 -33 160t-100 57q-64 0 -103.5 -60.5t-40.5 -183.5h276q1 8 1 27z" />
    <glyph glyph-name="uni022A" unicode="&#x22a;" horiz-adv-x="565" 
d="M444.5 603q58.5 -88 58.5 -263q0 -172 -57.5 -261t-162.5 -89q-102 0 -161 89t-59 260q0 172 59.5 262t160.5 90q103 0 161.5 -88zM139 587q-53 -83 -53 -248q0 -163 53 -245t144 -82q95 0 145.5 81.5t50.5 246.5q0 167 -51.5 248.5t-144.5 81.5q-91 0 -144 -83z
M227 775.5q5 -5.5 5 -14.5q0 -8 -5 -13.5t-14 -5.5q-8 0 -13.5 5.5t-5.5 13.5t5.5 14t13.5 6q9 0 14 -5.5zM365.5 775q5.5 -6 5.5 -14t-5.5 -13.5t-13.5 -5.5q-9 0 -14.5 5.5t-5.5 13.5t5.5 14t14.5 6q8 0 13.5 -6zM370 850h-174v20h174v-20z" />
    <glyph glyph-name="uni022B" unicode="&#x22b;" 
d="M356.5 462.5q44.5 -66.5 44.5 -200.5q0 -135 -45.5 -203.5t-126.5 -68.5t-125.5 68.5t-44.5 200.5q0 134 46 202t126 68q81 0 125.5 -66.5zM121 447q-40 -62 -40 -188q0 -124 38.5 -186t109.5 -62q72 0 111 62t39 189q0 125 -38.5 186t-109.5 61q-70 0 -110 -62z
M174 676.5q5 -5.5 5 -14.5q0 -8 -5 -13.5t-14 -5.5q-8 0 -13.5 5.5t-5.5 13.5t5.5 14t13.5 6q9 0 14 -5.5zM312.5 676q5.5 -6 5.5 -14t-5.5 -13.5t-13.5 -5.5q-9 0 -14.5 5.5t-5.5 13.5t5.5 14t14.5 6q8 0 13.5 -6zM317 753h-174v20h174v-20z" />
    <glyph glyph-name="uni022C" unicode="&#x22c;" horiz-adv-x="565" 
d="M444.5 603q58.5 -88 58.5 -263q0 -172 -57.5 -261t-162.5 -89q-102 0 -161 89t-59 260q0 172 59.5 262t160.5 90q103 0 161.5 -88zM139 587q-53 -83 -53 -248q0 -163 53 -245t144 -82q95 0 145.5 81.5t50.5 246.5q0 167 -51.5 248.5t-144.5 81.5q-91 0 -144 -83z
M304.5 763q-12.5 6 -27.5 18l-12 8t-16.5 9t-13.5 3q-14 0 -24.5 -8t-23.5 -27l-14 8q15 23 29.5 34.5t32.5 11.5q12 0 22 -5t27 -17q15 -11 25.5 -16.5t21.5 -5.5q14 0 25 9.5t24 31.5l14 -7q-14 -28 -29 -40.5t-34 -12.5q-14 0 -26.5 6zM369 878h-174v20h174v-20z" />
    <glyph glyph-name="uni022D" unicode="&#x22d;" 
d="M356.5 462.5q44.5 -66.5 44.5 -200.5q0 -135 -45.5 -203.5t-126.5 -68.5t-125.5 68.5t-44.5 200.5q0 134 46 202t126 68q81 0 125.5 -66.5zM121 447q-40 -62 -40 -188q0 -124 38.5 -186t109.5 -62q72 0 111 62t39 189q0 125 -38.5 186t-109.5 61q-70 0 -110 -62z
M251.5 611q-12.5 6 -27.5 18l-12 8t-16.5 9t-13.5 3q-14 0 -24.5 -8t-23.5 -27l-14 8q15 23 29.5 34.5t32.5 11.5q12 0 22 -5t27 -17q15 -11 25.5 -16.5t21.5 -5.5q14 0 25 9.5t24 31.5l14 -7q-14 -28 -29 -40.5t-34 -12.5q-14 0 -26.5 6zM317 728h-174v20h174v-20z" />
    <glyph glyph-name="uni022E" unicode="&#x22e;" horiz-adv-x="565" 
d="M444.5 603q58.5 -88 58.5 -263q0 -172 -57.5 -261t-162.5 -89q-102 0 -161 89t-59 260q0 172 59.5 262t160.5 90q103 0 161.5 -88zM139 587q-53 -83 -53 -248q0 -163 53 -245t144 -82q95 0 145.5 81.5t50.5 246.5q0 167 -51.5 248.5t-144.5 81.5q-91 0 -144 -83z
M297.5 844q5.5 -6 5.5 -14t-5.5 -13.5t-13.5 -5.5q-9 0 -14.5 5.5t-5.5 13.5t5.5 14t14.5 6q8 0 13.5 -6z" />
    <glyph glyph-name="uni022F" unicode="&#x22f;" 
d="M356.5 462.5q44.5 -66.5 44.5 -200.5q0 -135 -45.5 -203.5t-126.5 -68.5t-125.5 68.5t-44.5 200.5q0 134 46 202t126 68q81 0 125.5 -66.5zM121 447q-40 -62 -40 -188q0 -124 38.5 -186t109.5 -62q72 0 111 62t39 189q0 125 -38.5 186t-109.5 61q-70 0 -110 -62z
M243.5 718q5.5 -6 5.5 -14t-5.5 -13.5t-13.5 -5.5q-9 0 -14.5 5.5t-5.5 13.5t5.5 14t14.5 6q8 0 13.5 -6z" />
    <glyph glyph-name="uni0230" unicode="&#x230;" horiz-adv-x="565" 
d="M444.5 603q58.5 -88 58.5 -263q0 -172 -57.5 -261t-162.5 -89q-102 0 -161 89t-59 260q0 172 59.5 262t160.5 90q103 0 161.5 -88zM139 587q-53 -83 -53 -248q0 -163 53 -245t144 -82q95 0 145.5 81.5t50.5 246.5q0 167 -51.5 248.5t-144.5 81.5q-91 0 -144 -83z
M296.5 780q5.5 -6 5.5 -14t-5.5 -13.5t-13.5 -5.5q-9 0 -14.5 5.5t-5.5 13.5t5.5 14t14.5 6q8 0 13.5 -6zM370 849h-174v20h174v-20z" />
    <glyph glyph-name="uni0231" unicode="&#x231;" 
d="M356.5 462.5q44.5 -66.5 44.5 -200.5q0 -135 -45.5 -203.5t-126.5 -68.5t-125.5 68.5t-44.5 200.5q0 134 46 202t126 68q81 0 125.5 -66.5zM121 447q-40 -62 -40 -188q0 -124 38.5 -186t109.5 -62q72 0 111 62t39 189q0 125 -38.5 186t-109.5 61q-70 0 -110 -62z
M244.5 665q5.5 -6 5.5 -14t-5.5 -13.5t-13.5 -5.5q-9 0 -14.5 5.5t-5.5 13.5t5.5 14t14.5 6q8 0 13.5 -6zM317 745h-174v20h174v-20z" />
    <glyph glyph-name="uni0232" unicode="&#x232;" horiz-adv-x="408" 
d="M391 681l-174 -411v-270h-23v270l-178 411h25l165 -389l162 389h23zM291 811h-174v20h174v-20z" />
    <glyph glyph-name="uni0233" unicode="&#x233;" horiz-adv-x="374" 
d="M204 -1q-17 -62 -34 -97t-44 -58t-73 -39l-4 18q42 15 66 36t38 52t31 89h-8l-154 519h23l146 -501l138 501h23zM276 685h-174v20h174v-20z" />
    <glyph glyph-name="uni0234" unicode="&#x234;" horiz-adv-x="275" 
d="M283.5 158.5q20.5 -23.5 20.5 -59.5q0 -48 -30.5 -78.5t-77.5 -30.5q-51 0 -81 36l-34 -81l-17 9l40 91q-13 23 -13 58v630l22 3v-633q0 -17 3 -31q22 55 48 82.5t64 27.5q35 0 55.5 -23.5zM258.5 35q24.5 24 24.5 64q0 28 -14.5 45.5t-40.5 17.5q-33 0 -55 -26t-48 -87
q21 -38 71 -38q38 0 62.5 24z" />
    <glyph glyph-name="uni0235" unicode="&#x235;" horiz-adv-x="549" 
d="M557.5 158.5q20.5 -23.5 20.5 -59.5q0 -48 -30.5 -78.5t-77.5 -30.5q-51 0 -81 36l-35 -81l-17 9l40 90q-13 28 -13 59v274q0 64 -23.5 98t-70.5 34q-88 0 -152 -128v-381h-22v519h19l2 -105q30 56 67.5 85.5t87.5 29.5q56 0 85 -39.5t29 -110.5v-276q0 -20 4 -33
q21 55 47 83.5t65 28.5q35 0 55.5 -23.5zM532.5 35q24.5 24 24.5 64q0 28 -15 45.5t-41 17.5q-33 0 -54.5 -26t-48.5 -88q22 -37 72 -37q38 0 62.5 24z" />
    <glyph glyph-name="uni0236" unicode="&#x236;" horiz-adv-x="276" 
d="M284 158q21 -24 21 -59q0 -48 -31 -78.5t-77 -30.5q-53 0 -82 37l-34 -82l-17 9l40 91q-13 26 -13 58v396h-70v20h70v131l22 2v-133h117l-3 -20h-114v-396q0 -17 3 -31q23 54 49 82t64 28q34 0 55 -24zM259.5 35q24.5 24 24.5 64q0 28 -15 45.5t-41 17.5q-33 0 -54.5 -26
t-48.5 -88q22 -37 72 -37q38 0 62.5 24z" />
    <glyph glyph-name="uni0237" unicode="&#x237;" horiz-adv-x="213" 
d="M118 -25q0 -47 -10 -77t-30 -50.5t-55 -42.5l-9 16q46 29 64 60.5t18 94.5v543h22v-544z" />
    <glyph glyph-name="uni0238" unicode="&#x238;" horiz-adv-x="686" 
d="M590 464.5q37 -64.5 37 -200.5t-38 -205t-108 -69q-40 0 -72 26t-53 65l-3 -81h-16l-3 81q-21 -40 -52 -65.5t-72 -25.5q-70 0 -110.5 67.5t-40.5 200.5q0 130 41.5 200.5t115.5 70.5q70 0 118 -79v283l22 3v-291q23 37 55.5 60.5t72.5 23.5q69 0 106 -64.5zM280.5 37.5
q29.5 26.5 53.5 75.5v308q-26 42 -53.5 65t-64.5 23q-60 0 -97 -63t-37 -184q0 -127 34.5 -189t94.5 -62q40 0 69.5 26.5zM572 73q32 62 32 191q0 245 -120 245q-40 0 -70.5 -23.5t-57.5 -66.5v-304q50 -104 124 -104q60 0 92 62z" />
    <glyph glyph-name="uni0239" unicode="&#x239;" horiz-adv-x="686" 
d="M627 264q0 -136 -38 -205t-109 -69q-39 0 -70.5 24.5t-53.5 64.5v-271l-22 -4v274q-48 -88 -126 -88q-68 0 -108.5 67.5t-40.5 200.5q0 129 42 200t114 71q43 0 70.5 -23.5t49.5 -64.5l2 78h16l3 -79q26 43 57.5 66t74.5 23q139 0 139 -265zM279.5 36.5
q29.5 25.5 54.5 76.5v299q-48 97 -118 97q-60 0 -97 -63t-37 -184q0 -126 34 -188.5t92 -62.5q42 0 71.5 25.5zM572 73q32 62 32 191q0 245 -117 245q-42 0 -72 -24t-59 -72v-299q51 -103 124 -103q60 0 92 62z" />
    <glyph glyph-name="uni023A" unicode="&#x23a;" horiz-adv-x="470" 
d="M420 0l-57 203h-141l-58 -269l-17 3l57 266h-98l-57 -203h-21l193 681h28l33 -116l37 172l17 -4l-44 -204l151 -529h-23zM112 224h97l64 301l-38 138zM226 224h131l-73 265z" />
    <glyph glyph-name="uni023B" unicode="&#x23b;" horiz-adv-x="443" 
d="M422 53q-59 -63 -141 -63q-45 0 -82 19l-16 -75l-17 3l17 81q-57 36 -88.5 117t-31.5 205q0 119 28.5 197.5t77.5 116t113 37.5q22 0 45 -5l11 51l17 -4l-11 -52q37 -13 72 -48l-13 -15q-35 32 -64 43l-135 -630q34 -19 77 -19q42 0 70 14.5t57 41.5zM113 151
q27 -75 75 -110l135 625q-16 4 -39 4q-89 0 -143.5 -80.5t-54.5 -249.5q0 -114 27 -189z" />
    <glyph glyph-name="uni023C" unicode="&#x23c;" horiz-adv-x="375" 
d="M348 44q-51 -54 -115 -54q-36 0 -65 13l-15 -69l-15 3l16 73q-45 27 -70 89t-25 158q0 134 46.5 203t127.5 69q22 0 37 -4l14 61l15 -2l-14 -63q30 -11 59 -42l-13 -14q-22 24 -51 36l-107 -477q26 -13 59 -13q58 0 104 46zM102 114q20 -56 57 -82l107 473q-13 4 -33 4
q-70 0 -110.5 -62t-40.5 -190q0 -87 20 -143z" />
    <glyph glyph-name="uni023D" unicode="&#x23d;" horiz-adv-x="392" 
d="M139 22h236l-3 -22h-255v352h-90v21h90v308h22v-308h90v-21h-90v-330z" />
    <glyph glyph-name="uni023E" unicode="&#x23e;" horiz-adv-x="392" 
d="M379 659h-96l-76 -313v-346h-22v255l-78 -321l-17 3l95 390v332h-172v22h258l14 56l16 -4l-13 -52h93zM207 417l59 242h-59v-242z" />
    <glyph glyph-name="uni023F" unicode="&#x23f;" horiz-adv-x="378" 
d="M316 -158l12 -13q-26 -26 -61 -26q-31 0 -48.5 18t-43.5 63q-25 47 -54.5 88t-78.5 84l11 13q35 -30 64 -44.5t70 -14.5q52 0 85.5 33t33.5 91q0 35 -11.5 57.5t-37 40t-73.5 36.5q-69 27 -98 56.5t-29 76.5q0 55 38 91.5t93 36.5q38 0 68.5 -13.5t59.5 -41.5l-12 -15
q-28 26 -54 38t-61 12q-47 0 -78.5 -29.5t-31.5 -78.5q0 -41 25.5 -66.5t90.5 -50.5q74 -30 103.5 -61.5t29.5 -88.5q0 -64 -40 -104t-101 -40q-37 0 -72 16q25 -24 41.5 -49t34.5 -60q21 -39 36.5 -56.5t39.5 -17.5q28 0 49 19z" />
    <glyph glyph-name="uni0240" unicode="&#x240;" horiz-adv-x="338" 
d="M232.5 -178q-20.5 19 -47.5 59q-23 34 -41 55.5t-47.5 39.5t-71.5 24v18l259 481h-237v20h261v-18l-259 -485q55 -10 87 -40.5t64 -80.5q24 -37 41.5 -54.5t43.5 -17.5q28 0 49 19l11 -13q-26 -26 -60 -26q-32 0 -52.5 19z" />
    <glyph glyph-name="uni0241" unicode="&#x241;" horiz-adv-x="366" 
d="M130 289l58 18q60 19 92 60.5t32 125.5q0 79 -36.5 128t-102.5 49q-43 0 -77 -19.5t-68 -56.5l-15 14q36 42 74 62.5t87 20.5q75 0 118.5 -55.5t43.5 -142.5q0 -95 -37.5 -139.5t-105.5 -65.5l-40 -13v-275h-23v289z" />
    <glyph glyph-name="uni0242" unicode="&#x242;" horiz-adv-x="340" 
d="M109 171l56 17q51 16 80.5 54.5t29.5 110.5q0 73 -34 114.5t-93 41.5q-40 0 -69.5 -17t-56.5 -47l-14 14q29 34 62 52t78 18q69 0 109.5 -48t40.5 -128q0 -146 -128 -184l-39 -12v-157h-22v171z" />
    <glyph glyph-name="uni0243" unicode="&#x243;" horiz-adv-x="480" 
d="M389 311.5q41 -43.5 41 -127.5q0 -91 -52 -137.5t-146 -46.5h-135v183h-76v21h76v477h107q96 0 147 -43.5t51 -124.5q0 -63 -32 -102t-92 -50q70 -6 111 -49.5zM119 660v-290h116q68 0 105.5 39.5t37.5 102.5q0 72 -43 110t-127 38h-89zM361.5 61q45.5 40 45.5 123
q0 82 -43.5 124t-124.5 42h-120v-146h156v-21h-156v-162h114q83 0 128.5 40z" />
    <glyph glyph-name="uni0244" unicode="&#x244;" horiz-adv-x="547" 
d="M495 520h-50v-348q0 -80 -43 -131t-128 -51q-87 0 -129.5 51t-42.5 131v348h-50v18h50v143h22v-143h299v143h22v-143h50v-18zM423 520h-299v-346q0 -73 37 -117.5t113 -44.5t112.5 45t36.5 117v346z" />
    <glyph glyph-name="uni0245" unicode="&#x245;" horiz-adv-x="470" 
d="M249 681l194 -681h-23l-185 663l-185 -663h-22l193 681h28z" />
    <glyph glyph-name="uni0246" unicode="&#x246;" horiz-adv-x="407" 
d="M371 21v-21h-199l-14 -66l-16 3l14 63h-56v681h202l12 56l15 -3l-11 -53h47l-3 -21h-49l-62 -290h79v-21h-83l-70 -328h194zM122 660v-290h113l62 290h-175zM122 21h38l71 328h-109v-328z" />
    <glyph glyph-name="uni0247" unicode="&#x247;" horiz-adv-x="433" 
d="M222 246l-50 -222q26 -13 58 -13q36 0 63 13.5t57 41.5l12 -15q-30 -30 -61 -45.5t-70 -15.5q-36 0 -63 13l-16 -69l-15 3l17 74q-45 27 -70 89t-25 155q0 131 44.5 202.5t121.5 71.5q23 0 44 -6l14 63l15 -2l-15 -67q48 -22 72.5 -82t24.5 -151q0 -16 -2 -38h-156z
M121.5 448.5q-39.5 -60.5 -40.5 -183.5h130l53 238q-18 6 -39 6q-64 0 -103.5 -60.5zM338 424.5q-20 52.5 -60 72.5l-52 -232h131q1 8 1 27q0 80 -20 132.5zM207 246h-126q4 -162 77 -214z" />
    <glyph glyph-name="uni0248" unicode="&#x248;" horiz-adv-x="249" 
d="M224 332h-90v-245q0 -52 -9 -84t-32.5 -55.5t-68.5 -47.5l-6 16q39 23 58.5 44.5t27.5 50.5t8 78v243h-90v21h90v328h22v-328h90v-21z" />
    <glyph glyph-name="uni0249" unicode="&#x249;" horiz-adv-x="230" 
d="M218 233h-89v-258q0 -47 -10 -77t-30 -50.5t-55 -42.5l-9 16q46 29 64 60.5t18 94.5v257h-91v21h91v265h22v-265h89v-21zM130.5 718q5.5 -6 5.5 -14t-5.5 -13.5t-13.5 -5.5q-9 0 -14.5 5.5t-5.5 13.5t5.5 14t14.5 6q8 0 13.5 -6z" />
    <glyph glyph-name="uni024A" unicode="&#x24a;" horiz-adv-x="537" 
d="M568 -167q-34 -30 -76 -30q-36 0 -58.5 24t-22.5 71v171q-54 -79 -139 -79q-94 0 -151.5 85t-57.5 254q0 180 58 271t154 91q84 0 137 -68l2 58h20v-783q0 -74 59 -74q36 0 63 25zM411 100v494q-51 76 -136 76t-137 -84.5t-52 -256.5q0 -160 51 -238.5t135 -78.5
q86 0 139 88z" />
    <glyph glyph-name="uni024B" unicode="&#x24b;" horiz-adv-x="468" 
d="M452 -187q-18 -10 -39 -10q-29 0 -45.5 18.5t-16.5 51.5v212q-47 -95 -130 -95q-75 0 -118.5 70t-43.5 198q0 126 44 198.5t122 72.5q82 0 126 -81l3 71h19v-645q0 -51 41 -51q14 0 32 7zM295.5 38.5q31.5 27.5 55.5 78.5v299q-46 93 -126 93q-65 0 -104 -64.5
t-39 -182.5q0 -122 36.5 -186.5t101.5 -64.5q44 0 75.5 27.5z" />
    <glyph glyph-name="uni024C" unicode="&#x24c;" horiz-adv-x="468" 
d="M408 0l-155 326q-24 -2 -36 -2h-98v-324h-22v324h-76v21h76v336h107q107 0 155 -45.5t48 -131.5q0 -71 -34.5 -115.5t-97.5 -58.5l158 -330h-25zM383 504q0 78 -41 117t-140 39h-83v-315h94q170 0 170 159z" />
    <glyph glyph-name="uni024D" unicode="&#x24d;" horiz-adv-x="303" 
d="M288 523l-4 -18q-18 5 -36 5q-47 0 -76.5 -38.5t-49.5 -120.5v-60h92v-19h-92v-272h-22v272h-88v19h88v228h19l1 -119q19 67 49.5 98t78.5 31q20 0 40 -6z" />
    <glyph glyph-name="uni024E" unicode="&#x24e;" horiz-adv-x="409" 
d="M392 584v-17h-49l-126 -297v-270h-23v270l-129 297h-49v17h42l-42 97h25l41 -97h246l40 97h23l-41 -97h42zM206 292l115 275h-232z" />
    <glyph glyph-name="uni024F" unicode="&#x24f;" horiz-adv-x="353" 
d="M342 364h-45l-104 -365q-17 -62 -34 -97t-44 -58t-73 -39l-4 18q42 15 66 36t38 52t31 89h-8l-108 364h-45v18h40l-41 137h23l40 -137h206l38 137h23l-39 -137h40v-18zM180 18l95 346h-196z" />
    <glyph glyph-name="uni0250" unicode="&#x250;" horiz-adv-x="434" 
d="M342 41l8 -17q-66 -34 -130 -34q-125 0 -125 150v283q0 41 -8.5 61t-29.5 29l5 16q27 -10 39.5 -32t13.5 -64q24 48 56.5 72t78.5 24q61 0 96 -42.5t35 -111.5q0 -79 -47 -121.5t-131 -42.5h-86v-69q0 -65 24.5 -98.5t79.5 -33.5q56 0 121 31zM117 399v-168h84
q77 0 116.5 36.5t39.5 107.5q0 63 -28.5 98t-78.5 35q-90 0 -133 -109z" />
    <glyph glyph-name="uni0251" unicode="&#x251;" horiz-adv-x="470" 
d="M382 42.5q9 -17.5 31 -28.5l-6 -19q-29 13 -41.5 33t-14.5 54q-21 -42 -52.5 -67t-78.5 -25q-76 0 -118.5 66.5t-42.5 201.5q0 130 44.5 200.5t122.5 70.5q79 0 126 -80l2 70h19v-426q0 -33 9 -50.5zM296.5 37.5q30.5 26.5 54.5 80.5v303q-46 88 -124 88
q-66 0 -105.5 -63t-39.5 -184q0 -128 36 -189.5t102 -61.5q46 0 76.5 26.5z" />
    <glyph glyph-name="uni0252" unicode="&#x252;" horiz-adv-x="470" 
d="M368.5 462.5q42.5 -66.5 42.5 -201.5q0 -130 -44.5 -200.5t-122.5 -70.5q-79 0 -126 80l-2 -70h-19v426q0 33 -9 50.5t-31 28.5l6 19q29 -13 41.5 -33t14.5 -54q21 42 52.5 67t78.5 25q76 0 118.5 -66.5zM348.5 73q39.5 63 39.5 184q0 128 -36 189.5t-102 61.5
q-46 0 -76.5 -26.5t-54.5 -80.5v-303q46 -88 124 -88q66 0 105.5 63z" />
    <glyph glyph-name="uni0253" unicode="&#x253;" horiz-adv-x="464" 
d="M367 463q39 -66 39 -199q0 -134 -40.5 -204t-117.5 -70q-78 0 -131 88l-2 -78h-19v518h-1v102q0 56 28 86.5t76 30.5q47 0 95 -31l-9 -17q-46 27 -85 27t-61 -24t-22 -73v-89h1v-91q55 90 137 90q73 0 112 -66zM348 74q34 63 34 190q0 245 -129 245q-44 0 -75 -25
t-60 -74v-303q54 -96 129 -96q67 0 101 63z" />
    <glyph glyph-name="uni0254" unicode="&#x254;" horiz-adv-x="374" 
d="M27 49l13 13q25 -25 50 -38t58 -13q68 0 106 61.5t38 189.5q0 247 -137 247q-35 0 -61 -11.5t-51 -34.5l-13 13q27 27 57 40t68 13q76 0 118 -65.5t42 -201.5q0 -137 -44.5 -204.5t-122.5 -67.5q-67 0 -121 59z" />
    <glyph glyph-name="uni0255" unicode="&#x255;" horiz-adv-x="390" 
d="M339.5 175.5q22.5 -26.5 22.5 -68.5q0 -53 -33.5 -85t-91.5 -32q-26 0 -46.5 6.5t-40.5 20.5l-26 -72l-18 7l28 76q-36 34 -55.5 92t-19.5 137q0 134 46.5 203t127.5 69q34 0 60 -12t51 -38l-13 -14q-42 44 -98 44q-70 0 -110.5 -62t-40.5 -190q0 -73 16 -125.5t45 -82.5
q27 80 59.5 116.5t75.5 36.5q39 0 61.5 -26.5zM311.5 35q29.5 24 29.5 72q0 35 -16 55t-47 20q-37 0 -64.5 -33.5t-55.5 -111.5q35 -26 79 -26q45 0 74.5 24z" />
    <glyph glyph-name="uni0256" unicode="&#x256;" horiz-adv-x="468" 
d="M508 -167q-32 -30 -76 -30q-36 0 -58.5 24t-22.5 71v189q-46 -97 -133 -97q-74 0 -116.5 69.5t-42.5 198.5q0 126 44.5 198.5t122.5 72.5t125 -82v289l22 -3v-836q0 -39 16.5 -56.5t43.5 -17.5q36 0 63 25zM295.5 39.5q31.5 28.5 55.5 84.5v292q-46 93 -125 93
q-66 0 -105 -64.5t-39 -182.5q0 -123 36 -187t100 -64q46 0 77.5 28.5z" />
    <glyph glyph-name="uni0257" unicode="&#x257;" horiz-adv-x="468" 
d="M508 706l-12 -14q-15 12 -29 18.5t-33 6.5q-28 0 -44.5 -19.5t-16.5 -62.5v-635h-20l-2 88q-22 -45 -54 -71.5t-79 -26.5q-74 0 -116.5 70t-42.5 198q0 124 44.5 197.5t121.5 73.5q79 0 126 -83v190q0 49 22.5 75t60.5 26q41 0 74 -31zM295.5 39.5q31.5 28.5 55.5 84.5
v292q-21 41 -52 67t-74 26q-65 0 -104 -65t-39 -182q0 -122 36 -186.5t100 -64.5q46 0 77.5 28.5z" />
    <glyph glyph-name="uni0258" unicode="&#x258;" horiz-adv-x="433" 
d="M333 461.5q42 -67.5 42 -206.5q0 -128 -47 -196.5t-126 -68.5q-40 0 -71 15.5t-60 45.5l14 14q27 -28 53.5 -41t64.5 -13q66 0 106 58t43 177h-297q-1 11 -1 38q0 116 41 180.5t118 64.5q78 0 120 -67.5zM76 265h276q-3 244 -139 244q-67 0 -102 -57.5t-35 -159.5v-27z
" />
    <glyph glyph-name="uni0259" unicode="&#x259;" horiz-adv-x="436" 
d="M378 264q0 -146 -43 -210t-121 -64q-76 0 -118 64t-42 189q0 21 1 30h300q-1 236 -138 236q-35 0 -64 -13t-60 -39l-12 15q64 57 136 57q161 0 161 -265zM318 66.5q36 55.5 37 186.5h-278q-1 -3 -1 -10q0 -232 138 -232q68 0 104 55.5z" />
    <glyph glyph-name="uni025A" unicode="&#x25a;" horiz-adv-x="547" 
d="M579 364q-32 -30 -74 -30q-38 0 -60.5 25t-22.5 73v66l-79 -44q35 -65 35 -190q0 -146 -43 -210t-121 -64q-76 0 -118 64t-42 189q0 21 1 30h300q-1 236 -138 236q-35 0 -64 -13t-60 -39l-12 15q64 57 136 57q75 0 116 -58l89 48h22v-86q0 -41 16.5 -60.5t44.5 -19.5
q20 0 34 6.5t28 18.5zM318 66.5q36 55.5 37 186.5h-278q-1 -3 -1 -10q0 -232 138 -232q68 0 104 55.5z" />
    <glyph glyph-name="uni025B" unicode="&#x25b;" horiz-adv-x="370" 
d="M335 484l-11 -16q-26 20 -52 30.5t-59 10.5q-54 0 -84.5 -31t-30.5 -83q0 -49 30.5 -80.5t83.5 -31.5h48l-3 -20h-47q-64 0 -96.5 -32t-32.5 -94q0 -60 34 -93t91 -33q42 0 70.5 13.5t54.5 40.5l13 -13q-27 -30 -60 -46t-78 -16q-66 0 -106.5 39t-40.5 108q0 63 30 97.5
t82 39.5q-46 10 -70.5 41.5t-24.5 79.5q0 62 37.5 98t97.5 36q70 0 124 -45z" />
    <glyph glyph-name="uni025C" unicode="&#x25c;" horiz-adv-x="384" 
d="M269.5 493q35.5 -36 35.5 -96q0 -52 -25.5 -82.5t-71.5 -38.5q118 -12 118 -130q0 -73 -40.5 -114.5t-107.5 -41.5q-49 0 -85.5 19t-66.5 51l14 12q31 -30 62 -45.5t76 -15.5q57 0 91 34t34 101q0 62 -34.5 90.5t-103.5 28.5h-45l3 19h40q59 0 89 30t30 83q0 50 -28.5 81
t-78.5 31q-38 0 -65 -11t-60 -36l-11 15q31 26 63.5 39t72.5 13q59 0 94.5 -36z" />
    <glyph glyph-name="uni025D" unicode="&#x25d;" horiz-adv-x="500" 
d="M533 364q-32 -30 -74 -30q-38 0 -60.5 25t-22.5 73v66l-81 -45q10 -23 10 -56q0 -52 -25.5 -82.5t-71.5 -38.5q118 -12 118 -130q0 -73 -40.5 -114.5t-107.5 -41.5q-49 0 -85.5 19t-66.5 51l14 12q31 -30 62 -45.5t76 -15.5q57 0 91 34t34 101q0 62 -34.5 90.5
t-103.5 28.5h-45l3 19h40q59 0 89 30t30 83q0 50 -28.5 81t-78.5 31q-38 0 -65 -11t-60 -36l-11 15q31 26 63.5 39t72.5 13q38 0 66.5 -15.5t45.5 -43.5l89 49h22v-86q0 -41 16.5 -60.5t44.5 -19.5q20 0 34 6.5t28 18.5z" />
    <glyph glyph-name="uni025E" unicode="&#x25e;" horiz-adv-x="449" 
d="M104.5 58q-45.5 68 -45.5 201q0 134 46.5 202t129.5 68q62 0 98 -37t36 -98q0 -103 -97 -118q58 -6 88 -36t30 -94q0 -74 -40.5 -115t-112.5 -41q-87 0 -132.5 68zM333 45q34 34 34 101q0 62 -34 90.5t-103 28.5h-29l1 19h23q62 0 92 29t30 81t-29 83.5t-83 31.5
q-73 0 -113.5 -61.5t-40.5 -188.5q0 -124 39.5 -186t116.5 -62q62 0 96 34z" />
    <glyph glyph-name="uni025F" unicode="&#x25f;" horiz-adv-x="230" 
d="M218 233h-89v-258q0 -47 -10 -77t-30 -50.5t-55 -42.5l-9 16q46 29 64 60.5t18 94.5v257h-91v21h91v265h22v-265h89v-21z" />
    <glyph glyph-name="uni0260" unicode="&#x260;" horiz-adv-x="468" 
d="M508 706l-12 -14q-15 12 -29 18.5t-33 6.5q-28 0 -44.5 -19.5t-16.5 -62.5v-662q0 -170 -149 -170q-37 0 -63 9t-50 24l10 15q22 -13 46 -20.5t56 -7.5q70 0 99 39t29 112v134q-44 -98 -132 -98q-75 0 -117.5 66.5t-42.5 191.5q0 121 44 191t123 70q43 0 74.5 -22.5
t50.5 -55.5v185q0 49 22.5 75t60.5 26q41 0 74 -31zM296 59.5q31 28.5 55 84.5v272q-46 93 -125 93q-66 0 -105 -62.5t-39 -174.5q0 -118 36 -179.5t101 -61.5q46 0 77 28.5z" />
    <glyph glyph-name="uni0261" unicode="&#x261;" horiz-adv-x="468" 
d="M373 519v-546q0 -170 -149 -170q-37 0 -63 9t-50 24l10 15q22 -13 46 -20.5t56 -7.5q70 0 99 39t29 112v134q-44 -98 -132 -98q-75 0 -117.5 66.5t-42.5 191.5q0 121 44 191t123 70q44 0 75.5 -23t50.5 -57l2 70h19zM296 59.5q31 28.5 55 84.5v272q-46 93 -125 93
q-66 0 -105 -62.5t-39 -174.5q0 -118 36 -179.5t101 -61.5q46 0 77 28.5z" />
    <glyph glyph-name="uni0262" unicode="&#x262;" horiz-adv-x="450" 
d="M306.5 519q28.5 -12 56.5 -37l-14 -16q-25 23 -50.5 34t-56.5 11q-69 0 -115 -58.5t-46 -188.5q0 -135 42.5 -193t120.5 -58q57 0 108 32v207h-101l-3 20h125v-239q-27 -20 -60.5 -30.5t-68.5 -10.5q-185 0 -185 272q0 136 52 201.5t131 65.5q36 0 64.5 -12z" />
    <glyph glyph-name="uni0263" unicode="&#x263;" horiz-adv-x="375" 
d="M200 44q23 -53 35 -94t12 -76q0 -32 -15 -51.5t-44 -19.5q-28 0 -44 19t-16 52q0 34 11.5 73t35.5 97l-153 475h24l142 -456l142 456h23zM217 -60q-9 33 -29 87q-21 -55 -30 -87.5t-9 -64.5q0 -52 39 -52q38 0 38 52q0 32 -9 65z" />
    <glyph glyph-name="uni0264" unicode="&#x264;" horiz-adv-x="422" 
d="M416 504l-10 -14q-11 10 -20.5 14.5t-21.5 4.5q-15 0 -26 -11.5t-22 -40.5l-92 -248q24 -48 36.5 -83.5t12.5 -65.5q0 -31 -15.5 -50.5t-44.5 -19.5t-45 19.5t-16 50.5q0 54 47 148l-1 1l-93 248q-10 29 -21 40.5t-27 11.5q-12 0 -21 -4.5t-20 -14.5l-10 14q23 25 52 25
q24 0 39.5 -15t27.5 -50l86 -239l86 239q12 34 27.5 49.5t39.5 15.5q29 0 52 -25zM243 113.5q-9 26.5 -32 77.5q-21 -49 -29.5 -76t-8.5 -54q0 -51 40 -51q39 0 39 51q0 26 -9 52.5z" />
    <glyph glyph-name="uni0265" unicode="&#x265;" horiz-adv-x="477" 
d="M382 519v-715l-22 4v298q-30 -56 -67.5 -86t-87.5 -30q-56 0 -85 40t-29 110v379h22v-376q0 -65 23.5 -99t70.5 -34q89 0 153 128v381h22z" />
    <glyph glyph-name="uni0266" unicode="&#x266;" horiz-adv-x="477" 
d="M357.5 488q28.5 -41 28.5 -119v-369h-22v367q0 142 -94 142q-47 0 -84 -33t-68 -95v-381h-22v518h-1v102q0 56 28 86.5t76 30.5q47 0 95 -31l-9 -17q-46 27 -85 27t-61 -24t-22 -73v-100h1v-105q30 55 67.5 85t86.5 30q57 0 85.5 -41z" />
    <glyph glyph-name="uni0267" unicode="&#x267;" horiz-adv-x="477" 
d="M357.5 488q28.5 -41 28.5 -119v-471q0 -47 -22.5 -71t-58.5 -24q-44 0 -76 30l12 15q27 -25 63 -25q27 0 43.5 17.5t16.5 56.5v470q0 142 -94 142q-47 0 -84 -33t-68 -95v-381h-22v518h-1v102q0 56 28 86.5t76 30.5q47 0 95 -31l-9 -17q-46 27 -85 27t-61 -24t-22 -73
v-100h1v-105q30 55 67.5 85t86.5 30q57 0 85.5 -41z" />
    <glyph glyph-name="uni0268" unicode="&#x268;" horiz-adv-x="225" 
d="M96.5 690.5q-5.5 5.5 -5.5 13.5t5.5 14t14.5 6q8 0 13.5 -6t5.5 -14t-5.5 -13.5t-13.5 -5.5q-9 0 -14.5 5.5zM214 294v-21h-92v-273h-22v273h-88v21h88v225h22v-225h92z" />
    <glyph glyph-name="uni0269" unicode="&#x269;" horiz-adv-x="227" 
d="M107.5 8.5q-16.5 18.5 -16.5 52.5v458h22v-458q0 -51 41 -51q14 0 31 7l7 -17q-22 -10 -40 -10q-28 0 -44.5 18.5z" />
    <glyph glyph-name="uni026A" unicode="&#x26a;" horiz-adv-x="256" 
d="M229 499h-90v-478h90v-21h-202v21h90v478h-90v20h202v-20z" />
    <glyph glyph-name="uni026B" unicode="&#x26b;" horiz-adv-x="232" 
d="M150.5 329.5q-12.5 5.5 -29.5 15.5v-284q0 -51 41 -51q14 0 31 7l7 -17q-22 -10 -40 -10q-28 0 -44.5 18.5t-16.5 52.5v298q-30 19 -47 19q-18 0 -30 -10t-26 -32l-16 9q15 26 32 39.5t40 13.5q20 0 47 -16v351l22 3v-368q18 -12 30.5 -17.5t25.5 -5.5q16 0 27.5 10
t24.5 31l16 -8q-15 -27 -30.5 -40.5t-38.5 -13.5q-13 0 -25.5 5.5z" />
    <glyph glyph-name="uni026C" unicode="&#x26c;" horiz-adv-x="248" 
d="M214 0q-22 -10 -40 -10q-28 0 -44.5 18.5t-16.5 52.5v219q-48 0 -72.5 21t-24.5 63q0 37 20.5 58t53.5 21q9 0 23 -2v292l22 3v-436q38 1 68 8l3 -18q-30 -7 -71 -9v-220q0 -51 41 -51q14 0 31 7zM113 300v122q-14 2 -22 2q-25 0 -40 -15t-15 -44q0 -65 77 -65z" />
    <glyph glyph-name="uni026D" unicode="&#x26d;" horiz-adv-x="213" 
d="M253 -167q-32 -30 -76 -30q-36 0 -58.5 24t-22.5 71v835l22 3v-839q0 -39 16.5 -56.5t43.5 -17.5q36 0 63 25z" />
    <glyph glyph-name="uni026E" unicode="&#x26e;" horiz-adv-x="494" 
d="M464 2q0 -90 -44.5 -144.5t-122.5 -54.5q-46 0 -80 18t-64 54l14 13q29 -33 59.5 -48.5t70.5 -15.5q69 0 106.5 48t37.5 130q0 89 -40 130t-124 41h-43v21l184 305h-305v-438q0 -51 41 -51q14 0 31 7l7 -17q-22 -10 -40 -10q-28 0 -44.5 18.5t-16.5 52.5v672l22 3v-217
h329v-18l-186 -307h20q188 0 188 -192z" />
    <glyph glyph-name="uni026F" unicode="&#x26f;" horiz-adv-x="696" 
d="M600 519v-519h-19l-2 102q-55 -112 -136 -112q-44 0 -71.5 30.5t-34.5 85.5q-55 -116 -138 -116q-52 0 -80 40.5t-28 109.5v379h22v-377q0 -62 22.5 -97t64.5 -35q77 0 135 125v384h22v-378q0 -62 22.5 -96.5t63.5 -34.5q77 0 135 125v384h22z" />
    <glyph glyph-name="uni0270" unicode="&#x270;" horiz-adv-x="696" 
d="M600 519v-715l-22 4v293q-55 -111 -135 -111q-44 0 -71.5 30.5t-34.5 85.5q-55 -116 -138 -116q-52 0 -80 40.5t-28 109.5v379h22v-377q0 -62 22.5 -97t64.5 -35q77 0 135 125v384h22v-378q0 -62 22.5 -96.5t63.5 -34.5q77 0 135 125v384h22z" />
    <glyph glyph-name="uni0271" unicode="&#x271;" horiz-adv-x="696" 
d="M577 488.5q28 -40.5 28 -109.5v-481q0 -47 -22.5 -71t-59.5 -24q-43 0 -75 30l12 15q29 -25 63 -25q27 0 43.5 17.5t16.5 56.5v480q0 62 -22.5 97t-64.5 35q-77 0 -135 -125v-384h-22v378q0 62 -22.5 96.5t-63.5 34.5q-77 0 -135 -125v-384h-22v519h19l2 -102
q55 112 136 112q44 0 71.5 -30.5t34.5 -85.5q55 116 138 116q52 0 80 -40.5z" />
    <glyph glyph-name="uni0272" unicode="&#x272;" horiz-adv-x="477" 
d="M357 489.5q29 -39.5 29 -110.5v-379h-22v377q0 64 -23.5 98t-70.5 34q-88 0 -152 -128v-483q0 -47 -22.5 -71t-58.5 -24q-44 0 -76 30l12 15q27 -25 63 -25q27 0 43.5 17.5t16.5 56.5v622h19l2 -105q30 56 67.5 85.5t87.5 29.5q56 0 85 -39.5z" />
    <glyph glyph-name="uni0273" unicode="&#x273;" horiz-adv-x="477" 
d="M521 -167q-32 -30 -76 -30q-36 0 -58.5 24t-22.5 71v479q0 64 -23.5 98t-70.5 34q-88 0 -152 -128v-381h-22v519h19l2 -105q30 56 67.5 85.5t87.5 29.5q56 0 85 -39.5t29 -110.5v-482q0 -39 16.5 -56.5t43.5 -17.5q36 0 63 25z" />
    <glyph glyph-name="uni0274" unicode="&#x274;" horiz-adv-x="479" 
d="M383 0h-29l-239 496q2 -68 2 -160v-336h-21v519h28l241 -497q-2 35 -2 157v340h20v-519z" />
    <glyph glyph-name="uni0275" unicode="&#x275;" 
d="M356.5 462.5q44.5 -66.5 44.5 -200.5q0 -135 -45.5 -203.5t-126.5 -68.5t-125.5 68.5t-44.5 200.5q0 134 46 202t126 68q81 0 125.5 -66.5zM122.5 450.5q-39.5 -58.5 -41.5 -177.5h298q-1 119 -40 177.5t-108 58.5t-108.5 -58.5zM338.5 70.5q39.5 59.5 40.5 182.5h-298
q1 -121 39.5 -181.5t108.5 -60.5t109.5 59.5z" />
    <glyph glyph-name="uni0276" unicode="&#x276;" horiz-adv-x="588" 
d="M549 0h-269q-25 -10 -52 -10q-81 0 -125 67.5t-44 201.5q0 136 45.5 203t125.5 67q27 0 54 -10h260l-3 -20h-221q36 -24 58.5 -78.5t24.5 -135.5h109v-20h-109q-1 -185 -87 -244h233v-21zM119.5 72q38.5 -61 108.5 -61q72 0 112 65t40 193q0 117 -41 178.5t-109 61.5
q-70 0 -109.5 -61t-39.5 -189q0 -126 38.5 -187z" />
    <glyph glyph-name="uni0277" unicode="&#x277;" horiz-adv-x="605" 
d="M486.5 454q60.5 -75 60.5 -219q0 -136 -37 -190.5t-100 -54.5q-48 0 -75 29.5t-32 85.5q-7 -57 -35.5 -86t-75.5 -29q-64 0 -98.5 58.5t-34.5 187.5q0 143 61 218t183 75q123 0 183.5 -75zM493.5 60q30.5 49 30.5 173q0 139 -54.5 207.5t-166.5 68.5q-222 0 -222 -274
q0 -122 29.5 -173t82.5 -51q99 0 99 153v148l22 4v-153q0 -81 25 -116.5t71 -35.5q53 0 83.5 49z" />
    <glyph glyph-name="uni0278" unicode="&#x278;" horiz-adv-x="508" 
d="M412 73.5q-49 -62.5 -147 -66.5v-199l-22 -4v203q-196 6 -196 253q0 123 49.5 186t146.5 66v221l22 3v-224q96 -3 146 -65.5t50 -185.5q0 -125 -49 -187.5zM394.5 86q43.5 56 43.5 175q0 226 -173 232v-466q86 3 129.5 59zM243 27v466q-86 -4 -129.5 -60.5t-43.5 -172.5
q0 -228 173 -233z" />
    <glyph glyph-name="uni0279" unicode="&#x279;" horiz-adv-x="299" 
d="M203 519v-519h-19l-1 119q-19 -67 -49.5 -98t-78.5 -31q-20 0 -40 6l4 18q18 -5 36 -5q47 0 76.5 38.5t49.5 120.5v351h22z" />
    <glyph glyph-name="uni027A" unicode="&#x27a;" horiz-adv-x="299" 
d="M203 733v-733h-19l-1 119q-19 -67 -49.5 -98t-78.5 -31q-20 0 -40 6l4 18q18 -5 36 -5q47 0 76.5 38.5t49.5 120.5v568z" />
    <glyph glyph-name="uni027B" unicode="&#x27b;" horiz-adv-x="299" 
d="M338 -167q-32 -30 -76 -30q-36 0 -58.5 24t-22.5 71v216q-19 -64 -49.5 -94t-77.5 -30q-20 0 -40 6l5 18q17 -5 36 -5q47 0 76.5 38.5t49.5 121.5v350h22v-622q0 -39 16.5 -56.5t43.5 -17.5q36 0 63 25z" />
    <glyph glyph-name="uni027C" unicode="&#x27c;" horiz-adv-x="299" 
d="M284 523l-4 -18q-18 5 -36 5q-47 0 -76.5 -38.5t-49.5 -120.5v-543l-22 -4v715h19l1 -119q19 67 49.5 98t78.5 31q20 0 40 -6z" />
    <glyph glyph-name="uni027D" unicode="&#x27d;" horiz-adv-x="299" 
d="M134.5 -159.5q16.5 -17.5 43.5 -17.5q36 0 63 25l12 -15q-32 -30 -76 -30q-36 0 -58.5 24t-22.5 71v621h19l1 -119q19 67 49.5 98t78.5 31q20 0 40 -6l-4 -18q-18 5 -36 5q-47 0 -76.5 -38.5t-49.5 -120.5v-454q0 -39 16.5 -56.5z" />
    <glyph glyph-name="uni027E" unicode="&#x27e;" horiz-adv-x="265" 
d="M248 499l-12 -15q-27 25 -63 25q-27 0 -43.5 -17.5t-16.5 -56.5v-435h-22v434q0 47 22.5 71t58.5 24q44 0 76 -30z" />
    <glyph glyph-name="uni027F" unicode="&#x27f;" horiz-adv-x="265" 
d="M151.5 505q22.5 -24 22.5 -71v-434h-22v435q0 39 -16.5 56.5t-43.5 17.5q-36 0 -63 -25l-12 15q32 30 76 30q36 0 58.5 -24z" />
    <glyph glyph-name="uni0280" unicode="&#x280;" horiz-adv-x="431" 
d="M349 0l-124 235q-5 -1 -16 -1h-91v-234h-22v519h92q167 0 167 -143q0 -57 -29 -92.5t-79 -45.5l126 -238h-24zM299.5 285q33.5 31 33.5 91t-33.5 91.5t-109.5 31.5h-72v-245h89q59 0 92.5 31z" />
    <glyph glyph-name="uni0281" unicode="&#x281;" horiz-adv-x="431" 
d="M326.5 238q28.5 -34 28.5 -91q0 -147 -167 -147h-92v519h22v-234h91q11 0 16 -1l124 235h24l-126 -238q51 -9 79.5 -43zM299.5 52.5q33.5 31.5 33.5 94.5q0 59 -33 88.5t-93 29.5h-89v-244h72q76 0 109.5 31.5z" />
    <glyph glyph-name="uni0282" unicode="&#x282;" horiz-adv-x="378" 
d="M119 2q-29 12 -55 36v-144q0 -35 17 -53t45 -18q19 0 33 5.5t28 16.5l12 -14q-34 -28 -73 -28q-38 0 -61 24.5t-23 66.5v162l14 11q32 -29 60.5 -43t70.5 -14q52 0 85.5 33t33.5 91q0 35 -11.5 57.5t-37 40t-73.5 36.5q-69 27 -98 56.5t-29 76.5q0 55 38 91.5t93 36.5
q38 0 68.5 -13.5t59.5 -41.5l-12 -15q-28 26 -54 38t-61 12q-47 0 -78.5 -29.5t-31.5 -78.5q0 -41 25.5 -66.5t90.5 -50.5q74 -30 103.5 -61.5t29.5 -88.5q0 -64 -40 -104t-101 -40q-39 0 -68 12z" />
    <glyph glyph-name="uni0283" unicode="&#x283;" horiz-adv-x="213" 
d="M252 706l-12 -14q-15 12 -29 18.5t-33 6.5q-28 0 -44.5 -19.5t-16.5 -62.5v-116h1v-621q0 -47 -22.5 -71t-58.5 -24q-44 0 -76 30l12 15q27 -25 63 -25q27 0 43.5 17.5t16.5 56.5v621h-1v118q0 49 22.5 75t60.5 26q41 0 74 -31z" />
    <glyph glyph-name="uni0284" unicode="&#x284;" horiz-adv-x="246" 
d="M147.5 697.5q-16.5 -19.5 -16.5 -62.5v-116h1v-501h90v-18h-90v-25q0 -47 -10 -77t-30 -50.5t-56 -42.5l-8 16q46 29 64 61t18 94v24h-90v18h90v500h-1v118q0 49 22.5 75t60.5 26q41 0 74 -31l-12 -14q-15 12 -29 18.5t-33 6.5q-28 0 -44.5 -19.5z" />
    <glyph glyph-name="uni0285" unicode="&#x285;" horiz-adv-x="306" 
d="M299 20q-32 -30 -76 -30q-36 0 -58.5 24t-22.5 71v343q0 43 -16.5 62.5t-44.5 19.5q-19 0 -33 -6.5t-29 -18.5l-12 14q33 31 74 31q38 0 60.5 -26t22.5 -75v-345q0 -39 16.5 -56.5t43.5 -17.5q36 0 63 25z" />
    <glyph glyph-name="uni0286" unicode="&#x286;" horiz-adv-x="225" 
d="M207 -61l-7 -17q-32 18 -70 31v-5q0 -69 -27.5 -107t-80.5 -38q-39 0 -62 24t-23 63q0 46 28 71.5t75 25.5q34 0 68 -9v658q0 49 22.5 75t60.5 26q41 0 74 -31l-12 -14q-15 12 -29 18.5t-33 6.5q-28 0 -44.5 -19.5t-16.5 -62.5v-662q41 -13 77 -34zM108 -48v6
q-37 10 -68 10q-39 0 -60.5 -21t-21.5 -57q0 -31 17 -49.5t47 -18.5q86 0 86 130z" />
    <glyph glyph-name="uni0287" unicode="&#x287;" horiz-adv-x="268" 
d="M247 0h-70v-131l-22 -2v133h-117l3 20h114v401q0 41 -19 64t-55 23q-37 0 -71 -24l-11 15q41 30 84 30q44 0 69 -28.5t25 -78.5v-402h70v-20z" />
    <glyph glyph-name="uni0288" unicode="&#x288;" horiz-adv-x="268" 
d="M248 -167q-32 -30 -76 -30q-36 0 -58.5 24t-22.5 71v601h-70v20h70v131l22 2v-133h117l-3 -20h-114v-602q0 -39 16.5 -56.5t43.5 -17.5q36 0 63 25z" />
    <glyph glyph-name="uni0289" unicode="&#x289;" horiz-adv-x="487" 
d="M456 364h-71v-364h-20l-1 102q-24 -50 -60 -81t-84 -31q-57 0 -89.5 38.5t-32.5 106.5v229h-71v18h71v137h22v-137h243v137h22v-137h71v-18zM363 364h-243v-228q0 -61 26.5 -93t73.5 -32t81 31.5t62 90.5v231z" />
    <glyph glyph-name="uni028A" unicode="&#x28a;" 
d="M104 51q-45 61 -45 177q0 98 23.5 160.5t66.5 110.5h-81v20h102v-21q-42 -51 -65.5 -112t-23.5 -158q0 -109 39 -163t110 -54t109.5 54t38.5 163q0 98 -23.5 160t-65.5 110v21h103v-20h-80q42 -47 66 -110.5t24 -160.5q0 -116 -45.5 -177t-126.5 -61t-126 61z" />
    <glyph glyph-name="uni028B" unicode="&#x28b;" horiz-adv-x="462" 
d="M126.5 28q-35.5 38 -35.5 107v384h22v-383q0 -62 29 -93.5t78 -31.5q62 0 101 54t39 167v224q0 53 -41 53q-14 0 -32 -7l-7 17q18 10 42 10q60 0 60 -73v-223q0 -120 -44 -181.5t-118 -61.5q-58 0 -93.5 38z" />
    <glyph glyph-name="uni028C" unicode="&#x28c;" horiz-adv-x="378" 
d="M23 0l149 519h27l157 -519h-24l-146 500l-141 -500h-22z" />
    <glyph glyph-name="uni028D" unicode="&#x28d;" horiz-adv-x="570" 
d="M31 0l111 519h30l112 -497l112 497h30l113 -519h-23l-105 496l-114 -496h-27l-113 497l-104 -497h-22z" />
    <glyph glyph-name="uni028E" unicode="&#x28e;" horiz-adv-x="374" 
d="M170 521q18 61 35 96t44 58t73 39l3 -18q-42 -15 -65.5 -36t-38 -52t-31.5 -89h9l153 -519h-23l-145 503l-139 -503h-23z" />
    <glyph glyph-name="uni028F" unicode="&#x28f;" horiz-adv-x="329" 
d="M320 519l-143 -307v-212h-22v211l-146 308h23l134 -289l132 289h22z" />
    <glyph glyph-name="uni0290" unicode="&#x290;" horiz-adv-x="338" 
d="M436 -167q-32 -30 -74 -30q-37 0 -60 24t-23 71v102h-254v18l259 481h-237v20h261v-18l-258 -480h251v-124q0 -74 62 -74q19 0 33.5 7t28.5 18z" />
    <glyph glyph-name="uni0291" unicode="&#x291;" horiz-adv-x="351" 
d="M326.5 26q-36.5 -24 -118.5 -26l-1 -53l1 -49h-20l-1 42q0 20 2 60h-164v18l259 481h-237v20h261v-18l-258 -480h141q7 170 99 170q33 0 53 -23t20 -63q0 -55 -36.5 -79zM234 137.5q-20 -34.5 -24 -116.5q73 0 102.5 19t29.5 65q0 32 -14 49.5t-39 17.5q-35 0 -55 -34.5z
" />
    <glyph glyph-name="uni0292" unicode="&#x292;" horiz-adv-x="366" 
d="M336 2q0 -90 -44.5 -144.5t-121.5 -54.5q-48 0 -84 20.5t-68 61.5l15 11q31 -38 62.5 -55t74.5 -17q69 0 106.5 48t37.5 130q0 89 -40.5 130t-123.5 41h-44v21l184 305h-258v20h283v-18l-186 -307h20q187 0 187 -192z" />
    <glyph glyph-name="uni0293" unicode="&#x293;" horiz-adv-x="366" 
d="M310 -105q-26 -47 -75 -71l23 -58l-19 -8l-22 58q-39 -13 -81 -13q-66 0 -100.5 30t-34.5 83q0 43 23 70.5t61 27.5q30 0 52.5 -15t44 -51.5t46.5 -104.5q42 22 64 63.5t22 98.5q0 86 -40.5 127t-124.5 41h-43v21l183 305h-257v20h282v-18l-185 -307h21q186 0 186 -188
q0 -64 -26 -111zM136 -176q43 0 74 12q-24 63 -43 97t-38 48t-43 14q-30 0 -47 -21.5t-17 -57.5q0 -92 114 -92z" />
    <glyph glyph-name="uni0294" unicode="&#x294;" horiz-adv-x="348" 
d="M110 330l51 14q59 17 95 58.5t36 127.5q0 89 -36 137t-102 48q-43 0 -75 -18t-61 -52l-15 13q32 39 67.5 59t83.5 20q76 0 118.5 -55t42.5 -152q0 -96 -41.5 -141.5t-109.5 -64.5l-31 -9v-315h-23v330z" />
    <glyph glyph-name="uni0295" unicode="&#x295;" horiz-adv-x="348" 
d="M215 0v315l-31 9q-68 19 -109.5 64.5t-41.5 141.5q0 97 43.5 152t120.5 55q47 0 81 -20t67 -59l-15 -13q-29 34 -59.5 52t-72.5 18q-68 0 -105 -48t-37 -137q0 -86 36 -127.5t95 -58.5l51 -14v-330h-23z" />
    <glyph glyph-name="uni0296" unicode="&#x296;" horiz-adv-x="398" 
d="M157 736v-319l32 -9q68 -19 109.5 -64.5t41.5 -141.5q0 -97 -44 -152t-121 -55q-46 0 -80 19.5t-68 59.5l15 13q31 -35 60.5 -52.5t71.5 -17.5q68 0 105 48t37 137q0 86 -36 127.5t-94 58.5l-52 14v331z" />
    <glyph glyph-name="uni0297" unicode="&#x297;" horiz-adv-x="394" 
d="M312 517q26 -12 51 -38l-13 -14q-42 44 -98 44q-70 0 -111 -88.5t-41 -259.5q0 -170 41 -256t112 -86q58 0 102 46l12 -13q-48 -53 -115 -53q-82 0 -129 92t-47 270t47 273t129 95q34 0 60 -12z" />
    <glyph glyph-name="uni0298" unicode="&#x298;" horiz-adv-x="647" 
d="M515 601.5q70 -89.5 70 -261.5q0 -169 -69 -259.5t-192 -90.5q-79 0 -137.5 39.5t-91 117.5t-32.5 191t32.5 192.5t91.5 120t137 40.5q121 0 191 -89.5zM149 586.5q-64 -84.5 -64 -248.5q0 -160 64.5 -243.5t174.5 -83.5q113 0 176 83.5t63 245.5q0 164 -63.5 247.5
t-175.5 83.5q-111 0 -175 -84.5zM337.5 353q5.5 -6 5.5 -14t-5.5 -13.5t-13.5 -5.5q-9 0 -14.5 5.5t-5.5 13.5t5.5 14t14.5 6q8 0 13.5 -6z" />
    <glyph glyph-name="uni0299" unicode="&#x299;" horiz-adv-x="441" 
d="M352 245.5q30 -32.5 30 -92.5q0 -76 -45.5 -114.5t-118.5 -38.5h-122v515q70 14 121 14q68 0 104 -36t36 -95q0 -50 -22.5 -79.5t-64.5 -37.5q52 -3 82 -35.5zM164.5 506.5q-25.5 -3.5 -46.5 -7.5v-209h118q48 0 73.5 28.5t25.5 79.5t-29.5 81.5t-87.5 30.5
q-28 0 -53.5 -3.5zM320 51.5q40 31.5 40 100.5q0 118 -119 118h-123v-250h98q64 0 104 31.5z" />
    <glyph glyph-name="uni029A" unicode="&#x29a;" horiz-adv-x="449" 
d="M99.5 31q-40.5 41 -40.5 115q0 64 30 94t88 36q-97 15 -97 118q0 61 36 98t98 37q83 0 129.5 -68t46.5 -202q0 -133 -45.5 -201t-132.5 -68q-72 0 -112.5 41zM328.5 73q39.5 62 39.5 186q0 127 -40.5 188.5t-113.5 61.5q-54 0 -83 -31.5t-29 -83.5t30 -81t92 -29h23
l1 -19h-29q-69 0 -103 -28.5t-34 -90.5q0 -67 34 -101t96 -34q77 0 116.5 62z" />
    <glyph glyph-name="uni029B" unicode="&#x29b;" horiz-adv-x="450" 
d="M498 706l-12 -14q-16 12 -30 18.5t-32 6.5q-28 0 -44.5 -19.5t-16.5 -62.5v-153l-14 -13q-26 21 -51.5 31.5t-55.5 10.5q-69 0 -115 -58.5t-46 -188.5q0 -135 42.5 -193t120.5 -58q57 0 108 32v207h-101l-3 20h125v-239q-27 -20 -60.5 -30.5t-68.5 -10.5q-185 0 -185 272
q0 136 52 201.5t131 65.5q54 0 99 -33v138q0 49 22.5 75t60.5 26q39 0 74 -31z" />
    <glyph glyph-name="uni029C" unicode="&#x29c;" horiz-adv-x="479" 
d="M361 0v262h-243v-262h-22v519h22v-237h243v237h22v-519h-22z" />
    <glyph glyph-name="uni029D" unicode="&#x29d;" horiz-adv-x="226" 
d="M200 -78q-32 18 -70 31v-5q0 -69 -27.5 -107t-80.5 -38q-39 0 -62 24t-23 63q0 46 28 71.5t75 25.5q34 0 68 -9v541h22v-546q41 -13 77 -34zM108 -48v6q-37 10 -68 10q-39 0 -60.5 -20.5t-21.5 -57.5q0 -31 17 -49.5t47 -18.5q86 0 86 130zM132.5 718q5.5 -6 5.5 -14
t-5.5 -13.5t-13.5 -5.5q-9 0 -14.5 5.5t-5.5 13.5t5.5 14t14.5 6q8 0 13.5 -6z" />
    <glyph glyph-name="uni029E" unicode="&#x29e;" horiz-adv-x="382" 
d="M33 0l201 235l-221 284h26l220 -284l-200 -235h-26zM264 -192v711h22v-715z" />
    <glyph glyph-name="uni029F" unicode="&#x29f;" horiz-adv-x="330" 
d="M118 519v-498h201l-4 -21h-219v519h22z" />
    <glyph glyph-name="uni02A0" unicode="&#x2a0;" horiz-adv-x="468" 
d="M508 706l-12 -14q-15 12 -29 18.5t-33 6.5q-28 0 -44.5 -19.5t-16.5 -62.5v-831l-22 4v277q-46 -95 -132 -95q-74 0 -117 70.5t-43 197.5q0 125 44.5 198t121.5 73q80 0 126 -81v188q0 49 22.5 75t60.5 26q41 0 74 -31zM295.5 38.5q31.5 27.5 55.5 78.5v299
q-46 93 -126 93q-65 0 -104 -65t-39 -182q0 -121 36.5 -186t100.5 -65q45 0 76.5 27.5z" />
    <glyph glyph-name="uni02A1" unicode="&#x2a1;" horiz-adv-x="348" 
d="M133 315v-111h97v-20h-97v-184h-23v184h-57v20h57v126l51 14q59 17 95 58.5t36 127.5q0 89 -36 137t-102 48q-43 0 -75 -18t-61 -52l-15 13q32 39 67.5 59t83.5 20q76 0 118.5 -55t42.5 -152q0 -96 -41.5 -141.5t-109.5 -64.5z" />
    <glyph glyph-name="uni02A2" unicode="&#x2a2;" horiz-adv-x="348" 
d="M278 717q34 -20 67 -59l-15 -13q-29 34 -59.5 52t-72.5 18q-68 0 -105 -48t-37 -137q0 -86 36 -127.5t95 -58.5l51 -14v-126h57v-20h-57v-184h-23v184h-96v20h96v111l-31 9q-68 19 -109.5 64.5t-41.5 141.5q0 97 43.5 152t120.5 55q47 0 81 -20z" />
    <glyph glyph-name="uni02A3" unicode="&#x2a3;" horiz-adv-x="699" 
d="M668 501l-271 -480h266l-2 -21h-308l-2 88q-46 -98 -133 -98q-74 0 -116.5 69.5t-42.5 198.5q0 126 44.5 198.5t122.5 72.5t125 -82v289l22 -3v-214h295v-18zM295.5 39.5q31.5 28.5 55.5 84.5v291q-46 94 -125 94q-66 0 -105 -64.5t-39 -182.5q0 -123 36 -187t100 -64
q46 0 77.5 28.5zM373 20l271 479h-271v-479z" />
    <glyph glyph-name="uni02A4" unicode="&#x2a4;" horiz-adv-x="706" 
d="M675 2q0 -90 -44.5 -144.5t-121.5 -54.5q-48 0 -84 20.5t-68 61.5l15 11q31 -38 62.5 -55t74.5 -17q69 0 106.5 48t37.5 130q0 89 -40.5 130t-123.5 41h-44v21l184 305h-256v-499h-20l-2 88q-46 -98 -133 -98q-74 0 -116.5 69.5t-42.5 198.5q0 126 44.5 198.5t122.5 72.5
t125 -82v289l22 -3v-214h281v-18l-186 -307h20q187 0 187 -192zM295.5 39.5q31.5 28.5 55.5 84.5v291q-46 94 -125 94q-66 0 -105 -64.5t-39 -182.5q0 -123 36 -187t100 -64q46 0 77.5 28.5z" />
    <glyph glyph-name="uni02A5" unicode="&#x2a5;" horiz-adv-x="701" 
d="M676.5 26q-36.5 -24 -118.5 -26q-2 -42 -2 -61l1 -41h-19l-1 42q0 20 2 60h-186l-2 88q-46 -98 -133 -98q-74 0 -116.5 69.5t-42.5 198.5q0 126 44.5 198.5t122.5 72.5t125 -82v289l22 -3v-214h290v-18l-268 -480h145q9 170 100 170q33 0 53 -23t20 -63q0 -55 -36.5 -79z
M295.5 39.5q31.5 28.5 55.5 84.5v291q-46 94 -125 94q-66 0 -105 -64.5t-39 -182.5q0 -123 36 -187t100 -64q46 0 77.5 28.5zM373 499v-477l266 477h-266zM584 137.5q-20 -34.5 -24 -116.5q72 0 102 19t30 65q0 32 -14 49.5t-39 17.5q-35 0 -55 -34.5z" />
    <glyph glyph-name="uni02A6" unicode="&#x2a6;" horiz-adv-x="527" 
d="M449 225.5q29 -31.5 29 -87.5q0 -71 -50.5 -109.5t-144.5 -38.5q-99 0 -145.5 42.5t-46.5 116.5v350h-70v20h70v131l22 2v-133h101l-3 -20h-98v-348q0 -67 39.5 -103.5t130.5 -36.5q84 0 128.5 31.5t44.5 95.5q0 49 -25 76t-89 51q-66 25 -91.5 55.5t-25.5 80.5
q0 56 36.5 92t89.5 36q36 0 65.5 -13.5t58.5 -41.5l-12 -15q-28 26 -53 38t-58 12q-46 0 -75.5 -29.5t-29.5 -78.5q0 -44 22.5 -71t83.5 -49q67 -24 96 -55.5z" />
    <glyph glyph-name="uni02A7" unicode="&#x2a7;" horiz-adv-x="445" 
d="M484 706l-12 -14q-15 12 -29 18.5t-33 6.5q-28 0 -44.5 -19.5t-16.5 -62.5v-116h1v-494l3 -5l-3 -1v-121q0 -47 -22.5 -71t-58.5 -24q-44 0 -76 30l12 15q27 -25 63 -25q27 0 43.5 17.5t16.5 56.5v114q-57 -21 -118 -21q-119 0 -119 129v380h-70v20h70v131l22 2v-133h203
l-4 -20h-199v-378q0 -55 23 -82.5t74 -27.5q35 0 61.5 5t56.5 14v488h-1v118q0 49 22.5 75t60.5 26q41 0 74 -31z" />
    <glyph glyph-name="uni02A8" unicode="&#x2a8;" horiz-adv-x="591" 
d="M541 175.5q23 -26.5 23 -68.5q0 -53 -34 -85t-92 -32q-74 0 -121 58q-28 -29 -57.5 -43.5t-66.5 -14.5q-49 0 -75.5 29.5t-26.5 83.5v396h-70v20h70v131l22 2v-133h117l-3 -20h-114v-395q0 -44 20.5 -68.5t61.5 -24.5q32 0 59 12.5t52 40.5q-46 71 -46 193
q0 133 46.5 202.5t128.5 69.5q33 0 59.5 -12t51.5 -38l-13 -14q-22 22 -45 33t-53 11q-71 0 -111 -62t-40 -190q0 -111 37 -176q47 67 81 94t75 27t64 -26.5zM512.5 35q29.5 24 29.5 72q0 35 -16.5 55t-48.5 20q-35 0 -66.5 -25.5t-78.5 -91.5q38 -54 106 -54q45 0 74.5 24z
" />
    <glyph glyph-name="uni02A9" unicode="&#x2a9;" horiz-adv-x="709" 
d="M589 489.5q29 -39.5 29 -110.5v-481q0 -47 -22.5 -71t-58.5 -24q-44 0 -76 30l12 15q27 -25 63 -25q27 0 43.5 17.5t16.5 56.5v480q0 64 -23.5 98t-70.5 34q-88 0 -152 -128v-381h-22v499h-208v-499h-22v499h-73v20h73v108q0 52 28.5 81t75.5 29q50 0 96 -31l-10 -17
q-22 14 -41.5 20.5t-42.5 6.5q-39 0 -61.5 -22t-22.5 -70v-105h227l2 -105q30 56 67.5 85.5t87.5 29.5q56 0 85 -39.5z" />
    <glyph glyph-name="uni02AA" unicode="&#x2aa;" horiz-adv-x="514" 
d="M138.5 34.5q-47.5 44.5 -47.5 120.5v578l22 3v-581q0 -65 41 -104.5t119 -39.5q82 0 125 32t43 96q0 50 -24 77.5t-88 50.5q-65 24 -92 54t-27 82q0 55 36.5 90.5t89.5 35.5q36 0 66 -13.5t58 -41.5l-12 -15q-27 26 -53 38t-59 12q-45 0 -74 -29t-29 -78q0 -45 23 -70
t84 -47q68 -25 96 -57.5t28 -88.5q0 -71 -49.5 -110t-141.5 -39q-87 0 -134.5 44.5z" />
    <glyph glyph-name="uni02AB" unicode="&#x2ab;" horiz-adv-x="500" 
d="M470 501l-259 -480h253l-2 -21h-271q-18 -10 -39 -10q-28 0 -44.5 18.5t-16.5 52.5v672l22 3v-675q0 -51 41 -51q15 0 33 8l258 481h-237v20h262v-18z" />
    <glyph glyph-name="uni02AC" unicode="&#x2ac;" horiz-adv-x="377" 
d="M334 660l-61 -260h-26l-58 241l-59 -241h-26l-61 260h20l55 -244l60 244h23l59 -244l55 244h19zM334 260l-61 -260h-26l-58 241l-59 -241h-26l-61 260h20l55 -244l60 244h23l59 -244l55 244h19z" />
    <glyph glyph-name="uni02AD" unicode="&#x2ad;" horiz-adv-x="263" 
d="M30 401v110h203v-111h-20v91h-163v-90h-20zM30 1v110h203v-111h-20v91h-163v-90h-20z" />
    <glyph glyph-name="uni02AE" unicode="&#x2ae;" horiz-adv-x="538" 
d="M442 519v-715l-22 4v297q-30 -55 -67.5 -85t-86.5 -30q-56 0 -85 40t-29 110v291q0 39 -16.5 56.5t-43.5 17.5q-36 0 -63 -25l-12 15q32 30 76 30q36 0 58.5 -24t22.5 -71v-287q0 -65 23.5 -99t70.5 -34t84 33t68 95v381h22z" />
    <glyph glyph-name="uni02AF" unicode="&#x2af;" horiz-adv-x="538" 
d="M577 -167q-32 -30 -76 -30q-36 0 -58.5 24t-22.5 71v207q-30 -55 -67.5 -85t-86.5 -30q-56 0 -85 40t-29 110v291q0 39 -16.5 56.5t-43.5 17.5q-36 0 -63 -25l-12 15q32 30 76 30q36 0 58.5 -24t22.5 -71v-287q0 -65 23.5 -99t70.5 -34t84 33t68 95v381h22v-622
q0 -39 16.5 -56.5t43.5 -17.5q36 0 63 25z" />
    <glyph glyph-name="uni02B0" unicode="&#x2b0;" horiz-adv-x="251" 
d="M191 644.5q17 -21.5 17 -58.5v-186h-20v182q0 66 -49 66q-25 0 -44 -15t-35 -44v-189h-20v367l20 2v-156q33 53 82 53q32 0 49 -21.5z" />
    <glyph glyph-name="uni02B1" unicode="&#x2b1;" horiz-adv-x="251" 
d="M191 644.5q17 -21.5 17 -58.5v-186h-20v182q0 66 -49 66q-25 0 -44 -15t-35 -44v-189h-20v305q0 31 17 48t46 17q27 0 54 -15l-5 -15q-23 13 -48 13q-21 0 -32.5 -12t-11.5 -36v-92q33 53 82 53q32 0 49 -21.5z" />
    <glyph glyph-name="uni02B2" unicode="&#x2b2;" horiz-adv-x="156" 
d="M109 764.5q4 -4.5 4 -10.5q0 -7 -4 -11.5t-11 -4.5t-11.5 4.5t-4.5 11.5q0 6 4.5 10.5t11.5 4.5t11 -4.5zM108 397q0 -40 -13 -59.5t-46 -37.5l-6 15q25 14 35 30.5t10 50.5v264h20v-263z" />
    <glyph glyph-name="uni02B4" unicode="&#x2b4;" horiz-adv-x="198" 
d="M155 660v-260h-17l-2 55q-10 -31 -26 -45.5t-44 -14.5q-14 0 -23 3l3 17q12 -2 21 -2q25 0 41 19.5t27 61.5v166h20z" />
    <glyph glyph-name="uni02B7" unicode="&#x2b7;" horiz-adv-x="377" 
d="M334 660l-61 -260h-26l-58 241l-59 -241h-26l-61 260h20l55 -244l60 244h23l59 -244l55 244h19z" />
    <glyph glyph-name="uni02B8" unicode="&#x2b8;" horiz-adv-x="278" 
d="M153 400q-14 -47 -33 -68.5t-59 -31.5l-2 16q34 10 48 27t28 57h-8l-84 260h21l77 -245l74 245h20z" />
    <glyph glyph-name="uni02B9" unicode="&#x2b9;" horiz-adv-x="239" 
d="M73 441l69 240h24l-77 -240h-16z" />
    <glyph glyph-name="uni02BA" unicode="&#x2ba;" horiz-adv-x="366" 
d="M73 441l69 240h24l-77 -240h-16zM200 441l69 240h24l-77 -240h-16z" />
    <glyph glyph-name="uni02BB" unicode="&#x2bb;" horiz-adv-x="123" 
d="M35.5 598.5q-5.5 6.5 -5.5 15.5q0 8 8 28l39 112h16l-34 -120q13 -6 13 -20q0 -9 -6 -15.5t-15 -6.5q-10 0 -15.5 6.5z" />
    <glyph glyph-name="uni02BC" unicode="&#x2bc;" horiz-adv-x="187" 
d="M110.5 719q5.5 -6 5.5 -16q0 -8 -8 -28l-39 -112h-16l34 120q-13 6 -13 20q0 9 6 15.5t15 6.5q10 0 15.5 -6z" />
    <glyph glyph-name="uni02BF" unicode="&#x2bf;" horiz-adv-x="127" 
d="M97 662q-23 0 -35 16t-12 44q0 29 12.5 45t34.5 16v18q-30 0 -48.5 -21.5t-18.5 -57.5t18.5 -57t48.5 -21v18z" />
    <glyph glyph-name="uni02C0" unicode="&#x2c0;" horiz-adv-x="179" 
d="M72 692q55 4 55 52q0 22 -11.5 34.5t-31.5 12.5q-13 0 -22.5 -3.5t-22.5 -10.5l-9 15q28 19 57 19q28 0 45 -18t17 -48q0 -59 -57 -67v-56h-20v70z" />
    <glyph glyph-name="circumflex" unicode="&#x2c6;" horiz-adv-x="270" 
d="M46 655l-11 10l99 97h13l98 -97l-11 -10l-94 84z" />
    <glyph glyph-name="caron" unicode="&#x2c7;" horiz-adv-x="270" 
d="M234 748l11 -10l-99 -97h-12l-99 97l11 10l94 -84z" />
    <glyph glyph-name="uni02C8" unicode="&#x2c8;" horiz-adv-x="83" 
d="M30 640v201h23v-201h-23z" />
    <glyph glyph-name="uni02CA" unicode="&#x2ca;" horiz-adv-x="217" 
d="M174 759l13 -21l-148 -84l-9 14z" />
    <glyph glyph-name="uni02CB" unicode="&#x2cb;" horiz-adv-x="217" 
d="M43 759l144 -91l-10 -14l-147 84z" />
    <glyph glyph-name="uni02CC" unicode="&#x2cc;" horiz-adv-x="83" 
d="M30 -279v201h23v-201h-23z" />
    <glyph glyph-name="uni02CE" unicode="&#x2ce;" horiz-adv-x="215" 
d="M42 -67l143 -80l-8 -14l-147 73z" />
    <glyph glyph-name="uni02CF" unicode="&#x2cf;" horiz-adv-x="215" 
d="M174 -66l11 -22l-148 -72l-7 14z" />
    <glyph glyph-name="uni02D0" unicode="&#x2d0;" horiz-adv-x="158" 
d="M73 387l-20 64h52l-21 -64h-11zM73 64h11l21 -64h-52z" />
    <glyph glyph-name="uni02D1" unicode="&#x2d1;" horiz-adv-x="158" 
d="M73 387l-20 64h52l-21 -64h-11z" />
    <glyph glyph-name="uni02D4" unicode="&#x2d4;" horiz-adv-x="340" 
d="M277 225v-20h-214v20h97v140h20v-140h97z" />
    <glyph glyph-name="uni02D6" unicode="&#x2d6;" horiz-adv-x="371" 
d="M196 444v-137h111v-19h-111v-137h-20v137h-113v19h113v137h20z" />
    <glyph glyph-name="uni02D7" unicode="&#x2d7;" horiz-adv-x="371" 
d="M63 289v18h244v-18h-244z" />
    <glyph glyph-name="breve" unicode="&#x2d8;" horiz-adv-x="242" 
d="M65 685q-24 23 -30 63l16 4q16 -69 75 -69q61 0 75 69l16 -4q-5 -40 -29.5 -63t-61.5 -23t-61 23z" />
    <glyph glyph-name="dotaccent" unicode="&#x2d9;" horiz-adv-x="99" 
d="M68.5 718q5.5 -6 5.5 -14t-5.5 -13.5t-13.5 -5.5q-9 0 -14.5 5.5t-5.5 13.5t5.5 14t14.5 6q8 0 13.5 -6z" />
    <glyph glyph-name="ring" unicode="&#x2da;" horiz-adv-x="194" 
d="M151 780.5q18 -20.5 18 -57.5q0 -38 -18 -58.5t-49 -20.5t-49 20.5t-18 57.5q0 38 18 58.5t49 20.5t49 -20.5zM55 722q0 -61 47 -61t47 62q0 61 -47 61t-47 -62z" />
    <glyph glyph-name="ogonek" unicode="&#x2db;" horiz-adv-x="187" 
d="M191 0q-51 -26 -77 -53.5t-26 -69.5q0 -28 14 -43t42 -15q22 0 46 7l-2 -22q-24 -7 -45 -7q-38 0 -58 22t-20 58q0 44 30 75.5t88 60.5z" />
    <glyph glyph-name="tilde" unicode="&#x2dc;" horiz-adv-x="281" 
d="M161.5 684q-12.5 6 -27.5 18l-12 8t-16.5 9t-13.5 3q-14 0 -24.5 -8t-23.5 -27l-14 8q15 23 29.5 34.5t32.5 11.5q12 0 22 -5t27 -17q15 -11 25.5 -16.5t21.5 -5.5q14 0 25 9.5t24 31.5l14 -7q-14 -28 -29 -40.5t-34 -12.5q-14 0 -26.5 6z" />
    <glyph glyph-name="hungarumlaut" unicode="&#x2dd;" horiz-adv-x="227" 
d="M180 791l21 -10l-65 -129l-15 7zM88 790l21 -10l-60 -124l-15 7z" />
    <glyph glyph-name="uni02DE" unicode="&#x2de;" horiz-adv-x="239" 
d="M137.5 359q-22.5 25 -22.5 73v66l-90 -50v22l90 49h22v-86q0 -41 16.5 -60.5t44.5 -19.5q20 0 34 6.5t28 18.5l12 -14q-32 -30 -74 -30q-38 0 -60.5 25z" />
    <glyph glyph-name="uni02E0" unicode="&#x2e0;" horiz-adv-x="277" 
d="M150 425q14 -32 20.5 -50t6.5 -35q0 -18 -10 -29.5t-28 -11.5t-28.5 11.5t-10.5 29.5q0 16 6.5 35t21.5 50l-86 235h21l76 -218l75 218h21zM153.5 370.5q-4.5 15.5 -14.5 39.5q-20 -43 -20 -68q0 -26 20 -26q19 0 19 26q0 13 -4.5 28.5z" />
    <glyph glyph-name="uni02E1" unicode="&#x2e1;" horiz-adv-x="149" 
d="M43 436v331l20 2v-333q0 -24 21 -24q10 0 18 4l4 -15q-9 -6 -24 -6q-39 0 -39 41z" />
    <glyph glyph-name="uni02E2" unicode="&#x2e2;" horiz-adv-x="252" 
d="M203 638l-11 -13q-16 11 -30 17t-32 6q-26 0 -41.5 -13.5t-15.5 -35.5q0 -20 13 -31t49 -22q41 -13 58 -29.5t17 -47.5q0 -35 -23 -54.5t-60 -19.5q-49 0 -84 33l12 13q31 -28 72 -28q28 0 44.5 14.5t16.5 39.5q0 26 -13 39t-51 24q-39 11 -55.5 26.5t-16.5 42.5
q0 30 22 48.5t55 18.5q40 0 74 -28z" />
    <glyph glyph-name="uni02E3" unicode="&#x2e3;" horiz-adv-x="279" 
d="M150 540l86 -140h-24l-73 127l-74 -127h-22l84 139l-74 121h23l63 -108l64 108h21z" />
    <glyph glyph-name="uni02E4" unicode="&#x2e4;" horiz-adv-x="264" 
d="M140 400l1 156l-18 4q-37 10 -59 33t-22 71q0 47 26.5 76.5t71.5 29.5q24 0 43.5 -10t38.5 -30l-12 -12q-32 35 -70 35q-36 0 -56.5 -24t-20.5 -65t17 -60t52 -28l29 -8v-168h-21z" />
    <glyph glyph-name="uni02E5" unicode="&#x2e5;" horiz-adv-x="253" 
d="M207 0v661h-182v20h203v-681h-21z" />
    <glyph glyph-name="uni02E6" unicode="&#x2e6;" horiz-adv-x="253" 
d="M207 681h21v-681h-21v482h-182v20h182v179z" />
    <glyph glyph-name="uni02E7" unicode="&#x2e7;" horiz-adv-x="253" 
d="M207 681h21v-681h-21v332h-182v20h182v329z" />
    </font>
</defs>
</svg>
