<?xml version="1.0" standalone="no"?>
<!DOCTYPE svg PUBLIC "-//W3C//DTD SVG 1.1//EN" "http://www.w3.org/Graphics/SVG/1.1/DTD/svg11.dtd" >
<svg xmlns="http://www.w3.org/2000/svg" xmlns:xlink="http://www.w3.org/1999/xlink" version="1.1">
<metadata>
Created by FontForge 20170731 at Tue Dec  6 15:27:44 2016
 By Aleksey,,,
Digitized data copyright 2012-2016, The Mozilla Foundation and Telefonica S.A.
</metadata>
<defs>
<font id="FiraSansExtraCondensed-SemiBoldItalic" horiz-adv-x="460" >
  <font-face 
    font-family="Fira Sans Extra Condensed SemiBold"
    font-weight="600"
    font-style="italic"
    font-stretch="condensed"
    units-per-em="1000"
    panose-1="2 11 7 3 5 0 0 2 0 4"
    ascent="800"
    descent="-200"
    x-height="530"
    cap-height="692"
    bbox="-650 -354 1417 1158"
    underline-thickness="50"
    underline-position="-150"
    slope="-8"
    unicode-range="U+000D-FEFF"
  />
<missing-glyph horiz-adv-x="657" 
d="M646 1050l-197 -1400h-414l197 1400h414zM586 998h-306l-183 -1296h306zM417.5 425.5q23.5 -25.5 23.5 -66.5q0 -9 -2 -27q-7 -52 -32.5 -79.5t-75.5 -34.5l-8 -47q-1 -11 -8.5 -16.5t-16.5 -5.5q-11 0 -18 7.5t-6 18.5l10 82q53 3 75 21t28 60q2 14 2 20q0 22 -11 33.5
t-39 11.5q-29 0 -54 -13l-12 -1q-12 0 -18.5 8t-4.5 19q2 17 31 26t62 9q51 0 74.5 -25.5zM313.5 109q9.5 -11 7.5 -28q-2 -14 -12.5 -23.5t-24.5 -9.5q-16 0 -25 12t-6 29q1 13 11 22t24 9q16 0 25.5 -11z" />
    <glyph glyph-name="fi" unicode="fi" horiz-adv-x="491" 
d="M404 0h-134l60 433h-103l-53 -389q-11 -82 -40.5 -132t-69.5 -77t-104 -54l-31 100q35 15 56 32.5t34.5 48.5t20.5 83l53 388h-62l13 97h62l8 57q11 75 63 122t134 47q42 0 76 -11t71 -33l-49 -85q-46 26 -87 26q-34 0 -52 -17.5t-23 -56.5l-7 -49h238z" />
    <glyph glyph-name="fl" unicode="fl" horiz-adv-x="521" 
d="M471 97l13 -94q-39 -18 -83 -18q-50 0 -76.5 28t-26.5 78q0 9 2 29l74 528q-30 9 -58 9q-32 0 -47.5 -19t-21.5 -59l-7 -49h77l-28 -97h-62l-53 -389q-11 -82 -40.5 -132t-69.5 -77t-104 -54l-31 100q35 15 56 32.5t34.5 48.5t20.5 83l53 388h-63l14 97h62l8 57
q11 76 60.5 122.5t129.5 46.5q63 0 107 -19l110 11l-87 -623q-1 -4 -1 -12q0 -19 18 -19q9 0 20 3z" />
    <glyph glyph-name=".notdef" horiz-adv-x="657" 
d="M646 1050l-197 -1400h-414l197 1400h414zM586 998h-306l-183 -1296h306zM417.5 425.5q23.5 -25.5 23.5 -66.5q0 -9 -2 -27q-7 -52 -32.5 -79.5t-75.5 -34.5l-8 -47q-1 -11 -8.5 -16.5t-16.5 -5.5q-11 0 -18 7.5t-6 18.5l10 82q53 3 75 21t28 60q2 14 2 20q0 22 -11 33.5
t-39 11.5q-29 0 -54 -13l-12 -1q-12 0 -18.5 8t-4.5 19q2 17 31 26t62 9q51 0 74.5 -25.5zM313.5 109q9.5 -11 7.5 -28q-2 -14 -12.5 -23.5t-24.5 -9.5q-16 0 -25 12t-6 29q1 13 11 22t24 9q16 0 25.5 -11z" />
    <glyph glyph-name=".null" horiz-adv-x="0" 
 />
    <glyph glyph-name="nonmarkingreturn" unicode="&#xd;" horiz-adv-x="183" 
 />
    <glyph glyph-name="space" unicode=" " horiz-adv-x="183" 
 />
    <glyph glyph-name="exclam" unicode="!" horiz-adv-x="223" 
d="M52 247l44 445h141l-79 -445h-106zM23.5 5q-18.5 21 -18.5 52q0 38 25 65t63 27q33 0 52 -21t19 -52q0 -39 -25 -65.5t-64 -26.5q-33 0 -51.5 21z" />
    <glyph glyph-name="quotedbl" unicode="&#x22;" horiz-adv-x="403" 
d="M80 417l24 275h119l-55 -275h-88zM276 417l24 275h119l-55 -275h-88z" />
    <glyph glyph-name="numbersign" unicode="#" horiz-adv-x="458" 
d="M471 443h-56l-50 -201h48l-13 -91h-58l-37 -151h-106l37 151h-86l-37 -151h-105l37 151h-49l13 91h58l49 201h-48l12 91h59l34 140h107l-35 -140h86l35 140h106l-35 -140h47zM259 242l50 201h-86l-50 -201h86z" />
    <glyph glyph-name="dollar" unicode="$" horiz-adv-x="449" 
d="M387.5 327.5q32.5 -39.5 32.5 -104.5q0 -86 -52 -149t-138 -79l-22 -154h-94l21 150q-52 6 -90 30t-69 62l75 70q30 -31 57.5 -46.5t64.5 -15.5q49 0 78 31t29 82q0 34 -19 55.5t-72 47.5q-69 33 -98.5 70t-29.5 95q0 51 23.5 95.5t65 74.5t95.5 39l21 147h96l-22 -149
q73 -15 126 -79l-70 -69q-25 26 -51 39t-56 13q-41 0 -65.5 -25t-24.5 -65q0 -30 18 -48.5t69 -43.5q69 -34 101.5 -73.5z" />
    <glyph glyph-name="percent" unicode="%" horiz-adv-x="710" 
d="M571 717l-481 -705l72 -49l481 705zM97.5 370.5q-34.5 37.5 -34.5 104.5q0 53 20 102t58.5 79.5t90.5 30.5q57 0 91 -36.5t34 -102.5q0 -53 -19.5 -102.5t-58 -81t-91.5 -31.5q-56 0 -90.5 37.5zM247.5 458q16.5 43 16.5 90q0 58 -38 58t-54 -41t-16 -91q0 -29 9 -44
t29 -15q37 0 53.5 43zM407 21q-35 37 -35 104q0 54 20 103t58.5 79.5t91.5 30.5q57 0 91 -36.5t34 -102.5q0 -53 -19.5 -102.5t-58 -81t-91.5 -31.5q-56 0 -91 37zM557 109q17 43 17 90q0 57 -39 57q-37 0 -53 -41t-16 -90q0 -29 9 -44t29 -15q36 0 53 43z" />
    <glyph glyph-name="ampersand" unicode="&#x26;" horiz-adv-x="640" 
d="M445 668.5q43 -39.5 43 -101.5q0 -67 -35.5 -113.5t-106.5 -93.5l91 -139q32 63 58 142l103 -33q-43 -101 -101 -181l81 -106l-119 -59l-51 79q-47 -42 -91 -60.5t-96 -18.5q-53 0 -93 21.5t-62 59.5t-22 86q0 66 34 118.5t108 106.5q-29 38 -42.5 71.5t-13.5 68.5
q0 57 24.5 100.5t69 67.5t103.5 24q75 0 118 -39.5zM272.5 588q-16.5 -29 -16.5 -69q0 -22 7 -43t22 -46q41 34 59 64.5t18 72.5q0 24 -10.5 37t-31.5 13q-31 0 -47.5 -29zM197.5 232q-14.5 -33 -14.5 -73q0 -37 16.5 -56.5t49.5 -19.5q55 0 103 51l-106 163
q-34 -32 -48.5 -65z" />
    <glyph glyph-name="quotesingle" unicode="'" horiz-adv-x="207" 
d="M80 417l24 275h119l-55 -275h-88z" />
    <glyph glyph-name="parenleft" unicode="(" horiz-adv-x="273" 
d="M333 796q-93 -131 -138.5 -282.5t-45.5 -309.5q0 -93 14 -163t44 -142l-93 -51q-33 74 -51.5 123t-31.5 111.5t-13 136.5q0 129 26.5 233.5t76.5 197t132 205.5z" />
    <glyph glyph-name="parenright" unicode=")" horiz-adv-x="275" 
d="M235.5 729q18.5 -49 31.5 -112t13 -137q0 -128 -26.5 -232.5t-76.5 -198t-132 -204.5l-79 58q93 133 138 283t45 309q0 92 -14.5 163t-44.5 144l94 50q33 -74 51.5 -123z" />
    <glyph glyph-name="asterisk" unicode="*" horiz-adv-x="393" 
d="M417 542l-125 -27l74 -113l-107 -62l-35 128l-69 -128l-92 61l102 117l-110 26l42 105l104 -57v149h120l-41 -151l115 61z" />
    <glyph glyph-name="plus" unicode="+" horiz-adv-x="442" 
d="M316 539l-21 -154h120l-14 -107h-123l-23 -154h-109l22 154h-123l14 107h126l21 154h110z" />
    <glyph glyph-name="comma" unicode="," horiz-adv-x="211" 
d="M137.5 130q18.5 -19 18.5 -51q0 -22 -8.5 -44t-32.5 -65l-75 -143h-73l61 174q-28 19 -28 56q0 38 24.5 65t62.5 27q32 0 50.5 -19z" />
    <glyph glyph-name="hyphen" unicode="-" horiz-adv-x="343" 
d="M41 259l14 108h261l-14 -108h-261z" />
    <glyph glyph-name="period" unicode="." horiz-adv-x="215" 
d="M18.5 5q-18.5 21 -18.5 52q0 38 25 65t63 27q33 0 52 -21t19 -52q0 -39 -25 -65.5t-64 -26.5q-33 0 -51.5 21z" />
    <glyph glyph-name="slash" unicode="/" horiz-adv-x="431" 
d="M330 814l112 -28l-316 -895l-111 29z" />
    <glyph glyph-name="zero" unicode="0" horiz-adv-x="507" 
d="M159.5 616q-60.5 -71 -88 -179.5t-27.5 -223.5q0 -113 43 -171t127 -58q92 0 152.5 71t88.5 180t28 223q0 112 -43 170.5t-127 58.5q-93 0 -153.5 -71zM341 563.5q12 -21.5 12 -69.5q0 -86 -16 -181.5t-46 -161t-71 -65.5q-23 0 -34.5 21.5t-11.5 69.5q0 83 15.5 179
t45.5 162.5t71 66.5q23 0 35 -21.5z" />
    <glyph glyph-name="one" unicode="1" horiz-adv-x="389" 
d="M367 674l-94 -674h-131l73 528l-127 -83l-48 93l207 136h120z" />
    <glyph glyph-name="two" unicode="2" horiz-adv-x="423" 
d="M372.5 640.5q45.5 -46.5 45.5 -120.5q0 -57 -27 -113t-84.5 -124t-166.5 -178l232 2l-30 -107h-359l13 100q121 132 175.5 197t81.5 115.5t27 99.5q0 34 -15.5 51.5t-41.5 17.5q-28 0 -53 -16t-57 -51l-71 63q43 54 92 82t109 28q84 0 129.5 -46.5z" />
    <glyph glyph-name="three" unicode="3" horiz-adv-x="427" 
d="M367.5 643.5q44.5 -43.5 44.5 -112.5q0 -137 -156 -176q124 -16 124 -129q0 -63 -30 -119t-85 -89.5t-128 -33.5q-61 0 -104.5 25.5t-74.5 74.5l81 64q23 -32 45.5 -46t52.5 -14q47 0 76.5 38.5t29.5 103.5q0 40 -19.5 57t-57.5 17h-45l31 96h28q45 0 72 33t27 85
q0 33 -15 50t-44 17q-54 0 -114 -57l-57 73q89 86 195 86q79 0 123.5 -43.5z" />
    <glyph glyph-name="four" unicode="4" horiz-adv-x="466" 
d="M448 255l-15 -103h-61l-21 -152h-128l21 152h-239l13 93l217 444l109 -42l-184 -392h99l39 167h112l-23 -167h61z" />
    <glyph glyph-name="five" unicode="5" horiz-adv-x="443" 
d="M420 574h-200l-23 -161q24 14 44 19.5t42 5.5q59 0 94.5 -43t35.5 -123q0 -76 -29.5 -142t-87.5 -106t-139 -40q-62 0 -103 26t-69 72l83 66q20 -30 41.5 -45t52.5 -15q58 0 86.5 54t28.5 124q0 41 -14.5 58.5t-41.5 17.5q-33 0 -72 -25l-91 1l51 356h340z" />
    <glyph glyph-name="six" unicode="6" horiz-adv-x="479" 
d="M419 407q35 -43 35 -122t-27.5 -148t-81.5 -111t-128 -42q-90 0 -133.5 56t-43.5 159q0 118 37 231t107 185t164 72q70 0 122 -44l-59 -79q-32 24 -67 24q-47 0 -86 -54.5t-62 -153.5q56 70 128 70q60 0 95 -43zM278 117.5q22 33.5 32.5 81t10.5 90.5q0 36 -11 50.5
t-33 14.5q-23 0 -47.5 -19t-48.5 -54q-9 -85 -9 -106q0 -48 12.5 -69.5t37.5 -21.5q34 0 56 33.5z" />
    <glyph glyph-name="seven" unicode="7" horiz-adv-x="382" 
d="M427 674l-14 -95l-280 -593l-112 41l254 542h-222l15 105h359z" />
    <glyph glyph-name="eight" unicode="8" horiz-adv-x="479" 
d="M422.5 295.5q21.5 -35.5 21.5 -83.5q0 -69 -31 -120.5t-86 -79.5t-124 -28q-91 0 -141 48t-50 123q0 64 32.5 113t103.5 83q-63 50 -63 129q0 63 28 109.5t76.5 72t109.5 25.5q81 0 129 -40t48 -109q0 -57 -28 -100t-93 -80q46 -27 67.5 -62.5zM231.5 560.5
q-19.5 -32.5 -19.5 -79.5q0 -30 12 -47.5t41 -32.5l13 -6q38 28 53.5 60.5t15.5 74.5q0 63 -55 63q-41 0 -60.5 -32.5zM285.5 118q26.5 34 26.5 92q0 33 -15 53.5t-55 39.5l-19 9q-79 -54 -79 -151q0 -38 17.5 -57.5t50.5 -19.5q47 0 73.5 34z" />
    <glyph glyph-name="nine" unicode="9" horiz-adv-x="467" 
d="M417.5 634q45.5 -53 45.5 -147q0 -186 -99.5 -322.5t-323.5 -191.5l-18 95q117 35 183 88t101 150q-31 -35 -60.5 -52t-64.5 -17q-61 0 -98.5 46.5t-37.5 125.5q0 74 28.5 138t82.5 102t128 38q88 0 133.5 -53zM321 402q6 54 6 102q0 45 -12 65.5t-39 20.5q-49 0 -73 -56
t-24 -123q0 -77 49 -77q45 0 93 68z" />
    <glyph glyph-name="colon" unicode=":" horiz-adv-x="216" 
d="M18.5 5q-18.5 21 -18.5 52q0 38 25 65t63 27q33 0 52 -21t19 -52q0 -39 -25 -65.5t-64 -26.5q-33 0 -51.5 21zM68.5 356q-18.5 21 -18.5 52q0 38 25 65t63 27q33 0 52 -21t19 -52q0 -39 -25 -65.5t-64 -26.5q-33 0 -51.5 21z" />
    <glyph glyph-name="semicolon" unicode=";" horiz-adv-x="217" 
d="M137.5 130q18.5 -19 18.5 -51q0 -22 -8.5 -44t-32.5 -65l-75 -143h-73l61 174q-28 19 -28 56q0 38 24.5 65t62.5 27q32 0 50.5 -19zM69.5 356q-18.5 21 -18.5 52q0 38 25 65t63 27q33 0 52 -21t19 -52q0 -39 -25 -65.5t-64 -26.5q-33 0 -51.5 21z" />
    <glyph glyph-name="less" unicode="&#x3c;" horiz-adv-x="427" 
d="M395 567l32 -100l-283 -140l243 -134l-59 -95l-299 173l17 124z" />
    <glyph glyph-name="equal" unicode="=" horiz-adv-x="431" 
d="M59 379l14 108h346l-14 -108h-346zM31 174l14 108h346l-14 -108h-346z" />
    <glyph glyph-name="greater" unicode="&#x3e;" horiz-adv-x="427" 
d="M119 567l299 -172l-18 -124l-349 -173l-32 102l286 139l-246 133z" />
    <glyph glyph-name="question" unicode="?" horiz-adv-x="403" 
d="M383.5 664.5q43.5 -42.5 43.5 -106.5q0 -45 -15.5 -76.5t-37.5 -51.5t-58 -44q-42 -28 -62.5 -51.5t-20.5 -59.5q0 -12 2 -28l-118 -19q-9 25 -9 53q0 42 14 71.5t33.5 48t52.5 42.5q40 29 58.5 51t18.5 57q0 48 -47 48q-44 0 -103 -61l-71 66q83 103 197 103
q79 0 122.5 -42.5zM108.5 5q-18.5 21 -18.5 52q0 38 25 65t63 27q33 0 52 -21t19 -52q0 -39 -25 -65.5t-64 -26.5q-33 0 -51.5 21z" />
    <glyph glyph-name="at" unicode="@" horiz-adv-x="849" 
d="M668 663.5q71 -43.5 107.5 -118.5t36.5 -168q0 -91 -27.5 -176.5t-79.5 -140t-120 -54.5q-45 0 -70 28t-27 69q-45 -94 -128 -94q-57 0 -89.5 43t-32.5 117q0 83 25 158.5t77 123.5t129 48q72 0 136 -42l-36 -264q-6 -46 -6 -60q0 -39 25 -39q32 0 56.5 45t38 112
t13.5 129q0 110 -51.5 168.5t-153.5 58.5q-114 0 -189 -68.5t-110 -173.5t-35 -218q0 -126 57 -195.5t167 -69.5q42 0 85 9.5t79 24.5l19 -94q-97 -41 -195 -41q-103 0 -178 45.5t-114.5 128.5t-39.5 194q0 135 53.5 264t158 211.5t249.5 82.5q99 0 170 -43.5zM453 156
l36 252q-15 5 -28 5q-37 0 -61 -40.5t-35 -98.5t-11 -114q0 -34 8.5 -49.5t26.5 -15.5q35 0 64 61z" />
    <glyph glyph-name="A" unicode="A" horiz-adv-x="493" 
d="M318 0l-8 157h-158l-50 -157h-145l265 692h169l70 -692h-143zM184 261h121l-16 332z" />
    <glyph glyph-name="B" unicode="B" horiz-adv-x="509" 
d="M449 321q32 -32 32 -91q0 -106 -72.5 -168t-206.5 -62h-186l97 692h180q100 0 157 -40t57 -114q0 -69 -40 -112.5t-106 -59.5q56 -13 88 -45zM238 590l-25 -180h47q52 0 78.5 30t26.5 86q0 64 -72 64h-55zM311 141q28 36 28 94q0 41 -20 59.5t-64 18.5h-56l-29 -208h47
q66 0 94 36z" />
    <glyph glyph-name="C" unicode="C" horiz-adv-x="477" 
d="M448 688.5q40 -19.5 72 -56.5l-74 -74q-43 43 -93 43q-60 0 -98.5 -56t-56 -139.5t-17.5 -168.5q0 -142 89 -142q30 0 55.5 13t61.5 40l52 -81q-89 -83 -195 -83q-95 0 -151 67t-56 194q0 120 35 225.5t107 171.5t176 66q53 0 93 -19.5z" />
    <glyph glyph-name="D" unicode="D" horiz-adv-x="547" 
d="M465 638.5q68 -53.5 68 -187.5q0 -203 -83 -327t-260 -124h-174l97 692h168q116 0 184 -53.5zM238 588l-68 -484h43q65 0 105 53t57 133t17 165q0 73 -27.5 103t-79.5 30h-47z" />
    <glyph glyph-name="E" unicode="E" horiz-adv-x="427" 
d="M461 692l-31 -103h-192l-26 -186h170l-15 -102h-169l-28 -197h209l-15 -104h-348l97 692h348z" />
    <glyph glyph-name="F" unicode="F" horiz-adv-x="396" 
d="M451 692l-31 -103h-182l-28 -202h161l-16 -103h-160l-40 -284h-139l97 692h338z" />
    <glyph glyph-name="G" unicode="G" horiz-adv-x="536" 
d="M549 624l-78 -70q-26 26 -50 37.5t-55 11.5q-66 0 -108.5 -58t-61.5 -146t-19 -181q0 -66 20.5 -96.5t59.5 -30.5q41 0 84 26l24 174h-71l2 102h216l-47 -338q-51 -34 -107 -52t-109 -18q-106 0 -160 63.5t-54 188.5q0 121 38 229t114 175t182 67q109 0 180 -84z" />
    <glyph glyph-name="H" unicode="H" horiz-adv-x="544" 
d="M155 0h-139l97 692h140l-40 -275h160l38 275h140l-97 -692h-140l43 305h-159z" />
    <glyph glyph-name="I" unicode="I" horiz-adv-x="246" 
d="M253 692l-98 -692h-139l97 692h140z" />
    <glyph glyph-name="J" unicode="J" horiz-adv-x="266" 
d="M192 96q-11 -80 -42 -129.5t-74 -76.5t-105 -49l-25 97q55 28 76.5 63t31.5 106l82 585h140z" />
    <glyph glyph-name="K" unicode="K" horiz-adv-x="528" 
d="M16 0l97 692h140l-98 -692h-139zM341 0l-129 369l221 323h142l-221 -322l139 -370h-152z" />
    <glyph glyph-name="L" unicode="L" horiz-adv-x="413" 
d="M253 692l-82 -578h219l-32 -114h-342l97 692h140z" />
    <glyph glyph-name="M" unicode="M" horiz-adv-x="658" 
d="M586 0h-134l28 281q10 106 39 294l-150 -500h-134l-21 500q-13 -142 -36 -296l-46 -279h-135l139 692h169l14 -489l140 489h182z" />
    <glyph glyph-name="N" unicode="N" horiz-adv-x="542" 
d="M451 0h-169l-91 573v-44q0 -127 -16 -259l-36 -270h-123l97 692h170l90 -574v49q0 61 2.5 110.5t10.5 109.5l41 305h121z" />
    <glyph glyph-name="O" unicode="O" horiz-adv-x="577" 
d="M509.5 642.5q54.5 -65.5 54.5 -192.5q0 -119 -34 -225t-105 -173.5t-177 -67.5q-102 0 -157 66t-55 191q0 118 33.5 224.5t105 174.5t177.5 68q103 0 157.5 -65.5zM248 539q-37 -63 -53.5 -152t-16.5 -169q0 -67 20 -97.5t59 -30.5q59 0 95.5 62.5t52.5 150.5t16 170
q0 67 -19.5 98t-59.5 31q-57 0 -94 -63z" />
    <glyph glyph-name="P" unicode="P" horiz-adv-x="483" 
d="M446.5 644q56.5 -48 56.5 -140q0 -74 -30 -134t-91 -96t-150 -36h-43l-34 -238h-139l97 692h172q105 0 161.5 -48zM331.5 387.5q28.5 45.5 28.5 115.5q0 46 -20.5 66t-65.5 20h-36l-35 -247h31q69 0 97.5 45.5z" />
    <glyph glyph-name="Q" unicode="Q" horiz-adv-x="577" 
d="M469.5 20.5q38.5 -17.5 69.5 -50.5l-102 -103q-33 59 -76.5 89t-112.5 30q-103 0 -157.5 65t-54.5 190q0 118 33.5 224.5t105 174.5t177.5 68q103 0 157.5 -65.5t54.5 -192.5q0 -136 -45.5 -248.5t-140.5 -160.5q53 -3 91.5 -20.5zM198 120.5q20 -30.5 59 -30.5
q59 0 95.5 62.5t52.5 150.5t16 170q0 67 -19.5 98t-59.5 31q-57 0 -94 -63t-53.5 -152t-16.5 -169q0 -67 20 -97.5z" />
    <glyph glyph-name="R" unicode="R" horiz-adv-x="507" 
d="M471 390.5q-33 -54.5 -99 -87.5l100 -303h-144l-82 273h-53l-38 -273h-139l97 692h170q111 0 166 -45.5t55 -129.5q0 -72 -33 -126.5zM207 373h38q62 0 89.5 40.5t27.5 98.5q0 41 -20 59.5t-62 18.5h-42z" />
    <glyph glyph-name="S" unicode="S" horiz-adv-x="468" 
d="M489 619l-73 -72q-26 28 -53 41.5t-60 13.5q-43 0 -69 -26t-26 -66q0 -32 19.5 -52t77.5 -48q68 -34 100.5 -76t32.5 -110q0 -67 -32.5 -122t-90.5 -86.5t-132 -31.5q-128 0 -208 98l79 73q31 -32 61 -48t70 -16q50 0 80.5 31t30.5 82q0 38 -21 61.5t-79 51.5
q-70 34 -99.5 72.5t-29.5 101.5q0 60 30 109.5t83 78.5t120 29q117 0 189 -89z" />
    <glyph glyph-name="T" unicode="T" horiz-adv-x="441" 
d="M500 692l-30 -111h-135l-82 -581h-140l82 581h-145l16 111h434z" />
    <glyph glyph-name="U" unicode="U" horiz-adv-x="529" 
d="M475 192q-8 -58 -39 -105t-83.5 -74.5t-122.5 -27.5q-97 0 -147.5 50.5t-50.5 128.5q0 22 2 34l70 494h139l-71 -508q-2 -16 -2 -22q0 -32 17 -50.5t52 -18.5q42 0 66 27t31 69l70 503h140z" />
    <glyph glyph-name="V" unicode="V" horiz-adv-x="476" 
d="M541 692l-247 -692h-178l-61 692h142l24 -574l177 574h143z" />
    <glyph glyph-name="W" unicode="W" horiz-adv-x="696" 
d="M744 692l-188 -692h-181l10 549l-141 -549h-180l8 692h134l-26 -581l156 581h144l-11 -581l143 581h132z" />
    <glyph glyph-name="X" unicode="X" horiz-adv-x="472" 
d="M523 692l-192 -319l108 -373h-146l-55 283l-128 -283h-152l206 368l-97 324h146l44 -243l115 243h151z" />
    <glyph glyph-name="Y" unicode="Y" horiz-adv-x="482" 
d="M550 692l-240 -431l-36 -261h-140l37 261l-118 431h146l57 -321l144 321h150z" />
    <glyph glyph-name="Z" unicode="Z" horiz-adv-x="440" 
d="M-24 0l15 107l317 474h-229l18 111h379l-17 -108l-317 -470l261 1l-33 -115h-394z" />
    <glyph glyph-name="bracketleft" unicode="[" horiz-adv-x="269" 
d="M323 820l-14 -104h-92l-100 -733h90l-15 -104h-219l134 941h216z" />
    <glyph glyph-name="backslash" unicode="\" horiz-adv-x="433" 
d="M254 806l66 -895l-119 -20l-64 895z" />
    <glyph glyph-name="bracketright" unicode="]" horiz-adv-x="268" 
d="M319 820l-133 -941h-217l15 104h92l99 733h-88l13 104h219z" />
    <glyph glyph-name="asciicircum" unicode="^" horiz-adv-x="463" 
d="M374 843l109 -316h-129l-57 210l-108 -210h-134l197 316h122z" />
    <glyph glyph-name="underscore" unicode="_" horiz-adv-x="431" 
d="M-47 -161l15 108h405l-15 -108h-405z" />
    <glyph glyph-name="grave" unicode="`" horiz-adv-x="289" 
d="M155 817l163 -126l-40 -62l-184 90z" />
    <glyph glyph-name="a" unicode="a" horiz-adv-x="481" 
d="M467 499l-51 -357q-3 -18 -3 -31t4.5 -21t16.5 -14l-42 -90q-39 5 -65.5 24t-35.5 54q-28 -40 -58.5 -60t-72.5 -20q-65 0 -101.5 50t-36.5 136q0 96 28.5 181.5t90 140t156.5 54.5q84 0 170 -47zM215 405.5q-29 -41.5 -43 -105.5t-14 -132q0 -44 11 -63t34 -19
q22 0 41 18.5t41 52.5l39 283q-19 7 -37 7q-43 0 -72 -41.5z" />
    <glyph glyph-name="b" unicode="b" horiz-adv-x="490" 
d="M432.5 499q34.5 -47 34.5 -133q0 -166 -65.5 -274t-208.5 -108q-81 0 -177 40l100 717l136 15l-38 -272q25 29 57 45.5t66 16.5q61 0 95.5 -47zM242 427.5q-22 -16.5 -42 -43.5l-40 -289q27 -10 50 -10q41 0 68 42t40 105.5t13 127.5q0 46 -12 65t-35 19q-20 0 -42 -16.5
z" />
    <glyph glyph-name="c" unicode="c" horiz-adv-x="397" 
d="M364 530q35 -16 63 -48l-66 -74q-20 17 -37 24.5t-37 7.5q-63 0 -92.5 -77t-29.5 -174q0 -52 16 -74.5t46 -22.5q21 0 39 8t45 25l48 -82q-72 -59 -153 -59q-85 0 -133 55t-48 153q0 93 30 174t88.5 130.5t139.5 49.5q46 0 81 -16z" />
    <glyph glyph-name="d" unicode="d" horiz-adv-x="491" 
d="M509 741l-104 -741h-119l3 69q-27 -42 -58.5 -63.5t-73.5 -21.5q-64 0 -99 49.5t-35 138.5q0 91 25 177t75.5 141.5t121.5 55.5q64 0 95 -53l36 262zM209 401q-25 -44 -37 -108t-12 -121q0 -86 46 -86q23 0 44.5 22.5t44.5 65.5l32 227q-11 23 -24 33.5t-33 10.5
q-36 0 -61 -44z" />
    <glyph glyph-name="e" unicode="e" horiz-adv-x="454" 
d="M405.5 507.5q42.5 -38.5 42.5 -97.5q0 -104 -80 -152.5t-210 -63.5v-14q0 -48 17.5 -70t51.5 -22q28 0 53.5 11t58.5 35l48 -81q-84 -69 -180 -69q-86 0 -134.5 51.5t-48.5 149.5q0 94 29 176.5t89 133.5t148 51q73 0 115.5 -38.5zM317 405q0 46 -41 46q-43 0 -70 -48.5
t-40 -121.5q151 17 151 124z" />
    <glyph glyph-name="f" unicode="f" horiz-adv-x="291" 
d="M268.5 636q-15.5 -18 -21.5 -57l-7 -49h103l-29 -97h-87l-53 -389q-11 -82 -40.5 -132t-69.5 -77t-104 -54l-31 100q35 15 56 32.5t34.5 48.5t20.5 83l54 388h-63l13 97h63l8 57q10 77 58 123.5t127 46.5q69 0 124 -42l-48 -80q-32 19 -64 19q-28 0 -43.5 -18z" />
    <glyph glyph-name="g" unicode="g" horiz-adv-x="481" 
d="M468 499l-67 -482q-18 -123 -75.5 -180t-159.5 -57q-92 0 -167 53l49 90q61 -37 114 -37q42 0 69.5 24.5t36.5 90.5l9 67q-24 -33 -51.5 -50.5t-65.5 -17.5q-64 0 -100 49.5t-36 133.5q0 93 28 175.5t89.5 135t156.5 52.5q84 0 170 -47zM192.5 367q-32.5 -80 -32.5 -186
q0 -42 11.5 -61t33.5 -19q38 0 84 71l37 268q-19 7 -38 7q-63 0 -95.5 -80z" />
    <glyph glyph-name="h" unicode="h" horiz-adv-x="470" 
d="M417 513.5q28 -32.5 28 -89.5q0 -18 -3 -36l-55 -388h-134l51 370q1 7 1 20q0 36 -24 36q-21 0 -43 -30t-49 -86l-43 -310h-134l104 741l136 14l-43 -305q56 96 133 96q47 0 75 -32.5z" />
    <glyph glyph-name="i" unicode="i" horiz-adv-x="233" 
d="M221 530l-74 -530h-134l74 530h134zM116.5 658q-18.5 19 -18.5 51q0 40 25.5 65.5t62.5 25.5q34 0 53 -19t19 -51q0 -40 -26 -65.5t-63 -25.5q-34 0 -52.5 19z" />
    <glyph glyph-name="j" unicode="j" horiz-adv-x="234" 
d="M-91 -119q35 15 56 32.5t35 48.5t21 83l67 485h135l-69 -486q-12 -82 -41 -132t-69 -77.5t-104 -53.5zM119.5 658q-18.5 19 -18.5 51q0 40 25.5 65.5t62.5 25.5q34 0 53 -19t19 -51q0 -40 -26 -65.5t-63 -25.5q-34 0 -52.5 19z" />
    <glyph glyph-name="k" unicode="k" horiz-adv-x="477" 
d="M211 457q32 45 67.5 66.5t79.5 21.5q54 0 87 -32.5t33 -85.5q0 -60 -31.5 -105t-98.5 -82l76 -240h-140l-72 257q71 27 100.5 62.5t29.5 84.5q0 21 -9.5 32.5t-26.5 11.5q-26 0 -55.5 -30t-58.5 -89l-45 -329h-135l104 741l136 15z" />
    <glyph glyph-name="l" unicode="l" horiz-adv-x="246" 
d="M159 125q-1 -4 -1 -11q0 -20 18 -20q10 0 20 3l13 -94q-39 -18 -83 -18q-50 0 -76.5 28t-26.5 78q0 9 2 29l86 621l135 15z" />
    <glyph glyph-name="m" unicode="m" horiz-adv-x="688" 
d="M635.5 513q27.5 -33 27.5 -89q0 -16 -3 -36l-56 -388h-134l51 370q2 20 2 25q0 33 -21 33q-18 0 -37.5 -28.5t-44.5 -84.5l-45 -315h-134l51 370q2 18 2 24q0 34 -21 34q-19 0 -38.5 -29t-44.5 -87l-43 -312h-134l74 530h116l-4 -84q29 48 61.5 74t73.5 26q39 0 64.5 -25
t32.5 -71q29 47 61 71.5t71 24.5q45 0 72.5 -33z" />
    <glyph glyph-name="n" unicode="n" horiz-adv-x="471" 
d="M418 513.5q28 -32.5 28 -89.5q0 -18 -3 -36l-55 -388h-134l51 370q1 7 1 20q0 36 -24 36q-21 0 -43 -30t-49 -86l-43 -310h-134l74 530h116l-4 -86q31 48 65.5 75t78.5 27q47 0 75 -32.5z" />
    <glyph glyph-name="o" unicode="o" horiz-adv-x="487" 
d="M72 37q-47 53 -47 153q0 90 28 171.5t86.5 133t143.5 51.5t132 -53.5t47 -152.5q0 -89 -27.5 -170.5t-85.5 -133.5t-144 -52t-133 53zM278.5 130.5q25.5 44.5 37 107.5t11.5 121q0 84 -53 84q-40 0 -65.5 -44t-36.5 -106.5t-11 -120.5q0 -86 52 -86q40 0 65.5 44.5z" />
    <glyph glyph-name="p" unicode="p" horiz-adv-x="490" 
d="M87 530h118l-2 -55q56 71 134 71q61 0 96 -47t35 -133q0 -102 -26 -188.5t-82 -140t-141 -53.5q-37 0 -74 13l-28 -202l-135 -16zM278.5 129.5q27.5 44.5 40.5 109t13 124.5q0 44 -12 62.5t-35 18.5q-20 0 -42.5 -16t-42.5 -43l-40 -290q26 -10 50 -10q41 0 68.5 44.5z
" />
    <glyph glyph-name="q" unicode="q" horiz-adv-x="484" 
d="M274 47q-24 -30 -50.5 -46.5t-63.5 -16.5q-65 0 -101 50t-36 136q0 97 28.5 182.5t90 139.5t156.5 54q85 0 172 -47l-98 -704l-135 -16zM246.5 104.5q19.5 18.5 41.5 52.5l40 283q-19 7 -39 7q-64 0 -97.5 -83t-33.5 -196q0 -43 11.5 -62.5t34.5 -19.5t42.5 18.5z" />
    <glyph glyph-name="r" unicode="r" horiz-adv-x="329" 
d="M369 536l-42 -130q-18 5 -36 5q-37 0 -63 -40t-46 -114l-35 -257h-134l74 530h115l-4 -90q25 51 55.5 77.5t72.5 26.5q21 0 43 -8z" />
    <glyph glyph-name="s" unicode="s" horiz-adv-x="400" 
d="M325.5 528.5q41.5 -17.5 71.5 -49.5l-60 -73q-48 40 -97 40q-29 0 -46.5 -15.5t-17.5 -40.5q0 -22 17.5 -37.5t64.5 -36.5q53 -24 79.5 -57.5t26.5 -87.5q0 -56 -27.5 -98.5t-75 -65.5t-105.5 -23q-111 0 -181 79l71 72q53 -51 108 -51q36 0 55 20.5t19 49.5q0 27 -17 44
t-62 37q-55 24 -80 55.5t-25 83.5q0 47 24.5 86.5t68 62.5t98.5 23q49 0 90.5 -17.5z" />
    <glyph glyph-name="t" unicode="t" horiz-adv-x="318" 
d="M180 144q-1 -5 -1 -13q0 -38 33 -38q20 0 48 15l32 -86q-26 -19 -57.5 -28.5t-62.5 -9.5q-61 0 -94 34.5t-33 94.5q0 22 2 34l40 286h-61l14 97h65l30 119l118 14l-19 -133h98l-30 -97h-81z" />
    <glyph glyph-name="u" unicode="u" horiz-adv-x="466" 
d="M54.5 16q-28.5 32 -28.5 87q0 16 3 34l54 393h134l-53 -381q-1 -6 -1 -16q0 -33 24 -33q22 0 43 23.5t42 60.5l49 346h133l-74 -530h-116l4 78q-30 -45 -61 -69.5t-76 -24.5q-48 0 -76.5 32z" />
    <glyph glyph-name="v" unicode="v" horiz-adv-x="424" 
d="M464 530l-205 -530h-161l-62 530h141l16 -423l131 423h140z" />
    <glyph glyph-name="w" unicode="w" horiz-adv-x="621" 
d="M649 530l-162 -530h-155l-2 409l-110 -409h-158l-15 530h132l-16 -429l123 429h131l-2 -429l106 429h128z" />
    <glyph glyph-name="x" unicode="x" horiz-adv-x="421" 
d="M443 530l-149 -252l96 -278h-139l-53 205l-105 -205h-137l175 283l-89 247h141l40 -180l85 180h135z" />
    <glyph glyph-name="y" unicode="y" horiz-adv-x="428" 
d="M261 -3q-42 -108 -108 -157.5t-172 -58.5l-2 94q66 13 99 38.5t60 86.5h-48l-54 530h139l13 -439l139 439h141z" />
    <glyph glyph-name="z" unicode="z" horiz-adv-x="376" 
d="M393 530l-14 -98l-234 -326h195l-28 -106h-339l15 98l234 327h-174l17 105h328z" />
    <glyph glyph-name="braceleft" unicode="{" horiz-adv-x="267" 
d="M313 741q-34 0 -48 -15t-19 -54l-26 -198q-8 -59 -33 -85.5t-75 -41.5q37 -9 54.5 -28.5t17.5 -60.5q0 -15 -3 -36l-26 -199q-2 -16 -2 -21q0 -24 12.5 -33.5t40.5 -9.5l-13 -97q-84 0 -123.5 30.5t-39.5 95.5q0 19 3 38l25 195q3 17 3 29q0 24 -11 34t-36 10l16 111
q31 0 46.5 16.5t20.5 56.5l26 199q8 58 28.5 92.5t62 51.5t112.5 17z" />
    <glyph glyph-name="bar" unicode="|" horiz-adv-x="310" 
d="M294 809l-128 -913h-125l127 913h126z" />
    <glyph glyph-name="braceright" unicode="}" horiz-adv-x="267" 
d="M-22 -41q34 0 48.5 15t19.5 54l26 198q7 59 32 85.5t75 41.5q-37 9 -54.5 29t-17.5 61q0 16 3 35l27 199q1 8 1 20q0 25 -11.5 34.5t-40.5 9.5l13 97q84 0 123.5 -31t39.5 -96q0 -17 -3 -37l-26 -195q-2 -22 -2 -28q0 -25 10.5 -35t35.5 -10l-15 -111q-32 0 -47 -16.5
t-20 -56.5l-27 -199q-7 -58 -27.5 -92.5t-62.5 -51.5t-112 -17z" />
    <glyph glyph-name="asciitilde" unicode="~" horiz-adv-x="430" 
d="M240.5 247q-17.5 9 -39.5 26q-16 13 -27.5 19.5t-23.5 6.5q-19 0 -33 -12.5t-34 -38.5l-63 39q33 52 67 83t78 31q23 0 40 -9t38 -26q16 -13 27.5 -19t23.5 -6q20 0 35 12t31 36l65 -39q-33 -51 -66.5 -81.5t-77.5 -30.5q-23 0 -40.5 9z" />
    <glyph glyph-name="uni00A0" unicode="&#xa0;" horiz-adv-x="183" 
 />
    <glyph glyph-name="exclamdown" unicode="&#xa1;" horiz-adv-x="224" 
d="M73.5 359q-18.5 21 -18.5 52q0 38 25 65t63 27q33 0 52 -21t19 -52q0 -39 -25 -65.5t-64 -26.5q-33 0 -51.5 21zM159 238l-45 -442h-142l80 442h107z" />
    <glyph glyph-name="cent" unicode="&#xa2;" horiz-adv-x="397" 
d="M194.5 363q-29.5 -77 -29.5 -174q0 -52 16 -74.5t46 -22.5q21 0 39 8t45 25l48 -82q-53 -44 -115 -56l-22 -146h-95l22 150q-59 17 -91.5 69t-32.5 132q0 81 23.5 154.5t69 125t109.5 67.5l21 151h94l-21 -147q61 -10 106 -61l-66 -74q-20 17 -37 24.5t-37 7.5
q-63 0 -92.5 -77z" />
    <glyph glyph-name="sterling" unicode="&#xa3;" horiz-adv-x="443" 
d="M201.5 151.5q-15.5 -26.5 -53.5 -46.5h251l-31 -105h-377l14 101q32 11 49 26.5t24.5 37.5t11.5 60l12 89h-56l11 75h56l14 104q12 89 63.5 141.5t136.5 52.5q105 0 154 -95l-86 -55q-14 25 -29 35.5t-36 10.5q-31 0 -48.5 -23.5t-23.5 -71.5l-13 -99h145l-11 -75h-144
l-12 -89q-6 -47 -21.5 -73.5z" />
    <glyph glyph-name="currency" unicode="&#xa4;" 
d="M398 81l-61 76q-41 -29 -97 -29q-55 0 -96 29l-63 -76l-63 56l70 84q-28 51 -28 120q0 68 27 120l-71 87l68 54l60 -76q41 29 96 29t98 -29l63 76l63 -56l-71 -83q28 -53 28 -122t-26 -119l71 -86zM297.5 248.5q18.5 28.5 18.5 93.5q0 64 -18.5 93t-56.5 29
q-39 0 -58 -29t-19 -93q0 -65 19 -93.5t58 -28.5q38 0 56.5 28.5z" />
    <glyph glyph-name="yen" unicode="&#xa5;" 
d="M525 674l-190 -324h81l-11 -75h-106l-11 -78h106l-11 -75h-106l-17 -122h-133l17 122h-107l12 75h105l11 78h-106l11 75h79l-99 324h136l61 -287l137 287h141z" />
    <glyph glyph-name="brokenbar" unicode="&#xa6;" horiz-adv-x="310" 
d="M294 809l-52 -366h-125l51 366h126zM217 262l-51 -366h-125l51 366h125z" />
    <glyph glyph-name="section" unicode="&#xa7;" horiz-adv-x="465" 
d="M396 395q26 -31 26 -75q0 -46 -23 -80t-70 -62q20 -19 29 -40.5t9 -49.5q0 -45 -24 -83.5t-69 -61.5t-107 -23q-91 0 -155 54l55 77q25 -18 49.5 -26.5t52.5 -8.5q36 0 54 17.5t18 45.5q0 27 -16.5 42.5t-66.5 36.5q-53 21 -78.5 50.5t-25.5 75.5q0 88 92 143
q-34 35 -34 87q0 49 25 88.5t69 61.5t101 22q90 0 155 -57l-55 -74q-44 35 -97 35q-38 0 -55.5 -17t-17.5 -45q0 -26 16.5 -41.5t65.5 -38.5q51 -22 77 -53zM270 218q35 41 35 80q0 21 -14.5 38t-51.5 33q-16 6 -36 17q-17 -21 -24 -39t-7 -40t12 -37t39 -28q28 -13 47 -24z
" />
    <glyph glyph-name="dieresis" unicode="&#xa8;" horiz-adv-x="390" 
d="M109.5 663q-16.5 17 -16.5 44q0 35 23 58t54 23q29 0 46 -17t17 -45q0 -34 -22.5 -57t-55.5 -23q-29 0 -45.5 17zM301.5 663q-16.5 17 -16.5 44q0 35 22.5 58t54.5 23q28 0 45 -17t17 -45q0 -34 -22.5 -57t-54.5 -23q-29 0 -45.5 17z" />
    <glyph glyph-name="copyright" unicode="&#xa9;" horiz-adv-x="668" 
d="M499.5 719.5q63.5 -40.5 100.5 -114.5t37 -172t-37 -172t-100.5 -114.5t-141.5 -40.5t-142 40.5t-101 115t-37 171.5t37 171.5t101 115t142 40.5t141.5 -40.5zM254.5 658.5q-45.5 -30.5 -71.5 -88.5t-26 -137t26 -137t71.5 -88.5t103.5 -30.5t103.5 30.5t71.5 88.5
t26 137t-26 137t-71.5 88.5t-103.5 30.5t-103.5 -30.5zM468 581l-39 -53q-18 12 -30.5 17t-28.5 5q-59 0 -59 -116t61 -116q17 0 30.5 6.5t29.5 20.5l39 -56q-48 -50 -111 -50q-66 0 -105.5 50.5t-39.5 144.5q0 92 40.5 143t107.5 51q58 0 105 -47z" />
    <glyph glyph-name="ordfeminine" unicode="&#xaa;" horiz-adv-x="407" 
d="M79.5 297q-27.5 31 -27.5 81q0 63 42.5 106t135.5 43h36l2 15q2 16 2 21q0 22 -11 31.5t-33 9.5q-35 0 -91 -18l-20 77q70 29 136 29t100.5 -30t34.5 -90q0 -15 -3 -35l-20 -144q-1 -6 -1 -15q0 -10 4 -17t14 -12l-36 -80q-67 5 -84 54q-42 -57 -105 -57q-48 0 -75.5 31z
M247 388l10 70h-27q-31 0 -45 -18.5t-14 -48.5q0 -37 28 -37q27 0 48 34zM-2 0l14 108h337l-13 -108h-338z" />
    <glyph glyph-name="guillemotleft" unicode="&#xab;" horiz-adv-x="534" 
d="M226 549l75 -56l-135 -210l77 -206l-91 -55l-124 219l15 88zM459 549l75 -56l-135 -210l77 -206l-91 -55l-124 219l15 88z" />
    <glyph glyph-name="logicalnot" unicode="&#xac;" horiz-adv-x="442" 
d="M415 380l-37 -257h-117l20 150h-237l14 107h357z" />
    <glyph glyph-name="uni00AD" unicode="&#xad;" horiz-adv-x="343" 
d="M41 259l14 108h261l-14 -108h-261z" />
    <glyph glyph-name="registered" unicode="&#xae;" horiz-adv-x="523" 
d="M410.5 722.5q51.5 -33.5 80.5 -94.5t29 -141q0 -79 -29 -139.5t-80.5 -93.5t-116.5 -33t-117.5 33t-82 93.5t-29.5 139.5t29.5 140t82 95t117.5 34t116.5 -33.5zM410 336q44 55 44 151q0 98 -44 153t-116 55t-117.5 -55.5t-45.5 -152.5t45.5 -151.5t117.5 -54.5t116 55z
M400 354h-68l-46 104h-20v-104h-59v280h69q54 0 82 -22.5t28 -65.5q0 -48 -46 -74zM266 511h25q15 0 24.5 9.5t9.5 28.5q0 35 -36 35h-23v-73z" />
    <glyph glyph-name="macron" unicode="&#xaf;" horiz-adv-x="311" 
d="M334 659h-248l14 96h249z" />
    <glyph glyph-name="degree" unicode="&#xb0;" horiz-adv-x="419" 
d="M108.5 409.5q-35.5 35.5 -35.5 101.5q0 55 21.5 100t60 71t85.5 26q54 0 90 -36t36 -102q0 -55 -22 -100t-60.5 -70.5t-85.5 -25.5q-54 0 -89.5 35.5zM257 486.5q18 33.5 18 82.5q0 59 -41 59q-35 0 -53 -33.5t-18 -82.5q0 -59 42 -59q34 0 52 33.5z" />
    <glyph glyph-name="plusminus" unicode="&#xb1;" horiz-adv-x="441" 
d="M13 0l14 108h346l-14 -108h-346zM325 600l-21 -154h120l-14 -107h-123l-23 -154h-109l22 154h-123l14 107h126l21 154h110z" />
    <glyph glyph-name="uni00B2" unicode="&#xb2;" horiz-adv-x="330" 
d="M306 719q31 -31 31 -78q0 -41 -20.5 -78.5t-55 -73t-95.5 -88.5h148l-22 -80h-243l11 76q99 96 137.5 144.5t38.5 91.5q0 18 -9 28t-25 10q-17 0 -32 -10t-35 -31l-52 47q60 73 139 73q53 0 84 -31z" />
    <glyph glyph-name="uni00B3" unicode="&#xb3;" horiz-adv-x="330" 
d="M305.5 722.5q29.5 -27.5 29.5 -70.5q0 -42 -26 -70.5t-73 -39.5q82 -6 82 -83q0 -40 -19.5 -74t-56 -54.5t-85.5 -20.5q-83 0 -123 66l58 48q16 -19 31 -27t33 -8q29 0 46.5 21.5t17.5 53.5q0 22 -12.5 31.5t-39.5 9.5h-28l22 70h16q29 0 45 18.5t16 44.5q0 36 -37 36
q-34 0 -74 -33l-41 53q60 56 136 56q53 0 82.5 -27.5z" />
    <glyph glyph-name="acute" unicode="&#xb4;" horiz-adv-x="294" 
d="M281 819l47 -100l-205 -91l-35 65z" />
    <glyph glyph-name="uni00B5" unicode="&#xb5;" horiz-adv-x="477" 
d="M398 63q0 -27 4 -65l-125 -12q-7 40 -6 75q-23 -36 -45 -53t-50 -17q-34 0 -52 26q4 -17 4 -50q0 -40 -6 -76l-13 -95l-128 -14l106 748h133l-51 -372q-2 -20 -2 -25q0 -42 31 -42q40 0 74 75l51 364h133l-49 -350q-9 -69 -9 -117z" />
    <glyph glyph-name="paragraph" unicode="&#xb6;" horiz-adv-x="643" 
d="M618 692l-126 -896l-117 -16l112 814h-76l-110 -798l-117 -16l69 489q-82 3 -125.5 49.5t-43.5 122.5t31 132.5t88 87.5t133 31h282z" />
    <glyph glyph-name="periodcentered" unicode="&#xb7;" horiz-adv-x="215" 
d="M52.5 246q-18.5 21 -18.5 52q0 38 25 65t63 27q33 0 52 -21t19 -52q0 -39 -25 -65.5t-64 -26.5q-33 0 -51.5 21z" />
    <glyph glyph-name="cedilla" unicode="&#xb8;" horiz-adv-x="276" 
d="M115 -55q36 -4 54.5 -25t18.5 -55q0 -47 -33.5 -83.5t-103.5 -36.5q-28 0 -51 8.5t-39 21.5l40 60q23 -13 48 -13q20 0 31.5 9.5t11.5 27.5t-15.5 25.5t-54.5 7.5l30 124h73z" />
    <glyph glyph-name="uni00B9" unicode="&#xb9;" horiz-adv-x="330" 
d="M310 741l-59 -420h-96l43 320l-77 -52l-37 65l137 87h89z" />
    <glyph glyph-name="ordmasculine" unicode="&#xba;" horiz-adv-x="414" 
d="M375 650.5q40 -41.5 40 -120.5q0 -68 -22 -128t-68.5 -98t-114.5 -38q-72 0 -111.5 42t-39.5 121q0 68 22 128t68 97.5t114 37.5q72 0 112 -41.5zM196.5 543q-18.5 -59 -18.5 -128q0 -30 9.5 -44t28.5 -14q41 0 60.5 60.5t19.5 126.5q0 30 -9.5 44t-29.5 14
q-42 0 -60.5 -59zM-3 0l14 108h346l-14 -108h-346z" />
    <glyph glyph-name="guillemotright" unicode="&#xbb;" horiz-adv-x="534" 
d="M155 549l124 -220l-14 -88l-185 -219l-75 55l136 210l-77 206zM388 549l124 -220l-14 -88l-185 -219l-75 55l136 210l-77 206z" />
    <glyph glyph-name="onequarter" unicode="&#xbc;" horiz-adv-x="794" 
d="M303 692l-59 -420h-96l43 320l-77 -52l-37 65l137 87h89zM579 755l71 -39l-443 -799l-72 39zM758 165l-11 -77h-36l-12 -88h-91l12 88h-158l10 70l135 271l78 -32l-110 -232h58l32 99h71l-14 -99h36z" />
    <glyph glyph-name="onehalf" unicode="&#xbd;" horiz-adv-x="794" 
d="M303 692l-59 -420h-96l43 320l-77 -52l-37 65l137 87h89zM579 755l71 -39l-443 -799l-72 39zM725 398q31 -31 31 -78q0 -41 -20.5 -78.5t-55 -73t-95.5 -88.5h148l-22 -80h-243l11 76q99 96 137.5 144.5t38.5 91.5q0 18 -9 28t-25 10q-17 0 -32 -10t-35 -31l-52 47
q60 73 139 73q53 0 84 -31z" />
    <glyph glyph-name="threequarters" unicode="&#xbe;" horiz-adv-x="794" 
d="M298.5 673.5q29.5 -27.5 29.5 -70.5q0 -42 -26 -70.5t-73 -39.5q82 -6 82 -83q0 -40 -19.5 -74t-56 -54.5t-85.5 -20.5q-83 0 -123 66l58 48q16 -19 31 -27t33 -8q29 0 46.5 21.5t17.5 53.5q0 22 -12.5 31.5t-39.5 9.5h-28l22 70h16q29 0 45 18.5t16 44.5q0 36 -37 36
q-34 0 -74 -33l-41 53q60 56 136 56q53 0 82.5 -27.5zM579 755l71 -39l-443 -799l-72 39zM758 165l-11 -77h-36l-12 -88h-91l12 88h-158l10 70l135 271l78 -32l-110 -232h58l32 99h71l-14 -99h36z" />
    <glyph glyph-name="questiondown" unicode="&#xbf;" horiz-adv-x="403" 
d="M288.5 487q18.5 -21 18.5 -52q0 -38 -25 -65t-63 -27q-33 0 -52 21t-19 52q0 39 25 65.5t64 26.5q33 0 51.5 -21zM13.5 -178.5q-43.5 42.5 -43.5 106.5q0 44 15.5 75t37.5 50.5t57 44.5q43 29 63.5 52.5t20.5 60.5q0 14 -2 28l118 19q8 -28 8 -52q0 -42 -14 -72
t-34 -48.5t-53 -42.5q-39 -29 -57.5 -50.5t-18.5 -56.5q0 -49 47 -49q48 0 103 63l72 -68q-83 -103 -197 -103q-79 0 -122.5 42.5z" />
    <glyph glyph-name="Agrave" unicode="&#xc0;" horiz-adv-x="493" 
d="M318 0l-8 157h-158l-50 -157h-145l265 692h169l70 -692h-143zM184 261h121l-16 332zM282 928l165 -116l-41 -62l-183 81z" />
    <glyph glyph-name="Aacute" unicode="&#xc1;" horiz-adv-x="493" 
d="M318 0l-8 157h-158l-50 -157h-145l265 692h169l70 -692h-143zM184 261h121l-16 332zM403 930l48 -99l-206 -82l-32 65z" />
    <glyph glyph-name="Acircumflex" unicode="&#xc2;" horiz-adv-x="493" 
d="M318 0l-8 157h-158l-50 -157h-145l265 692h169l70 -692h-143zM184 261h121l-16 332zM208 758l-50 55l135 125h81l102 -132l-53 -48l-99 83z" />
    <glyph glyph-name="Atilde" unicode="&#xc3;" horiz-adv-x="493" 
d="M318 0l-8 157h-158l-50 -157h-145l265 692h169l70 -692h-143zM184 261h121l-16 332zM342.5 774.5q-12.5 6.5 -29.5 19.5q-9 7 -18.5 13t-17.5 6q-13 0 -23.5 -10.5t-24.5 -33.5l-60 36q22 47 52.5 77t62.5 30q19 0 32.5 -7.5t28.5 -20.5q2 -2 9 -7.5t13.5 -8t12.5 -2.5
q12 0 22.5 10t23.5 32l61 -34q-23 -50 -53.5 -78t-62.5 -28q-16 0 -28.5 6.5z" />
    <glyph glyph-name="Adieresis" unicode="&#xc4;" horiz-adv-x="493" 
d="M318 0l-8 157h-158l-50 -157h-145l265 692h169l70 -692h-143zM184 261h121l-16 332zM177.5 789q-16.5 17 -16.5 44q0 35 23 58t54 23q29 0 46 -17t17 -45q0 -34 -22.5 -57t-55.5 -23q-29 0 -45.5 17zM369.5 789q-16.5 17 -16.5 44q0 35 22.5 58t54.5 23q28 0 45 -17
t17 -45q0 -34 -22.5 -57t-54.5 -23q-29 0 -45.5 17z" />
    <glyph glyph-name="Aring" unicode="&#xc5;" horiz-adv-x="493" 
d="M318 0l-8 157h-158l-50 -157h-145l265 692h169l70 -692h-143zM184 261h121l-16 332zM419.5 951q27.5 -30 27.5 -78q0 -58 -36.5 -96.5t-93.5 -38.5q-48 0 -75.5 30t-27.5 78q0 57 36.5 96t93.5 39q48 0 75.5 -30zM304 894.5q-12 -18.5 -12 -45.5q0 -43 31 -43
q21 0 33.5 19t12.5 45q0 43 -31 43q-22 0 -34 -18.5z" />
    <glyph glyph-name="AE" unicode="&#xc6;" horiz-adv-x="693" 
d="M668 589h-215l3 -188h195l-15 -102h-178l4 -195h186l-17 -104h-297v157h-171l-62 -157h-149l310 692h437zM205 262h129l-1 325z" />
    <glyph glyph-name="Ccedilla" unicode="&#xc7;" horiz-adv-x="477" 
d="M254.5 545q-38.5 -56 -56 -139.5t-17.5 -168.5q0 -142 89 -142q30 0 55.5 13t61.5 40l52 -81q-74 -70 -165 -81l-6 -41q36 -4 54.5 -25t18.5 -55q0 -47 -33.5 -83.5t-103.5 -36.5q-28 0 -51 8.5t-39 21.5l40 60q23 -13 48 -13q20 0 31.5 9.5t11.5 27.5t-15.5 25.5
t-54.5 7.5l23 96q-75 15 -118 81t-43 176q0 120 35 225.5t107 171.5t176 66q53 0 93 -19.5t72 -56.5l-74 -74q-43 43 -93 43q-60 0 -98.5 -56z" />
    <glyph glyph-name="Egrave" unicode="&#xc8;" horiz-adv-x="427" 
d="M461 692l-31 -103h-192l-26 -186h170l-15 -102h-169l-28 -197h209l-15 -104h-348l97 692h348zM263 928l165 -116l-41 -62l-183 81z" />
    <glyph glyph-name="Eacute" unicode="&#xc9;" horiz-adv-x="427" 
d="M461 692l-31 -103h-192l-26 -186h170l-15 -102h-169l-28 -197h209l-15 -104h-348l97 692h348zM384 930l48 -99l-206 -82l-32 65z" />
    <glyph glyph-name="Ecircumflex" unicode="&#xca;" horiz-adv-x="427" 
d="M461 692l-31 -103h-192l-26 -186h170l-15 -102h-169l-28 -197h209l-15 -104h-348l97 692h348zM189 758l-50 55l135 125h81l102 -132l-53 -48l-99 83z" />
    <glyph glyph-name="Edieresis" unicode="&#xcb;" horiz-adv-x="427" 
d="M461 692l-31 -103h-192l-26 -186h170l-15 -102h-169l-28 -197h209l-15 -104h-348l97 692h348zM158.5 789q-16.5 17 -16.5 44q0 35 23 58t54 23q29 0 46 -17t17 -45q0 -34 -22.5 -57t-55.5 -23q-29 0 -45.5 17zM350.5 789q-16.5 17 -16.5 44q0 35 22.5 58t54.5 23
q28 0 45 -17t17 -45q0 -34 -22.5 -57t-54.5 -23q-29 0 -45.5 17z" />
    <glyph glyph-name="Igrave" unicode="&#xcc;" horiz-adv-x="246" 
d="M253 692l-98 -692h-139l97 692h140zM158 928l165 -116l-41 -62l-183 81z" />
    <glyph glyph-name="Iacute" unicode="&#xcd;" horiz-adv-x="246" 
d="M253 692l-98 -692h-139l97 692h140zM279 930l48 -99l-206 -82l-32 65z" />
    <glyph glyph-name="Icircumflex" unicode="&#xce;" horiz-adv-x="246" 
d="M253 692l-98 -692h-139l97 692h140zM84 758l-50 55l135 125h81l102 -132l-53 -48l-99 83z" />
    <glyph glyph-name="Idieresis" unicode="&#xcf;" horiz-adv-x="246" 
d="M253 692l-98 -692h-139l97 692h140zM53.5 789q-16.5 17 -16.5 44q0 35 23 58t54 23q29 0 46 -17t17 -45q0 -34 -22.5 -57t-55.5 -23q-29 0 -45.5 17zM245.5 789q-16.5 17 -16.5 44q0 35 22.5 58t54.5 23q28 0 45 -17t17 -45q0 -34 -22.5 -57t-54.5 -23q-29 0 -45.5 17z
" />
    <glyph glyph-name="Eth" unicode="&#xd0;" horiz-adv-x="555" 
d="M472 638.5q68 -53.5 68 -187.5q0 -203 -83 -327t-260 -124h-174l43 309h-50l14 88h49l41 295h168q116 0 184 -53.5zM325 157q40 53 57 133t17 165q0 73 -27.5 103t-79.5 30h-47l-27 -191h106l-13 -88h-105l-29 -205h43q65 0 105 53z" />
    <glyph glyph-name="Ntilde" unicode="&#xd1;" horiz-adv-x="542" 
d="M451 0h-169l-91 573v-44q0 -127 -16 -259l-36 -270h-123l97 692h170l90 -574v49q0 61 2.5 110.5t10.5 109.5l41 305h121zM369.5 774.5q-12.5 6.5 -29.5 19.5q-9 7 -18.5 13t-17.5 6q-13 0 -23.5 -10.5t-24.5 -33.5l-60 36q22 47 52.5 77t62.5 30q19 0 32.5 -7.5
t28.5 -20.5q2 -2 9 -7.5t13.5 -8t12.5 -2.5q12 0 22.5 10t23.5 32l61 -34q-23 -50 -53.5 -78t-62.5 -28q-16 0 -28.5 6.5z" />
    <glyph glyph-name="Ograve" unicode="&#xd2;" horiz-adv-x="577" 
d="M509.5 642.5q54.5 -65.5 54.5 -192.5q0 -119 -34 -225t-105 -173.5t-177 -67.5q-102 0 -157 66t-55 191q0 118 33.5 224.5t105 174.5t177.5 68q103 0 157.5 -65.5zM248 539q-37 -63 -53.5 -152t-16.5 -169q0 -67 20 -97.5t59 -30.5q59 0 95.5 62.5t52.5 150.5t16 170
q0 67 -19.5 98t-59.5 31q-57 0 -94 -63zM325 928l165 -116l-41 -62l-183 81z" />
    <glyph glyph-name="Oacute" unicode="&#xd3;" horiz-adv-x="577" 
d="M509.5 642.5q54.5 -65.5 54.5 -192.5q0 -119 -34 -225t-105 -173.5t-177 -67.5q-102 0 -157 66t-55 191q0 118 33.5 224.5t105 174.5t177.5 68q103 0 157.5 -65.5zM248 539q-37 -63 -53.5 -152t-16.5 -169q0 -67 20 -97.5t59 -30.5q59 0 95.5 62.5t52.5 150.5t16 170
q0 67 -19.5 98t-59.5 31q-57 0 -94 -63zM446 930l48 -99l-206 -82l-32 65z" />
    <glyph glyph-name="Ocircumflex" unicode="&#xd4;" horiz-adv-x="577" 
d="M509.5 642.5q54.5 -65.5 54.5 -192.5q0 -119 -34 -225t-105 -173.5t-177 -67.5q-102 0 -157 66t-55 191q0 118 33.5 224.5t105 174.5t177.5 68q103 0 157.5 -65.5zM248 539q-37 -63 -53.5 -152t-16.5 -169q0 -67 20 -97.5t59 -30.5q59 0 95.5 62.5t52.5 150.5t16 170
q0 67 -19.5 98t-59.5 31q-57 0 -94 -63zM251 758l-50 55l135 125h81l102 -132l-53 -48l-99 83z" />
    <glyph glyph-name="Otilde" unicode="&#xd5;" horiz-adv-x="577" 
d="M509.5 642.5q54.5 -65.5 54.5 -192.5q0 -119 -34 -225t-105 -173.5t-177 -67.5q-102 0 -157 66t-55 191q0 118 33.5 224.5t105 174.5t177.5 68q103 0 157.5 -65.5zM248 539q-37 -63 -53.5 -152t-16.5 -169q0 -67 20 -97.5t59 -30.5q59 0 95.5 62.5t52.5 150.5t16 170
q0 67 -19.5 98t-59.5 31q-57 0 -94 -63zM385.5 774.5q-12.5 6.5 -29.5 19.5q-9 7 -18.5 13t-17.5 6q-13 0 -23.5 -10.5t-24.5 -33.5l-60 36q22 47 52.5 77t62.5 30q19 0 32.5 -7.5t28.5 -20.5q2 -2 9 -7.5t13.5 -8t12.5 -2.5q12 0 22.5 10t23.5 32l61 -34q-23 -50 -53.5 -78
t-62.5 -28q-16 0 -28.5 6.5z" />
    <glyph glyph-name="Odieresis" unicode="&#xd6;" horiz-adv-x="577" 
d="M509.5 642.5q54.5 -65.5 54.5 -192.5q0 -119 -34 -225t-105 -173.5t-177 -67.5q-102 0 -157 66t-55 191q0 118 33.5 224.5t105 174.5t177.5 68q103 0 157.5 -65.5zM248 539q-37 -63 -53.5 -152t-16.5 -169q0 -67 20 -97.5t59 -30.5q59 0 95.5 62.5t52.5 150.5t16 170
q0 67 -19.5 98t-59.5 31q-57 0 -94 -63zM220.5 789q-16.5 17 -16.5 44q0 35 23 58t54 23q29 0 46 -17t17 -45q0 -34 -22.5 -57t-55.5 -23q-29 0 -45.5 17zM412.5 789q-16.5 17 -16.5 44q0 35 22.5 58t54.5 23q28 0 45 -17t17 -45q0 -34 -22.5 -57t-54.5 -23q-29 0 -45.5 17z
" />
    <glyph glyph-name="multiply" unicode="&#xd7;" horiz-adv-x="433" 
d="M341 502l70 -68l-119 -128l94 -128l-86 -66l-88 122l-109 -122l-70 68l118 125l-93 130l86 67l86 -127z" />
    <glyph glyph-name="Oslash" unicode="&#xd8;" horiz-adv-x="577" 
d="M542.5 578.5q21.5 -54.5 21.5 -128.5q0 -119 -34 -225t-105 -173.5t-177 -67.5q-12 0 -34 2l-43 -118l-101 29l48 130q-39 33 -60.5 87.5t-21.5 126.5q0 118 33.5 224.5t105 174.5t177.5 68q12 0 32 -2l45 119l99 -29l-48 -130q41 -33 62.5 -87.5zM244 540
q-38 -63 -54.5 -152t-16.5 -170q0 -62 16 -91l168 475q-5 1 -15 1q-60 0 -98 -63zM356 151.5q38 62.5 54 151t16 170.5q0 60 -15 90l-168 -473q5 -1 14 -1q61 0 99 62.5z" />
    <glyph glyph-name="Ugrave" unicode="&#xd9;" horiz-adv-x="529" 
d="M475 192q-8 -58 -39 -105t-83.5 -74.5t-122.5 -27.5q-97 0 -147.5 50.5t-50.5 128.5q0 22 2 34l70 494h139l-71 -508q-2 -16 -2 -22q0 -32 17 -50.5t52 -18.5q42 0 66 27t31 69l70 503h140zM299 928l165 -116l-41 -62l-183 81z" />
    <glyph glyph-name="Uacute" unicode="&#xda;" horiz-adv-x="529" 
d="M475 192q-8 -58 -39 -105t-83.5 -74.5t-122.5 -27.5q-97 0 -147.5 50.5t-50.5 128.5q0 22 2 34l70 494h139l-71 -508q-2 -16 -2 -22q0 -32 17 -50.5t52 -18.5q42 0 66 27t31 69l70 503h140zM420 930l48 -99l-206 -82l-32 65z" />
    <glyph glyph-name="Ucircumflex" unicode="&#xdb;" horiz-adv-x="529" 
d="M475 192q-8 -58 -39 -105t-83.5 -74.5t-122.5 -27.5q-97 0 -147.5 50.5t-50.5 128.5q0 22 2 34l70 494h139l-71 -508q-2 -16 -2 -22q0 -32 17 -50.5t52 -18.5q42 0 66 27t31 69l70 503h140zM225 758l-50 55l135 125h81l102 -132l-53 -48l-99 83z" />
    <glyph glyph-name="Udieresis" unicode="&#xdc;" horiz-adv-x="529" 
d="M475 192q-8 -58 -39 -105t-83.5 -74.5t-122.5 -27.5q-97 0 -147.5 50.5t-50.5 128.5q0 22 2 34l70 494h139l-71 -508q-2 -16 -2 -22q0 -32 17 -50.5t52 -18.5q42 0 66 27t31 69l70 503h140zM194.5 789q-16.5 17 -16.5 44q0 35 23 58t54 23q29 0 46 -17t17 -45
q0 -34 -22.5 -57t-55.5 -23q-29 0 -45.5 17zM386.5 789q-16.5 17 -16.5 44q0 35 22.5 58t54.5 23q28 0 45 -17t17 -45q0 -34 -22.5 -57t-54.5 -23q-29 0 -45.5 17z" />
    <glyph glyph-name="Yacute" unicode="&#xdd;" horiz-adv-x="482" 
d="M550 692l-240 -431l-36 -261h-140l37 261l-118 431h146l57 -321l144 321h150zM395 930l48 -99l-206 -82l-32 65z" />
    <glyph glyph-name="Thorn" unicode="&#xde;" horiz-adv-x="488" 
d="M435 530.5q56 -48.5 56 -143.5q0 -75 -30 -136t-91 -96.5t-150 -35.5h-47l-17 -119h-140l97 692h140l-16 -113h37q105 0 161 -48.5zM319.5 268q28.5 46 28.5 118q0 49 -20.5 70t-65.5 21h-39l-36 -255h35q69 0 97.5 46z" />
    <glyph glyph-name="germandbls" unicode="&#xdf;" horiz-adv-x="492" 
d="M-91 -119q50 23 75 54t35 100l68 502q14 104 72 161.5t151 57.5q72 0 112 -37.5t40 -96.5q0 -43 -15 -70.5t-43 -57.5q-21 -24 -30 -38.5t-9 -35.5q0 -18 9 -33t28 -36q31 -37 48.5 -71.5t17.5 -92.5q0 -52 -20 -98t-62.5 -75t-105.5 -29q-54 0 -96 26l46 93
q20 -14 42 -14q31 0 45.5 25t14.5 62q0 32 -10 53.5t-31 53.5q-21 29 -32.5 54.5t-11.5 60.5q0 33 11.5 56.5t33.5 52.5q22 28 33 50.5t11 54.5q0 23 -10.5 34t-29.5 11q-29 0 -47.5 -30.5t-27.5 -91.5l-67 -492q-11 -79 -40.5 -129t-70.5 -79t-103 -55z" />
    <glyph glyph-name="agrave" unicode="&#xe0;" horiz-adv-x="481" 
d="M467 499l-51 -357q-3 -18 -3 -31t4.5 -21t16.5 -14l-42 -90q-39 5 -65.5 24t-35.5 54q-28 -40 -58.5 -60t-72.5 -20q-65 0 -101.5 50t-36.5 136q0 96 28.5 181.5t90 140t156.5 54.5q84 0 170 -47zM215 405.5q-29 -41.5 -43 -105.5t-14 -132q0 -44 11 -63t34 -19
q22 0 41 18.5t41 52.5l39 283q-19 7 -37 7q-43 0 -72 -41.5zM284 817l163 -126l-40 -62l-184 90z" />
    <glyph glyph-name="aacute" unicode="&#xe1;" horiz-adv-x="481" 
d="M467 499l-51 -357q-3 -18 -3 -31t4.5 -21t16.5 -14l-42 -90q-39 5 -65.5 24t-35.5 54q-28 -40 -58.5 -60t-72.5 -20q-65 0 -101.5 50t-36.5 136q0 96 28.5 181.5t90 140t156.5 54.5q84 0 170 -47zM215 405.5q-29 -41.5 -43 -105.5t-14 -132q0 -44 11 -63t34 -19
q22 0 41 18.5t41 52.5l39 283q-19 7 -37 7q-43 0 -72 -41.5zM396 819l47 -100l-205 -91l-35 65z" />
    <glyph glyph-name="acircumflex" unicode="&#xe2;" horiz-adv-x="481" 
d="M467 499l-51 -357q-3 -18 -3 -31t4.5 -21t16.5 -14l-42 -90q-39 5 -65.5 24t-35.5 54q-28 -40 -58.5 -60t-72.5 -20q-65 0 -101.5 50t-36.5 136q0 96 28.5 181.5t90 140t156.5 54.5q84 0 170 -47zM215 405.5q-29 -41.5 -43 -105.5t-14 -132q0 -44 11 -63t34 -19
q22 0 41 18.5t41 52.5l39 283q-19 7 -37 7q-43 0 -72 -41.5zM210 628l-47 55l136 129h81l101 -136l-57 -48l-94 88z" />
    <glyph glyph-name="atilde" unicode="&#xe3;" horiz-adv-x="481" 
d="M467 499l-51 -357q-3 -18 -3 -31t4.5 -21t16.5 -14l-42 -90q-39 5 -65.5 24t-35.5 54q-28 -40 -58.5 -60t-72.5 -20q-65 0 -101.5 50t-36.5 136q0 96 28.5 181.5t90 140t156.5 54.5q84 0 170 -47zM215 405.5q-29 -41.5 -43 -105.5t-14 -132q0 -44 11 -63t34 -19
q22 0 41 18.5t41 52.5l39 283q-19 7 -37 7q-43 0 -72 -41.5zM341.5 648.5q-12.5 6.5 -29.5 19.5q-9 7 -18.5 13t-17.5 6q-13 0 -23.5 -10.5t-24.5 -33.5l-60 36q22 47 52.5 77t62.5 30q19 0 32.5 -7.5t28.5 -20.5q2 -2 9 -7.5t13.5 -8t12.5 -2.5q12 0 22.5 10t23.5 32
l61 -34q-23 -50 -53.5 -78t-62.5 -28q-16 0 -28.5 6.5z" />
    <glyph glyph-name="adieresis" unicode="&#xe4;" horiz-adv-x="481" 
d="M467 499l-51 -357q-3 -18 -3 -31t4.5 -21t16.5 -14l-42 -90q-39 5 -65.5 24t-35.5 54q-28 -40 -58.5 -60t-72.5 -20q-65 0 -101.5 50t-36.5 136q0 96 28.5 181.5t90 140t156.5 54.5q84 0 170 -47zM215 405.5q-29 -41.5 -43 -105.5t-14 -132q0 -44 11 -63t34 -19
q22 0 41 18.5t41 52.5l39 283q-19 7 -37 7q-43 0 -72 -41.5zM177.5 663q-16.5 17 -16.5 44q0 35 23 58t54 23q29 0 46 -17t17 -45q0 -34 -22.5 -57t-55.5 -23q-29 0 -45.5 17zM369.5 663q-16.5 17 -16.5 44q0 35 22.5 58t54.5 23q28 0 45 -17t17 -45q0 -34 -22.5 -57
t-54.5 -23q-29 0 -45.5 17z" />
    <glyph glyph-name="aring" unicode="&#xe5;" horiz-adv-x="481" 
d="M467 499l-51 -357q-3 -18 -3 -31t4.5 -21t16.5 -14l-42 -90q-39 5 -65.5 24t-35.5 54q-28 -40 -58.5 -60t-72.5 -20q-65 0 -101.5 50t-36.5 136q0 96 28.5 181.5t90 140t156.5 54.5q84 0 170 -47zM215 405.5q-29 -41.5 -43 -105.5t-14 -132q0 -44 11 -63t34 -19
q22 0 41 18.5t41 52.5l39 283q-19 7 -37 7q-43 0 -72 -41.5zM416.5 825q27.5 -30 27.5 -78q0 -58 -36.5 -96.5t-93.5 -38.5q-48 0 -75.5 30t-27.5 78q0 57 36.5 96t93.5 39q48 0 75.5 -30zM301 768.5q-12 -18.5 -12 -45.5q0 -43 31 -43q21 0 33.5 19t12.5 45q0 43 -31 43
q-22 0 -34 -18.5z" />
    <glyph glyph-name="ae" unicode="&#xe6;" horiz-adv-x="700" 
d="M322.5 528.5q29.5 -16.5 51.5 -48.5q64 66 162 66q73 0 115.5 -38.5t42.5 -97.5q0 -103 -80 -151.5t-210 -64.5q0 -56 15.5 -81t53.5 -25q28 0 53.5 11t58.5 35l48 -81q-84 -69 -180 -69q-54 0 -94 21t-62 61q-35 -44 -73.5 -62.5t-81.5 -18.5q-63 0 -99.5 37.5
t-36.5 99.5q0 84 53 139.5t180 55.5h47q8 33 19 61q-6 31 -27.5 48t-53.5 17q-46 0 -115 -26l-18 92q85 36 157 36q45 0 74.5 -16.5zM450.5 402.5q-27.5 -48.5 -38.5 -121.5q77 9 114.5 41t37.5 83q0 22 -10.5 34t-31.5 12q-44 0 -71.5 -48.5zM239 236q-91 0 -91 -99
q0 -55 40 -55q20 0 40 16.5t44 52.5q-2 20 -2 33q0 16 3 52h-34z" />
    <glyph glyph-name="ccedilla" unicode="&#xe7;" horiz-adv-x="397" 
d="M194.5 363q-29.5 -77 -29.5 -174q0 -52 16 -74.5t46 -22.5q21 0 39 8t45 25l48 -82q-64 -51 -132 -58l-6 -40q36 -4 54.5 -25t18.5 -55q0 -47 -33.5 -83.5t-103.5 -36.5q-28 0 -51 8.5t-39 21.5l40 60q23 -13 48 -13q20 0 31.5 9.5t11.5 27.5t-15.5 25.5t-54.5 7.5l24 99
q-60 16 -93.5 68t-33.5 133q0 93 30 174t88.5 130.5t139.5 49.5q46 0 81 -16t63 -48l-66 -74q-20 17 -37 24.5t-37 7.5q-63 0 -92.5 -77z" />
    <glyph glyph-name="egrave" unicode="&#xe8;" horiz-adv-x="454" 
d="M405.5 507.5q42.5 -38.5 42.5 -97.5q0 -104 -80 -152.5t-210 -63.5v-14q0 -48 17.5 -70t51.5 -22q28 0 53.5 11t58.5 35l48 -81q-84 -69 -180 -69q-86 0 -134.5 51.5t-48.5 149.5q0 94 29 176.5t89 133.5t148 51q73 0 115.5 -38.5zM317 405q0 46 -41 46q-43 0 -70 -48.5
t-40 -121.5q151 17 151 124zM266 817l163 -126l-40 -62l-184 90z" />
    <glyph glyph-name="eacute" unicode="&#xe9;" horiz-adv-x="454" 
d="M405.5 507.5q42.5 -38.5 42.5 -97.5q0 -104 -80 -152.5t-210 -63.5v-14q0 -48 17.5 -70t51.5 -22q28 0 53.5 11t58.5 35l48 -81q-84 -69 -180 -69q-86 0 -134.5 51.5t-48.5 149.5q0 94 29 176.5t89 133.5t148 51q73 0 115.5 -38.5zM317 405q0 46 -41 46q-43 0 -70 -48.5
t-40 -121.5q151 17 151 124zM378 819l47 -100l-205 -91l-35 65z" />
    <glyph glyph-name="ecircumflex" unicode="&#xea;" horiz-adv-x="454" 
d="M405.5 507.5q42.5 -38.5 42.5 -97.5q0 -104 -80 -152.5t-210 -63.5v-14q0 -48 17.5 -70t51.5 -22q28 0 53.5 11t58.5 35l48 -81q-84 -69 -180 -69q-86 0 -134.5 51.5t-48.5 149.5q0 94 29 176.5t89 133.5t148 51q73 0 115.5 -38.5zM317 405q0 46 -41 46q-43 0 -70 -48.5
t-40 -121.5q151 17 151 124zM192 628l-47 55l136 129h81l101 -136l-57 -48l-94 88z" />
    <glyph glyph-name="edieresis" unicode="&#xeb;" horiz-adv-x="454" 
d="M405.5 507.5q42.5 -38.5 42.5 -97.5q0 -104 -80 -152.5t-210 -63.5v-14q0 -48 17.5 -70t51.5 -22q28 0 53.5 11t58.5 35l48 -81q-84 -69 -180 -69q-86 0 -134.5 51.5t-48.5 149.5q0 94 29 176.5t89 133.5t148 51q73 0 115.5 -38.5zM317 405q0 46 -41 46q-43 0 -70 -48.5
t-40 -121.5q151 17 151 124zM159.5 663q-16.5 17 -16.5 44q0 35 23 58t54 23q29 0 46 -17t17 -45q0 -34 -22.5 -57t-55.5 -23q-29 0 -45.5 17zM351.5 663q-16.5 17 -16.5 44q0 35 22.5 58t54.5 23q28 0 45 -17t17 -45q0 -34 -22.5 -57t-54.5 -23q-29 0 -45.5 17z" />
    <glyph glyph-name="igrave" unicode="&#xec;" horiz-adv-x="233" 
d="M221 530l-74 -530h-134l74 530h134zM136 817l163 -126l-40 -62l-184 90z" />
    <glyph glyph-name="iacute" unicode="&#xed;" horiz-adv-x="233" 
d="M221 530l-74 -530h-134l74 530h134zM248 819l47 -100l-205 -91l-35 65z" />
    <glyph glyph-name="icircumflex" unicode="&#xee;" horiz-adv-x="233" 
d="M221 530l-74 -530h-134l74 530h134zM62 628l-47 55l136 129h81l101 -136l-57 -48l-94 88z" />
    <glyph glyph-name="idieresis" unicode="&#xef;" horiz-adv-x="233" 
d="M221 530l-74 -530h-134l74 530h134zM29.5 663q-16.5 17 -16.5 44q0 35 23 58t54 23q29 0 46 -17t17 -45q0 -34 -22.5 -57t-55.5 -23q-29 0 -45.5 17zM221.5 663q-16.5 17 -16.5 44q0 35 22.5 58t54.5 23q28 0 45 -17t17 -45q0 -34 -22.5 -57t-54.5 -23q-29 0 -45.5 17z
" />
    <glyph glyph-name="eth" unicode="&#xf0;" horiz-adv-x="491" 
d="M436 551q25 -64 25 -154q0 -110 -29.5 -204t-88.5 -151t-143 -57q-82 0 -130 52t-48 145q0 71 26.5 139.5t74 112t106.5 43.5q34 0 59 -12.5t45 -36.5q-2 57 -14.5 92t-42.5 69l-56 -57l-73 41l63 66q-34 17 -74 27l37 89q55 -12 112 -42l76 77l59 -58l-64 -67
q55 -50 80 -114zM285.5 149q24.5 63 38.5 179q-23 52 -66 52q-52 0 -77.5 -64.5t-25.5 -141.5q0 -88 56 -88q50 0 74.5 63z" />
    <glyph glyph-name="ntilde" unicode="&#xf1;" horiz-adv-x="471" 
d="M418 513.5q28 -32.5 28 -89.5q0 -18 -3 -36l-55 -388h-134l51 370q1 7 1 20q0 36 -24 36q-21 0 -43 -30t-49 -86l-43 -310h-134l74 530h116l-4 -86q31 48 65.5 75t78.5 27q47 0 75 -32.5zM316.5 648.5q-12.5 6.5 -29.5 19.5q-9 7 -18.5 13t-17.5 6q-13 0 -23.5 -10.5
t-24.5 -33.5l-60 36q22 47 52.5 77t62.5 30q19 0 32.5 -7.5t28.5 -20.5q2 -2 9 -7.5t13.5 -8t12.5 -2.5q12 0 22.5 10t23.5 32l61 -34q-23 -50 -53.5 -78t-62.5 -28q-16 0 -28.5 6.5z" />
    <glyph glyph-name="ograve" unicode="&#xf2;" horiz-adv-x="487" 
d="M72 37q-47 53 -47 153q0 90 28 171.5t86.5 133t143.5 51.5t132 -53.5t47 -152.5q0 -89 -27.5 -170.5t-85.5 -133.5t-144 -52t-133 53zM278.5 130.5q25.5 44.5 37 107.5t11.5 121q0 84 -53 84q-40 0 -65.5 -44t-36.5 -106.5t-11 -120.5q0 -86 52 -86q40 0 65.5 44.5z
M264 817l163 -126l-40 -62l-184 90z" />
    <glyph glyph-name="oacute" unicode="&#xf3;" horiz-adv-x="487" 
d="M72 37q-47 53 -47 153q0 90 28 171.5t86.5 133t143.5 51.5t132 -53.5t47 -152.5q0 -89 -27.5 -170.5t-85.5 -133.5t-144 -52t-133 53zM278.5 130.5q25.5 44.5 37 107.5t11.5 121q0 84 -53 84q-40 0 -65.5 -44t-36.5 -106.5t-11 -120.5q0 -86 52 -86q40 0 65.5 44.5z
M376 819l47 -100l-205 -91l-35 65z" />
    <glyph glyph-name="ocircumflex" unicode="&#xf4;" horiz-adv-x="487" 
d="M72 37q-47 53 -47 153q0 90 28 171.5t86.5 133t143.5 51.5t132 -53.5t47 -152.5q0 -89 -27.5 -170.5t-85.5 -133.5t-144 -52t-133 53zM278.5 130.5q25.5 44.5 37 107.5t11.5 121q0 84 -53 84q-40 0 -65.5 -44t-36.5 -106.5t-11 -120.5q0 -86 52 -86q40 0 65.5 44.5z
M190 628l-47 55l136 129h81l101 -136l-57 -48l-94 88z" />
    <glyph glyph-name="otilde" unicode="&#xf5;" horiz-adv-x="487" 
d="M72 37q-47 53 -47 153q0 90 28 171.5t86.5 133t143.5 51.5t132 -53.5t47 -152.5q0 -89 -27.5 -170.5t-85.5 -133.5t-144 -52t-133 53zM278.5 130.5q25.5 44.5 37 107.5t11.5 121q0 84 -53 84q-40 0 -65.5 -44t-36.5 -106.5t-11 -120.5q0 -86 52 -86q40 0 65.5 44.5z
M321.5 648.5q-12.5 6.5 -29.5 19.5q-9 7 -18.5 13t-17.5 6q-13 0 -23.5 -10.5t-24.5 -33.5l-60 36q22 47 52.5 77t62.5 30q19 0 32.5 -7.5t28.5 -20.5q2 -2 9 -7.5t13.5 -8t12.5 -2.5q12 0 22.5 10t23.5 32l61 -34q-23 -50 -53.5 -78t-62.5 -28q-16 0 -28.5 6.5z" />
    <glyph glyph-name="odieresis" unicode="&#xf6;" horiz-adv-x="487" 
d="M72 37q-47 53 -47 153q0 90 28 171.5t86.5 133t143.5 51.5t132 -53.5t47 -152.5q0 -89 -27.5 -170.5t-85.5 -133.5t-144 -52t-133 53zM278.5 130.5q25.5 44.5 37 107.5t11.5 121q0 84 -53 84q-40 0 -65.5 -44t-36.5 -106.5t-11 -120.5q0 -86 52 -86q40 0 65.5 44.5z
M157.5 663q-16.5 17 -16.5 44q0 35 23 58t54 23q29 0 46 -17t17 -45q0 -34 -22.5 -57t-55.5 -23q-29 0 -45.5 17zM349.5 663q-16.5 17 -16.5 44q0 35 22.5 58t54.5 23q28 0 45 -17t17 -45q0 -34 -22.5 -57t-54.5 -23q-29 0 -45.5 17z" />
    <glyph glyph-name="divide" unicode="&#xf7;" horiz-adv-x="431" 
d="M136.5 33q-18.5 21 -18.5 52q0 38 25 65t63 27q33 0 52 -21t19 -52q0 -39 -25 -65.5t-64 -26.5q-33 0 -51.5 21zM202.5 506q-18.5 21 -18.5 52q0 38 25 65t63 27q33 0 52 -21t19 -52q0 -39 -25 -65.5t-64 -26.5q-33 0 -51.5 21zM45 278l14 108h346l-14 -108h-346z" />
    <glyph glyph-name="oslash" unicode="&#xf8;" horiz-adv-x="487" 
d="M445 438.5q17 -42.5 17 -98.5q0 -89 -27.5 -170.5t-85.5 -133.5t-144 -52q-16 0 -24 1l-46 -118l-93 30l50 123q-32 26 -49.5 69.5t-17.5 100.5q0 90 28 171.5t86.5 133t143.5 51.5q17 0 25 -1l45 118l94 -30l-51 -125q32 -27 49 -69.5zM203.5 407q-27.5 -43 -40 -107
t-12.5 -128q0 -37 7 -57l3 4l118 322l2 9h-7q-43 0 -70.5 -43zM283 122.5q28 43.5 40.5 108t12.5 128.5q0 32 -6 53l-3 -5l-116 -318l-3 -10h5q42 0 70 43.5z" />
    <glyph glyph-name="ugrave" unicode="&#xf9;" horiz-adv-x="466" 
d="M54.5 16q-28.5 32 -28.5 87q0 16 3 34l54 393h134l-53 -381q-1 -6 -1 -16q0 -33 24 -33q22 0 43 23.5t42 60.5l49 346h133l-74 -530h-116l4 78q-30 -45 -61 -69.5t-76 -24.5q-48 0 -76.5 32zM251 817l163 -126l-40 -62l-184 90z" />
    <glyph glyph-name="uacute" unicode="&#xfa;" horiz-adv-x="466" 
d="M54.5 16q-28.5 32 -28.5 87q0 16 3 34l54 393h134l-53 -381q-1 -6 -1 -16q0 -33 24 -33q22 0 43 23.5t42 60.5l49 346h133l-74 -530h-116l4 78q-30 -45 -61 -69.5t-76 -24.5q-48 0 -76.5 32zM363 819l47 -100l-205 -91l-35 65z" />
    <glyph glyph-name="ucircumflex" unicode="&#xfb;" horiz-adv-x="466" 
d="M54.5 16q-28.5 32 -28.5 87q0 16 3 34l54 393h134l-53 -381q-1 -6 -1 -16q0 -33 24 -33q22 0 43 23.5t42 60.5l49 346h133l-74 -530h-116l4 78q-30 -45 -61 -69.5t-76 -24.5q-48 0 -76.5 32zM177 628l-47 55l136 129h81l101 -136l-57 -48l-94 88z" />
    <glyph glyph-name="udieresis" unicode="&#xfc;" horiz-adv-x="466" 
d="M54.5 16q-28.5 32 -28.5 87q0 16 3 34l54 393h134l-53 -381q-1 -6 -1 -16q0 -33 24 -33q22 0 43 23.5t42 60.5l49 346h133l-74 -530h-116l4 78q-30 -45 -61 -69.5t-76 -24.5q-48 0 -76.5 32zM144.5 663q-16.5 17 -16.5 44q0 35 23 58t54 23q29 0 46 -17t17 -45
q0 -34 -22.5 -57t-55.5 -23q-29 0 -45.5 17zM336.5 663q-16.5 17 -16.5 44q0 35 22.5 58t54.5 23q28 0 45 -17t17 -45q0 -34 -22.5 -57t-54.5 -23q-29 0 -45.5 17z" />
    <glyph glyph-name="yacute" unicode="&#xfd;" horiz-adv-x="428" 
d="M261 -3q-42 -108 -108 -157.5t-172 -58.5l-2 94q66 13 99 38.5t60 86.5h-48l-54 530h139l13 -439l139 439h141zM346 819l47 -100l-205 -91l-35 65z" />
    <glyph glyph-name="thorn" unicode="&#xfe;" horiz-adv-x="490" 
d="M433 499q35 -47 35 -133q0 -102 -26 -188.5t-82 -140t-141 -53.5q-37 0 -73 13l-29 -202l-136 -16l136 962l136 15l-39 -273q23 30 55.5 46.5t67.5 16.5q61 0 96 -47zM278.5 129.5q27.5 44.5 40.5 109t13 124.5q0 44 -12 62.5t-35 18.5q-20 0 -42.5 -16t-42.5 -43
l-40 -290q24 -10 50 -10q41 0 68.5 44.5z" />
    <glyph glyph-name="ydieresis" unicode="&#xff;" horiz-adv-x="428" 
d="M261 -3q-42 -108 -108 -157.5t-172 -58.5l-2 94q66 13 99 38.5t60 86.5h-48l-54 530h139l13 -439l139 439h141zM127.5 663q-16.5 17 -16.5 44q0 35 23 58t54 23q29 0 46 -17t17 -45q0 -34 -22.5 -57t-55.5 -23q-29 0 -45.5 17zM319.5 663q-16.5 17 -16.5 44q0 35 22.5 58
t54.5 23q28 0 45 -17t17 -45q0 -34 -22.5 -57t-54.5 -23q-29 0 -45.5 17z" />
    <glyph glyph-name="Amacron" unicode="&#x100;" horiz-adv-x="493" 
d="M318 0l-8 157h-158l-50 -157h-145l265 692h169l70 -692h-143zM184 261h121l-16 332zM442 785h-248l14 96h249z" />
    <glyph glyph-name="amacron" unicode="&#x101;" horiz-adv-x="481" 
d="M467 499l-51 -357q-3 -18 -3 -31t4.5 -21t16.5 -14l-42 -90q-39 5 -65.5 24t-35.5 54q-28 -40 -58.5 -60t-72.5 -20q-65 0 -101.5 50t-36.5 136q0 96 28.5 181.5t90 140t156.5 54.5q84 0 170 -47zM215 405.5q-29 -41.5 -43 -105.5t-14 -132q0 -44 11 -63t34 -19
q22 0 41 18.5t41 52.5l39 283q-19 7 -37 7q-43 0 -72 -41.5zM442 659h-248l14 96h249z" />
    <glyph glyph-name="Abreve" unicode="&#x102;" horiz-adv-x="493" 
d="M318 0l-8 157h-158l-50 -157h-145l265 692h169l70 -692h-143zM184 261h121l-16 332zM223.5 791.5q-31.5 38.5 -31.5 96.5l1 16l72 12q5 -66 57 -66q28 0 47.5 18.5t30.5 50.5l73 -19q-14 -66 -54 -106.5t-104 -40.5q-60 0 -91.5 38.5z" />
    <glyph glyph-name="abreve" unicode="&#x103;" horiz-adv-x="481" 
d="M467 499l-51 -357q-3 -18 -3 -31t4.5 -21t16.5 -14l-42 -90q-39 5 -65.5 24t-35.5 54q-28 -40 -58.5 -60t-72.5 -20q-65 0 -101.5 50t-36.5 136q0 96 28.5 181.5t90 140t156.5 54.5q84 0 170 -47zM215 405.5q-29 -41.5 -43 -105.5t-14 -132q0 -44 11 -63t34 -19
q22 0 41 18.5t41 52.5l39 283q-19 7 -37 7q-43 0 -72 -41.5zM224.5 675q-32.5 39 -32.5 103q0 12 1 19l73 11q5 -75 56 -75q28 0 48.5 20.5t32.5 57.5l70 -18q-14 -71 -54 -114t-102 -43q-60 0 -92.5 39z" />
    <glyph glyph-name="Aogonek" unicode="&#x104;" horiz-adv-x="493" 
d="M285 -118q0 -35 38 -35q20 0 48 5l-20 -85q-30 -7 -57 -7q-48 0 -77.5 28t-29.5 76q0 49 31 88t99 70l-7 135h-158l-50 -157h-145l265 692h169l70 -692h-65q-111 -52 -111 -118zM184 261h121l-16 332z" />
    <glyph glyph-name="aogonek" unicode="&#x105;" horiz-adv-x="481" 
d="M413 111q0 -13 4.5 -21t16.5 -14l-42 -90q-111 -52 -111 -118q0 -35 38 -35q20 0 48 5l-20 -85q-30 -7 -57 -7q-48 0 -77.5 28t-29.5 76q0 51 33.5 90.5t106.5 71.5q-25 22 -32 52q-28 -40 -58.5 -60t-72.5 -20q-65 0 -101.5 50t-36.5 136q0 96 28.5 181.5t90 140
t156.5 54.5q84 0 170 -47l-51 -357q-3 -18 -3 -31zM324 440q-19 7 -37 7q-43 0 -72 -41.5t-43 -105.5t-14 -132q0 -44 11 -63t34 -19q22 0 41 18.5t41 52.5z" />
    <glyph glyph-name="Cacute" unicode="&#x106;" horiz-adv-x="477" 
d="M448 688.5q40 -19.5 72 -56.5l-74 -74q-43 43 -93 43q-60 0 -98.5 -56t-56 -139.5t-17.5 -168.5q0 -142 89 -142q30 0 55.5 13t61.5 40l52 -81q-89 -83 -195 -83q-95 0 -151 67t-56 194q0 120 35 225.5t107 171.5t176 66q53 0 93 -19.5zM448 930l48 -99l-206 -82l-32 65z
" />
    <glyph glyph-name="cacute" unicode="&#x107;" horiz-adv-x="397" 
d="M364 530q35 -16 63 -48l-66 -74q-20 17 -37 24.5t-37 7.5q-63 0 -92.5 -77t-29.5 -174q0 -52 16 -74.5t46 -22.5q21 0 39 8t45 25l48 -82q-72 -59 -153 -59q-85 0 -133 55t-48 153q0 93 30 174t88.5 130.5t139.5 49.5q46 0 81 -16zM373 819l47 -100l-205 -91l-35 65z" />
    <glyph glyph-name="Ccircumflex" unicode="&#x108;" horiz-adv-x="477" 
d="M448 688.5q40 -19.5 72 -56.5l-74 -74q-43 43 -93 43q-60 0 -98.5 -56t-56 -139.5t-17.5 -168.5q0 -142 89 -142q30 0 55.5 13t61.5 40l52 -81q-89 -83 -195 -83q-95 0 -151 67t-56 194q0 120 35 225.5t107 171.5t176 66q53 0 93 -19.5zM253 758l-50 55l135 125h81
l102 -132l-53 -48l-99 83z" />
    <glyph glyph-name="ccircumflex" unicode="&#x109;" horiz-adv-x="397" 
d="M364 530q35 -16 63 -48l-66 -74q-20 17 -37 24.5t-37 7.5q-63 0 -92.5 -77t-29.5 -174q0 -52 16 -74.5t46 -22.5q21 0 39 8t45 25l48 -82q-72 -59 -153 -59q-85 0 -133 55t-48 153q0 93 30 174t88.5 130.5t139.5 49.5q46 0 81 -16zM187 628l-47 55l136 129h81l101 -136
l-57 -48l-94 88z" />
    <glyph glyph-name="Cdotaccent" unicode="&#x10a;" horiz-adv-x="477" 
d="M448 688.5q40 -19.5 72 -56.5l-74 -74q-43 43 -93 43q-60 0 -98.5 -56t-56 -139.5t-17.5 -168.5q0 -142 89 -142q30 0 55.5 13t61.5 40l52 -81q-89 -83 -195 -83q-95 0 -151 67t-56 194q0 120 35 225.5t107 171.5t176 66q53 0 93 -19.5zM313.5 784q-18.5 19 -18.5 51
q0 40 25.5 65.5t62.5 25.5q34 0 53 -19t19 -51q0 -40 -26 -65.5t-63 -25.5q-34 0 -52.5 19z" />
    <glyph glyph-name="cdotaccent" unicode="&#x10b;" horiz-adv-x="397" 
d="M364 530q35 -16 63 -48l-66 -74q-20 17 -37 24.5t-37 7.5q-63 0 -92.5 -77t-29.5 -174q0 -52 16 -74.5t46 -22.5q21 0 39 8t45 25l48 -82q-72 -59 -153 -59q-85 0 -133 55t-48 153q0 93 30 174t88.5 130.5t139.5 49.5q46 0 81 -16zM241.5 658q-18.5 19 -18.5 51
q0 40 25.5 65.5t62.5 25.5q34 0 53 -19t19 -51q0 -40 -26 -65.5t-63 -25.5q-34 0 -52.5 19z" />
    <glyph glyph-name="Ccaron" unicode="&#x10c;" horiz-adv-x="477" 
d="M448 688.5q40 -19.5 72 -56.5l-74 -74q-43 43 -93 43q-60 0 -98.5 -56t-56 -139.5t-17.5 -168.5q0 -142 89 -142q30 0 55.5 13t61.5 40l52 -81q-89 -83 -195 -83q-95 0 -151 67t-56 194q0 120 35 225.5t107 171.5t176 66q53 0 93 -19.5zM486 931l50 -55l-135 -125h-81
l-103 132l54 48l98 -84z" />
    <glyph glyph-name="ccaron" unicode="&#x10d;" horiz-adv-x="397" 
d="M364 530q35 -16 63 -48l-66 -74q-20 17 -37 24.5t-37 7.5q-63 0 -92.5 -77t-29.5 -174q0 -52 16 -74.5t46 -22.5q21 0 39 8t45 25l48 -82q-72 -59 -153 -59q-85 0 -133 55t-48 153q0 93 30 174t88.5 130.5t139.5 49.5q46 0 81 -16zM418 800l46 -54l-134 -129h-82l-98 129
l52 54l95 -88z" />
    <glyph glyph-name="Dcaron" unicode="&#x10e;" horiz-adv-x="547" 
d="M465 638.5q68 -53.5 68 -187.5q0 -203 -83 -327t-260 -124h-174l97 692h168q116 0 184 -53.5zM238 588l-68 -484h43q65 0 105 53t57 133t17 165q0 73 -27.5 103t-79.5 30h-47zM449 931l50 -55l-135 -125h-81l-103 132l54 48l98 -84z" />
    <glyph glyph-name="dcaron" unicode="&#x10f;" horiz-adv-x="573" 
d="M509 741l-104 -741h-119l3 69q-27 -42 -58.5 -63.5t-73.5 -21.5q-64 0 -99 49.5t-35 138.5q0 91 25 177t75.5 141.5t121.5 55.5q64 0 95 -53l36 262zM209 401q-25 -44 -37 -108t-12 -121q0 -86 46 -86q23 0 44.5 22.5t44.5 65.5l32 227q-11 23 -24 33.5t-33 10.5
q-36 0 -61 -44zM559 753l98 -13l-68 -204l-68 8z" />
    <glyph glyph-name="Dcroat" unicode="&#x110;" horiz-adv-x="555" 
d="M472 638.5q68 -53.5 68 -187.5q0 -203 -83 -327t-260 -124h-174l43 309h-50l14 88h49l41 295h168q116 0 184 -53.5zM325 157q40 53 57 133t17 165q0 73 -27.5 103t-79.5 30h-47l-27 -191h106l-13 -88h-105l-29 -205h43q65 0 105 53z" />
    <glyph glyph-name="dcroat" unicode="&#x111;" horiz-adv-x="501" 
d="M537 599h-48l-84 -599h-119l3 69q-27 -42 -58.5 -63.5t-73.5 -21.5q-64 0 -99 49.5t-35 138.5q0 91 25 177t75.5 141.5t121.5 55.5q64 0 95 -53l15 106h-102l3 84h110l10 72l133 -14l-8 -58h49zM327 401q-11 23 -24 33.5t-33 10.5q-36 0 -61 -44t-37 -108t-12 -121
q0 -86 46 -86q23 0 44.5 22.5t44.5 65.5z" />
    <glyph glyph-name="Emacron" unicode="&#x112;" horiz-adv-x="427" 
d="M461 692l-31 -103h-192l-26 -186h170l-15 -102h-169l-28 -197h209l-15 -104h-348l97 692h348zM423 785h-248l14 96h249z" />
    <glyph glyph-name="emacron" unicode="&#x113;" horiz-adv-x="454" 
d="M405.5 507.5q42.5 -38.5 42.5 -97.5q0 -104 -80 -152.5t-210 -63.5v-14q0 -48 17.5 -70t51.5 -22q28 0 53.5 11t58.5 35l48 -81q-84 -69 -180 -69q-86 0 -134.5 51.5t-48.5 149.5q0 94 29 176.5t89 133.5t148 51q73 0 115.5 -38.5zM317 405q0 46 -41 46q-43 0 -70 -48.5
t-40 -121.5q151 17 151 124zM424 659h-248l14 96h249z" />
    <glyph glyph-name="Ebreve" unicode="&#x114;" horiz-adv-x="427" 
d="M461 692l-31 -103h-192l-26 -186h170l-15 -102h-169l-28 -197h209l-15 -104h-348l97 692h348zM204.5 791.5q-31.5 38.5 -31.5 96.5l1 16l72 12q5 -66 57 -66q28 0 47.5 18.5t30.5 50.5l73 -19q-14 -66 -54 -106.5t-104 -40.5q-60 0 -91.5 38.5z" />
    <glyph glyph-name="ebreve" unicode="&#x115;" horiz-adv-x="454" 
d="M405.5 507.5q42.5 -38.5 42.5 -97.5q0 -104 -80 -152.5t-210 -63.5v-14q0 -48 17.5 -70t51.5 -22q28 0 53.5 11t58.5 35l48 -81q-84 -69 -180 -69q-86 0 -134.5 51.5t-48.5 149.5q0 94 29 176.5t89 133.5t148 51q73 0 115.5 -38.5zM317 405q0 46 -41 46q-43 0 -70 -48.5
t-40 -121.5q151 17 151 124zM206.5 675q-32.5 39 -32.5 103q0 12 1 19l73 11q5 -75 56 -75q28 0 48.5 20.5t32.5 57.5l70 -18q-14 -71 -54 -114t-102 -43q-60 0 -92.5 39z" />
    <glyph glyph-name="Edotaccent" unicode="&#x116;" horiz-adv-x="427" 
d="M461 692l-31 -103h-192l-26 -186h170l-15 -102h-169l-28 -197h209l-15 -104h-348l97 692h348zM249.5 784q-18.5 19 -18.5 51q0 40 25.5 65.5t62.5 25.5q34 0 53 -19t19 -51q0 -40 -26 -65.5t-63 -25.5q-34 0 -52.5 19z" />
    <glyph glyph-name="edotaccent" unicode="&#x117;" horiz-adv-x="454" 
d="M405.5 507.5q42.5 -38.5 42.5 -97.5q0 -104 -80 -152.5t-210 -63.5v-14q0 -48 17.5 -70t51.5 -22q28 0 53.5 11t58.5 35l48 -81q-84 -69 -180 -69q-86 0 -134.5 51.5t-48.5 149.5q0 94 29 176.5t89 133.5t148 51q73 0 115.5 -38.5zM317 405q0 46 -41 46q-43 0 -70 -48.5
t-40 -121.5q151 17 151 124zM246.5 658q-18.5 19 -18.5 51q0 40 25.5 65.5t62.5 25.5q34 0 53 -19t19 -51q0 -40 -26 -65.5t-63 -25.5q-34 0 -52.5 19z" />
    <glyph glyph-name="Eogonek" unicode="&#x118;" horiz-adv-x="427" 
d="M238 589l-26 -186h170l-15 -102h-169l-28 -197h209l-15 -104h-32q-111 -52 -111 -118q0 -35 38 -35q20 0 48 5l-20 -85q-30 -7 -57 -7q-48 0 -77.5 28t-29.5 76q0 82 89 136h-196l97 692h348l-31 -103h-192z" />
    <glyph glyph-name="eogonek" unicode="&#x119;" horiz-adv-x="454" 
d="M405.5 507.5q42.5 -38.5 42.5 -97.5q0 -104 -80 -152.5t-210 -63.5v-14q0 -48 17.5 -70t51.5 -22q28 0 53.5 11t58.5 35l48 -81q-41 -35 -87 -52q-94 -47 -94 -107q0 -39 38 -39q22 0 52 8l-20 -88q-32 -7 -58 -7q-49 0 -80.5 26.5t-31.5 69.5q0 76 79 121
q-76 7 -118.5 58t-42.5 142q0 94 29 176.5t89 133.5t148 51q73 0 115.5 -38.5zM317 405q0 46 -41 46q-43 0 -70 -48.5t-40 -121.5q151 17 151 124z" />
    <glyph glyph-name="Ecaron" unicode="&#x11a;" horiz-adv-x="427" 
d="M461 692l-31 -103h-192l-26 -186h170l-15 -102h-169l-28 -197h209l-15 -104h-348l97 692h348zM422 931l50 -55l-135 -125h-81l-103 132l54 48l98 -84z" />
    <glyph glyph-name="ecaron" unicode="&#x11b;" horiz-adv-x="454" 
d="M405.5 507.5q42.5 -38.5 42.5 -97.5q0 -104 -80 -152.5t-210 -63.5v-14q0 -48 17.5 -70t51.5 -22q28 0 53.5 11t58.5 35l48 -81q-84 -69 -180 -69q-86 0 -134.5 51.5t-48.5 149.5q0 94 29 176.5t89 133.5t148 51q73 0 115.5 -38.5zM317 405q0 46 -41 46q-43 0 -70 -48.5
t-40 -121.5q151 17 151 124zM423 800l46 -54l-134 -129h-82l-98 129l52 54l95 -88z" />
    <glyph glyph-name="Gcircumflex" unicode="&#x11c;" horiz-adv-x="536" 
d="M549 624l-78 -70q-26 26 -50 37.5t-55 11.5q-66 0 -108.5 -58t-61.5 -146t-19 -181q0 -66 20.5 -96.5t59.5 -30.5q41 0 84 26l24 174h-71l2 102h216l-47 -338q-51 -34 -107 -52t-109 -18q-106 0 -160 63.5t-54 188.5q0 121 38 229t114 175t182 67q109 0 180 -84zM261 758
l-50 55l135 125h81l102 -132l-53 -48l-99 83z" />
    <glyph glyph-name="gcircumflex" unicode="&#x11d;" horiz-adv-x="481" 
d="M468 499l-67 -482q-18 -123 -75.5 -180t-159.5 -57q-92 0 -167 53l49 90q61 -37 114 -37q42 0 69.5 24.5t36.5 90.5l9 67q-24 -33 -51.5 -50.5t-65.5 -17.5q-64 0 -100 49.5t-36 133.5q0 93 28 175.5t89.5 135t156.5 52.5q84 0 170 -47zM192.5 367q-32.5 -80 -32.5 -186
q0 -42 11.5 -61t33.5 -19q38 0 84 71l37 268q-19 7 -38 7q-63 0 -95.5 -80zM201 628l-47 55l136 129h81l101 -136l-57 -48l-94 88z" />
    <glyph glyph-name="Gbreve" unicode="&#x11e;" horiz-adv-x="536" 
d="M549 624l-78 -70q-26 26 -50 37.5t-55 11.5q-66 0 -108.5 -58t-61.5 -146t-19 -181q0 -66 20.5 -96.5t59.5 -30.5q41 0 84 26l24 174h-71l2 102h216l-47 -338q-51 -34 -107 -52t-109 -18q-106 0 -160 63.5t-54 188.5q0 121 38 229t114 175t182 67q109 0 180 -84z
M276.5 791.5q-31.5 38.5 -31.5 96.5l1 16l72 12q5 -66 57 -66q28 0 47.5 18.5t30.5 50.5l73 -19q-14 -66 -54 -106.5t-104 -40.5q-60 0 -91.5 38.5z" />
    <glyph glyph-name="gbreve" unicode="&#x11f;" horiz-adv-x="481" 
d="M468 499l-67 -482q-18 -123 -75.5 -180t-159.5 -57q-92 0 -167 53l49 90q61 -37 114 -37q42 0 69.5 24.5t36.5 90.5l9 67q-24 -33 -51.5 -50.5t-65.5 -17.5q-64 0 -100 49.5t-36 133.5q0 93 28 175.5t89.5 135t156.5 52.5q84 0 170 -47zM192.5 367q-32.5 -80 -32.5 -186
q0 -42 11.5 -61t33.5 -19q38 0 84 71l37 268q-19 7 -38 7q-63 0 -95.5 -80zM215.5 675q-32.5 39 -32.5 103q0 12 1 19l73 11q5 -75 56 -75q28 0 48.5 20.5t32.5 57.5l70 -18q-14 -71 -54 -114t-102 -43q-60 0 -92.5 39z" />
    <glyph glyph-name="Gdotaccent" unicode="&#x120;" horiz-adv-x="536" 
d="M549 624l-78 -70q-26 26 -50 37.5t-55 11.5q-66 0 -108.5 -58t-61.5 -146t-19 -181q0 -66 20.5 -96.5t59.5 -30.5q41 0 84 26l24 174h-71l2 102h216l-47 -338q-51 -34 -107 -52t-109 -18q-106 0 -160 63.5t-54 188.5q0 121 38 229t114 175t182 67q109 0 180 -84z
M321.5 784q-18.5 19 -18.5 51q0 40 25.5 65.5t62.5 25.5q34 0 53 -19t19 -51q0 -40 -26 -65.5t-63 -25.5q-34 0 -52.5 19z" />
    <glyph glyph-name="gdotaccent" unicode="&#x121;" horiz-adv-x="481" 
d="M468 499l-67 -482q-18 -123 -75.5 -180t-159.5 -57q-92 0 -167 53l49 90q61 -37 114 -37q42 0 69.5 24.5t36.5 90.5l9 67q-24 -33 -51.5 -50.5t-65.5 -17.5q-64 0 -100 49.5t-36 133.5q0 93 28 175.5t89.5 135t156.5 52.5q84 0 170 -47zM192.5 367q-32.5 -80 -32.5 -186
q0 -42 11.5 -61t33.5 -19q38 0 84 71l37 268q-19 7 -38 7q-63 0 -95.5 -80zM255.5 658q-18.5 19 -18.5 51q0 40 25.5 65.5t62.5 25.5q34 0 53 -19t19 -51q0 -40 -26 -65.5t-63 -25.5q-34 0 -52.5 19z" />
    <glyph glyph-name="Gcommaaccent" unicode="&#x122;" horiz-adv-x="536" 
d="M549 624l-78 -70q-26 26 -50 37.5t-55 11.5q-66 0 -108.5 -58t-61.5 -146t-19 -181q0 -66 20.5 -96.5t59.5 -30.5q41 0 84 26l24 174h-71l2 102h216l-47 -338q-51 -34 -107 -52t-109 -18q-106 0 -160 63.5t-54 188.5q0 121 38 229t114 175t182 67q109 0 180 -84z
M282 -88.5q17 -17.5 17 -43.5q0 -21 -7.5 -40t-27.5 -54l-51 -89h-66l40 117q-24 19 -24 48q0 35 21.5 57t52.5 22q28 0 45 -17.5z" />
    <glyph glyph-name="gcommaaccent" unicode="&#x123;" horiz-adv-x="481" 
d="M468 499l-67 -482q-18 -123 -75.5 -180t-159.5 -57q-92 0 -167 53l49 90q61 -37 114 -37q42 0 69.5 24.5t36.5 90.5l9 67q-24 -33 -51.5 -50.5t-65.5 -17.5q-64 0 -100 49.5t-36 133.5q0 93 28 175.5t89.5 135t156.5 52.5q84 0 170 -47zM192.5 367q-32.5 -80 -32.5 -186
q0 -42 11.5 -61t33.5 -19q38 0 84 71l37 268q-19 7 -38 7q-63 0 -95.5 -80zM258 603.5q-17 17.5 -17 43.5q0 21 7.5 40t27.5 54l51 89h66l-40 -117q24 -19 24 -48q0 -35 -21.5 -57t-52.5 -22q-28 0 -45 17.5z" />
    <glyph glyph-name="Hcircumflex" unicode="&#x124;" horiz-adv-x="544" 
d="M155 0h-139l97 692h140l-40 -275h160l38 275h140l-97 -692h-140l43 305h-159zM233 758l-50 55l135 125h81l102 -132l-53 -48l-99 83z" />
    <glyph glyph-name="hcircumflex" unicode="&#x125;" horiz-adv-x="470" 
d="M417 513.5q28 -32.5 28 -89.5q0 -18 -3 -36l-55 -388h-134l51 370q1 7 1 20q0 36 -24 36q-21 0 -43 -30t-49 -86l-43 -310h-134l104 741l136 14l-43 -305q56 96 133 96q47 0 75 -32.5zM203 807l-50 55l135 125h81l102 -132l-53 -48l-99 83z" />
    <glyph glyph-name="Hbar" unicode="&#x126;" horiz-adv-x="552" 
d="M585 586l-13 -83h-42l-71 -503h-140l43 305h-159l-43 -305h-139l71 503h-46l12 83h45l15 106h140l-15 -106h158l15 106h140l-15 -106h44zM378 417l12 86h-159l-13 -86h160z" />
    <glyph glyph-name="hbar" unicode="&#x127;" horiz-adv-x="478" 
d="M425 513.5q28 -32.5 28 -89.5q0 -18 -3 -36l-55 -388h-134l51 370q1 7 1 20q0 36 -24 36q-21 0 -43 -30t-49 -86l-43 -310h-134l84 599h-47l12 84h47l8 58l136 14l-10 -72h112l-23 -84h-101l-21 -149q56 96 133 96q47 0 75 -32.5z" />
    <glyph glyph-name="Itilde" unicode="&#x128;" horiz-adv-x="246" 
d="M253 692l-98 -692h-139l97 692h140zM218.5 774.5q-12.5 6.5 -29.5 19.5q-9 7 -18.5 13t-17.5 6q-13 0 -23.5 -10.5t-24.5 -33.5l-60 36q22 47 52.5 77t62.5 30q19 0 32.5 -7.5t28.5 -20.5q2 -2 9 -7.5t13.5 -8t12.5 -2.5q12 0 22.5 10t23.5 32l61 -34q-23 -50 -53.5 -78
t-62.5 -28q-16 0 -28.5 6.5z" />
    <glyph glyph-name="itilde" unicode="&#x129;" horiz-adv-x="233" 
d="M221 530l-74 -530h-134l74 530h134zM193.5 648.5q-12.5 6.5 -29.5 19.5q-9 7 -18.5 13t-17.5 6q-13 0 -23.5 -10.5t-24.5 -33.5l-60 36q22 47 52.5 77t62.5 30q19 0 32.5 -7.5t28.5 -20.5q2 -2 9 -7.5t13.5 -8t12.5 -2.5q12 0 22.5 10t23.5 32l61 -34q-23 -50 -53.5 -78
t-62.5 -28q-16 0 -28.5 6.5z" />
    <glyph glyph-name="Imacron" unicode="&#x12a;" horiz-adv-x="246" 
d="M253 692l-98 -692h-139l97 692h140zM318 785h-248l14 96h249z" />
    <glyph glyph-name="imacron" unicode="&#x12b;" horiz-adv-x="233" 
d="M221 530l-74 -530h-134l74 530h134zM294 659h-248l14 96h249z" />
    <glyph glyph-name="Ibreve" unicode="&#x12c;" horiz-adv-x="246" 
d="M253 692l-98 -692h-139l97 692h140zM99.5 791.5q-31.5 38.5 -31.5 96.5l1 16l72 12q5 -66 57 -66q28 0 47.5 18.5t30.5 50.5l73 -19q-14 -66 -54 -106.5t-104 -40.5q-60 0 -91.5 38.5z" />
    <glyph glyph-name="ibreve" unicode="&#x12d;" horiz-adv-x="233" 
d="M221 530l-74 -530h-134l74 530h134zM76.5 675q-32.5 39 -32.5 103q0 12 1 19l73 11q5 -75 56 -75q28 0 48.5 20.5t32.5 57.5l70 -18q-14 -71 -54 -114t-102 -43q-60 0 -92.5 39z" />
    <glyph glyph-name="Iogonek" unicode="&#x12e;" horiz-adv-x="246" 
d="M253 692l-98 -692h-33q-111 -52 -111 -118q0 -35 38 -35q20 0 48 5l-20 -85q-30 -7 -57 -7q-48 0 -77.5 28t-29.5 76q0 44 25 80t79 65l96 683h140z" />
    <glyph glyph-name="iogonek" unicode="&#x12f;" horiz-adv-x="233" 
d="M239 781q19 -19 19 -51q0 -40 -26 -65.5t-63 -25.5q-34 0 -52.5 19t-18.5 51q0 40 25.5 65.5t62.5 25.5q34 0 53 -19zM87 530h134l-74 -530h-33q-111 -52 -111 -118q0 -35 38 -35q20 0 48 5l-20 -85q-30 -7 -57 -7q-48 0 -77.5 28t-29.5 76q0 45 26.5 81.5t83.5 66.5z
" />
    <glyph glyph-name="Idotaccent" unicode="&#x130;" horiz-adv-x="246" 
d="M253 692l-98 -692h-139l97 692h140zM144.5 784q-18.5 19 -18.5 51q0 40 25.5 65.5t62.5 25.5q34 0 53 -19t19 -51q0 -40 -26 -65.5t-63 -25.5q-34 0 -52.5 19z" />
    <glyph glyph-name="dotlessi" unicode="&#x131;" horiz-adv-x="233" 
d="M221 530l-74 -530h-134l74 530h134z" />
    <glyph glyph-name="IJ" unicode="&#x132;" horiz-adv-x="512" 
d="M253 692l-98 -692h-139l97 692h140zM438 96q-11 -80 -42 -129.5t-74 -76.5t-105 -49l-25 97q55 28 76.5 63t31.5 106l82 585h140z" />
    <glyph glyph-name="ij" unicode="&#x133;" horiz-adv-x="467" 
d="M221 530l-74 -530h-134l74 530h134zM116.5 658q-18.5 19 -18.5 51q0 40 25.5 65.5t62.5 25.5q34 0 53 -19t19 -51q0 -40 -26 -65.5t-63 -25.5q-34 0 -52.5 19zM142 -119q35 15 56 32.5t35 48.5t21 83l67 485h135l-69 -486q-12 -82 -41 -132t-69 -77.5t-104 -53.5z
M352.5 658q-18.5 19 -18.5 51q0 40 25.5 65.5t62.5 25.5q34 0 53 -19t19 -51q0 -40 -26 -65.5t-63 -25.5q-34 0 -52.5 19z" />
    <glyph glyph-name="Jcircumflex" unicode="&#x134;" horiz-adv-x="266" 
d="M192 96q-11 -80 -42 -129.5t-74 -76.5t-105 -49l-25 97q55 28 76.5 63t31.5 106l82 585h140zM107 758l-50 55l135 125h81l102 -132l-53 -48l-99 83z" />
    <glyph glyph-name="jcircumflex" unicode="&#x135;" horiz-adv-x="234" 
d="M-91 -119q35 15 56 32.5t35 48.5t21 83l67 485h135l-69 -486q-12 -82 -41 -132t-69 -77.5t-104 -53.5zM65 628l-47 55l136 129h81l101 -136l-57 -48l-94 88z" />
    <glyph glyph-name="Kcommaaccent" unicode="&#x136;" horiz-adv-x="528" 
d="M16 0l97 692h140l-98 -692h-139zM341 0l-129 369l221 323h142l-221 -322l139 -370h-152zM267 -88.5q17 -17.5 17 -43.5q0 -21 -7.5 -40t-27.5 -54l-51 -89h-66l40 117q-24 19 -24 48q0 35 21.5 57t52.5 22q28 0 45 -17.5z" />
    <glyph glyph-name="kcommaaccent" unicode="&#x137;" horiz-adv-x="477" 
d="M211 457q32 45 67.5 66.5t79.5 21.5q54 0 87 -32.5t33 -85.5q0 -60 -31.5 -105t-98.5 -82l76 -240h-140l-72 257q71 27 100.5 62.5t29.5 84.5q0 21 -9.5 32.5t-26.5 11.5q-26 0 -55.5 -30t-58.5 -89l-45 -329h-135l104 741l136 15zM246 -88.5q17 -17.5 17 -43.5
q0 -21 -7.5 -40t-27.5 -54l-51 -89h-66l40 117q-24 19 -24 48q0 35 21.5 57t52.5 22q28 0 45 -17.5z" />
    <glyph glyph-name="kgreenlandic" unicode="&#x138;" horiz-adv-x="454" 
d="M221 530l-74 -530h-134l74 530h134zM488 530l-163 -249l98 -281h-142l-92 280l160 250h139z" />
    <glyph glyph-name="Lacute" unicode="&#x139;" horiz-adv-x="413" 
d="M253 692l-82 -578h219l-32 -114h-342l97 692h140zM279 930l48 -99l-206 -82l-32 65z" />
    <glyph glyph-name="lacute" unicode="&#x13a;" horiz-adv-x="246" 
d="M159 125q-1 -4 -1 -11q0 -20 18 -20q10 0 20 3l13 -94q-39 -18 -83 -18q-50 0 -76.5 28t-26.5 78q0 9 2 29l86 621l135 15zM273 979l48 -99l-206 -82l-32 65z" />
    <glyph glyph-name="Lcommaaccent" unicode="&#x13b;" horiz-adv-x="413" 
d="M253 692l-82 -578h219l-32 -114h-342l97 692h140zM224 -88.5q17 -17.5 17 -43.5q0 -21 -7.5 -40t-27.5 -54l-51 -89h-66l40 117q-24 19 -24 48q0 35 21.5 57t52.5 22q28 0 45 -17.5z" />
    <glyph glyph-name="lcommaaccent" unicode="&#x13c;" horiz-adv-x="246" 
d="M159 125q-1 -4 -1 -11q0 -20 18 -20q10 0 20 3l13 -94q-39 -18 -83 -18q-50 0 -76.5 28t-26.5 78q0 9 2 29l86 621l135 15zM149 -88.5q17 -17.5 17 -43.5q0 -21 -7.5 -40t-27.5 -54l-51 -89h-66l40 117q-24 19 -24 48q0 35 21.5 57t52.5 22q28 0 45 -17.5z" />
    <glyph glyph-name="Lcaron" unicode="&#x13d;" horiz-adv-x="413" 
d="M253 692l-82 -578h219l-32 -114h-342l97 692h140zM300 704l98 -13l-68 -204l-68 8z" />
    <glyph glyph-name="lcaron" unicode="&#x13e;" horiz-adv-x="294" 
d="M159 125q-1 -4 -1 -11q0 -20 18 -20q10 0 20 3l13 -94q-39 -18 -83 -18q-50 0 -76.5 28t-26.5 78q0 9 2 29l86 621l135 15zM288 753l98 -13l-68 -204l-68 8z" />
    <glyph glyph-name="Ldot" unicode="&#x13f;" horiz-adv-x="413" 
d="M253 692l-82 -578h219l-32 -114h-342l97 692h140zM283.5 332q-18.5 19 -18.5 51q0 40 25.5 65.5t62.5 25.5q34 0 53 -19t19 -51q0 -40 -26 -65.5t-63 -25.5q-34 0 -52.5 19z" />
    <glyph glyph-name="ldot" unicode="&#x140;" horiz-adv-x="363" 
d="M159 125q-1 -4 -1 -11q0 -20 18 -20q10 0 20 3l13 -94q-39 -18 -83 -18q-50 0 -76.5 28t-26.5 78q0 9 2 29l86 621l135 15zM246.5 314q-18.5 19 -18.5 51q0 40 25.5 65.5t62.5 25.5q34 0 53 -19t19 -51q0 -40 -26 -65.5t-63 -25.5q-34 0 -52.5 19z" />
    <glyph glyph-name="Lslash" unicode="&#x141;" horiz-adv-x="446" 
d="M203 114h219l-32 -114h-342l33 234l-36 -25l-37 70l87 57l50 356h140l-36 -255l109 72l38 -70l-162 -105z" />
    <glyph glyph-name="lslash" unicode="&#x142;" horiz-adv-x="283" 
d="M219 97l13 -94q-39 -18 -83 -18q-50 0 -76.5 28t-26.5 78q0 9 2 29l22 158l-36 -23l-27 77l77 49l50 360l135 15l-39 -282l55 35l26 -79l-95 -60l-34 -245q-1 -4 -1 -11q0 -20 18 -20q10 0 20 3z" />
    <glyph glyph-name="Nacute" unicode="&#x143;" horiz-adv-x="542" 
d="M451 0h-169l-91 573v-44q0 -127 -16 -259l-36 -270h-123l97 692h170l90 -574v49q0 61 2.5 110.5t10.5 109.5l41 305h121zM430 930l48 -99l-206 -82l-32 65z" />
    <glyph glyph-name="nacute" unicode="&#x144;" horiz-adv-x="471" 
d="M418 513.5q28 -32.5 28 -89.5q0 -18 -3 -36l-55 -388h-134l51 370q1 7 1 20q0 36 -24 36q-21 0 -43 -30t-49 -86l-43 -310h-134l74 530h116l-4 -86q31 48 65.5 75t78.5 27q47 0 75 -32.5zM371 819l47 -100l-205 -91l-35 65z" />
    <glyph glyph-name="Ncommaaccent" unicode="&#x145;" horiz-adv-x="542" 
d="M451 0h-169l-91 573v-44q0 -127 -16 -259l-36 -270h-123l97 692h170l90 -574v49q0 61 2.5 110.5t10.5 109.5l41 305h121zM271 -88.5q17 -17.5 17 -43.5q0 -21 -7.5 -40t-27.5 -54l-51 -89h-66l40 117q-24 19 -24 48q0 35 21.5 57t52.5 22q28 0 45 -17.5z" />
    <glyph glyph-name="ncommaaccent" unicode="&#x146;" horiz-adv-x="471" 
d="M418 513.5q28 -32.5 28 -89.5q0 -18 -3 -36l-55 -388h-134l51 370q1 7 1 20q0 36 -24 36q-21 0 -43 -30t-49 -86l-43 -310h-134l74 530h116l-4 -86q31 48 65.5 75t78.5 27q47 0 75 -32.5zM231 -88.5q17 -17.5 17 -43.5q0 -21 -7.5 -40t-27.5 -54l-51 -89h-66l40 117
q-24 19 -24 48q0 35 21.5 57t52.5 22q28 0 45 -17.5z" />
    <glyph glyph-name="Ncaron" unicode="&#x147;" horiz-adv-x="542" 
d="M451 0h-169l-91 573v-44q0 -127 -16 -259l-36 -270h-123l97 692h170l90 -574v49q0 61 2.5 110.5t10.5 109.5l41 305h121zM468 931l50 -55l-135 -125h-81l-103 132l54 48l98 -84z" />
    <glyph glyph-name="ncaron" unicode="&#x148;" horiz-adv-x="471" 
d="M418 513.5q28 -32.5 28 -89.5q0 -18 -3 -36l-55 -388h-134l51 370q1 7 1 20q0 36 -24 36q-21 0 -43 -30t-49 -86l-43 -310h-134l74 530h116l-4 -86q31 48 65.5 75t78.5 27q47 0 75 -32.5zM416 800l46 -54l-134 -129h-82l-98 129l52 54l95 -88z" />
    <glyph glyph-name="napostrophe" unicode="&#x149;" horiz-adv-x="577" 
d="M197.5 741q15.5 -16 15.5 -39q0 -19 -6.5 -35.5t-25.5 -49.5l-46 -81h-59l37 108q-21 15 -21 43q0 30 19 50t46 20q25 0 40.5 -16zM524 513.5q28 -32.5 28 -89.5q0 -18 -3 -36l-55 -388h-134l51 370q1 7 1 20q0 36 -24 36q-21 0 -43 -30t-49 -86l-43 -310h-134l74 530
h116l-4 -86q31 48 65.5 75t78.5 27q47 0 75 -32.5z" />
    <glyph glyph-name="Eng" unicode="&#x14a;" horiz-adv-x="542" 
d="M548 692l-97 -692l-8 -52q-12 -81 -62 -124t-123 -43q-40 0 -67.5 11.5t-48.5 30.5l57 81q15 -9 25.5 -13.5t25.5 -4.5q22 0 36.5 15t18.5 43l7 56h-30l-91 573v-44q0 -127 -16 -259l-36 -270h-123l97 692h170l90 -574v49q0 61 2.5 110.5t10.5 109.5l41 305h121z" />
    <glyph glyph-name="eng" unicode="&#x14b;" horiz-adv-x="471" 
d="M418 513.5q28 -32.5 28 -89.5q0 -18 -3 -36l-55 -388l-8 -55q-11 -82 -60 -123t-124 -41q-38 0 -64.5 11.5t-48.5 31.5l57 77q16 -10 27 -14t27 -4q22 0 35 14t16 40l9 63l51 370q1 7 1 20q0 36 -24 36q-21 0 -43 -30t-49 -86l-43 -310h-134l74 530h116l-4 -86
q31 48 65.5 75t78.5 27q47 0 75 -32.5z" />
    <glyph glyph-name="Omacron" unicode="&#x14c;" horiz-adv-x="577" 
d="M509.5 642.5q54.5 -65.5 54.5 -192.5q0 -119 -34 -225t-105 -173.5t-177 -67.5q-102 0 -157 66t-55 191q0 118 33.5 224.5t105 174.5t177.5 68q103 0 157.5 -65.5zM248 539q-37 -63 -53.5 -152t-16.5 -169q0 -67 20 -97.5t59 -30.5q59 0 95.5 62.5t52.5 150.5t16 170
q0 67 -19.5 98t-59.5 31q-57 0 -94 -63zM485 785h-248l14 96h249z" />
    <glyph glyph-name="omacron" unicode="&#x14d;" horiz-adv-x="487" 
d="M72 37q-47 53 -47 153q0 90 28 171.5t86.5 133t143.5 51.5t132 -53.5t47 -152.5q0 -89 -27.5 -170.5t-85.5 -133.5t-144 -52t-133 53zM278.5 130.5q25.5 44.5 37 107.5t11.5 121q0 84 -53 84q-40 0 -65.5 -44t-36.5 -106.5t-11 -120.5q0 -86 52 -86q40 0 65.5 44.5z
M422 659h-248l14 96h249z" />
    <glyph glyph-name="Obreve" unicode="&#x14e;" horiz-adv-x="577" 
d="M509.5 642.5q54.5 -65.5 54.5 -192.5q0 -119 -34 -225t-105 -173.5t-177 -67.5q-102 0 -157 66t-55 191q0 118 33.5 224.5t105 174.5t177.5 68q103 0 157.5 -65.5zM248 539q-37 -63 -53.5 -152t-16.5 -169q0 -67 20 -97.5t59 -30.5q59 0 95.5 62.5t52.5 150.5t16 170
q0 67 -19.5 98t-59.5 31q-57 0 -94 -63zM266.5 791.5q-31.5 38.5 -31.5 96.5l1 16l72 12q5 -66 57 -66q28 0 47.5 18.5t30.5 50.5l73 -19q-14 -66 -54 -106.5t-104 -40.5q-60 0 -91.5 38.5z" />
    <glyph glyph-name="obreve" unicode="&#x14f;" horiz-adv-x="487" 
d="M72 37q-47 53 -47 153q0 90 28 171.5t86.5 133t143.5 51.5t132 -53.5t47 -152.5q0 -89 -27.5 -170.5t-85.5 -133.5t-144 -52t-133 53zM278.5 130.5q25.5 44.5 37 107.5t11.5 121q0 84 -53 84q-40 0 -65.5 -44t-36.5 -106.5t-11 -120.5q0 -86 52 -86q40 0 65.5 44.5z
M204.5 675q-32.5 39 -32.5 103q0 12 1 19l73 11q5 -75 56 -75q28 0 48.5 20.5t32.5 57.5l70 -18q-14 -71 -54 -114t-102 -43q-60 0 -92.5 39z" />
    <glyph glyph-name="Ohungarumlaut" unicode="&#x150;" horiz-adv-x="577" 
d="M509.5 642.5q54.5 -65.5 54.5 -192.5q0 -119 -34 -225t-105 -173.5t-177 -67.5q-102 0 -157 66t-55 191q0 118 33.5 224.5t105 174.5t177.5 68q103 0 157.5 -65.5zM248 539q-37 -63 -53.5 -152t-16.5 -169q0 -67 20 -97.5t59 -30.5q59 0 95.5 62.5t52.5 150.5t16 170
q0 67 -19.5 98t-59.5 31q-57 0 -94 -63zM490 977l81 -50l-124 -173l-63 34zM347 976l82 -46l-117 -171l-65 31z" />
    <glyph glyph-name="ohungarumlaut" unicode="&#x151;" horiz-adv-x="487" 
d="M72 37q-47 53 -47 153q0 90 28 171.5t86.5 133t143.5 51.5t132 -53.5t47 -152.5q0 -89 -27.5 -170.5t-85.5 -133.5t-144 -52t-133 53zM278.5 130.5q25.5 44.5 37 107.5t11.5 121q0 84 -53 84q-40 0 -65.5 -44t-36.5 -106.5t-11 -120.5q0 -86 52 -86q40 0 65.5 44.5z
M428 851l81 -50l-124 -173l-63 34zM285 850l82 -46l-117 -171l-65 31z" />
    <glyph glyph-name="OE" unicode="&#x152;" horiz-adv-x="738" 
d="M741 589h-227q30 -57 30 -139q0 -31 -1 -47h150l-15 -102h-149q-25 -121 -85 -197h247l-17 -104h-355q-36 -16 -83 -16q-94 0 -147 66.5t-53 190.5q0 117 33 224t101 175t168 68q49 0 82 -16h352zM336 152.5q34 62.5 49.5 151t15.5 169.5q0 68 -17.5 98.5t-52.5 30.5
q-52 0 -86.5 -63t-50.5 -152.5t-16 -168.5q0 -128 70 -128q54 0 88 62.5z" />
    <glyph glyph-name="oe" unicode="&#x153;" horiz-adv-x="742" 
d="M694 507.5q42 -38.5 42 -97.5q0 -104 -80 -152.5t-210 -63.5v-14q0 -48 17.5 -70t51.5 -22q28 0 53.5 11t58.5 35l48 -81q-84 -69 -177 -69q-96 0 -141 80q-60 -80 -158 -80q-80 0 -127 53.5t-47 152.5q0 89 28 171t86 133.5t142 51.5q96 0 138 -81q62 81 161 81
q72 0 114 -38.5zM568 321.5q37 32.5 37 83.5q0 46 -41 46q-45 0 -72 -47.5t-39 -123.5q78 9 115 41.5zM278.5 130.5q25.5 44.5 37 107.5t11.5 121q0 84 -53 84q-40 0 -65.5 -44t-36.5 -106.5t-11 -120.5q0 -86 52 -86q40 0 65.5 44.5z" />
    <glyph glyph-name="Racute" unicode="&#x154;" horiz-adv-x="507" 
d="M471 390.5q-33 -54.5 -99 -87.5l100 -303h-144l-82 273h-53l-38 -273h-139l97 692h170q111 0 166 -45.5t55 -129.5q0 -72 -33 -126.5zM207 373h38q62 0 89.5 40.5t27.5 98.5q0 41 -20 59.5t-62 18.5h-42zM397 930l48 -99l-206 -82l-32 65z" />
    <glyph glyph-name="racute" unicode="&#x155;" horiz-adv-x="329" 
d="M369 536l-42 -130q-18 5 -36 5q-37 0 -63 -40t-46 -114l-35 -257h-134l74 530h115l-4 -90q25 51 55.5 77.5t72.5 26.5q21 0 43 -8zM321 819l47 -100l-205 -91l-35 65z" />
    <glyph glyph-name="Rcommaaccent" unicode="&#x156;" horiz-adv-x="507" 
d="M471 390.5q-33 -54.5 -99 -87.5l100 -303h-144l-82 273h-53l-38 -273h-139l97 692h170q111 0 166 -45.5t55 -129.5q0 -72 -33 -126.5zM207 373h38q62 0 89.5 40.5t27.5 98.5q0 41 -20 59.5t-62 18.5h-42zM275 -88.5q17 -17.5 17 -43.5q0 -21 -7.5 -40t-27.5 -54l-51 -89
h-66l40 117q-24 19 -24 48q0 35 21.5 57t52.5 22q28 0 45 -17.5z" />
    <glyph glyph-name="rcommaaccent" unicode="&#x157;" horiz-adv-x="329" 
d="M369 536l-42 -130q-18 5 -36 5q-37 0 -63 -40t-46 -114l-35 -257h-134l74 530h115l-4 -90q25 51 55.5 77.5t72.5 26.5q21 0 43 -8zM110 -88.5q17 -17.5 17 -43.5q0 -21 -7.5 -40t-27.5 -54l-51 -89h-66l40 117q-24 19 -24 48q0 35 21.5 57t52.5 22q28 0 45 -17.5z" />
    <glyph glyph-name="Rcaron" unicode="&#x158;" horiz-adv-x="507" 
d="M471 390.5q-33 -54.5 -99 -87.5l100 -303h-144l-82 273h-53l-38 -273h-139l97 692h170q111 0 166 -45.5t55 -129.5q0 -72 -33 -126.5zM207 373h38q62 0 89.5 40.5t27.5 98.5q0 41 -20 59.5t-62 18.5h-42zM435 931l50 -55l-135 -125h-81l-103 132l54 48l98 -84z" />
    <glyph glyph-name="rcaron" unicode="&#x159;" horiz-adv-x="329" 
d="M369 536l-42 -130q-18 5 -36 5q-37 0 -63 -40t-46 -114l-35 -257h-134l74 530h115l-4 -90q25 51 55.5 77.5t72.5 26.5q21 0 43 -8zM366 800l46 -54l-134 -129h-82l-98 129l52 54l95 -88z" />
    <glyph glyph-name="Sacute" unicode="&#x15a;" horiz-adv-x="468" 
d="M489 619l-73 -72q-26 28 -53 41.5t-60 13.5q-43 0 -69 -26t-26 -66q0 -32 19.5 -52t77.5 -48q68 -34 100.5 -76t32.5 -110q0 -67 -32.5 -122t-90.5 -86.5t-132 -31.5q-128 0 -208 98l79 73q31 -32 61 -48t70 -16q50 0 80.5 31t30.5 82q0 38 -21 61.5t-79 51.5
q-70 34 -99.5 72.5t-29.5 101.5q0 60 30 109.5t83 78.5t120 29q117 0 189 -89zM394 930l48 -99l-206 -82l-32 65z" />
    <glyph glyph-name="sacute" unicode="&#x15b;" horiz-adv-x="400" 
d="M325.5 528.5q41.5 -17.5 71.5 -49.5l-60 -73q-48 40 -97 40q-29 0 -46.5 -15.5t-17.5 -40.5q0 -22 17.5 -37.5t64.5 -36.5q53 -24 79.5 -57.5t26.5 -87.5q0 -56 -27.5 -98.5t-75 -65.5t-105.5 -23q-111 0 -181 79l71 72q53 -51 108 -51q36 0 55 20.5t19 49.5q0 27 -17 44
t-62 37q-55 24 -80 55.5t-25 83.5q0 47 24.5 86.5t68 62.5t98.5 23q49 0 90.5 -17.5zM330 819l47 -100l-205 -91l-35 65z" />
    <glyph glyph-name="Scircumflex" unicode="&#x15c;" horiz-adv-x="468" 
d="M489 619l-73 -72q-26 28 -53 41.5t-60 13.5q-43 0 -69 -26t-26 -66q0 -32 19.5 -52t77.5 -48q68 -34 100.5 -76t32.5 -110q0 -67 -32.5 -122t-90.5 -86.5t-132 -31.5q-128 0 -208 98l79 73q31 -32 61 -48t70 -16q50 0 80.5 31t30.5 82q0 38 -21 61.5t-79 51.5
q-70 34 -99.5 72.5t-29.5 101.5q0 60 30 109.5t83 78.5t120 29q117 0 189 -89zM199 758l-50 55l135 125h81l102 -132l-53 -48l-99 83z" />
    <glyph glyph-name="scircumflex" unicode="&#x15d;" horiz-adv-x="400" 
d="M325.5 528.5q41.5 -17.5 71.5 -49.5l-60 -73q-48 40 -97 40q-29 0 -46.5 -15.5t-17.5 -40.5q0 -22 17.5 -37.5t64.5 -36.5q53 -24 79.5 -57.5t26.5 -87.5q0 -56 -27.5 -98.5t-75 -65.5t-105.5 -23q-111 0 -181 79l71 72q53 -51 108 -51q36 0 55 20.5t19 49.5q0 27 -17 44
t-62 37q-55 24 -80 55.5t-25 83.5q0 47 24.5 86.5t68 62.5t98.5 23q49 0 90.5 -17.5zM144 628l-47 55l136 129h81l101 -136l-57 -48l-94 88z" />
    <glyph glyph-name="Scedilla" unicode="&#x15e;" horiz-adv-x="468" 
d="M405.5 334q32.5 -42 32.5 -110q0 -59 -25.5 -109t-71.5 -83.5t-107 -43.5l-6 -43q36 -4 54.5 -25t18.5 -55q0 -47 -33.5 -83.5t-103.5 -36.5q-28 0 -51 8.5t-39 21.5l40 60q23 -13 48 -13q20 0 31.5 9.5t11.5 27.5t-15.5 25.5t-54.5 7.5l22 93q-110 9 -182 97l79 73
q31 -32 61 -48t70 -16q50 0 80.5 31t30.5 82q0 38 -21 61.5t-79 51.5q-70 34 -99.5 72.5t-29.5 101.5q0 60 30 109.5t83 78.5t120 29q117 0 189 -89l-73 -72q-26 28 -53 41.5t-60 13.5q-43 0 -69 -26t-26 -66q0 -32 19.5 -52t77.5 -48q68 -34 100.5 -76z" />
    <glyph glyph-name="scedilla" unicode="&#x15f;" horiz-adv-x="400" 
d="M337.5 258.5q26.5 -33.5 26.5 -87.5q0 -73 -47 -122.5t-120 -61.5l-6 -42q36 -4 54.5 -25t18.5 -55q0 -47 -33.5 -83.5t-103.5 -36.5q-28 0 -51 8.5t-39 21.5l40 60q23 -13 48 -13q20 0 31.5 9.5t11.5 27.5t-15.5 25.5t-54.5 7.5l23 94q-87 11 -146 77l71 72
q53 -51 108 -51q36 0 55 20.5t19 49.5q0 27 -17 44t-62 37q-55 24 -80 55.5t-25 83.5q0 47 24.5 86.5t68 62.5t98.5 23q49 0 90.5 -17.5t71.5 -49.5l-60 -73q-48 40 -97 40q-29 0 -46.5 -15.5t-17.5 -40.5q0 -22 17.5 -37.5t64.5 -36.5q53 -24 79.5 -57.5z" />
    <glyph glyph-name="Scaron" unicode="&#x160;" horiz-adv-x="468" 
d="M489 619l-73 -72q-26 28 -53 41.5t-60 13.5q-43 0 -69 -26t-26 -66q0 -32 19.5 -52t77.5 -48q68 -34 100.5 -76t32.5 -110q0 -67 -32.5 -122t-90.5 -86.5t-132 -31.5q-128 0 -208 98l79 73q31 -32 61 -48t70 -16q50 0 80.5 31t30.5 82q0 38 -21 61.5t-79 51.5
q-70 34 -99.5 72.5t-29.5 101.5q0 60 30 109.5t83 78.5t120 29q117 0 189 -89zM432 931l50 -55l-135 -125h-81l-103 132l54 48l98 -84z" />
    <glyph glyph-name="scaron" unicode="&#x161;" horiz-adv-x="400" 
d="M325.5 528.5q41.5 -17.5 71.5 -49.5l-60 -73q-48 40 -97 40q-29 0 -46.5 -15.5t-17.5 -40.5q0 -22 17.5 -37.5t64.5 -36.5q53 -24 79.5 -57.5t26.5 -87.5q0 -56 -27.5 -98.5t-75 -65.5t-105.5 -23q-111 0 -181 79l71 72q53 -51 108 -51q36 0 55 20.5t19 49.5q0 27 -17 44
t-62 37q-55 24 -80 55.5t-25 83.5q0 47 24.5 86.5t68 62.5t98.5 23q49 0 90.5 -17.5zM375 800l46 -54l-134 -129h-82l-98 129l52 54l95 -88z" />
    <glyph glyph-name="uni0162" unicode="&#x162;" horiz-adv-x="441" 
d="M500 692l-30 -111h-135l-82 -581l-7 -51q35 -4 53.5 -26t18.5 -56q0 -47 -34 -84.5t-104 -37.5q-27 0 -50 8.5t-39 21.5l39 63q24 -16 48 -16q19 0 31 9.5t13 27.5t-15.5 25.5t-54.5 7.5l25 108h-64l82 581h-145l16 111h434z" />
    <glyph glyph-name="uni0163" unicode="&#x163;" horiz-adv-x="318" 
d="M180 144q-1 -5 -1 -13q0 -38 33 -38q20 0 48 15l32 -86q-41 -30 -93 -36l-6 -41q36 -4 54.5 -25t18.5 -55q0 -47 -33.5 -83.5t-103.5 -36.5q-28 0 -51 8.5t-39 21.5l40 60q23 -13 48 -13q20 0 31.5 9.5t11.5 27.5t-15.5 25.5t-54.5 7.5l24 99q-38 12 -58.5 44t-20.5 79
q0 22 2 33l40 286h-61l14 97h65l30 119l118 14l-19 -133h98l-30 -97h-81z" />
    <glyph glyph-name="Tcaron" unicode="&#x164;" horiz-adv-x="441" 
d="M500 692l-30 -111h-135l-82 -581h-140l82 581h-145l16 111h434zM415 931l50 -55l-135 -125h-81l-103 132l54 48l98 -84z" />
    <glyph glyph-name="tcaron" unicode="&#x165;" horiz-adv-x="318" 
d="M307 785l98 -13l-68 -204l-68 8zM234 530h98l-30 -97h-81l-41 -289q-1 -5 -1 -13q0 -38 33 -38q20 0 48 15l32 -86q-26 -19 -57.5 -28.5t-62.5 -9.5q-61 0 -94 34.5t-33 94.5q0 22 2 34l40 286h-61l14 97h65l30 119l118 14z" />
    <glyph glyph-name="Tbar" unicode="&#x166;" horiz-adv-x="441" 
d="M470 581h-135l-27 -191h92l-12 -85h-92l-43 -305h-140l43 305h-92l12 85h92l27 191h-145l16 111h434z" />
    <glyph glyph-name="tbar" unicode="&#x167;" horiz-adv-x="318" 
d="M221 433l-11 -74h85l-29 -92h-69l-17 -123q-1 -5 -1 -13q0 -38 33 -38q20 0 48 15l32 -86q-26 -19 -57.5 -28.5t-62.5 -9.5q-61 0 -94 34.5t-33 94.5q0 22 2 34l17 120h-53l14 92h52l10 74h-61l14 97h65l30 119l118 14l-19 -133h98l-30 -97h-81z" />
    <glyph glyph-name="Utilde" unicode="&#x168;" horiz-adv-x="529" 
d="M475 192q-8 -58 -39 -105t-83.5 -74.5t-122.5 -27.5q-97 0 -147.5 50.5t-50.5 128.5q0 22 2 34l70 494h139l-71 -508q-2 -16 -2 -22q0 -32 17 -50.5t52 -18.5q42 0 66 27t31 69l70 503h140zM359.5 774.5q-12.5 6.5 -29.5 19.5q-9 7 -18.5 13t-17.5 6q-13 0 -23.5 -10.5
t-24.5 -33.5l-60 36q22 47 52.5 77t62.5 30q19 0 32.5 -7.5t28.5 -20.5q2 -2 9 -7.5t13.5 -8t12.5 -2.5q12 0 22.5 10t23.5 32l61 -34q-23 -50 -53.5 -78t-62.5 -28q-16 0 -28.5 6.5z" />
    <glyph glyph-name="utilde" unicode="&#x169;" horiz-adv-x="466" 
d="M54.5 16q-28.5 32 -28.5 87q0 16 3 34l54 393h134l-53 -381q-1 -6 -1 -16q0 -33 24 -33q22 0 43 23.5t42 60.5l49 346h133l-74 -530h-116l4 78q-30 -45 -61 -69.5t-76 -24.5q-48 0 -76.5 32zM308.5 648.5q-12.5 6.5 -29.5 19.5q-9 7 -18.5 13t-17.5 6q-13 0 -23.5 -10.5
t-24.5 -33.5l-60 36q22 47 52.5 77t62.5 30q19 0 32.5 -7.5t28.5 -20.5q2 -2 9 -7.5t13.5 -8t12.5 -2.5q12 0 22.5 10t23.5 32l61 -34q-23 -50 -53.5 -78t-62.5 -28q-16 0 -28.5 6.5z" />
    <glyph glyph-name="Umacron" unicode="&#x16a;" horiz-adv-x="529" 
d="M475 192q-8 -58 -39 -105t-83.5 -74.5t-122.5 -27.5q-97 0 -147.5 50.5t-50.5 128.5q0 22 2 34l70 494h139l-71 -508q-2 -16 -2 -22q0 -32 17 -50.5t52 -18.5q42 0 66 27t31 69l70 503h140zM459 785h-248l14 96h249z" />
    <glyph glyph-name="umacron" unicode="&#x16b;" horiz-adv-x="466" 
d="M54.5 16q-28.5 32 -28.5 87q0 16 3 34l54 393h134l-53 -381q-1 -6 -1 -16q0 -33 24 -33q22 0 43 23.5t42 60.5l49 346h133l-74 -530h-116l4 78q-30 -45 -61 -69.5t-76 -24.5q-48 0 -76.5 32zM409 659h-248l14 96h249z" />
    <glyph glyph-name="Ubreve" unicode="&#x16c;" horiz-adv-x="529" 
d="M475 192q-8 -58 -39 -105t-83.5 -74.5t-122.5 -27.5q-97 0 -147.5 50.5t-50.5 128.5q0 22 2 34l70 494h139l-71 -508q-2 -16 -2 -22q0 -32 17 -50.5t52 -18.5q42 0 66 27t31 69l70 503h140zM240.5 791.5q-31.5 38.5 -31.5 96.5l1 16l72 12q5 -66 57 -66q28 0 47.5 18.5
t30.5 50.5l73 -19q-14 -66 -54 -106.5t-104 -40.5q-60 0 -91.5 38.5z" />
    <glyph glyph-name="ubreve" unicode="&#x16d;" horiz-adv-x="466" 
d="M54.5 16q-28.5 32 -28.5 87q0 16 3 34l54 393h134l-53 -381q-1 -6 -1 -16q0 -33 24 -33q22 0 43 23.5t42 60.5l49 346h133l-74 -530h-116l4 78q-30 -45 -61 -69.5t-76 -24.5q-48 0 -76.5 32zM191.5 675q-32.5 39 -32.5 103q0 12 1 19l73 11q5 -75 56 -75q28 0 48.5 20.5
t32.5 57.5l70 -18q-14 -71 -54 -114t-102 -43q-60 0 -92.5 39z" />
    <glyph glyph-name="Uring" unicode="&#x16e;" horiz-adv-x="529" 
d="M475 192q-8 -58 -39 -105t-83.5 -74.5t-122.5 -27.5q-97 0 -147.5 50.5t-50.5 128.5q0 22 2 34l70 494h139l-71 -508q-2 -16 -2 -22q0 -32 17 -50.5t52 -18.5q42 0 66 27t31 69l70 503h140zM436.5 951q27.5 -30 27.5 -78q0 -58 -36.5 -96.5t-93.5 -38.5q-48 0 -75.5 30
t-27.5 78q0 57 36.5 96t93.5 39q48 0 75.5 -30zM321 894.5q-12 -18.5 -12 -45.5q0 -43 31 -43q21 0 33.5 19t12.5 45q0 43 -31 43q-22 0 -34 -18.5z" />
    <glyph glyph-name="uring" unicode="&#x16f;" horiz-adv-x="466" 
d="M54.5 16q-28.5 32 -28.5 87q0 16 3 34l54 393h134l-53 -381q-1 -6 -1 -16q0 -33 24 -33q22 0 43 23.5t42 60.5l49 346h133l-74 -530h-116l4 78q-30 -45 -61 -69.5t-76 -24.5q-48 0 -76.5 32zM383.5 825q27.5 -30 27.5 -78q0 -58 -36.5 -96.5t-93.5 -38.5q-48 0 -75.5 30
t-27.5 78q0 57 36.5 96t93.5 39q48 0 75.5 -30zM268 768.5q-12 -18.5 -12 -45.5q0 -43 31 -43q21 0 33.5 19t12.5 45q0 43 -31 43q-22 0 -34 -18.5z" />
    <glyph glyph-name="Uhungarumlaut" unicode="&#x170;" horiz-adv-x="529" 
d="M475 192q-8 -58 -39 -105t-83.5 -74.5t-122.5 -27.5q-97 0 -147.5 50.5t-50.5 128.5q0 22 2 34l70 494h139l-71 -508q-2 -16 -2 -22q0 -32 17 -50.5t52 -18.5q42 0 66 27t31 69l70 503h140zM464 977l81 -50l-124 -173l-63 34zM321 976l82 -46l-117 -171l-65 31z" />
    <glyph glyph-name="uhungarumlaut" unicode="&#x171;" horiz-adv-x="466" 
d="M54.5 16q-28.5 32 -28.5 87q0 16 3 34l54 393h134l-53 -381q-1 -6 -1 -16q0 -33 24 -33q22 0 43 23.5t42 60.5l49 346h133l-74 -530h-116l4 78q-30 -45 -61 -69.5t-76 -24.5q-48 0 -76.5 32zM415 851l81 -50l-124 -173l-63 34zM272 850l82 -46l-117 -171l-65 31z" />
    <glyph glyph-name="Uogonek" unicode="&#x172;" horiz-adv-x="529" 
d="M546 692l-71 -500q-10 -69 -51.5 -121.5t-109.5 -73.5q-58 -28 -80 -55t-22 -56q0 -39 38 -39q22 0 52 8l-20 -88q-31 -7 -58 -7q-49 0 -80.5 26.5t-31.5 69.5t25.5 75.5t69.5 54.5q-86 6 -130.5 55.5t-44.5 122.5q0 23 2 34l70 494h139l-71 -508q-2 -16 -2 -22
q0 -32 17 -50.5t52 -18.5q42 0 66 27t31 69l70 503h140z" />
    <glyph glyph-name="uogonek" unicode="&#x173;" horiz-adv-x="466" 
d="M269 -118q0 -35 38 -35q20 0 48 5l-20 -85q-30 -7 -57 -7q-48 0 -77.5 28t-29.5 76q0 84 93 139l4 75q-30 -45 -61 -69.5t-76 -24.5q-48 0 -76.5 32t-28.5 87q0 16 3 34l54 393h134l-53 -381q-1 -6 -1 -16q0 -33 24 -33q22 0 43 23.5t42 60.5l49 346h133l-74 -530
q-111 -52 -111 -118z" />
    <glyph glyph-name="Wcircumflex" unicode="&#x174;" horiz-adv-x="696" 
d="M744 692l-188 -692h-181l10 549l-141 -549h-180l8 692h134l-26 -581l156 581h144l-11 -581l143 581h132zM311 758l-50 55l135 125h81l102 -132l-53 -48l-99 83z" />
    <glyph glyph-name="wcircumflex" unicode="&#x175;" horiz-adv-x="621" 
d="M649 530l-162 -530h-155l-2 409l-110 -409h-158l-15 530h132l-16 -429l123 429h131l-2 -429l106 429h128zM256 628l-47 55l136 129h81l101 -136l-57 -48l-94 88z" />
    <glyph glyph-name="Ycircumflex" unicode="&#x176;" horiz-adv-x="482" 
d="M550 692l-240 -431l-36 -261h-140l37 261l-118 431h146l57 -321l144 321h150zM200 758l-50 55l135 125h81l102 -132l-53 -48l-99 83z" />
    <glyph glyph-name="ycircumflex" unicode="&#x177;" horiz-adv-x="428" 
d="M261 -3q-42 -108 -108 -157.5t-172 -58.5l-2 94q66 13 99 38.5t60 86.5h-48l-54 530h139l13 -439l139 439h141zM160 628l-47 55l136 129h81l101 -136l-57 -48l-94 88z" />
    <glyph glyph-name="Ydieresis" unicode="&#x178;" horiz-adv-x="482" 
d="M550 692l-240 -431l-36 -261h-140l37 261l-118 431h146l57 -321l144 321h150zM169.5 789q-16.5 17 -16.5 44q0 35 23 58t54 23q29 0 46 -17t17 -45q0 -34 -22.5 -57t-55.5 -23q-29 0 -45.5 17zM361.5 789q-16.5 17 -16.5 44q0 35 22.5 58t54.5 23q28 0 45 -17t17 -45
q0 -34 -22.5 -57t-54.5 -23q-29 0 -45.5 17z" />
    <glyph glyph-name="Zacute" unicode="&#x179;" horiz-adv-x="440" 
d="M-24 0l15 107l317 474h-229l18 111h379l-17 -108l-317 -470l261 1l-33 -115h-394zM380 930l48 -99l-206 -82l-32 65z" />
    <glyph glyph-name="zacute" unicode="&#x17a;" horiz-adv-x="376" 
d="M393 530l-14 -98l-234 -326h195l-28 -106h-339l15 98l234 327h-174l17 105h328zM324 819l47 -100l-205 -91l-35 65z" />
    <glyph glyph-name="Zdotaccent" unicode="&#x17b;" horiz-adv-x="440" 
d="M-24 0l15 107l317 474h-229l18 111h379l-17 -108l-317 -470l261 1l-33 -115h-394zM245.5 784q-18.5 19 -18.5 51q0 40 25.5 65.5t62.5 25.5q34 0 53 -19t19 -51q0 -40 -26 -65.5t-63 -25.5q-34 0 -52.5 19z" />
    <glyph glyph-name="zdotaccent" unicode="&#x17c;" horiz-adv-x="376" 
d="M393 530l-14 -98l-234 -326h195l-28 -106h-339l15 98l234 327h-174l17 105h328zM192.5 658q-18.5 19 -18.5 51q0 40 25.5 65.5t62.5 25.5q34 0 53 -19t19 -51q0 -40 -26 -65.5t-63 -25.5q-34 0 -52.5 19z" />
    <glyph glyph-name="Zcaron" unicode="&#x17d;" horiz-adv-x="440" 
d="M-24 0l15 107l317 474h-229l18 111h379l-17 -108l-317 -470l261 1l-33 -115h-394zM418 931l50 -55l-135 -125h-81l-103 132l54 48l98 -84z" />
    <glyph glyph-name="zcaron" unicode="&#x17e;" horiz-adv-x="376" 
d="M393 530l-14 -98l-234 -326h195l-28 -106h-339l15 98l234 327h-174l17 105h328zM369 800l46 -54l-134 -129h-82l-98 129l52 54l95 -88z" />
    <glyph glyph-name="longs" unicode="&#x17f;" horiz-adv-x="291" 
d="M424 715l-48 -80q-32 19 -64 19q-28 0 -43.5 -18t-21.5 -57l-80 -579h-134l60 433h-62l13 97h63l8 57q10 77 58 123.5t127 46.5q69 0 124 -42z" />
    <glyph glyph-name="uni0180" unicode="&#x180;" horiz-adv-x="498" 
d="M440.5 499q34.5 -47 34.5 -133q0 -166 -65.5 -274t-208.5 -108q-81 0 -177 40l80 577h-47l13 84h46l8 56l136 15l-10 -71h113l-24 -84h-101l-16 -117q25 29 57 45.5t66 16.5q61 0 95.5 -47zM286 127q27 42 40 105.5t13 127.5q0 46 -12 65t-35 19q-20 0 -42 -16.5
t-42 -43.5l-40 -289q27 -10 50 -10q41 0 68 42z" />
    <glyph glyph-name="uni0181" unicode="&#x181;" horiz-adv-x="631" 
d="M570 321q32 -32 32 -91q0 -106 -72.5 -168t-206.5 -62h-186l83 589h-23q-22 0 -34 -15t-12 -44q0 -27 9 -59l-94 -34q-21 50 -21 97q0 72 43.5 115t116.5 43h209q100 0 157 -40t57 -114q0 -69 -40 -112.5t-106 -59.5q56 -13 88 -45zM359 590l-25 -180h47q52 0 78.5 30
t26.5 86q0 64 -72 64h-55zM432 141q28 36 28 94q0 41 -20 59.5t-64 18.5h-56l-29 -208h47q66 0 94 36z" />
    <glyph glyph-name="uni0182" unicode="&#x182;" horiz-adv-x="491" 
d="M418 392.5q56 -48.5 56 -136.5q0 -66 -26.5 -124t-84.5 -95t-148 -37h-199l97 692h355l-31 -109h-199l-20 -142h46q98 0 154 -48.5zM301 147.5q26 42.5 26 105.5q0 45 -19 66t-58 21h-47l-33 -235h46q59 0 85 42.5z" />
    <glyph glyph-name="uni0183" unicode="&#x183;" horiz-adv-x="491" 
d="M432.5 488q34.5 -48 34.5 -139q-1 -157 -66 -261t-208 -104q-81 0 -177 40l100 717h312l-31 -99h-161l-24 -168q54 62 125 62q61 0 95.5 -48zM278 126.5q27 41.5 40 102.5t13 120q0 47 -12 66t-35 19q-20 0 -43 -16t-43 -43l-38 -280q27 -10 50 -10q41 0 68 41.5z" />
    <glyph glyph-name="uni0184" unicode="&#x184;" horiz-adv-x="501" 
d="M432.5 401q55.5 -49 55.5 -141q0 -68 -26 -127t-84.5 -96t-148.5 -37h-198l69 502l-54 48q55 53 106 142h115l-34 -242h45q99 0 154.5 -49zM316 148q26 43 26 109q0 48 -19 70t-58 22h-46l-35 -244h46q60 0 86 43z" />
    <glyph glyph-name="uni0185" unicode="&#x185;" horiz-adv-x="448" 
d="M377.5 321q47.5 -42 47.5 -120q0 -56 -22.5 -105t-73.5 -80t-130 -31q-84 0 -165 31l45 334l-54 48q57 54 105 132h109l-23 -167h21q93 0 140.5 -42zM271 112.5q20 35.5 20 89.5q0 70 -59 70h-29l-26 -190q15 -5 33 -5q41 0 61 35.5z" />
    <glyph glyph-name="uni0186" unicode="&#x186;" horiz-adv-x="480" 
d="M411.5 642q54.5 -66 54.5 -193q0 -129 -36.5 -234.5t-108 -167.5t-170.5 -62q-106 0 -174 86l74 76q28 -26 49.5 -38.5t51.5 -12.5q57 0 96 54.5t57.5 137t18.5 166.5q0 79 -21 113t-61 34q-29 0 -55.5 -11.5t-57.5 -34.5l-57 80q43 36 88.5 54.5t98.5 18.5
q98 0 152.5 -66z" />
    <glyph glyph-name="uni0187" unicode="&#x187;" horiz-adv-x="474" 
d="M676 807l-49 -81q-26 17 -51 17q-41 0 -50 -63l-6 -48l-69 -70q-26 19 -49 29t-49 10q-60 0 -98.5 -56t-56 -139.5t-17.5 -168.5q0 -142 89 -142q30 0 55.5 13t61.5 40l52 -81q-89 -83 -195 -83q-95 0 -151 67t-56 194q0 118 35 224.5t103 172.5t161 66q41 0 75 -17l3 22
q10 59 48.5 95.5t105.5 36.5q62 0 108 -38z" />
    <glyph glyph-name="uni0188" unicode="&#x188;" horiz-adv-x="396" 
d="M543.5 745q27.5 -11 47.5 -28l-50 -81q-26 17 -51 17q-21 0 -32 -15.5t-16 -49.5l-15 -106l-61 -69q-40 27 -79 27q-63 0 -92.5 -77t-29.5 -174q0 -52 16 -74.5t46 -22.5q21 0 39 8t45 25l48 -82q-72 -59 -153 -59q-85 0 -133 55t-48 153q0 92 29 173.5t84.5 131
t130.5 49.5q26 0 50 -9l11 76q11 70 49 106.5t103 36.5q34 0 61.5 -11z" />
    <glyph glyph-name="uni0189" unicode="&#x189;" horiz-adv-x="555" 
d="M472 638.5q68 -53.5 68 -187.5q0 -203 -83 -327t-260 -124h-174l43 309h-50l14 88h49l41 295h168q116 0 184 -53.5zM325 157q40 53 57 133t17 165q0 73 -27.5 103t-79.5 30h-47l-27 -191h106l-13 -88h-105l-29 -205h43q65 0 105 53z" />
    <glyph glyph-name="uni018A" unicode="&#x18a;" horiz-adv-x="668" 
d="M586 638.5q68 -53.5 68 -187.5q0 -203 -83 -327t-260 -124h-174l83 589h-23q-22 0 -34 -15t-12 -44q0 -27 9 -59l-94 -34q-21 50 -21 97q0 72 43.5 115t116.5 43h197q116 0 184 -53.5zM439 157q40 53 57 133t17 165q0 73 -27.5 103t-79.5 30h-47l-68 -484h43q65 0 105 53
z" />
    <glyph glyph-name="uni018B" unicode="&#x18b;" horiz-adv-x="490" 
d="M399 0h-175q-106 0 -162 49.5t-56 144.5q0 117 70 182t187 65h59l20 142h-213l15 109h352zM274 105l33 235h-46q-54 0 -81 -36.5t-27 -104.5q0 -48 21 -71t68 -23h32z" />
    <glyph glyph-name="uni018C" unicode="&#x18c;" horiz-adv-x="491" 
d="M404 0h-118l2 69q-26 -42 -57.5 -63.5t-73.5 -21.5q-64 0 -99.5 49.5t-35.5 138.5q0 86 25.5 170.5t75.5 139.5t121 55q63 0 95 -53l22 158h-171l13 99h305zM325 391q-10 22 -23.5 33t-33.5 11q-36 0 -60.5 -43.5t-36.5 -105t-12 -114.5q0 -46 12 -66t35 -20q43 0 89 88z
" />
    <glyph glyph-name="uni018D" unicode="&#x18d;" horiz-adv-x="483" 
d="M4 -151l70 65q20 -20 40 -29.5t45 -9.5q33 0 49 18t16 47q0 23 -13.5 39t-52.5 38q-69 38 -100 84.5t-31 118.5q0 71 26.5 146t83.5 127t144 52q84 0 131.5 -56t47.5 -144q0 -101 -38.5 -172t-133.5 -118q64 -49 64 -112q0 -42 -21.5 -79.5t-64.5 -60.5t-104 -23
q-106 0 -158 69zM302 204.5q20 58.5 20 145.5q0 93 -53 93t-79 -69t-26 -157q0 -44 12.5 -71t47.5 -50q58 50 78 108.5z" />
    <glyph glyph-name="uni018E" unicode="&#x18e;" horiz-adv-x="423" 
d="M84 692h346l-97 -692h-348l15 104h208l28 197h-172l15 102h171l26 186h-206z" />
    <glyph glyph-name="uni018F" unicode="&#x18f;" horiz-adv-x="533" 
d="M468 649q53 -59 53 -176q0 -134 -34 -244.5t-103 -177t-170 -66.5q-94 0 -143 61.5t-49 171.5q0 47 6 89.5t19 92.5l332 -1q4 41 4 79q0 67 -21 95.5t-63 28.5q-36 0 -68 -15.5t-66 -42.5l-53 78q50 44 100 65t110 21q93 0 146 -59zM305.5 134.5q34.5 45.5 57.5 162.5
h-206q-8 -48 -8 -86q0 -62 17.5 -92t54.5 -30q50 0 84.5 45.5z" />
    <glyph glyph-name="uni0190" unicode="&#x190;" horiz-adv-x="443" 
d="M411 684.5q43 -22.5 76 -68.5l-76 -69q-47 55 -99 55q-42 0 -66 -31.5t-24 -79.5q0 -36 19.5 -55t55.5 -19h52l-31 -104h-38q-60 0 -93 -35t-33 -100q0 -86 74 -86q32 0 61.5 15t62.5 45l64 -73q-85 -94 -210 -94q-90 0 -143.5 48.5t-53.5 130.5q0 90 49.5 143t136.5 62
q-113 24 -113 130q0 60 31.5 107.5t83 74t109.5 26.5q62 0 105 -22.5z" />
    <glyph glyph-name="uni0191" unicode="&#x191;" horiz-adv-x="396" 
d="M238 589l-28 -202h161l-16 -103h-160l-40 -284l-8 -52q-12 -81 -62 -124t-123 -43q-40 0 -67.5 11.5t-48.5 30.5l57 81q15 -9 25.5 -13.5t25.5 -4.5q22 0 36.5 15t18.5 43l7 56l97 692h338l-31 -103h-182z" />
    <glyph glyph-name="florin" unicode="&#x192;" horiz-adv-x="291" 
d="M267.5 636q-15.5 -18 -20.5 -57l-7 -49h103l-30 -98h-86l-53 -388q-12 -82 -41 -132t-69 -77.5t-104 -53.5l-31 100q35 15 56 33t35 48.5t21 82.5l52 387h-64l15 98h62l8 57q10 77 58 123.5t127 46.5q70 0 125 -42l-49 -80q-31 19 -64 19q-28 0 -43.5 -18z" />
    <glyph glyph-name="uni0193" unicode="&#x193;" horiz-adv-x="504" 
d="M707 807l-50 -81q-25 17 -51 17q-40 0 -49 -63l-8 -56l-70 -65q-29 24 -54.5 34t-57.5 10q-66 0 -108.5 -58t-62 -146t-19.5 -181q0 -67 20.5 -97t60.5 -30q42 0 83 26l25 174h-71l1 102h217l-47 -338q-52 -34 -108 -52t-109 -18q-106 0 -160 63.5t-54 188.5
q0 121 37.5 229t110 175t172.5 67q52 0 86 -21l4 26q10 60 48.5 96t104.5 36q60 0 109 -38z" />
    <glyph glyph-name="uni0194" unicode="&#x194;" horiz-adv-x="477" 
d="M283 80q18 -51 26 -84.5t8 -67.5q0 -71 -37.5 -109t-104.5 -38q-54 0 -82.5 28.5t-28.5 76.5q0 44 19.5 89.5t61.5 109.5l-90 607h142l33 -514l169 514h143zM205 9q-39 -70 -39 -110q0 -25 19 -25q30 0 30 51q0 40 -10 84z" />
    <glyph glyph-name="uni0195" unicode="&#x195;" horiz-adv-x="710" 
d="M312.5 27.5q-39.5 42.5 -39.5 104.5q0 9 2 25l29 213q1 7 1 20q0 36 -24 36q-21 0 -43 -30t-49 -86l-43 -310h-134l104 741l136 14l-43 -305q56 96 133 96q47 0 75 -32.5t28 -89.5q0 -18 -3 -36l-33 -236q-2 -14 -2 -21q0 -44 38 -44q62 0 86 109t24 238q0 56 -3 96h127
q5 -53 5 -96q0 -208 -54.5 -328.5t-198.5 -120.5q-79 0 -118.5 42.5z" />
    <glyph glyph-name="uni0196" unicode="&#x196;" horiz-adv-x="319" 
d="M293 24q-55 -40 -121 -40q-69 0 -107 35.5t-38 103.5q0 10 2 32l6 48l69 489h139l-69 -489l-7 -61q-1 -5 -1 -13q0 -40 34 -40q16 0 27.5 4t30.5 14z" />
    <glyph glyph-name="uni0197" unicode="&#x197;" horiz-adv-x="272" 
d="M287 412l-14 -105h-60l-43 -307h-139l43 307h-62l14 105h63l39 280h140l-40 -280h59z" />
    <glyph glyph-name="uni0198" unicode="&#x198;" horiz-adv-x="545" 
d="M212 369l153 243q31 51 64 73t81 22q32 0 54 -10t40 -27l-51 -77q-16 11 -31 11q-14 0 -25 -8.5t-24 -28.5l-118 -196l138 -371h-152zM16 0l97 692h140l-98 -692h-139z" />
    <glyph glyph-name="uni0199" unicode="&#x199;" horiz-adv-x="477" 
d="M446.5 322q-31.5 -45 -98.5 -82l76 -240h-140l-72 257q72 27 101 62.5t29 84.5q0 21 -9.5 32.5t-26.5 11.5q-26 0 -55.5 -30t-58.5 -89l-45 -329h-135l74 529l11 73q10 70 57.5 112t126.5 42q64 0 120 -33l-49 -86q-32 16 -64 16q-27 0 -40.5 -16.5t-18.5 -50.5l-8 -57
l-10 -73q31 46 67 67.5t80 21.5q54 0 87 -32.5t33 -85.5q0 -60 -31.5 -105z" />
    <glyph glyph-name="uni019A" unicode="&#x19a;" horiz-adv-x="277" 
d="M184 125q-1 -4 -1 -11q0 -20 18 -20q10 0 20 3l13 -94q-39 -18 -83 -18q-50 0 -76.5 28t-26.5 78q0 9 2 29l28 203h-64l14 97h64l44 321l135 15l-46 -336h64l-14 -97h-64z" />
    <glyph glyph-name="uni019B" unicode="&#x19b;" horiz-adv-x="427" 
d="M365 184.5q15 -85.5 48 -156.5l-125 -42q-29 75 -41 163t-12 236l-127 -400l-135 32l206 479l52 -11q-2 58 -10 92l-49 -52l-65 46l71 73q-27 16 -69 25l25 88q42 -10 71.5 -22.5t52.5 -31.5l73 68l43 -65l-68 -68q30 -65 37 -204q7 -164 22 -249.5z" />
    <glyph glyph-name="uni019C" unicode="&#x19c;" horiz-adv-x="745" 
d="M751 692l-97 -692h-122l-1 62q-32 -40 -64 -58.5t-69 -18.5q-41 0 -69 22.5t-40 61.5q-63 -84 -144 -84q-57 0 -88 40.5t-31 100.5q0 11 2 31l76 535h140l-75 -534q-2 -14 -2 -19q0 -22 9.5 -34.5t26.5 -12.5q21 0 40 17t40 53l75 530h139l-73 -528q-2 -18 -2 -24
q0 -23 9 -35.5t25 -12.5q21 0 40.5 17.5t40.5 54.5l74 528h140z" />
    <glyph glyph-name="uni019D" unicode="&#x19d;" horiz-adv-x="542" 
d="M548 692l-97 -692h-169l-91 573v-44q0 -127 -16 -259l-36 -270l-9 -60q-11 -77 -56 -118t-115 -41q-38 0 -64.5 11.5t-48.5 31.5l57 76q16 -10 26.5 -14t25.5 -4q22 0 36 16t18 46l7 56l97 692h170l90 -574v49q0 61 2.5 110.5t10.5 109.5l41 305h121z" />
    <glyph glyph-name="uni019E" unicode="&#x19e;" horiz-adv-x="471" 
d="M418 513.5q28 -32.5 28 -89.5q0 -18 -3 -36l-85 -593l-137 -16l84 591q2 16 2 21q0 35 -25 35q-21 0 -43 -30t-49 -86l-43 -310h-134l74 530h116l-4 -86q31 48 65.5 75t78.5 27q47 0 75 -32.5z" />
    <glyph glyph-name="uni019F" unicode="&#x19f;" horiz-adv-x="577" 
d="M509.5 642.5q54.5 -65.5 54.5 -192.5q0 -119 -34 -225t-105 -173.5t-177 -67.5q-102 0 -157 66t-55 191q0 118 33.5 224.5t104.5 174.5t178 68q103 0 157.5 -65.5zM247.5 545q-38.5 -59 -57.5 -151h234q4 37 4 79q0 69 -20 100t-63 31q-59 0 -97.5 -59zM355.5 150
q38.5 62 57.5 158h-236q-5 -40 -5 -90q0 -69 20.5 -99.5t62.5 -30.5q62 0 100.5 62z" />
    <glyph glyph-name="Ohorn" unicode="&#x1a0;" horiz-adv-x="608" 
d="M625 617q-27 -36 -78 -47q17 -53 17 -120q0 -119 -34 -225t-105 -173.5t-177 -67.5q-102 0 -157 66t-55 191q0 118 33.5 224.5t105 174.5t177.5 68q108 0 162 -71q48 7 48 77q0 20 -4 46l88 11q6 -21 6 -57q0 -61 -27 -97zM352.5 152.5q36.5 62.5 52.5 150.5t16 170
q0 67 -19.5 98t-59.5 31q-57 0 -94 -63t-53.5 -152t-16.5 -169q0 -67 20 -97.5t59 -30.5q59 0 95.5 62.5z" />
    <glyph glyph-name="ohorn" unicode="&#x1a1;" horiz-adv-x="522" 
d="M536.5 452q-27.5 -36 -80.5 -46q6 -30 6 -66q0 -89 -27.5 -170.5t-85.5 -133.5t-144 -52t-133 53t-47 153q0 90 28 171.5t86.5 133t143.5 51.5q101 0 147 -75q24 6 34.5 25t10.5 53q0 20 -4 46l87 12q6 -21 6 -57q0 -62 -27.5 -98zM278.5 130.5q25.5 44.5 37 107.5
t11.5 121q0 84 -53 84q-40 0 -65.5 -44t-36.5 -106.5t-11 -120.5q0 -86 52 -86q40 0 65.5 44.5z" />
    <glyph glyph-name="uni01A2" unicode="&#x1a2;" horiz-adv-x="793" 
d="M741.5 671.5q38.5 -36.5 38.5 -99.5q0 -10 -2 -30l-106 -750h-138l105 756q1 6 1 17q0 42 -40 42q-31 0 -60 -22q24 -59 24 -135q0 -119 -34 -225t-105 -173.5t-177 -67.5q-102 0 -157 66t-55 191q0 118 33.5 224.5t105 174.5t177.5 68q84 0 137 -50q63 50 144 50
q70 0 108.5 -36.5zM352.5 152.5q36.5 62.5 52.5 150.5t16 170q0 67 -19.5 98t-59.5 31q-57 0 -94 -63t-53.5 -152t-16.5 -169q0 -67 20 -97.5t59 -30.5q59 0 95.5 62.5z" />
    <glyph glyph-name="uni01A3" unicode="&#x1a3;" horiz-adv-x="678" 
d="M612.5 509.5q35.5 -36.5 35.5 -101.5q0 -22 -2 -34l-81 -579l-135 -16l83 610q2 14 2 19q0 36 -34 36q-21 0 -40 -8q15 -40 15 -96q0 -89 -27.5 -170.5t-85 -133.5t-141.5 -52q-83 0 -130 53.5t-47 152.5q0 89 28 171t85.5 133.5t141.5 51.5q65 0 107 -33q31 17 60 25
t64 8q66 0 101.5 -36.5zM274 130.5q25 44.5 36 108t11 120.5q0 84 -50 84q-39 0 -63.5 -44t-35.5 -107t-11 -120q0 -86 49 -86q39 0 64 44.5z" />
    <glyph glyph-name="uni01A4" unicode="&#x1a4;" horiz-adv-x="604" 
d="M567.5 644q56.5 -48 56.5 -140q0 -74 -30 -134t-91 -96t-150 -36h-43l-34 -238h-139l83 589h-23q-22 0 -34 -15t-12 -44q0 -27 9 -59l-94 -34q-21 50 -21 97q0 72 43.5 115t116.5 43h201q105 0 161.5 -48zM452.5 387.5q28.5 45.5 28.5 115.5q0 46 -20.5 66t-65.5 20h-36
l-35 -247h31q69 0 97.5 45.5z" />
    <glyph glyph-name="uni01A5" unicode="&#x1a5;" horiz-adv-x="490" 
d="M432.5 499q34.5 -47 34.5 -133q0 -102 -26 -188.5t-82 -140t-141 -53.5q-36 0 -73 13l-29 -202l-135 -16l105 750l11 73q10 70 57.5 112t126.5 42q64 0 120 -33l-49 -86q-32 16 -64 16q-27 0 -40.5 -16.5t-18.5 -50.5l-8 -57l-6 -51q26 35 55.5 51.5t66.5 16.5
q61 0 95.5 -47zM277.5 129.5q27.5 44.5 40.5 109t13 124.5q0 44 -12 62.5t-34 18.5q-21 0 -43 -16t-42 -43l-41 -290q26 -10 50 -10q41 0 68.5 44.5z" />
    <glyph glyph-name="uni01A6" unicode="&#x1a6;" horiz-adv-x="511" 
d="M458.5 272.5q-32.5 -54.5 -98.5 -87.5l100 -302h-145l-81 272l-56 1l-22 -156h-139l97 692h139l-16 -117h33q111 0 166 -46t55 -130q0 -72 -32.5 -126.5zM192 256h40q63 0 90 40t27 99q0 41 -20 59.5t-62 18.5h-45z" />
    <glyph glyph-name="uni01A7" unicode="&#x1a7;" horiz-adv-x="452" 
d="M439 664.5q47 -42.5 47 -116.5q0 -63 -24 -106.5t-69.5 -73.5t-118.5 -58q-68 -26 -94.5 -58.5t-26.5 -87.5q0 -34 17.5 -52.5t50.5 -18.5q67 0 143 64l60 -78q-92 -94 -226 -94q-87 0 -138 48t-51 126q0 97 51 156.5t152 94.5q51 18 78.5 35t40 39t12.5 57q0 60 -59 60
q-66 0 -133 -55l-52 77q48 42 100 63t114 21q79 0 126 -42.5z" />
    <glyph glyph-name="uni01A8" unicode="&#x1a8;" horiz-adv-x="396" 
d="M350.5 508.5q42.5 -37.5 42.5 -97.5t-34.5 -103.5t-117.5 -74.5q-42 -16 -63.5 -30.5t-29 -30t-7.5 -36.5q0 -51 50 -51q52 0 119 51l53 -77q-39 -34 -90.5 -54t-103.5 -20q-77 0 -123 38.5t-46 105.5q0 62 36 107.5t129 79.5q58 21 76 40t18 49q0 20 -11.5 30.5
t-31.5 10.5q-24 0 -51 -11t-52 -30l-41 77q37 31 80.5 47.5t86.5 16.5q69 0 111.5 -37.5z" />
    <glyph glyph-name="uni01A9" unicode="&#x1a9;" horiz-adv-x="419" 
d="M455 692l-14 -105h-232l111 -219l-8 -63l-160 -198h224l-16 -107h-374l15 105l193 242l-128 240l15 105h374z" />
    <glyph glyph-name="uni01AA" unicode="&#x1aa;" horiz-adv-x="347" 
d="M382 -179q-54 -40 -123 -40q-66 0 -103.5 36t-37.5 103q0 10 2 32l6 48l62 450q-28 -13 -56 -13q-46 0 -77 37.5t-31 97.5q0 83 48.5 133.5t127.5 50.5q65 0 103.5 -39t38.5 -107q0 -17 -3 -37l-79 -573l-8 -64q-1 -5 -1 -13q0 -40 39 -40q15 0 26.5 4t27.5 13zM200 538
l10 70q2 14 2 19q0 32 -26 32q-23 0 -34.5 -25.5t-11.5 -62.5q0 -38 31 -38q14 0 29 5z" />
    <glyph glyph-name="uni01AB" unicode="&#x1ab;" horiz-adv-x="318" 
d="M179 138q-1 -5 -1 -14q0 -35 34 -35q21 0 48 11l32 -78l-12 -86q-11 -77 -58 -116t-120 -39q-71 0 -118 43l56 76q16 -10 30 -15t32 -5q55 0 62 64l5 40q-60 0 -92.5 35t-32.5 96q0 10 2 32l40 286h-60l14 97h65l30 119l117 14l-18 -133h97l-29 -97h-82z" />
    <glyph glyph-name="uni01AC" unicode="&#x1ac;" horiz-adv-x="489" 
d="M519 581h-136l-82 -581h-139l81 581h-46q-46 0 -46 -51q0 -27 9 -59l-94 -34q-21 50 -21 97q0 72 43.5 115t118.5 43h342z" />
    <glyph glyph-name="uni01AD" unicode="&#x1ad;" horiz-adv-x="318" 
d="M244 608l-10 -78h97l-29 -97h-81l-41 -289q-1 -5 -1 -15q0 -36 33 -36q19 0 47 15l33 -86q-26 -19 -57.5 -28.5t-62.5 -9.5q-61 0 -94.5 35t-33.5 96q0 10 2 32l40 286h-60l14 97h59l10 69q10 76 54 116.5t116 40.5q64 0 109 -39l-50 -75q-14 8 -24.5 12t-22.5 4
q-39 0 -47 -50z" />
    <glyph glyph-name="uni01AE" unicode="&#x1ae;" horiz-adv-x="441" 
d="M245 -61q-1 -5 -1 -13q0 -40 34 -40q16 0 27.5 4t30.5 14l35 -83q-55 -40 -121 -40q-69 0 -107 35.5t-38 103.5q0 10 2 32l6 48l82 581h-145l16 111h434l-30 -111h-135l-82 -581h-1z" />
    <glyph glyph-name="Uhorn" unicode="&#x1af;" horiz-adv-x="596" 
d="M630 607q-36 -37 -102 -41l-53 -374q-8 -58 -39 -105t-83.5 -74.5t-122.5 -27.5q-97 0 -147.5 50.5t-50.5 128.5q0 22 2 34l70 494h139l-71 -508q-2 -16 -2 -22q0 -32 17 -50.5t52 -18.5q42 0 66 27t31 69l70 503h140l-8 -53q38 13 38 75q0 20 -4 46l88 11q6 -21 6 -57
q0 -70 -36 -107z" />
    <glyph glyph-name="uhorn" unicode="&#x1b0;" horiz-adv-x="534" 
d="M539.5 442q-36.5 -37 -103.5 -39l-56 -403h-116l4 78q-30 -45 -61 -69.5t-76 -24.5q-48 0 -76.5 32t-28.5 87q0 16 3 34l54 393h134l-53 -381q-1 -6 -1 -16q0 -33 24 -33q22 0 43 23.5t42 60.5l49 346h133l-8 -58q41 13 41 77q0 20 -4 46l87 12q6 -21 6 -57
q0 -71 -36.5 -108z" />
    <glyph glyph-name="uni01B1" unicode="&#x1b1;" horiz-adv-x="580" 
d="M92 53.5q-56 68.5 -56 184.5t37 206t127 145h-100l15 103h208l-14 -99q-71 -34 -101 -142.5t-30 -228.5q0 -132 79 -132q60 0 97.5 58t54 142t16.5 168q0 54 -13.5 83.5t-44.5 52.5l14 98h208l-14 -104h-101q44 -33 65.5 -76t21.5 -106q0 -106 -36 -203t-106.5 -157.5
t-169.5 -60.5q-101 0 -157 68.5z" />
    <glyph glyph-name="uni01B2" unicode="&#x1b2;" horiz-adv-x="528" 
d="M500.5 679q28.5 -29 28.5 -84q0 -17 -3 -37l-40 -297q-18 -130 -90 -203t-181 -73q-86 0 -135 49.5t-49 126.5q0 18 3 36l70 495h139l-70 -502q-2 -20 -2 -28q0 -69 56 -69q45 0 76 43t43 130l42 309v8q0 22 -18 22q-13 0 -21 -4l-9 90q37 17 79 17q53 0 81.5 -29z" />
    <glyph glyph-name="uni01B3" unicode="&#x1b3;" horiz-adv-x="501" 
d="M171 261l-118 432h146l56 -322l92 219q24 62 58.5 90t89.5 28q59 0 102 -41l-52 -75q-20 13 -37 13q-15 0 -25 -8.5t-21 -31.5l-151 -303l-37 -262h-140z" />
    <glyph glyph-name="uni01B4" unicode="&#x1b4;" horiz-adv-x="429" 
d="M-21 -125q66 13 99 38.5t60 86.5h-48l-54 530h139l13 -439l108 372q15 61 47 89t86 28q34 0 70 -17l-36 -90q-10 5 -22 5q-13 0 -20.5 -7.5t-12.5 -26.5l-146 -442q-36 -111 -104 -161t-177 -60z" />
    <glyph glyph-name="uni01B5" unicode="&#x1b5;" horiz-adv-x="440" 
d="M476 692l-17 -108l-134 -194h68l-13 -91h-117l-128 -185l268 1l-33 -115h-394l15 107l132 192h-71l13 91h120l131 191h-237l18 111h379z" />
    <glyph glyph-name="uni01B6" unicode="&#x1b6;" horiz-adv-x="375" 
d="M393 530l-13 -93l-97 -129h59l-13 -83h-108l-93 -124h211l-27 -101h-339l14 93l99 132h-58l13 83h107l92 122h-191l16 100h328z" />
    <glyph glyph-name="uni01B7" unicode="&#x1b7;" horiz-adv-x="445" 
d="M442 590l-174 -190q76 -5 115.5 -47t39.5 -115q0 -76 -34 -133.5t-92 -88.5t-127 -31q-70 0 -114.5 25t-74.5 75l82 66q25 -32 48.5 -46t57.5 -14q48 0 79 38.5t31 101.5q0 45 -21.5 64t-63.5 19h-82l12 84l168 189h-210l16 105h360z" />
    <glyph glyph-name="uni01B8" unicode="&#x1b8;" horiz-adv-x="447" 
d="M449 587h-221l129 -190l-13 -82l1 -1h-76q-58 0 -88 -36t-30 -100q0 -42 18 -64.5t54 -22.5q34 0 64 15.5t63 47.5l65 -72q-42 -48 -92 -72.5t-117 -24.5q-94 0 -147 51t-53 139q0 66 28 116.5t77.5 79.5t112.5 30l-133 189l16 102h359z" />
    <glyph glyph-name="uni01B9" unicode="&#x1b9;" horiz-adv-x="418" 
d="M415 426h-218l122 -219l-13 -81l-2 1l1 -1h-74q-55 0 -85.5 -38t-30.5 -105q0 -96 75 -96q32 0 59.5 14.5t61.5 46.5l62 -71q-82 -96 -203 -96q-91 0 -143 53.5t-52 141.5q0 102 59.5 165t162.5 69l-133 224l14 96h352z" />
    <glyph glyph-name="uni01BA" unicode="&#x1ba;" horiz-adv-x="408" 
d="M1 -162q-30 33 -30 74q0 60 38.5 91t120.5 53q61 17 85 36t24 57q0 25 -13 35t-43 10h-107l12 79l152 158h-204l15 99h352l-14 -91l-161 -163h15q63 0 98.5 -32t35.5 -91q0 -78 -48.5 -121.5t-135.5 -66.5q-43 -11 -64.5 -19.5t-28.5 -17.5t-7 -23q0 -13 7.5 -24.5
t22.5 -23.5l-40 -76q-52 24 -82 57z" />
    <glyph glyph-name="uni01BB" unicode="&#x1bb;" horiz-adv-x="423" 
d="M401.5 431q-16.5 -43 -53.5 -94h58l-12 -92h-121q-50 -57 -133 -140l232 2l-30 -107h-359l13 100l23 25q25 28 52.5 58t55.5 62h-73l13 92h137q40 54 58 94.5t18 80.5q0 34 -15.5 51.5t-41.5 17.5q-28 0 -53 -16t-57 -51l-71 63q43 54 92 82t109 28q84 0 129.5 -46.5
t45.5 -120.5q0 -46 -16.5 -89z" />
    <glyph glyph-name="uni01BC" unicode="&#x1bc;" horiz-adv-x="449" 
d="M-15 83l82 65q21 -30 43.5 -45t53.5 -15q62 0 90.5 57t28.5 130q0 42 -15 59.5t-43 17.5q-36 0 -78 -24h-92l52 364h344l-30 -100h-203l-25 -170q47 26 95 26q61 0 96 -43t35 -124q0 -80 -30 -148t-89 -108.5t-143 -40.5q-112 0 -172 99z" />
    <glyph glyph-name="uni01BD" unicode="&#x1bd;" horiz-adv-x="391" 
d="M344 431h-158l-14 -103q32 17 71 17q50 0 82 -37t32 -103q0 -67 -28.5 -117t-77 -76.5t-107.5 -26.5q-55 0 -91.5 20t-68.5 58l80 70q21 -22 39 -32.5t44 -10.5q33 0 54.5 29t21.5 77q0 56 -41 56q-25 0 -54 -17h-86l41 295h295z" />
    <glyph glyph-name="uni01BE" unicode="&#x1be;" horiz-adv-x="421" 
d="M387 261q0 -80 -30.5 -143t-84.5 -98t-123 -35q-55 0 -98 23t-77 68l76 64q23 -27 44.5 -39.5t48.5 -12.5q50 0 78 47t28 123q0 51 -18.5 78.5t-59.5 40.5l-42 13l20 145h-52l13 84h51l17 122l135 14l-19 -136h87l-13 -84h-86l-14 -101l22 -9q97 -42 97 -164z" />
    <glyph glyph-name="uni01BF" unicode="&#x1bf;" horiz-adv-x="491" 
d="M437.5 503.5q35.5 -42.5 35.5 -118.5q0 -90 -34 -155.5t-88.5 -111.5t-134.5 -91l-72 -40l-27 -192l-135 -15l105 750h118l-1 -59q60 75 138 75q60 0 95.5 -42.5zM299 230q35 61 35 148q0 67 -45 67q-43 0 -89 -59l-41 -291l36 25q69 49 104 110z" />
    <glyph glyph-name="uni01C0" unicode="&#x1c0;" horiz-adv-x="223" 
d="M238 754l-108 -754h-114l104 741z" />
    <glyph glyph-name="uni01C1" unicode="&#x1c1;" horiz-adv-x="411" 
d="M238 754l-108 -754h-114l104 741zM426 754l-108 -754h-114l104 741z" />
    <glyph glyph-name="uni01C2" unicode="&#x1c2;" horiz-adv-x="273" 
d="M287 401h-73l-9 -69h72l-11 -80h-73l-36 -252h-114l35 252h-74l11 80h75l9 69h-74l12 80h74l36 260l118 13l-39 -273h72z" />
    <glyph glyph-name="uni01C3" unicode="&#x1c3;" horiz-adv-x="265" 
d="M259 754l-75 -527h-115l72 514zM43.5 5q-18.5 21 -18.5 52q0 38 25 65t63 27q33 0 52 -21t19 -52q0 -39 -25 -65.5t-64 -26.5q-33 0 -51.5 21z" />
    <glyph glyph-name="uni01C4" unicode="&#x1c4;" horiz-adv-x="962" 
d="M465 638.5q68 -53.5 68 -187.5q0 -203 -83 -327t-260 -124h-174l97 692h168q116 0 184 -53.5zM238 588l-68 -484h43q65 0 105 53t57 133t17 165q0 73 -27.5 103t-79.5 30h-47zM498 0l15 107l317 474h-229l18 111h379l-17 -108l-317 -470l261 1l-33 -115h-394zM940 931
l50 -55l-135 -125h-81l-103 132l54 48l98 -84z" />
    <glyph glyph-name="uni01C5" unicode="&#x1c5;" horiz-adv-x="913" 
d="M465 638.5q68 -53.5 68 -187.5q0 -203 -83 -327t-260 -124h-174l97 692h168q116 0 184 -53.5zM238 588l-68 -484h43q65 0 105 53t57 133t17 165q0 73 -27.5 103t-79.5 30h-47zM930 530l-14 -98l-234 -326h195l-28 -106h-339l15 98l234 327h-174l17 105h328zM906 800
l46 -54l-134 -129h-82l-98 129l52 54l95 -88z" />
    <glyph glyph-name="uni01C6" unicode="&#x1c6;" horiz-adv-x="867" 
d="M509 741l-104 -741h-119l3 69q-27 -42 -58.5 -63.5t-73.5 -21.5q-64 0 -99 49.5t-35 138.5q0 91 25 177t75.5 141.5t121.5 55.5q64 0 95 -53l36 262zM209 401q-25 -44 -37 -108t-12 -121q0 -86 46 -86q23 0 44.5 22.5t44.5 65.5l32 227q-11 23 -24 33.5t-33 10.5
q-36 0 -61 -44zM884 530l-14 -98l-234 -326h195l-28 -106h-339l15 98l234 327h-174l17 105h328zM860 800l46 -54l-134 -129h-82l-98 129l52 54l95 -88z" />
    <glyph glyph-name="uni01C7" unicode="&#x1c7;" horiz-adv-x="657" 
d="M253 692l-82 -578h219l-32 -114h-342l97 692h140zM583 96q-11 -80 -42 -129.5t-74 -76.5t-105 -49l-25 97q55 28 76.5 63t31.5 106l82 585h140z" />
    <glyph glyph-name="uni01C8" unicode="&#x1c8;" horiz-adv-x="632" 
d="M253 692l-82 -578h219l-32 -114h-342l97 692h140zM307 -119q35 15 56 32.5t35 48.5t21 83l67 485h135l-69 -486q-12 -82 -41 -132t-69 -77.5t-104 -53.5zM517.5 658q-18.5 19 -18.5 51q0 40 25.5 65.5t62.5 25.5q34 0 53 -19t19 -51q0 -40 -26 -65.5t-63 -25.5
q-34 0 -52.5 19z" />
    <glyph glyph-name="uni01C9" unicode="&#x1c9;" horiz-adv-x="480" 
d="M159 125q-1 -4 -1 -11q0 -20 18 -20q10 0 20 3l13 -94q-39 -18 -83 -18q-50 0 -76.5 28t-26.5 78q0 9 2 29l86 621l135 15zM155 -119q35 15 56 32.5t35 48.5t21 83l67 485h135l-69 -486q-12 -82 -41 -132t-69 -77.5t-104 -53.5zM365.5 658q-18.5 19 -18.5 51
q0 40 25.5 65.5t62.5 25.5q34 0 53 -19t19 -51q0 -40 -26 -65.5t-63 -25.5q-34 0 -52.5 19z" />
    <glyph glyph-name="uni01CA" unicode="&#x1ca;" horiz-adv-x="808" 
d="M451 0h-169l-91 573v-44q0 -127 -16 -259l-36 -270h-123l97 692h170l90 -574v49q0 61 2.5 110.5t10.5 109.5l41 305h121zM734 96q-11 -80 -42 -129.5t-74 -76.5t-105 -49l-25 97q55 28 76.5 63t31.5 106l82 585h140z" />
    <glyph glyph-name="uni01CB" unicode="&#x1cb;" horiz-adv-x="776" 
d="M451 0h-169l-91 573v-44q0 -127 -16 -259l-36 -270h-123l97 692h170l90 -574v49q0 61 2.5 110.5t10.5 109.5l41 305h121zM451 -119q35 15 56 32.5t35 48.5t21 83l67 485h135l-69 -486q-12 -82 -41 -132t-69 -77.5t-104 -53.5zM661.5 658q-18.5 19 -18.5 51
q0 40 25.5 65.5t62.5 25.5q34 0 53 -19t19 -51q0 -40 -26 -65.5t-63 -25.5q-34 0 -52.5 19z" />
    <glyph glyph-name="uni01CC" unicode="&#x1cc;" horiz-adv-x="705" 
d="M418 513.5q28 -32.5 28 -89.5q0 -18 -3 -36l-55 -388h-134l51 370q1 7 1 20q0 36 -24 36q-21 0 -43 -30t-49 -86l-43 -310h-134l74 530h116l-4 -86q31 48 65.5 75t78.5 27q47 0 75 -32.5zM380 -119q35 15 56 32.5t35 48.5t21 83l67 485h135l-69 -486q-12 -82 -41 -132
t-69 -77.5t-104 -53.5zM590.5 658q-18.5 19 -18.5 51q0 40 25.5 65.5t62.5 25.5q34 0 53 -19t19 -51q0 -40 -26 -65.5t-63 -25.5q-34 0 -52.5 19z" />
    <glyph glyph-name="uni01CD" unicode="&#x1cd;" horiz-adv-x="493" 
d="M318 0l-8 157h-158l-50 -157h-145l265 692h169l70 -692h-143zM184 261h121l-16 332zM441 931l50 -55l-135 -125h-81l-103 132l54 48l98 -84z" />
    <glyph glyph-name="uni01CE" unicode="&#x1ce;" horiz-adv-x="481" 
d="M467 499l-51 -357q-3 -18 -3 -31t4.5 -21t16.5 -14l-42 -90q-39 5 -65.5 24t-35.5 54q-28 -40 -58.5 -60t-72.5 -20q-65 0 -101.5 50t-36.5 136q0 96 28.5 181.5t90 140t156.5 54.5q84 0 170 -47zM215 405.5q-29 -41.5 -43 -105.5t-14 -132q0 -44 11 -63t34 -19
q22 0 41 18.5t41 52.5l39 283q-19 7 -37 7q-43 0 -72 -41.5zM441 800l46 -54l-134 -129h-82l-98 129l52 54l95 -88z" />
    <glyph glyph-name="uni01CF" unicode="&#x1cf;" horiz-adv-x="246" 
d="M253 692l-98 -692h-139l97 692h140zM317 931l50 -55l-135 -125h-81l-103 132l54 48l98 -84z" />
    <glyph glyph-name="uni01D0" unicode="&#x1d0;" horiz-adv-x="233" 
d="M221 530l-74 -530h-134l74 530h134zM293 800l46 -54l-134 -129h-82l-98 129l52 54l95 -88z" />
    <glyph glyph-name="uni01D1" unicode="&#x1d1;" horiz-adv-x="577" 
d="M509.5 642.5q54.5 -65.5 54.5 -192.5q0 -119 -34 -225t-105 -173.5t-177 -67.5q-102 0 -157 66t-55 191q0 118 33.5 224.5t105 174.5t177.5 68q103 0 157.5 -65.5zM248 539q-37 -63 -53.5 -152t-16.5 -169q0 -67 20 -97.5t59 -30.5q59 0 95.5 62.5t52.5 150.5t16 170
q0 67 -19.5 98t-59.5 31q-57 0 -94 -63zM484 931l50 -55l-135 -125h-81l-103 132l54 48l98 -84z" />
    <glyph glyph-name="uni01D2" unicode="&#x1d2;" horiz-adv-x="487" 
d="M72 37q-47 53 -47 153q0 90 28 171.5t86.5 133t143.5 51.5t132 -53.5t47 -152.5q0 -89 -27.5 -170.5t-85.5 -133.5t-144 -52t-133 53zM278.5 130.5q25.5 44.5 37 107.5t11.5 121q0 84 -53 84q-40 0 -65.5 -44t-36.5 -106.5t-11 -120.5q0 -86 52 -86q40 0 65.5 44.5z
M421 800l46 -54l-134 -129h-82l-98 129l52 54l95 -88z" />
    <glyph glyph-name="uni01D3" unicode="&#x1d3;" horiz-adv-x="529" 
d="M475 192q-8 -58 -39 -105t-83.5 -74.5t-122.5 -27.5q-97 0 -147.5 50.5t-50.5 128.5q0 22 2 34l70 494h139l-71 -508q-2 -16 -2 -22q0 -32 17 -50.5t52 -18.5q42 0 66 27t31 69l70 503h140zM458 931l50 -55l-135 -125h-81l-103 132l54 48l98 -84z" />
    <glyph glyph-name="uni01D4" unicode="&#x1d4;" horiz-adv-x="466" 
d="M54.5 16q-28.5 32 -28.5 87q0 16 3 34l54 393h134l-53 -381q-1 -6 -1 -16q0 -33 24 -33q22 0 43 23.5t42 60.5l49 346h133l-74 -530h-116l4 78q-30 -45 -61 -69.5t-76 -24.5q-48 0 -76.5 32zM408 800l46 -54l-134 -129h-82l-98 129l52 54l95 -88z" />
    <glyph glyph-name="uni01D5" unicode="&#x1d5;" horiz-adv-x="529" 
d="M475 192q-8 -58 -39 -105t-83.5 -74.5t-122.5 -27.5q-97 0 -147.5 50.5t-50.5 128.5q0 22 2 34l70 494h139l-71 -508q-2 -16 -2 -22q0 -32 17 -50.5t52 -18.5q42 0 66 27t31 69l70 503h140zM188.5 763q-16.5 17 -16.5 44q0 35 23 58t54 23q29 0 46 -17t17 -45
q0 -34 -22.5 -57t-55.5 -23q-29 0 -45.5 17zM380.5 763q-16.5 17 -16.5 44q0 35 22.5 58t54.5 23q28 0 45 -17t17 -45q0 -34 -22.5 -57t-54.5 -23q-29 0 -45.5 17zM474 933h-248l14 96h249z" />
    <glyph glyph-name="uni01D6" unicode="&#x1d6;" horiz-adv-x="466" 
d="M54.5 16q-28.5 32 -28.5 87q0 16 3 34l54 393h134l-53 -381q-1 -6 -1 -16q0 -33 24 -33q22 0 43 23.5t42 60.5l49 346h133l-74 -530h-116l4 78q-30 -45 -61 -69.5t-76 -24.5q-48 0 -76.5 32zM136.5 626q-16.5 17 -16.5 44q0 35 23 58t54 23q29 0 46 -17t17 -45
q0 -34 -22.5 -57t-55.5 -23q-29 0 -45.5 17zM328.5 626q-16.5 17 -16.5 44q0 35 22.5 58t54.5 23q28 0 45 -17t17 -45q0 -34 -22.5 -57t-54.5 -23q-29 0 -45.5 17zM422 800h-248l14 96h249z" />
    <glyph glyph-name="uni01D7" unicode="&#x1d7;" horiz-adv-x="529" 
d="M475 192q-8 -58 -39 -105t-83.5 -74.5t-122.5 -27.5q-97 0 -147.5 50.5t-50.5 128.5q0 22 2 34l70 494h139l-71 -508q-2 -16 -2 -22q0 -32 17 -50.5t52 -18.5q42 0 66 27t31 69l70 503h140zM434 1070l66 -69l-153 -142l-46 43zM188 765.5q-17 17.5 -17 44.5q0 34 23 57
t55 23q29 0 45.5 -17t16.5 -44q0 -35 -23 -58t-55 -23q-28 0 -45 17.5zM388 765.5q-17 17.5 -17 44.5q0 34 23.5 57t54.5 23q29 0 45.5 -17t16.5 -44q0 -35 -22.5 -58t-55.5 -23q-28 0 -45 17.5z" />
    <glyph glyph-name="uni01D8" unicode="&#x1d8;" horiz-adv-x="466" 
d="M54.5 16q-28.5 32 -28.5 87q0 16 3 34l54 393h134l-53 -381q-1 -6 -1 -16q0 -33 24 -33q22 0 43 23.5t42 60.5l49 346h133l-74 -530h-116l4 78q-30 -45 -61 -69.5t-76 -24.5q-48 0 -76.5 32zM372 931l66 -69l-153 -142l-46 43zM127.5 626q-16.5 17 -16.5 44q0 35 23 58
t54 23q29 0 45.5 -17t16.5 -45q0 -35 -22.5 -57.5t-55.5 -22.5q-28 0 -44.5 17zM326.5 626q-16.5 17 -16.5 44q0 35 23 58t55 23q29 0 45.5 -17t16.5 -45q0 -34 -23 -57t-55 -23q-29 0 -45.5 17z" />
    <glyph glyph-name="uni01D9" unicode="&#x1d9;" horiz-adv-x="529" 
d="M475 192q-8 -58 -39 -105t-83.5 -74.5t-122.5 -27.5q-97 0 -147.5 50.5t-50.5 128.5q0 22 2 34l70 494h139l-71 -508q-2 -16 -2 -22q0 -32 17 -50.5t52 -18.5q42 0 66 27t31 69l70 503h140zM474 1071l50 -55l-135 -125h-81l-103 132l54 48l98 -84zM187 765.5
q-17 17.5 -17 44.5q0 34 23.5 57t54.5 23q29 0 45.5 -17t16.5 -44q0 -35 -22.5 -58t-55.5 -23q-28 0 -45 17.5zM387.5 765.5q-16.5 17.5 -16.5 44.5q0 34 23 57t55 23q28 0 44.5 -17t16.5 -44q0 -35 -22.5 -58t-55.5 -23q-28 0 -44.5 17.5z" />
    <glyph glyph-name="uni01DA" unicode="&#x1da;" horiz-adv-x="466" 
d="M54.5 16q-28.5 32 -28.5 87q0 16 3 34l54 393h134l-53 -381q-1 -6 -1 -16q0 -33 24 -33q22 0 43 23.5t42 60.5l49 346h133l-74 -530h-116l4 78q-30 -45 -61 -69.5t-76 -24.5q-48 0 -76.5 32zM415 933l50 -55l-135 -125h-81l-103 132l54 48l98 -84zM127.5 626
q-16.5 17 -16.5 44q0 35 23 58t55 23q28 0 44.5 -17.5t16.5 -44.5q0 -35 -22.5 -57.5t-55.5 -22.5q-28 0 -44.5 17zM327 626q-17 17 -17 44q0 35 23 58t55 23q29 0 45.5 -17t16.5 -45q0 -34 -23 -57t-55 -23q-28 0 -45 17z" />
    <glyph glyph-name="uni01DB" unicode="&#x1db;" horiz-adv-x="529" 
d="M475 192q-8 -58 -39 -105t-83.5 -74.5t-122.5 -27.5q-97 0 -147.5 50.5t-50.5 128.5q0 22 2 34l70 494h139l-71 -508q-2 -16 -2 -22q0 -32 17 -50.5t52 -18.5q42 0 66 27t31 69l70 503h140zM311 1067l86 -169l-57 -39l-113 147zM185 765.5q-17 17.5 -17 44.5q0 34 23 57
t55 23q29 0 45.5 -17t16.5 -44q0 -35 -23 -58t-55 -23q-28 0 -45 17.5zM385 765.5q-17 17.5 -17 44.5q0 34 23.5 57t54.5 23q29 0 45.5 -17t16.5 -44q0 -35 -22.5 -58t-55.5 -23q-28 0 -45 17.5z" />
    <glyph glyph-name="uni01DC" unicode="&#x1dc;" horiz-adv-x="466" 
d="M54.5 16q-28.5 32 -28.5 87q0 16 3 34l54 393h134l-53 -381q-1 -6 -1 -16q0 -33 24 -33q22 0 43 23.5t42 60.5l49 346h133l-74 -530h-116l4 78q-30 -45 -61 -69.5t-76 -24.5q-48 0 -76.5 32zM250 928l86 -169l-57 -39l-113 147zM128.5 626q-16.5 17 -16.5 44
q0 35 22.5 58t54.5 23q28 0 45 -17.5t17 -44.5q0 -35 -22.5 -57.5t-54.5 -22.5q-29 0 -45.5 17zM328 626q-17 17 -17 44q0 35 23 58t55 23q28 0 45 -17.5t17 -44.5q0 -34 -22.5 -57t-55.5 -23q-28 0 -45 17z" />
    <glyph glyph-name="uni01DD" unicode="&#x1dd;" horiz-adv-x="454" 
d="M381.5 494.5q48.5 -51.5 48.5 -149.5q0 -94 -29 -176.5t-89 -133.5t-148 -51q-73 0 -115.5 38.5t-42.5 97.5q0 104 80 152.5t210 63.5v14q0 48 -17.5 70t-51.5 22q-28 0 -53.5 -11t-58.5 -35l-48 81q84 69 180 69q86 0 134.5 -51.5zM248 127.5q27 48.5 40 121.5
q-151 -17 -151 -124q0 -46 41 -46q43 0 70 48.5z" />
    <glyph glyph-name="uni01DE" unicode="&#x1de;" horiz-adv-x="493" 
d="M318 0l-8 157h-158l-50 -157h-145l265 692h169l70 -692h-143zM184 261h121l-16 332zM171.5 763q-16.5 17 -16.5 44q0 35 23 58t54 23q29 0 46 -17t17 -45q0 -34 -22.5 -57t-55.5 -23q-29 0 -45.5 17zM363.5 763q-16.5 17 -16.5 44q0 35 22.5 58t54.5 23q28 0 45 -17
t17 -45q0 -34 -22.5 -57t-54.5 -23q-29 0 -45.5 17zM457 933h-248l14 96h249z" />
    <glyph glyph-name="uni01DF" unicode="&#x1df;" horiz-adv-x="481" 
d="M467 499l-51 -357q-3 -18 -3 -31t4.5 -21t16.5 -14l-42 -90q-39 5 -65.5 24t-35.5 54q-28 -40 -58.5 -60t-72.5 -20q-65 0 -101.5 50t-36.5 136q0 96 28.5 181.5t90 140t156.5 54.5q84 0 170 -47zM215 405.5q-29 -41.5 -43 -105.5t-14 -132q0 -44 11 -63t34 -19
q22 0 41 18.5t41 52.5l39 283q-19 7 -37 7q-43 0 -72 -41.5zM169.5 626q-16.5 17 -16.5 44q0 35 23 58t54 23q29 0 46 -17t17 -45q0 -34 -22.5 -57t-55.5 -23q-29 0 -45.5 17zM361.5 626q-16.5 17 -16.5 44q0 35 22.5 58t54.5 23q28 0 45 -17t17 -45q0 -34 -22.5 -57
t-54.5 -23q-29 0 -45.5 17zM455 800h-248l14 96h249z" />
    <glyph glyph-name="uni01E0" unicode="&#x1e0;" horiz-adv-x="493" 
d="M318 0l-8 157h-158l-50 -157h-145l265 692h169l70 -692h-143zM184 261h121l-16 332zM260.5 757q-18.5 19 -18.5 51q0 40 25.5 65.5t62.5 25.5q34 0 53 -19t19 -51q0 -40 -26 -65.5t-63 -25.5q-34 0 -52.5 19zM462 933h-248l14 96h249z" />
    <glyph glyph-name="uni01E1" unicode="&#x1e1;" horiz-adv-x="481" 
d="M467 499l-51 -357q-3 -18 -3 -31t4.5 -21t16.5 -14l-42 -90q-39 5 -65.5 24t-35.5 54q-28 -40 -58.5 -60t-72.5 -20q-65 0 -101.5 50t-36.5 136q0 96 28.5 181.5t90 140t156.5 54.5q84 0 170 -47zM215 405.5q-29 -41.5 -43 -105.5t-14 -132q0 -44 11 -63t34 -19
q22 0 41 18.5t41 52.5l39 283q-19 7 -37 7q-43 0 -72 -41.5zM258.5 617q-18.5 19 -18.5 51q0 40 25.5 65.5t62.5 25.5q34 0 53 -19t19 -51q0 -40 -26 -65.5t-63 -25.5q-34 0 -52.5 19zM459 796h-248l14 96h249z" />
    <glyph glyph-name="uni01E2" unicode="&#x1e2;" horiz-adv-x="693" 
d="M668 589h-215l3 -188h195l-15 -102h-178l4 -195h186l-17 -104h-297v157h-171l-62 -157h-149l310 692h437zM205 262h129l-1 325zM593 785h-248l14 96h249z" />
    <glyph glyph-name="uni01E3" unicode="&#x1e3;" horiz-adv-x="700" 
d="M322.5 528.5q29.5 -16.5 51.5 -48.5q64 66 162 66q73 0 115.5 -38.5t42.5 -97.5q0 -103 -80 -151.5t-210 -64.5q0 -56 15.5 -81t53.5 -25q28 0 53.5 11t58.5 35l48 -81q-84 -69 -180 -69q-54 0 -94 21t-62 61q-35 -44 -73.5 -62.5t-81.5 -18.5q-63 0 -99.5 37.5
t-36.5 99.5q0 84 53 139.5t180 55.5h47q8 33 19 61q-6 31 -27.5 48t-53.5 17q-46 0 -115 -26l-18 92q85 36 157 36q45 0 74.5 -16.5zM450.5 402.5q-27.5 -48.5 -38.5 -121.5q77 9 114.5 41t37.5 83q0 22 -10.5 34t-31.5 12q-44 0 -71.5 -48.5zM239 236q-91 0 -91 -99
q0 -55 40 -55q20 0 40 16.5t44 52.5q-2 20 -2 33q0 16 3 52h-34zM527 659h-248l14 96h249z" />
    <glyph glyph-name="uni01E4" unicode="&#x1e4;" horiz-adv-x="551" 
d="M492 259h57l-11 -87h-57l-16 -117q-51 -34 -107 -52t-109 -18q-106 0 -160 63.5t-54 188.5q0 121 38 229t114 175t182 67q109 0 180 -84l-78 -70q-26 26 -50 37.5t-55 11.5q-66 0 -108.5 -58t-61.5 -146t-19 -181q0 -66 20.5 -96.5t59.5 -30.5q46 0 89 27l7 54h-74l11 87
h75l7 54h-76l-1 91h217z" />
    <glyph glyph-name="uni01E5" unicode="&#x1e5;" horiz-adv-x="480" 
d="M395 -10h46l-8 -62h-54q-27 -76 -80 -112t-134 -36q-92 0 -167 53l48 85q59 -37 115 -37q62 0 87 47h-91l8 62h101l13 97q-25 -33 -52 -50.5t-65 -17.5q-64 0 -100 50t-36 136q0 83 27.5 161t88.5 129t155 51q84 0 170 -47l-67 -482q-1 -9 -5 -27zM290 191l35 249
q-19 7 -38 7q-42 0 -70.5 -37.5t-41.5 -93.5t-13 -113q0 -44 11 -63t34 -19q39 0 83 70z" />
    <glyph glyph-name="Gcaron" unicode="&#x1e6;" horiz-adv-x="536" 
d="M549 624l-78 -70q-26 26 -50 37.5t-55 11.5q-66 0 -108.5 -58t-61.5 -146t-19 -181q0 -66 20.5 -96.5t59.5 -30.5q41 0 84 26l24 174h-71l2 102h216l-47 -338q-51 -34 -107 -52t-109 -18q-106 0 -160 63.5t-54 188.5q0 121 38 229t114 175t182 67q109 0 180 -84zM494 931
l50 -55l-135 -125h-81l-103 132l54 48l98 -84z" />
    <glyph glyph-name="gcaron" unicode="&#x1e7;" horiz-adv-x="481" 
d="M468 499l-67 -482q-18 -123 -75.5 -180t-159.5 -57q-92 0 -167 53l49 90q61 -37 114 -37q42 0 69.5 24.5t36.5 90.5l9 67q-24 -33 -51.5 -50.5t-65.5 -17.5q-64 0 -100 49.5t-36 133.5q0 93 28 175.5t89.5 135t156.5 52.5q84 0 170 -47zM192.5 367q-32.5 -80 -32.5 -186
q0 -42 11.5 -61t33.5 -19q38 0 84 71l37 268q-19 7 -38 7q-63 0 -95.5 -80zM432 800l46 -54l-134 -129h-82l-98 129l52 54l95 -88z" />
    <glyph glyph-name="uni01E8" unicode="&#x1e8;" horiz-adv-x="528" 
d="M16 0l97 692h140l-98 -692h-139zM341 0l-129 369l221 323h142l-221 -322l139 -370h-152zM463 931l50 -55l-135 -125h-81l-103 132l54 48l98 -84z" />
    <glyph glyph-name="uni01E9" unicode="&#x1e9;" horiz-adv-x="477" 
d="M211 457q32 45 67.5 66.5t79.5 21.5q54 0 87 -32.5t33 -85.5q0 -60 -31.5 -105t-98.5 -82l76 -240h-140l-72 257q71 27 100.5 62.5t29.5 84.5q0 21 -9.5 32.5t-26.5 11.5q-26 0 -55.5 -30t-58.5 -89l-45 -329h-135l104 741l136 15zM465 980l50 -55l-135 -125h-81
l-103 132l54 48l98 -84z" />
    <glyph glyph-name="uni01EA" unicode="&#x1ea;" horiz-adv-x="577" 
d="M229 -118q0 -35 38 -35q20 0 48 5l-20 -85q-30 -7 -57 -7q-48 0 -77.5 28t-29.5 76q0 73 70 124q-80 14 -122.5 78.5t-42.5 174.5q0 118 33.5 224.5t105 174.5t177.5 68q103 0 157.5 -65.5t54.5 -192.5q0 -100 -24.5 -193.5t-76 -163t-127.5 -95.5q-107 -51 -107 -116z
M248 539q-37 -63 -53.5 -152t-16.5 -169q0 -67 20 -97.5t59 -30.5q59 0 95.5 62.5t52.5 150.5t16 170q0 67 -19.5 98t-59.5 31q-57 0 -94 -63z" />
    <glyph glyph-name="uni01EB" unicode="&#x1eb;" horiz-adv-x="487" 
d="M178 -118q0 -35 38 -35q20 0 48 5l-20 -85q-30 -7 -57 -7q-48 0 -77.5 28t-29.5 76q0 74 73 126q-61 14 -94.5 65.5t-33.5 134.5q0 90 28 171.5t86.5 133t143.5 51.5t132 -53.5t47 -152.5q0 -116 -45.5 -213t-132.5 -129q-106 -52 -106 -116zM208.5 399
q-25.5 -44 -36.5 -106.5t-11 -120.5q0 -86 52 -86q40 0 65.5 44.5t37 107.5t11.5 121q0 84 -53 84q-40 0 -65.5 -44z" />
    <glyph glyph-name="uni01EC" unicode="&#x1ec;" horiz-adv-x="577" 
d="M500 881l-15 -96h-248l14 96h249zM229 -118q0 -35 38 -35q20 0 48 5l-20 -85q-30 -7 -57 -7q-48 0 -77.5 28t-29.5 76q0 73 70 124q-80 14 -122.5 78.5t-42.5 174.5q0 118 33.5 224.5t105 174.5t177.5 68q103 0 157.5 -65.5t54.5 -192.5q0 -100 -24.5 -193.5t-76 -163
t-127.5 -95.5q-107 -51 -107 -116zM248 539q-37 -63 -53.5 -152t-16.5 -169q0 -67 20 -97.5t59 -30.5q59 0 95.5 62.5t52.5 150.5t16 170q0 67 -19.5 98t-59.5 31q-57 0 -94 -63z" />
    <glyph glyph-name="uni01ED" unicode="&#x1ed;" horiz-adv-x="487" 
d="M437 755l-15 -96h-248l14 96h249zM178 -118q0 -35 38 -35q20 0 48 5l-20 -85q-30 -7 -57 -7q-48 0 -77.5 28t-29.5 76q0 74 73 126q-61 14 -94.5 65.5t-33.5 134.5q0 90 28 171.5t86.5 133t143.5 51.5t132 -53.5t47 -152.5q0 -116 -45.5 -213t-132.5 -129
q-106 -52 -106 -116zM208.5 399q-25.5 -44 -36.5 -106.5t-11 -120.5q0 -86 52 -86q40 0 65.5 44.5t37 107.5t11.5 121q0 84 -53 84q-40 0 -65.5 -44z" />
    <glyph glyph-name="uni01EE" unicode="&#x1ee;" horiz-adv-x="445" 
d="M442 590l-174 -190q76 -5 115.5 -47t39.5 -115q0 -76 -34 -133.5t-92 -88.5t-127 -31q-70 0 -114.5 25t-74.5 75l82 66q25 -32 48.5 -46t57.5 -14q48 0 79 38.5t31 101.5q0 45 -21.5 64t-63.5 19h-82l12 84l168 189h-210l16 105h360zM412 931l50 -55l-135 -125h-81
l-103 132l54 48l98 -84z" />
    <glyph glyph-name="uni01EF" unicode="&#x1ef;" horiz-adv-x="417" 
d="M397 434l-185 -227q79 -7 118 -48.5t39 -114.5q0 -79 -33 -139t-90 -92t-128 -32q-123 0 -181 100l81 64q24 -31 47 -44.5t55 -13.5q51 0 81 42t30 112q0 47 -20.5 66t-64.5 19h-77l12 83l175 217h-213l15 104h353zM375 800l46 -54l-134 -129h-82l-98 129l52 54l95 -88z
" />
    <glyph glyph-name="uni01F0" unicode="&#x1f0;" horiz-adv-x="234" 
d="M-91 -119q35 15 56 32.5t35 48.5t21 83l67 485h135l-69 -486q-12 -82 -41 -132t-69 -77.5t-104 -53.5zM296 800l46 -54l-134 -129h-82l-98 129l52 54l95 -88z" />
    <glyph glyph-name="uni01F1" unicode="&#x1f1;" horiz-adv-x="962" 
d="M465 638.5q68 -53.5 68 -187.5q0 -203 -83 -327t-260 -124h-174l97 692h168q116 0 184 -53.5zM238 588l-68 -484h43q65 0 105 53t57 133t17 165q0 73 -27.5 103t-79.5 30h-47zM498 0l15 107l317 474h-229l18 111h379l-17 -108l-317 -470l261 1l-33 -115h-394z" />
    <glyph glyph-name="uni01F2" unicode="&#x1f2;" horiz-adv-x="913" 
d="M465 638.5q68 -53.5 68 -187.5q0 -203 -83 -327t-260 -124h-174l97 692h168q116 0 184 -53.5zM238 588l-68 -484h43q65 0 105 53t57 133t17 165q0 73 -27.5 103t-79.5 30h-47zM930 530l-14 -98l-234 -326h195l-28 -106h-339l15 98l234 327h-174l17 105h328z" />
    <glyph glyph-name="uni01F3" unicode="&#x1f3;" horiz-adv-x="867" 
d="M509 741l-104 -741h-119l3 69q-27 -42 -58.5 -63.5t-73.5 -21.5q-64 0 -99 49.5t-35 138.5q0 91 25 177t75.5 141.5t121.5 55.5q64 0 95 -53l36 262zM209 401q-25 -44 -37 -108t-12 -121q0 -86 46 -86q23 0 44.5 22.5t44.5 65.5l32 227q-11 23 -24 33.5t-33 10.5
q-36 0 -61 -44zM884 530l-14 -98l-234 -326h195l-28 -106h-339l15 98l234 327h-174l17 105h328z" />
    <glyph glyph-name="uni01F4" unicode="&#x1f4;" horiz-adv-x="536" 
d="M549 624l-78 -70q-26 26 -50 37.5t-55 11.5q-66 0 -108.5 -58t-61.5 -146t-19 -181q0 -66 20.5 -96.5t59.5 -30.5q41 0 84 26l24 174h-71l2 102h216l-47 -338q-51 -34 -107 -52t-109 -18q-106 0 -160 63.5t-54 188.5q0 121 38 229t114 175t182 67q109 0 180 -84zM456 930
l48 -99l-206 -82l-32 65z" />
    <glyph glyph-name="uni01F5" unicode="&#x1f5;" horiz-adv-x="481" 
d="M468 499l-67 -482q-18 -123 -75.5 -180t-159.5 -57q-92 0 -167 53l49 90q61 -37 114 -37q42 0 69.5 24.5t36.5 90.5l9 67q-24 -33 -51.5 -50.5t-65.5 -17.5q-64 0 -100 49.5t-36 133.5q0 93 28 175.5t89.5 135t156.5 52.5q84 0 170 -47zM192.5 367q-32.5 -80 -32.5 -186
q0 -42 11.5 -61t33.5 -19q38 0 84 71l37 268q-19 7 -38 7q-63 0 -95.5 -80zM387 819l47 -100l-205 -91l-35 65z" />
    <glyph glyph-name="uni01F6" unicode="&#x1f6;" horiz-adv-x="777" 
d="M376.5 28.5q-41.5 43.5 -41.5 105.5q0 7 2 23l20 148h-159l-43 -305h-139l97 692h140l-40 -275h160l38 275h140l-75 -540q-2 -14 -2 -21q0 -44 37 -44q63 0 87 109t24 238q0 56 -3 96h127q5 -53 5 -96q0 -209 -55 -329t-199 -120q-79 0 -120.5 43.5z" />
    <glyph glyph-name="uni01F7" unicode="&#x1f7;" horiz-adv-x="487" 
d="M474 664.5q38 -43.5 38 -120.5q0 -81 -33.5 -138.5t-89.5 -96.5t-140 -77l-65 -29l-29 -203h-139l97 692h140l-5 -36q54 52 126 52q62 0 100 -43.5zM333 413.5q34 49.5 34 119.5q0 72 -52 72q-42 0 -80 -41l-36 -255l35 19q65 36 99 85.5z" />
    <glyph glyph-name="uni01F8" unicode="&#x1f8;" horiz-adv-x="542" 
d="M451 0h-169l-91 573v-44q0 -127 -16 -259l-36 -270h-123l97 692h170l90 -574v49q0 61 2.5 110.5t10.5 109.5l41 305h121zM309 928l165 -116l-41 -62l-183 81z" />
    <glyph glyph-name="uni01F9" unicode="&#x1f9;" horiz-adv-x="471" 
d="M418 513.5q28 -32.5 28 -89.5q0 -18 -3 -36l-55 -388h-134l51 370q1 7 1 20q0 36 -24 36q-21 0 -43 -30t-49 -86l-43 -310h-134l74 530h116l-4 -86q31 48 65.5 75t78.5 27q47 0 75 -32.5zM259 817l163 -126l-40 -62l-184 90z" />
    <glyph glyph-name="Aringacute" unicode="&#x1fa;" horiz-adv-x="493" 
d="M318 0l-8 157h-158l-50 -157h-145l265 692h169l70 -692h-143zM184 261h121l-16 332zM413.5 941q27.5 -30 27.5 -78q0 -58 -36.5 -96.5t-93.5 -38.5q-48 0 -75.5 30t-27.5 78q0 57 36.5 96t93.5 39q48 0 75.5 -30zM298 884.5q-12 -18.5 -12 -45.5q0 -43 31 -43
q21 0 33.5 19t12.5 45q0 43 -31 43q-22 0 -34 -18.5zM410 1158l48 -99l-206 -82l-32 65z" />
    <glyph glyph-name="aringacute" unicode="&#x1fb;" horiz-adv-x="481" 
d="M467 499l-51 -357q-3 -18 -3 -31t4.5 -21t16.5 -14l-42 -90q-39 5 -65.5 24t-35.5 54q-28 -40 -58.5 -60t-72.5 -20q-65 0 -101.5 50t-36.5 136q0 96 28.5 181.5t90 140t156.5 54.5q84 0 170 -47zM215 405.5q-29 -41.5 -43 -105.5t-14 -132q0 -44 11 -63t34 -19
q22 0 41 18.5t41 52.5l39 283q-19 7 -37 7q-43 0 -72 -41.5zM413.5 793q27.5 -30 27.5 -78q0 -58 -36.5 -96.5t-93.5 -38.5q-48 0 -75.5 30t-27.5 78q0 57 36.5 96t93.5 39q48 0 75.5 -30zM298 736.5q-12 -18.5 -12 -45.5q0 -43 31 -43q21 0 33.5 19t12.5 45q0 43 -31 43
q-22 0 -34 -18.5zM414 1012l48 -99l-206 -82l-32 65z" />
    <glyph glyph-name="AEacute" unicode="&#x1fc;" horiz-adv-x="693" 
d="M668 589h-215l3 -188h195l-15 -102h-178l4 -195h186l-17 -104h-297v157h-171l-62 -157h-149l310 692h437zM205 262h129l-1 325zM554 930l48 -99l-206 -82l-32 65z" />
    <glyph glyph-name="aeacute" unicode="&#x1fd;" horiz-adv-x="700" 
d="M322.5 528.5q29.5 -16.5 51.5 -48.5q64 66 162 66q73 0 115.5 -38.5t42.5 -97.5q0 -103 -80 -151.5t-210 -64.5q0 -56 15.5 -81t53.5 -25q28 0 53.5 11t58.5 35l48 -81q-84 -69 -180 -69q-54 0 -94 21t-62 61q-35 -44 -73.5 -62.5t-81.5 -18.5q-63 0 -99.5 37.5
t-36.5 99.5q0 84 53 139.5t180 55.5h47q8 33 19 61q-6 31 -27.5 48t-53.5 17q-46 0 -115 -26l-18 92q85 36 157 36q45 0 74.5 -16.5zM450.5 402.5q-27.5 -48.5 -38.5 -121.5q77 9 114.5 41t37.5 83q0 22 -10.5 34t-31.5 12q-44 0 -71.5 -48.5zM239 236q-91 0 -91 -99
q0 -55 40 -55q20 0 40 16.5t44 52.5q-2 20 -2 33q0 16 3 52h-34zM481 819l47 -100l-205 -91l-35 65z" />
    <glyph glyph-name="Oslashacute" unicode="&#x1fe;" horiz-adv-x="577" 
d="M542.5 578.5q21.5 -54.5 21.5 -128.5q0 -119 -34 -225t-105 -173.5t-177 -67.5q-12 0 -34 2l-43 -118l-101 29l48 130q-39 33 -60.5 87.5t-21.5 126.5q0 118 33.5 224.5t105 174.5t177.5 68q12 0 32 -2l45 119l99 -29l-48 -130q41 -33 62.5 -87.5zM244 540
q-38 -63 -54.5 -152t-16.5 -170q0 -62 16 -91l168 475q-5 1 -15 1q-60 0 -98 -63zM356 151.5q38 62.5 54 151t16 170.5q0 60 -15 90l-168 -473q5 -1 14 -1q61 0 99 62.5zM433 958l48 -99l-206 -82l-32 65z" />
    <glyph glyph-name="oslashacute" unicode="&#x1ff;" horiz-adv-x="487" 
d="M445 438.5q17 -42.5 17 -98.5q0 -89 -27.5 -170.5t-85.5 -133.5t-144 -52q-16 0 -24 1l-46 -118l-93 30l50 123q-32 26 -49.5 69.5t-17.5 100.5q0 90 28 171.5t86.5 133t143.5 51.5q17 0 25 -1l45 118l94 -30l-51 -125q32 -27 49 -69.5zM203.5 407q-27.5 -43 -40 -107
t-12.5 -128q0 -37 7 -57l3 4l118 322l2 9h-7q-43 0 -70.5 -43zM283 122.5q28 43.5 40.5 108t12.5 128.5q0 32 -6 53l-3 -5l-116 -318l-3 -10h5q42 0 70 43.5zM378 829l47 -100l-205 -91l-35 65z" />
    <glyph glyph-name="uni0200" unicode="&#x200;" horiz-adv-x="493" 
d="M318 0l-8 157h-158l-50 -157h-145l265 692h169l70 -692h-143zM184 261h121l-16 332zM236 977l56 -193l-77 -30l-81 181zM379 976l49 -190l-76 -27l-75 178z" />
    <glyph glyph-name="uni0201" unicode="&#x201;" horiz-adv-x="481" 
d="M467 499l-51 -357q-3 -18 -3 -31t4.5 -21t16.5 -14l-42 -90q-39 5 -65.5 24t-35.5 54q-28 -40 -58.5 -60t-72.5 -20q-65 0 -101.5 50t-36.5 136q0 96 28.5 181.5t90 140t156.5 54.5q84 0 170 -47zM215 405.5q-29 -41.5 -43 -105.5t-14 -132q0 -44 11 -63t34 -19
q22 0 41 18.5t41 52.5l39 283q-19 7 -37 7q-43 0 -72 -41.5zM237 851l56 -193l-77 -30l-81 181zM380 850l49 -190l-76 -27l-75 178z" />
    <glyph glyph-name="uni0202" unicode="&#x202;" horiz-adv-x="493" 
d="M318 0l-8 157h-158l-50 -157h-145l265 692h169l70 -692h-143zM184 261h121l-16 332zM177 784q17 71 59 114t104 43q64 0 95 -44.5t27 -116.5l-75 -10q-5 75 -57 75q-55 0 -81 -79z" />
    <glyph glyph-name="uni0203" unicode="&#x203;" horiz-adv-x="481" 
d="M467 499l-51 -357q-3 -18 -3 -31t4.5 -21t16.5 -14l-42 -90q-39 5 -65.5 24t-35.5 54q-28 -40 -58.5 -60t-72.5 -20q-65 0 -101.5 50t-36.5 136q0 96 28.5 181.5t90 140t156.5 54.5q84 0 170 -47zM215 405.5q-29 -41.5 -43 -105.5t-14 -132q0 -44 11 -63t34 -19
q22 0 41 18.5t41 52.5l39 283q-19 7 -37 7q-43 0 -72 -41.5zM171 622q17 71 59 114t104 43q64 0 95 -44.5t27 -116.5l-75 -10q-5 75 -57 75q-55 0 -81 -79z" />
    <glyph glyph-name="uni0204" unicode="&#x204;" horiz-adv-x="427" 
d="M461 692l-31 -103h-192l-26 -186h170l-15 -102h-169l-28 -197h209l-15 -104h-348l97 692h348zM217 977l56 -193l-77 -30l-81 181zM360 976l49 -190l-76 -27l-75 178z" />
    <glyph glyph-name="uni0205" unicode="&#x205;" horiz-adv-x="454" 
d="M405.5 507.5q42.5 -38.5 42.5 -97.5q0 -104 -80 -152.5t-210 -63.5v-14q0 -48 17.5 -70t51.5 -22q28 0 53.5 11t58.5 35l48 -81q-84 -69 -180 -69q-86 0 -134.5 51.5t-48.5 149.5q0 94 29 176.5t89 133.5t148 51q73 0 115.5 -38.5zM317 405q0 46 -41 46q-43 0 -70 -48.5
t-40 -121.5q151 17 151 124zM219 851l56 -193l-77 -30l-81 181zM362 850l49 -190l-76 -27l-75 178z" />
    <glyph glyph-name="uni0206" unicode="&#x206;" horiz-adv-x="427" 
d="M461 692l-31 -103h-192l-26 -186h170l-15 -102h-169l-28 -197h209l-15 -104h-348l97 692h348zM158 784q17 71 59 114t104 43q64 0 95 -44.5t27 -116.5l-75 -10q-5 75 -57 75q-55 0 -81 -79z" />
    <glyph glyph-name="uni0207" unicode="&#x207;" horiz-adv-x="454" 
d="M405.5 507.5q42.5 -38.5 42.5 -97.5q0 -104 -80 -152.5t-210 -63.5v-14q0 -48 17.5 -70t51.5 -22q28 0 53.5 11t58.5 35l48 -81q-84 -69 -180 -69q-86 0 -134.5 51.5t-48.5 149.5q0 94 29 176.5t89 133.5t148 51q73 0 115.5 -38.5zM317 405q0 46 -41 46q-43 0 -70 -48.5
t-40 -121.5q151 17 151 124zM153 622q17 71 59 114t104 43q64 0 95 -44.5t27 -116.5l-75 -10q-5 75 -57 75q-55 0 -81 -79z" />
    <glyph glyph-name="uni0208" unicode="&#x208;" horiz-adv-x="246" 
d="M253 692l-98 -692h-139l97 692h140zM112 977l56 -193l-77 -30l-81 181zM255 976l49 -190l-76 -27l-75 178z" />
    <glyph glyph-name="uni0209" unicode="&#x209;" horiz-adv-x="233" 
d="M221 530l-74 -530h-134l74 530h134zM89 851l56 -193l-77 -30l-81 181zM232 850l49 -190l-76 -27l-75 178z" />
    <glyph glyph-name="uni020A" unicode="&#x20a;" horiz-adv-x="246" 
d="M253 692l-98 -692h-139l97 692h140zM53 784q17 71 59 114t104 43q64 0 95 -44.5t27 -116.5l-75 -10q-5 75 -57 75q-55 0 -81 -79z" />
    <glyph glyph-name="uni020B" unicode="&#x20b;" horiz-adv-x="233" 
d="M221 530l-74 -530h-134l74 530h134zM23 622q17 71 59 114t104 43q64 0 95 -44.5t27 -116.5l-75 -10q-5 75 -57 75q-55 0 -81 -79z" />
    <glyph glyph-name="uni020C" unicode="&#x20c;" horiz-adv-x="577" 
d="M509.5 642.5q54.5 -65.5 54.5 -192.5q0 -119 -34 -225t-105 -173.5t-177 -67.5q-102 0 -157 66t-55 191q0 118 33.5 224.5t105 174.5t177.5 68q103 0 157.5 -65.5zM248 539q-37 -63 -53.5 -152t-16.5 -169q0 -67 20 -97.5t59 -30.5q59 0 95.5 62.5t52.5 150.5t16 170
q0 67 -19.5 98t-59.5 31q-57 0 -94 -63zM279 977l56 -193l-77 -30l-81 181zM422 976l49 -190l-76 -27l-75 178z" />
    <glyph glyph-name="uni020D" unicode="&#x20d;" horiz-adv-x="487" 
d="M72 37q-47 53 -47 153q0 90 28 171.5t86.5 133t143.5 51.5t132 -53.5t47 -152.5q0 -89 -27.5 -170.5t-85.5 -133.5t-144 -52t-133 53zM278.5 130.5q25.5 44.5 37 107.5t11.5 121q0 84 -53 84q-40 0 -65.5 -44t-36.5 -106.5t-11 -120.5q0 -86 52 -86q40 0 65.5 44.5z
M217 851l56 -193l-77 -30l-81 181zM360 850l49 -190l-76 -27l-75 178z" />
    <glyph glyph-name="uni020E" unicode="&#x20e;" horiz-adv-x="577" 
d="M509.5 642.5q54.5 -65.5 54.5 -192.5q0 -119 -34 -225t-105 -173.5t-177 -67.5q-102 0 -157 66t-55 191q0 118 33.5 224.5t105 174.5t177.5 68q103 0 157.5 -65.5zM248 539q-37 -63 -53.5 -152t-16.5 -169q0 -67 20 -97.5t59 -30.5q59 0 95.5 62.5t52.5 150.5t16 170
q0 67 -19.5 98t-59.5 31q-57 0 -94 -63zM220 784q17 71 59 114t104 43q64 0 95 -44.5t27 -116.5l-75 -10q-5 75 -57 75q-55 0 -81 -79z" />
    <glyph glyph-name="uni020F" unicode="&#x20f;" horiz-adv-x="487" 
d="M72 37q-47 53 -47 153q0 90 28 171.5t86.5 133t143.5 51.5t132 -53.5t47 -152.5q0 -89 -27.5 -170.5t-85.5 -133.5t-144 -52t-133 53zM278.5 130.5q25.5 44.5 37 107.5t11.5 121q0 84 -53 84q-40 0 -65.5 -44t-36.5 -106.5t-11 -120.5q0 -86 52 -86q40 0 65.5 44.5z
M151 622q17 71 59 114t104 43q64 0 95 -44.5t27 -116.5l-75 -10q-5 75 -57 75q-55 0 -81 -79z" />
    <glyph glyph-name="uni0210" unicode="&#x210;" horiz-adv-x="507" 
d="M471 390.5q-33 -54.5 -99 -87.5l100 -303h-144l-82 273h-53l-38 -273h-139l97 692h170q111 0 166 -45.5t55 -129.5q0 -72 -33 -126.5zM207 373h38q62 0 89.5 40.5t27.5 98.5q0 41 -20 59.5t-62 18.5h-42zM230 977l56 -193l-77 -30l-81 181zM373 976l49 -190l-76 -27
l-75 178z" />
    <glyph glyph-name="uni0211" unicode="&#x211;" horiz-adv-x="329" 
d="M369 536l-42 -130q-18 5 -36 5q-37 0 -63 -40t-46 -114l-35 -257h-134l74 530h115l-4 -90q25 51 55.5 77.5t72.5 26.5q21 0 43 -8zM162 851l56 -193l-77 -30l-81 181zM305 850l49 -190l-76 -27l-75 178z" />
    <glyph glyph-name="uni0212" unicode="&#x212;" horiz-adv-x="507" 
d="M471 390.5q-33 -54.5 -99 -87.5l100 -303h-144l-82 273h-53l-38 -273h-139l97 692h170q111 0 166 -45.5t55 -129.5q0 -72 -33 -126.5zM207 373h38q62 0 89.5 40.5t27.5 98.5q0 41 -20 59.5t-62 18.5h-42zM171 784q17 71 59 114t104 43q64 0 95 -44.5t27 -116.5l-75 -10
q-5 75 -57 75q-55 0 -81 -79z" />
    <glyph glyph-name="uni0213" unicode="&#x213;" horiz-adv-x="329" 
d="M369 536l-42 -130q-18 5 -36 5q-37 0 -63 -40t-46 -114l-35 -257h-134l74 530h115l-4 -90q25 51 55.5 77.5t72.5 26.5q21 0 43 -8zM96 622q17 71 59 114t104 43q64 0 95 -44.5t27 -116.5l-75 -10q-5 75 -57 75q-55 0 -81 -79z" />
    <glyph glyph-name="uni0214" unicode="&#x214;" horiz-adv-x="529" 
d="M475 192q-8 -58 -39 -105t-83.5 -74.5t-122.5 -27.5q-97 0 -147.5 50.5t-50.5 128.5q0 22 2 34l70 494h139l-71 -508q-2 -16 -2 -22q0 -32 17 -50.5t52 -18.5q42 0 66 27t31 69l70 503h140zM253 977l56 -193l-77 -30l-81 181zM396 976l49 -190l-76 -27l-75 178z" />
    <glyph glyph-name="uni0215" unicode="&#x215;" horiz-adv-x="466" 
d="M54.5 16q-28.5 32 -28.5 87q0 16 3 34l54 393h134l-53 -381q-1 -6 -1 -16q0 -33 24 -33q22 0 43 23.5t42 60.5l49 346h133l-74 -530h-116l4 78q-30 -45 -61 -69.5t-76 -24.5q-48 0 -76.5 32zM204 851l56 -193l-77 -30l-81 181zM347 850l49 -190l-76 -27l-75 178z" />
    <glyph glyph-name="uni0216" unicode="&#x216;" horiz-adv-x="529" 
d="M475 192q-8 -58 -39 -105t-83.5 -74.5t-122.5 -27.5q-97 0 -147.5 50.5t-50.5 128.5q0 22 2 34l70 494h139l-71 -508q-2 -16 -2 -22q0 -32 17 -50.5t52 -18.5q42 0 66 27t31 69l70 503h140zM194 784q17 71 59 114t104 43q64 0 95 -44.5t27 -116.5l-75 -10q-5 75 -57 75
q-55 0 -81 -79z" />
    <glyph glyph-name="uni0217" unicode="&#x217;" horiz-adv-x="466" 
d="M54.5 16q-28.5 32 -28.5 87q0 16 3 34l54 393h134l-53 -381q-1 -6 -1 -16q0 -33 24 -33q22 0 43 23.5t42 60.5l49 346h133l-74 -530h-116l4 78q-30 -45 -61 -69.5t-76 -24.5q-48 0 -76.5 32zM138 622q17 71 59 114t104 43q64 0 95 -44.5t27 -116.5l-75 -10q-5 75 -57 75
q-55 0 -81 -79z" />
    <glyph glyph-name="Scommaaccent" unicode="&#x218;" horiz-adv-x="468" 
d="M489 619l-73 -72q-26 28 -53 41.5t-60 13.5q-43 0 -69 -26t-26 -66q0 -32 19.5 -52t77.5 -48q68 -34 100.5 -76t32.5 -110q0 -67 -32.5 -122t-90.5 -86.5t-132 -31.5q-128 0 -208 98l79 73q31 -32 61 -48t70 -16q50 0 80.5 31t30.5 82q0 38 -21 61.5t-79 51.5
q-70 34 -99.5 72.5t-29.5 101.5q0 60 30 109.5t83 78.5t120 29q117 0 189 -89zM233 -88.5q17 -17.5 17 -43.5q0 -21 -7.5 -40t-27.5 -54l-51 -89h-66l40 117q-24 19 -24 48q0 35 21.5 57t52.5 22q28 0 45 -17.5z" />
    <glyph glyph-name="scommaaccent" unicode="&#x219;" horiz-adv-x="400" 
d="M325.5 528.5q41.5 -17.5 71.5 -49.5l-60 -73q-48 40 -97 40q-29 0 -46.5 -15.5t-17.5 -40.5q0 -22 17.5 -37.5t64.5 -36.5q53 -24 79.5 -57.5t26.5 -87.5q0 -56 -27.5 -98.5t-75 -65.5t-105.5 -23q-111 0 -181 79l71 72q53 -51 108 -51q36 0 55 20.5t19 49.5q0 27 -17 44
t-62 37q-55 24 -80 55.5t-25 83.5q0 47 24.5 86.5t68 62.5t98.5 23q49 0 90.5 -17.5zM192 -88.5q17 -17.5 17 -43.5q0 -21 -7.5 -40t-27.5 -54l-51 -89h-66l40 117q-24 19 -24 48q0 35 21.5 57t52.5 22q28 0 45 -17.5z" />
    <glyph glyph-name="uni021A" unicode="&#x21a;" horiz-adv-x="441" 
d="M500 692l-30 -111h-135l-82 -581h-140l82 581h-145l16 111h434zM220 -88.5q17 -17.5 17 -43.5q0 -21 -7.5 -40t-27.5 -54l-51 -89h-66l40 117q-24 19 -24 48q0 35 21.5 57t52.5 22q28 0 45 -17.5z" />
    <glyph glyph-name="uni021B" unicode="&#x21b;" horiz-adv-x="318" 
d="M180 144q-1 -5 -1 -13q0 -38 33 -38q20 0 48 15l32 -86q-26 -19 -57.5 -28.5t-62.5 -9.5q-61 0 -94 34.5t-33 94.5q0 22 2 34l40 286h-61l14 97h65l30 119l118 14l-19 -133h98l-30 -97h-81zM194 -88.5q17 -17.5 17 -43.5q0 -21 -7.5 -40t-27.5 -54l-51 -89h-66l40 117
q-24 19 -24 48q0 35 21.5 57t52.5 22q28 0 45 -17.5z" />
    <glyph glyph-name="uni021C" unicode="&#x21c;" horiz-adv-x="418" 
d="M379.5 664q46.5 -44 46.5 -116q0 -151 -165 -190q130 -12 130 -129q0 -132 -113.5 -217t-288.5 -122l7 105q80 26 133 54.5t84 71.5t31 106q0 40 -20.5 58t-66.5 18h-55l31 104h43q48 0 76 33.5t28 88.5q0 74 -55 74q-28 0 -57.5 -14.5t-63.5 -44.5l-53 75q94 89 203 89
q79 0 125.5 -44z" />
    <glyph glyph-name="uni021D" unicode="&#x21d;" horiz-adv-x="407" 
d="M335 509q43 -37 43 -100q0 -55 -32 -88t-92 -49q55 0 83.5 -25t28.5 -70q0 -105 -93.5 -176.5t-261.5 -107.5l1 94q111 40 163 82t52 105q0 24 -13.5 34t-41.5 10h-68l23 91h32q37 0 59.5 22t22.5 64q0 54 -48 54q-25 0 -47 -9t-49 -27l-50 73q40 30 82.5 45t91.5 15
q71 0 114 -37z" />
    <glyph glyph-name="uni021E" unicode="&#x21e;" horiz-adv-x="544" 
d="M155 0h-139l97 692h140l-40 -275h160l38 275h140l-97 -692h-140l43 305h-159zM466 931l50 -55l-135 -125h-81l-103 132l54 48l98 -84z" />
    <glyph glyph-name="uni021F" unicode="&#x21f;" horiz-adv-x="470" 
d="M417 513.5q28 -32.5 28 -89.5q0 -18 -3 -36l-55 -388h-134l51 370q1 7 1 20q0 36 -24 36q-21 0 -43 -30t-49 -86l-43 -310h-134l104 741l136 14l-43 -305q56 96 133 96q47 0 75 -32.5zM436 980l50 -55l-135 -125h-81l-103 132l54 48l98 -84z" />
    <glyph glyph-name="uni0220" unicode="&#x220;" horiz-adv-x="535" 
d="M491 667.5q34 -40.5 34 -102.5q0 -21 -2 -32l-103 -741h-138l100 732q2 16 2 23q0 25 -11.5 39t-34.5 14q-25 0 -50 -15t-57 -45l-76 -540h-139l97 692h122v-57q76 73 157 73q65 0 99 -40.5z" />
    <glyph glyph-name="uni0221" unicode="&#x221;" horiz-adv-x="650" 
d="M612.5 210q24.5 -26 24.5 -71q0 -75 -49 -114.5t-125 -39.5q-16 0 -40 2l-35 -68l-58 29l31 56q-46 25 -63 75q-29 -48 -63 -71.5t-78 -23.5q-64 0 -99 49.5t-35 138.5q0 91 25 177t75.5 141.5t121.5 55.5q64 0 95 -53l36 262l133 -14l-84 -596q-2 -13 -1 -19
q27 60 55.5 85t69.5 25q39 0 63.5 -26zM327 401q-11 23 -24 33.5t-33 10.5q-36 0 -61 -44t-37 -108t-12 -121q0 -86 46 -86q42 0 89 87zM532 99.5q15 13.5 15 37.5q0 23 -18 23q-14 0 -26.5 -15t-30.5 -58q6 -1 20 -1q25 0 40 13.5z" />
    <glyph glyph-name="uni0222" unicode="&#x222;" horiz-adv-x="540" 
d="M409 392q45 -20 69 -57t24 -90q0 -75 -34 -134.5t-95 -92.5t-139 -33q-67 0 -114.5 25.5t-72 70t-24.5 100.5q0 76 38 130t105 80q-33 16 -50 42.5t-17 67.5q0 9 2 29l21 162h140l-24 -170q-2 -20 -2 -26q0 -30 14 -44t43 -14q37 0 55.5 23.5t24.5 64.5l23 166h140
l-24 -166q-13 -97 -103 -134zM326 131.5q30 40.5 30 109.5q0 94 -76 94q-50 0 -81 -41t-31 -109q0 -94 78 -94q50 0 80 40.5z" />
    <glyph glyph-name="uni0223" unicode="&#x223;" horiz-adv-x="480" 
d="M368 411q78 -39 78 -150q0 -79 -31 -142t-85.5 -98.5t-123.5 -35.5q-89 0 -137 53.5t-48 139.5q0 83 34 143.5t96 89.5q-54 31 -54 101q0 9 2 29l29 200h131l-31 -222q-2 -16 -2 -22q0 -45 38 -45q24 0 38.5 19t19.5 51l31 219h133l-29 -204q-12 -84 -89 -126zM286 141
q24 54 24 126q0 47 -13.5 69.5t-42.5 22.5q-46 0 -71 -55t-25 -126q0 -91 56 -91q48 0 72 54z" />
    <glyph glyph-name="uni0224" unicode="&#x224;" horiz-adv-x="432" 
d="M459 584l-317 -470l250 1l-16 -115l-9 -57q-12 -78 -60.5 -120t-117.5 -42q-40 0 -67.5 11.5t-48.5 30.5l56 79q15 -10 26.5 -14.5t25.5 -4.5q22 0 36 15.5t18 45.5l8 56h-267l15 107l317 474h-229l18 111h379z" />
    <glyph glyph-name="uni0225" unicode="&#x225;" horiz-adv-x="369" 
d="M379 432l-234 -326h188l-15 -106l-8 -57q-12 -79 -60 -120.5t-119 -41.5q-66 0 -113 43l57 77q16 -10 27 -14.5t27 -4.5q22 0 35.5 14t17.5 41l8 63h-217l15 98l234 327h-174l17 105h328z" />
    <glyph glyph-name="uni0226" unicode="&#x226;" horiz-adv-x="493" 
d="M318 0l-8 157h-158l-50 -157h-145l265 692h169l70 -692h-143zM184 261h121l-16 332zM268.5 784q-18.5 19 -18.5 51q0 40 25.5 65.5t62.5 25.5q34 0 53 -19t19 -51q0 -40 -26 -65.5t-63 -25.5q-34 0 -52.5 19z" />
    <glyph glyph-name="uni0227" unicode="&#x227;" horiz-adv-x="481" 
d="M467 499l-51 -357q-3 -18 -3 -31t4.5 -21t16.5 -14l-42 -90q-39 5 -65.5 24t-35.5 54q-28 -40 -58.5 -60t-72.5 -20q-65 0 -101.5 50t-36.5 136q0 96 28.5 181.5t90 140t156.5 54.5q84 0 170 -47zM215 405.5q-29 -41.5 -43 -105.5t-14 -132q0 -44 11 -63t34 -19
q22 0 41 18.5t41 52.5l39 283q-19 7 -37 7q-43 0 -72 -41.5zM264.5 658q-18.5 19 -18.5 51q0 40 25.5 65.5t62.5 25.5q34 0 53 -19t19 -51q0 -40 -26 -65.5t-63 -25.5q-34 0 -52.5 19z" />
    <glyph glyph-name="uni0228" unicode="&#x228;" horiz-adv-x="427" 
d="M238 589l-26 -186h170l-15 -102h-169l-28 -197h209l-15 -104h-137l-8 -55q36 -4 54.5 -25t18.5 -55q0 -47 -33.5 -83.5t-103.5 -36.5q-28 0 -51 8.5t-39 21.5l40 60q23 -13 48 -13q20 0 31.5 9.5t11.5 27.5t-15.5 25.5t-54.5 7.5l26 108h-136l97 692h348l-31 -103h-192z
" />
    <glyph glyph-name="uni0229" unicode="&#x229;" horiz-adv-x="454" 
d="M405.5 507.5q42.5 -38.5 42.5 -97.5q0 -104 -80 -152.5t-210 -63.5v-14q0 -48 17.5 -70t51.5 -22q28 0 53.5 11t58.5 35l48 -81q-71 -58 -146 -67l-6 -41q36 -4 54.5 -25t18.5 -55q0 -47 -33.5 -83.5t-103.5 -36.5q-28 0 -51 8.5t-39 21.5l40 60q23 -13 48 -13
q20 0 31.5 9.5t11.5 27.5t-15.5 25.5t-54.5 7.5l23 95q-67 12 -104 62.5t-37 135.5q0 94 29 176.5t89 133.5t148 51q73 0 115.5 -38.5zM317 405q0 46 -41 46q-43 0 -70 -48.5t-40 -121.5q151 17 151 124z" />
    <glyph glyph-name="uni022A" unicode="&#x22a;" horiz-adv-x="577" 
d="M509.5 642.5q54.5 -65.5 54.5 -192.5q0 -119 -34 -225t-105 -173.5t-177 -67.5q-102 0 -157 66t-55 191q0 118 33.5 224.5t105 174.5t177.5 68q103 0 157.5 -65.5zM248 539q-37 -63 -53.5 -152t-16.5 -169q0 -67 20 -97.5t59 -30.5q59 0 95.5 62.5t52.5 150.5t16 170
q0 67 -19.5 98t-59.5 31q-57 0 -94 -63zM214.5 763q-16.5 17 -16.5 44q0 35 23 58t54 23q29 0 46 -17t17 -45q0 -34 -22.5 -57t-55.5 -23q-29 0 -45.5 17zM406.5 763q-16.5 17 -16.5 44q0 35 22.5 58t54.5 23q28 0 45 -17t17 -45q0 -34 -22.5 -57t-54.5 -23q-29 0 -45.5 17z
M500 933h-248l14 96h249z" />
    <glyph glyph-name="uni022B" unicode="&#x22b;" horiz-adv-x="487" 
d="M72 37q-47 53 -47 153q0 90 28 171.5t86.5 133t143.5 51.5t132 -53.5t47 -152.5q0 -89 -27.5 -170.5t-85.5 -133.5t-144 -52t-133 53zM278.5 130.5q25.5 44.5 37 107.5t11.5 121q0 84 -53 84q-40 0 -65.5 -44t-36.5 -106.5t-11 -120.5q0 -86 52 -86q40 0 65.5 44.5z
M149.5 626q-16.5 17 -16.5 44q0 35 23 58t54 23q29 0 46 -17t17 -45q0 -34 -22.5 -57t-55.5 -23q-29 0 -45.5 17zM341.5 626q-16.5 17 -16.5 44q0 35 22.5 58t54.5 23q28 0 45 -17t17 -45q0 -34 -22.5 -57t-54.5 -23q-29 0 -45.5 17zM435 800h-248l14 96h249z" />
    <glyph glyph-name="uni022C" unicode="&#x22c;" horiz-adv-x="577" 
d="M503 936h-248l14 96h249zM380.5 763.5q-12.5 6.5 -29.5 19.5q-9 7 -18.5 13t-17.5 6q-12 0 -23 -10.5t-25 -33.5l-60 36q22 47 52.5 77t62.5 30q19 0 32.5 -7.5t28.5 -20.5q2 -2 9 -7.5t13.5 -8t12.5 -2.5q12 0 22.5 10t23.5 32l61 -34q-23 -50 -53.5 -78t-62.5 -28
q-16 0 -28.5 6.5zM509.5 642.5q54.5 -65.5 54.5 -192.5q0 -119 -34 -225t-105 -173.5t-177 -67.5q-102 0 -157 66t-55 191q0 118 33.5 224.5t105 174.5t177.5 68q103 0 157.5 -65.5zM248 539q-37 -63 -53.5 -152t-16.5 -169q0 -67 20 -97.5t59 -30.5q59 0 95.5 62.5
t52.5 150.5t16 170q0 67 -19.5 98t-59.5 31q-57 0 -94 -63z" />
    <glyph glyph-name="uni022D" unicode="&#x22d;" horiz-adv-x="487" 
d="M72 37q-47 53 -47 153q0 90 28 171.5t86.5 133t143.5 51.5t132 -53.5t47 -152.5q0 -89 -27.5 -170.5t-85.5 -133.5t-144 -52t-133 53zM278.5 130.5q25.5 44.5 37 107.5t11.5 121q0 84 -53 84q-40 0 -65.5 -44t-36.5 -106.5t-11 -120.5q0 -86 52 -86q40 0 65.5 44.5z
M305.5 601.5q-12.5 6.5 -29.5 19.5q-9 7 -18.5 13t-17.5 6q-13 0 -23.5 -10.5t-24.5 -33.5l-60 36q22 47 52.5 77t62.5 30q19 0 32.5 -7.5t28.5 -20.5q2 -2 9 -7.5t13.5 -8t12.5 -2.5q12 0 22.5 10t23.5 32l61 -34q-23 -50 -53.5 -78t-62.5 -28q-16 0 -28.5 6.5zM431 776
h-248l14 96h249z" />
    <glyph glyph-name="uni022E" unicode="&#x22e;" horiz-adv-x="577" 
d="M509.5 642.5q54.5 -65.5 54.5 -192.5q0 -119 -34 -225t-105 -173.5t-177 -67.5q-102 0 -157 66t-55 191q0 118 33.5 224.5t105 174.5t177.5 68q103 0 157.5 -65.5zM248 539q-37 -63 -53.5 -152t-16.5 -169q0 -67 20 -97.5t59 -30.5q59 0 95.5 62.5t52.5 150.5t16 170
q0 67 -19.5 98t-59.5 31q-57 0 -94 -63zM311.5 784q-18.5 19 -18.5 51q0 40 25.5 65.5t62.5 25.5q34 0 53 -19t19 -51q0 -40 -26 -65.5t-63 -25.5q-34 0 -52.5 19z" />
    <glyph glyph-name="uni022F" unicode="&#x22f;" horiz-adv-x="487" 
d="M72 37q-47 53 -47 153q0 90 28 171.5t86.5 133t143.5 51.5t132 -53.5t47 -152.5q0 -89 -27.5 -170.5t-85.5 -133.5t-144 -52t-133 53zM278.5 130.5q25.5 44.5 37 107.5t11.5 121q0 84 -53 84q-40 0 -65.5 -44t-36.5 -106.5t-11 -120.5q0 -86 52 -86q40 0 65.5 44.5z
M244.5 658q-18.5 19 -18.5 51q0 40 25.5 65.5t62.5 25.5q34 0 53 -19t19 -51q0 -40 -26 -65.5t-63 -25.5q-34 0 -52.5 19z" />
    <glyph glyph-name="uni0230" unicode="&#x230;" horiz-adv-x="577" 
d="M509.5 642.5q54.5 -65.5 54.5 -192.5q0 -119 -34 -225t-105 -173.5t-177 -67.5q-102 0 -157 66t-55 191q0 118 33.5 224.5t105 174.5t177.5 68q103 0 157.5 -65.5zM248 539q-37 -63 -53.5 -152t-16.5 -169q0 -67 20 -97.5t59 -30.5q59 0 95.5 62.5t52.5 150.5t16 170
q0 67 -19.5 98t-59.5 31q-57 0 -94 -63zM303.5 757q-18.5 19 -18.5 51q0 40 25.5 65.5t62.5 25.5q34 0 53 -19t19 -51q0 -40 -26 -65.5t-63 -25.5q-34 0 -52.5 19zM505 933h-248l14 96h249z" />
    <glyph glyph-name="uni0231" unicode="&#x231;" horiz-adv-x="487" 
d="M72 37q-47 53 -47 153q0 90 28 171.5t86.5 133t143.5 51.5t132 -53.5t47 -152.5q0 -89 -27.5 -170.5t-85.5 -133.5t-144 -52t-133 53zM278.5 130.5q25.5 44.5 37 107.5t11.5 121q0 84 -53 84q-40 0 -65.5 -44t-36.5 -106.5t-11 -120.5q0 -86 52 -86q40 0 65.5 44.5z
M238.5 617q-18.5 19 -18.5 51q0 40 25.5 65.5t62.5 25.5q34 0 53 -19t19 -51q0 -40 -26 -65.5t-63 -25.5q-34 0 -52.5 19zM439 796h-248l14 96h249z" />
    <glyph glyph-name="uni0232" unicode="&#x232;" horiz-adv-x="482" 
d="M550 692l-240 -431l-36 -261h-140l37 261l-118 431h146l57 -321l144 321h150zM434 785h-248l14 96h249z" />
    <glyph glyph-name="uni0233" unicode="&#x233;" horiz-adv-x="428" 
d="M261 -3q-42 -108 -108 -157.5t-172 -58.5l-2 94q66 13 99 38.5t60 86.5h-48l-54 530h139l13 -439l139 439h141zM392 659h-248l14 96h249z" />
    <glyph glyph-name="uni0234" unicode="&#x234;" horiz-adv-x="385" 
d="M347.5 210q24.5 -26 24.5 -71q0 -75 -49 -114.5t-124 -39.5q-21 0 -41 3l-35 -69l-58 29l32 59q-69 37 -69 125q0 9 2 31l81 578l135 15l-86 -618q-1 -4 -1 -11q27 60 55.5 84.5t69.5 24.5q39 0 63.5 -26zM267 99.5q15 13.5 15 37.5q0 23 -18 23q-14 0 -26.5 -15
t-30.5 -58q6 -1 20 -1q25 0 40 13.5z" />
    <glyph glyph-name="uni0235" unicode="&#x235;" horiz-adv-x="633" 
d="M596.5 211q24.5 -26 24.5 -70q0 -75 -49 -115.5t-125 -40.5q-22 0 -42 3l-35 -69l-58 29l33 59q-68 38 -68 129q0 10 2 32l26 195q2 18 2 25q0 38 -25 38q-22 0 -44.5 -31t-48.5 -89l-42 -306h-134l74 530h116l-4 -92q65 108 148 108q47 0 73 -32.5t26 -91.5
q0 -19 -3 -40l-33 -229q-2 -19 -1 -27q26 58 55.5 84.5t69.5 26.5q38 0 62.5 -26zM515.5 99.5q15.5 13.5 15.5 37.5q0 23 -18 23q-14 0 -26 -15.5t-30 -57.5q6 -1 19 -1q24 0 39.5 13.5z" />
    <glyph glyph-name="uni0236" unicode="&#x236;" horiz-adv-x="405" 
d="M368 210q25 -26 25 -71q0 -75 -49.5 -114.5t-125.5 -39.5q-20 0 -40 3l-35 -69l-58 29l32 58q-70 36 -70 126q0 21 2 32l37 269h-60l14 97h65l30 119l117 14l-18 -133h97l-29 -97h-82l-40 -288q-1 -7 -1 -18q26 59 56 84t69 25t64 -26zM287 99.5q15 13.5 15 37.5
q0 23 -18 23q-14 0 -26 -15t-31 -58q6 -1 21 -1q24 0 39 13.5z" />
    <glyph glyph-name="uni0237" unicode="&#x237;" horiz-adv-x="234" 
d="M-91 -119q35 15 56 32.5t35 48.5t21 83l67 485h135l-69 -486q-12 -82 -41 -132t-69 -77.5t-104 -53.5z" />
    <glyph glyph-name="uni0238" unicode="&#x238;" horiz-adv-x="716" 
d="M662 494.5q31 -50.5 31 -144.5q0 -95 -26 -179t-74 -135t-110 -51q-29 0 -53 19t-40 53l-15 -57h-104v60q-45 -75 -113 -75q-64 0 -99 52.5t-35 145.5q0 94 26.5 177t75 134t110.5 51q29 0 52 -17t35 -47l36 260l136 15l-38 -275q45 64 114 64q60 0 91 -50.5z
M239.5 101.5q17.5 15.5 37.5 50.5l33 239q-10 28 -22.5 40.5t-29.5 12.5q-29 0 -51 -38t-33 -97.5t-11 -121.5q0 -101 41 -101q18 0 35.5 15.5zM512 125.5q21 39.5 32 100.5t11 122q0 52 -10.5 73.5t-30.5 21.5q-35 0 -70 -55l-34 -243q10 -31 22 -45t30 -14q29 0 50 39.5z
" />
    <glyph glyph-name="uni0239" unicode="&#x239;" horiz-adv-x="714" 
d="M658.5 496q31.5 -50 31.5 -139q0 -104 -26 -189t-72.5 -134t-106.5 -49q-32 0 -54 13.5t-38 45.5l-35 -249l-136 -15l36 261q-41 -56 -102 -56q-62 0 -96.5 53t-34.5 145q0 96 26.5 179t75 133.5t112.5 50.5q29 0 53.5 -16.5t40.5 -48.5l10 49h102l-1 -52q52 68 122 68
q61 0 92.5 -50zM237.5 99q16.5 13 34.5 41l36 259q-19 45 -48 45q-31 0 -53 -41t-33 -101.5t-11 -119.5q0 -96 41 -96q17 0 33.5 13zM527.5 168.5q24.5 81.5 24.5 185.5q0 48 -10 69t-30 21q-31 0 -71 -56l-35 -248q19 -53 53 -53q44 0 68.5 81.5z" />
    <glyph glyph-name="uni023A" unicode="&#x23a;" horiz-adv-x="493" 
d="M334 0l-11 157h-90l-82 -230l-46 13l78 217h-41l-52 -157h-133l265 692h152l22 61l45 -13l-43 -120l63 -620h-127zM175 256h43l82 228l-9 120zM268 256h48l-8 111z" />
    <glyph glyph-name="uni023B" unicode="&#x23b;" horiz-adv-x="477" 
d="M407 588l-175 -484q17 -9 38 -9q30 0 55.5 13t61.5 40l52 -81q-89 -83 -195 -83q-29 0 -53 6l-23 -63l-48 14l24 67q-51 29 -79 88.5t-28 148.5q0 120 35 225.5t107 171.5t176 66q21 0 41 -3l17 48l48 -14l-17 -48q39 -17 76 -59l-74 -74q-20 20 -39 30zM358 601h-5
q-60 0 -98.5 -56t-56 -139.5t-17.5 -168.5q0 -55 14 -89z" />
    <glyph glyph-name="uni023C" unicode="&#x23c;" horiz-adv-x="397" 
d="M331 429l-120 -335q10 -2 16 -2q21 0 39 8t45 25l48 -82q-72 -59 -153 -59q-12 0 -34 2l-21 -59l-43 13l21 59q-50 21 -77 70.5t-27 122.5q0 93 30 174t88.5 130.5t139.5 49.5q25 0 42 -4l20 57l42 -13l-20 -57q32 -16 60 -47l-66 -74q-15 14 -30 21zM288 440h-1
q-63 0 -92.5 -77t-29.5 -174q0 -42 10 -63z" />
    <glyph glyph-name="uni023D" unicode="&#x23d;" horiz-adv-x="424" 
d="M182 114h219l-32 -114h-342l43 309h-57l14 108h58l39 275h140l-39 -275h63l-14 -108h-64z" />
    <glyph glyph-name="uni023E" unicode="&#x23e;" horiz-adv-x="443" 
d="M471 585h-63l-111 -224l-50 -361h-124l2 16l-44 -89l-39 20l102 205l60 433h-153l16 107h346l30 61l39 -20l-20 -41h40zM316 498l43 87h-31z" />
    <glyph glyph-name="uni023F" unicode="&#x23f;" horiz-adv-x="400" 
d="M337.5 73.5q-26.5 -42.5 -69 -66t-88.5 -23.5q-21 0 -38 4q19 -13 31.5 -27.5t26.5 -35.5q16 -23 26 -32t27 -9q19 0 38 8l21 -84q-19 -12 -38.5 -19t-46.5 -7q-39 0 -65.5 17t-43.5 43.5t-39 73.5q-27 54 -48 88t-53 64l64 63q30 -23 56 -35t56 -12q36 0 55 20.5
t19 49.5q0 27 -17 44t-62 37q-55 24 -80 55.5t-25 83.5q0 47 24.5 86.5t68 62.5t97.5 23q50 0 91.5 -17.5t71.5 -49.5l-60 -73q-48 40 -97 40q-29 0 -46.5 -15.5t-17.5 -40.5q0 -22 17.5 -37.5t64.5 -36.5q53 -24 79.5 -57.5t26.5 -87.5q0 -55 -26.5 -97.5z" />
    <glyph glyph-name="uni0240" unicode="&#x240;" horiz-adv-x="366" 
d="M-12 98l234 327h-174l17 105h328l-14 -98l-263 -364q38 -18 58 -46t38 -70q15 -36 28 -52t37 -16q17 0 35 8l22 -86q-39 -24 -83 -24q-36 0 -60 13t-38 33t-32 53q-19 35 -35 57.5t-43.5 39.5t-69.5 22z" />
    <glyph glyph-name="uni0241" unicode="&#x241;" horiz-adv-x="423" 
d="M133 327l45 16q58 21 87.5 62t29.5 108q0 43 -16.5 66t-49.5 23q-28 0 -56 -14.5t-60 -42.5l-56 74q46 44 92 66t102 22q87 0 138 -50t51 -136q0 -91 -38 -146.5t-112 -84.5l-25 -10l-39 -280h-139z" />
    <glyph glyph-name="uni0242" unicode="&#x242;" horiz-adv-x="378" 
d="M85 201l41 14q54 20 80 55t26 92q0 37 -15 58t-41 21q-25 0 -46 -12t-48 -37l-54 74q77 79 173 79q76 0 122 -48.5t46 -126.5q0 -157 -130 -206l-27 -11l-21 -153h-134z" />
    <glyph glyph-name="uni0243" unicode="&#x243;" horiz-adv-x="516" 
d="M456 321q32 -32 32 -91q0 -106 -72.5 -168t-206.5 -62h-186l24 174h-49l11 75h49l62 443h180q100 0 157 -40t57 -114q0 -69 -40 -112.5t-106 -59.5q56 -13 88 -45zM245 590l-25 -180h47q52 0 78.5 30t26.5 86q0 64 -72 64h-55zM318 141q28 36 28 94q0 41 -20 59.5
t-64 18.5h-56l-9 -64h89l-11 -75h-88l-10 -69h47q66 0 94 36z" />
    <glyph glyph-name="uni0244" unicode="&#x244;" horiz-adv-x="555" 
d="M576 503h-44l-44 -311q-8 -58 -39 -105t-83.5 -74.5t-122.5 -27.5q-97 0 -147.5 50.5t-50.5 128.5q0 22 2 34l43 305h-44l12 83h44l15 106h139l-15 -106h163l15 106h140l-15 -106h44zM393 503h-163l-45 -319q-2 -16 -2 -22q0 -32 17 -50.5t52 -18.5q42 0 66 27t31 69z
" />
    <glyph glyph-name="uni0245" unicode="&#x245;" horiz-adv-x="493" 
d="M391 692l70 -692h-140l-29 589l-188 -589h-147l265 692h169z" />
    <glyph glyph-name="uni0246" unicode="&#x246;" horiz-adv-x="427" 
d="M430 589h-31l-67 -186h50l-15 -102h-72l-71 -197h155l-15 -104h-178l-26 -73l-47 14l21 59h-118l97 692h270l22 61l48 -14l-17 -47h25zM279 403l67 186h-108l-26 -186h67zM172 104l70 197h-44l-28 -197h2z" />
    <glyph glyph-name="uni0247" unicode="&#x247;" horiz-adv-x="454" 
d="M420 492q28 -35 28 -81q0 -90 -60.5 -138t-164.5 -68l-39 -108q17 -9 43 -9q28 0 53.5 11t58.5 35l48 -81q-84 -69 -180 -69q-31 0 -61 8l-23 -65l-43 13l25 69q-39 24 -60 68t-21 107q0 95 29 177.5t89 133.5t148 51h7l19 53l43 -13l-17 -46q50 -13 78 -48zM194 399.5
q-27 -51.5 -38 -124.5q29 3 47 7l62 175q-44 -6 -71 -57.5zM327 405q0 30 -17 44l-54 -150q71 31 71 106zM172 197l-24 -3v-14q0 -24 4 -39z" />
    <glyph glyph-name="uni0248" unicode="&#x248;" horiz-adv-x="279" 
d="M278 288h-59l-27 -192q-11 -80 -42 -129.5t-74 -76.5t-105 -49l-25 97q55 28 76.5 63t31.5 106l25 181h-62l14 108h64l41 296h140l-42 -296h58z" />
    <glyph glyph-name="uni0249" unicode="&#x249;" horiz-adv-x="276" 
d="M261 203h-62l-23 -159q-12 -82 -41 -132t-69 -77.5t-104 -53.5l-31 100q35 15 56 32.5t35 48.5t21 83l22 158h-65l14 97h64l32 230h135l-33 -230h63zM141.5 658q-18.5 19 -18.5 51q0 40 25.5 65.5t62.5 25.5q34 0 53 -19t19 -51q0 -40 -26 -65.5t-63 -25.5
q-34 0 -52.5 19z" />
    <glyph glyph-name="uni024A" unicode="&#x24a;" horiz-adv-x="570" 
d="M594 -179q-55 -40 -121 -40q-69 0 -107 35.5t-38 103.5q0 10 2 32l6 48l4 29q-47 -44 -111 -44q-90 0 -141 67t-51 188q0 129 36 236t100.5 169.5t147.5 62.5q71 0 113 -68l18 52h119l-95 -692h-1l-7 -61q-1 -5 -1 -13q0 -40 34 -40q16 0 27.5 4t30.5 14zM356 147l55 401
q-16 26 -33 40t-40 14q-49 0 -85 -51.5t-54.5 -135.5t-18.5 -179q0 -147 83 -147q51 0 93 58z" />
    <glyph glyph-name="uni024B" unicode="&#x24b;" horiz-adv-x="485" 
d="M424 -108l14 -94q-39 -17 -79 -17q-51 0 -77.5 28.5t-26.5 79.5q0 16 1 24l10 88l6 47q-21 -31 -48 -47.5t-64 -16.5q-65 0 -101 50t-36 136q0 97 28.5 182.5t90 139.5t156.5 54q85 0 172 -47l-70 -498l-11 -85l-1 -8q0 -19 17 -19q4 0 19 3zM246.5 104.5
q19.5 18.5 41.5 52.5l40 283q-19 7 -39 7q-64 0 -97.5 -83t-33.5 -196q0 -43 11.5 -62.5t34.5 -19.5t42.5 18.5z" />
    <glyph glyph-name="uni024C" unicode="&#x24c;" horiz-adv-x="516" 
d="M480 390.5q-33 -54.5 -99 -87.5l100 -303h-144l-82 273h-53l-38 -273h-139l38 274h-52l15 99h51l45 319h170q111 0 166 -45.5t55 -129.5q0 -72 -33 -126.5zM247 590l-31 -217h38q62 0 89.5 40.5t27.5 98.5q0 41 -20 59.5t-62 18.5h-42z" />
    <glyph glyph-name="uni024D" unicode="&#x24d;" horiz-adv-x="348" 
d="M388 536l-42 -130q-18 5 -36 5q-34 0 -58.5 -33t-42.5 -95h61l-14 -97h-65l-25 -186h-134l26 186h-63l14 97h63l34 247h115l-4 -90q25 51 55.5 77.5t72.5 26.5q21 0 43 -8z" />
    <glyph glyph-name="uni024E" unicode="&#x24e;" horiz-adv-x="483" 
d="M506 611h32l-12 -83h-66l-149 -267l-36 -261h-140l37 261l-74 267h-68l13 83h32l-22 81h136l17 -81h169l38 81h138zM257 362l78 166h-112z" />
    <glyph glyph-name="uni024F" unicode="&#x24f;" horiz-adv-x="445" 
d="M422 392h36l-13 -88h-57l-119 -307q-42 -108 -108 -157.5t-172 -58.5l-2 94q66 13 99 38.5t60 86.5h-48l-31 304h-56l13 88h34l-14 138h139l4 -138h104l44 138h141zM196 91l67 213h-73z" />
    <glyph glyph-name="uni0250" unicode="&#x250;" horiz-adv-x="449" 
d="M168 156q-1 -8 -1 -21q0 -25 13 -36.5t46 -11.5q47 0 106 23l28 -88q-39 -18 -83 -27.5t-84 -9.5q-80 0 -120.5 34.5t-40.5 100.5q0 21 2 33l31 234q3 18 3 31t-4.5 21.5t-16.5 13.5l42 90q76 -8 97 -65q55 67 133 67q57 0 90.5 -37.5t33.5 -100.5q0 -100 -63 -151.5
t-165 -51.5h-41zM200 395l-15 -113h28q45 0 70 28.5t25 82.5t-38 54t-70 -52z" />
    <glyph glyph-name="uni0251" unicode="&#x251;" horiz-adv-x="482" 
d="M413 113q0 -13 5 -22t17 -15l-43 -90q-38 5 -64.5 24t-35.5 54q-28 -40 -59 -60t-73 -20q-65 0 -101 50t-36 136q0 95 26 181.5t76.5 140t120.5 53.5q37 0 63 -14.5t43 -48.5l23 48h95l-54 -388q-3 -16 -3 -29zM317 395q-17 51 -56 51q-30 0 -53.5 -41.5t-36.5 -106
t-13 -130.5q0 -44 11.5 -63t34.5 -19q21 0 40 18.5t41 52.5z" />
    <glyph glyph-name="uni0252" unicode="&#x252;" horiz-adv-x="482" 
d="M423 496q36 -50 36 -136q0 -95 -26 -181.5t-76.5 -140t-120.5 -53.5q-37 0 -63 14.5t-43 48.5l-23 -48h-95l54 388q3 17 3 29q0 13 -5 22t-17 15l43 90q38 -5 64.5 -24t35.5 -54q28 40 59 60t73 20q65 0 101 -50zM274.5 125.5q23.5 41.5 36.5 106t13 130.5q0 44 -11.5 63
t-34.5 19q-21 0 -40 -18.5t-41 -52.5l-32 -238q17 -51 56 -51q30 0 53.5 41.5z" />
    <glyph glyph-name="uni0253" unicode="&#x253;" horiz-adv-x="490" 
d="M432.5 499q34.5 -47 34.5 -133q0 -166 -65.5 -274t-208.5 -108q-81 0 -177 40l70 505l11 73q10 70 57.5 112t126.5 42q64 0 120 -33l-49 -86q-32 16 -64 16q-27 0 -40.5 -16.5t-18.5 -50.5l-8 -57l-6 -45q25 29 56.5 45.5t65.5 16.5q61 0 95.5 -47zM278 127
q27 42 40 105.5t13 127.5q0 46 -12 65t-35 19q-20 0 -42 -16.5t-42 -43.5l-40 -289q27 -10 50 -10q41 0 68 42z" />
    <glyph glyph-name="uni0254" unicode="&#x254;" horiz-adv-x="396" 
d="M31 0.5q-34 15.5 -61 44.5l72 74q18 -17 33.5 -24.5t37.5 -7.5q60 0 90 74.5t30 181.5q0 53 -13.5 76.5t-43.5 23.5q-38 0 -84 -33l-47 77q36 30 73 44.5t81 14.5q80 0 125.5 -54.5t45.5 -150.5q0 -108 -31.5 -188.5t-90 -124t-136.5 -43.5q-47 0 -81 15.5z" />
    <glyph glyph-name="uni0255" unicode="&#x255;" horiz-adv-x="419" 
d="M366.5 218.5q26.5 -26.5 26.5 -74.5q0 -75 -50 -117t-123 -42q-35 0 -61 7l-37 -73l-59 29l39 72q-37 25 -57 70.5t-20 104.5q0 91 30 171.5t88.5 130t139.5 49.5q46 0 81 -16t63 -48l-66 -74q-19 16 -36.5 24t-37.5 8q-63 0 -92.5 -77t-29.5 -174q0 -25 2 -49
q26 55 58.5 80t71.5 25q43 0 69.5 -26.5zM285.5 100.5q15.5 14.5 15.5 40.5q0 28 -21 28q-35 0 -69 -79q15 -4 34 -4q25 0 40.5 14.5z" />
    <glyph glyph-name="uni0256" unicode="&#x256;" horiz-adv-x="492" 
d="M526 -179q-54 -40 -123 -40q-66 0 -103.5 36t-37.5 103q0 10 2 32l6 48h1l8 59q-23 -36 -52.5 -55.5t-69.5 -19.5q-64 0 -99 49.5t-35 138.5q0 91 25 177t75.5 141.5t121.5 55.5q64 0 95 -53l36 262l133 -14l-104 -741h-1l-8 -64q-1 -5 -1 -13q0 -40 39 -40q15 0 26.5 4
t27.5 13zM250.5 108.5q21.5 22.5 44.5 65.5l32 227q-11 23 -24 33.5t-33 10.5q-36 0 -61 -44t-37 -108t-12 -121q0 -86 46 -86q23 0 44.5 22.5z" />
    <glyph glyph-name="uni0257" unicode="&#x257;" horiz-adv-x="491" 
d="M637 717l-53 -80q-24 16 -48 16q-21 0 -32 -14t-15 -44l-10 -65l-74 -530h-119l3 69q-27 -42 -58.5 -63.5t-73.5 -21.5q-64 0 -99 49.5t-35 138.5q0 91 25 177t75.5 141.5t121.5 55.5q64 0 95 -53l5 37l9 64q10 74 55 118t119 44q62 0 109 -39zM327 401q-11 23 -24 33.5
t-33 10.5q-36 0 -61 -44t-37 -108t-12 -121q0 -86 46 -86q23 0 44.5 22.5t44.5 65.5z" />
    <glyph glyph-name="uni0258" unicode="&#x258;" horiz-adv-x="457" 
d="M385 487q45 -59 45 -154q0 -105 -32 -183.5t-92 -121.5t-141 -43q-103 0 -162 71l68 72q23 -21 45 -30.5t51 -9.5q82 0 113 105q-114 8 -175.5 46t-61.5 119q0 53 25 96t71 67.5t106 24.5q95 0 140 -59zM205.5 304q26.5 -20 89.5 -24q3 32 3 65q0 106 -58 106
q-28 0 -44.5 -23.5t-16.5 -65.5q0 -38 26.5 -58z" />
    <glyph glyph-name="uni0259" unicode="&#x259;" horiz-adv-x="454" 
d="M381.5 494.5q48.5 -51.5 48.5 -149.5q0 -94 -29 -176.5t-89 -133.5t-148 -51q-73 0 -115.5 38.5t-42.5 97.5q0 104 80 152.5t210 63.5v14q0 48 -17.5 70t-51.5 22q-28 0 -53.5 -11t-58.5 -35l-48 81q84 69 180 69q86 0 134.5 -51.5zM248 127.5q27 48.5 40 121.5
q-151 -17 -151 -124q0 -46 41 -46q43 0 70 48.5z" />
    <glyph glyph-name="uni025A" unicode="&#x25a;" horiz-adv-x="670" 
d="M698 345q-49 -36 -104 -36q-56 0 -85 31t-29 81l-1 17l-54 -35q5 -30 5 -61q-1 -95 -30.5 -176.5t-89 -131.5t-146.5 -50q-73 0 -115.5 38.5t-42.5 97.5q0 104 80 152.5t210 63.5v14q0 48 -17.5 70t-51.5 22q-28 0 -53.5 -11t-58.5 -35l-48 81q84 69 180 69
q104 0 150 -72l90 56h110l-11 -80l-1 -10q0 -17 9.5 -26.5t24.5 -9.5q23 0 51 14zM248 127.5q27 48.5 40 121.5q-151 -17 -151 -124q0 -46 41 -46q43 0 70 48.5z" />
    <glyph glyph-name="uni025B" unicode="&#x25b;" horiz-adv-x="412" 
d="M62 26.5q-49 41.5 -49 110.5q0 59 37.5 98.5t108.5 47.5q-93 22 -93 106q0 43 23 79t65.5 57t98.5 21q47 0 87.5 -16t70.5 -48l-62 -66q-21 16 -41 24.5t-43 8.5q-32 0 -49.5 -19.5t-17.5 -49.5q0 -61 64 -61h41l-28 -91h-36q-45 0 -66.5 -22t-21.5 -59q0 -30 16 -46.5
t46 -16.5q27 0 51 10t54 31l48 -75q-34 -31 -79.5 -48t-98.5 -17q-77 0 -126 41.5z" />
    <glyph glyph-name="uni025C" unicode="&#x25c;" horiz-adv-x="414" 
d="M349.5 511q42.5 -35 42.5 -94q0 -52 -33.5 -88t-99.5 -48q112 -15 112 -112q0 -47 -23.5 -89t-72.5 -68.5t-122 -26.5q-103 0 -168 65l68 77q25 -22 48.5 -32.5t49.5 -10.5q41 0 61.5 25t20.5 64q0 30 -17.5 42.5t-50.5 12.5h-59l24 91h38q42 0 64.5 22.5t22.5 57.5
q0 50 -47 50q-25 0 -47 -9t-51 -27l-48 73q81 60 177 60q68 0 110.5 -35z" />
    <glyph glyph-name="uni025D" unicode="&#x25d;" horiz-adv-x="621" 
d="M648 345q-49 -36 -104 -36q-56 0 -85 31t-29 81l-1 17l-37 -24q-1 -50 -34 -85.5t-99 -47.5q112 -15 112 -112q0 -47 -23.5 -89t-72.5 -68.5t-122 -26.5q-103 0 -168 65l68 77q25 -22 48.5 -32.5t49.5 -10.5q41 0 61.5 25t20.5 64q0 30 -17.5 42.5t-50.5 12.5h-59l24 91
h38q42 0 64.5 22.5t22.5 57.5q0 50 -47 50q-25 0 -47 -9t-51 -27l-48 73q81 60 177 60q43 0 77 -15t54 -42l67 41h110l-11 -80l-1 -10q0 -17 9.5 -26.5t24.5 -9.5q23 0 51 14z" />
    <glyph glyph-name="uni025E" unicode="&#x25e;" horiz-adv-x="472" 
d="M72.5 38q-47.5 53 -47.5 149q0 108 33 189.5t93.5 125.5t141.5 44q70 0 114.5 -35t44.5 -94q0 -52 -32 -87t-95 -48q105 -14 105 -111q0 -47 -23 -89.5t-72 -69.5t-125 -27q-90 0 -137.5 53zM277.5 109.5q19.5 25.5 19.5 65.5q0 29 -16 41t-47 12h-26l28 91h12
q32 0 50.5 21.5t18.5 58.5q0 50 -43 50q-58 0 -89 -79t-31 -188q0 -52 15 -75t49 -23q40 0 59.5 25.5z" />
    <glyph glyph-name="uni025F" unicode="&#x25f;" horiz-adv-x="276" 
d="M261 203h-62l-23 -159q-12 -82 -41 -132t-69 -77.5t-104 -53.5l-31 100q35 15 56 32.5t35 48.5t21 83l22 158h-65l14 97h64l32 230h135l-33 -230h63z" />
    <glyph glyph-name="uni0260" unicode="&#x260;" horiz-adv-x="485" 
d="M631 717l-53 -80q-24 16 -48 16q-21 0 -32 -14t-15 -44l-10 -65l-72 -513q-18 -123 -75.5 -180t-159.5 -57q-92 0 -167 53l49 90q61 -37 114 -37q42 0 69.5 24.5t36.5 90.5l9 67q-24 -33 -51.5 -50.5t-65.5 -17.5q-64 0 -100 49.5t-36 133.5q0 92 28 175t87 135.5
t147 52.5q27 0 54 -8l8 56q10 74 55 118t119 44q62 0 109 -39zM327 441q-18 6 -39 6q-63 0 -95.5 -80t-32.5 -186q0 -42 11.5 -61t33.5 -19q38 0 84 71z" />
    <glyph glyph-name="uni0261" unicode="&#x261;" horiz-adv-x="481" 
d="M468 499l-67 -482q-18 -123 -75.5 -180t-159.5 -57q-92 0 -167 53l49 90q61 -37 114 -37q42 0 69.5 24.5t36.5 90.5l9 67q-24 -33 -51.5 -50.5t-65.5 -17.5q-64 0 -100 49.5t-36 133.5q0 93 28 175.5t89.5 135t156.5 52.5q84 0 170 -47zM192.5 367q-32.5 -80 -32.5 -186
q0 -42 11.5 -61t33.5 -19q38 0 84 71l37 268q-19 7 -38 7q-63 0 -95.5 -80z" />
    <glyph glyph-name="uni0262" unicode="&#x262;" horiz-adv-x="467" 
d="M453 474l-74 -71q-21 22 -42 32.5t-49 10.5q-63 0 -94 -77t-31 -185q0 -53 15 -76t46 -23q29 0 59 15l16 115h-56l2 91h190l-37 -261q-39 -27 -86.5 -43t-99.5 -16q-93 0 -140 50.5t-47 148.5q0 108 33.5 190t94 126.5t137.5 44.5q100 0 163 -72z" />
    <glyph glyph-name="uni0263" unicode="&#x263;" horiz-adv-x="424" 
d="M255 75q17 -46 25.5 -82.5t8.5 -71.5q0 -68 -36 -104t-102 -36q-51 0 -79.5 27.5t-28.5 72.5q0 42 21 87t63 109l-91 453h141l28 -365l119 365h140zM180 -2q-16 -27 -27 -56t-11 -49q0 -24 19 -24q15 0 22.5 13t7.5 36q0 29 -11 80z" />
    <glyph glyph-name="uni0264" unicode="&#x264;" horiz-adv-x="465" 
d="M504 514l-48 -76q-14 10 -31 10q-14 0 -23 -7.5t-19 -27.5l-93 -180q17 -42 24.5 -68t7.5 -55q0 -56 -31 -90.5t-92 -34.5q-49 0 -75.5 25.5t-26.5 68.5q0 36 17.5 73t53.5 85l-45 178q-5 18 -11.5 25.5t-19.5 7.5q-16 0 -33 -10l-28 79q22 14 42.5 21t44.5 7
q47 0 69 -27.5t30 -83.5l23 -124l53 129q21 55 50.5 80.5t77.5 25.5q47 0 83 -31zM220 171q-15 -27 -23 -45.5t-8 -34.5q0 -21 17 -21q12 0 18.5 10t6.5 28q0 24 -11 63z" />
    <glyph glyph-name="uni0265" unicode="&#x265;" horiz-adv-x="467" 
d="M261 70q-27 -40 -56.5 -63t-74.5 -23q-48 0 -76.5 32t-28.5 87q0 16 3 34l55 393h134l-53 -381q-1 -6 -1 -17q0 -32 24 -32q22 0 43.5 24t46.5 63l47 343h134l-103 -735l-135 -16z" />
    <glyph glyph-name="uni0266" unicode="&#x266;" horiz-adv-x="471" 
d="M418 513.5q28 -32.5 28 -89.5q0 -18 -3 -36l-55 -388h-134l51 370q1 7 1 20q0 36 -25 36q-20 0 -42 -29.5t-50 -86.5l-42 -310h-134l73 529l11 73q10 70 57.5 112t126.5 42q64 0 120 -33l-49 -86q-32 16 -64 16q-27 0 -40.5 -16.5t-18.5 -50.5l-8 -57l-10 -78
q54 95 132 95q47 0 75 -32.5z" />
    <glyph glyph-name="uni0267" unicode="&#x267;" horiz-adv-x="471" 
d="M418 513.5q28 -32.5 28 -89.5q0 -18 -3 -36l-55 -388l-8 -55q-11 -82 -60 -123t-124 -41q-38 0 -64.5 11.5t-48.5 31.5l57 77q16 -10 27 -14t27 -4q22 0 35 14t16 40l9 63l51 370q1 7 1 20q0 36 -25 36q-20 0 -42 -29.5t-50 -86.5l-42 -310h-134l73 529l11 73
q10 70 57.5 112t126.5 42q64 0 120 -33l-49 -86q-32 16 -64 16q-27 0 -40.5 -16.5t-18.5 -50.5l-8 -57l-10 -78q54 95 132 95q47 0 75 -32.5z" />
    <glyph glyph-name="uni0268" unicode="&#x268;" horiz-adv-x="273" 
d="M136.5 658q-18.5 19 -18.5 51q0 40 25.5 65.5t62.5 25.5q34 0 53 -19t19 -51q0 -40 -26 -65.5t-63 -25.5q-34 0 -52.5 19zM241 530l-28 -200h63l-14 -97h-62l-33 -233h-134l33 233h-65l14 97h64l28 200h134z" />
    <glyph glyph-name="uni0269" unicode="&#x269;" horiz-adv-x="247" 
d="M82 530h133l-56 -405q-1 -4 -1 -10q0 -21 19 -21q10 0 20 3l13 -94q-39 -18 -83 -18q-50 0 -77 28.5t-27 78.5q0 8 2 28z" />
    <glyph glyph-name="uni026A" unicode="&#x26a;" horiz-adv-x="272" 
d="M283 433h-57l-46 -336h57l-14 -97h-249l14 97h58l46 336h-58l14 97h249z" />
    <glyph glyph-name="uni026B" unicode="&#x26b;" horiz-adv-x="371" 
d="M226 125q-1 -4 -1 -11q0 -20 18 -20q10 0 20 3l13 -94q-39 -18 -83 -18q-50 0 -76.5 28t-26.5 78q0 9 2 29l31 224h-5q-19 0 -33 -12.5t-34 -38.5l-63 39q33 52 67 83t78 31h4l41 295l135 15l-51 -370q20 0 35 12t31 36l65 -39q-33 -51 -66.5 -81.5t-77.5 -30.5h-1z" />
    <glyph glyph-name="uni026C" unicode="&#x26c;" horiz-adv-x="359" 
d="M283 97l13 -94q-39 -18 -83 -18q-50 0 -76.5 28t-26.5 78q0 9 2 29l17 126h-1q-58 2 -88.5 30.5t-30.5 76.5q0 55 34 88t87 33q14 0 30 -4l38 271l135 15l-60 -432h1q32 3 55 8l6 -71q-33 -11 -71 -13h-1l-17 -123q-1 -4 -1 -11q0 -20 18 -20q10 0 20 3zM140 323l11 77
q-11 3 -18 3q-17 0 -26 -11.5t-9 -32.5q0 -36 42 -36z" />
    <glyph glyph-name="uni026D" unicode="&#x26d;" horiz-adv-x="233" 
d="M268 -179q-54 -40 -123 -40q-66 0 -103.5 36t-37.5 103q0 10 2 32l6 48l105 741l135 15l-106 -756l-8 -64q-1 -5 -1 -13q0 -40 39 -40q15 0 26.5 4t27.5 13z" />
    <glyph glyph-name="uni026E" unicode="&#x26e;" horiz-adv-x="585" 
d="M566 434l-185 -227q78 -7 117.5 -48.5t39.5 -114.5q0 -79 -33 -139t-90 -92t-129 -32q-121 0 -181 100l81 64q25 -31 48 -44.5t54 -13.5q51 0 81.5 42t30.5 112q0 47 -20.5 66t-64.5 19h-77l12 83l175 217h-224l-42 -301q-1 -4 -1 -11q0 -20 18 -20q10 0 20 3l13 -94
q-39 -18 -83 -18q-50 0 -76.5 28t-26.5 78q0 9 2 29l86 621l135 15l-31 -226h365z" />
    <glyph glyph-name="uni026F" unicode="&#x26f;" horiz-adv-x="688" 
d="M675 530l-74 -530h-116l4 84q-29 -48 -61.5 -74t-73.5 -26q-39 0 -64.5 25t-32.5 71q-29 -47 -61 -71.5t-71 -24.5q-45 0 -72.5 33t-27.5 89q0 17 3 36l56 388h134l-51 -370q-2 -20 -2 -25q0 -33 21 -33q18 0 37.5 28.5t44.5 84.5l45 315h134l-51 -370q-2 -18 -2 -24
q0 -34 21 -34q19 0 38.5 29t44.5 87l43 312h134z" />
    <glyph glyph-name="uni0270" unicode="&#x270;" horiz-adv-x="684" 
d="M675 530l-103 -736l-136 -14l41 293q-50 -89 -122 -89q-40 0 -65.5 25t-32.5 71q-29 -46 -61 -71t-70 -25q-46 0 -73.5 32.5t-27.5 89.5q0 17 3 36l56 388h134l-51 -369q-2 -20 -2 -25q0 -34 21 -34q33 0 80 102l47 326h134l-51 -369q-2 -18 -2 -24q0 -35 21 -35
q35 0 82 104l44 324h134z" />
    <glyph glyph-name="uni0271" unicode="&#x271;" horiz-adv-x="688" 
d="M635.5 513q27.5 -33 27.5 -89q0 -16 -3 -36l-56 -388l-8 -55q-11 -82 -60 -123t-124 -41q-38 0 -64.5 11.5t-48.5 31.5l57 77q16 -10 27 -14t27 -4q22 0 35 14t16 40l9 63l51 370q2 20 2 25q0 33 -21 33q-18 0 -37.5 -28.5t-44.5 -84.5l-45 -315h-134l51 370q2 18 2 24
q0 34 -21 34q-19 0 -38.5 -29t-44.5 -87l-43 -312h-134l74 530h116l-4 -84q29 48 61.5 74t73.5 26q39 0 64.5 -25t32.5 -71q29 47 61 71.5t71 24.5q45 0 72.5 -33z" />
    <glyph glyph-name="uni0272" unicode="&#x272;" horiz-adv-x="471" 
d="M418 513.5q28 -32.5 28 -89.5q0 -18 -3 -36l-55 -388h-134l51 370q1 7 1 20q0 36 -24 36q-21 0 -43 -30t-49 -86l-43 -310l-8 -55q-11 -82 -60 -123t-124 -41q-38 0 -64.5 11.5t-48.5 31.5l57 77q16 -10 27 -14t27 -4q22 0 35 14t16 40l9 63l74 530h116l-4 -86
q31 48 65.5 75t78.5 27q47 0 75 -32.5z" />
    <glyph glyph-name="uni0273" unicode="&#x273;" horiz-adv-x="471" 
d="M510 -179q-54 -40 -123 -40q-66 0 -103.5 36t-37.5 103q0 10 2 32l6 48l51 370q1 7 1 20q0 36 -24 36q-21 0 -43 -30t-49 -86l-43 -310h-134l74 530h116l-4 -86q31 48 65.5 75t78.5 27q47 0 75 -32.5t28 -89.5q0 -18 -3 -36l-55 -388l-8 -64q-1 -5 -1 -13q0 -40 39 -40
q15 0 26.5 4t27.5 13z" />
    <glyph glyph-name="uni0274" unicode="&#x274;" horiz-adv-x="479" 
d="M393 0h-158l-70 408q0 -63 -3 -117t-12 -122l-24 -169h-113l74 530h157l70 -407q0 59 1.5 103.5t8.5 93.5l30 210h113z" />
    <glyph glyph-name="uni0275" unicode="&#x275;" horiz-adv-x="487" 
d="M415 492.5q47 -53.5 47 -152.5q0 -89 -27.5 -170.5t-85.5 -133.5t-144 -52t-133 53t-47 153q0 90 28 171.5t86.5 133t143.5 51.5t132 -53.5zM169 310h162q2 34 2 47q0 47 -14 68t-43 21q-75 0 -107 -136zM279 124q26 40 41 104h-164q-2 -38 -2 -55q0 -46 14 -67.5
t44 -21.5q41 0 67 40z" />
    <glyph glyph-name="uni0276" unicode="&#x276;" horiz-adv-x="621" 
d="M619 434h-183q22 -44 22 -99v-19h125l-12 -94h-126q-18 -77 -58 -126h198l-14 -96h-290q-37 -16 -79 -16q-83 0 -130 53.5t-47 152.5q0 90 28 171.5t86.5 133t143.5 51.5q46 0 75 -16h289zM213 86q40 0 65.5 44.5t37 107.5t11.5 121q0 84 -53 84q-40 0 -65.5 -44
t-36.5 -106.5t-11 -120.5q0 -86 52 -86z" />
    <glyph glyph-name="uni0277" unicode="&#x277;" horiz-adv-x="635" 
d="M540 485q66 -61 66 -174q0 -88 -24 -162.5t-71.5 -119t-112.5 -44.5q-107 0 -108 112q-22 -59 -55 -85.5t-82 -26.5q-64 0 -99.5 46t-32.5 137q5 184 93.5 281t244.5 97q115 0 181 -61zM453 147q23 60 23 158q0 71 -30.5 107t-97.5 36q-101 0 -149.5 -74t-48.5 -214
q0 -38 8.5 -55.5t25.5 -17.5q43 0 55 76l21 138l127 17l-25 -163q-2 -18 -2 -25q0 -43 31 -43q39 0 62 60z" />
    <glyph glyph-name="uni0278" unicode="&#x278;" horiz-adv-x="556" 
d="M507.5 164q-27.5 -70 -79 -111.5t-121.5 -48.5l-30 -209l-134 -15l32 225q-69 11 -111.5 61.5t-42.5 137.5q0 91 27.5 161.5t78.5 112t122 47.5l29 216l135 14l-32 -232q69 -10 111.5 -61.5t42.5 -137.5q0 -90 -27.5 -160zM201 94l46 342q-51 -8 -76.5 -74.5
t-25.5 -161.5q0 -100 56 -106zM385.5 169q25.5 67 25.5 159q0 53 -14 78.5t-43 28.5l-45 -341q51 8 76.5 75z" />
    <glyph glyph-name="uni0279" unicode="&#x279;" horiz-adv-x="329" 
d="M-40 -6l42 130q18 -5 36 -5q37 0 63 40t46 114l35 257h134l-74 -530h-115l4 90q-25 -51 -55.5 -77.5t-72.5 -26.5q-21 0 -43 8z" />
    <glyph glyph-name="uni027A" unicode="&#x27a;" horiz-adv-x="329" 
d="M346 741l-30 -211l-74 -530h-115l4 90q-25 -51 -55.5 -77.5t-72.5 -26.5q-21 0 -43 8l42 130q18 -5 36 -5q37 0 63 40t46 114l35 257l32 225z" />
    <glyph glyph-name="uni027B" unicode="&#x27b;" horiz-adv-x="328" 
d="M364 -179q-54 -40 -123 -40q-66 0 -103.5 36t-37.5 103q0 10 2 32l6 48l11 75q-20 -41 -47.5 -65t-68.5 -24q-21 0 -43 8l42 131q22 -6 36 -6q36 0 62.5 40t46.5 114l35 257h134l-74 -530l-8 -64q-1 -5 -1 -13q0 -40 39 -40q15 0 26.5 4t27.5 13z" />
    <glyph glyph-name="uni027C" unicode="&#x27c;" horiz-adv-x="329" 
d="M369 536l-41 -130q-20 5 -36 5q-37 0 -63 -39.5t-47 -114.5l-65 -462l-135 -15l105 750h115l-4 -90q25 51 55.5 77.5t72.5 26.5q22 0 43 -8z" />
    <glyph glyph-name="uni027D" unicode="&#x27d;" horiz-adv-x="329" 
d="M369 536l-42 -130q-18 5 -36 5q-37 0 -63 -40t-46 -114l-35 -257h-1l-8 -64q-1 -5 -1 -13q0 -40 39 -40q15 0 26.5 4t27.5 13l38 -79q-54 -40 -123 -40q-66 0 -103.5 36t-37.5 103q0 10 2 32l6 48h1l74 530h115l-4 -90q25 51 55.5 77.5t72.5 26.5q21 0 43 -8z" />
    <glyph glyph-name="uni027E" unicode="&#x27e;" horiz-adv-x="324" 
d="M311.5 534.5q26.5 -11.5 48.5 -31.5l-57 -77q-16 10 -27 14t-27 4q-22 0 -35 -14t-16 -40l-9 -63l-46 -327h-134l46 327l8 55q11 82 60 123t124 41q38 0 64.5 -11.5z" />
    <glyph glyph-name="uni027F" unicode="&#x27f;" horiz-adv-x="325" 
d="M257.5 510q37.5 -36 37.5 -103q0 -10 -2 -32l-6 -48l-45 -327h-134l45 327l8 64q1 5 1 13q0 40 -39 40q-15 0 -26.5 -4t-27.5 -13l-38 79q54 40 123 40q66 0 103.5 -36z" />
    <glyph glyph-name="uni0280" unicode="&#x280;" horiz-adv-x="442" 
d="M317 215l77 -215h-130l-61 190h-36l-27 -190h-127l74 530h146q181 0 181 -151q0 -115 -97 -164zM179 281h31q37 0 56 25t19 71q0 31 -14 44t-43 13h-27z" />
    <glyph glyph-name="uni0281" unicode="&#x281;" horiz-adv-x="442" 
d="M388 196q0 -96 -57.5 -146t-157.5 -50h-160l74 530h127l-26 -191h39l110 191h131l-138 -220q58 -36 58 -114zM238 118.5q21 23.5 21 71.5q0 30 -14.5 43.5t-41.5 13.5h-28l-21 -152h24q39 0 60 23.5z" />
    <glyph glyph-name="uni0282" unicode="&#x282;" horiz-adv-x="397" 
d="M334.5 258.5q26.5 -33.5 26.5 -87.5q0 -56 -24.5 -98.5t-68.5 -65.5t-100 -23q-43 0 -86 15l-8 -63q-1 -5 -1 -13q0 -40 43 -40q30 0 66 18l40 -80q-54 -40 -123 -40q-66 0 -103.5 36t-37.5 102q0 21 2 33l16 116l61 61q32 -22 58.5 -33.5t55.5 -11.5q36 0 55 20.5
t19 49.5q0 27 -17 44t-62 37q-55 24 -80 55.5t-25 83.5q0 47 24.5 86.5t68 62.5t97.5 23q50 0 91.5 -17.5t71.5 -49.5l-59 -73q-48 40 -97 40q-29 0 -46.5 -15t-17.5 -41q0 -22 17.5 -38t63.5 -36q53 -24 79.5 -57.5z" />
    <glyph glyph-name="uni0283" unicode="&#x283;" horiz-adv-x="234" 
d="M379 717l-53 -80q-24 16 -48 16q-21 0 -32 -14t-15 -44l-10 -65l-74 -530l-8 -55q-11 -82 -60 -123t-124 -41q-38 0 -64.5 11.5t-48.5 31.5l57 77q16 -10 27 -14t27 -4q22 0 35 14t16 40l9 63l74 530l9 64q10 74 55 118t119 44q62 0 109 -39z" />
    <glyph glyph-name="uni0284" unicode="&#x284;" horiz-adv-x="330" 
d="M411 717l-53 -80q-24 16 -48 16q-21 0 -32 -14t-15 -44l-10 -65h1l-61 -433h62l-14 -97h-64q-15 -65 -44 -106t-66.5 -65t-95.5 -48l-31 100q44 20 67.5 44.5t36.5 74.5h-64l14 97h65l60 433l9 64q10 74 55 118t119 44q62 0 109 -39z" />
    <glyph glyph-name="uni0285" unicode="&#x285;" horiz-adv-x="408" 
d="M384 25q-54 -40 -123 -40q-66 0 -103.5 36t-37.5 103q0 10 2 32l6 48l18 122l8 64q1 5 1 13q0 40 -39 40q-15 0 -26.5 -4t-27.5 -13l-38 79q54 40 123 40q66 0 103.5 -36t37.5 -103q0 -10 -2 -32l-6 -48l-18 -123l-8 -63q-1 -5 -1 -13q0 -40 39 -40q15 0 26.5 4t27.5 13z
" />
    <glyph glyph-name="uni0286" unicode="&#x286;" horiz-adv-x="290" 
d="M434 717l-53 -80q-24 16 -48 16q-21 0 -32 -14t-15 -44l-10 -65l-76 -542q39 -10 74 -35l-31 -57q-36 18 -56 25q-42 -139 -179 -139q-55 0 -85 28.5t-30 79.5q0 59 37.5 93t94.5 34q33 0 46 -4l71 517l9 64q10 74 55 118t119 44q62 0 109 -39zM40.5 -123
q13.5 20 19.5 60l1 10q-15 4 -36 4q-25 0 -39 -15.5t-14 -41.5q0 -37 32 -37q23 0 36.5 20z" />
    <glyph glyph-name="uni0287" unicode="&#x287;" horiz-adv-x="318" 
d="M278 0h-65l-30 -119l-118 -14l19 133h-98l30 97h81l41 289q1 5 1 13q0 38 -33 38q-20 0 -48 -15l-32 86q26 19 57.5 28.5t62.5 9.5q61 0 94 -34.5t33 -94.5q0 -22 -2 -34l-40 -286h61z" />
    <glyph glyph-name="uni0288" unicode="&#x288;" horiz-adv-x="319" 
d="M152 -64q-1 -5 -1 -13q0 -40 39 -40q15 0 26.5 4t27.5 13l38 -79q-54 -40 -123 -40q-66 0 -103.5 36t-37.5 103q0 10 2 32l6 48h1l59 433h-60l14 97h65l30 119l117 14l-18 -133h97l-29 -97h-82l-59 -433h-1z" />
    <glyph glyph-name="uni0289" unicode="&#x289;" horiz-adv-x="505" 
d="M506 304h-61l-42 -304h-116l4 78q-30 -45 -61 -69.5t-76 -24.5q-48 0 -76.5 32t-28.5 87q0 16 3 34l23 167h-61l13 88h60l19 138h134l-19 -138h103l20 138h133l-19 -138h60zM312 304h-103l-22 -155q-1 -6 -1 -16q0 -33 24 -33q22 0 43 23.5t42 60.5z" />
    <glyph glyph-name="uni028A" unicode="&#x28a;" horiz-adv-x="493" 
d="M70 38.5q-49 53.5 -49 139.5q0 161 126 255h-76l15 97h171l-15 -92q-40 -55 -61 -121.5t-21 -137.5q0 -95 57 -95q50 0 78.5 58.5t28.5 156.5q0 50 -5 80.5t-15 60.5l14 90h168l-15 -97h-74q31 -31 47.5 -68.5t16.5 -88.5q0 -90 -34.5 -155.5t-92.5 -100.5t-127 -35
q-88 0 -137 53.5z" />
    <glyph glyph-name="uni028B" unicode="&#x28b;" horiz-adv-x="465" 
d="M71.5 22.5q-43.5 37.5 -43.5 102.5q0 8 2 28l53 377h134l-53 -380q-1 -6 -1 -18q0 -45 38 -45q32 0 55.5 35t33.5 106l25 187q1 4 1 10q0 19 -15 19q-8 0 -18 -4l-9 91q34 14 73 14q49 0 76 -28t27 -82q0 -16 -3 -36l-23 -170q-16 -122 -83 -183t-157 -61
q-69 0 -112.5 37.5z" />
    <glyph glyph-name="uni028C" unicode="&#x28c;" horiz-adv-x="424" 
d="M-40 0l205 530h161l62 -530h-141l-16 423l-131 -423h-140z" />
    <glyph glyph-name="uni028D" unicode="&#x28d;" horiz-adv-x="621" 
d="M-28 0l162 530h155l2 -409l110 409h158l15 -530h-132l16 429l-123 -429h-131l2 429l-106 -429h-128z" />
    <glyph glyph-name="uni028E" unicode="&#x28e;" horiz-adv-x="428" 
d="M167 533q44 112 110 162.5t171 59.5l2 -95q-66 -12 -99.5 -39t-60.5 -92l48 1l55 -530h-139l-14 439l-138 -439h-141z" />
    <glyph glyph-name="uni028F" unicode="&#x28f;" horiz-adv-x="422" 
d="M462 530l-194 -335l-27 -195h-134l27 194l-98 336h140l37 -241l108 241h141z" />
    <glyph glyph-name="uni0290" unicode="&#x290;" horiz-adv-x="376" 
d="M440 -179q-54 -40 -123 -40q-66 0 -103.5 36t-37.5 103q0 10 2 32l6 48h-211l15 98l234 327h-174l17 105h328l-14 -98l-234 -326h188l-15 -106l-8 -64q-1 -5 -1 -13q0 -40 39 -40q15 0 26.5 4t27.5 13z" />
    <glyph glyph-name="uni0291" unicode="&#x291;" horiz-adv-x="449" 
d="M425.5 223.5q26.5 -25.5 26.5 -72.5q0 -77 -51.5 -114t-135.5 -37h-6q-6 -26 -14 -80l-8 -48l-75 4q9 69 21 124h-210l15 98l234 327h-174l17 105h328l-13 -89l-241 -335h75q27 77 60.5 110t80.5 33q44 0 70.5 -25.5zM345 116q17 10 17 35q0 23 -20 23q-32 0 -53 -68h5
q34 0 51 10z" />
    <glyph glyph-name="uni0292" unicode="&#x292;" horiz-adv-x="417" 
d="M397 434l-185 -227q79 -7 118 -48.5t39 -114.5q0 -79 -33 -139t-90 -92t-128 -32q-123 0 -181 100l81 64q24 -31 47 -44.5t55 -13.5q51 0 81 42t30 112q0 47 -20.5 66t-64.5 19h-77l12 83l175 217h-213l15 104h353z" />
    <glyph glyph-name="uni0293" unicode="&#x293;" horiz-adv-x="413" 
d="M395 434l-183 -222q75 -4 114.5 -46.5t39.5 -117.5q0 -91 -45.5 -156.5t-125.5 -92.5l17 -62l-71 -23l-16 69q-24 -2 -39 -2q-72 0 -113 34.5t-41 95.5t34.5 96.5t84.5 35.5q47 0 73 -30.5t42 -106.5q63 38 63 140q0 46 -21.5 65.5t-68.5 19.5h-73l1 1l11 77l177 217
h-214l15 104h352zM38.5 -103q14.5 -10 48.5 -10h14q-11 48 -20.5 65.5t-26.5 17.5q-14 0 -22 -11.5t-8 -29.5q0 -22 14.5 -32z" />
    <glyph glyph-name="uni0294" unicode="&#x294;" horiz-adv-x="398" 
d="M119 352l34 14q66 28 94.5 72t28.5 121q0 46 -17.5 70t-50.5 24q-28 0 -52.5 -13t-54.5 -41l-57 69q45 45 89 66.5t99 21.5q84 0 135 -53t51 -140q0 -100 -37 -157t-115 -91l-20 -9l-42 -306h-134z" />
    <glyph glyph-name="uni0295" unicode="&#x295;" horiz-adv-x="394" 
d="M117 0l42 306l-15 9q-46 25 -69.5 61t-23.5 103q0 78 31 141.5t86 99.5t123 36q56 0 96.5 -23t74.5 -68l-73 -64q-24 27 -45 39.5t-49 12.5q-49 0 -78 -47t-29 -124q0 -49 19.5 -77t59.5 -44l32 -12l-48 -349h-134z" />
    <glyph glyph-name="uni0296" unicode="&#x296;" horiz-adv-x="421" 
d="M313 755l-45 -321l22 -9q97 -42 97 -164q0 -80 -30.5 -143t-84.5 -98t-123 -35q-55 0 -98 23t-77 68l76 64q23 -27 44.5 -39.5t48.5 -12.5q50 0 78 47t28 123q0 51 -18.5 78.5t-59.5 40.5l-42 13l49 351z" />
    <glyph glyph-name="uni0297" unicode="&#x297;" horiz-adv-x="414" 
d="M444 482l-66 -74q-20 17 -36.5 24.5t-37.5 7.5q-48 0 -81.5 -59.5t-50 -153t-16.5 -194.5q0 -85 15.5 -114.5t47.5 -29.5q21 0 39.5 8t44.5 25l48 -82q-70 -59 -154 -59q-86 0 -133 62t-47 190q0 147 34 263.5t98.5 183t151.5 66.5t143 -64z" />
    <glyph glyph-name="uni0298" unicode="&#x298;" horiz-adv-x="664" 
d="M581.5 634.5q67.5 -73.5 67.5 -203.5q0 -133 -45.5 -234t-127 -156.5t-187.5 -55.5q-76 0 -133 33t-87.5 96t-30.5 149q0 133 46 234t128 156t186 55q116 0 183.5 -73.5zM268.5 564.5q-49.5 -45.5 -74.5 -125.5t-25 -181q0 -89 34 -132.5t96 -43.5q70 0 119.5 45
t74.5 124t25 181q0 90 -34 134t-95 44q-71 0 -120.5 -45.5zM290 286q-17 18 -17 46q0 36 23 59t57 23q30 0 47.5 -17t17.5 -46q0 -36 -23.5 -59.5t-57.5 -23.5q-30 0 -47 18z" />
    <glyph glyph-name="uni0299" unicode="&#x299;" horiz-adv-x="444" 
d="M311 289q54 -6 78.5 -32t24.5 -71q0 -89 -61.5 -137.5t-164.5 -48.5h-175l73 524q87 21 170 21q81 0 127 -34.5t46 -92.5q0 -104 -118 -129zM278 342.5q19 22.5 19 64.5q0 25 -12 36t-39 11q-25 0 -41 -4l-18 -130h36q36 0 55 22.5zM255.5 117q25.5 24 25.5 75
q0 28 -14.5 39t-47.5 11h-43l-21 -149h33q42 0 67.5 24z" />
    <glyph glyph-name="uni029A" unicode="&#x29a;" horiz-adv-x="482" 
d="M62.5 25q-49.5 40 -49.5 107q0 61 37.5 102t108.5 49q-85 22 -85 99q0 44 24 81.5t68 60t103 22.5q90 0 138 -56t48 -154q0 -164 -68 -257.5t-197 -93.5q-78 0 -127.5 40zM296.5 158.5q29.5 74.5 29.5 181.5q0 57 -15.5 83t-45.5 26t-45.5 -20.5t-15.5 -54.5
q0 -55 52 -55h18l-28 -91h-16q-42 0 -61.5 -24.5t-19.5 -61.5q0 -28 14 -43t39 -15q65 0 94.5 74.5z" />
    <glyph glyph-name="uni029B" unicode="&#x29b;" horiz-adv-x="461" 
d="M618 717l-50 -81q-26 17 -51 17q-21 0 -32 -14.5t-15 -45.5l-17 -119l-67 -64q-29 19 -50.5 27.5t-47.5 8.5q-63 0 -94 -77t-31 -185q0 -53 15 -76t46 -23q29 0 59 15l16 115h-56l2 91h190l-37 -261q-39 -27 -86.5 -43t-99.5 -16q-93 0 -140 50.5t-47 148.5
q0 108 33.5 190t92.5 126.5t133 44.5q31 0 61 -11l12 78q23 143 151 143q63 0 110 -39z" />
    <glyph glyph-name="uni029C" unicode="&#x29c;" horiz-adv-x="478" 
d="M257 0l31 218h-111l-30 -218h-134l74 530h134l-29 -209h110l29 209h134l-74 -530h-134z" />
    <glyph glyph-name="uni029D" unicode="&#x29d;" horiz-adv-x="328" 
d="M295 781q19 -19 19 -51q0 -40 -26 -65.5t-63 -25.5q-34 0 -52.5 19t-18.5 51q0 40 25.5 65.5t62.5 25.5q34 0 53 -19zM276 530l-76 -542q39 -10 74 -35l-31 -57q-36 18 -56 25q-42 -139 -179 -139q-55 0 -85 28.5t-30 79.5q0 59 37.5 93t94.5 34q33 0 46 -4l71 517h134z
M40.5 -123q13.5 20 19.5 60l1 10q-15 4 -36 4q-25 0 -39 -15.5t-14 -41.5q0 -37 32 -37q23 0 36.5 20z" />
    <glyph glyph-name="uni029E" unicode="&#x29e;" horiz-adv-x="448" 
d="M-37 0l167 249l-99 281h144l86 -290l-155 -240h-143zM201 -220l105 750h133l-103 -736z" />
    <glyph glyph-name="uni029F" unicode="&#x29f;" horiz-adv-x="363" 
d="M221 530l-57 -423h177l-31 -107h-297l74 530h134z" />
    <glyph glyph-name="uni02A0" unicode="&#x2a0;" horiz-adv-x="486" 
d="M632 717l-53 -80q-24 16 -48 16q-21 0 -32 -14t-15 -44l-10 -65l-104 -744l-133 2l37 259q-25 -30 -51.5 -46.5t-62.5 -16.5q-65 0 -101.5 50t-36.5 136q0 95 28.5 181t86 140.5t141.5 54.5q32 0 63 -11l8 59q10 74 55 118t119 44q62 0 109 -39zM365 530h-11l4 -2z
M327 440q-19 7 -39 7q-63 0 -96.5 -83.5t-33.5 -195.5q0 -43 11.5 -62.5t34.5 -19.5q22 0 42.5 19t40.5 52z" />
    <glyph glyph-name="uni02A1" unicode="&#x2a1;" horiz-adv-x="398" 
d="M246 306l-12 -87h81l-12 -84h-80l-19 -135h-134l19 135h-55l12 84h54l19 133l34 14q66 28 94.5 72t28.5 121q0 46 -17.5 70t-50.5 24q-28 0 -52.5 -13t-54.5 -41l-57 69q45 45 89 66.5t99 21.5q84 0 135 -53t51 -140q0 -100 -37 -157t-115 -91z" />
    <glyph glyph-name="uni02A2" unicode="&#x2a2;" horiz-adv-x="394" 
d="M387.5 733q40.5 -23 74.5 -68l-73 -64q-24 27 -45 39.5t-49 12.5q-49 0 -78 -47t-29 -124q0 -49 19.5 -77t59.5 -44l32 -12l-18 -130h56l-12 -84h-55l-19 -135h-134l19 135h-81l13 84h79l12 87l-15 9q-46 25 -69.5 61t-23.5 103q0 78 31 141.5t86 99.5t123 36
q56 0 96.5 -23z" />
    <glyph glyph-name="uni02A3" unicode="&#x2a3;" horiz-adv-x="805" 
d="M808 432l-232 -326h194l-28 -106h-456l3 69q-27 -42 -58.5 -63.5t-73.5 -21.5q-64 0 -99 49.5t-35 138.5q0 91 25 177t75.5 141.5t121.5 55.5q64 0 95 -53l36 262l133 -14l-30 -211h344zM327 401q-11 23 -24 33.5t-33 10.5q-36 0 -61 -44t-37 -108t-12 -121q0 -86 46 -86
q23 0 44.5 22.5t44.5 65.5zM419 97l232 328h-186z" />
    </font>
</defs>
</svg>
