<?xml version="1.0" standalone="no"?>
<!DOCTYPE svg PUBLIC "-//W3C//DTD SVG 1.1//EN" "http://www.w3.org/Graphics/SVG/1.1/DTD/svg11.dtd" >
<svg xmlns="http://www.w3.org/2000/svg" xmlns:xlink="http://www.w3.org/1999/xlink" version="1.1">
<metadata>
Created by FontForge 20170731 at Tue Dec  6 15:27:44 2016
 By Aleksey,,,
Digitized data copyright 2012-2016, The Mozilla Foundation and Telefonica S.A.
</metadata>
<defs>
<font id="FiraSansExtraCondensed-LightItalic" horiz-adv-x="460" >
  <font-face 
    font-family="Fira Sans Extra Condensed Light"
    font-weight="300"
    font-style="italic"
    font-stretch="condensed"
    units-per-em="1000"
    panose-1="2 11 4 3 5 0 0 2 0 4"
    ascent="800"
    descent="-200"
    x-height="523"
    cap-height="685"
    bbox="-629 -350 1417 1050"
    underline-thickness="50"
    underline-position="-150"
    slope="-8"
    unicode-range="U+000D-FEFF"
  />
<missing-glyph horiz-adv-x="663" 
d="M652 1050l-198 -1400h-418l198 1400h418zM590 998h-309l-183 -1296h309zM421.5 425.5q23.5 -25.5 23.5 -66.5q0 -8 -2 -26q-7 -52 -32.5 -80t-76.5 -35l-8 -47q-1 -10 -9 -16t-16 -6q-11 0 -18 7.5t-6 18.5l10 82q53 3 75.5 21t28.5 59q1 7 1 20q0 22 -11 34t-39 12
q-17 0 -29 -2.5t-25 -9.5l-13 -2q-12 0 -18.5 7.5t-4.5 18.5q2 18 31.5 27t62.5 9q52 0 75.5 -25.5zM316 109q9 -11 7 -27q-1 -15 -11.5 -24.5t-24.5 -9.5q-15 0 -23.5 9.5t-8.5 24.5q0 17 10 27.5t26 10.5t25 -11z" />
    <glyph glyph-name="fi" unicode="fi" horiz-adv-x="473" 
d="M352 0h-56l67 477h-183l-64 -469q-9 -65 -27.5 -103t-46 -61t-76.5 -47l-15 42q35 18 55 36t33.5 50.5t21.5 87.5l64 464h-73l7 46h72l12 88q9 62 48 97t101 35q61 0 117 -42l-25 -37q-45 32 -90 32q-43 0 -66 -22t-30 -68l-11 -83h239z" />
    <glyph glyph-name="fl" unicode="fl" horiz-adv-x="492" 
d="M423 44l10 -41q-26 -14 -54 -14q-31 0 -50 19.5t-19 54.5q0 7 2 21l82 590q-28 11 -51.5 16.5t-51.5 5.5q-41 0 -63.5 -22t-29.5 -68l-11 -83h109l-14 -46h-102l-64 -469q-9 -65 -27.5 -103t-46 -61t-76.5 -47l-15 42q35 18 55 36t33.5 50.5t21.5 87.5l64 464h-74l7 46
h73l12 88q9 62 47.5 97t100.5 35q64 0 114 -25l52 5l-90 -642q-1 -5 -1 -15q0 -28 26 -28q15 0 31 6z" />
    <glyph glyph-name=".notdef" horiz-adv-x="663" 
d="M652 1050l-198 -1400h-418l198 1400h418zM590 998h-309l-183 -1296h309zM421.5 425.5q23.5 -25.5 23.5 -66.5q0 -8 -2 -26q-7 -52 -32.5 -80t-76.5 -35l-8 -47q-1 -10 -9 -16t-16 -6q-11 0 -18 7.5t-6 18.5l10 82q53 3 75.5 21t28.5 59q1 7 1 20q0 22 -11 34t-39 12
q-17 0 -29 -2.5t-25 -9.5l-13 -2q-12 0 -18.5 7.5t-4.5 18.5q2 18 31.5 27t62.5 9q52 0 75.5 -25.5zM316 109q9 -11 7 -27q-1 -15 -11.5 -24.5t-24.5 -9.5q-15 0 -23.5 9.5t-8.5 24.5q0 17 10 27.5t26 10.5t25 -11z" />
    <glyph glyph-name=".null" horiz-adv-x="0" 
 />
    <glyph glyph-name="nonmarkingreturn" unicode="&#xd;" horiz-adv-x="222" 
 />
    <glyph glyph-name="space" unicode=" " horiz-adv-x="222" 
 />
    <glyph glyph-name="exclam" unicode="!" horiz-adv-x="218" 
d="M74 218l60 467h59l-70 -467h-49zM43 0.5q-11 11.5 -11 29.5q0 21 13.5 36t34.5 15q19 0 30.5 -12t11.5 -29q0 -21 -13.5 -36t-35.5 -15q-19 0 -30 11.5z" />
    <glyph glyph-name="quotedbl" unicode="&#x22;" horiz-adv-x="338" 
d="M94 434l27 251h57l-44 -251h-40zM252 434l27 251h57l-44 -251h-40z" />
    <glyph glyph-name="numbersign" unicode="#" horiz-adv-x="416" 
d="M430 452h-63l-57 -226h59l-7 -45h-63l-45 -181h-50l45 181h-139l-45 -181h-50l45 181h-59l7 45h63l56 226h-57l6 46h63l41 167h50l-41 -167h139l41 167h51l-42 -167h59zM260 226l56 226h-139l-56 -226h139z" />
    <glyph glyph-name="dollar" unicode="$" horiz-adv-x="433" 
d="M431 600l-35 -32q-27 31 -55 45t-63 14q-57 0 -94 -37.5t-37 -97.5q0 -42 21.5 -67t77.5 -50q68 -30 100 -67.5t32 -100.5q0 -50 -21 -97t-62.5 -79t-99.5 -40l-21 -141h-46l20 139q-90 5 -154 84l36 31q27 -32 59 -49t74 -17q51 0 86.5 23.5t53 61.5t17.5 82
q0 47 -23 74.5t-82 54.5q-67 31 -96 65.5t-29 90.5q0 46 22 87t61 67t90 30l20 144h46l-21 -145q69 -9 123 -73z" />
    <glyph glyph-name="percent" unicode="%" horiz-adv-x="670" 
d="M575 703l-488 -700l36 -26l487 700zM114.5 385.5q-28.5 34.5 -28.5 92.5q0 46 17 92t50.5 76t81.5 30q49 0 77 -33.5t28 -91.5q0 -46 -16.5 -92.5t-50.5 -77t-82 -30.5t-76.5 34.5zM251 419.5q22 26.5 32 63.5t10 69q0 38 -14.5 60.5t-45.5 22.5q-51 0 -75 -51.5
t-24 -107.5q0 -38 14 -60.5t45 -22.5q36 0 58 26.5zM377.5 23.5q-28.5 34.5 -28.5 92.5q0 46 17 92t50.5 76t81.5 30q49 0 77.5 -33.5t28.5 -91.5q0 -46 -17 -92.5t-50.5 -77t-81.5 -30.5q-49 0 -77.5 34.5zM514 57.5q22 26.5 32 63t10 69.5q0 38 -14 60.5t-45 22.5
q-52 0 -75.5 -51t-23.5 -108q0 -83 58 -83q36 0 58 26.5z" />
    <glyph glyph-name="ampersand" unicode="&#x26;" horiz-adv-x="605" 
d="M415.5 660q35.5 -36 35.5 -90q0 -64 -36 -108.5t-126 -99.5l130 -192q45 81 82 175l47 -19q-49 -112 -99 -191l77 -113l-46 -32l-68 103q-43 -52 -89 -78t-101 -26q-70 0 -112 44.5t-42 112.5q0 65 33 119t116 109q-27 41 -41 76t-14 71q0 47 18.5 87t54.5 64t87 24
q58 0 93.5 -36zM243.5 613.5q-25.5 -37.5 -25.5 -91.5q0 -60 45 -125q77 48 105 85t28 88q0 37 -20.5 59t-54.5 22q-52 0 -77.5 -37.5zM151.5 249.5q-25.5 -45.5 -25.5 -102.5q0 -49 26 -80t73 -31q89 0 159 93l-141 210q-66 -44 -91.5 -89.5z" />
    <glyph glyph-name="quotesingle" unicode="'" horiz-adv-x="180" 
d="M94 434l27 251h57l-44 -251h-40z" />
    <glyph glyph-name="parenleft" unicode="(" horiz-adv-x="265" 
d="M301 813q-105 -150 -153.5 -290t-48.5 -306q0 -99 18 -172.5t54 -159.5l-38 -20q-45 101 -67 176.5t-22 175.5q0 126 24.5 227.5t72.5 192t127 201.5z" />
    <glyph glyph-name="parenright" unicode=")" horiz-adv-x="265" 
d="M205.5 718q17.5 -47 29 -106t11.5 -128q0 -126 -25 -227.5t-73 -193t-127 -201.5l-33 24q105 152 154 292t49 306q0 97 -18 171t-54 161l38 19q31 -70 48.5 -117z" />
    <glyph glyph-name="asterisk" unicode="*" horiz-adv-x="377" 
d="M388 580l-132 -39l66 -128l-47 -26l-50 132l-87 -132l-42 27l101 128l-118 41l19 46l115 -53l14 160h55l-31 -161l127 55z" />
    <glyph glyph-name="plus" unicode="+" horiz-adv-x="417" 
d="M270 508l-21 -153h121l-7 -49h-122l-22 -152h-52l22 152h-122l6 49h124l22 153h51z" />
    <glyph glyph-name="comma" unicode="," horiz-adv-x="184" 
d="M93 70q11 -11 11 -30q0 -12 -5 -24.5t-17 -36.5l-65 -129h-38l55 147q-18 12 -18 34q0 21 13.5 35.5t34.5 14.5q18 0 29 -11z" />
    <glyph glyph-name="hyphen" unicode="-" horiz-adv-x="332" 
d="M59 289l7 48h220l-6 -48h-221z" />
    <glyph glyph-name="period" unicode="." horiz-adv-x="186" 
d="M27 0.5q-11 11.5 -11 29.5q0 21 13.5 36t34.5 15q19 0 30.5 -12t11.5 -29q0 -21 -13.5 -36t-35.5 -15q-19 0 -30 11.5z" />
    <glyph glyph-name="slash" unicode="/" horiz-adv-x="436" 
d="M365 803l46 -12l-315 -890l-45 13z" />
    <glyph glyph-name="zero" unicode="0" horiz-adv-x="480" 
d="M166.5 599.5q-54.5 -76.5 -80 -188.5t-25.5 -219q0 -100 34 -151.5t101 -51.5q83 0 137.5 76.5t80 188.5t25.5 219q0 100 -34 151.5t-101 51.5q-83 0 -137.5 -76.5zM363 593q20 -36 20 -113q0 -99 -21.5 -202t-63.5 -172.5t-100 -69.5q-41 0 -61 36t-20 113
q0 99 21.5 202t63.5 172.5t100 69.5q41 0 61 -36z" />
    <glyph glyph-name="one" unicode="1" horiz-adv-x="350" 
d="M298 665l-93 -665h-56l83 597l-143 -98l-23 42l184 124h48z" />
    <glyph glyph-name="two" unicode="2" horiz-adv-x="396" 
d="M331.5 634.5q37.5 -41.5 37.5 -108.5q0 -59 -23.5 -112.5t-87.5 -135.5t-198 -229l257 1l-16 -50h-311l8 49q144 162 208 243.5t84.5 129t20.5 101.5q0 51 -23 78.5t-64 27.5q-36 0 -66.5 -19t-62.5 -57l-34 31q40 48 80 70t86 22q67 0 104.5 -41.5z" />
    <glyph glyph-name="three" unicode="3" horiz-adv-x="410" 
d="M343.5 638q35.5 -38 35.5 -102q0 -73 -38.5 -121.5t-107.5 -61.5q51 -6 78.5 -38t27.5 -92q0 -57 -23 -111t-71 -88.5t-118 -34.5q-49 0 -85 22t-62 66l39 26q22 -36 48.5 -51.5t61.5 -15.5q75 0 114 56t39 134q0 54 -25 78t-73 24h-38l16 46h24q42 0 73 22.5t47.5 59.5
t16.5 79q0 46 -22 71t-61 25q-33 0 -63 -15.5t-65 -48.5l-27 34q40 38 78.5 56.5t81.5 18.5q63 0 98.5 -38z" />
    <glyph glyph-name="four" unicode="4" horiz-adv-x="428" 
d="M395 222l-8 -47h-71l-25 -175h-55l25 175h-238l7 43l226 458l46 -20l-212 -434h178l33 196h49l-28 -196h73z" />
    <glyph glyph-name="five" unicode="5" horiz-adv-x="405" 
d="M393 618h-219l-31 -228q48 31 94 31q59 0 92.5 -43t33.5 -117q0 -63 -23.5 -126t-73 -104.5t-123.5 -41.5q-51 0 -85.5 21t-59.5 60l38 30q22 -33 47.5 -48t62.5 -15q54 0 90 34t53 85t17 103q0 57 -22.5 86.5t-63.5 29.5q-26 0 -47.5 -7.5t-47.5 -24.5h-43l45 322h281z
" />
    <glyph glyph-name="six" unicode="6" horiz-adv-x="451" 
d="M211.5 547.5q-54.5 -82.5 -81.5 -213.5q67 99 152 99q56 0 89.5 -39t33.5 -113q0 -68 -23 -135.5t-69.5 -112t-112.5 -44.5q-73 0 -107.5 51.5t-34.5 141.5q0 114 34 229t97 190t145 75q57 0 100 -40l-29 -36q-33 30 -73 30q-66 0 -120.5 -82.5zM192 354.5
q-39 -31.5 -72 -86.5q-5 -42 -5 -87q0 -73 20.5 -109t65.5 -36q50 0 83 39t48.5 95.5t15.5 109.5q0 54 -20.5 80t-57.5 26q-39 0 -78 -31.5z" />
    <glyph glyph-name="seven" unicode="7" horiz-adv-x="361" 
d="M391 665l-7 -44l-299 -629l-48 17l288 607l-250 1l7 48h309z" />
    <glyph glyph-name="eight" unicode="8" horiz-adv-x="453" 
d="M374 289.5q23 -34.5 23 -82.5q0 -65 -27 -114.5t-74.5 -76.5t-105.5 -27q-74 0 -116 43t-42 113q0 146 154 213q-71 45 -71 129q0 56 25 99t65.5 66.5t87.5 23.5q62 0 101.5 -36.5t39.5 -100.5q0 -65 -30 -108t-101 -81q48 -26 71 -60.5zM203.5 590q-33.5 -41 -33.5 -102
q0 -39 16.5 -64t55.5 -44l25 -12q62 35 87 74.5t25 94.5q0 45 -23 69.5t-64 24.5q-55 0 -88.5 -41zM298 81.5q42 45.5 42 125.5q0 42 -20.5 69.5t-68.5 50.5l-26 12q-80 -35 -108 -84.5t-28 -110.5q0 -51 27 -79.5t76 -28.5q64 0 106 45.5z" />
    <glyph glyph-name="nine" unicode="9" horiz-adv-x="435" 
d="M372.5 628.5q35.5 -47.5 35.5 -132.5q0 -174 -75 -313t-288 -203l-10 42q124 43 198.5 115.5t105.5 201.5q-35 -44 -71.5 -67t-77.5 -23q-57 0 -91 44t-34 118q0 64 23 125t69 100.5t110 39.5q70 0 105.5 -47.5zM347 397q5 63 5 99q0 66 -21 100t-66 34
q-49 0 -81.5 -34.5t-47.5 -85t-15 -100.5q0 -56 20.5 -85t59.5 -29q71 0 146 101z" />
    <glyph glyph-name="colon" unicode=":" horiz-adv-x="186" 
d="M27 0.5q-11 11.5 -11 29.5q0 21 13.5 36t34.5 15q19 0 30.5 -12t11.5 -29q0 -21 -13.5 -36t-35.5 -15q-19 0 -30 11.5zM82 390.5q-11 11.5 -11 29.5q0 21 13.5 36t34.5 15q19 0 30.5 -12t11.5 -29q0 -21 -13.5 -36t-35.5 -15q-19 0 -30 11.5z" />
    <glyph glyph-name="semicolon" unicode=";" horiz-adv-x="188" 
d="M93 70q11 -11 11 -30q0 -12 -5 -24.5t-17 -36.5l-65 -129h-38l55 147q-18 12 -18 34q0 21 13.5 35.5t34.5 14.5q18 0 29 -11zM84 390.5q-11 11.5 -11 29.5q0 21 13.5 36t34.5 15q19 0 30.5 -12t11.5 -29q0 -21 -13.5 -36t-35.5 -15q-19 0 -30 11.5z" />
    <glyph glyph-name="less" unicode="&#x3c;" horiz-adv-x="418" 
d="M379 527l17 -44l-285 -156l241 -147l-29 -44l-264 168l8 53z" />
    <glyph glyph-name="equal" unicode="=" horiz-adv-x="416" 
d="M79 392l6 50h296l-7 -50h-295zM55 218l6 50h296l-7 -50h-295z" />
    <glyph glyph-name="greater" unicode="&#x3e;" horiz-adv-x="418" 
d="M115 527l264 -167l-8 -54l-312 -170l-17 45l285 155l-241 147z" />
    <glyph glyph-name="question" unicode="?" horiz-adv-x="380" 
d="M350.5 660.5q34.5 -35.5 34.5 -91.5q0 -42 -15 -73t-36 -51.5t-56 -45.5q-31 -23 -49 -39.5t-30.5 -40t-12.5 -54.5q0 -22 3 -39l-50 -10q-7 28 -7 52q0 37 13.5 65t33.5 46.5t52 42.5t51 42t32 44t13 61q0 39 -20 59t-57 20q-35 0 -66 -18t-65 -55l-33 30q39 47 80 69
t87 22q63 0 97.5 -35.5zM120 -0.5q-11 11.5 -11 29.5q0 21 13.5 36t34.5 15q19 0 30.5 -12t11.5 -29q0 -21 -13.5 -36t-35.5 -15q-19 0 -30 11.5z" />
    <glyph glyph-name="at" unicode="@" horiz-adv-x="855" 
d="M661 655q65 -41 98 -112.5t33 -162.5q0 -83 -23 -168.5t-68.5 -142.5t-110.5 -57q-44 0 -66 29.5t-23 77.5q-53 -105 -134 -105q-50 0 -80.5 40t-30.5 113t23 146t72.5 122t123.5 49q55 0 107 -31l-36 -275q-4 -34 -4 -50q0 -71 48 -71q46 0 80 51t51 126t17 146
q0 123 -61.5 195.5t-175.5 72.5q-129 0 -215 -79t-126.5 -194t-40.5 -225q0 -92 30.5 -161t87.5 -107t135 -38q84 0 162 33l8 -46q-45 -18 -85 -27t-89 -9q-91 0 -159.5 44t-106 124.5t-37.5 186.5q0 121 47 247.5t146 212.5t246 86q92 0 157 -41zM444.5 93q31.5 34 49.5 78
l36 257q-16 6 -28.5 9t-28.5 3q-58 0 -95 -44t-53 -107.5t-16 -123.5q0 -53 17.5 -79.5t49.5 -26.5q37 0 68.5 34z" />
    <glyph glyph-name="A" unicode="A" horiz-adv-x="476" 
d="M361 0l-21 188h-226l-74 -188h-60l280 685h74l88 -685h-61zM133 237h202l-45 400z" />
    <glyph glyph-name="B" unicode="B" horiz-adv-x="503" 
d="M449 227q0 -58 -23.5 -109t-77.5 -84.5t-141 -33.5h-157l97 685h157q83 0 129 -38t46 -108q0 -71 -38.5 -116.5t-105.5 -60.5q114 -22 114 -135zM198 637l-36 -253h106q74 0 113 42.5t39 110.5q0 52 -29.5 76t-86.5 24h-106zM350 101q39 52 39 125q0 58 -30 84t-90 26
h-113l-41 -287h100q96 0 135 52z" />
    <glyph glyph-name="C" unicode="C" horiz-adv-x="459" 
d="M433 680q33 -16 61 -48l-35 -34q-26 26 -49.5 37t-55.5 11q-81 0 -134.5 -64t-78.5 -159t-25 -190q0 -96 34 -144t93 -48q39 0 69 14t63 41l26 -39q-75 -68 -163 -68q-83 0 -132 64t-49 182q0 109 32 215t99 176t167 70q45 0 78 -16z" />
    <glyph glyph-name="D" unicode="D" horiz-adv-x="536" 
d="M441 632q61 -53 61 -177q0 -122 -33 -225t-106 -166.5t-186 -63.5h-127l97 685h133q100 0 161 -53zM198 636l-83 -587h73q91 0 148 59.5t82 151.5t25 195q0 101 -43 141t-118 40h-84z" />
    <glyph glyph-name="E" unicode="E" horiz-adv-x="418" 
d="M437 685l-14 -49h-225l-36 -257h196l-8 -48h-195l-40 -282h239l-8 -49h-296l97 685h290z" />
    <glyph glyph-name="F" unicode="F" horiz-adv-x="391" 
d="M432 685l-15 -49h-219l-38 -269h191l-7 -48h-190l-46 -319h-58l97 685h285z" />
    <glyph glyph-name="G" unicode="G" horiz-adv-x="513" 
d="M444 679q36 -17 67 -52l-38 -33q-26 28 -52 40t-63 12q-79 0 -133.5 -60t-81.5 -156t-27 -204q0 -187 133 -187q60 0 123 36l34 245h-104v49h169l-45 -323q-91 -57 -182 -57q-90 0 -139 61.5t-49 180.5q0 120 35 226.5t104 172.5t165 66q48 0 84 -17z" />
    <glyph glyph-name="H" unicode="H" horiz-adv-x="548" 
d="M108 0h-58l97 685h58l-42 -300h257l42 300h58l-96 -685h-58l47 335h-257z" />
    <glyph glyph-name="I" unicode="I" horiz-adv-x="233" 
d="M205 685l-97 -685h-58l97 685h58z" />
    <glyph glyph-name="J" unicode="J" horiz-adv-x="246" 
d="M138 88q-8 -61 -27 -98t-49.5 -61t-83.5 -48l-15 41q43 23 65.5 44t34 50t18.5 78l84 591h58z" />
    <glyph glyph-name="K" unicode="K" horiz-adv-x="462" 
d="M50 0l97 685h58l-97 -685h-58zM354 0l-191 367l275 318h63l-275 -320l192 -365h-64z" />
    <glyph glyph-name="L" unicode="L" horiz-adv-x="384" 
d="M205 685l-89 -632h233l-16 -53h-283l97 685h58z" />
    <glyph glyph-name="M" unicode="M" horiz-adv-x="641" 
d="M546 0h-56l21 326q8 136 23 303l-209 -548h-59l-63 547q-11 -75 -56 -299l-69 -329h-56l148 685h76l59 -536l202 536h82z" />
    <glyph glyph-name="N" unicode="N" horiz-adv-x="550" 
d="M425 0h-75l-167 632q-5 -93 -26 -248l-52 -384h-55l97 685h75l168 -631q4 92 21 215l57 416h54z" />
    <glyph glyph-name="O" unicode="O" horiz-adv-x="572" 
d="M490 632.5q49 -63.5 49 -180.5q0 -107 -31 -213.5t-98 -178t-169 -71.5q-87 0 -136 63.5t-49 180.5q0 104 31.5 211t98.5 179.5t168 72.5q87 0 136 -63.5zM216 579.5q-53 -67.5 -76.5 -163.5t-23.5 -185q0 -95 33.5 -143.5t94.5 -48.5q85 0 137.5 68t75 164t22.5 185
q0 96 -33 143.5t-95 47.5q-82 0 -135 -67.5z" />
    <glyph glyph-name="P" unicode="P" horiz-adv-x="464" 
d="M421.5 642.5q48.5 -42.5 48.5 -125.5q0 -64 -24.5 -120.5t-80.5 -92.5t-146 -36h-73l-38 -268h-58l97 685h136q90 0 138.5 -42.5zM368.5 374.5q41.5 58.5 41.5 142.5q0 63 -33 91.5t-100 28.5h-79l-45 -321h71q103 0 144.5 58.5z" />
    <glyph glyph-name="Q" unicode="Q" horiz-adv-x="574" 
d="M488 -50l-47 -43q-35 48 -79.5 65t-121.5 17q-86 1 -135 64t-49 180q0 104 31.5 211t98.5 179.5t168 72.5q87 0 136 -63.5t49 -180.5q0 -87 -20.5 -175t-66.5 -158t-117 -98q99 -6 153 -71zM149.5 87.5q33.5 -48.5 94.5 -48.5q85 0 137.5 68t75 164t22.5 185
q0 96 -33 143.5t-95 47.5q-82 0 -135 -67.5t-76.5 -163.5t-23.5 -185q0 -95 33.5 -143.5z" />
    <glyph glyph-name="R" unicode="R" horiz-adv-x="486" 
d="M429.5 401q-37.5 -59 -113.5 -82l107 -319h-60l-102 308h-109l-44 -308h-58l97 685h138q92 0 137 -39.5t45 -113.5q0 -72 -37.5 -131zM242 356q88 0 126.5 51.5t38.5 122.5q0 55 -28.5 81t-93.5 26h-87l-40 -281h84z" />
    <glyph glyph-name="S" unicode="S" horiz-adv-x="444" 
d="M374.5 676q37.5 -20 69.5 -57l-36 -33q-28 32 -56.5 46.5t-65.5 14.5q-58 0 -96 -40.5t-38 -99.5q0 -42 22 -67t81 -52q71 -33 103 -71.5t32 -103.5q0 -57 -26.5 -108.5t-77 -83.5t-118.5 -32q-56 0 -97.5 22.5t-75.5 65.5l37 31q29 -34 60.5 -51.5t76.5 -17.5
q49 0 85.5 23.5t56 62.5t19.5 86q0 49 -23 77.5t-84 57.5q-72 34 -100.5 68t-28.5 90q0 48 24 92.5t68.5 72t101.5 27.5q49 0 86.5 -20z" />
    <glyph glyph-name="T" unicode="T" horiz-adv-x="409" 
d="M461 685l-15 -52h-160l-89 -633h-58l89 633h-164l7 52h390z" />
    <glyph glyph-name="U" unicode="U" horiz-adv-x="530" 
d="M440 176q-11 -80 -67 -133.5t-145 -53.5q-81 0 -122.5 45t-41.5 114q0 21 2 32l71 505h58l-71 -506q-2 -20 -2 -30q0 -50 27.5 -79.5t82.5 -29.5q65 0 104 40.5t47 102.5l70 502h58z" />
    <glyph glyph-name="V" unicode="V" 
d="M503 685l-275 -685h-69l-82 685h59l66 -624l240 624h61z" />
    <glyph glyph-name="W" unicode="W" horiz-adv-x="672" 
d="M704 685l-216 -685h-73l-29 620l-203 -620h-73l-23 685h54l15 -629l206 629h66l30 -630l191 630h55z" />
    <glyph glyph-name="X" unicode="X" horiz-adv-x="424" 
d="M455 685l-197 -316l122 -369h-61l-99 328l-187 -328h-63l220 368l-107 317h61l84 -279l164 279h63z" />
    <glyph glyph-name="Y" unicode="Y" horiz-adv-x="432" 
d="M483 685l-237 -418l-38 -267h-58l38 267l-119 418h59l95 -365l196 365h64z" />
    <glyph glyph-name="Z" unicode="Z" horiz-adv-x="421" 
d="M-11 0l8 49l378 585h-268l8 51h330l-8 -48l-378 -586l294 1l-16 -52h-348z" />
    <glyph glyph-name="bracketleft" unicode="[" horiz-adv-x="261" 
d="M285 806l-7 -46h-91l-115 -826h90l-6 -46h-144l130 918h143z" />
    <glyph glyph-name="backslash" unicode="\" horiz-adv-x="435" 
d="M221 798l65 -889l-48 -8l-64 890z" />
    <glyph glyph-name="bracketright" unicode="]" horiz-adv-x="261" 
d="M273 806l-130 -918h-142l6 46h92l115 826h-91l6 46h144z" />
    <glyph glyph-name="asciicircum" unicode="^" horiz-adv-x="447" 
d="M328 832l107 -305h-58l-80 249l-149 -249h-62l194 305h48z" />
    <glyph glyph-name="underscore" unicode="_" horiz-adv-x="437" 
d="M-26 -121l8 50h380l-7 -50h-381z" />
    <glyph glyph-name="grave" unicode="`" horiz-adv-x="239" 
d="M127 778l141 -102l-21 -30l-151 84z" />
    <glyph glyph-name="a" unicode="a" horiz-adv-x="472" 
d="M423 496l-55 -382q-4 -24 -4 -43q0 -16 5 -25.5t18 -16.5l-18 -40q-29 9 -43 29t-13 59q-29 -42 -62 -65t-75 -23q-62 0 -97.5 48t-35.5 133q0 87 26 170.5t81.5 138.5t139.5 55q67 0 133 -38zM182.5 440q-42.5 -48 -62.5 -121t-20 -149q0 -66 22 -100t63 -34q37 0 69 27
t62 77l47 331q-38 17 -75 17q-63 0 -105.5 -48z" />
    <glyph glyph-name="b" unicode="b" horiz-adv-x="478" 
d="M401.5 489q33.5 -45 33.5 -129q0 -88 -24 -173t-78 -141.5t-139 -56.5q-37 0 -70.5 8t-73.5 26l101 713l56 7l-40 -287q34 38 68 58t73 20q60 0 93.5 -45zM159 398l-48 -343q46 -19 87 -19q64 0 104.5 51.5t58 127t17.5 150.5q0 121 -81 121q-68 0 -138 -88z" />
    <glyph glyph-name="c" unicode="c" horiz-adv-x="386" 
d="M343 521q28 -13 53 -41l-32 -34q-20 20 -39.5 30t-46.5 10q-60 0 -100 -48t-58 -119t-18 -142q0 -70 25 -104t70 -34q28 0 52 10.5t52 30.5l24 -37q-63 -54 -132 -54q-70 0 -109.5 50t-39.5 140q0 83 25.5 165t78.5 136t131 54q36 0 64 -13z" />
    <glyph glyph-name="d" unicode="d" horiz-adv-x="479" 
d="M462 736l-104 -736h-48l9 101q-63 -112 -148 -112q-60 0 -94 48.5t-34 133.5q0 83 24.5 167t74 140t120.5 56q74 0 107 -67l38 276zM175 438q-38 -49 -56.5 -122.5t-18.5 -144.5q0 -65 21 -100t60 -35q42 0 76.5 37t71.5 108l31 229q-14 37 -36 57t-58 20q-53 0 -91 -49z
" />
    <glyph glyph-name="e" unicode="e" horiz-adv-x="431" 
d="M329 268q-81 -48 -226 -62q-1 -9 -1 -27q0 -141 96 -141q32 0 60.5 12.5t61.5 37.5l25 -37q-38 -31 -74.5 -46.5t-77.5 -15.5q-71 0 -110 49.5t-39 139.5q0 87 26 169t80 134.5t132 52.5q61 0 94.5 -33.5t33.5 -87.5q0 -97 -81 -145zM162 418q-43 -69 -55 -168
q125 12 186 50.5t61 111.5q0 36 -18.5 55.5t-57.5 19.5q-73 0 -116 -69z" />
    <glyph glyph-name="f" unicode="f" horiz-adv-x="262" 
d="M227 674.5q-21 -21.5 -28 -68.5l-12 -83h112l-14 -46h-104l-65 -469q-9 -65 -27.5 -103t-46 -61t-76.5 -47l-15 42q35 18 55 36t33.5 50.5t21.5 87.5l64 464h-73l7 46h73l12 88q8 62 44.5 97t93.5 35q52 0 101 -35l-23 -37q-40 25 -75 25q-37 0 -58 -21.5z" />
    <glyph glyph-name="g" unicode="g" horiz-adv-x="469" 
d="M423 496l-70 -499q-28 -203 -191 -203q-38 0 -75 13t-66 35l24 39q54 -38 118 -38q115 0 135 155l12 86q-28 -40 -59.5 -62t-72.5 -22q-63 0 -98.5 48t-35.5 130q0 84 26.5 166t82 136t138.5 54q68 0 132 -38zM184.5 441q-42.5 -47 -63 -118t-20.5 -143q0 -65 22 -99
t64 -34q68 0 131 104l46 320q-38 17 -75 17q-62 0 -104.5 -47z" />
    <glyph glyph-name="h" unicode="h" horiz-adv-x="477" 
d="M389.5 502q27.5 -32 27.5 -88q0 -16 -3 -36l-53 -378h-56l53 376q2 13 2 35q0 75 -57 75q-40 0 -80 -45.5t-76 -118.5l-45 -322h-56l104 736l57 7l-47 -335q33 59 70.5 92.5t84.5 33.5t74.5 -32z" />
    <glyph glyph-name="i" unicode="i" horiz-adv-x="223" 
d="M176 523l-74 -523h-56l74 523h56zM142 680.5q-10 9.5 -10 25.5q0 20 13 32.5t31 12.5q16 0 26 -9.5t10 -25.5q0 -20 -12.5 -32.5t-30.5 -12.5q-17 0 -27 9.5z" />
    <glyph glyph-name="j" unicode="j" horiz-adv-x="224" 
d="M-60 -161q35 18 55 36t33.5 50t21.5 88l72 510h56l-73 -515q-9 -65 -27.5 -103.5t-46 -61t-76.5 -46.5zM144 680.5q-10 9.5 -10 25.5q0 20 13 32.5t31 12.5q16 0 26 -9.5t10 -25.5q0 -20 -12.5 -32.5t-30.5 -12.5q-17 0 -27 9.5z" />
    <glyph glyph-name="k" unicode="k" horiz-adv-x="439" 
d="M159 398q34 66 73 101t88 35q47 0 74.5 -29.5t27.5 -75.5q0 -127 -150 -190l92 -239h-59l-95 254q79 25 117 67t38 104q0 30 -14 46.5t-42 16.5q-84 0 -164 -183l-43 -305h-56l104 736l57 7z" />
    <glyph glyph-name="l" unicode="l" horiz-adv-x="234" 
d="M109 81q-1 -5 -1 -14q0 -29 26 -29q15 0 30 6l11 -41q-26 -14 -54 -14q-31 0 -50 19.5t-19 54.5q0 7 2 21l91 652l56 7z" />
    <glyph glyph-name="m" unicode="m" horiz-adv-x="697" 
d="M611.5 502q25.5 -32 25.5 -89q0 -18 -3 -38l-54 -375h-56l52 373q3 23 3 40q0 73 -49 73q-36 0 -71 -44t-72 -121l-47 -321h-55l52 373q3 23 3 40q0 73 -49 73q-37 0 -72 -45t-72 -124l-45 -317h-56l74 523h48l-13 -121q69 132 148 132q43 0 68.5 -32.5t25.5 -91.5
q66 124 145 124q44 0 69.5 -32z" />
    <glyph glyph-name="n" unicode="n" horiz-adv-x="477" 
d="M389.5 502q27.5 -32 27.5 -88q0 -16 -3 -36l-53 -378h-56l53 376q2 12 2 34q0 76 -56 76q-74 0 -157 -164l-45 -322h-56l74 523h48l-13 -120q36 63 74.5 97t85.5 34t74.5 -32z" />
    <glyph glyph-name="o" unicode="o" horiz-adv-x="472" 
d="M83 39.5q-39 50.5 -39 140.5q0 80 24.5 161.5t77.5 137t132 55.5q72 0 111 -50.5t39 -139.5q0 -80 -24.5 -162t-77 -137.5t-132.5 -55.5q-72 0 -111 50.5zM297 87.5q39 50.5 56 122t17 138.5q0 69 -24 104t-70 35q-62 0 -101 -50.5t-56 -122.5t-17 -139q0 -138 94 -138
q62 0 101 50.5z" />
    <glyph glyph-name="p" unicode="p" horiz-adv-x="475" 
d="M120 523h49l-6 -69q64 80 142 80q60 0 94 -45.5t34 -128.5q0 -88 -24 -173t-77.5 -141.5t-136.5 -56.5q-47 0 -91 21l-30 -209l-56 -7zM299 86.5q40 50.5 58.5 125t18.5 149.5q0 125 -81 125q-36 0 -71.5 -24t-65.5 -64l-48 -342q43 -20 86 -20q63 0 103 50.5z" />
    <glyph glyph-name="q" unicode="q" horiz-adv-x="470" 
d="M310 73q-27 -39 -59 -61.5t-74 -22.5q-62 0 -98 48t-36 133q0 86 26.5 170t82.5 139t140 55q66 0 132 -38l-97 -695l-56 -7zM255 63.5q32 27.5 62 77.5l48 330q-38 17 -75 17q-64 0 -106.5 -48t-63 -121t-20.5 -149q0 -66 22 -100t64 -34q37 0 69 27.5z" />
    <glyph glyph-name="r" unicode="r" horiz-adv-x="308" 
d="M335 527l-17 -53q-20 6 -34 6q-45 0 -77.5 -45.5t-62.5 -135.5l-42 -299h-56l74 523h49l-14 -117q27 63 60 95.5t80 32.5q17 0 40 -7z" />
    <glyph glyph-name="s" unicode="s" horiz-adv-x="384" 
d="M364 475l-30 -33q-25 23 -50 33.5t-56 10.5q-45 0 -73 -25.5t-28 -69.5q0 -32 19.5 -52.5t68.5 -40.5q58 -25 84 -58t26 -84q0 -76 -49.5 -121.5t-127.5 -45.5q-92 0 -153 70l34 33q25 -27 53.5 -41t67.5 -14q54 0 85.5 31.5t31.5 84.5q0 36 -19.5 59t-71.5 46
q-57 24 -81.5 54t-24.5 77q0 40 20.5 73t56.5 52.5t81 19.5q79 0 136 -59z" />
    <glyph glyph-name="t" unicode="t" horiz-adv-x="287" 
d="M121 112q-1 -7 -1 -20q0 -55 48 -55q30 0 68 22l19 -38q-48 -32 -96 -32q-44 0 -69.5 26.5t-25.5 73.5q0 7 2 25l51 363h-72l7 46h73l27 127l46 5l-19 -132h109l-14 -46h-101z" />
    <glyph glyph-name="u" unicode="u" horiz-adv-x="473" 
d="M87.5 20q-27.5 31 -27.5 86q0 21 2 32l54 385h56l-54 -388q-2 -11 -2 -31q0 -34 14 -51t40 -17q82 0 154 157l47 330h55l-74 -523h-46l13 121q-32 -62 -69 -97t-88 -35q-47 0 -74.5 31z" />
    <glyph glyph-name="v" unicode="v" horiz-adv-x="396" 
d="M418 523l-220 -523h-69l-77 523h60l58 -473l189 473h59z" />
    <glyph glyph-name="w" unicode="w" horiz-adv-x="587" 
d="M598 523l-176 -523h-72l-26 470l-157 -470h-73l-32 523h55l21 -479l162 479h65l26 -479l153 479h54z" />
    <glyph glyph-name="x" unicode="x" horiz-adv-x="385" 
d="M393 523l-164 -247l109 -276h-59l-89 243l-156 -243h-61l189 281l-96 242h59l75 -210l132 210h61z" />
    <glyph glyph-name="y" unicode="y" horiz-adv-x="395" 
d="M199 -4q-28 -68 -55.5 -106.5t-63 -59.5t-92.5 -34l-2 42q45 13 72.5 31t47 47.5t41.5 83.5h-23l-72 523h59l57 -480l190 480h59z" />
    <glyph glyph-name="z" unicode="z" horiz-adv-x="348" 
d="M357 523l-6 -44l-295 -430h234l-13 -49h-293l7 44l295 430h-216l8 49h279z" />
    <glyph glyph-name="braceleft" unicode="{" horiz-adv-x="269" 
d="M292 784q-39 0 -57.5 -19.5t-24.5 -65.5l-35 -253q-7 -48 -25 -67.5t-55 -30.5q28 -9 41 -24t13 -46q0 -14 -3 -32l-34 -251q-2 -18 -2 -25q0 -29 14 -42t45 -13l-5 -44q-105 0 -105 96q0 8 2 30l35 257q2 18 2 24q0 26 -13 36.5t-42 10.5l7 48q33 0 50.5 16.5t22.5 55.5
l37 261q8 65 40.5 93.5t96.5 28.5z" />
    <glyph glyph-name="bar" unicode="|" horiz-adv-x="340" 
d="M272 804l-126 -904h-53l127 904h52z" />
    <glyph glyph-name="braceright" unicode="}" horiz-adv-x="269" 
d="M2 -85q39 0 57.5 19.5t24.5 65.5l35 253q6 48 24 67.5t56 30.5q-28 9 -41 24t-13 46q0 14 3 32l34 251q2 18 2 25q0 29 -14 42t-46 13l5 44q106 0 106 -97q0 -9 -2 -29l-35 -257q-2 -18 -2 -25q0 -25 12.5 -35.5t42.5 -10.5l-7 -48q-33 0 -50.5 -16.5t-23.5 -55.5
l-36 -261q-9 -65 -41.5 -93.5t-95.5 -28.5z" />
    <glyph glyph-name="asciitilde" unicode="~" horiz-adv-x="401" 
d="M234.5 273q-14.5 8 -35.5 23q-17 13 -28.5 19.5t-23.5 6.5q-19 0 -33.5 -11.5t-32.5 -34.5l-31 21q25 35 48 54t54 19q18 0 33 -8t34 -23q18 -14 28.5 -20t23.5 -6q19 0 33.5 11t30.5 33l31 -21q-23 -34 -46 -52.5t-53 -18.5q-18 0 -32.5 8z" />
    <glyph glyph-name="uni00A0" unicode="&#xa0;" horiz-adv-x="223" 
 />
    <glyph glyph-name="exclamdown" unicode="&#xa1;" horiz-adv-x="218" 
d="M98 392.5q-11 11.5 -11 29.5q0 21 13.5 36t34.5 15q19 0 30.5 -12t11.5 -29q0 -21 -13.5 -36t-35.5 -15q-19 0 -30 11.5zM131 249l-57 -446h-60l69 446h48z" />
    <glyph glyph-name="cent" unicode="&#xa2;" horiz-adv-x="386" 
d="M178 438q-40 -48 -58 -119t-18 -142q0 -70 25 -104t70 -34q28 0 52 10.5t52 30.5l24 -37q-52 -45 -109 -52l-20 -141h-47l20 141q-59 8 -92 57t-33 131q0 77 22 153.5t67.5 132t112.5 66.5l21 149h46l-21 -146q32 -2 56.5 -15t47.5 -39l-32 -34q-20 20 -39.5 30t-46.5 10
q-60 0 -100 -48z" />
    <glyph glyph-name="sterling" unicode="&#xa3;" horiz-adv-x="422" 
d="M387 657q30 -19 53 -57l-38 -26q-18 28 -38 41t-50 13q-45 0 -74.5 -35t-37.5 -95l-17 -125h172l-6 -41h-171l-22 -164q-7 -49 -23 -74.5t-52 -44.5h270l-16 -49h-328l7 48q43 20 61 45.5t25 77.5l22 161h-54l6 41h54l18 129q11 78 54.5 126t111.5 48q43 0 73 -19z" />
    <glyph glyph-name="currency" unicode="&#xa4;" 
d="M403 104l-64 77q-40 -34 -99 -34q-56 0 -95 33l-63 -76l-35 30l68 80q-32 53 -32 127t31 124l-70 84l36 29l64 -78q40 34 96 34q57 0 98 -33l63 77l35 -30l-69 -81q33 -50 33 -126q0 -74 -31 -124l70 -84zM349 341q0 149 -108 149q-53 0 -80.5 -37.5t-27.5 -111.5
t27.5 -111.5t80.5 -37.5q108 0 108 149z" />
    <glyph glyph-name="yen" unicode="&#xa5;" horiz-adv-x="422" 
d="M469 665l-203 -327h94l-6 -43h-109l-14 -103h109l-6 -42h-110l-21 -150h-57l21 150h-110l6 42h111l14 103h-111l7 43h95l-113 327h60l98 -315l184 315h61z" />
    <glyph glyph-name="brokenbar" unicode="&#xa6;" horiz-adv-x="340" 
d="M272 804l-50 -361h-53l51 361h52zM196 262l-50 -362h-53l51 362h52z" />
    <glyph glyph-name="section" unicode="&#xa7;" horiz-adv-x="462" 
d="M230 602q-26 -28 -26 -70q0 -33 18 -54t68 -44q54 -25 78 -56t24 -72q0 -45 -21 -78t-71 -66q33 -33 33 -87q0 -61 -43 -102t-119 -41q-42 0 -74.5 12t-61.5 35l28 37q47 -38 112 -38q51 0 76.5 27t25.5 69q0 36 -17.5 57t-65.5 41q-55 25 -80.5 55t-25.5 75
q0 44 22.5 79t69.5 66q-31 34 -31 82q0 64 45 105t113 41q73 0 130 -50l-27 -35q-26 21 -49.5 30.5t-52.5 9.5q-52 0 -78 -28zM209 423q-37 -28 -52 -55.5t-15 -62.5q0 -30 16.5 -51t59.5 -40q24 -10 54 -29q38 30 52 58t14 58q0 28 -16 50.5t-59 42.5q-37 18 -54 29z" />
    <glyph glyph-name="dieresis" unicode="&#xa8;" horiz-adv-x="291" 
d="M100 673.5q-9 9.5 -9 23.5q0 18 12 30.5t29 12.5q15 0 24 -9.5t9 -23.5q0 -19 -12 -31t-29 -12q-15 0 -24 9.5zM259 673.5q-9 9.5 -9 23.5q0 19 11.5 31t28.5 12q15 0 24 -9.5t9 -23.5q0 -19 -11.5 -31t-28.5 -12q-15 0 -24 9.5z" />
    <glyph glyph-name="copyright" unicode="&#xa9;" horiz-adv-x="664" 
d="M483 700q56 -36 88 -104t32 -161q0 -92 -32 -160.5t-88 -104.5t-126 -36t-126.5 36t-88.5 104t-32 161q0 92 32 160.5t88.5 104.5t126.5 36t126 -36zM250 666q-47 -31 -73.5 -90t-26.5 -141q0 -83 26.5 -142t73.5 -89.5t107 -30.5q59 0 105.5 31t73 90t26.5 141
t-26.5 141.5t-72.5 90t-106 30.5t-107 -31zM443 581l-21 -30q-16 12 -30.5 17.5t-32.5 5.5q-33 0 -55 -32.5t-22 -105.5q0 -138 79 -138q20 0 35 7t31 20l22 -31q-41 -39 -91 -39q-55 0 -89.5 46t-34.5 135q0 90 35.5 134.5t88.5 44.5q48 0 85 -34z" />
    <glyph glyph-name="ordfeminine" unicode="&#xaa;" horiz-adv-x="420" 
d="M108 303.5q-26 29.5 -26 76.5q0 63 41.5 102t121.5 39h60l4 33q2 18 2 24q0 32 -14.5 46.5t-45.5 14.5q-41 0 -93 -20l-13 40q63 26 114 26q52 0 79 -27t27 -78q0 -8 -2 -26l-25 -181q-2 -20 -2 -26q0 -25 19 -34l-15 -39q-24 6 -37 20.5t-15 40.5q-45 -61 -108 -61
q-46 0 -72 29.5zM286 387l13 94h-54q-58 0 -83 -29t-25 -70q0 -30 13.5 -47t41.5 -17q55 0 94 69zM26 0l6 50h296l-7 -50h-295z" />
    <glyph glyph-name="guillemotleft" unicode="&#xab;" horiz-adv-x="483" 
d="M231 519l33 -24l-142 -209l84 -206l-37 -23l-107 211l6 39zM421 519l33 -24l-142 -209l84 -206l-37 -23l-107 211l6 39z" />
    <glyph glyph-name="logicalnot" unicode="&#xac;" horiz-adv-x="421" 
d="M372 345l-24 -175h-54l17 126h-246l6 49h301z" />
    <glyph glyph-name="uni00AD" unicode="&#xad;" horiz-adv-x="332" 
d="M59 289l7 48h220l-6 -48h-221z" />
    <glyph glyph-name="registered" unicode="&#xae;" horiz-adv-x="523" 
d="M396.5 707q45.5 -29 72 -83t26.5 -126q0 -71 -26.5 -126t-72 -85t-101.5 -30t-101.5 29t-72 83t-26.5 126q0 71 26.5 126t72 85t101.5 30t101.5 -29zM379 317.5q37 24.5 58.5 71t21.5 109.5q0 95 -45.5 149t-118.5 54q-46 0 -83.5 -25t-59 -71.5t-21.5 -109.5t21.5 -109
t58.5 -69.5t84 -23.5t84 24.5zM363.5 507.5q-13.5 -18.5 -37.5 -25.5l60 -118h-42l-54 112h-28v-112h-37v272h57q47 0 71 -21t24 -59q0 -30 -13.5 -48.5zM262 509h31q47 0 47 47q0 46 -52 46h-26v-93z" />
    <glyph glyph-name="macron" unicode="&#xaf;" horiz-adv-x="262" 
d="M290 676h-201l6 46h201z" />
    <glyph glyph-name="degree" unicode="&#xb0;" horiz-adv-x="425" 
d="M128.5 428q-29.5 32 -29.5 91q0 48 19 88.5t52 64.5t74 24q47 0 77 -32t30 -91q0 -49 -19 -89.5t-52.5 -64t-74.5 -23.5q-47 0 -76.5 32zM278 476.5q26 38.5 26 96.5q0 39 -16 60t-46 21q-44 0 -70.5 -38.5t-26.5 -96.5q0 -39 16 -60t46 -21q45 0 71 38.5z" />
    <glyph glyph-name="plusminus" unicode="&#xb1;" horiz-adv-x="417" 
d="M25 0l6 50h296l-7 -50h-295zM271 518l-21 -153h121l-7 -49h-122l-22 -152h-52l22 152h-122l6 49h124l22 153h51z" />
    <glyph glyph-name="uni00B2" unicode="&#xb2;" horiz-adv-x="332" 
d="M291 714.5q25 -27.5 25 -70.5q0 -42 -21 -82t-54.5 -77.5t-96.5 -99.5l-19 -19h162l-12 -43h-209l6 42l28 28q64 66 96 102.5t52 73.5t20 74q0 27 -13.5 42.5t-36.5 15.5q-43 0 -81 -45l-29 26q51 60 114 60q44 0 69 -27.5z" />
    <glyph glyph-name="uni00B3" unicode="&#xb3;" horiz-adv-x="332" 
d="M295 719.5q24 -24.5 24 -65.5q0 -44 -24.5 -73t-66.5 -39q33 -3 51.5 -23t18.5 -57q0 -63 -39.5 -105t-99.5 -42q-67 0 -101 58l31 23q28 -40 70 -40q43 0 67 31.5t24 76.5q0 57 -61 57h-27l13 39h16q37 0 59 27.5t22 64.5q0 25 -13 39t-37 14q-22 0 -41.5 -8.5
t-42.5 -27.5l-21 28q52 47 110 47q44 0 68 -24.5z" />
    <glyph glyph-name="acute" unicode="&#xb4;" horiz-adv-x="243" 
d="M255 780l25 -50l-175 -84l-17 31z" />
    <glyph glyph-name="uni00B5" unicode="&#xb5;" horiz-adv-x="481" 
d="M369 72q0 -36 5 -73l-51 -7q-8 39 -8 72q0 19 1 29q-30 -49 -63.5 -76.5t-75.5 -27.5q-57 0 -77 52q0 -49 -11 -122l-16 -116l-55 -6l102 726h56l-53 -375q-2 -12 -2 -32q0 -42 17 -61t46 -19q74 0 135 123l51 364h56l-49 -348q-8 -53 -8 -103z" />
    <glyph glyph-name="paragraph" unicode="&#xb6;" horiz-adv-x="585" 
d="M531 685l-124 -882l-53 -9l117 844h-101l-115 -835l-54 -9l71 500q-80 4 -118.5 46.5t-38.5 111.5q0 106 59 169.5t162 63.5h195z" />
    <glyph glyph-name="periodcentered" unicode="&#xb7;" horiz-adv-x="186" 
d="M67 283.5q-11 11.5 -11 29.5q0 21 13.5 36t34.5 15q19 0 30.5 -12t11.5 -29q0 -21 -13.5 -36t-35.5 -15q-19 0 -30 11.5z" />
    <glyph glyph-name="cedilla" unicode="&#xb8;" horiz-adv-x="219" 
d="M64 -66q68 -7 68 -70q0 -39 -27 -64.5t-73 -25.5q-43 0 -67 22l20 32q24 -14 47 -14t37.5 12.5t14.5 35.5t-14.5 32.5t-52.5 9.5l24 112h36z" />
    <glyph glyph-name="uni00B9" unicode="&#xb9;" horiz-adv-x="332" 
d="M276 737l-58 -414h-46l50 360l-88 -57l-20 32l122 79h40z" />
    <glyph glyph-name="ordmasculine" unicode="&#xba;" horiz-adv-x="418" 
d="M361 644.5q33 -40.5 33 -113.5q0 -59 -19 -118t-60 -99t-104 -40q-60 0 -93 40.5t-33 113.5q0 59 19 118t59.5 99t103.5 40q61 0 94 -40.5zM169 573q-30 -67 -30 -148q0 -52 19 -79t54 -27q46 0 74.5 34.5t40.5 84t12 97.5q0 51 -19 78t-54 27q-67 0 -97 -67zM24 0l6 50
h296l-7 -50h-295z" />
    <glyph glyph-name="guillemotright" unicode="&#xbb;" horiz-adv-x="483" 
d="M131 519l107 -212l-6 -38l-164 -212l-32 23l142 210l-84 206zM321 519l107 -212l-6 -38l-164 -212l-32 23l142 210l-84 206z" />
    <glyph glyph-name="onequarter" unicode="&#xbc;" horiz-adv-x="760" 
d="M269 685l-58 -414h-46l50 360l-88 -57l-20 32l122 79h40zM588 747l34 -19l-444 -798l-35 18zM701 145l-7 -41h-44l-15 -104h-45l15 104h-155l5 36l144 281l38 -16l-132 -260h107l21 115h39l-16 -115h45z" />
    <glyph glyph-name="onehalf" unicode="&#xbd;" horiz-adv-x="760" 
d="M269 685l-58 -414h-46l50 360l-88 -57l-20 32l122 79h40zM588 747l34 -19l-444 -798l-35 18zM674 391.5q25 -27.5 25 -70.5q0 -42 -21 -82t-54.5 -77.5t-96.5 -99.5l-19 -19h162l-12 -43h-209l6 42l28 28q64 66 96 102.5t52 73.5t20 74q0 27 -13.5 42.5t-36.5 15.5
q-43 0 -81 -45l-29 26q51 60 114 60q44 0 69 -27.5z" />
    <glyph glyph-name="threequarters" unicode="&#xbe;" horiz-adv-x="760" 
d="M288 667.5q24 -24.5 24 -65.5q0 -44 -24.5 -73t-66.5 -39q33 -3 51.5 -23t18.5 -57q0 -63 -39.5 -105t-99.5 -42q-67 0 -101 58l31 23q28 -40 70 -40q43 0 67 31.5t24 76.5q0 57 -61 57h-27l13 39h16q36 0 58.5 27.5t22.5 64.5q0 25 -13 39t-37 14q-23 0 -42 -8.5
t-42 -27.5l-21 28q52 47 110 47q44 0 68 -24.5zM588 747l34 -19l-444 -798l-35 18zM701 145l-7 -41h-44l-15 -104h-45l15 104h-155l5 36l144 281l38 -16l-132 -260h107l21 115h39l-16 -115h45z" />
    <glyph glyph-name="questiondown" unicode="&#xbf;" horiz-adv-x="380" 
d="M256 493.5q11 -11.5 11 -29.5q0 -21 -13.5 -36t-34.5 -15q-19 0 -30.5 12t-11.5 29q0 21 13.5 36t35.5 15q19 0 30 -11.5zM25.5 -170.5q-34.5 35.5 -34.5 90.5q0 42 15 72.5t36 51t56 45.5q31 23 49 40t30.5 40.5t12.5 54.5q0 6 -3 39l50 10q7 -28 7 -52
q0 -38 -13.5 -65.5t-33.5 -46t-53 -42.5q-32 -24 -50.5 -41.5t-31.5 -43t-13 -60.5q0 -81 77 -81q35 0 66.5 18.5t64.5 55.5l33 -31q-40 -46 -80.5 -68t-87.5 -22q-62 0 -96.5 35.5z" />
    <glyph glyph-name="Agrave" unicode="&#xc0;" horiz-adv-x="476" 
d="M361 0l-21 188h-226l-74 -188h-60l280 685h74l88 -685h-61zM133 237h202l-45 400zM263 881l141 -92l-20 -30l-151 75z" />
    <glyph glyph-name="Aacute" unicode="&#xc1;" horiz-adv-x="476" 
d="M361 0l-21 188h-226l-74 -188h-60l280 685h74l88 -685h-61zM133 237h202l-45 400zM385 882l25 -49l-175 -75l-16 32z" />
    <glyph glyph-name="Acircumflex" unicode="&#xc2;" horiz-adv-x="476" 
d="M361 0l-21 188h-226l-74 -188h-60l280 685h74l88 -685h-61zM133 237h202l-45 400zM205 762l-24 28l122 103h35l92 -105l-26 -26l-88 80z" />
    <glyph glyph-name="Atilde" unicode="&#xc3;" horiz-adv-x="476" 
d="M361 0l-21 188h-226l-74 -188h-60l280 685h74l88 -685h-61zM133 237h202l-45 400zM338 799.5q-12 6.5 -29 18.5q-12 10 -20.5 15t-18.5 5q-14 0 -24.5 -9t-26.5 -31l-29 20q38 65 81 65q15 0 27 -6.5t29 -18.5q12 -10 20.5 -15t18.5 -5q12 0 23.5 10t26.5 32l31 -18
q-37 -69 -82 -69q-15 0 -27 6.5z" />
    <glyph glyph-name="Adieresis" unicode="&#xc4;" horiz-adv-x="476" 
d="M361 0l-21 188h-226l-74 -188h-60l280 685h74l88 -685h-61zM133 237h202l-45 400zM209 799.5q-9 9.5 -9 23.5q0 18 12 30.5t29 12.5q15 0 24 -9.5t9 -23.5q0 -19 -12 -31t-29 -12q-15 0 -24 9.5zM368 799.5q-9 9.5 -9 23.5q0 19 11.5 31t28.5 12q15 0 24 -9.5t9 -23.5
q0 -19 -11.5 -31t-28.5 -12q-15 0 -24 9.5z" />
    <glyph glyph-name="Aring" unicode="&#xc5;" horiz-adv-x="476" 
d="M361 0l-21 188h-226l-74 -188h-60l280 685h74l88 -685h-61zM133 237h202l-45 400zM385.5 922.5q20.5 -22.5 20.5 -58.5q0 -46 -27.5 -75t-67.5 -29q-34 0 -54.5 22.5t-20.5 58.5q0 46 27.5 75t67.5 29q34 0 54.5 -22.5zM290 891.5q-14 -19.5 -14 -50.5q0 -22 9.5 -34.5
t27.5 -12.5q25 0 39 19.5t14 50.5q0 23 -9.5 35t-27.5 12q-25 0 -39 -19.5z" />
    <glyph glyph-name="AE" unicode="&#xc6;" horiz-adv-x="651" 
d="M622 636h-260l16 -257h209l-7 -49h-199l18 -281h187l-8 -49h-231l-11 184h-227l-82 -184h-59l315 685h353zM130 233h203l-23 405z" />
    <glyph glyph-name="Ccedilla" unicode="&#xc7;" horiz-adv-x="459" 
d="M219.5 582q-53.5 -64 -78.5 -159t-25 -190q0 -96 34 -144t93 -48q39 0 69 14t63 41l26 -39q-68 -63 -150 -68l-9 -55q68 -7 68 -70q0 -39 -27 -64.5t-73 -25.5q-43 0 -67 22l20 32q24 -14 47 -14t37.5 12.5t14.5 35.5t-14.5 32.5t-52.5 9.5l19 87q-73 9 -115 72t-42 172
t32 215t99 176t167 70q45 0 78 -16t61 -48l-35 -34q-26 26 -49.5 37t-55.5 11q-81 0 -134.5 -64z" />
    <glyph glyph-name="Egrave" unicode="&#xc8;" horiz-adv-x="418" 
d="M437 685l-14 -49h-225l-36 -257h196l-8 -48h-195l-40 -282h239l-8 -49h-296l97 685h290zM262 881l141 -92l-20 -30l-151 75z" />
    <glyph glyph-name="Eacute" unicode="&#xc9;" horiz-adv-x="418" 
d="M437 685l-14 -49h-225l-36 -257h196l-8 -48h-195l-40 -282h239l-8 -49h-296l97 685h290zM384 882l25 -49l-175 -75l-16 32z" />
    <glyph glyph-name="Ecircumflex" unicode="&#xca;" horiz-adv-x="418" 
d="M437 685l-14 -49h-225l-36 -257h196l-8 -48h-195l-40 -282h239l-8 -49h-296l97 685h290zM204 762l-24 28l122 103h35l92 -105l-26 -26l-88 80z" />
    <glyph glyph-name="Edieresis" unicode="&#xcb;" horiz-adv-x="418" 
d="M437 685l-14 -49h-225l-36 -257h196l-8 -48h-195l-40 -282h239l-8 -49h-296l97 685h290zM208 799.5q-9 9.5 -9 23.5q0 18 12 30.5t29 12.5q15 0 24 -9.5t9 -23.5q0 -19 -12 -31t-29 -12q-15 0 -24 9.5zM367 799.5q-9 9.5 -9 23.5q0 19 11.5 31t28.5 12q15 0 24 -9.5
t9 -23.5q0 -19 -11.5 -31t-28.5 -12q-15 0 -24 9.5z" />
    <glyph glyph-name="Igrave" unicode="&#xcc;" horiz-adv-x="233" 
d="M205 685l-97 -685h-58l97 685h58zM142 881l141 -92l-20 -30l-151 75z" />
    <glyph glyph-name="Iacute" unicode="&#xcd;" horiz-adv-x="233" 
d="M205 685l-97 -685h-58l97 685h58zM264 882l25 -49l-175 -75l-16 32z" />
    <glyph glyph-name="Icircumflex" unicode="&#xce;" horiz-adv-x="233" 
d="M205 685l-97 -685h-58l97 685h58zM84 762l-24 28l122 103h35l92 -105l-26 -26l-88 80z" />
    <glyph glyph-name="Idieresis" unicode="&#xcf;" horiz-adv-x="233" 
d="M205 685l-97 -685h-58l97 685h58zM88 799.5q-9 9.5 -9 23.5q0 18 12 30.5t29 12.5q15 0 24 -9.5t9 -23.5q0 -19 -12 -31t-29 -12q-15 0 -24 9.5zM247 799.5q-9 9.5 -9 23.5q0 19 11.5 31t28.5 12q15 0 24 -9.5t9 -23.5q0 -19 -11.5 -31t-28.5 -12q-15 0 -24 9.5z" />
    <glyph glyph-name="Eth" unicode="&#xd0;" horiz-adv-x="541" 
d="M446 632q61 -53 61 -177q0 -122 -33 -225t-106 -166.5t-186 -63.5h-127l47 330h-72l7 46h71l44 309h133q100 0 161 -53zM341 108.5q57 59.5 82 151.5t25 195q0 101 -43 141t-118 40h-84l-37 -260h140l-7 -46h-139l-40 -281h73q91 0 148 59.5z" />
    <glyph glyph-name="Ntilde" unicode="&#xd1;" horiz-adv-x="550" 
d="M425 0h-75l-167 632q-5 -93 -26 -248l-52 -384h-55l97 685h75l168 -631q4 92 21 215l57 416h54zM382 799.5q-12 6.5 -29 18.5q-12 10 -20.5 15t-18.5 5q-14 0 -24.5 -9t-26.5 -31l-29 20q38 65 81 65q15 0 27 -6.5t29 -18.5q12 -10 20.5 -15t18.5 -5q12 0 23.5 10
t26.5 32l31 -18q-37 -69 -82 -69q-15 0 -27 6.5z" />
    <glyph glyph-name="Ograve" unicode="&#xd2;" horiz-adv-x="572" 
d="M490 632.5q49 -63.5 49 -180.5q0 -107 -31 -213.5t-98 -178t-169 -71.5q-87 0 -136 63.5t-49 180.5q0 104 31.5 211t98.5 179.5t168 72.5q87 0 136 -63.5zM216 579.5q-53 -67.5 -76.5 -163.5t-23.5 -185q0 -95 33.5 -143.5t94.5 -48.5q85 0 137.5 68t75 164t22.5 185
q0 96 -33 143.5t-95 47.5q-82 0 -135 -67.5zM320 881l141 -92l-20 -30l-151 75z" />
    <glyph glyph-name="Oacute" unicode="&#xd3;" horiz-adv-x="572" 
d="M490 632.5q49 -63.5 49 -180.5q0 -107 -31 -213.5t-98 -178t-169 -71.5q-87 0 -136 63.5t-49 180.5q0 104 31.5 211t98.5 179.5t168 72.5q87 0 136 -63.5zM216 579.5q-53 -67.5 -76.5 -163.5t-23.5 -185q0 -95 33.5 -143.5t94.5 -48.5q85 0 137.5 68t75 164t22.5 185
q0 96 -33 143.5t-95 47.5q-82 0 -135 -67.5zM442 882l25 -49l-175 -75l-16 32z" />
    <glyph glyph-name="Ocircumflex" unicode="&#xd4;" horiz-adv-x="572" 
d="M490 632.5q49 -63.5 49 -180.5q0 -107 -31 -213.5t-98 -178t-169 -71.5q-87 0 -136 63.5t-49 180.5q0 104 31.5 211t98.5 179.5t168 72.5q87 0 136 -63.5zM216 579.5q-53 -67.5 -76.5 -163.5t-23.5 -185q0 -95 33.5 -143.5t94.5 -48.5q85 0 137.5 68t75 164t22.5 185
q0 96 -33 143.5t-95 47.5q-82 0 -135 -67.5zM262 762l-24 28l122 103h35l92 -105l-26 -26l-88 80z" />
    <glyph glyph-name="Otilde" unicode="&#xd5;" horiz-adv-x="572" 
d="M490 632.5q49 -63.5 49 -180.5q0 -107 -31 -213.5t-98 -178t-169 -71.5q-87 0 -136 63.5t-49 180.5q0 104 31.5 211t98.5 179.5t168 72.5q87 0 136 -63.5zM216 579.5q-53 -67.5 -76.5 -163.5t-23.5 -185q0 -95 33.5 -143.5t94.5 -48.5q85 0 137.5 68t75 164t22.5 185
q0 96 -33 143.5t-95 47.5q-82 0 -135 -67.5zM395 799.5q-12 6.5 -29 18.5q-12 10 -20.5 15t-18.5 5q-14 0 -24.5 -9t-26.5 -31l-29 20q38 65 81 65q15 0 27 -6.5t29 -18.5q12 -10 20.5 -15t18.5 -5q12 0 23.5 10t26.5 32l31 -18q-37 -69 -82 -69q-15 0 -27 6.5z" />
    <glyph glyph-name="Odieresis" unicode="&#xd6;" horiz-adv-x="572" 
d="M490 632.5q49 -63.5 49 -180.5q0 -107 -31 -213.5t-98 -178t-169 -71.5q-87 0 -136 63.5t-49 180.5q0 104 31.5 211t98.5 179.5t168 72.5q87 0 136 -63.5zM216 579.5q-53 -67.5 -76.5 -163.5t-23.5 -185q0 -95 33.5 -143.5t94.5 -48.5q85 0 137.5 68t75 164t22.5 185
q0 96 -33 143.5t-95 47.5q-82 0 -135 -67.5zM266 799.5q-9 9.5 -9 23.5q0 18 12 30.5t29 12.5q15 0 24 -9.5t9 -23.5q0 -19 -12 -31t-29 -12q-15 0 -24 9.5zM425 799.5q-9 9.5 -9 23.5q0 19 11.5 31t28.5 12q15 0 24 -9.5t9 -23.5q0 -19 -11.5 -31t-28.5 -12q-15 0 -24 9.5z
" />
    <glyph glyph-name="multiply" unicode="&#xd7;" horiz-adv-x="418" 
d="M338 470l33 -32l-123 -131l94 -132l-41 -30l-91 126l-117 -126l-33 32l122 130l-93 133l42 30l87 -130z" />
    <glyph glyph-name="Oslash" unicode="&#xd8;" horiz-adv-x="572" 
d="M516 585.5q23 -55.5 23 -133.5q0 -107 -31 -213.5t-98 -178t-169 -71.5q-29 0 -51 7l-44 -115l-46 14l47 120q-43 28 -67 84t-24 134q0 104 31.5 211t98.5 179.5t168 72.5q31 0 53 -7l46 121l46 -14l-49 -127q43 -28 66 -83.5zM174 60l218 581q-18 6 -41 6
q-82 0 -135 -67.5t-76.5 -163.5t-23.5 -185q0 -129 58 -171zM381.5 107q52.5 68 75 164t22.5 185q0 128 -55 169l-218 -581q20 -5 38 -5q85 0 137.5 68z" />
    <glyph glyph-name="Ugrave" unicode="&#xd9;" horiz-adv-x="530" 
d="M440 176q-11 -80 -67 -133.5t-145 -53.5q-81 0 -122.5 45t-41.5 114q0 21 2 32l71 505h58l-71 -506q-2 -20 -2 -30q0 -50 27.5 -79.5t82.5 -29.5q65 0 104 40.5t47 102.5l70 502h58zM290 881l141 -92l-20 -30l-151 75z" />
    <glyph glyph-name="Uacute" unicode="&#xda;" horiz-adv-x="530" 
d="M440 176q-11 -80 -67 -133.5t-145 -53.5q-81 0 -122.5 45t-41.5 114q0 21 2 32l71 505h58l-71 -506q-2 -20 -2 -30q0 -50 27.5 -79.5t82.5 -29.5q65 0 104 40.5t47 102.5l70 502h58zM412 882l25 -49l-175 -75l-16 32z" />
    <glyph glyph-name="Ucircumflex" unicode="&#xdb;" horiz-adv-x="530" 
d="M440 176q-11 -80 -67 -133.5t-145 -53.5q-81 0 -122.5 45t-41.5 114q0 21 2 32l71 505h58l-71 -506q-2 -20 -2 -30q0 -50 27.5 -79.5t82.5 -29.5q65 0 104 40.5t47 102.5l70 502h58zM232 762l-24 28l122 103h35l92 -105l-26 -26l-88 80z" />
    <glyph glyph-name="Udieresis" unicode="&#xdc;" horiz-adv-x="530" 
d="M440 176q-11 -80 -67 -133.5t-145 -53.5q-81 0 -122.5 45t-41.5 114q0 21 2 32l71 505h58l-71 -506q-2 -20 -2 -30q0 -50 27.5 -79.5t82.5 -29.5q65 0 104 40.5t47 102.5l70 502h58zM236 799.5q-9 9.5 -9 23.5q0 18 12 30.5t29 12.5q15 0 24 -9.5t9 -23.5q0 -19 -12 -31
t-29 -12q-15 0 -24 9.5zM395 799.5q-9 9.5 -9 23.5q0 19 11.5 31t28.5 12q15 0 24 -9.5t9 -23.5q0 -19 -11.5 -31t-28.5 -12q-15 0 -24 9.5z" />
    <glyph glyph-name="Yacute" unicode="&#xdd;" horiz-adv-x="432" 
d="M483 685l-237 -418l-38 -267h-58l38 267l-119 418h59l95 -365l196 365h64zM361 882l25 -49l-175 -75l-16 32z" />
    <glyph glyph-name="Thorn" unicode="&#xde;" horiz-adv-x="463" 
d="M402.5 518.5q48.5 -43.5 48.5 -129.5q0 -66 -24.5 -123t-80.5 -93t-146 -36h-73l-19 -137h-58l97 685h58l-17 -123h76q90 0 138.5 -43.5zM349.5 244q41.5 59 41.5 145q0 67 -32.5 95.5t-100.5 28.5h-77l-47 -328h71q103 0 144.5 59z" />
    <glyph glyph-name="germandbls" unicode="&#xdf;" horiz-adv-x="477" 
d="M-60 -161q35 18 55 36t33.5 50.5t21.5 87.5l74 529q13 97 62.5 149t122.5 52q55 0 88 -32.5t33 -82.5q0 -49 -19 -78.5t-54 -59.5q-25 -22 -37 -38.5t-12 -38.5q0 -20 10.5 -35.5t33.5 -39.5q36 -35 56.5 -70.5t20.5 -93.5q0 -43 -18 -85.5t-54.5 -71t-89.5 -28.5
q-26 0 -50 8t-42 20l23 40q33 -20 67 -20q37 0 61.5 21.5t35.5 52.5t11 61q0 45 -16.5 73.5t-48.5 61.5q-27 28 -40.5 49.5t-13.5 52.5q0 32 14.5 53.5t42.5 46.5q31 28 47.5 53t16.5 65q0 33 -18.5 51.5t-50.5 18.5q-49 0 -82 -40.5t-45 -120.5l-74 -528
q-9 -65 -27.5 -103.5t-46 -61t-76.5 -46.5z" />
    <glyph glyph-name="agrave" unicode="&#xe0;" horiz-adv-x="472" 
d="M423 496l-55 -382q-4 -24 -4 -43q0 -16 5 -25.5t18 -16.5l-18 -40q-29 9 -43 29t-13 59q-29 -42 -62 -65t-75 -23q-62 0 -97.5 48t-35.5 133q0 87 26 170.5t81.5 138.5t139.5 55q67 0 133 -38zM182.5 440q-42.5 -48 -62.5 -121t-20 -149q0 -66 22 -100t63 -34q37 0 69 27
t62 77l47 331q-38 17 -75 17q-63 0 -105.5 -48zM272 778l141 -102l-21 -30l-151 84z" />
    <glyph glyph-name="aacute" unicode="&#xe1;" horiz-adv-x="472" 
d="M423 496l-55 -382q-4 -24 -4 -43q0 -16 5 -25.5t18 -16.5l-18 -40q-29 9 -43 29t-13 59q-29 -42 -62 -65t-75 -23q-62 0 -97.5 48t-35.5 133q0 87 26 170.5t81.5 138.5t139.5 55q67 0 133 -38zM182.5 440q-42.5 -48 -62.5 -121t-20 -149q0 -66 22 -100t63 -34q37 0 69 27
t62 77l47 331q-38 17 -75 17q-63 0 -105.5 -48zM388 780l25 -50l-175 -84l-17 31z" />
    <glyph glyph-name="acircumflex" unicode="&#xe2;" horiz-adv-x="472" 
d="M423 496l-55 -382q-4 -24 -4 -43q0 -16 5 -25.5t18 -16.5l-18 -40q-29 9 -43 29t-13 59q-29 -42 -62 -65t-75 -23q-62 0 -97.5 48t-35.5 133q0 87 26 170.5t81.5 138.5t139.5 55q67 0 133 -38zM182.5 440q-42.5 -48 -62.5 -121t-20 -149q0 -66 22 -100t63 -34q37 0 69 27
t62 77l47 331q-38 17 -75 17q-63 0 -105.5 -48zM211 645l-25 28l123 106h34l92 -108l-28 -26l-85 83z" />
    <glyph glyph-name="atilde" unicode="&#xe3;" horiz-adv-x="472" 
d="M423 496l-55 -382q-4 -24 -4 -43q0 -16 5 -25.5t18 -16.5l-18 -40q-29 9 -43 29t-13 59q-29 -42 -62 -65t-75 -23q-62 0 -97.5 48t-35.5 133q0 87 26 170.5t81.5 138.5t139.5 55q67 0 133 -38zM182.5 440q-42.5 -48 -62.5 -121t-20 -149q0 -66 22 -100t63 -34q37 0 69 27
t62 77l47 331q-38 17 -75 17q-63 0 -105.5 -48zM338 673.5q-12 6.5 -29 18.5q-12 10 -20.5 15t-18.5 5q-14 0 -24.5 -9t-26.5 -31l-29 20q38 65 81 65q15 0 27 -6.5t29 -18.5q12 -10 20.5 -15t18.5 -5q12 0 23.5 10t26.5 32l31 -18q-37 -69 -82 -69q-15 0 -27 6.5z" />
    <glyph glyph-name="adieresis" unicode="&#xe4;" horiz-adv-x="472" 
d="M423 496l-55 -382q-4 -24 -4 -43q0 -16 5 -25.5t18 -16.5l-18 -40q-29 9 -43 29t-13 59q-29 -42 -62 -65t-75 -23q-62 0 -97.5 48t-35.5 133q0 87 26 170.5t81.5 138.5t139.5 55q67 0 133 -38zM182.5 440q-42.5 -48 -62.5 -121t-20 -149q0 -66 22 -100t63 -34q37 0 69 27
t62 77l47 331q-38 17 -75 17q-63 0 -105.5 -48zM210 673.5q-9 9.5 -9 23.5q0 18 12 30.5t29 12.5q15 0 24 -9.5t9 -23.5q0 -19 -12 -31t-29 -12q-15 0 -24 9.5zM369 673.5q-9 9.5 -9 23.5q0 19 11.5 31t28.5 12q15 0 24 -9.5t9 -23.5q0 -19 -11.5 -31t-28.5 -12
q-15 0 -24 9.5z" />
    <glyph glyph-name="aring" unicode="&#xe5;" horiz-adv-x="472" 
d="M423 496l-55 -382q-4 -24 -4 -43q0 -16 5 -25.5t18 -16.5l-18 -40q-29 9 -43 29t-13 59q-29 -42 -62 -65t-75 -23q-62 0 -97.5 48t-35.5 133q0 87 26 170.5t81.5 138.5t139.5 55q67 0 133 -38zM182.5 440q-42.5 -48 -62.5 -121t-20 -149q0 -66 22 -100t63 -34q37 0 69 27
t62 77l47 331q-38 17 -75 17q-63 0 -105.5 -48zM383.5 796.5q20.5 -22.5 20.5 -58.5q0 -46 -27.5 -75t-67.5 -29q-34 0 -54.5 22.5t-20.5 58.5q0 46 27.5 75t67.5 29q34 0 54.5 -22.5zM288 765.5q-14 -19.5 -14 -50.5q0 -22 9.5 -34.5t27.5 -12.5q25 0 39 19.5t14 50.5
q0 23 -9.5 35t-27.5 12q-25 0 -39 -19.5z" />
    <glyph glyph-name="ae" unicode="&#xe6;" horiz-adv-x="683" 
d="M320.5 509.5q30.5 -24.5 47.5 -69.5q64 94 165 94q61 0 95 -33.5t34 -87.5q0 -96 -81.5 -145t-226.5 -62l-1 -25q0 -143 96 -143q33 0 61 12t61 38l25 -37q-37 -31 -73.5 -46.5t-78.5 -15.5q-49 0 -83.5 24.5t-50.5 70.5q-41 -51 -81 -73t-82 -22q-59 0 -92 36t-33 96
q0 77 49.5 129.5t155.5 52.5h82q8 35 25 78q-8 51 -33 78.5t-69 27.5q-27 0 -53 -7.5t-64 -22.5l-11 44q76 33 135 33q51 0 81.5 -24.5zM414 418.5q-43 -68.5 -56 -168.5q125 12 186 50.5t61 111.5q0 36 -18.5 55.5t-57.5 19.5q-72 0 -115 -68.5zM230 262q-77 0 -112.5 -38
t-35.5 -103q0 -41 19 -64t53 -23q36 0 70 23.5t74 75.5q-3 20 -3 45q0 44 7 84h-72z" />
    <glyph glyph-name="ccedilla" unicode="&#xe7;" horiz-adv-x="386" 
d="M178 438q-40 -48 -58 -119t-18 -142q0 -70 25 -104t70 -34q28 0 52 10.5t52 30.5l24 -37q-60 -51 -124 -54l-9 -55q68 -7 68 -70q0 -39 -27 -64.5t-73 -25.5q-43 0 -67 22l20 32q24 -14 47 -14t37.5 12.5t14.5 35.5t-14.5 32.5t-52.5 9.5l19 88q-57 10 -88.5 58.5
t-31.5 128.5q0 83 25.5 165t78.5 136t131 54q36 0 64 -13t53 -41l-32 -34q-20 20 -39.5 30t-46.5 10q-60 0 -100 -48z" />
    <glyph glyph-name="egrave" unicode="&#xe8;" horiz-adv-x="431" 
d="M329 268q-81 -48 -226 -62q-1 -9 -1 -27q0 -141 96 -141q32 0 60.5 12.5t61.5 37.5l25 -37q-38 -31 -74.5 -46.5t-77.5 -15.5q-71 0 -110 49.5t-39 139.5q0 87 26 169t80 134.5t132 52.5q61 0 94.5 -33.5t33.5 -87.5q0 -97 -81 -145zM162 418q-43 -69 -55 -168
q125 12 186 50.5t61 111.5q0 36 -18.5 55.5t-57.5 19.5q-73 0 -116 -69zM255 778l141 -102l-21 -30l-151 84z" />
    <glyph glyph-name="eacute" unicode="&#xe9;" horiz-adv-x="431" 
d="M329 268q-81 -48 -226 -62q-1 -9 -1 -27q0 -141 96 -141q32 0 60.5 12.5t61.5 37.5l25 -37q-38 -31 -74.5 -46.5t-77.5 -15.5q-71 0 -110 49.5t-39 139.5q0 87 26 169t80 134.5t132 52.5q61 0 94.5 -33.5t33.5 -87.5q0 -97 -81 -145zM162 418q-43 -69 -55 -168
q125 12 186 50.5t61 111.5q0 36 -18.5 55.5t-57.5 19.5q-73 0 -116 -69zM371 780l25 -50l-175 -84l-17 31z" />
    <glyph glyph-name="ecircumflex" unicode="&#xea;" horiz-adv-x="431" 
d="M329 268q-81 -48 -226 -62q-1 -9 -1 -27q0 -141 96 -141q32 0 60.5 12.5t61.5 37.5l25 -37q-38 -31 -74.5 -46.5t-77.5 -15.5q-71 0 -110 49.5t-39 139.5q0 87 26 169t80 134.5t132 52.5q61 0 94.5 -33.5t33.5 -87.5q0 -97 -81 -145zM162 418q-43 -69 -55 -168
q125 12 186 50.5t61 111.5q0 36 -18.5 55.5t-57.5 19.5q-73 0 -116 -69zM194 645l-25 28l123 106h34l92 -108l-28 -26l-85 83z" />
    <glyph glyph-name="edieresis" unicode="&#xeb;" horiz-adv-x="431" 
d="M329 268q-81 -48 -226 -62q-1 -9 -1 -27q0 -141 96 -141q32 0 60.5 12.5t61.5 37.5l25 -37q-38 -31 -74.5 -46.5t-77.5 -15.5q-71 0 -110 49.5t-39 139.5q0 87 26 169t80 134.5t132 52.5q61 0 94.5 -33.5t33.5 -87.5q0 -97 -81 -145zM162 418q-43 -69 -55 -168
q125 12 186 50.5t61 111.5q0 36 -18.5 55.5t-57.5 19.5q-73 0 -116 -69zM193 673.5q-9 9.5 -9 23.5q0 18 12 30.5t29 12.5q15 0 24 -9.5t9 -23.5q0 -19 -12 -31t-29 -12q-15 0 -24 9.5zM352 673.5q-9 9.5 -9 23.5q0 19 11.5 31t28.5 12q15 0 24 -9.5t9 -23.5
q0 -19 -11.5 -31t-28.5 -12q-15 0 -24 9.5z" />
    <glyph glyph-name="igrave" unicode="&#xec;" horiz-adv-x="223" 
d="M176 523l-74 -523h-56l74 523h56zM128 778l141 -102l-21 -30l-151 84z" />
    <glyph glyph-name="iacute" unicode="&#xed;" horiz-adv-x="223" 
d="M176 523l-74 -523h-56l74 523h56zM244 780l25 -50l-175 -84l-17 31z" />
    <glyph glyph-name="icircumflex" unicode="&#xee;" horiz-adv-x="223" 
d="M176 523l-74 -523h-56l74 523h56zM67 645l-25 28l123 106h34l92 -108l-28 -26l-85 83z" />
    <glyph glyph-name="idieresis" unicode="&#xef;" horiz-adv-x="223" 
d="M176 523l-74 -523h-56l74 523h56zM66 673.5q-9 9.5 -9 23.5q0 18 12 30.5t29 12.5q15 0 24 -9.5t9 -23.5q0 -19 -12 -31t-29 -12q-15 0 -24 9.5zM225 673.5q-9 9.5 -9 23.5q0 19 11.5 31t28.5 12q15 0 24 -9.5t9 -23.5q0 -19 -11.5 -31t-28.5 -12q-15 0 -24 9.5z" />
    <glyph glyph-name="eth" unicode="&#xf0;" horiz-adv-x="474" 
d="M401 560.5q21 -57.5 21 -143.5q0 -107 -25.5 -205t-78.5 -160.5t-131 -62.5q-70 0 -108 47t-38 131q0 72 24 142t70.5 114.5t110.5 44.5q74 0 121 -74q2 84 -12.5 135t-54.5 97l-72 -73l-36 19l79 82q-40 32 -90 47l18 42q58 -16 106 -54l73 72l27 -30l-69 -69
q44 -44 65 -101.5zM362 327q-19 47 -46 70.5t-65 23.5q-52 0 -86.5 -38t-50.5 -96t-16 -120q0 -64 23 -97.5t67 -33.5q134 0 174 291z" />
    <glyph glyph-name="ntilde" unicode="&#xf1;" horiz-adv-x="477" 
d="M389.5 502q27.5 -32 27.5 -88q0 -16 -3 -36l-53 -378h-56l53 376q2 12 2 34q0 76 -56 76q-74 0 -157 -164l-45 -322h-56l74 523h48l-13 -120q36 63 74.5 97t85.5 34t74.5 -32zM323 673.5q-12 6.5 -29 18.5q-12 10 -20.5 15t-18.5 5q-14 0 -24.5 -9t-26.5 -31l-29 20
q38 65 81 65q15 0 27 -6.5t29 -18.5q12 -10 20.5 -15t18.5 -5q12 0 23.5 10t26.5 32l31 -18q-37 -69 -82 -69q-15 0 -27 6.5z" />
    <glyph glyph-name="ograve" unicode="&#xf2;" horiz-adv-x="472" 
d="M83 39.5q-39 50.5 -39 140.5q0 80 24.5 161.5t77.5 137t132 55.5q72 0 111 -50.5t39 -139.5q0 -80 -24.5 -162t-77 -137.5t-132.5 -55.5q-72 0 -111 50.5zM297 87.5q39 50.5 56 122t17 138.5q0 69 -24 104t-70 35q-62 0 -101 -50.5t-56 -122.5t-17 -139q0 -138 94 -138
q62 0 101 50.5zM258 778l141 -102l-21 -30l-151 84z" />
    <glyph glyph-name="oacute" unicode="&#xf3;" horiz-adv-x="472" 
d="M83 39.5q-39 50.5 -39 140.5q0 80 24.5 161.5t77.5 137t132 55.5q72 0 111 -50.5t39 -139.5q0 -80 -24.5 -162t-77 -137.5t-132.5 -55.5q-72 0 -111 50.5zM297 87.5q39 50.5 56 122t17 138.5q0 69 -24 104t-70 35q-62 0 -101 -50.5t-56 -122.5t-17 -139q0 -138 94 -138
q62 0 101 50.5zM374 780l25 -50l-175 -84l-17 31z" />
    <glyph glyph-name="ocircumflex" unicode="&#xf4;" horiz-adv-x="472" 
d="M83 39.5q-39 50.5 -39 140.5q0 80 24.5 161.5t77.5 137t132 55.5q72 0 111 -50.5t39 -139.5q0 -80 -24.5 -162t-77 -137.5t-132.5 -55.5q-72 0 -111 50.5zM297 87.5q39 50.5 56 122t17 138.5q0 69 -24 104t-70 35q-62 0 -101 -50.5t-56 -122.5t-17 -139q0 -138 94 -138
q62 0 101 50.5zM197 645l-25 28l123 106h34l92 -108l-28 -26l-85 83z" />
    <glyph glyph-name="otilde" unicode="&#xf5;" horiz-adv-x="472" 
d="M83 39.5q-39 50.5 -39 140.5q0 80 24.5 161.5t77.5 137t132 55.5q72 0 111 -50.5t39 -139.5q0 -80 -24.5 -162t-77 -137.5t-132.5 -55.5q-72 0 -111 50.5zM297 87.5q39 50.5 56 122t17 138.5q0 69 -24 104t-70 35q-62 0 -101 -50.5t-56 -122.5t-17 -139q0 -138 94 -138
q62 0 101 50.5zM324 673.5q-12 6.5 -29 18.5q-12 10 -20.5 15t-18.5 5q-14 0 -24.5 -9t-26.5 -31l-29 20q38 65 81 65q15 0 27 -6.5t29 -18.5q12 -10 20.5 -15t18.5 -5q12 0 23.5 10t26.5 32l31 -18q-37 -69 -82 -69q-15 0 -27 6.5z" />
    <glyph glyph-name="odieresis" unicode="&#xf6;" horiz-adv-x="472" 
d="M83 39.5q-39 50.5 -39 140.5q0 80 24.5 161.5t77.5 137t132 55.5q72 0 111 -50.5t39 -139.5q0 -80 -24.5 -162t-77 -137.5t-132.5 -55.5q-72 0 -111 50.5zM297 87.5q39 50.5 56 122t17 138.5q0 69 -24 104t-70 35q-62 0 -101 -50.5t-56 -122.5t-17 -139q0 -138 94 -138
q62 0 101 50.5zM196 673.5q-9 9.5 -9 23.5q0 18 12 30.5t29 12.5q15 0 24 -9.5t9 -23.5q0 -19 -12 -31t-29 -12q-15 0 -24 9.5zM355 673.5q-9 9.5 -9 23.5q0 19 11.5 31t28.5 12q15 0 24 -9.5t9 -23.5q0 -19 -11.5 -31t-28.5 -12q-15 0 -24 9.5z" />
    <glyph glyph-name="divide" unicode="&#xf7;" horiz-adv-x="416" 
d="M155 77.5q-11 11.5 -11 29.5q0 21 13.5 36t34.5 15q19 0 30.5 -12t11.5 -29q0 -21 -13.5 -36t-35.5 -15q-19 0 -30 11.5zM216 514.5q-11 11.5 -11 29.5q0 21 13.5 36t34.5 15q19 0 30.5 -12t11.5 -29q0 -21 -13.5 -36t-35.5 -15q-19 0 -30 11.5zM67 306l6 50h296l-7 -50
h-295z" />
    <glyph glyph-name="oslash" unicode="&#xf8;" horiz-adv-x="472" 
d="M411.5 441q16.5 -42 16.5 -97q0 -80 -24.5 -162t-77 -137.5t-132.5 -55.5q-23 0 -43 6l-50 -120l-43 14l52 125q-32 24 -49 67t-17 99q0 80 24.5 161.5t77.5 137t132 55.5q26 0 46 -7l49 121l43 -14l-52 -127q31 -24 47.5 -66zM175 436.5q-39 -50.5 -56 -122.5t-17 -139
q0 -86 35 -118l171 425q-15 5 -32 5q-62 0 -101 -50.5zM297 87.5q39 50.5 56 122t17 138.5q0 84 -33 117l-170 -424q12 -4 29 -4q62 0 101 50.5z" />
    <glyph glyph-name="ugrave" unicode="&#xf9;" horiz-adv-x="473" 
d="M87.5 20q-27.5 31 -27.5 86q0 21 2 32l54 385h56l-54 -388q-2 -11 -2 -31q0 -34 14 -51t40 -17q82 0 154 157l47 330h55l-74 -523h-46l13 121q-32 -62 -69 -97t-88 -35q-47 0 -74.5 31zM251 778l141 -102l-21 -30l-151 84z" />
    <glyph glyph-name="uacute" unicode="&#xfa;" horiz-adv-x="473" 
d="M87.5 20q-27.5 31 -27.5 86q0 21 2 32l54 385h56l-54 -388q-2 -11 -2 -31q0 -34 14 -51t40 -17q82 0 154 157l47 330h55l-74 -523h-46l13 121q-32 -62 -69 -97t-88 -35q-47 0 -74.5 31zM367 780l25 -50l-175 -84l-17 31z" />
    <glyph glyph-name="ucircumflex" unicode="&#xfb;" horiz-adv-x="473" 
d="M87.5 20q-27.5 31 -27.5 86q0 21 2 32l54 385h56l-54 -388q-2 -11 -2 -31q0 -34 14 -51t40 -17q82 0 154 157l47 330h55l-74 -523h-46l13 121q-32 -62 -69 -97t-88 -35q-47 0 -74.5 31zM190 645l-25 28l123 106h34l92 -108l-28 -26l-85 83z" />
    <glyph glyph-name="udieresis" unicode="&#xfc;" horiz-adv-x="473" 
d="M87.5 20q-27.5 31 -27.5 86q0 21 2 32l54 385h56l-54 -388q-2 -11 -2 -31q0 -34 14 -51t40 -17q82 0 154 157l47 330h55l-74 -523h-46l13 121q-32 -62 -69 -97t-88 -35q-47 0 -74.5 31zM189 673.5q-9 9.5 -9 23.5q0 18 12 30.5t29 12.5q15 0 24 -9.5t9 -23.5
q0 -19 -12 -31t-29 -12q-15 0 -24 9.5zM348 673.5q-9 9.5 -9 23.5q0 19 11.5 31t28.5 12q15 0 24 -9.5t9 -23.5q0 -19 -11.5 -31t-28.5 -12q-15 0 -24 9.5z" />
    <glyph glyph-name="yacute" unicode="&#xfd;" horiz-adv-x="395" 
d="M199 -4q-28 -68 -55.5 -106.5t-63 -59.5t-92.5 -34l-2 42q45 13 72.5 31t47 47.5t41.5 83.5h-23l-72 523h59l57 -480l190 480h59zM327 780l25 -50l-175 -84l-17 31z" />
    <glyph glyph-name="thorn" unicode="&#xfe;" horiz-adv-x="476" 
d="M400 488.5q34 -45.5 34 -128.5q0 -88 -24 -173t-77.5 -141.5t-136.5 -56.5q-47 0 -91 21l-30 -209l-57 -8l133 943l56 8l-40 -288q33 38 67 58t72 20q60 0 94 -45.5zM300 86.5q40 50.5 58.5 125t18.5 149.5q0 125 -81 125q-67 0 -137 -88l-48 -342q43 -20 86 -20
q63 0 103 50.5z" />
    <glyph glyph-name="ydieresis" unicode="&#xff;" horiz-adv-x="395" 
d="M199 -4q-28 -68 -55.5 -106.5t-63 -59.5t-92.5 -34l-2 42q45 13 72.5 31t47 47.5t41.5 83.5h-23l-72 523h59l57 -480l190 480h59zM149 673.5q-9 9.5 -9 23.5q0 18 12 30.5t29 12.5q15 0 24 -9.5t9 -23.5q0 -19 -12 -31t-29 -12q-15 0 -24 9.5zM308 673.5q-9 9.5 -9 23.5
q0 19 11.5 31t28.5 12q15 0 24 -9.5t9 -23.5q0 -19 -11.5 -31t-28.5 -12q-15 0 -24 9.5z" />
    <glyph glyph-name="Amacron" unicode="&#x100;" horiz-adv-x="476" 
d="M361 0l-21 188h-226l-74 -188h-60l280 685h74l88 -685h-61zM133 237h202l-45 400zM413 802h-201l6 46h201z" />
    <glyph glyph-name="amacron" unicode="&#x101;" horiz-adv-x="472" 
d="M423 496l-55 -382q-4 -24 -4 -43q0 -16 5 -25.5t18 -16.5l-18 -40q-29 9 -43 29t-13 59q-29 -42 -62 -65t-75 -23q-62 0 -97.5 48t-35.5 133q0 87 26 170.5t81.5 138.5t139.5 55q67 0 133 -38zM182.5 440q-42.5 -48 -62.5 -121t-20 -149q0 -66 22 -100t63 -34q37 0 69 27
t62 77l47 331q-38 17 -75 17q-63 0 -105.5 -48zM414 676h-201l6 46h201z" />
    <glyph glyph-name="Abreve" unicode="&#x102;" horiz-adv-x="476" 
d="M361 0l-21 188h-226l-74 -188h-60l280 685h74l88 -685h-61zM133 237h202l-45 400zM233.5 793.5q-25.5 28.5 -24.5 72.5l35 6q8 -61 64 -61q29 0 50 17t33 46l36 -12q-12 -43 -44 -70t-77 -27q-47 0 -72.5 28.5z" />
    <glyph glyph-name="abreve" unicode="&#x103;" horiz-adv-x="472" 
d="M423 496l-55 -382q-4 -24 -4 -43q0 -16 5 -25.5t18 -16.5l-18 -40q-29 9 -43 29t-13 59q-29 -42 -62 -65t-75 -23q-62 0 -97.5 48t-35.5 133q0 87 26 170.5t81.5 138.5t139.5 55q67 0 133 -38zM182.5 440q-42.5 -48 -62.5 -121t-20 -149q0 -66 22 -100t63 -34q37 0 69 27
t62 77l47 331q-38 17 -75 17q-63 0 -105.5 -48zM237.5 683.5q-26.5 30.5 -24.5 80.5l37 6q6 -70 61 -70q29 0 51.5 19t34.5 54l35 -12q-12 -50 -44.5 -79t-77.5 -29q-46 0 -72.5 30.5z" />
    <glyph glyph-name="Aogonek" unicode="&#x104;" horiz-adv-x="476" 
d="M312.5 -61.5q-26.5 -29.5 -26.5 -67.5q0 -20 11.5 -31t32.5 -11t48 6l-10 -45q-25 -6 -47 -6q-38 0 -61 22.5t-23 60.5q0 44 28.5 79t94.5 65l-20 177h-226l-74 -188h-60l280 685h74l88 -685h-18q-65 -32 -91.5 -61.5zM133 237h202l-45 400z" />
    <glyph glyph-name="aogonek" unicode="&#x105;" horiz-adv-x="472" 
d="M364 71q0 -16 5 -25.5t18 -16.5l-18 -40q-65 -32 -91.5 -61.5t-26.5 -67.5q0 -20 11.5 -31t32.5 -11t48 6l-10 -45q-25 -6 -47 -6q-38 0 -61 22.5t-23 60.5q0 46 31.5 82t103.5 67q-25 22 -24 72q-29 -42 -62 -65t-75 -23q-62 0 -97.5 48t-35.5 133q0 87 26 170.5
t81.5 138.5t139.5 55q67 0 133 -38l-55 -382q-4 -24 -4 -43zM363 471q-38 17 -75 17q-63 0 -105.5 -48t-62.5 -121t-20 -149q0 -66 22 -100t63 -34q37 0 69 27t62 77z" />
    <glyph glyph-name="Cacute" unicode="&#x106;" horiz-adv-x="459" 
d="M433 680q33 -16 61 -48l-35 -34q-26 26 -49.5 37t-55.5 11q-81 0 -134.5 -64t-78.5 -159t-25 -190q0 -96 34 -144t93 -48q39 0 69 14t63 41l26 -39q-75 -68 -163 -68q-83 0 -132 64t-49 182q0 109 32 215t99 176t167 70q45 0 78 -16zM438 882l25 -49l-175 -75l-16 32z
" />
    <glyph glyph-name="cacute" unicode="&#x107;" horiz-adv-x="386" 
d="M343 521q28 -13 53 -41l-32 -34q-20 20 -39.5 30t-46.5 10q-60 0 -100 -48t-58 -119t-18 -142q0 -70 25 -104t70 -34q28 0 52 10.5t52 30.5l24 -37q-63 -54 -132 -54q-70 0 -109.5 50t-39.5 140q0 83 25.5 165t78.5 136t131 54q36 0 64 -13zM370 780l25 -50l-175 -84
l-17 31z" />
    <glyph glyph-name="Ccircumflex" unicode="&#x108;" horiz-adv-x="459" 
d="M433 680q33 -16 61 -48l-35 -34q-26 26 -49.5 37t-55.5 11q-81 0 -134.5 -64t-78.5 -159t-25 -190q0 -96 34 -144t93 -48q39 0 69 14t63 41l26 -39q-75 -68 -163 -68q-83 0 -132 64t-49 182q0 109 32 215t99 176t167 70q45 0 78 -16zM258 762l-24 28l122 103h35l92 -105
l-26 -26l-88 80z" />
    <glyph glyph-name="ccircumflex" unicode="&#x109;" horiz-adv-x="386" 
d="M343 521q28 -13 53 -41l-32 -34q-20 20 -39.5 30t-46.5 10q-60 0 -100 -48t-58 -119t-18 -142q0 -70 25 -104t70 -34q28 0 52 10.5t52 30.5l24 -37q-63 -54 -132 -54q-70 0 -109.5 50t-39.5 140q0 83 25.5 165t78.5 136t131 54q36 0 64 -13zM193 645l-25 28l123 106h34
l92 -108l-28 -26l-85 83z" />
    <glyph glyph-name="Cdotaccent" unicode="&#x10a;" horiz-adv-x="459" 
d="M433 680q33 -16 61 -48l-35 -34q-26 26 -49.5 37t-55.5 11q-81 0 -134.5 -64t-78.5 -159t-25 -190q0 -96 34 -144t93 -48q39 0 69 14t63 41l26 -39q-75 -68 -163 -68q-83 0 -132 64t-49 182q0 109 32 215t99 176t167 70q45 0 78 -16zM339 806.5q-10 9.5 -10 25.5
q0 20 13 32.5t31 12.5q16 0 26 -9.5t10 -25.5q0 -20 -12.5 -32.5t-30.5 -12.5q-17 0 -27 9.5z" />
    <glyph glyph-name="cdotaccent" unicode="&#x10b;" horiz-adv-x="386" 
d="M343 521q28 -13 53 -41l-32 -34q-20 20 -39.5 30t-46.5 10q-60 0 -100 -48t-58 -119t-18 -142q0 -70 25 -104t70 -34q28 0 52 10.5t52 30.5l24 -37q-63 -54 -132 -54q-70 0 -109.5 50t-39.5 140q0 83 25.5 165t78.5 136t131 54q36 0 64 -13zM268 680.5q-10 9.5 -10 25.5
q0 20 13 32.5t31 12.5q16 0 26 -9.5t10 -25.5q0 -20 -12.5 -32.5t-30.5 -12.5q-17 0 -27 9.5z" />
    <glyph glyph-name="Ccaron" unicode="&#x10c;" horiz-adv-x="459" 
d="M433 680q33 -16 61 -48l-35 -34q-26 26 -49.5 37t-55.5 11q-81 0 -134.5 -64t-78.5 -159t-25 -190q0 -96 34 -144t93 -48q39 0 69 14t63 41l26 -39q-75 -68 -163 -68q-83 0 -132 64t-49 182q0 109 32 215t99 176t167 70q45 0 78 -16zM476 886l24 -27l-123 -103h-34
l-92 105l25 25l89 -79z" />
    <glyph glyph-name="ccaron" unicode="&#x10d;" horiz-adv-x="386" 
d="M343 521q28 -13 53 -41l-32 -34q-20 20 -39.5 30t-46.5 10q-60 0 -100 -48t-58 -119t-18 -142q0 -70 25 -104t70 -34q28 0 52 10.5t52 30.5l24 -37q-63 -54 -132 -54q-70 0 -109.5 50t-39.5 140q0 83 25.5 165t78.5 136t131 54q36 0 64 -13zM404 766l23 -27l-122 -106
h-34l-93 106l27 27l86 -82z" />
    <glyph glyph-name="Dcaron" unicode="&#x10e;" horiz-adv-x="536" 
d="M441 632q61 -53 61 -177q0 -122 -33 -225t-106 -166.5t-186 -63.5h-127l97 685h133q100 0 161 -53zM198 636l-83 -587h73q91 0 148 59.5t82 151.5t25 195q0 101 -43 141t-118 40h-84zM454 886l24 -27l-123 -103h-34l-92 105l25 25l89 -79z" />
    <glyph glyph-name="dcaron" unicode="&#x10f;" horiz-adv-x="479" 
d="M462 736l-104 -736h-48l9 101q-63 -112 -148 -112q-60 0 -94 48.5t-34 133.5q0 83 24.5 167t74 140t120.5 56q74 0 107 -67l38 276zM175 438q-38 -49 -56.5 -122.5t-18.5 -144.5q0 -65 21 -100t60 -35q42 0 76.5 37t71.5 108l31 229q-14 37 -36 57t-58 20q-53 0 -91 -49z
M543 742l49 -7l-55 -162l-32 5z" />
    <glyph glyph-name="Dcroat" unicode="&#x110;" horiz-adv-x="541" 
d="M446 632q61 -53 61 -177q0 -122 -33 -225t-106 -166.5t-186 -63.5h-127l47 330h-72l7 46h71l44 309h133q100 0 161 -53zM341 108.5q57 59.5 82 151.5t25 195q0 101 -43 141t-118 40h-84l-37 -260h140l-7 -46h-139l-40 -281h73q91 0 148 59.5z" />
    <glyph glyph-name="dcroat" unicode="&#x111;" horiz-adv-x="487" 
d="M514 662l-7 -45h-62l-87 -617h-48l9 101q-63 -112 -148 -112q-60 0 -94 48.5t-34 133.5q0 83 24.5 167t74 140t120.5 56q74 0 107 -67l21 150h-128l2 45h132l11 81l55 -7l-10 -74h62zM360 410q-14 37 -36 57t-58 20q-53 0 -91 -49t-56.5 -122.5t-18.5 -144.5
q0 -65 21 -100t60 -35q42 0 76.5 37t71.5 108z" />
    <glyph glyph-name="Emacron" unicode="&#x112;" horiz-adv-x="418" 
d="M437 685l-14 -49h-225l-36 -257h196l-8 -48h-195l-40 -282h239l-8 -49h-296l97 685h290zM412 802h-201l6 46h201z" />
    <glyph glyph-name="emacron" unicode="&#x113;" horiz-adv-x="431" 
d="M329 268q-81 -48 -226 -62q-1 -9 -1 -27q0 -141 96 -141q32 0 60.5 12.5t61.5 37.5l25 -37q-38 -31 -74.5 -46.5t-77.5 -15.5q-71 0 -110 49.5t-39 139.5q0 87 26 169t80 134.5t132 52.5q61 0 94.5 -33.5t33.5 -87.5q0 -97 -81 -145zM162 418q-43 -69 -55 -168
q125 12 186 50.5t61 111.5q0 36 -18.5 55.5t-57.5 19.5q-73 0 -116 -69zM397 676h-201l6 46h201z" />
    <glyph glyph-name="Ebreve" unicode="&#x114;" horiz-adv-x="418" 
d="M437 685l-14 -49h-225l-36 -257h196l-8 -48h-195l-40 -282h239l-8 -49h-296l97 685h290zM232.5 793.5q-25.5 28.5 -24.5 72.5l35 6q8 -61 64 -61q29 0 50 17t33 46l36 -12q-12 -43 -44 -70t-77 -27q-47 0 -72.5 28.5z" />
    <glyph glyph-name="ebreve" unicode="&#x115;" horiz-adv-x="431" 
d="M329 268q-81 -48 -226 -62q-1 -9 -1 -27q0 -141 96 -141q32 0 60.5 12.5t61.5 37.5l25 -37q-38 -31 -74.5 -46.5t-77.5 -15.5q-71 0 -110 49.5t-39 139.5q0 87 26 169t80 134.5t132 52.5q61 0 94.5 -33.5t33.5 -87.5q0 -97 -81 -145zM162 418q-43 -69 -55 -168
q125 12 186 50.5t61 111.5q0 36 -18.5 55.5t-57.5 19.5q-73 0 -116 -69zM220.5 683.5q-26.5 30.5 -24.5 80.5l37 6q6 -70 61 -70q29 0 51.5 19t34.5 54l35 -12q-12 -50 -44.5 -79t-77.5 -29q-46 0 -72.5 30.5z" />
    <glyph glyph-name="Edotaccent" unicode="&#x116;" horiz-adv-x="418" 
d="M437 685l-14 -49h-225l-36 -257h196l-8 -48h-195l-40 -282h239l-8 -49h-296l97 685h290zM285 806.5q-10 9.5 -10 25.5q0 20 13 32.5t31 12.5q16 0 26 -9.5t10 -25.5q0 -20 -12.5 -32.5t-30.5 -12.5q-17 0 -27 9.5z" />
    <glyph glyph-name="edotaccent" unicode="&#x117;" horiz-adv-x="431" 
d="M329 268q-81 -48 -226 -62q-1 -9 -1 -27q0 -141 96 -141q32 0 60.5 12.5t61.5 37.5l25 -37q-38 -31 -74.5 -46.5t-77.5 -15.5q-71 0 -110 49.5t-39 139.5q0 87 26 169t80 134.5t132 52.5q61 0 94.5 -33.5t33.5 -87.5q0 -97 -81 -145zM162 418q-43 -69 -55 -168
q125 12 186 50.5t61 111.5q0 36 -18.5 55.5t-57.5 19.5q-73 0 -116 -69zM269 680.5q-10 9.5 -10 25.5q0 20 13 32.5t31 12.5q16 0 26 -9.5t10 -25.5q0 -20 -12.5 -32.5t-30.5 -12.5q-17 0 -27 9.5z" />
    <glyph glyph-name="Eogonek" unicode="&#x118;" horiz-adv-x="418" 
d="M198 636l-36 -257h196l-8 -48h-195l-40 -282h239l-8 -49h-26q-65 -32 -91.5 -61.5t-26.5 -67.5q0 -20 11.5 -31t32.5 -11t48 6l-10 -45q-26 -6 -47 -6q-38 0 -61 22.5t-23 60.5q0 40 23.5 72.5t77.5 60.5h-204l97 685h290l-14 -49h-225z" />
    <glyph glyph-name="eogonek" unicode="&#x119;" horiz-adv-x="431" 
d="M329 268q-81 -48 -226 -62q-1 -9 -1 -27q0 -141 96 -141q32 0 60.5 12.5t61.5 37.5l25 -37q-39 -32 -76 -47q-56 -30 -79 -56.5t-23 -63.5q0 -23 12.5 -36t37.5 -13q18 0 47 6l-7 -46q-30 -7 -49 -7q-43 0 -67 24.5t-24 62.5q0 71 76 114q-71 0 -110 49.5t-39 139.5
q0 87 26 169t80 134.5t132 52.5q61 0 94.5 -33.5t33.5 -87.5q0 -97 -81 -145zM162 418q-43 -69 -55 -168q125 12 186 50.5t61 111.5q0 36 -18.5 55.5t-57.5 19.5q-73 0 -116 -69z" />
    <glyph glyph-name="Ecaron" unicode="&#x11a;" horiz-adv-x="418" 
d="M437 685l-14 -49h-225l-36 -257h196l-8 -48h-195l-40 -282h239l-8 -49h-296l97 685h290zM422 886l24 -27l-123 -103h-34l-92 105l25 25l89 -79z" />
    <glyph glyph-name="ecaron" unicode="&#x11b;" horiz-adv-x="431" 
d="M329 268q-81 -48 -226 -62q-1 -9 -1 -27q0 -141 96 -141q32 0 60.5 12.5t61.5 37.5l25 -37q-38 -31 -74.5 -46.5t-77.5 -15.5q-71 0 -110 49.5t-39 139.5q0 87 26 169t80 134.5t132 52.5q61 0 94.5 -33.5t33.5 -87.5q0 -97 -81 -145zM162 418q-43 -69 -55 -168
q125 12 186 50.5t61 111.5q0 36 -18.5 55.5t-57.5 19.5q-73 0 -116 -69zM405 766l23 -27l-122 -106h-34l-93 106l27 27l86 -82z" />
    <glyph glyph-name="Gcircumflex" unicode="&#x11c;" horiz-adv-x="513" 
d="M444 679q36 -17 67 -52l-38 -33q-26 28 -52 40t-63 12q-79 0 -133.5 -60t-81.5 -156t-27 -204q0 -187 133 -187q60 0 123 36l34 245h-104v49h169l-45 -323q-91 -57 -182 -57q-90 0 -139 61.5t-49 180.5q0 120 35 226.5t104 172.5t165 66q48 0 84 -17zM265 762l-24 28
l122 103h35l92 -105l-26 -26l-88 80z" />
    <glyph glyph-name="gcircumflex" unicode="&#x11d;" horiz-adv-x="469" 
d="M423 496l-70 -499q-28 -203 -191 -203q-38 0 -75 13t-66 35l24 39q54 -38 118 -38q115 0 135 155l12 86q-28 -40 -59.5 -62t-72.5 -22q-63 0 -98.5 48t-35.5 130q0 84 26.5 166t82 136t138.5 54q68 0 132 -38zM184.5 441q-42.5 -47 -63 -118t-20.5 -143q0 -65 22 -99
t64 -34q68 0 131 104l46 320q-38 17 -75 17q-62 0 -104.5 -47zM207 645l-25 28l123 106h34l92 -108l-28 -26l-85 83z" />
    <glyph glyph-name="Gbreve" unicode="&#x11e;" horiz-adv-x="513" 
d="M444 679q36 -17 67 -52l-38 -33q-26 28 -52 40t-63 12q-79 0 -133.5 -60t-81.5 -156t-27 -204q0 -187 133 -187q60 0 123 36l34 245h-104v49h169l-45 -323q-91 -57 -182 -57q-90 0 -139 61.5t-49 180.5q0 120 35 226.5t104 172.5t165 66q48 0 84 -17zM293.5 793.5
q-25.5 28.5 -24.5 72.5l35 6q8 -61 64 -61q29 0 50 17t33 46l36 -12q-12 -43 -44 -70t-77 -27q-47 0 -72.5 28.5z" />
    <glyph glyph-name="gbreve" unicode="&#x11f;" horiz-adv-x="469" 
d="M423 496l-70 -499q-28 -203 -191 -203q-38 0 -75 13t-66 35l24 39q54 -38 118 -38q115 0 135 155l12 86q-28 -40 -59.5 -62t-72.5 -22q-63 0 -98.5 48t-35.5 130q0 84 26.5 166t82 136t138.5 54q68 0 132 -38zM184.5 441q-42.5 -47 -63 -118t-20.5 -143q0 -65 22 -99
t64 -34q68 0 131 104l46 320q-38 17 -75 17q-62 0 -104.5 -47zM233.5 683.5q-26.5 30.5 -24.5 80.5l37 6q6 -70 61 -70q29 0 51.5 19t34.5 54l35 -12q-12 -50 -44.5 -79t-77.5 -29q-46 0 -72.5 30.5z" />
    <glyph glyph-name="Gdotaccent" unicode="&#x120;" horiz-adv-x="513" 
d="M444 679q36 -17 67 -52l-38 -33q-26 28 -52 40t-63 12q-79 0 -133.5 -60t-81.5 -156t-27 -204q0 -187 133 -187q60 0 123 36l34 245h-104v49h169l-45 -323q-91 -57 -182 -57q-90 0 -139 61.5t-49 180.5q0 120 35 226.5t104 172.5t165 66q48 0 84 -17zM346 806.5
q-10 9.5 -10 25.5q0 20 13 32.5t31 12.5q16 0 26 -9.5t10 -25.5q0 -20 -12.5 -32.5t-30.5 -12.5q-17 0 -27 9.5z" />
    <glyph glyph-name="gdotaccent" unicode="&#x121;" horiz-adv-x="469" 
d="M423 496l-70 -499q-28 -203 -191 -203q-38 0 -75 13t-66 35l24 39q54 -38 118 -38q115 0 135 155l12 86q-28 -40 -59.5 -62t-72.5 -22q-63 0 -98.5 48t-35.5 130q0 84 26.5 166t82 136t138.5 54q68 0 132 -38zM184.5 441q-42.5 -47 -63 -118t-20.5 -143q0 -65 22 -99
t64 -34q68 0 131 104l46 320q-38 17 -75 17q-62 0 -104.5 -47zM282 680.5q-10 9.5 -10 25.5q0 20 13 32.5t31 12.5q16 0 26 -9.5t10 -25.5q0 -20 -12.5 -32.5t-30.5 -12.5q-17 0 -27 9.5z" />
    <glyph glyph-name="Gcommaaccent" unicode="&#x122;" horiz-adv-x="513" 
d="M444 679q36 -17 67 -52l-38 -33q-26 28 -52 40t-63 12q-79 0 -133.5 -60t-81.5 -156t-27 -204q0 -187 133 -187q60 0 123 36l34 245h-104v49h169l-45 -323q-91 -57 -182 -57q-90 0 -139 61.5t-49 180.5q0 120 35 226.5t104 172.5t165 66q48 0 84 -17zM256 -96
q10 -11 10 -26q0 -14 -5 -26t-19 -38l-50 -92h-33l43 115q-17 14 -17 33t12.5 32t31.5 13q17 0 27 -11z" />
    <glyph glyph-name="gcommaaccent" unicode="&#x123;" horiz-adv-x="469" 
d="M423 496l-70 -499q-28 -203 -191 -203q-38 0 -75 13t-66 35l24 39q54 -38 118 -38q115 0 135 155l12 86q-28 -40 -59.5 -62t-72.5 -22q-63 0 -98.5 48t-35.5 130q0 84 26.5 166t82 136t138.5 54q68 0 132 -38zM184.5 441q-42.5 -47 -63 -118t-20.5 -143q0 -65 22 -99
t64 -34q68 0 131 104l46 320q-38 17 -75 17q-62 0 -104.5 -47zM272 600q-10 11 -10 26q0 14 5 26t19 38l50 92h33l-43 -115q17 -14 17 -33t-12.5 -32t-31.5 -13q-17 0 -27 11z" />
    <glyph glyph-name="Hcircumflex" unicode="&#x124;" horiz-adv-x="548" 
d="M108 0h-58l97 685h58l-42 -300h257l42 300h58l-96 -685h-58l47 335h-257zM241 762l-24 28l122 103h35l92 -105l-26 -26l-88 80z" />
    <glyph glyph-name="hcircumflex" unicode="&#x125;" horiz-adv-x="477" 
d="M389.5 502q27.5 -32 27.5 -88q0 -16 -3 -36l-53 -378h-56l53 376q2 13 2 35q0 75 -57 75q-40 0 -80 -45.5t-76 -118.5l-45 -322h-56l104 736l57 7l-47 -335q33 59 70.5 92.5t84.5 33.5t74.5 -32zM215 813l-24 28l122 103h35l92 -105l-26 -26l-88 80z" />
    <glyph glyph-name="Hbar" unicode="&#x126;" horiz-adv-x="548" 
d="M554 557l-6 -43h-52l-72 -514h-58l47 335h-257l-48 -335h-58l73 514h-52l5 43h53l18 128h58l-18 -128h257l18 128h58l-18 -128h52zM420 385l18 129h-257l-18 -129h257z" />
    <glyph glyph-name="hbar" unicode="&#x127;" horiz-adv-x="483" 
d="M395.5 502q27.5 -32 27.5 -88q0 -16 -3 -36l-53 -378h-56l53 376q2 13 2 35q0 75 -57 75q-40 0 -80 -45.5t-76 -118.5l-45 -322h-56l87 617h-60l7 45h60l10 74l57 7l-11 -81h136l-13 -45h-130l-29 -209q33 59 70.5 92.5t84.5 33.5t74.5 -32z" />
    <glyph glyph-name="Itilde" unicode="&#x128;" horiz-adv-x="233" 
d="M205 685l-97 -685h-58l97 685h58zM217 799.5q-12 6.5 -29 18.5q-12 10 -20.5 15t-18.5 5q-14 0 -24.5 -9t-26.5 -31l-29 20q38 65 81 65q15 0 27 -6.5t29 -18.5q12 -10 20.5 -15t18.5 -5q12 0 23.5 10t26.5 32l31 -18q-37 -69 -82 -69q-15 0 -27 6.5z" />
    <glyph glyph-name="itilde" unicode="&#x129;" horiz-adv-x="223" 
d="M176 523l-74 -523h-56l74 523h56zM194 673.5q-12 6.5 -29 18.5q-12 10 -20.5 15t-18.5 5q-14 0 -24.5 -9t-26.5 -31l-29 20q38 65 81 65q15 0 27 -6.5t29 -18.5q12 -10 20.5 -15t18.5 -5q12 0 23.5 10t26.5 32l31 -18q-37 -69 -82 -69q-15 0 -27 6.5z" />
    <glyph glyph-name="Imacron" unicode="&#x12a;" horiz-adv-x="233" 
d="M205 685l-97 -685h-58l97 685h58zM292 802h-201l6 46h201z" />
    <glyph glyph-name="imacron" unicode="&#x12b;" horiz-adv-x="223" 
d="M176 523l-74 -523h-56l74 523h56zM270 676h-201l6 46h201z" />
    <glyph glyph-name="Ibreve" unicode="&#x12c;" horiz-adv-x="233" 
d="M205 685l-97 -685h-58l97 685h58zM112.5 793.5q-25.5 28.5 -24.5 72.5l35 6q8 -61 64 -61q29 0 50 17t33 46l36 -12q-12 -43 -44 -70t-77 -27q-47 0 -72.5 28.5z" />
    <glyph glyph-name="ibreve" unicode="&#x12d;" horiz-adv-x="223" 
d="M176 523l-74 -523h-56l74 523h56zM93.5 683.5q-26.5 30.5 -24.5 80.5l37 6q6 -70 61 -70q29 0 51.5 19t34.5 54l35 -12q-12 -50 -44.5 -79t-77.5 -29q-46 0 -72.5 30.5z" />
    <glyph glyph-name="Iogonek" unicode="&#x12e;" horiz-adv-x="233" 
d="M205 685l-97 -685h-9q-65 -32 -91.5 -61.5t-26.5 -67.5q0 -20 11.5 -31t32.5 -11t48 6l-10 -45q-26 -6 -47 -6q-38 0 -61 22.5t-23 60.5q0 44 27.5 78t91.5 64l96 676h58z" />
    <glyph glyph-name="iogonek" unicode="&#x12f;" horiz-adv-x="223" 
d="M202 741.5q10 -9.5 10 -25.5q0 -20 -12.5 -32.5t-30.5 -12.5q-17 0 -27 9.5t-10 25.5q0 20 13 32.5t31 12.5q16 0 26 -9.5zM120 523h56l-74 -523h-11q-65 -32 -91.5 -61.5t-26.5 -67.5q0 -20 11.5 -31t32.5 -11t48 6l-10 -45q-26 -6 -47 -6q-38 0 -61 22.5t-23 60.5
q0 44 29 79t95 65z" />
    <glyph glyph-name="Idotaccent" unicode="&#x130;" horiz-adv-x="233" 
d="M205 685l-97 -685h-58l97 685h58zM165 806.5q-10 9.5 -10 25.5q0 20 13 32.5t31 12.5q16 0 26 -9.5t10 -25.5q0 -20 -12.5 -32.5t-30.5 -12.5q-17 0 -27 9.5z" />
    <glyph glyph-name="dotlessi" unicode="&#x131;" horiz-adv-x="223" 
d="M176 523l-74 -523h-56l74 523h56z" />
    <glyph glyph-name="IJ" unicode="&#x132;" horiz-adv-x="479" 
d="M205 685l-97 -685h-58l97 685h58zM371 88q-8 -61 -27 -98t-49.5 -61t-83.5 -48l-15 41q43 23 65.5 44t34 50t18.5 78l84 591h58z" />
    <glyph glyph-name="ij" unicode="&#x133;" horiz-adv-x="447" 
d="M176 523l-74 -523h-56l74 523h56zM142 680.5q-10 9.5 -10 25.5q0 20 13 32.5t31 12.5q16 0 26 -9.5t10 -25.5q0 -20 -12.5 -32.5t-30.5 -12.5q-17 0 -27 9.5zM163 -161q35 18 55 36t33.5 50t21.5 88l72 510h56l-73 -515q-9 -65 -27.5 -103.5t-46 -61t-76.5 -46.5z
M367 680.5q-10 9.5 -10 25.5q0 20 13 32.5t31 12.5q16 0 26 -9.5t10 -25.5q0 -20 -12.5 -32.5t-30.5 -12.5q-17 0 -27 9.5z" />
    <glyph glyph-name="Jcircumflex" unicode="&#x134;" horiz-adv-x="246" 
d="M138 88q-8 -61 -27 -98t-49.5 -61t-83.5 -48l-15 41q43 23 65.5 44t34 50t18.5 78l84 591h58zM101 762l-24 28l122 103h35l92 -105l-26 -26l-88 80z" />
    <glyph glyph-name="jcircumflex" unicode="&#x135;" horiz-adv-x="224" 
d="M-60 -161q35 18 55 36t33.5 50t21.5 88l72 510h56l-73 -515q-9 -65 -27.5 -103.5t-46 -61t-76.5 -46.5zM69 645l-25 28l123 106h34l92 -108l-28 -26l-85 83z" />
    <glyph glyph-name="Kcommaaccent" unicode="&#x136;" horiz-adv-x="462" 
d="M50 0l97 685h58l-97 -685h-58zM354 0l-191 367l275 318h63l-275 -320l192 -365h-64zM230 -96q10 -11 10 -26q0 -14 -5 -26t-19 -38l-50 -92h-33l43 115q-17 14 -17 33t12.5 32t31.5 13q17 0 27 -11z" />
    <glyph glyph-name="kcommaaccent" unicode="&#x137;" horiz-adv-x="439" 
d="M159 398q34 66 73 101t88 35q47 0 74.5 -29.5t27.5 -75.5q0 -127 -150 -190l92 -239h-59l-95 254q79 25 117 67t38 104q0 30 -14 46.5t-42 16.5q-84 0 -164 -183l-43 -305h-56l104 736l57 7zM216 -96q10 -11 10 -26q0 -14 -5 -26t-19 -38l-50 -92h-33l43 115
q-17 14 -17 33t12.5 32t31.5 13q17 0 27 -11z" />
    <glyph glyph-name="kgreenlandic" unicode="&#x138;" horiz-adv-x="408" 
d="M176 523l-74 -523h-56l74 523h56zM418 523l-210 -248l153 -275h-62l-153 276l208 247h64z" />
    <glyph glyph-name="Lacute" unicode="&#x139;" horiz-adv-x="384" 
d="M205 685l-89 -632h233l-16 -53h-283l97 685h58zM264 882l25 -49l-175 -75l-16 32z" />
    <glyph glyph-name="lacute" unicode="&#x13a;" horiz-adv-x="234" 
d="M109 81q-1 -5 -1 -14q0 -29 26 -29q15 0 30 6l11 -41q-26 -14 -54 -14q-31 0 -50 19.5t-19 54.5q0 7 2 21l91 652l56 7zM261 933l25 -49l-175 -75l-16 32z" />
    <glyph glyph-name="Lcommaaccent" unicode="&#x13b;" horiz-adv-x="384" 
d="M205 685l-89 -632h233l-16 -53h-283l97 685h58zM207 -96q10 -11 10 -26q0 -14 -5 -26t-19 -38l-50 -92h-33l43 115q-17 14 -17 33t12.5 32t31.5 13q17 0 27 -11z" />
    <glyph glyph-name="lcommaaccent" unicode="&#x13c;" horiz-adv-x="234" 
d="M109 81q-1 -5 -1 -14q0 -29 26 -29q15 0 30 6l11 -41q-26 -14 -54 -14q-31 0 -50 19.5t-19 54.5q0 7 2 21l91 652l56 7zM128 -96q10 -11 10 -26q0 -14 -5 -26t-19 -38l-50 -92h-33l43 115q-17 14 -17 33t12.5 32t31.5 13q17 0 27 -11z" />
    <glyph glyph-name="Lcaron" unicode="&#x13d;" horiz-adv-x="384" 
d="M205 685l-89 -632h233l-16 -53h-283l97 685h58zM275 691l49 -7l-55 -162l-32 5z" />
    <glyph glyph-name="lcaron" unicode="&#x13e;" horiz-adv-x="234" 
d="M109 81q-1 -5 -1 -14q0 -29 26 -29q15 0 30 6l11 -41q-26 -14 -54 -14q-31 0 -50 19.5t-19 54.5q0 7 2 21l91 652l56 7zM262 742l49 -7l-55 -162l-32 5z" />
    <glyph glyph-name="Ldot" unicode="&#x13f;" horiz-adv-x="384" 
d="M205 685l-89 -632h233l-16 -53h-283l97 685h58zM287 338.5q-10 9.5 -10 25.5q0 20 13 32.5t31 12.5q16 0 26 -9.5t10 -25.5q0 -20 -12.5 -32.5t-30.5 -12.5q-17 0 -27 9.5z" />
    <glyph glyph-name="ldot" unicode="&#x140;" horiz-adv-x="253" 
d="M109 81q-1 -5 -1 -14q0 -29 26 -29q15 0 30 6l11 -41q-26 -14 -54 -14q-31 0 -50 19.5t-19 54.5q0 7 2 21l91 652l56 7zM217 345.5q-10 9.5 -10 25.5q0 20 13 32.5t31 12.5q16 0 26 -9.5t10 -25.5q0 -20 -12.5 -32.5t-30.5 -12.5q-17 0 -27 9.5z" />
    <glyph glyph-name="Lslash" unicode="&#x141;" horiz-adv-x="402" 
d="M133 53h233l-16 -53h-283l40 280l-55 -38l-20 36l82 56l50 351h58l-43 -308l155 105l20 -35l-183 -123z" />
    <glyph glyph-name="lslash" unicode="&#x142;" horiz-adv-x="242" 
d="M167 44l11 -41q-26 -14 -54 -14q-31 0 -50 19.5t-19 54.5q0 7 2 21l33 237l-40 -26l-18 36l65 43l51 362l56 7l-46 -329l85 56l18 -36l-110 -72l-39 -281q-1 -5 -1 -14q0 -29 26 -29q15 0 30 6z" />
    <glyph glyph-name="Nacute" unicode="&#x143;" horiz-adv-x="550" 
d="M425 0h-75l-167 632q-5 -93 -26 -248l-52 -384h-55l97 685h75l168 -631q4 92 21 215l57 416h54zM429 882l25 -49l-175 -75l-16 32z" />
    <glyph glyph-name="nacute" unicode="&#x144;" horiz-adv-x="477" 
d="M389.5 502q27.5 -32 27.5 -88q0 -16 -3 -36l-53 -378h-56l53 376q2 12 2 34q0 76 -56 76q-74 0 -157 -164l-45 -322h-56l74 523h48l-13 -120q36 63 74.5 97t85.5 34t74.5 -32zM373 780l25 -50l-175 -84l-17 31z" />
    <glyph glyph-name="Ncommaaccent" unicode="&#x145;" horiz-adv-x="550" 
d="M425 0h-75l-167 632q-5 -93 -26 -248l-52 -384h-55l97 685h75l168 -631q4 92 21 215l57 416h54zM253 -96q10 -11 10 -26q0 -14 -5 -26t-19 -38l-50 -92h-33l43 115q-17 14 -17 33t12.5 32t31.5 13q17 0 27 -11z" />
    <glyph glyph-name="ncommaaccent" unicode="&#x146;" horiz-adv-x="477" 
d="M389.5 502q27.5 -32 27.5 -88q0 -16 -3 -36l-53 -378h-56l53 376q2 12 2 34q0 76 -56 76q-74 0 -157 -164l-45 -322h-56l74 523h48l-13 -120q36 63 74.5 97t85.5 34t74.5 -32zM217 -96q10 -11 10 -26q0 -14 -5 -26t-19 -38l-50 -92h-33l43 115q-17 14 -17 33t12.5 32
t31.5 13q17 0 27 -11z" />
    <glyph glyph-name="Ncaron" unicode="&#x147;" horiz-adv-x="550" 
d="M425 0h-75l-167 632q-5 -93 -26 -248l-52 -384h-55l97 685h75l168 -631q4 92 21 215l57 416h54zM467 886l24 -27l-123 -103h-34l-92 105l25 25l89 -79z" />
    <glyph glyph-name="ncaron" unicode="&#x148;" horiz-adv-x="477" 
d="M389.5 502q27.5 -32 27.5 -88q0 -16 -3 -36l-53 -378h-56l53 376q2 12 2 34q0 76 -56 76q-74 0 -157 -164l-45 -322h-56l74 523h48l-13 -120q36 63 74.5 97t85.5 34t74.5 -32zM407 766l23 -27l-122 -106h-34l-93 106l27 27l86 -82z" />
    <glyph glyph-name="napostrophe" unicode="&#x149;" horiz-adv-x="551" 
d="M180.5 734q9.5 -11 9.5 -26q0 -13 -5 -26.5t-19 -39.5l-49 -94h-32l42 119q-17 12 -17 33q0 19 12 32t31 13q18 0 27.5 -11zM463.5 502q27.5 -32 27.5 -88q0 -16 -3 -36l-53 -378h-56l53 376q2 12 2 34q0 76 -56 76q-74 0 -157 -164l-45 -322h-56l74 523h48l-13 -120
q36 63 74.5 97t85.5 34t74.5 -32z" />
    <glyph glyph-name="Eng" unicode="&#x14a;" horiz-adv-x="550" 
d="M522 685l-97 -685l-12 -83q-9 -59 -42 -90.5t-81 -31.5q-28 0 -48 9.5t-37 25.5l27 35q16 -11 27 -16t29 -5q26 0 44.5 19t23.5 56l11 81h-17l-167 632q-5 -93 -26 -248l-52 -384h-55l97 685h75l168 -631q4 92 21 215l57 416h54z" />
    <glyph glyph-name="eng" unicode="&#x14b;" horiz-adv-x="477" 
d="M389.5 502q27.5 -32 27.5 -88q0 -16 -3 -36l-53 -378l-13 -85q-8 -59 -41 -89.5t-82 -30.5q-46 0 -83 35l28 34q15 -12 26.5 -17t28.5 -5q26 0 44 18t23 56l13 84l53 376q2 12 2 34q0 76 -56 76q-74 0 -157 -164l-45 -322h-56l74 523h48l-13 -120q36 63 74.5 97t85.5 34
t74.5 -32z" />
    <glyph glyph-name="Omacron" unicode="&#x14c;" horiz-adv-x="572" 
d="M490 632.5q49 -63.5 49 -180.5q0 -107 -31 -213.5t-98 -178t-169 -71.5q-87 0 -136 63.5t-49 180.5q0 104 31.5 211t98.5 179.5t168 72.5q87 0 136 -63.5zM216 579.5q-53 -67.5 -76.5 -163.5t-23.5 -185q0 -95 33.5 -143.5t94.5 -48.5q85 0 137.5 68t75 164t22.5 185
q0 96 -33 143.5t-95 47.5q-82 0 -135 -67.5zM470 802h-201l6 46h201z" />
    <glyph glyph-name="omacron" unicode="&#x14d;" horiz-adv-x="472" 
d="M83 39.5q-39 50.5 -39 140.5q0 80 24.5 161.5t77.5 137t132 55.5q72 0 111 -50.5t39 -139.5q0 -80 -24.5 -162t-77 -137.5t-132.5 -55.5q-72 0 -111 50.5zM297 87.5q39 50.5 56 122t17 138.5q0 69 -24 104t-70 35q-62 0 -101 -50.5t-56 -122.5t-17 -139q0 -138 94 -138
q62 0 101 50.5zM400 676h-201l6 46h201z" />
    <glyph glyph-name="Obreve" unicode="&#x14e;" horiz-adv-x="572" 
d="M490 632.5q49 -63.5 49 -180.5q0 -107 -31 -213.5t-98 -178t-169 -71.5q-87 0 -136 63.5t-49 180.5q0 104 31.5 211t98.5 179.5t168 72.5q87 0 136 -63.5zM216 579.5q-53 -67.5 -76.5 -163.5t-23.5 -185q0 -95 33.5 -143.5t94.5 -48.5q85 0 137.5 68t75 164t22.5 185
q0 96 -33 143.5t-95 47.5q-82 0 -135 -67.5zM290.5 793.5q-25.5 28.5 -24.5 72.5l35 6q8 -61 64 -61q29 0 50 17t33 46l36 -12q-12 -43 -44 -70t-77 -27q-47 0 -72.5 28.5z" />
    <glyph glyph-name="obreve" unicode="&#x14f;" horiz-adv-x="472" 
d="M83 39.5q-39 50.5 -39 140.5q0 80 24.5 161.5t77.5 137t132 55.5q72 0 111 -50.5t39 -139.5q0 -80 -24.5 -162t-77 -137.5t-132.5 -55.5q-72 0 -111 50.5zM297 87.5q39 50.5 56 122t17 138.5q0 69 -24 104t-70 35q-62 0 -101 -50.5t-56 -122.5t-17 -139q0 -138 94 -138
q62 0 101 50.5zM223.5 683.5q-26.5 30.5 -24.5 80.5l37 6q6 -70 61 -70q29 0 51.5 19t34.5 54l35 -12q-12 -50 -44.5 -79t-77.5 -29q-46 0 -72.5 30.5z" />
    <glyph glyph-name="Ohungarumlaut" unicode="&#x150;" horiz-adv-x="572" 
d="M490 632.5q49 -63.5 49 -180.5q0 -107 -31 -213.5t-98 -178t-169 -71.5q-87 0 -136 63.5t-49 180.5q0 104 31.5 211t98.5 179.5t168 72.5q87 0 136 -63.5zM216 579.5q-53 -67.5 -76.5 -163.5t-23.5 -185q0 -95 33.5 -143.5t94.5 -48.5q85 0 137.5 68t75 164t22.5 185
q0 96 -33 143.5t-95 47.5q-82 0 -135 -67.5zM480 936l43 -27l-98 -140l-32 17zM370 935l44 -26l-91 -136l-32 17z" />
    <glyph glyph-name="ohungarumlaut" unicode="&#x151;" horiz-adv-x="472" 
d="M83 39.5q-39 50.5 -39 140.5q0 80 24.5 161.5t77.5 137t132 55.5q72 0 111 -50.5t39 -139.5q0 -80 -24.5 -162t-77 -137.5t-132.5 -55.5q-72 0 -111 50.5zM297 87.5q39 50.5 56 122t17 138.5q0 69 -24 104t-70 35q-62 0 -101 -50.5t-56 -122.5t-17 -139q0 -138 94 -138
q62 0 101 50.5zM413 810l43 -27l-98 -140l-32 17zM303 809l44 -26l-91 -136l-32 17z" />
    <glyph glyph-name="OE" unicode="&#x152;" horiz-adv-x="713" 
d="M717 636h-253q55 -60 55 -184q0 -40 -4 -73h137l-7 -48h-136q-14 -88 -47 -162.5t-86 -119.5h273l-9 -49h-342q-30 -11 -64 -11q-82 0 -130 64t-48 180q0 103 30.5 210.5t94.5 180t159 72.5q31 0 58 -11h333zM365.5 107q49.5 68 71.5 164.5t22 184.5q0 96 -31 143.5
t-89 47.5q-77 0 -127 -67.5t-73 -164t-23 -184.5q0 -95 32.5 -143.5t88.5 -48.5q79 0 128.5 68z" />
    <glyph glyph-name="oe" unicode="&#x153;" horiz-adv-x="741" 
d="M639.5 268q-81.5 -48 -226.5 -62q-1 -9 -1 -27q0 -141 96 -141q33 0 61 12t61 38l25 -37q-38 -31 -74.5 -46.5t-77.5 -15.5q-111 0 -135 124q-61 -124 -174 -124q-72 0 -111 50.5t-39 140.5q0 80 24.5 161.5t77.5 137t132 55.5q57 0 91.5 -31.5t47.5 -90.5
q62 122 175 122q61 0 95 -33.5t34 -87.5q0 -97 -81.5 -145zM297 87.5q39 50.5 56 122t17 138.5q0 69 -24 104t-70 35q-62 0 -101 -50.5t-56 -122.5t-17 -139q0 -138 94 -138q62 0 101 50.5zM471 419.5q-43 -67.5 -55 -169.5q126 12 187 50.5t61 111.5q0 36 -18.5 55.5
t-57.5 19.5q-74 0 -117 -67.5z" />
    <glyph glyph-name="Racute" unicode="&#x154;" horiz-adv-x="486" 
d="M429.5 401q-37.5 -59 -113.5 -82l107 -319h-60l-102 308h-109l-44 -308h-58l97 685h138q92 0 137 -39.5t45 -113.5q0 -72 -37.5 -131zM242 356q88 0 126.5 51.5t38.5 122.5q0 55 -28.5 81t-93.5 26h-87l-40 -281h84zM387 882l25 -49l-175 -75l-16 32z" />
    <glyph glyph-name="racute" unicode="&#x155;" horiz-adv-x="308" 
d="M335 527l-17 -53q-20 6 -34 6q-45 0 -77.5 -45.5t-62.5 -135.5l-42 -299h-56l74 523h49l-14 -117q27 63 60 95.5t80 32.5q17 0 40 -7zM317 780l25 -50l-175 -84l-17 31z" />
    <glyph glyph-name="Rcommaaccent" unicode="&#x156;" horiz-adv-x="486" 
d="M429.5 401q-37.5 -59 -113.5 -82l107 -319h-60l-102 308h-109l-44 -308h-58l97 685h138q92 0 137 -39.5t45 -113.5q0 -72 -37.5 -131zM242 356q88 0 126.5 51.5t38.5 122.5q0 55 -28.5 81t-93.5 26h-87l-40 -281h84zM248 -96q10 -11 10 -26q0 -14 -5 -26t-19 -38l-50 -92
h-33l43 115q-17 14 -17 33t12.5 32t31.5 13q17 0 27 -11z" />
    <glyph glyph-name="rcommaaccent" unicode="&#x157;" horiz-adv-x="308" 
d="M335 527l-17 -53q-20 6 -34 6q-45 0 -77.5 -45.5t-62.5 -135.5l-42 -299h-56l74 523h49l-14 -117q27 63 60 95.5t80 32.5q17 0 40 -7zM86 -96q10 -11 10 -26q0 -14 -5 -26t-19 -38l-50 -92h-33l43 115q-17 14 -17 33t12.5 32t31.5 13q17 0 27 -11z" />
    <glyph glyph-name="Rcaron" unicode="&#x158;" horiz-adv-x="486" 
d="M429.5 401q-37.5 -59 -113.5 -82l107 -319h-60l-102 308h-109l-44 -308h-58l97 685h138q92 0 137 -39.5t45 -113.5q0 -72 -37.5 -131zM242 356q88 0 126.5 51.5t38.5 122.5q0 55 -28.5 81t-93.5 26h-87l-40 -281h84zM425 886l24 -27l-123 -103h-34l-92 105l25 25l89 -79z
" />
    <glyph glyph-name="rcaron" unicode="&#x159;" horiz-adv-x="308" 
d="M335 527l-17 -53q-20 6 -34 6q-45 0 -77.5 -45.5t-62.5 -135.5l-42 -299h-56l74 523h49l-14 -117q27 63 60 95.5t80 32.5q17 0 40 -7zM351 766l23 -27l-122 -106h-34l-93 106l27 27l86 -82z" />
    <glyph glyph-name="Sacute" unicode="&#x15a;" horiz-adv-x="444" 
d="M374.5 676q37.5 -20 69.5 -57l-36 -33q-28 32 -56.5 46.5t-65.5 14.5q-58 0 -96 -40.5t-38 -99.5q0 -42 22 -67t81 -52q71 -33 103 -71.5t32 -103.5q0 -57 -26.5 -108.5t-77 -83.5t-118.5 -32q-56 0 -97.5 22.5t-75.5 65.5l37 31q29 -34 60.5 -51.5t76.5 -17.5
q49 0 85.5 23.5t56 62.5t19.5 86q0 49 -23 77.5t-84 57.5q-72 34 -100.5 68t-28.5 90q0 48 24 92.5t68.5 72t101.5 27.5q49 0 86.5 -20zM376 882l25 -49l-175 -75l-16 32z" />
    <glyph glyph-name="sacute" unicode="&#x15b;" horiz-adv-x="384" 
d="M364 475l-30 -33q-25 23 -50 33.5t-56 10.5q-45 0 -73 -25.5t-28 -69.5q0 -32 19.5 -52.5t68.5 -40.5q58 -25 84 -58t26 -84q0 -76 -49.5 -121.5t-127.5 -45.5q-92 0 -153 70l34 33q25 -27 53.5 -41t67.5 -14q54 0 85.5 31.5t31.5 84.5q0 36 -19.5 59t-71.5 46
q-57 24 -81.5 54t-24.5 77q0 40 20.5 73t56.5 52.5t81 19.5q79 0 136 -59zM324 780l25 -50l-175 -84l-17 31z" />
    <glyph glyph-name="Scircumflex" unicode="&#x15c;" horiz-adv-x="444" 
d="M374.5 676q37.5 -20 69.5 -57l-36 -33q-28 32 -56.5 46.5t-65.5 14.5q-58 0 -96 -40.5t-38 -99.5q0 -42 22 -67t81 -52q71 -33 103 -71.5t32 -103.5q0 -57 -26.5 -108.5t-77 -83.5t-118.5 -32q-56 0 -97.5 22.5t-75.5 65.5l37 31q29 -34 60.5 -51.5t76.5 -17.5
q49 0 85.5 23.5t56 62.5t19.5 86q0 49 -23 77.5t-84 57.5q-72 34 -100.5 68t-28.5 90q0 48 24 92.5t68.5 72t101.5 27.5q49 0 86.5 -20zM196 762l-24 28l122 103h35l92 -105l-26 -26l-88 80z" />
    <glyph glyph-name="scircumflex" unicode="&#x15d;" horiz-adv-x="384" 
d="M364 475l-30 -33q-25 23 -50 33.5t-56 10.5q-45 0 -73 -25.5t-28 -69.5q0 -32 19.5 -52.5t68.5 -40.5q58 -25 84 -58t26 -84q0 -76 -49.5 -121.5t-127.5 -45.5q-92 0 -153 70l34 33q25 -27 53.5 -41t67.5 -14q54 0 85.5 31.5t31.5 84.5q0 36 -19.5 59t-71.5 46
q-57 24 -81.5 54t-24.5 77q0 40 20.5 73t56.5 52.5t81 19.5q79 0 136 -59zM147 645l-25 28l123 106h34l92 -108l-28 -26l-85 83z" />
    <glyph glyph-name="Scedilla" unicode="&#x15e;" horiz-adv-x="444" 
d="M374.5 676q37.5 -20 69.5 -57l-36 -33q-28 32 -56.5 46.5t-65.5 14.5q-58 0 -96 -40.5t-38 -99.5q0 -42 22 -67t81 -52q71 -33 103 -71.5t32 -103.5q0 -52 -22.5 -100t-65 -81t-100.5 -41l-9 -57q68 -7 68 -70q0 -39 -27 -64.5t-73 -25.5q-43 0 -67 22l20 32
q24 -14 47 -14t37.5 12.5t14.5 35.5t-14.5 32.5t-52.5 9.5l18 85q-55 1 -95.5 23.5t-73.5 64.5l37 31q29 -34 60.5 -51.5t76.5 -17.5q49 0 85.5 23.5t56 62.5t19.5 86q0 49 -23 77.5t-84 57.5q-72 34 -100.5 68t-28.5 90q0 48 24 92.5t68.5 72t101.5 27.5q49 0 86.5 -20z
" />
    <glyph glyph-name="scedilla" unicode="&#x15f;" horiz-adv-x="384" 
d="M155 460.5q-28 -25.5 -28 -69.5q0 -32 19.5 -52.5t68.5 -40.5q58 -25 84 -58t26 -84q0 -70 -43 -114.5t-112 -51.5l-9 -56q68 -7 68 -70q0 -39 -27 -64.5t-73 -25.5q-43 0 -67 22l20 32q24 -14 47 -14t37.5 12.5t14.5 35.5t-14.5 32.5t-52.5 9.5l18 86q-80 5 -137 69
l34 33q25 -27 53.5 -41t67.5 -14q54 0 85.5 31.5t31.5 84.5q0 36 -19.5 59t-71.5 46q-57 24 -81.5 54t-24.5 77q0 40 20.5 73t56.5 52.5t81 19.5q79 0 136 -59l-30 -33q-25 23 -50 33.5t-56 10.5q-45 0 -73 -25.5z" />
    <glyph glyph-name="Scaron" unicode="&#x160;" horiz-adv-x="444" 
d="M374.5 676q37.5 -20 69.5 -57l-36 -33q-28 32 -56.5 46.5t-65.5 14.5q-58 0 -96 -40.5t-38 -99.5q0 -42 22 -67t81 -52q71 -33 103 -71.5t32 -103.5q0 -57 -26.5 -108.5t-77 -83.5t-118.5 -32q-56 0 -97.5 22.5t-75.5 65.5l37 31q29 -34 60.5 -51.5t76.5 -17.5
q49 0 85.5 23.5t56 62.5t19.5 86q0 49 -23 77.5t-84 57.5q-72 34 -100.5 68t-28.5 90q0 48 24 92.5t68.5 72t101.5 27.5q49 0 86.5 -20zM414 886l24 -27l-123 -103h-34l-92 105l25 25l89 -79z" />
    <glyph glyph-name="scaron" unicode="&#x161;" horiz-adv-x="384" 
d="M364 475l-30 -33q-25 23 -50 33.5t-56 10.5q-45 0 -73 -25.5t-28 -69.5q0 -32 19.5 -52.5t68.5 -40.5q58 -25 84 -58t26 -84q0 -76 -49.5 -121.5t-127.5 -45.5q-92 0 -153 70l34 33q25 -27 53.5 -41t67.5 -14q54 0 85.5 31.5t31.5 84.5q0 36 -19.5 59t-71.5 46
q-57 24 -81.5 54t-24.5 77q0 40 20.5 73t56.5 52.5t81 19.5q79 0 136 -59zM358 766l23 -27l-122 -106h-34l-93 106l27 27l86 -82z" />
    <glyph glyph-name="uni0162" unicode="&#x162;" horiz-adv-x="409" 
d="M461 685l-15 -52h-160l-89 -633l-10 -65q67 -6 67 -66q0 -40 -27.5 -67.5t-72.5 -27.5q-42 0 -67 22l21 34q20 -16 45 -16q22 0 37.5 14t15.5 38q0 20 -15 29t-51 9l21 96h-22l89 633h-164l7 52h390z" />
    <glyph glyph-name="uni0163" unicode="&#x163;" horiz-adv-x="287" 
d="M121 112q-1 -7 -1 -20q0 -55 48 -55q30 0 68 22l19 -38q-41 -28 -83 -31l-9 -56q68 -7 68 -70q0 -39 -27 -64.5t-73 -25.5q-43 0 -67 22l20 32q24 -14 47 -14t37.5 12.5t14.5 35.5t-14.5 32.5t-52.5 9.5l19 87q-33 8 -52 33t-19 64q0 8 2 26l51 363h-72l7 46h73l27 127
l46 5l-19 -132h109l-14 -46h-101z" />
    <glyph glyph-name="Tcaron" unicode="&#x164;" horiz-adv-x="409" 
d="M461 685l-15 -52h-160l-89 -633h-58l89 633h-164l7 52h390zM390 886l24 -27l-123 -103h-34l-92 105l25 25l89 -79z" />
    <glyph glyph-name="tcaron" unicode="&#x165;" horiz-adv-x="287" 
d="M121 112q-1 -7 -1 -20q0 -55 48 -55q30 0 68 22l19 -38q-48 -32 -96 -32q-44 0 -69.5 26.5t-25.5 73.5q0 7 2 25l51 363h-72l7 46h73l27 127l46 5l-19 -132h109l-14 -46h-101zM277 745l49 -7l-55 -162l-32 5z" />
    <glyph glyph-name="Tbar" unicode="&#x166;" horiz-adv-x="409" 
d="M446 633h-160l-35 -248h99l-7 -46h-98l-48 -339h-58l48 339h-100l7 46h99l35 248h-164l7 52h390z" />
    <glyph glyph-name="tbar" unicode="&#x167;" horiz-adv-x="287" 
d="M173 477l-18 -128h100l-14 -45h-93l-27 -192q-1 -7 -1 -20q0 -55 48 -55q30 0 68 22l19 -38q-48 -32 -96 -32q-44 0 -69.5 26.5t-25.5 73.5q0 7 2 25l27 190h-67l8 45h65l18 128h-72l7 46h73l27 127l46 5l-19 -132h109l-14 -46h-101z" />
    <glyph glyph-name="Utilde" unicode="&#x168;" horiz-adv-x="530" 
d="M440 176q-11 -80 -67 -133.5t-145 -53.5q-81 0 -122.5 45t-41.5 114q0 21 2 32l71 505h58l-71 -506q-2 -20 -2 -30q0 -50 27.5 -79.5t82.5 -29.5q65 0 104 40.5t47 102.5l70 502h58zM365 799.5q-12 6.5 -29 18.5q-12 10 -20.5 15t-18.5 5q-14 0 -24.5 -9t-26.5 -31
l-29 20q38 65 81 65q15 0 27 -6.5t29 -18.5q12 -10 20.5 -15t18.5 -5q12 0 23.5 10t26.5 32l31 -18q-37 -69 -82 -69q-15 0 -27 6.5z" />
    <glyph glyph-name="utilde" unicode="&#x169;" horiz-adv-x="473" 
d="M87.5 20q-27.5 31 -27.5 86q0 21 2 32l54 385h56l-54 -388q-2 -11 -2 -31q0 -34 14 -51t40 -17q82 0 154 157l47 330h55l-74 -523h-46l13 121q-32 -62 -69 -97t-88 -35q-47 0 -74.5 31zM317 673.5q-12 6.5 -29 18.5q-12 10 -20.5 15t-18.5 5q-14 0 -24.5 -9t-26.5 -31
l-29 20q38 65 81 65q15 0 27 -6.5t29 -18.5q12 -10 20.5 -15t18.5 -5q12 0 23.5 10t26.5 32l31 -18q-37 -69 -82 -69q-15 0 -27 6.5z" />
    <glyph glyph-name="Umacron" unicode="&#x16a;" horiz-adv-x="530" 
d="M440 176q-11 -80 -67 -133.5t-145 -53.5q-81 0 -122.5 45t-41.5 114q0 21 2 32l71 505h58l-71 -506q-2 -20 -2 -30q0 -50 27.5 -79.5t82.5 -29.5q65 0 104 40.5t47 102.5l70 502h58zM440 802h-201l6 46h201z" />
    <glyph glyph-name="umacron" unicode="&#x16b;" horiz-adv-x="473" 
d="M87.5 20q-27.5 31 -27.5 86q0 21 2 32l54 385h56l-54 -388q-2 -11 -2 -31q0 -34 14 -51t40 -17q82 0 154 157l47 330h55l-74 -523h-46l13 121q-32 -62 -69 -97t-88 -35q-47 0 -74.5 31zM393 676h-201l6 46h201z" />
    <glyph glyph-name="Ubreve" unicode="&#x16c;" horiz-adv-x="530" 
d="M440 176q-11 -80 -67 -133.5t-145 -53.5q-81 0 -122.5 45t-41.5 114q0 21 2 32l71 505h58l-71 -506q-2 -20 -2 -30q0 -50 27.5 -79.5t82.5 -29.5q65 0 104 40.5t47 102.5l70 502h58zM260.5 793.5q-25.5 28.5 -24.5 72.5l35 6q8 -61 64 -61q29 0 50 17t33 46l36 -12
q-12 -43 -44 -70t-77 -27q-47 0 -72.5 28.5z" />
    <glyph glyph-name="ubreve" unicode="&#x16d;" horiz-adv-x="473" 
d="M87.5 20q-27.5 31 -27.5 86q0 21 2 32l54 385h56l-54 -388q-2 -11 -2 -31q0 -34 14 -51t40 -17q82 0 154 157l47 330h55l-74 -523h-46l13 121q-32 -62 -69 -97t-88 -35q-47 0 -74.5 31zM216.5 683.5q-26.5 30.5 -24.5 80.5l37 6q6 -70 61 -70q29 0 51.5 19t34.5 54
l35 -12q-12 -50 -44.5 -79t-77.5 -29q-46 0 -72.5 30.5z" />
    <glyph glyph-name="Uring" unicode="&#x16e;" horiz-adv-x="530" 
d="M440 176q-11 -80 -67 -133.5t-145 -53.5q-81 0 -122.5 45t-41.5 114q0 21 2 32l71 505h58l-71 -506q-2 -20 -2 -30q0 -50 27.5 -79.5t82.5 -29.5q65 0 104 40.5t47 102.5l70 502h58zM412.5 922.5q20.5 -22.5 20.5 -58.5q0 -46 -27.5 -75t-67.5 -29q-34 0 -54.5 22.5
t-20.5 58.5q0 46 27.5 75t67.5 29q34 0 54.5 -22.5zM317 891.5q-14 -19.5 -14 -50.5q0 -22 9.5 -34.5t27.5 -12.5q25 0 39 19.5t14 50.5q0 23 -9.5 35t-27.5 12q-25 0 -39 -19.5z" />
    <glyph glyph-name="uring" unicode="&#x16f;" horiz-adv-x="473" 
d="M87.5 20q-27.5 31 -27.5 86q0 21 2 32l54 385h56l-54 -388q-2 -11 -2 -31q0 -34 14 -51t40 -17q82 0 154 157l47 330h55l-74 -523h-46l13 121q-32 -62 -69 -97t-88 -35q-47 0 -74.5 31zM362.5 796.5q20.5 -22.5 20.5 -58.5q0 -46 -27.5 -75t-67.5 -29q-34 0 -54.5 22.5
t-20.5 58.5q0 46 27.5 75t67.5 29q34 0 54.5 -22.5zM267 765.5q-14 -19.5 -14 -50.5q0 -22 9.5 -34.5t27.5 -12.5q25 0 39 19.5t14 50.5q0 23 -9.5 35t-27.5 12q-25 0 -39 -19.5z" />
    <glyph glyph-name="Uhungarumlaut" unicode="&#x170;" horiz-adv-x="530" 
d="M440 176q-11 -80 -67 -133.5t-145 -53.5q-81 0 -122.5 45t-41.5 114q0 21 2 32l71 505h58l-71 -506q-2 -20 -2 -30q0 -50 27.5 -79.5t82.5 -29.5q65 0 104 40.5t47 102.5l70 502h58zM450 936l43 -27l-98 -140l-32 17zM340 935l44 -26l-91 -136l-32 17z" />
    <glyph glyph-name="uhungarumlaut" unicode="&#x171;" horiz-adv-x="473" 
d="M87.5 20q-27.5 31 -27.5 86q0 21 2 32l54 385h56l-54 -388q-2 -11 -2 -31q0 -34 14 -51t40 -17q82 0 154 157l47 330h55l-74 -523h-46l13 121q-32 -62 -69 -97t-88 -35q-47 0 -74.5 31zM406 810l43 -27l-98 -140l-32 17zM296 809l44 -26l-91 -136l-32 17z" />
    <glyph glyph-name="Uogonek" unicode="&#x172;" horiz-adv-x="530" 
d="M511 685l-71 -509q-9 -63 -46.5 -111.5t-98.5 -66.5q-56 -30 -78.5 -56.5t-22.5 -62.5q0 -23 12.5 -36t37.5 -13q18 0 47 6l-7 -46q-30 -7 -49 -7q-43 0 -67 24.5t-24 62.5q0 74 85 119h-1q-81 0 -122.5 45t-41.5 114q0 21 2 32l71 505h58l-71 -506q-2 -20 -2 -30
q0 -50 27.5 -79.5t82.5 -29.5q65 0 104 40.5t47 102.5l70 502h58z" />
    <glyph glyph-name="uogonek" unicode="&#x173;" horiz-adv-x="473" 
d="M260.5 -61.5q-26.5 -29.5 -26.5 -67.5q0 -20 11.5 -31t32.5 -11t48 6l-10 -45q-25 -6 -47 -6q-38 0 -61 22.5t-23 60.5q0 44 28.5 78.5t93.5 64.5l12 111q-32 -62 -69 -97t-88 -35q-47 0 -74.5 31t-27.5 86q0 21 2 32l54 385h56l-54 -388q-2 -11 -2 -31q0 -34 14 -51
t40 -17q82 0 154 157l47 330h55l-74 -523q-65 -32 -91.5 -61.5z" />
    <glyph glyph-name="Wcircumflex" unicode="&#x174;" horiz-adv-x="672" 
d="M704 685l-216 -685h-73l-29 620l-203 -620h-73l-23 685h54l15 -629l206 629h66l30 -630l191 630h55zM303 762l-24 28l122 103h35l92 -105l-26 -26l-88 80z" />
    <glyph glyph-name="wcircumflex" unicode="&#x175;" horiz-adv-x="587" 
d="M598 523l-176 -523h-72l-26 470l-157 -470h-73l-32 523h55l21 -479l162 479h65l26 -479l153 479h54zM250 645l-25 28l123 106h34l92 -108l-28 -26l-85 83z" />
    <glyph glyph-name="Ycircumflex" unicode="&#x176;" horiz-adv-x="432" 
d="M483 685l-237 -418l-38 -267h-58l38 267l-119 418h59l95 -365l196 365h64zM181 762l-24 28l122 103h35l92 -105l-26 -26l-88 80z" />
    <glyph glyph-name="ycircumflex" unicode="&#x177;" horiz-adv-x="395" 
d="M199 -4q-28 -68 -55.5 -106.5t-63 -59.5t-92.5 -34l-2 42q45 13 72.5 31t47 47.5t41.5 83.5h-23l-72 523h59l57 -480l190 480h59zM150 645l-25 28l123 106h34l92 -108l-28 -26l-85 83z" />
    <glyph glyph-name="Ydieresis" unicode="&#x178;" horiz-adv-x="432" 
d="M483 685l-237 -418l-38 -267h-58l38 267l-119 418h59l95 -365l196 365h64zM185 799.5q-9 9.5 -9 23.5q0 18 12 30.5t29 12.5q15 0 24 -9.5t9 -23.5q0 -19 -12 -31t-29 -12q-15 0 -24 9.5zM344 799.5q-9 9.5 -9 23.5q0 19 11.5 31t28.5 12q15 0 24 -9.5t9 -23.5
q0 -19 -11.5 -31t-28.5 -12q-15 0 -24 9.5z" />
    <glyph glyph-name="Zacute" unicode="&#x179;" horiz-adv-x="421" 
d="M-11 0l8 49l378 585h-268l8 51h330l-8 -48l-378 -586l294 1l-16 -52h-348zM363 882l25 -49l-175 -75l-16 32z" />
    <glyph glyph-name="zacute" unicode="&#x17a;" horiz-adv-x="348" 
d="M357 523l-6 -44l-295 -430h234l-13 -49h-293l7 44l295 430h-216l8 49h279zM314 780l25 -50l-175 -84l-17 31z" />
    <glyph glyph-name="Zdotaccent" unicode="&#x17b;" horiz-adv-x="421" 
d="M-11 0l8 49l378 585h-268l8 51h330l-8 -48l-378 -586l294 1l-16 -52h-348zM264 806.5q-10 9.5 -10 25.5q0 20 13 32.5t31 12.5q16 0 26 -9.5t10 -25.5q0 -20 -12.5 -32.5t-30.5 -12.5q-17 0 -27 9.5z" />
    <glyph glyph-name="zdotaccent" unicode="&#x17c;" horiz-adv-x="348" 
d="M357 523l-6 -44l-295 -430h234l-13 -49h-293l7 44l295 430h-216l8 49h279zM212 680.5q-10 9.5 -10 25.5q0 20 13 32.5t31 12.5q16 0 26 -9.5t10 -25.5q0 -20 -12.5 -32.5t-30.5 -12.5q-17 0 -27 9.5z" />
    <glyph glyph-name="Zcaron" unicode="&#x17d;" horiz-adv-x="421" 
d="M-11 0l8 49l378 585h-268l8 51h330l-8 -48l-378 -586l294 1l-16 -52h-348zM401 886l24 -27l-123 -103h-34l-92 105l25 25l89 -79z" />
    <glyph glyph-name="zcaron" unicode="&#x17e;" horiz-adv-x="348" 
d="M357 523l-6 -44l-295 -430h234l-13 -49h-293l7 44l295 430h-216l8 49h279zM348 766l23 -27l-122 -106h-34l-93 106l27 27l86 -82z" />
    <glyph glyph-name="longs" unicode="&#x17f;" horiz-adv-x="262" 
d="M383 708l-23 -37q-21 13 -38.5 19t-37.5 6q-36 0 -57 -21.5t-28 -68.5l-85 -606h-56l67 477h-73l7 46h73l12 88q8 62 44.5 97t93.5 35q52 0 101 -35z" />
    <glyph glyph-name="uni0180" unicode="&#x180;" horiz-adv-x="483" 
d="M406.5 489q33.5 -45 33.5 -129q0 -88 -24 -173t-78 -141.5t-139 -56.5q-37 0 -70.5 8t-73.5 26l84 595h-60l7 45h60l10 73l56 7l-11 -80h138l-14 -45h-130l-23 -162q34 38 68 58t73 20q60 0 93.5 -45zM302 486q-68 0 -138 -88l-48 -343q46 -19 87 -19q64 0 104.5 51.5
t58 127t17.5 150.5q0 121 -81 121z" />
    <glyph glyph-name="uni0181" unicode="&#x181;" horiz-adv-x="560" 
d="M505 227q0 -58 -23.5 -109t-77.5 -84.5t-141 -33.5h-157l90 637h-21q-34 0 -51 -20.5t-17 -54.5t14 -66l-44 -18q-21 37 -21 85q0 54 31.5 88t88.5 34h184q83 0 129 -38t46 -108q0 -71 -38.5 -116.5t-105.5 -60.5q114 -22 114 -135zM254 637l-36 -253h106q74 0 113 42.5
t39 110.5q0 52 -29.5 76t-86.5 24h-106zM406 101q39 52 39 125q0 58 -30 84t-90 26h-113l-41 -287h100q96 0 135 52z" />
    <glyph glyph-name="uni0182" unicode="&#x182;" horiz-adv-x="470" 
d="M383 373.5q48 -43.5 48 -127.5q0 -63 -23.5 -118.5t-76 -91.5t-135.5 -36h-146l97 685h290l-16 -50h-223l-31 -218h80q88 0 136 -43.5zM332 108.5q38 59.5 38 136.5q0 64 -31 94t-91 30h-88l-45 -320h91q88 0 126 59.5z" />
    <glyph glyph-name="uni0183" unicode="&#x183;" horiz-adv-x="478" 
d="M401.5 489q33.5 -45 33.5 -129q0 -88 -24 -173t-78 -141.5t-139 -56.5q-37 0 -70.5 8t-73.5 26l101 713h247l-15 -46h-183l-33 -234q34 38 68 58t73 20q60 0 93.5 -45zM297 486q-68 0 -138 -88l-48 -343q46 -19 87 -19q64 0 104.5 51.5t58 127t17.5 150.5q0 121 -81 121z
" />
    <glyph glyph-name="uni0184" unicode="&#x184;" horiz-adv-x="468" 
d="M389 378q48 -44 48 -129q0 -64 -23.5 -120.5t-76 -92.5t-135.5 -36h-146l77 550l-39 35q42 41 67 100h50l-37 -263h79q88 0 136 -44zM338 109q38 60 38 138q0 66 -31 96.5t-91 30.5h-87l-46 -325h91q88 0 126 60z" />
    <glyph glyph-name="uni0185" unicode="&#x185;" horiz-adv-x="413" 
d="M335 306.5q40 -39.5 40 -107.5q0 -53 -20.5 -101t-64 -78.5t-109.5 -30.5q-63 0 -132 27l54 382l-39 35q39 38 66 90h47l-25 -177h62q81 0 121 -39.5zM285 84q32 48 32 114q0 49 -24.5 75.5t-81.5 26.5h-65l-36 -252q41 -12 72 -12q71 0 103 48z" />
    <glyph glyph-name="uni0186" unicode="&#x186;" horiz-adv-x="465" 
d="M385.5 634q45.5 -62 45.5 -179q0 -124 -36 -230.5t-102.5 -171t-155.5 -64.5q-50 0 -85.5 19.5t-62.5 52.5l35 34q28 -27 52 -40.5t62 -13.5q73 0 126 59.5t80.5 155t27.5 200.5q0 97 -31.5 143.5t-86.5 46.5q-37 0 -68 -12t-66 -38l-25 38q37 31 76 46.5t87 15.5
q82 0 127.5 -62z" />
    <glyph glyph-name="uni0187" unicode="&#x187;" horiz-adv-x="448" 
d="M652 789l-26 -34q-15 11 -27.5 16.5t-30.5 5.5q-26 0 -43 -18.5t-22 -55.5l-9 -71l-32 -31q-28 24 -52 34.5t-56 10.5q-81 0 -134.5 -64t-78.5 -159t-25 -190q0 -96 34 -144t93 -48q39 0 69 14t63 41l26 -39q-75 -68 -163 -68q-83 0 -132 64t-49 182q0 109 32 215
t98.5 176t164.5 70q52 0 92 -28l6 45q8 52 38.5 81.5t77.5 29.5q49 0 86 -35z" />
    <glyph glyph-name="uni0188" unicode="&#x188;" horiz-adv-x="386" 
d="M565 708l-26 -34q-16 11 -28.5 16.5t-29.5 5.5q-26 0 -43 -19t-23 -58l-19 -139l-28 -29q-22 17 -43 26t-47 9q-60 0 -100 -48t-58 -119t-18 -142q0 -70 25 -104t70 -34q28 0 52 10.5t52 30.5l24 -37q-63 -54 -132 -54q-70 0 -109.5 50t-39.5 140q0 83 25 165t77 136
t129 54q43 0 72 -20l15 108q8 59 39 90t79 31t85 -35z" />
    <glyph glyph-name="uni0189" unicode="&#x189;" horiz-adv-x="541" 
d="M446 632q61 -53 61 -177q0 -122 -33 -225t-106 -166.5t-186 -63.5h-127l47 330h-72l7 46h71l44 309h133q100 0 161 -53zM341 108.5q57 59.5 82 151.5t25 195q0 101 -43 141t-118 40h-84l-37 -260h140l-7 -46h-139l-40 -281h73q91 0 148 59.5z" />
    <glyph glyph-name="uni018A" unicode="&#x18a;" horiz-adv-x="592" 
d="M497 632q61 -53 61 -177q0 -122 -33 -225t-106 -166.5t-186 -63.5h-127l90 637h-21q-34 0 -51 -20.5t-17 -54.5t14 -66l-44 -18q-21 37 -21 85q0 54 31.5 88t88.5 34h160q100 0 161 -53zM392 108.5q57 59.5 82 151.5t25 195q0 101 -43 141t-118 40h-84l-83 -587h73
q91 0 148 59.5z" />
    <glyph glyph-name="uni018B" unicode="&#x18b;" horiz-adv-x="470" 
d="M346 0h-124q-95 0 -145.5 44.5t-50.5 135.5q0 112 63.5 175t171.5 63h86l31 217h-231l7 50h288zM295 49l45 320h-84q-82 0 -126 -49.5t-44 -139.5q0 -67 33.5 -99t105.5 -32h70z" />
    <glyph glyph-name="uni018C" unicode="&#x18c;" horiz-adv-x="479" 
d="M358 0h-48l9 101q-63 -112 -148 -112q-60 0 -94 48.5t-34 133.5q0 83 24.5 167t74 140t120.5 56q74 0 107 -67l31 223h-188l6 46h244zM360 410q-14 37 -36 57t-58 20q-53 0 -91 -49t-56.5 -122.5t-18.5 -144.5q0 -65 21 -100t60 -35q42 0 76.5 37t71.5 108z" />
    <glyph glyph-name="uni018D" unicode="&#x18d;" horiz-adv-x="469" 
d="M19 -148l33 32q23 -23 46.5 -33.5t54.5 -10.5q51 0 76.5 25t25.5 65q0 30 -18 51t-65 46q-66 34 -95 78.5t-29 113.5q0 68 23 141t74.5 123.5t130.5 50.5q70 0 109.5 -50.5t39.5 -136.5q0 -111 -41 -185t-142 -121q36 -25 52.5 -50t16.5 -58q0 -59 -41.5 -99t-116.5 -40
q-82 0 -134 58zM306 138.5q35 42.5 48 93t13 117.5q0 64 -24 100.5t-70 36.5q-60 0 -97.5 -44t-53.5 -105.5t-16 -117.5q0 -58 21.5 -93t78.5 -65q65 35 100 77.5z" />
    <glyph glyph-name="uni018E" unicode="&#x18e;" horiz-adv-x="418" 
d="M99 685h291l-96 -685h-296l7 49h237l41 282h-197l7 48h196l36 257h-233z" />
    <glyph glyph-name="uni018F" unicode="&#x18f;" horiz-adv-x="534" 
d="M456.5 641.5q45.5 -54.5 45.5 -165.5q0 -123 -32 -234.5t-97 -182t-160 -70.5q-82 0 -126 58t-44 167q0 78 19 160h375q6 59 6 101q0 91 -30 131t-89 40q-43 0 -81.5 -17t-79.5 -51l-27 37q48 42 94 61.5t99 19.5q82 0 127.5 -54.5zM429 324l-321 -1q-11 -54 -11 -108
q0 -177 116 -177q160 0 216 286z" />
    <glyph glyph-name="uni0190" unicode="&#x190;" horiz-adv-x="433" 
d="M395 674.5q38 -21.5 69 -63.5l-37 -32q-27 33 -56.5 50t-68.5 17q-60 0 -96.5 -43t-36.5 -109q0 -49 28.5 -75.5t79.5 -26.5h43l-15 -50h-38q-81 1 -126.5 -47.5t-45.5 -133.5q0 -58 28.5 -89.5t78.5 -31.5q43 0 80.5 19t73.5 55l32 -34q-87 -91 -190 -91q-74 0 -119 46
t-45 124q0 89 47.5 146t124.5 65q-46 11 -70.5 42t-24.5 81q0 58 25.5 104.5t69.5 72.5t98 26q53 0 91 -21.5z" />
    <glyph glyph-name="uni0191" unicode="&#x191;" horiz-adv-x="391" 
d="M198 636l-38 -269h191l-7 -48h-190l-46 -319l-12 -83q-9 -59 -42 -90.5t-81 -31.5q-28 0 -48 9.5t-37 25.5l27 35q16 -11 27 -16t29 -5q26 0 44.5 19t23.5 56l11 81l97 685h285l-15 -49h-219z" />
    <glyph glyph-name="florin" unicode="&#x192;" horiz-adv-x="261" 
d="M198 606l-11 -83h112l-14 -46h-105l-64 -469q-9 -65 -27.5 -103.5t-46 -61t-76.5 -46.5l-15 42q35 18 55 36t33.5 50t21.5 88l64 464h-74l8 46h72l12 88q9 62 45.5 97t93.5 35q52 0 100 -35l-22 -37q-21 13 -39 19t-38 6q-72 0 -85 -90z" />
    <glyph glyph-name="uni0193" unicode="&#x193;" horiz-adv-x="467" 
d="M671 789l-26 -34q-14 11 -26.5 16.5t-30.5 5.5q-26 0 -43.5 -19.5t-23.5 -61.5l-9 -69l-34 -30q-30 26 -57 37.5t-63 11.5q-79 0 -133 -60t-81 -156t-27 -204q0 -187 132 -187q60 0 124 36l33 245h-104l1 49h168l-45 -323q-43 -28 -90 -42.5t-91 -14.5q-90 0 -139 61.5
t-49 180.5q0 120 34.5 226.5t102.5 172.5t164 66q61 0 104 -32l6 42q9 56 39.5 87t78.5 31t85 -35z" />
    <glyph glyph-name="uni0194" unicode="&#x194;" 
d="M234 59q15 -56 21.5 -88t6.5 -63q0 -52 -26 -82.5t-69 -30.5q-35 0 -53.5 20.5t-18.5 56.5t17.5 78.5t57.5 111.5l-93 623h59l72 -581l234 581h61zM207.5 -44q-3.5 24 -11.5 65q-51 -95 -51 -145q0 -34 25 -34q19 0 30 17t11 48q0 25 -3.5 49z" />
    <glyph glyph-name="uni0195" unicode="&#x195;" horiz-adv-x="727" 
d="M355.5 24.5q-32.5 35.5 -32.5 91.5q0 8 2 26l33 234q2 13 2 35q0 75 -57 75q-40 0 -80 -45.5t-76 -118.5l-45 -322h-56l104 736l57 7l-47 -335q33 59 70.5 92.5t84.5 33.5t74.5 -32t27.5 -88q0 -16 -3 -36l-33 -236q-2 -18 -2 -24q0 -39 19 -60t55 -21q95 0 130 120.5
t35 280.5q0 50 -4 85h53q5 -47 5 -84q0 -195 -50 -322.5t-173 -127.5q-61 0 -93.5 35.5z" />
    <glyph glyph-name="uni0196" unicode="&#x196;" horiz-adv-x="275" 
d="M238 22q-39 -33 -89 -33q-44 0 -69 25.5t-25 72.5q0 8 2 26l11 81l69 491h58l-69 -491l-12 -86q-2 -14 -2 -20q0 -50 43 -50q19 0 32.5 5t29.5 16z" />
    <glyph glyph-name="uni0197" unicode="&#x197;" horiz-adv-x="257" 
d="M256 383l-6 -47h-79l-48 -336h-58l48 336h-84l7 47h83l43 302h58l-43 -302h79z" />
    <glyph glyph-name="uni0198" unicode="&#x198;" horiz-adv-x="489" 
d="M163 367l189 256q30 40 54 56.5t57 16.5q25 0 42 -9.5t33 -27.5l-31 -31q-13 10 -21.5 14.5t-22.5 4.5q-18 0 -32 -11t-40 -46l-165 -224l192 -366h-64zM50 0l97 685h58l-97 -685h-58z" />
    <glyph glyph-name="uni0199" unicode="&#x199;" horiz-adv-x="440" 
d="M273 239l91 -239h-59l-94 254q79 25 116.5 67t37.5 104q0 30 -14 46.5t-42 16.5q-84 0 -164 -183l-42 -305h-56l73 522l13 94q9 61 45 94t93 33q54 0 101 -30l-23 -39q-36 21 -76 21q-73 0 -85 -89l-12 -84l-17 -125q34 67 73.5 102t87.5 35t75 -29.5t27 -75.5
q0 -128 -149 -190z" />
    <glyph glyph-name="uni019A" unicode="&#x19a;" horiz-adv-x="241" 
d="M124 81q-1 -5 -1 -14q0 -29 26 -29q15 0 30 6l11 -41q-26 -14 -54 -14q-31 0 -50 19.5t-19 54.5q0 7 2 21l37 266h-83l7 46h83l47 340l56 7l-48 -347h82l-6 -46h-83z" />
    <glyph glyph-name="uni019B" unicode="&#x19b;" horiz-adv-x="386" 
d="M296.5 252q11.5 -89 26.5 -138.5t41 -102.5l-53 -19q-25 55 -40 106t-25 137t-12 222l-190 -466l-54 14l219 510l23 -4q-3 72 -15 109l-65 -70l-35 20l81 88q-24 32 -72 45l12 41q65 -20 94 -55l67 72l26 -30l-71 -77q24 -55 27 -165q4 -148 15.5 -237z" />
    <glyph glyph-name="uni019C" unicode="&#x19c;" horiz-adv-x="756" 
d="M728 685l-96 -685h-50l7 86q-32 -46 -69.5 -71.5t-78.5 -25.5q-47 0 -75.5 27.5t-35.5 76.5q-33 -49 -73 -76.5t-83 -27.5q-55 0 -84.5 36t-29.5 97q0 20 3 39l74 524h58l-74 -530q-3 -18 -3 -33q0 -40 17.5 -61.5t50.5 -21.5q41 0 75 29.5t69 85.5q0 8 1 12l73 519h58
l-74 -525q-3 -18 -3 -35q0 -42 17.5 -64t50.5 -22q40 0 74.5 29.5t67.5 84.5l76 532h57z" />
    <glyph glyph-name="uni019D" unicode="&#x19d;" horiz-adv-x="550" 
d="M522 685l-97 -685h-75l-167 632q-5 -93 -26 -248l-52 -384l-13 -86q-9 -57 -41.5 -88t-78.5 -31t-83 35l26 34q15 -11 27 -16t29 -5q26 0 44.5 19t23.5 57l11 81l97 685h75l168 -631q4 92 21 215l57 416h54z" />
    <glyph glyph-name="uni019E" unicode="&#x19e;" horiz-adv-x="477" 
d="M389.5 502q27.5 -32 27.5 -88q0 -16 -3 -36l-82 -577l-57 -7l83 582q3 20 3 35q0 75 -58 75q-73 0 -156 -164l-45 -322h-56l74 523h48l-13 -120q36 63 74 97t85 34q48 0 75.5 -32z" />
    <glyph glyph-name="uni019F" unicode="&#x19f;" horiz-adv-x="572" 
d="M490 632.5q49 -63.5 49 -180.5q0 -107 -31 -213.5t-98 -178t-169 -71.5q-87 0 -136 63.5t-49 180.5q0 104 31 211t98 179.5t169 72.5q87 0 136 -63.5zM206.5 568.5q-54.5 -78.5 -77.5 -195.5h346q5 38 5 83q0 191 -129 191q-90 0 -144.5 -78.5zM394 122q55 83 75 205
h-348q-6 -51 -6 -96q0 -96 33.5 -144t95.5 -48q95 0 150 83z" />
    <glyph glyph-name="Ohorn" unicode="&#x1a0;" horiz-adv-x="572" 
d="M512 597q27 -60 27 -145q0 -107 -31 -213.5t-98 -178t-169 -71.5q-87 0 -136 63.5t-49 180.5q0 104 31.5 211t98.5 179.5t168 72.5q89 0 138 -66q33 6 47 25.5t14 56.5q0 23 -6 47l42 9q8 -24 8 -57q0 -96 -85 -114zM381.5 107q52.5 68 75 164t22.5 185q0 96 -33 143.5
t-95 47.5q-82 0 -135 -67.5t-76.5 -163.5t-23.5 -185q0 -95 33.5 -143.5t94.5 -48.5q85 0 137.5 68z" />
    <glyph glyph-name="ohorn" unicode="&#x1a1;" horiz-adv-x="487" 
d="M483.5 467q-22.5 -28 -67.5 -37q12 -37 12 -86q0 -80 -24.5 -162t-77 -137.5t-132.5 -55.5q-72 0 -111 50.5t-39 140.5q0 80 24.5 161.5t77.5 137t132 55.5q42 0 73.5 -18t49.5 -52q34 7 47 26t13 56q0 27 -5 47l42 9q8 -24 8 -57q0 -50 -22.5 -78zM297 87.5
q39 50.5 56 122t17 138.5q0 69 -24 104t-70 35q-62 0 -101 -50.5t-56 -122.5t-17 -139q0 -138 94 -138q62 0 101 50.5z" />
    <glyph glyph-name="uni01A2" unicode="&#x1a2;" horiz-adv-x="747" 
d="M678 668.5q27 -28.5 27 -75.5q0 -8 -2 -24l-108 -766h-57l107 766q2 16 2 22q0 58 -58 58q-44 0 -90 -31q40 -62 40 -166q0 -107 -31 -213.5t-98 -178t-169 -71.5q-87 0 -136 63.5t-49 180.5q0 104 31.5 211t98.5 179.5t168 72.5q73 0 119 -45q65 46 125 46
q53 0 80 -28.5zM381.5 107q52.5 68 75 164t22.5 185q0 96 -33 143.5t-95 47.5q-82 0 -135 -67.5t-76.5 -163.5t-23.5 -185q0 -95 33.5 -143.5t94.5 -48.5q85 0 137.5 68z" />
    <glyph glyph-name="uni01A3" unicode="&#x1a3;" horiz-adv-x="627" 
d="M544 506.5q26 -27.5 26 -74.5q0 -9 -2 -27l-85 -604l-57 -7l86 613q2 16 2 22q0 58 -55 58q-32 0 -67 -15q30 -49 30 -128q0 -80 -24 -162t-76 -137.5t-131 -55.5q-70 0 -108.5 51t-38.5 140q0 80 24.5 161.5t76.5 137t130 55.5q53 0 88 -29q53 29 104 29t77 -27.5z
M292 87.5q39 50.5 56 122t17 138.5q0 68 -23.5 103.5t-68.5 35.5q-60 0 -98.5 -50.5t-55.5 -122.5t-17 -139q0 -69 23 -103.5t68 -34.5q60 0 99 50.5z" />
    <glyph glyph-name="uni01A4" unicode="&#x1a4;" horiz-adv-x="520" 
d="M477.5 642q48.5 -43 48.5 -125q0 -64 -24.5 -120.5t-80.5 -92.5t-146 -36h-73l-38 -268h-58l90 637h-21q-34 0 -51 -20.5t-17 -54.5t14 -66l-44 -18q-21 37 -21 85q0 54 31.5 88t88.5 34h163q90 0 138.5 -43zM424.5 374.5q41.5 58.5 41.5 142.5q0 63 -33 91.5t-100 28.5
h-79l-45 -321h71q103 0 144.5 58.5z" />
    <glyph glyph-name="uni01A5" unicode="&#x1a5;" horiz-adv-x="475" 
d="M399 488.5q34 -45.5 34 -128.5q0 -88 -24 -173t-77.5 -141.5t-136.5 -56.5q-47 0 -91 21l-30 -209l-56 -7l102 728h1l13 94q9 61 45 94t93 33q54 0 101 -30l-23 -39q-36 21 -76 21q-73 0 -85 -89l-12 -84l-9 -68q32 40 64.5 60t72.5 20q60 0 94 -45.5zM298.5 86.5
q40.5 50.5 58.5 125t19 149.5q0 125 -81 125q-67 0 -137 -88l-48 -342q43 -20 86 -20q62 0 102.5 50.5z" />
    <glyph glyph-name="uni01A6" unicode="&#x1a6;" horiz-adv-x="484" 
d="M410.5 274q-37.5 -59 -113.5 -82l107 -319h-60l-103 308h-107l-26 -181h-58l97 685h58l-18 -127h79q92 0 137 -39.5t45 -113.5q0 -72 -37.5 -131zM223 229q88 0 126.5 51t38.5 123q0 55 -28.5 81t-93.5 26h-86l-40 -281h83z" />
    <glyph glyph-name="uni01A7" unicode="&#x1a7;" horiz-adv-x="430" 
d="M410.5 659q37.5 -37 37.5 -100q0 -58 -22.5 -98t-64 -67t-109.5 -53q-88 -34 -124.5 -76t-36.5 -118q0 -52 27 -80t75 -28q44 0 82.5 18.5t75.5 51.5l30 -36q-43 -41 -90 -62.5t-102 -21.5q-71 0 -114.5 43t-43.5 114q0 93 50 149t151 93q56 22 89 42t50.5 50.5
t17.5 77.5q0 43 -22.5 65.5t-64.5 22.5q-40 0 -73.5 -14t-71.5 -46l-28 36q44 38 85.5 56t92.5 18q66 0 103.5 -37z" />
    <glyph glyph-name="uni01A8" unicode="&#x1a8;" horiz-adv-x="388" 
d="M329.5 501.5q34.5 -32.5 34.5 -83.5q0 -55 -30.5 -94.5t-119.5 -69.5q-57 -19 -86 -40t-38 -43.5t-9 -53.5q0 -39 22.5 -59t59.5 -20q69 0 139 55l26 -37q-79 -67 -169 -67q-60 0 -98.5 34t-38.5 92q0 61 36 104t131 75q51 17 76 35.5t33 38.5t8 48q0 33 -19.5 52
t-51.5 19q-30 0 -58 -12t-59 -36l-24 36q71 59 145 59q56 0 90.5 -32.5z" />
    <glyph glyph-name="uni01A9" unicode="&#x1a9;" horiz-adv-x="415" 
d="M433 685l-7 -50h-267l134 -283l-4 -33l-206 -269h261l-6 -50h-334l6 42l230 299l-146 302l6 42h333z" />
    <glyph glyph-name="uni01AA" unicode="&#x1aa;" horiz-adv-x="253" 
d="M249 -172q-36 -33 -89 -33q-45 0 -70.5 26t-25.5 73q0 8 2 26l11 80h-1l72 514q-22 -13 -50 -13q-36 0 -59.5 26.5t-23.5 71.5q0 64 33.5 104t84.5 40q40 0 64 -25t24 -70q0 -8 -2 -26l-87 -622h1l-11 -86q-1 -7 -1 -20q0 -52 47 -52q16 0 29 5.5t29 15.5zM155 559l10 73
q1 7 1 19q0 46 -36 46q-28 0 -44.5 -28.5t-16.5 -72.5q0 -49 39 -49q26 0 47 12z" />
    <glyph glyph-name="uni01AB" unicode="&#x1ab;" horiz-adv-x="287" 
d="M121 112q-1 -7 -1 -20q0 -55 48 -55q31 0 69 18l18 -34l-16 -108q-8 -59 -41 -88.5t-81 -29.5q-47 0 -84 35l28 33q15 -11 26.5 -16.5t29.5 -5.5q60 0 70 75l12 80q-24 -7 -42 -7q-42 0 -67.5 26.5t-25.5 73.5q0 7 2 25l51 363h-72l7 46h73l27 127l45 5l-18 -132h109
l-14 -46h-102z" />
    <glyph glyph-name="uni01AC" unicode="&#x1ac;" horiz-adv-x="436" 
d="M473 633h-160l-90 -633h-57l89 633h-80q-34 0 -51 -19.5t-17 -51.5q0 -34 14 -66l-44 -18q-21 37 -21 85q0 54 32 88t91 34h308z" />
    <glyph glyph-name="uni01AD" unicode="&#x1ad;" horiz-adv-x="287" 
d="M192 612l-13 -89h109l-14 -46h-101l-52 -365q-1 -7 -1 -20q0 -55 48 -55q30 0 68 22l19 -38q-48 -32 -96 -32q-44 0 -69.5 26.5t-25.5 73.5q0 7 2 25l51 363h-72l7 46h71l13 91q9 64 42.5 96.5t83.5 32.5q49 0 89 -34l-26 -34q-16 10 -29.5 15.5t-30.5 5.5q-60 0 -73 -84
z" />
    <glyph glyph-name="uni01AE" unicode="&#x1ae;" horiz-adv-x="409" 
d="M185 -86q-2 -14 -2 -20q0 -50 43 -50q19 0 32.5 5t29.5 16l21 -37q-39 -33 -89 -33q-44 0 -69 25.5t-25 72.5q0 8 2 26l11 81l89 633h-164l7 52h390l-15 -52h-160l-89 -633z" />
    <glyph glyph-name="Uhorn" unicode="&#x1af;" horiz-adv-x="530" 
d="M573.5 629.5q-24.5 -28.5 -75.5 -35.5l-58 -418q-11 -80 -67 -133.5t-145 -53.5q-81 0 -122.5 45t-41.5 114q0 21 2 32l71 505h58l-71 -506q-2 -20 -2 -30q0 -50 27.5 -79.5t82.5 -29.5q65 0 104 40.5t47 102.5l70 502h58l-7 -52q27 7 38.5 26t11.5 53q0 23 -6 47l42 9
q8 -24 8 -57q0 -53 -24.5 -81.5z" />
    <glyph glyph-name="uhorn" unicode="&#x1b0;" horiz-adv-x="494" 
d="M488.5 464.5q-24.5 -28.5 -75.5 -36.5l-61 -428h-46l13 121q-32 -62 -69 -97t-88 -35q-47 0 -74.5 31t-27.5 86q0 21 2 32l54 385h56l-54 -388q-2 -11 -2 -31q0 -34 14 -51t40 -17q82 0 154 157l47 330h55l-8 -56q28 7 39 25.5t11 53.5q0 27 -5 47l42 9q8 -24 8 -57
q0 -52 -24.5 -80.5z" />
    <glyph glyph-name="uni01B1" unicode="&#x1b1;" horiz-adv-x="587" 
d="M113 52.5q-49 62.5 -49 179.5q0 130 40 240t137 164h-103l7 49h167l-7 -50q-101 -45 -141.5 -161t-40.5 -242q0 -96 33.5 -145t95.5 -49q82 0 135 66t76.5 160.5t23.5 184.5q0 72 -21.5 115.5t-68.5 71.5l7 49h167l-8 -49h-105q47 -32 67.5 -76.5t20.5 -111.5
q0 -103 -31 -208.5t-98 -177.5t-168 -72q-87 0 -136 62.5z" />
    <glyph glyph-name="uni01B2" unicode="&#x1b2;" horiz-adv-x="524" 
d="M481 675q19 -21 19 -59q0 -13 -1 -20l-46 -329q-18 -134 -84 -206t-159 -72q-68 0 -107.5 42t-39.5 110q0 22 2 33l72 511h58l-71 -511q-2 -11 -2 -32q0 -49 24 -75.5t68 -26.5q70 0 118.5 59.5t63.5 175.5l45 326q1 5 1 14q0 33 -28 33q-14 0 -34 -9l-11 40q29 17 58 17
q35 0 54 -21z" />
    <glyph glyph-name="uni01B3" unicode="&#x1b3;" horiz-adv-x="446" 
d="M188 267l-119 418h60l94 -364l146 290q23 46 47.5 65.5t59.5 19.5q47 0 81 -40l-29 -30q-13 12 -24.5 17.5t-25.5 5.5q-19 0 -32 -11.5t-29 -41.5l-171 -328l-38 -268h-58z" />
    <glyph glyph-name="uni01B4" unicode="&#x1b4;" horiz-adv-x="388" 
d="M-14 -162q45 13 72 31t47 47.5t42 83.5h-23l-72 523h59l57 -480l166 456q12 37 32.5 54.5t52.5 17.5q25 0 51 -15l-19 -40q-14 8 -28 8q-15 0 -24.5 -8.5t-16.5 -28.5l-183 -490q-25 -67 -52.5 -106.5t-64.5 -60.5t-94 -34z" />
    <glyph glyph-name="uni01B5" unicode="&#x1b5;" horiz-adv-x="421" 
d="M445 685l-8 -48l-174 -269h84l-7 -47h-107l-174 -270l294 1l-16 -52h-348l8 49l176 272h-87l7 47h110l172 266h-268l8 51h330z" />
    <glyph glyph-name="uni01B6" unicode="&#x1b6;" horiz-adv-x="348" 
d="M357 523l-6 -44l-132 -190h71l-7 -46h-96l-134 -194h237l-13 -49h-293l7 44l137 199h-76l7 46h101l128 185h-218l8 49h279z" />
    <glyph glyph-name="uni01B7" unicode="&#x1b7;" horiz-adv-x="404" 
d="M399 637l-218 -251h8q87 0 130 -41.5t43 -116.5q0 -69 -28 -123.5t-77.5 -85t-110.5 -30.5q-56 0 -95 22t-67 66l39 30q25 -36 53.5 -52t70.5 -16q70 0 112.5 52t42.5 135q0 59 -30 86t-88 27h-72l7 46l212 251h-249l7 49h317z" />
    <glyph glyph-name="uni01B8" unicode="&#x1b8;" horiz-adv-x="404" 
d="M425 636h-255l148 -251l-6 -46h-69q-76 0 -118.5 -48t-42.5 -131q0 -57 27.5 -89t79.5 -32q44 0 77.5 16.5t70.5 51.5l31 -33q-38 -42 -81.5 -63.5t-99.5 -21.5q-75 0 -119.5 46.5t-44.5 124.5q0 68 27 119t76 79t112 28h26l-155 251l7 48h317z" />
    <glyph glyph-name="uni01B9" unicode="&#x1b9;" horiz-adv-x="384" 
d="M384 475h-248l138 -276l-6 -44l-2 2l1 -2h-53q-80 0 -123.5 -49.5t-43.5 -137.5q0 -59 26.5 -92t77.5 -33q40 0 73 16.5t67 51.5l31 -31q-37 -43 -79 -64t-94 -21q-76 0 -118.5 47t-42.5 126q0 70 28 122.5t79 81t118 28.5h8l-143 279l7 44h306z" />
    <glyph glyph-name="uni01BA" unicode="&#x1ba;" horiz-adv-x="371" 
d="M-26 -96q0 52 36.5 79t120.5 47q52 12 82 25.5t46 37t16 62.5q0 37 -18 53.5t-56 16.5h-117l6 45l192 205h-231l6 48h304l-6 -44l-200 -209h52q62 0 94 -29.5t32 -83.5q0 -74 -45.5 -113t-135.5 -59q-71 -16 -97 -33.5t-26 -48.5q0 -21 12 -36.5t37 -33.5l-22 -38
q-82 46 -82 109z" />
    <glyph glyph-name="uni01BB" unicode="&#x1bb;" horiz-adv-x="396" 
d="M351 425.5q-18 -47.5 -68 -115.5h86l-7 -47h-116q-66 -82 -186 -214l257 1l-16 -50h-311l8 49q125 140 185 214h-108l7 47h138q56 74 73.5 118t17.5 95t-23 78.5t-64 27.5q-36 0 -66.5 -19t-62.5 -57l-34 31q40 48 80 70t86 22q67 0 104.5 -41.5t37.5 -108.5
q0 -53 -18 -100.5z" />
    <glyph glyph-name="uni01BC" unicode="&#x1bc;" horiz-adv-x="414" 
d="M59.5 10.5q-35.5 21.5 -60.5 62.5l38 31q22 -35 48.5 -51t64.5 -16q57 0 94.5 36t54 89.5t16.5 107.5q0 58 -23.5 86.5t-66.5 28.5q-51 0 -107 -32h-44l46 332h288l-15 -47h-226l-33 -240q52 33 106 33q63 0 97.5 -42t34.5 -118q0 -67 -23.5 -131.5t-74 -107.5
t-128.5 -43q-51 0 -86.5 21.5z" />
    <glyph glyph-name="uni01BD" unicode="&#x1bd;" horiz-adv-x="357" 
d="M320 475h-178l-23 -163q36 23 79 23q51 0 80.5 -35.5t29.5 -97.5q0 -60 -23.5 -108.5t-64.5 -76.5t-92 -28q-44 0 -74 17t-55 50l37 30q21 -25 41.5 -36t52.5 -11q52 0 86 45.5t34 116.5q0 43 -18.5 65t-50.5 22q-23 0 -41.5 -6t-40.5 -20h-40l37 261h240z" />
    <glyph glyph-name="uni01BE" unicode="&#x1be;" horiz-adv-x="408" 
d="M353 246q0 -71 -26.5 -129t-73.5 -91t-106 -33q-49 0 -85.5 20.5t-66.5 61.5l35 28q27 -31 53.5 -47t62.5 -16q45 0 78.5 27t52 74t18.5 105q0 60 -25 90.5t-69 44.5l-53 16l23 161h-51l7 46h50l19 132l56 7l-19 -139h102l-7 -46h-102l-18 -132l25 -8q120 -37 120 -172z
" />
    <glyph glyph-name="uni01BF" unicode="&#x1bf;" horiz-adv-x="475" 
d="M405.5 495.5q33.5 -38.5 33.5 -107.5q0 -85 -35 -150t-92 -113t-140 -95l-71 -40l-27 -189l-56 -7l102 729h49l-6 -72q34 40 71 61.5t81 21.5q57 0 90.5 -38.5zM324.5 211.5q54.5 71.5 54.5 175.5q0 49 -19.5 74t-56.5 25q-40 0 -75 -23.5t-70 -66.5l-50 -354l60 36
q102 62 156.5 133.5z" />
    <glyph glyph-name="uni01C0" unicode="&#x1c0;" horiz-adv-x="227" 
d="M207 743l-105 -743h-52l105 736z" />
    <glyph glyph-name="uni01C1" unicode="&#x1c1;" horiz-adv-x="378" 
d="M207 743l-105 -743h-52l105 736zM358 743l-105 -743h-52l105 736z" />
    <glyph glyph-name="uni01C2" unicode="&#x1c2;" horiz-adv-x="258" 
d="M262 419h-86l-15 -107h85l-6 -42h-85l-38 -270h-52l39 270h-84l6 42h84l15 107h-84l6 42h84l39 275l52 7l-40 -282h86z" />
    <glyph glyph-name="uni01C3" unicode="&#x1c3;" horiz-adv-x="264" 
d="M226 743l-77 -543h-52l77 536zM66 0.5q-11 11.5 -11 29.5q0 21 13.5 36t34.5 15q19 0 30.5 -12t11.5 -29q0 -21 -13.5 -36t-35.5 -15q-19 0 -30 11.5z" />
    <glyph glyph-name="uni01C4" unicode="&#x1c4;" horiz-adv-x="932" 
d="M441 632q61 -53 61 -177q0 -122 -33 -225t-106 -166.5t-186 -63.5h-127l97 685h133q100 0 161 -53zM198 636l-83 -587h73q91 0 148 59.5t82 151.5t25 195q0 101 -43 141t-118 40h-84zM500 0l8 49l378 585h-268l8 51h330l-8 -48l-378 -586l294 1l-16 -52h-348zM912 886
l24 -27l-123 -103h-34l-92 105l25 25l89 -79z" />
    <glyph glyph-name="uni01C5" unicode="&#x1c5;" horiz-adv-x="874" 
d="M441 632q61 -53 61 -177q0 -122 -33 -225t-106 -166.5t-186 -63.5h-127l97 685h133q100 0 161 -53zM198 636l-83 -587h73q91 0 148 59.5t82 151.5t25 195q0 101 -43 141t-118 40h-84zM883 523l-6 -44l-295 -430h234l-13 -49h-293l7 44l295 430h-216l8 49h279zM874 766
l23 -27l-122 -106h-34l-93 106l27 27l86 -82z" />
    <glyph glyph-name="uni01C6" unicode="&#x1c6;" horiz-adv-x="827" 
d="M462 736l-104 -736h-48l9 101q-63 -112 -148 -112q-60 0 -94 48.5t-34 133.5q0 83 24.5 167t74 140t120.5 56q74 0 107 -67l38 276zM175 438q-38 -49 -56.5 -122.5t-18.5 -144.5q0 -65 21 -100t60 -35q42 0 76.5 37t71.5 108l31 229q-14 37 -36 57t-58 20q-53 0 -91 -49z
M836 523l-6 -44l-295 -430h234l-13 -49h-293l7 44l295 430h-216l8 49h279zM827 766l23 -27l-122 -106h-34l-93 106l27 27l86 -82z" />
    <glyph glyph-name="uni01C7" unicode="&#x1c7;" horiz-adv-x="613" 
d="M205 685l-89 -632h233l-16 -53h-283l97 685h58zM505 88q-8 -61 -27 -98t-49.5 -61t-83.5 -48l-15 41q43 23 65.5 44t34 50t18.5 78l84 591h58z" />
    <glyph glyph-name="uni01C8" unicode="&#x1c8;" horiz-adv-x="593" 
d="M205 685l-89 -632h233l-16 -53h-283l97 685h58zM309 -161q35 18 55 36t33.5 50t21.5 88l72 510h56l-73 -515q-9 -65 -27.5 -103.5t-46 -61t-76.5 -46.5zM513 680.5q-10 9.5 -10 25.5q0 20 13 32.5t31 12.5q16 0 26 -9.5t10 -25.5q0 -20 -12.5 -32.5t-30.5 -12.5
q-17 0 -27 9.5z" />
    <glyph glyph-name="uni01C9" unicode="&#x1c9;" horiz-adv-x="458" 
d="M109 81q-1 -5 -1 -14q0 -29 26 -29q15 0 30 6l11 -41q-26 -14 -54 -14q-31 0 -50 19.5t-19 54.5q0 7 2 21l91 652l56 7zM174 -161q35 18 55 36t33.5 50t21.5 88l72 510h56l-73 -515q-9 -65 -27.5 -103.5t-46 -61t-76.5 -46.5zM378 680.5q-10 9.5 -10 25.5q0 20 13 32.5
t31 12.5q16 0 26 -9.5t10 -25.5q0 -20 -12.5 -32.5t-30.5 -12.5q-17 0 -27 9.5z" />
    <glyph glyph-name="uni01CA" unicode="&#x1ca;" horiz-adv-x="796" 
d="M425 0h-75l-167 632q-5 -93 -26 -248l-52 -384h-55l97 685h75l168 -631q4 92 21 215l57 416h54zM688 88q-8 -61 -27 -98t-49.5 -61t-83.5 -48l-15 41q43 23 65.5 44t34 50t18.5 78l84 591h58z" />
    <glyph glyph-name="uni01CB" unicode="&#x1cb;" horiz-adv-x="774" 
d="M425 0h-75l-167 632q-5 -93 -26 -248l-52 -384h-55l97 685h75l168 -631q4 92 21 215l57 416h54zM490 -161q35 18 55 36t33.5 50t21.5 88l72 510h56l-73 -515q-9 -65 -27.5 -103.5t-46 -61t-76.5 -46.5zM694 680.5q-10 9.5 -10 25.5q0 20 13 32.5t31 12.5q16 0 26 -9.5
t10 -25.5q0 -20 -12.5 -32.5t-30.5 -12.5q-17 0 -27 9.5z" />
    <glyph glyph-name="uni01CC" unicode="&#x1cc;" horiz-adv-x="701" 
d="M389.5 502q27.5 -32 27.5 -88q0 -16 -3 -36l-53 -378h-56l53 376q2 12 2 34q0 76 -56 76q-74 0 -157 -164l-45 -322h-56l74 523h48l-13 -120q36 63 74.5 97t85.5 34t74.5 -32zM417 -161q35 18 55 36t33.5 50t21.5 88l72 510h56l-73 -515q-9 -65 -27.5 -103.5t-46 -61
t-76.5 -46.5zM621 680.5q-10 9.5 -10 25.5q0 20 13 32.5t31 12.5q16 0 26 -9.5t10 -25.5q0 -20 -12.5 -32.5t-30.5 -12.5q-17 0 -27 9.5z" />
    <glyph glyph-name="uni01CD" unicode="&#x1cd;" horiz-adv-x="476" 
d="M361 0l-21 188h-226l-74 -188h-60l280 685h74l88 -685h-61zM133 237h202l-45 400zM423 886l24 -27l-123 -103h-34l-92 105l25 25l89 -79z" />
    <glyph glyph-name="uni01CE" unicode="&#x1ce;" horiz-adv-x="472" 
d="M423 496l-55 -382q-4 -24 -4 -43q0 -16 5 -25.5t18 -16.5l-18 -40q-29 9 -43 29t-13 59q-29 -42 -62 -65t-75 -23q-62 0 -97.5 48t-35.5 133q0 87 26 170.5t81.5 138.5t139.5 55q67 0 133 -38zM182.5 440q-42.5 -48 -62.5 -121t-20 -149q0 -66 22 -100t63 -34q37 0 69 27
t62 77l47 331q-38 17 -75 17q-63 0 -105.5 -48zM422 766l23 -27l-122 -106h-34l-93 106l27 27l86 -82z" />
    <glyph glyph-name="uni01CF" unicode="&#x1cf;" horiz-adv-x="233" 
d="M205 685l-97 -685h-58l97 685h58zM302 886l24 -27l-123 -103h-34l-92 105l25 25l89 -79z" />
    <glyph glyph-name="uni01D0" unicode="&#x1d0;" horiz-adv-x="223" 
d="M176 523l-74 -523h-56l74 523h56zM278 766l23 -27l-122 -106h-34l-93 106l27 27l86 -82z" />
    <glyph glyph-name="uni01D1" unicode="&#x1d1;" horiz-adv-x="572" 
d="M490 632.5q49 -63.5 49 -180.5q0 -107 -31 -213.5t-98 -178t-169 -71.5q-87 0 -136 63.5t-49 180.5q0 104 31.5 211t98.5 179.5t168 72.5q87 0 136 -63.5zM216 579.5q-53 -67.5 -76.5 -163.5t-23.5 -185q0 -95 33.5 -143.5t94.5 -48.5q85 0 137.5 68t75 164t22.5 185
q0 96 -33 143.5t-95 47.5q-82 0 -135 -67.5zM480 886l24 -27l-123 -103h-34l-92 105l25 25l89 -79z" />
    <glyph glyph-name="uni01D2" unicode="&#x1d2;" horiz-adv-x="472" 
d="M83 39.5q-39 50.5 -39 140.5q0 80 24.5 161.5t77.5 137t132 55.5q72 0 111 -50.5t39 -139.5q0 -80 -24.5 -162t-77 -137.5t-132.5 -55.5q-72 0 -111 50.5zM297 87.5q39 50.5 56 122t17 138.5q0 69 -24 104t-70 35q-62 0 -101 -50.5t-56 -122.5t-17 -139q0 -138 94 -138
q62 0 101 50.5zM408 766l23 -27l-122 -106h-34l-93 106l27 27l86 -82z" />
    <glyph glyph-name="uni01D3" unicode="&#x1d3;" horiz-adv-x="530" 
d="M440 176q-11 -80 -67 -133.5t-145 -53.5q-81 0 -122.5 45t-41.5 114q0 21 2 32l71 505h58l-71 -506q-2 -20 -2 -30q0 -50 27.5 -79.5t82.5 -29.5q65 0 104 40.5t47 102.5l70 502h58zM450 886l24 -27l-123 -103h-34l-92 105l25 25l89 -79z" />
    <glyph glyph-name="uni01D4" unicode="&#x1d4;" horiz-adv-x="473" 
d="M87.5 20q-27.5 31 -27.5 86q0 21 2 32l54 385h56l-54 -388q-2 -11 -2 -31q0 -34 14 -51t40 -17q82 0 154 157l47 330h55l-74 -523h-46l13 121q-32 -62 -69 -97t-88 -35q-47 0 -74.5 31zM401 766l23 -27l-122 -106h-34l-93 106l27 27l86 -82z" />
    <glyph glyph-name="uni01D5" unicode="&#x1d5;" horiz-adv-x="530" 
d="M440 176q-11 -80 -67 -133.5t-145 -53.5q-81 0 -122.5 45t-41.5 114q0 21 2 32l71 505h58l-71 -506q-2 -20 -2 -30q0 -50 27.5 -79.5t82.5 -29.5q65 0 104 40.5t47 102.5l70 502h58zM226 754.5q-9 9.5 -9 23.5q0 18 12 30.5t29 12.5q15 0 24 -9.5t9 -23.5q0 -19 -12 -31
t-29 -12q-15 0 -24 9.5zM385 754.5q-9 9.5 -9 23.5q0 19 11.5 31t28.5 12q15 0 24 -9.5t9 -23.5q0 -19 -11.5 -31t-28.5 -12q-15 0 -24 9.5zM445 878h-201l6 46h201z" />
    <glyph glyph-name="uni01D6" unicode="&#x1d6;" horiz-adv-x="473" 
d="M87.5 20q-27.5 31 -27.5 86q0 21 2 32l54 385h56l-54 -388q-2 -11 -2 -31q0 -34 14 -51t40 -17q82 0 154 157l47 330h55l-74 -523h-46l13 121q-32 -62 -69 -97t-88 -35q-47 0 -74.5 31zM180 643.5q-9 9.5 -9 23.5q0 18 12 30.5t29 12.5q15 0 24 -9.5t9 -23.5
q0 -19 -12 -31t-29 -12q-15 0 -24 9.5zM339 643.5q-9 9.5 -9 23.5q0 19 11.5 31t28.5 12q15 0 24 -9.5t9 -23.5q0 -19 -11.5 -31t-28.5 -12q-15 0 -24 9.5zM398 773h-201l6 46h201z" />
    <glyph glyph-name="uni01D7" unicode="&#x1d7;" horiz-adv-x="530" 
d="M440 176q-11 -80 -67 -133.5t-145 -53.5q-81 0 -122.5 45t-41.5 114q0 21 2 32l71 505h58l-71 -506q-2 -20 -2 -30q0 -50 27.5 -79.5t82.5 -29.5q65 0 104 40.5t47 102.5l70 502h58zM426 970l35 -33l-121 -123l-23 21zM228 755.5q-9 9.5 -9 23.5q0 18 11.5 30t28.5 12
q15 0 24 -9.5t9 -23.5q0 -19 -11.5 -30.5t-28.5 -11.5q-15 0 -24 9.5zM386 755.5q-9 9.5 -9 23.5q0 18 12 30t29 12q14 0 23.5 -9.5t9.5 -23.5q0 -18 -12 -30t-29 -12q-15 0 -24 9.5z" />
    <glyph glyph-name="uni01D8" unicode="&#x1d8;" horiz-adv-x="473" 
d="M87.5 20q-27.5 31 -27.5 86q0 21 2 32l54 385h56l-54 -388q-2 -11 -2 -31q0 -34 14 -51t40 -17q82 0 154 157l47 330h55l-74 -523h-46l13 121q-32 -62 -69 -97t-88 -35q-47 0 -74.5 31zM374 859l35 -33l-121 -123l-23 21zM179 644.5q-9 9.5 -9 23.5q0 18 12 30t29 12
q15 0 24 -9.5t9 -23.5q0 -18 -11.5 -30t-29.5 -12q-15 0 -24 9.5zM338 644.5q-9 9.5 -9 23.5q0 18 11.5 30t28.5 12q15 0 24 -9.5t9 -23.5q0 -18 -11.5 -30t-28.5 -12q-15 0 -24 9.5z" />
    <glyph glyph-name="uni01D9" unicode="&#x1d9;" horiz-adv-x="530" 
d="M440 176q-11 -80 -67 -133.5t-145 -53.5q-81 0 -122.5 45t-41.5 114q0 21 2 32l71 505h58l-71 -506q-2 -20 -2 -30q0 -50 27.5 -79.5t82.5 -29.5q65 0 104 40.5t47 102.5l70 502h58zM455 958l24 -27l-123 -103h-34l-92 105l25 25l89 -79zM228 755.5q-9 9.5 -9 23.5
q0 18 12 30t29 12q15 0 24 -9.5t9 -23.5q0 -18 -11.5 -30t-29.5 -12q-15 0 -24 9.5zM387 755.5q-9 9.5 -9 23.5q0 18 11.5 30t28.5 12q15 0 24 -9.5t9 -23.5q0 -18 -12 -30t-29 -12q-14 0 -23 9.5z" />
    <glyph glyph-name="uni01DA" unicode="&#x1da;" horiz-adv-x="473" 
d="M87.5 20q-27.5 31 -27.5 86q0 21 2 32l54 385h56l-54 -388q-2 -11 -2 -31q0 -34 14 -51t40 -17q82 0 154 157l47 330h55l-74 -523h-46l13 121q-32 -62 -69 -97t-88 -35q-47 0 -74.5 31zM406 847l24 -27l-123 -103h-34l-92 105l25 25l89 -79zM181 644.5q-9 9.5 -9 23.5
q0 18 12 30t29 12q14 0 23 -9.5t9 -23.5q0 -19 -11.5 -30.5t-28.5 -11.5q-15 0 -24 9.5zM339 644.5q-9 9.5 -9 23.5q0 18 12 30t29 12q15 0 24 -9.5t9 -23.5q0 -18 -12 -30t-29 -12q-15 0 -24 9.5z" />
    <glyph glyph-name="uni01DB" unicode="&#x1db;" horiz-adv-x="530" 
d="M440 176q-11 -80 -67 -133.5t-145 -53.5q-81 0 -122.5 45t-41.5 114q0 21 2 32l71 505h58l-71 -506q-2 -20 -2 -30q0 -50 27.5 -79.5t82.5 -29.5q65 0 104 40.5t47 102.5l70 502h58zM289 969l72 -137l-27 -18l-87 126zM227 755.5q-9 9.5 -9 23.5q0 18 12 30t29 12
q15 0 24 -9.5t9 -23.5q0 -18 -11.5 -30t-29.5 -12q-15 0 -24 9.5zM386 755.5q-9 9.5 -9 23.5q0 18 11.5 30t28.5 12q15 0 24 -9.5t9 -23.5q0 -18 -11.5 -30t-28.5 -12q-15 0 -24 9.5z" />
    <glyph glyph-name="uni01DC" unicode="&#x1dc;" horiz-adv-x="473" 
d="M87.5 20q-27.5 31 -27.5 86q0 21 2 32l54 385h56l-54 -388q-2 -11 -2 -31q0 -34 14 -51t40 -17q82 0 154 157l47 330h55l-74 -523h-46l13 121q-32 -62 -69 -97t-88 -35q-47 0 -74.5 31zM241 858l72 -137l-27 -18l-87 126zM182 644.5q-9 9.5 -9 23.5q0 18 11.5 30t28.5 12
q15 0 24 -9.5t9 -23.5q0 -18 -11.5 -30t-29.5 -12q-14 0 -23 9.5zM340 644.5q-9 9.5 -9 23.5q0 18 11.5 30t28.5 12q15 0 24 -9.5t9 -23.5q0 -18 -11.5 -30t-28.5 -12q-15 0 -24 9.5z" />
    <glyph glyph-name="uni01DD" unicode="&#x1dd;" horiz-adv-x="431" 
d="M348 484.5q39 -49.5 39 -139.5q0 -87 -26 -169t-80 -134.5t-132 -52.5q-61 0 -94.5 33.5t-33.5 87.5q0 97 81 145t226 62q1 9 1 27q0 141 -96 141q-32 0 -60.5 -12.5t-61.5 -37.5l-25 37q38 31 74.5 46.5t77.5 15.5q71 0 110 -49.5zM269 105q43 69 55 168
q-125 -12 -186 -50.5t-61 -111.5q0 -36 18.5 -55.5t57.5 -19.5q73 0 116 69z" />
    <glyph glyph-name="uni01DE" unicode="&#x1de;" horiz-adv-x="476" 
d="M361 0l-21 188h-226l-74 -188h-60l280 685h74l88 -685h-61zM133 237h202l-45 400zM199 754.5q-9 9.5 -9 23.5q0 18 12 30.5t29 12.5q15 0 24 -9.5t9 -23.5q0 -19 -12 -31t-29 -12q-15 0 -24 9.5zM358 754.5q-9 9.5 -9 23.5q0 19 11.5 31t28.5 12q15 0 24 -9.5t9 -23.5
q0 -19 -11.5 -31t-28.5 -12q-15 0 -24 9.5zM418 878h-201l6 46h201z" />
    <glyph glyph-name="uni01DF" unicode="&#x1df;" horiz-adv-x="472" 
d="M423 496l-55 -382q-4 -24 -4 -43q0 -16 5 -25.5t18 -16.5l-18 -40q-29 9 -43 29t-13 59q-29 -42 -62 -65t-75 -23q-62 0 -97.5 48t-35.5 133q0 87 26 170.5t81.5 138.5t139.5 55q67 0 133 -38zM182.5 440q-42.5 -48 -62.5 -121t-20 -149q0 -66 22 -100t63 -34q37 0 69 27
t62 77l47 331q-38 17 -75 17q-63 0 -105.5 -48zM201 643.5q-9 9.5 -9 23.5q0 18 12 30.5t29 12.5q15 0 24 -9.5t9 -23.5q0 -19 -12 -31t-29 -12q-15 0 -24 9.5zM360 643.5q-9 9.5 -9 23.5q0 19 11.5 31t28.5 12q15 0 24 -9.5t9 -23.5q0 -19 -11.5 -31t-28.5 -12
q-15 0 -24 9.5zM419 773h-201l6 46h201z" />
    <glyph glyph-name="uni01E0" unicode="&#x1e0;" horiz-adv-x="476" 
d="M361 0l-21 188h-226l-74 -188h-60l280 685h74l88 -685h-61zM133 237h202l-45 400zM277 753.5q-10 9.5 -10 25.5q0 20 13 32.5t31 12.5q16 0 26 -9.5t10 -25.5q0 -20 -12.5 -32.5t-30.5 -12.5q-17 0 -27 9.5zM418 878h-201l6 46h201z" />
    <glyph glyph-name="uni01E1" unicode="&#x1e1;" horiz-adv-x="472" 
d="M423 496l-55 -382q-4 -24 -4 -43q0 -16 5 -25.5t18 -16.5l-18 -40q-29 9 -43 29t-13 59q-29 -42 -62 -65t-75 -23q-62 0 -97.5 48t-35.5 133q0 87 26 170.5t81.5 138.5t139.5 55q67 0 133 -38zM182.5 440q-42.5 -48 -62.5 -121t-20 -149q0 -66 22 -100t63 -34q37 0 69 27
t62 77l47 331q-38 17 -75 17q-63 0 -105.5 -48zM279 630.5q-10 9.5 -10 25.5q0 20 13 32.5t31 12.5q16 0 26 -9.5t10 -25.5q0 -20 -12.5 -32.5t-30.5 -12.5q-17 0 -27 9.5zM423 757h-201l6 46h201z" />
    <glyph glyph-name="uni01E2" unicode="&#x1e2;" horiz-adv-x="651" 
d="M622 636h-260l16 -257h209l-7 -49h-199l18 -281h187l-8 -49h-231l-11 184h-227l-82 -184h-59l315 685h353zM130 233h203l-23 405zM556 802h-201l6 46h201z" />
    <glyph glyph-name="uni01E3" unicode="&#x1e3;" horiz-adv-x="683" 
d="M320.5 509.5q30.5 -24.5 47.5 -69.5q64 94 165 94q61 0 95 -33.5t34 -87.5q0 -96 -81.5 -145t-226.5 -62l-1 -25q0 -143 96 -143q33 0 61 12t61 38l25 -37q-37 -31 -73.5 -46.5t-78.5 -15.5q-49 0 -83.5 24.5t-50.5 70.5q-41 -51 -81 -73t-82 -22q-59 0 -92 36t-33 96
q0 77 49.5 129.5t155.5 52.5h82q8 35 25 78q-8 51 -33 78.5t-69 27.5q-27 0 -53 -7.5t-64 -22.5l-11 44q76 33 135 33q51 0 81.5 -24.5zM414 418.5q-43 -68.5 -56 -168.5q125 12 186 50.5t61 111.5q0 36 -18.5 55.5t-57.5 19.5q-72 0 -115 -68.5zM230 262q-77 0 -112.5 -38
t-35.5 -103q0 -41 19 -64t53 -23q36 0 70 23.5t74 75.5q-3 20 -3 45q0 44 7 84h-72zM496 676h-201l6 46h201z" />
    <glyph glyph-name="uni01E4" unicode="&#x1e4;" horiz-adv-x="515" 
d="M505 192h-59l-20 -146q-91 -57 -182 -57q-90 0 -139 61.5t-49 180.5q0 120 35 226.5t104 172.5t165 66q48 0 84 -17t67 -52l-38 -33q-26 28 -52 40t-63 12q-79 0 -133.5 -60t-81.5 -156t-27 -204q0 -187 133 -187q61 0 123 37l16 116h-104l7 49h104l11 79h-104v49h169
l-18 -128h59z" />
    <glyph glyph-name="uni01E5" unicode="&#x1e5;" horiz-adv-x="469" 
d="M345 -41h56l-5 -43h-64q-45 -122 -170 -122q-39 0 -76 13t-66 35l25 39q54 -38 117 -38q79 0 114 73h-109l6 43h118q3 11 7 37l13 93q-29 -40 -60 -62t-73 -22q-63 0 -98.5 48t-35.5 132q0 81 26.5 161.5t82 134t137.5 53.5q67 0 133 -38l-71 -499q-4 -26 -7 -38z
M318 155l46 316q-38 17 -75 17q-62 0 -104.5 -46.5t-63 -116t-20.5 -139.5q0 -66 22 -100t64 -34q69 0 131 103z" />
    <glyph glyph-name="Gcaron" unicode="&#x1e6;" horiz-adv-x="513" 
d="M444 679q36 -17 67 -52l-38 -33q-26 28 -52 40t-63 12q-79 0 -133.5 -60t-81.5 -156t-27 -204q0 -187 133 -187q60 0 123 36l34 245h-104v49h169l-45 -323q-91 -57 -182 -57q-90 0 -139 61.5t-49 180.5q0 120 35 226.5t104 172.5t165 66q48 0 84 -17zM483 886l24 -27
l-123 -103h-34l-92 105l25 25l89 -79z" />
    <glyph glyph-name="gcaron" unicode="&#x1e7;" horiz-adv-x="469" 
d="M423 496l-70 -499q-28 -203 -191 -203q-38 0 -75 13t-66 35l24 39q54 -38 118 -38q115 0 135 155l12 86q-28 -40 -59.5 -62t-72.5 -22q-63 0 -98.5 48t-35.5 130q0 84 26.5 166t82 136t138.5 54q68 0 132 -38zM184.5 441q-42.5 -47 -63 -118t-20.5 -143q0 -65 22 -99
t64 -34q68 0 131 104l46 320q-38 17 -75 17q-62 0 -104.5 -47zM418 766l23 -27l-122 -106h-34l-93 106l27 27l86 -82z" />
    <glyph glyph-name="uni01E8" unicode="&#x1e8;" horiz-adv-x="462" 
d="M50 0l97 685h58l-97 -685h-58zM354 0l-191 367l275 318h63l-275 -320l192 -365h-64zM438 886l24 -27l-123 -103h-34l-92 105l25 25l89 -79z" />
    <glyph glyph-name="uni01E9" unicode="&#x1e9;" horiz-adv-x="439" 
d="M159 398q34 66 73 101t88 35q47 0 74.5 -29.5t27.5 -75.5q0 -127 -150 -190l92 -239h-59l-95 254q79 25 117 67t38 104q0 30 -14 46.5t-42 16.5q-84 0 -164 -183l-43 -305h-56l104 736l57 7zM439 937l24 -27l-123 -103h-34l-92 105l25 25l89 -79z" />
    <glyph glyph-name="uni01EA" unicode="&#x1ea;" horiz-adv-x="572" 
d="M221 -62q-26 -29 -26 -67q0 -20 11.5 -31t32.5 -11t48 6l-10 -45q-25 -6 -47 -6q-38 0 -61 22.5t-23 60.5q0 37 19.5 66.5t62.5 55.5q-81 5 -126.5 68.5t-45.5 175.5q0 104 31.5 211t98.5 179.5t168 72.5q87 0 136 -63.5t49 -180.5q0 -93 -23.5 -187.5t-74.5 -168
t-129 -97.5q-65 -32 -91 -61zM149.5 87.5q33.5 -48.5 94.5 -48.5q85 0 137.5 68t75 164t22.5 185q0 96 -33 143.5t-95 47.5q-82 0 -135 -67.5t-76.5 -163.5t-23.5 -185q0 -95 33.5 -143.5z" />
    <glyph glyph-name="uni01EB" unicode="&#x1eb;" horiz-adv-x="472" 
d="M165 -63q-26 -29 -26 -66q0 -20 11.5 -31t32.5 -11t48 6l-10 -45q-25 -6 -47 -6q-38 0 -61 22.5t-23 60.5q0 37 19.5 67t63.5 56q-62 7 -95.5 57t-33.5 133q0 80 24.5 161.5t77.5 137t132 55.5q72 0 111 -50.5t39 -139.5q0 -68 -18 -140t-57 -128.5t-98 -76.5
q-64 -33 -90 -62zM196 37q62 0 101 50.5t56 122t17 138.5q0 69 -24 104t-70 35q-62 0 -101 -50.5t-56 -122.5t-17 -139q0 -138 94 -138z" />
    <glyph glyph-name="uni01EC" unicode="&#x1ec;" horiz-adv-x="572" 
d="M476 848l-6 -46h-201l6 46h201zM221 -62q-26 -29 -26 -67q0 -20 11.5 -31t32.5 -11t48 6l-10 -45q-25 -6 -47 -6q-38 0 -61 22.5t-23 60.5q0 37 19.5 66.5t62.5 55.5q-81 5 -126.5 68.5t-45.5 175.5q0 104 31.5 211t98.5 179.5t168 72.5q87 0 136 -63.5t49 -180.5
q0 -93 -23.5 -187.5t-74.5 -168t-129 -97.5q-65 -32 -91 -61zM149.5 87.5q33.5 -48.5 94.5 -48.5q85 0 137.5 68t75 164t22.5 185q0 96 -33 143.5t-95 47.5q-82 0 -135 -67.5t-76.5 -163.5t-23.5 -185q0 -95 33.5 -143.5z" />
    <glyph glyph-name="uni01ED" unicode="&#x1ed;" horiz-adv-x="472" 
d="M406 722l-6 -46h-201l6 46h201zM165 -63q-26 -29 -26 -66q0 -20 11.5 -31t32.5 -11t48 6l-10 -45q-25 -6 -47 -6q-38 0 -61 22.5t-23 60.5q0 37 19.5 67t63.5 56q-62 7 -95.5 57t-33.5 133q0 80 24.5 161.5t77.5 137t132 55.5q72 0 111 -50.5t39 -139.5q0 -68 -18 -140
t-57 -128.5t-98 -76.5q-64 -33 -90 -62zM196 37q62 0 101 50.5t56 122t17 138.5q0 69 -24 104t-70 35q-62 0 -101 -50.5t-56 -122.5t-17 -139q0 -138 94 -138z" />
    <glyph glyph-name="uni01EE" unicode="&#x1ee;" horiz-adv-x="404" 
d="M399 637l-218 -251h8q87 0 130 -41.5t43 -116.5q0 -69 -28 -123.5t-77.5 -85t-110.5 -30.5q-56 0 -95 22t-67 66l39 30q25 -36 53.5 -52t70.5 -16q70 0 112.5 52t42.5 135q0 59 -30 86t-88 27h-72l7 46l212 251h-249l7 49h317zM374 886l24 -27l-123 -103h-34l-92 105
l25 25l89 -79z" />
    <glyph glyph-name="uni01EF" unicode="&#x1ef;" horiz-adv-x="382" 
d="M365 479l-219 -281h5q171 0 171 -156q0 -72 -27.5 -128.5t-76 -87.5t-110.5 -31q-53 0 -89.5 22t-63.5 65l37 29q25 -37 52 -52.5t65 -15.5q71 0 113 55.5t42 142.5q0 61 -30 87.5t-94 26.5h-56l1 1l6 43l209 276h-243l7 48h307zM348 766l23 -27l-122 -106h-34l-93 106
l27 27l86 -82z" />
    <glyph glyph-name="uni01F0" unicode="&#x1f0;" horiz-adv-x="224" 
d="M-60 -161q35 18 55 36t33.5 50t21.5 88l72 510h56l-73 -515q-9 -65 -27.5 -103.5t-46 -61t-76.5 -46.5zM280 766l23 -27l-122 -106h-34l-93 106l27 27l86 -82z" />
    <glyph glyph-name="uni01F1" unicode="&#x1f1;" horiz-adv-x="932" 
d="M441 632q61 -53 61 -177q0 -122 -33 -225t-106 -166.5t-186 -63.5h-127l97 685h133q100 0 161 -53zM198 636l-83 -587h73q91 0 148 59.5t82 151.5t25 195q0 101 -43 141t-118 40h-84zM500 0l8 49l378 585h-268l8 51h330l-8 -48l-378 -586l294 1l-16 -52h-348z" />
    <glyph glyph-name="uni01F2" unicode="&#x1f2;" horiz-adv-x="874" 
d="M441 632q61 -53 61 -177q0 -122 -33 -225t-106 -166.5t-186 -63.5h-127l97 685h133q100 0 161 -53zM198 636l-83 -587h73q91 0 148 59.5t82 151.5t25 195q0 101 -43 141t-118 40h-84zM883 523l-6 -44l-295 -430h234l-13 -49h-293l7 44l295 430h-216l8 49h279z" />
    <glyph glyph-name="uni01F3" unicode="&#x1f3;" horiz-adv-x="827" 
d="M462 736l-104 -736h-48l9 101q-63 -112 -148 -112q-60 0 -94 48.5t-34 133.5q0 83 24.5 167t74 140t120.5 56q74 0 107 -67l38 276zM175 438q-38 -49 -56.5 -122.5t-18.5 -144.5q0 -65 21 -100t60 -35q42 0 76.5 37t71.5 108l31 229q-14 37 -36 57t-58 20q-53 0 -91 -49z
M836 523l-6 -44l-295 -430h234l-13 -49h-293l7 44l295 430h-216l8 49h279z" />
    <glyph glyph-name="uni01F4" unicode="&#x1f4;" horiz-adv-x="513" 
d="M444 679q36 -17 67 -52l-38 -33q-26 28 -52 40t-63 12q-79 0 -133.5 -60t-81.5 -156t-27 -204q0 -187 133 -187q60 0 123 36l34 245h-104v49h169l-45 -323q-91 -57 -182 -57q-90 0 -139 61.5t-49 180.5q0 120 35 226.5t104 172.5t165 66q48 0 84 -17zM445 882l25 -49
l-175 -75l-16 32z" />
    <glyph glyph-name="uni01F5" unicode="&#x1f5;" horiz-adv-x="469" 
d="M423 496l-70 -499q-28 -203 -191 -203q-38 0 -75 13t-66 35l24 39q54 -38 118 -38q115 0 135 155l12 86q-28 -40 -59.5 -62t-72.5 -22q-63 0 -98.5 48t-35.5 130q0 84 26.5 166t82 136t138.5 54q68 0 132 -38zM184.5 441q-42.5 -47 -63 -118t-20.5 -143q0 -65 22 -99
t64 -34q68 0 131 104l46 320q-38 17 -75 17q-62 0 -104.5 -47zM384 780l25 -50l-175 -84l-17 31z" />
    <glyph glyph-name="uni01F6" unicode="&#x1f6;" horiz-adv-x="790" 
d="M417.5 25q-33.5 36 -33.5 92q0 9 2 25l27 193h-257l-48 -335h-58l97 685h58l-42 -300h257l42 300h58l-76 -543q-2 -18 -2 -25q0 -39 19.5 -59.5t54.5 -20.5q95 0 130 120.5t35 280.5q0 50 -4 85h53q5 -47 5 -84q0 -195 -50 -322.5t-173 -127.5q-61 0 -94.5 36z" />
    <glyph glyph-name="uni01F7" unicode="&#x1f7;" horiz-adv-x="462" 
d="M435 655.5q37 -40.5 37 -111.5q0 -113 -65 -179.5t-184 -116.5l-85 -36l-30 -212h-58l97 685h58l-7 -50q66 61 140 61q60 0 97 -40.5zM362.5 395.5q48.5 56.5 48.5 147.5q0 51 -22.5 77t-63.5 26q-67 0 -135 -64l-45 -320l78 36q91 41 139.5 97.5z" />
    <glyph glyph-name="uni01F8" unicode="&#x1f8;" horiz-adv-x="550" 
d="M425 0h-75l-167 632q-5 -93 -26 -248l-52 -384h-55l97 685h75l168 -631q4 92 21 215l57 416h54zM307 881l141 -92l-20 -30l-151 75z" />
    <glyph glyph-name="uni01F9" unicode="&#x1f9;" horiz-adv-x="477" 
d="M389.5 502q27.5 -32 27.5 -88q0 -16 -3 -36l-53 -378h-56l53 376q2 12 2 34q0 76 -56 76q-74 0 -157 -164l-45 -322h-56l74 523h48l-13 -120q36 63 74.5 97t85.5 34t74.5 -32zM257 778l141 -102l-21 -30l-151 84z" />
    <glyph glyph-name="Aringacute" unicode="&#x1fa;" horiz-adv-x="476" 
d="M361 0l-21 188h-226l-74 -188h-60l280 685h74l88 -685h-61zM133 237h202l-45 400zM375.5 891.5q20.5 -22.5 20.5 -58.5q0 -46 -27.5 -75t-67.5 -29q-34 0 -54.5 22.5t-20.5 58.5q0 46 27.5 75t67.5 29q34 0 54.5 -22.5zM280 860.5q-14 -19.5 -14 -50.5q0 -22 9.5 -34.5
t27.5 -12.5q25 0 39 19.5t14 50.5q0 23 -9.5 35t-27.5 12q-25 0 -39 -19.5zM398 1045l25 -49l-175 -75l-16 32z" />
    <glyph glyph-name="aringacute" unicode="&#x1fb;" horiz-adv-x="472" 
d="M423 496l-55 -382q-4 -24 -4 -43q0 -16 5 -25.5t18 -16.5l-18 -40q-29 9 -43 29t-13 59q-29 -42 -62 -65t-75 -23q-62 0 -97.5 48t-35.5 133q0 87 26 170.5t81.5 138.5t139.5 55q67 0 133 -38zM182.5 440q-42.5 -48 -62.5 -121t-20 -149q0 -66 22 -100t63 -34q37 0 69 27
t62 77l47 331q-38 17 -75 17q-63 0 -105.5 -48zM376.5 750.5q20.5 -22.5 20.5 -58.5q0 -46 -27.5 -75t-67.5 -29q-34 0 -54.5 22.5t-20.5 58.5q0 46 27.5 75t67.5 29q34 0 54.5 -22.5zM281 719.5q-14 -19.5 -14 -50.5q0 -22 9.5 -34.5t27.5 -12.5q25 0 39 19.5t14 50.5
q0 23 -9.5 35t-27.5 12q-25 0 -39 -19.5zM395 908l25 -49l-175 -75l-16 32z" />
    <glyph glyph-name="AEacute" unicode="&#x1fc;" horiz-adv-x="651" 
d="M622 636h-260l16 -257h209l-7 -49h-199l18 -281h187l-8 -49h-231l-11 184h-227l-82 -184h-59l315 685h353zM130 233h203l-23 405zM528 882l25 -49l-175 -75l-16 32z" />
    <glyph glyph-name="aeacute" unicode="&#x1fd;" horiz-adv-x="683" 
d="M320.5 509.5q30.5 -24.5 47.5 -69.5q64 94 165 94q61 0 95 -33.5t34 -87.5q0 -96 -81.5 -145t-226.5 -62l-1 -25q0 -143 96 -143q33 0 61 12t61 38l25 -37q-37 -31 -73.5 -46.5t-78.5 -15.5q-49 0 -83.5 24.5t-50.5 70.5q-41 -51 -81 -73t-82 -22q-59 0 -92 36t-33 96
q0 77 49.5 129.5t155.5 52.5h82q8 35 25 78q-8 51 -33 78.5t-69 27.5q-27 0 -53 -7.5t-64 -22.5l-11 44q76 33 135 33q51 0 81.5 -24.5zM414 418.5q-43 -68.5 -56 -168.5q125 12 186 50.5t61 111.5q0 36 -18.5 55.5t-57.5 19.5q-72 0 -115 -68.5zM230 262q-77 0 -112.5 -38
t-35.5 -103q0 -41 19 -64t53 -23q36 0 70 23.5t74 75.5q-3 20 -3 45q0 44 7 84h-72zM470 780l25 -50l-175 -84l-17 31z" />
    <glyph glyph-name="Oslashacute" unicode="&#x1fe;" horiz-adv-x="572" 
d="M516 585.5q23 -55.5 23 -133.5q0 -107 -31 -213.5t-98 -178t-169 -71.5q-29 0 -51 7l-44 -115l-46 14l47 120q-43 28 -67 84t-24 134q0 104 31.5 211t98.5 179.5t168 72.5q31 0 53 -7l46 121l46 -14l-49 -127q43 -28 66 -83.5zM174 60l218 581q-18 6 -41 6
q-82 0 -135 -67.5t-76.5 -163.5t-23.5 -185q0 -129 58 -171zM381.5 107q52.5 68 75 164t22.5 185q0 128 -55 169l-218 -581q20 -5 38 -5q85 0 137.5 68zM438 889l25 -49l-175 -75l-16 32z" />
    <glyph glyph-name="oslashacute" unicode="&#x1ff;" horiz-adv-x="472" 
d="M411.5 441q16.5 -42 16.5 -97q0 -80 -24.5 -162t-77 -137.5t-132.5 -55.5q-23 0 -43 6l-50 -120l-43 14l52 125q-32 24 -49 67t-17 99q0 80 24.5 161.5t77.5 137t132 55.5q26 0 46 -7l49 121l43 -14l-52 -127q31 -24 47.5 -66zM175 436.5q-39 -50.5 -56 -122.5t-17 -139
q0 -86 35 -118l171 425q-15 5 -32 5q-62 0 -101 -50.5zM297 87.5q39 50.5 56 122t17 138.5q0 84 -33 117l-170 -424q12 -4 29 -4q62 0 101 50.5zM374 780l25 -50l-175 -84l-17 31z" />
    <glyph glyph-name="uni0200" unicode="&#x200;" horiz-adv-x="476" 
d="M361 0l-21 188h-226l-74 -188h-60l280 685h74l88 -685h-61zM133 237h202l-45 400zM228 936l46 -153l-39 -14l-61 145zM337 935l40 -148l-39 -14l-55 140z" />
    <glyph glyph-name="uni0201" unicode="&#x201;" horiz-adv-x="472" 
d="M423 496l-55 -382q-4 -24 -4 -43q0 -16 5 -25.5t18 -16.5l-18 -40q-29 9 -43 29t-13 59q-29 -42 -62 -65t-75 -23q-62 0 -97.5 48t-35.5 133q0 87 26 170.5t81.5 138.5t139.5 55q67 0 133 -38zM182.5 440q-42.5 -48 -62.5 -121t-20 -149q0 -66 22 -100t63 -34q37 0 69 27
t62 77l47 331q-38 17 -75 17q-63 0 -105.5 -48zM231 810l46 -153l-39 -14l-61 145zM340 809l40 -148l-39 -14l-55 140z" />
    <glyph glyph-name="uni0202" unicode="&#x202;" horiz-adv-x="476" 
d="M361 0l-21 188h-226l-74 -188h-60l280 685h74l88 -685h-61zM133 237h202l-45 400zM200 796q14 50 46.5 79t75.5 29q46 0 72.5 -30.5t24.5 -81.5l-36 -5q-6 70 -64 70t-84 -73z" />
    <glyph glyph-name="uni0203" unicode="&#x203;" horiz-adv-x="472" 
d="M423 496l-55 -382q-4 -24 -4 -43q0 -16 5 -25.5t18 -16.5l-18 -40q-29 9 -43 29t-13 59q-29 -42 -62 -65t-75 -23q-62 0 -97.5 48t-35.5 133q0 87 26 170.5t81.5 138.5t139.5 55q67 0 133 -38zM182.5 440q-42.5 -48 -62.5 -121t-20 -149q0 -66 22 -100t63 -34q37 0 69 27
t62 77l47 331q-38 17 -75 17q-63 0 -105.5 -48zM195 634q14 50 46.5 79t75.5 29q46 0 72.5 -30.5t24.5 -81.5l-36 -5q-6 70 -64 70t-84 -73z" />
    <glyph glyph-name="uni0204" unicode="&#x204;" horiz-adv-x="418" 
d="M437 685l-14 -49h-225l-36 -257h196l-8 -48h-195l-40 -282h239l-8 -49h-296l97 685h290zM227 936l46 -153l-39 -14l-61 145zM336 935l40 -148l-39 -14l-55 140z" />
    <glyph glyph-name="uni0205" unicode="&#x205;" horiz-adv-x="431" 
d="M329 268q-81 -48 -226 -62q-1 -9 -1 -27q0 -141 96 -141q32 0 60.5 12.5t61.5 37.5l25 -37q-38 -31 -74.5 -46.5t-77.5 -15.5q-71 0 -110 49.5t-39 139.5q0 87 26 169t80 134.5t132 52.5q61 0 94.5 -33.5t33.5 -87.5q0 -97 -81 -145zM162 418q-43 -69 -55 -168
q125 12 186 50.5t61 111.5q0 36 -18.5 55.5t-57.5 19.5q-73 0 -116 -69zM214 810l46 -153l-39 -14l-61 145zM323 809l40 -148l-39 -14l-55 140z" />
    <glyph glyph-name="uni0206" unicode="&#x206;" horiz-adv-x="418" 
d="M437 685l-14 -49h-225l-36 -257h196l-8 -48h-195l-40 -282h239l-8 -49h-296l97 685h290zM199 796q14 50 46.5 79t75.5 29q46 0 72.5 -30.5t24.5 -81.5l-36 -5q-6 70 -64 70t-84 -73z" />
    <glyph glyph-name="uni0207" unicode="&#x207;" horiz-adv-x="431" 
d="M329 268q-81 -48 -226 -62q-1 -9 -1 -27q0 -141 96 -141q32 0 60.5 12.5t61.5 37.5l25 -37q-38 -31 -74.5 -46.5t-77.5 -15.5q-71 0 -110 49.5t-39 139.5q0 87 26 169t80 134.5t132 52.5q61 0 94.5 -33.5t33.5 -87.5q0 -97 -81 -145zM162 418q-43 -69 -55 -168
q125 12 186 50.5t61 111.5q0 36 -18.5 55.5t-57.5 19.5q-73 0 -116 -69zM178 634q14 50 46.5 79t75.5 29q46 0 72.5 -30.5t24.5 -81.5l-36 -5q-6 70 -64 70t-84 -73z" />
    <glyph glyph-name="uni0208" unicode="&#x208;" horiz-adv-x="233" 
d="M205 685l-97 -685h-58l97 685h58zM107 936l46 -153l-39 -14l-61 145zM216 935l40 -148l-39 -14l-55 140z" />
    <glyph glyph-name="uni0209" unicode="&#x209;" horiz-adv-x="223" 
d="M176 523l-74 -523h-56l74 523h56zM87 810l46 -153l-39 -14l-61 145zM196 809l40 -148l-39 -14l-55 140z" />
    <glyph glyph-name="uni020A" unicode="&#x20a;" horiz-adv-x="233" 
d="M205 685l-97 -685h-58l97 685h58zM79 796q14 50 46.5 79t75.5 29q46 0 72.5 -30.5t24.5 -81.5l-36 -5q-6 70 -64 70t-84 -73z" />
    <glyph glyph-name="uni020B" unicode="&#x20b;" horiz-adv-x="223" 
d="M176 523l-74 -523h-56l74 523h56zM51 634q14 50 46.5 79t75.5 29q46 0 72.5 -30.5t24.5 -81.5l-36 -5q-6 70 -64 70t-84 -73z" />
    <glyph glyph-name="uni020C" unicode="&#x20c;" horiz-adv-x="572" 
d="M490 632.5q49 -63.5 49 -180.5q0 -107 -31 -213.5t-98 -178t-169 -71.5q-87 0 -136 63.5t-49 180.5q0 104 31.5 211t98.5 179.5t168 72.5q87 0 136 -63.5zM216 579.5q-53 -67.5 -76.5 -163.5t-23.5 -185q0 -95 33.5 -143.5t94.5 -48.5q85 0 137.5 68t75 164t22.5 185
q0 96 -33 143.5t-95 47.5q-82 0 -135 -67.5zM285 936l46 -153l-39 -14l-61 145zM394 935l40 -148l-39 -14l-55 140z" />
    <glyph glyph-name="uni020D" unicode="&#x20d;" horiz-adv-x="472" 
d="M83 39.5q-39 50.5 -39 140.5q0 80 24.5 161.5t77.5 137t132 55.5q72 0 111 -50.5t39 -139.5q0 -80 -24.5 -162t-77 -137.5t-132.5 -55.5q-72 0 -111 50.5zM297 87.5q39 50.5 56 122t17 138.5q0 69 -24 104t-70 35q-62 0 -101 -50.5t-56 -122.5t-17 -139q0 -138 94 -138
q62 0 101 50.5zM217 810l46 -153l-39 -14l-61 145zM326 809l40 -148l-39 -14l-55 140z" />
    <glyph glyph-name="uni020E" unicode="&#x20e;" horiz-adv-x="572" 
d="M490 632.5q49 -63.5 49 -180.5q0 -107 -31 -213.5t-98 -178t-169 -71.5q-87 0 -136 63.5t-49 180.5q0 104 31.5 211t98.5 179.5t168 72.5q87 0 136 -63.5zM216 579.5q-53 -67.5 -76.5 -163.5t-23.5 -185q0 -95 33.5 -143.5t94.5 -48.5q85 0 137.5 68t75 164t22.5 185
q0 96 -33 143.5t-95 47.5q-82 0 -135 -67.5zM257 796q14 50 46.5 79t75.5 29q46 0 72.5 -30.5t24.5 -81.5l-36 -5q-6 70 -64 70t-84 -73z" />
    <glyph glyph-name="uni020F" unicode="&#x20f;" horiz-adv-x="472" 
d="M83 39.5q-39 50.5 -39 140.5q0 80 24.5 161.5t77.5 137t132 55.5q72 0 111 -50.5t39 -139.5q0 -80 -24.5 -162t-77 -137.5t-132.5 -55.5q-72 0 -111 50.5zM297 87.5q39 50.5 56 122t17 138.5q0 69 -24 104t-70 35q-62 0 -101 -50.5t-56 -122.5t-17 -139q0 -138 94 -138
q62 0 101 50.5zM181 634q14 50 46.5 79t75.5 29q46 0 72.5 -30.5t24.5 -81.5l-36 -5q-6 70 -64 70t-84 -73z" />
    <glyph glyph-name="uni0210" unicode="&#x210;" horiz-adv-x="486" 
d="M429.5 401q-37.5 -59 -113.5 -82l107 -319h-60l-102 308h-109l-44 -308h-58l97 685h138q92 0 137 -39.5t45 -113.5q0 -72 -37.5 -131zM242 356q88 0 126.5 51.5t38.5 122.5q0 55 -28.5 81t-93.5 26h-87l-40 -281h84zM230 936l46 -153l-39 -14l-61 145zM339 935l40 -148
l-39 -14l-55 140z" />
    <glyph glyph-name="uni0211" unicode="&#x211;" horiz-adv-x="308" 
d="M335 527l-17 -53q-20 6 -34 6q-45 0 -77.5 -45.5t-62.5 -135.5l-42 -299h-56l74 523h49l-14 -117q27 63 60 95.5t80 32.5q17 0 40 -7zM160 810l46 -153l-39 -14l-61 145zM269 809l40 -148l-39 -14l-55 140z" />
    <glyph glyph-name="uni0212" unicode="&#x212;" horiz-adv-x="486" 
d="M429.5 401q-37.5 -59 -113.5 -82l107 -319h-60l-102 308h-109l-44 -308h-58l97 685h138q92 0 137 -39.5t45 -113.5q0 -72 -37.5 -131zM242 356q88 0 126.5 51.5t38.5 122.5q0 55 -28.5 81t-93.5 26h-87l-40 -281h84zM202 796q14 50 46.5 79t75.5 29q46 0 72.5 -30.5
t24.5 -81.5l-36 -5q-6 70 -64 70t-84 -73z" />
    <glyph glyph-name="uni0213" unicode="&#x213;" horiz-adv-x="308" 
d="M335 527l-17 -53q-20 6 -34 6q-45 0 -77.5 -45.5t-62.5 -135.5l-42 -299h-56l74 523h49l-14 -117q27 63 60 95.5t80 32.5q17 0 40 -7zM124 634q14 50 46.5 79t75.5 29q46 0 72.5 -30.5t24.5 -81.5l-36 -5q-6 70 -64 70t-84 -73z" />
    <glyph glyph-name="uni0214" unicode="&#x214;" horiz-adv-x="530" 
d="M440 176q-11 -80 -67 -133.5t-145 -53.5q-81 0 -122.5 45t-41.5 114q0 21 2 32l71 505h58l-71 -506q-2 -20 -2 -30q0 -50 27.5 -79.5t82.5 -29.5q65 0 104 40.5t47 102.5l70 502h58zM255 936l46 -153l-39 -14l-61 145zM364 935l40 -148l-39 -14l-55 140z" />
    <glyph glyph-name="uni0215" unicode="&#x215;" horiz-adv-x="473" 
d="M87.5 20q-27.5 31 -27.5 86q0 21 2 32l54 385h56l-54 -388q-2 -11 -2 -31q0 -34 14 -51t40 -17q82 0 154 157l47 330h55l-74 -523h-46l13 121q-32 -62 -69 -97t-88 -35q-47 0 -74.5 31zM210 810l46 -153l-39 -14l-61 145zM319 809l40 -148l-39 -14l-55 140z" />
    <glyph glyph-name="uni0216" unicode="&#x216;" horiz-adv-x="530" 
d="M440 176q-11 -80 -67 -133.5t-145 -53.5q-81 0 -122.5 45t-41.5 114q0 21 2 32l71 505h58l-71 -506q-2 -20 -2 -30q0 -50 27.5 -79.5t82.5 -29.5q65 0 104 40.5t47 102.5l70 502h58zM227 796q14 50 46.5 79t75.5 29q46 0 72.5 -30.5t24.5 -81.5l-36 -5q-6 70 -64 70
t-84 -73z" />
    <glyph glyph-name="uni0217" unicode="&#x217;" horiz-adv-x="473" 
d="M87.5 20q-27.5 31 -27.5 86q0 21 2 32l54 385h56l-54 -388q-2 -11 -2 -31q0 -34 14 -51t40 -17q82 0 154 157l47 330h55l-74 -523h-46l13 121q-32 -62 -69 -97t-88 -35q-47 0 -74.5 31zM174 634q14 50 46.5 79t75.5 29q46 0 72.5 -30.5t24.5 -81.5l-36 -5q-6 70 -64 70
t-84 -73z" />
    <glyph glyph-name="Scommaaccent" unicode="&#x218;" horiz-adv-x="444" 
d="M374.5 676q37.5 -20 69.5 -57l-36 -33q-28 32 -56.5 46.5t-65.5 14.5q-58 0 -96 -40.5t-38 -99.5q0 -42 22 -67t81 -52q71 -33 103 -71.5t32 -103.5q0 -57 -26.5 -108.5t-77 -83.5t-118.5 -32q-56 0 -97.5 22.5t-75.5 65.5l37 31q29 -34 60.5 -51.5t76.5 -17.5
q49 0 85.5 23.5t56 62.5t19.5 86q0 49 -23 77.5t-84 57.5q-72 34 -100.5 68t-28.5 90q0 48 24 92.5t68.5 72t101.5 27.5q49 0 86.5 -20zM201 -96q10 -11 10 -26q0 -14 -5 -26t-19 -38l-50 -92h-33l43 115q-17 14 -17 33t12.5 32t31.5 13q17 0 27 -11z" />
    <glyph glyph-name="scommaaccent" unicode="&#x219;" horiz-adv-x="384" 
d="M364 475l-30 -33q-25 23 -50 33.5t-56 10.5q-45 0 -73 -25.5t-28 -69.5q0 -32 19.5 -52.5t68.5 -40.5q58 -25 84 -58t26 -84q0 -76 -49.5 -121.5t-127.5 -45.5q-92 0 -153 70l34 33q25 -27 53.5 -41t67.5 -14q54 0 85.5 31.5t31.5 84.5q0 36 -19.5 59t-71.5 46
q-57 24 -81.5 54t-24.5 77q0 40 20.5 73t56.5 52.5t81 19.5q79 0 136 -59zM168 -96q10 -11 10 -26q0 -14 -5 -26t-19 -38l-50 -92h-33l43 115q-17 14 -17 33t12.5 32t31.5 13q17 0 27 -11z" />
    <glyph glyph-name="uni021A" unicode="&#x21a;" horiz-adv-x="409" 
d="M461 685l-15 -52h-160l-89 -633h-58l89 633h-164l7 52h390zM183 -96q10 -11 10 -26q0 -14 -5 -26t-19 -38l-50 -92h-33l43 115q-17 14 -17 33t12.5 32t31.5 13q17 0 27 -11z" />
    <glyph glyph-name="uni021B" unicode="&#x21b;" horiz-adv-x="287" 
d="M121 112q-1 -7 -1 -20q0 -55 48 -55q30 0 68 22l19 -38q-48 -32 -96 -32q-44 0 -69.5 26.5t-25.5 73.5q0 7 2 25l51 363h-72l7 46h73l27 127l46 5l-19 -132h109l-14 -46h-101zM170 -96q10 -11 10 -26q0 -14 -5 -26t-19 -38l-50 -92h-33l43 115q-17 14 -17 33t12.5 32
t31.5 13q17 0 27 -11z" />
    <glyph glyph-name="uni021C" unicode="&#x21c;" horiz-adv-x="405" 
d="M352.5 657q38.5 -39 38.5 -106q0 -153 -147 -192q109 -17 109 -125q0 -131 -100 -208t-267 -116v49q144 39 224.5 101.5t80.5 171.5q0 51 -28.5 76t-87.5 24h-51l15 50h41q66 0 108 44.5t42 117.5q0 49 -22 75.5t-66 26.5q-39 0 -73.5 -17.5t-74.5 -51.5l-26 36
q44 42 88 62.5t92 20.5q66 0 104.5 -39z" />
    <glyph glyph-name="uni021D" unicode="&#x21d;" horiz-adv-x="390" 
d="M306 499q36 -35 36 -92t-30 -91.5t-87 -46.5q52 -1 78.5 -25.5t26.5 -70.5q0 -101 -86.5 -166.5t-222.5 -101.5l-3 43q122 40 187.5 92t65.5 131q0 38 -22.5 54t-70.5 16h-62l11 46h30q58 0 93 31t35 87q0 40 -21 61t-59 21q-33 0 -61 -11t-61 -33l-23 36
q37 28 73.5 41.5t77.5 13.5q59 0 95 -35z" />
    <glyph glyph-name="uni021E" unicode="&#x21e;" horiz-adv-x="548" 
d="M108 0h-58l97 685h58l-42 -300h257l42 300h58l-96 -685h-58l47 335h-257zM459 886l24 -27l-123 -103h-34l-92 105l25 25l89 -79z" />
    <glyph glyph-name="uni021F" unicode="&#x21f;" horiz-adv-x="477" 
d="M389.5 502q27.5 -32 27.5 -88q0 -16 -3 -36l-53 -378h-56l53 376q2 13 2 35q0 75 -57 75q-40 0 -80 -45.5t-76 -118.5l-45 -322h-56l104 736l57 7l-47 -335q33 59 70.5 92.5t84.5 33.5t74.5 -32zM433 937l24 -27l-123 -103h-34l-92 105l25 25l89 -79z" />
    <glyph glyph-name="uni0220" unicode="&#x220;" horiz-adv-x="541" 
d="M463 657q34 -39 34 -104q0 -18 -3 -38l-100 -712h-57l99 712q3 20 3 36q0 46 -21 70.5t-62 24.5q-47 0 -88 -27.5t-84 -76.5l-76 -542h-58l97 685h50l-7 -84q84 95 175 95q64 0 98 -39z" />
    <glyph glyph-name="uni0221" unicode="&#x221;" horiz-adv-x="574" 
d="M551 177q21 -22 21 -60q0 -59 -40.5 -93.5t-100.5 -34.5q-39 0 -65 15l-40 -70l-33 18l46 78q-19 28 -19 71q-66 -112 -149 -112q-60 0 -94 48.5t-34 133.5q0 83 24.5 167t74 140t120.5 56q74 0 107 -67l38 276l55 -7l-87 -612q-3 -21 -2 -34q30 58 58 83.5t64 25.5
q35 0 56 -22zM258.5 73.5q34.5 37.5 70.5 108.5l31 228q-14 37 -36 57t-58 20q-53 0 -91 -49t-56.5 -122.5t-18.5 -144.5q0 -65 21 -100t60 -35q43 0 77.5 37.5zM500.5 59q24.5 20 24.5 58q0 19 -9 29.5t-26 10.5q-23 0 -44 -22t-54 -86q14 -10 47 -10q37 0 61.5 20z" />
    <glyph glyph-name="uni0222" unicode="&#x222;" horiz-adv-x="527" 
d="M440.5 434q-26.5 -36 -74.5 -53q49 -18 75 -57t26 -95q0 -69 -30 -123.5t-84.5 -85.5t-125.5 -31q-89 0 -137 48.5t-48 127.5q0 80 41 137t111 80q-34 14 -51 41t-17 71q0 17 3 38l21 153h58l-22 -154q-3 -19 -3 -37q0 -47 24 -68.5t75 -21.5q64 0 95.5 35t40.5 96
l21 150h59l-23 -156q-8 -59 -34.5 -95zM374.5 321.5q-31.5 32.5 -96.5 32.5q-80 0 -128 -51t-48 -137q0 -61 31.5 -94t96.5 -33q82 0 129 50.5t47 138.5q0 61 -31.5 93.5z" />
    <glyph glyph-name="uni0223" unicode="&#x223;" horiz-adv-x="465" 
d="M394 461q-25 -36 -68 -54q85 -35 85 -151q0 -75 -26.5 -136t-75.5 -96t-112 -35q-74 0 -115.5 48.5t-41.5 128.5q0 89 37.5 153.5t102.5 88.5q-61 31 -61 108q0 15 3 33l27 187h56l-28 -191q-2 -11 -2 -31q0 -86 80 -86q51 0 79.5 34.5t36.5 86.5l26 187h56l-27 -191
q-7 -48 -32 -84zM313.5 98.5q39.5 61.5 39.5 154.5q0 130 -102 130q-48 0 -82.5 -29.5t-52.5 -78.5t-18 -108q0 -63 26 -96.5t76 -33.5q74 0 113.5 61.5z" />
    <glyph glyph-name="uni0224" unicode="&#x224;" horiz-adv-x="420" 
d="M437 637l-378 -586l289 1l-8 -52l-12 -83q-9 -59 -42 -90.5t-79 -31.5q-28 0 -48 9.5t-37 25.5l26 35q16 -12 28 -17t29 -5q26 0 44 19t23 57l12 81h-295l8 49l378 585h-268l8 51h330z" />
    <glyph glyph-name="uni0225" unicode="&#x225;" horiz-adv-x="346" 
d="M351 479l-295 -430h231l-7 -49l-12 -85q-8 -59 -41.5 -89.5t-81.5 -30.5q-47 0 -84 35l28 33q15 -11 26.5 -16t29.5 -5q57 0 68 74l12 84h-241l7 44l295 430h-216l8 49h279z" />
    <glyph glyph-name="uni0226" unicode="&#x226;" horiz-adv-x="476" 
d="M361 0l-21 188h-226l-74 -188h-60l280 685h74l88 -685h-61zM133 237h202l-45 400zM286 806.5q-10 9.5 -10 25.5q0 20 13 32.5t31 12.5q16 0 26 -9.5t10 -25.5q0 -20 -12.5 -32.5t-30.5 -12.5q-17 0 -27 9.5z" />
    <glyph glyph-name="uni0227" unicode="&#x227;" horiz-adv-x="472" 
d="M423 496l-55 -382q-4 -24 -4 -43q0 -16 5 -25.5t18 -16.5l-18 -40q-29 9 -43 29t-13 59q-29 -42 -62 -65t-75 -23q-62 0 -97.5 48t-35.5 133q0 87 26 170.5t81.5 138.5t139.5 55q67 0 133 -38zM182.5 440q-42.5 -48 -62.5 -121t-20 -149q0 -66 22 -100t63 -34q37 0 69 27
t62 77l47 331q-38 17 -75 17q-63 0 -105.5 -48zM286 680.5q-10 9.5 -10 25.5q0 20 13 32.5t31 12.5q16 0 26 -9.5t10 -25.5q0 -20 -12.5 -32.5t-30.5 -12.5q-17 0 -27 9.5z" />
    <glyph glyph-name="uni0228" unicode="&#x228;" horiz-adv-x="418" 
d="M198 636l-36 -257h196l-8 -48h-195l-40 -282h239l-8 -49h-132l-10 -66q68 -7 68 -70q0 -39 -27 -64.5t-73 -25.5q-43 0 -67 22l20 32q24 -14 47 -14t37.5 12.5t14.5 35.5t-14.5 32.5t-52.5 9.5l21 96h-128l97 685h290l-14 -49h-225z" />
    <glyph glyph-name="uni0229" unicode="&#x229;" horiz-adv-x="431" 
d="M329 268q-81 -48 -226 -62q-1 -9 -1 -27q0 -141 96 -141q32 0 60.5 12.5t61.5 37.5l25 -37q-35 -29 -69 -44.5t-72 -17.5l-9 -55q68 -7 68 -70q0 -39 -27 -64.5t-73 -25.5q-43 0 -67 22l20 32q24 -14 47 -14t37.5 12.5t14.5 35.5t-14.5 32.5t-52.5 9.5l19 87
q-59 9 -91 57.5t-32 129.5q0 87 26 169t80 134.5t132 52.5q61 0 94.5 -33.5t33.5 -87.5q0 -97 -81 -145zM162 418q-43 -69 -55 -168q125 12 186 50.5t61 111.5q0 36 -18.5 55.5t-57.5 19.5q-73 0 -116 -69z" />
    <glyph glyph-name="uni022A" unicode="&#x22a;" horiz-adv-x="572" 
d="M490 632.5q49 -63.5 49 -180.5q0 -107 -31 -213.5t-98 -178t-169 -71.5q-87 0 -136 63.5t-49 180.5q0 104 31.5 211t98.5 179.5t168 72.5q87 0 136 -63.5zM216 579.5q-53 -67.5 -76.5 -163.5t-23.5 -185q0 -95 33.5 -143.5t94.5 -48.5q85 0 137.5 68t75 164t22.5 185
q0 96 -33 143.5t-95 47.5q-82 0 -135 -67.5zM256 754.5q-9 9.5 -9 23.5q0 18 12 30.5t29 12.5q15 0 24 -9.5t9 -23.5q0 -19 -12 -31t-29 -12q-15 0 -24 9.5zM415 754.5q-9 9.5 -9 23.5q0 19 11.5 31t28.5 12q15 0 24 -9.5t9 -23.5q0 -19 -11.5 -31t-28.5 -12q-15 0 -24 9.5z
M475 878h-201l6 46h201z" />
    <glyph glyph-name="uni022B" unicode="&#x22b;" horiz-adv-x="472" 
d="M83 39.5q-39 50.5 -39 140.5q0 80 24.5 161.5t77.5 137t132 55.5q72 0 111 -50.5t39 -139.5q0 -80 -24.5 -162t-77 -137.5t-132.5 -55.5q-72 0 -111 50.5zM297 87.5q39 50.5 56 122t17 138.5q0 69 -24 104t-70 35q-62 0 -101 -50.5t-56 -122.5t-17 -139q0 -138 94 -138
q62 0 101 50.5zM187 643.5q-9 9.5 -9 23.5q0 18 12 30.5t29 12.5q15 0 24 -9.5t9 -23.5q0 -19 -12 -31t-29 -12q-15 0 -24 9.5zM346 643.5q-9 9.5 -9 23.5q0 19 11.5 31t28.5 12q15 0 24 -9.5t9 -23.5q0 -19 -11.5 -31t-28.5 -12q-15 0 -24 9.5zM405 773h-201l6 46h201z" />
    <glyph glyph-name="uni022C" unicode="&#x22c;" horiz-adv-x="572" 
d="M480 894h-201l6 46h201zM388 764.5q-12 6.5 -29 18.5q-12 10 -20.5 15t-18.5 5q-14 0 -24.5 -9t-26.5 -31l-29 20q38 65 81 65q15 0 27 -6.5t29 -18.5q12 -10 20.5 -15t18.5 -5q12 0 23.5 10t26.5 32l31 -18q-37 -69 -82 -69q-15 0 -27 6.5zM490 632.5
q49 -63.5 49 -180.5q0 -107 -31 -213.5t-98 -178t-169 -71.5q-87 0 -136 63.5t-49 180.5q0 104 31.5 211t98.5 179.5t168 72.5q87 0 136 -63.5zM216 579.5q-53 -67.5 -76.5 -163.5t-23.5 -185q0 -95 33.5 -143.5t94.5 -48.5q85 0 137.5 68t75 164t22.5 185q0 96 -33 143.5
t-95 47.5q-82 0 -135 -67.5z" />
    <glyph glyph-name="uni022D" unicode="&#x22d;" horiz-adv-x="472" 
d="M83 39.5q-39 50.5 -39 140.5q0 80 24.5 161.5t77.5 137t132 55.5q72 0 111 -50.5t39 -139.5q0 -80 -24.5 -162t-77 -137.5t-132.5 -55.5q-72 0 -111 50.5zM297 87.5q39 50.5 56 122t17 138.5q0 69 -24 104t-70 35q-62 0 -101 -50.5t-56 -122.5t-17 -139q0 -138 94 -138
q62 0 101 50.5zM310 607.5q-12 6.5 -29 18.5q-12 10 -20.5 15t-18.5 5q-14 0 -24.5 -9t-26.5 -31l-29 20q38 65 81 65q15 0 27 -6.5t29 -18.5q12 -10 20.5 -15t18.5 -5q12 0 23.5 10t26.5 32l31 -18q-37 -69 -82 -69q-15 0 -27 6.5zM404 738h-201l6 46h201z" />
    <glyph glyph-name="uni022E" unicode="&#x22e;" horiz-adv-x="572" 
d="M490 632.5q49 -63.5 49 -180.5q0 -107 -31 -213.5t-98 -178t-169 -71.5q-87 0 -136 63.5t-49 180.5q0 104 31.5 211t98.5 179.5t168 72.5q87 0 136 -63.5zM216 579.5q-53 -67.5 -76.5 -163.5t-23.5 -185q0 -95 33.5 -143.5t94.5 -48.5q85 0 137.5 68t75 164t22.5 185
q0 96 -33 143.5t-95 47.5q-82 0 -135 -67.5zM343 806.5q-10 9.5 -10 25.5q0 20 13 32.5t31 12.5q16 0 26 -9.5t10 -25.5q0 -20 -12.5 -32.5t-30.5 -12.5q-17 0 -27 9.5z" />
    <glyph glyph-name="uni022F" unicode="&#x22f;" horiz-adv-x="472" 
d="M83 39.5q-39 50.5 -39 140.5q0 80 24.5 161.5t77.5 137t132 55.5q72 0 111 -50.5t39 -139.5q0 -80 -24.5 -162t-77 -137.5t-132.5 -55.5q-72 0 -111 50.5zM297 87.5q39 50.5 56 122t17 138.5q0 69 -24 104t-70 35q-62 0 -101 -50.5t-56 -122.5t-17 -139q0 -138 94 -138
q62 0 101 50.5zM272 680.5q-10 9.5 -10 25.5q0 20 13 32.5t31 12.5q16 0 26 -9.5t10 -25.5q0 -20 -12.5 -32.5t-30.5 -12.5q-17 0 -27 9.5z" />
    <glyph glyph-name="uni0230" unicode="&#x230;" horiz-adv-x="572" 
d="M490 632.5q49 -63.5 49 -180.5q0 -107 -31 -213.5t-98 -178t-169 -71.5q-87 0 -136 63.5t-49 180.5q0 104 31.5 211t98.5 179.5t168 72.5q87 0 136 -63.5zM216 579.5q-53 -67.5 -76.5 -163.5t-23.5 -185q0 -95 33.5 -143.5t94.5 -48.5q85 0 137.5 68t75 164t22.5 185
q0 96 -33 143.5t-95 47.5q-82 0 -135 -67.5zM334 753.5q-10 9.5 -10 25.5q0 20 13 32.5t31 12.5q16 0 26 -9.5t10 -25.5q0 -20 -12.5 -32.5t-30.5 -12.5q-17 0 -27 9.5zM475 878h-201l6 46h201z" />
    <glyph glyph-name="uni0231" unicode="&#x231;" horiz-adv-x="472" 
d="M83 39.5q-39 50.5 -39 140.5q0 80 24.5 161.5t77.5 137t132 55.5q72 0 111 -50.5t39 -139.5q0 -80 -24.5 -162t-77 -137.5t-132.5 -55.5q-72 0 -111 50.5zM297 87.5q39 50.5 56 122t17 138.5q0 69 -24 104t-70 35q-62 0 -101 -50.5t-56 -122.5t-17 -139q0 -138 94 -138
q62 0 101 50.5zM265 630.5q-10 9.5 -10 25.5q0 20 13 32.5t31 12.5q16 0 26 -9.5t10 -25.5q0 -20 -12.5 -32.5t-30.5 -12.5q-17 0 -27 9.5zM409 757h-201l6 46h201z" />
    <glyph glyph-name="uni0232" unicode="&#x232;" horiz-adv-x="432" 
d="M483 685l-237 -418l-38 -267h-58l38 267l-119 418h59l95 -365l196 365h64zM389 802h-201l6 46h201z" />
    <glyph glyph-name="uni0233" unicode="&#x233;" horiz-adv-x="395" 
d="M199 -4q-28 -68 -55.5 -106.5t-63 -59.5t-92.5 -34l-2 42q45 13 72.5 31t47 47.5t41.5 83.5h-23l-72 523h59l57 -480l190 480h59zM353 676h-201l6 46h201z" />
    <glyph glyph-name="uni0234" unicode="&#x234;" horiz-adv-x="312" 
d="M289 177q21 -22 21 -60q0 -59 -40.5 -93.5t-100.5 -34.5q-41 0 -65 15l-40 -70l-33 18l45 76q-19 28 -19 68q0 14 1 21l87 619l56 7l-89 -634q-2 -14 -1 -20q30 59 58 84.5t65 25.5q34 0 55 -22zM238.5 59q24.5 20 24.5 58q0 19 -9 29.5t-26 10.5q-23 0 -44.5 -22
t-53.5 -87q17 -9 47 -9q37 0 61.5 20z" />
    <glyph glyph-name="uni0235" unicode="&#x235;" horiz-adv-x="576" 
d="M554 178q21 -22 21 -59q0 -60 -40.5 -95t-100.5 -35q-40 0 -67 16l-40 -71l-33 18l46 79q-18 25 -18 68q0 15 1 23l34 249q3 21 3 38q0 77 -57 77q-41 0 -81 -46t-75 -122l-45 -318h-56l74 523h48l-13 -125q36 65 76 100.5t87 35.5t73 -32t26 -89q0 -19 -3 -40l-37 -259
q-2 -18 -1 -25q30 57 58.5 84t64.5 27q34 0 55 -22zM503.5 59q24.5 20 24.5 58q0 19 -9 29.5t-26 10.5q-23 0 -43.5 -22t-54.5 -86q16 -10 47 -10q37 0 61.5 20z" />
    <glyph glyph-name="uni0236" unicode="&#x236;" horiz-adv-x="321" 
d="M299 177q21 -22 21 -60q0 -59 -40.5 -93.5t-100.5 -34.5q-39 0 -65 15l-41 -70l-33 18l46 78q-19 26 -19 70q0 21 2 32l48 345h-72l7 46h73l27 127l45 5l-18 -132h109l-14 -46h-102l-49 -353q-2 -12 -2 -32q29 57 57 82t65 25q35 0 56 -22zM248.5 59q24.5 20 24.5 58
q0 19 -9 29.5t-26 10.5q-24 0 -45 -22t-53 -86q14 -10 47 -10q37 0 61.5 20z" />
    <glyph glyph-name="uni0237" unicode="&#x237;" horiz-adv-x="224" 
d="M-60 -161q35 18 55 36t33.5 50t21.5 88l72 510h56l-73 -515q-9 -65 -27.5 -103.5t-46 -61t-76.5 -46.5z" />
    <glyph glyph-name="uni0238" unicode="&#x238;" horiz-adv-x="695" 
d="M619 485.5q31 -48.5 31 -137.5q0 -95 -24 -177t-69 -132t-107 -50q-37 0 -62 23t-37 63l-16 -75h-43l5 79q-49 -90 -127 -90q-57 0 -91 52t-34 143q0 92 25.5 172.5t72 129t107.5 48.5q35 0 60.5 -20.5t39.5 -55.5l39 278l56 7l-40 -284q53 75 125 75q58 0 89 -48.5z
M342 401q-18 43 -38 64t-50 21q-47 0 -81 -43.5t-52 -113t-18 -145.5q0 -72 20 -110t56 -38t66.5 27t60.5 86zM526.5 82q32.5 46 49 118t16.5 149q0 137 -74 137q-35 0 -64 -23.5t-57 -65.5l-36 -258q14 -53 34.5 -78t51.5 -25q47 0 79.5 46z" />
    <glyph glyph-name="uni0239" unicode="&#x239;" horiz-adv-x="695" 
d="M619 486.5q31 -47.5 31 -135.5q0 -93 -23 -176t-69 -134.5t-109 -51.5q-34 0 -60 20t-40 57l-37 -265l-56 -7l38 270q-25 -36 -56 -55.5t-66 -19.5q-58 0 -92.5 53t-34.5 145q0 88 25.5 168t73 129.5t109.5 49.5q34 0 59.5 -21t39.5 -57l14 67h40l-5 -69q27 39 60 59.5
t69 20.5q58 0 89 -47.5zM244.5 59q29.5 23 57.5 68l38 274q-31 85 -85 85q-48 0 -82.5 -45.5t-52 -115t-17.5 -140.5q0 -73 20.5 -111t56.5 -38q35 0 64.5 23zM527.5 84.5q32.5 47.5 48.5 119.5t16 146q0 68 -19 102t-54 34q-34 0 -63.5 -23.5t-60.5 -66.5l-37 -265
q28 -94 89 -94q48 0 80.5 47.5z" />
    <glyph glyph-name="uni023A" unicode="&#x23a;" horiz-adv-x="476" 
d="M365 0l-22 188h-125l-93 -258l-29 9l89 249h-73l-74 -188h-58l281 685h73l8 -61l43 120l30 -9l-64 -179l71 -556h-57zM131 236h72l102 284l-14 119zM235 236h103l-25 215z" />
    <glyph glyph-name="uni023B" unicode="&#x23b;" horiz-adv-x="459" 
d="M401 638l-210 -585q24 -12 52 -12q39 0 69 14t63 41l26 -39q-75 -68 -163 -68q-36 0 -65 12l-26 -71l-30 9l28 77q-42 28 -65 83.5t-23 135.5q0 109 32 215t99 176t167 70q13 0 33 -2l18 50l30 -9l-18 -49q39 -14 76 -54l-35 -34q-31 31 -58 40zM371 645q-6 1 -17 1
q-81 0 -134.5 -64t-78.5 -159t-25 -190q0 -114 49 -161z" />
    <glyph glyph-name="uni023C" unicode="&#x23c;" horiz-adv-x="386" 
d="M325 476l-158 -432q11 -5 30 -5q28 0 52 10.5t52 30.5l24 -37q-63 -54 -132 -54q-24 0 -44 6l-24 -65l-28 9l25 67q-38 21 -58 65t-20 108q0 83 25.5 165t78.5 136t131 54q19 0 35 -3l22 61l28 -9l-22 -61q29 -14 54 -42l-32 -34q-21 21 -39 30zM297 485q-6 1 -19 1
q-60 0 -100 -48t-58 -119t-18 -142q0 -86 39 -119z" />
    <glyph glyph-name="uni023D" unicode="&#x23d;" horiz-adv-x="395" 
d="M127 53h233l-16 -53h-283l48 339h-80l7 48h80l42 298h58l-42 -298h82l-6 -48h-83z" />
    <glyph glyph-name="uni023E" unicode="&#x23e;" horiz-adv-x="409" 
d="M446 633h-86l-113 -280l-50 -353h-58l19 132l-82 -202l-28 11l127 315l53 377h-164l7 52h277l24 59l28 -11l-19 -48h80zM264 476l63 157h-41z" />
    <glyph glyph-name="uni023F" unicode="&#x23f;" horiz-adv-x="384" 
d="M155 460.5q-28 -25.5 -28 -69.5q0 -32 19.5 -52.5t68.5 -40.5q58 -25 84 -58t26 -84q0 -50 -22.5 -88t-61.5 -58.5t-88 -20.5q-31 0 -56 9q18 -20 29.5 -40.5t24.5 -51.5q14 -33 25.5 -48t33.5 -15q21 0 44 13l20 -36q-17 -12 -32.5 -18.5t-36.5 -6.5q-27 0 -44.5 12.5
t-29 32t-27.5 55.5q-23 52 -46 90t-63 74l29 31q32 -27 60 -40t66 -13q54 0 85.5 31.5t31.5 84.5q0 36 -19.5 59t-71.5 46q-57 24 -81.5 54t-24.5 77q0 40 20.5 73t56.5 52.5t80 19.5q80 0 137 -59l-30 -33q-25 23 -50 33.5t-56 10.5q-45 0 -73 -25.5z" />
    <glyph glyph-name="uni0240" unicode="&#x240;" horiz-adv-x="340" 
d="M-9 44l295 430h-216l8 49h279l-6 -44l-306 -447q48 -15 73 -44.5t48 -76.5q19 -36 32.5 -52t37.5 -16q23 0 44 14l20 -36q-15 -13 -31 -19.5t-38 -6.5q-38 0 -59 21t-44 65q-19 35 -34.5 56.5t-42.5 39t-67 23.5z" />
    <glyph glyph-name="uni0241" unicode="&#x241;" horiz-adv-x="383" 
d="M135 304l56 18q71 21 105.5 69.5t34.5 130.5q0 59 -25 91.5t-75 32.5q-36 0 -70 -17.5t-72 -51.5l-28 36q42 41 85 62t91 21q73 -1 114.5 -48t41.5 -124q0 -99 -44.5 -157t-129.5 -84l-31 -10l-38 -273h-58z" />
    <glyph glyph-name="uni0242" unicode="&#x242;" horiz-adv-x="352" 
d="M91 185l58 19q62 19 92 60.5t30 108.5q0 53 -23.5 82.5t-65.5 29.5q-35 0 -63 -14.5t-60 -42.5l-28 36q36 35 73 52.5t83 17.5q65 0 103.5 -44t38.5 -115q0 -160 -153 -210l-34 -10l-21 -155h-56z" />
    <glyph glyph-name="uni0243" unicode="&#x243;" horiz-adv-x="509" 
d="M455 227q0 -58 -23.5 -109t-77.5 -84.5t-141 -33.5h-157l25 175h-72l6 46h72l66 464h157q83 0 129 -38t46 -108q0 -71 -38.5 -116.5t-105.5 -60.5q114 -22 114 -135zM204 637l-36 -253h106q74 0 113 42.5t39 110.5q0 52 -29.5 76t-86.5 24h-106zM356 101q39 52 39 125
q0 58 -30 84t-90 26h-113l-17 -115h137l-7 -46h-136l-18 -126h100q96 0 135 52z" />
    <glyph glyph-name="uni0244" unicode="&#x244;" horiz-adv-x="549" 
d="M548 514h-52l-47 -338q-11 -80 -67 -133.5t-145 -53.5q-81 0 -122.5 45t-41.5 114q0 21 2 32l47 334h-52l7 43h51l18 128h58l-18 -128h258l18 128h58l-18 -128h53zM438 514h-258l-47 -335q-2 -20 -2 -30q0 -50 27.5 -79.5t82.5 -29.5q65 0 104 40.5t47 102.5z" />
    <glyph glyph-name="uni0245" unicode="&#x245;" horiz-adv-x="476" 
d="M334 685l88 -685h-59l-72 638l-250 -638h-61l281 685h73z" />
    <glyph glyph-name="uni0246" unicode="&#x246;" horiz-adv-x="418" 
d="M423 636h-38l-92 -257h65l-8 -48h-74l-101 -282h179l-8 -49h-189l-25 -70l-30 9l22 61h-74l97 685h223l21 59l30 -9l-18 -50h34zM260 379l92 257h-154l-36 -257h98zM141 49l102 282h-88l-40 -282h26z" />
    <glyph glyph-name="uni0247" unicode="&#x247;" horiz-adv-x="431" 
d="M224 226l-66 -180q19 -8 40 -8q32 0 60.5 12.5t61.5 37.5l25 -37q-38 -31 -74.5 -46.5t-77.5 -15.5q-29 0 -53 9l-25 -68l-27 9l26 71q-34 22 -52 65t-18 103q0 87 26 169t80 134.5t132 52.5q16 0 23 -1l22 59l28 -9l-21 -57q37 -13 56.5 -42.5t19.5 -70.5
q0 -140 -186 -187zM162 418q-43 -69 -55 -168q62 6 101 17l80 220h-10q-73 0 -116 -69zM317 480l-75 -203q56 19 84 52t28 83q0 52 -37 68zM190 218q-39 -7 -87 -12q-1 -9 -1 -27q0 -80 32 -115z" />
    <glyph glyph-name="uni0248" unicode="&#x248;" horiz-adv-x="266" 
d="M257 319h-82l-33 -231q-8 -61 -27 -98t-49.5 -61t-83.5 -48l-15 41q43 23 65.5 44t34 50t18.5 78l32 225h-81l7 48h81l45 318h58l-45 -318h81z" />
    <glyph glyph-name="uni0249" unicode="&#x249;" horiz-adv-x="244" 
d="M229 224h-82l-31 -216q-9 -65 -27.5 -103.5t-46 -61t-76.5 -46.5l-15 42q35 18 55 36t33.5 50t21.5 88l30 211h-83l7 46h82l36 253h56l-36 -253h82zM155 680.5q-10 9.5 -10 25.5q0 20 13 32.5t31 12.5q16 0 26 -9.5t10 -25.5q0 -20 -12.5 -32.5t-30.5 -12.5
q-17 0 -27 9.5z" />
    <glyph glyph-name="uni024A" unicode="&#x24a;" horiz-adv-x="556" 
d="M540 -172q-39 -33 -89 -33q-44 0 -69 25.5t-25 72.5q0 8 2 26l11 81l9 65q-59 -76 -141 -76q-81 0 -130 66t-49 192q0 121 34.5 224t97.5 164t144 61q41 0 70.5 -20.5t52.5 -59.5l16 69h50l-96 -685l-12 -86q-2 -14 -2 -20q0 -50 43 -50q19 0 32.5 5t29.5 16zM389 135
l59 423q-23 46 -48.5 67t-63.5 21q-65 0 -115 -56t-76.5 -148t-26.5 -196q0 -105 34.5 -156t91.5 -51q82 0 145 96z" />
    <glyph glyph-name="uni024B" unicode="&#x24b;" horiz-adv-x="471" 
d="M390 -152l14 -39q-22 -14 -52 -14q-32 0 -50.5 19.5t-18.5 54.5q0 11 1 17l15 115l10 72q-57 -84 -132 -84q-62 0 -98 48t-36 133q0 86 26.5 170t82.5 139t140 55q66 0 132 -38l-69 -495l-16 -118l-1 -11q0 -29 25 -29q14 0 27 5zM255 63.5q32 27.5 62 77.5l48 330
q-38 17 -75 17q-64 0 -106.5 -48t-63 -121t-20.5 -149q0 -66 22 -100t64 -34q37 0 69 27.5z" />
    <glyph glyph-name="uni024C" unicode="&#x24c;" horiz-adv-x="492" 
d="M435.5 401q-37.5 -59 -113.5 -82l107 -319h-60l-102 308h-109l-44 -308h-58l44 308h-73l7 48h72l47 329h138q92 0 137 -39.5t45 -113.5q0 -72 -37.5 -131zM374.5 407.5q38.5 51.5 38.5 122.5q0 55 -28.5 81t-93.5 26h-87l-40 -281h84q88 0 126.5 51.5z" />
    <glyph glyph-name="uni024D" unicode="&#x24d;" horiz-adv-x="316" 
d="M343 527l-17 -53q-20 6 -34 6q-44 0 -76.5 -44.5t-62.5 -132.5h84l-6 -43h-84l-37 -260h-56l37 260h-81l7 43h80l31 220h49l-14 -117q27 63 60 95.5t80 32.5q17 0 40 -7z" />
    <glyph glyph-name="uni024E" unicode="&#x24e;" horiz-adv-x="434" 
d="M432 594h40l-7 -43h-57l-160 -283l-38 -268h-58l37 267l-81 284h-57l6 43h39l-26 91h60l24 -91h218l49 91h63zM225 320l124 231h-184z" />
    <glyph glyph-name="uni024F" unicode="&#x24f;" horiz-adv-x="386" 
d="M393 384l-7 -44h-50l-142 -344q-28 -68 -55.5 -106.5t-63 -59.5t-92.5 -34l-2 42q45 13 72.5 31t47 47.5t41.5 83.5h-23l-47 340h-51l7 44h38l-19 139h59l17 -139h175l55 139h59l-57 -139h38zM163 43l118 297h-153z" />
    <glyph glyph-name="uni0250" unicode="&#x250;" horiz-adv-x="439" 
d="M123 136q-2 -18 -2 -25q0 -37 19.5 -55.5t61.5 -18.5q52 0 116 29l15 -42q-72 -35 -139 -35q-64 0 -97 31t-33 87q0 8 2 28l38 274q4 23 4 42q0 16 -5 25.5t-18 16.5l18 40q27 -8 41.5 -27t14.5 -53q56 81 139 81q55 0 86.5 -35t31.5 -95q0 -94 -57 -145t-147 -51h-79z
M216.5 464q-31.5 -24 -58.5 -72l-19 -142h70q69 0 108.5 40t39.5 113q0 42 -18 63.5t-52 21.5q-39 0 -70.5 -24z" />
    <glyph glyph-name="uni0251" unicode="&#x251;" horiz-adv-x="471" 
d="M363 73q0 -16 5.5 -26.5t18.5 -17.5l-19 -40q-29 9 -43 29t-13 59q-59 -88 -136 -88q-63 0 -98.5 48t-35.5 133q0 83 26 168t76 140.5t118 55.5q72 0 103 -74l18 63h43l-59 -409q-4 -34 -4 -41zM352 396q-13 50 -36 70.5t-56 20.5q-47 0 -84 -48t-57 -122t-20 -147
q0 -66 22 -100t64 -34q67 0 130 104z" />
    <glyph glyph-name="uni0252" unicode="&#x252;" horiz-adv-x="471" 
d="M393.5 486q35.5 -48 35.5 -133q0 -83 -26 -168t-76 -140.5t-118 -55.5q-72 0 -103 74l-18 -63h-43l59 409q4 34 4 41q0 16 -5.5 26.5t-18.5 17.5l19 40q29 -9 43 -29t13 -59q59 88 136 88q63 0 98.5 -48zM295 84q37 48 57 122t20 147q0 66 -22 100t-64 34
q-67 0 -130 -104l-37 -256q13 -50 36 -70.5t56 -20.5q47 0 84 48z" />
    <glyph glyph-name="uni0253" unicode="&#x253;" horiz-adv-x="478" 
d="M401.5 489q33.5 -45 33.5 -129q0 -88 -24 -173t-78 -141.5t-139 -56.5q-37 0 -70.5 8t-73.5 26l70 500h1l13 93q9 61 45 94t93 33q54 0 101 -30l-23 -39q-36 21 -76 21q-73 0 -85 -89l-12 -84l-9 -65q69 77 140 77q60 0 93.5 -45zM297 486q-68 0 -138 -88l-48 -343
q46 -19 87 -19q64 0 104.5 51.5t58 127t17.5 150.5q0 121 -81 121z" />
    <glyph glyph-name="uni0254" unicode="&#x254;" horiz-adv-x="390" 
d="M-9 49l34 31q19 -22 39 -32.5t51 -10.5q55 0 94 43.5t59 114.5t20 154q0 68 -23 102.5t-67 34.5q-29 0 -52.5 -10t-52.5 -31l-24 36q62 53 135 53q66 0 104 -49.5t38 -138.5q0 -99 -28.5 -180.5t-81.5 -129t-123 -47.5q-74 0 -122 60z" />
    <glyph glyph-name="uni0255" unicode="&#x255;" horiz-adv-x="391" 
d="M178 438q-40 -48 -58 -119t-18 -141q0 -64 22 -99q34 73 68.5 104.5t75.5 31.5q39 0 62.5 -24.5t23.5 -64.5q0 -63 -42.5 -100t-107.5 -37q-43 0 -74 17l-39 -72l-33 18l40 76q-26 25 -40 64.5t-14 86.5q0 83 25.5 165t78.5 136t131 54q36 0 64 -13t53 -41l-32 -33
q-20 20 -39.5 29.5t-46.5 9.5q-60 0 -100 -48zM210.5 146q-25.5 -27 -56.5 -95q23 -12 55 -12q43 0 70 22t27 64q0 23 -10.5 35.5t-30.5 12.5q-29 0 -54.5 -27z" />
    <glyph glyph-name="uni0256" unicode="&#x256;" horiz-adv-x="479" 
d="M475 -172q-36 -33 -89 -33q-45 0 -70.5 26t-25.5 73q0 8 2 26l11 80h-1l14 97q-29 -50 -63.5 -79t-81.5 -29q-60 0 -94 48.5t-34 133.5q0 83 24.5 167t74 140t120.5 56q74 0 107 -67l38 276l55 -7l-104 -736h1l-11 -86q-1 -7 -1 -20q0 -52 47 -52q16 0 29 5.5t29 15.5z
M257.5 73q34.5 37 71.5 108l31 229q-14 37 -36 57t-58 20q-53 0 -91 -49t-56.5 -122.5t-18.5 -144.5q0 -65 21 -100t60 -35q42 0 76.5 37z" />
    <glyph glyph-name="uni0257" unicode="&#x257;" horiz-adv-x="478" 
d="M558.5 733.5q20.5 -9.5 37.5 -25.5l-28 -34q-14 11 -26.5 16.5t-30.5 5.5q-25 0 -42 -18.5t-23 -56.5l-14 -98l-74 -523h-48l9 101q-63 -112 -148 -112q-60 0 -94 48.5t-34 133.5q0 83 24.5 167t74 140t120.5 56q74 0 107 -67l7 56l15 100q8 59 39.5 89.5t80.5 30.5
q27 0 47.5 -9.5zM360 410q-14 37 -36 57t-58 20q-53 0 -91 -49t-56.5 -122.5t-18.5 -144.5q0 -65 21 -100t60 -35q42 0 76.5 37t71.5 108z" />
    <glyph glyph-name="uni0258" unicode="&#x258;" horiz-adv-x="429" 
d="M343.5 478.5q39.5 -55.5 39.5 -145.5q0 -96 -30 -175t-84 -124t-123 -45q-44 0 -76.5 16.5t-58.5 47.5l34 33q22 -25 46 -36.5t58 -11.5q57 0 99 45.5t62 121.5q-127 6 -188 43t-61 114q0 50 21.5 89t58.5 61t84 22q79 0 118.5 -55.5zM326 335q0 68 -24 110t-79 42
q-48 0 -76 -33.5t-28 -87.5q0 -59 46.5 -85t154.5 -31q6 41 6 85z" />
    <glyph glyph-name="uni0259" unicode="&#x259;" horiz-adv-x="431" 
d="M348 484.5q39 -49.5 39 -139.5q0 -87 -26 -169t-80 -134.5t-132 -52.5q-61 0 -94.5 33.5t-33.5 87.5q0 97 81 145t226 62q1 9 1 27q0 141 -96 141q-32 0 -60.5 -12.5t-61.5 -37.5l-25 37q38 31 74.5 46.5t77.5 15.5q71 0 110 -49.5zM269 105q43 69 55 168
q-125 -12 -186 -50.5t-61 -111.5q0 -36 18.5 -55.5t57.5 -19.5q73 0 116 69z" />
    <glyph glyph-name="uni025A" unicode="&#x25a;" horiz-adv-x="580" 
d="M620 356q-41 -33 -87 -33q-43 0 -67 25.5t-24 70.5q0 14 1 21l5 33l-73 -41q12 -37 12 -87q0 -87 -26 -169t-80 -134.5t-132 -52.5q-61 0 -94.5 33.5t-33.5 87.5q0 97 81 145t226 62q1 9 1 27q0 141 -96 141q-32 0 -60.5 -12.5t-61.5 -37.5l-25 37q38 31 74.5 46.5
t77.5 15.5q81 0 120 -65l96 54h52l-12 -85q-1 -6 -1 -17q0 -52 45 -52q17 0 31 5t32 16zM269 105q43 69 55 168q-125 -12 -186 -50.5t-61 -111.5q0 -36 18.5 -55.5t57.5 -19.5q73 0 116 69z" />
    <glyph glyph-name="uni025B" unicode="&#x25b;" horiz-adv-x="394" 
d="M73.5 27.5q-40.5 38.5 -40.5 101.5q0 59 34.5 100.5t102.5 48.5q-40 11 -61.5 35.5t-21.5 67.5q0 37 18 72.5t54.5 58t89.5 22.5q74 0 130 -51l-29 -33q-24 18 -47 27.5t-53 9.5q-53 0 -80 -31t-27 -75q0 -40 23 -62.5t69 -22.5h42l-14 -46h-37q-73 0 -104 -33t-31 -87
q0 -44 24 -68.5t67 -24.5q37 0 65.5 12t60.5 38l27 -35q-66 -63 -157 -63q-64 0 -104.5 38.5z" />
    <glyph glyph-name="uni025C" unicode="&#x25c;" horiz-adv-x="401" 
d="M326 501.5q35 -32.5 35 -87.5q0 -56 -31.5 -91t-88.5 -46q46 -6 73 -34t27 -75q0 -45 -20.5 -86t-63.5 -67t-107 -26q-91 0 -149 67l34 34q48 -53 117 -53q67 0 98.5 38t31.5 91q0 44 -29 64.5t-79 20.5h-49l13 46h38q60 0 93.5 31t33.5 83q0 36 -19.5 56t-55.5 20
q-35 0 -62 -10.5t-62 -33.5l-22 35q38 28 74 42t78 14q57 0 92 -32.5z" />
    <glyph glyph-name="uni025D" unicode="&#x25d;" horiz-adv-x="549" 
d="M589 356q-41 -33 -87 -33q-43 0 -67 25.5t-24 70.5q0 14 1 21l5 33l-58 -33q2 -16 2 -26q0 -56 -31.5 -91t-88.5 -46q46 -6 73 -34t27 -75q0 -45 -20.5 -86t-63.5 -67t-107 -26q-91 0 -149 67l34 34q48 -53 117 -53q67 0 98.5 38t31.5 91q0 44 -29 64.5t-79 20.5h-49
l13 46h38q60 0 93.5 31t33.5 83q0 36 -19.5 56t-55.5 20q-35 0 -62 -10.5t-62 -33.5l-22 35q38 28 74 42t78 14q37 0 65.5 -14.5t44.5 -40.5l79 44h52l-12 -85q-1 -6 -1 -17q0 -52 45 -52q17 0 31 5t32 16z" />
    <glyph glyph-name="uni025E" unicode="&#x25e;" horiz-adv-x="451" 
d="M84 38.5q-40 49.5 -40 139.5q0 100 29.5 181t84 128t128.5 47q56 0 91 -33t35 -87q0 -55 -30 -90t-88 -47q96 -16 96 -110q0 -46 -20 -86.5t-62.5 -66t-106.5 -25.5q-77 0 -117 49.5zM302 74q31 37 31 92q0 45 -26 65t-78 20h-28l13 46h22q57 0 88 31t31 82
q0 36 -18.5 56.5t-54.5 20.5q-59 0 -99.5 -43.5t-61 -114.5t-20.5 -153q0 -139 103 -139q67 0 98 37z" />
    <glyph glyph-name="uni025F" unicode="&#x25f;" horiz-adv-x="244" 
d="M229 224h-82l-31 -216q-9 -65 -27.5 -103.5t-46 -61t-76.5 -46.5l-15 42q35 18 55 36t33.5 50t21.5 88l30 211h-83l7 46h82l36 253h56l-36 -253h82z" />
    <glyph glyph-name="uni0260" unicode="&#x260;" horiz-adv-x="474" 
d="M554.5 733.5q20.5 -9.5 37.5 -25.5l-28 -34q-14 11 -26.5 16.5t-30.5 5.5q-25 0 -42 -18.5t-23 -56.5l-14 -98l-75 -526q-30 -203 -191 -203q-38 0 -75 13t-66 35l24 39q54 -38 118 -38q115 0 135 155l12 86q-28 -40 -59.5 -62t-72.5 -22q-63 0 -98.5 48t-35.5 130
q0 84 26 166t81.5 136t138.5 54q39 0 81 -17l1 6l15 100q8 59 39.5 89.5t80.5 30.5q27 0 47.5 -9.5zM365 472q-37 16 -76 16q-62 0 -104.5 -47t-63 -118t-20.5 -143q0 -65 22 -99t64 -34q68 0 131 104z" />
    <glyph glyph-name="uni0261" unicode="&#x261;" horiz-adv-x="469" 
d="M423 496l-70 -499q-28 -203 -191 -203q-38 0 -75 13t-66 35l24 39q54 -38 118 -38q115 0 135 155l12 86q-28 -40 -59.5 -62t-72.5 -22q-63 0 -98.5 48t-35.5 130q0 84 26.5 166t82 136t138.5 54q68 0 132 -38zM184.5 441q-42.5 -47 -63 -118t-20.5 -143q0 -65 22 -99
t64 -34q68 0 131 104l46 320q-38 17 -75 17q-62 0 -104.5 -47z" />
    <glyph glyph-name="uni0262" unicode="&#x262;" horiz-adv-x="455" 
d="M353 520.5q31 -14.5 59 -43.5l-35 -34q-22 23 -45 33.5t-52 10.5q-56 0 -96 -42.5t-60.5 -112.5t-20.5 -152q0 -142 108 -142q51 0 97 26l25 175h-88v47h149l-35 -249q-71 -46 -151 -46q-78 0 -120.5 48.5t-42.5 141.5q0 100 29.5 180.5t83.5 127t123 46.5q41 0 72 -14.5
z" />
    <glyph glyph-name="uni0263" unicode="&#x263;" horiz-adv-x="396" 
d="M199 52q14 -46 21 -80t7 -65q0 -53 -24.5 -82.5t-66.5 -29.5q-33 0 -51.5 20.5t-18.5 55.5q0 34 19 77.5t57 105.5l-90 469h60l64 -429l181 429h60zM165 14q-52 -94 -52 -140q0 -34 26 -34q20 0 30.5 18t10.5 50q0 41 -15 106z" />
    <glyph glyph-name="uni0264" unicode="&#x264;" horiz-adv-x="431" 
d="M463 506l-25 -31q-14 14 -31 14q-14 0 -24 -8t-20 -27l-124 -239q16 -43 23.5 -71.5t7.5 -55.5q0 -45 -23 -72t-64 -27q-33 0 -51.5 19.5t-18.5 53.5q0 31 17 67.5t51 88.5l-56 236q-5 19 -13 27t-21 8q-17 0 -36 -14l-17 34q30 25 61 25t48 -19t24 -54l44 -206l100 207
q18 37 39 54.5t51 17.5q32 0 58 -28zM205 181q-23 -41 -34 -66t-11 -50q0 -32 26 -32q17 0 27 14.5t10 40.5q0 38 -18 93z" />
    <glyph glyph-name="uni0265" unicode="&#x265;" horiz-adv-x="472" 
d="M317 112q-34 -59 -71 -91t-85 -32q-47 0 -74.5 31t-27.5 85q0 17 3 35l54 383h56l-54 -385q-3 -18 -3 -34q0 -69 55 -69q74 0 158 157l46 331h56l-102 -722l-56 -7z" />
    <glyph glyph-name="uni0266" unicode="&#x266;" horiz-adv-x="478" 
d="M390.5 502q27.5 -32 27.5 -88q0 -16 -3 -36l-53 -378h-56l53 376q2 12 2 34q0 76 -57 76q-40 0 -80 -45.5t-76 -118.5l-45 -322h-56l73 522h1l13 94q9 61 45 94t93 33q54 0 101 -30l-23 -39q-36 21 -76 21q-73 0 -85 -89l-12 -84l-16 -114q33 59 70.5 92.5t83.5 33.5
q48 0 75.5 -32z" />
    <glyph glyph-name="uni0267" unicode="&#x267;" horiz-adv-x="478" 
d="M390.5 502q27.5 -32 27.5 -88q0 -16 -3 -36l-53 -378l-13 -85q-8 -59 -41 -89.5t-82 -30.5q-46 0 -83 35l28 34q15 -12 26.5 -17t28.5 -5q26 0 44 18t23 56l13 84l53 376q2 12 2 34q0 76 -57 76q-40 0 -80 -45.5t-76 -118.5l-45 -322h-56l73 522h1l13 94q9 61 45 94
t93 33q54 0 101 -30l-23 -39q-36 21 -76 21q-73 0 -85 -89l-12 -84l-16 -114q33 59 70.5 92.5t83.5 33.5q48 0 75.5 -32z" />
    <glyph glyph-name="uni0268" unicode="&#x268;" horiz-adv-x="241" 
d="M152 680.5q-10 9.5 -10 25.5q0 20 13 32.5t31 12.5q16 0 26 -9.5t10 -25.5q0 -20 -12.5 -32.5t-30.5 -12.5q-17 0 -27 9.5zM237 303l-6 -43h-82l-37 -260h-56l37 260h-83l7 43h82l31 220h56l-31 -220h82z" />
    <glyph glyph-name="uni0269" unicode="&#x269;" horiz-adv-x="234" 
d="M115 523h56l-62 -442q-1 -5 -1 -14q0 -29 26 -29q15 0 30 6l11 -41q-26 -14 -54 -14q-31 0 -50 19.5t-19 54.5q0 7 2 21z" />
    <glyph glyph-name="uni026A" unicode="&#x26a;" horiz-adv-x="255" 
d="M267 479h-81l-62 -435h83l-6 -44h-220l7 44h80l62 435h-82l7 44h219z" />
    <glyph glyph-name="uni026B" unicode="&#x26b;" horiz-adv-x="272" 
d="M297 381q-23 -34 -46 -52.5t-53 -18.5q-15 0 -35 9l-33 -238q-1 -5 -1 -14q0 -29 26 -29q15 0 30 6l11 -41q-26 -14 -54 -14q-31 0 -50 19.5t-19 54.5q0 7 2 21l38 270q-20 13 -35 13q-19 0 -33.5 -11.5t-32.5 -34.5l-31 21q25 35 48 54t54 19q19 0 37 -10l46 331l56 7
l-52 -374q18 -11 32 -11q19 0 33.5 11t30.5 33z" />
    <glyph glyph-name="uni026C" unicode="&#x26c;" horiz-adv-x="282" 
d="M204 44l11 -41q-26 -14 -54 -14q-31 0 -50 19.5t-19 54.5q0 7 2 21l25 182q-46 2 -71 24.5t-25 64.5q0 45 27.5 72t69.5 27q15 0 25 -3l40 285l56 7l-60 -435q25 1 63 8l6 -37q-32 -9 -75 -11l-26 -187q-1 -5 -1 -14q0 -29 26 -29q15 0 30 6zM82 320q14 -12 43 -12
l15 105q-12 2 -21 2q-23 0 -37 -15.5t-14 -42.5q0 -25 14 -37z" />
    <glyph glyph-name="uni026D" unicode="&#x26d;" horiz-adv-x="222" 
d="M219 -172q-36 -33 -89 -33q-45 0 -70.5 26t-25.5 73q0 8 2 26l11 80h-1l105 736l56 8l-105 -744h1l-11 -86q-1 -7 -1 -20q0 -52 47 -52q16 0 29 5.5t29 15.5z" />
    <glyph glyph-name="uni026E" unicode="&#x26e;" horiz-adv-x="528" 
d="M510 479l-218 -281h4q87 0 129.5 -40.5t42.5 -115.5q0 -72 -27.5 -128.5t-76 -87.5t-110.5 -31q-53 0 -90 22t-64 65l37 29q25 -37 52.5 -52.5t65.5 -15.5q71 0 112.5 55.5t41.5 142.5q0 61 -29.5 87.5t-93.5 26.5h-56l7 44l209 276h-282l-55 -394q-1 -5 -1 -14
q0 -29 26 -29q15 0 30 6l11 -41q-26 -14 -54 -14q-31 0 -50 19.5t-19 54.5q0 7 2 21l91 652l56 7l-31 -220h347z" />
    <glyph glyph-name="uni026F" unicode="&#x26f;" horiz-adv-x="697" 
d="M651 523l-74 -523h-48l13 121q-69 -132 -148 -132q-43 0 -68.5 32.5t-25.5 91.5q-66 -124 -145 -124q-44 0 -69.5 32t-25.5 89q0 19 3 38l54 375h56l-52 -373q-3 -22 -3 -40q0 -73 49 -73q36 0 71 44t72 121l47 321h55l-52 -373q-3 -22 -3 -40q0 -73 49 -73q37 0 72 45
t72 124l45 317h56z" />
    <glyph glyph-name="uni0270" unicode="&#x270;" horiz-adv-x="692" 
d="M650 523l-102 -722l-57 -7l46 323q-61 -128 -142 -128q-45 0 -70.5 33.5t-24.5 93.5q-66 -127 -145 -127q-44 0 -69.5 32t-25.5 89q0 19 3 38l53 375h56l-52 -373q-3 -21 -3 -39q0 -74 49 -74q37 0 72.5 44.5t71.5 121.5l46 320h56l-53 -373q-3 -21 -3 -39q0 -74 50 -74
q67 0 143 167l45 319h56z" />
    <glyph glyph-name="uni0271" unicode="&#x271;" horiz-adv-x="697" 
d="M611.5 502q25.5 -32 25.5 -89q0 -18 -3 -38l-54 -375h1l-13 -85q-8 -59 -41 -89.5t-82 -30.5q-46 0 -83 35l28 34q15 -12 26.5 -17t28.5 -5q26 0 44 18t23 56l13 84h-1l52 373q3 23 3 40q0 73 -49 73q-36 0 -71 -44t-72 -121l-47 -321h-55l52 373q3 23 3 40q0 73 -49 73
q-37 0 -72 -45t-72 -124l-45 -317h-56l74 523h48l-13 -121q69 132 148 132q43 0 68.5 -32.5t25.5 -91.5q66 124 145 124q44 0 69.5 -32z" />
    <glyph glyph-name="uni0272" unicode="&#x272;" horiz-adv-x="477" 
d="M389.5 502q27.5 -32 27.5 -88q0 -16 -3 -36l-53 -378h-56l53 376q2 12 2 34q0 76 -56 76q-74 0 -157 -164l-45 -322h1l-13 -85q-8 -59 -41 -89.5t-82 -30.5q-46 0 -83 35l28 34q15 -12 26.5 -17t28.5 -5q26 0 44 18t23 56l13 84h-1l74 523h48l-13 -120q36 63 74.5 97
t85.5 34t74.5 -32z" />
    <glyph glyph-name="uni0273" unicode="&#x273;" horiz-adv-x="477" 
d="M477 -172q-36 -33 -89 -33q-45 0 -70.5 26t-25.5 73q0 8 2 26l11 80l53 376q2 12 2 34q0 76 -56 76q-74 0 -157 -164l-45 -322h-56l74 523h48l-13 -120q36 63 74.5 97t85.5 34t74.5 -32t27.5 -88q0 -16 -3 -36l-53 -378l-11 -86q-1 -7 -1 -20q0 -52 47 -52q16 0 29 5.5
t29 15.5z" />
    <glyph glyph-name="uni0274" unicode="&#x274;" horiz-adv-x="482" 
d="M362 0h-70l-137 467q-4 -85 -16 -171l-41 -296h-52l74 523h70l136 -467q4 85 16 170l42 297h52z" />
    <glyph glyph-name="uni0275" unicode="&#x275;" horiz-adv-x="472" 
d="M389 483.5q39 -50.5 39 -139.5q0 -80 -24.5 -162t-77 -137.5t-132.5 -55.5q-72 0 -111 50.5t-39 140.5q0 80 24.5 161.5t77.5 137t132 55.5q72 0 111 -50.5zM169.5 430.5q-40.5 -56.5 -57.5 -142.5h257q3 32 3 60q0 69 -24.5 104t-71.5 35q-66 0 -106.5 -56.5zM305 96
q41 59 57 147h-257q-4 -32 -4 -68q0 -138 95 -138q68 0 109 59z" />
    <glyph glyph-name="uni0276" unicode="&#x276;" horiz-adv-x="592" 
d="M588 476h-199q39 -48 39 -132q0 -16 -2 -50h112l-7 -45h-111q-11 -65 -36.5 -118t-65.5 -85h220l-7 -46h-280q-27 -11 -57 -11q-72 0 -111 50.5t-39 140.5q0 80 24.5 161.5t77.5 137t132 55.5q31 0 56 -11h268zM297 87.5q39 50.5 56 122t17 138.5q0 69 -24 104t-70 35
q-62 0 -101 -50.5t-56 -122.5t-17 -139q0 -138 94 -138q62 0 101 50.5z" />
    <glyph glyph-name="uni0277" unicode="&#x277;" horiz-adv-x="619" 
d="M515 475.5q55 -58.5 55 -161.5q0 -84 -22 -158.5t-65 -120.5t-105 -46q-47 0 -71.5 27.5t-23.5 80.5q-21 -55 -52.5 -81.5t-75.5 -26.5q-52 0 -83.5 38.5t-31.5 116.5q0 121 37.5 208.5t108.5 134.5t168 47q106 0 161 -58.5zM480 119q35 82 35 194q0 173 -165 173
q-125 0 -189.5 -90.5t-64.5 -249.5q0 -109 66 -109q36 0 64 30.5t39 93.5l24 147l57 8l-26 -159q-4 -30 -4 -42q0 -36 15 -57t46 -21q68 0 103 82z" />
    <glyph glyph-name="uni0278" unicode="&#x278;" horiz-adv-x="516" 
d="M451.5 158.5q-27.5 -70.5 -79.5 -110.5t-124 -43l-28 -202l-56 -8l30 211q-75 6 -116 57t-41 139q0 91 27.5 161.5t79.5 111t123 43.5l30 218l57 7l-31 -226q74 -6 115 -57.5t41 -138.5q0 -92 -27.5 -162.5zM262 471q-82 -7 -125 -80t-43 -191q0 -141 110 -149z
M378.5 131q43.5 73 43.5 191q0 143 -111 149l-57 -420q81 7 124.5 80z" />
    <glyph glyph-name="uni0279" unicode="&#x279;" horiz-adv-x="308" 
d="M-27 -4l17 53q20 -6 34 -6q45 0 77.5 45.5t62.5 135.5l42 299h56l-74 -523h-49l14 117q-27 -63 -60 -95.5t-80 -32.5q-17 0 -40 7z" />
    <glyph glyph-name="uni027A" unicode="&#x27a;" horiz-adv-x="308" 
d="M292 736l-30 -213l-74 -523h-49l14 117q-27 -63 -60 -95.5t-80 -32.5q-17 0 -40 7l17 53q20 -6 34 -6q45 0 77.5 45.5t62.5 135.5l42 299l30 220z" />
    <glyph glyph-name="uni027B" unicode="&#x27b;" horiz-adv-x="309" 
d="M304 -172q-36 -33 -89 -33q-45 0 -70.5 26t-25.5 73q0 8 2 26l11 80l14 106q-23 -57 -54.5 -86.5t-77.5 -29.5q-24 0 -41 7l17 52q20 -6 34 -6q45 0 77.5 45.5t62.5 135.5l42 299h56l-74 -523l-11 -86q-1 -7 -1 -20q0 -52 47 -52q16 0 29 5.5t29 15.5z" />
    <glyph glyph-name="uni027C" unicode="&#x27c;" horiz-adv-x="309" 
d="M336 527l-17 -53q-20 6 -34 6q-45 0 -77.5 -45.5t-62.5 -135.5l-71 -498l-56 -7l103 729h49l-14 -117q27 63 60 95.5t80 32.5q17 0 40 -7z" />
    <glyph glyph-name="uni027D" unicode="&#x27d;" horiz-adv-x="308" 
d="M335 527l-17 -53q-20 6 -34 6q-45 0 -77.5 -45.5t-62.5 -135.5l-42 -299h1l-11 -86q-1 -7 -1 -20q0 -52 47 -52q16 0 29 5.5t29 15.5l23 -35q-36 -33 -89 -33q-45 0 -70.5 26t-25.5 73q0 8 2 26l11 80h-1l74 523h49l-14 -117q27 63 60 95.5t80 32.5q17 0 40 -7z" />
    <glyph glyph-name="uni027E" unicode="&#x27e;" horiz-adv-x="287" 
d="M307 499l-28 -34q-15 12 -26.5 17t-28.5 5q-26 0 -44 -18t-23 -56l-13 -84l-46 -329h-56l46 329l13 85q8 59 41 89.5t82 30.5q46 0 83 -35z" />
    <glyph glyph-name="uni027F" unicode="&#x27f;" horiz-adv-x="288" 
d="M206.5 508q25.5 -26 25.5 -73q0 -8 -2 -26l-11 -80l-47 -329h-56l47 329l11 86q1 7 1 20q0 52 -47 52q-16 0 -29 -5.5t-29 -15.5l-23 35q36 33 89 33q45 0 70.5 -26z" />
    <glyph glyph-name="uni0280" unicode="&#x280;" horiz-adv-x="424" 
d="M352.5 284q-32.5 -41 -89.5 -58l91 -226h-57l-85 217h-80l-30 -217h-56l74 523h108q77 0 117 -34.5t40 -98.5q0 -65 -32.5 -106zM201 262q62 0 95 33t33 94q0 45 -24.5 66.5t-78.5 21.5h-57l-30 -215h62z" />
    <glyph glyph-name="uni0281" unicode="&#x281;" horiz-adv-x="425" 
d="M355 177q0 -87 -52.5 -132t-141.5 -45h-115l74 523h56l-31 -218h82l144 218h58l-154 -229q80 -30 80 -117zM262.5 78q35.5 32 35.5 98q0 85 -92 85h-67l-31 -215h56q63 0 98.5 32z" />
    <glyph glyph-name="uni0282" unicode="&#x282;" horiz-adv-x="384" 
d="M155 460.5q-28 -25.5 -28 -69.5q0 -32 19.5 -52.5t68.5 -40.5q58 -25 84 -58t26 -84q0 -76 -49 -121.5t-125 -45.5q-58 0 -109 32l-14 -107q-1 -7 -1 -20q0 -52 47 -52q18 0 31.5 5.5t29.5 15.5l23 -35q-16 -15 -39 -24t-49 -9q-45 0 -70.5 26t-25.5 74q0 7 2 25l19 139
l30 29q29 -25 58 -38t67 -13q54 0 85.5 31.5t31.5 84.5q0 36 -19.5 59t-71.5 46q-57 24 -81.5 54t-24.5 77q0 40 20.5 73t56.5 52.5t80 19.5q80 0 137 -59l-30 -33q-25 23 -50 33.5t-56 10.5q-45 0 -73 -25.5z" />
    <glyph glyph-name="uni0283" unicode="&#x283;" horiz-adv-x="222" 
d="M302.5 733.5q20.5 -9.5 37.5 -25.5l-28 -34q-14 11 -26.5 16.5t-30.5 5.5q-25 0 -42 -18.5t-23 -56.5l-14 -98l-74 -523l-13 -85q-8 -59 -41 -89.5t-82 -30.5q-46 0 -83 35l28 34q15 -12 26.5 -17t28.5 -5q26 0 44 18t23 56l13 84l74 523l15 100q8 59 39.5 89.5
t80.5 30.5q27 0 47.5 -9.5z" />
    <glyph glyph-name="uni0284" unicode="&#x284;" horiz-adv-x="300" 
d="M322.5 733.5q20.5 -9.5 37.5 -25.5l-28 -34q-14 11 -26.5 16.5t-30.5 5.5q-25 0 -42 -18.5t-23 -56.5l-14 -98h1l-68 -477h83l-6 -46h-83q-10 -62 -28 -98.5t-45.5 -58.5t-74.5 -46l-15 42q33 17 52.5 34.5t33 47t21.5 79.5h-82l6 46h83l67 477h-1l15 100q8 59 39.5 89.5
t80.5 30.5q27 0 47.5 -9.5z" />
    <glyph glyph-name="uni0285" unicode="&#x285;" horiz-adv-x="332" 
d="M301 22q-36 -33 -89 -33q-45 0 -70.5 26t-25.5 73q0 8 2 26l11 80h-1l19 135l11 86q1 7 1 20q0 52 -47 52q-16 0 -29 -5.5t-29 -15.5l-23 35q36 33 89 33q45 0 70.5 -26t25.5 -73q0 -8 -2 -26l-11 -80l-19 -135h1l-11 -86q-1 -7 -1 -20q0 -52 47 -52q16 0 29 5.5t29 15.5
z" />
    <glyph glyph-name="uni0286" unicode="&#x286;" horiz-adv-x="247" 
d="M326.5 733.5q20.5 -9.5 37.5 -25.5l-28 -34q-14 11 -26.5 16.5t-30.5 5.5q-25 0 -42 -18.5t-23 -56.5l-14 -98l-76 -543q47 -14 80 -35l-18 -32q-40 19 -67 28q-12 -68 -47 -106.5t-93 -38.5q-42 0 -67.5 25t-25.5 66q0 52 34 81t86 29q37 0 63 -7l75 533l15 100
q8 59 39.5 89.5t80.5 30.5q27 0 47.5 -9.5zM35 -133.5q20 28.5 29 86.5q-24 6 -59 6t-54 -18.5t-19 -52.5q0 -24 12 -37t35 -13q36 0 56 28.5z" />
    <glyph glyph-name="uni0287" unicode="&#x287;" horiz-adv-x="287" 
d="M235 0h-73l-27 -127l-46 -5l19 132h-109l14 46h101l52 365q1 7 1 20q0 55 -48 55q-29 0 -68 -22l-19 38q48 32 96 32q44 0 69.5 -26.5t25.5 -73.5q0 -7 -2 -25l-51 -363h72z" />
    <glyph glyph-name="uni0288" unicode="&#x288;" horiz-adv-x="287" 
d="M172 477l-66 -477h1l-11 -86q-1 -7 -1 -20q0 -52 47 -52q16 0 29 5.5t29 15.5l23 -35q-36 -33 -89 -33q-45 0 -70.5 26t-25.5 73q0 8 2 26l11 80h-1l67 477h-72l7 46h73l27 127l45 5l-18 -132h109l-14 -46h-102z" />
    <glyph glyph-name="uni0289" unicode="&#x289;" horiz-adv-x="491" 
d="M477 340h-69l-48 -340h-46l13 121q-32 -62 -69 -97t-88 -35q-47 0 -74.5 31t-27.5 86q0 21 2 32l28 202h-70l7 44h70l19 139h56l-19 -139h198l20 139h55l-20 -139h70zM353 340h-198l-29 -205q-2 -11 -2 -31q0 -34 14 -51t40 -17q82 0 154 157z" />
    <glyph glyph-name="uni028A" unicode="&#x28a;" horiz-adv-x="473" 
d="M82.5 38.5q-40.5 49.5 -40.5 134.5q0 94 35 170.5t96 132.5h-74l6 47h123l-6 -48q-61 -65 -91.5 -139t-30.5 -164q0 -136 97 -136q80 0 124.5 76.5t44.5 195.5q0 101 -40 170l7 45h121l-6 -47h-73q49 -77 49 -170q0 -92 -29 -164.5t-81.5 -112.5t-119.5 -40
q-71 0 -111.5 49.5z" />
    <glyph glyph-name="uni028B" unicode="&#x28b;" horiz-adv-x="466" 
d="M95 22q-35 33 -35 90q0 8 2 28l54 383h56l-54 -383q-2 -18 -2 -25q0 -39 19.5 -58.5t53.5 -19.5q54 0 94 48t55 155l27 198q1 6 1 16q0 32 -25 32q-17 0 -30 -7l-9 42q26 13 51 13q33 0 51.5 -19.5t18.5 -58.5q0 -8 -2 -24l-27 -194q-17 -126 -73.5 -187.5t-134.5 -61.5
q-56 0 -91 33z" />
    <glyph glyph-name="uni028C" unicode="&#x28c;" horiz-adv-x="396" 
d="M-22 0l220 523h69l77 -523h-60l-58 473l-189 -473h-59z" />
    <glyph glyph-name="uni028D" unicode="&#x28d;" horiz-adv-x="587" 
d="M-11 0l176 523h72l26 -470l157 470h73l32 -523h-55l-21 479l-162 -479h-65l-26 479l-153 -479h-54z" />
    <glyph glyph-name="uni028E" unicode="&#x28e;" horiz-adv-x="395" 
d="M196 527q31 76 60 117.5t64.5 63t93.5 34.5l2 -42q-46 -13 -73.5 -31.5t-48.5 -52t-46 -94.5l23 1l72 -523h-59l-57 481l-190 -481h-59z" />
    <glyph glyph-name="uni028F" unicode="&#x28f;" horiz-adv-x="379" 
d="M400 523l-191 -317l-28 -206h-56l28 205l-101 318h59l76 -273l153 273h60z" />
    <glyph glyph-name="uni0290" unicode="&#x290;" horiz-adv-x="348" 
d="M398 -172q-36 -33 -89 -33q-45 0 -70.5 26t-25.5 73q0 8 2 26l11 80h-242l7 44l295 430h-216l8 49h279l-6 -44l-295 -430h233l-7 -49l-11 -86q-1 -7 -1 -20q0 -52 47 -52q16 0 29 5.5t29 15.5z" />
    <glyph glyph-name="uni0291" unicode="&#x291;" horiz-adv-x="364" 
d="M325 29q-45 -28 -123 -29q-11 -47 -18 -113l-43 4q8 60 19 109h-176l7 44l295 430h-216l8 49h279l-6 -44l-296 -430h116q18 77 48 115t75 38q34 0 55 -21t21 -57q0 -67 -45 -95zM299 67.5q25 16.5 25 56.5q0 38 -34 38q-27 0 -45.5 -27t-31.5 -86h12q49 2 74 18.5z" />
    <glyph glyph-name="uni0292" unicode="&#x292;" horiz-adv-x="382" 
d="M365 479l-219 -281h5q171 0 171 -156q0 -72 -27.5 -128.5t-76 -87.5t-110.5 -31q-53 0 -89.5 22t-63.5 65l37 29q25 -37 52 -52.5t65 -15.5q71 0 113 55.5t42 142.5q0 61 -30 87.5t-94 26.5h-56l1 1l6 43l209 276h-243l7 48h307z" />
    <glyph glyph-name="uni0293" unicode="&#x293;" horiz-adv-x="384" 
d="M368 479l-218 -281h5q85 0 127 -39.5t42 -114.5q0 -82 -40 -143.5t-109 -87.5l15 -60l-40 -13l-14 61q-30 -6 -62 -6q-65 0 -99.5 30t-34.5 81q0 48 29 80t73 32q46 0 74.5 -34.5t46.5 -123.5q51 23 77 71t26 112q0 60 -29.5 86t-93.5 26h-56l1 1l6 43l209 276h-243l7 48
h307zM9 -140.5q22 -16.5 67 -16.5q23 0 48 5q-16 75 -34.5 102.5t-47.5 27.5q-26 0 -40.5 -19t-14.5 -48q0 -35 22 -51.5z" />
    <glyph glyph-name="uni0294" unicode="&#x294;" horiz-adv-x="359" 
d="M120 340l51 17q75 26 109.5 74t34.5 139q0 59 -26.5 92t-75.5 33q-37 0 -66.5 -16t-65.5 -48l-29 33q42 40 81 59.5t86 19.5q71 0 112.5 -47.5t41.5 -124.5q0 -109 -43 -165t-132 -87l-27 -9l-43 -310h-56z" />
    <glyph glyph-name="uni0295" unicode="&#x295;" horiz-adv-x="357" 
d="M156 0l44 307l-21 8q-56 21 -87.5 58.5t-31.5 113.5q0 71 27 129.5t75 92.5t108 34q48 0 82.5 -20.5t64.5 -61.5l-35 -30q-26 33 -51.5 48.5t-60.5 15.5q-46 0 -80 -28.5t-52.5 -77t-18.5 -107.5q0 -56 24.5 -85t68.5 -45l47 -15l-47 -337h-56z" />
    <glyph glyph-name="uni0296" unicode="&#x296;" horiz-adv-x="408" 
d="M252 743l-44 -317l25 -8q120 -37 120 -172q0 -71 -26.5 -129t-73.5 -91t-106 -33q-49 0 -85.5 20.5t-66.5 61.5l35 28q27 -31 53.5 -47t62.5 -16q45 0 78.5 27t52 74t18.5 105q0 60 -25 90.5t-69 44.5l-53 16l48 339z" />
    <glyph glyph-name="uni0297" unicode="&#x297;" horiz-adv-x="405" 
d="M362 521q28 -13 53 -41l-32 -33q-20 20 -39.5 29.5t-46.5 9.5q-60 0 -104.5 -66.5t-68 -172t-23.5 -219.5q0 -102 24 -144.5t71 -42.5q29 0 52.5 10.5t51.5 31.5l24 -37q-63 -54 -132 -54q-149 0 -149 238q0 137 30.5 252.5t88.5 183.5t136 68q36 0 64 -13z" />
    <glyph glyph-name="uni0298" unicode="&#x298;" horiz-adv-x="656" 
d="M561 628q60 -68 60 -193q0 -128 -42 -229.5t-119 -159t-179 -57.5q-103 0 -163 68.5t-60 192.5q0 127 43 229t120 159.5t176 57.5q104 0 164 -68zM245 596q-64 -52 -98 -142t-34 -202q0 -105 46 -160t125 -55q88 0 151.5 51.5t97 141.5t33.5 205q0 105 -45 159t-126 54
q-86 0 -150 -52zM309 311.5q-10 9.5 -10 25.5q0 20 13 32.5t31 12.5q16 0 26 -9.5t10 -25.5q0 -20 -12.5 -32.5t-30.5 -12.5q-17 0 -27 9.5z" />
    <glyph glyph-name="uni0299" unicode="&#x299;" horiz-adv-x="430" 
d="M368.5 327q-28.5 -33 -82.5 -44q51 -5 75.5 -29.5t24.5 -71.5q0 -88 -57 -135t-151 -47h-132l73 518q75 16 133 16q70 0 107.5 -32.5t37.5 -88.5q0 -53 -28.5 -86zM318.5 468.5q-21.5 18.5 -67.5 18.5q-38 0 -81 -8l-25 -177h83q54 0 83 30t29 82q0 36 -21.5 54.5z
M305 240q-24 17 -76 17h-90l-30 -210h70q68 0 109 32.5t41 101.5q0 42 -24 59z" />
    <glyph glyph-name="uni029A" unicode="&#x29a;" horiz-adv-x="464" 
d="M71.5 26q-39.5 37 -39.5 98q0 60 36 103.5t106 50.5q-38 11 -57 34t-19 64q0 39 18.5 75.5t55.5 59.5t90 23q75 0 116 -51.5t41 -143.5q0 -102 -29 -181t-84 -124t-131 -45q-64 0 -103.5 37zM315.5 122.5q46.5 85.5 46.5 218.5q0 146 -102 146q-55 0 -81.5 -32t-26.5 -79
q0 -37 21 -58.5t62 -21.5h29l-14 -46h-27q-72 0 -102 -36t-30 -89q0 -43 22.5 -65.5t65.5 -22.5q90 0 136.5 85.5z" />
    <glyph glyph-name="uni029B" unicode="&#x29b;" horiz-adv-x="450" 
d="M581 708l-26 -34q-16 11 -28.5 16.5t-29.5 5.5q-26 0 -43 -19t-23 -58l-19 -142l-30 -30q-27 21 -50.5 30.5t-51.5 9.5q-56 0 -96 -42.5t-60.5 -112.5t-20.5 -152q0 -142 108 -142q51 0 97 26l25 175h-88v47h149l-35 -249q-71 -46 -151 -46q-78 0 -120.5 48.5
t-42.5 141.5q0 99 29.5 180t83 127.5t122.5 46.5q48 0 83 -22l15 109q9 59 39.5 90t78.5 31t85 -35z" />
    <glyph glyph-name="uni029C" unicode="&#x29c;" horiz-adv-x="481" 
d="M304 0l36 247h-202l-36 -247h-56l74 523h56l-32 -228h202l32 228h56l-74 -523h-56z" />
    <glyph glyph-name="uni029D" unicode="&#x29d;" horiz-adv-x="288" 
d="M226 741.5q10 -9.5 10 -25.5q0 -20 -12.5 -32.5t-30.5 -12.5q-17 0 -27 9.5t-10 25.5q0 20 13 32.5t31 12.5q16 0 26 -9.5zM124 -20q47 -14 80 -35l-18 -32q-40 19 -67 28q-12 -68 -47 -106.5t-93 -38.5q-42 0 -67.5 25t-25.5 66q0 52 34 81t86 29q37 0 63 -7l75 533h56z
M35 -133.5q20 28.5 29 86.5q-24 6 -59 6t-54 -18.5t-19 -52.5q0 -24 12 -37t35 -13q36 0 56 28.5z" />
    <glyph glyph-name="uni029E" unicode="&#x29e;" horiz-adv-x="404" 
d="M-9 0l211 243l-155 280h62l153 -286l-205 -237h-66zM203 -206l104 729h55l-102 -722z" />
    <glyph glyph-name="uni029F" unicode="&#x29f;" horiz-adv-x="336" 
d="M176 523l-65 -474h193l-15 -49h-243l74 523h56z" />
    <glyph glyph-name="uni02A0" unicode="&#x2a0;" horiz-adv-x="474" 
d="M554.5 733.5q20.5 -9.5 37.5 -25.5l-28 -34q-14 11 -26.5 16.5t-30.5 5.5q-25 0 -42 -18.5t-23 -56.5l-14 -98h1l-102 -722l-57 -7l41 280q-58 -85 -134 -85q-62 0 -98 48t-36 133q0 86 26 170t81 139t137 55q42 0 84 -20l2 9h-1l15 100q8 59 39.5 89.5t80.5 30.5
q27 0 47.5 -9.5zM365 470q-36 18 -75 18q-64 0 -106.5 -48t-63 -121t-20.5 -149q0 -66 22 -100t64 -34q37 0 69 27.5t62 77.5z" />
    <glyph glyph-name="uni02A1" unicode="&#x2a1;" horiz-adv-x="359" 
d="M171 310l-14 -101h94l-7 -45h-93l-23 -164h-56l23 164h-55l7 45h55l18 131l51 17q75 26 109.5 74t34.5 139q0 59 -26.5 92t-75.5 33q-37 0 -66.5 -16t-65.5 -48l-29 33q42 40 81 59.5t86 19.5q71 0 112.5 -47.5t41.5 -124.5q0 -109 -43 -165t-132 -87z" />
    <glyph glyph-name="uni02A2" unicode="&#x2a2;" horiz-adv-x="357" 
d="M352.5 722.5q34.5 -20.5 64.5 -61.5l-35 -30q-26 33 -51.5 48.5t-60.5 15.5q-46 0 -80 -28.5t-52.5 -77t-18.5 -107.5q0 -56 24.5 -85t68.5 -45l47 -15l-18 -128h57l-7 -45h-56l-23 -164h-56l24 164h-93l6 45h93l14 98l-21 8q-56 21 -87.5 58.5t-31.5 113.5
q0 71 27 129.5t75 92.5t108 34q48 0 82.5 -20.5z" />
    </font>
</defs>
</svg>
